tick,type,time,meta,track,numerator,denominator,clocks_per_click,notated_32nd_notes_per_beat,key,tempo,program,channel,control,value,note,velocity
0,track_name,0,1,0,,,,,,,,,,,,
0,control_change,0,0,1,,,,,,,,0,10,79,,
0,track_name,0,1,2,,,,,,,,,,,,
0,program_change,0,0,2,,,,,,,40,1,,,,
0,control_change,0,0,2,,,,,,,,1,7,110,,
0,control_change,0,0,2,,,,,,,,1,10,28,,
0,track_name,0,1,3,,,,,,,,,,,,
0,program_change,0,0,3,,,,,,,40,0,,,,
0,control_change,0,0,3,,,,,,,,0,7,105,,
0,control_change,0,0,3,,,,,,,,0,10,40,,
0,track_name,0,1,4,,,,,,,,,,,,
0,program_change,0,0,4,,,,,,,41,3,,,,
0,control_change,0,0,4,,,,,,,,3,7,109,,
0,control_change,0,0,4,,,,,,,,3,10,85,,
0,note_on,0,0,4,,,,,,,,3,,,65,105
0,control_change,0,0,1,,,,,,,,0,7,105,,
0,track_name,0,1,5,,,,,,,,,,,,
0,control_change,0,0,5,,,,,,,,4,7,109,,
0,control_change,0,0,5,,,,,,,,4,10,99,,
0,note_on,0,0,5,,,,,,,,4,,,50,105
0,track_name,0,1,6,,,,,,,,,,,,
0,program_change,0,0,6,,,,,,,40,5,,,,
0,control_change,0,0,6,,,,,,,,5,7,108,,
0,control_change,0,0,6,,,,,,,,5,10,86,,
0,note_on,0,0,6,,,,,,,,5,,,38,80
0,track_name,0,1,7,,,,,,,,,,,,
0,program_change,0,0,7,,,,,,,6,2,,,,
0,control_change,0,0,7,,,,,,,,2,7,96,,
0,note_on,0,0,7,,,,,,,,2,,,65,105
0,note_on,0,0,7,,,,,,,,2,,,62,105
0,note_on,0,0,7,,,,,,,,2,,,50,105
0,program_change,0,0,5,,,,,,,40,4,,,,
0,program_change,0,0,1,,,,,,,40,0,,,,
0,end_of_track,0,1,8,,,,,,,,,,,,
0,track_name,0,1,1,,,,,,,,,,,,
0,time_signature,0,1,0,4,4,24,8,,,,,,,,
0,key_signature,0,1,0,,,,,C,,,,,,,
0,set_tempo,0,1,0,,,,,,666667,,,,,,
120,note_on,120,0,3,,,,,,,,0,,,74,80
120,note_on,120,0,2,,,,,,,,1,,,74,105
120,note_on,120,0,1,,,,,,,,0,,,74,105
216,note_on,96,0,2,,,,,,,,1,,,74,0
216,note_on,96,0,1,,,,,,,,0,,,74,0
216,note_on,96,0,3,,,,,,,,0,,,74,0
240,note_on,24,0,2,,,,,,,,1,,,74,105
240,note_on,24,0,1,,,,,,,,0,,,74,105
240,note_on,24,0,3,,,,,,,,0,,,74,105
288,note_on,288,0,4,,,,,,,,3,,,65,0
288,note_on,288,0,7,,,,,,,,2,,,50,0
288,note_on,288,0,6,,,,,,,,5,,,38,0
288,note_on,288,0,5,,,,,,,,4,,,50,0
360,note_on,72,0,5,,,,,,,,4,,,53,105
360,note_on,72,0,7,,,,,,,,2,,,53,105
360,note_on,72,0,6,,,,,,,,5,,,41,105
360,note_on,72,0,4,,,,,,,,3,,,69,105
384,note_on,24,0,7,,,,,,,,2,,,62,0
384,note_on,0,0,7,,,,,,,,2,,,65,0
408,note_on,48,0,5,,,,,,,,4,,,53,0
408,note_on,24,0,7,,,,,,,,2,,,53,0
408,note_on,48,0,4,,,,,,,,3,,,69,0
408,note_on,48,0,6,,,,,,,,5,,,41,0
420,note_on,12,0,4,,,,,,,,3,,,67,105
420,note_on,12,0,6,,,,,,,,5,,,40,105
420,note_on,12,0,5,,,,,,,,4,,,52,105
420,note_on,12,0,7,,,,,,,,2,,,52,105
468,note_on,48,0,4,,,,,,,,3,,,67,0
468,note_on,48,0,6,,,,,,,,5,,,40,0
468,note_on,48,0,7,,,,,,,,2,,,52,0
468,note_on,48,0,5,,,,,,,,4,,,52,0
480,note_on,0,0,7,,,,,,,,2,,,65,105
480,note_on,0,0,7,,,,,,,,2,,,50,105
480,note_on,0,0,7,,,,,,,,2,,,65,105
480,note_on,12,0,7,,,,,,,,2,,,57,105
480,note_on,12,0,5,,,,,,,,4,,,50,105
480,note_on,12,0,6,,,,,,,,5,,,38,105
480,note_on,12,0,4,,,,,,,,3,,,65,105
480,note_on,0,0,7,,,,,,,,2,,,69,105
480,note_on,0,0,7,,,,,,,,2,,,62,105
576,note_on,336,0,1,,,,,,,,0,,,74,0
576,note_on,336,0,3,,,,,,,,0,,,74,0
576,note_on,336,0,2,,,,,,,,1,,,74,0
600,note_on,24,0,2,,,,,,,,1,,,77,105
600,note_on,24,0,1,,,,,,,,0,,,77,105
600,note_on,24,0,3,,,,,,,,0,,,77,105
648,note_on,48,0,1,,,,,,,,0,,,77,0
648,note_on,48,0,2,,,,,,,,1,,,77,0
648,note_on,48,0,3,,,,,,,,0,,,77,0
660,note_on,12,0,1,,,,,,,,0,,,76,105
660,note_on,12,0,2,,,,,,,,1,,,76,105
660,note_on,12,0,3,,,,,,,,0,,,76,105
672,note_on,192,0,7,,,,,,,,2,,,57,0
708,note_on,48,0,3,,,,,,,,0,,,76,0
708,note_on,48,0,1,,,,,,,,0,,,76,0
708,note_on,48,0,2,,,,,,,,1,,,76,0
720,note_on,12,0,2,,,,,,,,1,,,74,105
720,note_on,12,0,1,,,,,,,,0,,,74,105
720,note_on,12,0,3,,,,,,,,0,,,74,105
768,note_on,288,0,5,,,,,,,,4,,,50,0
768,note_on,288,0,6,,,,,,,,5,,,38,0
768,note_on,288,0,4,,,,,,,,3,,,65,0
768,note_on,96,0,7,,,,,,,,2,,,50,0
840,note_on,72,0,7,,,,,,,,2,,,53,105
840,note_on,72,0,6,,,,,,,,5,,,41,105
840,note_on,72,0,5,,,,,,,,4,,,53,105
840,note_on,72,0,4,,,,,,,,3,,,69,105
864,note_on,0,0,7,,,,,,,,2,,,62,0
864,note_on,0,0,7,,,,,,,,2,,,65,0
864,note_on,24,0,7,,,,,,,,2,,,69,0
888,note_on,24,0,7,,,,,,,,2,,,53,0
888,note_on,48,0,5,,,,,,,,4,,,53,0
888,note_on,48,0,4,,,,,,,,3,,,69,0
888,note_on,48,0,6,,,,,,,,5,,,41,0
900,note_on,12,0,4,,,,,,,,3,,,67,105
900,note_on,12,0,5,,,,,,,,4,,,52,105
900,note_on,12,0,7,,,,,,,,2,,,52,105
900,note_on,12,0,6,,,,,,,,5,,,40,105
948,note_on,48,0,4,,,,,,,,3,,,67,0
948,note_on,48,0,6,,,,,,,,5,,,40,0
948,note_on,48,0,7,,,,,,,,2,,,52,0
948,note_on,48,0,5,,,,,,,,4,,,52,0
960,note_on,12,0,6,,,,,,,,5,,,38,105
960,note_on,0,0,7,,,,,,,,2,,,50,105
960,note_on,12,0,5,,,,,,,,4,,,50,105
960,note_on,0,0,7,,,,,,,,2,,,69,105
960,note_on,12,0,4,,,,,,,,3,,,65,105
960,note_on,12,0,7,,,,,,,,2,,,74,105
1056,note_on,336,0,3,,,,,,,,0,,,74,0
1056,note_on,336,0,2,,,,,,,,1,,,74,0
1056,note_on,336,0,1,,,,,,,,0,,,74,0
1080,note_on,24,0,1,,,,,,,,0,,,77,105
1080,note_on,24,0,2,,,,,,,,1,,,77,105
1080,note_on,24,0,3,,,,,,,,0,,,77,105
1128,note_on,48,0,2,,,,,,,,1,,,77,0
1128,note_on,48,0,1,,,,,,,,0,,,77,0
1128,note_on,48,0,3,,,,,,,,0,,,77,0
1140,note_on,12,0,1,,,,,,,,0,,,76,105
1140,note_on,12,0,2,,,,,,,,1,,,76,105
1140,note_on,12,0,3,,,,,,,,0,,,76,105
1152,note_on,192,0,7,,,,,,,,2,,,65,0
1188,note_on,48,0,3,,,,,,,,0,,,76,0
1188,note_on,48,0,1,,,,,,,,0,,,76,0
1188,note_on,48,0,2,,,,,,,,1,,,76,0
1200,note_on,12,0,1,,,,,,,,0,,,74,105
1200,note_on,48,0,7,,,,,,,,2,,,69,105
1200,note_on,12,0,3,,,,,,,,0,,,74,105
1200,note_on,12,0,2,,,,,,,,1,,,74,105
1248,note_on,288,0,6,,,,,,,,5,,,38,0
1248,note_on,288,0,5,,,,,,,,4,,,50,0
1248,note_on,48,0,7,,,,,,,,2,,,50,0
1248,note_on,288,0,4,,,,,,,,3,,,65,0
1320,note_on,72,0,6,,,,,,,,5,,,41,105
1320,note_on,72,0,5,,,,,,,,4,,,53,105
1320,note_on,72,0,7,,,,,,,,2,,,53,105
1320,note_on,72,0,4,,,,,,,,3,,,69,105
1368,note_on,48,0,7,,,,,,,,2,,,53,0
1368,note_on,48,0,5,,,,,,,,4,,,53,0
1368,note_on,48,0,6,,,,,,,,5,,,41,0
1368,note_on,48,0,4,,,,,,,,3,,,69,0
1380,note_on,12,0,4,,,,,,,,3,,,67,105
1380,note_on,12,0,5,,,,,,,,4,,,52,105
1380,note_on,12,0,7,,,,,,,,2,,,52,105
1380,note_on,12,0,6,,,,,,,,5,,,40,105
1392,note_on,12,0,7,,,,,,,,2,,,69,0
1428,note_on,48,0,4,,,,,,,,3,,,67,0
1428,note_on,48,0,5,,,,,,,,4,,,52,0
1428,note_on,48,0,6,,,,,,,,5,,,40,0
1428,note_on,36,0,7,,,,,,,,2,,,52,0
1440,note_on,12,0,6,,,,,,,,5,,,38,105
1440,note_on,12,0,5,,,,,,,,4,,,50,105
1440,note_on,0,0,7,,,,,,,,2,,,50,105
1440,note_on,12,0,7,,,,,,,,2,,,65,105
1440,note_on,12,0,4,,,,,,,,3,,,69,105
1536,note_on,96,0,4,,,,,,,,3,,,69,0
1536,note_on,336,0,3,,,,,,,,0,,,74,0
1536,note_on,336,0,1,,,,,,,,0,,,74,0
1536,note_on,96,0,7,,,,,,,,2,,,50,0
1536,note_on,96,0,6,,,,,,,,5,,,38,0
1536,note_on,336,0,2,,,,,,,,1,,,74,0
1536,note_on,96,0,5,,,,,,,,4,,,50,0
1560,note_on,24,0,5,,,,,,,,4,,,50,105
1560,note_on,24,0,2,,,,,,,,1,,,77,105
1560,note_on,24,0,7,,,,,,,,2,,,50,105
1560,note_on,24,0,1,,,,,,,,0,,,77,105
1560,note_on,24,0,6,,,,,,,,5,,,38,105
1560,note_on,24,0,4,,,,,,,,3,,,69,105
1560,note_on,24,0,3,,,,,,,,0,,,77,105
1608,note_on,48,0,2,,,,,,,,1,,,77,0
1608,note_on,48,0,1,,,,,,,,0,,,77,0
1608,note_on,48,0,3,,,,,,,,0,,,77,0
1620,note_on,12,0,1,,,,,,,,0,,,79,105
1620,note_on,12,0,3,,,,,,,,0,,,79,105
1620,note_on,12,0,2,,,,,,,,1,,,79,105
1632,note_on,72,0,7,,,,,,,,2,,,65,0
1656,note_on,96,0,4,,,,,,,,3,,,69,0
1656,note_on,96,0,5,,,,,,,,4,,,50,0
1656,note_on,24,0,7,,,,,,,,2,,,50,0
1656,note_on,96,0,6,,,,,,,,5,,,38,0
1668,note_on,48,0,2,,,,,,,,1,,,79,0
1668,note_on,48,0,1,,,,,,,,0,,,79,0
1668,note_on,48,0,3,,,,,,,,0,,,79,0
1680,note_on,12,0,1,,,,,,,,0,,,81,105
1680,note_on,0,0,7,,,,,,,,2,,,62,105
1680,note_on,24,0,7,,,,,,,,2,,,50,105
1680,note_on,12,0,3,,,,,,,,0,,,81,105
1680,note_on,24,0,4,,,,,,,,3,,,69,105
1680,note_on,12,0,2,,,,,,,,1,,,81,105
1680,note_on,24,0,5,,,,,,,,4,,,50,105
1680,note_on,24,0,6,,,,,,,,5,,,38,105
1728,note_on,48,0,7,,,,,,,,2,,,74,0
1728,note_on,0,0,7,,,,,,,,2,,,69,0
1776,note_on,96,0,5,,,,,,,,4,,,50,0
1776,note_on,48,0,7,,,,,,,,2,,,50,0
1776,note_on,96,0,6,,,,,,,,5,,,38,0
1776,note_on,96,0,2,,,,,,,,1,,,81,0
1776,note_on,96,0,4,,,,,,,,3,,,69,0
1776,note_on,96,0,3,,,,,,,,0,,,81,0
1776,note_on,96,0,1,,,,,,,,0,,,81,0
1800,note_on,24,0,1,,,,,,,,0,,,79,105
1800,note_on,24,0,2,,,,,,,,1,,,79,105
1800,note_on,24,0,7,,,,,,,,2,,,50,105
1800,note_on,24,0,6,,,,,,,,5,,,38,105
1800,note_on,24,0,4,,,,,,,,3,,,69,105
1800,note_on,24,0,3,,,,,,,,0,,,79,105
1800,note_on,24,0,5,,,,,,,,4,,,50,105
1848,note_on,48,0,3,,,,,,,,0,,,79,0
1848,note_on,48,0,2,,,,,,,,1,,,79,0
1848,note_on,48,0,1,,,,,,,,0,,,79,0
1860,note_on,12,0,3,,,,,,,,0,,,77,105
1860,note_on,12,0,1,,,,,,,,0,,,77,105
1860,note_on,12,0,2,,,,,,,,1,,,77,105
1872,note_on,72,0,7,,,,,,,,2,,,62,0
1896,note_on,24,0,7,,,,,,,,2,,,50,0
1896,note_on,96,0,6,,,,,,,,5,,,38,0
1896,note_on,96,0,4,,,,,,,,3,,,69,0
1896,note_on,96,0,5,,,,,,,,4,,,50,0
1908,note_on,48,0,1,,,,,,,,0,,,77,0
1908,note_on,48,0,3,,,,,,,,0,,,77,0
1908,note_on,48,0,2,,,,,,,,1,,,77,0
1920,note_on,0,0,7,,,,,,,,2,,,45,105
1920,note_on,0,0,7,,,,,,,,2,,,64,105
1920,note_on,24,0,5,,,,,,,,4,,,45,105
1920,note_on,12,0,2,,,,,,,,1,,,76,105
1920,note_on,12,0,3,,,,,,,,0,,,73,105
1920,note_on,0,0,7,,,,,,,,2,,,69,105
1920,note_on,24,0,7,,,,,,,,2,,,73,105
1920,note_on,24,0,4,,,,,,,,3,,,69,105
1920,note_on,12,0,1,,,,,,,,0,,,76,105
1920,note_on,24,0,6,,,,,,,,5,,,38,105
2016,note_on,96,0,3,,,,,,,,0,,,73,0
2016,note_on,96,0,1,,,,,,,,0,,,76,0
2016,note_on,96,0,2,,,,,,,,1,,,76,0
2040,note_on,24,0,2,,,,,,,,1,,,76,105
2040,note_on,24,0,1,,,,,,,,0,,,76,105
2040,note_on,24,0,3,,,,,,,,0,,,73,105
2112,note_on,192,0,7,,,,,,,,2,,,64,0
2136,note_on,96,0,2,,,,,,,,1,,,76,0
2136,note_on,96,0,1,,,,,,,,0,,,76,0
2136,note_on,96,0,3,,,,,,,,0,,,73,0
2160,note_on,24,0,3,,,,,,,,0,,,73,105
2160,note_on,48,0,7,,,,,,,,2,,,57,105
2160,note_on,24,0,1,,,,,,,,0,,,76,105
2160,note_on,24,0,2,,,,,,,,1,,,76,105
2208,note_on,288,0,5,,,,,,,,4,,,45,0
2208,note_on,288,0,6,,,,,,,,5,,,38,0
2208,note_on,48,0,7,,,,,,,,2,,,45,0
2208,note_on,288,0,4,,,,,,,,3,,,69,0
2280,note_on,72,0,7,,,,,,,,2,,,49,105
2280,note_on,72,0,5,,,,,,,,4,,,49,105
2280,note_on,72,0,6,,,,,,,,5,,,37,105
2280,note_on,72,0,4,,,,,,,,3,,,64,105
2328,note_on,48,0,4,,,,,,,,3,,,64,0
2328,note_on,48,0,7,,,,,,,,2,,,49,0
2328,note_on,48,0,5,,,,,,,,4,,,49,0
2328,note_on,48,0,6,,,,,,,,5,,,37,0
2340,note_on,12,0,7,,,,,,,,2,,,46,105
2340,note_on,12,0,5,,,,,,,,4,,,46,105
2340,note_on,12,0,6,,,,,,,,5,,,34,105
2340,note_on,12,0,4,,,,,,,,3,,,62,105
2352,note_on,12,0,7,,,,,,,,2,,,57,0
2388,note_on,48,0,4,,,,,,,,3,,,62,0
2388,note_on,48,0,6,,,,,,,,5,,,34,0
2388,note_on,48,0,5,,,,,,,,4,,,46,0
2388,note_on,36,0,7,,,,,,,,2,,,46,0
2400,note_on,0,0,7,,,,,,,,2,,,64,105
2400,note_on,12,0,4,,,,,,,,3,,,61,105
2400,note_on,12,0,7,,,,,,,,2,,,45,105
2400,note_on,12,0,5,,,,,,,,4,,,45,105
2400,note_on,12,0,6,,,,,,,,5,,,33,105
2496,note_on,336,0,2,,,,,,,,1,,,76,0
2496,note_on,336,0,3,,,,,,,,0,,,73,0
2496,note_on,336,0,1,,,,,,,,0,,,76,0
2520,note_on,24,0,1,,,,,,,,0,,,79,105
2520,note_on,24,0,2,,,,,,,,1,,,79,105
2520,note_on,24,0,3,,,,,,,,0,,,76,105
2568,note_on,48,0,1,,,,,,,,0,,,79,0
2568,note_on,48,0,2,,,,,,,,1,,,79,0
2568,note_on,48,0,3,,,,,,,,0,,,76,0
2580,note_on,12,0,1,,,,,,,,0,,,77,105
2580,note_on,12,0,2,,,,,,,,1,,,77,105
2580,note_on,12,0,3,,,,,,,,0,,,74,105
2592,note_on,192,0,7,,,,,,,,2,,,64,0
2628,note_on,48,0,3,,,,,,,,0,,,74,0
2628,note_on,48,0,1,,,,,,,,0,,,77,0
2628,note_on,48,0,2,,,,,,,,1,,,77,0
2640,note_on,12,0,2,,,,,,,,1,,,76,105
2640,note_on,48,0,7,,,,,,,,2,,,67,105
2640,note_on,12,0,1,,,,,,,,0,,,76,105
2640,note_on,12,0,3,,,,,,,,0,,,73,105
2688,note_on,0,0,7,,,,,,,,2,,,69,0
2688,note_on,0,0,7,,,,,,,,2,,,45,0
2688,note_on,288,0,5,,,,,,,,4,,,45,0
2688,note_on,48,0,7,,,,,,,,2,,,73,0
2688,note_on,288,0,6,,,,,,,,5,,,33,0
2688,note_on,288,0,4,,,,,,,,3,,,61,0
2760,note_on,72,0,5,,,,,,,,4,,,49,105
2760,note_on,72,0,6,,,,,,,,5,,,37,105
2760,note_on,72,0,7,,,,,,,,2,,,49,105
2760,note_on,72,0,4,,,,,,,,3,,,64,105
2808,note_on,48,0,5,,,,,,,,4,,,49,0
2808,note_on,48,0,4,,,,,,,,3,,,64,0
2808,note_on,48,0,6,,,,,,,,5,,,37,0
2808,note_on,48,0,7,,,,,,,,2,,,49,0
2820,note_on,12,0,4,,,,,,,,3,,,62,105
2820,note_on,12,0,6,,,,,,,,5,,,34,105
2820,note_on,12,0,5,,,,,,,,4,,,46,105
2820,note_on,12,0,7,,,,,,,,2,,,46,105
2868,note_on,48,0,5,,,,,,,,4,,,46,0
2868,note_on,48,0,7,,,,,,,,2,,,46,0
2868,note_on,48,0,4,,,,,,,,3,,,62,0
2868,note_on,48,0,6,,,,,,,,5,,,34,0
2880,note_on,12,0,5,,,,,,,,4,,,45,105
2880,note_on,0,0,7,,,,,,,,2,,,45,105
2880,note_on,0,0,7,,,,,,,,2,,,73,105
2880,note_on,12,0,7,,,,,,,,2,,,76,105
2880,note_on,12,0,4,,,,,,,,3,,,61,105
2880,note_on,12,0,6,,,,,,,,5,,,33,105
2976,note_on,336,0,1,,,,,,,,0,,,76,0
2976,note_on,336,0,2,,,,,,,,1,,,76,0
2976,note_on,336,0,3,,,,,,,,0,,,73,0
3000,note_on,24,0,1,,,,,,,,0,,,79,105
3000,note_on,24,0,2,,,,,,,,1,,,79,105
3000,note_on,24,0,3,,,,,,,,0,,,76,105
3048,note_on,48,0,3,,,,,,,,0,,,76,0
3048,note_on,48,0,2,,,,,,,,1,,,79,0
3048,note_on,48,0,1,,,,,,,,0,,,79,0
3060,note_on,12,0,1,,,,,,,,0,,,77,105
3060,note_on,12,0,2,,,,,,,,1,,,77,105
3060,note_on,12,0,3,,,,,,,,0,,,74,105
3072,note_on,192,0,7,,,,,,,,2,,,67,0
3108,note_on,48,0,1,,,,,,,,0,,,77,0
3108,note_on,48,0,2,,,,,,,,1,,,77,0
3108,note_on,48,0,3,,,,,,,,0,,,74,0
3120,note_on,12,0,3,,,,,,,,0,,,73,105
3120,note_on,12,0,2,,,,,,,,1,,,76,105
3120,note_on,12,0,1,,,,,,,,0,,,76,105
3120,note_on,48,0,7,,,,,,,,2,,,64,105
3168,note_on,48,0,7,,,,,,,,2,,,45,0
3168,note_on,288,0,4,,,,,,,,3,,,61,0
3168,note_on,288,0,6,,,,,,,,5,,,33,0
3168,note_on,288,0,5,,,,,,,,4,,,45,0
3240,note_on,72,0,7,,,,,,,,2,,,48,105
3240,note_on,72,0,6,,,,,,,,5,,,36,105
3240,note_on,72,0,5,,,,,,,,4,,,48,105
3240,note_on,72,0,4,,,,,,,,3,,,64,105
3288,note_on,48,0,7,,,,,,,,2,,,48,0
3288,note_on,48,0,5,,,,,,,,4,,,48,0
3288,note_on,48,0,6,,,,,,,,5,,,36,0
3288,note_on,48,0,4,,,,,,,,3,,,64,0
3300,note_on,12,0,6,,,,,,,,5,,,34,105
3300,note_on,12,0,7,,,,,,,,2,,,46,105
3300,note_on,12,0,5,,,,,,,,4,,,46,105
3300,note_on,12,0,4,,,,,,,,3,,,62,105
3312,note_on,12,0,7,,,,,,,,2,,,64,0
3348,note_on,48,0,6,,,,,,,,5,,,34,0
3348,note_on,48,0,4,,,,,,,,3,,,62,0
3348,note_on,36,0,7,,,,,,,,2,,,46,0
3348,note_on,48,0,5,,,,,,,,4,,,46,0
3360,note_on,12,0,5,,,,,,,,4,,,45,105
3360,note_on,12,0,6,,,,,,,,5,,,33,105
3360,note_on,12,0,7,,,,,,,,2,,,45,105
3360,note_on,12,0,4,,,,,,,,3,,,61,105
3360,note_on,0,0,7,,,,,,,,2,,,67,105
3456,note_on,96,0,4,,,,,,,,3,,,61,0
3456,note_on,336,0,2,,,,,,,,1,,,76,0
3456,note_on,96,0,7,,,,,,,,2,,,45,0
3456,note_on,96,0,5,,,,,,,,4,,,45,0
3456,note_on,336,0,1,,,,,,,,0,,,76,0
3456,note_on,336,0,3,,,,,,,,0,,,73,0
3456,note_on,96,0,6,,,,,,,,5,,,33,0
3480,note_on,24,0,6,,,,,,,,5,,,33,105
3480,note_on,24,0,7,,,,,,,,2,,,45,105
3480,note_on,24,0,4,,,,,,,,3,,,61,105
3480,note_on,24,0,5,,,,,,,,4,,,45,105
3480,note_on,24,0,1,,,,,,,,0,,,79,105
3480,note_on,24,0,3,,,,,,,,0,,,76,105
3480,note_on,24,0,2,,,,,,,,1,,,79,105
3528,note_on,48,0,3,,,,,,,,0,,,76,0
3528,note_on,48,0,2,,,,,,,,1,,,79,0
3528,note_on,48,0,1,,,,,,,,0,,,79,0
3540,note_on,12,0,2,,,,,,,,1,,,81,105
3540,note_on,12,0,1,,,,,,,,0,,,81,105
3540,note_on,12,0,3,,,,,,,,0,,,77,105
3552,note_on,72,0,7,,,,,,,,2,,,67,0
3576,note_on,96,0,6,,,,,,,,5,,,33,0
3576,note_on,96,0,5,,,,,,,,4,,,45,0
3576,note_on,96,0,4,,,,,,,,3,,,61,0
3576,note_on,24,0,7,,,,,,,,2,,,45,0
3588,note_on,48,0,2,,,,,,,,1,,,81,0
3588,note_on,48,0,3,,,,,,,,0,,,77,0
3588,note_on,48,0,1,,,,,,,,0,,,81,0
3600,note_on,24,0,7,,,,,,,,2,,,70,105
3600,note_on,24,0,5,,,,,,,,4,,,45,105
3600,note_on,12,0,1,,,,,,,,0,,,82,105
3600,note_on,12,0,3,,,,,,,,0,,,79,105
3600,note_on,0,0,7,,,,,,,,2,,,45,105
3600,note_on,12,0,2,,,,,,,,1,,,82,105
3600,note_on,24,0,4,,,,,,,,3,,,61,105
3600,note_on,24,0,6,,,,,,,,5,,,33,105
3648,note_on,0,0,7,,,,,,,,2,,,76,0
3648,note_on,48,0,7,,,,,,,,2,,,73,0
3696,note_on,96,0,1,,,,,,,,0,,,82,0
3696,note_on,48,0,7,,,,,,,,2,,,45,0
3696,note_on,96,0,2,,,,,,,,1,,,82,0
3696,note_on,96,0,3,,,,,,,,0,,,79,0
3696,note_on,96,0,5,,,,,,,,4,,,45,0
3696,note_on,96,0,4,,,,,,,,3,,,61,0
3696,note_on,96,0,6,,,,,,,,5,,,33,0
3720,note_on,24,0,6,,,,,,,,5,,,33,105
3720,note_on,24,0,3,,,,,,,,0,,,77,105
3720,note_on,24,0,4,,,,,,,,3,,,61,105
3720,note_on,24,0,1,,,,,,,,0,,,81,105
3720,note_on,24,0,5,,,,,,,,4,,,45,105
3720,note_on,24,0,7,,,,,,,,2,,,45,105
3720,note_on,24,0,2,,,,,,,,1,,,81,105
3768,note_on,48,0,1,,,,,,,,0,,,81,0
3768,note_on,48,0,2,,,,,,,,1,,,81,0
3768,note_on,48,0,3,,,,,,,,0,,,77,0
3780,note_on,12,0,2,,,,,,,,1,,,79,105
3780,note_on,12,0,3,,,,,,,,0,,,76,105
3780,note_on,12,0,1,,,,,,,,0,,,79,105
3792,note_on,72,0,7,,,,,,,,2,,,70,0
3816,note_on,24,0,7,,,,,,,,2,,,45,0
3816,note_on,96,0,5,,,,,,,,4,,,45,0
3816,note_on,96,0,4,,,,,,,,3,,,61,0
3816,note_on,96,0,6,,,,,,,,5,,,33,0
3828,note_on,48,0,3,,,,,,,,0,,,76,0
3828,note_on,48,0,1,,,,,,,,0,,,79,0
3828,note_on,48,0,2,,,,,,,,1,,,79,0
3840,note_on,0,0,7,,,,,,,,2,,,65,105
3840,note_on,12,0,1,,,,,,,,0,,,77,105
3840,note_on,24,0,5,,,,,,,,4,,,50,105
3840,note_on,12,0,2,,,,,,,,1,,,77,105
3840,note_on,24,0,6,,,,,,,,5,,,38,105
3840,note_on,24,0,7,,,,,,,,2,,,74,105
3840,note_on,24,0,4,,,,,,,,3,,,57,105
3840,note_on,12,0,3,,,,,,,,0,,,74,105
3840,note_on,0,0,7,,,,,,,,2,,,50,105
3840,note_on,0,0,7,,,,,,,,2,,,69,105
3888,note_on,48,0,2,,,,,,,,1,,,77,0
3888,note_on,48,0,1,,,,,,,,0,,,77,0
3900,note_on,12,0,1,,,,,,,,0,,,81,105
3900,note_on,12,0,2,,,,,,,,1,,,81,105
3936,note_on,96,0,5,,,,,,,,4,,,50,0
3936,note_on,96,0,6,,,,,,,,5,,,38,0
3936,note_on,96,0,7,,,,,,,,2,,,50,0
3948,note_on,48,0,2,,,,,,,,1,,,81,0
3948,note_on,48,0,1,,,,,,,,0,,,81,0
3960,note_on,24,0,6,,,,,,,,5,,,38,105
3960,note_on,12,0,2,,,,,,,,1,,,81,105
3960,note_on,24,0,5,,,,,,,,4,,,50,105
3960,note_on,12,0,1,,,,,,,,0,,,81,105
3960,note_on,24,0,7,,,,,,,,2,,,50,105
4008,note_on,48,0,6,,,,,,,,5,,,38,0
4008,note_on,48,0,7,,,,,,,,2,,,50,0
4008,note_on,48,0,5,,,,,,,,4,,,50,0
4020,note_on,12,0,7,,,,,,,,2,,,52,105
4020,note_on,12,0,6,,,,,,,,5,,,40,105
4020,note_on,12,0,5,,,,,,,,4,,,52,105
4032,note_on,12,0,7,,,,,,,,2,,,65,0
4032,note_on,192,0,3,,,,,,,,0,,,74,0
4032,note_on,192,0,4,,,,,,,,3,,,57,0
4056,note_on,96,0,2,,,,,,,,1,,,81,0
4056,note_on,96,0,1,,,,,,,,0,,,81,0
4068,note_on,36,0,7,,,,,,,,2,,,52,0
4068,note_on,48,0,6,,,,,,,,5,,,40,0
4068,note_on,48,0,5,,,,,,,,4,,,52,0
4080,note_on,0,0,7,,,,,,,,2,,,62,105
4080,note_on,12,0,5,,,,,,,,4,,,53,105
4080,note_on,12,0,7,,,,,,,,2,,,53,105
4080,note_on,12,0,6,,,,,,,,5,,,41,105
4140,note_on,84,0,1,,,,,,,,0,,,81,105
4140,note_on,84,0,2,,,,,,,,1,,,81,105
4176,note_on,96,0,6,,,,,,,,5,,,41,0
4176,note_on,96,0,7,,,,,,,,2,,,53,0
4176,note_on,96,0,5,,,,,,,,4,,,53,0
4188,note_on,48,0,1,,,,,,,,0,,,81,0
4188,note_on,48,0,2,,,,,,,,1,,,81,0
4200,note_on,24,0,7,,,,,,,,2,,,50,105
4200,note_on,168,0,4,,,,,,,,3,,,65,105
4200,note_on,168,0,3,,,,,,,,0,,,69,105
4200,note_on,12,0,2,,,,,,,,1,,,81,105
4200,note_on,12,0,1,,,,,,,,0,,,81,105
4200,note_on,24,0,5,,,,,,,,4,,,50,105
4200,note_on,24,0,6,,,,,,,,5,,,38,105
4224,note_on,0,0,7,,,,,,,,2,,,69,0
4224,note_on,24,0,7,,,,,,,,2,,,74,0
4272,note_on,48,0,7,,,,,,,,2,,,62,0
4296,note_on,96,0,4,,,,,,,,3,,,65,0
4296,note_on,96,0,3,,,,,,,,0,,,69,0
4296,note_on,24,0,7,,,,,,,,2,,,50,0
4296,note_on,96,0,5,,,,,,,,4,,,50,0
4296,note_on,96,0,2,,,,,,,,1,,,81,0
4296,note_on,96,0,6,,,,,,,,5,,,38,0
4296,note_on,96,0,1,,,,,,,,0,,,81,0
4320,note_on,24,0,4,,,,,,,,3,,,67,105
4320,note_on,24,0,3,,,,,,,,0,,,70,105
4380,note_on,84,0,1,,,,,,,,0,,,81,105
4380,note_on,84,0,2,,,,,,,,1,,,81,105
4416,note_on,96,0,3,,,,,,,,0,,,70,0
4416,note_on,96,0,4,,,,,,,,3,,,67,0
4428,note_on,48,0,1,,,,,,,,0,,,81,0
4428,note_on,48,0,2,,,,,,,,1,,,81,0
4440,note_on,24,0,3,,,,,,,,0,,,71,105
4440,note_on,12,0,1,,,,,,,,0,,,81,105
4440,note_on,12,0,2,,,,,,,,1,,,81,105
4440,note_on,24,0,4,,,,,,,,3,,,67,105
4536,note_on,96,0,3,,,,,,,,0,,,71,0
4536,note_on,96,0,4,,,,,,,,3,,,67,0
4536,note_on,96,0,1,,,,,,,,0,,,81,0
4536,note_on,96,0,2,,,,,,,,1,,,81,0
4560,note_on,24,0,4,,,,,,,,3,,,69,105
4560,note_on,24,0,3,,,,,,,,0,,,72,105
4620,note_on,84,0,1,,,,,,,,0,,,79,105
4620,note_on,84,0,2,,,,,,,,1,,,79,105
4656,note_on,96,0,4,,,,,,,,3,,,69,0
4656,note_on,96,0,3,,,,,,,,0,,,72,0
4668,note_on,48,0,1,,,,,,,,0,,,79,0
4668,note_on,48,0,2,,,,,,,,1,,,79,0
4680,note_on,12,0,2,,,,,,,,1,,,79,105
4680,note_on,12,0,1,,,,,,,,0,,,79,105
4680,note_on,24,0,4,,,,,,,,3,,,69,105
4680,note_on,24,0,3,,,,,,,,0,,,73,105
4728,note_on,48,0,1,,,,,,,,0,,,79,0
4728,note_on,48,0,2,,,,,,,,1,,,79,0
4740,note_on,12,0,1,,,,,,,,0,,,79,105
4740,note_on,12,0,2,,,,,,,,1,,,79,105
4776,note_on,96,0,4,,,,,,,,3,,,69,0
4776,note_on,96,0,3,,,,,,,,0,,,73,0
4788,note_on,48,0,1,,,,,,,,0,,,79,0
4788,note_on,48,0,2,,,,,,,,1,,,79,0
4800,note_on,24,0,3,,,,,,,,0,,,74,105
4800,note_on,12,0,2,,,,,,,,1,,,77,105
4800,note_on,12,0,1,,,,,,,,0,,,77,105
4800,note_on,24,0,4,,,,,,,,3,,,62,105
4848,note_on,48,0,3,,,,,,,,0,,,74,0
4860,note_on,12,0,3,,,,,,,,0,,,86,105
4908,note_on,48,0,3,,,,,,,,0,,,86,0
4920,note_on,12,0,3,,,,,,,,0,,,86,105
4920,note_on,624,0,5,,,,,,,,4,,,50,105
4920,note_on,624,0,6,,,,,,,,5,,,38,105
4920,note_on,624,0,7,,,,,,,,2,,,50,105
4968,note_on,48,0,7,,,,,,,,2,,,50,0
4968,note_on,48,0,5,,,,,,,,4,,,50,0
4968,note_on,48,0,6,,,,,,,,5,,,38,0
4980,note_on,12,0,5,,,,,,,,4,,,52,105
4980,note_on,12,0,7,,,,,,,,2,,,52,105
4980,note_on,12,0,6,,,,,,,,5,,,40,105
4992,note_on,192,0,2,,,,,,,,1,,,77,0
4992,note_on,192,0,4,,,,,,,,3,,,62,0
4992,note_on,192,0,1,,,,,,,,0,,,77,0
5016,note_on,96,0,3,,,,,,,,0,,,86,0
5028,note_on,48,0,7,,,,,,,,2,,,52,0
5028,note_on,48,0,5,,,,,,,,4,,,52,0
5028,note_on,48,0,6,,,,,,,,5,,,40,0
5040,note_on,0,0,7,,,,,,,,2,,,69,105
5040,note_on,0,0,7,,,,,,,,2,,,53,105
5040,note_on,0,0,7,,,,,,,,2,,,62,105
5040,note_on,12,0,5,,,,,,,,4,,,53,105
5040,note_on,12,0,7,,,,,,,,2,,,74,105
5040,note_on,12,0,6,,,,,,,,5,,,41,105
5100,note_on,84,0,3,,,,,,,,0,,,86,105
5136,note_on,96,0,5,,,,,,,,4,,,53,0
5136,note_on,96,0,7,,,,,,,,2,,,53,0
5136,note_on,96,0,6,,,,,,,,5,,,41,0
5148,note_on,48,0,3,,,,,,,,0,,,86,0
5160,note_on,168,0,1,,,,,,,,0,,,74,105
5160,note_on,12,0,3,,,,,,,,0,,,86,105
5160,note_on,24,0,7,,,,,,,,2,,,50,105
5160,note_on,168,0,4,,,,,,,,3,,,62,105
5160,note_on,168,0,2,,,,,,,,1,,,74,105
5160,note_on,24,0,5,,,,,,,,4,,,50,105
5160,note_on,24,0,6,,,,,,,,5,,,38,105
5232,note_on,0,0,7,,,,,,,,2,,,69,0
5232,note_on,0,0,7,,,,,,,,2,,,62,0
5232,note_on,72,0,7,,,,,,,,2,,,74,0
5256,note_on,24,0,7,,,,,,,,2,,,50,0
5256,note_on,96,0,6,,,,,,,,5,,,38,0
5256,note_on,96,0,1,,,,,,,,0,,,74,0
5256,note_on,96,0,5,,,,,,,,4,,,50,0
5256,note_on,96,0,2,,,,,,,,1,,,74,0
5256,note_on,96,0,3,,,,,,,,0,,,86,0
5256,note_on,96,0,4,,,,,,,,3,,,62,0
5280,note_on,24,0,4,,,,,,,,3,,,62,105
5280,note_on,24,0,2,,,,,,,,1,,,77,105
5280,note_on,24,0,1,,,,,,,,0,,,77,105
5340,note_on,84,0,3,,,,,,,,0,,,86,105
5376,note_on,96,0,2,,,,,,,,1,,,77,0
5376,note_on,96,0,4,,,,,,,,3,,,62,0
5376,note_on,96,0,1,,,,,,,,0,,,77,0
5388,note_on,48,0,3,,,,,,,,0,,,86,0
5400,note_on,24,0,2,,,,,,,,1,,,78,105
5400,note_on,12,0,3,,,,,,,,0,,,86,105
5400,note_on,24,0,4,,,,,,,,3,,,62,105
5400,note_on,24,0,1,,,,,,,,0,,,78,105
5496,note_on,96,0,4,,,,,,,,3,,,62,0
5496,note_on,96,0,1,,,,,,,,0,,,78,0
5496,note_on,96,0,3,,,,,,,,0,,,86,0
5496,note_on,96,0,2,,,,,,,,1,,,78,0
5520,note_on,24,0,2,,,,,,,,1,,,79,105
5520,note_on,24,0,4,,,,,,,,3,,,64,105
5520,note_on,24,0,1,,,,,,,,0,,,79,105
5580,note_on,84,0,3,,,,,,,,0,,,86,105
5616,note_on,96,0,2,,,,,,,,1,,,79,0
5616,note_on,96,0,4,,,,,,,,3,,,64,0
5616,note_on,96,0,1,,,,,,,,0,,,79,0
5628,note_on,48,0,3,,,,,,,,0,,,86,0
5640,note_on,24,0,2,,,,,,,,1,,,80,105
5640,note_on,24,0,1,,,,,,,,0,,,80,105
5640,note_on,12,0,3,,,,,,,,0,,,86,105
5640,note_on,24,0,4,,,,,,,,3,,,64,105
5688,note_on,48,0,3,,,,,,,,0,,,86,0
5700,note_on,12,0,3,,,,,,,,0,,,86,105
5736,note_on,96,0,4,,,,,,,,3,,,64,0
5736,note_on,96,0,2,,,,,,,,1,,,80,0
5736,note_on,96,0,1,,,,,,,,0,,,80,0
5748,note_on,48,0,3,,,,,,,,0,,,86,0
5760,note_on,24,0,1,,,,,,,,0,,,81,105
5760,note_on,24,0,4,,,,,,,,3,,,64,105
5760,note_on,12,0,3,,,,,,,,0,,,85,105
5760,note_on,24,0,2,,,,,,,,1,,,81,105
5880,note_on,624,0,7,,,,,,,,2,,,57,105
5880,note_on,624,0,5,,,,,,,,4,,,57,105
5928,note_on,48,0,5,,,,,,,,4,,,57,0
5928,note_on,48,0,7,,,,,,,,2,,,57,0
5940,note_on,12,0,7,,,,,,,,2,,,59,105
5940,note_on,12,0,5,,,,,,,,4,,,59,105
5952,note_on,192,0,1,,,,,,,,0,,,81,0
5952,note_on,192,0,4,,,,,,,,3,,,64,0
5952,note_on,192,0,3,,,,,,,,0,,,85,0
5952,note_on,192,0,2,,,,,,,,1,,,81,0
5988,note_on,48,0,7,,,,,,,,2,,,59,0
5988,note_on,48,0,5,,,,,,,,4,,,59,0
6000,note_on,0,0,7,,,,,,,,2,,,61,105
6000,note_on,12,0,7,,,,,,,,2,,,64,105
6000,note_on,12,0,5,,,,,,,,4,,,61,105
6096,note_on,96,0,5,,,,,,,,4,,,61,0
6096,note_on,96,0,7,,,,,,,,2,,,61,0
6120,note_on,24,0,7,,,,,,,,2,,,57,105
6120,note_on,24,0,5,,,,,,,,4,,,57,105
6192,note_on,72,0,7,,,,,,,,2,,,64,0
6216,note_on,96,0,5,,,,,,,,4,,,57,0
6216,note_on,24,0,7,,,,,,,,2,,,57,0
6240,note_on,24,0,5,,,,,,,,4,,,62,105
6240,note_on,24,0,7,,,,,,,,2,,,66,105
6240,note_on,0,0,7,,,,,,,,2,,,62,105
6240,note_on,288,0,2,,,,,,,,1,,,81,105
6240,note_on,288,0,3,,,,,,,,0,,,78,105
6240,note_on,288,0,4,,,,,,,,3,,,74,105
6240,note_on,288,0,1,,,,,,,,0,,,81,105
6336,note_on,96,0,5,,,,,,,,4,,,62,0
6336,note_on,96,0,7,,,,,,,,2,,,62,0
6360,note_on,24,0,5,,,,,,,,4,,,62,105
6360,note_on,24,0,7,,,,,,,,2,,,62,105
6456,note_on,96,0,5,,,,,,,,4,,,62,0
6456,note_on,96,0,7,,,,,,,,2,,,62,0
6480,note_on,24,0,7,,,,,,,,2,,,62,105
6480,note_on,0,0,7,,,,,,,,2,,,69,105
6480,note_on,24,0,5,,,,,,,,4,,,62,105
6576,note_on,96,0,5,,,,,,,,4,,,62,0
6576,note_on,96,0,7,,,,,,,,2,,,62,0
6600,note_on,24,0,5,,,,,,,,4,,,60,105
6600,note_on,24,0,7,,,,,,,,2,,,60,105
6624,note_on,384,0,2,,,,,,,,1,,,81,0
6624,note_on,384,0,3,,,,,,,,0,,,78,0
6624,note_on,384,0,1,,,,,,,,0,,,81,0
6624,note_on,24,0,7,,,,,,,,2,,,66,0
6672,note_on,48,0,7,,,,,,,,2,,,69,0
6696,note_on,24,0,7,,,,,,,,2,,,60,0
6696,note_on,96,0,5,,,,,,,,4,,,60,0
6720,note_on,24,0,7,,,,,,,,2,,,74,105
6720,note_on,24,0,5,,,,,,,,4,,,58,105
6720,note_on,96,0,2,,,,,,,,1,,,82,105
6720,note_on,0,0,7,,,,,,,,2,,,67,105
6720,note_on,0,0,7,,,,,,,,2,,,62,105
6720,note_on,96,0,1,,,,,,,,0,,,82,105
6720,note_on,0,0,7,,,,,,,,2,,,58,105
6720,note_on,96,0,3,,,,,,,,0,,,79,105
6816,note_on,96,0,7,,,,,,,,2,,,58,0
6816,note_on,96,0,5,,,,,,,,4,,,58,0
6840,note_on,24,0,7,,,,,,,,2,,,55,105
6840,note_on,24,0,5,,,,,,,,4,,,55,105
6888,note_on,48,0,7,,,,,,,,2,,,55,0
6888,note_on,48,0,5,,,,,,,,4,,,55,0
6900,note_on,12,0,7,,,,,,,,2,,,57,105
6900,note_on,12,0,5,,,,,,,,4,,,57,105
6948,note_on,48,0,7,,,,,,,,2,,,57,0
6948,note_on,48,0,5,,,,,,,,4,,,57,0
6960,note_on,12,0,5,,,,,,,,4,,,58,105
6960,note_on,12,0,7,,,,,,,,2,,,58,105
7056,note_on,96,0,7,,,,,,,,2,,,58,0
7056,note_on,96,0,5,,,,,,,,4,,,58,0
7080,note_on,24,0,7,,,,,,,,2,,,55,105
7080,note_on,24,0,5,,,,,,,,4,,,55,105
7104,note_on,384,0,2,,,,,,,,1,,,82,0
7104,note_on,0,0,7,,,,,,,,2,,,67,0
7104,note_on,24,0,7,,,,,,,,2,,,62,0
7104,note_on,0,0,7,,,,,,,,2,,,74,0
7104,note_on,864,0,4,,,,,,,,3,,,74,0
7104,note_on,384,0,1,,,,,,,,0,,,82,0
7104,note_on,384,0,3,,,,,,,,0,,,79,0
7176,note_on,96,0,5,,,,,,,,4,,,55,0
7176,note_on,72,0,7,,,,,,,,2,,,55,0
7200,note_on,96,0,4,,,,,,,,3,,,72,105
7200,note_on,24,0,5,,,,,,,,4,,,60,105
7200,note_on,96,0,3,,,,,,,,0,,,76,105
7200,note_on,96,0,1,,,,,,,,0,,,79,105
7200,note_on,0,0,7,,,,,,,,2,,,72,105
7200,note_on,0,0,7,,,,,,,,2,,,64,105
7200,note_on,0,0,7,,,,,,,,2,,,60,105
7200,note_on,24,0,7,,,,,,,,2,,,67,105
7200,note_on,96,0,2,,,,,,,,1,,,79,105
7296,note_on,96,0,5,,,,,,,,4,,,60,0
7296,note_on,96,0,7,,,,,,,,2,,,60,0
7320,note_on,24,0,7,,,,,,,,2,,,60,105
7320,note_on,24,0,5,,,,,,,,4,,,60,105
7416,note_on,96,0,5,,,,,,,,4,,,60,0
7416,note_on,96,0,7,,,,,,,,2,,,60,0
7440,note_on,24,0,7,,,,,,,,2,,,60,105
7440,note_on,24,0,5,,,,,,,,4,,,60,105
7536,note_on,96,0,7,,,,,,,,2,,,60,0
7536,note_on,96,0,5,,,,,,,,4,,,60,0
7560,note_on,24,0,5,,,,,,,,4,,,58,105
7560,note_on,24,0,7,,,,,,,,2,,,58,105
7584,note_on,384,0,2,,,,,,,,1,,,79,0
7584,note_on,384,0,1,,,,,,,,0,,,79,0
7584,note_on,0,0,7,,,,,,,,2,,,72,0
7584,note_on,384,0,3,,,,,,,,0,,,76,0
7584,note_on,24,0,7,,,,,,,,2,,,67,0
7584,note_on,0,0,7,,,,,,,,2,,,64,0
7656,note_on,96,0,5,,,,,,,,4,,,58,0
7656,note_on,72,0,7,,,,,,,,2,,,58,0
7680,note_on,96,0,2,,,,,,,,1,,,81,105
7680,note_on,0,0,7,,,,,,,,2,,,57,105
7680,note_on,96,0,3,,,,,,,,0,,,77,105
7680,note_on,96,0,1,,,,,,,,0,,,81,105
7680,note_on,24,0,5,,,,,,,,4,,,57,105
7680,note_on,24,0,7,,,,,,,,2,,,72,105
7680,note_on,0,0,7,,,,,,,,2,,,65,105
7776,note_on,96,0,5,,,,,,,,4,,,57,0
7776,note_on,96,0,7,,,,,,,,2,,,57,0
7800,note_on,24,0,5,,,,,,,,4,,,53,105
7800,note_on,24,0,7,,,,,,,,2,,,53,105
7848,note_on,48,0,7,,,,,,,,2,,,53,0
7848,note_on,48,0,5,,,,,,,,4,,,53,0
7860,note_on,12,0,7,,,,,,,,2,,,55,105
7860,note_on,12,0,5,,,,,,,,4,,,55,105
7908,note_on,48,0,5,,,,,,,,4,,,55,0
7908,note_on,48,0,7,,,,,,,,2,,,55,0
7920,note_on,12,0,5,,,,,,,,4,,,57,105
7920,note_on,12,0,7,,,,,,,,2,,,57,105
8016,note_on,96,0,5,,,,,,,,4,,,57,0
8016,note_on,96,0,7,,,,,,,,2,,,57,0
8040,note_on,24,0,5,,,,,,,,4,,,53,105
8040,note_on,24,0,7,,,,,,,,2,,,53,105
8064,note_on,864,0,4,,,,,,,,3,,,72,0
8064,note_on,24,0,7,,,,,,,,2,,,65,0
8064,note_on,384,0,2,,,,,,,,1,,,81,0
8064,note_on,384,0,3,,,,,,,,0,,,77,0
8064,note_on,0,0,7,,,,,,,,2,,,72,0
8064,note_on,384,0,1,,,,,,,,0,,,81,0
8136,note_on,96,0,5,,,,,,,,4,,,53,0
8136,note_on,72,0,7,,,,,,,,2,,,53,0
8160,note_on,96,0,1,,,,,,,,0,,,77,105
8160,note_on,0,0,7,,,,,,,,2,,,62,105
8160,note_on,96,0,2,,,,,,,,1,,,77,105
8160,note_on,96,0,4,,,,,,,,3,,,70,105
8160,note_on,0,0,7,,,,,,,,2,,,70,105
8160,note_on,96,0,3,,,,,,,,0,,,74,105
8160,note_on,0,0,7,,,,,,,,2,,,65,105
8160,note_on,24,0,5,,,,,,,,4,,,58,105
8160,note_on,24,0,7,,,,,,,,2,,,58,105
8256,note_on,96,0,7,,,,,,,,2,,,58,0
8256,note_on,96,0,5,,,,,,,,4,,,58,0
8280,note_on,24,0,5,,,,,,,,4,,,58,105
8280,note_on,24,0,7,,,,,,,,2,,,58,105
8376,note_on,96,0,7,,,,,,,,2,,,58,0
8376,note_on,96,0,5,,,,,,,,4,,,58,0
8400,note_on,24,0,7,,,,,,,,2,,,58,105
8400,note_on,24,0,5,,,,,,,,4,,,58,105
8496,note_on,96,0,7,,,,,,,,2,,,58,0
8496,note_on,96,0,5,,,,,,,,4,,,58,0
8520,note_on,24,0,7,,,,,,,,2,,,57,105
8520,note_on,24,0,5,,,,,,,,4,,,57,105
8544,note_on,24,0,7,,,,,,,,2,,,65,0
8544,note_on,384,0,2,,,,,,,,1,,,77,0
8544,note_on,384,0,1,,,,,,,,0,,,77,0
8544,note_on,384,0,3,,,,,,,,0,,,74,0
8544,note_on,0,0,7,,,,,,,,2,,,62,0
8544,note_on,0,0,7,,,,,,,,2,,,70,0
8616,note_on,96,0,5,,,,,,,,4,,,57,0
8616,note_on,72,0,7,,,,,,,,2,,,57,0
8640,note_on,0,0,7,,,,,,,,2,,,55,105
8640,note_on,0,0,7,,,,,,,,2,,,64,105
8640,note_on,24,0,7,,,,,,,,2,,,70,105
8640,note_on,96,0,1,,,,,,,,0,,,79,105
8640,note_on,24,0,5,,,,,,,,4,,,55,105
8640,note_on,96,0,2,,,,,,,,1,,,79,105
8640,note_on,96,0,3,,,,,,,,0,,,76,105
8832,note_on,192,0,1,,,,,,,,0,,,79,0
8832,note_on,192,0,7,,,,,,,,2,,,55,0
8832,note_on,192,0,2,,,,,,,,1,,,79,0
8832,note_on,192,0,5,,,,,,,,4,,,55,0
8832,note_on,192,0,3,,,,,,,,0,,,76,0
8832,note_on,0,0,7,,,,,,,,2,,,64,0
8832,note_on,672,0,4,,,,,,,,3,,,70,0
8832,note_on,0,0,7,,,,,,,,2,,,70,0
8880,note_on,48,0,1,,,,,,,,0,,,77,105
8880,note_on,48,0,5,,,,,,,,4,,,56,105
8880,note_on,48,0,3,,,,,,,,0,,,74,105
8880,note_on,48,0,2,,,,,,,,1,,,77,105
8880,note_on,48,0,4,,,,,,,,3,,,71,105
8880,note_on,48,0,7,,,,,,,,2,,,74,105
8880,note_on,0,0,7,,,,,,,,2,,,71,105
8880,note_on,0,0,7,,,,,,,,2,,,56,105
8880,note_on,0,0,7,,,,,,,,2,,,64,105
9072,note_on,192,0,2,,,,,,,,1,,,77,0
9072,note_on,0,0,7,,,,,,,,2,,,74,0
9072,note_on,192,0,1,,,,,,,,0,,,77,0
9072,note_on,0,0,7,,,,,,,,2,,,71,0
9072,note_on,192,0,4,,,,,,,,3,,,71,0
9072,note_on,192,0,3,,,,,,,,0,,,74,0
9072,note_on,192,0,5,,,,,,,,4,,,56,0
9072,note_on,192,0,7,,,,,,,,2,,,56,0
9072,note_on,0,0,7,,,,,,,,2,,,64,0
9120,note_on,48,0,3,,,,,,,,0,,,73,105
9120,note_on,48,0,5,,,,,,,,4,,,57,105
9120,note_on,48,0,4,,,,,,,,3,,,73,105
9120,note_on,0,0,7,,,,,,,,2,,,69,105
9120,note_on,0,0,7,,,,,,,,2,,,64,105
9120,note_on,0,0,7,,,,,,,,2,,,57,105
9120,note_on,48,0,7,,,,,,,,2,,,73,105
9120,note_on,48,0,2,,,,,,,,1,,,76,105
9120,note_on,48,0,1,,,,,,,,0,,,76,105
9168,note_on,48,0,3,,,,,,,,0,,,73,0
9168,note_on,48,0,1,,,,,,,,0,,,76,0
9168,note_on,48,0,2,,,,,,,,1,,,76,0
9180,note_on,12,0,3,,,,,,,,0,,,76,105
9180,note_on,12,0,1,,,,,,,,0,,,81,105
9180,note_on,12,0,2,,,,,,,,1,,,81,105
9216,note_on,96,0,4,,,,,,,,3,,,73,0
9228,note_on,48,0,2,,,,,,,,1,,,81,0
9228,note_on,48,0,1,,,,,,,,0,,,81,0
9228,note_on,48,0,3,,,,,,,,0,,,76,0
9240,note_on,24,0,4,,,,,,,,3,,,69,105
9240,note_on,12,0,1,,,,,,,,0,,,81,105
9240,note_on,12,0,3,,,,,,,,0,,,76,105
9240,note_on,12,0,2,,,,,,,,1,,,81,105
9288,note_on,48,0,4,,,,,,,,3,,,69,0
9300,note_on,12,0,4,,,,,,,,3,,,67,105
9312,note_on,0,0,7,,,,,,,,2,,,64,0
9312,note_on,192,0,5,,,,,,,,4,,,57,0
9312,note_on,192,0,7,,,,,,,,2,,,69,0
9312,note_on,0,0,7,,,,,,,,2,,,73,0
9312,note_on,0,0,7,,,,,,,,2,,,57,0
9336,note_on,96,0,3,,,,,,,,0,,,76,0
9336,note_on,96,0,1,,,,,,,,0,,,81,0
9336,note_on,96,0,2,,,,,,,,1,,,81,0
9348,note_on,48,0,4,,,,,,,,3,,,67,0
9360,note_on,12,0,4,,,,,,,,3,,,66,105
9420,note_on,84,0,2,,,,,,,,1,,,74,105
9420,note_on,84,0,3,,,,,,,,0,,,78,105
9420,note_on,84,0,1,,,,,,,,0,,,74,105
9456,note_on,96,0,4,,,,,,,,3,,,66,0
9468,note_on,48,0,2,,,,,,,,1,,,74,0
9468,note_on,48,0,1,,,,,,,,0,,,74,0
9468,note_on,48,0,3,,,,,,,,0,,,78,0
9480,note_on,12,0,1,,,,,,,,0,,,74,105
9480,note_on,0,0,7,,,,,,,,2,,,50,105
9480,note_on,12,0,3,,,,,,,,0,,,78,105
9480,note_on,168,0,5,,,,,,,,4,,,50,105
9480,note_on,168,0,7,,,,,,,,2,,,53,105
9480,note_on,24,0,4,,,,,,,,3,,,62,105
9480,note_on,12,0,2,,,,,,,,1,,,74,105
9576,note_on,96,0,7,,,,,,,,2,,,50,0
9576,note_on,96,0,1,,,,,,,,0,,,74,0
9576,note_on,0,0,7,,,,,,,,2,,,53,0
9576,note_on,96,0,5,,,,,,,,4,,,50,0
9576,note_on,96,0,2,,,,,,,,1,,,74,0
9576,note_on,96,0,3,,,,,,,,0,,,78,0
9576,note_on,96,0,4,,,,,,,,3,,,62,0
9600,note_on,24,0,4,,,,,,,,3,,,67,105
9600,note_on,24,0,7,,,,,,,,2,,,55,105
9600,note_on,0,0,7,,,,,,,,2,,,51,105
9600,note_on,24,0,5,,,,,,,,4,,,51,105
9660,note_on,84,0,2,,,,,,,,1,,,72,105
9660,note_on,84,0,1,,,,,,,,0,,,72,105
9660,note_on,84,0,3,,,,,,,,0,,,79,105
9696,note_on,96,0,7,,,,,,,,2,,,51,0
9696,note_on,96,0,4,,,,,,,,3,,,67,0
9696,note_on,96,0,5,,,,,,,,4,,,51,0
9708,note_on,48,0,1,,,,,,,,0,,,72,0
9708,note_on,48,0,2,,,,,,,,1,,,72,0
9708,note_on,48,0,3,,,,,,,,0,,,79,0
9720,note_on,24,0,5,,,,,,,,4,,,52,105
9720,note_on,12,0,2,,,,,,,,1,,,72,105
9720,note_on,24,0,4,,,,,,,,3,,,67,105
9720,note_on,12,0,1,,,,,,,,0,,,72,105
9720,note_on,24,0,7,,,,,,,,2,,,52,105
9720,note_on,12,0,3,,,,,,,,0,,,79,105
9792,note_on,72,0,7,,,,,,,,2,,,55,0
9816,note_on,96,0,2,,,,,,,,1,,,72,0
9816,note_on,96,0,5,,,,,,,,4,,,52,0
9816,note_on,96,0,1,,,,,,,,0,,,72,0
9816,note_on,24,0,7,,,,,,,,2,,,52,0
9816,note_on,96,0,3,,,,,,,,0,,,79,0
9816,note_on,96,0,4,,,,,,,,3,,,67,0
9840,note_on,0,0,7,,,,,,,,2,,,53,105
9840,note_on,24,0,7,,,,,,,,2,,,57,105
9840,note_on,24,0,4,,,,,,,,3,,,65,105
9840,note_on,24,0,5,,,,,,,,4,,,53,105
9900,note_on,84,0,2,,,,,,,,1,,,72,105
9900,note_on,84,0,1,,,,,,,,0,,,72,105
9936,note_on,96,0,4,,,,,,,,3,,,65,0
9936,note_on,96,0,7,,,,,,,,2,,,53,0
9936,note_on,96,0,5,,,,,,,,4,,,53,0
9948,note_on,48,0,2,,,,,,,,1,,,72,0
9948,note_on,48,0,1,,,,,,,,0,,,72,0
9960,note_on,12,0,2,,,,,,,,1,,,70,105
9960,note_on,24,0,4,,,,,,,,3,,,62,105
9960,note_on,24,0,5,,,,,,,,4,,,54,105
9960,note_on,12,0,1,,,,,,,,0,,,70,105
9960,note_on,24,0,7,,,,,,,,2,,,54,105
9960,note_on,144,0,3,,,,,,,,0,,,81,105
10008,note_on,48,0,1,,,,,,,,0,,,70,0
10008,note_on,48,0,2,,,,,,,,1,,,70,0
10020,note_on,12,0,2,,,,,,,,1,,,69,105
10020,note_on,12,0,1,,,,,,,,0,,,69,105
10032,note_on,72,0,7,,,,,,,,2,,,57,0
10056,note_on,96,0,4,,,,,,,,3,,,62,0
10056,note_on,96,0,5,,,,,,,,4,,,54,0
10056,note_on,24,0,7,,,,,,,,2,,,54,0
10056,note_on,96,0,3,,,,,,,,0,,,81,0
10068,note_on,48,0,2,,,,,,,,1,,,69,0
10068,note_on,48,0,1,,,,,,,,0,,,69,0
10080,note_on,24,0,7,,,,,,,,2,,,58,105
10080,note_on,0,0,7,,,,,,,,2,,,55,105
10080,note_on,24,0,3,,,,,,,,0,,,74,105
10080,note_on,24,0,5,,,,,,,,4,,,55,105
10080,note_on,12,0,1,,,,,,,,0,,,70,105
10080,note_on,24,0,4,,,,,,,,3,,,58,105
10080,note_on,12,0,2,,,,,,,,1,,,70,105
10128,note_on,48,0,1,,,,,,,,0,,,70,0
10128,note_on,48,0,2,,,,,,,,1,,,70,0
10128,note_on,48,0,3,,,,,,,,0,,,74,0
10140,note_on,12,0,1,,,,,,,,0,,,82,105
10140,note_on,12,0,2,,,,,,,,1,,,82,105
10140,note_on,12,0,3,,,,,,,,0,,,79,105
10176,note_on,96,0,4,,,,,,,,3,,,58,0
10188,note_on,48,0,1,,,,,,,,0,,,82,0
10188,note_on,48,0,3,,,,,,,,0,,,79,0
10188,note_on,48,0,2,,,,,,,,1,,,82,0
10200,note_on,12,0,1,,,,,,,,0,,,82,105
10200,note_on,24,0,4,,,,,,,,3,,,70,105
10200,note_on,12,0,3,,,,,,,,0,,,79,105
10200,note_on,12,0,2,,,,,,,,1,,,82,105
10248,note_on,48,0,4,,,,,,,,3,,,70,0
10260,note_on,12,0,4,,,,,,,,3,,,69,105
10272,note_on,0,0,7,,,,,,,,2,,,58,0
10272,note_on,192,0,7,,,,,,,,2,,,55,0
10272,note_on,192,0,5,,,,,,,,4,,,55,0
10296,note_on,96,0,1,,,,,,,,0,,,82,0
10296,note_on,96,0,3,,,,,,,,0,,,79,0
10296,note_on,96,0,2,,,,,,,,1,,,82,0
10308,note_on,48,0,4,,,,,,,,3,,,69,0
10320,note_on,12,0,4,,,,,,,,3,,,68,105
10380,note_on,84,0,2,,,,,,,,1,,,76,105
10380,note_on,84,0,3,,,,,,,,0,,,80,105
10380,note_on,84,0,1,,,,,,,,0,,,76,105
10416,note_on,96,0,4,,,,,,,,3,,,68,0
10428,note_on,48,0,3,,,,,,,,0,,,80,0
10428,note_on,48,0,1,,,,,,,,0,,,76,0
10428,note_on,48,0,2,,,,,,,,1,,,76,0
10440,note_on,24,0,4,,,,,,,,3,,,64,105
10440,note_on,168,0,5,,,,,,,,4,,,52,105
10440,note_on,12,0,3,,,,,,,,0,,,80,105
10440,note_on,168,0,7,,,,,,,,2,,,56,105
10440,note_on,0,0,7,,,,,,,,2,,,52,105
10440,note_on,12,0,2,,,,,,,,1,,,76,105
10440,note_on,12,0,1,,,,,,,,0,,,76,105
10488,note_on,48,0,2,,,,,,,,1,,,76,0
10488,note_on,48,0,1,,,,,,,,0,,,76,0
10536,note_on,96,0,4,,,,,,,,3,,,64,0
10536,note_on,96,0,3,,,,,,,,0,,,80,0
10536,note_on,0,0,7,,,,,,,,2,,,56,0
10536,note_on,96,0,7,,,,,,,,2,,,52,0
10536,note_on,96,0,5,,,,,,,,4,,,52,0
10560,note_on,24,0,5,,,,,,,,4,,,53,105
10560,note_on,24,0,4,,,,,,,,3,,,69,105
10560,note_on,24,0,7,,,,,,,,2,,,57,105
10560,note_on,0,0,7,,,,,,,,2,,,53,105
10620,note_on,132,0,2,,,,,,,,1,,,74,105
10620,note_on,132,0,1,,,,,,,,0,,,74,105
10620,note_on,84,0,3,,,,,,,,0,,,81,105
10656,note_on,96,0,5,,,,,,,,4,,,53,0
10656,note_on,96,0,4,,,,,,,,3,,,69,0
10656,note_on,96,0,7,,,,,,,,2,,,53,0
10668,note_on,48,0,2,,,,,,,,1,,,74,0
10668,note_on,48,0,3,,,,,,,,0,,,81,0
10668,note_on,48,0,1,,,,,,,,0,,,74,0
10680,note_on,24,0,5,,,,,,,,4,,,54,105
10680,note_on,12,0,3,,,,,,,,0,,,81,105
10680,note_on,12,0,2,,,,,,,,1,,,74,105
10680,note_on,24,0,4,,,,,,,,3,,,69,105
10680,note_on,24,0,7,,,,,,,,2,,,54,105
10680,note_on,12,0,1,,,,,,,,0,,,74,105
10752,note_on,72,0,7,,,,,,,,2,,,57,0
10776,note_on,24,0,7,,,,,,,,2,,,54,0
10776,note_on,96,0,4,,,,,,,,3,,,69,0
10776,note_on,96,0,1,,,,,,,,0,,,74,0
10776,note_on,96,0,5,,,,,,,,4,,,54,0
10776,note_on,96,0,3,,,,,,,,0,,,81,0
10776,note_on,96,0,2,,,,,,,,1,,,74,0
10800,note_on,24,0,4,,,,,,,,3,,,67,105
10800,note_on,0,0,7,,,,,,,,2,,,55,105
10800,note_on,24,0,7,,,,,,,,2,,,59,105
10800,note_on,24,0,5,,,,,,,,4,,,55,105
10860,note_on,84,0,1,,,,,,,,0,,,74,105
10860,note_on,84,0,2,,,,,,,,1,,,74,105
10896,note_on,96,0,7,,,,,,,,2,,,55,0
10896,note_on,96,0,5,,,,,,,,4,,,55,0
10896,note_on,96,0,4,,,,,,,,3,,,67,0
10908,note_on,48,0,1,,,,,,,,0,,,74,0
10908,note_on,48,0,2,,,,,,,,1,,,74,0
10920,note_on,12,0,1,,,,,,,,0,,,73,105
10920,note_on,12,0,2,,,,,,,,1,,,73,105
10920,note_on,24,0,4,,,,,,,,3,,,64,105
10920,note_on,24,0,5,,,,,,,,4,,,56,105
10920,note_on,24,0,7,,,,,,,,2,,,56,105
10920,note_on,144,0,3,,,,,,,,0,,,83,105
10968,note_on,48,0,2,,,,,,,,1,,,73,0
10968,note_on,48,0,1,,,,,,,,0,,,73,0
10980,note_on,12,0,2,,,,,,,,1,,,71,105
10980,note_on,12,0,1,,,,,,,,0,,,71,105
10992,note_on,72,0,7,,,,,,,,2,,,59,0
11016,note_on,96,0,3,,,,,,,,0,,,83,0
11016,note_on,96,0,5,,,,,,,,4,,,56,0
11016,note_on,24,0,7,,,,,,,,2,,,56,0
11016,note_on,96,0,4,,,,,,,,3,,,64,0
11028,note_on,48,0,2,,,,,,,,1,,,71,0
11028,note_on,48,0,1,,,,,,,,0,,,71,0
11040,note_on,24,0,5,,,,,,,,4,,,57,105
11040,note_on,24,0,3,,,,,,,,0,,,76,105
11040,note_on,24,0,4,,,,,,,,3,,,64,105
11040,note_on,24,0,7,,,,,,,,2,,,64,105
11040,note_on,0,0,7,,,,,,,,2,,,57,105
11040,note_on,0,0,7,,,,,,,,2,,,61,105
11040,note_on,12,0,2,,,,,,,,1,,,73,105
11040,note_on,12,0,1,,,,,,,,0,,,73,105
11088,note_on,48,0,4,,,,,,,,3,,,64,0
11088,note_on,48,0,2,,,,,,,,1,,,73,0
11088,note_on,48,0,1,,,,,,,,0,,,73,0
11100,note_on,12,0,1,,,,,,,,0,,,69,105
11100,note_on,12,0,2,,,,,,,,1,,,69,105
11100,note_on,12,0,4,,,,,,,,3,,,69,105
11136,note_on,96,0,3,,,,,,,,0,,,76,0
11148,note_on,48,0,1,,,,,,,,0,,,69,0
11148,note_on,48,0,2,,,,,,,,1,,,69,0
11148,note_on,48,0,4,,,,,,,,3,,,69,0
11160,note_on,12,0,4,,,,,,,,3,,,69,105
11160,note_on,12,0,1,,,,,,,,0,,,76,105
11160,note_on,24,0,3,,,,,,,,0,,,73,105
11160,note_on,12,0,2,,,,,,,,1,,,76,105
11208,note_on,48,0,2,,,,,,,,1,,,76,0
11208,note_on,48,0,1,,,,,,,,0,,,76,0
11220,note_on,12,0,2,,,,,,,,1,,,69,105
11220,note_on,12,0,1,,,,,,,,0,,,69,105
11232,note_on,192,0,5,,,,,,,,4,,,57,0
11232,note_on,0,0,7,,,,,,,,2,,,64,0
11232,note_on,192,0,7,,,,,,,,2,,,61,0
11232,note_on,0,0,7,,,,,,,,2,,,57,0
11256,note_on,96,0,3,,,,,,,,0,,,73,0
11256,note_on,96,0,4,,,,,,,,3,,,69,0
11268,note_on,48,0,1,,,,,,,,0,,,69,0
11268,note_on,48,0,2,,,,,,,,1,,,69,0
11280,note_on,12,0,1,,,,,,,,0,,,77,105
11280,note_on,12,0,2,,,,,,,,1,,,77,105
11280,note_on,24,0,3,,,,,,,,0,,,74,105
11340,note_on,84,0,4,,,,,,,,3,,,69,105
11388,note_on,48,0,4,,,,,,,,3,,,69,0
11400,note_on,12,0,4,,,,,,,,3,,,69,105
11400,note_on,0,0,7,,,,,,,,2,,,57,105
11400,note_on,0,0,7,,,,,,,,2,,,65,105
11400,note_on,168,0,5,,,,,,,,4,,,57,105
11400,note_on,168,0,7,,,,,,,,2,,,69,105
11472,note_on,192,0,2,,,,,,,,1,,,77,0
11472,note_on,192,0,3,,,,,,,,0,,,74,0
11472,note_on,192,0,1,,,,,,,,0,,,77,0
11496,note_on,0,0,7,,,,,,,,2,,,69,0
11496,note_on,96,0,4,,,,,,,,3,,,69,0
11496,note_on,0,0,7,,,,,,,,2,,,65,0
11496,note_on,96,0,5,,,,,,,,4,,,57,0
11496,note_on,96,0,7,,,,,,,,2,,,57,0
11520,note_on,48,0,2,,,,,,,,1,,,76,105
11520,note_on,48,0,1,,,,,,,,0,,,76,105
11520,note_on,0,0,7,,,,,,,,2,,,61,105
11520,note_on,24,0,7,,,,,,,,2,,,64,105
11520,note_on,0,0,7,,,,,,,,2,,,45,105
11520,note_on,0,0,7,,,,,,,,2,,,57,105
11520,note_on,48,0,3,,,,,,,,0,,,73,105
11520,note_on,24,0,5,,,,,,,,4,,,45,105
11568,note_on,48,0,2,,,,,,,,1,,,76,0
11568,note_on,48,0,1,,,,,,,,0,,,76,0
11580,note_on,12,0,1,,,,,,,,0,,,69,105
11580,note_on,12,0,2,,,,,,,,1,,,69,105
11580,note_on,84,0,4,,,,,,,,3,,,69,105
11616,note_on,96,0,3,,,,,,,,0,,,73,0
11628,note_on,48,0,1,,,,,,,,0,,,69,0
11628,note_on,48,0,4,,,,,,,,3,,,69,0
11628,note_on,48,0,2,,,,,,,,1,,,69,0
11640,note_on,12,0,2,,,,,,,,1,,,77,105
11640,note_on,12,0,4,,,,,,,,3,,,69,105
11640,note_on,12,0,1,,,,,,,,0,,,77,105
11640,note_on,24,0,3,,,,,,,,0,,,74,105
11688,note_on,48,0,1,,,,,,,,0,,,77,0
11688,note_on,48,0,2,,,,,,,,1,,,77,0
11700,note_on,12,0,1,,,,,,,,0,,,69,105
11700,note_on,12,0,2,,,,,,,,1,,,69,105
11712,note_on,0,0,7,,,,,,,,2,,,61,0
11712,note_on,192,0,7,,,,,,,,2,,,45,0
11712,note_on,0,0,7,,,,,,,,2,,,57,0
11712,note_on,192,0,5,,,,,,,,4,,,45,0
11712,note_on,0,0,7,,,,,,,,2,,,64,0
11736,note_on,96,0,3,,,,,,,,0,,,74,0
11736,note_on,96,0,4,,,,,,,,3,,,69,0
11748,note_on,48,0,2,,,,,,,,1,,,69,0
11748,note_on,48,0,1,,,,,,,,0,,,69,0
11760,note_on,24,0,3,,,,,,,,0,,,76,105
11760,note_on,12,0,1,,,,,,,,0,,,79,105
11760,note_on,12,0,2,,,,,,,,1,,,79,105
11820,note_on,84,0,4,,,,,,,,3,,,69,105
11868,note_on,48,0,4,,,,,,,,3,,,69,0
11880,note_on,168,0,5,,,,,,,,4,,,57,105
11880,note_on,12,0,4,,,,,,,,3,,,69,105
11880,note_on,168,0,7,,,,,,,,2,,,57,105
11952,note_on,192,0,3,,,,,,,,0,,,76,0
11952,note_on,192,0,1,,,,,,,,0,,,79,0
11952,note_on,192,0,2,,,,,,,,1,,,79,0
11976,note_on,96,0,4,,,,,,,,3,,,69,0
11976,note_on,96,0,5,,,,,,,,4,,,57,0
11976,note_on,96,0,7,,,,,,,,2,,,57,0
12000,note_on,48,0,2,,,,,,,,1,,,77,105
12000,note_on,24,0,7,,,,,,,,2,,,65,105
12000,note_on,48,0,3,,,,,,,,0,,,74,105
12000,note_on,0,0,7,,,,,,,,2,,,57,105
12000,note_on,24,0,5,,,,,,,,4,,,45,105
12000,note_on,48,0,1,,,,,,,,0,,,77,105
12000,note_on,0,0,7,,,,,,,,2,,,45,105
12000,note_on,0,0,7,,,,,,,,2,,,62,105
12048,note_on,48,0,2,,,,,,,,1,,,77,0
12048,note_on,48,0,1,,,,,,,,0,,,77,0
12060,note_on,12,0,2,,,,,,,,1,,,69,105
12060,note_on,12,0,1,,,,,,,,0,,,69,105
12060,note_on,84,0,4,,,,,,,,3,,,69,105
12096,note_on,96,0,3,,,,,,,,0,,,74,0
12108,note_on,48,0,2,,,,,,,,1,,,69,0
12108,note_on,48,0,1,,,,,,,,0,,,69,0
12108,note_on,48,0,4,,,,,,,,3,,,69,0
12120,note_on,24,0,3,,,,,,,,0,,,76,105
12120,note_on,12,0,4,,,,,,,,3,,,69,105
12120,note_on,12,0,2,,,,,,,,1,,,79,105
12120,note_on,12,0,1,,,,,,,,0,,,79,105
12168,note_on,48,0,2,,,,,,,,1,,,79,0
12168,note_on,48,0,1,,,,,,,,0,,,79,0
12180,note_on,12,0,2,,,,,,,,1,,,69,105
12180,note_on,12,0,1,,,,,,,,0,,,69,105
12192,note_on,192,0,5,,,,,,,,4,,,45,0
12192,note_on,0,0,7,,,,,,,,2,,,45,0
12192,note_on,0,0,7,,,,,,,,2,,,65,0
12192,note_on,0,0,7,,,,,,,,2,,,57,0
12192,note_on,192,0,7,,,,,,,,2,,,62,0
12216,note_on,96,0,3,,,,,,,,0,,,76,0
12216,note_on,96,0,4,,,,,,,,3,,,69,0
12228,note_on,48,0,2,,,,,,,,1,,,69,0
12228,note_on,48,0,1,,,,,,,,0,,,69,0
12240,note_on,12,0,1,,,,,,,,0,,,81,105
12240,note_on,12,0,2,,,,,,,,1,,,81,105
12240,note_on,24,0,3,,,,,,,,0,,,77,105
12300,note_on,84,0,4,,,,,,,,3,,,69,105
12348,note_on,48,0,4,,,,,,,,3,,,69,0
12360,note_on,168,0,5,,,,,,,,4,,,57,105
12360,note_on,168,0,7,,,,,,,,2,,,57,105
12360,note_on,12,0,4,,,,,,,,3,,,69,105
12432,note_on,192,0,3,,,,,,,,0,,,77,0
12432,note_on,192,0,2,,,,,,,,1,,,81,0
12432,note_on,192,0,1,,,,,,,,0,,,81,0
12456,note_on,96,0,5,,,,,,,,4,,,57,0
12456,note_on,96,0,7,,,,,,,,2,,,57,0
12456,note_on,96,0,4,,,,,,,,3,,,69,0
12480,note_on,0,0,7,,,,,,,,2,,,64,105
12480,note_on,48,0,1,,,,,,,,0,,,79,105
12480,note_on,24,0,5,,,,,,,,4,,,57,105
12480,note_on,24,0,4,,,,,,,,3,,,73,105
12480,note_on,24,0,7,,,,,,,,2,,,67,105
12480,note_on,0,0,7,,,,,,,,2,,,61,105
12480,note_on,48,0,2,,,,,,,,1,,,79,105
12480,note_on,0,0,7,,,,,,,,2,,,57,105
12480,note_on,48,0,3,,,,,,,,0,,,76,105
12528,note_on,48,0,7,,,,,,,,2,,,57,0
12528,note_on,48,0,5,,,,,,,,4,,,57,0
12540,note_on,12,0,5,,,,,,,,4,,,45,105
12540,note_on,12,0,7,,,,,,,,2,,,45,105
12588,note_on,48,0,7,,,,,,,,2,,,45,0
12588,note_on,48,0,5,,,,,,,,4,,,45,0
12600,note_on,12,0,5,,,,,,,,4,,,57,105
12600,note_on,12,0,7,,,,,,,,2,,,57,105
12648,note_on,48,0,5,,,,,,,,4,,,57,0
12648,note_on,48,0,7,,,,,,,,2,,,57,0
12660,note_on,12,0,5,,,,,,,,4,,,45,105
12660,note_on,12,0,7,,,,,,,,2,,,45,105
12672,note_on,12,0,7,,,,,,,,2,,,67,0
12672,note_on,0,0,7,,,,,,,,2,,,64,0
12672,note_on,0,0,7,,,,,,,,2,,,61,0
12708,note_on,48,0,5,,,,,,,,4,,,45,0
12708,note_on,36,0,7,,,,,,,,2,,,45,0
12720,note_on,12,0,7,,,,,,,,2,,,57,105
12720,note_on,12,0,5,,,,,,,,4,,,57,105
12768,note_on,288,0,1,,,,,,,,0,,,79,0
12768,note_on,288,0,2,,,,,,,,1,,,79,0
12768,note_on,288,0,3,,,,,,,,0,,,76,0
12840,note_on,72,0,2,,,,,,,,1,,,77,105
12840,note_on,72,0,3,,,,,,,,0,,,74,105
12840,note_on,72,0,1,,,,,,,,0,,,77,105
12864,note_on,384,0,4,,,,,,,,3,,,73,0
12888,note_on,48,0,2,,,,,,,,1,,,77,0
12888,note_on,48,0,3,,,,,,,,0,,,74,0
12888,note_on,48,0,1,,,,,,,,0,,,77,0
12900,note_on,12,0,2,,,,,,,,1,,,76,105
12900,note_on,12,0,3,,,,,,,,0,,,73,105
12900,note_on,12,0,1,,,,,,,,0,,,76,105
12912,note_on,192,0,5,,,,,,,,4,,,57,0
12912,note_on,192,0,7,,,,,,,,2,,,57,0
12948,note_on,48,0,1,,,,,,,,0,,,76,0
12948,note_on,48,0,2,,,,,,,,1,,,76,0
12948,note_on,48,0,3,,,,,,,,0,,,73,0
12960,note_on,96,0,4,,,,,,,,3,,,69,105
12960,note_on,0,0,7,,,,,,,,2,,,50,105
12960,note_on,12,0,3,,,,,,,,0,,,74,105
12960,note_on,12,0,2,,,,,,,,1,,,77,105
12960,note_on,48,0,7,,,,,,,,2,,,65,105
12960,note_on,12,0,1,,,,,,,,0,,,77,105
12960,note_on,48,0,5,,,,,,,,4,,,50,105
13008,note_on,48,0,7,,,,,,,,2,,,50,0
13008,note_on,48,0,5,,,,,,,,4,,,50,0
13020,note_on,12,0,7,,,,,,,,2,,,53,105
13020,note_on,12,0,5,,,,,,,,4,,,53,105
13056,note_on,96,0,2,,,,,,,,1,,,77,0
13056,note_on,96,0,1,,,,,,,,0,,,77,0
13056,note_on,96,0,3,,,,,,,,0,,,74,0
13056,note_on,96,0,4,,,,,,,,3,,,69,0
13056,note_on,36,0,7,,,,,,,,2,,,65,0
13068,note_on,48,0,5,,,,,,,,4,,,53,0
13068,note_on,12,0,7,,,,,,,,2,,,53,0
13080,note_on,12,0,5,,,,,,,,4,,,52,105
13080,note_on,24,0,3,,,,,,,,0,,,79,105
13080,note_on,0,0,7,,,,,,,,2,,,67,105
13080,note_on,24,0,2,,,,,,,,1,,,82,105
13080,note_on,24,0,4,,,,,,,,3,,,67,105
13080,note_on,24,0,1,,,,,,,,0,,,82,105
13080,note_on,12,0,7,,,,,,,,2,,,52,105
13128,note_on,48,0,5,,,,,,,,4,,,52,0
13128,note_on,48,0,7,,,,,,,,2,,,52,0
13140,note_on,12,0,7,,,,,,,,2,,,49,105
13140,note_on,12,0,5,,,,,,,,4,,,49,105
13176,note_on,96,0,2,,,,,,,,1,,,82,0
13176,note_on,96,0,4,,,,,,,,3,,,67,0
13176,note_on,96,0,1,,,,,,,,0,,,82,0
13176,note_on,36,0,7,,,,,,,,2,,,67,0
13176,note_on,96,0,3,,,,,,,,0,,,79,0
13188,note_on,48,0,5,,,,,,,,4,,,49,0
13188,note_on,12,0,7,,,,,,,,2,,,49,0
13200,note_on,24,0,4,,,,,,,,3,,,65,105
13200,note_on,0,0,7,,,,,,,,2,,,50,105
13200,note_on,12,0,5,,,,,,,,4,,,50,105
13200,note_on,12,0,7,,,,,,,,2,,,65,105
13248,note_on,48,0,5,,,,,,,,4,,,50,0
13248,note_on,48,0,7,,,,,,,,2,,,50,0
13260,note_on,12,0,5,,,,,,,,4,,,57,105
13260,note_on,12,0,7,,,,,,,,2,,,57,105
13296,note_on,36,0,7,,,,,,,,2,,,65,0
13296,note_on,96,0,4,,,,,,,,3,,,65,0
13308,note_on,48,0,5,,,,,,,,4,,,57,0
13308,note_on,12,0,7,,,,,,,,2,,,57,0
13320,note_on,144,0,2,,,,,,,,1,,,81,105
13320,note_on,0,0,7,,,,,,,,2,,,69,105
13320,note_on,12,0,7,,,,,,,,2,,,53,105
13320,note_on,144,0,1,,,,,,,,0,,,81,105
13320,note_on,144,0,3,,,,,,,,0,,,77,105
13320,note_on,12,0,5,,,,,,,,4,,,53,105
13320,note_on,24,0,4,,,,,,,,3,,,62,105
13368,note_on,48,0,5,,,,,,,,4,,,53,0
13368,note_on,48,0,7,,,,,,,,2,,,53,0
13380,note_on,12,0,7,,,,,,,,2,,,50,105
13380,note_on,12,0,5,,,,,,,,4,,,50,105
13416,note_on,96,0,1,,,,,,,,0,,,81,0
13416,note_on,36,0,7,,,,,,,,2,,,69,0
13416,note_on,96,0,2,,,,,,,,1,,,81,0
13416,note_on,96,0,3,,,,,,,,0,,,77,0
13416,note_on,96,0,4,,,,,,,,3,,,62,0
13428,note_on,48,0,5,,,,,,,,4,,,50,0
13428,note_on,12,0,7,,,,,,,,2,,,50,0
13440,note_on,0,0,7,,,,,,,,2,,,64,105
13440,note_on,12,0,7,,,,,,,,2,,,73,105
13440,note_on,12,0,5,,,,,,,,4,,,45,105
13440,note_on,24,0,4,,,,,,,,3,,,64,105
13440,note_on,0,0,7,,,,,,,,2,,,45,105
13536,note_on,96,0,5,,,,,,,,4,,,45,0
13536,note_on,0,0,7,,,,,,,,2,,,64,0
13536,note_on,0,0,7,,,,,,,,2,,,73,0
13536,note_on,96,0,4,,,,,,,,3,,,64,0
13536,note_on,96,0,7,,,,,,,,2,,,45,0
13560,note_on,24,0,4,,,,,,,,3,,,65,105
13560,note_on,144,0,3,,,,,,,,0,,,74,105
13560,note_on,24,0,5,,,,,,,,4,,,50,105
13560,note_on,0,0,7,,,,,,,,2,,,50,105
13560,note_on,0,0,7,,,,,,,,2,,,65,105
13560,note_on,24,0,7,,,,,,,,2,,,74,105
13560,note_on,144,0,1,,,,,,,,0,,,77,105
13560,note_on,144,0,2,,,,,,,,1,,,77,105
13656,note_on,96,0,7,,,,,,,,2,,,50,0
13656,note_on,96,0,4,,,,,,,,3,,,65,0
13656,note_on,96,0,5,,,,,,,,4,,,50,0
13656,note_on,96,0,3,,,,,,,,0,,,74,0
13656,note_on,96,0,2,,,,,,,,1,,,77,0
13656,note_on,96,0,1,,,,,,,,0,,,77,0
13656,note_on,0,0,7,,,,,,,,2,,,65,0
13656,note_on,0,0,7,,,,,,,,2,,,74,0
13680,note_on,24,0,3,,,,,,,,0,,,76,105
13680,note_on,0,0,7,,,,,,,,2,,,70,105
13680,note_on,0,0,7,,,,,,,,2,,,64,105
13680,note_on,24,0,5,,,,,,,,4,,,43,105
13680,note_on,24,0,2,,,,,,,,1,,,79,105
13680,note_on,24,0,4,,,,,,,,3,,,70,105
13680,note_on,24,0,7,,,,,,,,2,,,43,105
13680,note_on,24,0,1,,,,,,,,0,,,79,105
13776,note_on,96,0,3,,,,,,,,0,,,76,0
13776,note_on,96,0,4,,,,,,,,3,,,70,0
13776,note_on,0,0,7,,,,,,,,2,,,43,0
13776,note_on,96,0,1,,,,,,,,0,,,79,0
13776,note_on,96,0,5,,,,,,,,4,,,43,0
13776,note_on,0,0,7,,,,,,,,2,,,64,0
13776,note_on,96,0,7,,,,,,,,2,,,70,0
13776,note_on,96,0,2,,,,,,,,1,,,79,0
13800,note_on,24,0,2,,,,,,,,1,,,77,105
13800,note_on,0,0,7,,,,,,,,2,,,61,105
13800,note_on,0,0,7,,,,,,,,2,,,45,105
13800,note_on,24,0,7,,,,,,,,2,,,69,105
13800,note_on,24,0,5,,,,,,,,4,,,45,105
13800,note_on,24,0,1,,,,,,,,0,,,77,105
13800,note_on,24,0,4,,,,,,,,3,,,69,105
13800,note_on,24,0,3,,,,,,,,0,,,74,105
13848,note_on,48,0,1,,,,,,,,0,,,77,0
13848,note_on,48,0,3,,,,,,,,0,,,74,0
13848,note_on,48,0,2,,,,,,,,1,,,77,0
13860,note_on,12,0,3,,,,,,,,0,,,73,105
13860,note_on,12,0,2,,,,,,,,1,,,76,105
13860,note_on,12,0,1,,,,,,,,0,,,76,105
13896,note_on,96,0,4,,,,,,,,3,,,69,0
13896,note_on,96,0,7,,,,,,,,2,,,61,0
13896,note_on,0,0,7,,,,,,,,2,,,45,0
13896,note_on,0,0,7,,,,,,,,2,,,69,0
13896,note_on,96,0,5,,,,,,,,4,,,45,0
13908,note_on,48,0,2,,,,,,,,1,,,76,0
13908,note_on,48,0,1,,,,,,,,0,,,76,0
13908,note_on,48,0,3,,,,,,,,0,,,73,0
13920,note_on,24,0,7,,,,,,,,2,,,65,105
13920,note_on,24,0,5,,,,,,,,4,,,50,105
13920,note_on,0,0,7,,,,,,,,2,,,50,105
13920,note_on,24,0,4,,,,,,,,3,,,69,105
13920,note_on,12,0,2,,,,,,,,1,,,74,105
13920,note_on,12,0,1,,,,,,,,0,,,74,105
13920,note_on,12,0,3,,,,,,,,0,,,74,105
13968,note_on,48,0,7,,,,,,,,2,,,50,0
13968,note_on,48,0,5,,,,,,,,4,,,50,0
13980,note_on,12,0,7,,,,,,,,2,,,53,105
13980,note_on,12,0,5,,,,,,,,4,,,53,105
14016,note_on,96,0,4,,,,,,,,3,,,69,0
14016,note_on,96,0,1,,,,,,,,0,,,74,0
14016,note_on,96,0,3,,,,,,,,0,,,74,0
14016,note_on,36,0,7,,,,,,,,2,,,65,0
14016,note_on,96,0,2,,,,,,,,1,,,74,0
14028,note_on,48,0,5,,,,,,,,4,,,53,0
14028,note_on,12,0,7,,,,,,,,2,,,53,0
14040,note_on,24,0,4,,,,,,,,3,,,67,105
14040,note_on,24,0,3,,,,,,,,0,,,79,105
14040,note_on,12,0,5,,,,,,,,4,,,52,105
14040,note_on,24,0,2,,,,,,,,1,,,82,105
14040,note_on,24,0,1,,,,,,,,0,,,82,105
14040,note_on,12,0,7,,,,,,,,2,,,67,105
14040,note_on,0,0,7,,,,,,,,2,,,52,105
14088,note_on,48,0,5,,,,,,,,4,,,52,0
14088,note_on,48,0,7,,,,,,,,2,,,52,0
14100,note_on,12,0,5,,,,,,,,4,,,49,105
14100,note_on,12,0,7,,,,,,,,2,,,49,105
14136,note_on,96,0,4,,,,,,,,3,,,67,0
14136,note_on,36,0,7,,,,,,,,2,,,67,0
14136,note_on,96,0,1,,,,,,,,0,,,82,0
14136,note_on,96,0,3,,,,,,,,0,,,79,0
14136,note_on,96,0,2,,,,,,,,1,,,82,0
14148,note_on,12,0,7,,,,,,,,2,,,49,0
14148,note_on,48,0,5,,,,,,,,4,,,49,0
14160,note_on,12,0,5,,,,,,,,4,,,50,105
14160,note_on,24,0,4,,,,,,,,3,,,65,105
14160,note_on,12,0,7,,,,,,,,2,,,65,105
14160,note_on,0,0,7,,,,,,,,2,,,50,105
14208,note_on,48,0,5,,,,,,,,4,,,50,0
14208,note_on,48,0,7,,,,,,,,2,,,50,0
14220,note_on,12,0,5,,,,,,,,4,,,57,105
14220,note_on,12,0,7,,,,,,,,2,,,57,105
14256,note_on,36,0,7,,,,,,,,2,,,65,0
14256,note_on,96,0,4,,,,,,,,3,,,65,0
14268,note_on,12,0,7,,,,,,,,2,,,57,0
14268,note_on,48,0,5,,,,,,,,4,,,57,0
14280,note_on,144,0,2,,,,,,,,1,,,81,105
14280,note_on,0,0,7,,,,,,,,2,,,69,105
14280,note_on,12,0,7,,,,,,,,2,,,53,105
14280,note_on,24,0,4,,,,,,,,3,,,62,105
14280,note_on,144,0,3,,,,,,,,0,,,77,105
14280,note_on,144,0,1,,,,,,,,0,,,81,105
14280,note_on,12,0,5,,,,,,,,4,,,53,105
14328,note_on,48,0,7,,,,,,,,2,,,53,0
14328,note_on,48,0,5,,,,,,,,4,,,53,0
14340,note_on,12,0,5,,,,,,,,4,,,50,105
14340,note_on,12,0,7,,,,,,,,2,,,50,105
14376,note_on,96,0,4,,,,,,,,3,,,62,0
14376,note_on,36,0,7,,,,,,,,2,,,69,0
14376,note_on,96,0,2,,,,,,,,1,,,81,0
14376,note_on,96,0,1,,,,,,,,0,,,81,0
14376,note_on,96,0,3,,,,,,,,0,,,77,0
14388,note_on,12,0,7,,,,,,,,2,,,50,0
14388,note_on,48,0,5,,,,,,,,4,,,50,0
14400,note_on,0,0,7,,,,,,,,2,,,45,105
14400,note_on,24,0,4,,,,,,,,3,,,64,105
14400,note_on,12,0,7,,,,,,,,2,,,73,105
14400,note_on,12,0,5,,,,,,,,4,,,45,105
14400,note_on,0,0,7,,,,,,,,2,,,64,105
14496,note_on,96,0,5,,,,,,,,4,,,45,0
14496,note_on,96,0,4,,,,,,,,3,,,64,0
14496,note_on,0,0,7,,,,,,,,2,,,64,0
14496,note_on,0,0,7,,,,,,,,2,,,73,0
14496,note_on,96,0,7,,,,,,,,2,,,45,0
14520,note_on,144,0,2,,,,,,,,1,,,77,105
14520,note_on,0,0,7,,,,,,,,2,,,50,105
14520,note_on,144,0,3,,,,,,,,0,,,74,105
14520,note_on,24,0,7,,,,,,,,2,,,74,105
14520,note_on,24,0,5,,,,,,,,4,,,50,105
14520,note_on,144,0,1,,,,,,,,0,,,77,105
14520,note_on,0,0,7,,,,,,,,2,,,65,105
14520,note_on,24,0,4,,,,,,,,3,,,65,105
14616,note_on,96,0,7,,,,,,,,2,,,50,0
14616,note_on,0,0,7,,,,,,,,2,,,74,0
14616,note_on,0,0,7,,,,,,,,2,,,65,0
14616,note_on,96,0,5,,,,,,,,4,,,50,0
14616,note_on,96,0,4,,,,,,,,3,,,65,0
14616,note_on,96,0,3,,,,,,,,0,,,74,0
14616,note_on,96,0,1,,,,,,,,0,,,77,0
14616,note_on,96,0,2,,,,,,,,1,,,77,0
14640,note_on,0,0,7,,,,,,,,2,,,64,105
14640,note_on,24,0,7,,,,,,,,2,,,43,105
14640,note_on,24,0,1,,,,,,,,0,,,79,105
14640,note_on,24,0,5,,,,,,,,4,,,43,105
14640,note_on,0,0,7,,,,,,,,2,,,70,105
14640,note_on,24,0,2,,,,,,,,1,,,79,105
14640,note_on,24,0,4,,,,,,,,3,,,70,105
14640,note_on,24,0,3,,,,,,,,0,,,76,105
14736,note_on,96,0,4,,,,,,,,3,,,70,0
14736,note_on,96,0,2,,,,,,,,1,,,79,0
14736,note_on,96,0,7,,,,,,,,2,,,70,0
14736,note_on,96,0,1,,,,,,,,0,,,79,0
14736,note_on,96,0,3,,,,,,,,0,,,76,0
14736,note_on,96,0,5,,,,,,,,4,,,43,0
14736,note_on,0,0,7,,,,,,,,2,,,43,0
14736,note_on,0,0,7,,,,,,,,2,,,64,0
14760,note_on,24,0,2,,,,,,,,1,,,77,105
14760,note_on,24,0,5,,,,,,,,4,,,45,105
14760,note_on,24,0,1,,,,,,,,0,,,77,105
14760,note_on,0,0,7,,,,,,,,2,,,61,105
14760,note_on,0,0,7,,,,,,,,2,,,45,105
14760,note_on,24,0,7,,,,,,,,2,,,69,105
14760,note_on,24,0,4,,,,,,,,3,,,69,105
14760,note_on,24,0,3,,,,,,,,0,,,74,105
14808,note_on,48,0,3,,,,,,,,0,,,74,0
14808,note_on,48,0,1,,,,,,,,0,,,77,0
14808,note_on,48,0,2,,,,,,,,1,,,77,0
14820,note_on,12,0,3,,,,,,,,0,,,73,105
14820,note_on,12,0,2,,,,,,,,1,,,76,105
14820,note_on,12,0,1,,,,,,,,0,,,76,105
14856,note_on,96,0,7,,,,,,,,2,,,61,0
14856,note_on,96,0,5,,,,,,,,4,,,45,0
14856,note_on,96,0,4,,,,,,,,3,,,69,0
14856,note_on,0,0,7,,,,,,,,2,,,45,0
14856,note_on,0,0,7,,,,,,,,2,,,69,0
14868,note_on,48,0,2,,,,,,,,1,,,76,0
14868,note_on,48,0,3,,,,,,,,0,,,73,0
14868,note_on,48,0,1,,,,,,,,0,,,76,0
14880,note_on,0,0,7,,,,,,,,2,,,57,105
14880,note_on,24,0,5,,,,,,,,4,,,50,105
14880,note_on,12,0,1,,,,,,,,0,,,74,105
14880,note_on,0,0,7,,,,,,,,2,,,50,105
14880,note_on,0,0,7,,,,,,,,2,,,65,105
14880,note_on,24,0,7,,,,,,,,2,,,62,105
14880,note_on,12,0,3,,,,,,,,0,,,74,105
14880,note_on,24,0,4,,,,,,,,3,,,65,105
14880,note_on,12,0,2,,,,,,,,1,,,74,105
14928,note_on,48,0,1,,,,,,,,0,,,74,0
14940,note_on,12,0,1,,,,,,,,0,,,69,105
14988,note_on,48,0,1,,,,,,,,0,,,69,0
15000,note_on,12,0,1,,,,,,,,0,,,70,105
15048,note_on,48,0,1,,,,,,,,0,,,70,0
15060,note_on,12,0,1,,,,,,,,0,,,69,105
15072,note_on,192,0,3,,,,,,,,0,,,74,0
15072,note_on,192,0,5,,,,,,,,4,,,50,0
15072,note_on,192,0,7,,,,,,,,2,,,57,0
15072,note_on,0,0,7,,,,,,,,2,,,62,0
15072,note_on,0,0,7,,,,,,,,2,,,65,0
15072,note_on,0,0,7,,,,,,,,2,,,50,0
15072,note_on,192,0,4,,,,,,,,3,,,65,0
15072,note_on,192,0,2,,,,,,,,1,,,74,0
15108,note_on,48,0,1,,,,,,,,0,,,69,0
15120,note_on,12,0,1,,,,,,,,0,,,76,105
15120,note_on,0,0,7,,,,,,,,2,,,57,105
15120,note_on,48,0,5,,,,,,,,4,,,49,105
15120,note_on,48,0,7,,,,,,,,2,,,64,105
15120,note_on,0,0,7,,,,,,,,2,,,49,105
15168,note_on,48,0,1,,,,,,,,0,,,76,0
15180,note_on,12,0,1,,,,,,,,0,,,69,105
15228,note_on,48,0,1,,,,,,,,0,,,69,0
15240,note_on,12,0,1,,,,,,,,0,,,70,105
15288,note_on,48,0,1,,,,,,,,0,,,70,0
15300,note_on,12,0,1,,,,,,,,0,,,69,105
15312,note_on,0,0,7,,,,,,,,2,,,64,0
15312,note_on,192,0,5,,,,,,,,4,,,49,0
15312,note_on,0,0,7,,,,,,,,2,,,49,0
15312,note_on,192,0,7,,,,,,,,2,,,57,0
15348,note_on,48,0,1,,,,,,,,0,,,69,0
15360,note_on,12,0,1,,,,,,,,0,,,77,105
15360,note_on,0,0,7,,,,,,,,2,,,50,105
15360,note_on,0,0,7,,,,,,,,2,,,57,105
15360,note_on,48,0,7,,,,,,,,2,,,65,105
15360,note_on,48,0,5,,,,,,,,4,,,50,105
15408,note_on,48,0,1,,,,,,,,0,,,77,0
15420,note_on,12,0,1,,,,,,,,0,,,69,105
15468,note_on,48,0,1,,,,,,,,0,,,69,0
15480,note_on,12,0,1,,,,,,,,0,,,70,105
15528,note_on,48,0,1,,,,,,,,0,,,70,0
15540,note_on,12,0,1,,,,,,,,0,,,69,105
15552,note_on,192,0,7,,,,,,,,2,,,50,0
15552,note_on,0,0,7,,,,,,,,2,,,65,0
15552,note_on,192,0,5,,,,,,,,4,,,50,0
15588,note_on,48,0,1,,,,,,,,0,,,69,0
15600,note_on,0,0,7,,,,,,,,2,,,67,105
15600,note_on,48,0,5,,,,,,,,4,,,52,105
15600,note_on,12,0,1,,,,,,,,0,,,79,105
15600,note_on,48,0,7,,,,,,,,2,,,52,105
15648,note_on,48,0,1,,,,,,,,0,,,79,0
15660,note_on,12,0,1,,,,,,,,0,,,69,105
15708,note_on,48,0,1,,,,,,,,0,,,69,0
15720,note_on,12,0,1,,,,,,,,0,,,70,105
15744,note_on,144,0,7,,,,,,,,2,,,57,0
15768,note_on,48,0,1,,,,,,,,0,,,70,0
15780,note_on,12,0,1,,,,,,,,0,,,69,105
15792,note_on,192,0,5,,,,,,,,4,,,52,0
15792,note_on,48,0,7,,,,,,,,2,,,67,0
15792,note_on,0,0,7,,,,,,,,2,,,52,0
15828,note_on,48,0,1,,,,,,,,0,,,69,0
15840,note_on,12,0,1,,,,,,,,0,,,81,105
15840,note_on,48,0,5,,,,,,,,4,,,53,105
15840,note_on,0,0,7,,,,,,,,2,,,62,105
15840,note_on,0,0,7,,,,,,,,2,,,53,105
15840,note_on,48,0,7,,,,,,,,2,,,69,105
15888,note_on,48,0,1,,,,,,,,0,,,81,0
15900,note_on,12,0,1,,,,,,,,0,,,69,105
15948,note_on,48,0,1,,,,,,,,0,,,69,0
15960,note_on,12,0,1,,,,,,,,0,,,70,105
16008,note_on,48,0,1,,,,,,,,0,,,70,0
16020,note_on,12,0,1,,,,,,,,0,,,69,105
16032,note_on,192,0,7,,,,,,,,2,,,53,0
16032,note_on,192,0,5,,,,,,,,4,,,53,0
16032,note_on,0,0,7,,,,,,,,2,,,69,0
16068,note_on,48,0,1,,,,,,,,0,,,69,0
16080,note_on,0,0,7,,,,,,,,2,,,70,105
16080,note_on,48,0,7,,,,,,,,2,,,55,105
16080,note_on,12,0,1,,,,,,,,0,,,82,105
16080,note_on,48,0,5,,,,,,,,4,,,55,105
16128,note_on,48,0,1,,,,,,,,0,,,82,0
16140,note_on,12,0,1,,,,,,,,0,,,69,105
16188,note_on,48,0,1,,,,,,,,0,,,69,0
16200,note_on,12,0,1,,,,,,,,0,,,70,105
16224,note_on,144,0,7,,,,,,,,2,,,62,0
16248,note_on,48,0,1,,,,,,,,0,,,70,0
16260,note_on,12,0,1,,,,,,,,0,,,69,105
16272,note_on,192,0,5,,,,,,,,4,,,55,0
16272,note_on,0,0,7,,,,,,,,2,,,55,0
16272,note_on,48,0,7,,,,,,,,2,,,70,0
16308,note_on,48,0,1,,,,,,,,0,,,69,0
16320,note_on,0,0,7,,,,,,,,2,,,57,105
16320,note_on,12,0,1,,,,,,,,0,,,85,105
16320,note_on,0,0,7,,,,,,,,2,,,61,105
16320,note_on,48,0,7,,,,,,,,2,,,69,105
16320,note_on,48,0,5,,,,,,,,4,,,57,105
16416,note_on,0,0,7,,,,,,,,2,,,61,0
16416,note_on,96,0,5,,,,,,,,4,,,57,0
16416,note_on,96,0,7,,,,,,,,2,,,57,0
16440,note_on,0,0,7,,,,,,,,2,,,55,105
16440,note_on,24,0,7,,,,,,,,2,,,64,105
16440,note_on,24,0,5,,,,,,,,4,,,55,105
16512,note_on,192,0,1,,,,,,,,0,,,85,0
16536,note_on,0,0,7,,,,,,,,2,,,64,0
16536,note_on,96,0,7,,,,,,,,2,,,55,0
16536,note_on,96,0,5,,,,,,,,4,,,55,0
16560,note_on,48,0,1,,,,,,,,0,,,86,105
16560,note_on,24,0,5,,,,,,,,4,,,53,105
16560,note_on,24,0,7,,,,,,,,2,,,53,105
16560,note_on,0,0,7,,,,,,,,2,,,62,105
16608,note_on,48,0,7,,,,,,,,2,,,69,0
16656,note_on,48,0,7,,,,,,,,2,,,62,0
16656,note_on,96,0,1,,,,,,,,0,,,86,0
16656,note_on,96,0,5,,,,,,,,4,,,53,0
16656,note_on,0,0,7,,,,,,,,2,,,53,0
16680,note_on,0,0,7,,,,,,,,2,,,67,105
16680,note_on,0,0,7,,,,,,,,2,,,64,105
16680,note_on,24,0,7,,,,,,,,2,,,49,105
16680,note_on,24,0,1,,,,,,,,0,,,82,105
16680,note_on,24,0,5,,,,,,,,4,,,49,105
16776,note_on,96,0,5,,,,,,,,4,,,49,0
16776,note_on,0,0,7,,,,,,,,2,,,67,0
16776,note_on,0,0,7,,,,,,,,2,,,49,0
16776,note_on,96,0,7,,,,,,,,2,,,64,0
16776,note_on,96,0,1,,,,,,,,0,,,82,0
16800,note_on,24,0,7,,,,,,,,2,,,65,105
16800,note_on,24,0,1,,,,,,,,0,,,81,105
16800,note_on,24,0,5,,,,,,,,4,,,50,105
16800,note_on,0,0,7,,,,,,,,2,,,57,105
16800,note_on,0,0,7,,,,,,,,2,,,50,105
16896,note_on,96,0,5,,,,,,,,4,,,50,0
16896,note_on,96,0,1,,,,,,,,0,,,81,0
16896,note_on,96,0,7,,,,,,,,2,,,50,0
16920,note_on,24,0,7,,,,,,,,2,,,38,105
16920,note_on,24,0,1,,,,,,,,0,,,79,105
16920,note_on,24,0,5,,,,,,,,4,,,38,105
16968,note_on,48,0,1,,,,,,,,0,,,79,0
16980,note_on,12,0,1,,,,,,,,0,,,77,105
16992,note_on,72,0,7,,,,,,,,2,,,57,0
16992,note_on,0,0,7,,,,,,,,2,,,65,0
17016,note_on,24,0,7,,,,,,,,2,,,38,0
17016,note_on,96,0,5,,,,,,,,4,,,38,0
17028,note_on,48,0,1,,,,,,,,0,,,77,0
17040,note_on,24,0,5,,,,,,,,4,,,52,105
17040,note_on,12,0,1,,,,,,,,0,,,79,105
17040,note_on,0,0,7,,,,,,,,2,,,69,105
17040,note_on,24,0,7,,,,,,,,2,,,61,105
17040,note_on,0,0,7,,,,,,,,2,,,52,105
17136,note_on,0,0,7,,,,,,,,2,,,52,0
17136,note_on,96,0,5,,,,,,,,4,,,52,0
17136,note_on,96,0,1,,,,,,,,0,,,79,0
17136,note_on,96,0,7,,,,,,,,2,,,69,0
17160,note_on,0,0,7,,,,,,,,2,,,45,105
17160,note_on,24,0,7,,,,,,,,2,,,67,105
17160,note_on,24,0,5,,,,,,,,4,,,45,105
17160,note_on,24,0,1,,,,,,,,0,,,76,105
17232,note_on,72,0,7,,,,,,,,2,,,61,0
17256,note_on,96,0,5,,,,,,,,4,,,45,0
17256,note_on,0,0,7,,,,,,,,2,,,67,0
17256,note_on,24,0,7,,,,,,,,2,,,45,0
17256,note_on,96,0,1,,,,,,,,0,,,76,0
17280,note_on,2208,0,4,,,,,,,,3,,,69,58
17280,note_on,2208,0,3,,,,,,,,0,,,74,58
17280,note_on,2208,0,2,,,,,,,,1,,,77,58
17280,note_on,24,0,5,,,,,,,,4,,,50,105
17280,note_on,0,0,7,,,,,,,,2,,,62,105
17280,note_on,0,0,7,,,,,,,,2,,,50,105
17280,note_on,24,0,1,,,,,,,,0,,,77,105
17280,note_on,24,0,7,,,,,,,,2,,,65,105
17328,note_on,48,0,3,,,,,,,,0,,,74,0
17328,note_on,48,0,2,,,,,,,,1,,,77,0
17340,note_on,12,0,2,,,,,,,,1,,,74,58
17340,note_on,12,0,3,,,,,,,,0,,,70,58
17376,note_on,96,0,5,,,,,,,,4,,,50,0
17376,note_on,96,0,7,,,,,,,,2,,,50,0
17376,note_on,96,0,1,,,,,,,,0,,,77,0
17376,note_on,96,0,4,,,,,,,,3,,,69,0
17388,note_on,48,0,3,,,,,,,,0,,,70,0
17388,note_on,48,0,2,,,,,,,,1,,,74,0
17400,note_on,12,0,2,,,,,,,,1,,,77,58
17400,note_on,24,0,1,,,,,,,,0,,,74,105
17400,note_on,24,0,5,,,,,,,,4,,,50,105
17400,note_on,12,0,3,,,,,,,,0,,,74,58
17400,note_on,24,0,4,,,,,,,,3,,,69,58
17400,note_on,24,0,7,,,,,,,,2,,,50,105
17448,note_on,48,0,2,,,,,,,,1,,,77,0
17448,note_on,48,0,3,,,,,,,,0,,,74,0
17460,note_on,12,0,2,,,,,,,,1,,,74,58
17460,note_on,12,0,3,,,,,,,,0,,,70,58
17472,note_on,72,0,7,,,,,,,,2,,,65,0
17496,note_on,24,0,7,,,,,,,,2,,,50,0
17496,note_on,96,0,4,,,,,,,,3,,,69,0
17496,note_on,96,0,5,,,,,,,,4,,,50,0
17496,note_on,96,0,1,,,,,,,,0,,,74,0
17508,note_on,48,0,2,,,,,,,,1,,,74,0
17508,note_on,48,0,3,,,,,,,,0,,,70,0
17520,note_on,24,0,4,,,,,,,,3,,,69,58
17520,note_on,24,0,5,,,,,,,,4,,,50,105
17520,note_on,12,0,3,,,,,,,,0,,,77,58
17520,note_on,0,0,7,,,,,,,,2,,,69,105
17520,note_on,12,0,2,,,,,,,,1,,,81,58
17520,note_on,24,0,7,,,,,,,,2,,,50,105
17616,note_on,96,0,4,,,,,,,,3,,,69,0
17616,note_on,96,0,5,,,,,,,,4,,,50,0
17616,note_on,96,0,7,,,,,,,,2,,,50,0
17640,note_on,24,0,5,,,,,,,,4,,,50,105
17640,note_on,24,0,4,,,,,,,,3,,,69,58
17640,note_on,24,0,7,,,,,,,,2,,,50,105
17712,note_on,192,0,2,,,,,,,,1,,,81,0
17712,note_on,72,0,7,,,,,,,,2,,,69,0
17712,note_on,192,0,3,,,,,,,,0,,,77,0
17736,note_on,96,0,5,,,,,,,,4,,,50,0
17736,note_on,24,0,7,,,,,,,,2,,,50,0
17736,note_on,96,0,4,,,,,,,,3,,,69,0
17760,note_on,0,0,7,,,,,,,,2,,,50,105
17760,note_on,24,0,5,,,,,,,,4,,,50,105
17760,note_on,48,0,3,,,,,,,,0,,,74,58
17760,note_on,264,0,1,,,,,,,,0,,,74,105
17760,note_on,24,0,4,,,,,,,,3,,,69,58
17760,note_on,48,0,2,,,,,,,,1,,,77,58
17760,note_on,24,0,7,,,,,,,,2,,,65,105
17808,note_on,48,0,1,,,,,,,,0,,,74,0
17820,note_on,12,0,1,,,,,,,,0,,,69,105
17856,note_on,96,0,7,,,,,,,,2,,,62,0
17868,note_on,48,0,1,,,,,,,,0,,,69,0
17880,note_on,12,0,1,,,,,,,,0,,,70,105
17928,note_on,48,0,1,,,,,,,,0,,,70,0
17940,note_on,12,0,1,,,,,,,,0,,,69,105
17952,note_on,192,0,2,,,,,,,,1,,,77,0
17952,note_on,96,0,7,,,,,,,,2,,,50,0
17952,note_on,0,0,7,,,,,,,,2,,,65,0
17952,note_on,192,0,4,,,,,,,,3,,,69,0
17952,note_on,192,0,3,,,,,,,,0,,,74,0
17952,note_on,192,0,5,,,,,,,,4,,,50,0
17988,note_on,48,0,1,,,,,,,,0,,,69,0
18000,note_on,48,0,5,,,,,,,,4,,,49,105
18000,note_on,0,0,7,,,,,,,,2,,,64,105
18000,note_on,0,0,7,,,,,,,,2,,,57,105
18000,note_on,48,0,7,,,,,,,,2,,,49,105
18000,note_on,12,0,1,,,,,,,,0,,,76,105
18048,note_on,48,0,1,,,,,,,,0,,,76,0
18060,note_on,12,0,1,,,,,,,,0,,,69,105
18108,note_on,48,0,1,,,,,,,,0,,,69,0
18120,note_on,12,0,1,,,,,,,,0,,,70,105
18168,note_on,48,0,1,,,,,,,,0,,,70,0
18180,note_on,12,0,1,,,,,,,,0,,,69,105
18192,note_on,192,0,5,,,,,,,,4,,,49,0
18192,note_on,192,0,7,,,,,,,,2,,,64,0
18192,note_on,0,0,7,,,,,,,,2,,,57,0
18192,note_on,0,0,7,,,,,,,,2,,,49,0
18228,note_on,48,0,1,,,,,,,,0,,,69,0
18240,note_on,12,0,1,,,,,,,,0,,,77,105
18240,note_on,48,0,5,,,,,,,,4,,,50,105
18240,note_on,0,0,7,,,,,,,,2,,,50,105
18240,note_on,48,0,7,,,,,,,,2,,,65,105
18240,note_on,0,0,7,,,,,,,,2,,,57,105
18288,note_on,48,0,1,,,,,,,,0,,,77,0
18300,note_on,12,0,1,,,,,,,,0,,,69,105
18348,note_on,48,0,1,,,,,,,,0,,,69,0
18360,note_on,12,0,1,,,,,,,,0,,,70,105
18408,note_on,48,0,1,,,,,,,,0,,,70,0
18420,note_on,12,0,1,,,,,,,,0,,,69,105
18432,note_on,192,0,7,,,,,,,,2,,,50,0
18432,note_on,0,0,7,,,,,,,,2,,,65,0
18432,note_on,192,0,5,,,,,,,,4,,,50,0
18468,note_on,48,0,1,,,,,,,,0,,,69,0
18480,note_on,48,0,7,,,,,,,,2,,,52,105
18480,note_on,0,0,7,,,,,,,,2,,,67,105
18480,note_on,48,0,5,,,,,,,,4,,,52,105
18480,note_on,12,0,1,,,,,,,,0,,,79,105
18528,note_on,48,0,1,,,,,,,,0,,,79,0
18540,note_on,12,0,1,,,,,,,,0,,,69,105
18588,note_on,48,0,1,,,,,,,,0,,,69,0
18600,note_on,12,0,1,,,,,,,,0,,,70,105
18624,note_on,144,0,7,,,,,,,,2,,,57,0
18648,note_on,48,0,1,,,,,,,,0,,,70,0
18660,note_on,12,0,1,,,,,,,,0,,,69,105
18672,note_on,0,0,7,,,,,,,,2,,,52,0
18672,note_on,192,0,5,,,,,,,,4,,,52,0
18672,note_on,48,0,7,,,,,,,,2,,,67,0
18708,note_on,48,0,1,,,,,,,,0,,,69,0
18720,note_on,0,0,7,,,,,,,,2,,,53,105
18720,note_on,48,0,7,,,,,,,,2,,,69,105
18720,note_on,48,0,5,,,,,,,,4,,,53,105
18720,note_on,12,0,1,,,,,,,,0,,,81,105
18720,note_on,0,0,7,,,,,,,,2,,,62,105
18768,note_on,48,0,1,,,,,,,,0,,,81,0
18780,note_on,12,0,1,,,,,,,,0,,,69,105
18828,note_on,48,0,1,,,,,,,,0,,,69,0
18840,note_on,12,0,1,,,,,,,,0,,,70,105
18888,note_on,48,0,1,,,,,,,,0,,,70,0
18900,note_on,12,0,1,,,,,,,,0,,,69,105
18912,note_on,192,0,5,,,,,,,,4,,,53,0
18912,note_on,0,0,7,,,,,,,,2,,,69,0
18912,note_on,192,0,7,,,,,,,,2,,,53,0
18948,note_on,48,0,1,,,,,,,,0,,,69,0
18960,note_on,48,0,7,,,,,,,,2,,,55,105
18960,note_on,0,0,7,,,,,,,,2,,,70,105
18960,note_on,48,0,5,,,,,,,,4,,,55,105
18960,note_on,12,0,1,,,,,,,,0,,,82,105
19008,note_on,48,0,1,,,,,,,,0,,,82,0
19020,note_on,12,0,1,,,,,,,,0,,,69,105
19068,note_on,48,0,1,,,,,,,,0,,,69,0
19080,note_on,12,0,1,,,,,,,,0,,,70,105
19104,note_on,144,0,7,,,,,,,,2,,,62,0
19128,note_on,48,0,1,,,,,,,,0,,,70,0
19140,note_on,12,0,1,,,,,,,,0,,,69,105
19152,note_on,48,0,7,,,,,,,,2,,,70,0
19152,note_on,0,0,7,,,,,,,,2,,,55,0
19152,note_on,192,0,5,,,,,,,,4,,,55,0
19188,note_on,48,0,1,,,,,,,,0,,,69,0
19200,note_on,48,0,5,,,,,,,,4,,,57,105
19200,note_on,12,0,1,,,,,,,,0,,,85,105
19200,note_on,48,0,7,,,,,,,,2,,,69,105
19200,note_on,0,0,7,,,,,,,,2,,,61,105
19200,note_on,0,0,7,,,,,,,,2,,,57,105
19296,note_on,96,0,5,,,,,,,,4,,,57,0
19296,note_on,96,0,7,,,,,,,,2,,,57,0
19296,note_on,0,0,7,,,,,,,,2,,,61,0
19320,note_on,24,0,5,,,,,,,,4,,,55,105
19320,note_on,24,0,7,,,,,,,,2,,,64,105
19320,note_on,0,0,7,,,,,,,,2,,,55,105
19392,note_on,192,0,1,,,,,,,,0,,,85,0
19416,note_on,0,0,7,,,,,,,,2,,,64,0
19416,note_on,96,0,5,,,,,,,,4,,,55,0
19416,note_on,96,0,7,,,,,,,,2,,,55,0
19440,note_on,48,0,1,,,,,,,,0,,,86,105
19440,note_on,24,0,5,,,,,,,,4,,,53,105
19440,note_on,24,0,7,,,,,,,,2,,,62,105
19440,note_on,0,0,7,,,,,,,,2,,,53,105
19488,note_on,48,0,7,,,,,,,,2,,,69,0
19536,note_on,96,0,1,,,,,,,,0,,,86,0
19536,note_on,96,0,5,,,,,,,,4,,,53,0
19536,note_on,0,0,7,,,,,,,,2,,,62,0
19536,note_on,48,0,7,,,,,,,,2,,,53,0
19560,note_on,0,0,7,,,,,,,,2,,,52,105
19560,note_on,24,0,7,,,,,,,,2,,,68,105
19560,note_on,0,0,7,,,,,,,,2,,,64,105
19560,note_on,24,0,1,,,,,,,,0,,,80,105
19560,note_on,24,0,5,,,,,,,,4,,,52,105
19608,note_on,48,0,5,,,,,,,,4,,,52,0
19608,note_on,48,0,7,,,,,,,,2,,,52,0
19620,note_on,12,0,7,,,,,,,,2,,,50,105
19620,note_on,12,0,5,,,,,,,,4,,,50,105
19656,note_on,36,0,7,,,,,,,,2,,,64,0
19656,note_on,0,0,7,,,,,,,,2,,,68,0
19656,note_on,96,0,1,,,,,,,,0,,,80,0
19668,note_on,48,0,5,,,,,,,,4,,,50,0
19668,note_on,12,0,7,,,,,,,,2,,,50,0
19680,note_on,0,0,7,,,,,,,,2,,,49,105
19680,note_on,0,0,7,,,,,,,,2,,,64,105
19680,note_on,12,0,7,,,,,,,,2,,,69,105
19680,note_on,12,0,5,,,,,,,,4,,,49,105
19680,note_on,24,0,1,,,,,,,,0,,,81,105
19776,note_on,0,0,7,,,,,,,,2,,,64,0
19776,note_on,96,0,7,,,,,,,,2,,,49,0
19776,note_on,96,0,5,,,,,,,,4,,,49,0
19776,note_on,96,0,1,,,,,,,,0,,,81,0
19800,note_on,24,0,5,,,,,,,,4,,,50,105
19800,note_on,24,0,7,,,,,,,,2,,,65,105
19800,note_on,0,0,7,,,,,,,,2,,,50,105
19800,note_on,24,0,1,,,,,,,,0,,,79,105
19848,note_on,48,0,1,,,,,,,,0,,,79,0
19860,note_on,12,0,1,,,,,,,,0,,,77,105
19872,note_on,72,0,7,,,,,,,,2,,,69,0
19896,note_on,24,0,7,,,,,,,,2,,,50,0
19896,note_on,0,0,7,,,,,,,,2,,,65,0
19896,note_on,96,0,5,,,,,,,,4,,,50,0
19908,note_on,48,0,1,,,,,,,,0,,,77,0
19920,note_on,24,0,7,,,,,,,,2,,,44,105
19920,note_on,0,0,7,,,,,,,,2,,,64,105
19920,note_on,0,0,7,,,,,,,,2,,,71,105
19920,note_on,12,0,1,,,,,,,,0,,,76,105
19920,note_on,24,0,5,,,,,,,,4,,,44,105
20016,note_on,96,0,7,,,,,,,,2,,,71,0
20016,note_on,96,0,1,,,,,,,,0,,,76,0
20040,note_on,24,0,1,,,,,,,,0,,,74,105
20040,note_on,24,0,7,,,,,,,,2,,,74,105
20112,note_on,192,0,5,,,,,,,,4,,,44,0
20112,note_on,72,0,7,,,,,,,,2,,,64,0
20112,note_on,0,0,7,,,,,,,,2,,,44,0
20136,note_on,24,0,7,,,,,,,,2,,,74,0
20136,note_on,96,0,1,,,,,,,,0,,,74,0
20160,note_on,0,0,7,,,,,,,,2,,,69,105
20160,note_on,24,0,7,,,,,,,,2,,,73,105
20160,note_on,24,0,1,,,,,,,,0,,,73,105
20160,note_on,48,0,5,,,,,,,,4,,,45,105
20160,note_on,2208,0,2,,,,,,,,1,,,76,58
20160,note_on,0,0,7,,,,,,,,2,,,45,105
20160,note_on,2208,0,4,,,,,,,,3,,,69,58
20160,note_on,2208,0,3,,,,,,,,0,,,73,58
20160,note_on,0,0,7,,,,,,,,2,,,64,105
20208,note_on,48,0,2,,,,,,,,1,,,76,0
20208,note_on,48,0,1,,,,,,,,0,,,73,0
20208,note_on,48,0,3,,,,,,,,0,,,73,0
20220,note_on,12,0,1,,,,,,,,0,,,71,105
20220,note_on,12,0,2,,,,,,,,1,,,73,58
20220,note_on,12,0,3,,,,,,,,0,,,69,58
20256,note_on,96,0,4,,,,,,,,3,,,69,0
20256,note_on,96,0,7,,,,,,,,2,,,45,0
20256,note_on,96,0,5,,,,,,,,4,,,45,0
20268,note_on,48,0,2,,,,,,,,1,,,73,0
20268,note_on,48,0,3,,,,,,,,0,,,69,0
20268,note_on,48,0,1,,,,,,,,0,,,71,0
20280,note_on,24,0,4,,,,,,,,3,,,69,58
20280,note_on,24,0,7,,,,,,,,2,,,45,105
20280,note_on,24,0,5,,,,,,,,4,,,45,105
20280,note_on,12,0,2,,,,,,,,1,,,76,58
20280,note_on,12,0,3,,,,,,,,0,,,73,58
20280,note_on,12,0,1,,,,,,,,0,,,69,105
20328,note_on,48,0,2,,,,,,,,1,,,76,0
20328,note_on,48,0,3,,,,,,,,0,,,73,0
20340,note_on,12,0,3,,,,,,,,0,,,69,58
20340,note_on,12,0,2,,,,,,,,1,,,73,58
20352,note_on,72,0,7,,,,,,,,2,,,73,0
20352,note_on,0,0,7,,,,,,,,2,,,64,0
20352,note_on,0,0,7,,,,,,,,2,,,69,0
20376,note_on,24,0,7,,,,,,,,2,,,45,0
20376,note_on,96,0,1,,,,,,,,0,,,69,0
20376,note_on,96,0,4,,,,,,,,3,,,69,0
20376,note_on,96,0,5,,,,,,,,4,,,45,0
20388,note_on,48,0,3,,,,,,,,0,,,69,0
20388,note_on,48,0,2,,,,,,,,1,,,73,0
20400,note_on,24,0,5,,,,,,,,4,,,45,105
20400,note_on,24,0,4,,,,,,,,3,,,69,58
20400,note_on,12,0,2,,,,,,,,1,,,81,58
20400,note_on,24,0,7,,,,,,,,2,,,73,105
20400,note_on,0,0,7,,,,,,,,2,,,69,105
20400,note_on,0,0,7,,,,,,,,2,,,45,105
20400,note_on,12,0,3,,,,,,,,0,,,76,58
20400,note_on,0,0,7,,,,,,,,2,,,64,105
20496,note_on,96,0,7,,,,,,,,2,,,45,0
20496,note_on,96,0,4,,,,,,,,3,,,69,0
20496,note_on,96,0,5,,,,,,,,4,,,45,0
20520,note_on,24,0,5,,,,,,,,4,,,45,105
20520,note_on,24,0,7,,,,,,,,2,,,45,105
20520,note_on,24,0,4,,,,,,,,3,,,69,58
20592,note_on,192,0,2,,,,,,,,1,,,81,0
20592,note_on,0,0,7,,,,,,,,2,,,69,0
20592,note_on,0,0,7,,,,,,,,2,,,64,0
20592,note_on,192,0,3,,,,,,,,0,,,76,0
20592,note_on,72,0,7,,,,,,,,2,,,73,0
20616,note_on,96,0,5,,,,,,,,4,,,45,0
20616,note_on,24,0,7,,,,,,,,2,,,45,0
20616,note_on,96,0,4,,,,,,,,3,,,69,0
20640,note_on,24,0,7,,,,,,,,2,,,74,105
20640,note_on,264,0,1,,,,,,,,0,,,78,105
20640,note_on,0,0,7,,,,,,,,2,,,50,105
20640,note_on,0,0,7,,,,,,,,2,,,69,105
20640,note_on,0,0,7,,,,,,,,2,,,66,105
20640,note_on,48,0,3,,,,,,,,0,,,74,58
20640,note_on,48,0,2,,,,,,,,1,,,78,58
20640,note_on,24,0,5,,,,,,,,4,,,50,105
20640,note_on,24,0,4,,,,,,,,3,,,69,58
20688,note_on,48,0,1,,,,,,,,0,,,78,0
20700,note_on,12,0,1,,,,,,,,0,,,72,105
20748,note_on,48,0,1,,,,,,,,0,,,72,0
20760,note_on,12,0,1,,,,,,,,0,,,74,105
20808,note_on,48,0,1,,,,,,,,0,,,74,0
20820,note_on,12,0,1,,,,,,,,0,,,72,105
20832,note_on,0,0,7,,,,,,,,2,,,69,0
20832,note_on,192,0,4,,,,,,,,3,,,69,0
20832,note_on,192,0,7,,,,,,,,2,,,66,0
20832,note_on,192,0,2,,,,,,,,1,,,78,0
20832,note_on,0,0,7,,,,,,,,2,,,74,0
20832,note_on,192,0,5,,,,,,,,4,,,50,0
20832,note_on,0,0,7,,,,,,,,2,,,50,0
20832,note_on,192,0,3,,,,,,,,0,,,74,0
20868,note_on,48,0,1,,,,,,,,0,,,72,0
20880,note_on,48,0,7,,,,,,,,2,,,50,105
20880,note_on,12,0,1,,,,,,,,0,,,78,105
20880,note_on,48,0,5,,,,,,,,4,,,50,105
20928,note_on,48,0,1,,,,,,,,0,,,78,0
20940,note_on,12,0,1,,,,,,,,0,,,72,105
20988,note_on,48,0,1,,,,,,,,0,,,72,0
21000,note_on,12,0,1,,,,,,,,0,,,74,105
21048,note_on,48,0,1,,,,,,,,0,,,74,0
21060,note_on,12,0,1,,,,,,,,0,,,72,105
21072,note_on,192,0,5,,,,,,,,4,,,50,0
21072,note_on,192,0,7,,,,,,,,2,,,50,0
21108,note_on,48,0,1,,,,,,,,0,,,72,0
21120,note_on,12,0,1,,,,,,,,0,,,81,105
21120,note_on,0,0,7,,,,,,,,2,,,62,105
21120,note_on,0,0,7,,,,,,,,2,,,54,105
21120,note_on,48,0,7,,,,,,,,2,,,69,105
21120,note_on,48,0,5,,,,,,,,4,,,54,105
21168,note_on,48,0,1,,,,,,,,0,,,81,0
21180,note_on,12,0,1,,,,,,,,0,,,72,105
21228,note_on,48,0,1,,,,,,,,0,,,72,0
21240,note_on,12,0,1,,,,,,,,0,,,74,105
21288,note_on,48,0,1,,,,,,,,0,,,74,0
21300,note_on,12,0,1,,,,,,,,0,,,72,105
21312,note_on,192,0,5,,,,,,,,4,,,54,0
21312,note_on,0,0,7,,,,,,,,2,,,69,0
21312,note_on,192,0,7,,,,,,,,2,,,54,0
21348,note_on,48,0,1,,,,,,,,0,,,72,0
21360,note_on,48,0,5,,,,,,,,4,,,54,105
21360,note_on,0,0,7,,,,,,,,2,,,54,105
21360,note_on,12,0,1,,,,,,,,0,,,81,105
21360,note_on,48,0,7,,,,,,,,2,,,72,105
21408,note_on,48,0,1,,,,,,,,0,,,81,0
21420,note_on,12,0,1,,,,,,,,0,,,72,105
21468,note_on,48,0,1,,,,,,,,0,,,72,0
21480,note_on,12,0,1,,,,,,,,0,,,74,105
21504,note_on,144,0,7,,,,,,,,2,,,62,0
21528,note_on,48,0,1,,,,,,,,0,,,74,0
21540,note_on,12,0,1,,,,,,,,0,,,72,105
21552,note_on,192,0,5,,,,,,,,4,,,54,0
21552,note_on,0,0,7,,,,,,,,2,,,72,0
21552,note_on,48,0,7,,,,,,,,2,,,54,0
21588,note_on,48,0,1,,,,,,,,0,,,72,0
21600,note_on,48,0,7,,,,,,,,2,,,55,105
21600,note_on,0,0,7,,,,,,,,2,,,62,105
21600,note_on,0,0,7,,,,,,,,2,,,70,105
21600,note_on,12,0,1,,,,,,,,0,,,82,105
21600,note_on,48,0,5,,,,,,,,4,,,55,105
21648,note_on,48,0,1,,,,,,,,0,,,82,0
21660,note_on,12,0,1,,,,,,,,0,,,79,105
21708,note_on,48,0,1,,,,,,,,0,,,79,0
21720,note_on,12,0,1,,,,,,,,0,,,74,105
21768,note_on,48,0,1,,,,,,,,0,,,74,0
21780,note_on,12,0,1,,,,,,,,0,,,70,105
21792,note_on,192,0,5,,,,,,,,4,,,55,0
21792,note_on,192,0,7,,,,,,,,2,,,70,0
21792,note_on,0,0,7,,,,,,,,2,,,62,0
21792,note_on,0,0,7,,,,,,,,2,,,55,0
21828,note_on,48,0,1,,,,,,,,0,,,70,0
21840,note_on,12,0,1,,,,,,,,0,,,67,105
21960,note_on,168,0,5,,,,,,,,4,,,46,105
21960,note_on,168,0,7,,,,,,,,2,,,46,105
22032,note_on,192,0,1,,,,,,,,0,,,67,0
22056,note_on,96,0,7,,,,,,,,2,,,46,0
22056,note_on,96,0,5,,,,,,,,4,,,46,0
22080,note_on,0,0,7,,,,,,,,2,,,48,105
22080,note_on,24,0,7,,,,,,,,2,,,67,105
22080,note_on,0,0,7,,,,,,,,2,,,60,105
22080,note_on,48,0,1,,,,,,,,0,,,76,105
22080,note_on,0,0,7,,,,,,,,2,,,64,105
22080,note_on,24,0,5,,,,,,,,4,,,48,105
22128,note_on,48,0,1,,,,,,,,0,,,76,0
22140,note_on,12,0,1,,,,,,,,0,,,70,105
22188,note_on,48,0,1,,,,,,,,0,,,70,0
22200,note_on,12,0,1,,,,,,,,0,,,72,105
22248,note_on,48,0,1,,,,,,,,0,,,72,0
22260,note_on,12,0,1,,,,,,,,0,,,70,105
22272,note_on,192,0,5,,,,,,,,4,,,48,0
22272,note_on,192,0,7,,,,,,,,2,,,48,0
22308,note_on,48,0,1,,,,,,,,0,,,70,0
22320,note_on,48,0,5,,,,,,,,4,,,48,105
22320,note_on,48,0,7,,,,,,,,2,,,48,105
22320,note_on,12,0,1,,,,,,,,0,,,76,105
22368,note_on,48,0,1,,,,,,,,0,,,76,0
22380,note_on,12,0,1,,,,,,,,0,,,70,105
22428,note_on,48,0,1,,,,,,,,0,,,70,0
22440,note_on,12,0,1,,,,,,,,0,,,72,105
22464,note_on,144,0,7,,,,,,,,2,,,67,0
22464,note_on,0,0,7,,,,,,,,2,,,64,0
22464,note_on,0,0,7,,,,,,,,2,,,60,0
22488,note_on,48,0,1,,,,,,,,0,,,72,0
22500,note_on,12,0,1,,,,,,,,0,,,70,105
22512,note_on,48,0,7,,,,,,,,2,,,48,0
22512,note_on,192,0,5,,,,,,,,4,,,48,0
22548,note_on,48,0,1,,,,,,,,0,,,70,0
22560,note_on,48,0,7,,,,,,,,2,,,72,105
22560,note_on,48,0,5,,,,,,,,4,,,52,105
22560,note_on,0,0,7,,,,,,,,2,,,60,105
22560,note_on,0,0,7,,,,,,,,2,,,52,105
22560,note_on,0,0,7,,,,,,,,2,,,67,105
22560,note_on,12,0,1,,,,,,,,0,,,79,105
22608,note_on,48,0,1,,,,,,,,0,,,79,0
22620,note_on,12,0,1,,,,,,,,0,,,70,105
22668,note_on,48,0,1,,,,,,,,0,,,70,0
22680,note_on,12,0,1,,,,,,,,0,,,72,105
22728,note_on,48,0,1,,,,,,,,0,,,72,0
22740,note_on,12,0,1,,,,,,,,0,,,70,105
22752,note_on,0,0,7,,,,,,,,2,,,72,0
22752,note_on,192,0,7,,,,,,,,2,,,52,0
22752,note_on,192,0,5,,,,,,,,4,,,52,0
22788,note_on,48,0,1,,,,,,,,0,,,70,0
22800,note_on,48,0,5,,,,,,,,4,,,52,105
22800,note_on,12,0,1,,,,,,,,0,,,79,105
22800,note_on,48,0,7,,,,,,,,2,,,52,105
22800,note_on,0,0,7,,,,,,,,2,,,70,105
22848,note_on,48,0,1,,,,,,,,0,,,79,0
22860,note_on,12,0,1,,,,,,,,0,,,70,105
22908,note_on,48,0,1,,,,,,,,0,,,70,0
22920,note_on,12,0,1,,,,,,,,0,,,72,105
22944,note_on,0,0,7,,,,,,,,2,,,67,0
22944,note_on,144,0,7,,,,,,,,2,,,60,0
22968,note_on,48,0,1,,,,,,,,0,,,72,0
22980,note_on,12,0,1,,,,,,,,0,,,70,105
22992,note_on,192,0,5,,,,,,,,4,,,52,0
22992,note_on,0,0,7,,,,,,,,2,,,70,0
22992,note_on,48,0,7,,,,,,,,2,,,52,0
23028,note_on,48,0,1,,,,,,,,0,,,70,0
23040,note_on,12,0,1,,,,,,,,0,,,81,105
23040,note_on,48,0,7,,,,,,,,2,,,69,105
23040,note_on,0,0,7,,,,,,,,2,,,60,105
23040,note_on,0,0,7,,,,,,,,2,,,53,105
23040,note_on,48,0,5,,,,,,,,4,,,53,105
23040,note_on,0,0,7,,,,,,,,2,,,65,105
23088,note_on,48,0,1,,,,,,,,0,,,81,0
23100,note_on,12,0,1,,,,,,,,0,,,77,105
23148,note_on,48,0,1,,,,,,,,0,,,77,0
23160,note_on,12,0,1,,,,,,,,0,,,72,105
23208,note_on,48,0,1,,,,,,,,0,,,72,0
23220,note_on,12,0,1,,,,,,,,0,,,69,105
23232,note_on,0,0,7,,,,,,,,2,,,69,0
23232,note_on,0,0,7,,,,,,,,2,,,60,0
23232,note_on,0,0,7,,,,,,,,2,,,53,0
23232,note_on,192,0,7,,,,,,,,2,,,65,0
23232,note_on,192,0,5,,,,,,,,4,,,53,0
23268,note_on,48,0,1,,,,,,,,0,,,69,0
23280,note_on,12,0,1,,,,,,,,0,,,65,105
23400,note_on,168,0,5,,,,,,,,4,,,45,105
23400,note_on,168,0,7,,,,,,,,2,,,45,105
23472,note_on,192,0,1,,,,,,,,0,,,65,0
23496,note_on,96,0,5,,,,,,,,4,,,45,0
23496,note_on,96,0,7,,,,,,,,2,,,45,0
23520,note_on,0,0,1,,,,,,,,0,,,74,105
23520,note_on,24,0,5,,,,,,,,4,,,50,105
23520,note_on,48,0,1,,,,,,,,0,,,77,105
23520,note_on,24,0,7,,,,,,,,2,,,65,105
23520,note_on,0,0,7,,,,,,,,2,,,62,105
23520,note_on,0,0,7,,,,,,,,2,,,69,105
23520,note_on,0,0,7,,,,,,,,2,,,50,105
23616,note_on,0,0,1,,,,,,,,0,,,77,0
23616,note_on,96,0,1,,,,,,,,0,,,74,0
23616,note_on,96,0,7,,,,,,,,2,,,50,0
23616,note_on,96,0,5,,,,,,,,4,,,50,0
23640,note_on,0,0,1,,,,,,,,0,,,74,105
23640,note_on,24,0,7,,,,,,,,2,,,52,105
23640,note_on,24,0,1,,,,,,,,0,,,77,105
23640,note_on,24,0,5,,,,,,,,4,,,52,105
23736,note_on,0,0,1,,,,,,,,0,,,77,0
23736,note_on,96,0,1,,,,,,,,0,,,74,0
23736,note_on,96,0,5,,,,,,,,4,,,52,0
23736,note_on,96,0,7,,,,,,,,2,,,52,0
23760,note_on,24,0,5,,,,,,,,4,,,53,105
23760,note_on,0,0,1,,,,,,,,0,,,74,105
23760,note_on,24,0,1,,,,,,,,0,,,77,105
23760,note_on,24,0,7,,,,,,,,2,,,53,105
23808,note_on,48,0,1,,,,,,,,0,,,74,0
23808,note_on,0,0,1,,,,,,,,0,,,77,0
23820,note_on,12,0,1,,,,,,,,0,,,72,105
23856,note_on,96,0,5,,,,,,,,4,,,53,0
23856,note_on,96,0,7,,,,,,,,2,,,53,0
23868,note_on,48,0,1,,,,,,,,0,,,72,0
23880,note_on,24,0,7,,,,,,,,2,,,50,105
23880,note_on,24,0,5,,,,,,,,4,,,50,105
23880,note_on,12,0,1,,,,,,,,0,,,70,105
23904,note_on,0,0,7,,,,,,,,2,,,62,0
23904,note_on,0,0,7,,,,,,,,2,,,69,0
23904,note_on,24,0,7,,,,,,,,2,,,65,0
23928,note_on,48,0,1,,,,,,,,0,,,70,0
23940,note_on,12,0,1,,,,,,,,0,,,69,105
23976,note_on,96,0,5,,,,,,,,4,,,50,0
23976,note_on,72,0,7,,,,,,,,2,,,50,0
23988,note_on,48,0,1,,,,,,,,0,,,69,0
24000,note_on,24,0,7,,,,,,,,2,,,70,105
24000,note_on,0,0,7,,,,,,,,2,,,55,105
24000,note_on,0,0,1,,,,,,,,0,,,67,105
24000,note_on,0,0,7,,,,,,,,2,,,67,105
24000,note_on,0,0,7,,,,,,,,2,,,62,105
24000,note_on,12,0,1,,,,,,,,0,,,70,105
24000,note_on,24,0,5,,,,,,,,4,,,55,105
24096,note_on,0,0,1,,,,,,,,0,,,70,0
24096,note_on,96,0,1,,,,,,,,0,,,67,0
24120,note_on,0,0,1,,,,,,,,0,,,67,105
24120,note_on,24,0,1,,,,,,,,0,,,70,105
24192,note_on,192,0,5,,,,,,,,4,,,55,0
24192,note_on,0,0,7,,,,,,,,2,,,70,0
24192,note_on,0,0,7,,,,,,,,2,,,67,0
24192,note_on,0,0,7,,,,,,,,2,,,62,0
24192,note_on,192,0,7,,,,,,,,2,,,55,0
24216,note_on,0,0,1,,,,,,,,0,,,70,0
24216,note_on,96,0,1,,,,,,,,0,,,67,0
24240,note_on,24,0,1,,,,,,,,0,,,70,105
24240,note_on,0,0,1,,,,,,,,0,,,67,105
24336,note_on,96,0,1,,,,,,,,0,,,67,0
24336,note_on,0,0,1,,,,,,,,0,,,70,0
24360,note_on,0,0,1,,,,,,,,0,,,67,105
24360,note_on,24,0,1,,,,,,,,0,,,70,105
24456,note_on,96,0,1,,,,,,,,0,,,67,0
24456,note_on,0,0,1,,,,,,,,0,,,70,0
24480,note_on,0,0,7,,,,,,,,2,,,62,105
24480,note_on,288,0,7,,,,,,,,2,,,70,105
24480,note_on,288,0,5,,,,,,,,4,,,55,105
24480,note_on,24,0,1,,,,,,,,0,,,79,105
24480,note_on,0,0,1,,,,,,,,0,,,76,105
24480,note_on,0,0,7,,,,,,,,2,,,67,105
24480,note_on,0,0,7,,,,,,,,2,,,55,105
24576,note_on,96,0,5,,,,,,,,4,,,55,0
24576,note_on,96,0,7,,,,,,,,2,,,55,0
24576,note_on,0,0,1,,,,,,,,0,,,79,0
24576,note_on,96,0,1,,,,,,,,0,,,76,0
24600,note_on,24,0,1,,,,,,,,0,,,79,105
24600,note_on,24,0,7,,,,,,,,2,,,57,105
24600,note_on,0,0,1,,,,,,,,0,,,76,105
24600,note_on,24,0,5,,,,,,,,4,,,57,105
24672,note_on,72,0,7,,,,,,,,2,,,70,0
24696,note_on,24,0,7,,,,,,,,2,,,57,0
24696,note_on,96,0,1,,,,,,,,0,,,76,0
24696,note_on,0,0,1,,,,,,,,0,,,79,0
24696,note_on,96,0,5,,,,,,,,4,,,57,0
24720,note_on,24,0,5,,,,,,,,4,,,58,105
24720,note_on,24,0,7,,,,,,,,2,,,58,105
24720,note_on,24,0,1,,,,,,,,0,,,79,105
24720,note_on,0,0,7,,,,,,,,2,,,74,105
24720,note_on,0,0,1,,,,,,,,0,,,76,105
24768,note_on,48,0,1,,,,,,,,0,,,76,0
24768,note_on,0,0,1,,,,,,,,0,,,79,0
24780,note_on,12,0,1,,,,,,,,0,,,77,105
24816,note_on,96,0,5,,,,,,,,4,,,58,0
24816,note_on,96,0,7,,,,,,,,2,,,58,0
24828,note_on,48,0,1,,,,,,,,0,,,77,0
24840,note_on,24,0,5,,,,,,,,4,,,55,105
24840,note_on,24,0,7,,,,,,,,2,,,55,105
24840,note_on,12,0,1,,,,,,,,0,,,76,105
24864,note_on,24,0,7,,,,,,,,2,,,67,0
24864,note_on,0,0,7,,,,,,,,2,,,62,0
24888,note_on,48,0,1,,,,,,,,0,,,76,0
24900,note_on,12,0,1,,,,,,,,0,,,74,105
24912,note_on,48,0,7,,,,,,,,2,,,74,0
24936,note_on,96,0,5,,,,,,,,4,,,55,0
24936,note_on,24,0,7,,,,,,,,2,,,55,0
24948,note_on,48,0,1,,,,,,,,0,,,74,0
24960,note_on,24,0,7,,,,,,,,2,,,69,105
24960,note_on,24,0,5,,,,,,,,4,,,57,105
24960,note_on,0,0,7,,,,,,,,2,,,64,105
24960,note_on,0,0,1,,,,,,,,0,,,73,105
24960,note_on,12,0,1,,,,,,,,0,,,69,105
24960,note_on,0,0,7,,,,,,,,2,,,61,105
24960,note_on,0,0,7,,,,,,,,2,,,57,105
25056,note_on,0,0,1,,,,,,,,0,,,69,0
25056,note_on,96,0,1,,,,,,,,0,,,73,0
25080,note_on,0,0,1,,,,,,,,0,,,69,105
25080,note_on,24,0,1,,,,,,,,0,,,73,105
25152,note_on,0,0,7,,,,,,,,2,,,61,0
25152,note_on,0,0,7,,,,,,,,2,,,64,0
25152,note_on,192,0,5,,,,,,,,4,,,57,0
25152,note_on,192,0,7,,,,,,,,2,,,57,0
25152,note_on,0,0,7,,,,,,,,2,,,69,0
25176,note_on,0,0,1,,,,,,,,0,,,73,0
25176,note_on,96,0,1,,,,,,,,0,,,69,0
25200,note_on,0,0,1,,,,,,,,0,,,73,105
25200,note_on,24,0,1,,,,,,,,0,,,69,105
25296,note_on,0,0,1,,,,,,,,0,,,69,0
25296,note_on,96,0,1,,,,,,,,0,,,73,0
25320,note_on,0,0,1,,,,,,,,0,,,69,105
25320,note_on,24,0,1,,,,,,,,0,,,73,105
25416,note_on,96,0,1,,,,,,,,0,,,69,0
25416,note_on,0,0,1,,,,,,,,0,,,73,0
25440,note_on,288,0,5,,,,,,,,4,,,50,105
25440,note_on,0,0,7,,,,,,,,2,,,50,105
25440,note_on,0,0,7,,,,,,,,2,,,65,105
25440,note_on,24,0,1,,,,,,,,0,,,77,105
25440,note_on,0,0,1,,,,,,,,0,,,86,105
25440,note_on,0,0,7,,,,,,,,2,,,62,105
25440,note_on,288,0,7,,,,,,,,2,,,69,105
25536,note_on,96,0,5,,,,,,,,4,,,50,0
25536,note_on,0,0,1,,,,,,,,0,,,77,0
25536,note_on,96,0,1,,,,,,,,0,,,86,0
25536,note_on,96,0,7,,,,,,,,2,,,50,0
25560,note_on,24,0,7,,,,,,,,2,,,52,105
25560,note_on,24,0,1,,,,,,,,0,,,86,105
25560,note_on,24,0,5,,,,,,,,4,,,52,105
25656,note_on,96,0,7,,,,,,,,2,,,52,0
25656,note_on,96,0,1,,,,,,,,0,,,86,0
25656,note_on,96,0,5,,,,,,,,4,,,52,0
25680,note_on,24,0,7,,,,,,,,2,,,53,105
25680,note_on,24,0,5,,,,,,,,4,,,53,105
25680,note_on,24,0,1,,,,,,,,0,,,86,105
25728,note_on,48,0,1,,,,,,,,0,,,86,0
25740,note_on,12,0,1,,,,,,,,0,,,84,105
25776,note_on,96,0,5,,,,,,,,4,,,53,0
25776,note_on,96,0,7,,,,,,,,2,,,53,0
25788,note_on,48,0,1,,,,,,,,0,,,84,0
25800,note_on,24,0,5,,,,,,,,4,,,50,105
25800,note_on,24,0,7,,,,,,,,2,,,50,105
25800,note_on,12,0,1,,,,,,,,0,,,82,105
25824,note_on,0,0,7,,,,,,,,2,,,62,0
25824,note_on,0,0,7,,,,,,,,2,,,65,0
25824,note_on,24,0,7,,,,,,,,2,,,69,0
25848,note_on,48,0,1,,,,,,,,0,,,82,0
25860,note_on,12,0,1,,,,,,,,0,,,81,105
25896,note_on,96,0,5,,,,,,,,4,,,50,0
25896,note_on,72,0,7,,,,,,,,2,,,50,0
25908,note_on,48,0,1,,,,,,,,0,,,81,0
25920,note_on,0,0,7,,,,,,,,2,,,55,105
25920,note_on,0,0,7,,,,,,,,2,,,62,105
25920,note_on,0,0,7,,,,,,,,2,,,67,105
25920,note_on,12,0,1,,,,,,,,0,,,79,105
25920,note_on,0,0,1,,,,,,,,0,,,82,105
25920,note_on,24,0,5,,,,,,,,4,,,55,105
25920,note_on,24,0,7,,,,,,,,2,,,70,105
26016,note_on,96,0,1,,,,,,,,0,,,82,0
26016,note_on,0,0,1,,,,,,,,0,,,79,0
26040,note_on,24,0,1,,,,,,,,0,,,79,105
26040,note_on,0,0,1,,,,,,,,0,,,82,105
26112,note_on,192,0,5,,,,,,,,4,,,55,0
26112,note_on,0,0,7,,,,,,,,2,,,62,0
26112,note_on,0,0,7,,,,,,,,2,,,67,0
26112,note_on,0,0,7,,,,,,,,2,,,70,0
26112,note_on,192,0,7,,,,,,,,2,,,55,0
26136,note_on,96,0,1,,,,,,,,0,,,82,0
26136,note_on,0,0,1,,,,,,,,0,,,79,0
26160,note_on,0,0,1,,,,,,,,0,,,82,105
26160,note_on,24,0,1,,,,,,,,0,,,79,105
26256,note_on,96,0,1,,,,,,,,0,,,82,0
26256,note_on,0,0,1,,,,,,,,0,,,79,0
26280,note_on,24,0,1,,,,,,,,0,,,79,105
26280,note_on,0,0,1,,,,,,,,0,,,82,105
26376,note_on,0,0,1,,,,,,,,0,,,79,0
26376,note_on,96,0,1,,,,,,,,0,,,82,0
26400,note_on,0,0,1,,,,,,,,0,,,84,105
26400,note_on,24,0,1,,,,,,,,0,,,76,105
26400,note_on,0,0,7,,,,,,,,2,,,72,105
26400,note_on,288,0,5,,,,,,,,4,,,48,105
26400,note_on,288,0,7,,,,,,,,2,,,67,105
26400,note_on,0,0,7,,,,,,,,2,,,48,105
26400,note_on,0,0,7,,,,,,,,2,,,64,105
26496,note_on,96,0,1,,,,,,,,0,,,84,0
26496,note_on,0,0,1,,,,,,,,0,,,76,0
26496,note_on,96,0,7,,,,,,,,2,,,48,0
26496,note_on,96,0,5,,,,,,,,4,,,48,0
26520,note_on,24,0,1,,,,,,,,0,,,84,105
26520,note_on,24,0,7,,,,,,,,2,,,50,105
26520,note_on,24,0,5,,,,,,,,4,,,50,105
26592,note_on,72,0,7,,,,,,,,2,,,64,0
26616,note_on,96,0,1,,,,,,,,0,,,84,0
26616,note_on,24,0,7,,,,,,,,2,,,50,0
26616,note_on,96,0,5,,,,,,,,4,,,50,0
26640,note_on,24,0,1,,,,,,,,0,,,84,105
26640,note_on,0,0,7,,,,,,,,2,,,60,105
26640,note_on,24,0,7,,,,,,,,2,,,52,105
26640,note_on,24,0,5,,,,,,,,4,,,52,105
26688,note_on,48,0,1,,,,,,,,0,,,84,0
26700,note_on,12,0,1,,,,,,,,0,,,82,105
26736,note_on,96,0,5,,,,,,,,4,,,52,0
26736,note_on,96,0,7,,,,,,,,2,,,52,0
26748,note_on,48,0,1,,,,,,,,0,,,82,0
26760,note_on,24,0,5,,,,,,,,4,,,48,105
26760,note_on,24,0,7,,,,,,,,2,,,48,105
26760,note_on,12,0,1,,,,,,,,0,,,81,105
26784,note_on,0,0,7,,,,,,,,2,,,72,0
26784,note_on,24,0,7,,,,,,,,2,,,67,0
26808,note_on,48,0,1,,,,,,,,0,,,81,0
26820,note_on,12,0,1,,,,,,,,0,,,79,105
26832,note_on,48,0,7,,,,,,,,2,,,60,0
26856,note_on,96,0,5,,,,,,,,4,,,48,0
26856,note_on,24,0,7,,,,,,,,2,,,48,0
26868,note_on,48,0,1,,,,,,,,0,,,79,0
26880,note_on,0,0,7,,,,,,,,2,,,65,105
26880,note_on,0,0,7,,,,,,,,2,,,60,105
26880,note_on,0,0,7,,,,,,,,2,,,53,105
26880,note_on,12,0,1,,,,,,,,0,,,77,105
26880,note_on,0,0,1,,,,,,,,0,,,81,105
26880,note_on,24,0,7,,,,,,,,2,,,69,105
26880,note_on,24,0,5,,,,,,,,4,,,53,105
26976,note_on,0,0,1,,,,,,,,0,,,77,0
26976,note_on,96,0,1,,,,,,,,0,,,81,0
27000,note_on,24,0,1,,,,,,,,0,,,81,105
27000,note_on,0,0,1,,,,,,,,0,,,77,105
27072,note_on,0,0,7,,,,,,,,2,,,60,0
27072,note_on,0,0,7,,,,,,,,2,,,65,0
27072,note_on,192,0,5,,,,,,,,4,,,53,0
27072,note_on,0,0,7,,,,,,,,2,,,69,0
27072,note_on,192,0,7,,,,,,,,2,,,53,0
27096,note_on,96,0,1,,,,,,,,0,,,77,0
27096,note_on,0,0,1,,,,,,,,0,,,81,0
27120,note_on,0,0,1,,,,,,,,0,,,81,105
27120,note_on,24,0,1,,,,,,,,0,,,77,105
27216,note_on,0,0,1,,,,,,,,0,,,77,0
27216,note_on,96,0,1,,,,,,,,0,,,81,0
27240,note_on,0,0,1,,,,,,,,0,,,77,105
27240,note_on,24,0,1,,,,,,,,0,,,81,105
27336,note_on,0,0,1,,,,,,,,0,,,81,0
27336,note_on,96,0,1,,,,,,,,0,,,77,0
27360,note_on,288,0,5,,,,,,,,4,,,62,105
27360,note_on,0,0,7,,,,,,,,2,,,62,105
27360,note_on,288,0,7,,,,,,,,2,,,65,105
27360,note_on,0,0,7,,,,,,,,2,,,69,105
27360,note_on,24,0,1,,,,,,,,0,,,83,105
27360,note_on,0,0,1,,,,,,,,0,,,74,105
27360,note_on,0,0,7,,,,,,,,2,,,71,105
27456,note_on,96,0,5,,,,,,,,4,,,62,0
27456,note_on,96,0,1,,,,,,,,0,,,74,0
27456,note_on,0,0,1,,,,,,,,0,,,83,0
27456,note_on,96,0,7,,,,,,,,2,,,62,0
27480,note_on,24,0,5,,,,,,,,4,,,60,105
27480,note_on,24,0,7,,,,,,,,2,,,60,105
27480,note_on,24,0,1,,,,,,,,0,,,83,105
27552,note_on,72,0,7,,,,,,,,2,,,65,0
27552,note_on,0,0,7,,,,,,,,2,,,69,0
27552,note_on,0,0,7,,,,,,,,2,,,71,0
27576,note_on,24,0,7,,,,,,,,2,,,60,0
27576,note_on,96,0,1,,,,,,,,0,,,83,0
27576,note_on,96,0,5,,,,,,,,4,,,60,0
27600,note_on,0,0,7,,,,,,,,2,,,65,105
27600,note_on,0,0,7,,,,,,,,2,,,69,105
27600,note_on,24,0,7,,,,,,,,2,,,71,105
27600,note_on,0,0,7,,,,,,,,2,,,62,105
27600,note_on,24,0,5,,,,,,,,4,,,62,105
27600,note_on,24,0,1,,,,,,,,0,,,83,105
27648,note_on,48,0,1,,,,,,,,0,,,83,0
27660,note_on,12,0,1,,,,,,,,0,,,81,105
27696,note_on,96,0,5,,,,,,,,4,,,62,0
27696,note_on,96,0,7,,,,,,,,2,,,62,0
27708,note_on,48,0,1,,,,,,,,0,,,81,0
27720,note_on,12,0,1,,,,,,,,0,,,80,105
27720,note_on,24,0,5,,,,,,,,4,,,50,105
27720,note_on,24,0,7,,,,,,,,2,,,50,105
27768,note_on,48,0,1,,,,,,,,0,,,80,0
27780,note_on,12,0,1,,,,,,,,0,,,78,105
27792,note_on,0,0,7,,,,,,,,2,,,65,0
27792,note_on,0,0,7,,,,,,,,2,,,69,0
27792,note_on,72,0,7,,,,,,,,2,,,71,0
27816,note_on,24,0,7,,,,,,,,2,,,50,0
27816,note_on,96,0,5,,,,,,,,4,,,50,0
27828,note_on,48,0,1,,,,,,,,0,,,78,0
27840,note_on,0,0,7,,,,,,,,2,,,64,105
27840,note_on,0,0,7,,,,,,,,2,,,68,105
27840,note_on,24,0,5,,,,,,,,4,,,64,105
27840,note_on,12,0,1,,,,,,,,0,,,80,105
27840,note_on,0,0,1,,,,,,,,0,,,76,105
27840,note_on,24,0,7,,,,,,,,2,,,71,105
27936,note_on,0,0,1,,,,,,,,0,,,80,0
27936,note_on,96,0,1,,,,,,,,0,,,76,0
27936,note_on,96,0,7,,,,,,,,2,,,64,0
27936,note_on,96,0,5,,,,,,,,4,,,64,0
27960,note_on,24,0,5,,,,,,,,4,,,62,105
27960,note_on,24,0,7,,,,,,,,2,,,62,105
27960,note_on,0,0,1,,,,,,,,0,,,76,105
27960,note_on,24,0,1,,,,,,,,0,,,80,105
28056,note_on,96,0,7,,,,,,,,2,,,62,0
28056,note_on,96,0,5,,,,,,,,4,,,62,0
28056,note_on,0,0,1,,,,,,,,0,,,80,0
28056,note_on,96,0,1,,,,,,,,0,,,76,0
28080,note_on,24,0,7,,,,,,,,2,,,64,105
28080,note_on,24,0,5,,,,,,,,4,,,64,105
28080,note_on,0,0,1,,,,,,,,0,,,76,105
28080,note_on,24,0,1,,,,,,,,0,,,80,105
28128,note_on,48,0,1,,,,,,,,0,,,76,0
28128,note_on,0,0,1,,,,,,,,0,,,80,0
28140,note_on,12,0,1,,,,,,,,0,,,74,105
28176,note_on,96,0,7,,,,,,,,2,,,64,0
28176,note_on,96,0,5,,,,,,,,4,,,64,0
28188,note_on,48,0,1,,,,,,,,0,,,74,0
28200,note_on,24,0,5,,,,,,,,4,,,52,105
28200,note_on,24,0,7,,,,,,,,2,,,52,105
28200,note_on,12,0,1,,,,,,,,0,,,72,105
28224,note_on,24,0,7,,,,,,,,2,,,68,0
28224,note_on,0,0,7,,,,,,,,2,,,71,0
28248,note_on,48,0,1,,,,,,,,0,,,72,0
28260,note_on,12,0,1,,,,,,,,0,,,71,105
28296,note_on,72,0,7,,,,,,,,2,,,52,0
28296,note_on,96,0,5,,,,,,,,4,,,52,0
28308,note_on,48,0,1,,,,,,,,0,,,71,0
28320,note_on,24,0,7,,,,,,,,2,,,72,105
28320,note_on,12,0,1,,,,,,,,0,,,72,105
28320,note_on,24,0,5,,,,,,,,4,,,57,105
28320,note_on,0,0,7,,,,,,,,2,,,69,105
28320,note_on,0,0,7,,,,,,,,2,,,57,105
28320,note_on,0,0,7,,,,,,,,2,,,64,105
28320,note_on,0,0,1,,,,,,,,0,,,69,105
28416,note_on,0,0,1,,,,,,,,0,,,72,0
28416,note_on,96,0,1,,,,,,,,0,,,69,0
28416,note_on,96,0,5,,,,,,,,4,,,57,0
28416,note_on,96,0,7,,,,,,,,2,,,57,0
28440,note_on,24,0,1,,,,,,,,0,,,69,105
28440,note_on,24,0,7,,,,,,,,2,,,56,105
28440,note_on,24,0,5,,,,,,,,4,,,56,105
28440,note_on,0,0,1,,,,,,,,0,,,72,105
28536,note_on,96,0,1,,,,,,,,0,,,72,0
28536,note_on,96,0,5,,,,,,,,4,,,56,0
28536,note_on,0,0,1,,,,,,,,0,,,69,0
28536,note_on,96,0,7,,,,,,,,2,,,56,0
28560,note_on,24,0,7,,,,,,,,2,,,57,105
28560,note_on,24,0,5,,,,,,,,4,,,57,105
28560,note_on,0,0,1,,,,,,,,0,,,72,105
28560,note_on,24,0,1,,,,,,,,0,,,69,105
28608,note_on,0,0,1,,,,,,,,0,,,69,0
28608,note_on,48,0,1,,,,,,,,0,,,72,0
28620,note_on,12,0,1,,,,,,,,0,,,67,105
28656,note_on,96,0,7,,,,,,,,2,,,57,0
28656,note_on,96,0,5,,,,,,,,4,,,57,0
28668,note_on,48,0,1,,,,,,,,0,,,67,0
28680,note_on,12,0,1,,,,,,,,0,,,65,105
28680,note_on,24,0,7,,,,,,,,2,,,45,105
28680,note_on,24,0,5,,,,,,,,4,,,45,105
28704,note_on,0,0,7,,,,,,,,2,,,64,0
28704,note_on,24,0,7,,,,,,,,2,,,72,0
28704,note_on,0,0,7,,,,,,,,2,,,69,0
28728,note_on,48,0,1,,,,,,,,0,,,65,0
28740,note_on,12,0,1,,,,,,,,0,,,64,105
28776,note_on,96,0,5,,,,,,,,4,,,45,0
28776,note_on,72,0,7,,,,,,,,2,,,45,0
28788,note_on,48,0,1,,,,,,,,0,,,64,0
28800,note_on,0,0,7,,,,,,,,2,,,62,105
28800,note_on,24,0,5,,,,,,,,4,,,62,105
28800,note_on,24,0,7,,,,,,,,2,,,74,105
28800,note_on,0,0,7,,,,,,,,2,,,69,105
28800,note_on,0,0,7,,,,,,,,2,,,65,105
28800,note_on,12,0,1,,,,,,,,0,,,65,105
28800,note_on,0,0,1,,,,,,,,0,,,62,105
28896,note_on,96,0,1,,,,,,,,0,,,62,0
28896,note_on,0,0,1,,,,,,,,0,,,65,0
28896,note_on,96,0,5,,,,,,,,4,,,62,0
28896,note_on,96,0,7,,,,,,,,2,,,62,0
28920,note_on,0,0,1,,,,,,,,0,,,62,105
28920,note_on,24,0,5,,,,,,,,4,,,60,105
28920,note_on,24,0,7,,,,,,,,2,,,60,105
28920,note_on,24,0,1,,,,,,,,0,,,65,105
29016,note_on,0,0,1,,,,,,,,0,,,65,0
29016,note_on,96,0,1,,,,,,,,0,,,62,0
29016,note_on,96,0,5,,,,,,,,4,,,60,0
29016,note_on,96,0,7,,,,,,,,2,,,60,0
29040,note_on,24,0,1,,,,,,,,0,,,65,105
29040,note_on,24,0,5,,,,,,,,4,,,62,105
29040,note_on,24,0,7,,,,,,,,2,,,62,105
29040,note_on,0,0,1,,,,,,,,0,,,62,105
29088,note_on,0,0,1,,,,,,,,0,,,65,0
29088,note_on,48,0,1,,,,,,,,0,,,62,0
29100,note_on,12,0,1,,,,,,,,0,,,60,105
29136,note_on,96,0,7,,,,,,,,2,,,62,0
29136,note_on,96,0,5,,,,,,,,4,,,62,0
29148,note_on,48,0,1,,,,,,,,0,,,60,0
29160,note_on,12,0,1,,,,,,,,0,,,59,105
29160,note_on,24,0,7,,,,,,,,2,,,50,105
29160,note_on,24,0,5,,,,,,,,4,,,50,105
29184,note_on,0,0,7,,,,,,,,2,,,69,0
29184,note_on,0,0,7,,,,,,,,2,,,65,0
29184,note_on,24,0,7,,,,,,,,2,,,74,0
29208,note_on,48,0,1,,,,,,,,0,,,59,0
29220,note_on,12,0,1,,,,,,,,0,,,57,105
29256,note_on,96,0,5,,,,,,,,4,,,50,0
29256,note_on,72,0,7,,,,,,,,2,,,50,0
29268,note_on,48,0,1,,,,,,,,0,,,57,0
29280,note_on,12,0,1,,,,,,,,0,,,64,105
29280,note_on,24,0,5,,,,,,,,4,,,56,105
29280,note_on,24,0,7,,,,,,,,2,,,56,105
29280,note_on,0,0,7,,,,,,,,2,,,64,105
29280,note_on,0,0,7,,,,,,,,2,,,71,105
29376,note_on,96,0,5,,,,,,,,4,,,56,0
29376,note_on,96,0,7,,,,,,,,2,,,56,0
29400,note_on,24,0,7,,,,,,,,2,,,54,105
29400,note_on,24,0,5,,,,,,,,4,,,54,105
29472,note_on,192,0,1,,,,,,,,0,,,64,0
29496,note_on,96,0,5,,,,,,,,4,,,54,0
29496,note_on,96,0,7,,,,,,,,2,,,54,0
29520,note_on,24,0,5,,,,,,,,4,,,56,105
29520,note_on,24,0,7,,,,,,,,2,,,56,105
29616,note_on,96,0,5,,,,,,,,4,,,56,0
29616,note_on,96,0,7,,,,,,,,2,,,56,0
29640,note_on,24,0,5,,,,,,,,4,,,52,105
29640,note_on,24,0,7,,,,,,,,2,,,52,105
29640,note_on,168,0,1,,,,,,,,0,,,71,105
29664,note_on,24,0,7,,,,,,,,2,,,71,0
29664,note_on,0,0,7,,,,,,,,2,,,64,0
29736,note_on,96,0,5,,,,,,,,4,,,52,0
29736,note_on,72,0,7,,,,,,,,2,,,52,0
29736,note_on,96,0,1,,,,,,,,0,,,71,0
29760,note_on,24,0,5,,,,,,,,4,,,57,105
29760,note_on,24,0,1,,,,,,,,0,,,72,105
29760,note_on,24,0,7,,,,,,,,2,,,72,105
29760,note_on,0,0,7,,,,,,,,2,,,57,105
29760,note_on,0,0,7,,,,,,,,2,,,64,105
29792,note_on,32,0,1,,,,,,,,0,,,72,0
29800,note_on,8,0,1,,,,,,,,0,,,71,105
29832,note_on,32,0,1,,,,,,,,0,,,71,0
29840,note_on,8,0,1,,,,,,,,0,,,69,105
29856,note_on,96,0,7,,,,,,,,2,,,64,0
29856,note_on,96,0,5,,,,,,,,4,,,57,0
29856,note_on,0,0,7,,,,,,,,2,,,72,0
29856,note_on,0,0,7,,,,,,,,2,,,57,0
29872,note_on,32,0,1,,,,,,,,0,,,69,0
29880,note_on,8,0,1,,,,,,,,0,,,74,105
29880,note_on,0,0,7,,,,,,,,2,,,59,105
29880,note_on,24,0,7,,,,,,,,2,,,62,105
29880,note_on,24,0,5,,,,,,,,4,,,59,105
29912,note_on,32,0,1,,,,,,,,0,,,74,0
29920,note_on,8,0,1,,,,,,,,0,,,72,105
29952,note_on,32,0,1,,,,,,,,0,,,72,0
29960,note_on,8,0,1,,,,,,,,0,,,71,105
29976,note_on,96,0,5,,,,,,,,4,,,59,0
29976,note_on,96,0,7,,,,,,,,2,,,59,0
29976,note_on,0,0,7,,,,,,,,2,,,62,0
29992,note_on,32,0,1,,,,,,,,0,,,71,0
30000,note_on,0,0,7,,,,,,,,2,,,56,105
30000,note_on,8,0,1,,,,,,,,0,,,76,105
30000,note_on,24,0,5,,,,,,,,4,,,56,105
30000,note_on,24,0,7,,,,,,,,2,,,64,105
30000,note_on,0,0,7,,,,,,,,2,,,71,105
30096,note_on,96,0,7,,,,,,,,2,,,56,0
30096,note_on,0,0,7,,,,,,,,2,,,71,0
30096,note_on,96,0,5,,,,,,,,4,,,56,0
30096,note_on,96,0,1,,,,,,,,0,,,76,0
30120,note_on,24,0,5,,,,,,,,4,,,52,105
30120,note_on,24,0,7,,,,,,,,2,,,52,105
30120,note_on,24,0,1,,,,,,,,0,,,83,105
30216,note_on,96,0,5,,,,,,,,4,,,52,0
30216,note_on,96,0,7,,,,,,,,2,,,52,0
30216,note_on,96,0,1,,,,,,,,0,,,83,0
30240,note_on,24,0,7,,,,,,,,2,,,72,105
30240,note_on,0,0,7,,,,,,,,2,,,57,105
30240,note_on,24,0,1,,,,,,,,0,,,84,105
30240,note_on,24,0,5,,,,,,,,4,,,57,105
30272,note_on,32,0,1,,,,,,,,0,,,84,0
30280,note_on,8,0,1,,,,,,,,0,,,83,105
30312,note_on,32,0,1,,,,,,,,0,,,83,0
30320,note_on,8,0,1,,,,,,,,0,,,81,105
30336,note_on,96,0,5,,,,,,,,4,,,57,0
30336,note_on,0,0,7,,,,,,,,2,,,64,0
30336,note_on,0,0,7,,,,,,,,2,,,72,0
30336,note_on,96,0,7,,,,,,,,2,,,57,0
30352,note_on,32,0,1,,,,,,,,0,,,81,0
30360,note_on,8,0,1,,,,,,,,0,,,86,105
30360,note_on,0,0,7,,,,,,,,2,,,59,105
30360,note_on,24,0,7,,,,,,,,2,,,62,105
30360,note_on,24,0,5,,,,,,,,4,,,59,105
30392,note_on,32,0,1,,,,,,,,0,,,86,0
30400,note_on,8,0,1,,,,,,,,0,,,84,105
30432,note_on,32,0,1,,,,,,,,0,,,84,0
30440,note_on,8,0,1,,,,,,,,0,,,83,105
30456,note_on,96,0,5,,,,,,,,4,,,59,0
30456,note_on,96,0,7,,,,,,,,2,,,59,0
30456,note_on,0,0,7,,,,,,,,2,,,62,0
30472,note_on,32,0,1,,,,,,,,0,,,83,0
30480,note_on,24,0,5,,,,,,,,4,,,60,105
30480,note_on,24,0,7,,,,,,,,2,,,64,105
30480,note_on,0,0,7,,,,,,,,2,,,60,105
30480,note_on,0,0,7,,,,,,,,2,,,69,105
30480,note_on,8,0,1,,,,,,,,0,,,88,105
30576,note_on,96,0,7,,,,,,,,2,,,69,0
30576,note_on,0,0,7,,,,,,,,2,,,60,0
30576,note_on,0,0,7,,,,,,,,2,,,64,0
30576,note_on,96,0,5,,,,,,,,4,,,60,0
30576,note_on,96,0,1,,,,,,,,0,,,88,0
30600,note_on,24,0,1,,,,,,,,0,,,81,105
30600,note_on,24,0,7,,,,,,,,2,,,57,105
30600,note_on,24,0,5,,,,,,,,4,,,57,105
30696,note_on,96,0,7,,,,,,,,2,,,57,0
30696,note_on,96,0,5,,,,,,,,4,,,57,0
30696,note_on,96,0,1,,,,,,,,0,,,81,0
30720,note_on,0,0,7,,,,,,,,2,,,52,105
30720,note_on,0,0,7,,,,,,,,2,,,68,105
30720,note_on,24,0,7,,,,,,,,2,,,71,105
30720,note_on,24,0,5,,,,,,,,4,,,52,105
30720,note_on,24,0,1,,,,,,,,0,,,80,105
30752,note_on,32,0,1,,,,,,,,0,,,80,0
30760,note_on,8,0,1,,,,,,,,0,,,78,105
30792,note_on,32,0,1,,,,,,,,0,,,78,0
30800,note_on,8,0,1,,,,,,,,0,,,76,105
30816,note_on,0,0,7,,,,,,,,2,,,68,0
30816,note_on,96,0,5,,,,,,,,4,,,52,0
30816,note_on,96,0,7,,,,,,,,2,,,52,0
30832,note_on,32,0,1,,,,,,,,0,,,76,0
30840,note_on,24,0,7,,,,,,,,2,,,56,105
30840,note_on,0,0,7,,,,,,,,2,,,64,105
30840,note_on,8,0,1,,,,,,,,0,,,74,105
30840,note_on,24,0,5,,,,,,,,4,,,56,105
30872,note_on,32,0,1,,,,,,,,0,,,74,0
30880,note_on,8,0,1,,,,,,,,0,,,72,105
30912,note_on,72,0,7,,,,,,,,2,,,71,0
30912,note_on,32,0,1,,,,,,,,0,,,72,0
30920,note_on,8,0,1,,,,,,,,0,,,71,105
30936,note_on,96,0,5,,,,,,,,4,,,56,0
30936,note_on,24,0,7,,,,,,,,2,,,56,0
30952,note_on,32,0,1,,,,,,,,0,,,71,0
30960,note_on,8,0,1,,,,,,,,0,,,72,105
30960,note_on,24,0,5,,,,,,,,4,,,57,105
30960,note_on,24,0,7,,,,,,,,2,,,57,105
30960,note_on,0,0,7,,,,,,,,2,,,72,105
31056,note_on,96,0,5,,,,,,,,4,,,57,0
31056,note_on,96,0,7,,,,,,,,2,,,57,0
31056,note_on,96,0,1,,,,,,,,0,,,72,0
31080,note_on,24,0,7,,,,,,,,2,,,45,105
31080,note_on,24,0,5,,,,,,,,4,,,45,105
31080,note_on,24,0,1,,,,,,,,0,,,69,105
31128,note_on,48,0,7,,,,,,,,2,,,64,0
31152,note_on,24,0,7,,,,,,,,2,,,72,0
31176,note_on,96,0,5,,,,,,,,4,,,45,0
31176,note_on,96,0,1,,,,,,,,0,,,69,0
31176,note_on,24,0,7,,,,,,,,2,,,45,0
31200,note_on,24,0,7,,,,,,,,2,,,71,105
31200,note_on,24,0,5,,,,,,,,4,,,52,105
31200,note_on,0,0,7,,,,,,,,2,,,68,105
31200,note_on,0,0,7,,,,,,,,2,,,52,105
31200,note_on,24,0,1,,,,,,,,0,,,68,105
31232,note_on,32,0,1,,,,,,,,0,,,68,0
31240,note_on,8,0,1,,,,,,,,0,,,66,105
31272,note_on,32,0,1,,,,,,,,0,,,66,0
31280,note_on,8,0,1,,,,,,,,0,,,64,105
31296,note_on,0,0,7,,,,,,,,2,,,68,0
31296,note_on,96,0,5,,,,,,,,4,,,52,0
31296,note_on,96,0,7,,,,,,,,2,,,52,0
31312,note_on,32,0,1,,,,,,,,0,,,64,0
31320,note_on,24,0,5,,,,,,,,4,,,56,105
31320,note_on,8,0,1,,,,,,,,0,,,62,105
31320,note_on,0,0,7,,,,,,,,2,,,56,105
31320,note_on,24,0,7,,,,,,,,2,,,64,105
31352,note_on,32,0,1,,,,,,,,0,,,62,0
31360,note_on,8,0,1,,,,,,,,0,,,60,105
31392,note_on,32,0,1,,,,,,,,0,,,60,0
31392,note_on,72,0,7,,,,,,,,2,,,71,0
31400,note_on,8,0,1,,,,,,,,0,,,59,105
31416,note_on,24,0,7,,,,,,,,2,,,56,0
31416,note_on,96,0,5,,,,,,,,4,,,56,0
31432,note_on,32,0,1,,,,,,,,0,,,59,0
31440,note_on,8,0,1,,,,,,,,0,,,60,105
31440,note_on,24,0,5,,,,,,,,4,,,57,105
31440,note_on,0,0,7,,,,,,,,2,,,72,105
31440,note_on,24,0,7,,,,,,,,2,,,57,105
31536,note_on,0,0,7,,,,,,,,2,,,57,0
31536,note_on,96,0,7,,,,,,,,2,,,72,0
31536,note_on,96,0,1,,,,,,,,0,,,60,0
31536,note_on,96,0,5,,,,,,,,4,,,57,0
31560,note_on,24,0,7,,,,,,,,2,,,71,105
31560,note_on,24,0,1,,,,,,,,0,,,71,105
31560,note_on,0,0,7,,,,,,,,2,,,52,105
31560,note_on,24,0,5,,,,,,,,4,,,52,105
31608,note_on,48,0,7,,,,,,,,2,,,64,0
31656,note_on,96,0,5,,,,,,,,4,,,52,0
31656,note_on,48,0,7,,,,,,,,2,,,52,0
31656,note_on,0,0,7,,,,,,,,2,,,71,0
31656,note_on,96,0,1,,,,,,,,0,,,71,0
31680,note_on,0,0,7,,,,,,,,2,,,60,105
31680,note_on,24,0,7,,,,,,,,2,,,69,105
31680,note_on,24,0,1,,,,,,,,0,,,72,105
31680,note_on,24,0,5,,,,,,,,4,,,57,105
31680,note_on,0,0,7,,,,,,,,2,,,57,105
31712,note_on,32,0,1,,,,,,,,0,,,72,0
31720,note_on,8,0,1,,,,,,,,0,,,71,105
31752,note_on,32,0,1,,,,,,,,0,,,71,0
31760,note_on,8,0,1,,,,,,,,0,,,69,105
31776,note_on,0,0,7,,,,,,,,2,,,60,0
31776,note_on,96,0,7,,,,,,,,2,,,57,0
31776,note_on,96,0,5,,,,,,,,4,,,57,0
31792,note_on,32,0,1,,,,,,,,0,,,69,0
31800,note_on,0,0,7,,,,,,,,2,,,59,105
31800,note_on,24,0,7,,,,,,,,2,,,62,105
31800,note_on,24,0,5,,,,,,,,4,,,59,105
31800,note_on,8,0,1,,,,,,,,0,,,74,105
31832,note_on,32,0,1,,,,,,,,0,,,74,0
31840,note_on,8,0,1,,,,,,,,0,,,72,105
31872,note_on,72,0,7,,,,,,,,2,,,69,0
31872,note_on,32,0,1,,,,,,,,0,,,72,0
31880,note_on,8,0,1,,,,,,,,0,,,71,105
31896,note_on,96,0,5,,,,,,,,4,,,59,0
31896,note_on,0,0,7,,,,,,,,2,,,62,0
31896,note_on,24,0,7,,,,,,,,2,,,59,0
31912,note_on,32,0,1,,,,,,,,0,,,71,0
31920,note_on,24,0,7,,,,,,,,2,,,68,105
31920,note_on,8,0,1,,,,,,,,0,,,80,105
31920,note_on,0,0,7,,,,,,,,2,,,64,105
31920,note_on,24,0,5,,,,,,,,4,,,52,105
31920,note_on,0,0,7,,,,,,,,2,,,52,105
32016,note_on,96,0,5,,,,,,,,4,,,52,0
32016,note_on,96,0,7,,,,,,,,2,,,52,0
32016,note_on,0,0,7,,,,,,,,2,,,64,0
32016,note_on,0,0,7,,,,,,,,2,,,68,0
32016,note_on,96,0,1,,,,,,,,0,,,80,0
32040,note_on,0,0,7,,,,,,,,2,,,69,105
32040,note_on,24,0,7,,,,,,,,2,,,69,105
32040,note_on,0,0,7,,,,,,,,2,,,53,105
32040,note_on,24,0,1,,,,,,,,0,,,81,105
32040,note_on,24,0,5,,,,,,,,4,,,53,105
32136,note_on,0,0,7,,,,,,,,2,,,69,0
32136,note_on,96,0,1,,,,,,,,0,,,81,0
32136,note_on,96,0,5,,,,,,,,4,,,53,0
32136,note_on,0,0,7,,,,,,,,2,,,69,0
32136,note_on,96,0,7,,,,,,,,2,,,53,0
32160,note_on,24,0,1,,,,,,,,0,,,74,105
32160,note_on,24,0,7,,,,,,,,2,,,71,105
32160,note_on,0,0,7,,,,,,,,2,,,44,105
32160,note_on,0,0,7,,,,,,,,2,,,64,105
32160,note_on,24,0,5,,,,,,,,4,,,44,105
32256,note_on,96,0,5,,,,,,,,4,,,44,0
32256,note_on,0,0,7,,,,,,,,2,,,71,0
32256,note_on,96,0,7,,,,,,,,2,,,64,0
32256,note_on,0,0,7,,,,,,,,2,,,44,0
32280,note_on,0,0,7,,,,,,,,2,,,74,105
32280,note_on,24,0,7,,,,,,,,2,,,62,105
32280,note_on,0,0,7,,,,,,,,2,,,59,105
32280,note_on,24,0,5,,,,,,,,4,,,59,105
32376,note_on,96,0,7,,,,,,,,2,,,74,0
32376,note_on,0,0,7,,,,,,,,2,,,59,0
32376,note_on,0,0,7,,,,,,,,2,,,62,0
32376,note_on,96,0,5,,,,,,,,4,,,59,0
32400,note_on,24,0,7,,,,,,,,2,,,74,105
32400,note_on,24,0,5,,,,,,,,4,,,56,105
32400,note_on,0,0,7,,,,,,,,2,,,64,105
32400,note_on,0,0,7,,,,,,,,2,,,56,105
32448,note_on,288,0,1,,,,,,,,0,,,74,0
32496,note_on,96,0,7,,,,,,,,2,,,56,0
32496,note_on,96,0,5,,,,,,,,4,,,56,0
32496,note_on,0,0,7,,,,,,,,2,,,74,0
32520,note_on,72,0,1,,,,,,,,0,,,83,105
32520,note_on,0,0,7,,,,,,,,2,,,52,105
32520,note_on,24,0,5,,,,,,,,4,,,52,105
32520,note_on,24,0,7,,,,,,,,2,,,71,105
32592,note_on,72,0,7,,,,,,,,2,,,64,0
32616,note_on,24,0,7,,,,,,,,2,,,52,0
32616,note_on,0,0,7,,,,,,,,2,,,71,0
32616,note_on,96,0,5,,,,,,,,4,,,52,0
32616,note_on,96,0,1,,,,,,,,0,,,83,0
32640,note_on,24,0,1,,,,,,,,0,,,72,105
32640,note_on,24,0,5,,,,,,,,4,,,57,105
32640,note_on,24,0,7,,,,,,,,2,,,72,105
32640,note_on,0,0,7,,,,,,,,2,,,57,105
32640,note_on,0,0,7,,,,,,,,2,,,64,105
32672,note_on,32,0,1,,,,,,,,0,,,72,0
32680,note_on,8,0,1,,,,,,,,0,,,71,105
32712,note_on,32,0,1,,,,,,,,0,,,71,0
32720,note_on,8,0,1,,,,,,,,0,,,69,105
32736,note_on,96,0,5,,,,,,,,4,,,57,0
32736,note_on,96,0,7,,,,,,,,2,,,64,0
32736,note_on,0,0,7,,,,,,,,2,,,57,0
32736,note_on,0,0,7,,,,,,,,2,,,72,0
32752,note_on,32,0,1,,,,,,,,0,,,69,0
32760,note_on,8,0,1,,,,,,,,0,,,72,105
32760,note_on,24,0,5,,,,,,,,4,,,45,105
32760,note_on,24,0,7,,,,,,,,2,,,69,105
32760,note_on,0,0,7,,,,,,,,2,,,45,105
32760,note_on,0,0,7,,,,,,,,2,,,62,105
32792,note_on,32,0,1,,,,,,,,0,,,72,0
32800,note_on,8,0,1,,,,,,,,0,,,71,105
32832,note_on,32,0,1,,,,,,,,0,,,71,0
32840,note_on,8,0,1,,,,,,,,0,,,69,105
32856,note_on,0,0,7,,,,,,,,2,,,45,0
32856,note_on,0,0,7,,,,,,,,2,,,69,0
32856,note_on,96,0,5,,,,,,,,4,,,45,0
32856,note_on,96,0,7,,,,,,,,2,,,62,0
32872,note_on,32,0,1,,,,,,,,0,,,69,0
32880,note_on,24,0,7,,,,,,,,2,,,68,105
32880,note_on,0,0,7,,,,,,,,2,,,52,105
32880,note_on,24,0,5,,,,,,,,4,,,52,105
32880,note_on,0,0,7,,,,,,,,2,,,59,105
32880,note_on,8,0,1,,,,,,,,0,,,71,105
32904,note_on,24,0,1,,,,,,,,0,,,71,0
32910,note_on,6,0,1,,,,,,,,0,,,72,105
32934,note_on,24,0,1,,,,,,,,0,,,72,0
32940,note_on,6,0,1,,,,,,,,0,,,71,105
32964,note_on,24,0,1,,,,,,,,0,,,71,0
32970,note_on,6,0,1,,,,,,,,0,,,72,105
32976,note_on,96,0,5,,,,,,,,4,,,52,0
32976,note_on,96,0,7,,,,,,,,2,,,52,0
32994,note_on,24,0,1,,,,,,,,0,,,72,0
33000,note_on,24,0,5,,,,,,,,4,,,40,105
33000,note_on,6,0,1,,,,,,,,0,,,71,105
33000,note_on,24,0,7,,,,,,,,2,,,40,105
33024,note_on,24,0,1,,,,,,,,0,,,71,0
33030,note_on,6,0,1,,,,,,,,0,,,72,105
33054,note_on,24,0,1,,,,,,,,0,,,72,0
33060,note_on,6,0,1,,,,,,,,0,,,69,105
33072,note_on,0,0,7,,,,,,,,2,,,68,0
33072,note_on,72,0,7,,,,,,,,2,,,59,0
33096,note_on,96,0,5,,,,,,,,4,,,40,0
33096,note_on,24,0,7,,,,,,,,2,,,40,0
33108,note_on,48,0,1,,,,,,,,0,,,69,0
33120,note_on,0,0,7,,,,,,,,2,,,64,105
33120,note_on,24,0,5,,,,,,,,4,,,45,105
33120,note_on,12,0,1,,,,,,,,0,,,69,105
33120,note_on,0,0,7,,,,,,,,2,,,69,105
33120,note_on,24,0,7,,,,,,,,2,,,60,105
33120,note_on,27864,0,6,,,,,,,,5,,,33,105
33120,note_on,0,0,7,,,,,,,,2,,,45,105
33120,note_on,12288,0,4,,,,,,,,3,,,64,58
33216,note_on,96,0,1,,,,,,,,0,,,69,0
33240,note_on,12408,0,3,,,,,,,,0,,,81,58
33240,note_on,24,0,1,,,,,,,,0,,,81,105
33240,note_on,12408,0,2,,,,,,,,1,,,81,58
33312,note_on,192,0,7,,,,,,,,2,,,60,0
33336,note_on,96,0,2,,,,,,,,1,,,81,0
33336,note_on,96,0,3,,,,,,,,0,,,81,0
33336,note_on,96,0,1,,,,,,,,0,,,81,0
33360,note_on,24,0,1,,,,,,,,0,,,81,105
33360,note_on,48,0,7,,,,,,,,2,,,64,105
33360,note_on,24,0,2,,,,,,,,1,,,81,105
33360,note_on,24,0,3,,,,,,,,0,,,81,105
33408,note_on,48,0,7,,,,,,,,2,,,45,0
33408,note_on,288,0,4,,,,,,,,3,,,64,0
33408,note_on,288,0,6,,,,,,,,5,,,33,0
33408,note_on,288,0,5,,,,,,,,4,,,45,0
33480,note_on,72,0,4,,,,,,,,3,,,64,105
33480,note_on,72,0,7,,,,,,,,2,,,48,105
33480,note_on,72,0,6,,,,,,,,5,,,36,105
33480,note_on,72,0,5,,,,,,,,4,,,48,105
33504,note_on,24,0,7,,,,,,,,2,,,69,0
33504,note_on,0,0,7,,,,,,,,2,,,64,0
33528,note_on,48,0,5,,,,,,,,4,,,48,0
33528,note_on,48,0,4,,,,,,,,3,,,64,0
33528,note_on,48,0,6,,,,,,,,5,,,36,0
33528,note_on,24,0,7,,,,,,,,2,,,48,0
33540,note_on,12,0,7,,,,,,,,2,,,47,105
33540,note_on,12,0,6,,,,,,,,5,,,35,105
33540,note_on,12,0,4,,,,,,,,3,,,62,105
33540,note_on,12,0,5,,,,,,,,4,,,47,105
33588,note_on,48,0,7,,,,,,,,2,,,47,0
33588,note_on,48,0,6,,,,,,,,5,,,35,0
33588,note_on,48,0,4,,,,,,,,3,,,62,0
33588,note_on,48,0,5,,,,,,,,4,,,47,0
33600,note_on,12,0,4,,,,,,,,3,,,60,105
33600,note_on,12,0,5,,,,,,,,4,,,45,105
33600,note_on,0,0,7,,,,,,,,2,,,69,105
33600,note_on,12,0,7,,,,,,,,2,,,72,105
33600,note_on,12,0,6,,,,,,,,5,,,33,105
33600,note_on,0,0,7,,,,,,,,2,,,45,105
33696,note_on,336,0,3,,,,,,,,0,,,81,0
33696,note_on,336,0,1,,,,,,,,0,,,81,0
33696,note_on,336,0,2,,,,,,,,1,,,81,0
33720,note_on,24,0,3,,,,,,,,0,,,84,105
33720,note_on,24,0,2,,,,,,,,1,,,84,105
33720,note_on,24,0,1,,,,,,,,0,,,84,105
33768,note_on,48,0,2,,,,,,,,1,,,84,0
33768,note_on,48,0,3,,,,,,,,0,,,84,0
33768,note_on,48,0,1,,,,,,,,0,,,84,0
33780,note_on,12,0,2,,,,,,,,1,,,83,105
33780,note_on,12,0,3,,,,,,,,0,,,83,105
33780,note_on,12,0,1,,,,,,,,0,,,83,105
33792,note_on,192,0,7,,,,,,,,2,,,64,0
33828,note_on,48,0,3,,,,,,,,0,,,83,0
33828,note_on,48,0,1,,,,,,,,0,,,83,0
33828,note_on,48,0,2,,,,,,,,1,,,83,0
33840,note_on,48,0,7,,,,,,,,2,,,69,105
33840,note_on,12,0,1,,,,,,,,0,,,81,105
33840,note_on,12,0,3,,,,,,,,0,,,81,105
33840,note_on,12,0,2,,,,,,,,1,,,81,105
33888,note_on,48,0,7,,,,,,,,2,,,45,0
33888,note_on,288,0,5,,,,,,,,4,,,45,0
33888,note_on,288,0,6,,,,,,,,5,,,33,0
33888,note_on,288,0,4,,,,,,,,3,,,60,0
33960,note_on,72,0,5,,,,,,,,4,,,48,105
33960,note_on,72,0,6,,,,,,,,5,,,36,105
33960,note_on,72,0,7,,,,,,,,2,,,48,105
33960,note_on,72,0,4,,,,,,,,3,,,64,105
33984,note_on,24,0,7,,,,,,,,2,,,72,0
33984,note_on,0,0,7,,,,,,,,2,,,69,0
34008,note_on,48,0,6,,,,,,,,5,,,36,0
34008,note_on,48,0,5,,,,,,,,4,,,48,0
34008,note_on,24,0,7,,,,,,,,2,,,48,0
34008,note_on,48,0,4,,,,,,,,3,,,64,0
34020,note_on,12,0,5,,,,,,,,4,,,47,105
34020,note_on,12,0,4,,,,,,,,3,,,62,105
34020,note_on,12,0,6,,,,,,,,5,,,35,105
34020,note_on,12,0,7,,,,,,,,2,,,47,105
34068,note_on,48,0,7,,,,,,,,2,,,47,0
34068,note_on,48,0,6,,,,,,,,5,,,35,0
34068,note_on,48,0,4,,,,,,,,3,,,62,0
34068,note_on,48,0,5,,,,,,,,4,,,47,0
34080,note_on,0,0,7,,,,,,,,2,,,45,105
34080,note_on,12,0,4,,,,,,,,3,,,60,105
34080,note_on,0,0,7,,,,,,,,2,,,76,105
34080,note_on,12,0,7,,,,,,,,2,,,72,105
34080,note_on,12,0,5,,,,,,,,4,,,45,105
34080,note_on,12,0,6,,,,,,,,5,,,33,105
34176,note_on,336,0,2,,,,,,,,1,,,81,0
34176,note_on,336,0,1,,,,,,,,0,,,81,0
34176,note_on,336,0,3,,,,,,,,0,,,81,0
34200,note_on,24,0,3,,,,,,,,0,,,84,105
34200,note_on,24,0,2,,,,,,,,1,,,84,105
34200,note_on,24,0,1,,,,,,,,0,,,84,105
34224,note_on,144,0,7,,,,,,,,2,,,69,0
34248,note_on,48,0,3,,,,,,,,0,,,84,0
34248,note_on,48,0,1,,,,,,,,0,,,84,0
34248,note_on,48,0,2,,,,,,,,1,,,84,0
34260,note_on,12,0,2,,,,,,,,1,,,83,105
34260,note_on,12,0,1,,,,,,,,0,,,83,105
34260,note_on,12,0,3,,,,,,,,0,,,83,105
34308,note_on,48,0,3,,,,,,,,0,,,83,0
34308,note_on,48,0,1,,,,,,,,0,,,83,0
34308,note_on,48,0,2,,,,,,,,1,,,83,0
34320,note_on,96,0,7,,,,,,,,2,,,72,105
34320,note_on,12,0,2,,,,,,,,1,,,81,105
34320,note_on,12,0,3,,,,,,,,0,,,81,105
34320,note_on,12,0,1,,,,,,,,0,,,81,105
34368,note_on,288,0,4,,,,,,,,3,,,60,0
34368,note_on,288,0,5,,,,,,,,4,,,45,0
34368,note_on,48,0,7,,,,,,,,2,,,45,0
34368,note_on,288,0,6,,,,,,,,5,,,33,0
34440,note_on,72,0,7,,,,,,,,2,,,48,105
34440,note_on,72,0,5,,,,,,,,4,,,48,105
34440,note_on,72,0,4,,,,,,,,3,,,64,105
34440,note_on,72,0,6,,,,,,,,5,,,36,105
34464,note_on,24,0,7,,,,,,,,2,,,76,0
34464,note_on,0,0,7,,,,,,,,2,,,72,0
34488,note_on,48,0,4,,,,,,,,3,,,64,0
34488,note_on,48,0,5,,,,,,,,4,,,48,0
34488,note_on,24,0,7,,,,,,,,2,,,48,0
34488,note_on,48,0,6,,,,,,,,5,,,36,0
34500,note_on,12,0,5,,,,,,,,4,,,46,105
34500,note_on,12,0,7,,,,,,,,2,,,46,105
34500,note_on,12,0,6,,,,,,,,5,,,34,105
34500,note_on,12,0,4,,,,,,,,3,,,62,105
34512,note_on,192,0,3,,,,,,,,0,,,81,0
34512,note_on,12,0,7,,,,,,,,2,,,72,0
34548,note_on,48,0,5,,,,,,,,4,,,46,0
34548,note_on,48,0,4,,,,,,,,3,,,62,0
34548,note_on,36,0,7,,,,,,,,2,,,46,0
34548,note_on,48,0,6,,,,,,,,5,,,34,0
34560,note_on,0,0,7,,,,,,,,2,,,45,105
34560,note_on,12,0,6,,,,,,,,5,,,33,105
34560,note_on,0,0,7,,,,,,,,2,,,76,105
34560,note_on,12,0,7,,,,,,,,2,,,81,105
34560,note_on,12,0,5,,,,,,,,4,,,45,105
34560,note_on,12,0,4,,,,,,,,3,,,64,105
34560,note_on,48,0,3,,,,,,,,0,,,72,105
34560,note_on,0,0,7,,,,,,,,2,,,72,105
34656,note_on,336,0,1,,,,,,,,0,,,81,0
34656,note_on,96,0,4,,,,,,,,3,,,64,0
34656,note_on,96,0,6,,,,,,,,5,,,33,0
34656,note_on,96,0,7,,,,,,,,2,,,45,0
34656,note_on,336,0,2,,,,,,,,1,,,81,0
34656,note_on,96,0,3,,,,,,,,0,,,72,0
34656,note_on,96,0,5,,,,,,,,4,,,45,0
34680,note_on,24,0,1,,,,,,,,0,,,72,105
34680,note_on,24,0,7,,,,,,,,2,,,45,105
34680,note_on,24,0,2,,,,,,,,1,,,72,105
34680,note_on,24,0,6,,,,,,,,5,,,33,105
34680,note_on,24,0,5,,,,,,,,4,,,45,105
34680,note_on,24,0,4,,,,,,,,3,,,64,105
34680,note_on,24,0,3,,,,,,,,0,,,69,105
34728,note_on,48,0,1,,,,,,,,0,,,72,0
34728,note_on,48,0,2,,,,,,,,1,,,72,0
34728,note_on,48,0,3,,,,,,,,0,,,69,0
34740,note_on,12,0,1,,,,,,,,0,,,74,105
34740,note_on,12,0,3,,,,,,,,0,,,70,105
34740,note_on,12,0,2,,,,,,,,1,,,74,105
34752,note_on,0,0,7,,,,,,,,2,,,76,0
34752,note_on,0,0,7,,,,,,,,2,,,72,0
34752,note_on,72,0,7,,,,,,,,2,,,81,0
34776,note_on,96,0,6,,,,,,,,5,,,33,0
34776,note_on,24,0,7,,,,,,,,2,,,45,0
34776,note_on,96,0,4,,,,,,,,3,,,64,0
34776,note_on,96,0,5,,,,,,,,4,,,45,0
34788,note_on,48,0,2,,,,,,,,1,,,74,0
34788,note_on,48,0,1,,,,,,,,0,,,74,0
34788,note_on,48,0,3,,,,,,,,0,,,70,0
34800,note_on,24,0,5,,,,,,,,4,,,45,105
34800,note_on,12,0,3,,,,,,,,0,,,72,105
34800,note_on,24,0,6,,,,,,,,5,,,33,105
34800,note_on,0,0,7,,,,,,,,2,,,45,105
34800,note_on,24,0,4,,,,,,,,3,,,64,105
34800,note_on,12,0,2,,,,,,,,1,,,76,105
34800,note_on,24,0,7,,,,,,,,2,,,69,105
34800,note_on,12,0,1,,,,,,,,0,,,76,105
34896,note_on,96,0,1,,,,,,,,0,,,76,0
34896,note_on,96,0,6,,,,,,,,5,,,33,0
34896,note_on,96,0,4,,,,,,,,3,,,64,0
34896,note_on,96,0,3,,,,,,,,0,,,72,0
34896,note_on,96,0,5,,,,,,,,4,,,45,0
34896,note_on,96,0,7,,,,,,,,2,,,45,0
34896,note_on,96,0,2,,,,,,,,1,,,76,0
34920,note_on,24,0,4,,,,,,,,3,,,64,105
34920,note_on,24,0,2,,,,,,,,1,,,74,105
34920,note_on,24,0,3,,,,,,,,0,,,70,105
34920,note_on,24,0,5,,,,,,,,4,,,45,105
34920,note_on,24,0,6,,,,,,,,5,,,33,105
34920,note_on,24,0,1,,,,,,,,0,,,74,105
34920,note_on,24,0,7,,,,,,,,2,,,45,105
34968,note_on,48,0,2,,,,,,,,1,,,74,0
34968,note_on,48,0,3,,,,,,,,0,,,70,0
34968,note_on,48,0,1,,,,,,,,0,,,74,0
34980,note_on,12,0,2,,,,,,,,1,,,72,105
34980,note_on,12,0,1,,,,,,,,0,,,72,105
34980,note_on,12,0,3,,,,,,,,0,,,69,105
34992,note_on,72,0,7,,,,,,,,2,,,69,0
35016,note_on,96,0,6,,,,,,,,5,,,33,0
35016,note_on,24,0,7,,,,,,,,2,,,45,0
35016,note_on,96,0,4,,,,,,,,3,,,64,0
35016,note_on,96,0,5,,,,,,,,4,,,45,0
35028,note_on,48,0,3,,,,,,,,0,,,69,0
35028,note_on,48,0,1,,,,,,,,0,,,72,0
35028,note_on,48,0,2,,,,,,,,1,,,72,0
35040,note_on,24,0,7,,,,,,,,2,,,52,105
35040,note_on,0,0,7,,,,,,,,2,,,64,105
35040,note_on,0,0,7,,,,,,,,2,,,71,105
35040,note_on,24,0,4,,,,,,,,3,,,64,105
35040,note_on,0,0,7,,,,,,,,2,,,68,105
35040,note_on,24,0,6,,,,,,,,5,,,40,105
35040,note_on,24,0,5,,,,,,,,4,,,52,105
35040,note_on,12,0,2,,,,,,,,1,,,71,105
35040,note_on,12,0,3,,,,,,,,0,,,67,105
35040,note_on,12,0,1,,,,,,,,0,,,71,105
35136,note_on,96,0,1,,,,,,,,0,,,71,0
35136,note_on,96,0,3,,,,,,,,0,,,67,0
35136,note_on,96,0,2,,,,,,,,1,,,71,0
35160,note_on,24,0,3,,,,,,,,0,,,80,105
35160,note_on,24,0,1,,,,,,,,0,,,83,105
35160,note_on,24,0,2,,,,,,,,1,,,83,105
35232,note_on,0,0,7,,,,,,,,2,,,52,0
35232,note_on,192,0,7,,,,,,,,2,,,64,0
35232,note_on,192,0,4,,,,,,,,3,,,64,0
35232,note_on,192,0,6,,,,,,,,5,,,40,0
35232,note_on,192,0,5,,,,,,,,4,,,52,0
35256,note_on,96,0,2,,,,,,,,1,,,83,0
35256,note_on,96,0,1,,,,,,,,0,,,83,0
35256,note_on,96,0,3,,,,,,,,0,,,80,0
35280,note_on,24,0,1,,,,,,,,0,,,83,105
35280,note_on,48,0,7,,,,,,,,2,,,59,105
35280,note_on,24,0,3,,,,,,,,0,,,80,105
35280,note_on,24,0,2,,,,,,,,1,,,83,105
35400,note_on,120,0,7,,,,,,,,2,,,56,105
35400,note_on,168,0,5,,,,,,,,4,,,56,105
35400,note_on,168,0,6,,,,,,,,5,,,44,105
35400,note_on,168,0,4,,,,,,,,3,,,71,105
35424,note_on,0,0,7,,,,,,,,2,,,68,0
35424,note_on,24,0,7,,,,,,,,2,,,71,0
35448,note_on,48,0,6,,,,,,,,5,,,44,0
35448,note_on,48,0,5,,,,,,,,4,,,56,0
35448,note_on,24,0,7,,,,,,,,2,,,56,0
35448,note_on,48,0,4,,,,,,,,3,,,71,0
35460,note_on,12,0,6,,,,,,,,5,,,42,105
35460,note_on,12,0,4,,,,,,,,3,,,69,105
35460,note_on,12,0,5,,,,,,,,4,,,54,105
35460,note_on,12,0,7,,,,,,,,2,,,54,105
35508,note_on,48,0,4,,,,,,,,3,,,69,0
35508,note_on,48,0,7,,,,,,,,2,,,54,0
35508,note_on,48,0,5,,,,,,,,4,,,54,0
35508,note_on,48,0,6,,,,,,,,5,,,42,0
35520,note_on,12,0,6,,,,,,,,5,,,40,105
35520,note_on,12,0,5,,,,,,,,4,,,52,105
35520,note_on,12,0,7,,,,,,,,2,,,68,105
35520,note_on,12,0,4,,,,,,,,3,,,68,105
35520,note_on,0,0,7,,,,,,,,2,,,64,105
35520,note_on,0,0,7,,,,,,,,2,,,52,105
35616,note_on,336,0,3,,,,,,,,0,,,80,0
35616,note_on,336,0,1,,,,,,,,0,,,83,0
35616,note_on,336,0,2,,,,,,,,1,,,83,0
35640,note_on,24,0,2,,,,,,,,1,,,86,105
35640,note_on,24,0,1,,,,,,,,0,,,86,105
35640,note_on,24,0,3,,,,,,,,0,,,83,105
35688,note_on,48,0,3,,,,,,,,0,,,83,0
35688,note_on,48,0,1,,,,,,,,0,,,86,0
35688,note_on,48,0,2,,,,,,,,1,,,86,0
35700,note_on,12,0,1,,,,,,,,0,,,84,105
35700,note_on,12,0,2,,,,,,,,1,,,84,105
35700,note_on,12,0,3,,,,,,,,0,,,81,105
35712,note_on,192,0,7,,,,,,,,2,,,59,0
35748,note_on,48,0,2,,,,,,,,1,,,84,0
35748,note_on,48,0,3,,,,,,,,0,,,81,0
35748,note_on,48,0,1,,,,,,,,0,,,84,0
35760,note_on,48,0,7,,,,,,,,2,,,64,105
35760,note_on,12,0,1,,,,,,,,0,,,83,105
35760,note_on,12,0,2,,,,,,,,1,,,83,105
35760,note_on,12,0,3,,,,,,,,0,,,80,105
35808,note_on,288,0,5,,,,,,,,4,,,52,0
35808,note_on,48,0,7,,,,,,,,2,,,52,0
35808,note_on,288,0,6,,,,,,,,5,,,40,0
35808,note_on,288,0,4,,,,,,,,3,,,68,0
35880,note_on,72,0,6,,,,,,,,5,,,44,105
35880,note_on,72,0,5,,,,,,,,4,,,56,105
35880,note_on,72,0,7,,,,,,,,2,,,56,105
35880,note_on,72,0,4,,,,,,,,3,,,71,105
35904,note_on,0,0,7,,,,,,,,2,,,64,0
35904,note_on,24,0,7,,,,,,,,2,,,68,0
35928,note_on,24,0,7,,,,,,,,2,,,56,0
35928,note_on,48,0,4,,,,,,,,3,,,71,0
35928,note_on,48,0,5,,,,,,,,4,,,56,0
35928,note_on,48,0,6,,,,,,,,5,,,44,0
35940,note_on,12,0,7,,,,,,,,2,,,54,105
35940,note_on,12,0,5,,,,,,,,4,,,54,105
35940,note_on,12,0,4,,,,,,,,3,,,69,105
35940,note_on,12,0,6,,,,,,,,5,,,42,105
35988,note_on,48,0,7,,,,,,,,2,,,54,0
35988,note_on,48,0,6,,,,,,,,5,,,42,0
35988,note_on,48,0,4,,,,,,,,3,,,69,0
35988,note_on,48,0,5,,,,,,,,4,,,54,0
36000,note_on,12,0,5,,,,,,,,4,,,52,105
36000,note_on,0,0,7,,,,,,,,2,,,68,105
36000,note_on,0,0,7,,,,,,,,2,,,52,105
36000,note_on,12,0,7,,,,,,,,2,,,71,105
36000,note_on,12,0,4,,,,,,,,3,,,68,105
36000,note_on,12,0,6,,,,,,,,5,,,40,105
36096,note_on,336,0,1,,,,,,,,0,,,83,0
36096,note_on,336,0,3,,,,,,,,0,,,80,0
36096,note_on,336,0,2,,,,,,,,1,,,83,0
36120,note_on,24,0,3,,,,,,,,0,,,83,105
36120,note_on,24,0,1,,,,,,,,0,,,86,105
36120,note_on,24,0,2,,,,,,,,1,,,86,105
36144,note_on,144,0,7,,,,,,,,2,,,64,0
36168,note_on,48,0,3,,,,,,,,0,,,83,0
36168,note_on,48,0,2,,,,,,,,1,,,86,0
36168,note_on,48,0,1,,,,,,,,0,,,86,0
36180,note_on,12,0,1,,,,,,,,0,,,84,105
36180,note_on,12,0,3,,,,,,,,0,,,81,105
36180,note_on,12,0,2,,,,,,,,1,,,84,105
36228,note_on,48,0,1,,,,,,,,0,,,84,0
36228,note_on,48,0,2,,,,,,,,1,,,84,0
36228,note_on,48,0,3,,,,,,,,0,,,81,0
36240,note_on,12,0,1,,,,,,,,0,,,83,105
36240,note_on,96,0,7,,,,,,,,2,,,59,105
36240,note_on,12,0,2,,,,,,,,1,,,83,105
36240,note_on,12,0,3,,,,,,,,0,,,80,105
36288,note_on,48,0,7,,,,,,,,2,,,52,0
36288,note_on,288,0,6,,,,,,,,5,,,40,0
36288,note_on,288,0,4,,,,,,,,3,,,68,0
36288,note_on,288,0,5,,,,,,,,4,,,52,0
36360,note_on,72,0,7,,,,,,,,2,,,56,105
36360,note_on,72,0,4,,,,,,,,3,,,71,105
36360,note_on,72,0,5,,,,,,,,4,,,56,105
36360,note_on,72,0,6,,,,,,,,5,,,44,105
36384,note_on,24,0,7,,,,,,,,2,,,68,0
36384,note_on,0,0,7,,,,,,,,2,,,71,0
36408,note_on,24,0,7,,,,,,,,2,,,56,0
36408,note_on,48,0,6,,,,,,,,5,,,44,0
36408,note_on,48,0,4,,,,,,,,3,,,71,0
36408,note_on,48,0,5,,,,,,,,4,,,56,0
36420,note_on,12,0,7,,,,,,,,2,,,54,105
36420,note_on,12,0,4,,,,,,,,3,,,69,105
36420,note_on,12,0,6,,,,,,,,5,,,42,105
36420,note_on,12,0,5,,,,,,,,4,,,54,105
36468,note_on,48,0,7,,,,,,,,2,,,54,0
36468,note_on,48,0,4,,,,,,,,3,,,69,0
36468,note_on,48,0,6,,,,,,,,5,,,42,0
36468,note_on,48,0,5,,,,,,,,4,,,54,0
36480,note_on,12,0,6,,,,,,,,5,,,40,105
36480,note_on,12,0,7,,,,,,,,2,,,68,105
36480,note_on,0,0,7,,,,,,,,2,,,52,105
36480,note_on,0,0,7,,,,,,,,2,,,64,105
36480,note_on,12,0,4,,,,,,,,3,,,68,105
36480,note_on,12,0,5,,,,,,,,4,,,52,105
36576,note_on,96,0,6,,,,,,,,5,,,40,0
36576,note_on,96,0,4,,,,,,,,3,,,68,0
36576,note_on,336,0,2,,,,,,,,1,,,83,0
36576,note_on,336,0,3,,,,,,,,0,,,80,0
36576,note_on,96,0,7,,,,,,,,2,,,52,0
36576,note_on,336,0,1,,,,,,,,0,,,83,0
36576,note_on,96,0,5,,,,,,,,4,,,52,0
36600,note_on,24,0,7,,,,,,,,2,,,52,105
36600,note_on,24,0,2,,,,,,,,1,,,74,105
36600,note_on,24,0,4,,,,,,,,3,,,68,105
36600,note_on,24,0,1,,,,,,,,0,,,74,105
36600,note_on,24,0,3,,,,,,,,0,,,71,105
36600,note_on,24,0,6,,,,,,,,5,,,40,105
36600,note_on,24,0,5,,,,,,,,4,,,52,105
36648,note_on,48,0,1,,,,,,,,0,,,74,0
36648,note_on,48,0,2,,,,,,,,1,,,74,0
36648,note_on,48,0,3,,,,,,,,0,,,71,0
36660,note_on,12,0,3,,,,,,,,0,,,72,105
36660,note_on,12,0,2,,,,,,,,1,,,76,105
36660,note_on,12,0,1,,,,,,,,0,,,76,105
36672,note_on,72,0,7,,,,,,,,2,,,59,0
36696,note_on,96,0,5,,,,,,,,4,,,52,0
36696,note_on,96,0,6,,,,,,,,5,,,40,0
36696,note_on,96,0,4,,,,,,,,3,,,68,0
36696,note_on,24,0,7,,,,,,,,2,,,52,0
36708,note_on,48,0,3,,,,,,,,0,,,72,0
36708,note_on,48,0,2,,,,,,,,1,,,76,0
36708,note_on,48,0,1,,,,,,,,0,,,76,0
36720,note_on,24,0,7,,,,,,,,2,,,52,105
36720,note_on,24,0,5,,,,,,,,4,,,52,105
36720,note_on,12,0,1,,,,,,,,0,,,77,105
36720,note_on,12,0,3,,,,,,,,0,,,74,105
36720,note_on,24,0,6,,,,,,,,5,,,40,105
36720,note_on,0,0,7,,,,,,,,2,,,71,105
36720,note_on,24,0,4,,,,,,,,3,,,68,105
36720,note_on,12,0,2,,,,,,,,1,,,77,105
36816,note_on,96,0,5,,,,,,,,4,,,52,0
36816,note_on,96,0,3,,,,,,,,0,,,74,0
36816,note_on,96,0,7,,,,,,,,2,,,52,0
36816,note_on,96,0,2,,,,,,,,1,,,77,0
36816,note_on,96,0,6,,,,,,,,5,,,40,0
36816,note_on,96,0,1,,,,,,,,0,,,77,0
36816,note_on,96,0,4,,,,,,,,3,,,68,0
36840,note_on,24,0,6,,,,,,,,5,,,40,105
36840,note_on,24,0,7,,,,,,,,2,,,52,105
36840,note_on,24,0,1,,,,,,,,0,,,76,105
36840,note_on,24,0,5,,,,,,,,4,,,52,105
36840,note_on,24,0,3,,,,,,,,0,,,72,105
36840,note_on,24,0,4,,,,,,,,3,,,68,105
36840,note_on,24,0,2,,,,,,,,1,,,76,105
36864,note_on,0,0,7,,,,,,,,2,,,64,0
36864,note_on,24,0,7,,,,,,,,2,,,68,0
36888,note_on,48,0,1,,,,,,,,0,,,76,0
36888,note_on,48,0,3,,,,,,,,0,,,72,0
36888,note_on,48,0,2,,,,,,,,1,,,76,0
36900,note_on,12,0,2,,,,,,,,1,,,74,105
36900,note_on,12,0,3,,,,,,,,0,,,71,105
36900,note_on,12,0,1,,,,,,,,0,,,74,105
36912,note_on,48,0,7,,,,,,,,2,,,71,0
36936,note_on,96,0,5,,,,,,,,4,,,52,0
36936,note_on,96,0,6,,,,,,,,5,,,40,0
36936,note_on,96,0,4,,,,,,,,3,,,68,0
36936,note_on,24,0,7,,,,,,,,2,,,52,0
36948,note_on,48,0,2,,,,,,,,1,,,74,0
36948,note_on,48,0,3,,,,,,,,0,,,71,0
36948,note_on,48,0,1,,,,,,,,0,,,74,0
36960,note_on,24,0,4,,,,,,,,3,,,64,105
36960,note_on,24,0,6,,,,,,,,5,,,33,105
36960,note_on,12,0,3,,,,,,,,0,,,69,105
36960,note_on,0,0,7,,,,,,,,2,,,45,105
36960,note_on,12,0,1,,,,,,,,0,,,72,105
36960,note_on,0,0,7,,,,,,,,2,,,69,105
36960,note_on,0,0,7,,,,,,,,2,,,60,105
36960,note_on,12,0,2,,,,,,,,1,,,72,105
36960,note_on,24,0,5,,,,,,,,4,,,45,105
36960,note_on,24,0,7,,,,,,,,2,,,64,105
37008,note_on,48,0,1,,,,,,,,0,,,72,0
37008,note_on,48,0,2,,,,,,,,1,,,72,0
37020,note_on,12,0,2,,,,,,,,1,,,76,105
37020,note_on,12,0,1,,,,,,,,0,,,76,105
37056,note_on,96,0,5,,,,,,,,4,,,45,0
37056,note_on,96,0,7,,,,,,,,2,,,45,0
37056,note_on,96,0,6,,,,,,,,5,,,33,0
37068,note_on,48,0,2,,,,,,,,1,,,76,0
37068,note_on,48,0,1,,,,,,,,0,,,76,0
37080,note_on,24,0,5,,,,,,,,4,,,57,105
37080,note_on,24,0,7,,,,,,,,2,,,57,105
37080,note_on,12,0,2,,,,,,,,1,,,76,105
37080,note_on,12,0,1,,,,,,,,0,,,76,105
37128,note_on,48,0,5,,,,,,,,4,,,57,0
37128,note_on,48,0,7,,,,,,,,2,,,57,0
37140,note_on,12,0,5,,,,,,,,4,,,59,105
37140,note_on,12,0,7,,,,,,,,2,,,59,105
37152,note_on,192,0,3,,,,,,,,0,,,69,0
37152,note_on,192,0,4,,,,,,,,3,,,64,0
37152,note_on,12,0,7,,,,,,,,2,,,60,0
37176,note_on,96,0,2,,,,,,,,1,,,76,0
37176,note_on,96,0,1,,,,,,,,0,,,76,0
37188,note_on,36,0,7,,,,,,,,2,,,59,0
37188,note_on,48,0,5,,,,,,,,4,,,59,0
37200,note_on,12,0,7,,,,,,,,2,,,60,105
37200,note_on,0,0,7,,,,,,,,2,,,64,105
37200,note_on,12,0,5,,,,,,,,4,,,60,105
37260,note_on,84,0,2,,,,,,,,1,,,76,105
37260,note_on,84,0,1,,,,,,,,0,,,76,105
37296,note_on,96,0,7,,,,,,,,2,,,60,0
37296,note_on,96,0,5,,,,,,,,4,,,60,0
37308,note_on,48,0,2,,,,,,,,1,,,76,0
37308,note_on,48,0,1,,,,,,,,0,,,76,0
37320,note_on,12,0,2,,,,,,,,1,,,76,105
37320,note_on,24,0,7,,,,,,,,2,,,57,105
37320,note_on,12,0,1,,,,,,,,0,,,76,105
37320,note_on,168,0,4,,,,,,,,3,,,60,105
37320,note_on,24,0,5,,,,,,,,4,,,57,105
37320,note_on,168,0,3,,,,,,,,0,,,76,105
37344,note_on,0,0,7,,,,,,,,2,,,69,0
37344,note_on,24,0,7,,,,,,,,2,,,64,0
37392,note_on,48,0,7,,,,,,,,2,,,64,0
37416,note_on,24,0,7,,,,,,,,2,,,57,0
37416,note_on,96,0,2,,,,,,,,1,,,76,0
37416,note_on,96,0,4,,,,,,,,3,,,60,0
37416,note_on,96,0,5,,,,,,,,4,,,57,0
37416,note_on,96,0,1,,,,,,,,0,,,76,0
37416,note_on,96,0,3,,,,,,,,0,,,76,0
37440,note_on,24,0,4,,,,,,,,3,,,62,105
37440,note_on,24,0,3,,,,,,,,0,,,77,105
37500,note_on,84,0,1,,,,,,,,0,,,76,105
37500,note_on,84,0,2,,,,,,,,1,,,76,105
37536,note_on,96,0,3,,,,,,,,0,,,77,0
37536,note_on,96,0,4,,,,,,,,3,,,62,0
37548,note_on,48,0,1,,,,,,,,0,,,76,0
37548,note_on,48,0,2,,,,,,,,1,,,76,0
37560,note_on,12,0,2,,,,,,,,1,,,76,105
37560,note_on,24,0,3,,,,,,,,0,,,78,105
37560,note_on,12,0,1,,,,,,,,0,,,76,105
37560,note_on,24,0,4,,,,,,,,3,,,62,105
37656,note_on,96,0,3,,,,,,,,0,,,78,0
37656,note_on,96,0,1,,,,,,,,0,,,76,0
37656,note_on,96,0,2,,,,,,,,1,,,76,0
37656,note_on,96,0,4,,,,,,,,3,,,62,0
37680,note_on,24,0,3,,,,,,,,0,,,79,105
37680,note_on,24,0,4,,,,,,,,3,,,64,105
37740,note_on,84,0,1,,,,,,,,0,,,74,105
37740,note_on,84,0,2,,,,,,,,1,,,74,105
37776,note_on,96,0,4,,,,,,,,3,,,64,0
37776,note_on,96,0,3,,,,,,,,0,,,79,0
37788,note_on,48,0,1,,,,,,,,0,,,74,0
37788,note_on,48,0,2,,,,,,,,1,,,74,0
37800,note_on,24,0,4,,,,,,,,3,,,64,105
37800,note_on,24,0,3,,,,,,,,0,,,80,105
37800,note_on,12,0,2,,,,,,,,1,,,74,105
37800,note_on,12,0,1,,,,,,,,0,,,74,105
37848,note_on,48,0,1,,,,,,,,0,,,74,0
37848,note_on,48,0,2,,,,,,,,1,,,74,0
37860,note_on,12,0,1,,,,,,,,0,,,74,105
37860,note_on,12,0,2,,,,,,,,1,,,74,105
37896,note_on,96,0,4,,,,,,,,3,,,64,0
37896,note_on,96,0,3,,,,,,,,0,,,80,0
37908,note_on,48,0,1,,,,,,,,0,,,74,0
37908,note_on,48,0,2,,,,,,,,1,,,74,0
37920,note_on,12,0,1,,,,,,,,0,,,72,105
37920,note_on,12,0,2,,,,,,,,1,,,72,105
37920,note_on,24,0,3,,,,,,,,0,,,81,105
37920,note_on,24,0,4,,,,,,,,3,,,64,105
37968,note_on,48,0,3,,,,,,,,0,,,81,0
37980,note_on,12,0,3,,,,,,,,0,,,81,105
38028,note_on,48,0,3,,,,,,,,0,,,81,0
38040,note_on,624,0,5,,,,,,,,4,,,57,105
38040,note_on,12,0,3,,,,,,,,0,,,81,105
38040,note_on,624,0,7,,,,,,,,2,,,57,105
38088,note_on,48,0,5,,,,,,,,4,,,57,0
38088,note_on,48,0,7,,,,,,,,2,,,57,0
38100,note_on,12,0,5,,,,,,,,4,,,59,105
38100,note_on,12,0,7,,,,,,,,2,,,59,105
38112,note_on,192,0,4,,,,,,,,3,,,64,0
38112,note_on,192,0,1,,,,,,,,0,,,72,0
38112,note_on,192,0,2,,,,,,,,1,,,72,0
38136,note_on,96,0,3,,,,,,,,0,,,81,0
38148,note_on,48,0,5,,,,,,,,4,,,59,0
38148,note_on,48,0,7,,,,,,,,2,,,59,0
38160,note_on,12,0,5,,,,,,,,4,,,60,105
38160,note_on,0,0,7,,,,,,,,2,,,69,105
38160,note_on,0,0,7,,,,,,,,2,,,60,105
38160,note_on,12,0,7,,,,,,,,2,,,64,105
38220,note_on,84,0,3,,,,,,,,0,,,81,105
38256,note_on,96,0,5,,,,,,,,4,,,60,0
38256,note_on,96,0,7,,,,,,,,2,,,60,0
38268,note_on,48,0,3,,,,,,,,0,,,81,0
38280,note_on,12,0,3,,,,,,,,0,,,81,105
38280,note_on,168,0,1,,,,,,,,0,,,81,105
38280,note_on,24,0,5,,,,,,,,4,,,57,105
38280,note_on,168,0,4,,,,,,,,3,,,69,105
38280,note_on,24,0,7,,,,,,,,2,,,57,105
38280,note_on,168,0,2,,,,,,,,1,,,81,105
38352,note_on,0,0,7,,,,,,,,2,,,64,0
38352,note_on,72,0,7,,,,,,,,2,,,69,0
38376,note_on,24,0,7,,,,,,,,2,,,57,0
38376,note_on,96,0,5,,,,,,,,4,,,57,0
38376,note_on,96,0,1,,,,,,,,0,,,81,0
38376,note_on,96,0,2,,,,,,,,1,,,81,0
38376,note_on,96,0,3,,,,,,,,0,,,81,0
38376,note_on,96,0,4,,,,,,,,3,,,69,0
38400,note_on,24,0,4,,,,,,,,3,,,69,105
38400,note_on,24,0,1,,,,,,,,0,,,84,105
38400,note_on,24,0,2,,,,,,,,1,,,84,105
38460,note_on,84,0,3,,,,,,,,0,,,81,105
38496,note_on,96,0,2,,,,,,,,1,,,84,0
38496,note_on,96,0,4,,,,,,,,3,,,69,0
38496,note_on,96,0,1,,,,,,,,0,,,84,0
38508,note_on,48,0,3,,,,,,,,0,,,81,0
38520,note_on,24,0,4,,,,,,,,3,,,69,105
38520,note_on,24,0,2,,,,,,,,1,,,85,105
38520,note_on,12,0,3,,,,,,,,0,,,81,105
38520,note_on,24,0,1,,,,,,,,0,,,85,105
38616,note_on,96,0,4,,,,,,,,3,,,69,0
38616,note_on,96,0,3,,,,,,,,0,,,81,0
38616,note_on,96,0,1,,,,,,,,0,,,85,0
38616,note_on,96,0,2,,,,,,,,1,,,85,0
38640,note_on,24,0,4,,,,,,,,3,,,71,105
38640,note_on,24,0,1,,,,,,,,0,,,86,105
38640,note_on,24,0,2,,,,,,,,1,,,86,105
38700,note_on,84,0,3,,,,,,,,0,,,81,105
38736,note_on,96,0,1,,,,,,,,0,,,86,0
38736,note_on,96,0,4,,,,,,,,3,,,71,0
38736,note_on,96,0,2,,,,,,,,1,,,86,0
38748,note_on,48,0,3,,,,,,,,0,,,81,0
38760,note_on,24,0,2,,,,,,,,1,,,87,105
38760,note_on,24,0,4,,,,,,,,3,,,71,105
38760,note_on,24,0,1,,,,,,,,0,,,87,105
38760,note_on,12,0,3,,,,,,,,0,,,81,105
38808,note_on,48,0,3,,,,,,,,0,,,81,0
38820,note_on,12,0,3,,,,,,,,0,,,81,105
38856,note_on,96,0,4,,,,,,,,3,,,71,0
38856,note_on,96,0,2,,,,,,,,1,,,87,0
38856,note_on,96,0,1,,,,,,,,0,,,87,0
38868,note_on,48,0,3,,,,,,,,0,,,81,0
38880,note_on,504,0,5,,,,,,,,4,,,52,105
38880,note_on,24,0,4,,,,,,,,3,,,71,105
38880,note_on,24,0,2,,,,,,,,1,,,88,105
38880,note_on,24,0,1,,,,,,,,0,,,88,105
38880,note_on,12,0,3,,,,,,,,0,,,80,105
38880,note_on,504,0,7,,,,,,,,2,,,71,105
38880,note_on,0,0,7,,,,,,,,2,,,68,105
38880,note_on,0,0,7,,,,,,,,2,,,52,105
38880,note_on,0,0,7,,,,,,,,2,,,64,105
38928,note_on,48,0,3,,,,,,,,0,,,80,0
38928,note_on,48,0,1,,,,,,,,0,,,88,0
38928,note_on,48,0,2,,,,,,,,1,,,88,0
38940,note_on,12,0,1,,,,,,,,0,,,80,105
38940,note_on,12,0,3,,,,,,,,0,,,71,105
38940,note_on,12,0,2,,,,,,,,1,,,80,105
38976,note_on,96,0,4,,,,,,,,3,,,71,0
38988,note_on,48,0,1,,,,,,,,0,,,80,0
38988,note_on,48,0,3,,,,,,,,0,,,71,0
38988,note_on,48,0,2,,,,,,,,1,,,80,0
39000,note_on,12,0,2,,,,,,,,1,,,80,105
39000,note_on,12,0,1,,,,,,,,0,,,80,105
39000,note_on,12,0,3,,,,,,,,0,,,71,105
39000,note_on,24,0,4,,,,,,,,3,,,64,105
39048,note_on,48,0,4,,,,,,,,3,,,64,0
39060,note_on,12,0,4,,,,,,,,3,,,62,105
39072,note_on,0,0,7,,,,,,,,2,,,52,0
39072,note_on,0,0,7,,,,,,,,2,,,68,0
39072,note_on,192,0,5,,,,,,,,4,,,52,0
39072,note_on,192,0,7,,,,,,,,2,,,64,0
39072,note_on,0,0,7,,,,,,,,2,,,71,0
39096,note_on,96,0,2,,,,,,,,1,,,80,0
39096,note_on,96,0,1,,,,,,,,0,,,80,0
39096,note_on,96,0,3,,,,,,,,0,,,71,0
39108,note_on,48,0,4,,,,,,,,3,,,62,0
39120,note_on,12,0,4,,,,,,,,3,,,61,105
39180,note_on,84,0,3,,,,,,,,0,,,73,105
39180,note_on,84,0,1,,,,,,,,0,,,81,105
39180,note_on,84,0,2,,,,,,,,1,,,81,105
39216,note_on,96,0,4,,,,,,,,3,,,61,0
39228,note_on,48,0,3,,,,,,,,0,,,73,0
39228,note_on,48,0,1,,,,,,,,0,,,81,0
39228,note_on,48,0,2,,,,,,,,1,,,81,0
39240,note_on,24,0,4,,,,,,,,3,,,57,105
39240,note_on,0,0,7,,,,,,,,2,,,57,105
39240,note_on,12,0,3,,,,,,,,0,,,73,105
39240,note_on,12,0,1,,,,,,,,0,,,81,105
39240,note_on,168,0,5,,,,,,,,4,,,57,105
39240,note_on,12,0,2,,,,,,,,1,,,81,105
39240,note_on,168,0,7,,,,,,,,2,,,61,105
39336,note_on,96,0,2,,,,,,,,1,,,81,0
39336,note_on,96,0,4,,,,,,,,3,,,57,0
39336,note_on,96,0,3,,,,,,,,0,,,73,0
39336,note_on,96,0,5,,,,,,,,4,,,57,0
39336,note_on,96,0,1,,,,,,,,0,,,81,0
39336,note_on,0,0,7,,,,,,,,2,,,61,0
39336,note_on,96,0,7,,,,,,,,2,,,57,0
39360,note_on,0,0,7,,,,,,,,2,,,58,105
39360,note_on,24,0,7,,,,,,,,2,,,62,105
39360,note_on,24,0,5,,,,,,,,4,,,58,105
39420,note_on,84,0,1,,,,,,,,0,,,79,105
39420,note_on,84,0,3,,,,,,,,0,,,74,105
39420,note_on,84,0,2,,,,,,,,1,,,79,105
39456,note_on,96,0,5,,,,,,,,4,,,58,0
39456,note_on,96,0,7,,,,,,,,2,,,58,0
39468,note_on,48,0,1,,,,,,,,0,,,79,0
39468,note_on,48,0,2,,,,,,,,1,,,79,0
39468,note_on,48,0,3,,,,,,,,0,,,74,0
39480,note_on,144,0,4,,,,,,,,3,,,67,105
39480,note_on,24,0,5,,,,,,,,4,,,59,105
39480,note_on,12,0,1,,,,,,,,0,,,79,105
39480,note_on,12,0,3,,,,,,,,0,,,74,105
39480,note_on,12,0,2,,,,,,,,1,,,79,105
39480,note_on,24,0,7,,,,,,,,2,,,59,105
39552,note_on,72,0,7,,,,,,,,2,,,62,0
39576,note_on,96,0,4,,,,,,,,3,,,67,0
39576,note_on,96,0,5,,,,,,,,4,,,59,0
39576,note_on,24,0,7,,,,,,,,2,,,59,0
39576,note_on,96,0,2,,,,,,,,1,,,79,0
39576,note_on,96,0,1,,,,,,,,0,,,79,0
39576,note_on,96,0,3,,,,,,,,0,,,74,0
39600,note_on,24,0,7,,,,,,,,2,,,64,105
39600,note_on,0,0,7,,,,,,,,2,,,60,105
39600,note_on,24,0,5,,,,,,,,4,,,60,105
39600,note_on,24,0,4,,,,,,,,3,,,67,105
39660,note_on,84,0,1,,,,,,,,0,,,79,105
39660,note_on,84,0,2,,,,,,,,1,,,79,105
39696,note_on,96,0,4,,,,,,,,3,,,67,0
39696,note_on,96,0,5,,,,,,,,4,,,60,0
39696,note_on,96,0,7,,,,,,,,2,,,60,0
39708,note_on,48,0,2,,,,,,,,1,,,79,0
39708,note_on,48,0,1,,,,,,,,0,,,79,0
39720,note_on,12,0,1,,,,,,,,0,,,77,105
39720,note_on,24,0,4,,,,,,,,3,,,69,105
39720,note_on,24,0,7,,,,,,,,2,,,61,105
39720,note_on,24,0,5,,,,,,,,4,,,61,105
39720,note_on,144,0,3,,,,,,,,0,,,76,105
39720,note_on,12,0,2,,,,,,,,1,,,77,105
39768,note_on,48,0,1,,,,,,,,0,,,77,0
39768,note_on,48,0,2,,,,,,,,1,,,77,0
39780,note_on,12,0,2,,,,,,,,1,,,76,105
39780,note_on,12,0,1,,,,,,,,0,,,76,105
39792,note_on,72,0,7,,,,,,,,2,,,64,0
39816,note_on,96,0,4,,,,,,,,3,,,69,0
39816,note_on,96,0,5,,,,,,,,4,,,61,0
39816,note_on,24,0,7,,,,,,,,2,,,61,0
39816,note_on,96,0,3,,,,,,,,0,,,76,0
39828,note_on,48,0,2,,,,,,,,1,,,76,0
39828,note_on,48,0,1,,,,,,,,0,,,76,0
39840,note_on,24,0,4,,,,,,,,3,,,69,105
39840,note_on,24,0,3,,,,,,,,0,,,69,105
39840,note_on,12,0,2,,,,,,,,1,,,77,105
39840,note_on,24,0,5,,,,,,,,4,,,62,105
39840,note_on,24,0,7,,,,,,,,2,,,65,105
39840,note_on,0,0,7,,,,,,,,2,,,62,105
39840,note_on,12,0,1,,,,,,,,0,,,77,105
39888,note_on,48,0,2,,,,,,,,1,,,77,0
39888,note_on,48,0,3,,,,,,,,0,,,69,0
39888,note_on,48,0,1,,,,,,,,0,,,77,0
39900,note_on,12,0,2,,,,,,,,1,,,81,105
39900,note_on,12,0,3,,,,,,,,0,,,74,105
39900,note_on,12,0,1,,,,,,,,0,,,81,105
39936,note_on,96,0,4,,,,,,,,3,,,69,0
39948,note_on,48,0,2,,,,,,,,1,,,81,0
39948,note_on,48,0,1,,,,,,,,0,,,81,0
39948,note_on,48,0,3,,,,,,,,0,,,74,0
39960,note_on,12,0,3,,,,,,,,0,,,74,105
39960,note_on,24,0,4,,,,,,,,3,,,65,105
39960,note_on,12,0,2,,,,,,,,1,,,81,105
39960,note_on,12,0,1,,,,,,,,0,,,81,105
40008,note_on,48,0,4,,,,,,,,3,,,65,0
40020,note_on,12,0,4,,,,,,,,3,,,64,105
40032,note_on,0,0,7,,,,,,,,2,,,65,0
40032,note_on,192,0,7,,,,,,,,2,,,62,0
40032,note_on,192,0,5,,,,,,,,4,,,62,0
40056,note_on,96,0,3,,,,,,,,0,,,74,0
40056,note_on,96,0,1,,,,,,,,0,,,81,0
40056,note_on,96,0,2,,,,,,,,1,,,81,0
40068,note_on,48,0,4,,,,,,,,3,,,64,0
40080,note_on,12,0,4,,,,,,,,3,,,63,105
40140,note_on,84,0,1,,,,,,,,0,,,83,105
40140,note_on,84,0,2,,,,,,,,1,,,83,105
40140,note_on,84,0,3,,,,,,,,0,,,75,105
40176,note_on,96,0,4,,,,,,,,3,,,63,0
40188,note_on,48,0,1,,,,,,,,0,,,83,0
40188,note_on,48,0,2,,,,,,,,1,,,83,0
40188,note_on,48,0,3,,,,,,,,0,,,75,0
40200,note_on,12,0,3,,,,,,,,0,,,75,105
40200,note_on,168,0,7,,,,,,,,2,,,63,105
40200,note_on,0,0,7,,,,,,,,2,,,59,105
40200,note_on,12,0,2,,,,,,,,1,,,83,105
40200,note_on,168,0,5,,,,,,,,4,,,59,105
40200,note_on,24,0,4,,,,,,,,3,,,59,105
40200,note_on,12,0,1,,,,,,,,0,,,83,105
40296,note_on,96,0,3,,,,,,,,0,,,75,0
40296,note_on,96,0,2,,,,,,,,1,,,83,0
40296,note_on,96,0,5,,,,,,,,4,,,59,0
40296,note_on,96,0,7,,,,,,,,2,,,59,0
40296,note_on,0,0,7,,,,,,,,2,,,63,0
40296,note_on,96,0,4,,,,,,,,3,,,59,0
40296,note_on,96,0,1,,,,,,,,0,,,83,0
40320,note_on,0,0,7,,,,,,,,2,,,60,105
40320,note_on,24,0,7,,,,,,,,2,,,64,105
40320,note_on,24,0,5,,,,,,,,4,,,60,105
40380,note_on,84,0,3,,,,,,,,0,,,76,105
40380,note_on,84,0,1,,,,,,,,0,,,81,105
40380,note_on,84,0,2,,,,,,,,1,,,81,105
40416,note_on,96,0,7,,,,,,,,2,,,60,0
40416,note_on,96,0,5,,,,,,,,4,,,60,0
40428,note_on,48,0,1,,,,,,,,0,,,81,0
40428,note_on,48,0,3,,,,,,,,0,,,76,0
40428,note_on,48,0,2,,,,,,,,1,,,81,0
40440,note_on,144,0,4,,,,,,,,3,,,69,105
40440,note_on,24,0,7,,,,,,,,2,,,61,105
40440,note_on,24,0,5,,,,,,,,4,,,61,105
40440,note_on,12,0,1,,,,,,,,0,,,81,105
40440,note_on,12,0,3,,,,,,,,0,,,76,105
40440,note_on,12,0,2,,,,,,,,1,,,81,105
40512,note_on,72,0,7,,,,,,,,2,,,64,0
40536,note_on,96,0,4,,,,,,,,3,,,69,0
40536,note_on,96,0,1,,,,,,,,0,,,81,0
40536,note_on,96,0,2,,,,,,,,1,,,81,0
40536,note_on,24,0,7,,,,,,,,2,,,61,0
40536,note_on,96,0,3,,,,,,,,0,,,76,0
40536,note_on,96,0,5,,,,,,,,4,,,61,0
40560,note_on,0,0,7,,,,,,,,2,,,62,105
40560,note_on,24,0,7,,,,,,,,2,,,66,105
40560,note_on,24,0,5,,,,,,,,4,,,62,105
40560,note_on,24,0,4,,,,,,,,3,,,69,105
40620,note_on,84,0,1,,,,,,,,0,,,81,105
40620,note_on,84,0,2,,,,,,,,1,,,81,105
40656,note_on,96,0,5,,,,,,,,4,,,62,0
40656,note_on,96,0,7,,,,,,,,2,,,62,0
40656,note_on,96,0,4,,,,,,,,3,,,69,0
40668,note_on,48,0,2,,,,,,,,1,,,81,0
40668,note_on,48,0,1,,,,,,,,0,,,81,0
40680,note_on,24,0,5,,,,,,,,4,,,63,105
40680,note_on,144,0,3,,,,,,,,0,,,78,105
40680,note_on,24,0,4,,,,,,,,3,,,71,105
40680,note_on,12,0,2,,,,,,,,1,,,80,105
40680,note_on,24,0,7,,,,,,,,2,,,63,105
40680,note_on,12,0,1,,,,,,,,0,,,80,105
40728,note_on,48,0,1,,,,,,,,0,,,80,0
40728,note_on,48,0,2,,,,,,,,1,,,80,0
40740,note_on,12,0,2,,,,,,,,1,,,78,105
40740,note_on,12,0,1,,,,,,,,0,,,78,105
40752,note_on,72,0,7,,,,,,,,2,,,66,0
40776,note_on,96,0,4,,,,,,,,3,,,71,0
40776,note_on,96,0,3,,,,,,,,0,,,78,0
40776,note_on,24,0,7,,,,,,,,2,,,63,0
40776,note_on,96,0,5,,,,,,,,4,,,63,0
40788,note_on,48,0,1,,,,,,,,0,,,78,0
40788,note_on,48,0,2,,,,,,,,1,,,78,0
40800,note_on,12,0,2,,,,,,,,1,,,80,105
40800,note_on,24,0,4,,,,,,,,3,,,71,105
40800,note_on,24,0,3,,,,,,,,0,,,71,105
40800,note_on,24,0,7,,,,,,,,2,,,68,105
40800,note_on,0,0,7,,,,,,,,2,,,64,105
40800,note_on,12,0,1,,,,,,,,0,,,80,105
40800,note_on,24,0,5,,,,,,,,4,,,64,105
40848,note_on,48,0,7,,,,,,,,2,,,64,0
40848,note_on,48,0,5,,,,,,,,4,,,64,0
40860,note_on,12,0,5,,,,,,,,4,,,62,105
40860,note_on,12,0,7,,,,,,,,2,,,62,105
40896,note_on,96,0,4,,,,,,,,3,,,71,0
40896,note_on,96,0,1,,,,,,,,0,,,80,0
40896,note_on,96,0,2,,,,,,,,1,,,80,0
40896,note_on,36,0,7,,,,,,,,2,,,68,0
40896,note_on,96,0,3,,,,,,,,0,,,71,0
40908,note_on,48,0,5,,,,,,,,4,,,62,0
40908,note_on,12,0,7,,,,,,,,2,,,62,0
40920,note_on,24,0,4,,,,,,,,3,,,64,105
40920,note_on,0,0,7,,,,,,,,2,,,60,105
40920,note_on,12,0,7,,,,,,,,2,,,69,105
40920,note_on,12,0,5,,,,,,,,4,,,60,105
40920,note_on,24,0,2,,,,,,,,1,,,81,105
40920,note_on,24,0,3,,,,,,,,0,,,72,105
40920,note_on,24,0,1,,,,,,,,0,,,81,105
40968,note_on,48,0,5,,,,,,,,4,,,60,0
40968,note_on,48,0,7,,,,,,,,2,,,60,0
40980,note_on,12,0,7,,,,,,,,2,,,59,105
40980,note_on,12,0,5,,,,,,,,4,,,59,105
41016,note_on,36,0,7,,,,,,,,2,,,69,0
41016,note_on,96,0,1,,,,,,,,0,,,81,0
41016,note_on,96,0,3,,,,,,,,0,,,72,0
41016,note_on,96,0,2,,,,,,,,1,,,81,0
41016,note_on,96,0,4,,,,,,,,3,,,64,0
41028,note_on,12,0,7,,,,,,,,2,,,59,0
41028,note_on,48,0,5,,,,,,,,4,,,59,0
41040,note_on,0,0,7,,,,,,,,2,,,69,105
41040,note_on,0,0,7,,,,,,,,2,,,64,105
41040,note_on,12,0,7,,,,,,,,2,,,60,105
41040,note_on,12,0,5,,,,,,,,4,,,60,105
41088,note_on,48,0,5,,,,,,,,4,,,60,0
41088,note_on,48,0,7,,,,,,,,2,,,60,0
41100,note_on,12,0,5,,,,,,,,4,,,57,105
41100,note_on,12,0,7,,,,,,,,2,,,57,105
41136,note_on,36,0,7,,,,,,,,2,,,69,0
41148,note_on,48,0,5,,,,,,,,4,,,57,0
41148,note_on,12,0,7,,,,,,,,2,,,57,0
41160,note_on,144,0,2,,,,,,,,1,,,76,105
41160,note_on,12,0,5,,,,,,,,4,,,52,105
41160,note_on,0,0,7,,,,,,,,2,,,52,105
41160,note_on,144,0,4,,,,,,,,3,,,72,105
41160,note_on,12,0,7,,,,,,,,2,,,72,105
41160,note_on,144,0,1,,,,,,,,0,,,76,105
41160,note_on,144,0,3,,,,,,,,0,,,81,105
41208,note_on,48,0,7,,,,,,,,2,,,52,0
41208,note_on,48,0,5,,,,,,,,4,,,52,0
41220,note_on,12,0,7,,,,,,,,2,,,48,105
41220,note_on,12,0,5,,,,,,,,4,,,48,105
41232,note_on,12,0,7,,,,,,,,2,,,64,0
41256,note_on,96,0,1,,,,,,,,0,,,76,0
41256,note_on,96,0,3,,,,,,,,0,,,81,0
41256,note_on,24,0,7,,,,,,,,2,,,72,0
41256,note_on,96,0,2,,,,,,,,1,,,76,0
41256,note_on,96,0,4,,,,,,,,3,,,72,0
41268,note_on,48,0,5,,,,,,,,4,,,48,0
41268,note_on,12,0,7,,,,,,,,2,,,48,0
41280,note_on,0,0,7,,,,,,,,2,,,64,105
41280,note_on,12,0,7,,,,,,,,2,,,76,105
41280,note_on,0,0,7,,,,,,,,2,,,45,105
41280,note_on,0,0,7,,,,,,,,2,,,72,105
41280,note_on,12,0,5,,,,,,,,4,,,45,105
41376,note_on,0,0,7,,,,,,,,2,,,76,0
41376,note_on,0,0,7,,,,,,,,2,,,45,0
41376,note_on,0,0,7,,,,,,,,2,,,64,0
41376,note_on,96,0,5,,,,,,,,4,,,45,0
41376,note_on,96,0,7,,,,,,,,2,,,72,0
41400,note_on,144,0,4,,,,,,,,3,,,64,105
41400,note_on,144,0,3,,,,,,,,0,,,69,105
41400,note_on,144,0,2,,,,,,,,1,,,72,105
41400,note_on,24,0,5,,,,,,,,4,,,57,105
41400,note_on,24,0,7,,,,,,,,2,,,57,105
41400,note_on,144,0,1,,,,,,,,0,,,72,105
41496,note_on,96,0,7,,,,,,,,2,,,57,0
41496,note_on,96,0,2,,,,,,,,1,,,72,0
41496,note_on,96,0,4,,,,,,,,3,,,64,0
41496,note_on,96,0,5,,,,,,,,4,,,57,0
41496,note_on,96,0,3,,,,,,,,0,,,69,0
41496,note_on,96,0,1,,,,,,,,0,,,72,0
41520,note_on,24,0,1,,,,,,,,0,,,74,105
41520,note_on,24,0,2,,,,,,,,1,,,74,105
41520,note_on,24,0,3,,,,,,,,0,,,71,105
41520,note_on,24,0,5,,,,,,,,4,,,50,105
41520,note_on,0,0,7,,,,,,,,2,,,50,105
41520,note_on,24,0,4,,,,,,,,3,,,65,105
41520,note_on,0,0,7,,,,,,,,2,,,65,105
41520,note_on,24,0,7,,,,,,,,2,,,71,105
41616,note_on,0,0,7,,,,,,,,2,,,50,0
41616,note_on,96,0,7,,,,,,,,2,,,65,0
41616,note_on,96,0,5,,,,,,,,4,,,50,0
41616,note_on,96,0,1,,,,,,,,0,,,74,0
41616,note_on,96,0,4,,,,,,,,3,,,65,0
41616,note_on,0,0,7,,,,,,,,2,,,71,0
41616,note_on,96,0,3,,,,,,,,0,,,71,0
41616,note_on,96,0,2,,,,,,,,1,,,74,0
41640,note_on,24,0,5,,,,,,,,4,,,52,105
41640,note_on,0,0,7,,,,,,,,2,,,59,105
41640,note_on,0,0,7,,,,,,,,2,,,68,105
41640,note_on,24,0,1,,,,,,,,0,,,72,105
41640,note_on,24,0,7,,,,,,,,2,,,52,105
41640,note_on,24,0,3,,,,,,,,0,,,69,105
41640,note_on,24,0,2,,,,,,,,1,,,72,105
41640,note_on,24,0,4,,,,,,,,3,,,64,105
41688,note_on,48,0,3,,,,,,,,0,,,69,0
41688,note_on,48,0,2,,,,,,,,1,,,72,0
41688,note_on,48,0,1,,,,,,,,0,,,72,0
41700,note_on,12,0,2,,,,,,,,1,,,71,105
41700,note_on,12,0,3,,,,,,,,0,,,68,105
41700,note_on,12,0,1,,,,,,,,0,,,71,105
41736,note_on,0,0,7,,,,,,,,2,,,59,0
41736,note_on,96,0,4,,,,,,,,3,,,64,0
41736,note_on,0,0,7,,,,,,,,2,,,52,0
41736,note_on,96,0,7,,,,,,,,2,,,68,0
41736,note_on,96,0,5,,,,,,,,4,,,52,0
41748,note_on,48,0,3,,,,,,,,0,,,68,0
41748,note_on,48,0,1,,,,,,,,0,,,71,0
41748,note_on,48,0,2,,,,,,,,1,,,71,0
41760,note_on,0,0,7,,,,,,,,2,,,69,105
41760,note_on,24,0,7,,,,,,,,2,,,57,105
41760,note_on,0,0,7,,,,,,,,2,,,60,105
41760,note_on,24,0,5,,,,,,,,4,,,57,105
41760,note_on,12,0,2,,,,,,,,1,,,72,105
41760,note_on,24,0,4,,,,,,,,3,,,64,105
41760,note_on,12,0,3,,,,,,,,0,,,69,105
41760,note_on,12,0,1,,,,,,,,0,,,72,105
41808,note_on,48,0,5,,,,,,,,4,,,57,0
41808,note_on,48,0,7,,,,,,,,2,,,57,0
41820,note_on,12,0,5,,,,,,,,4,,,56,105
41820,note_on,12,0,7,,,,,,,,2,,,56,105
41856,note_on,96,0,4,,,,,,,,3,,,64,0
41856,note_on,96,0,1,,,,,,,,0,,,72,0
41856,note_on,96,0,2,,,,,,,,1,,,72,0
41856,note_on,96,0,3,,,,,,,,0,,,69,0
41856,note_on,36,0,7,,,,,,,,2,,,69,0
41868,note_on,12,0,7,,,,,,,,2,,,56,0
41868,note_on,48,0,5,,,,,,,,4,,,56,0
41880,note_on,12,0,7,,,,,,,,2,,,64,105
41880,note_on,0,0,7,,,,,,,,2,,,57,105
41880,note_on,12,0,5,,,,,,,,4,,,57,105
41880,note_on,24,0,4,,,,,,,,3,,,64,105
41880,note_on,24,0,2,,,,,,,,1,,,81,105
41880,note_on,24,0,3,,,,,,,,0,,,72,105
41880,note_on,24,0,1,,,,,,,,0,,,81,105
41928,note_on,48,0,7,,,,,,,,2,,,57,0
41928,note_on,48,0,5,,,,,,,,4,,,57,0
41940,note_on,12,0,7,,,,,,,,2,,,59,105
41940,note_on,12,0,5,,,,,,,,4,,,59,105
41952,note_on,12,0,7,,,,,,,,2,,,60,0
41976,note_on,96,0,4,,,,,,,,3,,,64,0
41976,note_on,96,0,2,,,,,,,,1,,,81,0
41976,note_on,24,0,7,,,,,,,,2,,,64,0
41976,note_on,96,0,3,,,,,,,,0,,,72,0
41976,note_on,96,0,1,,,,,,,,0,,,81,0
41988,note_on,12,0,7,,,,,,,,2,,,59,0
41988,note_on,48,0,5,,,,,,,,4,,,59,0
42000,note_on,0,0,7,,,,,,,,2,,,69,105
42000,note_on,0,0,7,,,,,,,,2,,,64,105
42000,note_on,12,0,5,,,,,,,,4,,,60,105
42000,note_on,12,0,7,,,,,,,,2,,,60,105
42048,note_on,48,0,5,,,,,,,,4,,,60,0
42048,note_on,48,0,7,,,,,,,,2,,,60,0
42060,note_on,12,0,7,,,,,,,,2,,,57,105
42060,note_on,12,0,5,,,,,,,,4,,,57,105
42096,note_on,36,0,7,,,,,,,,2,,,69,0
42108,note_on,48,0,5,,,,,,,,4,,,57,0
42108,note_on,12,0,7,,,,,,,,2,,,57,0
42120,note_on,144,0,3,,,,,,,,0,,,81,105
42120,note_on,144,0,2,,,,,,,,1,,,76,105
42120,note_on,12,0,5,,,,,,,,4,,,52,105
42120,note_on,144,0,1,,,,,,,,0,,,76,105
42120,note_on,12,0,7,,,,,,,,2,,,72,105
42120,note_on,0,0,7,,,,,,,,2,,,52,105
42120,note_on,144,0,4,,,,,,,,3,,,72,105
42168,note_on,48,0,7,,,,,,,,2,,,52,0
42168,note_on,48,0,5,,,,,,,,4,,,52,0
42180,note_on,12,0,7,,,,,,,,2,,,48,105
42180,note_on,12,0,5,,,,,,,,4,,,48,105
42192,note_on,12,0,7,,,,,,,,2,,,64,0
42216,note_on,24,0,7,,,,,,,,2,,,72,0
42216,note_on,96,0,4,,,,,,,,3,,,72,0
42216,note_on,96,0,3,,,,,,,,0,,,81,0
42216,note_on,96,0,1,,,,,,,,0,,,76,0
42216,note_on,96,0,2,,,,,,,,1,,,76,0
42228,note_on,48,0,5,,,,,,,,4,,,48,0
42228,note_on,12,0,7,,,,,,,,2,,,48,0
42240,note_on,12,0,7,,,,,,,,2,,,76,105
42240,note_on,0,0,7,,,,,,,,2,,,45,105
42240,note_on,0,0,7,,,,,,,,2,,,64,105
42240,note_on,12,0,5,,,,,,,,4,,,45,105
42240,note_on,0,0,7,,,,,,,,2,,,72,105
42336,note_on,0,0,7,,,,,,,,2,,,64,0
42336,note_on,0,0,7,,,,,,,,2,,,72,0
42336,note_on,0,0,7,,,,,,,,2,,,76,0
42336,note_on,96,0,5,,,,,,,,4,,,45,0
42336,note_on,96,0,7,,,,,,,,2,,,45,0
42360,note_on,144,0,3,,,,,,,,0,,,69,105
42360,note_on,144,0,4,,,,,,,,3,,,64,105
42360,note_on,144,0,1,,,,,,,,0,,,72,105
42360,note_on,144,0,2,,,,,,,,1,,,72,105
42360,note_on,24,0,7,,,,,,,,2,,,57,105
42360,note_on,24,0,5,,,,,,,,4,,,57,105
42456,note_on,96,0,5,,,,,,,,4,,,57,0
42456,note_on,96,0,2,,,,,,,,1,,,72,0
42456,note_on,96,0,1,,,,,,,,0,,,72,0
42456,note_on,96,0,3,,,,,,,,0,,,69,0
42456,note_on,96,0,4,,,,,,,,3,,,64,0
42456,note_on,96,0,7,,,,,,,,2,,,57,0
42480,note_on,24,0,4,,,,,,,,3,,,65,105
42480,note_on,0,0,7,,,,,,,,2,,,50,105
42480,note_on,0,0,7,,,,,,,,2,,,71,105
42480,note_on,24,0,5,,,,,,,,4,,,50,105
42480,note_on,24,0,2,,,,,,,,1,,,74,105
42480,note_on,24,0,7,,,,,,,,2,,,65,105
42480,note_on,24,0,3,,,,,,,,0,,,71,105
42480,note_on,24,0,1,,,,,,,,0,,,74,105
42576,note_on,96,0,5,,,,,,,,4,,,50,0
42576,note_on,0,0,7,,,,,,,,2,,,65,0
42576,note_on,96,0,4,,,,,,,,3,,,65,0
42576,note_on,0,0,7,,,,,,,,2,,,50,0
42576,note_on,96,0,3,,,,,,,,0,,,71,0
42576,note_on,96,0,2,,,,,,,,1,,,74,0
42576,note_on,96,0,1,,,,,,,,0,,,74,0
42576,note_on,96,0,7,,,,,,,,2,,,71,0
42600,note_on,24,0,7,,,,,,,,2,,,59,105
42600,note_on,24,0,2,,,,,,,,1,,,72,105
42600,note_on,24,0,3,,,,,,,,0,,,69,105
42600,note_on,24,0,4,,,,,,,,3,,,64,105
42600,note_on,0,0,7,,,,,,,,2,,,68,105
42600,note_on,0,0,7,,,,,,,,2,,,52,105
42600,note_on,24,0,1,,,,,,,,0,,,72,105
42600,note_on,24,0,5,,,,,,,,4,,,52,105
42648,note_on,48,0,2,,,,,,,,1,,,72,0
42648,note_on,48,0,3,,,,,,,,0,,,69,0
42648,note_on,48,0,1,,,,,,,,0,,,72,0
42660,note_on,12,0,1,,,,,,,,0,,,71,105
42660,note_on,12,0,3,,,,,,,,0,,,68,105
42660,note_on,12,0,2,,,,,,,,1,,,71,105
42696,note_on,96,0,4,,,,,,,,3,,,64,0
42696,note_on,96,0,5,,,,,,,,4,,,52,0
42696,note_on,96,0,7,,,,,,,,2,,,68,0
42696,note_on,0,0,7,,,,,,,,2,,,52,0
42696,note_on,0,0,7,,,,,,,,2,,,59,0
42708,note_on,48,0,3,,,,,,,,0,,,68,0
42708,note_on,48,0,2,,,,,,,,1,,,71,0
42708,note_on,48,0,1,,,,,,,,0,,,71,0
42720,note_on,12,0,3,,,,,,,,0,,,69,105
42720,note_on,0,0,7,,,,,,,,2,,,45,105
42720,note_on,0,0,7,,,,,,,,2,,,69,105
42720,note_on,12,0,2,,,,,,,,1,,,69,105
42720,note_on,24,0,5,,,,,,,,4,,,45,105
42720,note_on,24,0,4,,,,,,,,3,,,64,105
42720,note_on,24,0,7,,,,,,,,2,,,60,105
42720,note_on,12,0,1,,,,,,,,0,,,69,105
42768,note_on,48,0,1,,,,,,,,0,,,69,0
42780,note_on,12,0,1,,,,,,,,0,,,72,105
42828,note_on,48,0,1,,,,,,,,0,,,72,0
42840,note_on,12,0,1,,,,,,,,0,,,71,105
42888,note_on,48,0,1,,,,,,,,0,,,71,0
42900,note_on,12,0,1,,,,,,,,0,,,69,105
42912,note_on,192,0,4,,,,,,,,3,,,64,0
42912,note_on,0,0,7,,,,,,,,2,,,60,0
42912,note_on,0,0,7,,,,,,,,2,,,45,0
42912,note_on,192,0,7,,,,,,,,2,,,69,0
42912,note_on,192,0,2,,,,,,,,1,,,69,0
42912,note_on,192,0,5,,,,,,,,4,,,45,0
42912,note_on,192,0,3,,,,,,,,0,,,69,0
42948,note_on,48,0,1,,,,,,,,0,,,69,0
42960,note_on,12,0,1,,,,,,,,0,,,76,105
43008,note_on,48,0,1,,,,,,,,0,,,76,0
43020,note_on,12,0,1,,,,,,,,0,,,72,105
43068,note_on,48,0,1,,,,,,,,0,,,72,0
43080,note_on,12,0,1,,,,,,,,0,,,71,105
43128,note_on,48,0,1,,,,,,,,0,,,71,0
43140,note_on,12,0,1,,,,,,,,0,,,69,105
43188,note_on,48,0,1,,,,,,,,0,,,69,0
43200,note_on,12,0,1,,,,,,,,0,,,64,105
43200,note_on,288,0,5,,,,,,,,4,,,45,105
43200,note_on,288,0,7,,,,,,,,2,,,72,105
43200,note_on,0,0,7,,,,,,,,2,,,69,105
43200,note_on,0,0,7,,,,,,,,2,,,64,105
43200,note_on,0,0,7,,,,,,,,2,,,45,105
43248,note_on,48,0,1,,,,,,,,0,,,64,0
43260,note_on,12,0,1,,,,,,,,0,,,72,105
43308,note_on,48,0,1,,,,,,,,0,,,72,0
43320,note_on,12,0,1,,,,,,,,0,,,71,105
43368,note_on,48,0,1,,,,,,,,0,,,71,0
43380,note_on,12,0,1,,,,,,,,0,,,69,105
43392,note_on,0,0,7,,,,,,,,2,,,72,0
43392,note_on,0,0,7,,,,,,,,2,,,69,0
43392,note_on,192,0,5,,,,,,,,4,,,45,0
43392,note_on,0,0,7,,,,,,,,2,,,45,0
43392,note_on,192,0,7,,,,,,,,2,,,64,0
43428,note_on,48,0,1,,,,,,,,0,,,69,0
43440,note_on,12,0,1,,,,,,,,0,,,76,105
43488,note_on,48,0,1,,,,,,,,0,,,76,0
43500,note_on,12,0,1,,,,,,,,0,,,72,105
43548,note_on,48,0,1,,,,,,,,0,,,72,0
43560,note_on,12,0,1,,,,,,,,0,,,71,105
43608,note_on,48,0,1,,,,,,,,0,,,71,0
43620,note_on,12,0,1,,,,,,,,0,,,69,105
43668,note_on,48,0,1,,,,,,,,0,,,69,0
43680,note_on,12,0,1,,,,,,,,0,,,80,105
43680,note_on,0,0,7,,,,,,,,2,,,52,105
43680,note_on,0,0,7,,,,,,,,2,,,68,105
43680,note_on,0,0,7,,,,,,,,2,,,64,105
43680,note_on,288,0,7,,,,,,,,2,,,71,105
43680,note_on,288,0,5,,,,,,,,4,,,52,105
43728,note_on,48,0,1,,,,,,,,0,,,80,0
43740,note_on,12,0,1,,,,,,,,0,,,74,105
43788,note_on,48,0,1,,,,,,,,0,,,74,0
43800,note_on,12,0,1,,,,,,,,0,,,72,105
43848,note_on,48,0,1,,,,,,,,0,,,72,0
43860,note_on,12,0,1,,,,,,,,0,,,71,105
43872,note_on,0,0,7,,,,,,,,2,,,68,0
43872,note_on,192,0,7,,,,,,,,2,,,52,0
43872,note_on,0,0,7,,,,,,,,2,,,71,0
43872,note_on,0,0,7,,,,,,,,2,,,64,0
43872,note_on,192,0,5,,,,,,,,4,,,52,0
43908,note_on,48,0,1,,,,,,,,0,,,71,0
43920,note_on,12,0,1,,,,,,,,0,,,83,105
43968,note_on,48,0,1,,,,,,,,0,,,83,0
43980,note_on,12,0,1,,,,,,,,0,,,74,105
44028,note_on,48,0,1,,,,,,,,0,,,74,0
44040,note_on,12,0,1,,,,,,,,0,,,72,105
44088,note_on,48,0,1,,,,,,,,0,,,72,0
44100,note_on,12,0,1,,,,,,,,0,,,71,105
44148,note_on,48,0,1,,,,,,,,0,,,71,0
44160,note_on,12,0,1,,,,,,,,0,,,64,105
44160,note_on,0,0,7,,,,,,,,2,,,59,105
44160,note_on,0,0,7,,,,,,,,2,,,52,105
44160,note_on,0,0,7,,,,,,,,2,,,64,105
44160,note_on,288,0,7,,,,,,,,2,,,68,105
44160,note_on,288,0,5,,,,,,,,4,,,52,105
44208,note_on,48,0,1,,,,,,,,0,,,64,0
44220,note_on,12,0,1,,,,,,,,0,,,74,105
44268,note_on,48,0,1,,,,,,,,0,,,74,0
44280,note_on,12,0,1,,,,,,,,0,,,72,105
44328,note_on,48,0,1,,,,,,,,0,,,72,0
44340,note_on,12,0,1,,,,,,,,0,,,71,105
44352,note_on,192,0,7,,,,,,,,2,,,59,0
44352,note_on,0,0,7,,,,,,,,2,,,64,0
44352,note_on,0,0,7,,,,,,,,2,,,68,0
44352,note_on,0,0,7,,,,,,,,2,,,52,0
44352,note_on,192,0,5,,,,,,,,4,,,52,0
44388,note_on,48,0,1,,,,,,,,0,,,71,0
44400,note_on,12,0,1,,,,,,,,0,,,83,105
44448,note_on,48,0,1,,,,,,,,0,,,83,0
44460,note_on,12,0,1,,,,,,,,0,,,74,105
44508,note_on,48,0,1,,,,,,,,0,,,74,0
44520,note_on,12,0,1,,,,,,,,0,,,72,105
44568,note_on,48,0,1,,,,,,,,0,,,72,0
44580,note_on,12,0,1,,,,,,,,0,,,71,105
44628,note_on,48,0,1,,,,,,,,0,,,71,0
44640,note_on,0,0,7,,,,,,,,2,,,64,105
44640,note_on,0,0,7,,,,,,,,2,,,60,105
44640,note_on,288,0,7,,,,,,,,2,,,69,105
44640,note_on,12,0,1,,,,,,,,0,,,72,105
44640,note_on,288,0,5,,,,,,,,4,,,45,105
44640,note_on,0,0,7,,,,,,,,2,,,45,105
44688,note_on,48,0,1,,,,,,,,0,,,72,0
44700,note_on,12,0,1,,,,,,,,0,,,84,105
44748,note_on,48,0,1,,,,,,,,0,,,84,0
44760,note_on,12,0,1,,,,,,,,0,,,83,105
44808,note_on,48,0,1,,,,,,,,0,,,83,0
44820,note_on,12,0,1,,,,,,,,0,,,81,105
44832,note_on,192,0,5,,,,,,,,4,,,45,0
44832,note_on,0,0,7,,,,,,,,2,,,64,0
44832,note_on,0,0,7,,,,,,,,2,,,60,0
44832,note_on,0,0,7,,,,,,,,2,,,69,0
44832,note_on,192,0,7,,,,,,,,2,,,45,0
44868,note_on,48,0,1,,,,,,,,0,,,81,0
44880,note_on,12,0,1,,,,,,,,0,,,88,105
44928,note_on,48,0,1,,,,,,,,0,,,88,0
44940,note_on,12,0,1,,,,,,,,0,,,84,105
44988,note_on,48,0,1,,,,,,,,0,,,84,0
45000,note_on,12,0,1,,,,,,,,0,,,83,105
45048,note_on,48,0,1,,,,,,,,0,,,83,0
45060,note_on,12,0,1,,,,,,,,0,,,81,105
45108,note_on,48,0,1,,,,,,,,0,,,81,0
45120,note_on,12,0,1,,,,,,,,0,,,76,105
45120,note_on,288,0,7,,,,,,,,2,,,72,105
45120,note_on,0,0,7,,,,,,,,2,,,69,105
45120,note_on,0,0,7,,,,,,,,2,,,45,105
45120,note_on,0,0,7,,,,,,,,2,,,64,105
45120,note_on,288,0,5,,,,,,,,4,,,45,105
45168,note_on,48,0,1,,,,,,,,0,,,76,0
45180,note_on,12,0,1,,,,,,,,0,,,84,105
45228,note_on,48,0,1,,,,,,,,0,,,84,0
45240,note_on,12,0,1,,,,,,,,0,,,83,105
45288,note_on,48,0,1,,,,,,,,0,,,83,0
45300,note_on,12,0,1,,,,,,,,0,,,81,105
45312,note_on,0,0,7,,,,,,,,2,,,69,0
45312,note_on,0,0,7,,,,,,,,2,,,72,0
45312,note_on,0,0,7,,,,,,,,2,,,45,0
45312,note_on,192,0,7,,,,,,,,2,,,64,0
45312,note_on,192,0,5,,,,,,,,4,,,45,0
45348,note_on,48,0,1,,,,,,,,0,,,81,0
45360,note_on,12,0,1,,,,,,,,0,,,88,105
45408,note_on,48,0,1,,,,,,,,0,,,88,0
45420,note_on,12,0,1,,,,,,,,0,,,84,105
45468,note_on,48,0,1,,,,,,,,0,,,84,0
45480,note_on,12,0,1,,,,,,,,0,,,83,105
45528,note_on,48,0,1,,,,,,,,0,,,83,0
45540,note_on,12,0,1,,,,,,,,0,,,81,105
45588,note_on,48,0,1,,,,,,,,0,,,81,0
45600,note_on,0,0,7,,,,,,,,2,,,50,105
45600,note_on,0,0,7,,,,,,,,2,,,69,105
45600,note_on,0,0,7,,,,,,,,2,,,65,105
45600,note_on,288,0,5,,,,,,,,4,,,50,105
45600,note_on,288,0,7,,,,,,,,2,,,74,105
45600,note_on,12,0,1,,,,,,,,0,,,74,105
45648,note_on,48,0,1,,,,,,,,0,,,74,0
45660,note_on,12,0,1,,,,,,,,0,,,77,105
45708,note_on,48,0,1,,,,,,,,0,,,77,0
45720,note_on,12,0,1,,,,,,,,0,,,76,105
45768,note_on,48,0,1,,,,,,,,0,,,76,0
45780,note_on,12,0,1,,,,,,,,0,,,74,105
45792,note_on,192,0,5,,,,,,,,4,,,50,0
45792,note_on,0,0,7,,,,,,,,2,,,69,0
45792,note_on,0,0,7,,,,,,,,2,,,65,0
45792,note_on,0,0,7,,,,,,,,2,,,74,0
45792,note_on,192,0,7,,,,,,,,2,,,50,0
45828,note_on,48,0,1,,,,,,,,0,,,74,0
45840,note_on,12,0,1,,,,,,,,0,,,81,105
45888,note_on,48,0,1,,,,,,,,0,,,81,0
45900,note_on,12,0,1,,,,,,,,0,,,77,105
45948,note_on,48,0,1,,,,,,,,0,,,77,0
45960,note_on,12,0,1,,,,,,,,0,,,76,105
46008,note_on,48,0,1,,,,,,,,0,,,76,0
46020,note_on,12,0,1,,,,,,,,0,,,74,105
46068,note_on,48,0,1,,,,,,,,0,,,74,0
46080,note_on,12,0,1,,,,,,,,0,,,69,105
46080,note_on,0,0,7,,,,,,,,2,,,69,105
46080,note_on,0,0,7,,,,,,,,2,,,50,105
46080,note_on,0,0,7,,,,,,,,2,,,65,105
46080,note_on,288,0,7,,,,,,,,2,,,74,105
46080,note_on,288,0,5,,,,,,,,4,,,50,105
46128,note_on,48,0,1,,,,,,,,0,,,69,0
46140,note_on,12,0,1,,,,,,,,0,,,77,105
46188,note_on,48,0,1,,,,,,,,0,,,77,0
46200,note_on,12,0,1,,,,,,,,0,,,76,105
46248,note_on,48,0,1,,,,,,,,0,,,76,0
46260,note_on,12,0,1,,,,,,,,0,,,74,105
46272,note_on,0,0,7,,,,,,,,2,,,50,0
46272,note_on,0,0,7,,,,,,,,2,,,65,0
46272,note_on,192,0,5,,,,,,,,4,,,50,0
46272,note_on,192,0,7,,,,,,,,2,,,69,0
46272,note_on,0,0,7,,,,,,,,2,,,74,0
46308,note_on,48,0,1,,,,,,,,0,,,74,0
46320,note_on,12,0,1,,,,,,,,0,,,81,105
46368,note_on,48,0,1,,,,,,,,0,,,81,0
46380,note_on,12,0,1,,,,,,,,0,,,77,105
46428,note_on,48,0,1,,,,,,,,0,,,77,0
46440,note_on,12,0,1,,,,,,,,0,,,76,105
46488,note_on,48,0,1,,,,,,,,0,,,76,0
46500,note_on,12,0,1,,,,,,,,0,,,74,105
46548,note_on,48,0,1,,,,,,,,0,,,74,0
46560,note_on,288,0,5,,,,,,,,4,,,49,105
46560,note_on,12,0,1,,,,,,,,0,,,69,105
46560,note_on,0,0,7,,,,,,,,2,,,69,105
46560,note_on,0,0,7,,,,,,,,2,,,49,105
46560,note_on,288,0,7,,,,,,,,2,,,76,105
46608,note_on,48,0,1,,,,,,,,0,,,69,0
46620,note_on,12,0,1,,,,,,,,0,,,73,105
46668,note_on,48,0,1,,,,,,,,0,,,73,0
46680,note_on,12,0,1,,,,,,,,0,,,71,105
46728,note_on,48,0,1,,,,,,,,0,,,71,0
46740,note_on,12,0,1,,,,,,,,0,,,69,105
46752,note_on,0,0,7,,,,,,,,2,,,76,0
46752,note_on,0,0,7,,,,,,,,2,,,69,0
46752,note_on,192,0,7,,,,,,,,2,,,49,0
46752,note_on,192,0,5,,,,,,,,4,,,49,0
46788,note_on,48,0,1,,,,,,,,0,,,69,0
46800,note_on,12,0,1,,,,,,,,0,,,81,105
46848,note_on,48,0,1,,,,,,,,0,,,81,0
46860,note_on,12,0,1,,,,,,,,0,,,73,105
46908,note_on,48,0,1,,,,,,,,0,,,73,0
46920,note_on,12,0,1,,,,,,,,0,,,71,105
46968,note_on,48,0,1,,,,,,,,0,,,71,0
46980,note_on,12,0,1,,,,,,,,0,,,69,105
47028,note_on,48,0,1,,,,,,,,0,,,69,0
47040,note_on,288,0,7,,,,,,,,2,,,73,105
47040,note_on,0,0,7,,,,,,,,2,,,64,105
47040,note_on,0,0,7,,,,,,,,2,,,45,105
47040,note_on,288,0,5,,,,,,,,4,,,45,105
47040,note_on,12,0,1,,,,,,,,0,,,64,105
47040,note_on,0,0,7,,,,,,,,2,,,69,105
47088,note_on,48,0,1,,,,,,,,0,,,64,0
47100,note_on,12,0,1,,,,,,,,0,,,73,105
47148,note_on,48,0,1,,,,,,,,0,,,73,0
47160,note_on,12,0,1,,,,,,,,0,,,71,105
47208,note_on,48,0,1,,,,,,,,0,,,71,0
47220,note_on,12,0,1,,,,,,,,0,,,69,105
47232,note_on,192,0,5,,,,,,,,4,,,45,0
47232,note_on,0,0,7,,,,,,,,2,,,45,0
47232,note_on,0,0,7,,,,,,,,2,,,69,0
47232,note_on,192,0,7,,,,,,,,2,,,64,0
47232,note_on,0,0,7,,,,,,,,2,,,73,0
47268,note_on,48,0,1,,,,,,,,0,,,69,0
47280,note_on,12,0,1,,,,,,,,0,,,81,105
47328,note_on,48,0,1,,,,,,,,0,,,81,0
47340,note_on,12,0,1,,,,,,,,0,,,73,105
47388,note_on,48,0,1,,,,,,,,0,,,73,0
47400,note_on,12,0,1,,,,,,,,0,,,71,105
47448,note_on,48,0,1,,,,,,,,0,,,71,0
47460,note_on,12,0,1,,,,,,,,0,,,69,105
47508,note_on,48,0,1,,,,,,,,0,,,69,0
47520,note_on,12,0,1,,,,,,,,0,,,78,105
47520,note_on,0,0,7,,,,,,,,2,,,50,105
47520,note_on,0,0,7,,,,,,,,2,,,69,105
47520,note_on,288,0,7,,,,,,,,2,,,74,105
47520,note_on,0,0,7,,,,,,,,2,,,66,105
47520,note_on,288,0,5,,,,,,,,4,,,50,105
47568,note_on,48,0,1,,,,,,,,0,,,78,0
47580,note_on,12,0,1,,,,,,,,0,,,72,105
47628,note_on,48,0,1,,,,,,,,0,,,72,0
47640,note_on,12,0,1,,,,,,,,0,,,70,105
47688,note_on,48,0,1,,,,,,,,0,,,70,0
47700,note_on,12,0,1,,,,,,,,0,,,69,105
47712,note_on,0,0,7,,,,,,,,2,,,69,0
47712,note_on,0,0,7,,,,,,,,2,,,66,0
47712,note_on,0,0,7,,,,,,,,2,,,74,0
47712,note_on,192,0,5,,,,,,,,4,,,50,0
47712,note_on,192,0,7,,,,,,,,2,,,50,0
47748,note_on,48,0,1,,,,,,,,0,,,69,0
47760,note_on,12,0,1,,,,,,,,0,,,81,105
47808,note_on,48,0,1,,,,,,,,0,,,81,0
47820,note_on,12,0,1,,,,,,,,0,,,72,105
47868,note_on,48,0,1,,,,,,,,0,,,72,0
47880,note_on,12,0,1,,,,,,,,0,,,70,105
47928,note_on,48,0,1,,,,,,,,0,,,70,0
47940,note_on,12,0,1,,,,,,,,0,,,69,105
47988,note_on,48,0,1,,,,,,,,0,,,69,0
48000,note_on,288,0,7,,,,,,,,2,,,74,105
48000,note_on,0,0,7,,,,,,,,2,,,66,105
48000,note_on,0,0,7,,,,,,,,2,,,50,105
48000,note_on,0,0,7,,,,,,,,2,,,69,105
48000,note_on,288,0,5,,,,,,,,4,,,50,105
48000,note_on,12,0,1,,,,,,,,0,,,62,105
48048,note_on,48,0,1,,,,,,,,0,,,62,0
48060,note_on,12,0,1,,,,,,,,0,,,72,105
48108,note_on,48,0,1,,,,,,,,0,,,72,0
48120,note_on,12,0,1,,,,,,,,0,,,70,105
48168,note_on,48,0,1,,,,,,,,0,,,70,0
48180,note_on,12,0,1,,,,,,,,0,,,69,105
48192,note_on,192,0,7,,,,,,,,2,,,69,0
48192,note_on,0,0,7,,,,,,,,2,,,66,0
48192,note_on,0,0,7,,,,,,,,2,,,50,0
48192,note_on,192,0,5,,,,,,,,4,,,50,0
48192,note_on,0,0,7,,,,,,,,2,,,74,0
48228,note_on,48,0,1,,,,,,,,0,,,69,0
48240,note_on,12,0,1,,,,,,,,0,,,81,105
48288,note_on,48,0,1,,,,,,,,0,,,81,0
48300,note_on,12,0,1,,,,,,,,0,,,72,105
48348,note_on,48,0,1,,,,,,,,0,,,72,0
48360,note_on,12,0,1,,,,,,,,0,,,70,105
48408,note_on,48,0,1,,,,,,,,0,,,70,0
48420,note_on,12,0,1,,,,,,,,0,,,69,105
48468,note_on,48,0,1,,,,,,,,0,,,69,0
48480,note_on,288,0,5,,,,,,,,4,,,43,105
48480,note_on,0,0,7,,,,,,,,2,,,43,105
48480,note_on,12,0,1,,,,,,,,0,,,55,105
48480,note_on,0,0,7,,,,,,,,2,,,62,105
48480,note_on,0,0,7,,,,,,,,2,,,67,105
48480,note_on,288,0,7,,,,,,,,2,,,70,105
48528,note_on,48,0,1,,,,,,,,0,,,55,0
48540,note_on,12,0,1,,,,,,,,0,,,74,105
48588,note_on,48,0,1,,,,,,,,0,,,74,0
48600,note_on,12,0,1,,,,,,,,0,,,72,105
48648,note_on,48,0,1,,,,,,,,0,,,72,0
48660,note_on,12,0,1,,,,,,,,0,,,70,105
48672,note_on,0,0,7,,,,,,,,2,,,67,0
48672,note_on,192,0,7,,,,,,,,2,,,62,0
48672,note_on,192,0,5,,,,,,,,4,,,43,0
48672,note_on,0,0,7,,,,,,,,2,,,70,0
48672,note_on,0,0,7,,,,,,,,2,,,43,0
48708,note_on,48,0,1,,,,,,,,0,,,70,0
48720,note_on,12,0,1,,,,,,,,0,,,82,105
48768,note_on,48,0,1,,,,,,,,0,,,82,0
48780,note_on,12,0,1,,,,,,,,0,,,74,105
48828,note_on,48,0,1,,,,,,,,0,,,74,0
48840,note_on,12,0,1,,,,,,,,0,,,72,105
48888,note_on,48,0,1,,,,,,,,0,,,72,0
48900,note_on,12,0,1,,,,,,,,0,,,70,105
48948,note_on,48,0,1,,,,,,,,0,,,70,0
48960,note_on,0,0,7,,,,,,,,2,,,67,105
48960,note_on,288,0,5,,,,,,,,4,,,43,105
48960,note_on,12,0,1,,,,,,,,0,,,79,105
48960,note_on,0,0,7,,,,,,,,2,,,62,105
48960,note_on,0,0,7,,,,,,,,2,,,43,105
48960,note_on,288,0,7,,,,,,,,2,,,70,105
49008,note_on,48,0,1,,,,,,,,0,,,79,0
49020,note_on,12,0,1,,,,,,,,0,,,74,105
49068,note_on,48,0,1,,,,,,,,0,,,74,0
49080,note_on,12,0,1,,,,,,,,0,,,72,105
49128,note_on,48,0,1,,,,,,,,0,,,72,0
49140,note_on,12,0,1,,,,,,,,0,,,70,105
49152,note_on,0,0,7,,,,,,,,2,,,70,0
49152,note_on,0,0,7,,,,,,,,2,,,67,0
49152,note_on,0,0,7,,,,,,,,2,,,43,0
49152,note_on,192,0,5,,,,,,,,4,,,43,0
49152,note_on,192,0,7,,,,,,,,2,,,62,0
49188,note_on,48,0,1,,,,,,,,0,,,70,0
49200,note_on,12,0,1,,,,,,,,0,,,82,105
49248,note_on,48,0,1,,,,,,,,0,,,82,0
49260,note_on,12,0,1,,,,,,,,0,,,74,105
49308,note_on,48,0,1,,,,,,,,0,,,74,0
49320,note_on,12,0,1,,,,,,,,0,,,72,105
49368,note_on,48,0,1,,,,,,,,0,,,72,0
49380,note_on,12,0,1,,,,,,,,0,,,70,105
49428,note_on,48,0,1,,,,,,,,0,,,70,0
49440,note_on,288,0,5,,,,,,,,4,,,51,105
49440,note_on,12,0,1,,,,,,,,0,,,72,105
49440,note_on,288,0,7,,,,,,,,2,,,72,105
49440,note_on,0,0,7,,,,,,,,2,,,60,105
49440,note_on,0,0,7,,,,,,,,2,,,67,105
49440,note_on,0,0,7,,,,,,,,2,,,51,105
49488,note_on,48,0,1,,,,,,,,0,,,72,0
49500,note_on,12,0,1,,,,,,,,0,,,75,105
49548,note_on,48,0,1,,,,,,,,0,,,75,0
49560,note_on,12,0,1,,,,,,,,0,,,74,105
49608,note_on,48,0,1,,,,,,,,0,,,74,0
49620,note_on,12,0,1,,,,,,,,0,,,72,105
49632,note_on,192,0,5,,,,,,,,4,,,51,0
49632,note_on,0,0,7,,,,,,,,2,,,72,0
49632,note_on,192,0,7,,,,,,,,2,,,51,0
49632,note_on,0,0,7,,,,,,,,2,,,60,0
49632,note_on,0,0,7,,,,,,,,2,,,67,0
49668,note_on,48,0,1,,,,,,,,0,,,72,0
49680,note_on,12,0,1,,,,,,,,0,,,79,105
49728,note_on,48,0,1,,,,,,,,0,,,79,0
49740,note_on,12,0,1,,,,,,,,0,,,75,105
49788,note_on,48,0,1,,,,,,,,0,,,75,0
49800,note_on,12,0,1,,,,,,,,0,,,74,105
49848,note_on,48,0,1,,,,,,,,0,,,74,0
49860,note_on,12,0,1,,,,,,,,0,,,72,105
49908,note_on,48,0,1,,,,,,,,0,,,72,0
49920,note_on,288,0,5,,,,,,,,4,,,51,105
49920,note_on,12,0,1,,,,,,,,0,,,67,105
49920,note_on,0,0,7,,,,,,,,2,,,60,105
49920,note_on,288,0,7,,,,,,,,2,,,72,105
49920,note_on,0,0,7,,,,,,,,2,,,51,105
49920,note_on,0,0,7,,,,,,,,2,,,67,105
49968,note_on,48,0,1,,,,,,,,0,,,67,0
49980,note_on,12,0,1,,,,,,,,0,,,75,105
50028,note_on,48,0,1,,,,,,,,0,,,75,0
50040,note_on,12,0,1,,,,,,,,0,,,74,105
50088,note_on,48,0,1,,,,,,,,0,,,74,0
50100,note_on,12,0,1,,,,,,,,0,,,72,105
50112,note_on,192,0,5,,,,,,,,4,,,51,0
50112,note_on,192,0,7,,,,,,,,2,,,67,0
50112,note_on,0,0,7,,,,,,,,2,,,51,0
50112,note_on,0,0,7,,,,,,,,2,,,60,0
50112,note_on,0,0,7,,,,,,,,2,,,72,0
50148,note_on,48,0,1,,,,,,,,0,,,72,0
50160,note_on,12,0,1,,,,,,,,0,,,79,105
50208,note_on,48,0,1,,,,,,,,0,,,79,0
50220,note_on,12,0,1,,,,,,,,0,,,75,105
50268,note_on,48,0,1,,,,,,,,0,,,75,0
50280,note_on,12,0,1,,,,,,,,0,,,74,105
50328,note_on,48,0,1,,,,,,,,0,,,74,0
50340,note_on,12,0,1,,,,,,,,0,,,72,105
50388,note_on,48,0,1,,,,,,,,0,,,72,0
50400,note_on,0,0,7,,,,,,,,2,,,66,105
50400,note_on,12,0,1,,,,,,,,0,,,78,105
50400,note_on,0,0,7,,,,,,,,2,,,69,105
50400,note_on,0,0,7,,,,,,,,2,,,50,105
50400,note_on,288,0,7,,,,,,,,2,,,72,105
50400,note_on,288,0,5,,,,,,,,4,,,50,105
50448,note_on,48,0,1,,,,,,,,0,,,78,0
50460,note_on,12,0,1,,,,,,,,0,,,72,105
50508,note_on,48,0,1,,,,,,,,0,,,72,0
50520,note_on,12,0,1,,,,,,,,0,,,70,105
50568,note_on,48,0,1,,,,,,,,0,,,70,0
50580,note_on,12,0,1,,,,,,,,0,,,69,105
50592,note_on,0,0,7,,,,,,,,2,,,72,0
50592,note_on,192,0,7,,,,,,,,2,,,66,0
50592,note_on,192,0,5,,,,,,,,4,,,50,0
50592,note_on,0,0,7,,,,,,,,2,,,69,0
50592,note_on,0,0,7,,,,,,,,2,,,50,0
50628,note_on,48,0,1,,,,,,,,0,,,69,0
50640,note_on,12,0,1,,,,,,,,0,,,81,105
50688,note_on,48,0,1,,,,,,,,0,,,81,0
50700,note_on,12,0,1,,,,,,,,0,,,72,105
50748,note_on,48,0,1,,,,,,,,0,,,72,0
50760,note_on,12,0,1,,,,,,,,0,,,70,105
50808,note_on,48,0,1,,,,,,,,0,,,70,0
50820,note_on,12,0,1,,,,,,,,0,,,69,105
50868,note_on,48,0,1,,,,,,,,0,,,69,0
50880,note_on,288,0,5,,,,,,,,4,,,50,105
50880,note_on,12,0,1,,,,,,,,0,,,62,105
50880,note_on,288,0,7,,,,,,,,2,,,66,105
50880,note_on,0,0,7,,,,,,,,2,,,62,105
50880,note_on,0,0,7,,,,,,,,2,,,57,105
50880,note_on,0,0,7,,,,,,,,2,,,50,105
50928,note_on,48,0,1,,,,,,,,0,,,62,0
50940,note_on,12,0,1,,,,,,,,0,,,72,105
50988,note_on,48,0,1,,,,,,,,0,,,72,0
51000,note_on,12,0,1,,,,,,,,0,,,70,105
51048,note_on,48,0,1,,,,,,,,0,,,70,0
51060,note_on,12,0,1,,,,,,,,0,,,69,105
51072,note_on,0,0,7,,,,,,,,2,,,62,0
51072,note_on,0,0,7,,,,,,,,2,,,50,0
51072,note_on,192,0,7,,,,,,,,2,,,57,0
51072,note_on,192,0,5,,,,,,,,4,,,50,0
51072,note_on,0,0,7,,,,,,,,2,,,66,0
51108,note_on,48,0,1,,,,,,,,0,,,69,0
51120,note_on,12,0,1,,,,,,,,0,,,81,105
51168,note_on,48,0,1,,,,,,,,0,,,81,0
51180,note_on,12,0,1,,,,,,,,0,,,72,105
51228,note_on,48,0,1,,,,,,,,0,,,72,0
51240,note_on,12,0,1,,,,,,,,0,,,70,105
51288,note_on,48,0,1,,,,,,,,0,,,70,0
51300,note_on,12,0,1,,,,,,,,0,,,69,105
51348,note_on,48,0,1,,,,,,,,0,,,69,0
51360,note_on,288,0,7,,,,,,,,2,,,67,105
51360,note_on,0,0,7,,,,,,,,2,,,62,105
51360,note_on,0,0,7,,,,,,,,2,,,55,105
51360,note_on,12,0,1,,,,,,,,0,,,70,105
51360,note_on,288,0,5,,,,,,,,4,,,55,105
51360,note_on,0,0,7,,,,,,,,2,,,58,105
51408,note_on,48,0,1,,,,,,,,0,,,70,0
51420,note_on,12,0,1,,,,,,,,0,,,82,105
51456,note_on,96,0,5,,,,,,,,4,,,55,0
51456,note_on,0,0,7,,,,,,,,2,,,55,0
51456,note_on,0,0,7,,,,,,,,2,,,58,0
51456,note_on,0,0,7,,,,,,,,2,,,67,0
51456,note_on,96,0,7,,,,,,,,2,,,62,0
51468,note_on,48,0,1,,,,,,,,0,,,82,0
51480,note_on,12,0,1,,,,,,,,0,,,81,105
51480,note_on,24,0,7,,,,,,,,2,,,63,105
51480,note_on,24,0,5,,,,,,,,4,,,60,105
51480,note_on,0,0,7,,,,,,,,2,,,60,105
51480,note_on,0,0,7,,,,,,,,2,,,69,105
51528,note_on,48,0,1,,,,,,,,0,,,81,0
51540,note_on,12,0,1,,,,,,,,0,,,79,105
51576,note_on,96,0,5,,,,,,,,4,,,60,0
51576,note_on,96,0,7,,,,,,,,2,,,69,0
51576,note_on,0,0,7,,,,,,,,2,,,60,0
51576,note_on,0,0,7,,,,,,,,2,,,63,0
51588,note_on,48,0,1,,,,,,,,0,,,79,0
51600,note_on,0,0,7,,,,,,,,2,,,62,105
51600,note_on,12,0,1,,,,,,,,0,,,74,105
51600,note_on,24,0,7,,,,,,,,2,,,66,105
51600,note_on,24,0,5,,,,,,,,4,,,62,105
51600,note_on,0,0,7,,,,,,,,2,,,69,105
51648,note_on,48,0,1,,,,,,,,0,,,74,0
51660,note_on,12,0,1,,,,,,,,0,,,79,105
51696,note_on,96,0,7,,,,,,,,2,,,62,0
51696,note_on,96,0,5,,,,,,,,4,,,62,0
51708,note_on,48,0,1,,,,,,,,0,,,79,0
51720,note_on,24,0,7,,,,,,,,2,,,50,105
51720,note_on,24,0,5,,,,,,,,4,,,50,105
51720,note_on,12,0,1,,,,,,,,0,,,81,105
51768,note_on,48,0,1,,,,,,,,0,,,81,0
51780,note_on,12,0,1,,,,,,,,0,,,78,105
51792,note_on,0,0,7,,,,,,,,2,,,66,0
51792,note_on,72,0,7,,,,,,,,2,,,69,0
51816,note_on,24,0,7,,,,,,,,2,,,50,0
51816,note_on,96,0,5,,,,,,,,4,,,50,0
51828,note_on,48,0,1,,,,,,,,0,,,78,0
51840,note_on,12,0,1,,,,,,,,0,,,79,105
51840,note_on,8928,0,4,,,,,,,,3,,,58,105
51840,note_on,14784,0,6,,,,,,,,5,,,43,105
51840,note_on,24,0,7,,,,,,,,2,,,70,105
51840,note_on,0,0,7,,,,,,,,2,,,67,105
51840,note_on,0,0,7,,,,,,,,2,,,55,105
51840,note_on,0,0,7,,,,,,,,2,,,62,105
51840,note_on,24,0,5,,,,,,,,4,,,55,105
51936,note_on,96,0,1,,,,,,,,0,,,79,0
51960,note_on,24,0,1,,,,,,,,0,,,79,105
51960,note_on,9048,0,2,,,,,,,,1,,,79,105
51960,note_on,9048,0,3,,,,,,,,0,,,79,105
52032,note_on,192,0,7,,,,,,,,2,,,62,0
52056,note_on,96,0,3,,,,,,,,0,,,79,0
52056,note_on,96,0,1,,,,,,,,0,,,79,0
52056,note_on,96,0,2,,,,,,,,1,,,79,0
52080,note_on,24,0,3,,,,,,,,0,,,79,105
52080,note_on,24,0,1,,,,,,,,0,,,79,105
52080,note_on,48,0,7,,,,,,,,2,,,67,105
52080,note_on,24,0,2,,,,,,,,1,,,79,105
52128,note_on,288,0,4,,,,,,,,3,,,58,0
52128,note_on,48,0,7,,,,,,,,2,,,55,0
52128,note_on,288,0,6,,,,,,,,5,,,43,0
52128,note_on,288,0,5,,,,,,,,4,,,55,0
52200,note_on,72,0,6,,,,,,,,5,,,46,105
52200,note_on,72,0,5,,,,,,,,4,,,58,105
52200,note_on,72,0,7,,,,,,,,2,,,58,105
52200,note_on,72,0,4,,,,,,,,3,,,62,105
52224,note_on,24,0,7,,,,,,,,2,,,70,0
52224,note_on,0,0,7,,,,,,,,2,,,67,0
52248,note_on,48,0,6,,,,,,,,5,,,46,0
52248,note_on,48,0,4,,,,,,,,3,,,62,0
52248,note_on,24,0,7,,,,,,,,2,,,58,0
52248,note_on,48,0,5,,,,,,,,4,,,58,0
52260,note_on,12,0,5,,,,,,,,4,,,57,105
52260,note_on,12,0,7,,,,,,,,2,,,57,105
52260,note_on,12,0,6,,,,,,,,5,,,45,105
52260,note_on,12,0,4,,,,,,,,3,,,60,105
52308,note_on,48,0,5,,,,,,,,4,,,57,0
52308,note_on,48,0,7,,,,,,,,2,,,57,0
52308,note_on,48,0,6,,,,,,,,5,,,45,0
52308,note_on,48,0,4,,,,,,,,3,,,60,0
52320,note_on,12,0,7,,,,,,,,2,,,70,105
52320,note_on,0,0,7,,,,,,,,2,,,55,105
52320,note_on,12,0,6,,,,,,,,5,,,43,105
52320,note_on,12,0,4,,,,,,,,3,,,58,105
52320,note_on,12,0,5,,,,,,,,4,,,55,105
52320,note_on,0,0,7,,,,,,,,2,,,74,105
52416,note_on,336,0,1,,,,,,,,0,,,79,0
52416,note_on,336,0,2,,,,,,,,1,,,79,0
52416,note_on,336,0,3,,,,,,,,0,,,79,0
52440,note_on,24,0,3,,,,,,,,0,,,82,105
52440,note_on,24,0,1,,,,,,,,0,,,82,105
52440,note_on,24,0,2,,,,,,,,1,,,82,105
52464,note_on,144,0,7,,,,,,,,2,,,67,0
52488,note_on,48,0,3,,,,,,,,0,,,82,0
52488,note_on,48,0,2,,,,,,,,1,,,82,0
52488,note_on,48,0,1,,,,,,,,0,,,82,0
52500,note_on,12,0,1,,,,,,,,0,,,81,105
52500,note_on,12,0,3,,,,,,,,0,,,81,105
52500,note_on,12,0,2,,,,,,,,1,,,81,105
52548,note_on,48,0,3,,,,,,,,0,,,81,0
52548,note_on,48,0,1,,,,,,,,0,,,81,0
52548,note_on,48,0,2,,,,,,,,1,,,81,0
52560,note_on,12,0,2,,,,,,,,1,,,79,105
52560,note_on,12,0,3,,,,,,,,0,,,79,105
52560,note_on,96,0,7,,,,,,,,2,,,70,105
52560,note_on,12,0,1,,,,,,,,0,,,79,105
52608,note_on,288,0,5,,,,,,,,4,,,55,0
52608,note_on,288,0,4,,,,,,,,3,,,58,0
52608,note_on,288,0,6,,,,,,,,5,,,43,0
52608,note_on,48,0,7,,,,,,,,2,,,55,0
52680,note_on,72,0,4,,,,,,,,3,,,62,105
52680,note_on,72,0,6,,,,,,,,5,,,46,105
52680,note_on,72,0,7,,,,,,,,2,,,58,105
52680,note_on,72,0,5,,,,,,,,4,,,58,105
52704,note_on,24,0,7,,,,,,,,2,,,74,0
52704,note_on,0,0,7,,,,,,,,2,,,70,0
52728,note_on,24,0,7,,,,,,,,2,,,58,0
52728,note_on,48,0,6,,,,,,,,5,,,46,0
52728,note_on,48,0,5,,,,,,,,4,,,58,0
52728,note_on,48,0,4,,,,,,,,3,,,62,0
52740,note_on,12,0,7,,,,,,,,2,,,57,105
52740,note_on,12,0,4,,,,,,,,3,,,60,105
52740,note_on,12,0,5,,,,,,,,4,,,57,105
52740,note_on,12,0,6,,,,,,,,5,,,45,105
52788,note_on,48,0,6,,,,,,,,5,,,45,0
52788,note_on,48,0,4,,,,,,,,3,,,60,0
52788,note_on,48,0,5,,,,,,,,4,,,57,0
52788,note_on,48,0,7,,,,,,,,2,,,57,0
52800,note_on,12,0,7,,,,,,,,2,,,74,105
52800,note_on,12,0,5,,,,,,,,4,,,55,105
52800,note_on,12,0,4,,,,,,,,3,,,58,105
52800,note_on,12,0,6,,,,,,,,5,,,43,105
52800,note_on,0,0,7,,,,,,,,2,,,79,105
52800,note_on,0,0,7,,,,,,,,2,,,55,105
52896,note_on,336,0,3,,,,,,,,0,,,79,0
52896,note_on,336,0,2,,,,,,,,1,,,79,0
52896,note_on,336,0,1,,,,,,,,0,,,79,0
52920,note_on,24,0,2,,,,,,,,1,,,82,105
52920,note_on,24,0,3,,,,,,,,0,,,82,105
52920,note_on,24,0,1,,,,,,,,0,,,82,105
52968,note_on,48,0,3,,,,,,,,0,,,82,0
52968,note_on,48,0,1,,,,,,,,0,,,82,0
52968,note_on,48,0,2,,,,,,,,1,,,82,0
52980,note_on,12,0,2,,,,,,,,1,,,81,105
52980,note_on,12,0,3,,,,,,,,0,,,81,105
52980,note_on,12,0,1,,,,,,,,0,,,81,105
52992,note_on,192,0,7,,,,,,,,2,,,70,0
53028,note_on,48,0,1,,,,,,,,0,,,81,0
53028,note_on,48,0,3,,,,,,,,0,,,81,0
53028,note_on,48,0,2,,,,,,,,1,,,81,0
53040,note_on,12,0,1,,,,,,,,0,,,79,105
53040,note_on,12,0,3,,,,,,,,0,,,79,105
53040,note_on,48,0,7,,,,,,,,2,,,74,105
53040,note_on,12,0,2,,,,,,,,1,,,79,105
53088,note_on,288,0,5,,,,,,,,4,,,55,0
53088,note_on,48,0,7,,,,,,,,2,,,55,0
53088,note_on,288,0,4,,,,,,,,3,,,58,0
53088,note_on,288,0,6,,,,,,,,5,,,43,0
53160,note_on,72,0,6,,,,,,,,5,,,46,105
53160,note_on,72,0,7,,,,,,,,2,,,58,105
53160,note_on,72,0,4,,,,,,,,3,,,62,105
53160,note_on,72,0,5,,,,,,,,4,,,58,105
53208,note_on,48,0,5,,,,,,,,4,,,58,0
53208,note_on,48,0,4,,,,,,,,3,,,62,0
53208,note_on,48,0,7,,,,,,,,2,,,58,0
53208,note_on,48,0,6,,,,,,,,5,,,46,0
53220,note_on,12,0,4,,,,,,,,3,,,60,105
53220,note_on,12,0,6,,,,,,,,5,,,45,105
53220,note_on,12,0,5,,,,,,,,4,,,57,105
53220,note_on,12,0,7,,,,,,,,2,,,57,105
53232,note_on,12,0,7,,,,,,,,2,,,74,0
53268,note_on,36,0,7,,,,,,,,2,,,57,0
53268,note_on,48,0,5,,,,,,,,4,,,57,0
53268,note_on,48,0,4,,,,,,,,3,,,60,0
53268,note_on,48,0,6,,,,,,,,5,,,45,0
53280,note_on,12,0,5,,,,,,,,4,,,55,105
53280,note_on,0,0,7,,,,,,,,2,,,70,105
53280,note_on,12,0,7,,,,,,,,2,,,55,105
53280,note_on,12,0,4,,,,,,,,3,,,62,105
53280,note_on,12,0,6,,,,,,,,5,,,43,105
53376,note_on,96,0,6,,,,,,,,5,,,43,0
53376,note_on,96,0,4,,,,,,,,3,,,62,0
53376,note_on,96,0,5,,,,,,,,4,,,55,0
53376,note_on,336,0,3,,,,,,,,0,,,79,0
53376,note_on,96,0,7,,,,,,,,2,,,55,0
53376,note_on,336,0,1,,,,,,,,0,,,79,0
53376,note_on,336,0,2,,,,,,,,1,,,79,0
53400,note_on,24,0,3,,,,,,,,0,,,82,105
53400,note_on,24,0,1,,,,,,,,0,,,82,105
53400,note_on,24,0,4,,,,,,,,3,,,62,105
53400,note_on,24,0,6,,,,,,,,5,,,43,105
53400,note_on,24,0,7,,,,,,,,2,,,55,105
53400,note_on,24,0,5,,,,,,,,4,,,55,105
53400,note_on,24,0,2,,,,,,,,1,,,82,105
53448,note_on,48,0,3,,,,,,,,0,,,82,0
53448,note_on,48,0,1,,,,,,,,0,,,82,0
53448,note_on,48,0,2,,,,,,,,1,,,82,0
53460,note_on,12,0,1,,,,,,,,0,,,84,105
53460,note_on,12,0,3,,,,,,,,0,,,84,105
53460,note_on,12,0,2,,,,,,,,1,,,84,105
53472,note_on,72,0,7,,,,,,,,2,,,70,0
53496,note_on,24,0,7,,,,,,,,2,,,55,0
53496,note_on,96,0,4,,,,,,,,3,,,62,0
53496,note_on,96,0,5,,,,,,,,4,,,55,0
53496,note_on,96,0,6,,,,,,,,5,,,43,0
53508,note_on,48,0,3,,,,,,,,0,,,84,0
53508,note_on,48,0,1,,,,,,,,0,,,84,0
53508,note_on,48,0,2,,,,,,,,1,,,84,0
53520,note_on,12,0,3,,,,,,,,0,,,86,105
53520,note_on,12,0,2,,,,,,,,1,,,86,105
53520,note_on,24,0,6,,,,,,,,5,,,43,105
53520,note_on,24,0,7,,,,,,,,2,,,55,105
53520,note_on,24,0,4,,,,,,,,3,,,62,105
53520,note_on,0,0,7,,,,,,,,2,,,67,105
53520,note_on,12,0,1,,,,,,,,0,,,86,105
53520,note_on,24,0,5,,,,,,,,4,,,55,105
53568,note_on,0,0,7,,,,,,,,2,,,74,0
53568,note_on,48,0,7,,,,,,,,2,,,79,0
53616,note_on,96,0,1,,,,,,,,0,,,86,0
53616,note_on,96,0,2,,,,,,,,1,,,86,0
53616,note_on,96,0,3,,,,,,,,0,,,86,0
53616,note_on,48,0,7,,,,,,,,2,,,55,0
53616,note_on,96,0,5,,,,,,,,4,,,55,0
53616,note_on,96,0,4,,,,,,,,3,,,62,0
53616,note_on,96,0,6,,,,,,,,5,,,43,0
53640,note_on,24,0,5,,,,,,,,4,,,55,105
53640,note_on,24,0,4,,,,,,,,3,,,62,105
53640,note_on,24,0,3,,,,,,,,0,,,84,105
53640,note_on,24,0,6,,,,,,,,5,,,43,105
53640,note_on,24,0,7,,,,,,,,2,,,55,105
53640,note_on,24,0,1,,,,,,,,0,,,84,105
53640,note_on,24,0,2,,,,,,,,1,,,84,105
53688,note_on,48,0,2,,,,,,,,1,,,84,0
53688,note_on,48,0,3,,,,,,,,0,,,84,0
53688,note_on,48,0,1,,,,,,,,0,,,84,0
53700,note_on,12,0,1,,,,,,,,0,,,82,105
53700,note_on,12,0,3,,,,,,,,0,,,82,105
53700,note_on,12,0,2,,,,,,,,1,,,82,105
53712,note_on,72,0,7,,,,,,,,2,,,67,0
53736,note_on,96,0,4,,,,,,,,3,,,62,0
53736,note_on,96,0,5,,,,,,,,4,,,55,0
53736,note_on,96,0,6,,,,,,,,5,,,43,0
53736,note_on,24,0,7,,,,,,,,2,,,55,0
53748,note_on,48,0,3,,,,,,,,0,,,82,0
53748,note_on,48,0,1,,,,,,,,0,,,82,0
53748,note_on,48,0,2,,,,,,,,1,,,82,0
53760,note_on,12,0,2,,,,,,,,1,,,81,105
53760,note_on,12,0,1,,,,,,,,0,,,81,105
53760,note_on,0,0,7,,,,,,,,2,,,50,105
53760,note_on,0,0,7,,,,,,,,2,,,69,105
53760,note_on,24,0,6,,,,,,,,5,,,38,105
53760,note_on,24,0,4,,,,,,,,3,,,66,105
53760,note_on,12,0,3,,,,,,,,0,,,81,105
53760,note_on,24,0,5,,,,,,,,4,,,50,105
53760,note_on,24,0,7,,,,,,,,2,,,78,105
53856,note_on,96,0,6,,,,,,,,5,,,38,0
53856,note_on,96,0,1,,,,,,,,0,,,81,0
53856,note_on,96,0,2,,,,,,,,1,,,81,0
53856,note_on,96,0,5,,,,,,,,4,,,50,0
53856,note_on,96,0,3,,,,,,,,0,,,81,0
53856,note_on,96,0,7,,,,,,,,2,,,50,0
53880,note_on,24,0,1,,,,,,,,0,,,78,105
53880,note_on,24,0,5,,,,,,,,4,,,50,105
53880,note_on,24,0,6,,,,,,,,5,,,38,105
53880,note_on,24,0,2,,,,,,,,1,,,78,105
53880,note_on,24,0,3,,,,,,,,0,,,78,105
53880,note_on,24,0,7,,,,,,,,2,,,50,105
53928,note_on,48,0,5,,,,,,,,4,,,50,0
53928,note_on,48,0,7,,,,,,,,2,,,50,0
53928,note_on,48,0,6,,,,,,,,5,,,38,0
53940,note_on,12,0,6,,,,,,,,5,,,40,105
53940,note_on,12,0,5,,,,,,,,4,,,52,105
53940,note_on,12,0,7,,,,,,,,2,,,52,105
53952,note_on,12,0,7,,,,,,,,2,,,78,0
53976,note_on,96,0,1,,,,,,,,0,,,78,0
53976,note_on,96,0,3,,,,,,,,0,,,78,0
53976,note_on,96,0,2,,,,,,,,1,,,78,0
53988,note_on,48,0,6,,,,,,,,5,,,40,0
53988,note_on,36,0,7,,,,,,,,2,,,52,0
53988,note_on,48,0,5,,,,,,,,4,,,52,0
54000,note_on,12,0,5,,,,,,,,4,,,54,105
54000,note_on,24,0,1,,,,,,,,0,,,74,105
54000,note_on,12,0,6,,,,,,,,5,,,42,105
54000,note_on,24,0,3,,,,,,,,0,,,74,105
54000,note_on,24,0,2,,,,,,,,1,,,74,105
54000,note_on,0,0,7,,,,,,,,2,,,54,105
54000,note_on,12,0,7,,,,,,,,2,,,74,105
54096,note_on,96,0,5,,,,,,,,4,,,54,0
54096,note_on,96,0,7,,,,,,,,2,,,54,0
54096,note_on,96,0,6,,,,,,,,5,,,42,0
54120,note_on,24,0,5,,,,,,,,4,,,50,105
54120,note_on,24,0,7,,,,,,,,2,,,50,105
54120,note_on,24,0,6,,,,,,,,5,,,38,105
54144,note_on,384,0,4,,,,,,,,3,,,66,0
54144,note_on,24,0,7,,,,,,,,2,,,69,0
54192,note_on,48,0,7,,,,,,,,2,,,74,0
54192,note_on,192,0,2,,,,,,,,1,,,74,0
54192,note_on,192,0,3,,,,,,,,0,,,74,0
54192,note_on,192,0,1,,,,,,,,0,,,74,0
54216,note_on,24,0,7,,,,,,,,2,,,50,0
54216,note_on,96,0,6,,,,,,,,5,,,38,0
54216,note_on,96,0,5,,,,,,,,4,,,50,0
54240,note_on,48,0,1,,,,,,,,0,,,83,105
54240,note_on,48,0,2,,,,,,,,1,,,83,105
54240,note_on,0,0,7,,,,,,,,2,,,71,105
54240,note_on,96,0,4,,,,,,,,3,,,67,105
54240,note_on,24,0,5,,,,,,,,4,,,55,105
54240,note_on,48,0,3,,,,,,,,0,,,74,105
54240,note_on,24,0,6,,,,,,,,5,,,43,105
54240,note_on,24,0,7,,,,,,,,2,,,55,105
54240,note_on,0,0,7,,,,,,,,2,,,67,105
54336,note_on,96,0,5,,,,,,,,4,,,55,0
54336,note_on,96,0,7,,,,,,,,2,,,55,0
54336,note_on,96,0,6,,,,,,,,5,,,43,0
54360,note_on,24,0,6,,,,,,,,5,,,43,105
54360,note_on,24,0,7,,,,,,,,2,,,55,105
54360,note_on,24,0,5,,,,,,,,4,,,55,105
54456,note_on,96,0,6,,,,,,,,5,,,43,0
54456,note_on,96,0,5,,,,,,,,4,,,55,0
54456,note_on,96,0,7,,,,,,,,2,,,55,0
54480,note_on,24,0,7,,,,,,,,2,,,55,105
54480,note_on,24,0,6,,,,,,,,5,,,43,105
54480,note_on,24,0,5,,,,,,,,4,,,55,105
54576,note_on,96,0,6,,,,,,,,5,,,43,0
54576,note_on,96,0,5,,,,,,,,4,,,55,0
54576,note_on,96,0,7,,,,,,,,2,,,55,0
54600,note_on,24,0,5,,,,,,,,4,,,53,105
54600,note_on,24,0,7,,,,,,,,2,,,53,105
54600,note_on,24,0,6,,,,,,,,5,,,41,105
54624,note_on,24,0,7,,,,,,,,2,,,67,0
54624,note_on,0,0,7,,,,,,,,2,,,71,0
54624,note_on,384,0,1,,,,,,,,0,,,83,0
54624,note_on,384,0,2,,,,,,,,1,,,83,0
54624,note_on,384,0,3,,,,,,,,0,,,74,0
54696,note_on,96,0,6,,,,,,,,5,,,41,0
54696,note_on,72,0,7,,,,,,,,2,,,53,0
54696,note_on,96,0,5,,,,,,,,4,,,53,0
54720,note_on,96,0,3,,,,,,,,0,,,75,105
54720,note_on,24,0,6,,,,,,,,5,,,39,105
54720,note_on,96,0,1,,,,,,,,0,,,84,105
54720,note_on,96,0,2,,,,,,,,1,,,84,105
54720,note_on,0,0,7,,,,,,,,2,,,51,105
54720,note_on,24,0,5,,,,,,,,4,,,51,105
54720,note_on,0,0,7,,,,,,,,2,,,60,105
54720,note_on,0,0,7,,,,,,,,2,,,67,105
54720,note_on,24,0,7,,,,,,,,2,,,72,105
54816,note_on,96,0,6,,,,,,,,5,,,39,0
54816,note_on,96,0,7,,,,,,,,2,,,51,0
54816,note_on,96,0,5,,,,,,,,4,,,51,0
54840,note_on,24,0,6,,,,,,,,5,,,36,105
54840,note_on,24,0,7,,,,,,,,2,,,48,105
54840,note_on,24,0,5,,,,,,,,4,,,48,105
54888,note_on,48,0,6,,,,,,,,5,,,36,0
54888,note_on,48,0,7,,,,,,,,2,,,48,0
54888,note_on,48,0,5,,,,,,,,4,,,48,0
54900,note_on,12,0,6,,,,,,,,5,,,38,105
54900,note_on,12,0,7,,,,,,,,2,,,50,105
54900,note_on,12,0,5,,,,,,,,4,,,50,105
54948,note_on,48,0,6,,,,,,,,5,,,38,0
54948,note_on,48,0,7,,,,,,,,2,,,50,0
54948,note_on,48,0,5,,,,,,,,4,,,50,0
54960,note_on,12,0,7,,,,,,,,2,,,51,105
54960,note_on,12,0,5,,,,,,,,4,,,51,105
54960,note_on,12,0,6,,,,,,,,5,,,39,105
55056,note_on,96,0,7,,,,,,,,2,,,51,0
55056,note_on,96,0,6,,,,,,,,5,,,39,0
55056,note_on,96,0,5,,,,,,,,4,,,51,0
55080,note_on,24,0,6,,,,,,,,5,,,36,105
55080,note_on,24,0,5,,,,,,,,4,,,48,105
55080,note_on,24,0,7,,,,,,,,2,,,48,105
55104,note_on,384,0,2,,,,,,,,1,,,84,0
55104,note_on,864,0,4,,,,,,,,3,,,67,0
55104,note_on,0,0,7,,,,,,,,2,,,67,0
55104,note_on,0,0,7,,,,,,,,2,,,72,0
55104,note_on,384,0,1,,,,,,,,0,,,84,0
55104,note_on,384,0,3,,,,,,,,0,,,75,0
55104,note_on,24,0,7,,,,,,,,2,,,60,0
55176,note_on,96,0,5,,,,,,,,4,,,48,0
55176,note_on,72,0,7,,,,,,,,2,,,48,0
55176,note_on,96,0,6,,,,,,,,5,,,36,0
55200,note_on,96,0,3,,,,,,,,0,,,72,105
55200,note_on,96,0,4,,,,,,,,3,,,65,105
55200,note_on,0,0,7,,,,,,,,2,,,69,105
55200,note_on,0,0,7,,,,,,,,2,,,60,105
55200,note_on,96,0,2,,,,,,,,1,,,81,105
55200,note_on,0,0,7,,,,,,,,2,,,65,105
55200,note_on,24,0,5,,,,,,,,4,,,53,105
55200,note_on,24,0,6,,,,,,,,5,,,41,105
55200,note_on,96,0,1,,,,,,,,0,,,81,105
55200,note_on,24,0,7,,,,,,,,2,,,53,105
55296,note_on,96,0,7,,,,,,,,2,,,53,0
55296,note_on,96,0,5,,,,,,,,4,,,53,0
55296,note_on,96,0,6,,,,,,,,5,,,41,0
55320,note_on,24,0,7,,,,,,,,2,,,53,105
55320,note_on,24,0,5,,,,,,,,4,,,53,105
55320,note_on,24,0,6,,,,,,,,5,,,41,105
55416,note_on,96,0,7,,,,,,,,2,,,53,0
55416,note_on,96,0,6,,,,,,,,5,,,41,0
55416,note_on,96,0,5,,,,,,,,4,,,53,0
55440,note_on,24,0,5,,,,,,,,4,,,53,105
55440,note_on,24,0,7,,,,,,,,2,,,53,105
55440,note_on,24,0,6,,,,,,,,5,,,41,105
55536,note_on,96,0,7,,,,,,,,2,,,53,0
55536,note_on,96,0,6,,,,,,,,5,,,41,0
55536,note_on,96,0,5,,,,,,,,4,,,53,0
55560,note_on,24,0,7,,,,,,,,2,,,53,105
55560,note_on,24,0,5,,,,,,,,4,,,53,105
55560,note_on,24,0,6,,,,,,,,5,,,41,105
55584,note_on,0,0,7,,,,,,,,2,,,60,0
55584,note_on,384,0,1,,,,,,,,0,,,81,0
55584,note_on,384,0,2,,,,,,,,1,,,81,0
55584,note_on,0,0,7,,,,,,,,2,,,65,0
55584,note_on,24,0,7,,,,,,,,2,,,69,0
55584,note_on,384,0,3,,,,,,,,0,,,72,0
55656,note_on,96,0,6,,,,,,,,5,,,41,0
55656,note_on,96,0,5,,,,,,,,4,,,53,0
55656,note_on,72,0,7,,,,,,,,2,,,53,0
55680,note_on,24,0,7,,,,,,,,2,,,70,105
55680,note_on,0,0,7,,,,,,,,2,,,65,105
55680,note_on,0,0,7,,,,,,,,2,,,58,105
55680,note_on,96,0,3,,,,,,,,0,,,74,105
55680,note_on,0,0,7,,,,,,,,2,,,50,105
55680,note_on,96,0,2,,,,,,,,1,,,82,105
55680,note_on,24,0,5,,,,,,,,4,,,50,105
55680,note_on,24,0,6,,,,,,,,5,,,38,105
55680,note_on,96,0,1,,,,,,,,0,,,82,105
55776,note_on,96,0,5,,,,,,,,4,,,50,0
55776,note_on,96,0,7,,,,,,,,2,,,50,0
55776,note_on,96,0,6,,,,,,,,5,,,38,0
55800,note_on,24,0,5,,,,,,,,4,,,46,105
55800,note_on,24,0,7,,,,,,,,2,,,46,105
55800,note_on,24,0,6,,,,,,,,5,,,34,105
55848,note_on,48,0,5,,,,,,,,4,,,46,0
55848,note_on,48,0,6,,,,,,,,5,,,34,0
55848,note_on,48,0,7,,,,,,,,2,,,46,0
55860,note_on,12,0,6,,,,,,,,5,,,36,105
55860,note_on,12,0,5,,,,,,,,4,,,48,105
55860,note_on,12,0,7,,,,,,,,2,,,48,105
55908,note_on,48,0,6,,,,,,,,5,,,36,0
55908,note_on,48,0,7,,,,,,,,2,,,48,0
55908,note_on,48,0,5,,,,,,,,4,,,48,0
55920,note_on,12,0,7,,,,,,,,2,,,50,105
55920,note_on,12,0,5,,,,,,,,4,,,50,105
55920,note_on,12,0,6,,,,,,,,5,,,38,105
56016,note_on,96,0,7,,,,,,,,2,,,50,0
56016,note_on,96,0,5,,,,,,,,4,,,50,0
56016,note_on,96,0,6,,,,,,,,5,,,38,0
56040,note_on,24,0,5,,,,,,,,4,,,46,105
56040,note_on,24,0,7,,,,,,,,2,,,46,105
56040,note_on,24,0,6,,,,,,,,5,,,34,105
56064,note_on,384,0,2,,,,,,,,1,,,82,0
56064,note_on,384,0,3,,,,,,,,0,,,74,0
56064,note_on,384,0,1,,,,,,,,0,,,82,0
56064,note_on,864,0,4,,,,,,,,3,,,65,0
56064,note_on,24,0,7,,,,,,,,2,,,58,0
56064,note_on,0,0,7,,,,,,,,2,,,70,0
56064,note_on,0,0,7,,,,,,,,2,,,65,0
56136,note_on,96,0,6,,,,,,,,5,,,34,0
56136,note_on,72,0,7,,,,,,,,2,,,46,0
56136,note_on,96,0,5,,,,,,,,4,,,46,0
56160,note_on,24,0,5,,,,,,,,4,,,51,105
56160,note_on,96,0,3,,,,,,,,0,,,70,105
56160,note_on,96,0,1,,,,,,,,0,,,79,105
56160,note_on,24,0,6,,,,,,,,5,,,39,105
56160,note_on,0,0,7,,,,,,,,2,,,63,105
56160,note_on,0,0,7,,,,,,,,2,,,51,105
56160,note_on,24,0,7,,,,,,,,2,,,58,105
56160,note_on,96,0,2,,,,,,,,1,,,79,105
56160,note_on,96,0,4,,,,,,,,3,,,63,105
56160,note_on,0,0,7,,,,,,,,2,,,67,105
56256,note_on,96,0,5,,,,,,,,4,,,51,0
56256,note_on,96,0,6,,,,,,,,5,,,39,0
56256,note_on,96,0,7,,,,,,,,2,,,51,0
56280,note_on,24,0,6,,,,,,,,5,,,39,105
56280,note_on,24,0,7,,,,,,,,2,,,51,105
56280,note_on,24,0,5,,,,,,,,4,,,51,105
56376,note_on,96,0,7,,,,,,,,2,,,51,0
56376,note_on,96,0,6,,,,,,,,5,,,39,0
56376,note_on,96,0,5,,,,,,,,4,,,51,0
56400,note_on,24,0,5,,,,,,,,4,,,51,105
56400,note_on,24,0,7,,,,,,,,2,,,51,105
56400,note_on,24,0,6,,,,,,,,5,,,39,105
56496,note_on,96,0,5,,,,,,,,4,,,51,0
56496,note_on,96,0,7,,,,,,,,2,,,51,0
56496,note_on,96,0,6,,,,,,,,5,,,39,0
56520,note_on,24,0,6,,,,,,,,5,,,38,105
56520,note_on,24,0,5,,,,,,,,4,,,50,105
56520,note_on,24,0,7,,,,,,,,2,,,50,105
56544,note_on,384,0,3,,,,,,,,0,,,70,0
56544,note_on,384,0,2,,,,,,,,1,,,79,0
56544,note_on,24,0,7,,,,,,,,2,,,58,0
56544,note_on,0,0,7,,,,,,,,2,,,67,0
56544,note_on,0,0,7,,,,,,,,2,,,63,0
56544,note_on,384,0,1,,,,,,,,0,,,79,0
56616,note_on,96,0,5,,,,,,,,4,,,50,0
56616,note_on,72,0,7,,,,,,,,2,,,50,0
56616,note_on,96,0,6,,,,,,,,5,,,38,0
56640,note_on,96,0,2,,,,,,,,1,,,81,105
56640,note_on,24,0,6,,,,,,,,5,,,36,105
56640,note_on,24,0,5,,,,,,,,4,,,48,105
56640,note_on,96,0,3,,,,,,,,0,,,72,105
56640,note_on,96,0,1,,,,,,,,0,,,81,105
56640,note_on,0,0,7,,,,,,,,2,,,63,105
56640,note_on,24,0,7,,,,,,,,2,,,69,105
56640,note_on,0,0,7,,,,,,,,2,,,48,105
56640,note_on,0,0,7,,,,,,,,2,,,57,105
56832,note_on,192,0,1,,,,,,,,0,,,81,0
56832,note_on,192,0,5,,,,,,,,4,,,48,0
56832,note_on,672,0,4,,,,,,,,3,,,63,0
56832,note_on,192,0,3,,,,,,,,0,,,72,0
56832,note_on,192,0,2,,,,,,,,1,,,81,0
56832,note_on,192,0,6,,,,,,,,5,,,36,0
56832,note_on,192,0,7,,,,,,,,2,,,48,0
56832,note_on,0,0,7,,,,,,,,2,,,69,0
56832,note_on,0,0,7,,,,,,,,2,,,63,0
56832,note_on,0,0,7,,,,,,,,2,,,57,0
56880,note_on,0,0,7,,,,,,,,2,,,64,105
56880,note_on,48,0,6,,,,,,,,5,,,37,105
56880,note_on,0,0,7,,,,,,,,2,,,49,105
56880,note_on,0,0,7,,,,,,,,2,,,58,105
56880,note_on,48,0,2,,,,,,,,1,,,79,105
56880,note_on,48,0,3,,,,,,,,0,,,70,105
56880,note_on,48,0,7,,,,,,,,2,,,67,105
56880,note_on,48,0,4,,,,,,,,3,,,64,105
56880,note_on,48,0,5,,,,,,,,4,,,49,105
56880,note_on,48,0,1,,,,,,,,0,,,79,105
57072,note_on,192,0,6,,,,,,,,5,,,37,0
57072,note_on,192,0,4,,,,,,,,3,,,64,0
57072,note_on,192,0,3,,,,,,,,0,,,70,0
57072,note_on,192,0,2,,,,,,,,1,,,79,0
57072,note_on,0,0,7,,,,,,,,2,,,64,0
57072,note_on,192,0,5,,,,,,,,4,,,49,0
57072,note_on,192,0,7,,,,,,,,2,,,49,0
57072,note_on,192,0,1,,,,,,,,0,,,79,0
57072,note_on,0,0,7,,,,,,,,2,,,67,0
57072,note_on,0,0,7,,,,,,,,2,,,58,0
57120,note_on,48,0,3,,,,,,,,0,,,69,105
57120,note_on,48,0,1,,,,,,,,0,,,78,105
57120,note_on,48,0,4,,,,,,,,3,,,66,105
57120,note_on,48,0,7,,,,,,,,2,,,66,105
57120,note_on,0,0,7,,,,,,,,2,,,50,105
57120,note_on,48,0,5,,,,,,,,4,,,50,105
57120,note_on,0,0,7,,,,,,,,2,,,62,105
57120,note_on,0,0,7,,,,,,,,2,,,57,105
57120,note_on,48,0,2,,,,,,,,1,,,78,105
57120,note_on,48,0,6,,,,,,,,5,,,38,105
57168,note_on,48,0,5,,,,,,,,4,,,50,0
57168,note_on,48,0,7,,,,,,,,2,,,50,0
57168,note_on,48,0,6,,,,,,,,5,,,38,0
57180,note_on,12,0,5,,,,,,,,4,,,54,105
57180,note_on,12,0,6,,,,,,,,5,,,42,105
57180,note_on,12,0,7,,,,,,,,2,,,54,105
57216,note_on,96,0,2,,,,,,,,1,,,78,0
57216,note_on,0,0,7,,,,,,,,2,,,62,0
57216,note_on,96,0,1,,,,,,,,0,,,78,0
57216,note_on,96,0,4,,,,,,,,3,,,66,0
57216,note_on,96,0,3,,,,,,,,0,,,69,0
57216,note_on,0,0,7,,,,,,,,2,,,57,0
57216,note_on,36,0,7,,,,,,,,2,,,66,0
57228,note_on,48,0,6,,,,,,,,5,,,42,0
57228,note_on,12,0,7,,,,,,,,2,,,54,0
57228,note_on,48,0,5,,,,,,,,4,,,54,0
57240,note_on,24,0,1,,,,,,,,0,,,81,105
57240,note_on,24,0,2,,,,,,,,1,,,81,105
57240,note_on,12,0,6,,,,,,,,5,,,40,105
57240,note_on,24,0,3,,,,,,,,0,,,78,105
57240,note_on,12,0,5,,,,,,,,4,,,52,105
57240,note_on,24,0,4,,,,,,,,3,,,66,105
57240,note_on,0,0,7,,,,,,,,2,,,69,105
57240,note_on,12,0,7,,,,,,,,2,,,52,105
57288,note_on,48,0,7,,,,,,,,2,,,52,0
57288,note_on,48,0,6,,,,,,,,5,,,40,0
57288,note_on,48,0,5,,,,,,,,4,,,52,0
57300,note_on,12,0,5,,,,,,,,4,,,50,105
57300,note_on,12,0,6,,,,,,,,5,,,38,105
57300,note_on,12,0,7,,,,,,,,2,,,50,105
57336,note_on,96,0,4,,,,,,,,3,,,66,0
57336,note_on,96,0,3,,,,,,,,0,,,78,0
57336,note_on,96,0,2,,,,,,,,1,,,81,0
57336,note_on,36,0,7,,,,,,,,2,,,69,0
57336,note_on,96,0,1,,,,,,,,0,,,81,0
57348,note_on,48,0,5,,,,,,,,4,,,50,0
57348,note_on,12,0,7,,,,,,,,2,,,50,0
57348,note_on,48,0,6,,,,,,,,5,,,38,0
57360,note_on,12,0,6,,,,,,,,5,,,50,105
57360,note_on,12,0,7,,,,,,,,2,,,66,105
57360,note_on,0,0,7,,,,,,,,2,,,62,105
57360,note_on,12,0,5,,,,,,,,4,,,62,105
57408,note_on,48,0,6,,,,,,,,5,,,50,0
57408,note_on,48,0,5,,,,,,,,4,,,62,0
57408,note_on,48,0,7,,,,,,,,2,,,62,0
57420,note_on,12,0,5,,,,,,,,4,,,54,105
57420,note_on,12,0,7,,,,,,,,2,,,54,105
57420,note_on,12,0,6,,,,,,,,5,,,42,105
57456,note_on,36,0,7,,,,,,,,2,,,66,0
57468,note_on,48,0,5,,,,,,,,4,,,54,0
57468,note_on,12,0,7,,,,,,,,2,,,54,0
57468,note_on,48,0,6,,,,,,,,5,,,42,0
57480,note_on,144,0,4,,,,,,,,3,,,66,105
57480,note_on,12,0,6,,,,,,,,5,,,40,105
57480,note_on,144,0,3,,,,,,,,0,,,72,105
57480,note_on,144,0,1,,,,,,,,0,,,78,105
57480,note_on,12,0,5,,,,,,,,4,,,52,105
57480,note_on,12,0,7,,,,,,,,2,,,62,105
57480,note_on,0,0,7,,,,,,,,2,,,52,105
57480,note_on,144,0,2,,,,,,,,1,,,78,105
57528,note_on,48,0,5,,,,,,,,4,,,52,0
57528,note_on,48,0,6,,,,,,,,5,,,40,0
57528,note_on,48,0,7,,,,,,,,2,,,52,0
57540,note_on,12,0,6,,,,,,,,5,,,38,105
57540,note_on,12,0,5,,,,,,,,4,,,50,105
57540,note_on,12,0,7,,,,,,,,2,,,50,105
57576,note_on,96,0,4,,,,,,,,3,,,66,0
57576,note_on,96,0,2,,,,,,,,1,,,78,0
57576,note_on,36,0,7,,,,,,,,2,,,62,0
57576,note_on,96,0,3,,,,,,,,0,,,72,0
57576,note_on,96,0,1,,,,,,,,0,,,78,0
57588,note_on,48,0,5,,,,,,,,4,,,50,0
57588,note_on,48,0,6,,,,,,,,5,,,38,0
57588,note_on,12,0,7,,,,,,,,2,,,50,0
57600,note_on,0,0,7,,,,,,,,2,,,55,105
57600,note_on,0,0,7,,,,,,,,2,,,62,105
57600,note_on,12,0,6,,,,,,,,5,,,43,105
57600,note_on,12,0,5,,,,,,,,4,,,55,105
57600,note_on,12,0,7,,,,,,,,2,,,70,105
57696,note_on,96,0,7,,,,,,,,2,,,55,0
57696,note_on,96,0,6,,,,,,,,5,,,43,0
57696,note_on,96,0,5,,,,,,,,4,,,55,0
57720,note_on,144,0,1,,,,,,,,0,,,77,105
57720,note_on,144,0,4,,,,,,,,3,,,62,105
57720,note_on,24,0,7,,,,,,,,2,,,43,105
57720,note_on,144,0,2,,,,,,,,1,,,77,105
57720,note_on,24,0,5,,,,,,,,4,,,43,105
57720,note_on,24,0,6,,,,,,,,5,,,31,105
57720,note_on,144,0,3,,,,,,,,0,,,70,105
57792,note_on,0,0,7,,,,,,,,2,,,70,0
57792,note_on,72,0,7,,,,,,,,2,,,62,0
57816,note_on,96,0,3,,,,,,,,0,,,70,0
57816,note_on,96,0,4,,,,,,,,3,,,62,0
57816,note_on,96,0,2,,,,,,,,1,,,77,0
57816,note_on,96,0,5,,,,,,,,4,,,43,0
57816,note_on,96,0,6,,,,,,,,5,,,31,0
57816,note_on,96,0,1,,,,,,,,0,,,77,0
57816,note_on,24,0,7,,,,,,,,2,,,43,0
57840,note_on,24,0,2,,,,,,,,1,,,81,105
57840,note_on,24,0,4,,,,,,,,3,,,63,105
57840,note_on,24,0,6,,,,,,,,5,,,36,105
57840,note_on,24,0,7,,,,,,,,2,,,69,105
57840,note_on,0,0,7,,,,,,,,2,,,48,105
57840,note_on,0,0,7,,,,,,,,2,,,63,105
57840,note_on,24,0,3,,,,,,,,0,,,72,105
57840,note_on,24,0,5,,,,,,,,4,,,48,105
57840,note_on,24,0,1,,,,,,,,0,,,81,105
57936,note_on,96,0,2,,,,,,,,1,,,81,0
57936,note_on,96,0,7,,,,,,,,2,,,63,0
57936,note_on,96,0,3,,,,,,,,0,,,72,0
57936,note_on,96,0,5,,,,,,,,4,,,48,0
57936,note_on,96,0,6,,,,,,,,5,,,36,0
57936,note_on,0,0,7,,,,,,,,2,,,48,0
57936,note_on,96,0,1,,,,,,,,0,,,81,0
57936,note_on,96,0,4,,,,,,,,3,,,63,0
57960,note_on,24,0,5,,,,,,,,4,,,50,105
57960,note_on,24,0,4,,,,,,,,3,,,62,105
57960,note_on,24,0,7,,,,,,,,2,,,50,105
57960,note_on,0,0,7,,,,,,,,2,,,66,105
57960,note_on,24,0,1,,,,,,,,0,,,79,105
57960,note_on,24,0,2,,,,,,,,1,,,79,105
57960,note_on,24,0,6,,,,,,,,5,,,38,105
57960,note_on,24,0,3,,,,,,,,0,,,70,105
58008,note_on,48,0,1,,,,,,,,0,,,79,0
58008,note_on,48,0,2,,,,,,,,1,,,79,0
58008,note_on,48,0,3,,,,,,,,0,,,70,0
58020,note_on,12,0,1,,,,,,,,0,,,78,105
58020,note_on,12,0,3,,,,,,,,0,,,69,105
58020,note_on,12,0,2,,,,,,,,1,,,78,105
58032,note_on,72,0,7,,,,,,,,2,,,69,0
58056,note_on,96,0,4,,,,,,,,3,,,62,0
58056,note_on,24,0,7,,,,,,,,2,,,66,0
58056,note_on,96,0,6,,,,,,,,5,,,38,0
58056,note_on,0,0,7,,,,,,,,2,,,50,0
58056,note_on,96,0,5,,,,,,,,4,,,50,0
58068,note_on,48,0,1,,,,,,,,0,,,78,0
58068,note_on,48,0,3,,,,,,,,0,,,69,0
58068,note_on,48,0,2,,,,,,,,1,,,78,0
58080,note_on,24,0,7,,,,,,,,2,,,43,105
58080,note_on,12,0,2,,,,,,,,1,,,79,105
58080,note_on,12,0,1,,,,,,,,0,,,79,105
58080,note_on,0,0,7,,,,,,,,2,,,67,105
58080,note_on,0,0,7,,,,,,,,2,,,62,105
58080,note_on,24,0,6,,,,,,,,5,,,31,105
58080,note_on,24,0,5,,,,,,,,4,,,43,105
58080,note_on,24,0,4,,,,,,,,3,,,62,105
58080,note_on,12,0,3,,,,,,,,0,,,70,105
58176,note_on,96,0,3,,,,,,,,0,,,70,0
58176,note_on,96,0,6,,,,,,,,5,,,31,0
58176,note_on,96,0,7,,,,,,,,2,,,43,0
58176,note_on,96,0,5,,,,,,,,4,,,43,0
58176,note_on,96,0,4,,,,,,,,3,,,62,0
58176,note_on,96,0,1,,,,,,,,0,,,79,0
58176,note_on,96,0,2,,,,,,,,1,,,79,0
58200,note_on,24,0,1,,,,,,,,0,,,70,105
58200,note_on,24,0,2,,,,,,,,1,,,70,105
58200,note_on,24,0,6,,,,,,,,5,,,43,105
58200,note_on,24,0,7,,,,,,,,2,,,55,105
58200,note_on,24,0,3,,,,,,,,0,,,67,105
58200,note_on,24,0,5,,,,,,,,4,,,55,105
58200,note_on,24,0,4,,,,,,,,3,,,62,105
58272,note_on,0,0,7,,,,,,,,2,,,67,0
58272,note_on,72,0,7,,,,,,,,2,,,62,0
58296,note_on,96,0,4,,,,,,,,3,,,62,0
58296,note_on,96,0,6,,,,,,,,5,,,43,0
58296,note_on,96,0,2,,,,,,,,1,,,70,0
58296,note_on,24,0,7,,,,,,,,2,,,55,0
58296,note_on,96,0,5,,,,,,,,4,,,55,0
58296,note_on,96,0,1,,,,,,,,0,,,70,0
58296,note_on,96,0,3,,,,,,,,0,,,67,0
58320,note_on,0,0,7,,,,,,,,2,,,69,105
58320,note_on,0,0,7,,,,,,,,2,,,63,105
58320,note_on,24,0,5,,,,,,,,4,,,48,105
58320,note_on,24,0,7,,,,,,,,2,,,48,105
58320,note_on,24,0,6,,,,,,,,5,,,36,105
58320,note_on,24,0,4,,,,,,,,3,,,63,105
58320,note_on,24,0,3,,,,,,,,0,,,69,105
58320,note_on,24,0,1,,,,,,,,0,,,72,105
58320,note_on,24,0,2,,,,,,,,1,,,72,105
58416,note_on,96,0,3,,,,,,,,0,,,69,0
58416,note_on,96,0,5,,,,,,,,4,,,48,0
58416,note_on,96,0,1,,,,,,,,0,,,72,0
58416,note_on,96,0,6,,,,,,,,5,,,36,0
58416,note_on,96,0,7,,,,,,,,2,,,63,0
58416,note_on,0,0,7,,,,,,,,2,,,48,0
58416,note_on,96,0,4,,,,,,,,3,,,63,0
58416,note_on,96,0,2,,,,,,,,1,,,72,0
58440,note_on,24,0,5,,,,,,,,4,,,50,105
58440,note_on,24,0,1,,,,,,,,0,,,70,105
58440,note_on,24,0,6,,,,,,,,5,,,38,105
58440,note_on,24,0,4,,,,,,,,3,,,62,105
58440,note_on,24,0,2,,,,,,,,1,,,70,105
58440,note_on,24,0,7,,,,,,,,2,,,50,105
58440,note_on,24,0,3,,,,,,,,0,,,67,105
58440,note_on,0,0,7,,,,,,,,2,,,66,105
58488,note_on,48,0,2,,,,,,,,1,,,70,0
58488,note_on,48,0,3,,,,,,,,0,,,67,0
58488,note_on,48,0,1,,,,,,,,0,,,70,0
58500,note_on,12,0,2,,,,,,,,1,,,69,105
58500,note_on,12,0,1,,,,,,,,0,,,69,105
58500,note_on,12,0,3,,,,,,,,0,,,66,105
58512,note_on,72,0,7,,,,,,,,2,,,69,0
58536,note_on,24,0,7,,,,,,,,2,,,66,0
58536,note_on,96,0,4,,,,,,,,3,,,62,0
58536,note_on,96,0,6,,,,,,,,5,,,38,0
58536,note_on,96,0,5,,,,,,,,4,,,50,0
58536,note_on,0,0,7,,,,,,,,2,,,50,0
58548,note_on,48,0,2,,,,,,,,1,,,69,0
58548,note_on,48,0,1,,,,,,,,0,,,69,0
58548,note_on,48,0,3,,,,,,,,0,,,66,0
58560,note_on,0,0,7,,,,,,,,2,,,62,105
58560,note_on,12,0,3,,,,,,,,0,,,67,105
58560,note_on,24,0,7,,,,,,,,2,,,70,105
58560,note_on,0,0,7,,,,,,,,2,,,43,105
58560,note_on,24,0,5,,,,,,,,4,,,43,105
58560,note_on,12,0,2,,,,,,,,1,,,70,105
58560,note_on,24,0,6,,,,,,,,5,,,31,105
58560,note_on,24,0,4,,,,,,,,3,,,62,105
58560,note_on,12,0,1,,,,,,,,0,,,67,105
58608,note_on,48,0,1,,,,,,,,0,,,67,0
58620,note_on,12,0,1,,,,,,,,0,,,69,105
58668,note_on,48,0,1,,,,,,,,0,,,69,0
58680,note_on,12,0,1,,,,,,,,0,,,70,105
58728,note_on,48,0,1,,,,,,,,0,,,70,0
58740,note_on,12,0,1,,,,,,,,0,,,70,105
58752,note_on,192,0,7,,,,,,,,2,,,43,0
58752,note_on,192,0,5,,,,,,,,4,,,43,0
58752,note_on,192,0,3,,,,,,,,0,,,67,0
58752,note_on,192,0,6,,,,,,,,5,,,31,0
58752,note_on,192,0,2,,,,,,,,1,,,70,0
58752,note_on,192,0,4,,,,,,,,3,,,62,0
58788,note_on,48,0,1,,,,,,,,0,,,70,0
58800,note_on,48,0,7,,,,,,,,2,,,55,105
58800,note_on,48,0,5,,,,,,,,4,,,55,105
58800,note_on,12,0,1,,,,,,,,0,,,70,105
58848,note_on,48,0,1,,,,,,,,0,,,70,0
58860,note_on,12,0,1,,,,,,,,0,,,72,105
58908,note_on,48,0,1,,,,,,,,0,,,72,0
58920,note_on,12,0,1,,,,,,,,0,,,74,105
58944,note_on,0,0,7,,,,,,,,2,,,70,0
58944,note_on,144,0,7,,,,,,,,2,,,62,0
58968,note_on,48,0,1,,,,,,,,0,,,74,0
58980,note_on,12,0,1,,,,,,,,0,,,74,105
58992,note_on,48,0,7,,,,,,,,2,,,55,0
58992,note_on,192,0,5,,,,,,,,4,,,55,0
59028,note_on,48,0,1,,,,,,,,0,,,74,0
59040,note_on,0,0,7,,,,,,,,2,,,54,105
59040,note_on,0,0,7,,,,,,,,2,,,62,105
59040,note_on,0,0,7,,,,,,,,2,,,74,105
59040,note_on,48,0,5,,,,,,,,4,,,54,105
59040,note_on,48,0,7,,,,,,,,2,,,69,105
59040,note_on,12,0,1,,,,,,,,0,,,74,105
59088,note_on,48,0,1,,,,,,,,0,,,74,0
59100,note_on,12,0,1,,,,,,,,0,,,76,105
59148,note_on,48,0,1,,,,,,,,0,,,76,0
59160,note_on,0,0,1,,,,,,,,0,,,78,105
59160,note_on,12,0,1,,,,,,,,0,,,78,105
59208,note_on,0,0,1,,,,,,,,0,,,78,0
59208,note_on,48,0,1,,,,,,,,0,,,78,0
59220,note_on,12,0,1,,,,,,,,0,,,78,105
59232,note_on,192,0,7,,,,,,,,2,,,54,0
59232,note_on,192,0,5,,,,,,,,4,,,54,0
59268,note_on,48,0,1,,,,,,,,0,,,78,0
59280,note_on,12,0,1,,,,,,,,0,,,78,105
59280,note_on,48,0,5,,,,,,,,4,,,50,105
59280,note_on,48,0,7,,,,,,,,2,,,50,105
59328,note_on,48,0,1,,,,,,,,0,,,78,0
59340,note_on,12,0,1,,,,,,,,0,,,79,105
59388,note_on,48,0,1,,,,,,,,0,,,79,0
59400,note_on,12,0,1,,,,,,,,0,,,81,105
59424,note_on,144,0,7,,,,,,,,2,,,69,0
59424,note_on,0,0,7,,,,,,,,2,,,74,0
59424,note_on,0,0,7,,,,,,,,2,,,62,0
59448,note_on,48,0,1,,,,,,,,0,,,81,0
59460,note_on,12,0,1,,,,,,,,0,,,81,105
59472,note_on,192,0,5,,,,,,,,4,,,50,0
59472,note_on,48,0,7,,,,,,,,2,,,50,0
59508,note_on,48,0,1,,,,,,,,0,,,81,0
59520,note_on,12,0,1,,,,,,,,0,,,81,105
59520,note_on,48,0,7,,,,,,,,2,,,74,105
59520,note_on,0,0,7,,,,,,,,2,,,69,105
59520,note_on,0,0,7,,,,,,,,2,,,38,105
59520,note_on,0,0,7,,,,,,,,2,,,62,105
59520,note_on,48,0,5,,,,,,,,4,,,38,105
59568,note_on,48,0,1,,,,,,,,0,,,81,0
59580,note_on,12,0,1,,,,,,,,0,,,82,105
59628,note_on,48,0,1,,,,,,,,0,,,82,0
59640,note_on,12,0,1,,,,,,,,0,,,84,105
59688,note_on,48,0,1,,,,,,,,0,,,84,0
59700,note_on,12,0,1,,,,,,,,0,,,84,105
59712,note_on,192,0,5,,,,,,,,4,,,38,0
59712,note_on,192,0,7,,,,,,,,2,,,38,0
59748,note_on,48,0,1,,,,,,,,0,,,84,0
59760,note_on,48,0,5,,,,,,,,4,,,57,105
59760,note_on,48,0,7,,,,,,,,2,,,57,105
59760,note_on,12,0,1,,,,,,,,0,,,84,105
59904,note_on,0,0,7,,,,,,,,2,,,62,0
59904,note_on,0,0,7,,,,,,,,2,,,69,0
59904,note_on,144,0,7,,,,,,,,2,,,74,0
59952,note_on,192,0,5,,,,,,,,4,,,57,0
59952,note_on,48,0,7,,,,,,,,2,,,57,0
60000,note_on,48,0,7,,,,,,,,2,,,72,105
60000,note_on,0,0,7,,,,,,,,2,,,54,105
60000,note_on,0,0,7,,,,,,,,2,,,69,105
60000,note_on,48,0,5,,,,,,,,4,,,54,105
60000,note_on,0,0,7,,,,,,,,2,,,62,105
60096,note_on,336,0,1,,,,,,,,0,,,84,0
60120,note_on,24,0,1,,,,,,,,0,,,82,105
60168,note_on,48,0,1,,,,,,,,0,,,82,0
60180,note_on,12,0,1,,,,,,,,0,,,84,105
60192,note_on,192,0,7,,,,,,,,2,,,54,0
60192,note_on,192,0,5,,,,,,,,4,,,54,0
60228,note_on,48,0,1,,,,,,,,0,,,84,0
60240,note_on,12,0,1,,,,,,,,0,,,86,105
60240,note_on,48,0,7,,,,,,,,2,,,50,105
60240,note_on,48,0,5,,,,,,,,4,,,50,105
60288,note_on,48,0,1,,,,,,,,0,,,86,0
60300,note_on,12,0,1,,,,,,,,0,,,84,105
60348,note_on,48,0,1,,,,,,,,0,,,84,0
60360,note_on,12,0,1,,,,,,,,0,,,82,105
60384,note_on,144,0,7,,,,,,,,2,,,72,0
60384,note_on,0,0,7,,,,,,,,2,,,62,0
60384,note_on,0,0,7,,,,,,,,2,,,69,0
60408,note_on,48,0,1,,,,,,,,0,,,82,0
60420,note_on,12,0,1,,,,,,,,0,,,81,105
60432,note_on,192,0,5,,,,,,,,4,,,50,0
60432,note_on,48,0,7,,,,,,,,2,,,50,0
60468,note_on,48,0,1,,,,,,,,0,,,81,0
60480,note_on,0,0,7,,,,,,,,2,,,62,105
60480,note_on,0,0,7,,,,,,,,2,,,55,105
60480,note_on,0,0,7,,,,,,,,2,,,67,105
60480,note_on,48,0,7,,,,,,,,2,,,70,105
60480,note_on,12,0,1,,,,,,,,0,,,82,105
60480,note_on,48,0,5,,,,,,,,4,,,55,105
60528,note_on,48,0,1,,,,,,,,0,,,82,0
60540,note_on,12,0,1,,,,,,,,0,,,79,105
60588,note_on,48,0,1,,,,,,,,0,,,79,0
60600,note_on,12,0,1,,,,,,,,0,,,74,105
60648,note_on,48,0,1,,,,,,,,0,,,74,0
60660,note_on,12,0,1,,,,,,,,0,,,70,105
60672,note_on,192,0,5,,,,,,,,4,,,55,0
60672,note_on,192,0,7,,,,,,,,2,,,55,0
60708,note_on,48,0,1,,,,,,,,0,,,70,0
60720,note_on,48,0,7,,,,,,,,2,,,43,105
60720,note_on,48,0,5,,,,,,,,4,,,43,105
60720,note_on,12,0,1,,,,,,,,0,,,67,105
60816,note_on,96,0,1,,,,,,,,0,,,67,0
60864,note_on,0,0,7,,,,,,,,2,,,67,0
60864,note_on,0,0,7,,,,,,,,2,,,62,0
60864,note_on,144,0,7,,,,,,,,2,,,70,0
60912,note_on,192,0,5,,,,,,,,4,,,43,0
60912,note_on,48,0,7,,,,,,,,2,,,43,0
60960,note_on,144,0,1,,,,,,,,0,,,67,105
61008,note_on,48,0,1,,,,,,,,0,,,67,0
61020,note_on,12,0,1,,,,,,,,0,,,69,105
61068,note_on,48,0,1,,,,,,,,0,,,69,0
61080,note_on,12,0,1,,,,,,,,0,,,71,105
61128,note_on,48,0,1,,,,,,,,0,,,71,0
61140,note_on,12,0,1,,,,,,,,0,,,71,105
61188,note_on,48,0,1,,,,,,,,0,,,71,0
61200,note_on,12,0,1,,,,,,,,0,,,71,105
61200,note_on,288,0,7,,,,,,,,2,,,62,105
61200,note_on,288,0,5,,,,,,,,4,,,62,105
61248,note_on,48,0,1,,,,,,,,0,,,71,0
61260,note_on,12,0,1,,,,,,,,0,,,72,105
61308,note_on,48,0,1,,,,,,,,0,,,72,0
61320,note_on,12,0,1,,,,,,,,0,,,74,105
61368,note_on,48,0,1,,,,,,,,0,,,74,0
61380,note_on,12,0,1,,,,,,,,0,,,74,105
61392,note_on,192,0,5,,,,,,,,4,,,62,0
61392,note_on,192,0,7,,,,,,,,2,,,62,0
61428,note_on,48,0,1,,,,,,,,0,,,74,0
61440,note_on,48,0,7,,,,,,,,2,,,67,105
61440,note_on,0,0,7,,,,,,,,2,,,59,105
61440,note_on,48,0,5,,,,,,,,4,,,59,105
61440,note_on,12,0,1,,,,,,,,0,,,74,105
61488,note_on,48,0,1,,,,,,,,0,,,74,0
61500,note_on,12,0,1,,,,,,,,0,,,75,105
61548,note_on,48,0,1,,,,,,,,0,,,75,0
61560,note_on,12,0,1,,,,,,,,0,,,77,105
61608,note_on,48,0,1,,,,,,,,0,,,77,0
61620,note_on,12,0,1,,,,,,,,0,,,77,105
61632,note_on,0,0,7,,,,,,,,2,,,67,0
61632,note_on,192,0,7,,,,,,,,2,,,59,0
61632,note_on,192,0,5,,,,,,,,4,,,59,0
61668,note_on,48,0,1,,,,,,,,0,,,77,0
61680,note_on,0,0,7,,,,,,,,2,,,55,105
61680,note_on,12,0,1,,,,,,,,0,,,77,105
61680,note_on,48,0,7,,,,,,,,2,,,71,105
61680,note_on,48,0,5,,,,,,,,4,,,55,105
61728,note_on,48,0,1,,,,,,,,0,,,77,0
61740,note_on,12,0,1,,,,,,,,0,,,79,105
61788,note_on,48,0,1,,,,,,,,0,,,79,0
61800,note_on,12,0,1,,,,,,,,0,,,80,105
61848,note_on,48,0,1,,,,,,,,0,,,80,0
61860,note_on,12,0,1,,,,,,,,0,,,80,105
61872,note_on,192,0,5,,,,,,,,4,,,55,0
61872,note_on,0,0,7,,,,,,,,2,,,71,0
61872,note_on,192,0,7,,,,,,,,2,,,55,0
61908,note_on,48,0,1,,,,,,,,0,,,80,0
61920,note_on,0,0,7,,,,,,,,2,,,74,105
61920,note_on,0,0,7,,,,,,,,2,,,68,105
61920,note_on,12,0,1,,,,,,,,0,,,80,105
61920,note_on,0,0,7,,,,,,,,2,,,65,105
61920,note_on,48,0,5,,,,,,,,4,,,47,105
61920,note_on,48,0,7,,,,,,,,2,,,47,105
62112,note_on,192,0,5,,,,,,,,4,,,47,0
62112,note_on,192,0,7,,,,,,,,2,,,47,0
62160,note_on,48,0,5,,,,,,,,4,,,59,105
62160,note_on,48,0,7,,,,,,,,2,,,59,105
62208,note_on,288,0,1,,,,,,,,0,,,80,0
62280,note_on,72,0,1,,,,,,,,0,,,79,105
62304,note_on,0,0,7,,,,,,,,2,,,68,0
62304,note_on,0,0,7,,,,,,,,2,,,74,0
62304,note_on,144,0,7,,,,,,,,2,,,65,0
62328,note_on,48,0,1,,,,,,,,0,,,79,0
62340,note_on,12,0,1,,,,,,,,0,,,77,105
62352,note_on,192,0,5,,,,,,,,4,,,59,0
62352,note_on,48,0,7,,,,,,,,2,,,59,0
62388,note_on,48,0,1,,,,,,,,0,,,77,0
62400,note_on,48,0,5,,,,,,,,4,,,60,105
62400,note_on,12,0,1,,,,,,,,0,,,75,105
62400,note_on,0,0,7,,,,,,,,2,,,67,105
62400,note_on,0,0,7,,,,,,,,2,,,60,105
62400,note_on,0,0,7,,,,,,,,2,,,63,105
62400,note_on,48,0,7,,,,,,,,2,,,72,105
62448,note_on,48,0,1,,,,,,,,0,,,75,0
62460,note_on,12,0,1,,,,,,,,0,,,72,105
62508,note_on,48,0,1,,,,,,,,0,,,72,0
62520,note_on,12,0,1,,,,,,,,0,,,67,105
62568,note_on,48,0,1,,,,,,,,0,,,67,0
62580,note_on,12,0,1,,,,,,,,0,,,63,105
62592,note_on,192,0,7,,,,,,,,2,,,60,0
62592,note_on,192,0,5,,,,,,,,4,,,60,0
62628,note_on,48,0,1,,,,,,,,0,,,63,0
62640,note_on,12,0,1,,,,,,,,0,,,60,105
62640,note_on,48,0,7,,,,,,,,2,,,48,105
62640,note_on,48,0,5,,,,,,,,4,,,48,105
62736,note_on,96,0,1,,,,,,,,0,,,60,0
62784,note_on,0,0,7,,,,,,,,2,,,67,0
62784,note_on,0,0,7,,,,,,,,2,,,63,0
62784,note_on,144,0,7,,,,,,,,2,,,72,0
62832,note_on,48,0,7,,,,,,,,2,,,48,0
62832,note_on,192,0,5,,,,,,,,4,,,48,0
62880,note_on,144,0,1,,,,,,,,0,,,69,105
62928,note_on,48,0,1,,,,,,,,0,,,69,0
62940,note_on,12,0,1,,,,,,,,0,,,71,105
62988,note_on,48,0,1,,,,,,,,0,,,71,0
63000,note_on,12,0,1,,,,,,,,0,,,73,105
63048,note_on,48,0,1,,,,,,,,0,,,73,0
63060,note_on,12,0,1,,,,,,,,0,,,73,105
63108,note_on,48,0,1,,,,,,,,0,,,73,0
63120,note_on,288,0,5,,,,,,,,4,,,64,105
63120,note_on,288,0,7,,,,,,,,2,,,64,105
63120,note_on,12,0,1,,,,,,,,0,,,73,105
63168,note_on,48,0,1,,,,,,,,0,,,73,0
63180,note_on,12,0,1,,,,,,,,0,,,74,105
63228,note_on,48,0,1,,,,,,,,0,,,74,0
63240,note_on,12,0,1,,,,,,,,0,,,76,105
63288,note_on,48,0,1,,,,,,,,0,,,76,0
63300,note_on,12,0,1,,,,,,,,0,,,76,105
63312,note_on,192,0,5,,,,,,,,4,,,64,0
63312,note_on,192,0,7,,,,,,,,2,,,64,0
63348,note_on,48,0,1,,,,,,,,0,,,76,0
63360,note_on,0,0,7,,,,,,,,2,,,61,105
63360,note_on,48,0,7,,,,,,,,2,,,69,105
63360,note_on,48,0,5,,,,,,,,4,,,61,105
63360,note_on,12,0,1,,,,,,,,0,,,76,105
63408,note_on,48,0,1,,,,,,,,0,,,76,0
63420,note_on,12,0,1,,,,,,,,0,,,77,105
63468,note_on,48,0,1,,,,,,,,0,,,77,0
63480,note_on,12,0,1,,,,,,,,0,,,79,105
63528,note_on,48,0,1,,,,,,,,0,,,79,0
63540,note_on,12,0,1,,,,,,,,0,,,79,105
63552,note_on,0,0,7,,,,,,,,2,,,69,0
63552,note_on,192,0,7,,,,,,,,2,,,61,0
63552,note_on,192,0,5,,,,,,,,4,,,61,0
63588,note_on,48,0,1,,,,,,,,0,,,79,0
63600,note_on,12,0,1,,,,,,,,0,,,79,105
63600,note_on,0,0,7,,,,,,,,2,,,57,105
63600,note_on,48,0,7,,,,,,,,2,,,73,105
63600,note_on,48,0,5,,,,,,,,4,,,57,105
63648,note_on,48,0,1,,,,,,,,0,,,79,0
63660,note_on,12,0,1,,,,,,,,0,,,81,105
63708,note_on,48,0,1,,,,,,,,0,,,81,0
63720,note_on,12,0,1,,,,,,,,0,,,82,105
63768,note_on,48,0,1,,,,,,,,0,,,82,0
63780,note_on,12,0,1,,,,,,,,0,,,82,105
63792,note_on,192,0,5,,,,,,,,4,,,57,0
63792,note_on,192,0,7,,,,,,,,2,,,57,0
63792,note_on,0,0,7,,,,,,,,2,,,73,0
63828,note_on,48,0,1,,,,,,,,0,,,82,0
63840,note_on,12,0,1,,,,,,,,0,,,82,105
63840,note_on,0,0,7,,,,,,,,2,,,49,105
63840,note_on,0,0,7,,,,,,,,2,,,70,105
63840,note_on,48,0,5,,,,,,,,4,,,49,105
63840,note_on,48,0,7,,,,,,,,2,,,67,105
63840,note_on,0,0,7,,,,,,,,2,,,76,105
64032,note_on,192,0,7,,,,,,,,2,,,49,0
64032,note_on,192,0,5,,,,,,,,4,,,49,0
64080,note_on,48,0,5,,,,,,,,4,,,61,105
64080,note_on,48,0,7,,,,,,,,2,,,61,105
64128,note_on,288,0,1,,,,,,,,0,,,82,0
64200,note_on,72,0,1,,,,,,,,0,,,81,105
64224,note_on,0,0,7,,,,,,,,2,,,76,0
64224,note_on,0,0,7,,,,,,,,2,,,70,0
64224,note_on,144,0,7,,,,,,,,2,,,67,0
64248,note_on,48,0,1,,,,,,,,0,,,81,0
64260,note_on,12,0,1,,,,,,,,0,,,79,105
64272,note_on,192,0,5,,,,,,,,4,,,61,0
64272,note_on,48,0,7,,,,,,,,2,,,61,0
64308,note_on,48,0,1,,,,,,,,0,,,79,0
64320,note_on,48,0,7,,,,,,,,2,,,74,105
64320,note_on,12,0,1,,,,,,,,0,,,77,105
64320,note_on,48,0,5,,,,,,,,4,,,62,105
64320,note_on,0,0,7,,,,,,,,2,,,65,105
64320,note_on,0,0,7,,,,,,,,2,,,62,105
64320,note_on,0,0,7,,,,,,,,2,,,69,105
64368,note_on,48,0,1,,,,,,,,0,,,77,0
64380,note_on,12,0,1,,,,,,,,0,,,74,105
64428,note_on,48,0,1,,,,,,,,0,,,74,0
64440,note_on,12,0,1,,,,,,,,0,,,69,105
64488,note_on,48,0,1,,,,,,,,0,,,69,0
64500,note_on,12,0,1,,,,,,,,0,,,65,105
64512,note_on,192,0,5,,,,,,,,4,,,62,0
64512,note_on,192,0,7,,,,,,,,2,,,62,0
64548,note_on,48,0,1,,,,,,,,0,,,65,0
64560,note_on,48,0,5,,,,,,,,4,,,50,105
64560,note_on,12,0,1,,,,,,,,0,,,62,105
64560,note_on,48,0,7,,,,,,,,2,,,50,105
64656,note_on,96,0,1,,,,,,,,0,,,62,0
64680,note_on,24,0,1,,,,,,,,0,,,81,105
64704,note_on,0,0,7,,,,,,,,2,,,65,0
64704,note_on,144,0,7,,,,,,,,2,,,74,0
64704,note_on,0,0,7,,,,,,,,2,,,69,0
64752,note_on,192,0,5,,,,,,,,4,,,50,0
64752,note_on,48,0,7,,,,,,,,2,,,50,0
64776,note_on,96,0,1,,,,,,,,0,,,81,0
64800,note_on,24,0,1,,,,,,,,0,,,82,105
64832,note_on,32,0,1,,,,,,,,0,,,82,0
64840,note_on,8,0,1,,,,,,,,0,,,81,105
64872,note_on,32,0,1,,,,,,,,0,,,81,0
64880,note_on,8,0,1,,,,,,,,0,,,79,105
64912,note_on,32,0,1,,,,,,,,0,,,79,0
64920,note_on,8,0,1,,,,,,,,0,,,81,105
64952,note_on,32,0,1,,,,,,,,0,,,81,0
64960,note_on,8,0,1,,,,,,,,0,,,79,105
64992,note_on,32,0,1,,,,,,,,0,,,79,0
65000,note_on,8,0,1,,,,,,,,0,,,77,105
65032,note_on,32,0,1,,,,,,,,0,,,77,0
65040,note_on,8,0,1,,,,,,,,0,,,79,105
65072,note_on,32,0,1,,,,,,,,0,,,79,0
65080,note_on,8,0,1,,,,,,,,0,,,77,105
65112,note_on,32,0,1,,,,,,,,0,,,77,0
65120,note_on,8,0,1,,,,,,,,0,,,76,105
65152,note_on,32,0,1,,,,,,,,0,,,76,0
65160,note_on,408,0,7,,,,,,,,2,,,50,105
65160,note_on,8,0,1,,,,,,,,0,,,77,105
65160,note_on,408,0,5,,,,,,,,4,,,50,105
65192,note_on,32,0,1,,,,,,,,0,,,77,0
65200,note_on,8,0,1,,,,,,,,0,,,76,105
65232,note_on,32,0,1,,,,,,,,0,,,76,0
65240,note_on,8,0,1,,,,,,,,0,,,74,105
65256,note_on,96,0,7,,,,,,,,2,,,50,0
65256,note_on,96,0,5,,,,,,,,4,,,50,0
65272,note_on,32,0,1,,,,,,,,0,,,74,0
65280,note_on,24,0,7,,,,,,,,2,,,57,105
65280,note_on,0,0,7,,,,,,,,2,,,61,105
65280,note_on,24,0,5,,,,,,,,4,,,57,105
65280,note_on,0,0,7,,,,,,,,2,,,69,105
65280,note_on,8,0,1,,,,,,,,0,,,73,105
65376,note_on,96,0,1,,,,,,,,0,,,73,0
65376,note_on,96,0,5,,,,,,,,4,,,57,0
65376,note_on,96,0,7,,,,,,,,2,,,57,0
65400,note_on,24,0,7,,,,,,,,2,,,55,105
65400,note_on,24,0,5,,,,,,,,4,,,55,105
65400,note_on,24,0,1,,,,,,,,0,,,69,105
65472,note_on,72,0,7,,,,,,,,2,,,61,0
65496,note_on,96,0,1,,,,,,,,0,,,69,0
65496,note_on,24,0,7,,,,,,,,2,,,55,0
65496,note_on,96,0,5,,,,,,,,4,,,55,0
65520,note_on,24,0,7,,,,,,,,2,,,53,105
65520,note_on,24,0,5,,,,,,,,4,,,53,105
65520,note_on,0,0,7,,,,,,,,2,,,62,105
65616,note_on,96,0,5,,,,,,,,4,,,53,0
65616,note_on,96,0,7,,,,,,,,2,,,53,0
65640,note_on,24,0,5,,,,,,,,4,,,50,105
65640,note_on,24,0,7,,,,,,,,2,,,50,105
65640,note_on,144,0,1,,,,,,,,0,,,69,105
65664,note_on,24,0,7,,,,,,,,2,,,69,0
65712,note_on,48,0,7,,,,,,,,2,,,62,0
65736,note_on,96,0,5,,,,,,,,4,,,50,0
65736,note_on,24,0,7,,,,,,,,2,,,50,0
65736,note_on,96,0,1,,,,,,,,0,,,69,0
65760,note_on,24,0,7,,,,,,,,2,,,55,105
65760,note_on,0,0,7,,,,,,,,2,,,70,105
65760,note_on,24,0,5,,,,,,,,4,,,55,105
65760,note_on,24,0,1,,,,,,,,0,,,70,105
65760,note_on,0,0,7,,,,,,,,2,,,62,105
65792,note_on,32,0,1,,,,,,,,0,,,70,0
65800,note_on,8,0,1,,,,,,,,0,,,69,105
65832,note_on,32,0,1,,,,,,,,0,,,69,0
65840,note_on,8,0,1,,,,,,,,0,,,67,105
65872,note_on,32,0,1,,,,,,,,0,,,67,0
65880,note_on,8,0,1,,,,,,,,0,,,69,105
65912,note_on,32,0,1,,,,,,,,0,,,69,0
65920,note_on,8,0,1,,,,,,,,0,,,67,105
65952,note_on,192,0,7,,,,,,,,2,,,62,0
65952,note_on,0,0,7,,,,,,,,2,,,70,0
65952,note_on,0,0,7,,,,,,,,2,,,55,0
65952,note_on,32,0,1,,,,,,,,0,,,67,0
65952,note_on,192,0,5,,,,,,,,4,,,55,0
65960,note_on,8,0,1,,,,,,,,0,,,65,105
65992,note_on,32,0,1,,,,,,,,0,,,65,0
66000,note_on,8,0,1,,,,,,,,0,,,67,105
66032,note_on,32,0,1,,,,,,,,0,,,67,0
66040,note_on,8,0,1,,,,,,,,0,,,65,105
66072,note_on,32,0,1,,,,,,,,0,,,65,0
66080,note_on,8,0,1,,,,,,,,0,,,64,105
66112,note_on,32,0,1,,,,,,,,0,,,64,0
66120,note_on,168,0,5,,,,,,,,4,,,50,105
66120,note_on,168,0,7,,,,,,,,2,,,50,105
66120,note_on,8,0,1,,,,,,,,0,,,65,105
66152,note_on,32,0,1,,,,,,,,0,,,65,0
66160,note_on,8,0,1,,,,,,,,0,,,64,105
66192,note_on,32,0,1,,,,,,,,0,,,64,0
66200,note_on,8,0,1,,,,,,,,0,,,62,105
66216,note_on,96,0,5,,,,,,,,4,,,50,0
66216,note_on,96,0,7,,,,,,,,2,,,50,0
66232,note_on,32,0,1,,,,,,,,0,,,62,0
66240,note_on,8,0,1,,,,,,,,0,,,61,105
66240,note_on,24,0,5,,,,,,,,4,,,57,105
66240,note_on,24,0,7,,,,,,,,2,,,69,105
66240,note_on,0,0,7,,,,,,,,2,,,57,105
66240,note_on,0,0,7,,,,,,,,2,,,61,105
66336,note_on,96,0,7,,,,,,,,2,,,57,0
66336,note_on,96,0,1,,,,,,,,0,,,61,0
66336,note_on,96,0,5,,,,,,,,4,,,57,0
66360,note_on,24,0,7,,,,,,,,2,,,55,105
66360,note_on,24,0,1,,,,,,,,0,,,57,105
66360,note_on,24,0,5,,,,,,,,4,,,55,105
66408,note_on,48,0,7,,,,,,,,2,,,55,0
66408,note_on,48,0,5,,,,,,,,4,,,55,0
66420,note_on,12,0,7,,,,,,,,2,,,53,105
66420,note_on,12,0,5,,,,,,,,4,,,53,105
66432,note_on,12,0,7,,,,,,,,2,,,69,0
66456,note_on,96,0,1,,,,,,,,0,,,57,0
66468,note_on,36,0,7,,,,,,,,2,,,53,0
66468,note_on,48,0,5,,,,,,,,4,,,53,0
66480,note_on,24,0,1,,,,,,,,0,,,79,105
66480,note_on,12,0,7,,,,,,,,2,,,67,105
66480,note_on,0,0,7,,,,,,,,2,,,52,105
66480,note_on,12,0,5,,,,,,,,4,,,52,105
66504,note_on,24,0,1,,,,,,,,0,,,79,0
66510,note_on,6,0,1,,,,,,,,0,,,81,105
66534,note_on,24,0,1,,,,,,,,0,,,81,0
66540,note_on,6,0,1,,,,,,,,0,,,79,105
66564,note_on,24,0,1,,,,,,,,0,,,79,0
66570,note_on,6,0,1,,,,,,,,0,,,81,105
66576,note_on,96,0,7,,,,,,,,2,,,52,0
66576,note_on,96,0,5,,,,,,,,4,,,52,0
66594,note_on,24,0,1,,,,,,,,0,,,81,0
66600,note_on,24,0,5,,,,,,,,4,,,45,105
66600,note_on,24,0,7,,,,,,,,2,,,45,105
66600,note_on,6,0,1,,,,,,,,0,,,79,105
66624,note_on,24,0,7,,,,,,,,2,,,61,0
66624,note_on,24,0,1,,,,,,,,0,,,79,0
66630,note_on,6,0,1,,,,,,,,0,,,81,105
66654,note_on,24,0,1,,,,,,,,0,,,81,0
66660,note_on,6,0,1,,,,,,,,0,,,77,105
66672,note_on,48,0,7,,,,,,,,2,,,67,0
66684,note_on,24,0,1,,,,,,,,0,,,77,0
66690,note_on,6,0,1,,,,,,,,0,,,76,105
66696,note_on,96,0,5,,,,,,,,4,,,45,0
66696,note_on,24,0,7,,,,,,,,2,,,45,0
66714,note_on,24,0,1,,,,,,,,0,,,76,0
66720,note_on,6,0,1,,,,,,,,0,,,77,105
66720,note_on,7968,0,4,,,,,,,,3,,,65,105
66720,note_on,0,0,7,,,,,,,,2,,,62,105
66720,note_on,0,0,7,,,,,,,,2,,,65,105
66720,note_on,0,0,7,,,,,,,,2,,,57,105
66720,note_on,7968,0,6,,,,,,,,5,,,38,105
66720,note_on,24,0,5,,,,,,,,4,,,50,105
66720,note_on,24,0,7,,,,,,,,2,,,50,105
66816,note_on,96,0,1,,,,,,,,0,,,77,0
66840,note_on,8088,0,2,,,,,,,,1,,,74,105
66840,note_on,24,0,1,,,,,,,,0,,,74,105
66840,note_on,8088,0,3,,,,,,,,0,,,74,105
66912,note_on,192,0,7,,,,,,,,2,,,57,0
66936,note_on,96,0,1,,,,,,,,0,,,74,0
66936,note_on,96,0,2,,,,,,,,1,,,74,0
66936,note_on,96,0,3,,,,,,,,0,,,74,0
66960,note_on,24,0,2,,,,,,,,1,,,74,105
66960,note_on,24,0,3,,,,,,,,0,,,74,105
66960,note_on,48,0,7,,,,,,,,2,,,62,105
66960,note_on,24,0,1,,,,,,,,0,,,74,105
67008,note_on,288,0,5,,,,,,,,4,,,50,0
67008,note_on,288,0,6,,,,,,,,5,,,38,0
67008,note_on,288,0,4,,,,,,,,3,,,65,0
67008,note_on,48,0,7,,,,,,,,2,,,50,0
67080,note_on,72,0,7,,,,,,,,2,,,53,105
67080,note_on,72,0,4,,,,,,,,3,,,69,105
67080,note_on,72,0,5,,,,,,,,4,,,53,105
67080,note_on,72,0,6,,,,,,,,5,,,41,105
67104,note_on,24,0,7,,,,,,,,2,,,62,0
67104,note_on,0,0,7,,,,,,,,2,,,65,0
67128,note_on,48,0,5,,,,,,,,4,,,53,0
67128,note_on,48,0,6,,,,,,,,5,,,41,0
67128,note_on,48,0,4,,,,,,,,3,,,69,0
67128,note_on,24,0,7,,,,,,,,2,,,53,0
67140,note_on,12,0,7,,,,,,,,2,,,52,105
67140,note_on,12,0,5,,,,,,,,4,,,52,105
67140,note_on,12,0,6,,,,,,,,5,,,40,105
67140,note_on,12,0,4,,,,,,,,3,,,67,105
67188,note_on,48,0,7,,,,,,,,2,,,52,0
67188,note_on,48,0,6,,,,,,,,5,,,40,0
67188,note_on,48,0,4,,,,,,,,3,,,67,0
67188,note_on,48,0,5,,,,,,,,4,,,52,0
67200,note_on,12,0,5,,,,,,,,4,,,50,105
67200,note_on,12,0,7,,,,,,,,2,,,69,105
67200,note_on,12,0,6,,,,,,,,5,,,38,105
67200,note_on,0,0,7,,,,,,,,2,,,50,105
67200,note_on,12,0,4,,,,,,,,3,,,65,105
67200,note_on,0,0,7,,,,,,,,2,,,65,105
67296,note_on,336,0,3,,,,,,,,0,,,74,0
67296,note_on,336,0,2,,,,,,,,1,,,74,0
67296,note_on,336,0,1,,,,,,,,0,,,74,0
67320,note_on,24,0,2,,,,,,,,1,,,77,105
67320,note_on,24,0,1,,,,,,,,0,,,77,105
67320,note_on,24,0,3,,,,,,,,0,,,77,105
67368,note_on,48,0,2,,,,,,,,1,,,77,0
67368,note_on,48,0,1,,,,,,,,0,,,77,0
67368,note_on,48,0,3,,,,,,,,0,,,77,0
67380,note_on,12,0,1,,,,,,,,0,,,76,105
67380,note_on,12,0,2,,,,,,,,1,,,76,105
67380,note_on,12,0,3,,,,,,,,0,,,76,105
67392,note_on,192,0,7,,,,,,,,2,,,62,0
67428,note_on,48,0,1,,,,,,,,0,,,76,0
67428,note_on,48,0,2,,,,,,,,1,,,76,0
67428,note_on,48,0,3,,,,,,,,0,,,76,0
67440,note_on,12,0,1,,,,,,,,0,,,74,105
67440,note_on,12,0,2,,,,,,,,1,,,74,105
67440,note_on,12,0,3,,,,,,,,0,,,74,105
67440,note_on,48,0,7,,,,,,,,2,,,65,105
67488,note_on,288,0,4,,,,,,,,3,,,65,0
67488,note_on,288,0,6,,,,,,,,5,,,38,0
67488,note_on,48,0,7,,,,,,,,2,,,50,0
67488,note_on,288,0,5,,,,,,,,4,,,50,0
67560,note_on,72,0,7,,,,,,,,2,,,53,105
67560,note_on,72,0,6,,,,,,,,5,,,41,105
67560,note_on,72,0,4,,,,,,,,3,,,69,105
67560,note_on,72,0,5,,,,,,,,4,,,53,105
67584,note_on,0,0,7,,,,,,,,2,,,65,0
67584,note_on,24,0,7,,,,,,,,2,,,69,0
67608,note_on,48,0,5,,,,,,,,4,,,53,0
67608,note_on,48,0,4,,,,,,,,3,,,69,0
67608,note_on,48,0,6,,,,,,,,5,,,41,0
67608,note_on,24,0,7,,,,,,,,2,,,53,0
67620,note_on,12,0,7,,,,,,,,2,,,52,105
67620,note_on,12,0,4,,,,,,,,3,,,67,105
67620,note_on,12,0,5,,,,,,,,4,,,52,105
67620,note_on,12,0,6,,,,,,,,5,,,40,105
67668,note_on,48,0,4,,,,,,,,3,,,67,0
67668,note_on,48,0,6,,,,,,,,5,,,40,0
67668,note_on,48,0,5,,,,,,,,4,,,52,0
67668,note_on,48,0,7,,,,,,,,2,,,52,0
67680,note_on,12,0,5,,,,,,,,4,,,50,105
67680,note_on,12,0,4,,,,,,,,3,,,69,105
67680,note_on,12,0,6,,,,,,,,5,,,38,105
67680,note_on,12,0,7,,,,,,,,2,,,69,105
67680,note_on,0,0,7,,,,,,,,2,,,50,105
67680,note_on,0,0,7,,,,,,,,2,,,74,105
67776,note_on,96,0,5,,,,,,,,4,,,50,0
67776,note_on,336,0,1,,,,,,,,0,,,74,0
67776,note_on,336,0,3,,,,,,,,0,,,74,0
67776,note_on,96,0,7,,,,,,,,2,,,50,0
67776,note_on,336,0,2,,,,,,,,1,,,74,0
67776,note_on,96,0,6,,,,,,,,5,,,38,0
67776,note_on,96,0,4,,,,,,,,3,,,69,0
67800,note_on,24,0,3,,,,,,,,0,,,74,105
67800,note_on,24,0,1,,,,,,,,0,,,77,105
67800,note_on,24,0,2,,,,,,,,1,,,77,105
67800,note_on,24,0,4,,,,,,,,3,,,69,105
67800,note_on,24,0,7,,,,,,,,2,,,50,105
67800,note_on,24,0,6,,,,,,,,5,,,38,105
67800,note_on,24,0,5,,,,,,,,4,,,50,105
67848,note_on,48,0,3,,,,,,,,0,,,74,0
67848,note_on,48,0,1,,,,,,,,0,,,77,0
67848,note_on,48,0,2,,,,,,,,1,,,77,0
67860,note_on,12,0,3,,,,,,,,0,,,76,105
67860,note_on,12,0,1,,,,,,,,0,,,79,105
67860,note_on,12,0,2,,,,,,,,1,,,79,105
67872,note_on,72,0,7,,,,,,,,2,,,65,0
67896,note_on,96,0,5,,,,,,,,4,,,50,0
67896,note_on,96,0,6,,,,,,,,5,,,38,0
67896,note_on,96,0,4,,,,,,,,3,,,69,0
67896,note_on,24,0,7,,,,,,,,2,,,50,0
67908,note_on,48,0,1,,,,,,,,0,,,79,0
67908,note_on,48,0,3,,,,,,,,0,,,76,0
67908,note_on,48,0,2,,,,,,,,1,,,79,0
67920,note_on,12,0,1,,,,,,,,0,,,81,105
67920,note_on,24,0,6,,,,,,,,5,,,38,105
67920,note_on,24,0,7,,,,,,,,2,,,50,105
67920,note_on,12,0,2,,,,,,,,1,,,81,105
67920,note_on,0,0,7,,,,,,,,2,,,62,105
67920,note_on,24,0,4,,,,,,,,3,,,69,105
67920,note_on,12,0,3,,,,,,,,0,,,77,105
67920,note_on,24,0,5,,,,,,,,4,,,50,105
68016,note_on,96,0,3,,,,,,,,0,,,77,0
68016,note_on,96,0,1,,,,,,,,0,,,81,0
68016,note_on,96,0,7,,,,,,,,2,,,50,0
68016,note_on,96,0,2,,,,,,,,1,,,81,0
68016,note_on,96,0,5,,,,,,,,4,,,50,0
68016,note_on,96,0,4,,,,,,,,3,,,69,0
68016,note_on,96,0,6,,,,,,,,5,,,38,0
68040,note_on,24,0,1,,,,,,,,0,,,79,105
68040,note_on,24,0,7,,,,,,,,2,,,50,105
68040,note_on,24,0,5,,,,,,,,4,,,50,105
68040,note_on,24,0,4,,,,,,,,3,,,69,105
68040,note_on,24,0,2,,,,,,,,1,,,79,105
68040,note_on,24,0,3,,,,,,,,0,,,76,105
68040,note_on,24,0,6,,,,,,,,5,,,38,105
68064,note_on,0,0,7,,,,,,,,2,,,69,0
68064,note_on,24,0,7,,,,,,,,2,,,74,0
68088,note_on,48,0,2,,,,,,,,1,,,79,0
68088,note_on,48,0,3,,,,,,,,0,,,76,0
68088,note_on,48,0,1,,,,,,,,0,,,79,0
68100,note_on,12,0,3,,,,,,,,0,,,74,105
68100,note_on,12,0,2,,,,,,,,1,,,77,105
68100,note_on,12,0,1,,,,,,,,0,,,77,105
68112,note_on,48,0,7,,,,,,,,2,,,62,0
68136,note_on,96,0,5,,,,,,,,4,,,50,0
68136,note_on,96,0,6,,,,,,,,5,,,38,0
68136,note_on,96,0,4,,,,,,,,3,,,69,0
68136,note_on,24,0,7,,,,,,,,2,,,50,0
68148,note_on,48,0,3,,,,,,,,0,,,74,0
68148,note_on,48,0,2,,,,,,,,1,,,77,0
68148,note_on,48,0,1,,,,,,,,0,,,77,0
68160,note_on,24,0,7,,,,,,,,2,,,45,105
68160,note_on,24,0,5,,,,,,,,4,,,45,105
68160,note_on,12,0,2,,,,,,,,1,,,76,105
68160,note_on,0,0,7,,,,,,,,2,,,64,105
68160,note_on,0,0,7,,,,,,,,2,,,69,105
68160,note_on,0,0,7,,,,,,,,2,,,73,105
68160,note_on,24,0,6,,,,,,,,5,,,33,105
68160,note_on,24,0,4,,,,,,,,3,,,69,105
68160,note_on,12,0,1,,,,,,,,0,,,76,105
68160,note_on,12,0,3,,,,,,,,0,,,73,105
68256,note_on,96,0,3,,,,,,,,0,,,73,0
68256,note_on,96,0,2,,,,,,,,1,,,76,0
68256,note_on,96,0,1,,,,,,,,0,,,76,0
68280,note_on,24,0,2,,,,,,,,1,,,76,105
68280,note_on,24,0,3,,,,,,,,0,,,73,105
68280,note_on,24,0,1,,,,,,,,0,,,76,105
68352,note_on,192,0,7,,,,,,,,2,,,64,0
68376,note_on,96,0,1,,,,,,,,0,,,76,0
68376,note_on,96,0,3,,,,,,,,0,,,73,0
68376,note_on,96,0,2,,,,,,,,1,,,76,0
68400,note_on,24,0,1,,,,,,,,0,,,76,105
68400,note_on,48,0,7,,,,,,,,2,,,57,105
68400,note_on,24,0,2,,,,,,,,1,,,76,105
68400,note_on,24,0,3,,,,,,,,0,,,73,105
68448,note_on,288,0,5,,,,,,,,4,,,45,0
68448,note_on,48,0,7,,,,,,,,2,,,45,0
68448,note_on,288,0,6,,,,,,,,5,,,33,0
68448,note_on,288,0,4,,,,,,,,3,,,69,0
68520,note_on,72,0,7,,,,,,,,2,,,49,105
68520,note_on,72,0,6,,,,,,,,5,,,37,105
68520,note_on,72,0,5,,,,,,,,4,,,49,105
68520,note_on,72,0,4,,,,,,,,3,,,64,105
68568,note_on,48,0,7,,,,,,,,2,,,49,0
68568,note_on,48,0,5,,,,,,,,4,,,49,0
68568,note_on,48,0,6,,,,,,,,5,,,37,0
68568,note_on,48,0,4,,,,,,,,3,,,64,0
68580,note_on,12,0,7,,,,,,,,2,,,47,105
68580,note_on,12,0,4,,,,,,,,3,,,62,105
68580,note_on,12,0,6,,,,,,,,5,,,35,105
68580,note_on,12,0,5,,,,,,,,4,,,47,105
68592,note_on,12,0,7,,,,,,,,2,,,57,0
68628,note_on,48,0,4,,,,,,,,3,,,62,0
68628,note_on,48,0,6,,,,,,,,5,,,35,0
68628,note_on,36,0,7,,,,,,,,2,,,47,0
68628,note_on,48,0,5,,,,,,,,4,,,47,0
68640,note_on,12,0,4,,,,,,,,3,,,61,105
68640,note_on,12,0,6,,,,,,,,5,,,33,105
68640,note_on,0,0,7,,,,,,,,2,,,64,105
68640,note_on,12,0,5,,,,,,,,4,,,45,105
68640,note_on,12,0,7,,,,,,,,2,,,45,105
68736,note_on,336,0,2,,,,,,,,1,,,76,0
68736,note_on,336,0,3,,,,,,,,0,,,73,0
68736,note_on,336,0,1,,,,,,,,0,,,76,0
68760,note_on,24,0,1,,,,,,,,0,,,79,105
68760,note_on,24,0,3,,,,,,,,0,,,76,105
68760,note_on,24,0,2,,,,,,,,1,,,79,105
68808,note_on,48,0,3,,,,,,,,0,,,76,0
68808,note_on,48,0,1,,,,,,,,0,,,79,0
68808,note_on,48,0,2,,,,,,,,1,,,79,0
68820,note_on,12,0,3,,,,,,,,0,,,74,105
68820,note_on,12,0,2,,,,,,,,1,,,77,105
68820,note_on,12,0,1,,,,,,,,0,,,77,105
68832,note_on,192,0,7,,,,,,,,2,,,64,0
68868,note_on,48,0,3,,,,,,,,0,,,74,0
68868,note_on,48,0,2,,,,,,,,1,,,77,0
68868,note_on,48,0,1,,,,,,,,0,,,77,0
68880,note_on,12,0,3,,,,,,,,0,,,73,105
68880,note_on,12,0,1,,,,,,,,0,,,76,105
68880,note_on,48,0,7,,,,,,,,2,,,67,105
68880,note_on,12,0,2,,,,,,,,1,,,76,105
68928,note_on,0,0,7,,,,,,,,2,,,69,0
68928,note_on,288,0,6,,,,,,,,5,,,33,0
68928,note_on,48,0,7,,,,,,,,2,,,73,0
68928,note_on,288,0,4,,,,,,,,3,,,61,0
68928,note_on,0,0,7,,,,,,,,2,,,45,0
68928,note_on,288,0,5,,,,,,,,4,,,45,0
69000,note_on,72,0,7,,,,,,,,2,,,49,105
69000,note_on,72,0,6,,,,,,,,5,,,37,105
69000,note_on,72,0,4,,,,,,,,3,,,64,105
69000,note_on,72,0,5,,,,,,,,4,,,49,105
69048,note_on,48,0,5,,,,,,,,4,,,49,0
69048,note_on,48,0,6,,,,,,,,5,,,37,0
69048,note_on,48,0,4,,,,,,,,3,,,64,0
69048,note_on,48,0,7,,,,,,,,2,,,49,0
69060,note_on,12,0,5,,,,,,,,4,,,46,105
69060,note_on,12,0,4,,,,,,,,3,,,62,105
69060,note_on,12,0,7,,,,,,,,2,,,46,105
69060,note_on,12,0,6,,,,,,,,5,,,34,105
69108,note_on,48,0,6,,,,,,,,5,,,34,0
69108,note_on,48,0,4,,,,,,,,3,,,62,0
69108,note_on,48,0,5,,,,,,,,4,,,46,0
69108,note_on,48,0,7,,,,,,,,2,,,46,0
69120,note_on,12,0,7,,,,,,,,2,,,45,105
69120,note_on,12,0,6,,,,,,,,5,,,33,105
69120,note_on,12,0,4,,,,,,,,3,,,61,105
69120,note_on,12,0,5,,,,,,,,4,,,45,105
69120,note_on,0,0,7,,,,,,,,2,,,73,105
69120,note_on,0,0,7,,,,,,,,2,,,76,105
69216,note_on,336,0,3,,,,,,,,0,,,73,0
69216,note_on,336,0,1,,,,,,,,0,,,76,0
69216,note_on,96,0,5,,,,,,,,4,,,45,0
69216,note_on,336,0,2,,,,,,,,1,,,76,0
69216,note_on,96,0,6,,,,,,,,5,,,33,0
69216,note_on,96,0,4,,,,,,,,3,,,61,0
69216,note_on,96,0,7,,,,,,,,2,,,45,0
69240,note_on,24,0,5,,,,,,,,4,,,45,105
69240,note_on,24,0,6,,,,,,,,5,,,33,105
69240,note_on,24,0,1,,,,,,,,0,,,79,105
69240,note_on,24,0,2,,,,,,,,1,,,79,105
69240,note_on,24,0,4,,,,,,,,3,,,61,105
69240,note_on,24,0,7,,,,,,,,2,,,45,105
69240,note_on,24,0,3,,,,,,,,0,,,76,105
69288,note_on,48,0,2,,,,,,,,1,,,79,0
69288,note_on,48,0,1,,,,,,,,0,,,79,0
69288,note_on,48,0,3,,,,,,,,0,,,76,0
69300,note_on,12,0,3,,,,,,,,0,,,77,105
69300,note_on,12,0,2,,,,,,,,1,,,81,105
69300,note_on,12,0,1,,,,,,,,0,,,81,105
69312,note_on,72,0,7,,,,,,,,2,,,67,0
69336,note_on,96,0,5,,,,,,,,4,,,45,0
69336,note_on,24,0,7,,,,,,,,2,,,45,0
69336,note_on,96,0,6,,,,,,,,5,,,33,0
69336,note_on,96,0,4,,,,,,,,3,,,61,0
69348,note_on,48,0,3,,,,,,,,0,,,77,0
69348,note_on,48,0,1,,,,,,,,0,,,81,0
69348,note_on,48,0,2,,,,,,,,1,,,81,0
69360,note_on,24,0,7,,,,,,,,2,,,45,105
69360,note_on,12,0,1,,,,,,,,0,,,82,105
69360,note_on,0,0,7,,,,,,,,2,,,70,105
69360,note_on,12,0,2,,,,,,,,1,,,82,105
69360,note_on,24,0,5,,,,,,,,4,,,45,105
69360,note_on,24,0,4,,,,,,,,3,,,61,105
69360,note_on,24,0,6,,,,,,,,5,,,33,105
69360,note_on,12,0,3,,,,,,,,0,,,79,105
69456,note_on,96,0,7,,,,,,,,2,,,45,0
69456,note_on,96,0,6,,,,,,,,5,,,33,0
69456,note_on,96,0,1,,,,,,,,0,,,82,0
69456,note_on,96,0,5,,,,,,,,4,,,45,0
69456,note_on,96,0,3,,,,,,,,0,,,79,0
69456,note_on,96,0,4,,,,,,,,3,,,61,0
69456,note_on,96,0,2,,,,,,,,1,,,82,0
69480,note_on,24,0,3,,,,,,,,0,,,77,105
69480,note_on,24,0,4,,,,,,,,3,,,61,105
69480,note_on,24,0,5,,,,,,,,4,,,45,105
69480,note_on,24,0,7,,,,,,,,2,,,45,105
69480,note_on,24,0,2,,,,,,,,1,,,81,105
69480,note_on,24,0,6,,,,,,,,5,,,33,105
69480,note_on,24,0,1,,,,,,,,0,,,81,105
69504,note_on,0,0,7,,,,,,,,2,,,76,0
69504,note_on,24,0,7,,,,,,,,2,,,73,0
69528,note_on,48,0,3,,,,,,,,0,,,77,0
69528,note_on,48,0,2,,,,,,,,1,,,81,0
69528,note_on,48,0,1,,,,,,,,0,,,81,0
69540,note_on,12,0,1,,,,,,,,0,,,79,105
69540,note_on,12,0,3,,,,,,,,0,,,76,105
69540,note_on,12,0,2,,,,,,,,1,,,79,105
69552,note_on,48,0,7,,,,,,,,2,,,70,0
69576,note_on,96,0,4,,,,,,,,3,,,61,0
69576,note_on,96,0,5,,,,,,,,4,,,45,0
69576,note_on,24,0,7,,,,,,,,2,,,45,0
69576,note_on,96,0,6,,,,,,,,5,,,33,0
69588,note_on,48,0,1,,,,,,,,0,,,79,0
69588,note_on,48,0,3,,,,,,,,0,,,76,0
69588,note_on,48,0,2,,,,,,,,1,,,79,0
69600,note_on,0,0,7,,,,,,,,2,,,50,105
69600,note_on,12,0,3,,,,,,,,0,,,74,105
69600,note_on,24,0,5,,,,,,,,4,,,50,105
69600,note_on,24,0,4,,,,,,,,3,,,57,105
69600,note_on,24,0,6,,,,,,,,5,,,38,105
69600,note_on,24,0,7,,,,,,,,2,,,74,105
69600,note_on,12,0,1,,,,,,,,0,,,77,105
69600,note_on,0,0,7,,,,,,,,2,,,65,105
69600,note_on,0,0,7,,,,,,,,2,,,69,105
69600,note_on,12,0,2,,,,,,,,1,,,77,105
69648,note_on,48,0,1,,,,,,,,0,,,77,0
69660,note_on,12,0,1,,,,,,,,0,,,74,105
69684,note_on,24,0,1,,,,,,,,0,,,74,0
69690,note_on,6,0,1,,,,,,,,0,,,76,105
69696,note_on,96,0,7,,,,,,,,2,,,65,0
69714,note_on,24,0,1,,,,,,,,0,,,76,0
69720,note_on,6,0,1,,,,,,,,0,,,77,105
69720,note_on,24,0,7,,,,,,,,2,,,57,105
69768,note_on,48,0,1,,,,,,,,0,,,77,0
69780,note_on,12,0,1,,,,,,,,0,,,77,105
69792,note_on,72,0,7,,,,,,,,2,,,50,0
69792,note_on,192,0,3,,,,,,,,0,,,74,0
69792,note_on,192,0,2,,,,,,,,1,,,77,0
69792,note_on,192,0,6,,,,,,,,5,,,38,0
69792,note_on,192,0,5,,,,,,,,4,,,50,0
69792,note_on,192,0,4,,,,,,,,3,,,57,0
69804,note_on,24,0,1,,,,,,,,0,,,77,0
69810,note_on,6,0,1,,,,,,,,0,,,79,105
69816,note_on,24,0,7,,,,,,,,2,,,57,0
69834,note_on,24,0,1,,,,,,,,0,,,79,0
69840,note_on,0,0,7,,,,,,,,2,,,57,105
69840,note_on,24,0,7,,,,,,,,2,,,53,105
69840,note_on,6,0,1,,,,,,,,0,,,81,105
69840,note_on,48,0,5,,,,,,,,4,,,53,105
69888,note_on,48,0,1,,,,,,,,0,,,81,0
69900,note_on,12,0,1,,,,,,,,0,,,77,105
69936,note_on,96,0,7,,,,,,,,2,,,57,0
69948,note_on,48,0,1,,,,,,,,0,,,77,0
69960,note_on,12,0,1,,,,,,,,0,,,76,105
69960,note_on,24,0,7,,,,,,,,2,,,57,105
69984,note_on,24,0,7,,,,,,,,2,,,74,0
69984,note_on,0,0,7,,,,,,,,2,,,69,0
70008,note_on,48,0,1,,,,,,,,0,,,76,0
70020,note_on,12,0,1,,,,,,,,0,,,74,105
70032,note_on,48,0,7,,,,,,,,2,,,53,0
70032,note_on,192,0,5,,,,,,,,4,,,53,0
70056,note_on,24,0,7,,,,,,,,2,,,57,0
70068,note_on,48,0,1,,,,,,,,0,,,74,0
70080,note_on,12,0,1,,,,,,,,0,,,82,105
70080,note_on,48,0,5,,,,,,,,4,,,52,105
70080,note_on,0,0,7,,,,,,,,2,,,60,105
70080,note_on,0,0,7,,,,,,,,2,,,52,105
70080,note_on,0,0,7,,,,,,,,2,,,67,105
70080,note_on,24,0,7,,,,,,,,2,,,70,105
70128,note_on,48,0,1,,,,,,,,0,,,82,0
70140,note_on,12,0,1,,,,,,,,0,,,72,105
70188,note_on,48,0,1,,,,,,,,0,,,72,0
70200,note_on,12,0,1,,,,,,,,0,,,64,105
70248,note_on,48,0,1,,,,,,,,0,,,64,0
70260,note_on,12,0,1,,,,,,,,0,,,72,105
70272,note_on,192,0,5,,,,,,,,4,,,52,0
70272,note_on,192,0,7,,,,,,,,2,,,52,0
70308,note_on,48,0,1,,,,,,,,0,,,72,0
70320,note_on,48,0,5,,,,,,,,4,,,48,105
70320,note_on,48,0,7,,,,,,,,2,,,48,105
70320,note_on,12,0,1,,,,,,,,0,,,82,105
70368,note_on,48,0,1,,,,,,,,0,,,82,0
70380,note_on,12,0,1,,,,,,,,0,,,79,105
70428,note_on,48,0,1,,,,,,,,0,,,79,0
70440,note_on,12,0,1,,,,,,,,0,,,81,105
70464,note_on,0,0,7,,,,,,,,2,,,60,0
70464,note_on,0,0,7,,,,,,,,2,,,67,0
70464,note_on,144,0,7,,,,,,,,2,,,70,0
70488,note_on,48,0,1,,,,,,,,0,,,81,0
70500,note_on,12,0,1,,,,,,,,0,,,82,105
70512,note_on,48,0,7,,,,,,,,2,,,48,0
70512,note_on,192,0,5,,,,,,,,4,,,48,0
70548,note_on,48,0,1,,,,,,,,0,,,82,0
70560,note_on,48,0,5,,,,,,,,4,,,53,105
70560,note_on,0,0,7,,,,,,,,2,,,60,105
70560,note_on,0,0,7,,,,,,,,2,,,53,105
70560,note_on,12,0,1,,,,,,,,0,,,81,105
70560,note_on,0,0,7,,,,,,,,2,,,69,105
70560,note_on,48,0,7,,,,,,,,2,,,65,105
70608,note_on,48,0,1,,,,,,,,0,,,81,0
70620,note_on,12,0,1,,,,,,,,0,,,65,105
70644,note_on,24,0,1,,,,,,,,0,,,65,0
70650,note_on,6,0,1,,,,,,,,0,,,67,105
70674,note_on,24,0,1,,,,,,,,0,,,67,0
70680,note_on,6,0,1,,,,,,,,0,,,69,105
70728,note_on,48,0,1,,,,,,,,0,,,69,0
70740,note_on,12,0,1,,,,,,,,0,,,69,105
70752,note_on,192,0,7,,,,,,,,2,,,53,0
70752,note_on,192,0,5,,,,,,,,4,,,53,0
70764,note_on,24,0,1,,,,,,,,0,,,69,0
70770,note_on,6,0,1,,,,,,,,0,,,70,105
70794,note_on,24,0,1,,,,,,,,0,,,70,0
70800,note_on,48,0,5,,,,,,,,4,,,41,105
70800,note_on,48,0,7,,,,,,,,2,,,41,105
70800,note_on,6,0,1,,,,,,,,0,,,72,105
70848,note_on,48,0,1,,,,,,,,0,,,72,0
70860,note_on,12,0,1,,,,,,,,0,,,81,105
70908,note_on,48,0,1,,,,,,,,0,,,81,0
70920,note_on,12,0,1,,,,,,,,0,,,79,105
70944,note_on,144,0,7,,,,,,,,2,,,65,0
70944,note_on,0,0,7,,,,,,,,2,,,69,0
70944,note_on,0,0,7,,,,,,,,2,,,60,0
70968,note_on,48,0,1,,,,,,,,0,,,79,0
70980,note_on,12,0,1,,,,,,,,0,,,77,105
70992,note_on,48,0,7,,,,,,,,2,,,41,0
70992,note_on,192,0,5,,,,,,,,4,,,41,0
71028,note_on,48,0,1,,,,,,,,0,,,77,0
71040,note_on,48,0,5,,,,,,,,4,,,52,105
71040,note_on,12,0,1,,,,,,,,0,,,79,105
71040,note_on,0,0,7,,,,,,,,2,,,58,105
71040,note_on,0,0,7,,,,,,,,2,,,52,105
71040,note_on,48,0,7,,,,,,,,2,,,67,105
71088,note_on,48,0,1,,,,,,,,0,,,79,0
71100,note_on,12,0,1,,,,,,,,0,,,64,105
71124,note_on,24,0,1,,,,,,,,0,,,64,0
71130,note_on,6,0,1,,,,,,,,0,,,65,105
71154,note_on,24,0,1,,,,,,,,0,,,65,0
71160,note_on,6,0,1,,,,,,,,0,,,67,105
71208,note_on,48,0,1,,,,,,,,0,,,67,0
71220,note_on,12,0,1,,,,,,,,0,,,67,105
71232,note_on,192,0,7,,,,,,,,2,,,52,0
71232,note_on,192,0,5,,,,,,,,4,,,52,0
71244,note_on,24,0,1,,,,,,,,0,,,67,0
71250,note_on,6,0,1,,,,,,,,0,,,69,105
71274,note_on,24,0,1,,,,,,,,0,,,69,0
71280,note_on,48,0,5,,,,,,,,4,,,40,105
71280,note_on,6,0,1,,,,,,,,0,,,70,105
71280,note_on,48,0,7,,,,,,,,2,,,40,105
71328,note_on,48,0,1,,,,,,,,0,,,70,0
71340,note_on,12,0,1,,,,,,,,0,,,79,105
71388,note_on,48,0,1,,,,,,,,0,,,79,0
71400,note_on,12,0,1,,,,,,,,0,,,77,105
71424,note_on,0,0,7,,,,,,,,2,,,67,0
71424,note_on,144,0,7,,,,,,,,2,,,58,0
71448,note_on,48,0,1,,,,,,,,0,,,77,0
71460,note_on,12,0,1,,,,,,,,0,,,76,105
71472,note_on,192,0,5,,,,,,,,4,,,40,0
71472,note_on,48,0,7,,,,,,,,2,,,40,0
71508,note_on,48,0,1,,,,,,,,0,,,76,0
71520,note_on,48,0,7,,,,,,,,2,,,57,105
71520,note_on,12,0,1,,,,,,,,0,,,77,105
71520,note_on,0,0,7,,,,,,,,2,,,65,105
71520,note_on,0,0,7,,,,,,,,2,,,50,105
71520,note_on,48,0,5,,,,,,,,4,,,50,105
71568,note_on,48,0,1,,,,,,,,0,,,77,0
71580,note_on,12,0,1,,,,,,,,0,,,62,105
71604,note_on,24,0,1,,,,,,,,0,,,62,0
71610,note_on,6,0,1,,,,,,,,0,,,64,105
71634,note_on,24,0,1,,,,,,,,0,,,64,0
71640,note_on,6,0,1,,,,,,,,0,,,65,105
71688,note_on,48,0,1,,,,,,,,0,,,65,0
71700,note_on,12,0,1,,,,,,,,0,,,65,105
71712,note_on,192,0,7,,,,,,,,2,,,50,0
71712,note_on,192,0,5,,,,,,,,4,,,50,0
71724,note_on,24,0,1,,,,,,,,0,,,65,0
71730,note_on,6,0,1,,,,,,,,0,,,67,105
71754,note_on,24,0,1,,,,,,,,0,,,67,0
71760,note_on,48,0,5,,,,,,,,4,,,38,105
71760,note_on,48,0,7,,,,,,,,2,,,38,105
71760,note_on,6,0,1,,,,,,,,0,,,69,105
71808,note_on,48,0,1,,,,,,,,0,,,69,0
71820,note_on,12,0,1,,,,,,,,0,,,77,105
71868,note_on,48,0,1,,,,,,,,0,,,77,0
71880,note_on,12,0,1,,,,,,,,0,,,76,105
71904,note_on,144,0,7,,,,,,,,2,,,65,0
71904,note_on,0,0,7,,,,,,,,2,,,57,0
71928,note_on,48,0,1,,,,,,,,0,,,76,0
71940,note_on,12,0,1,,,,,,,,0,,,74,105
71952,note_on,48,0,7,,,,,,,,2,,,38,0
71952,note_on,192,0,5,,,,,,,,4,,,38,0
71988,note_on,48,0,1,,,,,,,,0,,,74,0
72000,note_on,0,0,7,,,,,,,,2,,,57,105
72000,note_on,48,0,5,,,,,,,,4,,,57,105
72000,note_on,48,0,7,,,,,,,,2,,,64,105
72000,note_on,0,0,7,,,,,,,,2,,,57,105
72000,note_on,0,0,7,,,,,,,,2,,,61,105
72000,note_on,12,0,1,,,,,,,,0,,,73,105
72048,note_on,48,0,1,,,,,,,,0,,,73,0
72060,note_on,12,0,1,,,,,,,,0,,,69,105
72084,note_on,24,0,1,,,,,,,,0,,,69,0
72090,note_on,6,0,1,,,,,,,,0,,,71,105
72114,note_on,24,0,1,,,,,,,,0,,,71,0
72120,note_on,6,0,1,,,,,,,,0,,,73,105
72168,note_on,48,0,1,,,,,,,,0,,,73,0
72180,note_on,12,0,1,,,,,,,,0,,,73,105
72192,note_on,192,0,7,,,,,,,,2,,,57,0
72192,note_on,192,0,5,,,,,,,,4,,,57,0
72204,note_on,24,0,1,,,,,,,,0,,,73,0
72210,note_on,6,0,1,,,,,,,,0,,,74,105
72234,note_on,24,0,1,,,,,,,,0,,,74,0
72240,note_on,48,0,5,,,,,,,,4,,,45,105
72240,note_on,48,0,7,,,,,,,,2,,,45,105
72240,note_on,6,0,1,,,,,,,,0,,,76,105
72288,note_on,48,0,1,,,,,,,,0,,,76,0
72300,note_on,12,0,1,,,,,,,,0,,,79,105
72348,note_on,48,0,1,,,,,,,,0,,,79,0
72360,note_on,12,0,1,,,,,,,,0,,,77,105
72384,note_on,144,0,7,,,,,,,,2,,,64,0
72384,note_on,0,0,7,,,,,,,,2,,,61,0
72384,note_on,0,0,7,,,,,,,,2,,,57,0
72408,note_on,48,0,1,,,,,,,,0,,,77,0
72420,note_on,12,0,1,,,,,,,,0,,,76,105
72432,note_on,48,0,7,,,,,,,,2,,,45,0
72432,note_on,192,0,5,,,,,,,,4,,,45,0
72468,note_on,48,0,1,,,,,,,,0,,,76,0
72480,note_on,48,0,5,,,,,,,,4,,,62,105
72480,note_on,12,0,1,,,,,,,,0,,,77,105
72480,note_on,48,0,7,,,,,,,,2,,,62,105
72528,note_on,48,0,1,,,,,,,,0,,,77,0
72540,note_on,12,0,1,,,,,,,,0,,,74,105
72564,note_on,24,0,1,,,,,,,,0,,,74,0
72570,note_on,6,0,1,,,,,,,,0,,,76,105
72594,note_on,24,0,1,,,,,,,,0,,,76,0
72600,note_on,6,0,1,,,,,,,,0,,,78,105
72648,note_on,48,0,1,,,,,,,,0,,,78,0
72660,note_on,12,0,1,,,,,,,,0,,,78,105
72672,note_on,192,0,7,,,,,,,,2,,,62,0
72672,note_on,192,0,5,,,,,,,,4,,,62,0
72684,note_on,24,0,1,,,,,,,,0,,,78,0
72690,note_on,6,0,1,,,,,,,,0,,,79,105
72714,note_on,24,0,1,,,,,,,,0,,,79,0
72720,note_on,0,0,7,,,,,,,,2,,,57,105
72720,note_on,6,0,1,,,,,,,,0,,,81,105
72720,note_on,48,0,7,,,,,,,,2,,,66,105
72720,note_on,0,0,7,,,,,,,,2,,,50,105
72720,note_on,48,0,5,,,,,,,,4,,,50,105
72720,note_on,0,0,7,,,,,,,,2,,,62,105
72768,note_on,48,0,1,,,,,,,,0,,,81,0
72780,note_on,12,0,1,,,,,,,,0,,,84,105
72828,note_on,48,0,1,,,,,,,,0,,,84,0
72840,note_on,12,0,1,,,,,,,,0,,,82,105
72888,note_on,48,0,1,,,,,,,,0,,,82,0
72900,note_on,12,0,1,,,,,,,,0,,,81,105
72912,note_on,192,0,5,,,,,,,,4,,,50,0
72912,note_on,192,0,7,,,,,,,,2,,,62,0
72912,note_on,0,0,7,,,,,,,,2,,,57,0
72912,note_on,0,0,7,,,,,,,,2,,,50,0
72912,note_on,0,0,7,,,,,,,,2,,,66,0
72948,note_on,48,0,1,,,,,,,,0,,,81,0
72960,note_on,48,0,7,,,,,,,,2,,,67,105
72960,note_on,0,0,7,,,,,,,,2,,,62,105
72960,note_on,0,0,7,,,,,,,,2,,,58,105
72960,note_on,0,0,7,,,,,,,,2,,,55,105
72960,note_on,12,0,1,,,,,,,,0,,,82,105
72960,note_on,48,0,5,,,,,,,,4,,,55,105
73008,note_on,48,0,1,,,,,,,,0,,,82,0
73020,note_on,12,0,1,,,,,,,,0,,,74,105
73068,note_on,48,0,1,,,,,,,,0,,,74,0
73080,note_on,12,0,1,,,,,,,,0,,,67,105
73128,note_on,48,0,1,,,,,,,,0,,,67,0
73140,note_on,12,0,1,,,,,,,,0,,,74,105
73152,note_on,192,0,7,,,,,,,,2,,,55,0
73152,note_on,192,0,5,,,,,,,,4,,,55,0
73188,note_on,48,0,1,,,,,,,,0,,,74,0
73200,note_on,12,0,1,,,,,,,,0,,,82,105
73200,note_on,48,0,5,,,,,,,,4,,,43,105
73200,note_on,48,0,7,,,,,,,,2,,,43,105
73248,note_on,48,0,1,,,,,,,,0,,,82,0
73260,note_on,12,0,1,,,,,,,,0,,,79,105
73308,note_on,48,0,1,,,,,,,,0,,,79,0
73320,note_on,12,0,1,,,,,,,,0,,,81,105
73344,note_on,0,0,7,,,,,,,,2,,,58,0
73344,note_on,144,0,7,,,,,,,,2,,,67,0
73344,note_on,0,0,7,,,,,,,,2,,,62,0
73368,note_on,48,0,1,,,,,,,,0,,,81,0
73380,note_on,12,0,1,,,,,,,,0,,,82,105
73392,note_on,48,0,7,,,,,,,,2,,,43,0
73392,note_on,192,0,5,,,,,,,,4,,,43,0
73428,note_on,48,0,1,,,,,,,,0,,,82,0
73440,note_on,0,0,7,,,,,,,,2,,,69,105
73440,note_on,0,0,7,,,,,,,,2,,,60,105
73440,note_on,48,0,5,,,,,,,,4,,,53,105
73440,note_on,48,0,7,,,,,,,,2,,,65,105
73440,note_on,12,0,1,,,,,,,,0,,,81,105
73440,note_on,0,0,7,,,,,,,,2,,,53,105
73488,note_on,48,0,1,,,,,,,,0,,,81,0
73500,note_on,12,0,1,,,,,,,,0,,,72,105
73548,note_on,48,0,1,,,,,,,,0,,,72,0
73560,note_on,12,0,1,,,,,,,,0,,,65,105
73608,note_on,48,0,1,,,,,,,,0,,,65,0
73620,note_on,12,0,1,,,,,,,,0,,,72,105
73632,note_on,192,0,7,,,,,,,,2,,,53,0
73632,note_on,192,0,5,,,,,,,,4,,,53,0
73668,note_on,48,0,1,,,,,,,,0,,,72,0
73680,note_on,48,0,5,,,,,,,,4,,,41,105
73680,note_on,48,0,7,,,,,,,,2,,,41,105
73680,note_on,12,0,1,,,,,,,,0,,,81,105
73728,note_on,48,0,1,,,,,,,,0,,,81,0
73740,note_on,12,0,1,,,,,,,,0,,,77,105
73788,note_on,48,0,1,,,,,,,,0,,,77,0
73800,note_on,12,0,1,,,,,,,,0,,,79,105
73824,note_on,144,0,7,,,,,,,,2,,,65,0
73824,note_on,0,0,7,,,,,,,,2,,,69,0
73824,note_on,0,0,7,,,,,,,,2,,,60,0
73848,note_on,48,0,1,,,,,,,,0,,,79,0
73860,note_on,12,0,1,,,,,,,,0,,,81,105
73872,note_on,48,0,7,,,,,,,,2,,,41,0
73872,note_on,192,0,5,,,,,,,,4,,,41,0
73908,note_on,48,0,1,,,,,,,,0,,,81,0
73920,note_on,0,0,7,,,,,,,,2,,,52,105
73920,note_on,48,0,5,,,,,,,,4,,,52,105
73920,note_on,0,0,7,,,,,,,,2,,,73,105
73920,note_on,0,0,7,,,,,,,,2,,,67,105
73920,note_on,48,0,7,,,,,,,,2,,,79,105
73920,note_on,12,0,1,,,,,,,,0,,,79,105
73968,note_on,48,0,1,,,,,,,,0,,,79,0
73980,note_on,12,0,1,,,,,,,,0,,,73,105
74028,note_on,48,0,1,,,,,,,,0,,,73,0
74040,note_on,12,0,1,,,,,,,,0,,,64,105
74088,note_on,48,0,1,,,,,,,,0,,,64,0
74100,note_on,12,0,1,,,,,,,,0,,,73,105
74112,note_on,192,0,7,,,,,,,,2,,,52,0
74112,note_on,192,0,5,,,,,,,,4,,,52,0
74148,note_on,48,0,1,,,,,,,,0,,,73,0
74160,note_on,12,0,1,,,,,,,,0,,,79,105
74160,note_on,48,0,7,,,,,,,,2,,,40,105
74160,note_on,48,0,5,,,,,,,,4,,,40,105
74208,note_on,48,0,1,,,,,,,,0,,,79,0
74220,note_on,12,0,1,,,,,,,,0,,,76,105
74268,note_on,48,0,1,,,,,,,,0,,,76,0
74280,note_on,12,0,1,,,,,,,,0,,,77,105
74304,note_on,144,0,7,,,,,,,,2,,,79,0
74304,note_on,0,0,7,,,,,,,,2,,,73,0
74304,note_on,0,0,7,,,,,,,,2,,,67,0
74328,note_on,48,0,1,,,,,,,,0,,,77,0
74340,note_on,12,0,1,,,,,,,,0,,,79,105
74352,note_on,192,0,5,,,,,,,,4,,,40,0
74352,note_on,48,0,7,,,,,,,,2,,,40,0
74388,note_on,48,0,1,,,,,,,,0,,,79,0
74400,note_on,48,0,7,,,,,,,,2,,,77,105
74400,note_on,12,0,1,,,,,,,,0,,,77,105
74400,note_on,0,0,7,,,,,,,,2,,,69,105
74400,note_on,0,0,7,,,,,,,,2,,,50,105
74400,note_on,0,0,7,,,,,,,,2,,,74,105
74400,note_on,48,0,5,,,,,,,,4,,,50,105
74448,note_on,48,0,1,,,,,,,,0,,,77,0
74460,note_on,12,0,1,,,,,,,,0,,,74,105
74484,note_on,24,0,1,,,,,,,,0,,,74,0
74490,note_on,6,0,1,,,,,,,,0,,,76,105
74514,note_on,24,0,1,,,,,,,,0,,,76,0
74520,note_on,6,0,1,,,,,,,,0,,,77,105
74568,note_on,48,0,1,,,,,,,,0,,,77,0
74580,note_on,12,0,1,,,,,,,,0,,,77,105
74592,note_on,192,0,5,,,,,,,,4,,,50,0
74592,note_on,192,0,7,,,,,,,,2,,,50,0
74604,note_on,24,0,1,,,,,,,,0,,,77,0
74610,note_on,6,0,1,,,,,,,,0,,,79,105
74634,note_on,24,0,1,,,,,,,,0,,,79,0
74640,note_on,48,0,5,,,,,,,,4,,,38,105
74640,note_on,6,0,1,,,,,,,,0,,,81,105
74640,note_on,48,0,7,,,,,,,,2,,,38,105
74688,note_on,48,0,1,,,,,,,,0,,,81,0
74700,note_on,12,0,1,,,,,,,,0,,,77,105
74748,note_on,48,0,1,,,,,,,,0,,,77,0
74760,note_on,12,0,1,,,,,,,,0,,,75,105
74784,note_on,144,0,7,,,,,,,,2,,,77,0
74784,note_on,0,0,7,,,,,,,,2,,,74,0
74784,note_on,0,0,7,,,,,,,,2,,,69,0
74808,note_on,48,0,1,,,,,,,,0,,,75,0
74820,note_on,12,0,1,,,,,,,,0,,,74,105
74832,note_on,192,0,5,,,,,,,,4,,,38,0
74832,note_on,48,0,7,,,,,,,,2,,,38,0
74868,note_on,48,0,1,,,,,,,,0,,,74,0
74880,note_on,0,0,7,,,,,,,,2,,,55,105
74880,note_on,48,0,7,,,,,,,,2,,,75,105
74880,note_on,0,0,7,,,,,,,,2,,,70,105
74880,note_on,12,0,1,,,,,,,,0,,,75,105
74880,note_on,48,0,5,,,,,,,,4,,,55,105
74928,note_on,48,0,1,,,,,,,,0,,,75,0
74940,note_on,12,0,1,,,,,,,,0,,,75,105
74964,note_on,24,0,1,,,,,,,,0,,,75,0
74970,note_on,6,0,1,,,,,,,,0,,,77,105
74994,note_on,24,0,1,,,,,,,,0,,,77,0
75000,note_on,6,0,1,,,,,,,,0,,,79,105
75048,note_on,48,0,1,,,,,,,,0,,,79,0
75060,note_on,12,0,1,,,,,,,,0,,,79,105
75072,note_on,192,0,7,,,,,,,,2,,,55,0
75072,note_on,192,0,5,,,,,,,,4,,,55,0
75084,note_on,24,0,1,,,,,,,,0,,,79,0
75090,note_on,6,0,1,,,,,,,,0,,,81,105
75114,note_on,24,0,1,,,,,,,,0,,,81,0
75120,note_on,48,0,7,,,,,,,,2,,,43,105
75120,note_on,48,0,5,,,,,,,,4,,,43,105
75120,note_on,6,0,1,,,,,,,,0,,,82,105
75168,note_on,48,0,1,,,,,,,,0,,,82,0
75180,note_on,12,0,1,,,,,,,,0,,,77,105
75228,note_on,48,0,1,,,,,,,,0,,,77,0
75240,note_on,12,0,1,,,,,,,,0,,,75,105
75264,note_on,144,0,7,,,,,,,,2,,,70,0
75264,note_on,0,0,7,,,,,,,,2,,,75,0
75288,note_on,48,0,1,,,,,,,,0,,,75,0
75300,note_on,12,0,1,,,,,,,,0,,,74,105
75312,note_on,48,0,7,,,,,,,,2,,,43,0
75312,note_on,192,0,5,,,,,,,,4,,,43,0
75348,note_on,48,0,1,,,,,,,,0,,,74,0
75360,note_on,48,0,7,,,,,,,,2,,,69,105
75360,note_on,0,0,7,,,,,,,,2,,,57,105
75360,note_on,0,0,7,,,,,,,,2,,,64,105
75360,note_on,0,0,7,,,,,,,,2,,,73,105
75360,note_on,48,0,5,,,,,,,,4,,,57,105
75360,note_on,12,0,1,,,,,,,,0,,,73,105
75392,note_on,32,0,1,,,,,,,,0,,,73,0
75400,note_on,8,0,1,,,,,,,,0,,,71,105
75432,note_on,32,0,1,,,,,,,,0,,,71,0
75440,note_on,8,0,1,,,,,,,,0,,,69,105
75456,note_on,96,0,7,,,,,,,,2,,,57,0
75456,note_on,96,0,5,,,,,,,,4,,,57,0
75472,note_on,32,0,1,,,,,,,,0,,,69,0
75480,note_on,24,0,7,,,,,,,,2,,,45,105
75480,note_on,8,0,1,,,,,,,,0,,,79,105
75480,note_on,24,0,5,,,,,,,,4,,,45,105
75504,note_on,24,0,1,,,,,,,,0,,,79,0
75510,note_on,6,0,1,,,,,,,,0,,,81,105
75534,note_on,24,0,1,,,,,,,,0,,,81,0
75540,note_on,6,0,1,,,,,,,,0,,,79,105
75552,note_on,0,0,7,,,,,,,,2,,,73,0
75552,note_on,72,0,7,,,,,,,,2,,,69,0
75552,note_on,0,0,7,,,,,,,,2,,,64,0
75564,note_on,24,0,1,,,,,,,,0,,,79,0
75570,note_on,6,0,1,,,,,,,,0,,,81,105
75576,note_on,24,0,7,,,,,,,,2,,,45,0
75576,note_on,96,0,5,,,,,,,,4,,,45,0
75594,note_on,24,0,1,,,,,,,,0,,,81,0
75600,note_on,24,0,5,,,,,,,,4,,,50,105
75600,note_on,0,0,7,,,,,,,,2,,,50,105
75600,note_on,6,0,1,,,,,,,,0,,,77,105
75600,note_on,24,0,7,,,,,,,,2,,,74,105
75600,note_on,0,0,7,,,,,,,,2,,,69,105
75600,note_on,0,0,7,,,,,,,,2,,,65,105
75632,note_on,32,0,1,,,,,,,,0,,,77,0
75640,note_on,8,0,1,,,,,,,,0,,,76,105
75672,note_on,32,0,1,,,,,,,,0,,,76,0
75680,note_on,8,0,1,,,,,,,,0,,,74,105
75696,note_on,96,0,5,,,,,,,,4,,,50,0
75696,note_on,96,0,7,,,,,,,,2,,,50,0
75712,note_on,32,0,1,,,,,,,,0,,,74,0
75720,note_on,24,0,7,,,,,,,,2,,,38,105
75720,note_on,24,0,5,,,,,,,,4,,,38,105
75720,note_on,8,0,1,,,,,,,,0,,,81,105
75744,note_on,24,0,1,,,,,,,,0,,,81,0
75750,note_on,6,0,1,,,,,,,,0,,,82,105
75774,note_on,24,0,1,,,,,,,,0,,,82,0
75780,note_on,6,0,1,,,,,,,,0,,,81,105
75792,note_on,0,0,7,,,,,,,,2,,,65,0
75792,note_on,0,0,7,,,,,,,,2,,,69,0
75792,note_on,72,0,7,,,,,,,,2,,,74,0
75804,note_on,24,0,1,,,,,,,,0,,,81,0
75810,note_on,6,0,1,,,,,,,,0,,,82,105
75816,note_on,96,0,5,,,,,,,,4,,,38,0
75816,note_on,24,0,7,,,,,,,,2,,,38,0
75834,note_on,24,0,1,,,,,,,,0,,,82,0
75840,note_on,24,0,7,,,,,,,,2,,,67,105
75840,note_on,0,0,7,,,,,,,,2,,,79,105
75840,note_on,0,0,7,,,,,,,,2,,,52,105
75840,note_on,0,0,7,,,,,,,,2,,,70,105
75840,note_on,6,0,1,,,,,,,,0,,,79,105
75840,note_on,24,0,5,,,,,,,,4,,,52,105
75872,note_on,32,0,1,,,,,,,,0,,,79,0
75880,note_on,8,0,1,,,,,,,,0,,,77,105
75912,note_on,32,0,1,,,,,,,,0,,,77,0
75920,note_on,8,0,1,,,,,,,,0,,,76,105
75936,note_on,96,0,7,,,,,,,,2,,,52,0
75936,note_on,96,0,5,,,,,,,,4,,,52,0
75952,note_on,32,0,1,,,,,,,,0,,,76,0
75960,note_on,24,0,7,,,,,,,,2,,,40,105
75960,note_on,8,0,1,,,,,,,,0,,,82,105
75960,note_on,24,0,5,,,,,,,,4,,,40,105
75984,note_on,24,0,1,,,,,,,,0,,,82,0
75990,note_on,6,0,1,,,,,,,,0,,,84,105
76014,note_on,24,0,1,,,,,,,,0,,,84,0
76020,note_on,6,0,1,,,,,,,,0,,,82,105
76032,note_on,0,0,7,,,,,,,,2,,,70,0
76032,note_on,0,0,7,,,,,,,,2,,,79,0
76032,note_on,72,0,7,,,,,,,,2,,,67,0
76044,note_on,24,0,1,,,,,,,,0,,,82,0
76050,note_on,6,0,1,,,,,,,,0,,,84,105
76056,note_on,24,0,7,,,,,,,,2,,,40,0
76056,note_on,96,0,5,,,,,,,,4,,,40,0
76074,note_on,24,0,1,,,,,,,,0,,,84,0
76080,note_on,6,0,1,,,,,,,,0,,,81,105
76080,note_on,0,0,7,,,,,,,,2,,,74,105
76080,note_on,0,0,7,,,,,,,,2,,,53,105
76080,note_on,24,0,5,,,,,,,,4,,,53,105
76080,note_on,24,0,7,,,,,,,,2,,,69,105
76112,note_on,32,0,1,,,,,,,,0,,,81,0
76120,note_on,8,0,1,,,,,,,,0,,,79,105
76152,note_on,32,0,1,,,,,,,,0,,,79,0
76160,note_on,8,0,1,,,,,,,,0,,,77,105
76176,note_on,0,0,7,,,,,,,,2,,,69,0
76176,note_on,96,0,7,,,,,,,,2,,,74,0
76176,note_on,96,0,5,,,,,,,,4,,,53,0
76176,note_on,0,0,7,,,,,,,,2,,,53,0
76192,note_on,32,0,1,,,,,,,,0,,,77,0
76200,note_on,24,0,7,,,,,,,,2,,,67,105
76200,note_on,0,0,7,,,,,,,,2,,,52,105
76200,note_on,0,0,7,,,,,,,,2,,,73,105
76200,note_on,24,0,5,,,,,,,,4,,,52,105
76200,note_on,8,0,1,,,,,,,,0,,,85,105
76224,note_on,24,0,1,,,,,,,,0,,,85,0
76230,note_on,6,0,1,,,,,,,,0,,,86,105
76254,note_on,24,0,1,,,,,,,,0,,,86,0
76260,note_on,6,0,1,,,,,,,,0,,,85,105
76284,note_on,24,0,1,,,,,,,,0,,,85,0
76290,note_on,6,0,1,,,,,,,,0,,,86,105
76296,note_on,96,0,7,,,,,,,,2,,,73,0
76296,note_on,0,0,7,,,,,,,,2,,,52,0
76296,note_on,96,0,5,,,,,,,,4,,,52,0
76296,note_on,0,0,7,,,,,,,,2,,,67,0
76314,note_on,24,0,1,,,,,,,,0,,,86,0
76320,note_on,6,0,1,,,,,,,,0,,,86,105
76320,note_on,0,0,7,,,,,,,,2,,,74,105
76320,note_on,0,0,7,,,,,,,,2,,,50,105
76320,note_on,0,0,7,,,,,,,,2,,,65,105
76320,note_on,24,0,5,,,,,,,,4,,,50,105
76320,note_on,24,0,7,,,,,,,,2,,,69,105
76352,note_on,32,0,1,,,,,,,,0,,,86,0
76360,note_on,8,0,1,,,,,,,,0,,,81,105
76392,note_on,32,0,1,,,,,,,,0,,,81,0
76400,note_on,8,0,1,,,,,,,,0,,,79,105
76416,note_on,96,0,7,,,,,,,,2,,,50,0
76416,note_on,96,0,5,,,,,,,,4,,,50,0
76432,note_on,32,0,1,,,,,,,,0,,,79,0
76440,note_on,8,0,1,,,,,,,,0,,,77,105
76440,note_on,24,0,7,,,,,,,,2,,,38,105
76440,note_on,24,0,5,,,,,,,,4,,,38,105
76472,note_on,32,0,1,,,,,,,,0,,,77,0
76480,note_on,8,0,1,,,,,,,,0,,,76,105
76512,note_on,72,0,7,,,,,,,,2,,,69,0
76512,note_on,0,0,7,,,,,,,,2,,,74,0
76512,note_on,0,0,7,,,,,,,,2,,,65,0
76512,note_on,32,0,1,,,,,,,,0,,,76,0
76520,note_on,8,0,1,,,,,,,,0,,,74,105
76536,note_on,24,0,7,,,,,,,,2,,,38,0
76536,note_on,96,0,5,,,,,,,,4,,,38,0
76552,note_on,32,0,1,,,,,,,,0,,,74,0
76560,note_on,0,0,7,,,,,,,,2,,,73,105
76560,note_on,0,0,7,,,,,,,,2,,,69,105
76560,note_on,0,0,7,,,,,,,,2,,,76,105
76560,note_on,8,0,1,,,,,,,,0,,,76,105
76560,note_on,24,0,7,,,,,,,,2,,,57,105
76560,note_on,24,0,5,,,,,,,,4,,,57,105
76584,note_on,24,0,1,,,,,,,,0,,,76,0
76590,note_on,6,0,1,,,,,,,,0,,,77,105
76614,note_on,24,0,1,,,,,,,,0,,,77,0
76620,note_on,6,0,1,,,,,,,,0,,,76,105
76644,note_on,24,0,1,,,,,,,,0,,,76,0
76650,note_on,6,0,1,,,,,,,,0,,,77,105
76656,note_on,96,0,5,,,,,,,,4,,,57,0
76656,note_on,96,0,7,,,,,,,,2,,,57,0
76674,note_on,24,0,1,,,,,,,,0,,,77,0
76680,note_on,24,0,7,,,,,,,,2,,,45,105
76680,note_on,24,0,5,,,,,,,,4,,,45,105
76680,note_on,6,0,1,,,,,,,,0,,,76,105
76704,note_on,24,0,1,,,,,,,,0,,,76,0
76710,note_on,6,0,1,,,,,,,,0,,,77,105
76734,note_on,24,0,1,,,,,,,,0,,,77,0
76740,note_on,6,0,1,,,,,,,,0,,,76,105
76752,note_on,72,0,7,,,,,,,,2,,,76,0
76752,note_on,0,0,7,,,,,,,,2,,,69,0
76752,note_on,0,0,7,,,,,,,,2,,,73,0
76764,note_on,24,0,1,,,,,,,,0,,,76,0
76770,note_on,6,0,1,,,,,,,,0,,,77,105
76776,note_on,96,0,5,,,,,,,,4,,,45,0
76776,note_on,24,0,7,,,,,,,,2,,,45,0
76794,note_on,24,0,1,,,,,,,,0,,,77,0
76800,note_on,7008,0,4,,,,,,,,3,,,74,105
76800,note_on,24,0,7,,,,,,,,2,,,78,105
76800,note_on,7008,0,3,,,,,,,,0,,,78,105
76800,note_on,0,0,7,,,,,,,,2,,,69,105
76800,note_on,7008,0,2,,,,,,,,1,,,81,105
76800,note_on,0,0,7,,,,,,,,2,,,74,105
76800,note_on,6,0,1,,,,,,,,0,,,74,105
76800,note_on,24,0,5,,,,,,,,4,,,50,105
76800,note_on,0,0,7,,,,,,,,2,,,50,105
76896,note_on,96,0,7,,,,,,,,2,,,50,0
76896,note_on,96,0,5,,,,,,,,4,,,50,0
76920,note_on,24,0,7,,,,,,,,2,,,62,105
76920,note_on,24,0,5,,,,,,,,4,,,62,105
76992,note_on,192,0,1,,,,,,,,0,,,74,0
77016,note_on,96,0,7,,,,,,,,2,,,62,0
77016,note_on,96,0,5,,,,,,,,4,,,62,0
77040,note_on,24,0,7,,,,,,,,2,,,62,105
77040,note_on,24,0,5,,,,,,,,4,,,62,105
77136,note_on,96,0,5,,,,,,,,4,,,62,0
77136,note_on,96,0,7,,,,,,,,2,,,62,0
77160,note_on,24,0,7,,,,,,,,2,,,60,105
77160,note_on,24,0,5,,,,,,,,4,,,60,105
77184,note_on,24,0,7,,,,,,,,2,,,78,0
77184,note_on,384,0,2,,,,,,,,1,,,81,0
77184,note_on,384,0,3,,,,,,,,0,,,78,0
77184,note_on,0,0,7,,,,,,,,2,,,74,0
77184,note_on,0,0,7,,,,,,,,2,,,69,0
77256,note_on,96,0,5,,,,,,,,4,,,60,0
77256,note_on,72,0,7,,,,,,,,2,,,60,0
77280,note_on,96,0,2,,,,,,,,1,,,82,105
77280,note_on,0,0,7,,,,,,,,2,,,58,105
77280,note_on,0,0,7,,,,,,,,2,,,67,105
77280,note_on,96,0,3,,,,,,,,0,,,79,105
77280,note_on,0,0,7,,,,,,,,2,,,74,105
77280,note_on,24,0,7,,,,,,,,2,,,79,105
77280,note_on,288,0,1,,,,,,,,0,,,82,105
77280,note_on,24,0,5,,,,,,,,4,,,58,105
77376,note_on,96,0,7,,,,,,,,2,,,58,0
77376,note_on,96,0,5,,,,,,,,4,,,58,0
77400,note_on,24,0,5,,,,,,,,4,,,55,105
77400,note_on,24,0,7,,,,,,,,2,,,55,105
77448,note_on,48,0,5,,,,,,,,4,,,55,0
77448,note_on,48,0,7,,,,,,,,2,,,55,0
77460,note_on,12,0,7,,,,,,,,2,,,57,105
77460,note_on,12,0,5,,,,,,,,4,,,57,105
77508,note_on,48,0,7,,,,,,,,2,,,57,0
77508,note_on,48,0,5,,,,,,,,4,,,57,0
77520,note_on,12,0,7,,,,,,,,2,,,58,105
77520,note_on,12,0,5,,,,,,,,4,,,58,105
77568,note_on,768,0,4,,,,,,,,3,,,74,0
77616,note_on,96,0,5,,,,,,,,4,,,58,0
77616,note_on,96,0,7,,,,,,,,2,,,58,0
77640,note_on,24,0,7,,,,,,,,2,,,55,105
77640,note_on,24,0,5,,,,,,,,4,,,55,105
77664,note_on,384,0,1,,,,,,,,0,,,82,0
77664,note_on,384,0,2,,,,,,,,1,,,82,0
77664,note_on,0,0,7,,,,,,,,2,,,74,0
77664,note_on,0,0,7,,,,,,,,2,,,79,0
77664,note_on,24,0,7,,,,,,,,2,,,67,0
77664,note_on,384,0,3,,,,,,,,0,,,79,0
77736,note_on,72,0,7,,,,,,,,2,,,55,0
77736,note_on,96,0,5,,,,,,,,4,,,55,0
77760,note_on,24,0,5,,,,,,,,4,,,60,105
77760,note_on,0,0,7,,,,,,,,2,,,72,105
77760,note_on,24,0,7,,,,,,,,2,,,76,105
77760,note_on,96,0,1,,,,,,,,0,,,79,105
77760,note_on,0,0,7,,,,,,,,2,,,60,105
77760,note_on,0,0,7,,,,,,,,2,,,67,105
77760,note_on,96,0,2,,,,,,,,1,,,79,105
77760,note_on,192,0,4,,,,,,,,3,,,72,105
77760,note_on,96,0,3,,,,,,,,0,,,76,105
77856,note_on,96,0,5,,,,,,,,4,,,60,0
77856,note_on,96,0,7,,,,,,,,2,,,60,0
77880,note_on,24,0,5,,,,,,,,4,,,60,105
77880,note_on,24,0,7,,,,,,,,2,,,60,105
77976,note_on,96,0,7,,,,,,,,2,,,60,0
77976,note_on,96,0,5,,,,,,,,4,,,60,0
78000,note_on,24,0,5,,,,,,,,4,,,60,105
78000,note_on,24,0,7,,,,,,,,2,,,60,105
78096,note_on,96,0,7,,,,,,,,2,,,60,0
78096,note_on,96,0,5,,,,,,,,4,,,60,0
78120,note_on,24,0,7,,,,,,,,2,,,58,105
78120,note_on,24,0,5,,,,,,,,4,,,58,105
78144,note_on,384,0,1,,,,,,,,0,,,79,0
78144,note_on,0,0,7,,,,,,,,2,,,72,0
78144,note_on,384,0,3,,,,,,,,0,,,76,0
78144,note_on,384,0,2,,,,,,,,1,,,79,0
78144,note_on,0,0,7,,,,,,,,2,,,67,0
78144,note_on,24,0,7,,,,,,,,2,,,76,0
78216,note_on,96,0,5,,,,,,,,4,,,58,0
78216,note_on,72,0,7,,,,,,,,2,,,58,0
78240,note_on,96,0,1,,,,,,,,0,,,81,105
78240,note_on,24,0,7,,,,,,,,2,,,72,105
78240,note_on,0,0,7,,,,,,,,2,,,77,105
78240,note_on,0,0,7,,,,,,,,2,,,57,105
78240,note_on,0,0,7,,,,,,,,2,,,65,105
78240,note_on,24,0,5,,,,,,,,4,,,57,105
78240,note_on,96,0,2,,,,,,,,1,,,81,105
78240,note_on,96,0,3,,,,,,,,0,,,77,105
78336,note_on,96,0,5,,,,,,,,4,,,57,0
78336,note_on,96,0,7,,,,,,,,2,,,57,0
78360,note_on,24,0,7,,,,,,,,2,,,53,105
78360,note_on,24,0,5,,,,,,,,4,,,53,105
78408,note_on,48,0,5,,,,,,,,4,,,53,0
78408,note_on,48,0,7,,,,,,,,2,,,53,0
78420,note_on,12,0,7,,,,,,,,2,,,55,105
78420,note_on,12,0,5,,,,,,,,4,,,55,105
78468,note_on,48,0,7,,,,,,,,2,,,55,0
78468,note_on,48,0,5,,,,,,,,4,,,55,0
78480,note_on,12,0,7,,,,,,,,2,,,57,105
78480,note_on,12,0,5,,,,,,,,4,,,57,105
78528,note_on,768,0,4,,,,,,,,3,,,72,0
78576,note_on,96,0,7,,,,,,,,2,,,57,0
78576,note_on,96,0,5,,,,,,,,4,,,57,0
78600,note_on,24,0,7,,,,,,,,2,,,53,105
78600,note_on,24,0,5,,,,,,,,4,,,53,105
78624,note_on,0,0,7,,,,,,,,2,,,77,0
78624,note_on,0,0,7,,,,,,,,2,,,72,0
78624,note_on,24,0,7,,,,,,,,2,,,65,0
78624,note_on,384,0,1,,,,,,,,0,,,81,0
78624,note_on,384,0,2,,,,,,,,1,,,81,0
78624,note_on,384,0,3,,,,,,,,0,,,77,0
78696,note_on,96,0,5,,,,,,,,4,,,53,0
78696,note_on,72,0,7,,,,,,,,2,,,53,0
78720,note_on,24,0,7,,,,,,,,2,,,74,105
78720,note_on,0,0,7,,,,,,,,2,,,65,105
78720,note_on,0,0,7,,,,,,,,2,,,70,105
78720,note_on,192,0,4,,,,,,,,3,,,70,105
78720,note_on,96,0,3,,,,,,,,0,,,74,105
78720,note_on,96,0,1,,,,,,,,0,,,77,105
78720,note_on,0,0,7,,,,,,,,2,,,58,105
78720,note_on,96,0,2,,,,,,,,1,,,77,105
78720,note_on,24,0,5,,,,,,,,4,,,58,105
78816,note_on,96,0,5,,,,,,,,4,,,58,0
78816,note_on,96,0,7,,,,,,,,2,,,58,0
78840,note_on,24,0,7,,,,,,,,2,,,58,105
78840,note_on,24,0,5,,,,,,,,4,,,58,105
78936,note_on,96,0,5,,,,,,,,4,,,58,0
78936,note_on,96,0,7,,,,,,,,2,,,58,0
78960,note_on,24,0,7,,,,,,,,2,,,58,105
78960,note_on,24,0,5,,,,,,,,4,,,58,105
79056,note_on,96,0,7,,,,,,,,2,,,58,0
79056,note_on,96,0,5,,,,,,,,4,,,58,0
79080,note_on,24,0,7,,,,,,,,2,,,57,105
79080,note_on,24,0,5,,,,,,,,4,,,57,105
79104,note_on,0,0,7,,,,,,,,2,,,65,0
79104,note_on,0,0,7,,,,,,,,2,,,70,0
79104,note_on,24,0,7,,,,,,,,2,,,74,0
79104,note_on,384,0,1,,,,,,,,0,,,77,0
79104,note_on,384,0,3,,,,,,,,0,,,74,0
79104,note_on,384,0,2,,,,,,,,1,,,77,0
79176,note_on,72,0,7,,,,,,,,2,,,57,0
79176,note_on,96,0,5,,,,,,,,4,,,57,0
79200,note_on,0,0,7,,,,,,,,2,,,64,105
79200,note_on,96,0,3,,,,,,,,0,,,76,105
79200,note_on,96,0,2,,,,,,,,1,,,79,105
79200,note_on,96,0,1,,,,,,,,0,,,79,105
79200,note_on,0,0,7,,,,,,,,2,,,55,105
79200,note_on,0,0,7,,,,,,,,2,,,76,105
79200,note_on,24,0,5,,,,,,,,4,,,55,105
79200,note_on,24,0,7,,,,,,,,2,,,70,105
79296,note_on,576,0,4,,,,,,,,3,,,70,0
79392,note_on,192,0,2,,,,,,,,1,,,79,0
79392,note_on,192,0,7,,,,,,,,2,,,76,0
79392,note_on,0,0,7,,,,,,,,2,,,70,0
79392,note_on,0,0,7,,,,,,,,2,,,55,0
79392,note_on,0,0,7,,,,,,,,2,,,64,0
79392,note_on,192,0,3,,,,,,,,0,,,76,0
79392,note_on,192,0,1,,,,,,,,0,,,79,0
79392,note_on,192,0,5,,,,,,,,4,,,55,0
79440,note_on,48,0,3,,,,,,,,0,,,74,105
79440,note_on,48,0,1,,,,,,,,0,,,77,105
79440,note_on,144,0,4,,,,,,,,3,,,71,105
79440,note_on,48,0,5,,,,,,,,4,,,56,105
79440,note_on,0,0,7,,,,,,,,2,,,65,105
79440,note_on,0,0,7,,,,,,,,2,,,56,105
79440,note_on,0,0,7,,,,,,,,2,,,71,105
79440,note_on,48,0,7,,,,,,,,2,,,74,105
79440,note_on,48,0,2,,,,,,,,1,,,77,105
79632,note_on,0,0,7,,,,,,,,2,,,65,0
79632,note_on,0,0,7,,,,,,,,2,,,71,0
79632,note_on,0,0,7,,,,,,,,2,,,74,0
79632,note_on,192,0,7,,,,,,,,2,,,56,0
79632,note_on,192,0,4,,,,,,,,3,,,71,0
79632,note_on,192,0,1,,,,,,,,0,,,77,0
79632,note_on,192,0,2,,,,,,,,1,,,77,0
79632,note_on,192,0,5,,,,,,,,4,,,56,0
79632,note_on,192,0,3,,,,,,,,0,,,74,0
79680,note_on,48,0,1,,,,,,,,0,,,76,105
79680,note_on,48,0,2,,,,,,,,1,,,76,105
79680,note_on,48,0,5,,,,,,,,4,,,57,105
79680,note_on,48,0,4,,,,,,,,3,,,73,105
79680,note_on,0,0,7,,,,,,,,2,,,57,105
79680,note_on,0,0,7,,,,,,,,2,,,64,105
79680,note_on,0,0,7,,,,,,,,2,,,69,105
79680,note_on,48,0,7,,,,,,,,2,,,73,105
79680,note_on,48,0,3,,,,,,,,0,,,73,105
79728,note_on,48,0,3,,,,,,,,0,,,73,0
79728,note_on,48,0,1,,,,,,,,0,,,76,0
79728,note_on,48,0,2,,,,,,,,1,,,76,0
79740,note_on,12,0,1,,,,,,,,0,,,81,105
79740,note_on,12,0,3,,,,,,,,0,,,76,105
79740,note_on,12,0,2,,,,,,,,1,,,81,105
79776,note_on,96,0,4,,,,,,,,3,,,73,0
79788,note_on,48,0,3,,,,,,,,0,,,76,0
79788,note_on,48,0,1,,,,,,,,0,,,81,0
79788,note_on,48,0,2,,,,,,,,1,,,81,0
79800,note_on,24,0,4,,,,,,,,3,,,69,105
79800,note_on,12,0,1,,,,,,,,0,,,81,105
79800,note_on,12,0,2,,,,,,,,1,,,81,105
79800,note_on,12,0,3,,,,,,,,0,,,76,105
79848,note_on,48,0,4,,,,,,,,3,,,69,0
79860,note_on,12,0,4,,,,,,,,3,,,67,105
79872,note_on,0,0,7,,,,,,,,2,,,73,0
79872,note_on,0,0,7,,,,,,,,2,,,69,0
79872,note_on,0,0,7,,,,,,,,2,,,64,0
79872,note_on,192,0,5,,,,,,,,4,,,57,0
79872,note_on,192,0,7,,,,,,,,2,,,57,0
79896,note_on,96,0,2,,,,,,,,1,,,81,0
79896,note_on,96,0,3,,,,,,,,0,,,76,0
79896,note_on,96,0,1,,,,,,,,0,,,81,0
79908,note_on,48,0,4,,,,,,,,3,,,67,0
79920,note_on,12,0,4,,,,,,,,3,,,66,105
79980,note_on,84,0,3,,,,,,,,0,,,78,105
79980,note_on,84,0,2,,,,,,,,1,,,74,105
79980,note_on,84,0,1,,,,,,,,0,,,74,105
80016,note_on,96,0,4,,,,,,,,3,,,66,0
80028,note_on,48,0,2,,,,,,,,1,,,74,0
80028,note_on,48,0,1,,,,,,,,0,,,74,0
80028,note_on,48,0,3,,,,,,,,0,,,78,0
80040,note_on,12,0,1,,,,,,,,0,,,74,105
80040,note_on,168,0,7,,,,,,,,2,,,66,105
80040,note_on,0,0,7,,,,,,,,2,,,50,105
80040,note_on,12,0,2,,,,,,,,1,,,74,105
80040,note_on,0,0,7,,,,,,,,2,,,57,105
80040,note_on,12,0,3,,,,,,,,0,,,78,105
80040,note_on,168,0,5,,,,,,,,4,,,50,105
80040,note_on,24,0,4,,,,,,,,3,,,62,105
80136,note_on,96,0,5,,,,,,,,4,,,50,0
80136,note_on,96,0,7,,,,,,,,2,,,50,0
80136,note_on,0,0,7,,,,,,,,2,,,57,0
80136,note_on,96,0,1,,,,,,,,0,,,74,0
80136,note_on,0,0,7,,,,,,,,2,,,66,0
80136,note_on,96,0,2,,,,,,,,1,,,74,0
80136,note_on,96,0,4,,,,,,,,3,,,62,0
80136,note_on,96,0,3,,,,,,,,0,,,78,0
80160,note_on,0,0,7,,,,,,,,2,,,60,105
80160,note_on,24,0,7,,,,,,,,2,,,67,105
80160,note_on,24,0,4,,,,,,,,3,,,67,105
80160,note_on,24,0,5,,,,,,,,4,,,51,105
80160,note_on,0,0,7,,,,,,,,2,,,51,105
80220,note_on,84,0,2,,,,,,,,1,,,72,105
80220,note_on,84,0,1,,,,,,,,0,,,72,105
80220,note_on,84,0,3,,,,,,,,0,,,79,105
80256,note_on,96,0,4,,,,,,,,3,,,67,0
80256,note_on,96,0,7,,,,,,,,2,,,51,0
80256,note_on,96,0,5,,,,,,,,4,,,51,0
80268,note_on,48,0,2,,,,,,,,1,,,72,0
80268,note_on,48,0,3,,,,,,,,0,,,79,0
80268,note_on,48,0,1,,,,,,,,0,,,72,0
80280,note_on,12,0,1,,,,,,,,0,,,72,105
80280,note_on,24,0,5,,,,,,,,4,,,52,105
80280,note_on,24,0,4,,,,,,,,3,,,67,105
80280,note_on,12,0,3,,,,,,,,0,,,79,105
80280,note_on,12,0,2,,,,,,,,1,,,72,105
80280,note_on,24,0,7,,,,,,,,2,,,52,105
80352,note_on,0,0,7,,,,,,,,2,,,67,0
80352,note_on,72,0,7,,,,,,,,2,,,60,0
80376,note_on,96,0,5,,,,,,,,4,,,52,0
80376,note_on,96,0,4,,,,,,,,3,,,67,0
80376,note_on,96,0,3,,,,,,,,0,,,79,0
80376,note_on,24,0,7,,,,,,,,2,,,52,0
80376,note_on,96,0,2,,,,,,,,1,,,72,0
80376,note_on,96,0,1,,,,,,,,0,,,72,0
80400,note_on,24,0,4,,,,,,,,3,,,65,105
80400,note_on,24,0,7,,,,,,,,2,,,69,105
80400,note_on,24,0,5,,,,,,,,4,,,53,105
80400,note_on,0,0,7,,,,,,,,2,,,60,105
80400,note_on,0,0,7,,,,,,,,2,,,53,105
80460,note_on,84,0,1,,,,,,,,0,,,72,105
80460,note_on,84,0,2,,,,,,,,1,,,72,105
80496,note_on,96,0,5,,,,,,,,4,,,53,0
80496,note_on,96,0,4,,,,,,,,3,,,65,0
80496,note_on,0,0,7,,,,,,,,2,,,69,0
80496,note_on,96,0,7,,,,,,,,2,,,60,0
80496,note_on,0,0,7,,,,,,,,2,,,53,0
80508,note_on,48,0,1,,,,,,,,0,,,72,0
80508,note_on,48,0,2,,,,,,,,1,,,72,0
80520,note_on,24,0,5,,,,,,,,4,,,54,105
80520,note_on,0,0,7,,,,,,,,2,,,54,105
80520,note_on,0,0,7,,,,,,,,2,,,72,105
80520,note_on,0,0,7,,,,,,,,2,,,62,105
80520,note_on,24,0,7,,,,,,,,2,,,69,105
80520,note_on,12,0,1,,,,,,,,0,,,70,105
80520,note_on,24,0,4,,,,,,,,3,,,64,105
80520,note_on,12,0,2,,,,,,,,1,,,70,105
80520,note_on,144,0,3,,,,,,,,0,,,81,105
80568,note_on,48,0,2,,,,,,,,1,,,70,0
80568,note_on,48,0,1,,,,,,,,0,,,70,0
80580,note_on,12,0,2,,,,,,,,1,,,69,105
80580,note_on,12,0,1,,,,,,,,0,,,69,105
80616,note_on,0,0,7,,,,,,,,2,,,69,0
80616,note_on,0,0,7,,,,,,,,2,,,54,0
80616,note_on,0,0,7,,,,,,,,2,,,72,0
80616,note_on,96,0,5,,,,,,,,4,,,54,0
80616,note_on,96,0,3,,,,,,,,0,,,81,0
80616,note_on,96,0,4,,,,,,,,3,,,64,0
80616,note_on,96,0,7,,,,,,,,2,,,62,0
80628,note_on,48,0,2,,,,,,,,1,,,69,0
80628,note_on,48,0,1,,,,,,,,0,,,69,0
80640,note_on,24,0,4,,,,,,,,3,,,58,105
80640,note_on,24,0,3,,,,,,,,0,,,70,105
80640,note_on,12,0,1,,,,,,,,0,,,70,105
80640,note_on,24,0,5,,,,,,,,4,,,55,105
80640,note_on,0,0,7,,,,,,,,2,,,55,105
80640,note_on,0,0,7,,,,,,,,2,,,62,105
80640,note_on,0,0,7,,,,,,,,2,,,67,105
80640,note_on,24,0,7,,,,,,,,2,,,70,105
80640,note_on,12,0,2,,,,,,,,1,,,70,105
80688,note_on,48,0,3,,,,,,,,0,,,70,0
80688,note_on,48,0,1,,,,,,,,0,,,70,0
80688,note_on,48,0,2,,,,,,,,1,,,70,0
80700,note_on,12,0,2,,,,,,,,1,,,82,105
80700,note_on,12,0,3,,,,,,,,0,,,79,105
80700,note_on,12,0,1,,,,,,,,0,,,82,105
80736,note_on,96,0,4,,,,,,,,3,,,58,0
80748,note_on,48,0,2,,,,,,,,1,,,82,0
80748,note_on,48,0,3,,,,,,,,0,,,79,0
80748,note_on,48,0,1,,,,,,,,0,,,82,0
80760,note_on,24,0,4,,,,,,,,3,,,70,105
80760,note_on,12,0,2,,,,,,,,1,,,82,105
80760,note_on,12,0,1,,,,,,,,0,,,82,105
80760,note_on,12,0,3,,,,,,,,0,,,79,105
80808,note_on,48,0,4,,,,,,,,3,,,70,0
80820,note_on,12,0,4,,,,,,,,3,,,69,105
80832,note_on,0,0,7,,,,,,,,2,,,62,0
80832,note_on,192,0,5,,,,,,,,4,,,55,0
80832,note_on,192,0,7,,,,,,,,2,,,55,0
80832,note_on,0,0,7,,,,,,,,2,,,70,0
80832,note_on,0,0,7,,,,,,,,2,,,67,0
80856,note_on,96,0,3,,,,,,,,0,,,79,0
80856,note_on,96,0,2,,,,,,,,1,,,82,0
80856,note_on,96,0,1,,,,,,,,0,,,82,0
80868,note_on,48,0,4,,,,,,,,3,,,69,0
80880,note_on,12,0,4,,,,,,,,3,,,68,105
80940,note_on,84,0,1,,,,,,,,0,,,76,105
80940,note_on,84,0,2,,,,,,,,1,,,76,105
80940,note_on,84,0,3,,,,,,,,0,,,80,105
80976,note_on,96,0,4,,,,,,,,3,,,68,0
80988,note_on,48,0,1,,,,,,,,0,,,76,0
80988,note_on,48,0,2,,,,,,,,1,,,76,0
80988,note_on,48,0,3,,,,,,,,0,,,80,0
81000,note_on,12,0,3,,,,,,,,0,,,80,105
81000,note_on,168,0,5,,,,,,,,4,,,52,105
81000,note_on,12,0,2,,,,,,,,1,,,76,105
81000,note_on,12,0,1,,,,,,,,0,,,76,105
81000,note_on,0,0,7,,,,,,,,2,,,52,105
81000,note_on,0,0,7,,,,,,,,2,,,59,105
81000,note_on,24,0,4,,,,,,,,3,,,64,105
81000,note_on,168,0,7,,,,,,,,2,,,68,105
81096,note_on,0,0,7,,,,,,,,2,,,68,0
81096,note_on,0,0,7,,,,,,,,2,,,59,0
81096,note_on,96,0,7,,,,,,,,2,,,52,0
81096,note_on,96,0,4,,,,,,,,3,,,64,0
81096,note_on,96,0,2,,,,,,,,1,,,76,0
81096,note_on,96,0,1,,,,,,,,0,,,76,0
81096,note_on,96,0,5,,,,,,,,4,,,52,0
81096,note_on,96,0,3,,,,,,,,0,,,80,0
81120,note_on,24,0,4,,,,,,,,3,,,69,105
81120,note_on,24,0,7,,,,,,,,2,,,69,105
81120,note_on,0,0,7,,,,,,,,2,,,62,105
81120,note_on,24,0,5,,,,,,,,4,,,53,105
81120,note_on,0,0,7,,,,,,,,2,,,53,105
81180,note_on,84,0,3,,,,,,,,0,,,81,105
81180,note_on,84,0,2,,,,,,,,1,,,74,105
81180,note_on,84,0,1,,,,,,,,0,,,74,105
81216,note_on,96,0,5,,,,,,,,4,,,53,0
81216,note_on,96,0,4,,,,,,,,3,,,69,0
81216,note_on,96,0,7,,,,,,,,2,,,53,0
81228,note_on,48,0,2,,,,,,,,1,,,74,0
81228,note_on,48,0,3,,,,,,,,0,,,81,0
81228,note_on,48,0,1,,,,,,,,0,,,74,0
81240,note_on,12,0,3,,,,,,,,0,,,81,105
81240,note_on,24,0,7,,,,,,,,2,,,54,105
81240,note_on,12,0,2,,,,,,,,1,,,74,105
81240,note_on,12,0,1,,,,,,,,0,,,74,105
81240,note_on,24,0,5,,,,,,,,4,,,54,105
81240,note_on,24,0,4,,,,,,,,3,,,69,105
81312,note_on,72,0,7,,,,,,,,2,,,62,0
81312,note_on,0,0,7,,,,,,,,2,,,69,0
81336,note_on,96,0,5,,,,,,,,4,,,54,0
81336,note_on,24,0,7,,,,,,,,2,,,54,0
81336,note_on,96,0,4,,,,,,,,3,,,69,0
81336,note_on,96,0,1,,,,,,,,0,,,74,0
81336,note_on,96,0,2,,,,,,,,1,,,74,0
81336,note_on,96,0,3,,,,,,,,0,,,81,0
81360,note_on,24,0,5,,,,,,,,4,,,55,105
81360,note_on,24,0,4,,,,,,,,3,,,67,105
81360,note_on,24,0,7,,,,,,,,2,,,71,105
81360,note_on,0,0,7,,,,,,,,2,,,62,105
81360,note_on,0,0,7,,,,,,,,2,,,55,105
81420,note_on,84,0,2,,,,,,,,1,,,74,105
81420,note_on,84,0,1,,,,,,,,0,,,74,105
81456,note_on,96,0,7,,,,,,,,2,,,62,0
81456,note_on,0,0,7,,,,,,,,2,,,55,0
81456,note_on,0,0,7,,,,,,,,2,,,71,0
81456,note_on,96,0,5,,,,,,,,4,,,55,0
81456,note_on,96,0,4,,,,,,,,3,,,67,0
81468,note_on,48,0,2,,,,,,,,1,,,74,0
81468,note_on,48,0,1,,,,,,,,0,,,74,0
81480,note_on,24,0,4,,,,,,,,3,,,64,105
81480,note_on,0,0,7,,,,,,,,2,,,64,105
81480,note_on,0,0,7,,,,,,,,2,,,56,105
81480,note_on,12,0,1,,,,,,,,0,,,73,105
81480,note_on,0,0,7,,,,,,,,2,,,71,105
81480,note_on,144,0,3,,,,,,,,0,,,83,105
81480,note_on,24,0,5,,,,,,,,4,,,56,105
81480,note_on,12,0,2,,,,,,,,1,,,73,105
81480,note_on,24,0,7,,,,,,,,2,,,74,105
81528,note_on,48,0,1,,,,,,,,0,,,73,0
81528,note_on,48,0,2,,,,,,,,1,,,73,0
81540,note_on,12,0,2,,,,,,,,1,,,71,105
81540,note_on,12,0,1,,,,,,,,0,,,71,105
81576,note_on,0,0,7,,,,,,,,2,,,64,0
81576,note_on,0,0,7,,,,,,,,2,,,74,0
81576,note_on,96,0,3,,,,,,,,0,,,83,0
81576,note_on,96,0,5,,,,,,,,4,,,56,0
81576,note_on,96,0,4,,,,,,,,3,,,64,0
81576,note_on,96,0,7,,,,,,,,2,,,71,0
81576,note_on,0,0,7,,,,,,,,2,,,56,0
81588,note_on,48,0,2,,,,,,,,1,,,71,0
81588,note_on,48,0,1,,,,,,,,0,,,71,0
81600,note_on,12,0,1,,,,,,,,0,,,73,105
81600,note_on,0,0,7,,,,,,,,2,,,57,105
81600,note_on,24,0,3,,,,,,,,0,,,76,105
81600,note_on,0,0,7,,,,,,,,2,,,64,105
81600,note_on,0,0,7,,,,,,,,2,,,69,105
81600,note_on,12,0,2,,,,,,,,1,,,73,105
81600,note_on,24,0,7,,,,,,,,2,,,73,105
81600,note_on,24,0,4,,,,,,,,3,,,64,105
81600,note_on,24,0,5,,,,,,,,4,,,57,105
81648,note_on,48,0,1,,,,,,,,0,,,73,0
81648,note_on,48,0,4,,,,,,,,3,,,64,0
81648,note_on,48,0,2,,,,,,,,1,,,73,0
81660,note_on,12,0,1,,,,,,,,0,,,69,105
81660,note_on,12,0,4,,,,,,,,3,,,69,105
81660,note_on,12,0,2,,,,,,,,1,,,69,105
81696,note_on,96,0,3,,,,,,,,0,,,76,0
81708,note_on,48,0,4,,,,,,,,3,,,69,0
81708,note_on,48,0,1,,,,,,,,0,,,69,0
81708,note_on,48,0,2,,,,,,,,1,,,69,0
81720,note_on,12,0,1,,,,,,,,0,,,76,105
81720,note_on,24,0,3,,,,,,,,0,,,73,105
81720,note_on,12,0,2,,,,,,,,1,,,76,105
81720,note_on,12,0,4,,,,,,,,3,,,69,105
81768,note_on,48,0,2,,,,,,,,1,,,76,0
81768,note_on,48,0,1,,,,,,,,0,,,76,0
81780,note_on,12,0,2,,,,,,,,1,,,69,105
81780,note_on,12,0,1,,,,,,,,0,,,69,105
81792,note_on,192,0,7,,,,,,,,2,,,57,0
81792,note_on,0,0,7,,,,,,,,2,,,73,0
81792,note_on,0,0,7,,,,,,,,2,,,69,0
81792,note_on,0,0,7,,,,,,,,2,,,64,0
81792,note_on,192,0,5,,,,,,,,4,,,57,0
81816,note_on,96,0,3,,,,,,,,0,,,73,0
81816,note_on,96,0,4,,,,,,,,3,,,69,0
81828,note_on,48,0,1,,,,,,,,0,,,69,0
81828,note_on,48,0,2,,,,,,,,1,,,69,0
81840,note_on,12,0,2,,,,,,,,1,,,77,105
81840,note_on,24,0,3,,,,,,,,0,,,74,105
81840,note_on,12,0,1,,,,,,,,0,,,77,105
81900,note_on,84,0,4,,,,,,,,3,,,69,105
81948,note_on,48,0,4,,,,,,,,3,,,69,0
81960,note_on,12,0,4,,,,,,,,3,,,69,105
81960,note_on,168,0,5,,,,,,,,4,,,57,105
81960,note_on,0,0,7,,,,,,,,2,,,65,105
81960,note_on,0,0,7,,,,,,,,2,,,57,105
81960,note_on,168,0,7,,,,,,,,2,,,74,105
81960,note_on,0,0,7,,,,,,,,2,,,69,105
82032,note_on,192,0,2,,,,,,,,1,,,77,0
82032,note_on,192,0,1,,,,,,,,0,,,77,0
82032,note_on,192,0,3,,,,,,,,0,,,74,0
82056,note_on,96,0,5,,,,,,,,4,,,57,0
82056,note_on,96,0,7,,,,,,,,2,,,65,0
82056,note_on,0,0,7,,,,,,,,2,,,74,0
82056,note_on,96,0,4,,,,,,,,3,,,69,0
82056,note_on,0,0,7,,,,,,,,2,,,69,0
82056,note_on,0,0,7,,,,,,,,2,,,57,0
82080,note_on,48,0,1,,,,,,,,0,,,76,105
82080,note_on,0,0,7,,,,,,,,2,,,76,105
82080,note_on,0,0,7,,,,,,,,2,,,45,105
82080,note_on,0,0,7,,,,,,,,2,,,69,105
82080,note_on,48,0,3,,,,,,,,0,,,73,105
82080,note_on,48,0,2,,,,,,,,1,,,76,105
82080,note_on,24,0,7,,,,,,,,2,,,73,105
82080,note_on,24,0,5,,,,,,,,4,,,45,105
82128,note_on,48,0,1,,,,,,,,0,,,76,0
82128,note_on,48,0,2,,,,,,,,1,,,76,0
82140,note_on,12,0,2,,,,,,,,1,,,69,105
82140,note_on,12,0,1,,,,,,,,0,,,69,105
82140,note_on,84,0,4,,,,,,,,3,,,69,105
82176,note_on,96,0,3,,,,,,,,0,,,73,0
82176,note_on,0,0,7,,,,,,,,2,,,76,0
82176,note_on,0,0,7,,,,,,,,2,,,73,0
82176,note_on,96,0,7,,,,,,,,2,,,69,0
82188,note_on,48,0,2,,,,,,,,1,,,69,0
82188,note_on,48,0,4,,,,,,,,3,,,69,0
82188,note_on,48,0,1,,,,,,,,0,,,69,0
82200,note_on,0,0,7,,,,,,,,2,,,69,105
82200,note_on,24,0,7,,,,,,,,2,,,74,105
82200,note_on,24,0,3,,,,,,,,0,,,74,105
82200,note_on,12,0,4,,,,,,,,3,,,69,105
82200,note_on,12,0,2,,,,,,,,1,,,77,105
82200,note_on,12,0,1,,,,,,,,0,,,77,105
82248,note_on,48,0,1,,,,,,,,0,,,77,0
82248,note_on,48,0,2,,,,,,,,1,,,77,0
82260,note_on,12,0,2,,,,,,,,1,,,69,105
82260,note_on,12,0,1,,,,,,,,0,,,69,105
82272,note_on,72,0,7,,,,,,,,2,,,45,0
82272,note_on,192,0,5,,,,,,,,4,,,45,0
82296,note_on,96,0,3,,,,,,,,0,,,74,0
82296,note_on,0,0,7,,,,,,,,2,,,74,0
82296,note_on,24,0,7,,,,,,,,2,,,69,0
82296,note_on,96,0,4,,,,,,,,3,,,69,0
82308,note_on,48,0,2,,,,,,,,1,,,69,0
82308,note_on,48,0,1,,,,,,,,0,,,69,0
82320,note_on,12,0,1,,,,,,,,0,,,79,105
82320,note_on,24,0,7,,,,,,,,2,,,64,105
82320,note_on,0,0,7,,,,,,,,2,,,73,105
82320,note_on,24,0,3,,,,,,,,0,,,76,105
82320,note_on,12,0,2,,,,,,,,1,,,79,105
82380,note_on,84,0,4,,,,,,,,3,,,69,105
82428,note_on,48,0,4,,,,,,,,3,,,69,0
82440,note_on,168,0,5,,,,,,,,4,,,57,105
82440,note_on,120,0,7,,,,,,,,2,,,57,105
82440,note_on,12,0,4,,,,,,,,3,,,69,105
82512,note_on,192,0,1,,,,,,,,0,,,79,0
82512,note_on,192,0,3,,,,,,,,0,,,76,0
82512,note_on,72,0,7,,,,,,,,2,,,73,0
82512,note_on,0,0,7,,,,,,,,2,,,64,0
82512,note_on,192,0,2,,,,,,,,1,,,79,0
82536,note_on,24,0,7,,,,,,,,2,,,57,0
82536,note_on,96,0,4,,,,,,,,3,,,69,0
82536,note_on,96,0,5,,,,,,,,4,,,57,0
82560,note_on,24,0,5,,,,,,,,4,,,45,105
82560,note_on,48,0,1,,,,,,,,0,,,77,105
82560,note_on,48,0,2,,,,,,,,1,,,77,105
82560,note_on,48,0,3,,,,,,,,0,,,74,105
82560,note_on,0,0,7,,,,,,,,2,,,45,105
82560,note_on,0,0,7,,,,,,,,2,,,74,105
82560,note_on,24,0,7,,,,,,,,2,,,65,105
82608,note_on,48,0,1,,,,,,,,0,,,77,0
82608,note_on,48,0,2,,,,,,,,1,,,77,0
82620,note_on,12,0,1,,,,,,,,0,,,69,105
82620,note_on,84,0,4,,,,,,,,3,,,69,105
82620,note_on,12,0,2,,,,,,,,1,,,69,105
82656,note_on,0,0,7,,,,,,,,2,,,65,0
82656,note_on,96,0,7,,,,,,,,2,,,74,0
82656,note_on,96,0,3,,,,,,,,0,,,74,0
82668,note_on,48,0,2,,,,,,,,1,,,69,0
82668,note_on,48,0,4,,,,,,,,3,,,69,0
82668,note_on,48,0,1,,,,,,,,0,,,69,0
82680,note_on,24,0,3,,,,,,,,0,,,76,105
82680,note_on,12,0,2,,,,,,,,1,,,79,105
82680,note_on,12,0,4,,,,,,,,3,,,69,105
82680,note_on,0,0,7,,,,,,,,2,,,76,105
82680,note_on,12,0,1,,,,,,,,0,,,79,105
82680,note_on,24,0,7,,,,,,,,2,,,69,105
82728,note_on,48,0,2,,,,,,,,1,,,79,0
82728,note_on,48,0,1,,,,,,,,0,,,79,0
82740,note_on,12,0,2,,,,,,,,1,,,69,105
82740,note_on,12,0,1,,,,,,,,0,,,69,105
82752,note_on,192,0,5,,,,,,,,4,,,45,0
82752,note_on,72,0,7,,,,,,,,2,,,45,0
82776,note_on,96,0,4,,,,,,,,3,,,69,0
82776,note_on,96,0,3,,,,,,,,0,,,76,0
82776,note_on,0,0,7,,,,,,,,2,,,69,0
82776,note_on,24,0,7,,,,,,,,2,,,76,0
82788,note_on,48,0,1,,,,,,,,0,,,69,0
82788,note_on,48,0,2,,,,,,,,1,,,69,0
82800,note_on,12,0,2,,,,,,,,1,,,81,105
82800,note_on,12,0,1,,,,,,,,0,,,81,105
82800,note_on,24,0,3,,,,,,,,0,,,77,105
82800,note_on,24,0,7,,,,,,,,2,,,74,105
82800,note_on,0,0,7,,,,,,,,2,,,77,105
82800,note_on,0,0,7,,,,,,,,2,,,69,105
82860,note_on,84,0,4,,,,,,,,3,,,69,105
82908,note_on,48,0,4,,,,,,,,3,,,69,0
82920,note_on,12,0,4,,,,,,,,3,,,69,105
82920,note_on,168,0,5,,,,,,,,4,,,57,105
82920,note_on,120,0,7,,,,,,,,2,,,57,105
82992,note_on,192,0,1,,,,,,,,0,,,81,0
82992,note_on,192,0,2,,,,,,,,1,,,81,0
82992,note_on,72,0,7,,,,,,,,2,,,69,0
82992,note_on,192,0,3,,,,,,,,0,,,77,0
82992,note_on,0,0,7,,,,,,,,2,,,74,0
82992,note_on,0,0,7,,,,,,,,2,,,77,0
83016,note_on,96,0,5,,,,,,,,4,,,57,0
83016,note_on,96,0,4,,,,,,,,3,,,69,0
83016,note_on,24,0,7,,,,,,,,2,,,57,0
83040,note_on,24,0,7,,,,,,,,2,,,67,105
83040,note_on,48,0,1,,,,,,,,0,,,79,105
83040,note_on,24,0,4,,,,,,,,3,,,73,105
83040,note_on,48,0,3,,,,,,,,0,,,76,105
83040,note_on,0,0,7,,,,,,,,2,,,57,105
83040,note_on,48,0,2,,,,,,,,1,,,79,105
83040,note_on,0,0,7,,,,,,,,2,,,73,105
83040,note_on,24,0,5,,,,,,,,4,,,57,105
83040,note_on,0,0,7,,,,,,,,2,,,76,105
83088,note_on,48,0,7,,,,,,,,2,,,57,0
83088,note_on,48,0,5,,,,,,,,4,,,57,0
83100,note_on,12,0,5,,,,,,,,4,,,45,105
83100,note_on,12,0,7,,,,,,,,2,,,45,105
83148,note_on,48,0,7,,,,,,,,2,,,45,0
83148,note_on,48,0,5,,,,,,,,4,,,45,0
83160,note_on,12,0,7,,,,,,,,2,,,57,105
83160,note_on,12,0,5,,,,,,,,4,,,57,105
83208,note_on,48,0,7,,,,,,,,2,,,57,0
83208,note_on,48,0,5,,,,,,,,4,,,57,0
83220,note_on,12,0,7,,,,,,,,2,,,45,105
83220,note_on,12,0,5,,,,,,,,4,,,45,105
83268,note_on,48,0,5,,,,,,,,4,,,45,0
83268,note_on,48,0,7,,,,,,,,2,,,45,0
83280,note_on,12,0,7,,,,,,,,2,,,57,105
83280,note_on,12,0,5,,,,,,,,4,,,57,105
83328,note_on,288,0,2,,,,,,,,1,,,79,0
83328,note_on,288,0,3,,,,,,,,0,,,76,0
83328,note_on,288,0,1,,,,,,,,0,,,79,0
83400,note_on,72,0,3,,,,,,,,0,,,74,105
83400,note_on,72,0,2,,,,,,,,1,,,77,105
83400,note_on,72,0,1,,,,,,,,0,,,77,105
83424,note_on,0,0,7,,,,,,,,2,,,73,0
83424,note_on,0,0,7,,,,,,,,2,,,67,0
83424,note_on,144,0,7,,,,,,,,2,,,76,0
83424,note_on,384,0,4,,,,,,,,3,,,73,0
83448,note_on,48,0,2,,,,,,,,1,,,77,0
83448,note_on,48,0,1,,,,,,,,0,,,77,0
83448,note_on,48,0,3,,,,,,,,0,,,74,0
83460,note_on,12,0,2,,,,,,,,1,,,76,105
83460,note_on,12,0,1,,,,,,,,0,,,76,105
83460,note_on,12,0,3,,,,,,,,0,,,73,105
83472,note_on,48,0,7,,,,,,,,2,,,57,0
83472,note_on,192,0,5,,,,,,,,4,,,57,0
83508,note_on,48,0,1,,,,,,,,0,,,76,0
83508,note_on,48,0,3,,,,,,,,0,,,73,0
83508,note_on,48,0,2,,,,,,,,1,,,76,0
83520,note_on,12,0,1,,,,,,,,0,,,77,105
83520,note_on,12,0,3,,,,,,,,0,,,74,105
83520,note_on,48,0,5,,,,,,,,4,,,50,105
83520,note_on,0,0,7,,,,,,,,2,,,50,105
83520,note_on,12,0,2,,,,,,,,1,,,77,105
83520,note_on,0,0,7,,,,,,,,2,,,74,105
83520,note_on,48,0,7,,,,,,,,2,,,69,105
83520,note_on,96,0,4,,,,,,,,3,,,69,105
83568,note_on,48,0,5,,,,,,,,4,,,50,0
83568,note_on,48,0,7,,,,,,,,2,,,50,0
83580,note_on,12,0,7,,,,,,,,2,,,53,105
83580,note_on,12,0,5,,,,,,,,4,,,53,105
83616,note_on,96,0,4,,,,,,,,3,,,69,0
83616,note_on,96,0,1,,,,,,,,0,,,77,0
83616,note_on,96,0,2,,,,,,,,1,,,77,0
83616,note_on,0,0,7,,,,,,,,2,,,69,0
83616,note_on,96,0,3,,,,,,,,0,,,74,0
83616,note_on,36,0,7,,,,,,,,2,,,74,0
83628,note_on,12,0,7,,,,,,,,2,,,53,0
83628,note_on,48,0,5,,,,,,,,4,,,53,0
83640,note_on,24,0,1,,,,,,,,0,,,82,105
83640,note_on,24,0,3,,,,,,,,0,,,79,105
83640,note_on,24,0,2,,,,,,,,1,,,82,105
83640,note_on,12,0,5,,,,,,,,4,,,52,105
83640,note_on,12,0,7,,,,,,,,2,,,52,105
83640,note_on,0,0,7,,,,,,,,2,,,67,105
83640,note_on,0,0,7,,,,,,,,2,,,79,105
83640,note_on,24,0,4,,,,,,,,3,,,67,105
83640,note_on,0,0,7,,,,,,,,2,,,70,105
83688,note_on,48,0,7,,,,,,,,2,,,52,0
83688,note_on,48,0,5,,,,,,,,4,,,52,0
83700,note_on,12,0,5,,,,,,,,4,,,49,105
83700,note_on,12,0,7,,,,,,,,2,,,49,105
83736,note_on,96,0,1,,,,,,,,0,,,82,0
83736,note_on,96,0,4,,,,,,,,3,,,67,0
83736,note_on,36,0,7,,,,,,,,2,,,67,0
83736,note_on,0,0,7,,,,,,,,2,,,70,0
83736,note_on,96,0,2,,,,,,,,1,,,82,0
83736,note_on,0,0,7,,,,,,,,2,,,79,0
83736,note_on,96,0,3,,,,,,,,0,,,79,0
83748,note_on,48,0,5,,,,,,,,4,,,49,0
83748,note_on,12,0,7,,,,,,,,2,,,49,0
83760,note_on,12,0,7,,,,,,,,2,,,77,105
83760,note_on,0,0,7,,,,,,,,2,,,50,105
83760,note_on,12,0,5,,,,,,,,4,,,50,105
83760,note_on,24,0,4,,,,,,,,3,,,65,105
83760,note_on,0,0,7,,,,,,,,2,,,69,105
83808,note_on,48,0,7,,,,,,,,2,,,50,0
83808,note_on,48,0,5,,,,,,,,4,,,50,0
83820,note_on,12,0,5,,,,,,,,4,,,57,105
83820,note_on,12,0,7,,,,,,,,2,,,57,105
83856,note_on,96,0,4,,,,,,,,3,,,65,0
83868,note_on,48,0,7,,,,,,,,2,,,57,0
83868,note_on,48,0,5,,,,,,,,4,,,57,0
83880,note_on,12,0,7,,,,,,,,2,,,53,105
83880,note_on,12,0,5,,,,,,,,4,,,53,105
83880,note_on,144,0,2,,,,,,,,1,,,81,105
83880,note_on,144,0,3,,,,,,,,0,,,77,105
83880,note_on,144,0,1,,,,,,,,0,,,81,105
83880,note_on,24,0,4,,,,,,,,3,,,62,105
83928,note_on,48,0,5,,,,,,,,4,,,53,0
83928,note_on,48,0,7,,,,,,,,2,,,53,0
83940,note_on,12,0,7,,,,,,,,2,,,50,105
83940,note_on,12,0,5,,,,,,,,4,,,50,105
83952,note_on,12,0,7,,,,,,,,2,,,69,0
83952,note_on,0,0,7,,,,,,,,2,,,77,0
83976,note_on,96,0,4,,,,,,,,3,,,62,0
83976,note_on,96,0,2,,,,,,,,1,,,81,0
83976,note_on,96,0,3,,,,,,,,0,,,77,0
83976,note_on,96,0,1,,,,,,,,0,,,81,0
83988,note_on,48,0,5,,,,,,,,4,,,50,0
83988,note_on,36,0,7,,,,,,,,2,,,50,0
84000,note_on,12,0,5,,,,,,,,4,,,45,105
84000,note_on,24,0,4,,,,,,,,3,,,64,105
84000,note_on,0,0,7,,,,,,,,2,,,73,105
84000,note_on,0,0,7,,,,,,,,2,,,45,105
84000,note_on,0,0,7,,,,,,,,2,,,76,105
84000,note_on,12,0,7,,,,,,,,2,,,69,105
84096,note_on,96,0,4,,,,,,,,3,,,64,0
84096,note_on,0,0,7,,,,,,,,2,,,45,0
84096,note_on,0,0,7,,,,,,,,2,,,69,0
84096,note_on,96,0,7,,,,,,,,2,,,76,0
84096,note_on,0,0,7,,,,,,,,2,,,73,0
84096,note_on,96,0,5,,,,,,,,4,,,45,0
84120,note_on,144,0,1,,,,,,,,0,,,77,105
84120,note_on,144,0,3,,,,,,,,0,,,74,105
84120,note_on,24,0,5,,,,,,,,4,,,50,105
84120,note_on,0,0,7,,,,,,,,2,,,69,105
84120,note_on,0,0,7,,,,,,,,2,,,74,105
84120,note_on,24,0,4,,,,,,,,3,,,65,105
84120,note_on,24,0,7,,,,,,,,2,,,50,105
84120,note_on,144,0,2,,,,,,,,1,,,77,105
84120,note_on,0,0,7,,,,,,,,2,,,65,105
84216,note_on,96,0,1,,,,,,,,0,,,77,0
84216,note_on,96,0,7,,,,,,,,2,,,69,0
84216,note_on,96,0,4,,,,,,,,3,,,65,0
84216,note_on,0,0,7,,,,,,,,2,,,50,0
84216,note_on,0,0,7,,,,,,,,2,,,65,0
84216,note_on,0,0,7,,,,,,,,2,,,74,0
84216,note_on,96,0,5,,,,,,,,4,,,50,0
84216,note_on,96,0,2,,,,,,,,1,,,77,0
84216,note_on,96,0,3,,,,,,,,0,,,74,0
84240,note_on,0,0,7,,,,,,,,2,,,64,105
84240,note_on,24,0,5,,,,,,,,4,,,43,105
84240,note_on,24,0,7,,,,,,,,2,,,43,105
84240,note_on,0,0,7,,,,,,,,2,,,70,105
84240,note_on,24,0,3,,,,,,,,0,,,76,105
84240,note_on,24,0,1,,,,,,,,0,,,79,105
84240,note_on,24,0,2,,,,,,,,1,,,79,105
84240,note_on,24,0,4,,,,,,,,3,,,70,105
84240,note_on,0,0,7,,,,,,,,2,,,74,105
84336,note_on,96,0,5,,,,,,,,4,,,43,0
84336,note_on,96,0,1,,,,,,,,0,,,79,0
84336,note_on,96,0,7,,,,,,,,2,,,74,0
84336,note_on,96,0,2,,,,,,,,1,,,79,0
84336,note_on,96,0,4,,,,,,,,3,,,70,0
84336,note_on,0,0,7,,,,,,,,2,,,43,0
84336,note_on,0,0,7,,,,,,,,2,,,64,0
84336,note_on,0,0,7,,,,,,,,2,,,70,0
84336,note_on,96,0,3,,,,,,,,0,,,76,0
84360,note_on,0,0,7,,,,,,,,2,,,64,105
84360,note_on,24,0,2,,,,,,,,1,,,77,105
84360,note_on,0,0,7,,,,,,,,2,,,73,105
84360,note_on,0,0,7,,,,,,,,2,,,45,105
84360,note_on,24,0,1,,,,,,,,0,,,77,105
84360,note_on,24,0,7,,,,,,,,2,,,69,105
84360,note_on,24,0,3,,,,,,,,0,,,74,105
84360,note_on,24,0,5,,,,,,,,4,,,45,105
84360,note_on,24,0,4,,,,,,,,3,,,69,105
84408,note_on,48,0,3,,,,,,,,0,,,74,0
84408,note_on,48,0,2,,,,,,,,1,,,77,0
84408,note_on,48,0,1,,,,,,,,0,,,77,0
84420,note_on,12,0,2,,,,,,,,1,,,76,105
84420,note_on,12,0,3,,,,,,,,0,,,73,105
84420,note_on,12,0,1,,,,,,,,0,,,76,105
84456,note_on,0,0,7,,,,,,,,2,,,69,0
84456,note_on,96,0,5,,,,,,,,4,,,45,0
84456,note_on,96,0,4,,,,,,,,3,,,69,0
84456,note_on,96,0,7,,,,,,,,2,,,73,0
84456,note_on,0,0,7,,,,,,,,2,,,45,0
84456,note_on,0,0,7,,,,,,,,2,,,64,0
84468,note_on,48,0,1,,,,,,,,0,,,76,0
84468,note_on,48,0,2,,,,,,,,1,,,76,0
84468,note_on,48,0,3,,,,,,,,0,,,73,0
84480,note_on,12,0,2,,,,,,,,1,,,74,105
84480,note_on,12,0,3,,,,,,,,0,,,74,105
84480,note_on,0,0,7,,,,,,,,2,,,50,105
84480,note_on,12,0,1,,,,,,,,0,,,74,105
84480,note_on,24,0,5,,,,,,,,4,,,50,105
84480,note_on,24,0,4,,,,,,,,3,,,69,105
84480,note_on,24,0,7,,,,,,,,2,,,69,105
84480,note_on,0,0,7,,,,,,,,2,,,74,105
84528,note_on,48,0,7,,,,,,,,2,,,50,0
84528,note_on,48,0,5,,,,,,,,4,,,50,0
84540,note_on,12,0,5,,,,,,,,4,,,53,105
84540,note_on,12,0,7,,,,,,,,2,,,53,105
84576,note_on,96,0,1,,,,,,,,0,,,74,0
84576,note_on,96,0,3,,,,,,,,0,,,74,0
84576,note_on,96,0,4,,,,,,,,3,,,69,0
84576,note_on,96,0,2,,,,,,,,1,,,74,0
84576,note_on,36,0,7,,,,,,,,2,,,74,0
84576,note_on,0,0,7,,,,,,,,2,,,69,0
84588,note_on,48,0,5,,,,,,,,4,,,53,0
84588,note_on,12,0,7,,,,,,,,2,,,53,0
84600,note_on,0,0,7,,,,,,,,2,,,70,105
84600,note_on,24,0,3,,,,,,,,0,,,79,105
84600,note_on,24,0,4,,,,,,,,3,,,67,105
84600,note_on,12,0,7,,,,,,,,2,,,52,105
84600,note_on,0,0,7,,,,,,,,2,,,79,105
84600,note_on,12,0,5,,,,,,,,4,,,52,105
84600,note_on,0,0,7,,,,,,,,2,,,67,105
84600,note_on,24,0,2,,,,,,,,1,,,82,105
84600,note_on,24,0,1,,,,,,,,0,,,82,105
84648,note_on,48,0,7,,,,,,,,2,,,52,0
84648,note_on,48,0,5,,,,,,,,4,,,52,0
84660,note_on,12,0,7,,,,,,,,2,,,49,105
84660,note_on,12,0,5,,,,,,,,4,,,49,105
84696,note_on,96,0,3,,,,,,,,0,,,79,0
84696,note_on,96,0,4,,,,,,,,3,,,67,0
84696,note_on,96,0,2,,,,,,,,1,,,82,0
84696,note_on,36,0,7,,,,,,,,2,,,67,0
84696,note_on,0,0,7,,,,,,,,2,,,70,0
84696,note_on,0,0,7,,,,,,,,2,,,79,0
84696,note_on,96,0,1,,,,,,,,0,,,82,0
84708,note_on,48,0,5,,,,,,,,4,,,49,0
84708,note_on,12,0,7,,,,,,,,2,,,49,0
84720,note_on,12,0,5,,,,,,,,4,,,50,105
84720,note_on,0,0,7,,,,,,,,2,,,77,105
84720,set_tempo,84720,1,0,,,,,,833333,,,,,,
84720,note_on,12,0,7,,,,,,,,2,,,69,105
84720,note_on,24,0,4,,,,,,,,3,,,65,105
84720,note_on,0,0,7,,,,,,,,2,,,50,105
84768,note_on,48,0,5,,,,,,,,4,,,50,0
84768,note_on,48,0,7,,,,,,,,2,,,50,0
84780,note_on,12,0,5,,,,,,,,4,,,57,105
84780,note_on,12,0,7,,,,,,,,2,,,57,105
84816,note_on,96,0,4,,,,,,,,3,,,65,0
84828,note_on,48,0,5,,,,,,,,4,,,57,0
84828,note_on,48,0,7,,,,,,,,2,,,57,0
84840,note_on,12,0,7,,,,,,,,2,,,53,105
84840,note_on,144,0,2,,,,,,,,1,,,81,105
84840,note_on,144,0,3,,,,,,,,0,,,77,105
84840,note_on,12,0,5,,,,,,,,4,,,53,105
84840,note_on,24,0,4,,,,,,,,3,,,62,105
84840,note_on,144,0,1,,,,,,,,0,,,81,105
84888,note_on,48,0,5,,,,,,,,4,,,53,0
84888,note_on,48,0,7,,,,,,,,2,,,53,0
84900,note_on,12,0,7,,,,,,,,2,,,50,105
84900,note_on,12,0,5,,,,,,,,4,,,50,105
84912,note_on,12,0,7,,,,,,,,2,,,77,0
84912,note_on,0,0,7,,,,,,,,2,,,69,0
84936,note_on,96,0,3,,,,,,,,0,,,77,0
84936,note_on,96,0,4,,,,,,,,3,,,62,0
84936,note_on,96,0,2,,,,,,,,1,,,81,0
84936,note_on,96,0,1,,,,,,,,0,,,81,0
84948,note_on,36,0,7,,,,,,,,2,,,50,0
84948,note_on,48,0,5,,,,,,,,4,,,50,0
84960,note_on,24,0,4,,,,,,,,3,,,64,105
84960,note_on,0,0,7,,,,,,,,2,,,73,105
84960,note_on,0,0,7,,,,,,,,2,,,69,105
84960,note_on,0,0,7,,,,,,,,2,,,45,105
84960,note_on,12,0,7,,,,,,,,2,,,76,105
84960,note_on,12,0,5,,,,,,,,4,,,45,105
84960,set_tempo,240,1,0,,,,,,1090909,,,,,,
84960,note_on,15168,0,6,,,,,,,,5,,,33,105
85056,note_on,96,0,6,,,,,,,,5,,,33,0
85056,note_on,96,0,5,,,,,,,,4,,,45,0
85056,note_on,0,0,7,,,,,,,,2,,,45,0
85056,note_on,0,0,7,,,,,,,,2,,,76,0
85056,note_on,96,0,7,,,,,,,,2,,,69,0
85056,note_on,96,0,4,,,,,,,,3,,,64,0
85056,note_on,0,0,7,,,,,,,,2,,,73,0
85080,note_on,0,0,7,,,,,,,,2,,,69,105
85080,note_on,24,0,5,,,,,,,,4,,,50,105
85080,note_on,0,0,7,,,,,,,,2,,,65,105
85080,note_on,24,0,4,,,,,,,,3,,,65,105
85080,note_on,0,0,7,,,,,,,,2,,,50,105
85080,note_on,144,0,3,,,,,,,,0,,,74,105
85080,note_on,24,0,6,,,,,,,,5,,,38,105
85080,note_on,144,0,2,,,,,,,,1,,,77,105
85080,note_on,24,0,7,,,,,,,,2,,,74,105
85080,note_on,144,0,1,,,,,,,,0,,,77,105
85176,note_on,96,0,6,,,,,,,,5,,,38,0
85176,note_on,96,0,3,,,,,,,,0,,,74,0
85176,note_on,96,0,5,,,,,,,,4,,,50,0
85176,note_on,0,0,7,,,,,,,,2,,,65,0
85176,note_on,96,0,4,,,,,,,,3,,,65,0
85176,note_on,0,0,7,,,,,,,,2,,,69,0
85176,note_on,96,0,1,,,,,,,,0,,,77,0
85176,note_on,0,0,7,,,,,,,,2,,,74,0
85176,note_on,96,0,7,,,,,,,,2,,,50,0
85176,note_on,96,0,2,,,,,,,,1,,,77,0
85200,note_on,24,0,7,,,,,,,,2,,,64,105
85200,note_on,0,0,7,,,,,,,,2,,,43,105
85200,note_on,24,0,3,,,,,,,,0,,,76,105
85200,note_on,0,0,7,,,,,,,,2,,,74,105
85200,note_on,24,0,2,,,,,,,,1,,,79,105
85200,note_on,24,0,5,,,,,,,,4,,,43,105
85200,note_on,24,0,6,,,,,,,,5,,,31,105
85200,note_on,24,0,1,,,,,,,,0,,,79,105
85200,note_on,24,0,4,,,,,,,,3,,,70,105
85200,set_tempo,240,1,0,,,,,,1621622,,,,,,
85200,note_on,0,0,7,,,,,,,,2,,,70,105
85296,note_on,96,0,5,,,,,,,,4,,,43,0
85296,note_on,96,0,6,,,,,,,,5,,,31,0
85296,note_on,96,0,1,,,,,,,,0,,,79,0
85296,note_on,96,0,4,,,,,,,,3,,,70,0
85296,note_on,96,0,2,,,,,,,,1,,,79,0
85296,note_on,96,0,3,,,,,,,,0,,,76,0
85296,note_on,96,0,7,,,,,,,,2,,,74,0
85296,note_on,0,0,7,,,,,,,,2,,,70,0
85296,note_on,0,0,7,,,,,,,,2,,,43,0
85296,note_on,0,0,7,,,,,,,,2,,,64,0
85320,note_on,24,0,2,,,,,,,,1,,,77,105
85320,note_on,24,0,3,,,,,,,,0,,,74,105
85320,note_on,24,0,5,,,,,,,,4,,,45,105
85320,note_on,24,0,6,,,,,,,,5,,,33,105
85320,note_on,24,0,7,,,,,,,,2,,,69,105
85320,note_on,0,0,7,,,,,,,,2,,,45,105
85320,note_on,0,0,7,,,,,,,,2,,,64,105
85320,note_on,0,0,7,,,,,,,,2,,,73,105
85320,note_on,24,0,1,,,,,,,,0,,,77,105
85320,note_on,24,0,4,,,,,,,,3,,,69,105
85368,note_on,48,0,1,,,,,,,,0,,,77,0
85368,note_on,48,0,3,,,,,,,,0,,,74,0
85368,note_on,48,0,2,,,,,,,,1,,,77,0
85380,note_on,12,0,3,,,,,,,,0,,,73,105
85380,note_on,12,0,2,,,,,,,,1,,,76,105
85380,note_on,12,0,1,,,,,,,,0,,,76,105
85416,note_on,0,0,7,,,,,,,,2,,,64,0
85416,note_on,96,0,4,,,,,,,,3,,,69,0
85416,note_on,96,0,5,,,,,,,,4,,,45,0
85416,note_on,96,0,6,,,,,,,,5,,,33,0
85416,note_on,0,0,7,,,,,,,,2,,,45,0
85416,note_on,96,0,7,,,,,,,,2,,,73,0
85416,note_on,0,0,7,,,,,,,,2,,,69,0
85428,note_on,48,0,2,,,,,,,,1,,,76,0
85428,note_on,48,0,1,,,,,,,,0,,,76,0
85428,note_on,48,0,3,,,,,,,,0,,,73,0
85440,note_on,24,0,5,,,,,,,,4,,,38,105
85440,set_tempo,240,1,0,,,,,,1000000,,,,,,
85440,note_on,12,0,2,,,,,,,,1,,,74,105
85440,note_on,24,0,6,,,,,,,,5,,,38,105
85440,note_on,0,0,7,,,,,,,,2,,,65,105
85440,note_on,0,0,7,,,,,,,,2,,,38,105
85440,note_on,0,0,7,,,,,,,,2,,,69,105
85440,note_on,24,0,4,,,,,,,,3,,,65,105
85440,note_on,12,0,1,,,,,,,,0,,,74,105
85440,note_on,12,0,3,,,,,,,,0,,,74,105
85440,note_on,24,0,7,,,,,,,,2,,,74,105
86208,note_on,768,0,7,,,,,,,,2,,,69,0
86208,note_on,768,0,2,,,,,,,,1,,,74,0
86208,note_on,768,0,1,,,,,,,,0,,,74,0
86208,note_on,0,0,7,,,,,,,,2,,,74,0
86208,note_on,0,0,7,,,,,,,,2,,,65,0
86208,note_on,0,0,7,,,,,,,,2,,,38,0
86208,note_on,768,0,3,,,,,,,,0,,,74,0
86208,note_on,768,0,6,,,,,,,,5,,,38,0
86208,note_on,768,0,5,,,,,,,,4,,,38,0
86208,note_on,768,0,4,,,,,,,,3,,,65,0
86400,time_signature,960,1,0,6,4,24,8,,,,,,,,
86400,set_tempo,0,1,0,,,,,,1935484,,,,,,
86880,note_on,672,0,3,,,,,,,,0,,,74,105
86880,note_on,672,0,4,,,,,,,,3,,,62,105
86880,note_on,672,0,1,,,,,,,,0,,,77,105
86880,note_on,672,0,2,,,,,,,,1,,,77,105
86976,note_on,96,0,4,,,,,,,,3,,,62,0
86976,note_on,96,0,1,,,,,,,,0,,,77,0
86976,note_on,96,0,2,,,,,,,,1,,,77,0
86976,note_on,96,0,3,,,,,,,,0,,,74,0
87000,note_on,24,0,1,,,,,,,,0,,,76,105
87000,note_on,24,0,3,,,,,,,,0,,,73,105
87000,note_on,24,0,2,,,,,,,,1,,,76,105
87000,note_on,24,0,4,,,,,,,,3,,,57,105
87096,note_on,96,0,1,,,,,,,,0,,,76,0
87096,note_on,96,0,3,,,,,,,,0,,,73,0
87096,note_on,96,0,2,,,,,,,,1,,,76,0
87096,note_on,96,0,4,,,,,,,,3,,,57,0
87120,note_on,912,0,7,,,,,,,,2,,,76,105
87120,note_on,912,0,6,,,,,,,,5,,,45,105
87120,note_on,0,0,7,,,,,,,,2,,,64,105
87120,note_on,0,0,7,,,,,,,,2,,,73,105
87120,note_on,0,0,7,,,,,,,,2,,,57,105
87120,note_on,912,0,5,,,,,,,,4,,,57,105
87216,note_on,96,0,7,,,,,,,,2,,,57,0
87216,note_on,96,0,6,,,,,,,,5,,,45,0
87216,note_on,96,0,5,,,,,,,,4,,,57,0
87240,note_on,24,0,6,,,,,,,,5,,,33,105
87240,note_on,24,0,7,,,,,,,,2,,,45,105
87240,note_on,24,0,5,,,,,,,,4,,,45,105
87312,note_on,72,0,7,,,,,,,,2,,,76,0
87312,note_on,0,0,7,,,,,,,,2,,,64,0
87312,note_on,0,0,7,,,,,,,,2,,,73,0
87336,note_on,24,0,7,,,,,,,,2,,,45,0
87336,note_on,96,0,6,,,,,,,,5,,,33,0
87336,note_on,96,0,5,,,,,,,,4,,,45,0
87360,note_on,264,0,2,,,,,,,,1,,,79,105
87360,note_on,264,0,3,,,,,,,,0,,,76,105
87360,note_on,264,0,1,,,,,,,,0,,,79,105
87360,note_on,264,0,4,,,,,,,,3,,,69,105
87456,note_on,96,0,1,,,,,,,,0,,,79,0
87456,note_on,96,0,3,,,,,,,,0,,,76,0
87456,note_on,96,0,4,,,,,,,,3,,,69,0
87456,note_on,96,0,2,,,,,,,,1,,,79,0
87480,note_on,24,0,2,,,,,,,,1,,,77,105
87480,note_on,24,0,4,,,,,,,,3,,,62,105
87480,note_on,24,0,1,,,,,,,,0,,,77,105
87480,note_on,24,0,3,,,,,,,,0,,,74,105
87576,note_on,96,0,3,,,,,,,,0,,,74,0
87576,note_on,96,0,2,,,,,,,,1,,,77,0
87576,note_on,96,0,1,,,,,,,,0,,,77,0
87576,note_on,96,0,4,,,,,,,,3,,,62,0
87600,note_on,264,0,7,,,,,,,,2,,,69,105
87600,note_on,0,0,7,,,,,,,,2,,,74,105
87600,note_on,0,0,7,,,,,,,,2,,,53,105
87600,note_on,0,0,7,,,,,,,,2,,,65,105
87600,note_on,264,0,5,,,,,,,,4,,,53,105
87600,note_on,264,0,6,,,,,,,,5,,,38,105
87696,note_on,96,0,6,,,,,,,,5,,,38,0
87696,note_on,96,0,7,,,,,,,,2,,,53,0
87696,note_on,96,0,5,,,,,,,,4,,,53,0
87720,note_on,24,0,5,,,,,,,,4,,,38,105
87720,note_on,24,0,7,,,,,,,,2,,,38,105
87720,note_on,24,0,6,,,,,,,,5,,,38,105
87792,note_on,0,0,7,,,,,,,,2,,,74,0
87792,note_on,0,0,7,,,,,,,,2,,,65,0
87792,note_on,72,0,7,,,,,,,,2,,,69,0
87816,note_on,96,0,5,,,,,,,,4,,,38,0
87816,note_on,96,0,6,,,,,,,,5,,,38,0
87816,note_on,24,0,7,,,,,,,,2,,,38,0
87840,time_signature,1440,1,0,4,4,24,8,,,,,,,,
87840,note_on,264,0,4,,,,,,,,3,,,68,105
87840,note_on,264,0,2,,,,,,,,1,,,77,105
87840,note_on,264,0,1,,,,,,,,0,,,77,105
87840,note_on,264,0,3,,,,,,,,0,,,74,105
87936,note_on,96,0,3,,,,,,,,0,,,74,0
87936,note_on,96,0,2,,,,,,,,1,,,77,0
87936,note_on,96,0,4,,,,,,,,3,,,68,0
87936,note_on,96,0,1,,,,,,,,0,,,77,0
87960,note_on,24,0,3,,,,,,,,0,,,73,105
87960,note_on,24,0,2,,,,,,,,1,,,76,105
87960,note_on,24,0,4,,,,,,,,3,,,69,105
87960,note_on,24,0,1,,,,,,,,0,,,76,105
88056,note_on,96,0,1,,,,,,,,0,,,76,0
88056,note_on,96,0,4,,,,,,,,3,,,69,0
88056,note_on,96,0,3,,,,,,,,0,,,73,0
88056,note_on,96,0,2,,,,,,,,1,,,76,0
88080,note_on,264,0,6,,,,,,,,5,,,45,105
88080,note_on,264,0,7,,,,,,,,2,,,57,105
88080,note_on,0,0,7,,,,,,,,2,,,73,105
88080,note_on,264,0,5,,,,,,,,4,,,57,105
88080,note_on,0,0,7,,,,,,,,2,,,69,105
88080,note_on,0,0,7,,,,,,,,2,,,64,105
88176,note_on,96,0,6,,,,,,,,5,,,45,0
88176,note_on,96,0,5,,,,,,,,4,,,57,0
88176,note_on,96,0,7,,,,,,,,2,,,57,0
88200,note_on,24,0,5,,,,,,,,4,,,45,105
88200,note_on,24,0,7,,,,,,,,2,,,45,105
88200,note_on,24,0,6,,,,,,,,5,,,33,105
88272,note_on,0,0,7,,,,,,,,2,,,64,0
88272,note_on,0,0,7,,,,,,,,2,,,69,0
88272,note_on,72,0,7,,,,,,,,2,,,73,0
88296,note_on,24,0,7,,,,,,,,2,,,45,0
88296,note_on,96,0,5,,,,,,,,4,,,45,0
88296,note_on,96,0,6,,,,,,,,5,,,33,0
88320,note_on,264,0,2,,,,,,,,1,,,75,105
88320,note_on,264,0,1,,,,,,,,0,,,75,105
88416,note_on,96,0,1,,,,,,,,0,,,75,0
88416,note_on,96,0,2,,,,,,,,1,,,75,0
88440,note_on,24,0,1,,,,,,,,0,,,75,105
88440,note_on,24,0,2,,,,,,,,1,,,75,105
88536,note_on,96,0,2,,,,,,,,1,,,75,0
88536,note_on,96,0,1,,,,,,,,0,,,75,0
88560,note_on,24,0,1,,,,,,,,0,,,75,105
88560,note_on,24,0,2,,,,,,,,1,,,75,105
88656,note_on,96,0,1,,,,,,,,0,,,75,0
88656,note_on,96,0,2,,,,,,,,1,,,75,0
88680,note_on,24,0,1,,,,,,,,0,,,74,105
88680,note_on,24,0,2,,,,,,,,1,,,74,105
88776,note_on,96,0,1,,,,,,,,0,,,74,0
88776,note_on,96,0,2,,,,,,,,1,,,74,0
88800,note_on,24,0,1,,,,,,,,0,,,73,105
88800,note_on,744,0,3,,,,,,,,0,,,81,105
88800,note_on,504,0,5,,,,,,,,4,,,57,105
88800,note_on,504,0,7,,,,,,,,2,,,76,105
88800,note_on,504,0,6,,,,,,,,5,,,45,105
88800,note_on,744,0,4,,,,,,,,3,,,64,105
88800,note_on,24,0,2,,,,,,,,1,,,73,105
88800,note_on,0,0,7,,,,,,,,2,,,73,105
88800,note_on,0,0,7,,,,,,,,2,,,64,105
88800,note_on,0,0,7,,,,,,,,2,,,57,105
88896,note_on,96,0,4,,,,,,,,3,,,64,0
88896,note_on,96,0,6,,,,,,,,5,,,45,0
88896,note_on,96,0,3,,,,,,,,0,,,81,0
88896,note_on,96,0,5,,,,,,,,4,,,57,0
88896,note_on,96,0,7,,,,,,,,2,,,57,0
88920,note_on,24,0,6,,,,,,,,5,,,45,105
88920,note_on,24,0,5,,,,,,,,4,,,57,105
88920,note_on,24,0,7,,,,,,,,2,,,57,105
88920,note_on,24,0,3,,,,,,,,0,,,81,105
88920,note_on,24,0,4,,,,,,,,3,,,64,105
89016,note_on,96,0,4,,,,,,,,3,,,64,0
89016,note_on,96,0,3,,,,,,,,0,,,81,0
89016,note_on,96,0,6,,,,,,,,5,,,45,0
89016,note_on,96,0,7,,,,,,,,2,,,57,0
89016,note_on,96,0,5,,,,,,,,4,,,57,0
89040,note_on,24,0,4,,,,,,,,3,,,64,105
89040,note_on,24,0,6,,,,,,,,5,,,45,105
89040,note_on,24,0,7,,,,,,,,2,,,57,105
89040,note_on,24,0,3,,,,,,,,0,,,81,105
89040,note_on,24,0,5,,,,,,,,4,,,57,105
89136,note_on,96,0,7,,,,,,,,2,,,57,0
89136,note_on,96,0,5,,,,,,,,4,,,57,0
89136,note_on,96,0,6,,,,,,,,5,,,45,0
89136,note_on,96,0,3,,,,,,,,0,,,81,0
89136,note_on,96,0,4,,,,,,,,3,,,64,0
89160,note_on,24,0,7,,,,,,,,2,,,57,105
89160,note_on,24,0,5,,,,,,,,4,,,57,105
89160,note_on,24,0,6,,,,,,,,5,,,45,105
89160,note_on,24,0,3,,,,,,,,0,,,79,105
89160,note_on,24,0,4,,,,,,,,3,,,73,105
89184,note_on,384,0,1,,,,,,,,0,,,73,0
89184,note_on,0,0,7,,,,,,,,2,,,73,0
89184,note_on,384,0,2,,,,,,,,1,,,73,0
89184,note_on,24,0,7,,,,,,,,2,,,76,0
89184,note_on,0,0,7,,,,,,,,2,,,64,0
89256,note_on,96,0,4,,,,,,,,3,,,73,0
89256,note_on,96,0,3,,,,,,,,0,,,79,0
89256,note_on,96,0,5,,,,,,,,4,,,57,0
89256,note_on,96,0,6,,,,,,,,5,,,45,0
89256,note_on,72,0,7,,,,,,,,2,,,57,0
89280,note_on,24,0,4,,,,,,,,3,,,69,105
89280,note_on,24,0,5,,,,,,,,4,,,62,105
89280,note_on,24,0,3,,,,,,,,0,,,77,105
89280,note_on,96,0,1,,,,,,,,0,,,74,105
89280,note_on,24,0,6,,,,,,,,5,,,50,105
89280,note_on,0,0,7,,,,,,,,2,,,65,105
89280,note_on,96,0,2,,,,,,,,1,,,74,105
89280,note_on,0,0,7,,,,,,,,2,,,74,105
89280,note_on,24,0,7,,,,,,,,2,,,69,105
89280,note_on,0,0,7,,,,,,,,2,,,62,105
89376,note_on,96,0,4,,,,,,,,3,,,69,0
89376,note_on,96,0,5,,,,,,,,4,,,62,0
89376,note_on,96,0,6,,,,,,,,5,,,50,0
89376,note_on,96,0,7,,,,,,,,2,,,62,0
89400,note_on,24,0,5,,,,,,,,4,,,50,105
89400,note_on,24,0,7,,,,,,,,2,,,50,105
89400,note_on,24,0,6,,,,,,,,5,,,38,105
89400,note_on,24,0,4,,,,,,,,3,,,69,105
89496,note_on,96,0,7,,,,,,,,2,,,50,0
89496,note_on,96,0,6,,,,,,,,5,,,38,0
89496,note_on,96,0,5,,,,,,,,4,,,50,0
89496,note_on,96,0,4,,,,,,,,3,,,69,0
89520,note_on,24,0,7,,,,,,,,2,,,50,105
89520,note_on,24,0,4,,,,,,,,3,,,69,105
89520,note_on,24,0,5,,,,,,,,4,,,50,105
89520,note_on,24,0,6,,,,,,,,5,,,38,105
89616,note_on,96,0,5,,,,,,,,4,,,50,0
89616,note_on,96,0,4,,,,,,,,3,,,69,0
89616,note_on,96,0,7,,,,,,,,2,,,50,0
89616,note_on,96,0,6,,,,,,,,5,,,38,0
89640,note_on,24,0,6,,,,,,,,5,,,38,105
89640,note_on,24,0,7,,,,,,,,2,,,50,105
89640,note_on,24,0,4,,,,,,,,3,,,69,105
89640,note_on,24,0,5,,,,,,,,4,,,50,105
89664,note_on,24,0,7,,,,,,,,2,,,69,0
89664,note_on,384,0,3,,,,,,,,0,,,77,0
89664,note_on,0,0,7,,,,,,,,2,,,65,0
89664,note_on,0,0,7,,,,,,,,2,,,74,0
89736,note_on,96,0,5,,,,,,,,4,,,50,0
89736,note_on,96,0,4,,,,,,,,3,,,69,0
89736,note_on,72,0,7,,,,,,,,2,,,50,0
89736,note_on,96,0,6,,,,,,,,5,,,38,0
89760,note_on,96,0,3,,,,,,,,0,,,80,105
89760,note_on,0,0,7,,,,,,,,2,,,68,105
89760,note_on,0,0,7,,,,,,,,2,,,46,105
89760,note_on,24,0,5,,,,,,,,4,,,46,105
89760,note_on,24,0,6,,,,,,,,5,,,34,105
89760,note_on,24,0,4,,,,,,,,3,,,70,105
89760,note_on,24,0,7,,,,,,,,2,,,62,105
90000,set_tempo,2160,1,0,,,,,,2142857,,,,,,
90144,note_on,384,0,5,,,,,,,,4,,,46,0
90144,note_on,864,0,1,,,,,,,,0,,,74,0
90144,note_on,384,0,3,,,,,,,,0,,,80,0
90144,note_on,0,0,7,,,,,,,,2,,,62,0
90144,note_on,864,0,2,,,,,,,,1,,,74,0
90144,note_on,384,0,4,,,,,,,,3,,,70,0
90144,note_on,0,0,7,,,,,,,,2,,,46,0
90144,note_on,384,0,6,,,,,,,,5,,,34,0
90144,note_on,384,0,7,,,,,,,,2,,,68,0
90240,note_on,96,0,1,,,,,,,,0,,,73,105
90240,note_on,96,0,3,,,,,,,,0,,,81,105
90240,note_on,96,0,4,,,,,,,,3,,,64,105
90240,note_on,96,0,6,,,,,,,,5,,,33,105
90240,note_on,96,0,2,,,,,,,,1,,,73,105
90240,note_on,96,0,5,,,,,,,,4,,,45,105
90240,set_tempo,240,1,0,,,,,,2307692,,,,,,
90240,note_on,0,0,7,,,,,,,,2,,,45,105
90240,note_on,0,0,7,,,,,,,,2,,,69,105
90240,note_on,0,0,7,,,,,,,,2,,,64,105
90240,note_on,96,0,7,,,,,,,,2,,,61,105
90480,set_tempo,240,1,0,,,,,,2608696,,,,,,
90624,note_on,0,0,7,,,,,,,,2,,,64,0
90624,note_on,384,0,1,,,,,,,,0,,,73,0
90624,note_on,384,0,3,,,,,,,,0,,,81,0
90624,note_on,0,0,7,,,,,,,,2,,,69,0
90624,note_on,384,0,2,,,,,,,,1,,,73,0
90624,note_on,384,0,5,,,,,,,,4,,,45,0
90624,note_on,384,0,6,,,,,,,,5,,,33,0
90624,note_on,384,0,7,,,,,,,,2,,,45,0
90624,note_on,0,0,7,,,,,,,,2,,,61,0
90624,note_on,384,0,4,,,,,,,,3,,,64,0
90720,set_tempo,0,1,0,,,,,,1935484,,,,,,
90720,time_signature,240,1,0,5,4,24,8,,,,,,,,
90960,note_on,336,0,3,,,,,,,,0,,,69,30
90960,note_on,336,0,2,,,,,,,,1,,,77,105
90960,note_on,336,0,1,,,,,,,,0,,,74,105
90960,note_on,336,0,4,,,,,,,,3,,,62,30
91008,note_on,48,0,1,,,,,,,,0,,,74,0
91020,note_on,12,0,1,,,,,,,,0,,,69,105
91056,note_on,96,0,2,,,,,,,,1,,,77,0
91056,note_on,96,0,4,,,,,,,,3,,,62,0
91056,note_on,96,0,3,,,,,,,,0,,,69,0
91068,note_on,48,0,1,,,,,,,,0,,,69,0
91080,note_on,24,0,2,,,,,,,,1,,,77,105
91080,note_on,24,0,4,,,,,,,,3,,,62,30
91080,note_on,12,0,1,,,,,,,,0,,,70,105
91080,note_on,24,0,3,,,,,,,,0,,,69,30
91128,note_on,48,0,1,,,,,,,,0,,,70,0
91140,note_on,12,0,1,,,,,,,,0,,,69,105
91176,note_on,96,0,2,,,,,,,,1,,,77,0
91176,note_on,96,0,4,,,,,,,,3,,,62,0
91176,note_on,96,0,3,,,,,,,,0,,,69,0
91188,note_on,48,0,1,,,,,,,,0,,,69,0
91200,note_on,12,0,1,,,,,,,,0,,,76,105
91200,note_on,576,0,5,,,,,,,,4,,,57,30
91200,note_on,576,0,7,,,,,,,,2,,,57,30
91200,note_on,0,0,7,,,,,,,,2,,,64,30
91200,note_on,0,0,7,,,,,,,,2,,,61,30
91248,note_on,48,0,1,,,,,,,,0,,,76,0
91260,note_on,12,0,1,,,,,,,,0,,,69,105
91296,note_on,96,0,5,,,,,,,,4,,,57,0
91296,note_on,96,0,7,,,,,,,,2,,,57,0
91308,note_on,48,0,1,,,,,,,,0,,,69,0
91320,note_on,12,0,1,,,,,,,,0,,,70,105
91320,note_on,24,0,5,,,,,,,,4,,,45,30
91320,note_on,24,0,7,,,,,,,,2,,,45,30
91368,note_on,48,0,1,,,,,,,,0,,,70,0
91380,note_on,12,0,1,,,,,,,,0,,,69,105
91392,note_on,72,0,7,,,,,,,,2,,,64,0
91392,note_on,0,0,7,,,,,,,,2,,,61,0
91416,note_on,96,0,5,,,,,,,,4,,,45,0
91416,note_on,24,0,7,,,,,,,,2,,,45,0
91428,note_on,48,0,1,,,,,,,,0,,,69,0
91440,note_on,12,0,1,,,,,,,,0,,,79,105
91440,note_on,264,0,3,,,,,,,,0,,,73,30
91440,note_on,264,0,4,,,,,,,,3,,,57,30
91440,note_on,264,0,2,,,,,,,,1,,,76,105
91536,note_on,96,0,4,,,,,,,,3,,,57,0
91536,note_on,96,0,3,,,,,,,,0,,,73,0
91536,note_on,96,0,2,,,,,,,,1,,,76,0
91560,note_on,24,0,3,,,,,,,,0,,,73,30
91560,note_on,24,0,4,,,,,,,,3,,,57,30
91560,note_on,24,0,2,,,,,,,,1,,,76,105
91656,note_on,96,0,4,,,,,,,,3,,,57,0
91656,note_on,96,0,2,,,,,,,,1,,,76,0
91656,note_on,96,0,3,,,,,,,,0,,,73,0
91680,note_on,264,0,7,,,,,,,,2,,,61,30
91680,note_on,0,0,7,,,,,,,,2,,,64,30
91680,note_on,0,0,7,,,,,,,,2,,,57,30
91680,note_on,0,0,7,,,,,,,,2,,,67,30
91680,note_on,264,0,5,,,,,,,,4,,,57,30
91728,note_on,288,0,1,,,,,,,,0,,,79,0
91740,note_on,12,0,1,,,,,,,,0,,,77,105
91764,note_on,24,0,1,,,,,,,,0,,,77,0
91770,note_on,6,0,1,,,,,,,,0,,,76,105
91776,note_on,96,0,5,,,,,,,,4,,,57,0
91776,note_on,96,0,7,,,,,,,,2,,,57,0
91794,note_on,24,0,1,,,,,,,,0,,,76,0
91800,note_on,24,0,5,,,,,,,,4,,,45,30
91800,note_on,24,0,7,,,,,,,,2,,,45,30
91800,note_on,6,0,1,,,,,,,,0,,,74,105
91824,note_on,24,0,1,,,,,,,,0,,,74,0
91830,note_on,6,0,1,,,,,,,,0,,,73,105
91854,note_on,24,0,1,,,,,,,,0,,,73,0
91860,note_on,6,0,1,,,,,,,,0,,,71,105
91872,note_on,0,0,7,,,,,,,,2,,,64,0
91872,note_on,0,0,7,,,,,,,,2,,,67,0
91872,note_on,72,0,7,,,,,,,,2,,,61,0
91884,note_on,24,0,1,,,,,,,,0,,,71,0
91890,note_on,6,0,1,,,,,,,,0,,,69,105
91896,note_on,24,0,7,,,,,,,,2,,,45,0
91896,note_on,96,0,5,,,,,,,,4,,,45,0
91914,note_on,24,0,1,,,,,,,,0,,,69,0
91920,time_signature,1200,1,0,4,4,24,8,,,,,,,,
91920,note_on,264,0,4,,,,,,,,3,,,62,30
91920,set_tempo,0,1,0,,,,,,2400000,,,,,,
91920,note_on,264,0,2,,,,,,,,1,,,74,105
91920,note_on,6,0,1,,,,,,,,0,,,77,105
91920,note_on,264,0,3,,,,,,,,0,,,65,30
91944,note_on,24,0,1,,,,,,,,0,,,77,0
91950,note_on,6,0,1,,,,,,,,0,,,74,105
91974,note_on,24,0,1,,,,,,,,0,,,74,0
91980,note_on,6,0,1,,,,,,,,0,,,73,105
92004,note_on,24,0,1,,,,,,,,0,,,73,0
92010,note_on,6,0,1,,,,,,,,0,,,74,105
92016,note_on,96,0,3,,,,,,,,0,,,65,0
92016,note_on,96,0,4,,,,,,,,3,,,62,0
92016,note_on,96,0,2,,,,,,,,1,,,74,0
92034,note_on,24,0,1,,,,,,,,0,,,74,0
92040,note_on,24,0,3,,,,,,,,0,,,65,30
92040,note_on,24,0,2,,,,,,,,1,,,74,105
92040,note_on,24,0,4,,,,,,,,3,,,62,30
92040,note_on,6,0,1,,,,,,,,0,,,77,105
92064,note_on,24,0,1,,,,,,,,0,,,77,0
92070,note_on,6,0,1,,,,,,,,0,,,74,105
92094,note_on,24,0,1,,,,,,,,0,,,74,0
92100,note_on,6,0,1,,,,,,,,0,,,73,105
92124,note_on,24,0,1,,,,,,,,0,,,73,0
92130,note_on,6,0,1,,,,,,,,0,,,74,105
92136,note_on,96,0,2,,,,,,,,1,,,74,0
92136,note_on,96,0,4,,,,,,,,3,,,62,0
92136,note_on,96,0,3,,,,,,,,0,,,65,0
92154,note_on,24,0,1,,,,,,,,0,,,74,0
92160,note_on,264,0,7,,,,,,,,2,,,62,30
92160,note_on,0,0,7,,,,,,,,2,,,58,30
92160,note_on,6,0,1,,,,,,,,0,,,80,105
92160,set_tempo,240,1,0,,,,,,2222222,,,,,,
92160,note_on,264,0,5,,,,,,,,4,,,58,30
92160,note_on,0,0,7,,,,,,,,2,,,68,30
92184,note_on,24,0,1,,,,,,,,0,,,80,0
92190,note_on,6,0,1,,,,,,,,0,,,74,105
92214,note_on,24,0,1,,,,,,,,0,,,74,0
92220,note_on,6,0,1,,,,,,,,0,,,73,105
92244,note_on,24,0,1,,,,,,,,0,,,73,0
92250,note_on,6,0,1,,,,,,,,0,,,74,105
92256,note_on,96,0,5,,,,,,,,4,,,58,0
92256,note_on,96,0,7,,,,,,,,2,,,58,0
92274,note_on,24,0,1,,,,,,,,0,,,74,0
92280,note_on,24,0,7,,,,,,,,2,,,46,30
92280,note_on,24,0,5,,,,,,,,4,,,46,30
92280,note_on,6,0,1,,,,,,,,0,,,80,105
92304,note_on,24,0,1,,,,,,,,0,,,80,0
92310,note_on,6,0,1,,,,,,,,0,,,74,105
92334,note_on,24,0,1,,,,,,,,0,,,74,0
92340,note_on,6,0,1,,,,,,,,0,,,73,105
92352,note_on,72,0,7,,,,,,,,2,,,68,0
92352,note_on,0,0,7,,,,,,,,2,,,62,0
92364,note_on,24,0,1,,,,,,,,0,,,73,0
92370,note_on,6,0,1,,,,,,,,0,,,74,105
92376,note_on,24,0,7,,,,,,,,2,,,46,0
92376,note_on,96,0,5,,,,,,,,4,,,46,0
92394,note_on,24,0,1,,,,,,,,0,,,74,0
92400,note_on,264,0,3,,,,,,,,0,,,64,30
92400,set_tempo,240,1,0,,,,,,2142857,,,,,,
92400,note_on,6,0,1,,,,,,,,0,,,81,105
92400,note_on,264,0,2,,,,,,,,1,,,73,105
92400,note_on,264,0,4,,,,,,,,3,,,57,30
92496,note_on,96,0,2,,,,,,,,1,,,73,0
92496,note_on,96,0,3,,,,,,,,0,,,64,0
92496,note_on,96,0,1,,,,,,,,0,,,81,0
92496,note_on,96,0,4,,,,,,,,3,,,57,0
92520,note_on,24,0,3,,,,,,,,0,,,64,30
92520,note_on,24,0,1,,,,,,,,0,,,69,105
92520,note_on,24,0,4,,,,,,,,3,,,57,30
92520,note_on,24,0,2,,,,,,,,1,,,73,105
92616,note_on,96,0,4,,,,,,,,3,,,57,0
92616,note_on,96,0,1,,,,,,,,0,,,69,0
92616,note_on,96,0,2,,,,,,,,1,,,73,0
92616,note_on,96,0,3,,,,,,,,0,,,64,0
92640,note_on,0,0,7,,,,,,,,2,,,62,30
92640,note_on,0,0,7,,,,,,,,2,,,65,30
92640,note_on,264,0,7,,,,,,,,2,,,69,30
92640,set_tempo,240,1,0,,,,,,2000000,,,,,,
92640,note_on,264,0,5,,,,,,,,4,,,62,30
92736,note_on,96,0,5,,,,,,,,4,,,62,0
92736,note_on,96,0,7,,,,,,,,2,,,62,0
92760,note_on,24,0,5,,,,,,,,4,,,50,30
92760,note_on,144,0,1,,,,,,,,0,,,81,105
92760,note_on,24,0,7,,,,,,,,2,,,50,30
92832,note_on,0,0,7,,,,,,,,2,,,69,0
92832,note_on,72,0,7,,,,,,,,2,,,65,0
92856,note_on,24,0,7,,,,,,,,2,,,50,0
92856,note_on,96,0,5,,,,,,,,4,,,50,0
92856,note_on,96,0,1,,,,,,,,0,,,81,0
92880,note_on,264,0,2,,,,,,,,1,,,74,105
92880,note_on,264,0,3,,,,,,,,0,,,70,30
92880,note_on,24,0,1,,,,,,,,0,,,82,105
92880,note_on,264,0,4,,,,,,,,3,,,67,30
92880,set_tempo,240,1,0,,,,,,1935484,,,,,,
92976,note_on,96,0,4,,,,,,,,3,,,67,0
92976,note_on,96,0,2,,,,,,,,1,,,74,0
92976,note_on,96,0,3,,,,,,,,0,,,70,0
93000,note_on,24,0,4,,,,,,,,3,,,55,30
93000,note_on,24,0,2,,,,,,,,1,,,74,105
93000,note_on,24,0,3,,,,,,,,0,,,70,30
93096,note_on,96,0,4,,,,,,,,3,,,55,0
93096,note_on,96,0,3,,,,,,,,0,,,70,0
93096,note_on,96,0,2,,,,,,,,1,,,74,0
93120,note_on,0,0,7,,,,,,,,2,,,62,30
93120,note_on,0,0,7,,,,,,,,2,,,55,30
93120,note_on,264,0,5,,,,,,,,4,,,55,30
93120,note_on,264,0,7,,,,,,,,2,,,70,30
93168,note_on,288,0,1,,,,,,,,0,,,82,0
93180,note_on,12,0,1,,,,,,,,0,,,86,105
93204,note_on,24,0,1,,,,,,,,0,,,86,0
93210,note_on,6,0,1,,,,,,,,0,,,84,105
93216,note_on,96,0,7,,,,,,,,2,,,55,0
93216,note_on,96,0,5,,,,,,,,4,,,55,0
93234,note_on,24,0,1,,,,,,,,0,,,84,0
93240,note_on,24,0,5,,,,,,,,4,,,43,30
93240,note_on,24,0,7,,,,,,,,2,,,43,30
93240,note_on,6,0,1,,,,,,,,0,,,82,105
93264,note_on,24,0,1,,,,,,,,0,,,82,0
93270,note_on,6,0,1,,,,,,,,0,,,81,124
93294,note_on,24,0,1,,,,,,,,0,,,81,0
93300,note_on,6,0,1,,,,,,,,0,,,79,124
93312,note_on,0,0,7,,,,,,,,2,,,70,0
93312,note_on,72,0,7,,,,,,,,2,,,62,0
93324,note_on,24,0,1,,,,,,,,0,,,79,0
93330,note_on,6,0,1,,,,,,,,0,,,77,124
93336,note_on,24,0,7,,,,,,,,2,,,43,0
93336,note_on,96,0,5,,,,,,,,4,,,43,0
93354,note_on,24,0,1,,,,,,,,0,,,77,0
93360,note_on,264,0,4,,,,,,,,3,,,72,30
93360,note_on,264,0,3,,,,,,,,0,,,81,30
93360,note_on,6,0,1,,,,,,,,0,,,77,124
93360,note_on,264,0,2,,,,,,,,1,,,77,105
93366,note_on,6,0,1,,,,,,,,0,,,77,0
93367,note_on,1,0,1,,,,,,,,0,,,79,124
93373,note_on,6,0,1,,,,,,,,0,,,79,0
93374,note_on,1,0,1,,,,,,,,0,,,77,124
93380,note_on,6,0,1,,,,,,,,0,,,77,0
93381,note_on,1,0,1,,,,,,,,0,,,79,124
93387,note_on,6,0,1,,,,,,,,0,,,79,0
93388,note_on,1,0,1,,,,,,,,0,,,77,124
93394,note_on,6,0,1,,,,,,,,0,,,77,0
93395,note_on,1,0,1,,,,,,,,0,,,79,124
93401,note_on,6,0,1,,,,,,,,0,,,79,0
93402,note_on,1,0,1,,,,,,,,0,,,77,124
93408,note_on,6,0,1,,,,,,,,0,,,77,0
93409,note_on,1,0,1,,,,,,,,0,,,79,124
93415,note_on,6,0,1,,,,,,,,0,,,79,0
93416,note_on,1,0,1,,,,,,,,0,,,77,124
93422,note_on,6,0,1,,,,,,,,0,,,77,0
93423,note_on,1,0,1,,,,,,,,0,,,79,124
93429,note_on,6,0,1,,,,,,,,0,,,79,0
93430,note_on,1,0,1,,,,,,,,0,,,77,124
93436,note_on,6,0,1,,,,,,,,0,,,77,0
93437,note_on,1,0,1,,,,,,,,0,,,79,124
93443,note_on,6,0,1,,,,,,,,0,,,79,0
93444,note_on,1,0,1,,,,,,,,0,,,77,124
93450,note_on,6,0,1,,,,,,,,0,,,77,0
93451,note_on,1,0,1,,,,,,,,0,,,79,124
93456,note_on,96,0,4,,,,,,,,3,,,72,0
93456,note_on,96,0,2,,,,,,,,1,,,77,0
93456,note_on,96,0,3,,,,,,,,0,,,81,0
93457,note_on,6,0,1,,,,,,,,0,,,79,0
93458,note_on,1,0,1,,,,,,,,0,,,77,124
93464,note_on,6,0,1,,,,,,,,0,,,77,0
93465,note_on,1,0,1,,,,,,,,0,,,79,124
93471,note_on,6,0,1,,,,,,,,0,,,79,0
93472,note_on,1,0,1,,,,,,,,0,,,76,124
93480,note_on,24,0,4,,,,,,,,3,,,60,30
93480,note_on,24,0,2,,,,,,,,1,,,76,105
93480,note_on,24,0,3,,,,,,,,0,,,79,30
93568,note_on,96,0,1,,,,,,,,0,,,76,0
93576,note_on,96,0,3,,,,,,,,0,,,79,0
93576,note_on,96,0,4,,,,,,,,3,,,60,0
93576,note_on,96,0,2,,,,,,,,1,,,76,0
93600,note_on,264,0,5,,,,,,,,4,,,60,30
93600,note_on,0,0,7,,,,,,,,2,,,64,30
93600,note_on,0,0,7,,,,,,,,2,,,67,30
93600,note_on,264,0,7,,,,,,,,2,,,60,30
93696,note_on,96,0,7,,,,,,,,2,,,60,0
93696,note_on,96,0,5,,,,,,,,4,,,60,0
93712,note_on,144,0,1,,,,,,,,0,,,76,105
93720,note_on,24,0,7,,,,,,,,2,,,48,30
93720,note_on,24,0,5,,,,,,,,4,,,48,30
93792,note_on,72,0,7,,,,,,,,2,,,67,0
93792,note_on,0,0,7,,,,,,,,2,,,64,0
93808,note_on,96,0,1,,,,,,,,0,,,76,0
93816,note_on,24,0,7,,,,,,,,2,,,48,0
93816,note_on,96,0,5,,,,,,,,4,,,48,0
93840,note_on,264,0,3,,,,,,,,0,,,69,30
93840,note_on,32,0,1,,,,,,,,0,,,81,105
93840,note_on,264,0,2,,,,,,,,1,,,72,105
93840,note_on,264,0,4,,,,,,,,3,,,65,30
93936,note_on,96,0,3,,,,,,,,0,,,69,0
93936,note_on,96,0,2,,,,,,,,1,,,72,0
93936,note_on,96,0,4,,,,,,,,3,,,65,0
93960,note_on,24,0,4,,,,,,,,3,,,53,30
93960,note_on,24,0,3,,,,,,,,0,,,69,30
93960,note_on,24,0,2,,,,,,,,1,,,72,105
94056,note_on,96,0,4,,,,,,,,3,,,53,0
94056,note_on,96,0,3,,,,,,,,0,,,69,0
94056,note_on,96,0,2,,,,,,,,1,,,72,0
94080,note_on,264,0,7,,,,,,,,2,,,65,30
94080,note_on,264,0,5,,,,,,,,4,,,53,30
94080,note_on,0,0,7,,,,,,,,2,,,60,30
94080,note_on,0,0,7,,,,,,,,2,,,53,30
94080,note_on,0,0,7,,,,,,,,2,,,69,30
94128,note_on,288,0,1,,,,,,,,0,,,81,0
94140,note_on,12,0,1,,,,,,,,0,,,84,105
94164,note_on,24,0,1,,,,,,,,0,,,84,0
94170,note_on,6,0,1,,,,,,,,0,,,82,105
94176,note_on,96,0,5,,,,,,,,4,,,53,0
94176,note_on,96,0,7,,,,,,,,2,,,53,0
94194,note_on,24,0,1,,,,,,,,0,,,82,0
94200,note_on,6,0,1,,,,,,,,0,,,81,105
94200,note_on,24,0,5,,,,,,,,4,,,41,30
94200,note_on,24,0,7,,,,,,,,2,,,41,30
94224,note_on,24,0,1,,,,,,,,0,,,81,0
94230,note_on,6,0,1,,,,,,,,0,,,79,105
94254,note_on,24,0,1,,,,,,,,0,,,79,0
94260,note_on,6,0,1,,,,,,,,0,,,77,105
94272,note_on,0,0,7,,,,,,,,2,,,60,0
94272,note_on,72,0,7,,,,,,,,2,,,65,0
94272,note_on,0,0,7,,,,,,,,2,,,69,0
94284,note_on,24,0,1,,,,,,,,0,,,77,0
94290,note_on,6,0,1,,,,,,,,0,,,76,105
94296,note_on,24,0,7,,,,,,,,2,,,41,0
94296,note_on,96,0,5,,,,,,,,4,,,41,0
94314,note_on,24,0,1,,,,,,,,0,,,76,0
94320,note_on,6,0,1,,,,,,,,0,,,76,105
94320,note_on,264,0,3,,,,,,,,0,,,79,30
94320,note_on,264,0,4,,,,,,,,3,,,70,30
94320,note_on,264,0,2,,,,,,,,1,,,76,124
94326,note_on,6,0,1,,,,,,,,0,,,76,0
94327,note_on,1,0,1,,,,,,,,0,,,77,105
94333,note_on,6,0,1,,,,,,,,0,,,77,0
94334,note_on,1,0,1,,,,,,,,0,,,76,105
94340,note_on,6,0,1,,,,,,,,0,,,76,0
94341,note_on,1,0,1,,,,,,,,0,,,77,105
94347,note_on,6,0,1,,,,,,,,0,,,77,0
94348,note_on,1,0,1,,,,,,,,0,,,76,105
94354,note_on,6,0,1,,,,,,,,0,,,76,0
94355,note_on,1,0,1,,,,,,,,0,,,77,105
94361,note_on,6,0,1,,,,,,,,0,,,77,0
94362,note_on,1,0,1,,,,,,,,0,,,76,105
94368,note_on,6,0,1,,,,,,,,0,,,76,0
94369,note_on,1,0,1,,,,,,,,0,,,77,105
94375,note_on,6,0,1,,,,,,,,0,,,77,0
94376,note_on,1,0,1,,,,,,,,0,,,76,105
94382,note_on,6,0,1,,,,,,,,0,,,76,0
94383,note_on,1,0,1,,,,,,,,0,,,77,105
94389,note_on,6,0,1,,,,,,,,0,,,77,0
94390,note_on,1,0,1,,,,,,,,0,,,76,105
94396,note_on,6,0,1,,,,,,,,0,,,76,0
94397,note_on,1,0,1,,,,,,,,0,,,77,105
94403,note_on,6,0,1,,,,,,,,0,,,77,0
94404,note_on,1,0,1,,,,,,,,0,,,76,105
94410,note_on,6,0,1,,,,,,,,0,,,76,0
94411,note_on,1,0,1,,,,,,,,0,,,77,105
94416,note_on,96,0,3,,,,,,,,0,,,79,0
94416,note_on,96,0,4,,,,,,,,3,,,70,0
94416,note_on,96,0,2,,,,,,,,1,,,76,0
94417,note_on,6,0,1,,,,,,,,0,,,77,0
94418,note_on,1,0,1,,,,,,,,0,,,76,105
94424,note_on,6,0,1,,,,,,,,0,,,76,0
94425,note_on,1,0,1,,,,,,,,0,,,77,105
94431,note_on,6,0,1,,,,,,,,0,,,77,0
94432,note_on,1,0,1,,,,,,,,0,,,74,105
94440,note_on,24,0,3,,,,,,,,0,,,77,30
94440,note_on,24,0,2,,,,,,,,1,,,74,124
94440,note_on,24,0,4,,,,,,,,3,,,58,30
94528,note_on,96,0,1,,,,,,,,0,,,74,0
94536,note_on,96,0,3,,,,,,,,0,,,77,0
94536,note_on,96,0,2,,,,,,,,1,,,74,0
94536,note_on,96,0,4,,,,,,,,3,,,58,0
94560,note_on,264,0,5,,,,,,,,4,,,58,30
94560,note_on,264,0,7,,,,,,,,2,,,58,30
94560,note_on,0,0,7,,,,,,,,2,,,70,30
94560,note_on,0,0,7,,,,,,,,2,,,65,30
94560,note_on,0,0,7,,,,,,,,2,,,62,30
94656,note_on,96,0,5,,,,,,,,4,,,58,0
94656,note_on,96,0,7,,,,,,,,2,,,58,0
94672,note_on,144,0,1,,,,,,,,0,,,74,105
94680,note_on,24,0,5,,,,,,,,4,,,46,30
94680,note_on,24,0,7,,,,,,,,2,,,46,30
94752,note_on,0,0,7,,,,,,,,2,,,62,0
94752,note_on,0,0,7,,,,,,,,2,,,65,0
94752,note_on,72,0,7,,,,,,,,2,,,70,0
94768,note_on,96,0,1,,,,,,,,0,,,74,0
94776,note_on,96,0,5,,,,,,,,4,,,46,0
94776,note_on,24,0,7,,,,,,,,2,,,46,0
94800,note_on,264,0,2,,,,,,,,1,,,74,124
94800,note_on,32,0,1,,,,,,,,0,,,79,105
94800,note_on,264,0,3,,,,,,,,0,,,67,30
94800,note_on,264,0,4,,,,,,,,3,,,58,30
94896,note_on,96,0,3,,,,,,,,0,,,67,0
94896,note_on,96,0,4,,,,,,,,3,,,58,0
94896,note_on,96,0,2,,,,,,,,1,,,74,0
94920,note_on,24,0,3,,,,,,,,0,,,67,30
94920,note_on,24,0,4,,,,,,,,3,,,58,30
94920,note_on,24,0,2,,,,,,,,1,,,74,124
95016,note_on,96,0,3,,,,,,,,0,,,67,0
95016,note_on,96,0,4,,,,,,,,3,,,58,0
95016,note_on,96,0,2,,,,,,,,1,,,74,0
95040,note_on,264,0,5,,,,,,,,4,,,58,30
95040,note_on,0,0,7,,,,,,,,2,,,67,30
95040,note_on,0,0,7,,,,,,,,2,,,58,30
95040,note_on,0,0,7,,,,,,,,2,,,62,30
95040,note_on,264,0,7,,,,,,,,2,,,74,30
95088,note_on,288,0,1,,,,,,,,0,,,79,0
95100,note_on,12,0,1,,,,,,,,0,,,82,105
95124,note_on,24,0,1,,,,,,,,0,,,82,0
95130,note_on,6,0,1,,,,,,,,0,,,81,105
95136,note_on,96,0,7,,,,,,,,2,,,58,0
95136,note_on,96,0,5,,,,,,,,4,,,58,0
95154,note_on,24,0,1,,,,,,,,0,,,81,0
95160,note_on,24,0,7,,,,,,,,2,,,46,30
95160,note_on,24,0,5,,,,,,,,4,,,46,30
95160,note_on,6,0,1,,,,,,,,0,,,79,105
95184,note_on,24,0,1,,,,,,,,0,,,79,0
95190,note_on,6,0,1,,,,,,,,0,,,77,105
95214,note_on,24,0,1,,,,,,,,0,,,77,0
95220,note_on,6,0,1,,,,,,,,0,,,76,105
95232,note_on,0,0,7,,,,,,,,2,,,67,0
95232,note_on,0,0,7,,,,,,,,2,,,62,0
95232,note_on,72,0,7,,,,,,,,2,,,74,0
95244,note_on,24,0,1,,,,,,,,0,,,76,0
95250,note_on,6,0,1,,,,,,,,0,,,74,105
95256,note_on,24,0,7,,,,,,,,2,,,46,0
95256,note_on,96,0,5,,,,,,,,4,,,46,0
95274,note_on,24,0,1,,,,,,,,0,,,74,0
95280,note_on,264,0,2,,,,,,,,1,,,76,124
95280,note_on,264,0,3,,,,,,,,0,,,67,30
95280,note_on,264,0,4,,,,,,,,3,,,60,30
95280,note_on,6,0,1,,,,,,,,0,,,76,105
95376,note_on,96,0,3,,,,,,,,0,,,67,0
95376,note_on,96,0,4,,,,,,,,3,,,60,0
95376,note_on,96,0,1,,,,,,,,0,,,76,0
95376,note_on,96,0,2,,,,,,,,1,,,76,0
95400,note_on,24,0,4,,,,,,,,3,,,48,30
95400,note_on,24,0,2,,,,,,,,1,,,76,124
95400,note_on,24,0,1,,,,,,,,0,,,72,105
95400,note_on,24,0,3,,,,,,,,0,,,67,30
95496,note_on,96,0,2,,,,,,,,1,,,76,0
95496,note_on,96,0,4,,,,,,,,3,,,48,0
95496,note_on,96,0,1,,,,,,,,0,,,72,0
95496,note_on,96,0,3,,,,,,,,0,,,67,0
95520,note_on,0,0,7,,,,,,,,2,,,72,30
95520,note_on,264,0,7,,,,,,,,2,,,60,30
95520,note_on,0,0,7,,,,,,,,2,,,64,30
95520,note_on,264,0,5,,,,,,,,4,,,60,30
95616,note_on,96,0,7,,,,,,,,2,,,60,0
95616,note_on,96,0,5,,,,,,,,4,,,60,0
95640,note_on,144,0,1,,,,,,,,0,,,79,105
95640,note_on,24,0,7,,,,,,,,2,,,48,30
95640,note_on,24,0,5,,,,,,,,4,,,48,30
95712,note_on,0,0,7,,,,,,,,2,,,72,0
95712,note_on,72,0,7,,,,,,,,2,,,64,0
95736,note_on,96,0,1,,,,,,,,0,,,79,0
95736,note_on,24,0,7,,,,,,,,2,,,48,0
95736,note_on,96,0,5,,,,,,,,4,,,48,0
95760,note_on,264,0,4,,,,,,,,3,,,60,30
95760,note_on,264,0,2,,,,,,,,1,,,76,124
95760,note_on,264,0,3,,,,,,,,0,,,67,30
95760,note_on,24,0,1,,,,,,,,0,,,79,105
95784,note_on,24,0,1,,,,,,,,0,,,79,0
95790,note_on,6,0,1,,,,,,,,0,,,77,105
95814,note_on,24,0,1,,,,,,,,0,,,77,0
95820,note_on,6,0,1,,,,,,,,0,,,76,105
95856,note_on,96,0,4,,,,,,,,3,,,60,0
95856,note_on,96,0,3,,,,,,,,0,,,67,0
95856,note_on,96,0,2,,,,,,,,1,,,76,0
95868,note_on,48,0,1,,,,,,,,0,,,76,0
95880,note_on,24,0,4,,,,,,,,3,,,48,30
95880,note_on,24,0,3,,,,,,,,0,,,67,30
95880,note_on,24,0,2,,,,,,,,1,,,76,124
95880,note_on,12,0,1,,,,,,,,0,,,79,105
95904,note_on,24,0,1,,,,,,,,0,,,79,0
95910,note_on,6,0,1,,,,,,,,0,,,77,105
95934,note_on,24,0,1,,,,,,,,0,,,77,0
95940,note_on,6,0,1,,,,,,,,0,,,76,105
95976,note_on,96,0,4,,,,,,,,3,,,48,0
95976,note_on,96,0,2,,,,,,,,1,,,76,0
95976,note_on,96,0,3,,,,,,,,0,,,67,0
95988,note_on,48,0,1,,,,,,,,0,,,76,0
96000,note_on,264,0,7,,,,,,,,2,,,70,30
96000,note_on,0,0,7,,,,,,,,2,,,67,30
96000,note_on,0,0,7,,,,,,,,2,,,60,30
96000,note_on,264,0,5,,,,,,,,4,,,60,30
96000,note_on,12,0,1,,,,,,,,0,,,82,105
96000,note_on,0,0,7,,,,,,,,2,,,64,30
96024,note_on,24,0,1,,,,,,,,0,,,82,0
96030,note_on,6,0,1,,,,,,,,0,,,81,105
96054,note_on,24,0,1,,,,,,,,0,,,81,0
96060,note_on,6,0,1,,,,,,,,0,,,79,105
96096,note_on,96,0,7,,,,,,,,2,,,60,0
96096,note_on,96,0,5,,,,,,,,4,,,60,0
96108,note_on,48,0,1,,,,,,,,0,,,79,0
96120,note_on,24,0,7,,,,,,,,2,,,48,30
96120,note_on,12,0,1,,,,,,,,0,,,82,105
96120,note_on,24,0,5,,,,,,,,4,,,48,30
96144,note_on,24,0,1,,,,,,,,0,,,82,0
96150,note_on,6,0,1,,,,,,,,0,,,81,105
96174,note_on,24,0,1,,,,,,,,0,,,81,0
96180,note_on,6,0,1,,,,,,,,0,,,79,105
96192,note_on,72,0,7,,,,,,,,2,,,70,0
96192,note_on,0,0,7,,,,,,,,2,,,67,0
96192,note_on,0,0,7,,,,,,,,2,,,64,0
96216,note_on,24,0,7,,,,,,,,2,,,48,0
96216,note_on,96,0,5,,,,,,,,4,,,48,0
96228,note_on,48,0,1,,,,,,,,0,,,79,0
96240,note_on,12,0,1,,,,,,,,0,,,81,124
96240,note_on,264,0,4,,,,,,,,3,,,65,30
96240,note_on,264,0,3,,,,,,,,0,,,69,30
96240,note_on,264,0,2,,,,,,,,1,,,72,124
96336,note_on,96,0,3,,,,,,,,0,,,69,0
96336,note_on,96,0,2,,,,,,,,1,,,72,0
96336,note_on,96,0,1,,,,,,,,0,,,81,0
96336,note_on,96,0,4,,,,,,,,3,,,65,0
96360,note_on,24,0,4,,,,,,,,3,,,53,30
96360,note_on,24,0,3,,,,,,,,0,,,69,30
96360,note_on,24,0,2,,,,,,,,1,,,72,124
96360,note_on,24,0,1,,,,,,,,0,,,79,124
96408,note_on,48,0,1,,,,,,,,0,,,79,0
96420,note_on,12,0,1,,,,,,,,0,,,77,124
96456,note_on,96,0,2,,,,,,,,1,,,72,0
96456,note_on,96,0,3,,,,,,,,0,,,69,0
96456,note_on,96,0,4,,,,,,,,3,,,53,0
96468,note_on,48,0,1,,,,,,,,0,,,77,0
96480,note_on,12,0,1,,,,,,,,0,,,76,124
96480,note_on,0,0,7,,,,,,,,2,,,64,30
96480,note_on,0,0,7,,,,,,,,2,,,70,30
96480,note_on,264,0,5,,,,,,,,4,,,60,30
96480,note_on,0,0,7,,,,,,,,2,,,60,30
96480,note_on,264,0,7,,,,,,,,2,,,67,30
96486,note_on,6,0,1,,,,,,,,0,,,76,0
96487,note_on,1,0,1,,,,,,,,0,,,77,124
96493,note_on,6,0,1,,,,,,,,0,,,77,0
96494,note_on,1,0,1,,,,,,,,0,,,76,124
96500,note_on,6,0,1,,,,,,,,0,,,76,0
96501,note_on,1,0,1,,,,,,,,0,,,77,124
96507,note_on,6,0,1,,,,,,,,0,,,77,0
96508,note_on,1,0,1,,,,,,,,0,,,76,124
96514,note_on,6,0,1,,,,,,,,0,,,76,0
96515,note_on,1,0,1,,,,,,,,0,,,77,124
96521,note_on,6,0,1,,,,,,,,0,,,77,0
96522,note_on,1,0,1,,,,,,,,0,,,76,124
96528,note_on,6,0,1,,,,,,,,0,,,76,0
96529,note_on,1,0,1,,,,,,,,0,,,77,124
96535,note_on,6,0,1,,,,,,,,0,,,77,0
96536,note_on,1,0,1,,,,,,,,0,,,76,124
96542,note_on,6,0,1,,,,,,,,0,,,76,0
96543,note_on,1,0,1,,,,,,,,0,,,77,124
96549,note_on,6,0,1,,,,,,,,0,,,77,0
96550,note_on,1,0,1,,,,,,,,0,,,76,124
96556,note_on,6,0,1,,,,,,,,0,,,76,0
96557,note_on,1,0,1,,,,,,,,0,,,77,124
96563,note_on,6,0,1,,,,,,,,0,,,77,0
96564,note_on,1,0,1,,,,,,,,0,,,76,124
96570,note_on,6,0,1,,,,,,,,0,,,76,0
96571,note_on,1,0,1,,,,,,,,0,,,77,124
96576,note_on,96,0,5,,,,,,,,4,,,60,0
96576,note_on,96,0,7,,,,,,,,2,,,60,0
96577,note_on,6,0,1,,,,,,,,0,,,77,0
96578,note_on,1,0,1,,,,,,,,0,,,76,124
96584,note_on,6,0,1,,,,,,,,0,,,76,0
96585,note_on,1,0,1,,,,,,,,0,,,77,124
96591,note_on,6,0,1,,,,,,,,0,,,77,0
96592,note_on,1,0,1,,,,,,,,0,,,76,124
96598,note_on,6,0,1,,,,,,,,0,,,76,0
96599,note_on,1,0,1,,,,,,,,0,,,77,124
96600,note_on,24,0,5,,,,,,,,4,,,48,30
96600,note_on,24,0,7,,,,,,,,2,,,48,30
96605,note_on,6,0,1,,,,,,,,0,,,77,0
96606,note_on,1,0,1,,,,,,,,0,,,76,124
96612,note_on,6,0,1,,,,,,,,0,,,76,0
96613,note_on,1,0,1,,,,,,,,0,,,77,124
96619,note_on,6,0,1,,,,,,,,0,,,77,0
96620,note_on,1,0,1,,,,,,,,0,,,76,124
96626,note_on,6,0,1,,,,,,,,0,,,76,0
96627,note_on,1,0,1,,,,,,,,0,,,77,124
96633,note_on,6,0,1,,,,,,,,0,,,77,0
96634,note_on,1,0,1,,,,,,,,0,,,76,124
96640,note_on,6,0,1,,,,,,,,0,,,76,0
96641,note_on,1,0,1,,,,,,,,0,,,77,124
96647,note_on,6,0,1,,,,,,,,0,,,77,0
96648,note_on,1,0,1,,,,,,,,0,,,77,124
96672,note_on,72,0,7,,,,,,,,2,,,67,0
96672,note_on,0,0,7,,,,,,,,2,,,70,0
96672,note_on,0,0,7,,,,,,,,2,,,64,0
96696,note_on,96,0,5,,,,,,,,4,,,48,0
96696,note_on,24,0,7,,,,,,,,2,,,48,0
96696,note_on,48,0,1,,,,,,,,0,,,77,0
96720,note_on,264,0,4,,,,,,,,3,,,65,30
96720,note_on,24,0,1,,,,,,,,0,,,77,124
96720,note_on,264,0,2,,,,,,,,1,,,72,105
96720,note_on,264,0,3,,,,,,,,0,,,69,30
96816,note_on,96,0,4,,,,,,,,3,,,65,0
96816,note_on,96,0,3,,,,,,,,0,,,69,0
96816,note_on,96,0,2,,,,,,,,1,,,72,0
96840,note_on,24,0,4,,,,,,,,3,,,53,30
96840,note_on,24,0,3,,,,,,,,0,,,69,30
96840,note_on,24,0,2,,,,,,,,1,,,72,105
96912,note_on,192,0,1,,,,,,,,0,,,77,0
96936,note_on,96,0,3,,,,,,,,0,,,69,0
96936,note_on,96,0,4,,,,,,,,3,,,53,0
96936,note_on,96,0,2,,,,,,,,1,,,72,0
96960,note_on,0,0,7,,,,,,,,2,,,69,30
96960,note_on,264,0,5,,,,,,,,4,,,53,30
96960,note_on,0,0,7,,,,,,,,2,,,65,30
96960,note_on,264,0,7,,,,,,,,2,,,60,30
96960,note_on,0,0,7,,,,,,,,2,,,53,30
97056,note_on,96,0,5,,,,,,,,4,,,53,0
97056,note_on,96,0,7,,,,,,,,2,,,53,0
97080,note_on,24,0,5,,,,,,,,4,,,41,30
97080,note_on,24,0,7,,,,,,,,2,,,41,30
97080,note_on,168,0,1,,,,,,,,0,,,81,124
97152,note_on,0,0,7,,,,,,,,2,,,69,0
97152,note_on,0,0,7,,,,,,,,2,,,65,0
97152,note_on,72,0,7,,,,,,,,2,,,60,0
97176,note_on,96,0,1,,,,,,,,0,,,81,0
97176,note_on,96,0,5,,,,,,,,4,,,41,0
97176,note_on,24,0,7,,,,,,,,2,,,41,0
97200,note_on,264,0,3,,,,,,,,0,,,71,30
97200,note_on,264,0,4,,,,,,,,3,,,64,30
97200,note_on,264,0,2,,,,,,,,1,,,76,105
97200,note_on,24,0,1,,,,,,,,0,,,80,124
97248,note_on,48,0,1,,,,,,,,0,,,80,0
97260,note_on,12,0,1,,,,,,,,0,,,76,124
97296,note_on,96,0,2,,,,,,,,1,,,76,0
97296,note_on,96,0,3,,,,,,,,0,,,71,0
97296,note_on,96,0,4,,,,,,,,3,,,64,0
97308,note_on,48,0,1,,,,,,,,0,,,76,0
97320,note_on,12,0,1,,,,,,,,0,,,83,124
97320,note_on,24,0,2,,,,,,,,1,,,76,105
97320,note_on,24,0,4,,,,,,,,3,,,52,30
97320,note_on,24,0,3,,,,,,,,0,,,71,30
97368,note_on,48,0,1,,,,,,,,0,,,83,0
97380,note_on,12,0,1,,,,,,,,0,,,76,124
97416,note_on,96,0,2,,,,,,,,1,,,76,0
97416,note_on,96,0,4,,,,,,,,3,,,52,0
97416,note_on,96,0,3,,,,,,,,0,,,71,0
97428,note_on,48,0,1,,,,,,,,0,,,76,0
97440,note_on,264,0,7,,,,,,,,2,,,68,30
97440,note_on,0,0,7,,,,,,,,2,,,52,30
97440,note_on,12,0,1,,,,,,,,0,,,83,124
97440,note_on,0,0,7,,,,,,,,2,,,64,30
97440,note_on,0,0,7,,,,,,,,2,,,71,30
97440,note_on,264,0,5,,,,,,,,4,,,52,30
97488,note_on,48,0,1,,,,,,,,0,,,83,0
97500,note_on,12,0,1,,,,,,,,0,,,74,124
97536,note_on,96,0,5,,,,,,,,4,,,52,0
97536,note_on,96,0,7,,,,,,,,2,,,52,0
97548,note_on,48,0,1,,,,,,,,0,,,74,0
97560,note_on,24,0,7,,,,,,,,2,,,40,30
97560,note_on,24,0,5,,,,,,,,4,,,40,30
97560,note_on,12,0,1,,,,,,,,0,,,83,124
97608,note_on,48,0,1,,,,,,,,0,,,83,0
97620,note_on,12,0,1,,,,,,,,0,,,74,124
97632,note_on,0,0,7,,,,,,,,2,,,64,0
97632,note_on,0,0,7,,,,,,,,2,,,71,0
97632,note_on,72,0,7,,,,,,,,2,,,68,0
97656,note_on,96,0,5,,,,,,,,4,,,40,0
97656,note_on,24,0,7,,,,,,,,2,,,40,0
97668,note_on,48,0,1,,,,,,,,0,,,74,0
97680,note_on,264,0,4,,,,,,,,3,,,69,30
97680,note_on,12,0,1,,,,,,,,0,,,74,124
97680,note_on,264,0,3,,,,,,,,0,,,69,30
97680,note_on,264,0,2,,,,,,,,1,,,76,124
97686,note_on,6,0,1,,,,,,,,0,,,74,0
97687,note_on,1,0,1,,,,,,,,0,,,76,124
97693,note_on,6,0,1,,,,,,,,0,,,76,0
97694,note_on,1,0,1,,,,,,,,0,,,74,124
97700,note_on,6,0,1,,,,,,,,0,,,74,0
97701,note_on,1,0,1,,,,,,,,0,,,76,124
97707,note_on,6,0,1,,,,,,,,0,,,76,0
97708,note_on,1,0,1,,,,,,,,0,,,74,124
97714,note_on,6,0,1,,,,,,,,0,,,74,0
97715,note_on,1,0,1,,,,,,,,0,,,76,124
97721,note_on,6,0,1,,,,,,,,0,,,76,0
97722,note_on,1,0,1,,,,,,,,0,,,74,124
97728,note_on,6,0,1,,,,,,,,0,,,74,0
97729,note_on,1,0,1,,,,,,,,0,,,76,124
97735,note_on,6,0,1,,,,,,,,0,,,76,0
97736,note_on,1,0,1,,,,,,,,0,,,74,124
97742,note_on,6,0,1,,,,,,,,0,,,74,0
97743,note_on,1,0,1,,,,,,,,0,,,76,124
97749,note_on,6,0,1,,,,,,,,0,,,76,0
97750,note_on,1,0,1,,,,,,,,0,,,74,124
97756,note_on,6,0,1,,,,,,,,0,,,74,0
97757,note_on,1,0,1,,,,,,,,0,,,76,124
97763,note_on,6,0,1,,,,,,,,0,,,76,0
97764,note_on,1,0,1,,,,,,,,0,,,74,124
97770,note_on,6,0,1,,,,,,,,0,,,74,0
97771,note_on,1,0,1,,,,,,,,0,,,76,124
97776,note_on,96,0,3,,,,,,,,0,,,69,0
97776,note_on,96,0,4,,,,,,,,3,,,69,0
97776,note_on,96,0,2,,,,,,,,1,,,76,0
97777,note_on,6,0,1,,,,,,,,0,,,76,0
97778,note_on,1,0,1,,,,,,,,0,,,74,124
97784,note_on,6,0,1,,,,,,,,0,,,74,0
97785,note_on,1,0,1,,,,,,,,0,,,76,124
97791,note_on,6,0,1,,,,,,,,0,,,76,0
97792,note_on,1,0,1,,,,,,,,0,,,73,124
97800,note_on,24,0,4,,,,,,,,3,,,57,30
97800,note_on,24,0,2,,,,,,,,1,,,76,124
97800,note_on,24,0,3,,,,,,,,0,,,69,30
97888,note_on,96,0,1,,,,,,,,0,,,73,0
97896,note_on,96,0,4,,,,,,,,3,,,57,0
97896,note_on,96,0,3,,,,,,,,0,,,69,0
97896,note_on,96,0,2,,,,,,,,1,,,76,0
97920,note_on,0,0,7,,,,,,,,2,,,64,30
97920,note_on,264,0,7,,,,,,,,2,,,69,30
97920,note_on,0,0,7,,,,,,,,2,,,57,30
97920,note_on,264,0,5,,,,,,,,4,,,57,30
97920,note_on,0,0,7,,,,,,,,2,,,61,30
98016,note_on,96,0,7,,,,,,,,2,,,57,0
98016,note_on,96,0,5,,,,,,,,4,,,57,0
98032,note_on,144,0,1,,,,,,,,0,,,76,124
98040,note_on,24,0,7,,,,,,,,2,,,45,30
98040,note_on,24,0,5,,,,,,,,4,,,45,30
98112,note_on,72,0,7,,,,,,,,2,,,69,0
98112,note_on,0,0,7,,,,,,,,2,,,61,0
98112,note_on,0,0,7,,,,,,,,2,,,64,0
98128,note_on,96,0,1,,,,,,,,0,,,76,0
98136,note_on,24,0,7,,,,,,,,2,,,45,0
98136,note_on,96,0,5,,,,,,,,4,,,45,0
98152,note_on,24,0,1,,,,,,,,0,,,73,124
98160,note_on,264,0,3,,,,,,,,0,,,73,30
98160,note_on,264,0,4,,,,,,,,3,,,69,30
98160,note_on,264,0,2,,,,,,,,1,,,76,105
98200,note_on,48,0,1,,,,,,,,0,,,73,0
98212,note_on,12,0,1,,,,,,,,0,,,69,124
98256,note_on,96,0,4,,,,,,,,3,,,69,0
98256,note_on,96,0,2,,,,,,,,1,,,76,0
98256,note_on,96,0,3,,,,,,,,0,,,73,0
98260,note_on,48,0,1,,,,,,,,0,,,69,0
98272,note_on,12,0,1,,,,,,,,0,,,76,124
98280,note_on,24,0,4,,,,,,,,3,,,57,30
98280,note_on,24,0,2,,,,,,,,1,,,76,105
98280,note_on,24,0,3,,,,,,,,0,,,73,30
98320,note_on,48,0,1,,,,,,,,0,,,76,0
98332,note_on,12,0,1,,,,,,,,0,,,69,124
98376,note_on,96,0,2,,,,,,,,1,,,76,0
98376,note_on,96,0,3,,,,,,,,0,,,73,0
98376,note_on,96,0,4,,,,,,,,3,,,57,0
98380,note_on,48,0,1,,,,,,,,0,,,69,0
98392,note_on,12,0,1,,,,,,,,0,,,76,124
98400,note_on,0,0,7,,,,,,,,2,,,61,30
98400,note_on,0,0,7,,,,,,,,2,,,57,30
98400,note_on,0,0,7,,,,,,,,2,,,67,30
98400,note_on,264,0,5,,,,,,,,4,,,57,30
98400,note_on,264,0,7,,,,,,,,2,,,64,30
98440,note_on,48,0,1,,,,,,,,0,,,76,0
98452,note_on,12,0,1,,,,,,,,0,,,67,124
98496,note_on,96,0,7,,,,,,,,2,,,57,0
98496,note_on,96,0,5,,,,,,,,4,,,57,0
98500,note_on,48,0,1,,,,,,,,0,,,67,0
98512,note_on,12,0,1,,,,,,,,0,,,76,124
98520,note_on,24,0,5,,,,,,,,4,,,45,30
98520,note_on,24,0,7,,,,,,,,2,,,45,30
98560,note_on,48,0,1,,,,,,,,0,,,76,0
98572,note_on,12,0,1,,,,,,,,0,,,67,124
98592,note_on,0,0,7,,,,,,,,2,,,61,0
98592,note_on,0,0,7,,,,,,,,2,,,67,0
98592,note_on,72,0,7,,,,,,,,2,,,64,0
98616,note_on,96,0,5,,,,,,,,4,,,45,0
98616,note_on,24,0,7,,,,,,,,2,,,45,0
98620,note_on,48,0,1,,,,,,,,0,,,67,0
98640,note_on,264,0,4,,,,,,,,3,,,62,30
98640,note_on,264,0,3,,,,,,,,0,,,69,30
98640,note_on,20,0,1,,,,,,,,0,,,67,124
98640,note_on,264,0,2,,,,,,,,1,,,74,105
98646,note_on,6,0,1,,,,,,,,0,,,67,0
98647,note_on,1,0,1,,,,,,,,0,,,69,124
98653,note_on,6,0,1,,,,,,,,0,,,69,0
98654,note_on,1,0,1,,,,,,,,0,,,67,124
98660,note_on,6,0,1,,,,,,,,0,,,67,0
98661,note_on,1,0,1,,,,,,,,0,,,69,124
98667,note_on,6,0,1,,,,,,,,0,,,69,0
98668,note_on,1,0,1,,,,,,,,0,,,67,124
98674,note_on,6,0,1,,,,,,,,0,,,67,0
98675,note_on,1,0,1,,,,,,,,0,,,69,124
98681,note_on,6,0,1,,,,,,,,0,,,69,0
98682,note_on,1,0,1,,,,,,,,0,,,67,124
98688,note_on,6,0,1,,,,,,,,0,,,67,0
98689,note_on,1,0,1,,,,,,,,0,,,69,124
98695,note_on,6,0,1,,,,,,,,0,,,69,0
98696,note_on,1,0,1,,,,,,,,0,,,67,124
98702,note_on,6,0,1,,,,,,,,0,,,67,0
98703,note_on,1,0,1,,,,,,,,0,,,69,124
98709,note_on,6,0,1,,,,,,,,0,,,69,0
98710,note_on,1,0,1,,,,,,,,0,,,67,124
98716,note_on,6,0,1,,,,,,,,0,,,67,0
98717,note_on,1,0,1,,,,,,,,0,,,69,124
98723,note_on,6,0,1,,,,,,,,0,,,69,0
98724,note_on,1,0,1,,,,,,,,0,,,67,124
98730,note_on,6,0,1,,,,,,,,0,,,67,0
98731,note_on,1,0,1,,,,,,,,0,,,69,124
98736,note_on,96,0,4,,,,,,,,3,,,62,0
98736,note_on,96,0,2,,,,,,,,1,,,74,0
98736,note_on,96,0,3,,,,,,,,0,,,69,0
98737,note_on,6,0,1,,,,,,,,0,,,69,0
98738,note_on,1,0,1,,,,,,,,0,,,67,124
98744,note_on,6,0,1,,,,,,,,0,,,67,0
98745,note_on,1,0,1,,,,,,,,0,,,69,124
98751,note_on,6,0,1,,,,,,,,0,,,69,0
98752,note_on,1,0,1,,,,,,,,0,,,65,124
98760,note_on,24,0,3,,,,,,,,0,,,69,30
98760,note_on,24,0,4,,,,,,,,3,,,50,30
98760,note_on,24,0,2,,,,,,,,1,,,74,105
98848,note_on,96,0,1,,,,,,,,0,,,65,0
98856,note_on,96,0,3,,,,,,,,0,,,69,0
98856,note_on,96,0,2,,,,,,,,1,,,74,0
98856,note_on,96,0,4,,,,,,,,3,,,50,0
98880,note_on,264,0,5,,,,,,,,4,,,50,30
98880,note_on,0,0,7,,,,,,,,2,,,50,30
98880,note_on,0,0,7,,,,,,,,2,,,65,30
98880,note_on,264,0,7,,,,,,,,2,,,62,30
98880,note_on,0,0,7,,,,,,,,2,,,57,30
98976,note_on,96,0,5,,,,,,,,4,,,50,0
98976,note_on,96,0,7,,,,,,,,2,,,50,0
98992,note_on,144,0,1,,,,,,,,0,,,77,124
99000,note_on,24,0,5,,,,,,,,4,,,38,30
99000,note_on,24,0,7,,,,,,,,2,,,38,30
99072,note_on,0,0,7,,,,,,,,2,,,65,0
99072,note_on,72,0,7,,,,,,,,2,,,62,0
99072,note_on,0,0,7,,,,,,,,2,,,57,0
99088,note_on,96,0,1,,,,,,,,0,,,77,0
99096,note_on,96,0,5,,,,,,,,4,,,38,0
99096,note_on,24,0,7,,,,,,,,2,,,38,0
99112,note_on,24,0,1,,,,,,,,0,,,70,124
99120,note_on,264,0,4,,,,,,,,3,,,67,30
99120,note_on,264,0,3,,,,,,,,0,,,70,30
99120,note_on,264,0,2,,,,,,,,1,,,74,105
99216,note_on,96,0,2,,,,,,,,1,,,74,0
99216,note_on,96,0,3,,,,,,,,0,,,70,0
99216,note_on,96,0,4,,,,,,,,3,,,67,0
99240,note_on,24,0,4,,,,,,,,3,,,55,30
99240,note_on,24,0,3,,,,,,,,0,,,70,30
99240,note_on,24,0,2,,,,,,,,1,,,74,105
99336,note_on,96,0,2,,,,,,,,1,,,74,0
99336,note_on,96,0,4,,,,,,,,3,,,55,0
99336,note_on,96,0,3,,,,,,,,0,,,70,0
99360,note_on,0,0,7,,,,,,,,2,,,64,30
99360,note_on,0,0,7,,,,,,,,2,,,55,30
99360,note_on,264,0,5,,,,,,,,4,,,55,30
99360,note_on,264,0,7,,,,,,,,2,,,58,30
99384,note_on,272,0,1,,,,,,,,0,,,70,0
99392,note_on,8,0,1,,,,,,,,0,,,72,124
99424,note_on,32,0,1,,,,,,,,0,,,72,0
99432,note_on,8,0,1,,,,,,,,0,,,74,124
99456,note_on,96,0,5,,,,,,,,4,,,55,0
99456,note_on,96,0,7,,,,,,,,2,,,55,0
99464,note_on,32,0,1,,,,,,,,0,,,74,0
99472,note_on,8,0,1,,,,,,,,0,,,76,124
99480,note_on,24,0,5,,,,,,,,4,,,43,30
99480,note_on,24,0,7,,,,,,,,2,,,43,30
99504,note_on,32,0,1,,,,,,,,0,,,76,0
99512,note_on,8,0,1,,,,,,,,0,,,77,124
99544,note_on,32,0,1,,,,,,,,0,,,77,0
99552,note_on,0,0,7,,,,,,,,2,,,58,0
99552,note_on,8,0,1,,,,,,,,0,,,79,124
99552,note_on,72,0,7,,,,,,,,2,,,64,0
99576,note_on,24,0,7,,,,,,,,2,,,43,0
99576,note_on,96,0,5,,,,,,,,4,,,43,0
99584,note_on,32,0,1,,,,,,,,0,,,79,0
99600,note_on,16,0,1,,,,,,,,0,,,73,124
99600,note_on,264,0,4,,,,,,,,3,,,69,30
99600,note_on,264,0,2,,,,,,,,1,,,76,105
99600,note_on,264,0,3,,,,,,,,0,,,73,30
99696,note_on,96,0,3,,,,,,,,0,,,73,0
99696,note_on,96,0,2,,,,,,,,1,,,76,0
99696,note_on,96,0,4,,,,,,,,3,,,69,0
99720,note_on,24,0,2,,,,,,,,1,,,76,105
99720,note_on,24,0,4,,,,,,,,3,,,57,30
99720,note_on,24,0,3,,,,,,,,0,,,73,30
99816,note_on,96,0,4,,,,,,,,3,,,57,0
99816,note_on,96,0,2,,,,,,,,1,,,76,0
99816,note_on,96,0,3,,,,,,,,0,,,73,0
99840,note_on,264,0,5,,,,,,,,4,,,57,30
99840,note_on,264,0,7,,,,,,,,2,,,57,30
99840,note_on,0,0,7,,,,,,,,2,,,65,30
99840,note_on,0,0,7,,,,,,,,2,,,61,30
99872,note_on,272,0,1,,,,,,,,0,,,73,0
99880,note_on,8,0,1,,,,,,,,0,,,74,124
99912,note_on,32,0,1,,,,,,,,0,,,74,0
99920,note_on,8,0,1,,,,,,,,0,,,76,124
99936,note_on,96,0,5,,,,,,,,4,,,57,0
99936,note_on,96,0,7,,,,,,,,2,,,57,0
99952,note_on,32,0,1,,,,,,,,0,,,76,0
99960,note_on,24,0,5,,,,,,,,4,,,45,30
99960,note_on,8,0,1,,,,,,,,0,,,77,124
99960,note_on,24,0,7,,,,,,,,2,,,45,30
99992,note_on,32,0,1,,,,,,,,0,,,77,0
100000,note_on,8,0,1,,,,,,,,0,,,79,124
100032,note_on,32,0,1,,,,,,,,0,,,79,0
100032,note_on,0,0,7,,,,,,,,2,,,65,0
100032,note_on,72,0,7,,,,,,,,2,,,61,0
100040,note_on,8,0,1,,,,,,,,0,,,81,124
100056,note_on,24,0,7,,,,,,,,2,,,45,0
100056,note_on,96,0,5,,,,,,,,4,,,45,0
100072,note_on,32,0,1,,,,,,,,0,,,81,0
100080,note_on,264,0,2,,,,,,,,1,,,77,105
100080,note_on,8,0,1,,,,,,,,0,,,74,124
100080,note_on,264,0,3,,,,,,,,0,,,74,30
100080,note_on,264,0,4,,,,,,,,3,,,70,30
100176,note_on,96,0,3,,,,,,,,0,,,74,0
100176,note_on,96,0,4,,,,,,,,3,,,70,0
100176,note_on,96,0,2,,,,,,,,1,,,77,0
100200,note_on,24,0,4,,,,,,,,3,,,58,30
100200,note_on,24,0,3,,,,,,,,0,,,74,30
100200,note_on,24,0,2,,,,,,,,1,,,77,105
100296,note_on,96,0,4,,,,,,,,3,,,58,0
100296,note_on,96,0,3,,,,,,,,0,,,74,0
100296,note_on,96,0,2,,,,,,,,1,,,77,0
100320,note_on,264,0,7,,,,,,,,2,,,67,30
100320,note_on,264,0,5,,,,,,,,4,,,58,30
100320,note_on,0,0,7,,,,,,,,2,,,58,30
100320,note_on,0,0,7,,,,,,,,2,,,62,30
100352,note_on,272,0,1,,,,,,,,0,,,74,0
100360,note_on,8,0,1,,,,,,,,0,,,76,124
100392,note_on,32,0,1,,,,,,,,0,,,76,0
100400,note_on,8,0,1,,,,,,,,0,,,77,124
100416,note_on,96,0,7,,,,,,,,2,,,58,0
100416,note_on,96,0,5,,,,,,,,4,,,58,0
100432,note_on,32,0,1,,,,,,,,0,,,77,0
100440,note_on,8,0,1,,,,,,,,0,,,79,124
100440,note_on,24,0,7,,,,,,,,2,,,46,30
100440,note_on,24,0,5,,,,,,,,4,,,46,30
100472,note_on,32,0,1,,,,,,,,0,,,79,0
100480,note_on,8,0,1,,,,,,,,0,,,81,124
100512,note_on,0,0,7,,,,,,,,2,,,67,0
100512,note_on,32,0,1,,,,,,,,0,,,81,0
100512,note_on,72,0,7,,,,,,,,2,,,62,0
100520,note_on,8,0,1,,,,,,,,0,,,82,124
100536,note_on,96,0,5,,,,,,,,4,,,46,0
100536,note_on,24,0,7,,,,,,,,2,,,46,0
100552,note_on,32,0,1,,,,,,,,0,,,82,0
100560,note_on,8,0,1,,,,,,,,0,,,76,124
100560,note_on,264,0,4,,,,,,,,3,,,73,30
100560,note_on,264,0,2,,,,,,,,1,,,79,105
100560,note_on,264,0,3,,,,,,,,0,,,76,30
100656,note_on,96,0,4,,,,,,,,3,,,73,0
100656,note_on,96,0,2,,,,,,,,1,,,79,0
100656,note_on,96,0,3,,,,,,,,0,,,76,0
100680,note_on,24,0,4,,,,,,,,3,,,61,30
100680,note_on,24,0,2,,,,,,,,1,,,79,105
100680,note_on,24,0,3,,,,,,,,0,,,76,30
100776,note_on,96,0,2,,,,,,,,1,,,79,0
100776,note_on,96,0,3,,,,,,,,0,,,76,0
100776,note_on,96,0,4,,,,,,,,3,,,61,0
100800,note_on,264,0,7,,,,,,,,2,,,64,30
100800,note_on,0,0,7,,,,,,,,2,,,61,30
100800,note_on,264,0,5,,,,,,,,4,,,57,30
100800,note_on,0,0,7,,,,,,,,2,,,69,30
100800,note_on,0,0,7,,,,,,,,2,,,57,30
100832,note_on,272,0,1,,,,,,,,0,,,76,0
100840,note_on,8,0,1,,,,,,,,0,,,77,124
100872,note_on,32,0,1,,,,,,,,0,,,77,0
100880,note_on,8,0,1,,,,,,,,0,,,79,124
100896,note_on,96,0,5,,,,,,,,4,,,57,0
100896,note_on,96,0,7,,,,,,,,2,,,57,0
100912,note_on,32,0,1,,,,,,,,0,,,79,0
100920,note_on,24,0,7,,,,,,,,2,,,45,30
100920,note_on,24,0,5,,,,,,,,4,,,45,30
100920,note_on,8,0,1,,,,,,,,0,,,81,124
100952,note_on,32,0,1,,,,,,,,0,,,81,0
100960,note_on,8,0,1,,,,,,,,0,,,83,124
100992,note_on,72,0,7,,,,,,,,2,,,64,0
100992,note_on,0,0,7,,,,,,,,2,,,69,0
100992,note_on,0,0,7,,,,,,,,2,,,61,0
100992,note_on,32,0,1,,,,,,,,0,,,83,0
101000,note_on,8,0,1,,,,,,,,0,,,85,124
101016,note_on,24,0,7,,,,,,,,2,,,45,0
101016,note_on,96,0,5,,,,,,,,4,,,45,0
101032,note_on,32,0,1,,,,,,,,0,,,85,0
101040,note_on,264,0,2,,,,,,,,1,,,77,124
101040,note_on,264,0,4,,,,,,,,3,,,62,30
101040,note_on,8,0,1,,,,,,,,0,,,86,124
101040,note_on,264,0,3,,,,,,,,0,,,69,30
101136,note_on,96,0,2,,,,,,,,1,,,77,0
101136,note_on,96,0,4,,,,,,,,3,,,62,0
101136,note_on,96,0,3,,,,,,,,0,,,69,0
101136,note_on,96,0,1,,,,,,,,0,,,86,0
101160,note_on,24,0,3,,,,,,,,0,,,69,30
101160,note_on,24,0,2,,,,,,,,1,,,77,124
101160,note_on,24,0,4,,,,,,,,3,,,62,30
101160,note_on,24,0,1,,,,,,,,0,,,74,124
101256,note_on,96,0,2,,,,,,,,1,,,77,0
101256,note_on,96,0,3,,,,,,,,0,,,69,0
101256,note_on,96,0,4,,,,,,,,3,,,62,0
101256,note_on,96,0,1,,,,,,,,0,,,74,0
101280,note_on,264,0,5,,,,,,,,4,,,57,30
101280,note_on,264,0,7,,,,,,,,2,,,57,30
101280,note_on,0,0,7,,,,,,,,2,,,61,30
101280,note_on,0,0,7,,,,,,,,2,,,69,30
101280,note_on,24,0,1,,,,,,,,0,,,76,124
101280,note_on,0,0,7,,,,,,,,2,,,64,30
101286,note_on,6,0,1,,,,,,,,0,,,76,0
101287,note_on,1,0,1,,,,,,,,0,,,77,124
101293,note_on,6,0,1,,,,,,,,0,,,77,0
101294,note_on,1,0,1,,,,,,,,0,,,76,124
101300,note_on,6,0,1,,,,,,,,0,,,76,0
101301,note_on,1,0,1,,,,,,,,0,,,77,124
101307,note_on,6,0,1,,,,,,,,0,,,77,0
101308,note_on,1,0,1,,,,,,,,0,,,76,124
101314,note_on,6,0,1,,,,,,,,0,,,76,0
101315,note_on,1,0,1,,,,,,,,0,,,77,124
101321,note_on,6,0,1,,,,,,,,0,,,77,0
101322,note_on,1,0,1,,,,,,,,0,,,76,124
101328,note_on,6,0,1,,,,,,,,0,,,76,0
101329,note_on,1,0,1,,,,,,,,0,,,77,124
101335,note_on,6,0,1,,,,,,,,0,,,77,0
101336,note_on,1,0,1,,,,,,,,0,,,76,124
101342,note_on,6,0,1,,,,,,,,0,,,76,0
101343,note_on,1,0,1,,,,,,,,0,,,77,124
101349,note_on,6,0,1,,,,,,,,0,,,77,0
101350,note_on,1,0,1,,,,,,,,0,,,76,124
101356,note_on,6,0,1,,,,,,,,0,,,76,0
101357,note_on,1,0,1,,,,,,,,0,,,77,124
101363,note_on,6,0,1,,,,,,,,0,,,77,0
101364,note_on,1,0,1,,,,,,,,0,,,76,124
101370,note_on,6,0,1,,,,,,,,0,,,76,0
101371,note_on,1,0,1,,,,,,,,0,,,77,124
101376,note_on,96,0,5,,,,,,,,4,,,57,0
101376,note_on,96,0,7,,,,,,,,2,,,57,0
101377,note_on,6,0,1,,,,,,,,0,,,77,0
101378,note_on,1,0,1,,,,,,,,0,,,76,124
101384,note_on,6,0,1,,,,,,,,0,,,76,0
101385,note_on,1,0,1,,,,,,,,0,,,77,124
101391,note_on,6,0,1,,,,,,,,0,,,77,0
101392,note_on,1,0,1,,,,,,,,0,,,76,124
101398,note_on,6,0,1,,,,,,,,0,,,76,0
101399,note_on,1,0,1,,,,,,,,0,,,77,124
101400,note_on,24,0,7,,,,,,,,2,,,45,30
101400,note_on,24,0,5,,,,,,,,4,,,45,30
101405,note_on,6,0,1,,,,,,,,0,,,77,0
101406,note_on,1,0,1,,,,,,,,0,,,76,124
101412,note_on,6,0,1,,,,,,,,0,,,76,0
101413,note_on,1,0,1,,,,,,,,0,,,77,124
101419,note_on,6,0,1,,,,,,,,0,,,77,0
101420,note_on,1,0,1,,,,,,,,0,,,76,124
101426,note_on,6,0,1,,,,,,,,0,,,76,0
101427,note_on,1,0,1,,,,,,,,0,,,77,124
101433,note_on,6,0,1,,,,,,,,0,,,77,0
101434,note_on,1,0,1,,,,,,,,0,,,76,124
101440,note_on,6,0,1,,,,,,,,0,,,76,0
101441,note_on,1,0,1,,,,,,,,0,,,77,124
101447,note_on,6,0,1,,,,,,,,0,,,77,0
101448,note_on,1,0,1,,,,,,,,0,,,74,124
101472,note_on,72,0,7,,,,,,,,2,,,69,0
101472,note_on,0,0,7,,,,,,,,2,,,61,0
101472,note_on,0,0,7,,,,,,,,2,,,64,0
101496,note_on,24,0,7,,,,,,,,2,,,45,0
101496,note_on,96,0,5,,,,,,,,4,,,45,0
101496,note_on,48,0,1,,,,,,,,0,,,74,0
101520,note_on,264,0,2,,,,,,,,1,,,77,124
101520,note_on,24,0,1,,,,,,,,0,,,74,124
101520,note_on,264,0,4,,,,,,,,3,,,62,30
101520,note_on,264,0,3,,,,,,,,0,,,74,30
101616,note_on,96,0,2,,,,,,,,1,,,77,0
101616,note_on,96,0,3,,,,,,,,0,,,74,0
101616,note_on,96,0,4,,,,,,,,3,,,62,0
101640,note_on,24,0,2,,,,,,,,1,,,77,124
101640,note_on,24,0,4,,,,,,,,3,,,56,30
101640,note_on,24,0,3,,,,,,,,0,,,71,30
101736,note_on,96,0,2,,,,,,,,1,,,77,0
101736,note_on,96,0,4,,,,,,,,3,,,56,0
101736,note_on,96,0,3,,,,,,,,0,,,71,0
101760,note_on,0,0,7,,,,,,,,2,,,65,30
101760,note_on,0,0,7,,,,,,,,2,,,56,30
101760,note_on,264,0,7,,,,,,,,2,,,71,30
101760,note_on,264,0,5,,,,,,,,4,,,56,30
101760,note_on,0,0,7,,,,,,,,2,,,62,30
101784,note_on,264,0,1,,,,,,,,0,,,74,0
101790,note_on,6,0,1,,,,,,,,0,,,74,124
101814,note_on,24,0,1,,,,,,,,0,,,74,0
101820,note_on,6,0,1,,,,,,,,0,,,73,124
101844,note_on,24,0,1,,,,,,,,0,,,73,0
101850,note_on,6,0,1,,,,,,,,0,,,74,124
101856,note_on,96,0,5,,,,,,,,4,,,56,0
101856,note_on,96,0,7,,,,,,,,2,,,56,0
101874,note_on,24,0,1,,,,,,,,0,,,74,0
101880,note_on,24,0,7,,,,,,,,2,,,44,30
101880,note_on,24,0,5,,,,,,,,4,,,44,30
101880,note_on,6,0,1,,,,,,,,0,,,77,124
101904,note_on,24,0,1,,,,,,,,0,,,77,0
101910,note_on,6,0,1,,,,,,,,0,,,74,124
101934,note_on,24,0,1,,,,,,,,0,,,74,0
101940,note_on,6,0,1,,,,,,,,0,,,73,124
101952,note_on,72,0,7,,,,,,,,2,,,71,0
101952,note_on,0,0,7,,,,,,,,2,,,65,0
101952,note_on,0,0,7,,,,,,,,2,,,62,0
101964,note_on,24,0,1,,,,,,,,0,,,73,0
101970,note_on,6,0,1,,,,,,,,0,,,74,124
101976,note_on,24,0,7,,,,,,,,2,,,44,0
101976,note_on,96,0,5,,,,,,,,4,,,44,0
101994,note_on,24,0,1,,,,,,,,0,,,74,0
102000,note_on,264,0,3,,,,,,,,0,,,73,30
102000,note_on,6,0,1,,,,,,,,0,,,73,124
102000,note_on,264,0,4,,,,,,,,3,,,69,30
102000,note_on,24,0,7,,,,,,,,2,,,57,30
102000,note_on,264,0,2,,,,,,,,1,,,76,124
102096,note_on,96,0,3,,,,,,,,0,,,73,0
102096,note_on,96,0,7,,,,,,,,2,,,57,0
102096,note_on,96,0,2,,,,,,,,1,,,76,0
102096,note_on,96,0,1,,,,,,,,0,,,73,0
102096,note_on,96,0,4,,,,,,,,3,,,69,0
102120,note_on,24,0,7,,,,,,,,2,,,45,30
102120,note_on,24,0,2,,,,,,,,1,,,77,124
102120,note_on,24,0,3,,,,,,,,0,,,74,30
102120,note_on,24,0,1,,,,,,,,0,,,74,124
102120,note_on,24,0,4,,,,,,,,3,,,62,30
102216,note_on,96,0,3,,,,,,,,0,,,74,0
102216,note_on,96,0,1,,,,,,,,0,,,74,0
102216,note_on,96,0,4,,,,,,,,3,,,62,0
102216,note_on,96,0,2,,,,,,,,1,,,77,0
102216,note_on,96,0,7,,,,,,,,2,,,45,0
102240,note_on,24,0,7,,,,,,,,2,,,64,30
102240,note_on,24,0,1,,,,,,,,0,,,76,124
102240,note_on,0,0,7,,,,,,,,2,,,61,30
102240,note_on,264,0,5,,,,,,,,4,,,57,30
102240,note_on,0,0,7,,,,,,,,2,,,69,30
102246,note_on,6,0,1,,,,,,,,0,,,76,0
102247,note_on,1,0,1,,,,,,,,0,,,77,124
102253,note_on,6,0,1,,,,,,,,0,,,77,0
102254,note_on,1,0,1,,,,,,,,0,,,76,124
102260,note_on,6,0,1,,,,,,,,0,,,76,0
102261,note_on,1,0,1,,,,,,,,0,,,77,124
102267,note_on,6,0,1,,,,,,,,0,,,77,0
102268,note_on,1,0,1,,,,,,,,0,,,76,124
102274,note_on,6,0,1,,,,,,,,0,,,76,0
102275,note_on,1,0,1,,,,,,,,0,,,77,124
102281,note_on,6,0,1,,,,,,,,0,,,77,0
102282,note_on,1,0,1,,,,,,,,0,,,76,124
102288,note_on,6,0,1,,,,,,,,0,,,76,0
102289,note_on,1,0,1,,,,,,,,0,,,77,124
102295,note_on,6,0,1,,,,,,,,0,,,77,0
102296,note_on,1,0,1,,,,,,,,0,,,76,124
102302,note_on,6,0,1,,,,,,,,0,,,76,0
102303,note_on,1,0,1,,,,,,,,0,,,77,124
102309,note_on,6,0,1,,,,,,,,0,,,77,0
102310,note_on,1,0,1,,,,,,,,0,,,76,124
102316,note_on,6,0,1,,,,,,,,0,,,76,0
102317,note_on,1,0,1,,,,,,,,0,,,77,124
102323,note_on,6,0,1,,,,,,,,0,,,77,0
102324,note_on,1,0,1,,,,,,,,0,,,76,124
102330,note_on,6,0,1,,,,,,,,0,,,76,0
102331,note_on,1,0,1,,,,,,,,0,,,77,124
102336,note_on,96,0,5,,,,,,,,4,,,57,0
102337,note_on,6,0,1,,,,,,,,0,,,77,0
102338,note_on,1,0,1,,,,,,,,0,,,76,124
102344,note_on,6,0,1,,,,,,,,0,,,76,0
102345,note_on,1,0,1,,,,,,,,0,,,77,124
102351,note_on,6,0,1,,,,,,,,0,,,77,0
102352,note_on,1,0,1,,,,,,,,0,,,76,124
102358,note_on,6,0,1,,,,,,,,0,,,76,0
102359,note_on,1,0,1,,,,,,,,0,,,77,124
102360,note_on,24,0,5,,,,,,,,4,,,45,30
102365,note_on,6,0,1,,,,,,,,0,,,77,0
102366,note_on,1,0,1,,,,,,,,0,,,76,124
102372,note_on,6,0,1,,,,,,,,0,,,76,0
102373,note_on,1,0,1,,,,,,,,0,,,77,124
102379,note_on,6,0,1,,,,,,,,0,,,77,0
102380,note_on,1,0,1,,,,,,,,0,,,76,124
102386,note_on,6,0,1,,,,,,,,0,,,76,0
102387,note_on,1,0,1,,,,,,,,0,,,77,124
102393,note_on,6,0,1,,,,,,,,0,,,77,0
102394,note_on,1,0,1,,,,,,,,0,,,76,124
102400,note_on,6,0,1,,,,,,,,0,,,76,0
102401,note_on,1,0,1,,,,,,,,0,,,77,124
102407,note_on,6,0,1,,,,,,,,0,,,77,0
102408,note_on,1,0,1,,,,,,,,0,,,74,124
102432,note_on,192,0,7,,,,,,,,2,,,61,0
102432,note_on,0,0,7,,,,,,,,2,,,64,0
102432,note_on,0,0,7,,,,,,,,2,,,69,0
102456,note_on,48,0,1,,,,,,,,0,,,74,0
102456,note_on,96,0,5,,,,,,,,4,,,45,0
102480,note_on,264,0,4,,,,,,,,3,,,62,105
102480,note_on,264,0,2,,,,,,,,1,,,77,105
102480,note_on,264,0,3,,,,,,,,0,,,74,30
102480,note_on,24,0,1,,,,,,,,0,,,74,124
102576,note_on,96,0,2,,,,,,,,1,,,77,0
102576,note_on,96,0,4,,,,,,,,3,,,62,0
102576,note_on,96,0,3,,,,,,,,0,,,74,0
102600,note_on,24,0,2,,,,,,,,1,,,76,105
102600,note_on,24,0,3,,,,,,,,0,,,73,30
102600,note_on,24,0,4,,,,,,,,3,,,57,105
102672,note_on,192,0,1,,,,,,,,0,,,74,0
102696,note_on,96,0,4,,,,,,,,3,,,57,0
102696,note_on,96,0,2,,,,,,,,1,,,76,0
102696,note_on,96,0,3,,,,,,,,0,,,73,0
102720,note_on,0,0,7,,,,,,,,2,,,57,105
102720,note_on,264,0,5,,,,,,,,4,,,57,105
102720,note_on,0,0,7,,,,,,,,2,,,73,105
102720,note_on,0,0,7,,,,,,,,2,,,64,105
102720,note_on,288,0,7,,,,,,,,2,,,69,105
102720,note_on,12096,0,6,,,,,,,,5,,,45,105
102816,note_on,96,0,7,,,,,,,,2,,,57,0
102816,note_on,96,0,6,,,,,,,,5,,,45,0
102816,note_on,96,0,5,,,,,,,,4,,,57,0
102840,note_on,24,0,5,,,,,,,,4,,,45,105
102840,note_on,24,0,6,,,,,,,,5,,,33,105
102840,note_on,24,0,7,,,,,,,,2,,,45,105
102912,note_on,0,0,7,,,,,,,,2,,,64,0
102912,note_on,72,0,7,,,,,,,,2,,,69,0
102912,note_on,0,0,7,,,,,,,,2,,,73,0
102936,note_on,24,0,7,,,,,,,,2,,,45,0
102936,note_on,96,0,5,,,,,,,,4,,,45,0
102936,note_on,96,0,6,,,,,,,,5,,,33,0
102960,note_on,264,0,3,,,,,,,,0,,,76,30
102960,note_on,264,0,2,,,,,,,,1,,,79,105
102960,note_on,264,0,4,,,,,,,,3,,,69,105
103056,note_on,96,0,2,,,,,,,,1,,,79,0
103056,note_on,96,0,4,,,,,,,,3,,,69,0
103056,note_on,96,0,3,,,,,,,,0,,,76,0
103080,note_on,24,0,3,,,,,,,,0,,,74,30
103080,note_on,24,0,2,,,,,,,,1,,,77,105
103080,note_on,24,0,4,,,,,,,,3,,,62,105
103176,note_on,96,0,2,,,,,,,,1,,,77,0
103176,note_on,96,0,4,,,,,,,,3,,,62,0
103176,note_on,96,0,3,,,,,,,,0,,,74,0
103200,note_on,264,0,5,,,,,,,,4,,,50,105
103200,note_on,0,0,7,,,,,,,,2,,,50,105
103200,note_on,0,0,7,,,,,,,,2,,,69,105
103200,note_on,0,0,7,,,,,,,,2,,,74,105
103200,note_on,264,0,6,,,,,,,,5,,,38,105
103200,note_on,264,0,7,,,,,,,,2,,,65,105
103296,note_on,96,0,5,,,,,,,,4,,,50,0
103296,note_on,96,0,6,,,,,,,,5,,,38,0
103296,note_on,96,0,7,,,,,,,,2,,,50,0
103320,note_on,24,0,6,,,,,,,,5,,,26,105
103320,note_on,24,0,5,,,,,,,,4,,,38,105
103320,note_on,24,0,7,,,,,,,,2,,,38,105
103392,note_on,0,0,7,,,,,,,,2,,,69,0
103392,note_on,72,0,7,,,,,,,,2,,,65,0
103392,note_on,0,0,7,,,,,,,,2,,,74,0
103416,note_on,24,0,7,,,,,,,,2,,,38,0
103416,note_on,96,0,6,,,,,,,,5,,,26,0
103416,note_on,96,0,5,,,,,,,,4,,,38,0
103440,note_on,264,0,3,,,,,,,,0,,,74,30
103440,note_on,264,0,2,,,,,,,,1,,,76,105
103440,note_on,264,0,4,,,,,,,,3,,,69,105
103536,note_on,96,0,4,,,,,,,,3,,,69,0
103536,note_on,96,0,2,,,,,,,,1,,,76,0
103536,note_on,96,0,3,,,,,,,,0,,,74,0
103560,note_on,24,0,3,,,,,,,,0,,,73,30
103560,note_on,24,0,2,,,,,,,,1,,,76,105
103560,note_on,24,0,4,,,,,,,,3,,,57,105
103656,note_on,96,0,3,,,,,,,,0,,,73,0
103656,note_on,96,0,2,,,,,,,,1,,,76,0
103656,note_on,96,0,4,,,,,,,,3,,,57,0
103680,note_on,0,0,7,,,,,,,,2,,,57,105
103680,note_on,0,0,7,,,,,,,,2,,,73,105
103680,note_on,0,0,7,,,,,,,,2,,,69,105
103680,note_on,264,0,6,,,,,,,,5,,,45,105
103680,note_on,264,0,7,,,,,,,,2,,,76,105
103680,note_on,264,0,5,,,,,,,,4,,,57,105
103680,set_tempo,10800,1,0,,,,,,2222222,,,,,,
103776,note_on,96,0,7,,,,,,,,2,,,57,0
103776,note_on,96,0,5,,,,,,,,4,,,57,0
103776,note_on,96,0,6,,,,,,,,5,,,45,0
103800,note_on,24,0,7,,,,,,,,2,,,45,105
103800,note_on,24,0,5,,,,,,,,4,,,45,105
103800,note_on,24,0,6,,,,,,,,5,,,33,105
103872,note_on,72,0,7,,,,,,,,2,,,76,0
103872,note_on,0,0,7,,,,,,,,2,,,73,0
103872,note_on,0,0,7,,,,,,,,2,,,69,0
103896,note_on,96,0,6,,,,,,,,5,,,33,0
103896,note_on,24,0,7,,,,,,,,2,,,45,0
103896,note_on,96,0,5,,,,,,,,4,,,45,0
103920,note_on,264,0,4,,,,,,,,3,,,57,105
103920,note_on,24,0,7,,,,,,,,2,,,77,105
103920,note_on,0,0,7,,,,,,,,2,,,69,105
103920,note_on,0,0,7,,,,,,,,2,,,50,105
103920,note_on,0,0,7,,,,,,,,2,,,74,105
103920,note_on,24,0,5,,,,,,,,4,,,50,105
103920,note_on,264,0,2,,,,,,,,1,,,77,105
103920,note_on,24,0,6,,,,,,,,5,,,38,105
103920,note_on,264,0,3,,,,,,,,0,,,74,30
103920,set_tempo,240,1,0,,,,,,2608696,,,,,,
104160,set_tempo,240,1,0,,,,,,3157895,,,,,,
104304,note_on,0,0,7,,,,,,,,2,,,77,0
104304,note_on,384,0,2,,,,,,,,1,,,77,0
104304,note_on,0,0,7,,,,,,,,2,,,69,0
104304,note_on,384,0,6,,,,,,,,5,,,38,0
104304,note_on,384,0,7,,,,,,,,2,,,50,0
104304,note_on,0,0,7,,,,,,,,2,,,74,0
104304,note_on,384,0,4,,,,,,,,3,,,57,0
104304,note_on,384,0,3,,,,,,,,0,,,74,0
104304,note_on,384,0,5,,,,,,,,4,,,50,0
104400,set_tempo,240,1,0,,,,,,545455,,,,,,
105240,note_on,936,0,4,,,,,,,,3,,,65,105
105240,note_on,936,0,6,,,,,,,,5,,,38,105
105240,note_on,936,0,3,,,,,,,,0,,,69,30
105240,note_on,936,0,2,,,,,,,,1,,,69,105
105240,note_on,2568,0,1,,,,,,,,0,,,69,124
105240,note_on,936,0,5,,,,,,,,4,,,50,105
105240,note_on,936,0,7,,,,,,,,2,,,50,105
105336,note_on,96,0,6,,,,,,,,5,,,38,0
105336,note_on,96,0,5,,,,,,,,4,,,50,0
105336,note_on,96,0,3,,,,,,,,0,,,69,0
105336,note_on,96,0,2,,,,,,,,1,,,69,0
105336,note_on,96,0,7,,,,,,,,2,,,50,0
105336,note_on,96,0,1,,,,,,,,0,,,69,0
105336,note_on,96,0,4,,,,,,,,3,,,65,0
105360,note_on,24,0,6,,,,,,,,5,,,41,105
105360,note_on,24,0,5,,,,,,,,4,,,53,105
105360,time_signature,960,1,0,2,4,24,8,,,,,,,,
105360,note_on,24,0,1,,,,,,,,0,,,74,124
105360,note_on,24,0,4,,,,,,,,3,,,69,105
105360,note_on,24,0,2,,,,,,,,1,,,74,105
105360,note_on,24,0,7,,,,,,,,2,,,62,105
105360,note_on,0,0,7,,,,,,,,2,,,53,105
105360,note_on,0,0,7,,,,,,,,2,,,57,105
105360,note_on,24,0,3,,,,,,,,0,,,74,105
105456,note_on,96,0,4,,,,,,,,3,,,69,0
105456,note_on,96,0,7,,,,,,,,2,,,53,0
105456,note_on,96,0,6,,,,,,,,5,,,41,0
105456,note_on,96,0,5,,,,,,,,4,,,53,0
105456,note_on,0,0,7,,,,,,,,2,,,62,0
105480,note_on,24,0,4,,,,,,,,3,,,65,105
105480,note_on,24,0,6,,,,,,,,5,,,38,105
105480,note_on,24,0,7,,,,,,,,2,,,65,105
105480,note_on,0,0,7,,,,,,,,2,,,50,105
105480,note_on,24,0,5,,,,,,,,4,,,50,105
105552,note_on,192,0,2,,,,,,,,1,,,74,0
105552,note_on,72,0,7,,,,,,,,2,,,57,0
105552,note_on,192,0,3,,,,,,,,0,,,74,0
105552,note_on,192,0,1,,,,,,,,0,,,74,0
105576,note_on,96,0,5,,,,,,,,4,,,50,0
105576,note_on,0,0,7,,,,,,,,2,,,65,0
105576,note_on,24,0,7,,,,,,,,2,,,50,0
105576,note_on,96,0,6,,,,,,,,5,,,38,0
105576,note_on,96,0,4,,,,,,,,3,,,65,0
105600,note_on,0,0,7,,,,,,,,2,,,69,105
105600,note_on,0,0,7,,,,,,,,2,,,49,105
105600,note_on,48,0,2,,,,,,,,1,,,76,105
105600,note_on,0,0,7,,,,,,,,2,,,57,105
105600,note_on,24,0,5,,,,,,,,4,,,49,105
105600,note_on,24,0,7,,,,,,,,2,,,64,105
105600,note_on,48,0,1,,,,,,,,0,,,76,124
105600,note_on,24,0,4,,,,,,,,3,,,64,105
105600,note_on,48,0,3,,,,,,,,0,,,76,105
105600,note_on,24,0,6,,,,,,,,5,,,37,105
105696,note_on,96,0,6,,,,,,,,5,,,37,0
105696,note_on,96,0,7,,,,,,,,2,,,49,0
105696,note_on,96,0,5,,,,,,,,4,,,49,0
105696,note_on,96,0,4,,,,,,,,3,,,64,0
105720,note_on,24,0,7,,,,,,,,2,,,45,105
105720,note_on,24,0,5,,,,,,,,4,,,45,105
105720,note_on,24,0,4,,,,,,,,3,,,61,105
105720,note_on,24,0,6,,,,,,,,5,,,33,105
105792,note_on,0,0,7,,,,,,,,2,,,69,0
105792,note_on,192,0,3,,,,,,,,0,,,76,0
105792,note_on,192,0,1,,,,,,,,0,,,76,0
105792,note_on,0,0,7,,,,,,,,2,,,57,0
105792,note_on,192,0,2,,,,,,,,1,,,76,0
105792,note_on,72,0,7,,,,,,,,2,,,64,0
105816,note_on,96,0,6,,,,,,,,5,,,33,0
105816,note_on,96,0,4,,,,,,,,3,,,61,0
105816,note_on,24,0,7,,,,,,,,2,,,45,0
105816,note_on,96,0,5,,,,,,,,4,,,45,0
105840,note_on,24,0,7,,,,,,,,2,,,65,105
105840,note_on,0,0,7,,,,,,,,2,,,50,105
105840,note_on,48,0,2,,,,,,,,1,,,77,105
105840,note_on,24,0,4,,,,,,,,3,,,57,105
105840,note_on,24,0,6,,,,,,,,5,,,38,105
105840,note_on,0,0,7,,,,,,,,2,,,65,105
105840,note_on,24,0,5,,,,,,,,4,,,50,105
105840,note_on,48,0,3,,,,,,,,0,,,77,105
105840,note_on,48,0,1,,,,,,,,0,,,77,124
105936,note_on,96,0,5,,,,,,,,4,,,50,0
105936,note_on,96,0,6,,,,,,,,5,,,38,0
105936,note_on,0,0,7,,,,,,,,2,,,65,0
105936,note_on,96,0,7,,,,,,,,2,,,50,0
105960,note_on,0,0,7,,,,,,,,2,,,62,105
105960,note_on,24,0,6,,,,,,,,5,,,50,105
105960,note_on,24,0,5,,,,,,,,4,,,62,105
105960,note_on,24,0,7,,,,,,,,2,,,69,105
106032,note_on,192,0,4,,,,,,,,3,,,57,0
106056,note_on,96,0,7,,,,,,,,2,,,62,0
106056,note_on,0,0,7,,,,,,,,2,,,69,0
106056,note_on,96,0,6,,,,,,,,5,,,50,0
106056,note_on,96,0,5,,,,,,,,4,,,62,0
106080,note_on,24,0,7,,,,,,,,2,,,58,105
106080,note_on,0,0,7,,,,,,,,2,,,74,105
106080,note_on,24,0,5,,,,,,,,4,,,58,105
106080,note_on,24,0,6,,,,,,,,5,,,46,105
106128,note_on,288,0,1,,,,,,,,0,,,77,0
106128,note_on,288,0,2,,,,,,,,1,,,77,0
106128,note_on,288,0,3,,,,,,,,0,,,77,0
106128,note_on,48,0,7,,,,,,,,2,,,65,0
106176,note_on,96,0,5,,,,,,,,4,,,58,0
106176,note_on,0,0,7,,,,,,,,2,,,58,0
106176,note_on,48,0,7,,,,,,,,2,,,74,0
106176,note_on,96,0,6,,,,,,,,5,,,46,0
106200,note_on,24,0,7,,,,,,,,2,,,70,105
106200,note_on,0,0,7,,,,,,,,2,,,64,105
106200,note_on,72,0,3,,,,,,,,0,,,76,105
106200,note_on,24,0,5,,,,,,,,4,,,55,105
106200,note_on,168,0,4,,,,,,,,3,,,70,105
106200,note_on,72,0,2,,,,,,,,1,,,76,105
106200,note_on,72,0,1,,,,,,,,0,,,76,124
106200,note_on,0,0,7,,,,,,,,2,,,55,105
106200,note_on,24,0,6,,,,,,,,5,,,43,105
106296,note_on,96,0,6,,,,,,,,5,,,43,0
106296,note_on,96,0,3,,,,,,,,0,,,76,0
106296,note_on,96,0,1,,,,,,,,0,,,76,0
106296,note_on,96,0,5,,,,,,,,4,,,55,0
106296,note_on,96,0,2,,,,,,,,1,,,76,0
106296,note_on,0,0,7,,,,,,,,2,,,70,0
106296,note_on,0,0,7,,,,,,,,2,,,55,0
106296,note_on,96,0,7,,,,,,,,2,,,64,0
106296,note_on,96,0,4,,,,,,,,3,,,70,0
106320,note_on,24,0,4,,,,,,,,3,,,69,105
106320,note_on,24,0,1,,,,,,,,0,,,74,124
106320,note_on,24,0,5,,,,,,,,4,,,54,105
106320,note_on,24,0,2,,,,,,,,1,,,74,105
106320,note_on,24,0,6,,,,,,,,5,,,42,105
106320,note_on,0,0,7,,,,,,,,2,,,54,105
106320,note_on,24,0,3,,,,,,,,0,,,74,105
106320,note_on,24,0,7,,,,,,,,2,,,74,105
106320,note_on,0,0,7,,,,,,,,2,,,69,105
106320,note_on,0,0,7,,,,,,,,2,,,62,105
106416,note_on,96,0,1,,,,,,,,0,,,74,0
106416,note_on,96,0,3,,,,,,,,0,,,74,0
106416,note_on,96,0,2,,,,,,,,1,,,74,0
106440,note_on,24,0,3,,,,,,,,0,,,72,105
106440,note_on,24,0,1,,,,,,,,0,,,72,124
106440,note_on,24,0,2,,,,,,,,1,,,72,105
106512,note_on,0,0,7,,,,,,,,2,,,69,0
106512,note_on,0,0,7,,,,,,,,2,,,74,0
106512,note_on,192,0,7,,,,,,,,2,,,54,0
106512,note_on,192,0,4,,,,,,,,3,,,69,0
106512,note_on,0,0,7,,,,,,,,2,,,62,0
106512,note_on,192,0,5,,,,,,,,4,,,54,0
106512,note_on,192,0,6,,,,,,,,5,,,42,0
106536,note_on,96,0,1,,,,,,,,0,,,72,0
106536,note_on,96,0,2,,,,,,,,1,,,72,0
106536,note_on,96,0,3,,,,,,,,0,,,72,0
106560,note_on,24,0,1,,,,,,,,0,,,70,124
106560,note_on,48,0,7,,,,,,,,2,,,69,105
106560,note_on,48,0,5,,,,,,,,4,,,50,105
106560,note_on,48,0,6,,,,,,,,5,,,38,105
106560,note_on,48,0,4,,,,,,,,3,,,66,105
106560,note_on,0,0,7,,,,,,,,2,,,66,105
106560,note_on,0,0,7,,,,,,,,2,,,50,105
106560,note_on,0,0,7,,,,,,,,2,,,62,105
106560,note_on,24,0,2,,,,,,,,1,,,70,105
106560,note_on,24,0,3,,,,,,,,0,,,70,105
106656,note_on,96,0,3,,,,,,,,0,,,70,0
106656,note_on,96,0,1,,,,,,,,0,,,70,0
106656,note_on,96,0,2,,,,,,,,1,,,70,0
106680,note_on,24,0,2,,,,,,,,1,,,69,105
106680,note_on,24,0,1,,,,,,,,0,,,69,124
106680,note_on,24,0,3,,,,,,,,0,,,69,105
106752,note_on,0,0,7,,,,,,,,2,,,62,0
106752,note_on,0,0,7,,,,,,,,2,,,50,0
106752,note_on,192,0,4,,,,,,,,3,,,66,0
106752,note_on,192,0,5,,,,,,,,4,,,50,0
106752,note_on,192,0,7,,,,,,,,2,,,66,0
106752,note_on,192,0,6,,,,,,,,5,,,38,0
106752,note_on,0,0,7,,,,,,,,2,,,69,0
106776,note_on,96,0,3,,,,,,,,0,,,69,0
106776,note_on,96,0,1,,,,,,,,0,,,69,0
106776,note_on,96,0,2,,,,,,,,1,,,69,0
106800,note_on,24,0,3,,,,,,,,0,,,70,105
106800,note_on,48,0,5,,,,,,,,4,,,55,105
106800,note_on,0,0,7,,,,,,,,2,,,62,105
106800,note_on,0,0,7,,,,,,,,2,,,67,105
106800,note_on,0,0,7,,,,,,,,2,,,55,105
106800,note_on,24,0,1,,,,,,,,0,,,70,124
106800,note_on,48,0,6,,,,,,,,5,,,43,105
106800,note_on,48,0,7,,,,,,,,2,,,70,105
106800,note_on,48,0,4,,,,,,,,3,,,62,105
106800,note_on,24,0,2,,,,,,,,1,,,70,105
106992,note_on,192,0,6,,,,,,,,5,,,43,0
106992,note_on,192,0,7,,,,,,,,2,,,55,0
106992,note_on,0,0,7,,,,,,,,2,,,70,0
106992,note_on,0,0,7,,,,,,,,2,,,67,0
106992,note_on,0,0,7,,,,,,,,2,,,62,0
106992,note_on,192,0,3,,,,,,,,0,,,70,0
106992,note_on,192,0,1,,,,,,,,0,,,70,0
106992,note_on,192,0,2,,,,,,,,1,,,70,0
106992,note_on,192,0,5,,,,,,,,4,,,55,0
107040,note_on,48,0,6,,,,,,,,5,,,41,105
107040,note_on,48,0,3,,,,,,,,0,,,69,105
107040,note_on,48,0,1,,,,,,,,0,,,69,124
107040,note_on,0,0,7,,,,,,,,2,,,62,105
107040,note_on,0,0,7,,,,,,,,2,,,53,105
107040,note_on,48,0,7,,,,,,,,2,,,69,105
107040,note_on,48,0,2,,,,,,,,1,,,69,105
107040,note_on,48,0,5,,,,,,,,4,,,53,105
107088,note_on,288,0,4,,,,,,,,3,,,62,0
107136,note_on,0,0,7,,,,,,,,2,,,69,0
107136,note_on,96,0,6,,,,,,,,5,,,41,0
107136,note_on,96,0,7,,,,,,,,2,,,53,0
107136,note_on,96,0,5,,,,,,,,4,,,53,0
107136,note_on,96,0,3,,,,,,,,0,,,69,0
107136,note_on,96,0,1,,,,,,,,0,,,69,0
107136,note_on,96,0,2,,,,,,,,1,,,69,0
107160,note_on,0,0,7,,,,,,,,2,,,50,105
107160,note_on,72,0,4,,,,,,,,3,,,62,105
107160,note_on,24,0,3,,,,,,,,0,,,70,105
107160,note_on,24,0,1,,,,,,,,0,,,70,124
107160,note_on,24,0,5,,,,,,,,4,,,50,105
107160,note_on,24,0,7,,,,,,,,2,,,70,105
107160,note_on,24,0,2,,,,,,,,1,,,70,105
107160,note_on,24,0,6,,,,,,,,5,,,38,105
107232,note_on,72,0,7,,,,,,,,2,,,62,0
107256,note_on,96,0,4,,,,,,,,3,,,62,0
107256,note_on,24,0,7,,,,,,,,2,,,50,0
107256,note_on,0,0,7,,,,,,,,2,,,70,0
107256,note_on,96,0,5,,,,,,,,4,,,50,0
107256,note_on,96,0,1,,,,,,,,0,,,70,0
107256,note_on,96,0,3,,,,,,,,0,,,70,0
107256,note_on,96,0,6,,,,,,,,5,,,38,0
107256,note_on,96,0,2,,,,,,,,1,,,70,0
107280,note_on,24,0,6,,,,,,,,5,,,37,105
107280,note_on,24,0,3,,,,,,,,0,,,67,105
107280,note_on,24,0,1,,,,,,,,0,,,67,124
107280,note_on,24,0,4,,,,,,,,3,,,64,105
107280,note_on,24,0,7,,,,,,,,2,,,67,105
107280,note_on,0,0,7,,,,,,,,2,,,49,105
107280,note_on,0,0,7,,,,,,,,2,,,64,105
107280,note_on,24,0,2,,,,,,,,1,,,67,105
107280,note_on,24,0,5,,,,,,,,4,,,49,105
107376,note_on,96,0,1,,,,,,,,0,,,67,0
107376,note_on,96,0,3,,,,,,,,0,,,67,0
107376,note_on,96,0,2,,,,,,,,1,,,67,0
107400,note_on,24,0,2,,,,,,,,1,,,65,105
107400,note_on,24,0,3,,,,,,,,0,,,65,105
107400,note_on,24,0,1,,,,,,,,0,,,65,124
107472,note_on,192,0,5,,,,,,,,4,,,49,0
107472,note_on,192,0,6,,,,,,,,5,,,37,0
107472,note_on,0,0,7,,,,,,,,2,,,49,0
107472,note_on,192,0,7,,,,,,,,2,,,64,0
107472,note_on,192,0,4,,,,,,,,3,,,64,0
107496,note_on,96,0,2,,,,,,,,1,,,65,0
107496,note_on,96,0,1,,,,,,,,0,,,65,0
107496,note_on,96,0,3,,,,,,,,0,,,65,0
107520,note_on,48,0,4,,,,,,,,3,,,61,105
107520,note_on,24,0,2,,,,,,,,1,,,64,105
107520,note_on,48,0,7,,,,,,,,2,,,45,105
107520,note_on,48,0,5,,,,,,,,4,,,45,105
107520,note_on,48,0,6,,,,,,,,5,,,33,105
107520,note_on,24,0,3,,,,,,,,0,,,64,105
107520,note_on,0,0,7,,,,,,,,2,,,61,105
107520,note_on,24,0,1,,,,,,,,0,,,64,124
107616,note_on,96,0,2,,,,,,,,1,,,64,0
107616,note_on,96,0,1,,,,,,,,0,,,64,0
107616,note_on,96,0,3,,,,,,,,0,,,64,0
107640,note_on,24,0,3,,,,,,,,0,,,69,105
107640,note_on,24,0,1,,,,,,,,0,,,69,124
107640,note_on,24,0,2,,,,,,,,1,,,69,105
107664,note_on,144,0,7,,,,,,,,2,,,67,0
107712,note_on,192,0,6,,,,,,,,5,,,33,0
107712,note_on,192,0,5,,,,,,,,4,,,45,0
107712,note_on,0,0,7,,,,,,,,2,,,45,0
107712,note_on,48,0,7,,,,,,,,2,,,61,0
107712,note_on,192,0,4,,,,,,,,3,,,61,0
107736,note_on,96,0,2,,,,,,,,1,,,69,0
107736,note_on,96,0,3,,,,,,,,0,,,69,0
107736,note_on,96,0,1,,,,,,,,0,,,69,0
107760,note_on,48,0,4,,,,,,,,3,,,57,105
107760,note_on,48,0,6,,,,,,,,5,,,38,105
107760,note_on,24,0,3,,,,,,,,0,,,65,105
107760,note_on,24,0,1,,,,,,,,0,,,65,124
107760,note_on,24,0,2,,,,,,,,1,,,65,105
107760,note_on,48,0,7,,,,,,,,2,,,65,105
107760,note_on,48,0,5,,,,,,,,4,,,50,105
107760,note_on,0,0,7,,,,,,,,2,,,57,105
107760,note_on,0,0,7,,,,,,,,2,,,50,105
107856,note_on,96,0,6,,,,,,,,5,,,38,0
107856,note_on,96,0,2,,,,,,,,1,,,65,0
107856,note_on,96,0,5,,,,,,,,4,,,50,0
107856,note_on,96,0,7,,,,,,,,2,,,50,0
107856,note_on,96,0,1,,,,,,,,0,,,65,0
107856,note_on,96,0,3,,,,,,,,0,,,65,0
107880,note_on,24,0,5,,,,,,,,4,,,52,105
107880,note_on,24,0,6,,,,,,,,5,,,40,105
107880,note_on,24,0,1,,,,,,,,0,,,64,124
107880,note_on,24,0,3,,,,,,,,0,,,64,105
107880,note_on,24,0,7,,,,,,,,2,,,52,105
107880,note_on,24,0,2,,,,,,,,1,,,64,105
107952,note_on,72,0,7,,,,,,,,2,,,65,0
107952,note_on,192,0,4,,,,,,,,3,,,57,0
107976,note_on,96,0,1,,,,,,,,0,,,64,0
107976,note_on,24,0,7,,,,,,,,2,,,52,0
107976,note_on,96,0,5,,,,,,,,4,,,52,0
107976,note_on,96,0,3,,,,,,,,0,,,64,0
107976,note_on,96,0,6,,,,,,,,5,,,40,0
107976,note_on,96,0,2,,,,,,,,1,,,64,0
108000,note_on,24,0,1,,,,,,,,0,,,62,124
108000,note_on,24,0,5,,,,,,,,4,,,53,105
108000,note_on,0,0,7,,,,,,,,2,,,62,105
108000,note_on,24,0,3,,,,,,,,0,,,62,105
108000,note_on,24,0,7,,,,,,,,2,,,53,105
108000,note_on,24,0,2,,,,,,,,1,,,62,105
108000,note_on,24,0,6,,,,,,,,5,,,41,105
108096,note_on,96,0,6,,,,,,,,5,,,41,0
108096,note_on,96,0,2,,,,,,,,1,,,62,0
108096,note_on,96,0,1,,,,,,,,0,,,62,0
108096,note_on,96,0,3,,,,,,,,0,,,62,0
108096,note_on,96,0,7,,,,,,,,2,,,53,0
108096,note_on,96,0,5,,,,,,,,4,,,53,0
108120,note_on,24,0,2,,,,,,,,1,,,77,105
108120,note_on,24,0,3,,,,,,,,0,,,77,105
108120,note_on,24,0,6,,,,,,,,5,,,40,105
108120,note_on,24,0,7,,,,,,,,2,,,52,105
108120,note_on,24,0,1,,,,,,,,0,,,77,124
108120,note_on,24,0,5,,,,,,,,4,,,52,105
108144,note_on,24,0,7,,,,,,,,2,,,57,0
108192,note_on,48,0,7,,,,,,,,2,,,62,0
108216,note_on,96,0,2,,,,,,,,1,,,77,0
108216,note_on,96,0,6,,,,,,,,5,,,40,0
108216,note_on,96,0,3,,,,,,,,0,,,77,0
108216,note_on,96,0,5,,,,,,,,4,,,52,0
108216,note_on,96,0,1,,,,,,,,0,,,77,0
108216,note_on,24,0,7,,,,,,,,2,,,52,0
108240,note_on,24,0,3,,,,,,,,0,,,81,105
108240,note_on,24,0,5,,,,,,,,4,,,50,105
108240,note_on,24,0,7,,,,,,,,2,,,65,105
108240,note_on,0,0,7,,,,,,,,2,,,50,105
108240,note_on,24,0,2,,,,,,,,1,,,81,105
108240,note_on,0,0,7,,,,,,,,2,,,57,105
108240,note_on,24,0,1,,,,,,,,0,,,81,124
108240,note_on,24,0,6,,,,,,,,5,,,38,105
108240,note_on,288,0,4,,,,,,,,3,,,65,105
108336,note_on,96,0,5,,,,,,,,4,,,50,0
108336,note_on,96,0,7,,,,,,,,2,,,50,0
108336,note_on,96,0,6,,,,,,,,5,,,38,0
108360,note_on,24,0,6,,,,,,,,5,,,40,105
108360,note_on,24,0,7,,,,,,,,2,,,52,105
108360,note_on,24,0,5,,,,,,,,4,,,52,105
108432,note_on,72,0,7,,,,,,,,2,,,65,0
108432,note_on,192,0,3,,,,,,,,0,,,81,0
108432,note_on,192,0,1,,,,,,,,0,,,81,0
108432,note_on,192,0,2,,,,,,,,1,,,81,0
108432,note_on,192,0,4,,,,,,,,3,,,65,0
108456,note_on,96,0,6,,,,,,,,5,,,40,0
108456,note_on,24,0,7,,,,,,,,2,,,52,0
108456,note_on,96,0,5,,,,,,,,4,,,52,0
108480,note_on,48,0,3,,,,,,,,0,,,77,105
108480,note_on,0,0,7,,,,,,,,2,,,62,105
108480,note_on,48,0,4,,,,,,,,3,,,62,105
108480,note_on,24,0,5,,,,,,,,4,,,53,105
108480,note_on,24,0,7,,,,,,,,2,,,53,105
108480,note_on,48,0,2,,,,,,,,1,,,77,105
108480,note_on,48,0,1,,,,,,,,0,,,77,124
108480,note_on,24,0,6,,,,,,,,5,,,41,105
108576,note_on,96,0,5,,,,,,,,4,,,53,0
108576,note_on,96,0,6,,,,,,,,5,,,41,0
108576,note_on,96,0,7,,,,,,,,2,,,53,0
108600,note_on,24,0,5,,,,,,,,4,,,50,105
108600,note_on,24,0,6,,,,,,,,5,,,38,105
108600,note_on,24,0,7,,,,,,,,2,,,50,105
108624,note_on,24,0,7,,,,,,,,2,,,57,0
108672,note_on,192,0,2,,,,,,,,1,,,77,0
108672,note_on,192,0,3,,,,,,,,0,,,77,0
108672,note_on,48,0,7,,,,,,,,2,,,62,0
108672,note_on,192,0,1,,,,,,,,0,,,77,0
108672,note_on,192,0,4,,,,,,,,3,,,62,0
108696,note_on,96,0,6,,,,,,,,5,,,38,0
108696,note_on,96,0,5,,,,,,,,4,,,50,0
108696,note_on,24,0,7,,,,,,,,2,,,50,0
108720,note_on,24,0,6,,,,,,,,5,,,33,105
108720,note_on,24,0,5,,,,,,,,4,,,45,105
108720,note_on,48,0,4,,,,,,,,3,,,61,105
108720,note_on,48,0,3,,,,,,,,0,,,76,105
108720,note_on,48,0,1,,,,,,,,0,,,76,124
108720,note_on,24,0,7,,,,,,,,2,,,64,105
108720,note_on,0,0,7,,,,,,,,2,,,61,105
108720,note_on,48,0,2,,,,,,,,1,,,76,105
108720,note_on,0,0,7,,,,,,,,2,,,57,105
108720,note_on,0,0,7,,,,,,,,2,,,45,105
108816,note_on,96,0,3,,,,,,,,0,,,76,0
108816,note_on,96,0,1,,,,,,,,0,,,76,0
108816,note_on,96,0,2,,,,,,,,1,,,76,0
108840,note_on,24,0,2,,,,,,,,1,,,80,105
108840,note_on,24,0,3,,,,,,,,0,,,80,105
108840,note_on,24,0,1,,,,,,,,0,,,80,124
108912,note_on,192,0,4,,,,,,,,3,,,61,0
108912,note_on,192,0,5,,,,,,,,4,,,45,0
108912,note_on,192,0,7,,,,,,,,2,,,45,0
108912,note_on,192,0,6,,,,,,,,5,,,33,0
108912,note_on,0,0,7,,,,,,,,2,,,61,0
108912,note_on,0,0,7,,,,,,,,2,,,64,0
108912,note_on,0,0,7,,,,,,,,2,,,57,0
108936,note_on,96,0,3,,,,,,,,0,,,80,0
108936,note_on,96,0,2,,,,,,,,1,,,80,0
108936,note_on,96,0,1,,,,,,,,0,,,80,0
108960,note_on,24,0,3,,,,,,,,0,,,81,105
108960,note_on,24,0,1,,,,,,,,0,,,81,124
108960,note_on,24,0,2,,,,,,,,1,,,81,105
109152,note_on,192,0,1,,,,,,,,0,,,81,0
109152,note_on,192,0,2,,,,,,,,1,,,81,0
109152,note_on,192,0,3,,,,,,,,0,,,81,0
109200,note_on,48,0,1,,,,,,,,0,,,77,124
109200,note_on,288,0,6,,,,,,,,5,,,34,105
109200,note_on,0,0,7,,,,,,,,2,,,46,105
109200,note_on,48,0,2,,,,,,,,1,,,77,105
109200,note_on,48,0,3,,,,,,,,0,,,77,105
109200,note_on,288,0,5,,,,,,,,4,,,46,105
109200,note_on,288,0,4,,,,,,,,3,,,65,105
109200,note_on,288,0,7,,,,,,,,2,,,65,105
109296,note_on,96,0,7,,,,,,,,2,,,46,0
109296,note_on,96,0,6,,,,,,,,5,,,34,0
109296,note_on,96,0,5,,,,,,,,4,,,46,0
109320,note_on,24,0,7,,,,,,,,2,,,62,105
109320,note_on,24,0,5,,,,,,,,4,,,62,105
109320,note_on,24,0,6,,,,,,,,5,,,50,105
109392,note_on,192,0,3,,,,,,,,0,,,77,0
109392,note_on,72,0,7,,,,,,,,2,,,65,0
109392,note_on,192,0,1,,,,,,,,0,,,77,0
109392,note_on,192,0,4,,,,,,,,3,,,65,0
109392,note_on,192,0,2,,,,,,,,1,,,77,0
109416,note_on,24,0,7,,,,,,,,2,,,62,0
109416,note_on,96,0,6,,,,,,,,5,,,50,0
109416,note_on,96,0,5,,,,,,,,4,,,62,0
109440,note_on,0,0,7,,,,,,,,2,,,69,105
109440,note_on,48,0,2,,,,,,,,1,,,73,105
109440,note_on,24,0,6,,,,,,,,5,,,45,105
109440,note_on,48,0,3,,,,,,,,0,,,73,105
109440,note_on,24,0,5,,,,,,,,4,,,57,105
109440,note_on,0,0,7,,,,,,,,2,,,57,105
109440,note_on,0,0,7,,,,,,,,2,,,64,105
109440,note_on,48,0,1,,,,,,,,0,,,73,124
109440,note_on,48,0,4,,,,,,,,3,,,64,105
109440,note_on,24,0,7,,,,,,,,2,,,61,105
109536,note_on,96,0,5,,,,,,,,4,,,57,0
109536,note_on,96,0,6,,,,,,,,5,,,45,0
109536,note_on,96,0,7,,,,,,,,2,,,57,0
109560,note_on,24,0,5,,,,,,,,4,,,55,105
109560,note_on,24,0,6,,,,,,,,5,,,41,105
109560,note_on,24,0,7,,,,,,,,2,,,55,105
109632,note_on,192,0,3,,,,,,,,0,,,73,0
109632,note_on,72,0,7,,,,,,,,2,,,61,0
109632,note_on,0,0,7,,,,,,,,2,,,64,0
109632,note_on,192,0,1,,,,,,,,0,,,73,0
109632,note_on,192,0,4,,,,,,,,3,,,64,0
109632,note_on,0,0,7,,,,,,,,2,,,69,0
109632,note_on,192,0,2,,,,,,,,1,,,73,0
109656,note_on,96,0,6,,,,,,,,5,,,41,0
109656,note_on,96,0,5,,,,,,,,4,,,55,0
109656,note_on,24,0,7,,,,,,,,2,,,55,0
109680,note_on,24,0,7,,,,,,,,2,,,74,105
109680,note_on,0,0,7,,,,,,,,2,,,69,105
109680,note_on,0,0,7,,,,,,,,2,,,62,105
109680,note_on,0,0,7,,,,,,,,2,,,53,105
109680,note_on,48,0,2,,,,,,,,1,,,74,105
109680,note_on,24,0,6,,,,,,,,5,,,41,105
109680,note_on,48,0,1,,,,,,,,0,,,74,124
109680,note_on,48,0,4,,,,,,,,3,,,57,105
109680,note_on,24,0,5,,,,,,,,4,,,53,105
109680,note_on,48,0,3,,,,,,,,0,,,74,105
109776,note_on,96,0,1,,,,,,,,0,,,74,0
109776,note_on,96,0,3,,,,,,,,0,,,74,0
109776,note_on,96,0,2,,,,,,,,1,,,74,0
109800,note_on,24,0,3,,,,,,,,0,,,80,105
109800,note_on,24,0,2,,,,,,,,1,,,80,105
109800,note_on,24,0,1,,,,,,,,0,,,80,124
109872,note_on,0,0,7,,,,,,,,2,,,62,0
109872,note_on,192,0,7,,,,,,,,2,,,53,0
109872,note_on,192,0,5,,,,,,,,4,,,53,0
109872,note_on,0,0,7,,,,,,,,2,,,69,0
109872,note_on,192,0,4,,,,,,,,3,,,57,0
109872,note_on,192,0,6,,,,,,,,5,,,41,0
109872,note_on,0,0,7,,,,,,,,2,,,74,0
109896,note_on,96,0,2,,,,,,,,1,,,80,0
109896,note_on,96,0,1,,,,,,,,0,,,80,0
109896,note_on,96,0,3,,,,,,,,0,,,80,0
109920,note_on,24,0,1,,,,,,,,0,,,81,124
109920,note_on,24,0,2,,,,,,,,1,,,81,105
109920,note_on,24,0,3,,,,,,,,0,,,81,105
110112,note_on,192,0,2,,,,,,,,1,,,81,0
110112,note_on,192,0,3,,,,,,,,0,,,81,0
110112,note_on,192,0,1,,,,,,,,0,,,81,0
110160,note_on,48,0,2,,,,,,,,1,,,76,105
110160,note_on,288,0,5,,,,,,,,4,,,55,105
110160,note_on,48,0,1,,,,,,,,0,,,76,124
110160,note_on,288,0,6,,,,,,,,5,,,43,105
110160,note_on,0,0,7,,,,,,,,2,,,55,105
110160,note_on,288,0,7,,,,,,,,2,,,70,105
110160,note_on,0,0,7,,,,,,,,2,,,76,105
110160,note_on,288,0,4,,,,,,,,3,,,70,105
110160,note_on,48,0,3,,,,,,,,0,,,76,105
110256,note_on,96,0,6,,,,,,,,5,,,43,0
110256,note_on,96,0,4,,,,,,,,3,,,70,0
110256,note_on,96,0,5,,,,,,,,4,,,55,0
110256,note_on,96,0,7,,,,,,,,2,,,55,0
110280,note_on,24,0,5,,,,,,,,4,,,57,105
110280,note_on,24,0,6,,,,,,,,5,,,45,105
110280,note_on,24,0,4,,,,,,,,3,,,72,105
110280,note_on,24,0,7,,,,,,,,2,,,57,105
110352,note_on,0,0,7,,,,,,,,2,,,70,0
110352,note_on,72,0,7,,,,,,,,2,,,76,0
110352,note_on,192,0,2,,,,,,,,1,,,76,0
110352,note_on,192,0,1,,,,,,,,0,,,76,0
110352,note_on,192,0,3,,,,,,,,0,,,76,0
110376,note_on,96,0,6,,,,,,,,5,,,45,0
110376,note_on,24,0,7,,,,,,,,2,,,57,0
110376,note_on,96,0,5,,,,,,,,4,,,57,0
110376,note_on,96,0,4,,,,,,,,3,,,72,0
110400,note_on,24,0,6,,,,,,,,5,,,46,105
110400,note_on,24,0,7,,,,,,,,2,,,74,105
110400,note_on,0,0,7,,,,,,,,2,,,58,105
110400,note_on,48,0,3,,,,,,,,0,,,74,105
110400,note_on,24,0,4,,,,,,,,3,,,74,105
110400,note_on,24,0,5,,,,,,,,4,,,58,105
110400,note_on,48,0,2,,,,,,,,1,,,74,105
110400,note_on,48,0,1,,,,,,,,0,,,74,124
110400,note_on,0,0,7,,,,,,,,2,,,67,105
110496,note_on,96,0,4,,,,,,,,3,,,74,0
110496,note_on,96,0,7,,,,,,,,2,,,58,0
110496,note_on,96,0,6,,,,,,,,5,,,46,0
110496,note_on,96,0,5,,,,,,,,4,,,58,0
110520,note_on,24,0,4,,,,,,,,3,,,70,105
110520,note_on,24,0,6,,,,,,,,5,,,43,105
110520,note_on,24,0,7,,,,,,,,2,,,55,105
110520,note_on,24,0,5,,,,,,,,4,,,55,105
110592,note_on,192,0,3,,,,,,,,0,,,74,0
110592,note_on,192,0,2,,,,,,,,1,,,74,0
110592,note_on,192,0,1,,,,,,,,0,,,74,0
110592,note_on,72,0,7,,,,,,,,2,,,67,0
110592,note_on,0,0,7,,,,,,,,2,,,74,0
110616,note_on,96,0,4,,,,,,,,3,,,70,0
110616,note_on,96,0,6,,,,,,,,5,,,43,0
110616,note_on,24,0,7,,,,,,,,2,,,55,0
110616,note_on,96,0,5,,,,,,,,4,,,55,0
110640,note_on,48,0,3,,,,,,,,0,,,73,105
110640,note_on,48,0,2,,,,,,,,1,,,73,105
110640,note_on,24,0,5,,,,,,,,4,,,57,105
110640,note_on,48,0,1,,,,,,,,0,,,73,124
110640,note_on,24,0,4,,,,,,,,3,,,64,105
110640,note_on,0,0,7,,,,,,,,2,,,57,105
110640,note_on,0,0,7,,,,,,,,2,,,73,105
110640,note_on,24,0,7,,,,,,,,2,,,64,105
110640,note_on,24,0,6,,,,,,,,5,,,45,105
110736,note_on,96,0,5,,,,,,,,4,,,57,0
110736,note_on,96,0,6,,,,,,,,5,,,45,0
110736,note_on,96,0,7,,,,,,,,2,,,57,0
110760,note_on,24,0,7,,,,,,,,2,,,58,105
110760,note_on,24,0,5,,,,,,,,4,,,58,105
110760,note_on,24,0,6,,,,,,,,5,,,46,105
110832,note_on,192,0,4,,,,,,,,3,,,64,0
110832,note_on,192,0,3,,,,,,,,0,,,73,0
110832,note_on,192,0,2,,,,,,,,1,,,73,0
110832,note_on,192,0,1,,,,,,,,0,,,73,0
110856,note_on,96,0,7,,,,,,,,2,,,58,0
110856,note_on,96,0,6,,,,,,,,5,,,46,0
110856,note_on,96,0,5,,,,,,,,4,,,58,0
110880,note_on,24,0,7,,,,,,,,2,,,57,105
110880,note_on,24,0,6,,,,,,,,5,,,45,105
110880,note_on,24,0,5,,,,,,,,4,,,57,105
110976,note_on,96,0,7,,,,,,,,2,,,57,0
110976,note_on,96,0,6,,,,,,,,5,,,45,0
110976,note_on,96,0,5,,,,,,,,4,,,57,0
111000,note_on,168,0,1,,,,,,,,0,,,81,124
111000,note_on,24,0,6,,,,,,,,5,,,43,105
111000,note_on,168,0,2,,,,,,,,1,,,81,105
111000,note_on,24,0,7,,,,,,,,2,,,55,105
111000,note_on,168,0,3,,,,,,,,0,,,81,105
111000,note_on,24,0,5,,,,,,,,4,,,55,105
111024,note_on,0,0,7,,,,,,,,2,,,64,0
111024,note_on,24,0,7,,,,,,,,2,,,73,0
111096,note_on,96,0,2,,,,,,,,1,,,81,0
111096,note_on,96,0,1,,,,,,,,0,,,81,0
111096,note_on,96,0,3,,,,,,,,0,,,81,0
111096,note_on,96,0,5,,,,,,,,4,,,55,0
111096,note_on,96,0,6,,,,,,,,5,,,43,0
111096,note_on,72,0,7,,,,,,,,2,,,55,0
111120,note_on,24,0,1,,,,,,,,0,,,72,124
111120,note_on,24,0,2,,,,,,,,1,,,72,105
111120,note_on,24,0,6,,,,,,,,5,,,42,105
111120,note_on,24,0,7,,,,,,,,2,,,72,105
111120,note_on,24,0,5,,,,,,,,4,,,54,105
111120,note_on,288,0,4,,,,,,,,3,,,69,105
111120,note_on,0,0,7,,,,,,,,2,,,54,105
111120,note_on,24,0,3,,,,,,,,0,,,72,105
111120,note_on,0,0,7,,,,,,,,2,,,69,105
111120,note_on,0,0,7,,,,,,,,2,,,62,105
111144,note_on,24,0,3,,,,,,,,0,,,72,0
111144,note_on,24,0,2,,,,,,,,1,,,72,0
111144,note_on,24,0,1,,,,,,,,0,,,72,0
111150,note_on,6,0,3,,,,,,,,0,,,74,105
111150,note_on,6,0,2,,,,,,,,1,,,74,105
111150,note_on,6,0,1,,,,,,,,0,,,74,124
111174,note_on,24,0,1,,,,,,,,0,,,74,0
111174,note_on,24,0,3,,,,,,,,0,,,74,0
111174,note_on,24,0,2,,,,,,,,1,,,74,0
111180,note_on,6,0,3,,,,,,,,0,,,72,105
111180,note_on,6,0,1,,,,,,,,0,,,72,124
111180,note_on,6,0,2,,,,,,,,1,,,72,105
111204,note_on,24,0,1,,,,,,,,0,,,72,0
111204,note_on,24,0,2,,,,,,,,1,,,72,0
111204,note_on,24,0,3,,,,,,,,0,,,72,0
111210,note_on,6,0,2,,,,,,,,1,,,74,105
111210,note_on,6,0,3,,,,,,,,0,,,74,105
111210,note_on,6,0,1,,,,,,,,0,,,74,124
111216,note_on,96,0,6,,,,,,,,5,,,42,0
111216,note_on,96,0,7,,,,,,,,2,,,54,0
111216,note_on,96,0,5,,,,,,,,4,,,54,0
111216,note_on,96,0,4,,,,,,,,3,,,69,0
111234,note_on,24,0,3,,,,,,,,0,,,74,0
111234,note_on,24,0,2,,,,,,,,1,,,74,0
111234,note_on,24,0,1,,,,,,,,0,,,74,0
111240,note_on,24,0,6,,,,,,,,5,,,38,105
111240,note_on,6,0,1,,,,,,,,0,,,72,124
111240,note_on,6,0,3,,,,,,,,0,,,72,105
111240,note_on,6,0,2,,,,,,,,1,,,72,105
111240,note_on,24,0,4,,,,,,,,3,,,66,105
111240,note_on,24,0,7,,,,,,,,2,,,50,105
111240,note_on,24,0,5,,,,,,,,4,,,50,105
111264,note_on,24,0,2,,,,,,,,1,,,72,0
111264,note_on,24,0,1,,,,,,,,0,,,72,0
111264,note_on,24,0,3,,,,,,,,0,,,72,0
111270,note_on,6,0,1,,,,,,,,0,,,74,124
111270,note_on,6,0,3,,,,,,,,0,,,74,105
111270,note_on,6,0,2,,,,,,,,1,,,74,105
111294,note_on,24,0,1,,,,,,,,0,,,74,0
111294,note_on,24,0,3,,,,,,,,0,,,74,0
111294,note_on,24,0,2,,,,,,,,1,,,74,0
111300,note_on,6,0,1,,,,,,,,0,,,72,124
111300,note_on,6,0,2,,,,,,,,1,,,72,105
111300,note_on,6,0,3,,,,,,,,0,,,72,105
111324,note_on,24,0,1,,,,,,,,0,,,72,0
111324,note_on,24,0,2,,,,,,,,1,,,72,0
111324,note_on,24,0,3,,,,,,,,0,,,72,0
111330,note_on,6,0,2,,,,,,,,1,,,74,105
111330,note_on,6,0,1,,,,,,,,0,,,74,124
111330,note_on,6,0,3,,,,,,,,0,,,74,105
111336,note_on,96,0,4,,,,,,,,3,,,66,0
111336,note_on,96,0,7,,,,,,,,2,,,50,0
111336,note_on,96,0,5,,,,,,,,4,,,50,0
111336,note_on,96,0,6,,,,,,,,5,,,38,0
111354,note_on,24,0,1,,,,,,,,0,,,74,0
111354,note_on,24,0,3,,,,,,,,0,,,74,0
111354,note_on,24,0,2,,,,,,,,1,,,74,0
111360,note_on,24,0,5,,,,,,,,4,,,52,105
111360,note_on,24,0,7,,,,,,,,2,,,52,105
111360,note_on,24,0,4,,,,,,,,3,,,67,105
111360,note_on,6,0,2,,,,,,,,1,,,72,105
111360,note_on,6,0,3,,,,,,,,0,,,72,105
111360,note_on,6,0,1,,,,,,,,0,,,72,124
111360,note_on,24,0,6,,,,,,,,5,,,40,105
111384,note_on,24,0,1,,,,,,,,0,,,72,0
111384,note_on,24,0,2,,,,,,,,1,,,72,0
111384,note_on,24,0,3,,,,,,,,0,,,72,0
111390,note_on,6,0,3,,,,,,,,0,,,74,105
111390,note_on,6,0,1,,,,,,,,0,,,74,124
111390,note_on,6,0,2,,,,,,,,1,,,74,105
111414,note_on,24,0,3,,,,,,,,0,,,74,0
111414,note_on,24,0,2,,,,,,,,1,,,74,0
111414,note_on,24,0,1,,,,,,,,0,,,74,0
111420,note_on,6,0,3,,,,,,,,0,,,72,105
111420,note_on,6,0,1,,,,,,,,0,,,72,124
111420,note_on,6,0,2,,,,,,,,1,,,72,105
111444,note_on,24,0,2,,,,,,,,1,,,72,0
111444,note_on,24,0,3,,,,,,,,0,,,72,0
111444,note_on,24,0,1,,,,,,,,0,,,72,0
111450,note_on,6,0,3,,,,,,,,0,,,74,105
111450,note_on,6,0,2,,,,,,,,1,,,74,105
111450,note_on,6,0,1,,,,,,,,0,,,74,124
111456,note_on,96,0,6,,,,,,,,5,,,40,0
111456,note_on,96,0,5,,,,,,,,4,,,52,0
111456,note_on,96,0,7,,,,,,,,2,,,52,0
111456,note_on,96,0,4,,,,,,,,3,,,67,0
111474,note_on,24,0,1,,,,,,,,0,,,74,0
111474,note_on,24,0,2,,,,,,,,1,,,74,0
111474,note_on,24,0,3,,,,,,,,0,,,74,0
111480,note_on,6,0,3,,,,,,,,0,,,70,105
111480,note_on,24,0,5,,,,,,,,4,,,54,105
111480,note_on,24,0,4,,,,,,,,3,,,69,105
111480,note_on,6,0,2,,,,,,,,1,,,70,105
111480,note_on,6,0,1,,,,,,,,0,,,70,124
111480,note_on,24,0,6,,,,,,,,5,,,42,105
111480,note_on,24,0,7,,,,,,,,2,,,54,105
111504,note_on,0,0,7,,,,,,,,2,,,69,0
111504,note_on,0,0,7,,,,,,,,2,,,62,0
111504,note_on,24,0,7,,,,,,,,2,,,72,0
111528,note_on,48,0,2,,,,,,,,1,,,70,0
111528,note_on,48,0,1,,,,,,,,0,,,70,0
111528,note_on,48,0,3,,,,,,,,0,,,70,0
111540,note_on,12,0,2,,,,,,,,1,,,69,105
111540,note_on,12,0,1,,,,,,,,0,,,69,124
111540,note_on,12,0,3,,,,,,,,0,,,69,105
111576,note_on,96,0,4,,,,,,,,3,,,69,0
111576,note_on,96,0,5,,,,,,,,4,,,54,0
111576,note_on,72,0,7,,,,,,,,2,,,54,0
111576,note_on,96,0,6,,,,,,,,5,,,42,0
111588,note_on,48,0,1,,,,,,,,0,,,69,0
111588,note_on,48,0,3,,,,,,,,0,,,69,0
111588,note_on,48,0,2,,,,,,,,1,,,69,0
111600,note_on,0,0,7,,,,,,,,2,,,55,105
111600,note_on,24,0,6,,,,,,,,5,,,43,105
111600,note_on,0,0,7,,,,,,,,2,,,62,105
111600,note_on,12,0,2,,,,,,,,1,,,70,105
111600,note_on,12,0,3,,,,,,,,0,,,70,105
111600,note_on,24,0,4,,,,,,,,3,,,62,105
111600,note_on,24,0,7,,,,,,,,2,,,70,105
111600,note_on,0,0,7,,,,,,,,2,,,67,105
111600,note_on,24,0,5,,,,,,,,4,,,55,105
111600,note_on,12,0,1,,,,,,,,0,,,70,124
111696,note_on,96,0,7,,,,,,,,2,,,55,0
111696,note_on,96,0,5,,,,,,,,4,,,55,0
111696,note_on,96,0,1,,,,,,,,0,,,70,0
111696,note_on,96,0,3,,,,,,,,0,,,70,0
111696,note_on,96,0,2,,,,,,,,1,,,70,0
111696,note_on,96,0,6,,,,,,,,5,,,43,0
111720,note_on,24,0,3,,,,,,,,0,,,67,105
111720,note_on,24,0,2,,,,,,,,1,,,67,105
111720,note_on,24,0,6,,,,,,,,5,,,45,105
111720,note_on,24,0,1,,,,,,,,0,,,67,124
111720,note_on,24,0,7,,,,,,,,2,,,57,105
111720,note_on,24,0,5,,,,,,,,4,,,57,105
111792,note_on,192,0,4,,,,,,,,3,,,62,0
111816,note_on,96,0,1,,,,,,,,0,,,67,0
111816,note_on,96,0,5,,,,,,,,4,,,57,0
111816,note_on,96,0,6,,,,,,,,5,,,45,0
111816,note_on,96,0,2,,,,,,,,1,,,67,0
111816,note_on,96,0,3,,,,,,,,0,,,67,0
111816,note_on,96,0,7,,,,,,,,2,,,57,0
111840,note_on,24,0,6,,,,,,,,5,,,43,105
111840,note_on,24,0,7,,,,,,,,2,,,55,105
111840,note_on,24,0,1,,,,,,,,0,,,70,124
111840,note_on,24,0,5,,,,,,,,4,,,55,105
111840,note_on,24,0,3,,,,,,,,0,,,70,105
111840,note_on,24,0,2,,,,,,,,1,,,70,105
111936,note_on,96,0,7,,,,,,,,2,,,55,0
111936,note_on,96,0,2,,,,,,,,1,,,70,0
111936,note_on,96,0,1,,,,,,,,0,,,70,0
111936,note_on,96,0,3,,,,,,,,0,,,70,0
111936,note_on,96,0,6,,,,,,,,5,,,43,0
111936,note_on,96,0,5,,,,,,,,4,,,55,0
111960,note_on,24,0,3,,,,,,,,0,,,79,105
111960,note_on,24,0,7,,,,,,,,2,,,53,105
111960,note_on,24,0,5,,,,,,,,4,,,53,105
111960,note_on,24,0,2,,,,,,,,1,,,79,105
111960,note_on,24,0,1,,,,,,,,0,,,79,124
111960,note_on,24,0,6,,,,,,,,5,,,41,105
111984,note_on,0,0,7,,,,,,,,2,,,62,0
111984,note_on,0,0,7,,,,,,,,2,,,67,0
111984,note_on,24,0,7,,,,,,,,2,,,70,0
112056,note_on,96,0,5,,,,,,,,4,,,53,0
112056,note_on,96,0,2,,,,,,,,1,,,79,0
112056,note_on,96,0,1,,,,,,,,0,,,79,0
112056,note_on,96,0,3,,,,,,,,0,,,79,0
112056,note_on,72,0,7,,,,,,,,2,,,53,0
112056,note_on,96,0,6,,,,,,,,5,,,41,0
112080,note_on,24,0,2,,,,,,,,1,,,70,105
112080,note_on,288,0,4,,,,,,,,3,,,67,105
112080,note_on,24,0,5,,,,,,,,4,,,52,105
112080,note_on,24,0,3,,,,,,,,0,,,70,105
112080,note_on,24,0,1,,,,,,,,0,,,70,124
112080,note_on,0,0,7,,,,,,,,2,,,52,105
112080,note_on,0,0,7,,,,,,,,2,,,60,105
112080,note_on,0,0,7,,,,,,,,2,,,67,105
112080,note_on,24,0,7,,,,,,,,2,,,70,105
112080,note_on,24,0,6,,,,,,,,5,,,40,105
112104,note_on,24,0,1,,,,,,,,0,,,70,0
112104,note_on,24,0,2,,,,,,,,1,,,70,0
112104,note_on,24,0,3,,,,,,,,0,,,70,0
112110,note_on,6,0,3,,,,,,,,0,,,72,105
112110,note_on,6,0,2,,,,,,,,1,,,72,105
112110,note_on,6,0,1,,,,,,,,0,,,72,124
112134,note_on,24,0,1,,,,,,,,0,,,72,0
112134,note_on,24,0,2,,,,,,,,1,,,72,0
112134,note_on,24,0,3,,,,,,,,0,,,72,0
112140,note_on,6,0,2,,,,,,,,1,,,70,105
112140,note_on,6,0,3,,,,,,,,0,,,70,105
112140,note_on,6,0,1,,,,,,,,0,,,70,124
112164,note_on,24,0,2,,,,,,,,1,,,70,0
112164,note_on,24,0,3,,,,,,,,0,,,70,0
112164,note_on,24,0,1,,,,,,,,0,,,70,0
112170,note_on,6,0,2,,,,,,,,1,,,72,105
112170,note_on,6,0,3,,,,,,,,0,,,72,105
112170,note_on,6,0,1,,,,,,,,0,,,72,124
112176,note_on,96,0,7,,,,,,,,2,,,52,0
112176,note_on,96,0,5,,,,,,,,4,,,52,0
112176,note_on,96,0,4,,,,,,,,3,,,67,0
112176,note_on,96,0,6,,,,,,,,5,,,40,0
112194,note_on,24,0,2,,,,,,,,1,,,72,0
112194,note_on,24,0,3,,,,,,,,0,,,72,0
112194,note_on,24,0,1,,,,,,,,0,,,72,0
112200,note_on,24,0,5,,,,,,,,4,,,48,105
112200,note_on,24,0,6,,,,,,,,5,,,36,105
112200,note_on,24,0,7,,,,,,,,2,,,48,105
112200,note_on,24,0,4,,,,,,,,3,,,64,105
112200,note_on,6,0,2,,,,,,,,1,,,70,105
112200,note_on,6,0,3,,,,,,,,0,,,70,105
112200,note_on,6,0,1,,,,,,,,0,,,70,124
112224,note_on,24,0,3,,,,,,,,0,,,70,0
112224,note_on,24,0,2,,,,,,,,1,,,70,0
112224,note_on,24,0,1,,,,,,,,0,,,70,0
112230,note_on,6,0,3,,,,,,,,0,,,72,105
112230,note_on,6,0,2,,,,,,,,1,,,72,105
112230,note_on,6,0,1,,,,,,,,0,,,72,124
112254,note_on,24,0,1,,,,,,,,0,,,72,0
112254,note_on,24,0,2,,,,,,,,1,,,72,0
112254,note_on,24,0,3,,,,,,,,0,,,72,0
112260,note_on,6,0,1,,,,,,,,0,,,70,124
112260,note_on,6,0,2,,,,,,,,1,,,70,105
112260,note_on,6,0,3,,,,,,,,0,,,70,105
112284,note_on,24,0,3,,,,,,,,0,,,70,0
112284,note_on,24,0,2,,,,,,,,1,,,70,0
112284,note_on,24,0,1,,,,,,,,0,,,70,0
112290,note_on,6,0,1,,,,,,,,0,,,72,124
112290,note_on,6,0,3,,,,,,,,0,,,72,105
112290,note_on,6,0,2,,,,,,,,1,,,72,105
112296,note_on,96,0,5,,,,,,,,4,,,48,0
112296,note_on,96,0,6,,,,,,,,5,,,36,0
112296,note_on,96,0,7,,,,,,,,2,,,48,0
112296,note_on,96,0,4,,,,,,,,3,,,64,0
112314,note_on,24,0,1,,,,,,,,0,,,72,0
112314,note_on,24,0,2,,,,,,,,1,,,72,0
112314,note_on,24,0,3,,,,,,,,0,,,72,0
112320,note_on,6,0,1,,,,,,,,0,,,70,124
112320,note_on,24,0,7,,,,,,,,2,,,50,105
112320,note_on,24,0,4,,,,,,,,3,,,65,105
112320,note_on,24,0,5,,,,,,,,4,,,50,105
112320,note_on,6,0,3,,,,,,,,0,,,70,105
112320,note_on,24,0,6,,,,,,,,5,,,38,105
112320,note_on,6,0,2,,,,,,,,1,,,70,105
112344,note_on,24,0,1,,,,,,,,0,,,70,0
112344,note_on,24,0,3,,,,,,,,0,,,70,0
112344,note_on,24,0,2,,,,,,,,1,,,70,0
112350,note_on,6,0,3,,,,,,,,0,,,72,105
112350,note_on,6,0,1,,,,,,,,0,,,72,124
112350,note_on,6,0,2,,,,,,,,1,,,72,105
112374,note_on,24,0,2,,,,,,,,1,,,72,0
112374,note_on,24,0,3,,,,,,,,0,,,72,0
112374,note_on,24,0,1,,,,,,,,0,,,72,0
112380,note_on,6,0,2,,,,,,,,1,,,70,105
112380,note_on,6,0,3,,,,,,,,0,,,70,105
112380,note_on,6,0,1,,,,,,,,0,,,70,124
112404,note_on,24,0,2,,,,,,,,1,,,70,0
112404,note_on,24,0,3,,,,,,,,0,,,70,0
112404,note_on,24,0,1,,,,,,,,0,,,70,0
112410,note_on,6,0,3,,,,,,,,0,,,72,105
112410,note_on,6,0,2,,,,,,,,1,,,72,105
112410,note_on,6,0,1,,,,,,,,0,,,72,124
112416,note_on,96,0,7,,,,,,,,2,,,50,0
112416,note_on,96,0,6,,,,,,,,5,,,38,0
112416,note_on,96,0,4,,,,,,,,3,,,65,0
112416,note_on,96,0,5,,,,,,,,4,,,50,0
112434,note_on,24,0,1,,,,,,,,0,,,72,0
112434,note_on,24,0,2,,,,,,,,1,,,72,0
112434,note_on,24,0,3,,,,,,,,0,,,72,0
112440,note_on,24,0,6,,,,,,,,5,,,40,105
112440,note_on,6,0,1,,,,,,,,0,,,69,124
112440,note_on,24,0,5,,,,,,,,4,,,52,105
112440,note_on,6,0,2,,,,,,,,1,,,69,105
112440,note_on,24,0,4,,,,,,,,3,,,67,105
112440,note_on,24,0,7,,,,,,,,2,,,52,105
112440,note_on,6,0,3,,,,,,,,0,,,69,105
112464,note_on,0,0,7,,,,,,,,2,,,60,0
112464,note_on,0,0,7,,,,,,,,2,,,67,0
112464,note_on,24,0,7,,,,,,,,2,,,70,0
112488,note_on,48,0,1,,,,,,,,0,,,69,0
112488,note_on,48,0,3,,,,,,,,0,,,69,0
112488,note_on,48,0,2,,,,,,,,1,,,69,0
112500,note_on,12,0,3,,,,,,,,0,,,67,105
112500,note_on,12,0,2,,,,,,,,1,,,67,105
112500,note_on,12,0,1,,,,,,,,0,,,67,124
112536,note_on,96,0,6,,,,,,,,5,,,40,0
112536,note_on,72,0,7,,,,,,,,2,,,52,0
112536,note_on,96,0,5,,,,,,,,4,,,52,0
112536,note_on,96,0,4,,,,,,,,3,,,67,0
112548,note_on,48,0,3,,,,,,,,0,,,67,0
112548,note_on,48,0,2,,,,,,,,1,,,67,0
112548,note_on,48,0,1,,,,,,,,0,,,67,0
112560,note_on,24,0,7,,,,,,,,2,,,69,105
112560,note_on,12,0,1,,,,,,,,0,,,69,124
112560,note_on,0,0,7,,,,,,,,2,,,65,105
112560,note_on,0,0,7,,,,,,,,2,,,53,105
112560,note_on,24,0,4,,,,,,,,3,,,60,105
112560,note_on,24,0,6,,,,,,,,5,,,41,105
112560,note_on,12,0,3,,,,,,,,0,,,69,105
112560,note_on,24,0,5,,,,,,,,4,,,53,105
112560,note_on,12,0,2,,,,,,,,1,,,69,105
112560,note_on,0,0,7,,,,,,,,2,,,60,105
112656,note_on,96,0,1,,,,,,,,0,,,69,0
112656,note_on,96,0,7,,,,,,,,2,,,53,0
112656,note_on,96,0,2,,,,,,,,1,,,69,0
112656,note_on,96,0,3,,,,,,,,0,,,69,0
112656,note_on,96,0,5,,,,,,,,4,,,53,0
112656,note_on,96,0,6,,,,,,,,5,,,41,0
112680,note_on,24,0,7,,,,,,,,2,,,57,105
112680,note_on,24,0,6,,,,,,,,5,,,45,105
112680,note_on,24,0,5,,,,,,,,4,,,57,105
112680,note_on,24,0,2,,,,,,,,1,,,65,105
112680,note_on,24,0,1,,,,,,,,0,,,65,124
112680,note_on,24,0,3,,,,,,,,0,,,65,105
112752,note_on,192,0,4,,,,,,,,3,,,60,0
112776,note_on,96,0,1,,,,,,,,0,,,65,0
112776,note_on,96,0,7,,,,,,,,2,,,57,0
112776,note_on,96,0,3,,,,,,,,0,,,65,0
112776,note_on,96,0,2,,,,,,,,1,,,65,0
112776,note_on,96,0,5,,,,,,,,4,,,57,0
112776,note_on,96,0,6,,,,,,,,5,,,45,0
112800,note_on,24,0,2,,,,,,,,1,,,69,105
112800,note_on,24,0,1,,,,,,,,0,,,69,124
112800,note_on,24,0,5,,,,,,,,4,,,55,105
112800,note_on,24,0,7,,,,,,,,2,,,55,105
112800,note_on,24,0,3,,,,,,,,0,,,69,105
112800,note_on,24,0,6,,,,,,,,5,,,43,105
112896,note_on,96,0,6,,,,,,,,5,,,43,0
112896,note_on,96,0,5,,,,,,,,4,,,55,0
112896,note_on,96,0,1,,,,,,,,0,,,69,0
112896,note_on,96,0,7,,,,,,,,2,,,55,0
112896,note_on,96,0,3,,,,,,,,0,,,69,0
112896,note_on,96,0,2,,,,,,,,1,,,69,0
112920,note_on,168,0,4,,,,,,,,3,,,69,105
112920,note_on,24,0,1,,,,,,,,0,,,77,124
112920,note_on,24,0,2,,,,,,,,1,,,77,105
112920,note_on,24,0,7,,,,,,,,2,,,53,105
112920,note_on,24,0,6,,,,,,,,5,,,41,105
112920,note_on,24,0,5,,,,,,,,4,,,53,105
112920,note_on,24,0,3,,,,,,,,0,,,77,105
112944,note_on,24,0,7,,,,,,,,2,,,69,0
112944,note_on,0,0,7,,,,,,,,2,,,60,0
112944,note_on,0,0,7,,,,,,,,2,,,65,0
113016,note_on,96,0,1,,,,,,,,0,,,77,0
113016,note_on,96,0,4,,,,,,,,3,,,69,0
113016,note_on,96,0,6,,,,,,,,5,,,41,0
113016,note_on,72,0,7,,,,,,,,2,,,53,0
113016,note_on,96,0,2,,,,,,,,1,,,77,0
113016,note_on,96,0,3,,,,,,,,0,,,77,0
113016,note_on,96,0,5,,,,,,,,4,,,53,0
113040,note_on,24,0,5,,,,,,,,4,,,55,105
113040,note_on,24,0,1,,,,,,,,0,,,76,124
113040,note_on,24,0,4,,,,,,,,3,,,70,105
113040,note_on,24,0,3,,,,,,,,0,,,76,105
113040,note_on,24,0,6,,,,,,,,5,,,43,105
113040,note_on,24,0,2,,,,,,,,1,,,76,105
113040,note_on,24,0,7,,,,,,,,2,,,64,105
113040,note_on,0,0,7,,,,,,,,2,,,55,105
113040,note_on,0,0,7,,,,,,,,2,,,70,105
113232,note_on,0,0,7,,,,,,,,2,,,64,0
113232,note_on,192,0,6,,,,,,,,5,,,43,0
113232,note_on,192,0,4,,,,,,,,3,,,70,0
113232,note_on,192,0,2,,,,,,,,1,,,76,0
113232,note_on,192,0,7,,,,,,,,2,,,70,0
113232,note_on,0,0,7,,,,,,,,2,,,55,0
113232,note_on,192,0,3,,,,,,,,0,,,76,0
113232,note_on,192,0,1,,,,,,,,0,,,76,0
113232,note_on,192,0,5,,,,,,,,4,,,55,0
113280,note_on,48,0,2,,,,,,,,1,,,74,105
113280,note_on,48,0,3,,,,,,,,0,,,74,105
113280,note_on,48,0,1,,,,,,,,0,,,74,124
113280,note_on,48,0,6,,,,,,,,5,,,44,105
113280,note_on,48,0,7,,,,,,,,2,,,74,105
113280,note_on,0,0,7,,,,,,,,2,,,71,105
113280,note_on,0,0,7,,,,,,,,2,,,64,105
113280,note_on,0,0,7,,,,,,,,2,,,56,105
113280,note_on,48,0,4,,,,,,,,3,,,71,105
113280,note_on,48,0,5,,,,,,,,4,,,56,105
113472,note_on,192,0,5,,,,,,,,4,,,56,0
113472,note_on,192,0,1,,,,,,,,0,,,74,0
113472,note_on,192,0,3,,,,,,,,0,,,74,0
113472,note_on,192,0,7,,,,,,,,2,,,56,0
113472,note_on,0,0,7,,,,,,,,2,,,74,0
113472,note_on,0,0,7,,,,,,,,2,,,71,0
113472,note_on,0,0,7,,,,,,,,2,,,64,0
113472,note_on,192,0,2,,,,,,,,1,,,74,0
113472,note_on,192,0,4,,,,,,,,3,,,71,0
113472,note_on,192,0,6,,,,,,,,5,,,44,0
113520,note_on,48,0,3,,,,,,,,0,,,81,105
113520,note_on,0,0,7,,,,,,,,2,,,64,105
113520,note_on,48,0,2,,,,,,,,1,,,81,105
113520,note_on,48,0,4,,,,,,,,3,,,60,105
113520,note_on,0,0,7,,,,,,,,2,,,69,105
113520,note_on,48,0,1,,,,,,,,0,,,81,124
113520,note_on,48,0,5,,,,,,,,4,,,57,105
113520,note_on,0,0,7,,,,,,,,2,,,57,105
113520,note_on,48,0,6,,,,,,,,5,,,45,105
113520,note_on,48,0,7,,,,,,,,2,,,73,105
113616,note_on,96,0,2,,,,,,,,1,,,81,0
113616,note_on,96,0,1,,,,,,,,0,,,81,0
113616,note_on,96,0,3,,,,,,,,0,,,81,0
113640,note_on,24,0,1,,,,,,,,0,,,79,124
113640,note_on,24,0,3,,,,,,,,0,,,79,105
113640,note_on,24,0,2,,,,,,,,1,,,79,105
113688,note_on,48,0,1,,,,,,,,0,,,79,0
113688,note_on,48,0,3,,,,,,,,0,,,79,0
113688,note_on,48,0,2,,,,,,,,1,,,79,0
113700,note_on,12,0,1,,,,,,,,0,,,77,124
113700,note_on,12,0,3,,,,,,,,0,,,77,105
113700,note_on,12,0,2,,,,,,,,1,,,77,105
113712,note_on,192,0,6,,,,,,,,5,,,45,0
113712,note_on,192,0,4,,,,,,,,3,,,60,0
113712,note_on,192,0,5,,,,,,,,4,,,57,0
113712,note_on,0,0,7,,,,,,,,2,,,69,0
113712,note_on,0,0,7,,,,,,,,2,,,64,0
113712,note_on,0,0,7,,,,,,,,2,,,73,0
113712,note_on,192,0,7,,,,,,,,2,,,57,0
113748,note_on,48,0,2,,,,,,,,1,,,77,0
113748,note_on,48,0,1,,,,,,,,0,,,77,0
113748,note_on,48,0,3,,,,,,,,0,,,77,0
113760,note_on,12,0,2,,,,,,,,1,,,76,105
113760,note_on,12,0,3,,,,,,,,0,,,76,105
113760,note_on,12,0,1,,,,,,,,0,,,76,124
113856,note_on,96,0,2,,,,,,,,1,,,76,0
113856,note_on,96,0,3,,,,,,,,0,,,76,0
113856,note_on,96,0,1,,,,,,,,0,,,76,0
113880,note_on,168,0,6,,,,,,,,5,,,41,105
113880,note_on,0,0,7,,,,,,,,2,,,53,105
113880,note_on,24,0,3,,,,,,,,0,,,74,105
113880,note_on,0,0,7,,,,,,,,2,,,62,105
113880,note_on,0,0,7,,,,,,,,2,,,69,105
113880,note_on,168,0,7,,,,,,,,2,,,74,105
113880,note_on,168,0,5,,,,,,,,4,,,53,105
113880,note_on,24,0,1,,,,,,,,0,,,74,124
113880,note_on,168,0,4,,,,,,,,3,,,69,105
113880,note_on,24,0,2,,,,,,,,1,,,74,105
113976,note_on,96,0,6,,,,,,,,5,,,41,0
113976,note_on,0,0,7,,,,,,,,2,,,69,0
113976,note_on,96,0,5,,,,,,,,4,,,53,0
113976,note_on,0,0,7,,,,,,,,2,,,62,0
113976,note_on,96,0,2,,,,,,,,1,,,74,0
113976,note_on,0,0,7,,,,,,,,2,,,74,0
113976,note_on,96,0,4,,,,,,,,3,,,69,0
113976,note_on,96,0,3,,,,,,,,0,,,74,0
113976,note_on,96,0,1,,,,,,,,0,,,74,0
113976,note_on,96,0,7,,,,,,,,2,,,53,0
114000,note_on,24,0,3,,,,,,,,0,,,76,105
114000,note_on,24,0,1,,,,,,,,0,,,76,124
114000,note_on,24,0,4,,,,,,,,3,,,70,105
114000,note_on,0,0,7,,,,,,,,2,,,62,105
114000,note_on,0,0,7,,,,,,,,2,,,55,105
114000,note_on,24,0,2,,,,,,,,1,,,76,105
114000,note_on,24,0,7,,,,,,,,2,,,70,105
114000,note_on,0,0,7,,,,,,,,2,,,67,105
114000,note_on,24,0,5,,,,,,,,4,,,55,105
114000,note_on,24,0,6,,,,,,,,5,,,43,105
114096,note_on,96,0,7,,,,,,,,2,,,55,0
114096,note_on,96,0,6,,,,,,,,5,,,43,0
114096,note_on,96,0,4,,,,,,,,3,,,70,0
114096,note_on,96,0,5,,,,,,,,4,,,55,0
114120,note_on,24,0,7,,,,,,,,2,,,52,105
114120,note_on,24,0,6,,,,,,,,5,,,40,105
114120,note_on,24,0,5,,,,,,,,4,,,52,105
114120,note_on,24,0,4,,,,,,,,3,,,67,105
114192,note_on,0,0,7,,,,,,,,2,,,62,0
114192,note_on,192,0,2,,,,,,,,1,,,76,0
114192,note_on,192,0,1,,,,,,,,0,,,76,0
114192,note_on,192,0,3,,,,,,,,0,,,76,0
114192,note_on,72,0,7,,,,,,,,2,,,70,0
114192,note_on,0,0,7,,,,,,,,2,,,67,0
114216,note_on,96,0,5,,,,,,,,4,,,52,0
114216,note_on,24,0,7,,,,,,,,2,,,52,0
114216,note_on,96,0,6,,,,,,,,5,,,40,0
114216,note_on,96,0,4,,,,,,,,3,,,67,0
114240,note_on,48,0,1,,,,,,,,0,,,73,124
114240,note_on,0,0,7,,,,,,,,2,,,57,105
114240,note_on,24,0,6,,,,,,,,5,,,45,105
114240,note_on,0,0,7,,,,,,,,2,,,61,105
114240,note_on,0,0,7,,,,,,,,2,,,64,105
114240,note_on,24,0,7,,,,,,,,2,,,69,105
114240,note_on,48,0,3,,,,,,,,0,,,73,105
114240,note_on,24,0,5,,,,,,,,4,,,57,105
114240,note_on,48,0,2,,,,,,,,1,,,73,105
114240,note_on,24,0,4,,,,,,,,3,,,64,105
114264,note_on,24,0,3,,,,,,,,0,,,73,0
114264,note_on,24,0,1,,,,,,,,0,,,73,0
114264,note_on,24,0,2,,,,,,,,1,,,73,0
114270,note_on,6,0,3,,,,,,,,0,,,74,105
114270,note_on,6,0,1,,,,,,,,0,,,74,124
114270,note_on,6,0,2,,,,,,,,1,,,74,105
114294,note_on,24,0,3,,,,,,,,0,,,74,0
114294,note_on,24,0,1,,,,,,,,0,,,74,0
114294,note_on,24,0,2,,,,,,,,1,,,74,0
114300,note_on,6,0,3,,,,,,,,0,,,73,105
114300,note_on,6,0,2,,,,,,,,1,,,73,105
114300,note_on,6,0,1,,,,,,,,0,,,73,124
114324,note_on,24,0,3,,,,,,,,0,,,73,0
114324,note_on,24,0,1,,,,,,,,0,,,73,0
114324,note_on,24,0,2,,,,,,,,1,,,73,0
114330,note_on,6,0,3,,,,,,,,0,,,74,105
114330,note_on,6,0,2,,,,,,,,1,,,74,105
114330,note_on,6,0,1,,,,,,,,0,,,74,124
114336,note_on,96,0,7,,,,,,,,2,,,57,0
114336,note_on,96,0,5,,,,,,,,4,,,57,0
114336,note_on,96,0,6,,,,,,,,5,,,45,0
114354,note_on,24,0,1,,,,,,,,0,,,74,0
114354,note_on,24,0,3,,,,,,,,0,,,74,0
114354,note_on,24,0,2,,,,,,,,1,,,74,0
114360,note_on,24,0,6,,,,,,,,5,,,33,105
114360,note_on,6,0,2,,,,,,,,1,,,73,105
114360,note_on,6,0,1,,,,,,,,0,,,73,124
114360,note_on,24,0,5,,,,,,,,4,,,45,105
114360,note_on,24,0,7,,,,,,,,2,,,45,105
114360,note_on,6,0,3,,,,,,,,0,,,73,105
114384,note_on,24,0,3,,,,,,,,0,,,73,0
114384,note_on,24,0,1,,,,,,,,0,,,73,0
114384,note_on,24,0,2,,,,,,,,1,,,73,0
114390,note_on,6,0,3,,,,,,,,0,,,74,105
114390,note_on,6,0,2,,,,,,,,1,,,74,105
114390,note_on,6,0,1,,,,,,,,0,,,74,124
114414,note_on,24,0,3,,,,,,,,0,,,74,0
114414,note_on,24,0,2,,,,,,,,1,,,74,0
114414,note_on,24,0,1,,,,,,,,0,,,74,0
114420,note_on,6,0,3,,,,,,,,0,,,73,105
114420,note_on,6,0,1,,,,,,,,0,,,73,124
114420,note_on,6,0,2,,,,,,,,1,,,73,105
114432,note_on,192,0,4,,,,,,,,3,,,64,0
114432,note_on,0,0,7,,,,,,,,2,,,64,0
114432,note_on,72,0,7,,,,,,,,2,,,69,0
114432,note_on,0,0,7,,,,,,,,2,,,61,0
114444,note_on,24,0,2,,,,,,,,1,,,73,0
114444,note_on,24,0,1,,,,,,,,0,,,73,0
114444,note_on,24,0,3,,,,,,,,0,,,73,0
114450,note_on,6,0,1,,,,,,,,0,,,74,124
114450,note_on,6,0,2,,,,,,,,1,,,74,105
114450,note_on,6,0,3,,,,,,,,0,,,74,105
114456,note_on,96,0,6,,,,,,,,5,,,33,0
114456,note_on,96,0,5,,,,,,,,4,,,45,0
114456,note_on,24,0,7,,,,,,,,2,,,45,0
114474,note_on,24,0,1,,,,,,,,0,,,74,0
114474,note_on,24,0,2,,,,,,,,1,,,74,0
114474,note_on,24,0,3,,,,,,,,0,,,74,0
114480,note_on,24,0,6,,,,,,,,5,,,38,105
114480,note_on,6,0,3,,,,,,,,0,,,74,105
114480,note_on,24,0,5,,,,,,,,4,,,50,105
114480,note_on,0,0,7,,,,,,,,2,,,50,105
114480,note_on,0,0,7,,,,,,,,2,,,69,105
114480,note_on,24,0,7,,,,,,,,2,,,62,105
114480,note_on,6,0,1,,,,,,,,0,,,74,124
114480,note_on,6,0,2,,,,,,,,1,,,74,105
114480,note_on,48,0,4,,,,,,,,3,,,65,105
114576,note_on,96,0,5,,,,,,,,4,,,50,0
114576,note_on,96,0,7,,,,,,,,2,,,50,0
114576,note_on,96,0,6,,,,,,,,5,,,38,0
114600,note_on,24,0,7,,,,,,,,2,,,52,105
114600,note_on,24,0,6,,,,,,,,5,,,40,105
114600,note_on,24,0,5,,,,,,,,4,,,52,105
114672,note_on,192,0,3,,,,,,,,0,,,74,0
114672,note_on,192,0,4,,,,,,,,3,,,65,0
114672,note_on,192,0,1,,,,,,,,0,,,74,0
114672,note_on,192,0,2,,,,,,,,1,,,74,0
114696,note_on,96,0,6,,,,,,,,5,,,40,0
114696,note_on,96,0,7,,,,,,,,2,,,52,0
114696,note_on,96,0,5,,,,,,,,4,,,52,0
114720,note_on,24,0,5,,,,,,,,4,,,53,105
114720,note_on,24,0,7,,,,,,,,2,,,53,105
114720,note_on,0,0,7,,,,,,,,2,,,62,105
114720,note_on,24,0,6,,,,,,,,5,,,41,105
114816,note_on,96,0,5,,,,,,,,4,,,53,0
114816,note_on,96,0,7,,,,,,,,2,,,53,0
114816,note_on,96,0,6,,,,,,,,5,,,41,0
114840,note_on,24,0,5,,,,,,,,4,,,50,105
114840,note_on,168,0,2,,,,,,,,1,,,65,105
114840,note_on,168,0,3,,,,,,,,0,,,65,105
114840,note_on,24,0,6,,,,,,,,5,,,38,105
114840,note_on,168,0,4,,,,,,,,3,,,57,105
114840,note_on,24,0,7,,,,,,,,2,,,50,105
114840,note_on,168,0,1,,,,,,,,0,,,65,124
114864,note_on,24,0,7,,,,,,,,2,,,62,0
114864,note_on,0,0,7,,,,,,,,2,,,69,0
114912,note_on,48,0,7,,,,,,,,2,,,62,0
114936,note_on,96,0,2,,,,,,,,1,,,65,0
114936,note_on,96,0,6,,,,,,,,5,,,38,0
114936,note_on,96,0,3,,,,,,,,0,,,65,0
114936,note_on,96,0,4,,,,,,,,3,,,57,0
114936,note_on,96,0,5,,,,,,,,4,,,50,0
114936,note_on,24,0,7,,,,,,,,2,,,50,0
114936,note_on,96,0,1,,,,,,,,0,,,65,0
114960,note_on,24,0,2,,,,,,,,1,,,64,105
114960,note_on,24,0,4,,,,,,,,3,,,58,105
114960,note_on,24,0,6,,,,,,,,5,,,31,105
114960,note_on,0,0,7,,,,,,,,2,,,43,105
114960,note_on,0,0,7,,,,,,,,2,,,64,105
114960,note_on,24,0,7,,,,,,,,2,,,70,105
114960,note_on,24,0,3,,,,,,,,0,,,64,105
114960,note_on,24,0,5,,,,,,,,4,,,43,105
114960,note_on,24,0,1,,,,,,,,0,,,64,124
115152,note_on,192,0,2,,,,,,,,1,,,64,0
115152,note_on,0,0,7,,,,,,,,2,,,70,0
115152,note_on,192,0,6,,,,,,,,5,,,31,0
115152,note_on,192,0,1,,,,,,,,0,,,64,0
115152,note_on,0,0,7,,,,,,,,2,,,64,0
115152,note_on,192,0,7,,,,,,,,2,,,43,0
115152,note_on,192,0,4,,,,,,,,3,,,58,0
115152,note_on,192,0,5,,,,,,,,4,,,43,0
115152,note_on,192,0,3,,,,,,,,0,,,64,0
115200,note_on,48,0,5,,,,,,,,4,,,44,105
115200,note_on,48,0,1,,,,,,,,0,,,62,124
115200,note_on,48,0,6,,,,,,,,5,,,32,105
115200,note_on,0,0,7,,,,,,,,2,,,44,105
115200,note_on,48,0,2,,,,,,,,1,,,62,105
115200,note_on,48,0,4,,,,,,,,3,,,59,105
115200,note_on,48,0,3,,,,,,,,0,,,62,105
115200,note_on,0,0,7,,,,,,,,2,,,71,105
115200,note_on,48,0,7,,,,,,,,2,,,74,105
115200,note_on,0,0,7,,,,,,,,2,,,64,105
115392,note_on,192,0,2,,,,,,,,1,,,62,0
115392,note_on,0,0,7,,,,,,,,2,,,74,0
115392,note_on,0,0,7,,,,,,,,2,,,71,0
115392,note_on,0,0,7,,,,,,,,2,,,64,0
115392,note_on,192,0,5,,,,,,,,4,,,44,0
115392,note_on,192,0,7,,,,,,,,2,,,44,0
115392,note_on,192,0,6,,,,,,,,5,,,32,0
115392,note_on,192,0,1,,,,,,,,0,,,62,0
115392,note_on,192,0,4,,,,,,,,3,,,59,0
115392,note_on,192,0,3,,,,,,,,0,,,62,0
115440,note_on,48,0,6,,,,,,,,5,,,33,105
115440,note_on,48,0,4,,,,,,,,3,,,52,105
115440,note_on,48,0,7,,,,,,,,2,,,73,105
115440,note_on,0,0,7,,,,,,,,2,,,69,105
115440,note_on,0,0,7,,,,,,,,2,,,64,105
115440,note_on,0,0,7,,,,,,,,2,,,45,105
115440,note_on,48,0,3,,,,,,,,0,,,69,105
115440,note_on,48,0,5,,,,,,,,4,,,45,105
115440,note_on,48,0,2,,,,,,,,1,,,69,105
115440,note_on,48,0,1,,,,,,,,0,,,69,124
115536,note_on,96,0,1,,,,,,,,0,,,69,0
115536,note_on,96,0,3,,,,,,,,0,,,69,0
115536,note_on,96,0,2,,,,,,,,1,,,69,0
115560,note_on,24,0,1,,,,,,,,0,,,67,124
115560,note_on,24,0,2,,,,,,,,1,,,67,105
115560,note_on,24,0,3,,,,,,,,0,,,67,105
115608,note_on,48,0,2,,,,,,,,1,,,67,0
115608,note_on,48,0,3,,,,,,,,0,,,67,0
115608,note_on,48,0,1,,,,,,,,0,,,67,0
115620,note_on,12,0,1,,,,,,,,0,,,65,124
115620,note_on,12,0,2,,,,,,,,1,,,65,105
115620,note_on,12,0,3,,,,,,,,0,,,65,105
115632,note_on,192,0,6,,,,,,,,5,,,33,0
115632,note_on,0,0,7,,,,,,,,2,,,73,0
115632,note_on,192,0,7,,,,,,,,2,,,45,0
115632,note_on,192,0,5,,,,,,,,4,,,45,0
115632,note_on,0,0,7,,,,,,,,2,,,64,0
115632,note_on,192,0,4,,,,,,,,3,,,52,0
115632,note_on,0,0,7,,,,,,,,2,,,69,0
115668,note_on,48,0,1,,,,,,,,0,,,65,0
115668,note_on,48,0,3,,,,,,,,0,,,65,0
115668,note_on,48,0,2,,,,,,,,1,,,65,0
115680,note_on,12,0,1,,,,,,,,0,,,64,124
115680,note_on,12,0,2,,,,,,,,1,,,64,105
115680,note_on,12,0,3,,,,,,,,0,,,64,105
115776,note_on,96,0,1,,,,,,,,0,,,64,0
115776,note_on,96,0,2,,,,,,,,1,,,64,0
115776,note_on,96,0,3,,,,,,,,0,,,64,0
115800,note_on,168,0,7,,,,,,,,2,,,74,105
115800,note_on,0,0,7,,,,,,,,2,,,69,105
115800,note_on,0,0,7,,,,,,,,2,,,62,105
115800,note_on,0,0,7,,,,,,,,2,,,53,105
115800,note_on,168,0,6,,,,,,,,5,,,41,105
115800,note_on,24,0,3,,,,,,,,0,,,62,105
115800,note_on,24,0,2,,,,,,,,1,,,62,105
115800,note_on,168,0,4,,,,,,,,3,,,57,105
115800,note_on,24,0,1,,,,,,,,0,,,62,124
115800,note_on,168,0,5,,,,,,,,4,,,53,105
115896,note_on,96,0,3,,,,,,,,0,,,62,0
115896,note_on,96,0,2,,,,,,,,1,,,62,0
115896,note_on,96,0,7,,,,,,,,2,,,53,0
115896,note_on,0,0,7,,,,,,,,2,,,69,0
115896,note_on,0,0,7,,,,,,,,2,,,62,0
115896,note_on,96,0,5,,,,,,,,4,,,53,0
115896,note_on,96,0,4,,,,,,,,3,,,57,0
115896,note_on,96,0,1,,,,,,,,0,,,62,0
115896,note_on,96,0,6,,,,,,,,5,,,41,0
115896,note_on,0,0,7,,,,,,,,2,,,74,0
115920,note_on,24,0,7,,,,,,,,2,,,70,105
115920,note_on,0,0,7,,,,,,,,2,,,57,105
115920,note_on,24,0,3,,,,,,,,0,,,64,105
115920,note_on,0,0,7,,,,,,,,2,,,64,105
115920,note_on,24,0,1,,,,,,,,0,,,64,124
115920,note_on,24,0,4,,,,,,,,3,,,58,105
115920,note_on,24,0,6,,,,,,,,5,,,45,105
115920,note_on,24,0,2,,,,,,,,1,,,64,105
115920,note_on,24,0,5,,,,,,,,4,,,57,105
116016,note_on,96,0,5,,,,,,,,4,,,57,0
116016,note_on,96,0,7,,,,,,,,2,,,64,0
116016,note_on,0,0,7,,,,,,,,2,,,57,0
116016,note_on,96,0,6,,,,,,,,5,,,45,0
116016,note_on,96,0,4,,,,,,,,3,,,58,0
116040,note_on,24,0,7,,,,,,,,2,,,52,105
116040,note_on,0,0,7,,,,,,,,2,,,67,105
116040,note_on,24,0,6,,,,,,,,5,,,40,105
116040,note_on,24,0,4,,,,,,,,3,,,55,105
116040,note_on,24,0,5,,,,,,,,4,,,52,105
116112,note_on,192,0,3,,,,,,,,0,,,64,0
116112,note_on,72,0,7,,,,,,,,2,,,70,0
116112,note_on,192,0,1,,,,,,,,0,,,64,0
116112,note_on,192,0,2,,,,,,,,1,,,64,0
116136,note_on,96,0,5,,,,,,,,4,,,52,0
116136,note_on,96,0,4,,,,,,,,3,,,55,0
116136,note_on,96,0,6,,,,,,,,5,,,40,0
116136,note_on,24,0,7,,,,,,,,2,,,67,0
116136,note_on,0,0,7,,,,,,,,2,,,52,0
116160,note_on,48,0,3,,,,,,,,0,,,61,105
116160,note_on,24,0,5,,,,,,,,4,,,57,105
116160,note_on,24,0,4,,,,,,,,3,,,57,105
116160,note_on,48,0,1,,,,,,,,0,,,61,124
116160,note_on,24,0,6,,,,,,,,5,,,45,105
116160,note_on,0,0,7,,,,,,,,2,,,61,105
116160,note_on,0,0,7,,,,,,,,2,,,64,105
116160,note_on,0,0,7,,,,,,,,2,,,57,105
116160,note_on,24,0,7,,,,,,,,2,,,69,105
116160,note_on,48,0,2,,,,,,,,1,,,61,105
116256,note_on,96,0,7,,,,,,,,2,,,57,0
116256,note_on,96,0,5,,,,,,,,4,,,57,0
116256,note_on,96,0,6,,,,,,,,5,,,45,0
116280,note_on,24,0,7,,,,,,,,2,,,45,105
116280,note_on,24,0,5,,,,,,,,4,,,45,105
116280,note_on,24,0,6,,,,,,,,5,,,33,105
116352,note_on,72,0,7,,,,,,,,2,,,69,0
116352,note_on,192,0,3,,,,,,,,0,,,61,0
116352,note_on,192,0,1,,,,,,,,0,,,61,0
116352,note_on,0,0,7,,,,,,,,2,,,61,0
116352,note_on,0,0,7,,,,,,,,2,,,64,0
116352,note_on,192,0,2,,,,,,,,1,,,61,0
116352,note_on,192,0,4,,,,,,,,3,,,57,0
116376,note_on,96,0,5,,,,,,,,4,,,45,0
116376,note_on,96,0,6,,,,,,,,5,,,33,0
116376,note_on,24,0,7,,,,,,,,2,,,45,0
116400,note_on,48,0,3,,,,,,,,0,,,62,105
116400,note_on,48,0,4,,,,,,,,3,,,53,105
116400,note_on,24,0,6,,,,,,,,5,,,38,105
116400,note_on,48,0,2,,,,,,,,1,,,62,105
116400,note_on,24,0,7,,,,,,,,2,,,50,105
116400,note_on,48,0,1,,,,,,,,0,,,62,124
116400,note_on,24,0,5,,,,,,,,4,,,50,105
116592,note_on,192,0,5,,,,,,,,4,,,50,0
116592,note_on,192,0,2,,,,,,,,1,,,62,0
116592,note_on,192,0,1,,,,,,,,0,,,62,0
116592,note_on,192,0,4,,,,,,,,3,,,53,0
116592,note_on,192,0,3,,,,,,,,0,,,62,0
116592,note_on,192,0,6,,,,,,,,5,,,38,0
116592,note_on,192,0,7,,,,,,,,2,,,50,0
116760,note_on,168,0,7,,,,,,,,2,,,62,105
116760,note_on,168,0,5,,,,,,,,4,,,53,105
116760,note_on,168,0,1,,,,,,,,0,,,69,105
116760,note_on,0,0,7,,,,,,,,2,,,53,105
116856,note_on,0,0,7,,,,,,,,2,,,62,0
116856,note_on,96,0,1,,,,,,,,0,,,69,0
116856,note_on,96,0,5,,,,,,,,4,,,53,0
116856,note_on,96,0,7,,,,,,,,2,,,53,0
116880,note_on,0,0,7,,,,,,,,2,,,65,105
116880,note_on,24,0,7,,,,,,,,2,,,50,105
116880,note_on,24,0,5,,,,,,,,4,,,50,105
116880,note_on,24,0,1,,,,,,,,0,,,74,105
116928,note_on,48,0,1,,,,,,,,0,,,74,0
116940,note_on,12,0,1,,,,,,,,0,,,73,105
116988,note_on,48,0,1,,,,,,,,0,,,73,0
117000,note_on,12,0,1,,,,,,,,0,,,71,105
117048,note_on,48,0,1,,,,,,,,0,,,71,0
117060,note_on,12,0,1,,,,,,,,0,,,69,105
117072,note_on,192,0,5,,,,,,,,4,,,50,0
117072,note_on,192,0,7,,,,,,,,2,,,65,0
117072,note_on,0,0,7,,,,,,,,2,,,50,0
117108,note_on,48,0,1,,,,,,,,0,,,69,0
117120,note_on,0,0,7,,,,,,,,2,,,69,105
117120,note_on,48,0,5,,,,,,,,4,,,49,105
117120,note_on,12,0,1,,,,,,,,0,,,76,105
117120,note_on,48,0,7,,,,,,,,2,,,64,105
117120,note_on,0,0,7,,,,,,,,2,,,49,105
117168,note_on,48,0,1,,,,,,,,0,,,76,0
117180,note_on,12,0,1,,,,,,,,0,,,73,105
117228,note_on,48,0,1,,,,,,,,0,,,73,0
117240,note_on,12,0,1,,,,,,,,0,,,71,105
117288,note_on,48,0,1,,,,,,,,0,,,71,0
117300,note_on,12,0,1,,,,,,,,0,,,69,105
117312,note_on,192,0,7,,,,,,,,2,,,49,0
117312,note_on,0,0,7,,,,,,,,2,,,64,0
117312,note_on,0,0,7,,,,,,,,2,,,69,0
117312,note_on,192,0,5,,,,,,,,4,,,49,0
117348,note_on,48,0,1,,,,,,,,0,,,69,0
117360,note_on,0,0,7,,,,,,,,2,,,65,105
117360,note_on,0,0,7,,,,,,,,2,,,50,105
117360,note_on,48,0,7,,,,,,,,2,,,69,105
117360,note_on,12,0,1,,,,,,,,0,,,77,105
117360,note_on,48,0,5,,,,,,,,4,,,50,105
117552,note_on,192,0,7,,,,,,,,2,,,65,0
117552,note_on,0,0,7,,,,,,,,2,,,50,0
117552,note_on,0,0,7,,,,,,,,2,,,69,0
117552,note_on,192,0,1,,,,,,,,0,,,77,0
117552,note_on,192,0,5,,,,,,,,4,,,50,0
117600,note_on,48,0,7,,,,,,,,2,,,69,105
117600,note_on,0,0,7,,,,,,,,2,,,64,105
117600,note_on,0,0,7,,,,,,,,2,,,45,105
117600,note_on,48,0,1,,,,,,,,0,,,76,105
117600,note_on,48,0,5,,,,,,,,4,,,45,105
117696,note_on,96,0,1,,,,,,,,0,,,76,0
117696,note_on,96,0,5,,,,,,,,4,,,45,0
117696,note_on,96,0,7,,,,,,,,2,,,45,0
117696,note_on,0,0,7,,,,,,,,2,,,64,0
117720,note_on,24,0,7,,,,,,,,2,,,65,105
117720,note_on,24,0,5,,,,,,,,4,,,50,105
117720,note_on,24,0,1,,,,,,,,0,,,77,105
117720,note_on,0,0,7,,,,,,,,2,,,50,105
117792,note_on,72,0,7,,,,,,,,2,,,69,0
117816,note_on,96,0,5,,,,,,,,4,,,50,0
117816,note_on,96,0,1,,,,,,,,0,,,77,0
117816,note_on,24,0,7,,,,,,,,2,,,50,0
117816,note_on,0,0,7,,,,,,,,2,,,65,0
117840,note_on,24,0,5,,,,,,,,4,,,62,105
117840,note_on,24,0,7,,,,,,,,2,,,70,105
117840,note_on,0,0,7,,,,,,,,2,,,67,105
117840,note_on,24,0,1,,,,,,,,0,,,82,105
117840,note_on,0,0,7,,,,,,,,2,,,62,105
117888,note_on,48,0,1,,,,,,,,0,,,82,0
117900,note_on,12,0,1,,,,,,,,0,,,81,105
117948,note_on,48,0,1,,,,,,,,0,,,81,0
117960,note_on,12,0,1,,,,,,,,0,,,79,105
118008,note_on,48,0,1,,,,,,,,0,,,79,0
118020,note_on,12,0,1,,,,,,,,0,,,77,105
118032,note_on,0,0,7,,,,,,,,2,,,70,0
118032,note_on,0,0,7,,,,,,,,2,,,62,0
118032,note_on,192,0,7,,,,,,,,2,,,67,0
118032,note_on,192,0,5,,,,,,,,4,,,62,0
118068,note_on,48,0,1,,,,,,,,0,,,77,0
118080,note_on,48,0,7,,,,,,,,2,,,58,105
118080,note_on,0,0,7,,,,,,,,2,,,67,105
118080,note_on,0,0,7,,,,,,,,2,,,74,105
118080,note_on,48,0,5,,,,,,,,4,,,58,105
118080,note_on,12,0,1,,,,,,,,0,,,79,105
118080,note_on,0,0,7,,,,,,,,2,,,62,105
118128,note_on,48,0,1,,,,,,,,0,,,79,0
118140,note_on,12,0,1,,,,,,,,0,,,77,105
118188,note_on,48,0,1,,,,,,,,0,,,77,0
118200,note_on,12,0,1,,,,,,,,0,,,76,105
118248,note_on,48,0,1,,,,,,,,0,,,76,0
118260,note_on,12,0,1,,,,,,,,0,,,74,105
118272,note_on,0,0,7,,,,,,,,2,,,62,0
118272,note_on,0,0,7,,,,,,,,2,,,74,0
118272,note_on,0,0,7,,,,,,,,2,,,58,0
118272,note_on,192,0,7,,,,,,,,2,,,67,0
118272,note_on,192,0,5,,,,,,,,4,,,58,0
118308,note_on,48,0,1,,,,,,,,0,,,74,0
118320,note_on,48,0,7,,,,,,,,2,,,73,105
118320,note_on,0,0,7,,,,,,,,2,,,57,105
118320,note_on,0,0,7,,,,,,,,2,,,64,105
118320,note_on,0,0,7,,,,,,,,2,,,69,105
118320,note_on,48,0,5,,,,,,,,4,,,57,105
118320,note_on,12,0,1,,,,,,,,0,,,73,105
118416,note_on,96,0,1,,,,,,,,0,,,73,0
118440,note_on,24,0,1,,,,,,,,0,,,69,105
118512,note_on,192,0,5,,,,,,,,4,,,57,0
118512,note_on,192,0,7,,,,,,,,2,,,57,0
118536,note_on,96,0,1,,,,,,,,0,,,69,0
118560,note_on,48,0,7,,,,,,,,2,,,45,105
118560,note_on,48,0,5,,,,,,,,4,,,45,105
118560,note_on,24,0,1,,,,,,,,0,,,57,105
118608,note_on,0,0,7,,,,,,,,2,,,64,0
118608,note_on,0,0,7,,,,,,,,2,,,69,0
118608,note_on,48,0,7,,,,,,,,2,,,73,0
118656,note_on,96,0,1,,,,,,,,0,,,57,0
118656,note_on,96,0,5,,,,,,,,4,,,45,0
118656,note_on,48,0,7,,,,,,,,2,,,45,0
118680,note_on,24,0,1,,,,,,,,0,,,69,105
118680,note_on,24,0,5,,,,,,,,4,,,53,105
118680,note_on,24,0,7,,,,,,,,2,,,74,105
118680,note_on,0,0,7,,,,,,,,2,,,69,105
118680,note_on,0,0,7,,,,,,,,2,,,53,105
118776,note_on,96,0,7,,,,,,,,2,,,53,0
118776,note_on,96,0,1,,,,,,,,0,,,69,0
118776,note_on,0,0,7,,,,,,,,2,,,69,0
118776,note_on,0,0,7,,,,,,,,2,,,74,0
118776,note_on,96,0,5,,,,,,,,4,,,53,0
118800,note_on,24,0,1,,,,,,,,0,,,74,105
118800,note_on,0,0,7,,,,,,,,2,,,50,105
118800,note_on,0,0,7,,,,,,,,2,,,77,105
118800,note_on,0,0,7,,,,,,,,2,,,74,105
118800,note_on,24,0,7,,,,,,,,2,,,69,105
118800,note_on,24,0,5,,,,,,,,4,,,50,105
118848,note_on,48,0,1,,,,,,,,0,,,74,0
118860,note_on,12,0,1,,,,,,,,0,,,73,105
118908,note_on,48,0,1,,,,,,,,0,,,73,0
118920,note_on,12,0,1,,,,,,,,0,,,71,105
118968,note_on,48,0,1,,,,,,,,0,,,71,0
118980,note_on,12,0,1,,,,,,,,0,,,69,105
118992,note_on,0,0,7,,,,,,,,2,,,50,0
118992,note_on,0,0,7,,,,,,,,2,,,77,0
118992,note_on,0,0,7,,,,,,,,2,,,69,0
118992,note_on,192,0,7,,,,,,,,2,,,74,0
118992,note_on,192,0,5,,,,,,,,4,,,50,0
119028,note_on,48,0,1,,,,,,,,0,,,69,0
119040,note_on,0,0,7,,,,,,,,2,,,69,105
119040,note_on,48,0,7,,,,,,,,2,,,76,105
119040,note_on,0,0,7,,,,,,,,2,,,49,105
119040,note_on,12,0,1,,,,,,,,0,,,76,105
119040,note_on,48,0,5,,,,,,,,4,,,49,105
119088,note_on,48,0,1,,,,,,,,0,,,76,0
119100,note_on,12,0,1,,,,,,,,0,,,73,105
119148,note_on,48,0,1,,,,,,,,0,,,73,0
119160,note_on,12,0,1,,,,,,,,0,,,71,105
119208,note_on,48,0,1,,,,,,,,0,,,71,0
119220,note_on,12,0,1,,,,,,,,0,,,69,105
119232,note_on,192,0,7,,,,,,,,2,,,69,0
119232,note_on,192,0,5,,,,,,,,4,,,49,0
119232,note_on,0,0,7,,,,,,,,2,,,76,0
119232,note_on,0,0,7,,,,,,,,2,,,49,0
119268,note_on,48,0,1,,,,,,,,0,,,69,0
119280,note_on,48,0,5,,,,,,,,4,,,50,105
119280,note_on,0,0,7,,,,,,,,2,,,50,105
119280,note_on,0,0,7,,,,,,,,2,,,69,105
119280,note_on,12,0,1,,,,,,,,0,,,77,105
119280,note_on,48,0,7,,,,,,,,2,,,74,105
119280,note_on,0,0,7,,,,,,,,2,,,65,105
119472,note_on,192,0,1,,,,,,,,0,,,77,0
119472,note_on,192,0,5,,,,,,,,4,,,50,0
119472,note_on,0,0,7,,,,,,,,2,,,69,0
119472,note_on,192,0,7,,,,,,,,2,,,50,0
119472,note_on,0,0,7,,,,,,,,2,,,74,0
119472,note_on,0,0,7,,,,,,,,2,,,65,0
119520,note_on,0,0,7,,,,,,,,2,,,69,105
119520,note_on,0,0,7,,,,,,,,2,,,64,105
119520,note_on,48,0,7,,,,,,,,2,,,45,105
119520,note_on,48,0,1,,,,,,,,0,,,76,105
119520,note_on,0,0,7,,,,,,,,2,,,73,105
119520,note_on,48,0,5,,,,,,,,4,,,45,105
119616,note_on,96,0,7,,,,,,,,2,,,64,0
119616,note_on,0,0,7,,,,,,,,2,,,45,0
119616,note_on,0,0,7,,,,,,,,2,,,73,0
119616,note_on,0,0,7,,,,,,,,2,,,69,0
119616,note_on,96,0,1,,,,,,,,0,,,76,0
119616,note_on,96,0,5,,,,,,,,4,,,45,0
119640,note_on,24,0,1,,,,,,,,0,,,77,105
119640,note_on,0,0,7,,,,,,,,2,,,65,105
119640,note_on,0,0,7,,,,,,,,2,,,62,105
119640,note_on,0,0,7,,,,,,,,2,,,69,105
119640,note_on,24,0,7,,,,,,,,2,,,74,105
119640,note_on,24,0,5,,,,,,,,4,,,62,105
119736,note_on,0,0,7,,,,,,,,2,,,65,0
119736,note_on,0,0,7,,,,,,,,2,,,74,0
119736,note_on,0,0,7,,,,,,,,2,,,69,0
119736,note_on,96,0,7,,,,,,,,2,,,62,0
119736,note_on,96,0,1,,,,,,,,0,,,77,0
119736,note_on,96,0,5,,,,,,,,4,,,62,0
119760,note_on,24,0,1,,,,,,,,0,,,79,105
119760,note_on,0,0,7,,,,,,,,2,,,74,105
119760,note_on,0,0,7,,,,,,,,2,,,67,105
119760,note_on,24,0,7,,,,,,,,2,,,79,105
119760,note_on,0,0,7,,,,,,,,2,,,58,105
119760,note_on,24,0,5,,,,,,,,4,,,58,105
119808,note_on,48,0,1,,,,,,,,0,,,79,0
119820,note_on,12,0,1,,,,,,,,0,,,77,105
119868,note_on,48,0,1,,,,,,,,0,,,77,0
119880,note_on,12,0,1,,,,,,,,0,,,76,105
119928,note_on,48,0,1,,,,,,,,0,,,76,0
119940,note_on,12,0,1,,,,,,,,0,,,74,105
119952,note_on,192,0,7,,,,,,,,2,,,58,0
119952,note_on,192,0,5,,,,,,,,4,,,58,0
119988,note_on,48,0,1,,,,,,,,0,,,74,0
120000,note_on,12,0,1,,,,,,,,0,,,79,105
120000,note_on,48,0,7,,,,,,,,2,,,46,105
120000,note_on,48,0,5,,,,,,,,4,,,46,105
120048,note_on,48,0,1,,,,,,,,0,,,79,0
120060,note_on,12,0,1,,,,,,,,0,,,77,105
120108,note_on,48,0,1,,,,,,,,0,,,77,0
120120,note_on,12,0,1,,,,,,,,0,,,76,105
120144,note_on,0,0,7,,,,,,,,2,,,67,0
120144,note_on,0,0,7,,,,,,,,2,,,74,0
120144,note_on,144,0,7,,,,,,,,2,,,79,0
120168,note_on,48,0,1,,,,,,,,0,,,76,0
120180,note_on,12,0,1,,,,,,,,0,,,74,105
120192,note_on,48,0,7,,,,,,,,2,,,46,0
120192,note_on,192,0,5,,,,,,,,4,,,46,0
120228,note_on,48,0,1,,,,,,,,0,,,74,0
120240,note_on,12,0,1,,,,,,,,0,,,81,105
120240,note_on,48,0,7,,,,,,,,2,,,69,105
120240,note_on,0,0,7,,,,,,,,2,,,73,105
120240,note_on,48,0,5,,,,,,,,4,,,45,105
120240,note_on,0,0,7,,,,,,,,2,,,76,105
120240,note_on,0,0,7,,,,,,,,2,,,45,105
120336,note_on,96,0,7,,,,,,,,2,,,45,0
120336,note_on,96,0,5,,,,,,,,4,,,45,0
120360,note_on,24,0,5,,,,,,,,4,,,57,105
120360,note_on,24,0,7,,,,,,,,2,,,57,105
120432,note_on,72,0,7,,,,,,,,2,,,69,0
120432,note_on,0,0,7,,,,,,,,2,,,73,0
120432,note_on,0,0,7,,,,,,,,2,,,76,0
120432,note_on,192,0,1,,,,,,,,0,,,81,0
120456,note_on,96,0,5,,,,,,,,4,,,57,0
120456,note_on,24,0,7,,,,,,,,2,,,57,0
120480,note_on,0,0,7,,,,,,,,2,,,64,105
120480,note_on,24,0,5,,,,,,,,4,,,61,105
120480,note_on,0,0,7,,,,,,,,2,,,61,105
120480,note_on,24,0,7,,,,,,,,2,,,69,105
120576,note_on,96,0,7,,,,,,,,2,,,61,0
120576,note_on,96,0,5,,,,,,,,4,,,61,0
120600,note_on,24,0,7,,,,,,,,2,,,57,105
120600,note_on,24,0,5,,,,,,,,4,,,57,105
120600,note_on,168,0,1,,,,,,,,0,,,81,105
120672,note_on,0,0,7,,,,,,,,2,,,69,0
120672,note_on,72,0,7,,,,,,,,2,,,64,0
120696,note_on,96,0,1,,,,,,,,0,,,81,0
120696,note_on,24,0,7,,,,,,,,2,,,57,0
120696,note_on,96,0,5,,,,,,,,4,,,57,0
120720,note_on,24,0,1,,,,,,,,0,,,62,105
120816,note_on,96,0,1,,,,,,,,0,,,62,0
120840,note_on,144,0,5,,,,,,,,4,,,50,105
120840,note_on,144,0,7,,,,,,,,2,,,50,105
120840,note_on,24,0,1,,,,,,,,0,,,81,105
120936,note_on,96,0,5,,,,,,,,4,,,50,0
120936,note_on,96,0,7,,,,,,,,2,,,50,0
120936,note_on,96,0,1,,,,,,,,0,,,81,0
120960,note_on,24,0,1,,,,,,,,0,,,86,105
120960,note_on,0,0,7,,,,,,,,2,,,57,105
120960,note_on,0,0,7,,,,,,,,2,,,62,105
120960,note_on,24,0,7,,,,,,,,2,,,53,105
120960,note_on,24,0,5,,,,,,,,4,,,53,105
121056,note_on,96,0,5,,,,,,,,4,,,53,0
121056,note_on,96,0,1,,,,,,,,0,,,86,0
121056,note_on,96,0,7,,,,,,,,2,,,53,0
121080,note_on,24,0,1,,,,,,,,0,,,81,105
121080,note_on,24,0,7,,,,,,,,2,,,50,105
121080,note_on,24,0,5,,,,,,,,4,,,50,105
121152,note_on,72,0,7,,,,,,,,2,,,57,0
121152,note_on,0,0,7,,,,,,,,2,,,62,0
121176,note_on,96,0,1,,,,,,,,0,,,81,0
121176,note_on,24,0,7,,,,,,,,2,,,50,0
121176,note_on,96,0,5,,,,,,,,4,,,50,0
121200,note_on,24,0,1,,,,,,,,0,,,82,105
121296,note_on,96,0,1,,,,,,,,0,,,82,0
121320,note_on,144,0,7,,,,,,,,2,,,55,105
121320,note_on,144,0,5,,,,,,,,4,,,55,105
121320,note_on,24,0,1,,,,,,,,0,,,67,105
121416,note_on,96,0,1,,,,,,,,0,,,67,0
121416,note_on,96,0,7,,,,,,,,2,,,55,0
121416,note_on,96,0,5,,,,,,,,4,,,55,0
121440,note_on,0,0,7,,,,,,,,2,,,67,105
121440,note_on,24,0,5,,,,,,,,4,,,58,105
121440,note_on,0,0,7,,,,,,,,2,,,58,105
121440,note_on,24,0,7,,,,,,,,2,,,62,105
121536,note_on,96,0,7,,,,,,,,2,,,58,0
121536,note_on,96,0,5,,,,,,,,4,,,58,0
121560,note_on,24,0,7,,,,,,,,2,,,55,105
121560,note_on,24,0,5,,,,,,,,4,,,55,105
121560,note_on,144,0,1,,,,,,,,0,,,79,105
121632,note_on,72,0,7,,,,,,,,2,,,67,0
121632,note_on,0,0,7,,,,,,,,2,,,62,0
121656,note_on,24,0,7,,,,,,,,2,,,55,0
121656,note_on,96,0,5,,,,,,,,4,,,55,0
121656,note_on,96,0,1,,,,,,,,0,,,79,0
121680,note_on,24,0,1,,,,,,,,0,,,60,105
121776,note_on,96,0,1,,,,,,,,0,,,60,0
121800,note_on,144,0,5,,,,,,,,4,,,48,105
121800,note_on,24,0,1,,,,,,,,0,,,79,105
121800,note_on,144,0,7,,,,,,,,2,,,48,105
121896,note_on,96,0,7,,,,,,,,2,,,48,0
121896,note_on,96,0,5,,,,,,,,4,,,48,0
121896,note_on,96,0,1,,,,,,,,0,,,79,0
121920,note_on,24,0,1,,,,,,,,0,,,84,105
121920,note_on,24,0,5,,,,,,,,4,,,52,105
121920,note_on,0,0,7,,,,,,,,2,,,55,105
121920,note_on,0,0,7,,,,,,,,2,,,52,105
121920,note_on,24,0,7,,,,,,,,2,,,60,105
122016,note_on,96,0,1,,,,,,,,0,,,84,0
122016,note_on,96,0,5,,,,,,,,4,,,52,0
122016,note_on,96,0,7,,,,,,,,2,,,52,0
122040,note_on,24,0,7,,,,,,,,2,,,48,105
122040,note_on,24,0,5,,,,,,,,4,,,48,105
122040,note_on,24,0,1,,,,,,,,0,,,79,105
122112,note_on,72,0,7,,,,,,,,2,,,55,0
122112,note_on,0,0,7,,,,,,,,2,,,60,0
122136,note_on,96,0,1,,,,,,,,0,,,79,0
122136,note_on,24,0,7,,,,,,,,2,,,48,0
122136,note_on,96,0,5,,,,,,,,4,,,48,0
122160,note_on,24,0,1,,,,,,,,0,,,81,105
122256,note_on,96,0,1,,,,,,,,0,,,81,0
122280,note_on,24,0,1,,,,,,,,0,,,65,105
122280,note_on,144,0,7,,,,,,,,2,,,53,105
122280,note_on,144,0,5,,,,,,,,4,,,53,105
122376,note_on,96,0,5,,,,,,,,4,,,53,0
122376,note_on,96,0,1,,,,,,,,0,,,65,0
122376,note_on,96,0,7,,,,,,,,2,,,53,0
122400,note_on,24,0,5,,,,,,,,4,,,57,105
122400,note_on,24,0,7,,,,,,,,2,,,65,105
122400,note_on,0,0,7,,,,,,,,2,,,57,105
122400,note_on,0,0,7,,,,,,,,2,,,60,105
122496,note_on,96,0,7,,,,,,,,2,,,57,0
122496,note_on,96,0,5,,,,,,,,4,,,57,0
122520,note_on,24,0,7,,,,,,,,2,,,53,105
122520,note_on,144,0,1,,,,,,,,0,,,77,105
122520,note_on,24,0,5,,,,,,,,4,,,53,105
122592,note_on,0,0,7,,,,,,,,2,,,65,0
122592,note_on,72,0,7,,,,,,,,2,,,60,0
122616,note_on,24,0,7,,,,,,,,2,,,53,0
122616,note_on,96,0,5,,,,,,,,4,,,53,0
122616,note_on,96,0,1,,,,,,,,0,,,77,0
122640,note_on,24,0,1,,,,,,,,0,,,58,105
122736,note_on,96,0,1,,,,,,,,0,,,58,0
122760,note_on,144,0,7,,,,,,,,2,,,46,105
122760,note_on,24,0,1,,,,,,,,0,,,77,105
122760,note_on,144,0,5,,,,,,,,4,,,46,105
122856,note_on,96,0,5,,,,,,,,4,,,46,0
122856,note_on,96,0,1,,,,,,,,0,,,77,0
122856,note_on,96,0,7,,,,,,,,2,,,46,0
122880,note_on,0,0,7,,,,,,,,2,,,50,105
122880,note_on,24,0,5,,,,,,,,4,,,50,105
122880,note_on,24,0,1,,,,,,,,0,,,82,105
122880,note_on,0,0,7,,,,,,,,2,,,53,105
122880,note_on,24,0,7,,,,,,,,2,,,58,105
122976,note_on,96,0,5,,,,,,,,4,,,50,0
122976,note_on,96,0,1,,,,,,,,0,,,82,0
122976,note_on,96,0,7,,,,,,,,2,,,50,0
123000,note_on,24,0,5,,,,,,,,4,,,46,105
123000,note_on,24,0,7,,,,,,,,2,,,46,105
123000,note_on,24,0,1,,,,,,,,0,,,77,105
123072,note_on,0,0,7,,,,,,,,2,,,58,0
123072,note_on,72,0,7,,,,,,,,2,,,53,0
123096,note_on,24,0,7,,,,,,,,2,,,46,0
123096,note_on,96,0,5,,,,,,,,4,,,46,0
123096,note_on,96,0,1,,,,,,,,0,,,77,0
123120,note_on,24,0,1,,,,,,,,0,,,79,105
123216,note_on,96,0,1,,,,,,,,0,,,79,0
123240,note_on,24,0,1,,,,,,,,0,,,64,105
123240,note_on,144,0,7,,,,,,,,2,,,52,105
123240,note_on,144,0,5,,,,,,,,4,,,52,105
123336,note_on,96,0,1,,,,,,,,0,,,64,0
123336,note_on,96,0,7,,,,,,,,2,,,52,0
123336,note_on,96,0,5,,,,,,,,4,,,52,0
123360,note_on,24,0,5,,,,,,,,4,,,55,105
123360,note_on,0,0,7,,,,,,,,2,,,58,105
123360,note_on,0,0,7,,,,,,,,2,,,55,105
123360,note_on,24,0,7,,,,,,,,2,,,64,105
123456,note_on,96,0,5,,,,,,,,4,,,55,0
123456,note_on,96,0,7,,,,,,,,2,,,55,0
123480,note_on,24,0,7,,,,,,,,2,,,52,105
123480,note_on,24,0,5,,,,,,,,4,,,52,105
123480,note_on,144,0,1,,,,,,,,0,,,76,105
123552,note_on,72,0,7,,,,,,,,2,,,58,0
123552,note_on,0,0,7,,,,,,,,2,,,64,0
123576,note_on,96,0,5,,,,,,,,4,,,52,0
123576,note_on,24,0,7,,,,,,,,2,,,52,0
123576,note_on,96,0,1,,,,,,,,0,,,76,0
123600,note_on,24,0,1,,,,,,,,0,,,57,105
123696,note_on,96,0,1,,,,,,,,0,,,57,0
123720,note_on,144,0,5,,,,,,,,4,,,45,105
123720,note_on,144,0,7,,,,,,,,2,,,45,105
123720,note_on,24,0,1,,,,,,,,0,,,76,105
123816,note_on,96,0,5,,,,,,,,4,,,45,0
123816,note_on,96,0,7,,,,,,,,2,,,45,0
123816,note_on,96,0,1,,,,,,,,0,,,76,0
123840,note_on,24,0,1,,,,,,,,0,,,81,105
123840,note_on,24,0,7,,,,,,,,2,,,64,105
123840,note_on,24,0,5,,,,,,,,4,,,49,105
123840,note_on,0,0,7,,,,,,,,2,,,49,105
123840,note_on,0,0,7,,,,,,,,2,,,69,105
123936,note_on,96,0,5,,,,,,,,4,,,49,0
123936,note_on,96,0,1,,,,,,,,0,,,81,0
123936,note_on,96,0,7,,,,,,,,2,,,49,0
123960,note_on,24,0,1,,,,,,,,0,,,76,105
123960,note_on,24,0,5,,,,,,,,4,,,45,105
123960,note_on,24,0,7,,,,,,,,2,,,45,105
124032,note_on,0,0,7,,,,,,,,2,,,64,0
124032,note_on,72,0,7,,,,,,,,2,,,69,0
124056,note_on,96,0,1,,,,,,,,0,,,76,0
124056,note_on,96,0,5,,,,,,,,4,,,45,0
124056,note_on,24,0,7,,,,,,,,2,,,45,0
124080,note_on,24,0,5,,,,,,,,4,,,62,105
124080,note_on,24,0,7,,,,,,,,2,,,69,105
124080,note_on,0,0,7,,,,,,,,2,,,65,105
124080,note_on,0,0,7,,,,,,,,2,,,62,105
124080,note_on,24,0,1,,,,,,,,0,,,77,105
124128,note_on,48,0,1,,,,,,,,0,,,77,0
124140,note_on,12,0,1,,,,,,,,0,,,81,105
124176,note_on,0,0,7,,,,,,,,2,,,69,0
124176,note_on,0,0,7,,,,,,,,2,,,62,0
124176,note_on,96,0,7,,,,,,,,2,,,65,0
124176,note_on,96,0,5,,,,,,,,4,,,62,0
124188,note_on,48,0,1,,,,,,,,0,,,81,0
124200,note_on,24,0,7,,,,,,,,2,,,67,105
124200,note_on,24,0,5,,,,,,,,4,,,64,105
124200,note_on,0,0,7,,,,,,,,2,,,64,105
124200,note_on,12,0,1,,,,,,,,0,,,79,105
124248,note_on,48,0,1,,,,,,,,0,,,79,0
124260,note_on,12,0,1,,,,,,,,0,,,82,105
124296,note_on,96,0,7,,,,,,,,2,,,64,0
124296,note_on,0,0,7,,,,,,,,2,,,67,0
124296,note_on,96,0,5,,,,,,,,4,,,64,0
124308,note_on,48,0,1,,,,,,,,0,,,82,0
124320,note_on,12,0,1,,,,,,,,0,,,81,105
124320,note_on,0,0,7,,,,,,,,2,,,62,105
124320,note_on,24,0,7,,,,,,,,2,,,69,105
124320,note_on,0,0,7,,,,,,,,2,,,53,105
124320,note_on,24,0,5,,,,,,,,4,,,53,105
124416,note_on,96,0,5,,,,,,,,4,,,53,0
124416,note_on,96,0,7,,,,,,,,2,,,62,0
124416,note_on,0,0,7,,,,,,,,2,,,69,0
124416,note_on,0,0,7,,,,,,,,2,,,53,0
124416,note_on,96,0,1,,,,,,,,0,,,81,0
124440,note_on,24,0,1,,,,,,,,0,,,74,105
124536,note_on,96,0,1,,,,,,,,0,,,74,0
124560,note_on,0,0,7,,,,,,,,2,,,57,105
124560,note_on,144,0,5,,,,,,,,4,,,57,105
124560,note_on,0,0,7,,,,,,,,2,,,61,105
124560,note_on,144,0,7,,,,,,,,2,,,64,105
124560,note_on,24,0,1,,,,,,,,0,,,73,105
124608,note_on,48,0,1,,,,,,,,0,,,73,0
124620,note_on,12,0,1,,,,,,,,0,,,76,105
124656,note_on,96,0,7,,,,,,,,2,,,57,0
124656,note_on,0,0,7,,,,,,,,2,,,61,0
124656,note_on,0,0,7,,,,,,,,2,,,64,0
124656,note_on,96,0,5,,,,,,,,4,,,57,0
124668,note_on,48,0,1,,,,,,,,0,,,76,0
124680,note_on,24,0,7,,,,,,,,2,,,62,105
124680,note_on,0,0,7,,,,,,,,2,,,58,105
124680,note_on,24,0,5,,,,,,,,4,,,58,105
124680,note_on,12,0,1,,,,,,,,0,,,74,105
124728,note_on,48,0,1,,,,,,,,0,,,74,0
124740,note_on,12,0,1,,,,,,,,0,,,77,105
124776,note_on,0,0,7,,,,,,,,2,,,62,0
124776,note_on,96,0,7,,,,,,,,2,,,58,0
124776,note_on,96,0,5,,,,,,,,4,,,58,0
124788,note_on,48,0,1,,,,,,,,0,,,77,0
124800,note_on,12,0,1,,,,,,,,0,,,76,105
124800,note_on,24,0,5,,,,,,,,4,,,49,105
124800,note_on,0,0,7,,,,,,,,2,,,49,105
124800,note_on,24,0,7,,,,,,,,2,,,58,105
124800,note_on,0,0,7,,,,,,,,2,,,64,105
124896,note_on,0,0,7,,,,,,,,2,,,58,0
124896,note_on,0,0,7,,,,,,,,2,,,49,0
124896,note_on,96,0,1,,,,,,,,0,,,76,0
124896,note_on,96,0,7,,,,,,,,2,,,64,0
124896,note_on,96,0,5,,,,,,,,4,,,49,0
124920,note_on,24,0,1,,,,,,,,0,,,65,105
125016,note_on,96,0,1,,,,,,,,0,,,65,0
125040,note_on,24,0,1,,,,,,,,0,,,64,105
125040,note_on,144,0,5,,,,,,,,4,,,61,105
125040,note_on,144,0,7,,,,,,,,2,,,67,105
125040,note_on,0,0,7,,,,,,,,2,,,61,105
125040,note_on,0,0,7,,,,,,,,2,,,64,105
125088,note_on,48,0,1,,,,,,,,0,,,64,0
125100,note_on,12,0,1,,,,,,,,0,,,67,105
125136,note_on,96,0,5,,,,,,,,4,,,61,0
125136,note_on,96,0,7,,,,,,,,2,,,64,0
125136,note_on,0,0,7,,,,,,,,2,,,61,0
125136,note_on,0,0,7,,,,,,,,2,,,67,0
125148,note_on,48,0,1,,,,,,,,0,,,67,0
125160,note_on,24,0,7,,,,,,,,2,,,65,105
125160,note_on,0,0,7,,,,,,,,2,,,62,105
125160,note_on,12,0,1,,,,,,,,0,,,65,105
125160,note_on,24,0,5,,,,,,,,4,,,62,105
125208,note_on,48,0,1,,,,,,,,0,,,65,0
125220,note_on,12,0,1,,,,,,,,0,,,69,105
125256,note_on,96,0,5,,,,,,,,4,,,62,0
125256,note_on,0,0,7,,,,,,,,2,,,65,0
125256,note_on,96,0,7,,,,,,,,2,,,62,0
125268,note_on,48,0,1,,,,,,,,0,,,69,0
125280,note_on,24,0,7,,,,,,,,2,,,58,105
125280,note_on,12,0,1,,,,,,,,0,,,67,105
125280,note_on,0,0,7,,,,,,,,2,,,52,105
125280,note_on,24,0,5,,,,,,,,4,,,52,105
125280,note_on,0,0,7,,,,,,,,2,,,67,105
125376,note_on,96,0,1,,,,,,,,0,,,67,0
125376,note_on,0,0,7,,,,,,,,2,,,52,0
125376,note_on,96,0,7,,,,,,,,2,,,67,0
125376,note_on,96,0,5,,,,,,,,4,,,52,0
125376,note_on,0,0,7,,,,,,,,2,,,58,0
125400,note_on,24,0,1,,,,,,,,0,,,62,105
125496,note_on,96,0,1,,,,,,,,0,,,62,0
125520,note_on,144,0,7,,,,,,,,2,,,64,105
125520,note_on,24,0,1,,,,,,,,0,,,61,105
125520,note_on,144,0,5,,,,,,,,4,,,57,105
125520,note_on,0,0,7,,,,,,,,2,,,57,105
125520,note_on,0,0,7,,,,,,,,2,,,61,105
125568,note_on,48,0,1,,,,,,,,0,,,61,0
125580,note_on,12,0,1,,,,,,,,0,,,64,105
125616,note_on,0,0,7,,,,,,,,2,,,64,0
125616,note_on,0,0,7,,,,,,,,2,,,61,0
125616,note_on,96,0,7,,,,,,,,2,,,57,0
125616,note_on,96,0,5,,,,,,,,4,,,57,0
125628,note_on,48,0,1,,,,,,,,0,,,64,0
125640,note_on,12,0,1,,,,,,,,0,,,62,105
125640,note_on,0,0,7,,,,,,,,2,,,58,105
125640,note_on,24,0,7,,,,,,,,2,,,62,105
125640,note_on,24,0,5,,,,,,,,4,,,58,105
125688,note_on,48,0,1,,,,,,,,0,,,62,0
125700,note_on,12,0,1,,,,,,,,0,,,65,105
125736,note_on,0,0,7,,,,,,,,2,,,62,0
125736,note_on,96,0,5,,,,,,,,4,,,58,0
125736,note_on,96,0,7,,,,,,,,2,,,58,0
125748,note_on,48,0,1,,,,,,,,0,,,65,0
125760,note_on,24,0,5,,,,,,,,4,,,49,105
125760,note_on,24,0,7,,,,,,,,2,,,64,105
125760,note_on,12,0,1,,,,,,,,0,,,64,105
125760,note_on,0,0,7,,,,,,,,2,,,49,105
125760,note_on,0,0,7,,,,,,,,2,,,55,105
125856,note_on,0,0,7,,,,,,,,2,,,64,0
125856,note_on,96,0,7,,,,,,,,2,,,49,0
125856,note_on,0,0,7,,,,,,,,2,,,55,0
125856,note_on,96,0,1,,,,,,,,0,,,64,0
125856,note_on,96,0,5,,,,,,,,4,,,49,0
125880,note_on,24,0,1,,,,,,,,0,,,58,105
125976,note_on,96,0,1,,,,,,,,0,,,58,0
126000,note_on,9408,0,2,,,,,,,,1,,,57,105
126000,note_on,24,0,1,,,,,,,,0,,,57,105
126024,note_on,24,0,1,,,,,,,,0,,,57,0
126024,note_on,24,0,2,,,,,,,,1,,,57,0
126030,note_on,6,0,2,,,,,,,,1,,,58,105
126030,note_on,6,0,1,,,,,,,,0,,,58,105
126054,note_on,24,0,1,,,,,,,,0,,,58,0
126054,note_on,24,0,2,,,,,,,,1,,,58,0
126060,note_on,6,0,1,,,,,,,,0,,,57,105
126060,note_on,6,0,2,,,,,,,,1,,,57,105
126084,note_on,24,0,1,,,,,,,,0,,,57,0
126084,note_on,24,0,2,,,,,,,,1,,,57,0
126090,note_on,6,0,2,,,,,,,,1,,,58,105
126090,note_on,6,0,1,,,,,,,,0,,,58,105
126114,note_on,24,0,2,,,,,,,,1,,,58,0
126114,note_on,24,0,1,,,,,,,,0,,,58,0
126120,note_on,6,0,1,,,,,,,,0,,,57,105
126120,note_on,264,0,5,,,,,,,,4,,,57,105
126120,note_on,6,0,2,,,,,,,,1,,,57,105
126120,note_on,264,0,7,,,,,,,,2,,,57,105
126144,note_on,24,0,2,,,,,,,,1,,,57,0
126144,note_on,24,0,1,,,,,,,,0,,,57,0
126150,note_on,6,0,1,,,,,,,,0,,,58,105
126150,note_on,6,0,2,,,,,,,,1,,,58,105
126174,note_on,24,0,1,,,,,,,,0,,,58,0
126174,note_on,24,0,2,,,,,,,,1,,,58,0
126180,note_on,6,0,1,,,,,,,,0,,,57,105
126180,note_on,6,0,2,,,,,,,,1,,,57,105
126204,note_on,24,0,2,,,,,,,,1,,,57,0
126204,note_on,24,0,1,,,,,,,,0,,,57,0
126210,note_on,6,0,2,,,,,,,,1,,,58,105
126210,note_on,6,0,1,,,,,,,,0,,,58,105
126216,note_on,96,0,7,,,,,,,,2,,,57,0
126216,note_on,96,0,5,,,,,,,,4,,,57,0
126234,note_on,24,0,2,,,,,,,,1,,,58,0
126234,note_on,24,0,1,,,,,,,,0,,,58,0
126240,note_on,24,0,5,,,,,,,,4,,,61,105
126240,note_on,24,0,7,,,,,,,,2,,,61,105
126240,note_on,0,0,7,,,,,,,,2,,,64,105
126240,note_on,0,0,7,,,,,,,,2,,,69,105
126336,note_on,96,0,5,,,,,,,,4,,,61,0
126336,note_on,96,0,7,,,,,,,,2,,,61,0
126360,note_on,24,0,7,,,,,,,,2,,,57,105
126360,note_on,24,0,5,,,,,,,,4,,,57,105
126360,note_on,126,0,1,,,,,,,,0,,,76,105
126432,note_on,0,0,7,,,,,,,,2,,,69,0
126432,note_on,72,0,7,,,,,,,,2,,,64,0
126456,note_on,24,0,7,,,,,,,,2,,,57,0
126456,note_on,96,0,5,,,,,,,,4,,,57,0
126456,note_on,96,0,1,,,,,,,,0,,,76,0
126480,note_on,24,0,1,,,,,,,,0,,,77,105
126528,note_on,48,0,1,,,,,,,,0,,,77,0
126540,note_on,12,0,1,,,,,,,,0,,,74,105
126588,note_on,48,0,1,,,,,,,,0,,,74,0
126600,note_on,12,0,1,,,,,,,,0,,,69,105
126600,note_on,144,0,7,,,,,,,,2,,,50,105
126600,note_on,144,0,5,,,,,,,,4,,,50,105
126648,note_on,48,0,1,,,,,,,,0,,,69,0
126660,note_on,12,0,1,,,,,,,,0,,,74,105
126696,note_on,96,0,7,,,,,,,,2,,,50,0
126696,note_on,96,0,5,,,,,,,,4,,,50,0
126708,note_on,48,0,1,,,,,,,,0,,,74,0
126720,note_on,24,0,5,,,,,,,,4,,,53,105
126720,note_on,12,0,1,,,,,,,,0,,,69,105
126720,note_on,24,0,7,,,,,,,,2,,,53,105
126720,note_on,0,0,7,,,,,,,,2,,,74,105
126720,note_on,0,0,7,,,,,,,,2,,,69,105
126768,note_on,48,0,1,,,,,,,,0,,,69,0
126780,note_on,12,0,1,,,,,,,,0,,,74,105
126816,note_on,96,0,7,,,,,,,,2,,,53,0
126816,note_on,96,0,5,,,,,,,,4,,,53,0
126828,note_on,48,0,1,,,,,,,,0,,,74,0
126840,note_on,12,0,1,,,,,,,,0,,,69,105
126840,note_on,24,0,5,,,,,,,,4,,,50,105
126840,note_on,24,0,7,,,,,,,,2,,,50,105
126888,note_on,48,0,1,,,,,,,,0,,,69,0
126900,note_on,12,0,1,,,,,,,,0,,,74,105
126912,note_on,0,0,7,,,,,,,,2,,,74,0
126912,note_on,72,0,7,,,,,,,,2,,,69,0
126936,note_on,96,0,5,,,,,,,,4,,,50,0
126936,note_on,24,0,7,,,,,,,,2,,,50,0
126948,note_on,48,0,1,,,,,,,,0,,,74,0
126960,note_on,12,0,1,,,,,,,,0,,,77,105
127008,note_on,48,0,1,,,,,,,,0,,,77,0
127020,note_on,12,0,1,,,,,,,,0,,,74,105
127068,note_on,48,0,1,,,,,,,,0,,,74,0
127080,note_on,144,0,5,,,,,,,,4,,,50,105
127080,note_on,144,0,7,,,,,,,,2,,,50,105
127080,note_on,12,0,1,,,,,,,,0,,,69,105
127128,note_on,48,0,1,,,,,,,,0,,,69,0
127140,note_on,12,0,1,,,,,,,,0,,,74,105
127176,note_on,96,0,5,,,,,,,,4,,,50,0
127176,note_on,96,0,7,,,,,,,,2,,,50,0
127188,note_on,48,0,1,,,,,,,,0,,,74,0
127200,note_on,12,0,1,,,,,,,,0,,,69,105
127200,note_on,24,0,5,,,,,,,,4,,,53,105
127200,note_on,24,0,7,,,,,,,,2,,,74,105
127200,note_on,0,0,7,,,,,,,,2,,,53,105
127200,note_on,0,0,7,,,,,,,,2,,,69,105
127200,note_on,0,0,7,,,,,,,,2,,,81,105
127248,note_on,48,0,1,,,,,,,,0,,,69,0
127260,note_on,12,0,1,,,,,,,,0,,,74,105
127296,note_on,96,0,5,,,,,,,,4,,,53,0
127296,note_on,96,0,7,,,,,,,,2,,,53,0
127308,note_on,48,0,1,,,,,,,,0,,,74,0
127320,note_on,24,0,5,,,,,,,,4,,,50,105
127320,note_on,24,0,7,,,,,,,,2,,,50,105
127320,note_on,12,0,1,,,,,,,,0,,,69,105
127368,note_on,48,0,1,,,,,,,,0,,,69,0
127380,note_on,12,0,1,,,,,,,,0,,,74,105
127392,note_on,0,0,7,,,,,,,,2,,,69,0
127392,note_on,72,0,7,,,,,,,,2,,,74,0
127392,note_on,0,0,7,,,,,,,,2,,,81,0
127416,note_on,24,0,7,,,,,,,,2,,,50,0
127416,note_on,96,0,5,,,,,,,,4,,,50,0
127428,note_on,48,0,1,,,,,,,,0,,,74,0
127440,note_on,12,0,1,,,,,,,,0,,,80,105
127488,note_on,48,0,1,,,,,,,,0,,,80,0
127500,note_on,12,0,1,,,,,,,,0,,,74,105
127548,note_on,48,0,1,,,,,,,,0,,,74,0
127560,note_on,144,0,5,,,,,,,,4,,,52,105
127560,note_on,144,0,7,,,,,,,,2,,,52,105
127560,note_on,12,0,1,,,,,,,,0,,,71,105
127608,note_on,48,0,1,,,,,,,,0,,,71,0
127620,note_on,12,0,1,,,,,,,,0,,,74,105
127656,note_on,96,0,7,,,,,,,,2,,,52,0
127656,note_on,96,0,5,,,,,,,,4,,,52,0
127668,note_on,48,0,1,,,,,,,,0,,,74,0
127680,note_on,12,0,1,,,,,,,,0,,,71,105
127680,note_on,0,0,7,,,,,,,,2,,,71,105
127680,note_on,0,0,7,,,,,,,,2,,,64,105
127680,note_on,0,0,7,,,,,,,,2,,,76,105
127680,note_on,24,0,7,,,,,,,,2,,,80,105
127680,note_on,24,0,5,,,,,,,,4,,,64,105
127728,note_on,48,0,1,,,,,,,,0,,,71,0
127740,note_on,12,0,1,,,,,,,,0,,,74,105
127776,note_on,96,0,5,,,,,,,,4,,,64,0
127776,note_on,96,0,7,,,,,,,,2,,,64,0
127788,note_on,48,0,1,,,,,,,,0,,,74,0
127800,note_on,24,0,5,,,,,,,,4,,,52,105
127800,note_on,12,0,1,,,,,,,,0,,,71,105
127800,note_on,24,0,7,,,,,,,,2,,,52,105
127848,note_on,48,0,1,,,,,,,,0,,,71,0
127860,note_on,12,0,1,,,,,,,,0,,,74,105
127872,note_on,72,0,7,,,,,,,,2,,,80,0
127872,note_on,0,0,7,,,,,,,,2,,,71,0
127872,note_on,0,0,7,,,,,,,,2,,,76,0
127896,note_on,96,0,5,,,,,,,,4,,,52,0
127896,note_on,24,0,7,,,,,,,,2,,,52,0
127908,note_on,48,0,1,,,,,,,,0,,,74,0
127920,note_on,12,0,1,,,,,,,,0,,,80,105
127968,note_on,48,0,1,,,,,,,,0,,,80,0
127980,note_on,12,0,1,,,,,,,,0,,,74,105
128028,note_on,48,0,1,,,,,,,,0,,,74,0
128040,note_on,144,0,7,,,,,,,,2,,,52,105
128040,note_on,144,0,5,,,,,,,,4,,,52,105
128040,note_on,12,0,1,,,,,,,,0,,,71,105
128088,note_on,48,0,1,,,,,,,,0,,,71,0
128100,note_on,12,0,1,,,,,,,,0,,,74,105
128136,note_on,96,0,7,,,,,,,,2,,,52,0
128136,note_on,96,0,5,,,,,,,,4,,,52,0
128148,note_on,48,0,1,,,,,,,,0,,,74,0
128160,note_on,12,0,1,,,,,,,,0,,,71,105
128160,note_on,24,0,5,,,,,,,,4,,,64,105
128160,note_on,0,0,7,,,,,,,,2,,,76,105
128160,note_on,24,0,7,,,,,,,,2,,,80,105
128160,note_on,0,0,7,,,,,,,,2,,,71,105
128160,note_on,0,0,7,,,,,,,,2,,,64,105
128208,note_on,48,0,1,,,,,,,,0,,,71,0
128220,note_on,12,0,1,,,,,,,,0,,,74,105
128256,note_on,96,0,7,,,,,,,,2,,,64,0
128256,note_on,96,0,5,,,,,,,,4,,,64,0
128268,note_on,48,0,1,,,,,,,,0,,,74,0
128280,note_on,24,0,7,,,,,,,,2,,,52,105
128280,note_on,12,0,1,,,,,,,,0,,,71,105
128280,note_on,24,0,5,,,,,,,,4,,,52,105
128328,note_on,48,0,1,,,,,,,,0,,,71,0
128340,note_on,12,0,1,,,,,,,,0,,,74,105
128352,note_on,0,0,7,,,,,,,,2,,,71,0
128352,note_on,72,0,7,,,,,,,,2,,,80,0
128352,note_on,0,0,7,,,,,,,,2,,,76,0
128376,note_on,96,0,5,,,,,,,,4,,,52,0
128376,note_on,24,0,7,,,,,,,,2,,,52,0
128388,note_on,48,0,1,,,,,,,,0,,,74,0
128400,note_on,12,0,1,,,,,,,,0,,,81,105
128496,note_on,96,0,1,,,,,,,,0,,,81,0
128520,note_on,0,0,7,,,,,,,,2,,,72,105
128520,note_on,0,0,7,,,,,,,,2,,,81,105
128520,note_on,0,0,7,,,,,,,,2,,,69,105
128520,note_on,144,0,5,,,,,,,,4,,,57,105
128520,note_on,24,0,1,,,,,,,,0,,,79,105
128520,note_on,144,0,7,,,,,,,,2,,,57,105
128568,note_on,48,0,1,,,,,,,,0,,,79,0
128580,note_on,12,0,1,,,,,,,,0,,,77,105
128616,note_on,96,0,5,,,,,,,,4,,,57,0
128616,note_on,96,0,7,,,,,,,,2,,,69,0
128616,note_on,0,0,7,,,,,,,,2,,,81,0
128616,note_on,0,0,7,,,,,,,,2,,,72,0
128616,note_on,0,0,7,,,,,,,,2,,,57,0
128628,note_on,48,0,1,,,,,,,,0,,,77,0
128640,note_on,12,0,1,,,,,,,,0,,,76,105
128640,note_on,24,0,7,,,,,,,,2,,,56,105
128640,note_on,24,0,5,,,,,,,,4,,,56,105
128640,note_on,0,0,7,,,,,,,,2,,,76,105
128640,note_on,0,0,7,,,,,,,,2,,,71,105
128736,note_on,96,0,5,,,,,,,,4,,,56,0
128736,note_on,96,0,1,,,,,,,,0,,,76,0
128736,note_on,96,0,7,,,,,,,,2,,,71,0
128736,note_on,0,0,7,,,,,,,,2,,,56,0
128760,note_on,24,0,5,,,,,,,,4,,,52,105
128760,note_on,24,0,1,,,,,,,,0,,,74,105
128760,note_on,0,0,7,,,,,,,,2,,,68,105
128760,note_on,24,0,7,,,,,,,,2,,,52,105
128832,note_on,72,0,7,,,,,,,,2,,,76,0
128856,note_on,0,0,7,,,,,,,,2,,,52,0
128856,note_on,96,0,1,,,,,,,,0,,,74,0
128856,note_on,24,0,7,,,,,,,,2,,,68,0
128856,note_on,96,0,5,,,,,,,,4,,,52,0
128880,note_on,24,0,1,,,,,,,,0,,,84,105
128880,note_on,0,0,7,,,,,,,,2,,,62,105
128880,note_on,0,0,7,,,,,,,,2,,,57,105
128880,note_on,0,0,7,,,,,,,,2,,,69,105
128880,note_on,24,0,7,,,,,,,,2,,,72,105
128880,note_on,24,0,5,,,,,,,,4,,,57,105
128976,note_on,96,0,1,,,,,,,,0,,,84,0
128976,note_on,96,0,7,,,,,,,,2,,,62,0
128976,note_on,96,0,5,,,,,,,,4,,,57,0
128976,note_on,0,0,7,,,,,,,,2,,,72,0
128976,note_on,0,0,7,,,,,,,,2,,,69,0
128976,note_on,0,0,7,,,,,,,,2,,,57,0
129000,note_on,0,0,7,,,,,,,,2,,,76,105
129000,note_on,0,0,7,,,,,,,,2,,,69,105
129000,note_on,0,0,7,,,,,,,,2,,,48,105
129000,note_on,24,0,7,,,,,,,,2,,,62,105
129000,note_on,24,0,1,,,,,,,,0,,,83,105
129000,note_on,24,0,5,,,,,,,,4,,,48,105
129048,note_on,48,0,1,,,,,,,,0,,,83,0
129060,note_on,12,0,1,,,,,,,,0,,,81,105
129096,note_on,0,0,7,,,,,,,,2,,,69,0
129096,note_on,96,0,5,,,,,,,,4,,,48,0
129096,note_on,0,0,7,,,,,,,,2,,,62,0
129096,note_on,0,0,7,,,,,,,,2,,,76,0
129096,note_on,96,0,7,,,,,,,,2,,,48,0
129108,note_on,48,0,1,,,,,,,,0,,,81,0
129120,note_on,12,0,1,,,,,,,,0,,,83,105
129120,note_on,24,0,7,,,,,,,,2,,,50,105
129120,note_on,0,0,7,,,,,,,,2,,,74,105
129120,note_on,0,0,7,,,,,,,,2,,,65,105
129120,note_on,24,0,5,,,,,,,,4,,,50,105
129216,note_on,96,0,5,,,,,,,,4,,,50,0
129216,note_on,0,0,7,,,,,,,,2,,,65,0
129216,note_on,0,0,7,,,,,,,,2,,,50,0
129216,note_on,96,0,7,,,,,,,,2,,,74,0
129216,note_on,96,0,1,,,,,,,,0,,,83,0
129240,note_on,24,0,5,,,,,,,,4,,,52,105
129240,note_on,24,0,7,,,,,,,,2,,,68,105
129240,note_on,0,0,7,,,,,,,,2,,,64,105
129240,note_on,0,0,7,,,,,,,,2,,,52,105
129240,note_on,24,0,1,,,,,,,,0,,,80,105
129240,note_on,0,0,7,,,,,,,,2,,,71,105
129336,note_on,96,0,7,,,,,,,,2,,,52,0
129336,note_on,0,0,7,,,,,,,,2,,,68,0
129336,note_on,0,0,7,,,,,,,,2,,,71,0
129336,note_on,0,0,7,,,,,,,,2,,,64,0
129336,note_on,96,0,5,,,,,,,,4,,,52,0
129336,note_on,96,0,1,,,,,,,,0,,,80,0
129360,note_on,24,0,1,,,,,,,,0,,,80,105
129360,note_on,0,0,7,,,,,,,,2,,,69,105
129360,note_on,0,0,7,,,,,,,,2,,,45,105
129360,note_on,0,0,7,,,,,,,,2,,,64,105
129360,note_on,24,0,7,,,,,,,,2,,,72,105
129360,note_on,24,0,5,,,,,,,,4,,,45,105
129408,note_on,48,0,1,,,,,,,,0,,,80,0
129420,note_on,12,0,1,,,,,,,,0,,,81,105
129552,note_on,192,0,5,,,,,,,,4,,,45,0
129552,note_on,0,0,7,,,,,,,,2,,,45,0
129552,note_on,192,0,7,,,,,,,,2,,,69,0
129552,note_on,0,0,7,,,,,,,,2,,,72,0
129552,note_on,0,0,7,,,,,,,,2,,,64,0
129612,note_on,192,0,1,,,,,,,,0,,,81,0
129720,note_on,168,0,5,,,,,,,,4,,,57,105
129720,note_on,13128,0,4,,,,,,,,3,,,60,105
129720,note_on,13128,0,6,,,,,,,,5,,,45,105
129720,note_on,13128,0,3,,,,,,,,0,,,76,105
129720,note_on,168,0,7,,,,,,,,2,,,60,105
129720,note_on,3486,0,2,,,,,,,,1,,,76,105
129720,note_on,108,0,1,,,,,,,,0,,,76,105
129720,note_on,0,0,7,,,,,,,,2,,,57,105
129816,note_on,0,0,7,,,,,,,,2,,,60,0
129816,note_on,96,0,2,,,,,,,,1,,,76,0
129816,note_on,96,0,1,,,,,,,,0,,,76,0
129816,note_on,96,0,3,,,,,,,,0,,,76,0
129816,note_on,96,0,7,,,,,,,,2,,,57,0
129816,note_on,96,0,4,,,,,,,,3,,,60,0
129816,note_on,96,0,5,,,,,,,,4,,,57,0
129816,note_on,96,0,6,,,,,,,,5,,,45,0
129840,note_on,24,0,1,,,,,,,,0,,,81,105
129840,note_on,24,0,5,,,,,,,,4,,,60,105
129840,note_on,24,0,4,,,,,,,,3,,,64,105
129840,note_on,24,0,7,,,,,,,,2,,,60,105
129840,note_on,24,0,3,,,,,,,,0,,,81,105
129840,note_on,24,0,2,,,,,,,,1,,,81,105
129840,note_on,24,0,6,,,,,,,,5,,,48,105
129840,note_on,0,0,7,,,,,,,,2,,,64,105
129936,note_on,96,0,6,,,,,,,,5,,,48,0
129936,note_on,96,0,7,,,,,,,,2,,,60,0
129936,note_on,96,0,4,,,,,,,,3,,,64,0
129936,note_on,96,0,5,,,,,,,,4,,,60,0
129960,note_on,24,0,5,,,,,,,,4,,,57,105
129960,note_on,24,0,7,,,,,,,,2,,,72,105
129960,note_on,0,0,7,,,,,,,,2,,,57,105
129960,note_on,24,0,6,,,,,,,,5,,,45,105
129960,note_on,24,0,4,,,,,,,,3,,,60,105
130032,note_on,192,0,3,,,,,,,,0,,,81,0
130032,note_on,192,0,2,,,,,,,,1,,,81,0
130032,note_on,192,0,1,,,,,,,,0,,,81,0
130032,note_on,72,0,7,,,,,,,,2,,,64,0
130056,note_on,96,0,6,,,,,,,,5,,,45,0
130056,note_on,24,0,7,,,,,,,,2,,,57,0
130056,note_on,0,0,7,,,,,,,,2,,,72,0
130056,note_on,96,0,4,,,,,,,,3,,,60,0
130056,note_on,96,0,5,,,,,,,,4,,,57,0
130080,note_on,0,0,7,,,,,,,,2,,,64,105
130080,note_on,24,0,6,,,,,,,,5,,,44,105
130080,note_on,0,0,7,,,,,,,,2,,,56,105
130080,note_on,24,0,5,,,,,,,,4,,,56,105
130080,note_on,48,0,2,,,,,,,,1,,,83,105
130080,note_on,24,0,7,,,,,,,,2,,,71,105
130080,note_on,48,0,3,,,,,,,,0,,,83,105
130080,note_on,48,0,1,,,,,,,,0,,,83,105
130080,note_on,24,0,4,,,,,,,,3,,,59,105
130176,note_on,96,0,6,,,,,,,,5,,,44,0
130176,note_on,96,0,5,,,,,,,,4,,,56,0
130176,note_on,0,0,7,,,,,,,,2,,,71,0
130176,note_on,96,0,7,,,,,,,,2,,,56,0
130176,note_on,96,0,4,,,,,,,,3,,,59,0
130200,note_on,24,0,4,,,,,,,,3,,,56,105
130200,note_on,24,0,5,,,,,,,,4,,,52,105
130200,note_on,0,0,7,,,,,,,,2,,,52,105
130200,note_on,24,0,6,,,,,,,,5,,,40,105
130200,note_on,24,0,7,,,,,,,,2,,,68,105
130272,note_on,72,0,7,,,,,,,,2,,,64,0
130272,note_on,192,0,3,,,,,,,,0,,,83,0
130272,note_on,192,0,1,,,,,,,,0,,,83,0
130272,note_on,192,0,2,,,,,,,,1,,,83,0
130296,note_on,24,0,7,,,,,,,,2,,,52,0
130296,note_on,96,0,5,,,,,,,,4,,,52,0
130296,note_on,96,0,4,,,,,,,,3,,,56,0
130296,note_on,96,0,6,,,,,,,,5,,,40,0
130296,note_on,0,0,7,,,,,,,,2,,,68,0
130320,note_on,24,0,4,,,,,,,,3,,,52,105
130320,note_on,24,0,7,,,,,,,,2,,,69,105
130320,note_on,24,0,5,,,,,,,,4,,,45,105
130320,note_on,24,0,6,,,,,,,,5,,,33,105
130320,note_on,0,0,7,,,,,,,,2,,,64,105
130320,note_on,48,0,3,,,,,,,,0,,,84,105
130320,note_on,48,0,2,,,,,,,,1,,,84,105
130320,note_on,0,0,7,,,,,,,,2,,,45,105
130320,note_on,48,0,1,,,,,,,,0,,,84,105
130320,note_on,0,0,7,,,,,,,,2,,,60,105
130416,note_on,96,0,5,,,,,,,,4,,,45,0
130416,note_on,96,0,7,,,,,,,,2,,,45,0
130416,note_on,96,0,6,,,,,,,,5,,,33,0
130416,note_on,96,0,4,,,,,,,,3,,,52,0
130440,note_on,24,0,7,,,,,,,,2,,,57,105
130440,note_on,24,0,6,,,,,,,,5,,,45,105
130440,note_on,24,0,5,,,,,,,,4,,,57,105
130440,note_on,24,0,4,,,,,,,,3,,,64,105
130512,note_on,0,0,7,,,,,,,,2,,,60,0
130512,note_on,72,0,7,,,,,,,,2,,,64,0
130536,note_on,96,0,6,,,,,,,,5,,,45,0
130536,note_on,96,0,5,,,,,,,,4,,,57,0
130536,note_on,96,0,4,,,,,,,,3,,,64,0
130536,note_on,24,0,7,,,,,,,,2,,,57,0
130560,note_on,24,0,7,,,,,,,,2,,,62,105
130560,note_on,0,0,7,,,,,,,,2,,,53,105
130560,note_on,24,0,4,,,,,,,,3,,,69,105
130560,note_on,24,0,6,,,,,,,,5,,,41,105
130560,note_on,24,0,5,,,,,,,,4,,,53,105
130608,note_on,288,0,3,,,,,,,,0,,,84,0
130608,note_on,288,0,2,,,,,,,,1,,,84,0
130608,note_on,288,0,1,,,,,,,,0,,,84,0
130656,note_on,96,0,5,,,,,,,,4,,,53,0
130656,note_on,96,0,7,,,,,,,,2,,,53,0
130656,note_on,0,0,7,,,,,,,,2,,,62,0
130656,note_on,96,0,4,,,,,,,,3,,,69,0
130656,note_on,96,0,6,,,,,,,,5,,,41,0
130680,note_on,72,0,2,,,,,,,,1,,,83,105
130680,note_on,24,0,5,,,,,,,,4,,,50,105
130680,note_on,24,0,6,,,,,,,,5,,,38,105
130680,note_on,72,0,3,,,,,,,,0,,,83,105
130680,note_on,24,0,4,,,,,,,,3,,,65,105
130680,note_on,24,0,7,,,,,,,,2,,,50,105
130680,note_on,0,0,7,,,,,,,,2,,,65,105
130680,note_on,72,0,1,,,,,,,,0,,,83,105
130704,note_on,24,0,7,,,,,,,,2,,,69,0
130776,note_on,0,0,7,,,,,,,,2,,,50,0
130776,note_on,72,0,7,,,,,,,,2,,,65,0
130776,note_on,96,0,3,,,,,,,,0,,,83,0
130776,note_on,96,0,1,,,,,,,,0,,,83,0
130776,note_on,96,0,2,,,,,,,,1,,,83,0
130776,note_on,96,0,4,,,,,,,,3,,,65,0
130776,note_on,96,0,5,,,,,,,,4,,,50,0
130776,note_on,96,0,6,,,,,,,,5,,,38,0
130800,note_on,24,0,3,,,,,,,,0,,,81,105
130800,note_on,24,0,5,,,,,,,,4,,,49,105
130800,note_on,24,0,6,,,,,,,,5,,,37,105
130800,note_on,24,0,1,,,,,,,,0,,,81,105
130800,note_on,24,0,4,,,,,,,,3,,,64,105
130800,note_on,24,0,7,,,,,,,,2,,,69,105
130800,note_on,0,0,7,,,,,,,,2,,,49,105
130800,note_on,0,0,7,,,,,,,,2,,,64,105
130800,note_on,24,0,2,,,,,,,,1,,,81,105
130896,note_on,96,0,1,,,,,,,,0,,,81,0
130896,note_on,96,0,2,,,,,,,,1,,,81,0
130896,note_on,96,0,3,,,,,,,,0,,,81,0
130920,note_on,24,0,1,,,,,,,,0,,,79,105
130920,note_on,24,0,3,,,,,,,,0,,,79,105
130920,note_on,24,0,2,,,,,,,,1,,,79,105
130992,note_on,0,0,7,,,,,,,,2,,,69,0
130992,note_on,0,0,7,,,,,,,,2,,,49,0
130992,note_on,192,0,6,,,,,,,,5,,,37,0
130992,note_on,192,0,5,,,,,,,,4,,,49,0
130992,note_on,192,0,4,,,,,,,,3,,,64,0
130992,note_on,192,0,7,,,,,,,,2,,,64,0
131016,note_on,96,0,2,,,,,,,,1,,,79,0
131016,note_on,96,0,1,,,,,,,,0,,,79,0
131016,note_on,96,0,3,,,,,,,,0,,,79,0
131040,note_on,48,0,6,,,,,,,,5,,,33,105
131040,note_on,24,0,2,,,,,,,,1,,,77,105
131040,note_on,0,0,7,,,,,,,,2,,,61,105
131040,note_on,24,0,1,,,,,,,,0,,,77,105
131040,note_on,48,0,7,,,,,,,,2,,,45,105
131040,note_on,48,0,4,,,,,,,,3,,,61,105
131040,note_on,24,0,3,,,,,,,,0,,,77,105
131040,note_on,48,0,5,,,,,,,,4,,,45,105
131040,note_on,0,0,7,,,,,,,,2,,,69,105
131136,note_on,96,0,1,,,,,,,,0,,,77,0
131136,note_on,96,0,2,,,,,,,,1,,,77,0
131136,note_on,96,0,3,,,,,,,,0,,,77,0
131160,note_on,24,0,3,,,,,,,,0,,,76,105
131160,note_on,24,0,2,,,,,,,,1,,,76,105
131160,note_on,24,0,1,,,,,,,,0,,,76,105
131232,note_on,192,0,7,,,,,,,,2,,,61,0
131232,note_on,192,0,6,,,,,,,,5,,,33,0
131232,note_on,192,0,4,,,,,,,,3,,,61,0
131232,note_on,0,0,7,,,,,,,,2,,,69,0
131232,note_on,0,0,7,,,,,,,,2,,,45,0
131232,note_on,192,0,5,,,,,,,,4,,,45,0
131256,note_on,96,0,3,,,,,,,,0,,,76,0
131256,note_on,96,0,2,,,,,,,,1,,,76,0
131256,note_on,96,0,1,,,,,,,,0,,,76,0
131280,note_on,0,0,7,,,,,,,,2,,,65,105
131280,note_on,48,0,5,,,,,,,,4,,,50,105
131280,note_on,48,0,7,,,,,,,,2,,,50,105
131280,note_on,0,0,7,,,,,,,,2,,,69,105
131280,note_on,24,0,3,,,,,,,,0,,,77,105
131280,note_on,48,0,4,,,,,,,,3,,,57,105
131280,note_on,48,0,6,,,,,,,,5,,,38,105
131280,note_on,24,0,1,,,,,,,,0,,,77,105
131280,note_on,24,0,2,,,,,,,,1,,,77,105
131472,note_on,192,0,1,,,,,,,,0,,,77,0
131472,note_on,192,0,4,,,,,,,,3,,,57,0
131472,note_on,192,0,7,,,,,,,,2,,,69,0
131472,note_on,192,0,3,,,,,,,,0,,,77,0
131472,note_on,0,0,7,,,,,,,,2,,,50,0
131472,note_on,192,0,5,,,,,,,,4,,,50,0
131472,note_on,192,0,2,,,,,,,,1,,,77,0
131472,note_on,192,0,6,,,,,,,,5,,,38,0
131472,note_on,0,0,7,,,,,,,,2,,,65,0
131520,note_on,48,0,1,,,,,,,,0,,,76,105
131520,note_on,48,0,2,,,,,,,,1,,,76,105
131520,note_on,48,0,3,,,,,,,,0,,,76,105
131520,note_on,48,0,7,,,,,,,,2,,,48,105
131520,note_on,0,0,7,,,,,,,,2,,,64,105
131520,note_on,48,0,5,,,,,,,,4,,,48,105
131520,note_on,48,0,6,,,,,,,,5,,,36,105
131616,note_on,96,0,6,,,,,,,,5,,,36,0
131616,note_on,96,0,2,,,,,,,,1,,,76,0
131616,note_on,96,0,3,,,,,,,,0,,,76,0
131616,note_on,0,0,7,,,,,,,,2,,,48,0
131616,note_on,96,0,5,,,,,,,,4,,,48,0
131616,note_on,96,0,1,,,,,,,,0,,,76,0
131616,note_on,96,0,7,,,,,,,,2,,,64,0
131640,note_on,24,0,2,,,,,,,,1,,,77,105
131640,note_on,0,0,7,,,,,,,,2,,,65,105
131640,note_on,24,0,7,,,,,,,,2,,,45,105
131640,note_on,24,0,1,,,,,,,,0,,,77,105
131640,note_on,24,0,3,,,,,,,,0,,,77,105
131640,note_on,24,0,5,,,,,,,,4,,,45,105
131640,note_on,24,0,6,,,,,,,,5,,,33,105
131736,note_on,96,0,1,,,,,,,,0,,,77,0
131736,note_on,96,0,3,,,,,,,,0,,,77,0
131736,note_on,0,0,7,,,,,,,,2,,,45,0
131736,note_on,96,0,7,,,,,,,,2,,,65,0
131736,note_on,96,0,5,,,,,,,,4,,,45,0
131736,note_on,96,0,6,,,,,,,,5,,,33,0
131736,note_on,96,0,2,,,,,,,,1,,,77,0
131760,note_on,288,0,4,,,,,,,,3,,,68,105
131760,note_on,24,0,7,,,,,,,,2,,,74,105
131760,note_on,0,0,7,,,,,,,,2,,,47,105
131760,note_on,24,0,6,,,,,,,,5,,,35,105
131760,note_on,24,0,5,,,,,,,,4,,,47,105
131760,note_on,0,0,7,,,,,,,,2,,,62,105
131760,note_on,0,0,7,,,,,,,,2,,,68,105
131760,note_on,24,0,1,,,,,,,,0,,,74,105
131760,note_on,24,0,2,,,,,,,,1,,,74,105
131760,note_on,24,0,3,,,,,,,,0,,,74,105
131856,note_on,96,0,2,,,,,,,,1,,,74,0
131856,note_on,96,0,3,,,,,,,,0,,,74,0
131856,note_on,96,0,1,,,,,,,,0,,,74,0
131880,note_on,24,0,1,,,,,,,,0,,,72,105
131880,note_on,24,0,2,,,,,,,,1,,,72,105
131880,note_on,24,0,3,,,,,,,,0,,,72,105
131952,note_on,192,0,6,,,,,,,,5,,,35,0
131952,note_on,0,0,7,,,,,,,,2,,,74,0
131952,note_on,0,0,7,,,,,,,,2,,,62,0
131952,note_on,192,0,7,,,,,,,,2,,,68,0
131952,note_on,0,0,7,,,,,,,,2,,,47,0
131952,note_on,192,0,4,,,,,,,,3,,,68,0
131952,note_on,192,0,5,,,,,,,,4,,,47,0
131976,note_on,96,0,1,,,,,,,,0,,,72,0
131976,note_on,96,0,3,,,,,,,,0,,,72,0
131976,note_on,96,0,2,,,,,,,,1,,,72,0
132000,note_on,24,0,2,,,,,,,,1,,,71,105
132000,note_on,48,0,6,,,,,,,,5,,,32,105
132000,note_on,24,0,3,,,,,,,,0,,,71,105
132000,note_on,48,0,4,,,,,,,,3,,,68,105
132000,note_on,48,0,7,,,,,,,,2,,,71,105
132000,note_on,0,0,7,,,,,,,,2,,,62,105
132000,note_on,48,0,5,,,,,,,,4,,,44,105
132000,note_on,24,0,1,,,,,,,,0,,,71,105
132000,note_on,0,0,7,,,,,,,,2,,,44,105
132096,note_on,96,0,1,,,,,,,,0,,,71,0
132096,note_on,96,0,3,,,,,,,,0,,,71,0
132096,note_on,96,0,2,,,,,,,,1,,,71,0
132120,note_on,24,0,3,,,,,,,,0,,,76,105
132120,note_on,24,0,1,,,,,,,,0,,,76,105
132120,note_on,24,0,2,,,,,,,,1,,,76,105
132192,note_on,192,0,7,,,,,,,,2,,,44,0
132192,note_on,192,0,4,,,,,,,,3,,,68,0
132192,note_on,0,0,7,,,,,,,,2,,,71,0
132192,note_on,192,0,5,,,,,,,,4,,,44,0
132192,note_on,192,0,6,,,,,,,,5,,,32,0
132192,note_on,0,0,7,,,,,,,,2,,,62,0
132216,note_on,96,0,3,,,,,,,,0,,,76,0
132216,note_on,96,0,2,,,,,,,,1,,,76,0
132216,note_on,96,0,1,,,,,,,,0,,,76,0
132240,note_on,48,0,6,,,,,,,,5,,,33,105
132240,note_on,0,0,7,,,,,,,,2,,,60,105
132240,note_on,24,0,3,,,,,,,,0,,,72,105
132240,note_on,48,0,7,,,,,,,,2,,,45,105
132240,note_on,24,0,1,,,,,,,,0,,,72,105
132240,note_on,48,0,4,,,,,,,,3,,,64,105
132240,note_on,24,0,2,,,,,,,,1,,,72,105
132240,note_on,48,0,5,,,,,,,,4,,,45,105
132336,note_on,96,0,3,,,,,,,,0,,,72,0
132336,note_on,96,0,6,,,,,,,,5,,,33,0
132336,note_on,96,0,7,,,,,,,,2,,,60,0
132336,note_on,0,0,7,,,,,,,,2,,,45,0
132336,note_on,96,0,1,,,,,,,,0,,,72,0
132336,note_on,96,0,2,,,,,,,,1,,,72,0
132336,note_on,96,0,5,,,,,,,,4,,,45,0
132360,note_on,24,0,6,,,,,,,,5,,,34,105
132360,note_on,24,0,5,,,,,,,,4,,,47,105
132360,note_on,24,0,7,,,,,,,,2,,,47,105
132360,note_on,24,0,1,,,,,,,,0,,,71,105
132360,note_on,24,0,3,,,,,,,,0,,,71,105
132360,note_on,0,0,7,,,,,,,,2,,,62,105
132360,note_on,24,0,2,,,,,,,,1,,,71,105
132432,note_on,192,0,4,,,,,,,,3,,,64,0
132456,note_on,96,0,1,,,,,,,,0,,,71,0
132456,note_on,96,0,2,,,,,,,,1,,,71,0
132456,note_on,96,0,7,,,,,,,,2,,,62,0
132456,note_on,96,0,6,,,,,,,,5,,,34,0
132456,note_on,96,0,3,,,,,,,,0,,,71,0
132456,note_on,96,0,5,,,,,,,,4,,,47,0
132456,note_on,0,0,7,,,,,,,,2,,,47,0
132480,note_on,24,0,2,,,,,,,,1,,,69,105
132480,note_on,24,0,3,,,,,,,,0,,,69,105
132480,note_on,24,0,1,,,,,,,,0,,,69,105
132480,note_on,24,0,6,,,,,,,,5,,,36,105
132480,note_on,24,0,7,,,,,,,,2,,,48,105
132480,note_on,0,0,7,,,,,,,,2,,,64,105
132480,note_on,24,0,5,,,,,,,,4,,,48,105
132576,note_on,96,0,5,,,,,,,,4,,,48,0
132576,note_on,96,0,6,,,,,,,,5,,,36,0
132576,note_on,96,0,7,,,,,,,,2,,,48,0
132576,note_on,96,0,2,,,,,,,,1,,,69,0
132576,note_on,96,0,1,,,,,,,,0,,,69,0
132576,note_on,96,0,3,,,,,,,,0,,,69,0
132600,note_on,24,0,2,,,,,,,,1,,,81,105
132600,note_on,24,0,7,,,,,,,,2,,,45,105
132600,note_on,24,0,3,,,,,,,,0,,,81,105
132600,note_on,24,0,5,,,,,,,,4,,,45,105
132600,note_on,24,0,1,,,,,,,,0,,,81,105
132600,note_on,24,0,6,,,,,,,,5,,,33,105
132672,note_on,72,0,7,,,,,,,,2,,,64,0
132696,note_on,24,0,7,,,,,,,,2,,,45,0
132696,note_on,96,0,2,,,,,,,,1,,,81,0
132696,note_on,96,0,5,,,,,,,,4,,,45,0
132696,note_on,96,0,3,,,,,,,,0,,,81,0
132696,note_on,96,0,1,,,,,,,,0,,,81,0
132696,note_on,96,0,6,,,,,,,,5,,,33,0
132720,note_on,24,0,6,,,,,,,,5,,,49,105
132720,note_on,24,0,2,,,,,,,,1,,,79,105
132720,note_on,24,0,1,,,,,,,,0,,,79,105
132720,note_on,288,0,4,,,,,,,,3,,,76,105
132720,note_on,0,0,7,,,,,,,,2,,,76,105
132720,note_on,0,0,7,,,,,,,,2,,,69,105
132720,note_on,0,0,7,,,,,,,,2,,,61,105
132720,note_on,24,0,3,,,,,,,,0,,,79,105
132720,note_on,24,0,5,,,,,,,,4,,,61,105
132720,note_on,24,0,7,,,,,,,,2,,,67,105
132744,note_on,24,0,1,,,,,,,,0,,,79,0
132744,note_on,24,0,3,,,,,,,,0,,,79,0
132744,note_on,24,0,2,,,,,,,,1,,,79,0
132750,note_on,6,0,3,,,,,,,,0,,,81,105
132750,note_on,6,0,2,,,,,,,,1,,,81,105
132750,note_on,6,0,1,,,,,,,,0,,,81,105
132774,note_on,24,0,1,,,,,,,,0,,,81,0
132774,note_on,24,0,3,,,,,,,,0,,,81,0
132774,note_on,24,0,2,,,,,,,,1,,,81,0
132780,note_on,6,0,3,,,,,,,,0,,,79,105
132780,note_on,6,0,2,,,,,,,,1,,,79,105
132780,note_on,6,0,1,,,,,,,,0,,,79,105
132804,note_on,24,0,1,,,,,,,,0,,,79,0
132804,note_on,24,0,3,,,,,,,,0,,,79,0
132804,note_on,24,0,2,,,,,,,,1,,,79,0
132810,note_on,6,0,3,,,,,,,,0,,,81,105
132810,note_on,6,0,1,,,,,,,,0,,,81,105
132810,note_on,6,0,2,,,,,,,,1,,,81,105
132816,note_on,96,0,7,,,,,,,,2,,,61,0
132816,note_on,96,0,5,,,,,,,,4,,,61,0
132816,note_on,96,0,4,,,,,,,,3,,,76,0
132816,note_on,96,0,6,,,,,,,,5,,,49,0
132834,note_on,24,0,3,,,,,,,,0,,,81,0
132834,note_on,24,0,1,,,,,,,,0,,,81,0
132834,note_on,24,0,2,,,,,,,,1,,,81,0
132840,note_on,24,0,7,,,,,,,,2,,,57,105
132840,note_on,6,0,3,,,,,,,,0,,,79,105
132840,note_on,24,0,5,,,,,,,,4,,,57,105
132840,note_on,24,0,4,,,,,,,,3,,,73,105
132840,note_on,6,0,2,,,,,,,,1,,,79,105
132840,note_on,24,0,6,,,,,,,,5,,,45,105
132840,note_on,6,0,1,,,,,,,,0,,,79,105
132864,note_on,24,0,3,,,,,,,,0,,,79,0
132864,note_on,24,0,1,,,,,,,,0,,,79,0
132864,note_on,24,0,2,,,,,,,,1,,,79,0
132870,note_on,6,0,2,,,,,,,,1,,,81,105
132870,note_on,6,0,3,,,,,,,,0,,,81,105
132870,note_on,6,0,1,,,,,,,,0,,,81,105
132894,note_on,24,0,2,,,,,,,,1,,,81,0
132894,note_on,24,0,3,,,,,,,,0,,,81,0
132894,note_on,24,0,1,,,,,,,,0,,,81,0
132900,note_on,6,0,3,,,,,,,,0,,,79,105
132900,note_on,6,0,2,,,,,,,,1,,,79,105
132900,note_on,6,0,1,,,,,,,,0,,,79,105
132924,note_on,24,0,1,,,,,,,,0,,,79,0
132924,note_on,24,0,3,,,,,,,,0,,,79,0
132924,note_on,24,0,2,,,,,,,,1,,,79,0
132930,note_on,6,0,3,,,,,,,,0,,,81,105
132930,note_on,6,0,1,,,,,,,,0,,,81,105
132930,note_on,6,0,2,,,,,,,,1,,,81,105
132936,note_on,96,0,6,,,,,,,,5,,,45,0
132936,note_on,96,0,7,,,,,,,,2,,,57,0
132936,note_on,96,0,5,,,,,,,,4,,,57,0
132936,note_on,96,0,4,,,,,,,,3,,,73,0
132954,note_on,24,0,3,,,,,,,,0,,,81,0
132954,note_on,24,0,1,,,,,,,,0,,,81,0
132954,note_on,24,0,2,,,,,,,,1,,,81,0
132960,note_on,24,0,4,,,,,,,,3,,,74,105
132960,note_on,24,0,5,,,,,,,,4,,,59,105
132960,note_on,6,0,2,,,,,,,,1,,,79,105
132960,note_on,24,0,7,,,,,,,,2,,,59,105
132960,note_on,6,0,1,,,,,,,,0,,,79,105
132960,note_on,6,0,3,,,,,,,,0,,,79,105
132960,note_on,24,0,6,,,,,,,,5,,,47,105
132984,note_on,24,0,3,,,,,,,,0,,,79,0
132984,note_on,24,0,2,,,,,,,,1,,,79,0
132984,note_on,24,0,1,,,,,,,,0,,,79,0
132990,note_on,6,0,3,,,,,,,,0,,,81,105
132990,note_on,6,0,2,,,,,,,,1,,,81,105
132990,note_on,6,0,1,,,,,,,,0,,,81,105
133014,note_on,24,0,3,,,,,,,,0,,,81,0
133014,note_on,24,0,1,,,,,,,,0,,,81,0
133014,note_on,24,0,2,,,,,,,,1,,,81,0
133020,note_on,6,0,3,,,,,,,,0,,,79,105
133020,note_on,6,0,2,,,,,,,,1,,,79,105
133020,note_on,6,0,1,,,,,,,,0,,,79,105
133044,note_on,24,0,2,,,,,,,,1,,,79,0
133044,note_on,24,0,1,,,,,,,,0,,,79,0
133044,note_on,24,0,3,,,,,,,,0,,,79,0
133050,note_on,6,0,1,,,,,,,,0,,,81,105
133050,note_on,6,0,2,,,,,,,,1,,,81,105
133050,note_on,6,0,3,,,,,,,,0,,,81,105
133056,note_on,96,0,4,,,,,,,,3,,,74,0
133056,note_on,96,0,6,,,,,,,,5,,,47,0
133056,note_on,96,0,7,,,,,,,,2,,,59,0
133056,note_on,96,0,5,,,,,,,,4,,,59,0
133074,note_on,24,0,1,,,,,,,,0,,,81,0
133074,note_on,24,0,2,,,,,,,,1,,,81,0
133074,note_on,24,0,3,,,,,,,,0,,,81,0
133080,note_on,24,0,7,,,,,,,,2,,,61,105
133080,note_on,6,0,2,,,,,,,,1,,,77,105
133080,note_on,6,0,3,,,,,,,,0,,,77,105
133080,note_on,24,0,6,,,,,,,,5,,,49,105
133080,note_on,24,0,5,,,,,,,,4,,,61,105
133080,note_on,24,0,4,,,,,,,,3,,,76,105
133080,note_on,6,0,1,,,,,,,,0,,,77,105
133104,note_on,24,0,7,,,,,,,,2,,,67,0
133104,note_on,0,0,7,,,,,,,,2,,,76,0
133104,note_on,0,0,7,,,,,,,,2,,,69,0
133128,note_on,48,0,2,,,,,,,,1,,,77,0
133128,note_on,48,0,3,,,,,,,,0,,,77,0
133128,note_on,48,0,1,,,,,,,,0,,,77,0
133140,note_on,12,0,1,,,,,,,,0,,,76,105
133140,note_on,12,0,2,,,,,,,,1,,,76,105
133140,note_on,12,0,3,,,,,,,,0,,,76,105
133176,note_on,96,0,4,,,,,,,,3,,,76,0
133176,note_on,96,0,6,,,,,,,,5,,,49,0
133176,note_on,96,0,5,,,,,,,,4,,,61,0
133176,note_on,72,0,7,,,,,,,,2,,,61,0
133188,note_on,48,0,3,,,,,,,,0,,,76,0
133188,note_on,48,0,1,,,,,,,,0,,,76,0
133188,note_on,48,0,2,,,,,,,,1,,,76,0
133200,note_on,12,0,3,,,,,,,,0,,,77,105
133200,note_on,24,0,4,,,,,,,,3,,,69,105
133200,note_on,24,0,6,,,,,,,,5,,,48,105
133200,note_on,24,0,5,,,,,,,,4,,,62,105
133200,note_on,12,0,1,,,,,,,,0,,,77,105
133200,note_on,24,0,7,,,,,,,,2,,,74,105
133200,note_on,12,0,2,,,,,,,,1,,,77,105
133200,note_on,0,0,7,,,,,,,,2,,,65,105
133200,note_on,0,0,7,,,,,,,,2,,,62,105
133200,note_on,0,0,7,,,,,,,,2,,,69,105
133296,note_on,96,0,1,,,,,,,,0,,,77,0
133296,note_on,96,0,3,,,,,,,,0,,,77,0
133296,note_on,96,0,5,,,,,,,,4,,,62,0
133296,note_on,96,0,7,,,,,,,,2,,,62,0
133296,note_on,96,0,2,,,,,,,,1,,,77,0
133296,note_on,96,0,6,,,,,,,,5,,,48,0
133320,note_on,24,0,2,,,,,,,,1,,,74,105
133320,note_on,24,0,3,,,,,,,,0,,,74,105
133320,note_on,24,0,5,,,,,,,,4,,,64,105
133320,note_on,24,0,6,,,,,,,,5,,,52,105
133320,note_on,24,0,1,,,,,,,,0,,,74,105
133320,note_on,24,0,7,,,,,,,,2,,,64,105
133392,note_on,192,0,4,,,,,,,,3,,,69,0
133416,note_on,96,0,3,,,,,,,,0,,,74,0
133416,note_on,96,0,2,,,,,,,,1,,,74,0
133416,note_on,96,0,7,,,,,,,,2,,,64,0
133416,note_on,96,0,1,,,,,,,,0,,,74,0
133416,note_on,96,0,5,,,,,,,,4,,,64,0
133416,note_on,96,0,6,,,,,,,,5,,,52,0
133440,note_on,24,0,5,,,,,,,,4,,,62,105
133440,note_on,24,0,3,,,,,,,,0,,,77,105
133440,note_on,24,0,7,,,,,,,,2,,,62,105
133440,note_on,24,0,2,,,,,,,,1,,,77,105
133440,note_on,24,0,1,,,,,,,,0,,,77,105
133440,note_on,24,0,6,,,,,,,,5,,,48,105
133536,note_on,96,0,5,,,,,,,,4,,,62,0
133536,note_on,96,0,3,,,,,,,,0,,,77,0
133536,note_on,96,0,7,,,,,,,,2,,,62,0
133536,note_on,96,0,2,,,,,,,,1,,,77,0
133536,note_on,96,0,1,,,,,,,,0,,,77,0
133536,note_on,96,0,6,,,,,,,,5,,,48,0
133560,note_on,24,0,1,,,,,,,,0,,,86,105
133560,note_on,24,0,6,,,,,,,,5,,,48,105
133560,note_on,24,0,7,,,,,,,,2,,,60,105
133560,note_on,24,0,5,,,,,,,,4,,,60,105
133560,note_on,24,0,2,,,,,,,,1,,,86,105
133560,note_on,24,0,3,,,,,,,,0,,,86,105
133584,note_on,0,0,7,,,,,,,,2,,,69,0
133584,note_on,24,0,7,,,,,,,,2,,,74,0
133584,note_on,0,0,7,,,,,,,,2,,,65,0
133656,note_on,96,0,6,,,,,,,,5,,,48,0
133656,note_on,96,0,1,,,,,,,,0,,,86,0
133656,note_on,96,0,2,,,,,,,,1,,,86,0
133656,note_on,96,0,5,,,,,,,,4,,,60,0
133656,note_on,72,0,7,,,,,,,,2,,,60,0
133656,note_on,96,0,3,,,,,,,,0,,,86,0
133680,note_on,24,0,6,,,,,,,,5,,,47,105
133680,note_on,288,0,4,,,,,,,,3,,,74,105
133680,note_on,24,0,1,,,,,,,,0,,,77,105
133680,note_on,24,0,5,,,,,,,,4,,,59,105
133680,note_on,0,0,7,,,,,,,,2,,,59,105
133680,note_on,24,0,7,,,,,,,,2,,,67,105
133680,note_on,0,0,7,,,,,,,,2,,,65,105
133680,note_on,24,0,2,,,,,,,,1,,,77,105
133680,note_on,24,0,3,,,,,,,,0,,,77,105
133680,note_on,0,0,7,,,,,,,,2,,,74,105
133704,note_on,24,0,3,,,,,,,,0,,,77,0
133704,note_on,24,0,1,,,,,,,,0,,,77,0
133704,note_on,24,0,2,,,,,,,,1,,,77,0
133710,note_on,6,0,1,,,,,,,,0,,,79,105
133710,note_on,6,0,3,,,,,,,,0,,,79,105
133710,note_on,6,0,2,,,,,,,,1,,,79,105
133734,note_on,24,0,2,,,,,,,,1,,,79,0
133734,note_on,24,0,1,,,,,,,,0,,,79,0
133734,note_on,24,0,3,,,,,,,,0,,,79,0
133740,note_on,6,0,1,,,,,,,,0,,,77,105
133740,note_on,6,0,3,,,,,,,,0,,,77,105
133740,note_on,6,0,2,,,,,,,,1,,,77,105
133764,note_on,24,0,3,,,,,,,,0,,,77,0
133764,note_on,24,0,1,,,,,,,,0,,,77,0
133764,note_on,24,0,2,,,,,,,,1,,,77,0
133770,note_on,6,0,1,,,,,,,,0,,,79,105
133770,note_on,6,0,2,,,,,,,,1,,,79,105
133770,note_on,6,0,3,,,,,,,,0,,,79,105
133776,note_on,96,0,4,,,,,,,,3,,,74,0
133776,note_on,96,0,5,,,,,,,,4,,,59,0
133776,note_on,96,0,6,,,,,,,,5,,,47,0
133776,note_on,96,0,7,,,,,,,,2,,,59,0
133794,note_on,24,0,1,,,,,,,,0,,,79,0
133794,note_on,24,0,2,,,,,,,,1,,,79,0
133794,note_on,24,0,3,,,,,,,,0,,,79,0
133800,note_on,6,0,1,,,,,,,,0,,,77,105
133800,note_on,24,0,6,,,,,,,,5,,,43,105
133800,note_on,24,0,5,,,,,,,,4,,,55,105
133800,note_on,24,0,7,,,,,,,,2,,,55,105
133800,note_on,6,0,2,,,,,,,,1,,,77,105
133800,note_on,6,0,3,,,,,,,,0,,,77,105
133800,note_on,24,0,4,,,,,,,,3,,,71,105
133824,note_on,24,0,2,,,,,,,,1,,,77,0
133824,note_on,24,0,3,,,,,,,,0,,,77,0
133824,note_on,24,0,1,,,,,,,,0,,,77,0
133830,note_on,6,0,3,,,,,,,,0,,,79,105
133830,note_on,6,0,2,,,,,,,,1,,,79,105
133830,note_on,6,0,1,,,,,,,,0,,,79,105
133854,note_on,24,0,3,,,,,,,,0,,,79,0
133854,note_on,24,0,2,,,,,,,,1,,,79,0
133854,note_on,24,0,1,,,,,,,,0,,,79,0
133860,note_on,6,0,1,,,,,,,,0,,,77,105
133860,note_on,6,0,2,,,,,,,,1,,,77,105
133860,note_on,6,0,3,,,,,,,,0,,,77,105
133884,note_on,24,0,1,,,,,,,,0,,,77,0
133884,note_on,24,0,2,,,,,,,,1,,,77,0
133884,note_on,24,0,3,,,,,,,,0,,,77,0
133890,note_on,6,0,1,,,,,,,,0,,,79,105
133890,note_on,6,0,2,,,,,,,,1,,,79,105
133890,note_on,6,0,3,,,,,,,,0,,,79,105
133896,note_on,96,0,7,,,,,,,,2,,,55,0
133896,note_on,96,0,6,,,,,,,,5,,,43,0
133896,note_on,96,0,5,,,,,,,,4,,,55,0
133896,note_on,96,0,4,,,,,,,,3,,,71,0
133914,note_on,24,0,1,,,,,,,,0,,,79,0
133914,note_on,24,0,2,,,,,,,,1,,,79,0
133914,note_on,24,0,3,,,,,,,,0,,,79,0
133920,note_on,6,0,3,,,,,,,,0,,,77,105
133920,note_on,6,0,2,,,,,,,,1,,,77,105
133920,note_on,24,0,7,,,,,,,,2,,,57,105
133920,note_on,6,0,1,,,,,,,,0,,,77,105
133920,note_on,24,0,4,,,,,,,,3,,,72,105
133920,note_on,24,0,5,,,,,,,,4,,,57,105
133920,note_on,24,0,6,,,,,,,,5,,,45,105
133944,note_on,24,0,2,,,,,,,,1,,,77,0
133944,note_on,24,0,1,,,,,,,,0,,,77,0
133944,note_on,24,0,3,,,,,,,,0,,,77,0
133950,note_on,6,0,2,,,,,,,,1,,,79,105
133950,note_on,6,0,3,,,,,,,,0,,,79,105
133950,note_on,6,0,1,,,,,,,,0,,,79,105
133974,note_on,24,0,1,,,,,,,,0,,,79,0
133974,note_on,24,0,2,,,,,,,,1,,,79,0
133974,note_on,24,0,3,,,,,,,,0,,,79,0
133980,note_on,6,0,3,,,,,,,,0,,,77,105
133980,note_on,6,0,2,,,,,,,,1,,,77,105
133980,note_on,6,0,1,,,,,,,,0,,,77,105
134004,note_on,24,0,3,,,,,,,,0,,,77,0
134004,note_on,24,0,1,,,,,,,,0,,,77,0
134004,note_on,24,0,2,,,,,,,,1,,,77,0
134010,note_on,6,0,2,,,,,,,,1,,,79,105
134010,note_on,6,0,1,,,,,,,,0,,,79,105
134010,note_on,6,0,3,,,,,,,,0,,,79,105
134016,note_on,96,0,6,,,,,,,,5,,,45,0
134016,note_on,96,0,4,,,,,,,,3,,,72,0
134016,note_on,96,0,7,,,,,,,,2,,,57,0
134016,note_on,96,0,5,,,,,,,,4,,,57,0
134034,note_on,24,0,1,,,,,,,,0,,,79,0
134034,note_on,24,0,3,,,,,,,,0,,,79,0
134034,note_on,24,0,2,,,,,,,,1,,,79,0
134040,note_on,24,0,4,,,,,,,,3,,,74,105
134040,note_on,24,0,6,,,,,,,,5,,,47,105
134040,note_on,24,0,5,,,,,,,,4,,,59,105
134040,note_on,6,0,3,,,,,,,,0,,,76,105
134040,note_on,6,0,1,,,,,,,,0,,,76,105
134040,note_on,6,0,2,,,,,,,,1,,,76,105
134040,note_on,24,0,7,,,,,,,,2,,,59,105
134064,note_on,0,0,7,,,,,,,,2,,,65,0
134064,note_on,0,0,7,,,,,,,,2,,,74,0
134064,note_on,24,0,7,,,,,,,,2,,,67,0
134088,note_on,48,0,3,,,,,,,,0,,,76,0
134088,note_on,48,0,1,,,,,,,,0,,,76,0
134088,note_on,48,0,2,,,,,,,,1,,,76,0
134100,note_on,12,0,3,,,,,,,,0,,,74,105
134100,note_on,12,0,1,,,,,,,,0,,,74,105
134100,note_on,12,0,2,,,,,,,,1,,,74,105
134136,note_on,96,0,6,,,,,,,,5,,,47,0
134136,note_on,96,0,5,,,,,,,,4,,,59,0
134136,note_on,96,0,4,,,,,,,,3,,,74,0
134136,note_on,72,0,7,,,,,,,,2,,,59,0
134148,note_on,48,0,1,,,,,,,,0,,,74,0
134148,note_on,48,0,3,,,,,,,,0,,,74,0
134148,note_on,48,0,2,,,,,,,,1,,,74,0
134160,note_on,24,0,5,,,,,,,,4,,,60,105
134160,note_on,12,0,3,,,,,,,,0,,,76,105
134160,note_on,24,0,7,,,,,,,,2,,,72,105
134160,note_on,0,0,7,,,,,,,,2,,,67,105
134160,note_on,0,0,7,,,,,,,,2,,,64,105
134160,note_on,0,0,7,,,,,,,,2,,,60,105
134160,note_on,24,0,6,,,,,,,,5,,,48,105
134160,note_on,12,0,1,,,,,,,,0,,,76,105
134160,note_on,24,0,4,,,,,,,,3,,,67,105
134160,note_on,12,0,2,,,,,,,,1,,,76,105
134256,note_on,96,0,3,,,,,,,,0,,,76,0
134256,note_on,96,0,6,,,,,,,,5,,,48,0
134256,note_on,96,0,1,,,,,,,,0,,,76,0
134256,note_on,96,0,2,,,,,,,,1,,,76,0
134256,note_on,96,0,7,,,,,,,,2,,,60,0
134256,note_on,96,0,5,,,,,,,,4,,,60,0
134280,note_on,24,0,5,,,,,,,,4,,,62,105
134280,note_on,24,0,3,,,,,,,,0,,,72,105
134280,note_on,24,0,2,,,,,,,,1,,,72,105
134280,note_on,24,0,1,,,,,,,,0,,,72,105
134280,note_on,24,0,7,,,,,,,,2,,,62,105
134280,note_on,24,0,6,,,,,,,,5,,,50,105
134352,note_on,192,0,4,,,,,,,,3,,,67,0
134376,note_on,96,0,2,,,,,,,,1,,,72,0
134376,note_on,96,0,1,,,,,,,,0,,,72,0
134376,note_on,96,0,3,,,,,,,,0,,,72,0
134376,note_on,96,0,5,,,,,,,,4,,,62,0
134376,note_on,96,0,7,,,,,,,,2,,,62,0
134376,note_on,96,0,6,,,,,,,,5,,,50,0
134400,note_on,24,0,5,,,,,,,,4,,,60,105
134400,note_on,24,0,2,,,,,,,,1,,,76,105
134400,note_on,24,0,1,,,,,,,,0,,,76,105
134400,note_on,24,0,3,,,,,,,,0,,,76,105
134400,note_on,24,0,7,,,,,,,,2,,,60,105
134400,note_on,24,0,6,,,,,,,,5,,,48,105
134496,note_on,96,0,1,,,,,,,,0,,,76,0
134496,note_on,96,0,7,,,,,,,,2,,,60,0
134496,note_on,96,0,6,,,,,,,,5,,,48,0
134496,note_on,96,0,3,,,,,,,,0,,,76,0
134496,note_on,96,0,2,,,,,,,,1,,,76,0
134496,note_on,96,0,5,,,,,,,,4,,,60,0
134520,note_on,24,0,7,,,,,,,,2,,,59,105
134520,note_on,24,0,6,,,,,,,,5,,,47,105
134520,note_on,24,0,3,,,,,,,,0,,,84,105
134520,note_on,24,0,2,,,,,,,,1,,,84,105
134520,note_on,24,0,5,,,,,,,,4,,,59,105
134520,note_on,24,0,1,,,,,,,,0,,,84,105
134544,note_on,24,0,7,,,,,,,,2,,,72,0
134544,note_on,0,0,7,,,,,,,,2,,,67,0
134544,note_on,0,0,7,,,,,,,,2,,,64,0
134616,note_on,96,0,5,,,,,,,,4,,,59,0
134616,note_on,96,0,6,,,,,,,,5,,,47,0
134616,note_on,96,0,2,,,,,,,,1,,,84,0
134616,note_on,96,0,1,,,,,,,,0,,,84,0
134616,note_on,96,0,3,,,,,,,,0,,,84,0
134616,note_on,72,0,7,,,,,,,,2,,,59,0
134640,note_on,24,0,1,,,,,,,,0,,,76,105
134640,note_on,0,0,7,,,,,,,,2,,,57,105
134640,note_on,24,0,5,,,,,,,,4,,,57,105
134640,note_on,24,0,6,,,,,,,,5,,,45,105
134640,note_on,24,0,2,,,,,,,,1,,,76,105
134640,note_on,24,0,7,,,,,,,,2,,,64,105
134640,note_on,0,0,7,,,,,,,,2,,,72,105
134640,note_on,0,0,7,,,,,,,,2,,,65,105
134640,note_on,288,0,4,,,,,,,,3,,,72,105
134640,note_on,24,0,3,,,,,,,,0,,,76,105
134664,note_on,24,0,2,,,,,,,,1,,,76,0
134664,note_on,24,0,1,,,,,,,,0,,,76,0
134664,note_on,24,0,3,,,,,,,,0,,,76,0
134670,note_on,6,0,1,,,,,,,,0,,,77,105
134670,note_on,6,0,3,,,,,,,,0,,,77,105
134670,note_on,6,0,2,,,,,,,,1,,,77,105
134694,note_on,24,0,1,,,,,,,,0,,,77,0
134694,note_on,24,0,3,,,,,,,,0,,,77,0
134694,note_on,24,0,2,,,,,,,,1,,,77,0
134700,note_on,6,0,3,,,,,,,,0,,,76,105
134700,note_on,6,0,1,,,,,,,,0,,,76,105
134700,note_on,6,0,2,,,,,,,,1,,,76,105
134724,note_on,24,0,1,,,,,,,,0,,,76,0
134724,note_on,24,0,3,,,,,,,,0,,,76,0
134724,note_on,24,0,2,,,,,,,,1,,,76,0
134730,note_on,6,0,2,,,,,,,,1,,,77,105
134730,note_on,6,0,1,,,,,,,,0,,,77,105
134730,note_on,6,0,3,,,,,,,,0,,,77,105
134736,note_on,96,0,4,,,,,,,,3,,,72,0
134736,note_on,96,0,6,,,,,,,,5,,,45,0
134736,note_on,96,0,7,,,,,,,,2,,,57,0
134736,note_on,96,0,5,,,,,,,,4,,,57,0
134754,note_on,24,0,2,,,,,,,,1,,,77,0
134754,note_on,24,0,3,,,,,,,,0,,,77,0
134754,note_on,24,0,1,,,,,,,,0,,,77,0
134760,note_on,6,0,1,,,,,,,,0,,,76,105
134760,note_on,6,0,2,,,,,,,,1,,,76,105
134760,note_on,6,0,3,,,,,,,,0,,,76,105
134760,note_on,24,0,5,,,,,,,,4,,,53,105
134760,note_on,24,0,7,,,,,,,,2,,,53,105
134760,note_on,24,0,4,,,,,,,,3,,,69,105
134760,note_on,24,0,6,,,,,,,,5,,,41,105
134784,note_on,24,0,3,,,,,,,,0,,,76,0
134784,note_on,24,0,2,,,,,,,,1,,,76,0
134784,note_on,24,0,1,,,,,,,,0,,,76,0
134790,note_on,6,0,1,,,,,,,,0,,,77,105
134790,note_on,6,0,3,,,,,,,,0,,,77,105
134790,note_on,6,0,2,,,,,,,,1,,,77,105
134814,note_on,24,0,1,,,,,,,,0,,,77,0
134814,note_on,24,0,2,,,,,,,,1,,,77,0
134814,note_on,24,0,3,,,,,,,,0,,,77,0
134820,note_on,6,0,3,,,,,,,,0,,,76,105
134820,note_on,6,0,1,,,,,,,,0,,,76,105
134820,note_on,6,0,2,,,,,,,,1,,,76,105
134844,note_on,24,0,3,,,,,,,,0,,,76,0
134844,note_on,24,0,1,,,,,,,,0,,,76,0
134844,note_on,24,0,2,,,,,,,,1,,,76,0
134850,note_on,6,0,3,,,,,,,,0,,,77,105
134850,note_on,6,0,1,,,,,,,,0,,,77,105
134850,note_on,6,0,2,,,,,,,,1,,,77,105
134856,note_on,96,0,6,,,,,,,,5,,,41,0
134856,note_on,96,0,7,,,,,,,,2,,,53,0
134856,note_on,96,0,4,,,,,,,,3,,,69,0
134856,note_on,96,0,5,,,,,,,,4,,,53,0
134874,note_on,24,0,2,,,,,,,,1,,,77,0
134874,note_on,24,0,1,,,,,,,,0,,,77,0
134874,note_on,24,0,3,,,,,,,,0,,,77,0
134880,note_on,6,0,3,,,,,,,,0,,,76,105
134880,note_on,6,0,1,,,,,,,,0,,,76,105
134880,note_on,24,0,4,,,,,,,,3,,,71,105
134880,note_on,24,0,5,,,,,,,,4,,,55,105
134880,note_on,24,0,7,,,,,,,,2,,,55,105
134880,note_on,6,0,2,,,,,,,,1,,,76,105
134880,note_on,24,0,6,,,,,,,,5,,,43,105
134904,note_on,24,0,1,,,,,,,,0,,,76,0
134904,note_on,24,0,2,,,,,,,,1,,,76,0
134904,note_on,24,0,3,,,,,,,,0,,,76,0
134910,note_on,6,0,2,,,,,,,,1,,,77,105
134910,note_on,6,0,1,,,,,,,,0,,,77,105
134910,note_on,6,0,3,,,,,,,,0,,,77,105
134934,note_on,24,0,3,,,,,,,,0,,,77,0
134934,note_on,24,0,1,,,,,,,,0,,,77,0
134934,note_on,24,0,2,,,,,,,,1,,,77,0
134940,note_on,6,0,2,,,,,,,,1,,,76,105
134940,note_on,6,0,3,,,,,,,,0,,,76,105
134940,note_on,6,0,1,,,,,,,,0,,,76,105
134964,note_on,24,0,1,,,,,,,,0,,,76,0
134964,note_on,24,0,2,,,,,,,,1,,,76,0
134964,note_on,24,0,3,,,,,,,,0,,,76,0
134970,note_on,6,0,3,,,,,,,,0,,,77,105
134970,note_on,6,0,2,,,,,,,,1,,,77,105
134970,note_on,6,0,1,,,,,,,,0,,,77,105
134976,note_on,96,0,4,,,,,,,,3,,,71,0
134976,note_on,96,0,6,,,,,,,,5,,,43,0
134976,note_on,96,0,7,,,,,,,,2,,,55,0
134976,note_on,96,0,5,,,,,,,,4,,,55,0
134994,note_on,24,0,3,,,,,,,,0,,,77,0
134994,note_on,24,0,2,,,,,,,,1,,,77,0
134994,note_on,24,0,1,,,,,,,,0,,,77,0
135000,note_on,24,0,5,,,,,,,,4,,,57,105
135000,note_on,6,0,1,,,,,,,,0,,,74,105
135000,note_on,24,0,7,,,,,,,,2,,,57,105
135000,note_on,24,0,6,,,,,,,,5,,,45,105
135000,note_on,6,0,2,,,,,,,,1,,,74,105
135000,note_on,24,0,4,,,,,,,,3,,,72,105
135000,note_on,6,0,3,,,,,,,,0,,,74,105
135024,note_on,0,0,7,,,,,,,,2,,,72,0
135024,note_on,24,0,7,,,,,,,,2,,,64,0
135024,note_on,0,0,7,,,,,,,,2,,,65,0
135048,note_on,48,0,1,,,,,,,,0,,,74,0
135048,note_on,48,0,3,,,,,,,,0,,,74,0
135048,note_on,48,0,2,,,,,,,,1,,,74,0
135060,note_on,12,0,3,,,,,,,,0,,,72,105
135060,note_on,12,0,1,,,,,,,,0,,,72,105
135060,note_on,12,0,2,,,,,,,,1,,,72,105
135096,note_on,72,0,7,,,,,,,,2,,,57,0
135096,note_on,96,0,5,,,,,,,,4,,,57,0
135096,note_on,96,0,6,,,,,,,,5,,,45,0
135096,note_on,96,0,4,,,,,,,,3,,,72,0
135108,note_on,48,0,1,,,,,,,,0,,,72,0
135108,note_on,48,0,3,,,,,,,,0,,,72,0
135108,note_on,48,0,2,,,,,,,,1,,,72,0
135120,note_on,12,0,1,,,,,,,,0,,,74,105
135120,note_on,12,0,3,,,,,,,,0,,,74,105
135120,note_on,12,0,2,,,,,,,,1,,,74,105
135120,note_on,24,0,4,,,,,,,,3,,,68,105
135120,note_on,0,0,7,,,,,,,,2,,,59,105
135120,note_on,24,0,6,,,,,,,,5,,,47,105
135120,note_on,24,0,7,,,,,,,,2,,,67,105
135120,note_on,0,0,7,,,,,,,,2,,,62,105
135120,note_on,0,0,7,,,,,,,,2,,,66,105
135120,note_on,24,0,5,,,,,,,,4,,,59,105
135216,note_on,96,0,7,,,,,,,,2,,,59,0
135216,note_on,96,0,1,,,,,,,,0,,,74,0
135216,note_on,96,0,2,,,,,,,,1,,,74,0
135216,note_on,96,0,5,,,,,,,,4,,,59,0
135216,note_on,96,0,6,,,,,,,,5,,,47,0
135216,note_on,96,0,3,,,,,,,,0,,,74,0
135240,note_on,24,0,3,,,,,,,,0,,,71,105
135240,note_on,24,0,1,,,,,,,,0,,,71,105
135240,note_on,24,0,5,,,,,,,,4,,,60,105
135240,note_on,24,0,6,,,,,,,,5,,,48,105
135240,note_on,24,0,2,,,,,,,,1,,,71,105
135240,note_on,24,0,7,,,,,,,,2,,,60,105
135312,note_on,192,0,4,,,,,,,,3,,,68,0
135336,note_on,96,0,6,,,,,,,,5,,,48,0
135336,note_on,96,0,2,,,,,,,,1,,,71,0
135336,note_on,96,0,7,,,,,,,,2,,,60,0
135336,note_on,96,0,5,,,,,,,,4,,,60,0
135336,note_on,96,0,1,,,,,,,,0,,,71,0
135336,note_on,96,0,3,,,,,,,,0,,,71,0
135360,note_on,24,0,3,,,,,,,,0,,,74,105
135360,note_on,24,0,1,,,,,,,,0,,,74,105
135360,note_on,24,0,6,,,,,,,,5,,,47,105
135360,note_on,24,0,7,,,,,,,,2,,,59,105
135360,note_on,24,0,2,,,,,,,,1,,,74,105
135360,note_on,24,0,5,,,,,,,,4,,,59,105
135456,note_on,96,0,7,,,,,,,,2,,,59,0
135456,note_on,96,0,3,,,,,,,,0,,,74,0
135456,note_on,96,0,6,,,,,,,,5,,,47,0
135456,note_on,96,0,2,,,,,,,,1,,,74,0
135456,note_on,96,0,5,,,,,,,,4,,,59,0
135456,note_on,96,0,1,,,,,,,,0,,,74,0
135480,note_on,24,0,5,,,,,,,,4,,,57,105
135480,note_on,24,0,7,,,,,,,,2,,,57,105
135480,note_on,24,0,6,,,,,,,,5,,,45,105
135480,note_on,24,0,1,,,,,,,,0,,,83,105
135480,note_on,24,0,3,,,,,,,,0,,,83,105
135480,note_on,24,0,2,,,,,,,,1,,,83,105
135504,note_on,24,0,7,,,,,,,,2,,,67,0
135504,note_on,0,0,7,,,,,,,,2,,,66,0
135504,note_on,0,0,7,,,,,,,,2,,,62,0
135576,note_on,96,0,5,,,,,,,,4,,,57,0
135576,note_on,72,0,7,,,,,,,,2,,,57,0
135576,note_on,96,0,1,,,,,,,,0,,,83,0
135576,note_on,96,0,2,,,,,,,,1,,,83,0
135576,note_on,96,0,3,,,,,,,,0,,,83,0
135576,note_on,96,0,6,,,,,,,,5,,,45,0
135600,note_on,0,0,7,,,,,,,,2,,,71,105
135600,note_on,0,0,7,,,,,,,,2,,,64,105
135600,note_on,0,0,7,,,,,,,,2,,,56,105
135600,note_on,24,0,1,,,,,,,,0,,,83,105
135600,note_on,24,0,5,,,,,,,,4,,,56,105
135600,note_on,24,0,7,,,,,,,,2,,,74,105
135600,note_on,24,0,3,,,,,,,,0,,,83,105
135600,note_on,24,0,6,,,,,,,,5,,,44,105
135600,note_on,24,0,2,,,,,,,,1,,,83,105
135600,note_on,288,0,4,,,,,,,,3,,,64,105
135648,note_on,48,0,3,,,,,,,,0,,,83,0
135648,note_on,48,0,1,,,,,,,,0,,,83,0
135648,note_on,48,0,2,,,,,,,,1,,,83,0
135660,note_on,12,0,2,,,,,,,,1,,,81,105
135660,note_on,12,0,3,,,,,,,,0,,,81,105
135660,note_on,12,0,1,,,,,,,,0,,,81,105
135696,note_on,96,0,5,,,,,,,,4,,,56,0
135696,note_on,96,0,6,,,,,,,,5,,,44,0
135696,note_on,96,0,7,,,,,,,,2,,,56,0
135708,note_on,48,0,3,,,,,,,,0,,,81,0
135708,note_on,48,0,2,,,,,,,,1,,,81,0
135708,note_on,48,0,1,,,,,,,,0,,,81,0
135720,note_on,12,0,3,,,,,,,,0,,,80,105
135720,note_on,24,0,6,,,,,,,,5,,,40,105
135720,note_on,12,0,2,,,,,,,,1,,,80,105
135720,note_on,24,0,5,,,,,,,,4,,,52,105
135720,note_on,24,0,7,,,,,,,,2,,,52,105
135720,note_on,12,0,1,,,,,,,,0,,,80,105
135768,note_on,48,0,1,,,,,,,,0,,,80,0
135768,note_on,48,0,2,,,,,,,,1,,,80,0
135768,note_on,48,0,3,,,,,,,,0,,,80,0
135780,note_on,12,0,2,,,,,,,,1,,,78,105
135780,note_on,12,0,3,,,,,,,,0,,,78,105
135780,note_on,12,0,1,,,,,,,,0,,,78,105
135816,note_on,96,0,5,,,,,,,,4,,,52,0
135816,note_on,96,0,6,,,,,,,,5,,,40,0
135816,note_on,96,0,7,,,,,,,,2,,,52,0
135828,note_on,48,0,1,,,,,,,,0,,,78,0
135828,note_on,48,0,3,,,,,,,,0,,,78,0
135828,note_on,48,0,2,,,,,,,,1,,,78,0
135840,note_on,24,0,6,,,,,,,,5,,,42,105
135840,note_on,12,0,1,,,,,,,,0,,,76,105
135840,note_on,24,0,7,,,,,,,,2,,,54,105
135840,note_on,12,0,2,,,,,,,,1,,,76,105
135840,note_on,24,0,5,,,,,,,,4,,,54,105
135840,note_on,12,0,3,,,,,,,,0,,,76,105
135888,note_on,288,0,4,,,,,,,,3,,,64,0
135936,note_on,96,0,6,,,,,,,,5,,,42,0
135936,note_on,96,0,5,,,,,,,,4,,,54,0
135936,note_on,96,0,1,,,,,,,,0,,,76,0
135936,note_on,96,0,7,,,,,,,,2,,,54,0
135936,note_on,96,0,3,,,,,,,,0,,,76,0
135936,note_on,96,0,2,,,,,,,,1,,,76,0
135960,note_on,24,0,3,,,,,,,,0,,,74,105
135960,note_on,24,0,1,,,,,,,,0,,,74,105
135960,note_on,24,0,2,,,,,,,,1,,,74,105
135960,note_on,72,0,4,,,,,,,,3,,,64,105
135960,note_on,24,0,7,,,,,,,,2,,,56,105
135960,note_on,24,0,6,,,,,,,,5,,,43,105
135960,note_on,24,0,5,,,,,,,,4,,,56,105
135984,note_on,0,0,7,,,,,,,,2,,,64,0
135984,note_on,24,0,7,,,,,,,,2,,,74,0
135984,note_on,0,0,7,,,,,,,,2,,,71,0
136056,note_on,96,0,6,,,,,,,,5,,,43,0
136056,note_on,96,0,4,,,,,,,,3,,,64,0
136056,note_on,96,0,3,,,,,,,,0,,,74,0
136056,note_on,96,0,2,,,,,,,,1,,,74,0
136056,note_on,72,0,7,,,,,,,,2,,,56,0
136056,note_on,96,0,1,,,,,,,,0,,,74,0
136056,note_on,96,0,5,,,,,,,,4,,,56,0
136080,note_on,24,0,7,,,,,,,,2,,,72,105
136080,note_on,0,0,7,,,,,,,,2,,,64,105
136080,note_on,0,0,7,,,,,,,,2,,,69,105
136080,note_on,0,0,7,,,,,,,,2,,,57,105
136080,note_on,24,0,5,,,,,,,,4,,,57,105
136080,note_on,24,0,2,,,,,,,,1,,,72,105
136080,note_on,24,0,6,,,,,,,,5,,,45,105
136080,note_on,24,0,3,,,,,,,,0,,,72,105
136080,note_on,24,0,1,,,,,,,,0,,,72,105
136080,note_on,24,0,4,,,,,,,,3,,,64,105
136176,note_on,96,0,4,,,,,,,,3,,,64,0
136176,note_on,96,0,1,,,,,,,,0,,,72,0
136176,note_on,96,0,3,,,,,,,,0,,,72,0
136176,note_on,96,0,7,,,,,,,,2,,,57,0
136176,note_on,96,0,6,,,,,,,,5,,,45,0
136176,note_on,96,0,2,,,,,,,,1,,,72,0
136176,note_on,96,0,5,,,,,,,,4,,,57,0
136200,note_on,24,0,2,,,,,,,,1,,,71,105
136200,note_on,24,0,5,,,,,,,,4,,,45,105
136200,note_on,24,0,4,,,,,,,,3,,,64,105
136200,note_on,24,0,3,,,,,,,,0,,,71,105
136200,note_on,24,0,7,,,,,,,,2,,,45,105
136200,note_on,24,0,6,,,,,,,,5,,,33,105
136200,note_on,24,0,1,,,,,,,,0,,,71,105
136248,note_on,48,0,3,,,,,,,,0,,,71,0
136248,note_on,48,0,2,,,,,,,,1,,,71,0
136248,note_on,48,0,1,,,,,,,,0,,,71,0
136260,note_on,12,0,1,,,,,,,,0,,,69,105
136260,note_on,12,0,3,,,,,,,,0,,,69,105
136260,note_on,12,0,2,,,,,,,,1,,,69,105
136272,note_on,72,0,7,,,,,,,,2,,,72,0
136272,note_on,0,0,7,,,,,,,,2,,,69,0
136272,note_on,0,0,7,,,,,,,,2,,,64,0
136296,note_on,96,0,6,,,,,,,,5,,,33,0
136296,note_on,96,0,4,,,,,,,,3,,,64,0
136296,note_on,96,0,5,,,,,,,,4,,,45,0
136296,note_on,24,0,7,,,,,,,,2,,,45,0
136308,note_on,48,0,2,,,,,,,,1,,,69,0
136308,note_on,48,0,3,,,,,,,,0,,,69,0
136308,note_on,48,0,1,,,,,,,,0,,,69,0
136320,note_on,12,0,1,,,,,,,,0,,,71,105
136320,note_on,24,0,5,,,,,,,,4,,,50,105
136320,note_on,24,0,4,,,,,,,,3,,,65,105
136320,note_on,24,0,7,,,,,,,,2,,,71,105
136320,note_on,0,0,7,,,,,,,,2,,,65,105
136320,note_on,0,0,7,,,,,,,,2,,,50,105
136320,note_on,12,0,3,,,,,,,,0,,,71,105
136320,note_on,24,0,6,,,,,,,,5,,,38,105
136320,note_on,12,0,2,,,,,,,,1,,,71,105
136416,note_on,0,0,7,,,,,,,,2,,,71,0
136416,note_on,96,0,7,,,,,,,,2,,,65,0
136416,note_on,96,0,5,,,,,,,,4,,,50,0
136416,note_on,96,0,1,,,,,,,,0,,,71,0
136416,note_on,96,0,4,,,,,,,,3,,,65,0
136416,note_on,96,0,6,,,,,,,,5,,,38,0
136416,note_on,96,0,2,,,,,,,,1,,,71,0
136416,note_on,0,0,7,,,,,,,,2,,,50,0
136416,note_on,96,0,3,,,,,,,,0,,,71,0
136440,note_on,24,0,5,,,,,,,,4,,,52,105
136440,note_on,24,0,2,,,,,,,,1,,,68,105
136440,note_on,24,0,4,,,,,,,,3,,,64,105
136440,note_on,24,0,1,,,,,,,,0,,,68,105
136440,note_on,0,0,7,,,,,,,,2,,,52,105
136440,note_on,0,0,7,,,,,,,,2,,,68,105
136440,note_on,24,0,3,,,,,,,,0,,,68,105
136440,note_on,24,0,7,,,,,,,,2,,,59,105
136440,note_on,24,0,6,,,,,,,,5,,,40,105
136440,note_on,0,0,7,,,,,,,,2,,,64,105
136536,note_on,0,0,7,,,,,,,,2,,,64,0
136536,note_on,0,0,7,,,,,,,,2,,,59,0
136536,note_on,96,0,7,,,,,,,,2,,,52,0
136536,note_on,96,0,1,,,,,,,,0,,,68,0
136536,note_on,0,0,7,,,,,,,,2,,,68,0
136536,note_on,96,0,5,,,,,,,,4,,,52,0
136536,note_on,96,0,6,,,,,,,,5,,,40,0
136536,note_on,96,0,4,,,,,,,,3,,,64,0
136536,note_on,96,0,2,,,,,,,,1,,,68,0
136536,note_on,96,0,3,,,,,,,,0,,,68,0
136560,note_on,24,0,3,,,,,,,,0,,,69,72
136560,note_on,24,0,1,,,,,,,,0,,,69,105
136560,note_on,24,0,4,,,,,,,,3,,,60,72
136560,note_on,24,0,2,,,,,,,,1,,,69,72
136560,note_on,24,0,7,,,,,,,,2,,,69,72
136560,note_on,0,0,7,,,,,,,,2,,,64,72
136560,note_on,0,0,7,,,,,,,,2,,,60,72
136560,note_on,0,0,7,,,,,,,,2,,,45,72
136560,note_on,24,0,5,,,,,,,,4,,,45,72
136608,note_on,48,0,1,,,,,,,,0,,,69,0
136620,note_on,12,0,1,,,,,,,,0,,,72,105
136668,note_on,48,0,1,,,,,,,,0,,,72,0
136680,note_on,12,0,1,,,,,,,,0,,,76,105
136728,note_on,48,0,1,,,,,,,,0,,,76,0
136740,note_on,12,0,1,,,,,,,,0,,,76,105
136752,note_on,0,0,7,,,,,,,,2,,,64,0
136752,note_on,0,0,7,,,,,,,,2,,,69,0
136752,note_on,192,0,7,,,,,,,,2,,,60,0
136752,note_on,192,0,4,,,,,,,,3,,,60,0
136752,note_on,192,0,2,,,,,,,,1,,,69,0
136752,note_on,0,0,7,,,,,,,,2,,,45,0
136752,note_on,192,0,5,,,,,,,,4,,,45,0
136752,note_on,192,0,3,,,,,,,,0,,,69,0
136788,note_on,48,0,1,,,,,,,,0,,,76,0
136800,note_on,0,0,7,,,,,,,,2,,,69,72
136800,note_on,0,0,7,,,,,,,,2,,,60,72
136800,note_on,0,0,7,,,,,,,,2,,,45,72
136800,note_on,48,0,7,,,,,,,,2,,,64,72
136800,note_on,48,0,5,,,,,,,,4,,,45,72
136800,note_on,48,0,2,,,,,,,,1,,,76,72
136800,note_on,48,0,4,,,,,,,,3,,,60,72
136800,note_on,48,0,3,,,,,,,,0,,,72,72
136800,note_on,12,0,1,,,,,,,,0,,,69,105
136848,note_on,48,0,1,,,,,,,,0,,,69,0
136860,note_on,12,0,1,,,,,,,,0,,,72,105
136908,note_on,48,0,1,,,,,,,,0,,,72,0
136920,note_on,12,0,1,,,,,,,,0,,,76,105
136968,note_on,48,0,1,,,,,,,,0,,,76,0
136980,note_on,12,0,1,,,,,,,,0,,,76,105
136992,note_on,192,0,4,,,,,,,,3,,,60,0
136992,note_on,192,0,2,,,,,,,,1,,,76,0
136992,note_on,192,0,5,,,,,,,,4,,,45,0
136992,note_on,0,0,7,,,,,,,,2,,,60,0
136992,note_on,0,0,7,,,,,,,,2,,,45,0
136992,note_on,0,0,7,,,,,,,,2,,,64,0
136992,note_on,192,0,7,,,,,,,,2,,,69,0
136992,note_on,192,0,3,,,,,,,,0,,,72,0
137028,note_on,48,0,1,,,,,,,,0,,,76,0
137040,note_on,48,0,2,,,,,,,,1,,,76,72
137040,note_on,48,0,4,,,,,,,,3,,,68,72
137040,note_on,48,0,3,,,,,,,,0,,,71,72
137040,note_on,0,0,7,,,,,,,,2,,,64,72
137040,note_on,48,0,5,,,,,,,,4,,,52,72
137040,note_on,0,0,7,,,,,,,,2,,,52,72
137040,note_on,0,0,7,,,,,,,,2,,,68,72
137040,note_on,48,0,7,,,,,,,,2,,,71,72
137040,note_on,12,0,1,,,,,,,,0,,,68,105
137088,note_on,48,0,1,,,,,,,,0,,,68,0
137100,note_on,12,0,1,,,,,,,,0,,,71,105
137148,note_on,48,0,1,,,,,,,,0,,,71,0
137160,note_on,12,0,1,,,,,,,,0,,,76,105
137208,note_on,48,0,1,,,,,,,,0,,,76,0
137220,note_on,12,0,1,,,,,,,,0,,,76,105
137232,note_on,192,0,7,,,,,,,,2,,,64,0
137232,note_on,0,0,7,,,,,,,,2,,,71,0
137232,note_on,0,0,7,,,,,,,,2,,,68,0
137232,note_on,0,0,7,,,,,,,,2,,,52,0
137232,note_on,192,0,4,,,,,,,,3,,,68,0
137232,note_on,192,0,3,,,,,,,,0,,,71,0
137232,note_on,192,0,2,,,,,,,,1,,,76,0
137232,note_on,192,0,5,,,,,,,,4,,,52,0
137268,note_on,48,0,1,,,,,,,,0,,,76,0
137280,note_on,0,0,7,,,,,,,,2,,,71,72
137280,note_on,0,0,7,,,,,,,,2,,,64,72
137280,note_on,12,0,1,,,,,,,,0,,,68,105
137280,note_on,48,0,3,,,,,,,,0,,,71,72
137280,note_on,48,0,2,,,,,,,,1,,,76,72
137280,note_on,48,0,7,,,,,,,,2,,,68,72
137280,note_on,48,0,4,,,,,,,,3,,,68,72
137280,note_on,0,0,7,,,,,,,,2,,,50,72
137280,note_on,48,0,5,,,,,,,,4,,,50,72
137328,note_on,48,0,1,,,,,,,,0,,,68,0
137340,note_on,12,0,1,,,,,,,,0,,,71,105
137388,note_on,48,0,1,,,,,,,,0,,,71,0
137400,note_on,12,0,1,,,,,,,,0,,,76,105
137448,note_on,48,0,1,,,,,,,,0,,,76,0
137460,note_on,12,0,1,,,,,,,,0,,,76,105
137472,note_on,192,0,3,,,,,,,,0,,,71,0
137472,note_on,192,0,4,,,,,,,,3,,,68,0
137472,note_on,192,0,5,,,,,,,,4,,,50,0
137472,note_on,192,0,2,,,,,,,,1,,,76,0
137472,note_on,192,0,7,,,,,,,,2,,,71,0
137472,note_on,0,0,7,,,,,,,,2,,,68,0
137472,note_on,0,0,7,,,,,,,,2,,,50,0
137472,note_on,0,0,7,,,,,,,,2,,,64,0
137508,note_on,48,0,1,,,,,,,,0,,,76,0
137520,note_on,48,0,5,,,,,,,,4,,,48,72
137520,note_on,0,0,7,,,,,,,,2,,,64,72
137520,note_on,0,0,7,,,,,,,,2,,,48,72
137520,note_on,48,0,2,,,,,,,,1,,,76,72
137520,note_on,48,0,3,,,,,,,,0,,,72,72
137520,note_on,12,0,1,,,,,,,,0,,,69,105
137520,note_on,48,0,4,,,,,,,,3,,,69,72
137520,note_on,0,0,7,,,,,,,,2,,,69,72
137520,note_on,48,0,7,,,,,,,,2,,,72,72
137568,note_on,48,0,1,,,,,,,,0,,,69,0
137580,note_on,12,0,1,,,,,,,,0,,,72,105
137628,note_on,48,0,1,,,,,,,,0,,,72,0
137640,note_on,12,0,1,,,,,,,,0,,,76,105
137688,note_on,48,0,1,,,,,,,,0,,,76,0
137700,note_on,12,0,1,,,,,,,,0,,,76,105
137712,note_on,192,0,2,,,,,,,,1,,,76,0
137712,note_on,192,0,4,,,,,,,,3,,,69,0
137712,note_on,0,0,7,,,,,,,,2,,,69,0
137712,note_on,192,0,5,,,,,,,,4,,,48,0
137712,note_on,192,0,7,,,,,,,,2,,,64,0
137712,note_on,192,0,3,,,,,,,,0,,,72,0
137712,note_on,0,0,7,,,,,,,,2,,,48,0
137712,note_on,0,0,7,,,,,,,,2,,,72,0
137748,note_on,48,0,1,,,,,,,,0,,,76,0
137760,note_on,12,0,1,,,,,,,,0,,,69,105
137760,note_on,48,0,2,,,,,,,,1,,,76,72
137760,note_on,48,0,4,,,,,,,,3,,,69,72
137760,note_on,48,0,3,,,,,,,,0,,,72,72
137760,note_on,0,0,7,,,,,,,,2,,,72,72
137760,note_on,0,0,7,,,,,,,,2,,,64,72
137760,note_on,0,0,7,,,,,,,,2,,,45,72
137760,note_on,48,0,5,,,,,,,,4,,,45,72
137760,note_on,48,0,7,,,,,,,,2,,,69,72
137808,note_on,48,0,1,,,,,,,,0,,,69,0
137820,note_on,12,0,1,,,,,,,,0,,,72,105
137868,note_on,48,0,1,,,,,,,,0,,,72,0
137880,note_on,12,0,1,,,,,,,,0,,,76,105
137928,note_on,48,0,1,,,,,,,,0,,,76,0
137940,note_on,12,0,1,,,,,,,,0,,,76,105
137952,note_on,0,0,7,,,,,,,,2,,,45,0
137952,note_on,192,0,4,,,,,,,,3,,,69,0
137952,note_on,192,0,3,,,,,,,,0,,,72,0
137952,note_on,192,0,2,,,,,,,,1,,,76,0
137952,note_on,0,0,7,,,,,,,,2,,,64,0
137952,note_on,192,0,5,,,,,,,,4,,,45,0
137952,note_on,192,0,7,,,,,,,,2,,,72,0
137952,note_on,0,0,7,,,,,,,,2,,,69,0
137988,note_on,48,0,1,,,,,,,,0,,,76,0
138000,note_on,0,0,7,,,,,,,,2,,,64,72
138000,note_on,48,0,2,,,,,,,,1,,,76,72
138000,note_on,0,0,7,,,,,,,,2,,,52,72
138000,note_on,48,0,7,,,,,,,,2,,,71,72
138000,note_on,48,0,3,,,,,,,,0,,,71,72
138000,note_on,12,0,1,,,,,,,,0,,,64,105
138000,note_on,48,0,4,,,,,,,,3,,,68,72
138000,note_on,0,0,7,,,,,,,,2,,,68,72
138000,note_on,48,0,5,,,,,,,,4,,,52,72
138192,note_on,192,0,3,,,,,,,,0,,,71,0
138192,note_on,192,0,2,,,,,,,,1,,,76,0
138192,note_on,192,0,7,,,,,,,,2,,,68,0
138192,note_on,0,0,7,,,,,,,,2,,,71,0
138192,note_on,0,0,7,,,,,,,,2,,,64,0
138192,note_on,0,0,7,,,,,,,,2,,,52,0
138192,note_on,192,0,4,,,,,,,,3,,,68,0
138192,note_on,192,0,5,,,,,,,,4,,,52,0
138192,note_on,192,0,1,,,,,,,,0,,,64,0
138480,note_on,288,0,2,,,,,,,,1,,,79,72
138480,note_on,288,0,3,,,,,,,,0,,,76,72
138480,note_on,288,0,7,,,,,,,,2,,,76,72
138480,note_on,0,0,7,,,,,,,,2,,,72,72
138480,note_on,288,0,5,,,,,,,,4,,,48,72
138480,note_on,0,0,7,,,,,,,,2,,,67,72
138480,note_on,288,0,4,,,,,,,,3,,,72,72
138480,note_on,0,0,7,,,,,,,,2,,,48,72
138480,note_on,288,0,1,,,,,,,,0,,,72,105
138528,note_on,48,0,1,,,,,,,,0,,,72,0
138540,note_on,12,0,1,,,,,,,,0,,,76,105
138588,note_on,48,0,1,,,,,,,,0,,,76,0
138600,note_on,12,0,1,,,,,,,,0,,,79,105
138648,note_on,48,0,1,,,,,,,,0,,,79,0
138660,note_on,12,0,1,,,,,,,,0,,,79,105
138672,note_on,192,0,3,,,,,,,,0,,,76,0
138672,note_on,0,0,7,,,,,,,,2,,,72,0
138672,note_on,0,0,7,,,,,,,,2,,,48,0
138672,note_on,192,0,2,,,,,,,,1,,,79,0
138672,note_on,192,0,4,,,,,,,,3,,,72,0
138672,note_on,192,0,5,,,,,,,,4,,,48,0
138672,note_on,192,0,7,,,,,,,,2,,,67,0
138672,note_on,0,0,7,,,,,,,,2,,,76,0
138708,note_on,48,0,1,,,,,,,,0,,,79,0
138720,note_on,48,0,5,,,,,,,,4,,,48,72
138720,note_on,12,0,1,,,,,,,,0,,,72,105
138720,note_on,48,0,7,,,,,,,,2,,,72,72
138720,note_on,0,0,7,,,,,,,,2,,,48,72
138720,note_on,0,0,7,,,,,,,,2,,,67,72
138720,note_on,0,0,7,,,,,,,,2,,,76,72
138720,note_on,48,0,2,,,,,,,,1,,,79,72
138720,note_on,48,0,3,,,,,,,,0,,,76,72
138720,note_on,48,0,4,,,,,,,,3,,,72,72
138768,note_on,48,0,1,,,,,,,,0,,,72,0
138780,note_on,12,0,1,,,,,,,,0,,,76,105
138828,note_on,48,0,1,,,,,,,,0,,,76,0
138840,note_on,12,0,1,,,,,,,,0,,,79,105
138888,note_on,48,0,1,,,,,,,,0,,,79,0
138900,note_on,12,0,1,,,,,,,,0,,,79,105
138912,note_on,192,0,4,,,,,,,,3,,,72,0
138912,note_on,192,0,5,,,,,,,,4,,,48,0
138912,note_on,192,0,3,,,,,,,,0,,,76,0
138912,note_on,192,0,2,,,,,,,,1,,,79,0
138912,note_on,0,0,7,,,,,,,,2,,,67,0
138912,note_on,0,0,7,,,,,,,,2,,,48,0
138912,note_on,0,0,7,,,,,,,,2,,,72,0
138912,note_on,192,0,7,,,,,,,,2,,,76,0
138948,note_on,48,0,1,,,,,,,,0,,,79,0
138960,note_on,48,0,2,,,,,,,,1,,,79,72
138960,note_on,48,0,3,,,,,,,,0,,,74,72
138960,note_on,0,0,7,,,,,,,,2,,,67,72
138960,note_on,0,0,7,,,,,,,,2,,,55,72
138960,note_on,48,0,7,,,,,,,,2,,,74,72
138960,note_on,48,0,4,,,,,,,,3,,,71,72
138960,note_on,48,0,5,,,,,,,,4,,,55,72
138960,note_on,12,0,1,,,,,,,,0,,,71,105
138960,note_on,0,0,7,,,,,,,,2,,,71,72
139008,note_on,48,0,1,,,,,,,,0,,,71,0
139020,note_on,12,0,1,,,,,,,,0,,,74,105
139068,note_on,48,0,1,,,,,,,,0,,,74,0
139080,note_on,12,0,1,,,,,,,,0,,,79,105
139128,note_on,48,0,1,,,,,,,,0,,,79,0
139140,note_on,12,0,1,,,,,,,,0,,,79,105
139152,note_on,0,0,7,,,,,,,,2,,,74,0
139152,note_on,192,0,5,,,,,,,,4,,,55,0
139152,note_on,192,0,3,,,,,,,,0,,,74,0
139152,note_on,0,0,7,,,,,,,,2,,,71,0
139152,note_on,0,0,7,,,,,,,,2,,,55,0
139152,note_on,192,0,4,,,,,,,,3,,,71,0
139152,note_on,192,0,7,,,,,,,,2,,,67,0
139152,note_on,192,0,2,,,,,,,,1,,,79,0
139188,note_on,48,0,1,,,,,,,,0,,,79,0
139200,note_on,48,0,3,,,,,,,,0,,,74,72
139200,note_on,48,0,4,,,,,,,,3,,,71,72
139200,note_on,48,0,5,,,,,,,,4,,,53,72
139200,note_on,48,0,2,,,,,,,,1,,,79,72
139200,note_on,12,0,1,,,,,,,,0,,,71,105
139200,note_on,0,0,7,,,,,,,,2,,,67,72
139200,note_on,0,0,7,,,,,,,,2,,,53,72
139200,note_on,48,0,7,,,,,,,,2,,,71,72
139200,note_on,0,0,7,,,,,,,,2,,,74,72
139248,note_on,48,0,1,,,,,,,,0,,,71,0
139260,note_on,12,0,1,,,,,,,,0,,,74,105
139308,note_on,48,0,1,,,,,,,,0,,,74,0
139320,note_on,12,0,1,,,,,,,,0,,,79,105
139368,note_on,48,0,1,,,,,,,,0,,,79,0
139380,note_on,12,0,1,,,,,,,,0,,,79,105
139392,note_on,192,0,4,,,,,,,,3,,,71,0
139392,note_on,192,0,7,,,,,,,,2,,,74,0
139392,note_on,0,0,7,,,,,,,,2,,,67,0
139392,note_on,192,0,5,,,,,,,,4,,,53,0
139392,note_on,192,0,2,,,,,,,,1,,,79,0
139392,note_on,0,0,7,,,,,,,,2,,,53,0
139392,note_on,0,0,7,,,,,,,,2,,,71,0
139392,note_on,192,0,3,,,,,,,,0,,,74,0
139428,note_on,48,0,1,,,,,,,,0,,,79,0
139440,note_on,48,0,5,,,,,,,,4,,,52,72
139440,note_on,0,0,7,,,,,,,,2,,,52,72
139440,note_on,0,0,7,,,,,,,,2,,,67,72
139440,note_on,48,0,2,,,,,,,,1,,,79,72
139440,note_on,12,0,1,,,,,,,,0,,,72,105
139440,note_on,48,0,4,,,,,,,,3,,,72,72
139440,note_on,48,0,3,,,,,,,,0,,,76,72
139440,note_on,48,0,7,,,,,,,,2,,,72,72
139488,note_on,48,0,1,,,,,,,,0,,,72,0
139500,note_on,12,0,1,,,,,,,,0,,,76,105
139548,note_on,48,0,1,,,,,,,,0,,,76,0
139560,note_on,12,0,1,,,,,,,,0,,,79,105
139608,note_on,48,0,1,,,,,,,,0,,,79,0
139620,note_on,12,0,1,,,,,,,,0,,,79,105
139632,note_on,192,0,7,,,,,,,,2,,,52,0
139632,note_on,0,0,7,,,,,,,,2,,,67,0
139632,note_on,0,0,7,,,,,,,,2,,,72,0
139632,note_on,192,0,2,,,,,,,,1,,,79,0
139632,note_on,192,0,4,,,,,,,,3,,,72,0
139632,note_on,192,0,5,,,,,,,,4,,,52,0
139632,note_on,192,0,3,,,,,,,,0,,,76,0
139668,note_on,48,0,1,,,,,,,,0,,,79,0
139680,note_on,0,0,7,,,,,,,,2,,,64,72
139680,note_on,0,0,7,,,,,,,,2,,,72,72
139680,note_on,48,0,5,,,,,,,,4,,,48,72
139680,note_on,0,0,7,,,,,,,,2,,,48,72
139680,note_on,48,0,2,,,,,,,,1,,,79,72
139680,note_on,48,0,4,,,,,,,,3,,,72,72
139680,note_on,12,0,1,,,,,,,,0,,,72,105
139680,note_on,48,0,7,,,,,,,,2,,,67,72
139680,note_on,48,0,3,,,,,,,,0,,,76,72
139728,note_on,48,0,1,,,,,,,,0,,,72,0
139740,note_on,12,0,1,,,,,,,,0,,,76,105
139788,note_on,48,0,1,,,,,,,,0,,,76,0
139800,note_on,12,0,1,,,,,,,,0,,,79,105
139848,note_on,48,0,1,,,,,,,,0,,,79,0
139860,note_on,12,0,1,,,,,,,,0,,,79,105
139872,note_on,192,0,4,,,,,,,,3,,,72,0
139872,note_on,192,0,3,,,,,,,,0,,,76,0
139872,note_on,0,0,7,,,,,,,,2,,,64,0
139872,note_on,0,0,7,,,,,,,,2,,,48,0
139872,note_on,0,0,7,,,,,,,,2,,,67,0
139872,note_on,192,0,7,,,,,,,,2,,,72,0
139872,note_on,192,0,5,,,,,,,,4,,,48,0
139872,note_on,192,0,2,,,,,,,,1,,,79,0
139908,note_on,48,0,1,,,,,,,,0,,,79,0
139920,note_on,0,0,7,,,,,,,,2,,,71,72
139920,note_on,48,0,5,,,,,,,,4,,,55,72
139920,note_on,0,0,7,,,,,,,,2,,,55,72
139920,note_on,0,0,7,,,,,,,,2,,,62,72
139920,note_on,48,0,2,,,,,,,,1,,,79,72
139920,note_on,48,0,3,,,,,,,,0,,,74,72
139920,note_on,48,0,7,,,,,,,,2,,,67,72
139920,note_on,12,0,1,,,,,,,,0,,,71,105
139920,note_on,48,0,4,,,,,,,,3,,,71,72
140112,note_on,0,0,7,,,,,,,,2,,,55,0
140112,note_on,0,0,7,,,,,,,,2,,,62,0
140112,note_on,192,0,3,,,,,,,,0,,,74,0
140112,note_on,192,0,7,,,,,,,,2,,,71,0
140112,note_on,192,0,4,,,,,,,,3,,,71,0
140112,note_on,0,0,7,,,,,,,,2,,,67,0
140112,note_on,192,0,5,,,,,,,,4,,,55,0
140112,note_on,192,0,2,,,,,,,,1,,,79,0
140112,note_on,192,0,1,,,,,,,,0,,,71,0
140400,note_on,288,0,4,,,,,,,,3,,,74,72
140400,note_on,288,0,5,,,,,,,,4,,,50,72
140400,note_on,288,0,2,,,,,,,,1,,,81,72
140400,note_on,288,0,3,,,,,,,,0,,,77,72
140400,note_on,0,0,7,,,,,,,,2,,,65,72
140400,note_on,0,0,7,,,,,,,,2,,,50,72
140400,note_on,0,0,7,,,,,,,,2,,,69,72
140400,note_on,288,0,7,,,,,,,,2,,,74,72
140400,note_on,288,0,1,,,,,,,,0,,,74,105
140448,note_on,48,0,1,,,,,,,,0,,,74,0
140460,note_on,12,0,1,,,,,,,,0,,,77,105
140508,note_on,48,0,1,,,,,,,,0,,,77,0
140520,note_on,12,0,1,,,,,,,,0,,,81,105
140568,note_on,48,0,1,,,,,,,,0,,,81,0
140580,note_on,12,0,1,,,,,,,,0,,,81,105
140592,note_on,0,0,7,,,,,,,,2,,,69,0
140592,note_on,192,0,3,,,,,,,,0,,,77,0
140592,note_on,192,0,2,,,,,,,,1,,,81,0
140592,note_on,192,0,5,,,,,,,,4,,,50,0
140592,note_on,0,0,7,,,,,,,,2,,,50,0
140592,note_on,0,0,7,,,,,,,,2,,,74,0
140592,note_on,192,0,7,,,,,,,,2,,,65,0
140592,note_on,192,0,4,,,,,,,,3,,,74,0
140628,note_on,48,0,1,,,,,,,,0,,,81,0
140640,note_on,48,0,5,,,,,,,,4,,,50,72
140640,note_on,48,0,3,,,,,,,,0,,,77,72
140640,note_on,48,0,2,,,,,,,,1,,,81,72
140640,note_on,12,0,1,,,,,,,,0,,,74,105
140640,note_on,0,0,7,,,,,,,,2,,,65,72
140640,note_on,0,0,7,,,,,,,,2,,,74,72
140640,note_on,48,0,7,,,,,,,,2,,,69,72
140640,note_on,48,0,4,,,,,,,,3,,,74,72
140640,note_on,0,0,7,,,,,,,,2,,,50,72
140688,note_on,48,0,1,,,,,,,,0,,,74,0
140700,note_on,12,0,1,,,,,,,,0,,,77,105
140748,note_on,48,0,1,,,,,,,,0,,,77,0
140760,note_on,12,0,1,,,,,,,,0,,,81,105
140808,note_on,48,0,1,,,,,,,,0,,,81,0
140820,note_on,12,0,1,,,,,,,,0,,,81,105
140832,note_on,192,0,5,,,,,,,,4,,,50,0
140832,note_on,192,0,7,,,,,,,,2,,,74,0
140832,note_on,192,0,3,,,,,,,,0,,,77,0
140832,note_on,0,0,7,,,,,,,,2,,,65,0
140832,note_on,0,0,7,,,,,,,,2,,,50,0
140832,note_on,0,0,7,,,,,,,,2,,,69,0
140832,note_on,192,0,4,,,,,,,,3,,,74,0
140832,note_on,192,0,2,,,,,,,,1,,,81,0
140868,note_on,48,0,1,,,,,,,,0,,,81,0
140880,note_on,48,0,2,,,,,,,,1,,,81,72
140880,note_on,48,0,3,,,,,,,,0,,,76,72
140880,note_on,48,0,5,,,,,,,,4,,,57,72
140880,note_on,48,0,4,,,,,,,,3,,,73,72
140880,note_on,0,0,7,,,,,,,,2,,,73,72
140880,note_on,0,0,7,,,,,,,,2,,,57,72
140880,note_on,12,0,1,,,,,,,,0,,,73,105
140880,note_on,48,0,7,,,,,,,,2,,,76,72
140880,note_on,0,0,7,,,,,,,,2,,,69,72
140928,note_on,48,0,1,,,,,,,,0,,,73,0
140940,note_on,12,0,1,,,,,,,,0,,,76,105
140988,note_on,48,0,1,,,,,,,,0,,,76,0
141000,note_on,12,0,1,,,,,,,,0,,,81,105
141048,note_on,48,0,1,,,,,,,,0,,,81,0
141060,note_on,12,0,1,,,,,,,,0,,,81,105
141072,note_on,0,0,7,,,,,,,,2,,,76,0
141072,note_on,192,0,7,,,,,,,,2,,,69,0
141072,note_on,0,0,7,,,,,,,,2,,,57,0
141072,note_on,192,0,5,,,,,,,,4,,,57,0
141072,note_on,192,0,4,,,,,,,,3,,,73,0
141072,note_on,192,0,3,,,,,,,,0,,,76,0
141072,note_on,0,0,7,,,,,,,,2,,,73,0
141072,note_on,192,0,2,,,,,,,,1,,,81,0
141108,note_on,48,0,1,,,,,,,,0,,,81,0
141120,note_on,12,0,1,,,,,,,,0,,,73,105
141120,note_on,48,0,5,,,,,,,,4,,,55,72
141120,note_on,48,0,2,,,,,,,,1,,,81,72
141120,note_on,48,0,4,,,,,,,,3,,,73,72
141120,note_on,48,0,7,,,,,,,,2,,,73,72
141120,note_on,0,0,7,,,,,,,,2,,,55,72
141120,note_on,0,0,7,,,,,,,,2,,,69,72
141120,note_on,0,0,7,,,,,,,,2,,,76,72
141120,note_on,48,0,3,,,,,,,,0,,,76,72
141168,note_on,48,0,1,,,,,,,,0,,,73,0
141180,note_on,12,0,1,,,,,,,,0,,,76,105
141228,note_on,48,0,1,,,,,,,,0,,,76,0
141240,note_on,12,0,1,,,,,,,,0,,,81,105
141288,note_on,48,0,1,,,,,,,,0,,,81,0
141300,note_on,12,0,1,,,,,,,,0,,,81,105
141312,note_on,192,0,5,,,,,,,,4,,,55,0
141312,note_on,192,0,3,,,,,,,,0,,,76,0
141312,note_on,192,0,2,,,,,,,,1,,,81,0
141312,note_on,0,0,7,,,,,,,,2,,,69,0
141312,note_on,0,0,7,,,,,,,,2,,,55,0
141312,note_on,0,0,7,,,,,,,,2,,,73,0
141312,note_on,192,0,7,,,,,,,,2,,,76,0
141312,note_on,192,0,4,,,,,,,,3,,,73,0
141348,note_on,48,0,1,,,,,,,,0,,,81,0
141360,note_on,48,0,7,,,,,,,,2,,,69,72
141360,note_on,48,0,3,,,,,,,,0,,,77,72
141360,note_on,0,0,7,,,,,,,,2,,,53,72
141360,note_on,0,0,7,,,,,,,,2,,,74,72
141360,note_on,48,0,5,,,,,,,,4,,,53,72
141360,note_on,48,0,4,,,,,,,,3,,,74,72
141360,note_on,48,0,2,,,,,,,,1,,,81,72
141360,note_on,12,0,1,,,,,,,,0,,,74,105
141408,note_on,48,0,1,,,,,,,,0,,,74,0
141420,note_on,12,0,1,,,,,,,,0,,,77,105
141468,note_on,48,0,1,,,,,,,,0,,,77,0
141480,note_on,12,0,1,,,,,,,,0,,,81,105
141528,note_on,48,0,1,,,,,,,,0,,,81,0
141540,note_on,12,0,1,,,,,,,,0,,,81,105
141552,note_on,192,0,4,,,,,,,,3,,,74,0
141552,note_on,192,0,5,,,,,,,,4,,,53,0
141552,note_on,0,0,7,,,,,,,,2,,,74,0
141552,note_on,0,0,7,,,,,,,,2,,,69,0
141552,note_on,192,0,3,,,,,,,,0,,,77,0
141552,note_on,192,0,2,,,,,,,,1,,,81,0
141552,note_on,192,0,7,,,,,,,,2,,,53,0
141588,note_on,48,0,1,,,,,,,,0,,,81,0
141600,note_on,48,0,3,,,,,,,,0,,,77,72
141600,note_on,48,0,5,,,,,,,,4,,,50,72
141600,note_on,48,0,2,,,,,,,,1,,,81,72
141600,note_on,0,0,7,,,,,,,,2,,,74,72
141600,note_on,0,0,7,,,,,,,,2,,,50,72
141600,note_on,0,0,7,,,,,,,,2,,,65,72
141600,note_on,12,0,1,,,,,,,,0,,,74,105
141600,note_on,48,0,4,,,,,,,,3,,,74,72
141600,note_on,48,0,7,,,,,,,,2,,,69,72
141648,note_on,48,0,1,,,,,,,,0,,,74,0
141660,note_on,12,0,1,,,,,,,,0,,,77,105
141708,note_on,48,0,1,,,,,,,,0,,,77,0
141720,note_on,12,0,1,,,,,,,,0,,,81,105
141768,note_on,48,0,1,,,,,,,,0,,,81,0
141780,note_on,12,0,1,,,,,,,,0,,,81,105
141792,note_on,192,0,2,,,,,,,,1,,,81,0
141792,note_on,0,0,7,,,,,,,,2,,,65,0
141792,note_on,192,0,5,,,,,,,,4,,,50,0
141792,note_on,192,0,7,,,,,,,,2,,,74,0
141792,note_on,0,0,7,,,,,,,,2,,,69,0
141792,note_on,0,0,7,,,,,,,,2,,,50,0
141792,note_on,192,0,3,,,,,,,,0,,,77,0
141792,note_on,192,0,4,,,,,,,,3,,,74,0
141828,note_on,48,0,1,,,,,,,,0,,,81,0
141840,note_on,0,0,7,,,,,,,,2,,,57,72
141840,note_on,48,0,5,,,,,,,,4,,,57,72
141840,note_on,48,0,7,,,,,,,,2,,,69,72
141840,note_on,0,0,7,,,,,,,,2,,,64,72
141840,note_on,48,0,4,,,,,,,,3,,,73,72
141840,note_on,0,0,7,,,,,,,,2,,,73,72
141840,note_on,48,0,2,,,,,,,,1,,,81,72
141840,note_on,48,0,3,,,,,,,,0,,,76,72
141840,note_on,12,0,1,,,,,,,,0,,,73,105
142032,note_on,192,0,7,,,,,,,,2,,,73,0
142032,note_on,0,0,7,,,,,,,,2,,,69,0
142032,note_on,192,0,5,,,,,,,,4,,,57,0
142032,note_on,0,0,7,,,,,,,,2,,,57,0
142032,note_on,0,0,7,,,,,,,,2,,,64,0
142032,note_on,192,0,1,,,,,,,,0,,,73,0
142032,note_on,192,0,2,,,,,,,,1,,,81,0
142032,note_on,192,0,3,,,,,,,,0,,,76,0
142032,note_on,192,0,4,,,,,,,,3,,,73,0
142320,note_on,288,0,1,,,,,,,,0,,,78,105
142320,note_on,0,0,7,,,,,,,,2,,,69,72
142320,note_on,288,0,7,,,,,,,,2,,,74,72
142320,note_on,288,0,2,,,,,,,,1,,,78,72
142320,note_on,288,0,3,,,,,,,,0,,,86,72
142320,note_on,0,0,7,,,,,,,,2,,,66,72
142320,note_on,288,0,4,,,,,,,,3,,,69,72
142320,note_on,288,0,5,,,,,,,,4,,,50,72
142320,note_on,0,0,7,,,,,,,,2,,,50,72
142368,note_on,48,0,1,,,,,,,,0,,,78,0
142380,note_on,12,0,1,,,,,,,,0,,,81,105
142428,note_on,48,0,1,,,,,,,,0,,,81,0
142440,note_on,12,0,1,,,,,,,,0,,,86,105
142488,note_on,48,0,1,,,,,,,,0,,,86,0
142500,note_on,12,0,1,,,,,,,,0,,,86,105
142512,note_on,192,0,5,,,,,,,,4,,,50,0
142512,note_on,192,0,2,,,,,,,,1,,,78,0
142512,note_on,0,0,7,,,,,,,,2,,,69,0
142512,note_on,0,0,7,,,,,,,,2,,,74,0
142512,note_on,192,0,3,,,,,,,,0,,,86,0
142512,note_on,0,0,7,,,,,,,,2,,,50,0
142512,note_on,192,0,7,,,,,,,,2,,,66,0
142512,note_on,192,0,4,,,,,,,,3,,,69,0
142548,note_on,48,0,1,,,,,,,,0,,,86,0
142560,note_on,48,0,5,,,,,,,,4,,,48,72
142560,note_on,48,0,2,,,,,,,,1,,,78,72
142560,note_on,48,0,4,,,,,,,,3,,,69,72
142560,note_on,12,0,1,,,,,,,,0,,,78,105
142560,note_on,48,0,3,,,,,,,,0,,,86,72
142560,note_on,0,0,7,,,,,,,,2,,,74,72
142560,note_on,0,0,7,,,,,,,,2,,,66,72
142560,note_on,0,0,7,,,,,,,,2,,,48,72
142560,note_on,48,0,7,,,,,,,,2,,,69,72
142608,note_on,48,0,1,,,,,,,,0,,,78,0
142620,note_on,12,0,1,,,,,,,,0,,,81,105
142668,note_on,48,0,1,,,,,,,,0,,,81,0
142680,note_on,12,0,1,,,,,,,,0,,,86,105
142728,note_on,48,0,1,,,,,,,,0,,,86,0
142740,note_on,12,0,1,,,,,,,,0,,,86,105
142752,note_on,192,0,2,,,,,,,,1,,,78,0
142752,note_on,192,0,4,,,,,,,,3,,,69,0
142752,note_on,192,0,3,,,,,,,,0,,,86,0
142752,note_on,0,0,7,,,,,,,,2,,,48,0
142752,note_on,0,0,7,,,,,,,,2,,,69,0
142752,note_on,192,0,5,,,,,,,,4,,,48,0
142752,note_on,192,0,7,,,,,,,,2,,,74,0
142752,note_on,0,0,7,,,,,,,,2,,,66,0
142788,note_on,48,0,1,,,,,,,,0,,,86,0
142800,note_on,48,0,2,,,,,,,,1,,,79,72
142800,note_on,0,0,7,,,,,,,,2,,,67,72
142800,note_on,48,0,4,,,,,,,,3,,,70,72
142800,note_on,48,0,3,,,,,,,,0,,,86,72
142800,note_on,48,0,5,,,,,,,,4,,,46,72
142800,note_on,48,0,7,,,,,,,,2,,,74,72
142800,note_on,0,0,7,,,,,,,,2,,,46,72
142800,note_on,12,0,1,,,,,,,,0,,,79,105
142848,note_on,48,0,1,,,,,,,,0,,,79,0
142860,note_on,12,0,1,,,,,,,,0,,,82,105
142908,note_on,48,0,1,,,,,,,,0,,,82,0
142920,note_on,12,0,1,,,,,,,,0,,,86,105
142968,note_on,48,0,1,,,,,,,,0,,,86,0
142980,note_on,12,0,1,,,,,,,,0,,,86,105
142992,note_on,192,0,3,,,,,,,,0,,,86,0
142992,note_on,192,0,7,,,,,,,,2,,,67,0
142992,note_on,0,0,7,,,,,,,,2,,,46,0
142992,note_on,192,0,5,,,,,,,,4,,,46,0
142992,note_on,192,0,4,,,,,,,,3,,,70,0
142992,note_on,0,0,7,,,,,,,,2,,,74,0
142992,note_on,192,0,2,,,,,,,,1,,,79,0
143028,note_on,48,0,1,,,,,,,,0,,,86,0
143040,note_on,0,0,7,,,,,,,,2,,,46,72
143040,note_on,0,0,7,,,,,,,,2,,,74,72
143040,note_on,48,0,7,,,,,,,,2,,,67,72
143040,note_on,12,0,1,,,,,,,,0,,,79,105
143040,note_on,48,0,4,,,,,,,,3,,,70,72
143040,note_on,48,0,2,,,,,,,,1,,,79,72
143040,note_on,48,0,3,,,,,,,,0,,,86,72
143040,note_on,48,0,5,,,,,,,,4,,,46,72
143088,note_on,48,0,1,,,,,,,,0,,,79,0
143100,note_on,12,0,1,,,,,,,,0,,,82,105
143148,note_on,48,0,1,,,,,,,,0,,,82,0
143160,note_on,12,0,1,,,,,,,,0,,,86,105
143208,note_on,48,0,1,,,,,,,,0,,,86,0
143220,note_on,12,0,1,,,,,,,,0,,,86,105
143232,note_on,192,0,2,,,,,,,,1,,,79,0
143232,note_on,0,0,7,,,,,,,,2,,,67,0
143232,note_on,192,0,5,,,,,,,,4,,,46,0
143232,note_on,0,0,7,,,,,,,,2,,,46,0
143232,note_on,192,0,7,,,,,,,,2,,,74,0
143232,note_on,192,0,4,,,,,,,,3,,,70,0
143232,note_on,192,0,3,,,,,,,,0,,,86,0
143268,note_on,48,0,1,,,,,,,,0,,,86,0
143280,note_on,48,0,3,,,,,,,,0,,,84,72
143280,note_on,0,0,7,,,,,,,,2,,,64,72
143280,note_on,48,0,4,,,,,,,,3,,,67,72
143280,note_on,48,0,5,,,,,,,,4,,,48,72
143280,note_on,48,0,7,,,,,,,,2,,,72,72
143280,note_on,0,0,7,,,,,,,,2,,,48,72
143280,note_on,48,0,2,,,,,,,,1,,,76,72
143280,note_on,0,0,7,,,,,,,,2,,,67,72
143280,note_on,12,0,1,,,,,,,,0,,,76,105
143328,note_on,48,0,1,,,,,,,,0,,,76,0
143340,note_on,12,0,1,,,,,,,,0,,,79,105
143388,note_on,48,0,1,,,,,,,,0,,,79,0
143400,note_on,12,0,1,,,,,,,,0,,,84,105
143448,note_on,48,0,1,,,,,,,,0,,,84,0
143460,note_on,12,0,1,,,,,,,,0,,,84,105
143472,note_on,0,0,7,,,,,,,,2,,,48,0
143472,note_on,192,0,3,,,,,,,,0,,,84,0
143472,note_on,192,0,2,,,,,,,,1,,,76,0
143472,note_on,0,0,7,,,,,,,,2,,,67,0
143472,note_on,192,0,7,,,,,,,,2,,,64,0
143472,note_on,192,0,5,,,,,,,,4,,,48,0
143472,note_on,192,0,4,,,,,,,,3,,,67,0
143472,note_on,0,0,7,,,,,,,,2,,,72,0
143508,note_on,48,0,1,,,,,,,,0,,,84,0
143520,note_on,0,0,7,,,,,,,,2,,,64,72
143520,note_on,48,0,4,,,,,,,,3,,,67,72
143520,note_on,0,0,7,,,,,,,,2,,,72,72
143520,note_on,48,0,5,,,,,,,,4,,,46,72
143520,note_on,48,0,3,,,,,,,,0,,,84,72
143520,note_on,0,0,7,,,,,,,,2,,,46,72
143520,note_on,48,0,7,,,,,,,,2,,,67,72
143520,note_on,48,0,2,,,,,,,,1,,,76,72
143520,note_on,12,0,1,,,,,,,,0,,,76,105
143568,note_on,48,0,1,,,,,,,,0,,,76,0
143580,note_on,12,0,1,,,,,,,,0,,,79,105
143628,note_on,48,0,1,,,,,,,,0,,,79,0
143640,note_on,12,0,1,,,,,,,,0,,,84,105
143688,note_on,48,0,1,,,,,,,,0,,,84,0
143700,note_on,12,0,1,,,,,,,,0,,,84,105
143712,note_on,192,0,5,,,,,,,,4,,,46,0
143712,note_on,0,0,7,,,,,,,,2,,,67,0
143712,note_on,0,0,7,,,,,,,,2,,,46,0
143712,note_on,0,0,7,,,,,,,,2,,,64,0
143712,note_on,192,0,3,,,,,,,,0,,,84,0
143712,note_on,192,0,7,,,,,,,,2,,,72,0
143712,note_on,192,0,2,,,,,,,,1,,,76,0
143712,note_on,192,0,4,,,,,,,,3,,,67,0
143748,note_on,48,0,1,,,,,,,,0,,,84,0
143760,note_on,48,0,5,,,,,,,,4,,,45,72
143760,note_on,0,0,7,,,,,,,,2,,,45,72
143760,note_on,0,0,7,,,,,,,,2,,,65,72
143760,note_on,48,0,3,,,,,,,,0,,,84,72
143760,note_on,48,0,4,,,,,,,,3,,,69,72
143760,note_on,48,0,2,,,,,,,,1,,,77,72
143760,note_on,12,0,1,,,,,,,,0,,,77,105
143760,note_on,48,0,7,,,,,,,,2,,,72,72
143808,note_on,48,0,1,,,,,,,,0,,,77,0
143820,note_on,12,0,1,,,,,,,,0,,,81,105
143868,note_on,48,0,1,,,,,,,,0,,,81,0
143880,note_on,12,0,1,,,,,,,,0,,,84,105
143928,note_on,48,0,1,,,,,,,,0,,,84,0
143940,note_on,12,0,1,,,,,,,,0,,,84,105
143952,note_on,192,0,3,,,,,,,,0,,,84,0
143952,note_on,0,0,7,,,,,,,,2,,,72,0
143952,note_on,192,0,7,,,,,,,,2,,,65,0
143952,note_on,0,0,7,,,,,,,,2,,,45,0
143952,note_on,192,0,4,,,,,,,,3,,,69,0
143952,note_on,192,0,2,,,,,,,,1,,,77,0
143952,note_on,192,0,5,,,,,,,,4,,,45,0
143988,note_on,48,0,1,,,,,,,,0,,,84,0
144000,note_on,48,0,2,,,,,,,,1,,,77,72
144000,note_on,48,0,5,,,,,,,,4,,,45,72
144000,note_on,0,0,7,,,,,,,,2,,,72,72
144000,note_on,0,0,7,,,,,,,,2,,,45,72
144000,note_on,48,0,3,,,,,,,,0,,,84,72
144000,note_on,12,0,1,,,,,,,,0,,,77,105
144000,note_on,48,0,7,,,,,,,,2,,,65,72
144000,note_on,48,0,4,,,,,,,,3,,,69,72
144048,note_on,48,0,1,,,,,,,,0,,,77,0
144060,note_on,12,0,1,,,,,,,,0,,,81,105
144108,note_on,48,0,1,,,,,,,,0,,,81,0
144120,note_on,12,0,1,,,,,,,,0,,,84,105
144168,note_on,48,0,1,,,,,,,,0,,,84,0
144180,note_on,12,0,1,,,,,,,,0,,,84,105
144192,note_on,0,0,7,,,,,,,,2,,,65,0
144192,note_on,192,0,7,,,,,,,,2,,,72,0
144192,note_on,0,0,7,,,,,,,,2,,,45,0
144192,note_on,192,0,2,,,,,,,,1,,,77,0
144192,note_on,192,0,4,,,,,,,,3,,,69,0
144192,note_on,192,0,3,,,,,,,,0,,,84,0
144192,note_on,192,0,5,,,,,,,,4,,,45,0
144228,note_on,48,0,1,,,,,,,,0,,,84,0
144240,note_on,0,0,7,,,,,,,,2,,,46,72
144240,note_on,48,0,2,,,,,,,,1,,,74,72
144240,note_on,48,0,7,,,,,,,,2,,,70,72
144240,note_on,48,0,4,,,,,,,,3,,,65,72
144240,note_on,12,0,1,,,,,,,,0,,,74,105
144240,note_on,0,0,7,,,,,,,,2,,,62,72
144240,note_on,0,0,7,,,,,,,,2,,,65,72
144240,note_on,48,0,3,,,,,,,,0,,,82,72
144240,note_on,48,0,5,,,,,,,,4,,,46,72
144288,note_on,48,0,1,,,,,,,,0,,,74,0
144300,note_on,12,0,1,,,,,,,,0,,,77,105
144348,note_on,48,0,1,,,,,,,,0,,,77,0
144360,note_on,12,0,1,,,,,,,,0,,,82,105
144408,note_on,48,0,1,,,,,,,,0,,,82,0
144420,note_on,12,0,1,,,,,,,,0,,,82,105
144432,note_on,192,0,4,,,,,,,,3,,,65,0
144432,note_on,192,0,3,,,,,,,,0,,,82,0
144432,note_on,192,0,2,,,,,,,,1,,,74,0
144432,note_on,0,0,7,,,,,,,,2,,,46,0
144432,note_on,0,0,7,,,,,,,,2,,,65,0
144432,note_on,0,0,7,,,,,,,,2,,,70,0
144432,note_on,192,0,7,,,,,,,,2,,,62,0
144432,note_on,192,0,5,,,,,,,,4,,,46,0
144468,note_on,48,0,1,,,,,,,,0,,,82,0
144480,note_on,48,0,2,,,,,,,,1,,,74,72
144480,note_on,48,0,4,,,,,,,,3,,,65,72
144480,note_on,0,0,7,,,,,,,,2,,,70,72
144480,note_on,0,0,7,,,,,,,,2,,,62,72
144480,note_on,0,0,7,,,,,,,,2,,,45,72
144480,note_on,48,0,3,,,,,,,,0,,,82,72
144480,note_on,48,0,7,,,,,,,,2,,,65,72
144480,note_on,48,0,5,,,,,,,,4,,,45,72
144480,note_on,12,0,1,,,,,,,,0,,,74,105
144528,note_on,48,0,1,,,,,,,,0,,,74,0
144540,note_on,12,0,1,,,,,,,,0,,,77,105
144588,note_on,48,0,1,,,,,,,,0,,,77,0
144600,note_on,12,0,1,,,,,,,,0,,,82,105
144648,note_on,48,0,1,,,,,,,,0,,,82,0
144660,note_on,12,0,1,,,,,,,,0,,,82,105
144672,note_on,192,0,2,,,,,,,,1,,,74,0
144672,note_on,192,0,3,,,,,,,,0,,,82,0
144672,note_on,0,0,7,,,,,,,,2,,,45,0
144672,note_on,0,0,7,,,,,,,,2,,,65,0
144672,note_on,192,0,5,,,,,,,,4,,,45,0
144672,note_on,192,0,4,,,,,,,,3,,,65,0
144672,note_on,192,0,7,,,,,,,,2,,,70,0
144672,note_on,0,0,7,,,,,,,,2,,,62,0
144708,note_on,48,0,1,,,,,,,,0,,,82,0
144720,note_on,12,0,1,,,,,,,,0,,,76,105
144720,note_on,48,0,4,,,,,,,,3,,,67,72
144720,note_on,0,0,7,,,,,,,,2,,,43,72
144720,note_on,48,0,2,,,,,,,,1,,,76,72
144720,note_on,48,0,5,,,,,,,,4,,,43,72
144720,note_on,48,0,7,,,,,,,,2,,,70,72
144720,note_on,0,0,7,,,,,,,,2,,,64,72
144720,note_on,48,0,3,,,,,,,,0,,,82,72
144768,note_on,48,0,1,,,,,,,,0,,,76,0
144780,note_on,12,0,1,,,,,,,,0,,,79,105
144828,note_on,48,0,1,,,,,,,,0,,,79,0
144840,note_on,12,0,1,,,,,,,,0,,,82,105
144888,note_on,48,0,1,,,,,,,,0,,,82,0
144900,note_on,12,0,1,,,,,,,,0,,,82,105
144912,note_on,192,0,3,,,,,,,,0,,,82,0
144912,note_on,192,0,5,,,,,,,,4,,,43,0
144912,note_on,0,0,7,,,,,,,,2,,,70,0
144912,note_on,0,0,7,,,,,,,,2,,,64,0
144912,note_on,192,0,2,,,,,,,,1,,,76,0
144912,note_on,192,0,4,,,,,,,,3,,,67,0
144912,note_on,192,0,7,,,,,,,,2,,,43,0
144948,note_on,48,0,1,,,,,,,,0,,,82,0
144960,note_on,48,0,2,,,,,,,,1,,,76,72
144960,note_on,0,0,7,,,,,,,,2,,,64,72
144960,note_on,0,0,7,,,,,,,,2,,,48,72
144960,note_on,48,0,7,,,,,,,,2,,,67,72
144960,note_on,48,0,5,,,,,,,,4,,,48,72
144960,note_on,48,0,4,,,,,,,,3,,,67,72
144960,note_on,48,0,3,,,,,,,,0,,,82,72
144960,note_on,12,0,1,,,,,,,,0,,,76,105
144960,note_on,0,0,7,,,,,,,,2,,,70,72
145008,note_on,48,0,1,,,,,,,,0,,,76,0
145020,note_on,12,0,1,,,,,,,,0,,,79,105
145068,note_on,48,0,1,,,,,,,,0,,,79,0
145080,note_on,12,0,1,,,,,,,,0,,,82,105
145128,note_on,48,0,1,,,,,,,,0,,,82,0
145140,note_on,12,0,1,,,,,,,,0,,,82,105
145152,note_on,192,0,4,,,,,,,,3,,,67,0
145152,note_on,192,0,3,,,,,,,,0,,,82,0
145152,note_on,192,0,5,,,,,,,,4,,,48,0
145152,note_on,192,0,2,,,,,,,,1,,,76,0
145152,note_on,192,0,7,,,,,,,,2,,,70,0
145152,note_on,0,0,7,,,,,,,,2,,,67,0
145152,note_on,0,0,7,,,,,,,,2,,,48,0
145152,note_on,0,0,7,,,,,,,,2,,,64,0
145188,note_on,48,0,1,,,,,,,,0,,,82,0
145200,note_on,12,0,1,,,,,,,,0,,,72,105
145200,note_on,48,0,3,,,,,,,,0,,,81,72
145200,note_on,48,0,5,,,,,,,,4,,,53,72
145200,note_on,48,0,2,,,,,,,,1,,,77,72
145200,note_on,0,0,7,,,,,,,,2,,,60,72
145200,note_on,0,0,7,,,,,,,,2,,,53,72
145200,note_on,0,0,7,,,,,,,,2,,,65,72
145200,note_on,48,0,7,,,,,,,,2,,,69,72
145200,note_on,48,0,4,,,,,,,,3,,,65,72
145248,note_on,48,0,1,,,,,,,,0,,,72,0
145260,note_on,12,0,1,,,,,,,,0,,,77,105
145308,note_on,48,0,1,,,,,,,,0,,,77,0
145320,note_on,12,0,1,,,,,,,,0,,,81,105
145368,note_on,48,0,1,,,,,,,,0,,,81,0
145380,note_on,12,0,1,,,,,,,,0,,,81,105
145392,note_on,192,0,3,,,,,,,,0,,,81,0
145392,note_on,192,0,2,,,,,,,,1,,,77,0
145392,note_on,192,0,5,,,,,,,,4,,,53,0
145392,note_on,192,0,4,,,,,,,,3,,,65,0
145392,note_on,192,0,7,,,,,,,,2,,,60,0
145392,note_on,0,0,7,,,,,,,,2,,,69,0
145392,note_on,0,0,7,,,,,,,,2,,,65,0
145392,note_on,0,0,7,,,,,,,,2,,,53,0
145428,note_on,48,0,1,,,,,,,,0,,,81,0
145440,note_on,12,0,1,,,,,,,,0,,,72,105
145440,note_on,0,0,7,,,,,,,,2,,,69,72
145440,note_on,0,0,7,,,,,,,,2,,,60,72
145440,note_on,0,0,7,,,,,,,,2,,,53,72
145440,note_on,48,0,7,,,,,,,,2,,,65,72
145440,note_on,48,0,4,,,,,,,,3,,,72,72
145440,note_on,48,0,2,,,,,,,,1,,,77,72
145440,note_on,48,0,3,,,,,,,,0,,,81,72
145440,note_on,48,0,5,,,,,,,,4,,,53,72
145488,note_on,48,0,1,,,,,,,,0,,,72,0
145500,note_on,12,0,1,,,,,,,,0,,,77,105
145548,note_on,48,0,1,,,,,,,,0,,,77,0
145560,note_on,12,0,1,,,,,,,,0,,,81,105
145608,note_on,48,0,1,,,,,,,,0,,,81,0
145620,note_on,12,0,1,,,,,,,,0,,,81,105
145632,note_on,192,0,3,,,,,,,,0,,,81,0
145632,note_on,192,0,7,,,,,,,,2,,,69,0
145632,note_on,0,0,7,,,,,,,,2,,,60,0
145632,note_on,192,0,5,,,,,,,,4,,,53,0
145632,note_on,192,0,4,,,,,,,,3,,,72,0
145632,note_on,0,0,7,,,,,,,,2,,,53,0
145632,note_on,192,0,2,,,,,,,,1,,,77,0
145632,note_on,0,0,7,,,,,,,,2,,,65,0
145668,note_on,48,0,1,,,,,,,,0,,,81,0
145680,note_on,12,0,1,,,,,,,,0,,,72,105
145680,note_on,0,0,7,,,,,,,,2,,,60,72
145680,note_on,48,0,5,,,,,,,,4,,,60,72
145680,note_on,48,0,3,,,,,,,,0,,,76,72
145680,note_on,48,0,7,,,,,,,,2,,,67,72
145680,note_on,48,0,4,,,,,,,,3,,,72,72
145680,note_on,48,0,2,,,,,,,,1,,,79,72
145680,note_on,0,0,7,,,,,,,,2,,,64,72
145728,note_on,48,0,1,,,,,,,,0,,,72,0
145740,note_on,12,0,1,,,,,,,,0,,,76,105
145788,note_on,48,0,1,,,,,,,,0,,,76,0
145800,note_on,12,0,1,,,,,,,,0,,,79,105
145848,note_on,48,0,1,,,,,,,,0,,,79,0
145860,note_on,12,0,1,,,,,,,,0,,,79,105
145872,note_on,192,0,3,,,,,,,,0,,,76,0
145872,note_on,0,0,7,,,,,,,,2,,,67,0
145872,note_on,192,0,4,,,,,,,,3,,,72,0
145872,note_on,192,0,5,,,,,,,,4,,,60,0
145872,note_on,0,0,7,,,,,,,,2,,,64,0
145872,note_on,192,0,7,,,,,,,,2,,,60,0
145872,note_on,192,0,2,,,,,,,,1,,,79,0
145908,note_on,48,0,1,,,,,,,,0,,,79,0
145920,note_on,0,0,7,,,,,,,,2,,,60,72
145920,note_on,48,0,5,,,,,,,,4,,,58,72
145920,note_on,48,0,2,,,,,,,,1,,,79,72
145920,note_on,48,0,3,,,,,,,,0,,,76,72
145920,note_on,0,0,7,,,,,,,,2,,,67,72
145920,note_on,0,0,7,,,,,,,,2,,,58,72
145920,note_on,48,0,7,,,,,,,,2,,,64,72
145920,note_on,48,0,4,,,,,,,,3,,,72,72
145920,note_on,12,0,1,,,,,,,,0,,,72,105
145968,note_on,48,0,1,,,,,,,,0,,,72,0
145980,note_on,12,0,1,,,,,,,,0,,,76,105
146028,note_on,48,0,1,,,,,,,,0,,,76,0
146040,note_on,12,0,1,,,,,,,,0,,,79,105
146088,note_on,48,0,1,,,,,,,,0,,,79,0
146100,note_on,12,0,1,,,,,,,,0,,,79,105
146112,note_on,192,0,5,,,,,,,,4,,,58,0
146112,note_on,0,0,7,,,,,,,,2,,,60,0
146112,note_on,0,0,7,,,,,,,,2,,,64,0
146112,note_on,192,0,7,,,,,,,,2,,,67,0
146112,note_on,0,0,7,,,,,,,,2,,,58,0
146112,note_on,192,0,3,,,,,,,,0,,,76,0
146112,note_on,192,0,4,,,,,,,,3,,,72,0
146112,note_on,192,0,2,,,,,,,,1,,,79,0
146148,note_on,48,0,1,,,,,,,,0,,,79,0
146160,note_on,48,0,7,,,,,,,,2,,,65,72
146160,note_on,0,0,7,,,,,,,,2,,,60,72
146160,note_on,0,0,7,,,,,,,,2,,,57,72
146160,note_on,12,0,1,,,,,,,,0,,,72,105
146160,note_on,48,0,2,,,,,,,,1,,,81,72
146160,note_on,48,0,5,,,,,,,,4,,,57,72
146160,note_on,48,0,4,,,,,,,,3,,,72,72
146160,note_on,48,0,3,,,,,,,,0,,,77,72
146208,note_on,48,0,1,,,,,,,,0,,,72,0
146220,note_on,12,0,1,,,,,,,,0,,,77,105
146268,note_on,48,0,1,,,,,,,,0,,,77,0
146280,note_on,12,0,1,,,,,,,,0,,,81,105
146328,note_on,48,0,1,,,,,,,,0,,,81,0
146340,note_on,12,0,1,,,,,,,,0,,,81,105
146352,note_on,0,0,7,,,,,,,,2,,,65,0
146352,note_on,0,0,7,,,,,,,,2,,,60,0
146352,note_on,192,0,7,,,,,,,,2,,,57,0
146352,note_on,192,0,3,,,,,,,,0,,,77,0
146352,note_on,192,0,5,,,,,,,,4,,,57,0
146352,note_on,192,0,4,,,,,,,,3,,,72,0
146352,note_on,192,0,2,,,,,,,,1,,,81,0
146388,note_on,48,0,1,,,,,,,,0,,,81,0
146400,note_on,48,0,2,,,,,,,,1,,,81,72
146400,note_on,48,0,7,,,,,,,,2,,,60,72
146400,note_on,48,0,3,,,,,,,,0,,,77,72
146400,note_on,0,0,7,,,,,,,,2,,,57,72
146400,note_on,0,0,7,,,,,,,,2,,,53,72
146400,note_on,48,0,4,,,,,,,,3,,,72,72
146400,note_on,48,0,5,,,,,,,,4,,,53,72
146400,note_on,12,0,1,,,,,,,,0,,,72,105
146400,note_on,0,0,7,,,,,,,,2,,,65,72
146448,note_on,48,0,1,,,,,,,,0,,,72,0
146460,note_on,12,0,1,,,,,,,,0,,,77,105
146508,note_on,48,0,1,,,,,,,,0,,,77,0
146520,note_on,12,0,1,,,,,,,,0,,,81,105
146568,note_on,48,0,1,,,,,,,,0,,,81,0
146580,note_on,12,0,1,,,,,,,,0,,,81,105
146592,note_on,192,0,2,,,,,,,,1,,,81,0
146592,note_on,192,0,7,,,,,,,,2,,,65,0
146592,note_on,0,0,7,,,,,,,,2,,,60,0
146592,note_on,0,0,7,,,,,,,,2,,,57,0
146592,note_on,192,0,3,,,,,,,,0,,,77,0
146592,note_on,192,0,5,,,,,,,,4,,,53,0
146592,note_on,192,0,4,,,,,,,,3,,,72,0
146592,note_on,0,0,7,,,,,,,,2,,,53,0
146628,note_on,48,0,1,,,,,,,,0,,,81,0
146640,note_on,48,0,7,,,,,,,,2,,,70,72
146640,note_on,0,0,7,,,,,,,,2,,,67,72
146640,note_on,0,0,7,,,,,,,,2,,,52,72
146640,note_on,0,0,7,,,,,,,,2,,,60,72
146640,note_on,48,0,5,,,,,,,,4,,,52,72
146640,note_on,48,0,4,,,,,,,,3,,,72,72
146640,note_on,48,0,3,,,,,,,,0,,,79,72
146640,note_on,48,0,2,,,,,,,,1,,,82,72
146640,note_on,12,0,1,,,,,,,,0,,,72,105
146688,note_on,48,0,1,,,,,,,,0,,,72,0
146700,note_on,12,0,1,,,,,,,,0,,,76,105
146748,note_on,48,0,1,,,,,,,,0,,,76,0
146760,note_on,12,0,1,,,,,,,,0,,,82,105
146808,note_on,48,0,1,,,,,,,,0,,,82,0
146820,note_on,12,0,1,,,,,,,,0,,,82,105
146832,note_on,0,0,7,,,,,,,,2,,,70,0
146832,note_on,192,0,5,,,,,,,,4,,,52,0
146832,note_on,192,0,7,,,,,,,,2,,,60,0
146832,note_on,0,0,7,,,,,,,,2,,,67,0
146832,note_on,192,0,2,,,,,,,,1,,,82,0
146832,note_on,0,0,7,,,,,,,,2,,,52,0
146832,note_on,192,0,3,,,,,,,,0,,,79,0
146832,note_on,192,0,4,,,,,,,,3,,,72,0
146868,note_on,48,0,1,,,,,,,,0,,,82,0
146880,note_on,48,0,2,,,,,,,,1,,,82,72
146880,note_on,0,0,7,,,,,,,,2,,,52,72
146880,note_on,12,0,1,,,,,,,,0,,,72,105
146880,note_on,0,0,7,,,,,,,,2,,,70,72
146880,note_on,48,0,5,,,,,,,,4,,,52,72
146880,note_on,48,0,4,,,,,,,,3,,,72,72
146880,note_on,0,0,7,,,,,,,,2,,,60,72
146880,note_on,48,0,3,,,,,,,,0,,,79,72
146880,note_on,48,0,7,,,,,,,,2,,,67,72
146928,note_on,48,0,1,,,,,,,,0,,,72,0
146940,note_on,12,0,1,,,,,,,,0,,,76,105
146988,note_on,48,0,1,,,,,,,,0,,,76,0
147000,note_on,12,0,1,,,,,,,,0,,,82,105
147048,note_on,48,0,1,,,,,,,,0,,,82,0
147060,note_on,12,0,1,,,,,,,,0,,,82,105
147072,note_on,0,0,7,,,,,,,,2,,,67,0
147072,note_on,192,0,5,,,,,,,,4,,,52,0
147072,note_on,192,0,7,,,,,,,,2,,,70,0
147072,note_on,192,0,2,,,,,,,,1,,,82,0
147072,note_on,192,0,4,,,,,,,,3,,,72,0
147072,note_on,0,0,7,,,,,,,,2,,,60,0
147072,note_on,0,0,7,,,,,,,,2,,,52,0
147072,note_on,192,0,3,,,,,,,,0,,,79,0
147108,note_on,48,0,1,,,,,,,,0,,,82,0
147120,note_on,48,0,4,,,,,,,,3,,,72,72
147120,note_on,48,0,5,,,,,,,,4,,,53,72
147120,note_on,0,0,7,,,,,,,,2,,,65,72
147120,note_on,48,0,2,,,,,,,,1,,,81,72
147120,note_on,0,0,7,,,,,,,,2,,,53,72
147120,note_on,48,0,7,,,,,,,,2,,,69,72
147120,note_on,48,0,3,,,,,,,,0,,,77,72
147120,note_on,12,0,1,,,,,,,,0,,,81,105
147120,note_on,0,0,7,,,,,,,,2,,,60,72
147168,note_on,48,0,1,,,,,,,,0,,,81,0
147180,note_on,12,0,1,,,,,,,,0,,,77,105
147228,note_on,48,0,1,,,,,,,,0,,,77,0
147240,note_on,12,0,1,,,,,,,,0,,,79,105
147288,note_on,48,0,1,,,,,,,,0,,,79,0
147300,note_on,12,0,1,,,,,,,,0,,,76,105
147312,note_on,192,0,7,,,,,,,,2,,,65,0
147312,note_on,0,0,7,,,,,,,,2,,,53,0
147312,note_on,192,0,3,,,,,,,,0,,,77,0
147312,note_on,192,0,4,,,,,,,,3,,,72,0
147312,note_on,0,0,7,,,,,,,,2,,,69,0
147312,note_on,0,0,7,,,,,,,,2,,,60,0
147312,note_on,192,0,2,,,,,,,,1,,,81,0
147312,note_on,192,0,5,,,,,,,,4,,,53,0
147348,note_on,48,0,1,,,,,,,,0,,,76,0
147360,note_on,12,0,1,,,,,,,,0,,,77,105
147408,note_on,48,0,1,,,,,,,,0,,,77,0
147420,note_on,12,0,1,,,,,,,,0,,,72,105
147468,note_on,48,0,1,,,,,,,,0,,,72,0
147480,note_on,12,0,1,,,,,,,,0,,,74,105
147528,note_on,48,0,1,,,,,,,,0,,,74,0
147540,note_on,12,0,1,,,,,,,,0,,,70,105
147588,note_on,48,0,1,,,,,,,,0,,,70,0
147600,note_on,288,0,3,,,,,,,,0,,,77,72
147600,note_on,288,0,7,,,,,,,,2,,,69,72
147600,note_on,0,0,7,,,,,,,,2,,,60,72
147600,note_on,0,0,7,,,,,,,,2,,,53,72
147600,note_on,0,0,7,,,,,,,,2,,,65,72
147600,note_on,288,0,5,,,,,,,,4,,,53,72
147600,note_on,288,0,4,,,,,,,,3,,,72,72
147600,note_on,288,0,2,,,,,,,,1,,,81,72
147600,note_on,12,0,1,,,,,,,,0,,,69,105
147648,note_on,48,0,1,,,,,,,,0,,,69,0
147660,note_on,12,0,1,,,,,,,,0,,,81,105
147708,note_on,48,0,1,,,,,,,,0,,,81,0
147720,note_on,12,0,1,,,,,,,,0,,,82,105
147768,note_on,48,0,1,,,,,,,,0,,,82,0
147780,note_on,12,0,1,,,,,,,,0,,,79,105
147792,note_on,192,0,5,,,,,,,,4,,,53,0
147792,note_on,192,0,4,,,,,,,,3,,,72,0
147792,note_on,192,0,3,,,,,,,,0,,,77,0
147792,note_on,0,0,7,,,,,,,,2,,,69,0
147792,note_on,0,0,7,,,,,,,,2,,,60,0
147792,note_on,0,0,7,,,,,,,,2,,,53,0
147792,note_on,192,0,2,,,,,,,,1,,,81,0
147792,note_on,192,0,7,,,,,,,,2,,,65,0
147828,note_on,48,0,1,,,,,,,,0,,,79,0
147840,note_on,12,0,1,,,,,,,,0,,,81,105
147888,note_on,48,0,1,,,,,,,,0,,,81,0
147900,note_on,12,0,1,,,,,,,,0,,,77,105
147948,note_on,48,0,1,,,,,,,,0,,,77,0
147960,note_on,12,0,1,,,,,,,,0,,,79,105
148008,note_on,48,0,1,,,,,,,,0,,,79,0
148020,note_on,12,0,1,,,,,,,,0,,,76,105
148068,note_on,48,0,1,,,,,,,,0,,,76,0
148080,note_on,288,0,4,,,,,,,,3,,,69,72
148080,note_on,0,0,7,,,,,,,,2,,,41,105
148080,note_on,288,0,5,,,,,,,,4,,,41,105
148080,note_on,11544,0,6,,,,,,,,5,,,29,105
148080,note_on,288,0,2,,,,,,,,1,,,77,105
148080,note_on,288,0,7,,,,,,,,2,,,57,105
148080,note_on,0,0,7,,,,,,,,2,,,60,105
148080,note_on,0,0,7,,,,,,,,2,,,65,105
148080,note_on,288,0,3,,,,,,,,0,,,77,105
148080,note_on,12,0,1,,,,,,,,0,,,77,105
148176,note_on,96,0,4,,,,,,,,3,,,69,0
148176,note_on,96,0,6,,,,,,,,5,,,29,0
148176,note_on,96,0,5,,,,,,,,4,,,41,0
148176,note_on,96,0,7,,,,,,,,2,,,41,0
148200,note_on,24,0,7,,,,,,,,2,,,53,105
148200,note_on,24,0,6,,,,,,,,5,,,41,105
148200,note_on,24,0,5,,,,,,,,4,,,53,105
148200,note_on,24,0,4,,,,,,,,3,,,72,72
148272,note_on,192,0,1,,,,,,,,0,,,77,0
148272,note_on,192,0,2,,,,,,,,1,,,77,0
148272,note_on,192,0,3,,,,,,,,0,,,77,0
148272,note_on,72,0,7,,,,,,,,2,,,57,0
148272,note_on,0,0,7,,,,,,,,2,,,65,0
148272,note_on,0,0,7,,,,,,,,2,,,60,0
148296,note_on,96,0,6,,,,,,,,5,,,41,0
148296,note_on,24,0,7,,,,,,,,2,,,53,0
148296,note_on,96,0,5,,,,,,,,4,,,53,0
148296,note_on,96,0,4,,,,,,,,3,,,72,0
148320,note_on,48,0,1,,,,,,,,0,,,79,105
148320,note_on,0,0,7,,,,,,,,2,,,60,105
148320,note_on,0,0,7,,,,,,,,2,,,52,105
148320,note_on,48,0,2,,,,,,,,1,,,79,105
148320,note_on,24,0,6,,,,,,,,5,,,40,105
148320,note_on,24,0,4,,,,,,,,3,,,72,72
148320,note_on,24,0,7,,,,,,,,2,,,67,105
148320,note_on,48,0,3,,,,,,,,0,,,79,105
148320,note_on,24,0,5,,,,,,,,4,,,52,105
148416,note_on,96,0,4,,,,,,,,3,,,72,0
148416,note_on,96,0,6,,,,,,,,5,,,40,0
148416,note_on,96,0,7,,,,,,,,2,,,52,0
148416,note_on,96,0,5,,,,,,,,4,,,52,0
148440,note_on,24,0,6,,,,,,,,5,,,36,105
148440,note_on,24,0,7,,,,,,,,2,,,48,105
148440,note_on,24,0,4,,,,,,,,3,,,64,72
148440,note_on,24,0,5,,,,,,,,4,,,48,105
148512,note_on,72,0,7,,,,,,,,2,,,60,0
148512,note_on,0,0,7,,,,,,,,2,,,67,0
148512,note_on,192,0,2,,,,,,,,1,,,79,0
148512,note_on,192,0,1,,,,,,,,0,,,79,0
148512,note_on,192,0,3,,,,,,,,0,,,79,0
148536,note_on,24,0,7,,,,,,,,2,,,48,0
148536,note_on,96,0,5,,,,,,,,4,,,48,0
148536,note_on,96,0,4,,,,,,,,3,,,64,0
148536,note_on,96,0,6,,,,,,,,5,,,36,0
148560,note_on,48,0,1,,,,,,,,0,,,81,105
148560,note_on,0,0,7,,,,,,,,2,,,60,105
148560,note_on,0,0,7,,,,,,,,2,,,41,105
148560,note_on,24,0,7,,,,,,,,2,,,69,105
148560,note_on,24,0,4,,,,,,,,3,,,60,72
148560,note_on,24,0,5,,,,,,,,4,,,41,105
148560,note_on,48,0,2,,,,,,,,1,,,81,105
148560,note_on,24,0,6,,,,,,,,5,,,29,105
148560,note_on,48,0,3,,,,,,,,0,,,81,105
148656,note_on,96,0,4,,,,,,,,3,,,60,0
148656,note_on,96,0,7,,,,,,,,2,,,41,0
148656,note_on,96,0,5,,,,,,,,4,,,41,0
148656,note_on,96,0,6,,,,,,,,5,,,29,0
148680,note_on,24,0,6,,,,,,,,5,,,41,105
148680,note_on,24,0,4,,,,,,,,3,,,69,72
148680,note_on,24,0,5,,,,,,,,4,,,53,105
148680,note_on,24,0,7,,,,,,,,2,,,53,105
148752,note_on,72,0,7,,,,,,,,2,,,60,0
148776,note_on,96,0,4,,,,,,,,3,,,69,0
148776,note_on,96,0,5,,,,,,,,4,,,53,0
148776,note_on,24,0,7,,,,,,,,2,,,53,0
148776,note_on,96,0,6,,,,,,,,5,,,41,0
148800,note_on,24,0,6,,,,,,,,5,,,38,105
148800,note_on,24,0,4,,,,,,,,3,,,65,72
148800,note_on,0,0,7,,,,,,,,2,,,65,105
148800,note_on,24,0,5,,,,,,,,4,,,50,105
148800,note_on,24,0,7,,,,,,,,2,,,50,105
148848,note_on,288,0,2,,,,,,,,1,,,81,0
148848,note_on,288,0,3,,,,,,,,0,,,81,0
148848,note_on,288,0,1,,,,,,,,0,,,81,0
148848,note_on,48,0,7,,,,,,,,2,,,69,0
148896,note_on,96,0,4,,,,,,,,3,,,65,0
148896,note_on,96,0,5,,,,,,,,4,,,50,0
148896,note_on,96,0,6,,,,,,,,5,,,38,0
148896,note_on,48,0,7,,,,,,,,2,,,65,0
148896,note_on,0,0,7,,,,,,,,2,,,50,0
148920,note_on,0,0,7,,,,,,,,2,,,62,105
148920,note_on,0,0,7,,,,,,,,2,,,46,105
148920,note_on,24,0,7,,,,,,,,2,,,67,105
148920,note_on,24,0,4,,,,,,,,3,,,62,72
148920,note_on,24,0,6,,,,,,,,5,,,34,105
148920,note_on,24,0,5,,,,,,,,4,,,46,105
148920,note_on,72,0,1,,,,,,,,0,,,79,105
148920,note_on,72,0,2,,,,,,,,1,,,79,105
148920,note_on,72,0,3,,,,,,,,0,,,79,105
149016,note_on,96,0,6,,,,,,,,5,,,34,0
149016,note_on,96,0,2,,,,,,,,1,,,79,0
149016,note_on,0,0,7,,,,,,,,2,,,46,0
149016,note_on,0,0,7,,,,,,,,2,,,67,0
149016,note_on,96,0,7,,,,,,,,2,,,62,0
149016,note_on,96,0,3,,,,,,,,0,,,79,0
149016,note_on,96,0,5,,,,,,,,4,,,46,0
149016,note_on,96,0,1,,,,,,,,0,,,79,0
149016,note_on,96,0,4,,,,,,,,3,,,62,0
149040,note_on,24,0,4,,,,,,,,3,,,60,72
149040,note_on,24,0,6,,,,,,,,5,,,33,105
149040,note_on,24,0,7,,,,,,,,2,,,72,105
149040,note_on,0,0,7,,,,,,,,2,,,65,105
149040,note_on,0,0,7,,,,,,,,2,,,60,105
149040,note_on,0,0,7,,,,,,,,2,,,45,105
149040,note_on,24,0,2,,,,,,,,1,,,77,105
149040,note_on,24,0,3,,,,,,,,0,,,77,105
149040,note_on,24,0,1,,,,,,,,0,,,77,105
149040,note_on,24,0,5,,,,,,,,4,,,45,105
149136,note_on,96,0,1,,,,,,,,0,,,77,0
149136,note_on,96,0,2,,,,,,,,1,,,77,0
149136,note_on,96,0,3,,,,,,,,0,,,77,0
149160,note_on,24,0,3,,,,,,,,0,,,76,105
149160,note_on,24,0,2,,,,,,,,1,,,76,105
149160,note_on,24,0,1,,,,,,,,0,,,76,105
149232,note_on,192,0,4,,,,,,,,3,,,60,0
149232,note_on,192,0,5,,,,,,,,4,,,45,0
149232,note_on,0,0,7,,,,,,,,2,,,60,0
149232,note_on,192,0,7,,,,,,,,2,,,45,0
149232,note_on,0,0,7,,,,,,,,2,,,72,0
149232,note_on,192,0,6,,,,,,,,5,,,33,0
149232,note_on,0,0,7,,,,,,,,2,,,65,0
149256,note_on,96,0,3,,,,,,,,0,,,76,0
149256,note_on,96,0,1,,,,,,,,0,,,76,0
149256,note_on,96,0,2,,,,,,,,1,,,76,0
149280,note_on,48,0,6,,,,,,,,5,,,29,105
149280,note_on,24,0,3,,,,,,,,0,,,74,105
149280,note_on,24,0,1,,,,,,,,0,,,74,105
149280,note_on,48,0,5,,,,,,,,4,,,41,105
149280,note_on,48,0,7,,,,,,,,2,,,65,105
149280,note_on,0,0,7,,,,,,,,2,,,41,105
149280,note_on,48,0,4,,,,,,,,3,,,57,72
149280,note_on,24,0,2,,,,,,,,1,,,74,105
149280,note_on,0,0,7,,,,,,,,2,,,69,105
149280,note_on,0,0,7,,,,,,,,2,,,60,105
149376,note_on,96,0,2,,,,,,,,1,,,74,0
149376,note_on,96,0,1,,,,,,,,0,,,74,0
149376,note_on,96,0,3,,,,,,,,0,,,74,0
149400,note_on,24,0,2,,,,,,,,1,,,72,105
149400,note_on,24,0,1,,,,,,,,0,,,72,105
149400,note_on,24,0,3,,,,,,,,0,,,72,105
149472,note_on,0,0,7,,,,,,,,2,,,60,0
149472,note_on,192,0,5,,,,,,,,4,,,41,0
149472,note_on,192,0,7,,,,,,,,2,,,69,0
149472,note_on,0,0,7,,,,,,,,2,,,65,0
149472,note_on,192,0,4,,,,,,,,3,,,57,0
149472,note_on,0,0,7,,,,,,,,2,,,41,0
149472,note_on,192,0,6,,,,,,,,5,,,29,0
149496,note_on,96,0,2,,,,,,,,1,,,72,0
149496,note_on,96,0,3,,,,,,,,0,,,72,0
149496,note_on,96,0,1,,,,,,,,0,,,72,0
149520,note_on,48,0,4,,,,,,,,3,,,53,72
149520,note_on,24,0,3,,,,,,,,0,,,74,105
149520,note_on,24,0,2,,,,,,,,1,,,74,105
149520,note_on,48,0,6,,,,,,,,5,,,34,105
149520,note_on,0,0,7,,,,,,,,2,,,46,105
149520,note_on,0,0,7,,,,,,,,2,,,62,105
149520,note_on,0,0,7,,,,,,,,2,,,65,105
149520,note_on,24,0,1,,,,,,,,0,,,74,105
149520,note_on,48,0,5,,,,,,,,4,,,46,105
149520,note_on,48,0,7,,,,,,,,2,,,70,105
149712,note_on,0,0,7,,,,,,,,2,,,70,0
149712,note_on,192,0,7,,,,,,,,2,,,46,0
149712,note_on,192,0,5,,,,,,,,4,,,46,0
149712,note_on,192,0,1,,,,,,,,0,,,74,0
149712,note_on,0,0,7,,,,,,,,2,,,62,0
149712,note_on,192,0,6,,,,,,,,5,,,34,0
149712,note_on,192,0,2,,,,,,,,1,,,74,0
149712,note_on,192,0,3,,,,,,,,0,,,74,0
149712,note_on,0,0,7,,,,,,,,2,,,65,0
149760,note_on,48,0,5,,,,,,,,4,,,45,105
149760,note_on,48,0,1,,,,,,,,0,,,72,105
149760,note_on,48,0,6,,,,,,,,5,,,33,105
149760,note_on,0,0,7,,,,,,,,2,,,72,105
149760,note_on,48,0,3,,,,,,,,0,,,72,105
149760,note_on,48,0,2,,,,,,,,1,,,72,105
149760,note_on,0,0,7,,,,,,,,2,,,45,105
149760,note_on,48,0,7,,,,,,,,2,,,65,105
149808,note_on,288,0,4,,,,,,,,3,,,53,0
149856,note_on,96,0,5,,,,,,,,4,,,45,0
149856,note_on,96,0,6,,,,,,,,5,,,33,0
149856,note_on,96,0,2,,,,,,,,1,,,72,0
149856,note_on,96,0,7,,,,,,,,2,,,45,0
149856,note_on,96,0,3,,,,,,,,0,,,72,0
149856,note_on,96,0,1,,,,,,,,0,,,72,0
149880,note_on,24,0,2,,,,,,,,1,,,74,105
149880,note_on,24,0,3,,,,,,,,0,,,74,105
149880,note_on,24,0,1,,,,,,,,0,,,74,105
149880,note_on,24,0,5,,,,,,,,4,,,41,105
149880,note_on,24,0,7,,,,,,,,2,,,41,105
149880,note_on,72,0,4,,,,,,,,3,,,65,72
149880,note_on,24,0,6,,,,,,,,5,,,31,105
149952,note_on,72,0,7,,,,,,,,2,,,72,0
149952,note_on,0,0,7,,,,,,,,2,,,65,0
149976,note_on,96,0,3,,,,,,,,0,,,74,0
149976,note_on,96,0,2,,,,,,,,1,,,74,0
149976,note_on,24,0,7,,,,,,,,2,,,41,0
149976,note_on,96,0,4,,,,,,,,3,,,65,0
149976,note_on,96,0,1,,,,,,,,0,,,74,0
149976,note_on,96,0,6,,,,,,,,5,,,31,0
149976,note_on,96,0,5,,,,,,,,4,,,41,0
150000,note_on,24,0,2,,,,,,,,1,,,70,105
150000,note_on,24,0,3,,,,,,,,0,,,70,105
150000,note_on,0,0,7,,,,,,,,2,,,43,105
150000,note_on,0,0,7,,,,,,,,2,,,70,105
150000,note_on,24,0,7,,,,,,,,2,,,64,105
150000,note_on,24,0,1,,,,,,,,0,,,70,105
150000,note_on,24,0,6,,,,,,,,5,,,31,105
150000,note_on,24,0,4,,,,,,,,3,,,64,72
150000,note_on,24,0,5,,,,,,,,4,,,43,105
150096,note_on,96,0,3,,,,,,,,0,,,70,0
150096,note_on,96,0,2,,,,,,,,1,,,70,0
150096,note_on,96,0,1,,,,,,,,0,,,70,0
150120,note_on,24,0,3,,,,,,,,0,,,69,105
150120,note_on,24,0,2,,,,,,,,1,,,69,105
150120,note_on,24,0,1,,,,,,,,0,,,69,105
150192,note_on,0,0,7,,,,,,,,2,,,70,0
150192,note_on,192,0,5,,,,,,,,4,,,43,0
150192,note_on,192,0,6,,,,,,,,5,,,31,0
150192,note_on,0,0,7,,,,,,,,2,,,64,0
150192,note_on,192,0,4,,,,,,,,3,,,64,0
150192,note_on,192,0,7,,,,,,,,2,,,43,0
150216,note_on,96,0,3,,,,,,,,0,,,69,0
150216,note_on,96,0,2,,,,,,,,1,,,69,0
150216,note_on,96,0,1,,,,,,,,0,,,69,0
150240,note_on,24,0,1,,,,,,,,0,,,67,105
150240,note_on,48,0,7,,,,,,,,2,,,67,105
150240,note_on,48,0,6,,,,,,,,5,,,28,105
150240,note_on,0,0,7,,,,,,,,2,,,40,105
150240,note_on,0,0,7,,,,,,,,2,,,60,105
150240,note_on,0,0,7,,,,,,,,2,,,70,105
150240,note_on,24,0,2,,,,,,,,1,,,67,105
150240,note_on,48,0,5,,,,,,,,4,,,40,105
150240,note_on,24,0,3,,,,,,,,0,,,67,105
150240,note_on,48,0,4,,,,,,,,3,,,64,72
150336,note_on,96,0,2,,,,,,,,1,,,67,0
150336,note_on,96,0,3,,,,,,,,0,,,67,0
150336,note_on,96,0,1,,,,,,,,0,,,67,0
150360,note_on,24,0,2,,,,,,,,1,,,72,105
150360,note_on,24,0,3,,,,,,,,0,,,72,105
150360,note_on,24,0,1,,,,,,,,0,,,72,105
150432,note_on,0,0,7,,,,,,,,2,,,60,0
150432,note_on,192,0,5,,,,,,,,4,,,40,0
150432,note_on,192,0,6,,,,,,,,5,,,28,0
150432,note_on,192,0,4,,,,,,,,3,,,64,0
150432,note_on,192,0,7,,,,,,,,2,,,70,0
150432,note_on,0,0,7,,,,,,,,2,,,67,0
150432,note_on,0,0,7,,,,,,,,2,,,40,0
150456,note_on,96,0,2,,,,,,,,1,,,72,0
150456,note_on,96,0,1,,,,,,,,0,,,72,0
150456,note_on,96,0,3,,,,,,,,0,,,72,0
150480,note_on,48,0,4,,,,,,,,3,,,60,72
150480,note_on,24,0,2,,,,,,,,1,,,69,105
150480,note_on,48,0,6,,,,,,,,5,,,31,105
150480,note_on,24,0,1,,,,,,,,0,,,69,105
150480,note_on,24,0,3,,,,,,,,0,,,69,105
150480,note_on,48,0,7,,,,,,,,2,,,69,105
150480,note_on,48,0,5,,,,,,,,4,,,41,105
150480,note_on,0,0,7,,,,,,,,2,,,41,105
150480,note_on,0,0,7,,,,,,,,2,,,60,105
150480,note_on,0,0,7,,,,,,,,2,,,65,105
150576,note_on,96,0,7,,,,,,,,2,,,41,0
150576,note_on,96,0,3,,,,,,,,0,,,69,0
150576,note_on,96,0,6,,,,,,,,5,,,31,0
150576,note_on,96,0,1,,,,,,,,0,,,69,0
150576,note_on,96,0,2,,,,,,,,1,,,69,0
150576,note_on,96,0,5,,,,,,,,4,,,41,0
150600,note_on,24,0,3,,,,,,,,0,,,67,105
150600,note_on,24,0,1,,,,,,,,0,,,67,105
150600,note_on,24,0,7,,,,,,,,2,,,43,105
150600,note_on,24,0,5,,,,,,,,4,,,43,105
150600,note_on,24,0,6,,,,,,,,5,,,31,105
150600,note_on,24,0,2,,,,,,,,1,,,67,105
150672,note_on,192,0,4,,,,,,,,3,,,60,0
150672,note_on,72,0,7,,,,,,,,2,,,69,0
150672,note_on,0,0,7,,,,,,,,2,,,65,0
150672,note_on,0,0,7,,,,,,,,2,,,60,0
150696,note_on,96,0,6,,,,,,,,5,,,31,0
150696,note_on,96,0,2,,,,,,,,1,,,67,0
150696,note_on,24,0,7,,,,,,,,2,,,43,0
150696,note_on,96,0,1,,,,,,,,0,,,67,0
150696,note_on,96,0,3,,,,,,,,0,,,67,0
150696,note_on,96,0,5,,,,,,,,4,,,43,0
150720,note_on,24,0,7,,,,,,,,2,,,60,105
150720,note_on,24,0,2,,,,,,,,1,,,65,105
150720,note_on,24,0,5,,,,,,,,4,,,45,105
150720,note_on,24,0,3,,,,,,,,0,,,65,105
150720,note_on,0,0,7,,,,,,,,2,,,45,105
150720,note_on,0,0,7,,,,,,,,2,,,65,105
150720,note_on,24,0,1,,,,,,,,0,,,65,105
150720,note_on,24,0,6,,,,,,,,5,,,33,105
150816,note_on,96,0,6,,,,,,,,5,,,33,0
150816,note_on,96,0,2,,,,,,,,1,,,65,0
150816,note_on,96,0,1,,,,,,,,0,,,65,0
150816,note_on,96,0,7,,,,,,,,2,,,45,0
150816,note_on,96,0,3,,,,,,,,0,,,65,0
150816,note_on,96,0,5,,,,,,,,4,,,45,0
150840,note_on,24,0,6,,,,,,,,5,,,31,105
150840,note_on,24,0,1,,,,,,,,0,,,81,105
150840,note_on,24,0,2,,,,,,,,1,,,81,105
150840,note_on,24,0,3,,,,,,,,0,,,81,105
150840,note_on,24,0,5,,,,,,,,4,,,43,105
150840,note_on,24,0,7,,,,,,,,2,,,43,105
150912,note_on,72,0,7,,,,,,,,2,,,65,0
150912,note_on,0,0,7,,,,,,,,2,,,60,0
150936,note_on,96,0,1,,,,,,,,0,,,81,0
150936,note_on,96,0,2,,,,,,,,1,,,81,0
150936,note_on,24,0,7,,,,,,,,2,,,43,0
150936,note_on,96,0,5,,,,,,,,4,,,43,0
150936,note_on,96,0,6,,,,,,,,5,,,31,0
150936,note_on,96,0,3,,,,,,,,0,,,81,0
150960,note_on,24,0,3,,,,,,,,0,,,84,105
150960,note_on,0,0,7,,,,,,,,2,,,65,105
150960,note_on,24,0,5,,,,,,,,4,,,41,105
150960,note_on,0,0,7,,,,,,,,2,,,41,105
150960,note_on,24,0,6,,,,,,,,5,,,31,105
150960,note_on,288,0,4,,,,,,,,3,,,69,72
150960,note_on,24,0,2,,,,,,,,1,,,84,105
150960,note_on,24,0,1,,,,,,,,0,,,84,105
150960,note_on,0,0,7,,,,,,,,2,,,60,105
150960,note_on,24,0,7,,,,,,,,2,,,69,105
151056,note_on,96,0,6,,,,,,,,5,,,31,0
151056,note_on,96,0,5,,,,,,,,4,,,41,0
151056,note_on,96,0,7,,,,,,,,2,,,41,0
151080,note_on,24,0,5,,,,,,,,4,,,43,105
151080,note_on,24,0,7,,,,,,,,2,,,43,105
151080,note_on,24,0,6,,,,,,,,5,,,31,105
151152,note_on,192,0,4,,,,,,,,3,,,69,0
151152,note_on,192,0,3,,,,,,,,0,,,84,0
151152,note_on,72,0,7,,,,,,,,2,,,69,0
151152,note_on,192,0,1,,,,,,,,0,,,84,0
151152,note_on,0,0,7,,,,,,,,2,,,65,0
151152,note_on,0,0,7,,,,,,,,2,,,60,0
151152,note_on,192,0,2,,,,,,,,1,,,84,0
151176,note_on,96,0,5,,,,,,,,4,,,43,0
151176,note_on,24,0,7,,,,,,,,2,,,43,0
151176,note_on,96,0,6,,,,,,,,5,,,31,0
151200,note_on,48,0,4,,,,,,,,3,,,65,72
151200,note_on,48,0,1,,,,,,,,0,,,81,105
151200,note_on,0,0,7,,,,,,,,2,,,45,105
151200,note_on,24,0,6,,,,,,,,5,,,33,105
151200,note_on,24,0,7,,,,,,,,2,,,60,105
151200,note_on,48,0,2,,,,,,,,1,,,81,105
151200,note_on,48,0,3,,,,,,,,0,,,81,105
151200,note_on,24,0,5,,,,,,,,4,,,45,105
151200,note_on,0,0,7,,,,,,,,2,,,65,105
151296,note_on,96,0,6,,,,,,,,5,,,33,0
151296,note_on,96,0,7,,,,,,,,2,,,45,0
151296,note_on,96,0,5,,,,,,,,4,,,45,0
151320,note_on,24,0,7,,,,,,,,2,,,43,105
151320,note_on,24,0,5,,,,,,,,4,,,43,105
151320,note_on,24,0,6,,,,,,,,5,,,31,105
151392,note_on,192,0,1,,,,,,,,0,,,81,0
151392,note_on,192,0,2,,,,,,,,1,,,81,0
151392,note_on,192,0,3,,,,,,,,0,,,81,0
151392,note_on,72,0,7,,,,,,,,2,,,65,0
151392,note_on,0,0,7,,,,,,,,2,,,60,0
151392,note_on,192,0,4,,,,,,,,3,,,65,0
151416,note_on,96,0,6,,,,,,,,5,,,31,0
151416,note_on,24,0,7,,,,,,,,2,,,43,0
151416,note_on,96,0,5,,,,,,,,4,,,43,0
151440,note_on,48,0,3,,,,,,,,0,,,81,105
151440,note_on,24,0,7,,,,,,,,2,,,69,105
151440,note_on,0,0,7,,,,,,,,2,,,41,105
151440,note_on,0,0,7,,,,,,,,2,,,60,105
151440,note_on,24,0,6,,,,,,,,5,,,29,105
151440,note_on,24,0,5,,,,,,,,4,,,41,105
151440,note_on,0,0,7,,,,,,,,2,,,65,105
151440,note_on,48,0,4,,,,,,,,3,,,60,72
151440,note_on,48,0,2,,,,,,,,1,,,81,105
151440,note_on,48,0,1,,,,,,,,0,,,81,105
151536,note_on,96,0,2,,,,,,,,1,,,81,0
151536,note_on,96,0,3,,,,,,,,0,,,81,0
151536,note_on,96,0,1,,,,,,,,0,,,81,0
151560,note_on,24,0,1,,,,,,,,0,,,83,105
151560,note_on,24,0,3,,,,,,,,0,,,83,105
151560,note_on,24,0,2,,,,,,,,1,,,83,105
151632,note_on,0,0,7,,,,,,,,2,,,60,0
151632,note_on,192,0,4,,,,,,,,3,,,60,0
151632,note_on,192,0,5,,,,,,,,4,,,41,0
151632,note_on,192,0,6,,,,,,,,5,,,29,0
151632,note_on,192,0,7,,,,,,,,2,,,41,0
151632,note_on,0,0,7,,,,,,,,2,,,69,0
151632,note_on,0,0,7,,,,,,,,2,,,65,0
151656,note_on,96,0,2,,,,,,,,1,,,83,0
151656,note_on,96,0,3,,,,,,,,0,,,83,0
151656,note_on,96,0,1,,,,,,,,0,,,83,0
151680,note_on,24,0,1,,,,,,,,0,,,84,105
151680,note_on,24,0,2,,,,,,,,1,,,84,105
151680,note_on,24,0,3,,,,,,,,0,,,84,105
151872,note_on,192,0,1,,,,,,,,0,,,84,0
151872,note_on,192,0,2,,,,,,,,1,,,84,0
151872,note_on,192,0,3,,,,,,,,0,,,84,0
151920,note_on,48,0,1,,,,,,,,0,,,81,105
151920,note_on,288,0,5,,,,,,,,4,,,53,105
151920,note_on,48,0,2,,,,,,,,1,,,81,105
151920,note_on,288,0,4,,,,,,,,3,,,72,72
151920,note_on,288,0,7,,,,,,,,2,,,60,105
151920,note_on,0,0,7,,,,,,,,2,,,53,105
151920,note_on,48,0,3,,,,,,,,0,,,81,105
152016,note_on,96,0,5,,,,,,,,4,,,53,0
152016,note_on,96,0,7,,,,,,,,2,,,53,0
152040,note_on,24,0,5,,,,,,,,4,,,57,105
152040,note_on,24,0,7,,,,,,,,2,,,57,105
152112,note_on,192,0,3,,,,,,,,0,,,81,0
152112,note_on,192,0,1,,,,,,,,0,,,81,0
152112,note_on,72,0,7,,,,,,,,2,,,60,0
152112,note_on,192,0,4,,,,,,,,3,,,72,0
152112,note_on,192,0,2,,,,,,,,1,,,81,0
152136,note_on,96,0,5,,,,,,,,4,,,57,0
152136,note_on,24,0,7,,,,,,,,2,,,57,0
152160,note_on,48,0,2,,,,,,,,1,,,76,105
152160,note_on,48,0,3,,,,,,,,0,,,76,105
152160,note_on,24,0,5,,,,,,,,4,,,55,105
152160,note_on,0,0,7,,,,,,,,2,,,55,105
152160,note_on,24,0,7,,,,,,,,2,,,58,105
152160,note_on,48,0,4,,,,,,,,3,,,70,72
152160,note_on,0,0,7,,,,,,,,2,,,64,105
152160,note_on,48,0,1,,,,,,,,0,,,76,105
152256,note_on,96,0,7,,,,,,,,2,,,55,0
152256,note_on,96,0,5,,,,,,,,4,,,55,0
152256,note_on,96,0,4,,,,,,,,3,,,70,0
152280,note_on,24,0,7,,,,,,,,2,,,48,105
152280,note_on,24,0,5,,,,,,,,4,,,48,105
152280,note_on,24,0,4,,,,,,,,3,,,64,72
152352,note_on,192,0,2,,,,,,,,1,,,76,0
152352,note_on,192,0,3,,,,,,,,0,,,76,0
152352,note_on,0,0,7,,,,,,,,2,,,58,0
152352,note_on,192,0,1,,,,,,,,0,,,76,0
152352,note_on,72,0,7,,,,,,,,2,,,64,0
152376,note_on,24,0,7,,,,,,,,2,,,48,0
152376,note_on,96,0,4,,,,,,,,3,,,64,0
152376,note_on,96,0,5,,,,,,,,4,,,48,0
152400,note_on,48,0,3,,,,,,,,0,,,77,105
152400,note_on,0,0,7,,,,,,,,2,,,53,105
152400,note_on,0,0,7,,,,,,,,2,,,57,105
152400,note_on,0,0,7,,,,,,,,2,,,60,105
152400,note_on,48,0,1,,,,,,,,0,,,77,105
152400,note_on,24,0,7,,,,,,,,2,,,65,105
152400,note_on,24,0,4,,,,,,,,3,,,60,72
152400,note_on,24,0,5,,,,,,,,4,,,53,105
152400,note_on,48,0,2,,,,,,,,1,,,77,105
152496,note_on,96,0,2,,,,,,,,1,,,77,0
152496,note_on,96,0,3,,,,,,,,0,,,77,0
152496,note_on,96,0,1,,,,,,,,0,,,77,0
152520,note_on,24,0,1,,,,,,,,0,,,83,105
152520,note_on,24,0,2,,,,,,,,1,,,83,105
152520,note_on,24,0,3,,,,,,,,0,,,83,105
152592,note_on,0,0,7,,,,,,,,2,,,60,0
152592,note_on,192,0,5,,,,,,,,4,,,53,0
152592,note_on,192,0,4,,,,,,,,3,,,60,0
152592,note_on,192,0,7,,,,,,,,2,,,53,0
152592,note_on,0,0,7,,,,,,,,2,,,65,0
152592,note_on,0,0,7,,,,,,,,2,,,57,0
152616,note_on,96,0,1,,,,,,,,0,,,83,0
152616,note_on,96,0,3,,,,,,,,0,,,83,0
152616,note_on,96,0,2,,,,,,,,1,,,83,0
152640,note_on,24,0,1,,,,,,,,0,,,84,105
152640,note_on,24,0,2,,,,,,,,1,,,84,105
152640,note_on,24,0,3,,,,,,,,0,,,84,105
152832,note_on,192,0,2,,,,,,,,1,,,84,0
152832,note_on,192,0,1,,,,,,,,0,,,84,0
152832,note_on,192,0,3,,,,,,,,0,,,84,0
152880,note_on,48,0,3,,,,,,,,0,,,79,105
152880,note_on,0,0,7,,,,,,,,2,,,62,105
152880,note_on,0,0,7,,,,,,,,2,,,46,105
152880,note_on,288,0,7,,,,,,,,2,,,67,105
152880,note_on,48,0,2,,,,,,,,1,,,79,105
152880,note_on,288,0,5,,,,,,,,4,,,46,105
152880,note_on,288,0,4,,,,,,,,3,,,62,72
152880,note_on,48,0,1,,,,,,,,0,,,79,105
153072,note_on,0,0,7,,,,,,,,2,,,67,0
153072,note_on,0,0,7,,,,,,,,2,,,46,0
153072,note_on,192,0,7,,,,,,,,2,,,62,0
153072,note_on,192,0,1,,,,,,,,0,,,79,0
153072,note_on,192,0,2,,,,,,,,1,,,79,0
153072,note_on,192,0,4,,,,,,,,3,,,62,0
153072,note_on,192,0,3,,,,,,,,0,,,79,0
153072,note_on,192,0,5,,,,,,,,4,,,46,0
153120,note_on,48,0,1,,,,,,,,0,,,77,105
153120,note_on,48,0,4,,,,,,,,3,,,62,72
153120,note_on,48,0,3,,,,,,,,0,,,77,105
153120,note_on,48,0,7,,,,,,,,2,,,65,105
153120,note_on,0,0,7,,,,,,,,2,,,62,105
153120,note_on,0,0,7,,,,,,,,2,,,55,105
153120,note_on,0,0,7,,,,,,,,2,,,47,105
153120,note_on,48,0,5,,,,,,,,4,,,47,105
153120,note_on,48,0,2,,,,,,,,1,,,77,105
153312,note_on,0,0,7,,,,,,,,2,,,55,0
153312,note_on,192,0,5,,,,,,,,4,,,47,0
153312,note_on,0,0,7,,,,,,,,2,,,62,0
153312,note_on,192,0,1,,,,,,,,0,,,77,0
153312,note_on,192,0,2,,,,,,,,1,,,77,0
153312,note_on,0,0,7,,,,,,,,2,,,65,0
153312,note_on,192,0,7,,,,,,,,2,,,47,0
153312,note_on,192,0,4,,,,,,,,3,,,62,0
153312,note_on,192,0,3,,,,,,,,0,,,77,0
153360,note_on,48,0,4,,,,,,,,3,,,55,72
153360,note_on,48,0,2,,,,,,,,1,,,76,105
153360,note_on,48,0,7,,,,,,,,2,,,64,105
153360,note_on,48,0,1,,,,,,,,0,,,76,105
153360,note_on,48,0,3,,,,,,,,0,,,76,105
153360,note_on,48,0,5,,,,,,,,4,,,48,105
153360,note_on,0,0,7,,,,,,,,2,,,55,105
153360,note_on,0,0,7,,,,,,,,2,,,60,105
153360,note_on,0,0,7,,,,,,,,2,,,48,105
153456,note_on,96,0,1,,,,,,,,0,,,76,0
153456,note_on,96,0,3,,,,,,,,0,,,76,0
153456,note_on,96,0,2,,,,,,,,1,,,76,0
153456,note_on,96,0,4,,,,,,,,3,,,55,0
153480,note_on,24,0,4,,,,,,,,3,,,67,72
153480,note_on,24,0,2,,,,,,,,1,,,74,105
153480,note_on,24,0,3,,,,,,,,0,,,74,105
153480,note_on,24,0,1,,,,,,,,0,,,74,105
153528,note_on,48,0,1,,,,,,,,0,,,74,0
153528,note_on,48,0,3,,,,,,,,0,,,74,0
153528,note_on,48,0,2,,,,,,,,1,,,74,0
153540,note_on,12,0,3,,,,,,,,0,,,72,105
153540,note_on,12,0,2,,,,,,,,1,,,72,105
153540,note_on,12,0,1,,,,,,,,0,,,72,105
153552,note_on,192,0,5,,,,,,,,4,,,48,0
153552,note_on,0,0,7,,,,,,,,2,,,64,0
153552,note_on,0,0,7,,,,,,,,2,,,60,0
153552,note_on,0,0,7,,,,,,,,2,,,55,0
153552,note_on,192,0,7,,,,,,,,2,,,48,0
153588,note_on,48,0,1,,,,,,,,0,,,72,0
153588,note_on,48,0,3,,,,,,,,0,,,72,0
153588,note_on,48,0,2,,,,,,,,1,,,72,0
153600,note_on,0,0,7,,,,,,,,2,,,60,105
153600,note_on,12,0,1,,,,,,,,0,,,82,105
153600,note_on,12,0,3,,,,,,,,0,,,82,105
153600,note_on,48,0,7,,,,,,,,2,,,64,105
153600,note_on,48,0,5,,,,,,,,4,,,48,105
153600,note_on,0,0,7,,,,,,,,2,,,48,105
153600,note_on,0,0,7,,,,,,,,2,,,55,105
153600,note_on,12,0,2,,,,,,,,1,,,82,105
153672,note_on,192,0,4,,,,,,,,3,,,67,0
153696,note_on,96,0,1,,,,,,,,0,,,82,0
153696,note_on,96,0,3,,,,,,,,0,,,82,0
153696,note_on,96,0,2,,,,,,,,1,,,82,0
153720,note_on,24,0,2,,,,,,,,1,,,81,105
153720,note_on,48,0,4,,,,,,,,3,,,64,72
153720,note_on,24,0,1,,,,,,,,0,,,81,105
153720,note_on,24,0,3,,,,,,,,0,,,81,105
153768,note_on,48,0,2,,,,,,,,1,,,81,0
153768,note_on,48,0,1,,,,,,,,0,,,81,0
153768,note_on,48,0,3,,,,,,,,0,,,81,0
153780,note_on,12,0,2,,,,,,,,1,,,79,105
153780,note_on,12,0,3,,,,,,,,0,,,79,105
153780,note_on,12,0,1,,,,,,,,0,,,79,105
153792,note_on,192,0,7,,,,,,,,2,,,55,0
153792,note_on,0,0,7,,,,,,,,2,,,64,0
153792,note_on,0,0,7,,,,,,,,2,,,60,0
153792,note_on,0,0,7,,,,,,,,2,,,48,0
153792,note_on,192,0,5,,,,,,,,4,,,48,0
153816,note_on,96,0,4,,,,,,,,3,,,64,0
153828,note_on,48,0,3,,,,,,,,0,,,79,0
153828,note_on,48,0,1,,,,,,,,0,,,79,0
153828,note_on,48,0,2,,,,,,,,1,,,79,0
153840,note_on,12,0,2,,,,,,,,1,,,81,105
153840,note_on,12,0,3,,,,,,,,0,,,81,105
153840,note_on,48,0,5,,,,,,,,4,,,41,105
153840,note_on,24,0,4,,,,,,,,3,,,60,72
153840,note_on,0,0,7,,,,,,,,2,,,60,105
153840,note_on,0,0,7,,,,,,,,2,,,57,105
153840,note_on,0,0,7,,,,,,,,2,,,41,105
153840,note_on,48,0,7,,,,,,,,2,,,65,105
153840,note_on,12,0,1,,,,,,,,0,,,81,105
153936,note_on,96,0,5,,,,,,,,4,,,41,0
153936,note_on,96,0,4,,,,,,,,3,,,60,0
153936,note_on,96,0,3,,,,,,,,0,,,81,0
153936,note_on,96,0,1,,,,,,,,0,,,81,0
153936,note_on,96,0,2,,,,,,,,1,,,81,0
153936,note_on,96,0,7,,,,,,,,2,,,41,0
153960,note_on,24,0,5,,,,,,,,4,,,53,105
153960,note_on,24,0,2,,,,,,,,1,,,77,105
153960,note_on,24,0,1,,,,,,,,0,,,77,105
153960,note_on,24,0,3,,,,,,,,0,,,77,105
153960,note_on,24,0,7,,,,,,,,2,,,53,105
153960,note_on,24,0,4,,,,,,,,3,,,69,72
154032,note_on,0,0,7,,,,,,,,2,,,60,0
154032,note_on,72,0,7,,,,,,,,2,,,65,0
154032,note_on,0,0,7,,,,,,,,2,,,57,0
154056,note_on,96,0,2,,,,,,,,1,,,77,0
154056,note_on,96,0,5,,,,,,,,4,,,53,0
154056,note_on,96,0,1,,,,,,,,0,,,77,0
154056,note_on,24,0,7,,,,,,,,2,,,53,0
154056,note_on,96,0,3,,,,,,,,0,,,77,0
154056,note_on,96,0,4,,,,,,,,3,,,69,0
154080,note_on,24,0,2,,,,,,,,1,,,79,105
154080,note_on,24,0,5,,,,,,,,4,,,46,105
154080,note_on,0,0,7,,,,,,,,2,,,67,105
154080,note_on,24,0,7,,,,,,,,2,,,46,105
154080,note_on,24,0,3,,,,,,,,0,,,79,105
154080,note_on,0,0,7,,,,,,,,2,,,62,105
154080,note_on,24,0,4,,,,,,,,3,,,70,72
154080,note_on,24,0,1,,,,,,,,0,,,79,105
154176,note_on,96,0,4,,,,,,,,3,,,70,0
154176,note_on,96,0,2,,,,,,,,1,,,79,0
154176,note_on,96,0,1,,,,,,,,0,,,79,0
154176,note_on,96,0,7,,,,,,,,2,,,62,0
154176,note_on,0,0,7,,,,,,,,2,,,46,0
154176,note_on,96,0,3,,,,,,,,0,,,79,0
154176,note_on,96,0,5,,,,,,,,4,,,46,0
154200,note_on,24,0,3,,,,,,,,0,,,76,105
154200,note_on,24,0,2,,,,,,,,1,,,76,105
154200,note_on,24,0,1,,,,,,,,0,,,76,105
154200,note_on,0,0,7,,,,,,,,2,,,64,105
154200,note_on,24,0,7,,,,,,,,2,,,48,105
154200,note_on,24,0,4,,,,,,,,3,,,67,72
154200,note_on,24,0,5,,,,,,,,4,,,48,105
154272,note_on,72,0,7,,,,,,,,2,,,67,0
154296,note_on,96,0,5,,,,,,,,4,,,48,0
154296,note_on,96,0,4,,,,,,,,3,,,67,0
154296,note_on,24,0,7,,,,,,,,2,,,64,0
154296,note_on,0,0,7,,,,,,,,2,,,48,0
154296,note_on,96,0,3,,,,,,,,0,,,76,0
154296,note_on,96,0,2,,,,,,,,1,,,76,0
154296,note_on,96,0,1,,,,,,,,0,,,76,0
154320,note_on,24,0,2,,,,,,,,1,,,77,124
154320,note_on,24,0,7,,,,,,,,2,,,69,105
154320,note_on,0,0,7,,,,,,,,2,,,41,105
154320,note_on,0,0,7,,,,,,,,2,,,60,105
154320,note_on,0,0,7,,,,,,,,2,,,65,105
154320,note_on,24,0,3,,,,,,,,0,,,77,105
154320,note_on,24,0,1,,,,,,,,0,,,77,105
154320,note_on,24,0,4,,,,,,,,3,,,69,72
154320,note_on,24,0,5,,,,,,,,4,,,41,105
154344,note_on,24,0,1,,,,,,,,0,,,77,0
154344,note_on,24,0,3,,,,,,,,0,,,77,0
154350,note_on,6,0,1,,,,,,,,0,,,72,105
154350,note_on,6,0,3,,,,,,,,0,,,72,105
154374,note_on,24,0,1,,,,,,,,0,,,72,0
154374,note_on,24,0,3,,,,,,,,0,,,72,0
154380,note_on,6,0,3,,,,,,,,0,,,65,105
154380,note_on,6,0,1,,,,,,,,0,,,65,105
154404,note_on,24,0,3,,,,,,,,0,,,65,0
154404,note_on,24,0,1,,,,,,,,0,,,65,0
154410,note_on,6,0,3,,,,,,,,0,,,72,105
154410,note_on,6,0,1,,,,,,,,0,,,72,105
154416,note_on,0,0,7,,,,,,,,2,,,69,0
154416,note_on,96,0,7,,,,,,,,2,,,41,0
154416,note_on,96,0,5,,,,,,,,4,,,41,0
154434,note_on,24,0,3,,,,,,,,0,,,72,0
154434,note_on,24,0,1,,,,,,,,0,,,72,0
154440,note_on,24,0,5,,,,,,,,4,,,43,105
154440,note_on,24,0,7,,,,,,,,2,,,43,105
154440,note_on,0,0,7,,,,,,,,2,,,70,105
154440,note_on,6,0,1,,,,,,,,0,,,77,105
154440,note_on,6,0,3,,,,,,,,0,,,77,105
154512,note_on,72,0,7,,,,,,,,2,,,60,0
154512,note_on,0,0,7,,,,,,,,2,,,65,0
154512,note_on,192,0,4,,,,,,,,3,,,69,0
154512,note_on,192,0,2,,,,,,,,1,,,77,0
154536,note_on,96,0,3,,,,,,,,0,,,77,0
154536,note_on,96,0,5,,,,,,,,4,,,43,0
154536,note_on,0,0,7,,,,,,,,2,,,70,0
154536,note_on,24,0,7,,,,,,,,2,,,43,0
154536,note_on,96,0,1,,,,,,,,0,,,77,0
154560,note_on,24,0,3,,,,,,,,0,,,77,105
154560,note_on,0,0,7,,,,,,,,2,,,65,105
154560,note_on,0,0,7,,,,,,,,2,,,45,105
154560,note_on,24,0,7,,,,,,,,2,,,72,105
154560,note_on,24,0,1,,,,,,,,0,,,77,105
154560,note_on,24,0,5,,,,,,,,4,,,45,105
154584,note_on,24,0,1,,,,,,,,0,,,77,0
154584,note_on,24,0,3,,,,,,,,0,,,77,0
154590,note_on,6,0,1,,,,,,,,0,,,72,105
154590,note_on,6,0,3,,,,,,,,0,,,72,105
154614,note_on,24,0,1,,,,,,,,0,,,72,0
154614,note_on,24,0,3,,,,,,,,0,,,72,0
154620,note_on,6,0,1,,,,,,,,0,,,65,105
154620,note_on,6,0,3,,,,,,,,0,,,65,105
154644,note_on,24,0,1,,,,,,,,0,,,65,0
154644,note_on,24,0,3,,,,,,,,0,,,65,0
154650,note_on,6,0,3,,,,,,,,0,,,72,105
154650,note_on,6,0,1,,,,,,,,0,,,72,105
154656,note_on,96,0,7,,,,,,,,2,,,45,0
154656,note_on,96,0,5,,,,,,,,4,,,45,0
154674,note_on,24,0,1,,,,,,,,0,,,72,0
154674,note_on,24,0,3,,,,,,,,0,,,72,0
154680,note_on,24,0,7,,,,,,,,2,,,41,105
154680,note_on,24,0,5,,,,,,,,4,,,41,105
154680,note_on,6,0,1,,,,,,,,0,,,77,105
154680,note_on,6,0,3,,,,,,,,0,,,77,105
154752,note_on,72,0,7,,,,,,,,2,,,65,0
154752,note_on,0,0,7,,,,,,,,2,,,72,0
154776,note_on,96,0,3,,,,,,,,0,,,77,0
154776,note_on,24,0,7,,,,,,,,2,,,41,0
154776,note_on,96,0,5,,,,,,,,4,,,41,0
154776,note_on,96,0,1,,,,,,,,0,,,77,0
154800,note_on,24,0,1,,,,,,,,0,,,79,105
154800,note_on,24,0,3,,,,,,,,0,,,79,105
154800,note_on,24,0,5,,,,,,,,4,,,48,105
154800,note_on,24,0,7,,,,,,,,2,,,72,105
154800,note_on,0,0,7,,,,,,,,2,,,48,105
154800,note_on,0,0,7,,,,,,,,2,,,64,105
154824,note_on,24,0,3,,,,,,,,0,,,79,0
154824,note_on,24,0,1,,,,,,,,0,,,79,0
154830,note_on,6,0,1,,,,,,,,0,,,72,105
154830,note_on,6,0,3,,,,,,,,0,,,72,105
154854,note_on,24,0,1,,,,,,,,0,,,72,0
154854,note_on,24,0,3,,,,,,,,0,,,72,0
154860,note_on,6,0,3,,,,,,,,0,,,64,105
154860,note_on,6,0,1,,,,,,,,0,,,64,105
154884,note_on,24,0,1,,,,,,,,0,,,64,0
154884,note_on,24,0,3,,,,,,,,0,,,64,0
154890,note_on,6,0,3,,,,,,,,0,,,72,105
154890,note_on,6,0,1,,,,,,,,0,,,72,105
154896,note_on,96,0,5,,,,,,,,4,,,48,0
154896,note_on,0,0,7,,,,,,,,2,,,48,0
154896,note_on,96,0,7,,,,,,,,2,,,64,0
154914,note_on,24,0,1,,,,,,,,0,,,72,0
154914,note_on,24,0,3,,,,,,,,0,,,72,0
154920,note_on,24,0,7,,,,,,,,2,,,50,105
154920,note_on,24,0,5,,,,,,,,4,,,50,105
154920,note_on,6,0,3,,,,,,,,0,,,79,105
154920,note_on,0,0,7,,,,,,,,2,,,65,105
154920,note_on,6,0,1,,,,,,,,0,,,79,105
154992,note_on,72,0,7,,,,,,,,2,,,72,0
155016,note_on,96,0,1,,,,,,,,0,,,79,0
155016,note_on,0,0,7,,,,,,,,2,,,50,0
155016,note_on,24,0,7,,,,,,,,2,,,65,0
155016,note_on,96,0,3,,,,,,,,0,,,79,0
155016,note_on,96,0,5,,,,,,,,4,,,50,0
155040,note_on,24,0,5,,,,,,,,4,,,52,105
155040,note_on,24,0,1,,,,,,,,0,,,79,105
155040,note_on,0,0,7,,,,,,,,2,,,52,105
155040,note_on,24,0,7,,,,,,,,2,,,72,105
155040,note_on,0,0,7,,,,,,,,2,,,67,105
155040,note_on,24,0,3,,,,,,,,0,,,79,105
155064,note_on,24,0,3,,,,,,,,0,,,79,0
155064,note_on,24,0,1,,,,,,,,0,,,79,0
155070,note_on,6,0,1,,,,,,,,0,,,72,105
155070,note_on,6,0,3,,,,,,,,0,,,72,105
155094,note_on,24,0,3,,,,,,,,0,,,72,0
155094,note_on,24,0,1,,,,,,,,0,,,72,0
155100,note_on,6,0,3,,,,,,,,0,,,64,105
155100,note_on,6,0,1,,,,,,,,0,,,64,105
155124,note_on,24,0,1,,,,,,,,0,,,64,0
155124,note_on,24,0,3,,,,,,,,0,,,64,0
155130,note_on,6,0,3,,,,,,,,0,,,72,105
155130,note_on,6,0,1,,,,,,,,0,,,72,105
155136,note_on,96,0,5,,,,,,,,4,,,52,0
155136,note_on,96,0,7,,,,,,,,2,,,52,0
155154,note_on,24,0,3,,,,,,,,0,,,72,0
155154,note_on,24,0,1,,,,,,,,0,,,72,0
155160,note_on,6,0,1,,,,,,,,0,,,79,105
155160,note_on,24,0,5,,,,,,,,4,,,48,105
155160,note_on,24,0,7,,,,,,,,2,,,48,105
155160,note_on,6,0,3,,,,,,,,0,,,79,105
155232,note_on,0,0,7,,,,,,,,2,,,72,0
155232,note_on,72,0,7,,,,,,,,2,,,67,0
155256,note_on,96,0,3,,,,,,,,0,,,79,0
155256,note_on,96,0,1,,,,,,,,0,,,79,0
155256,note_on,96,0,5,,,,,,,,4,,,48,0
155256,note_on,24,0,7,,,,,,,,2,,,48,0
155280,note_on,0,0,7,,,,,,,,2,,,53,105
155280,note_on,24,0,3,,,,,,,,0,,,81,105
155280,note_on,0,0,7,,,,,,,,2,,,65,105
155280,note_on,0,0,7,,,,,,,,2,,,60,105
155280,note_on,24,0,5,,,,,,,,4,,,53,105
155280,note_on,24,0,1,,,,,,,,0,,,81,105
155280,note_on,24,0,7,,,,,,,,2,,,69,105
155304,note_on,24,0,3,,,,,,,,0,,,81,0
155304,note_on,24,0,1,,,,,,,,0,,,81,0
155310,note_on,6,0,3,,,,,,,,0,,,72,105
155310,note_on,6,0,1,,,,,,,,0,,,72,105
155334,note_on,24,0,3,,,,,,,,0,,,72,0
155334,note_on,24,0,1,,,,,,,,0,,,72,0
155340,note_on,6,0,3,,,,,,,,0,,,65,105
155340,note_on,6,0,1,,,,,,,,0,,,65,105
155364,note_on,24,0,3,,,,,,,,0,,,65,0
155364,note_on,24,0,1,,,,,,,,0,,,65,0
155370,note_on,6,0,3,,,,,,,,0,,,72,105
155370,note_on,6,0,1,,,,,,,,0,,,72,105
155376,note_on,96,0,5,,,,,,,,4,,,53,0
155376,note_on,0,0,7,,,,,,,,2,,,69,0
155376,note_on,96,0,7,,,,,,,,2,,,53,0
155394,note_on,24,0,3,,,,,,,,0,,,72,0
155394,note_on,24,0,1,,,,,,,,0,,,72,0
155400,note_on,24,0,7,,,,,,,,2,,,55,105
155400,note_on,0,0,7,,,,,,,,2,,,70,105
155400,note_on,24,0,5,,,,,,,,4,,,55,105
155400,note_on,6,0,3,,,,,,,,0,,,81,105
155400,note_on,6,0,1,,,,,,,,0,,,81,105
155472,note_on,0,0,7,,,,,,,,2,,,65,0
155472,note_on,72,0,7,,,,,,,,2,,,60,0
155496,note_on,96,0,3,,,,,,,,0,,,81,0
155496,note_on,96,0,5,,,,,,,,4,,,55,0
155496,note_on,24,0,7,,,,,,,,2,,,55,0
155496,note_on,0,0,7,,,,,,,,2,,,70,0
155496,note_on,96,0,1,,,,,,,,0,,,81,0
155520,note_on,24,0,3,,,,,,,,0,,,81,105
155520,note_on,24,0,7,,,,,,,,2,,,57,105
155520,note_on,0,0,7,,,,,,,,2,,,65,105
155520,note_on,24,0,1,,,,,,,,0,,,81,105
155520,note_on,0,0,7,,,,,,,,2,,,72,105
155520,note_on,24,0,5,,,,,,,,4,,,57,105
155544,note_on,24,0,1,,,,,,,,0,,,81,0
155544,note_on,24,0,3,,,,,,,,0,,,81,0
155550,note_on,6,0,1,,,,,,,,0,,,72,105
155550,note_on,6,0,3,,,,,,,,0,,,72,105
155574,note_on,24,0,1,,,,,,,,0,,,72,0
155574,note_on,24,0,3,,,,,,,,0,,,72,0
155580,note_on,6,0,1,,,,,,,,0,,,65,105
155580,note_on,6,0,3,,,,,,,,0,,,65,105
155604,note_on,24,0,1,,,,,,,,0,,,65,0
155604,note_on,24,0,3,,,,,,,,0,,,65,0
155610,note_on,6,0,3,,,,,,,,0,,,72,105
155610,note_on,6,0,1,,,,,,,,0,,,72,105
155616,note_on,96,0,7,,,,,,,,2,,,57,0
155616,note_on,96,0,5,,,,,,,,4,,,57,0
155634,note_on,24,0,1,,,,,,,,0,,,72,0
155634,note_on,24,0,3,,,,,,,,0,,,72,0
155640,note_on,6,0,3,,,,,,,,0,,,81,105
155640,note_on,24,0,5,,,,,,,,4,,,53,105
155640,note_on,6,0,1,,,,,,,,0,,,81,105
155640,note_on,24,0,7,,,,,,,,2,,,53,105
155712,note_on,0,0,7,,,,,,,,2,,,72,0
155712,note_on,72,0,7,,,,,,,,2,,,65,0
155736,note_on,96,0,3,,,,,,,,0,,,81,0
155736,note_on,96,0,5,,,,,,,,4,,,53,0
155736,note_on,24,0,7,,,,,,,,2,,,53,0
155736,note_on,96,0,1,,,,,,,,0,,,81,0
155760,note_on,24,0,3,,,,,,,,0,,,79,105
155760,note_on,24,0,5,,,,,,,,4,,,48,105
155760,note_on,0,0,7,,,,,,,,2,,,67,105
155760,note_on,24,0,7,,,,,,,,2,,,48,105
155760,note_on,0,0,7,,,,,,,,2,,,72,105
155760,note_on,0,0,7,,,,,,,,2,,,64,105
155760,note_on,24,0,1,,,,,,,,0,,,79,105
155784,note_on,24,0,1,,,,,,,,0,,,79,0
155784,note_on,24,0,3,,,,,,,,0,,,79,0
155790,note_on,6,0,1,,,,,,,,0,,,72,105
155790,note_on,6,0,3,,,,,,,,0,,,72,105
155814,note_on,24,0,1,,,,,,,,0,,,72,0
155814,note_on,24,0,3,,,,,,,,0,,,72,0
155820,note_on,6,0,3,,,,,,,,0,,,64,105
155820,note_on,6,0,1,,,,,,,,0,,,64,105
155844,note_on,24,0,3,,,,,,,,0,,,64,0
155844,note_on,24,0,1,,,,,,,,0,,,64,0
155850,note_on,6,0,1,,,,,,,,0,,,72,105
155850,note_on,6,0,3,,,,,,,,0,,,72,105
155856,note_on,96,0,5,,,,,,,,4,,,48,0
155856,note_on,96,0,7,,,,,,,,2,,,64,0
155856,note_on,0,0,7,,,,,,,,2,,,48,0
155874,note_on,24,0,3,,,,,,,,0,,,72,0
155874,note_on,24,0,1,,,,,,,,0,,,72,0
155880,note_on,6,0,1,,,,,,,,0,,,79,105
155880,note_on,6,0,3,,,,,,,,0,,,79,105
155880,note_on,0,0,7,,,,,,,,2,,,65,105
155880,note_on,24,0,5,,,,,,,,4,,,50,105
155880,note_on,24,0,7,,,,,,,,2,,,50,105
155952,note_on,0,0,7,,,,,,,,2,,,72,0
155952,note_on,72,0,7,,,,,,,,2,,,67,0
155976,note_on,96,0,3,,,,,,,,0,,,79,0
155976,note_on,96,0,5,,,,,,,,4,,,50,0
155976,note_on,96,0,1,,,,,,,,0,,,79,0
155976,note_on,24,0,7,,,,,,,,2,,,50,0
155976,note_on,0,0,7,,,,,,,,2,,,65,0
156000,note_on,24,0,5,,,,,,,,4,,,52,105
156000,note_on,0,0,7,,,,,,,,2,,,72,105
156000,note_on,24,0,7,,,,,,,,2,,,52,105
156000,note_on,24,0,1,,,,,,,,0,,,79,105
156000,note_on,24,0,3,,,,,,,,0,,,79,105
156024,note_on,24,0,3,,,,,,,,0,,,79,0
156024,note_on,24,0,1,,,,,,,,0,,,79,0
156030,note_on,6,0,1,,,,,,,,0,,,72,105
156030,note_on,6,0,3,,,,,,,,0,,,72,105
156054,note_on,24,0,3,,,,,,,,0,,,72,0
156054,note_on,24,0,1,,,,,,,,0,,,72,0
156060,note_on,6,0,1,,,,,,,,0,,,64,105
156060,note_on,6,0,3,,,,,,,,0,,,64,105
156084,note_on,24,0,3,,,,,,,,0,,,64,0
156084,note_on,24,0,1,,,,,,,,0,,,64,0
156090,note_on,6,0,3,,,,,,,,0,,,72,105
156090,note_on,6,0,1,,,,,,,,0,,,72,105
156096,note_on,96,0,7,,,,,,,,2,,,52,0
156096,note_on,96,0,5,,,,,,,,4,,,52,0
156114,note_on,24,0,3,,,,,,,,0,,,72,0
156114,note_on,24,0,1,,,,,,,,0,,,72,0
156120,note_on,6,0,1,,,,,,,,0,,,79,105
156120,note_on,6,0,3,,,,,,,,0,,,79,105
156120,note_on,24,0,7,,,,,,,,2,,,48,105
156120,note_on,24,0,5,,,,,,,,4,,,48,105
156192,note_on,72,0,7,,,,,,,,2,,,72,0
156216,note_on,96,0,3,,,,,,,,0,,,79,0
156216,note_on,96,0,5,,,,,,,,4,,,48,0
156216,note_on,24,0,7,,,,,,,,2,,,48,0
156216,note_on,96,0,1,,,,,,,,0,,,79,0
156240,note_on,24,0,5,,,,,,,,4,,,53,105
156240,note_on,24,0,1,,,,,,,,0,,,81,105
156240,note_on,24,0,7,,,,,,,,2,,,53,105
156240,note_on,0,0,7,,,,,,,,2,,,72,105
156240,note_on,0,0,7,,,,,,,,2,,,69,105
156240,note_on,24,0,3,,,,,,,,0,,,81,105
156264,note_on,24,0,1,,,,,,,,0,,,81,0
156264,note_on,24,0,3,,,,,,,,0,,,81,0
156270,note_on,6,0,1,,,,,,,,0,,,72,105
156270,note_on,6,0,3,,,,,,,,0,,,72,105
156294,note_on,24,0,1,,,,,,,,0,,,72,0
156294,note_on,24,0,3,,,,,,,,0,,,72,0
156300,note_on,6,0,1,,,,,,,,0,,,65,105
156300,note_on,6,0,3,,,,,,,,0,,,65,105
156324,note_on,24,0,3,,,,,,,,0,,,65,0
156324,note_on,24,0,1,,,,,,,,0,,,65,0
156330,note_on,6,0,3,,,,,,,,0,,,72,105
156330,note_on,6,0,1,,,,,,,,0,,,72,105
156336,note_on,96,0,5,,,,,,,,4,,,53,0
156336,note_on,96,0,7,,,,,,,,2,,,53,0
156354,note_on,24,0,1,,,,,,,,0,,,72,0
156354,note_on,24,0,3,,,,,,,,0,,,72,0
156360,note_on,24,0,7,,,,,,,,2,,,55,105
156360,note_on,6,0,3,,,,,,,,0,,,81,105
156360,note_on,6,0,1,,,,,,,,0,,,81,105
156360,note_on,24,0,5,,,,,,,,4,,,55,105
156432,note_on,0,0,7,,,,,,,,2,,,72,0
156432,note_on,72,0,7,,,,,,,,2,,,69,0
156456,note_on,24,0,7,,,,,,,,2,,,55,0
156456,note_on,96,0,5,,,,,,,,4,,,55,0
156456,note_on,96,0,1,,,,,,,,0,,,81,0
156456,note_on,96,0,3,,,,,,,,0,,,81,0
156480,note_on,0,0,7,,,,,,,,2,,,65,105
156480,note_on,24,0,7,,,,,,,,2,,,57,105
156480,note_on,0,0,7,,,,,,,,2,,,72,105
156480,note_on,24,0,3,,,,,,,,0,,,81,105
156480,note_on,24,0,5,,,,,,,,4,,,57,105
156480,note_on,24,0,1,,,,,,,,0,,,81,105
156504,note_on,24,0,1,,,,,,,,0,,,81,0
156504,note_on,24,0,3,,,,,,,,0,,,81,0
156510,note_on,6,0,3,,,,,,,,0,,,72,105
156510,note_on,6,0,1,,,,,,,,0,,,72,105
156534,note_on,24,0,3,,,,,,,,0,,,72,0
156534,note_on,24,0,1,,,,,,,,0,,,72,0
156540,note_on,6,0,3,,,,,,,,0,,,65,105
156540,note_on,6,0,1,,,,,,,,0,,,65,105
156564,note_on,24,0,3,,,,,,,,0,,,65,0
156564,note_on,24,0,1,,,,,,,,0,,,65,0
156570,note_on,6,0,3,,,,,,,,0,,,72,105
156570,note_on,6,0,1,,,,,,,,0,,,72,105
156576,note_on,96,0,7,,,,,,,,2,,,57,0
156576,note_on,96,0,5,,,,,,,,4,,,57,0
156594,note_on,24,0,3,,,,,,,,0,,,72,0
156594,note_on,24,0,1,,,,,,,,0,,,72,0
156600,note_on,24,0,5,,,,,,,,4,,,53,105
156600,note_on,6,0,3,,,,,,,,0,,,81,105
156600,note_on,6,0,1,,,,,,,,0,,,81,105
156600,note_on,24,0,7,,,,,,,,2,,,53,105
156672,note_on,72,0,7,,,,,,,,2,,,72,0
156672,note_on,0,0,7,,,,,,,,2,,,65,0
156696,note_on,96,0,1,,,,,,,,0,,,81,0
156696,note_on,24,0,7,,,,,,,,2,,,53,0
156696,note_on,96,0,5,,,,,,,,4,,,53,0
156696,note_on,96,0,3,,,,,,,,0,,,81,0
156720,note_on,0,0,7,,,,,,,,2,,,66,105
156720,note_on,0,0,7,,,,,,,,2,,,69,105
156720,note_on,0,0,7,,,,,,,,2,,,74,105
156720,note_on,24,0,5,,,,,,,,4,,,50,105
156720,note_on,24,0,3,,,,,,,,0,,,81,105
156720,note_on,24,0,7,,,,,,,,2,,,50,105
156720,note_on,24,0,1,,,,,,,,0,,,81,105
156744,note_on,24,0,3,,,,,,,,0,,,81,0
156744,note_on,24,0,1,,,,,,,,0,,,81,0
156750,note_on,6,0,1,,,,,,,,0,,,74,105
156750,note_on,6,0,3,,,,,,,,0,,,74,105
156774,note_on,24,0,1,,,,,,,,0,,,74,0
156774,note_on,24,0,3,,,,,,,,0,,,74,0
156780,note_on,6,0,1,,,,,,,,0,,,66,105
156780,note_on,6,0,3,,,,,,,,0,,,66,105
156804,note_on,24,0,1,,,,,,,,0,,,66,0
156804,note_on,24,0,3,,,,,,,,0,,,66,0
156810,note_on,6,0,3,,,,,,,,0,,,74,105
156810,note_on,6,0,1,,,,,,,,0,,,74,105
156816,note_on,96,0,5,,,,,,,,4,,,50,0
156816,note_on,0,0,7,,,,,,,,2,,,50,0
156816,note_on,96,0,7,,,,,,,,2,,,66,0
156834,note_on,24,0,1,,,,,,,,0,,,74,0
156834,note_on,24,0,3,,,,,,,,0,,,74,0
156840,note_on,24,0,7,,,,,,,,2,,,52,105
156840,note_on,6,0,3,,,,,,,,0,,,81,105
156840,note_on,0,0,7,,,,,,,,2,,,67,105
156840,note_on,6,0,1,,,,,,,,0,,,81,105
156840,note_on,24,0,5,,,,,,,,4,,,52,105
156912,note_on,72,0,7,,,,,,,,2,,,74,0
156912,note_on,0,0,7,,,,,,,,2,,,69,0
156936,note_on,96,0,1,,,,,,,,0,,,81,0
156936,note_on,96,0,5,,,,,,,,4,,,52,0
156936,note_on,96,0,3,,,,,,,,0,,,81,0
156936,note_on,24,0,7,,,,,,,,2,,,52,0
156936,note_on,0,0,7,,,,,,,,2,,,67,0
156960,note_on,24,0,1,,,,,,,,0,,,81,105
156960,note_on,0,0,7,,,,,,,,2,,,69,105
156960,note_on,0,0,7,,,,,,,,2,,,54,105
156960,note_on,24,0,5,,,,,,,,4,,,54,105
156960,note_on,24,0,3,,,,,,,,0,,,81,105
156960,note_on,24,0,7,,,,,,,,2,,,74,105
156984,note_on,24,0,3,,,,,,,,0,,,81,0
156984,note_on,24,0,1,,,,,,,,0,,,81,0
156990,note_on,6,0,1,,,,,,,,0,,,74,105
156990,note_on,6,0,3,,,,,,,,0,,,74,105
157014,note_on,24,0,1,,,,,,,,0,,,74,0
157014,note_on,24,0,3,,,,,,,,0,,,74,0
157020,note_on,6,0,3,,,,,,,,0,,,66,105
157020,note_on,6,0,1,,,,,,,,0,,,66,105
157044,note_on,24,0,1,,,,,,,,0,,,66,0
157044,note_on,24,0,3,,,,,,,,0,,,66,0
157050,note_on,6,0,1,,,,,,,,0,,,74,105
157050,note_on,6,0,3,,,,,,,,0,,,74,105
157056,note_on,96,0,7,,,,,,,,2,,,54,0
157056,note_on,96,0,5,,,,,,,,4,,,54,0
157074,note_on,24,0,1,,,,,,,,0,,,74,0
157074,note_on,24,0,3,,,,,,,,0,,,74,0
157080,note_on,24,0,5,,,,,,,,4,,,50,105
157080,note_on,6,0,1,,,,,,,,0,,,81,105
157080,note_on,24,0,7,,,,,,,,2,,,50,105
157080,note_on,6,0,3,,,,,,,,0,,,81,105
157152,note_on,72,0,7,,,,,,,,2,,,69,0
157152,note_on,0,0,7,,,,,,,,2,,,74,0
157176,note_on,96,0,3,,,,,,,,0,,,81,0
157176,note_on,96,0,1,,,,,,,,0,,,81,0
157176,note_on,96,0,5,,,,,,,,4,,,50,0
157176,note_on,24,0,7,,,,,,,,2,,,50,0
157200,note_on,24,0,1,,,,,,,,0,,,82,105
157200,note_on,24,0,3,,,,,,,,0,,,82,105
157200,note_on,0,0,7,,,,,,,,2,,,70,105
157200,note_on,24,0,5,,,,,,,,4,,,55,105
157200,note_on,0,0,7,,,,,,,,2,,,74,105
157200,note_on,24,0,7,,,,,,,,2,,,55,105
157224,note_on,24,0,3,,,,,,,,0,,,82,0
157224,note_on,24,0,1,,,,,,,,0,,,82,0
157230,note_on,6,0,3,,,,,,,,0,,,74,105
157230,note_on,6,0,1,,,,,,,,0,,,74,105
157254,note_on,24,0,3,,,,,,,,0,,,74,0
157254,note_on,24,0,1,,,,,,,,0,,,74,0
157260,note_on,6,0,3,,,,,,,,0,,,67,105
157260,note_on,6,0,1,,,,,,,,0,,,67,105
157284,note_on,24,0,3,,,,,,,,0,,,67,0
157284,note_on,24,0,1,,,,,,,,0,,,67,0
157290,note_on,6,0,3,,,,,,,,0,,,74,105
157290,note_on,6,0,1,,,,,,,,0,,,74,105
157296,note_on,96,0,5,,,,,,,,4,,,55,0
157296,note_on,96,0,7,,,,,,,,2,,,55,0
157314,note_on,24,0,1,,,,,,,,0,,,74,0
157314,note_on,24,0,3,,,,,,,,0,,,74,0
157320,note_on,6,0,1,,,,,,,,0,,,82,105
157320,note_on,24,0,7,,,,,,,,2,,,57,105
157320,note_on,6,0,3,,,,,,,,0,,,82,105
157320,note_on,24,0,5,,,,,,,,4,,,57,105
157392,note_on,72,0,7,,,,,,,,2,,,70,0
157392,note_on,0,0,7,,,,,,,,2,,,74,0
157416,note_on,24,0,7,,,,,,,,2,,,57,0
157416,note_on,96,0,5,,,,,,,,4,,,57,0
157416,note_on,96,0,3,,,,,,,,0,,,82,0
157416,note_on,96,0,1,,,,,,,,0,,,82,0
157440,note_on,24,0,5,,,,,,,,4,,,58,105
157440,note_on,0,0,7,,,,,,,,2,,,67,105
157440,note_on,0,0,7,,,,,,,,2,,,74,105
157440,note_on,24,0,1,,,,,,,,0,,,82,105
157440,note_on,24,0,3,,,,,,,,0,,,82,105
157440,note_on,24,0,7,,,,,,,,2,,,58,105
157464,note_on,24,0,1,,,,,,,,0,,,82,0
157464,note_on,24,0,3,,,,,,,,0,,,82,0
157470,note_on,6,0,3,,,,,,,,0,,,74,105
157470,note_on,6,0,1,,,,,,,,0,,,74,105
157494,note_on,24,0,3,,,,,,,,0,,,74,0
157494,note_on,24,0,1,,,,,,,,0,,,74,0
157500,note_on,6,0,1,,,,,,,,0,,,67,105
157500,note_on,6,0,3,,,,,,,,0,,,67,105
157524,note_on,24,0,1,,,,,,,,0,,,67,0
157524,note_on,24,0,3,,,,,,,,0,,,67,0
157530,note_on,6,0,1,,,,,,,,0,,,74,105
157530,note_on,6,0,3,,,,,,,,0,,,74,105
157536,note_on,96,0,7,,,,,,,,2,,,58,0
157536,note_on,96,0,5,,,,,,,,4,,,58,0
157554,note_on,24,0,1,,,,,,,,0,,,74,0
157554,note_on,24,0,3,,,,,,,,0,,,74,0
157560,note_on,6,0,1,,,,,,,,0,,,82,105
157560,note_on,24,0,5,,,,,,,,4,,,55,105
157560,note_on,24,0,7,,,,,,,,2,,,55,105
157560,note_on,6,0,3,,,,,,,,0,,,82,105
157632,note_on,0,0,7,,,,,,,,2,,,67,0
157632,note_on,72,0,7,,,,,,,,2,,,74,0
157656,note_on,24,0,7,,,,,,,,2,,,55,0
157656,note_on,96,0,5,,,,,,,,4,,,55,0
157656,note_on,96,0,1,,,,,,,,0,,,82,0
157656,note_on,96,0,3,,,,,,,,0,,,82,0
157680,note_on,24,0,7,,,,,,,,2,,,50,105
157680,note_on,0,0,7,,,,,,,,2,,,69,105
157680,note_on,0,0,7,,,,,,,,2,,,66,105
157680,note_on,0,0,7,,,,,,,,2,,,74,105
157680,note_on,24,0,5,,,,,,,,4,,,50,105
157680,note_on,24,0,3,,,,,,,,0,,,81,105
157680,note_on,24,0,1,,,,,,,,0,,,81,105
157704,note_on,24,0,1,,,,,,,,0,,,81,0
157704,note_on,24,0,3,,,,,,,,0,,,81,0
157710,note_on,6,0,1,,,,,,,,0,,,74,105
157710,note_on,6,0,3,,,,,,,,0,,,74,105
157734,note_on,24,0,3,,,,,,,,0,,,74,0
157734,note_on,24,0,1,,,,,,,,0,,,74,0
157740,note_on,6,0,1,,,,,,,,0,,,66,105
157740,note_on,6,0,3,,,,,,,,0,,,66,105
157764,note_on,24,0,3,,,,,,,,0,,,66,0
157764,note_on,24,0,1,,,,,,,,0,,,66,0
157770,note_on,6,0,3,,,,,,,,0,,,74,105
157770,note_on,6,0,1,,,,,,,,0,,,74,105
157776,note_on,96,0,5,,,,,,,,4,,,50,0
157776,note_on,0,0,7,,,,,,,,2,,,50,0
157776,note_on,96,0,7,,,,,,,,2,,,66,0
157794,note_on,24,0,1,,,,,,,,0,,,74,0
157794,note_on,24,0,3,,,,,,,,0,,,74,0
157800,note_on,24,0,5,,,,,,,,4,,,52,105
157800,note_on,6,0,1,,,,,,,,0,,,81,105
157800,note_on,6,0,3,,,,,,,,0,,,81,105
157800,note_on,0,0,7,,,,,,,,2,,,67,105
157800,note_on,24,0,7,,,,,,,,2,,,52,105
157872,note_on,72,0,7,,,,,,,,2,,,69,0
157872,note_on,0,0,7,,,,,,,,2,,,74,0
157896,note_on,24,0,7,,,,,,,,2,,,52,0
157896,note_on,96,0,5,,,,,,,,4,,,52,0
157896,note_on,96,0,3,,,,,,,,0,,,81,0
157896,note_on,0,0,7,,,,,,,,2,,,67,0
157896,note_on,96,0,1,,,,,,,,0,,,81,0
157920,note_on,24,0,5,,,,,,,,4,,,54,105
157920,note_on,24,0,3,,,,,,,,0,,,81,105
157920,note_on,0,0,7,,,,,,,,2,,,74,105
157920,note_on,24,0,1,,,,,,,,0,,,81,105
157920,note_on,24,0,7,,,,,,,,2,,,69,105
157920,note_on,0,0,7,,,,,,,,2,,,54,105
157944,note_on,24,0,1,,,,,,,,0,,,81,0
157944,note_on,24,0,3,,,,,,,,0,,,81,0
157950,note_on,6,0,1,,,,,,,,0,,,74,105
157950,note_on,6,0,3,,,,,,,,0,,,74,105
157974,note_on,24,0,3,,,,,,,,0,,,74,0
157974,note_on,24,0,1,,,,,,,,0,,,74,0
157980,note_on,6,0,3,,,,,,,,0,,,66,105
157980,note_on,6,0,1,,,,,,,,0,,,66,105
158004,note_on,24,0,1,,,,,,,,0,,,66,0
158004,note_on,24,0,3,,,,,,,,0,,,66,0
158010,note_on,6,0,1,,,,,,,,0,,,74,105
158010,note_on,6,0,3,,,,,,,,0,,,74,105
158016,note_on,96,0,7,,,,,,,,2,,,54,0
158016,note_on,96,0,5,,,,,,,,4,,,54,0
158034,note_on,24,0,1,,,,,,,,0,,,74,0
158034,note_on,24,0,3,,,,,,,,0,,,74,0
158040,note_on,6,0,1,,,,,,,,0,,,81,105
158040,note_on,6,0,3,,,,,,,,0,,,81,105
158040,note_on,24,0,7,,,,,,,,2,,,50,105
158040,note_on,24,0,5,,,,,,,,4,,,50,105
158112,note_on,0,0,7,,,,,,,,2,,,69,0
158112,note_on,72,0,7,,,,,,,,2,,,74,0
158136,note_on,96,0,3,,,,,,,,0,,,81,0
158136,note_on,24,0,7,,,,,,,,2,,,50,0
158136,note_on,96,0,5,,,,,,,,4,,,50,0
158136,note_on,96,0,1,,,,,,,,0,,,81,0
158160,note_on,24,0,3,,,,,,,,0,,,82,105
158160,note_on,0,0,7,,,,,,,,2,,,70,105
158160,note_on,0,0,7,,,,,,,,2,,,55,105
158160,note_on,24,0,7,,,,,,,,2,,,74,105
158160,note_on,24,0,5,,,,,,,,4,,,55,105
158160,note_on,24,0,1,,,,,,,,0,,,82,105
158184,note_on,24,0,1,,,,,,,,0,,,82,0
158184,note_on,24,0,3,,,,,,,,0,,,82,0
158190,note_on,6,0,1,,,,,,,,0,,,74,105
158190,note_on,6,0,3,,,,,,,,0,,,74,105
158214,note_on,24,0,1,,,,,,,,0,,,74,0
158214,note_on,24,0,3,,,,,,,,0,,,74,0
158220,note_on,6,0,1,,,,,,,,0,,,67,105
158220,note_on,6,0,3,,,,,,,,0,,,67,105
158244,note_on,24,0,1,,,,,,,,0,,,67,0
158244,note_on,24,0,3,,,,,,,,0,,,67,0
158250,note_on,6,0,1,,,,,,,,0,,,74,105
158250,note_on,6,0,3,,,,,,,,0,,,74,105
158256,note_on,96,0,5,,,,,,,,4,,,55,0
158256,note_on,96,0,7,,,,,,,,2,,,55,0
158274,note_on,24,0,3,,,,,,,,0,,,74,0
158274,note_on,24,0,1,,,,,,,,0,,,74,0
158280,note_on,24,0,7,,,,,,,,2,,,57,105
158280,note_on,6,0,3,,,,,,,,0,,,82,105
158280,note_on,6,0,1,,,,,,,,0,,,82,105
158280,note_on,24,0,5,,,,,,,,4,,,57,105
158352,note_on,0,0,7,,,,,,,,2,,,74,0
158352,note_on,72,0,7,,,,,,,,2,,,70,0
158376,note_on,96,0,1,,,,,,,,0,,,82,0
158376,note_on,96,0,3,,,,,,,,0,,,82,0
158376,note_on,96,0,5,,,,,,,,4,,,57,0
158376,note_on,24,0,7,,,,,,,,2,,,57,0
158400,note_on,24,0,7,,,,,,,,2,,,74,105
158400,note_on,0,0,7,,,,,,,,2,,,58,105
158400,note_on,0,0,7,,,,,,,,2,,,67,105
158400,note_on,24,0,1,,,,,,,,0,,,82,105
158400,note_on,24,0,3,,,,,,,,0,,,82,105
158400,note_on,24,0,5,,,,,,,,4,,,58,105
158424,note_on,24,0,1,,,,,,,,0,,,82,0
158424,note_on,24,0,3,,,,,,,,0,,,82,0
158430,note_on,6,0,3,,,,,,,,0,,,74,105
158430,note_on,6,0,1,,,,,,,,0,,,74,105
158454,note_on,24,0,3,,,,,,,,0,,,74,0
158454,note_on,24,0,1,,,,,,,,0,,,74,0
158460,note_on,6,0,3,,,,,,,,0,,,67,105
158460,note_on,6,0,1,,,,,,,,0,,,67,105
158484,note_on,24,0,1,,,,,,,,0,,,67,0
158484,note_on,24,0,3,,,,,,,,0,,,67,0
158490,note_on,6,0,1,,,,,,,,0,,,74,105
158490,note_on,6,0,3,,,,,,,,0,,,74,105
158496,note_on,96,0,7,,,,,,,,2,,,58,0
158496,note_on,96,0,5,,,,,,,,4,,,58,0
158514,note_on,24,0,3,,,,,,,,0,,,74,0
158514,note_on,24,0,1,,,,,,,,0,,,74,0
158520,note_on,24,0,7,,,,,,,,2,,,55,105
158520,note_on,6,0,1,,,,,,,,0,,,82,105
158520,note_on,24,0,5,,,,,,,,4,,,55,105
158520,note_on,6,0,3,,,,,,,,0,,,82,105
158592,note_on,72,0,7,,,,,,,,2,,,67,0
158592,note_on,0,0,7,,,,,,,,2,,,74,0
158616,note_on,96,0,5,,,,,,,,4,,,55,0
158616,note_on,96,0,1,,,,,,,,0,,,82,0
158616,note_on,24,0,7,,,,,,,,2,,,55,0
158616,note_on,96,0,3,,,,,,,,0,,,82,0
158640,note_on,24,0,3,,,,,,,,0,,,82,105
158640,note_on,24,0,1,,,,,,,,0,,,82,105
158640,note_on,0,0,7,,,,,,,,2,,,70,105
158640,note_on,0,0,7,,,,,,,,2,,,67,105
158640,note_on,0,0,7,,,,,,,,2,,,49,105
158640,note_on,24,0,7,,,,,,,,2,,,76,105
158640,note_on,24,0,5,,,,,,,,4,,,49,105
158664,note_on,24,0,3,,,,,,,,0,,,82,0
158664,note_on,24,0,1,,,,,,,,0,,,82,0
158670,note_on,6,0,3,,,,,,,,0,,,73,105
158670,note_on,6,0,1,,,,,,,,0,,,73,105
158694,note_on,24,0,3,,,,,,,,0,,,73,0
158694,note_on,24,0,1,,,,,,,,0,,,73,0
158700,note_on,6,0,3,,,,,,,,0,,,67,105
158700,note_on,6,0,1,,,,,,,,0,,,67,105
158724,note_on,24,0,3,,,,,,,,0,,,67,0
158724,note_on,24,0,1,,,,,,,,0,,,67,0
158730,note_on,6,0,1,,,,,,,,0,,,73,105
158730,note_on,6,0,3,,,,,,,,0,,,73,105
158736,note_on,96,0,5,,,,,,,,4,,,49,0
158736,note_on,96,0,7,,,,,,,,2,,,49,0
158754,note_on,24,0,3,,,,,,,,0,,,73,0
158754,note_on,24,0,1,,,,,,,,0,,,73,0
158760,note_on,6,0,3,,,,,,,,0,,,82,105
158760,note_on,6,0,1,,,,,,,,0,,,82,105
158760,note_on,24,0,7,,,,,,,,2,,,50,105
158760,note_on,24,0,5,,,,,,,,4,,,50,105
158832,note_on,0,0,7,,,,,,,,2,,,67,0
158832,note_on,72,0,7,,,,,,,,2,,,76,0
158832,note_on,0,0,7,,,,,,,,2,,,70,0
158856,note_on,96,0,5,,,,,,,,4,,,50,0
158856,note_on,96,0,3,,,,,,,,0,,,82,0
158856,note_on,24,0,7,,,,,,,,2,,,50,0
158856,note_on,96,0,1,,,,,,,,0,,,82,0
158880,note_on,0,0,7,,,,,,,,2,,,73,105
158880,note_on,24,0,7,,,,,,,,2,,,52,105
158880,note_on,24,0,5,,,,,,,,4,,,52,105
158880,note_on,0,0,7,,,,,,,,2,,,70,105
158880,note_on,24,0,1,,,,,,,,0,,,82,105
158880,note_on,0,0,7,,,,,,,,2,,,67,105
158880,note_on,24,0,3,,,,,,,,0,,,82,105
158904,note_on,24,0,3,,,,,,,,0,,,82,0
158904,note_on,24,0,1,,,,,,,,0,,,82,0
158910,note_on,6,0,1,,,,,,,,0,,,73,105
158910,note_on,6,0,3,,,,,,,,0,,,73,105
158934,note_on,24,0,1,,,,,,,,0,,,73,0
158934,note_on,24,0,3,,,,,,,,0,,,73,0
158940,note_on,6,0,3,,,,,,,,0,,,67,105
158940,note_on,6,0,1,,,,,,,,0,,,67,105
158964,note_on,24,0,3,,,,,,,,0,,,67,0
158964,note_on,24,0,1,,,,,,,,0,,,67,0
158970,note_on,6,0,3,,,,,,,,0,,,73,105
158970,note_on,6,0,1,,,,,,,,0,,,73,105
158976,note_on,96,0,5,,,,,,,,4,,,52,0
158976,note_on,96,0,7,,,,,,,,2,,,52,0
158994,note_on,24,0,1,,,,,,,,0,,,73,0
158994,note_on,24,0,3,,,,,,,,0,,,73,0
159000,note_on,6,0,3,,,,,,,,0,,,82,105
159000,note_on,6,0,1,,,,,,,,0,,,82,105
159000,note_on,24,0,7,,,,,,,,2,,,49,105
159000,note_on,24,0,5,,,,,,,,4,,,49,105
159072,note_on,0,0,7,,,,,,,,2,,,70,0
159072,note_on,0,0,7,,,,,,,,2,,,67,0
159072,note_on,72,0,7,,,,,,,,2,,,73,0
159096,note_on,24,0,7,,,,,,,,2,,,49,0
159096,note_on,96,0,3,,,,,,,,0,,,82,0
159096,note_on,96,0,5,,,,,,,,4,,,49,0
159096,note_on,96,0,1,,,,,,,,0,,,82,0
159120,note_on,0,0,7,,,,,,,,2,,,73,105
159120,note_on,0,0,7,,,,,,,,2,,,64,105
159120,note_on,24,0,5,,,,,,,,4,,,45,105
159120,note_on,0,0,7,,,,,,,,2,,,67,105
159120,note_on,24,0,3,,,,,,,,0,,,79,105
159120,note_on,24,0,7,,,,,,,,2,,,45,105
159120,note_on,24,0,1,,,,,,,,0,,,79,105
159144,note_on,24,0,1,,,,,,,,0,,,79,0
159144,note_on,24,0,3,,,,,,,,0,,,79,0
159150,note_on,6,0,3,,,,,,,,0,,,74,105
159150,note_on,6,0,1,,,,,,,,0,,,74,105
159174,note_on,24,0,3,,,,,,,,0,,,74,0
159174,note_on,24,0,1,,,,,,,,0,,,74,0
159180,note_on,6,0,1,,,,,,,,0,,,64,105
159180,note_on,6,0,3,,,,,,,,0,,,64,105
159204,note_on,24,0,3,,,,,,,,0,,,64,0
159204,note_on,24,0,1,,,,,,,,0,,,64,0
159210,note_on,6,0,1,,,,,,,,0,,,74,105
159210,note_on,6,0,3,,,,,,,,0,,,74,105
159216,note_on,96,0,7,,,,,,,,2,,,73,0
159216,note_on,96,0,5,,,,,,,,4,,,45,0
159216,note_on,0,0,7,,,,,,,,2,,,45,0
159234,note_on,24,0,3,,,,,,,,0,,,74,0
159234,note_on,24,0,1,,,,,,,,0,,,74,0
159240,note_on,24,0,7,,,,,,,,2,,,47,105
159240,note_on,0,0,7,,,,,,,,2,,,74,105
159240,note_on,24,0,5,,,,,,,,4,,,47,105
159240,note_on,6,0,3,,,,,,,,0,,,79,105
159240,note_on,6,0,1,,,,,,,,0,,,79,105
159336,note_on,96,0,7,,,,,,,,2,,,74,0
159336,note_on,96,0,5,,,,,,,,4,,,47,0
159336,note_on,0,0,7,,,,,,,,2,,,47,0
159336,note_on,96,0,1,,,,,,,,0,,,79,0
159336,note_on,96,0,3,,,,,,,,0,,,79,0
159360,note_on,0,0,7,,,,,,,,2,,,49,105
159360,note_on,24,0,5,,,,,,,,4,,,49,105
159360,note_on,24,0,7,,,,,,,,2,,,76,105
159360,note_on,24,0,1,,,,,,,,0,,,79,105
159360,note_on,24,0,3,,,,,,,,0,,,79,105
159384,note_on,24,0,3,,,,,,,,0,,,79,0
159384,note_on,24,0,1,,,,,,,,0,,,79,0
159390,note_on,6,0,3,,,,,,,,0,,,74,105
159390,note_on,6,0,1,,,,,,,,0,,,74,105
159414,note_on,24,0,3,,,,,,,,0,,,74,0
159414,note_on,24,0,1,,,,,,,,0,,,74,0
159420,note_on,6,0,3,,,,,,,,0,,,64,105
159420,note_on,6,0,1,,,,,,,,0,,,64,105
159444,note_on,24,0,1,,,,,,,,0,,,64,0
159444,note_on,24,0,3,,,,,,,,0,,,64,0
159450,note_on,6,0,1,,,,,,,,0,,,74,105
159450,note_on,6,0,3,,,,,,,,0,,,74,105
159456,note_on,96,0,7,,,,,,,,2,,,49,0
159456,note_on,96,0,5,,,,,,,,4,,,49,0
159474,note_on,24,0,1,,,,,,,,0,,,74,0
159474,note_on,24,0,3,,,,,,,,0,,,74,0
159480,note_on,24,0,5,,,,,,,,4,,,45,105
159480,note_on,6,0,3,,,,,,,,0,,,79,105
159480,note_on,24,0,7,,,,,,,,2,,,45,105
159480,note_on,6,0,1,,,,,,,,0,,,79,105
159504,note_on,24,0,7,,,,,,,,2,,,67,0
159504,note_on,0,0,7,,,,,,,,2,,,64,0
159552,note_on,48,0,7,,,,,,,,2,,,76,0
159576,note_on,96,0,3,,,,,,,,0,,,79,0
159576,note_on,96,0,5,,,,,,,,4,,,45,0
159576,note_on,96,0,1,,,,,,,,0,,,79,0
159576,note_on,24,0,7,,,,,,,,2,,,45,0
159600,note_on,24,0,3,,,,,,,,0,,,77,105
159600,note_on,24,0,5,,,,,,,,4,,,50,105
159600,note_on,24,0,7,,,,,,,,2,,,69,105
159600,note_on,0,0,7,,,,,,,,2,,,65,105
159600,note_on,0,0,7,,,,,,,,2,,,50,105
159600,note_on,0,0,7,,,,,,,,2,,,74,105
159600,note_on,24,0,1,,,,,,,,0,,,77,105
159624,note_on,24,0,3,,,,,,,,0,,,77,0
159624,note_on,24,0,1,,,,,,,,0,,,77,0
159630,note_on,6,0,1,,,,,,,,0,,,74,105
159630,note_on,6,0,3,,,,,,,,0,,,74,105
159654,note_on,24,0,1,,,,,,,,0,,,74,0
159654,note_on,24,0,3,,,,,,,,0,,,74,0
159660,note_on,6,0,1,,,,,,,,0,,,62,105
159660,note_on,6,0,3,,,,,,,,0,,,62,105
159684,note_on,24,0,3,,,,,,,,0,,,62,0
159684,note_on,24,0,1,,,,,,,,0,,,62,0
159690,note_on,6,0,3,,,,,,,,0,,,74,105
159690,note_on,6,0,1,,,,,,,,0,,,74,105
159696,note_on,96,0,7,,,,,,,,2,,,50,0
159696,note_on,96,0,5,,,,,,,,4,,,50,0
159714,note_on,24,0,3,,,,,,,,0,,,74,0
159714,note_on,24,0,1,,,,,,,,0,,,74,0
159720,note_on,24,0,5,,,,,,,,4,,,52,105
159720,note_on,6,0,1,,,,,,,,0,,,77,105
159720,note_on,24,0,7,,,,,,,,2,,,52,105
159720,note_on,6,0,3,,,,,,,,0,,,77,105
159792,note_on,72,0,7,,,,,,,,2,,,69,0
159792,note_on,0,0,7,,,,,,,,2,,,74,0
159792,note_on,0,0,7,,,,,,,,2,,,65,0
159816,note_on,96,0,1,,,,,,,,0,,,77,0
159816,note_on,24,0,7,,,,,,,,2,,,52,0
159816,note_on,96,0,3,,,,,,,,0,,,77,0
159816,note_on,96,0,5,,,,,,,,4,,,52,0
159840,note_on,24,0,3,,,,,,,,0,,,77,105
159840,note_on,24,0,5,,,,,,,,4,,,53,105
159840,note_on,0,0,7,,,,,,,,2,,,53,105
159840,note_on,24,0,1,,,,,,,,0,,,77,105
159840,note_on,24,0,7,,,,,,,,2,,,74,105
159840,note_on,0,0,7,,,,,,,,2,,,69,105
159840,note_on,0,0,7,,,,,,,,2,,,62,105
159864,note_on,24,0,3,,,,,,,,0,,,77,0
159864,note_on,24,0,1,,,,,,,,0,,,77,0
159870,note_on,6,0,1,,,,,,,,0,,,74,105
159870,note_on,6,0,3,,,,,,,,0,,,74,105
159894,note_on,24,0,1,,,,,,,,0,,,74,0
159894,note_on,24,0,3,,,,,,,,0,,,74,0
159900,note_on,6,0,3,,,,,,,,0,,,62,105
159900,note_on,6,0,1,,,,,,,,0,,,62,105
159924,note_on,24,0,1,,,,,,,,0,,,62,0
159924,note_on,24,0,3,,,,,,,,0,,,62,0
159930,note_on,6,0,1,,,,,,,,0,,,74,105
159930,note_on,6,0,3,,,,,,,,0,,,74,105
159936,note_on,96,0,7,,,,,,,,2,,,53,0
159936,note_on,96,0,5,,,,,,,,4,,,53,0
159954,note_on,24,0,1,,,,,,,,0,,,74,0
159954,note_on,24,0,3,,,,,,,,0,,,74,0
159960,note_on,24,0,7,,,,,,,,2,,,50,105
159960,note_on,6,0,3,,,,,,,,0,,,77,105
159960,note_on,24,0,5,,,,,,,,4,,,50,105
159960,note_on,6,0,1,,,,,,,,0,,,77,105
160032,note_on,72,0,7,,,,,,,,2,,,74,0
160032,note_on,0,0,7,,,,,,,,2,,,62,0
160032,note_on,0,0,7,,,,,,,,2,,,69,0
160056,note_on,96,0,1,,,,,,,,0,,,77,0
160056,note_on,96,0,3,,,,,,,,0,,,77,0
160056,note_on,96,0,5,,,,,,,,4,,,50,0
160056,note_on,24,0,7,,,,,,,,2,,,50,0
160080,note_on,24,0,7,,,,,,,,2,,,45,105
160080,note_on,0,0,7,,,,,,,,2,,,73,105
160080,note_on,24,0,5,,,,,,,,4,,,45,105
160080,note_on,0,0,7,,,,,,,,2,,,64,105
160080,note_on,24,0,3,,,,,,,,0,,,76,105
160080,note_on,0,0,7,,,,,,,,2,,,69,105
160080,note_on,24,0,1,,,,,,,,0,,,76,105
160104,note_on,24,0,3,,,,,,,,0,,,76,0
160104,note_on,24,0,1,,,,,,,,0,,,76,0
160110,note_on,6,0,1,,,,,,,,0,,,73,105
160110,note_on,6,0,3,,,,,,,,0,,,73,105
160134,note_on,24,0,1,,,,,,,,0,,,73,0
160134,note_on,24,0,3,,,,,,,,0,,,73,0
160140,note_on,6,0,3,,,,,,,,0,,,69,105
160140,note_on,6,0,1,,,,,,,,0,,,69,105
160164,note_on,24,0,1,,,,,,,,0,,,69,0
160164,note_on,24,0,3,,,,,,,,0,,,69,0
160170,note_on,6,0,3,,,,,,,,0,,,73,105
160170,note_on,6,0,1,,,,,,,,0,,,73,105
160176,note_on,96,0,5,,,,,,,,4,,,45,0
160176,note_on,0,0,7,,,,,,,,2,,,45,0
160176,note_on,96,0,7,,,,,,,,2,,,73,0
160194,note_on,24,0,3,,,,,,,,0,,,73,0
160194,note_on,24,0,1,,,,,,,,0,,,73,0
160200,note_on,6,0,1,,,,,,,,0,,,76,105
160200,note_on,0,0,7,,,,,,,,2,,,47,105
160200,note_on,6,0,3,,,,,,,,0,,,76,105
160200,note_on,24,0,5,,,,,,,,4,,,47,105
160200,note_on,24,0,7,,,,,,,,2,,,74,105
160296,note_on,96,0,7,,,,,,,,2,,,47,0
160296,note_on,0,0,7,,,,,,,,2,,,74,0
160296,note_on,96,0,5,,,,,,,,4,,,47,0
160296,note_on,96,0,1,,,,,,,,0,,,76,0
160296,note_on,96,0,3,,,,,,,,0,,,76,0
160320,note_on,24,0,3,,,,,,,,0,,,76,105
160320,note_on,0,0,7,,,,,,,,2,,,76,105
160320,note_on,24,0,1,,,,,,,,0,,,76,105
160320,note_on,24,0,7,,,,,,,,2,,,49,105
160320,note_on,24,0,5,,,,,,,,4,,,49,105
160344,note_on,24,0,1,,,,,,,,0,,,76,0
160344,note_on,24,0,3,,,,,,,,0,,,76,0
160350,note_on,6,0,3,,,,,,,,0,,,73,105
160350,note_on,6,0,1,,,,,,,,0,,,73,105
160374,note_on,24,0,3,,,,,,,,0,,,73,0
160374,note_on,24,0,1,,,,,,,,0,,,73,0
160380,note_on,6,0,1,,,,,,,,0,,,69,105
160380,note_on,6,0,3,,,,,,,,0,,,69,105
160404,note_on,24,0,1,,,,,,,,0,,,69,0
160404,note_on,24,0,3,,,,,,,,0,,,69,0
160410,note_on,6,0,3,,,,,,,,0,,,73,105
160410,note_on,6,0,1,,,,,,,,0,,,73,105
160416,note_on,96,0,5,,,,,,,,4,,,49,0
160416,note_on,96,0,7,,,,,,,,2,,,49,0
160434,note_on,24,0,3,,,,,,,,0,,,73,0
160434,note_on,24,0,1,,,,,,,,0,,,73,0
160440,note_on,6,0,1,,,,,,,,0,,,76,105
160440,note_on,24,0,5,,,,,,,,4,,,45,105
160440,note_on,6,0,3,,,,,,,,0,,,76,105
160440,note_on,24,0,7,,,,,,,,2,,,45,105
160464,note_on,24,0,7,,,,,,,,2,,,69,0
160464,note_on,0,0,7,,,,,,,,2,,,64,0
160512,note_on,48,0,7,,,,,,,,2,,,76,0
160536,note_on,24,0,7,,,,,,,,2,,,45,0
160536,note_on,96,0,1,,,,,,,,0,,,76,0
160536,note_on,96,0,5,,,,,,,,4,,,45,0
160536,note_on,96,0,3,,,,,,,,0,,,76,0
160560,note_on,24,0,3,,,,,,,,0,,,77,105
160560,note_on,24,0,5,,,,,,,,4,,,50,105
160560,note_on,24,0,7,,,,,,,,2,,,74,105
160560,note_on,0,0,7,,,,,,,,2,,,50,105
160560,note_on,0,0,7,,,,,,,,2,,,69,105
160560,note_on,0,0,7,,,,,,,,2,,,65,105
160560,note_on,24,0,1,,,,,,,,0,,,77,105
160584,note_on,24,0,3,,,,,,,,0,,,77,0
160584,note_on,24,0,1,,,,,,,,0,,,77,0
160590,note_on,6,0,1,,,,,,,,0,,,74,105
160590,note_on,6,0,3,,,,,,,,0,,,74,105
160614,note_on,24,0,1,,,,,,,,0,,,74,0
160614,note_on,24,0,3,,,,,,,,0,,,74,0
160620,note_on,6,0,1,,,,,,,,0,,,62,105
160620,note_on,6,0,3,,,,,,,,0,,,62,105
160644,note_on,24,0,3,,,,,,,,0,,,62,0
160644,note_on,24,0,1,,,,,,,,0,,,62,0
160650,note_on,6,0,1,,,,,,,,0,,,74,105
160650,note_on,6,0,3,,,,,,,,0,,,74,105
160656,note_on,96,0,7,,,,,,,,2,,,50,0
160656,note_on,96,0,5,,,,,,,,4,,,50,0
160674,note_on,24,0,3,,,,,,,,0,,,74,0
160674,note_on,24,0,1,,,,,,,,0,,,74,0
160680,note_on,24,0,5,,,,,,,,4,,,52,105
160680,note_on,24,0,7,,,,,,,,2,,,52,105
160680,note_on,6,0,3,,,,,,,,0,,,77,105
160680,note_on,6,0,1,,,,,,,,0,,,77,105
160752,note_on,0,0,7,,,,,,,,2,,,69,0
160752,note_on,72,0,7,,,,,,,,2,,,74,0
160752,note_on,0,0,7,,,,,,,,2,,,65,0
160776,note_on,96,0,3,,,,,,,,0,,,77,0
160776,note_on,96,0,1,,,,,,,,0,,,77,0
160776,note_on,24,0,7,,,,,,,,2,,,52,0
160776,note_on,96,0,5,,,,,,,,4,,,52,0
160800,note_on,24,0,7,,,,,,,,2,,,62,105
160800,note_on,24,0,3,,,,,,,,0,,,77,105
160800,note_on,0,0,7,,,,,,,,2,,,53,105
160800,note_on,0,0,7,,,,,,,,2,,,74,105
160800,note_on,24,0,1,,,,,,,,0,,,77,105
160800,note_on,24,0,5,,,,,,,,4,,,53,105
160824,note_on,24,0,3,,,,,,,,0,,,77,0
160824,note_on,24,0,1,,,,,,,,0,,,77,0
160830,note_on,6,0,1,,,,,,,,0,,,74,105
160830,note_on,6,0,3,,,,,,,,0,,,74,105
160854,note_on,24,0,1,,,,,,,,0,,,74,0
160854,note_on,24,0,3,,,,,,,,0,,,74,0
160860,note_on,6,0,3,,,,,,,,0,,,62,105
160860,note_on,6,0,1,,,,,,,,0,,,62,105
160884,note_on,24,0,3,,,,,,,,0,,,62,0
160884,note_on,24,0,1,,,,,,,,0,,,62,0
160890,note_on,6,0,3,,,,,,,,0,,,74,105
160890,note_on,6,0,1,,,,,,,,0,,,74,105
160896,note_on,96,0,7,,,,,,,,2,,,53,0
160896,note_on,96,0,5,,,,,,,,4,,,53,0
160914,note_on,24,0,1,,,,,,,,0,,,74,0
160914,note_on,24,0,3,,,,,,,,0,,,74,0
160920,note_on,6,0,1,,,,,,,,0,,,77,105
160920,note_on,24,0,5,,,,,,,,4,,,50,105
160920,note_on,6,0,3,,,,,,,,0,,,77,105
160920,note_on,24,0,7,,,,,,,,2,,,50,105
160992,note_on,72,0,7,,,,,,,,2,,,74,0
160992,note_on,0,0,7,,,,,,,,2,,,62,0
161016,note_on,96,0,5,,,,,,,,4,,,50,0
161016,note_on,24,0,7,,,,,,,,2,,,50,0
161016,note_on,96,0,1,,,,,,,,0,,,77,0
161016,note_on,96,0,3,,,,,,,,0,,,77,0
161040,note_on,24,0,5,,,,,,,,4,,,45,105
161040,note_on,0,0,7,,,,,,,,2,,,64,105
161040,note_on,0,0,7,,,,,,,,2,,,69,105
161040,note_on,0,0,7,,,,,,,,2,,,45,105
161040,note_on,24,0,7,,,,,,,,2,,,73,105
161040,note_on,24,0,1,,,,,,,,0,,,76,105
161040,note_on,24,0,3,,,,,,,,0,,,76,105
161064,note_on,24,0,1,,,,,,,,0,,,76,0
161064,note_on,24,0,3,,,,,,,,0,,,76,0
161070,note_on,6,0,3,,,,,,,,0,,,73,105
161070,note_on,6,0,1,,,,,,,,0,,,73,105
161094,note_on,24,0,3,,,,,,,,0,,,73,0
161094,note_on,24,0,1,,,,,,,,0,,,73,0
161100,note_on,6,0,3,,,,,,,,0,,,69,105
161100,note_on,6,0,1,,,,,,,,0,,,69,105
161124,note_on,24,0,3,,,,,,,,0,,,69,0
161124,note_on,24,0,1,,,,,,,,0,,,69,0
161130,note_on,6,0,3,,,,,,,,0,,,73,105
161130,note_on,6,0,1,,,,,,,,0,,,73,105
161136,note_on,0,0,7,,,,,,,,2,,,73,0
161136,note_on,96,0,5,,,,,,,,4,,,45,0
161136,note_on,96,0,7,,,,,,,,2,,,45,0
161154,note_on,24,0,1,,,,,,,,0,,,73,0
161154,note_on,24,0,3,,,,,,,,0,,,73,0
161160,note_on,0,0,7,,,,,,,,2,,,47,105
161160,note_on,6,0,3,,,,,,,,0,,,76,105
161160,note_on,6,0,1,,,,,,,,0,,,76,105
161160,note_on,24,0,7,,,,,,,,2,,,74,105
161160,note_on,24,0,5,,,,,,,,4,,,47,105
161256,note_on,96,0,3,,,,,,,,0,,,76,0
161256,note_on,96,0,7,,,,,,,,2,,,47,0
161256,note_on,96,0,1,,,,,,,,0,,,76,0
161256,note_on,0,0,7,,,,,,,,2,,,74,0
161256,note_on,96,0,5,,,,,,,,4,,,47,0
161280,note_on,24,0,7,,,,,,,,2,,,76,105
161280,note_on,0,0,7,,,,,,,,2,,,49,105
161280,note_on,24,0,3,,,,,,,,0,,,76,105
161280,note_on,24,0,1,,,,,,,,0,,,76,105
161280,note_on,24,0,5,,,,,,,,4,,,49,105
161304,note_on,24,0,3,,,,,,,,0,,,76,0
161304,note_on,24,0,1,,,,,,,,0,,,76,0
161310,note_on,6,0,1,,,,,,,,0,,,73,105
161310,note_on,6,0,3,,,,,,,,0,,,73,105
161334,note_on,24,0,3,,,,,,,,0,,,73,0
161334,note_on,24,0,1,,,,,,,,0,,,73,0
161340,note_on,6,0,1,,,,,,,,0,,,69,105
161340,note_on,6,0,3,,,,,,,,0,,,69,105
161364,note_on,24,0,3,,,,,,,,0,,,69,0
161364,note_on,24,0,1,,,,,,,,0,,,69,0
161370,note_on,6,0,3,,,,,,,,0,,,73,105
161370,note_on,6,0,1,,,,,,,,0,,,73,105
161376,note_on,96,0,7,,,,,,,,2,,,49,0
161376,note_on,96,0,5,,,,,,,,4,,,49,0
161394,note_on,24,0,3,,,,,,,,0,,,73,0
161394,note_on,24,0,1,,,,,,,,0,,,73,0
161400,note_on,6,0,1,,,,,,,,0,,,76,105
161400,note_on,24,0,7,,,,,,,,2,,,45,105
161400,note_on,6,0,3,,,,,,,,0,,,76,105
161400,note_on,24,0,5,,,,,,,,4,,,45,105
161424,note_on,24,0,7,,,,,,,,2,,,64,0
161424,note_on,0,0,7,,,,,,,,2,,,69,0
161472,note_on,48,0,7,,,,,,,,2,,,76,0
161496,note_on,24,0,7,,,,,,,,2,,,45,0
161496,note_on,96,0,3,,,,,,,,0,,,76,0
161496,note_on,96,0,1,,,,,,,,0,,,76,0
161496,note_on,96,0,5,,,,,,,,4,,,45,0
161520,note_on,0,0,7,,,,,,,,2,,,38,105
161520,note_on,9888,0,6,,,,,,,,5,,,26,105
161520,note_on,7008,0,4,,,,,,,,3,,,69,72
161520,note_on,0,0,7,,,,,,,,2,,,65,105
161520,note_on,24,0,3,,,,,,,,0,,,74,105
161520,note_on,24,0,1,,,,,,,,0,,,74,105
161520,note_on,24,0,7,,,,,,,,2,,,74,105
161520,note_on,7008,0,2,,,,,,,,1,,,74,105
161520,note_on,0,0,7,,,,,,,,2,,,62,105
161520,note_on,24,0,5,,,,,,,,4,,,38,105
161616,note_on,96,0,6,,,,,,,,5,,,26,0
161616,note_on,96,0,7,,,,,,,,2,,,38,0
161616,note_on,96,0,4,,,,,,,,3,,,69,0
161616,note_on,96,0,5,,,,,,,,4,,,38,0
161640,note_on,24,0,7,,,,,,,,2,,,50,105
161640,note_on,24,0,6,,,,,,,,5,,,38,105
161640,note_on,24,0,5,,,,,,,,4,,,50,105
161640,note_on,24,0,4,,,,,,,,3,,,65,72
161712,note_on,0,0,7,,,,,,,,2,,,65,0
161712,note_on,72,0,7,,,,,,,,2,,,74,0
161712,note_on,192,0,3,,,,,,,,0,,,74,0
161712,note_on,192,0,1,,,,,,,,0,,,74,0
161712,note_on,0,0,7,,,,,,,,2,,,62,0
161712,note_on,192,0,2,,,,,,,,1,,,74,0
161736,note_on,96,0,5,,,,,,,,4,,,50,0
161736,note_on,96,0,6,,,,,,,,5,,,38,0
161736,note_on,24,0,7,,,,,,,,2,,,50,0
161736,note_on,96,0,4,,,,,,,,3,,,65,0
161760,note_on,24,0,6,,,,,,,,5,,,37,105
161760,note_on,24,0,4,,,,,,,,3,,,64,72
161760,note_on,24,0,5,,,,,,,,4,,,49,105
161760,note_on,0,0,7,,,,,,,,2,,,49,105
161760,note_on,48,0,2,,,,,,,,1,,,76,105
161760,note_on,0,0,7,,,,,,,,2,,,64,105
161760,note_on,48,0,1,,,,,,,,0,,,76,105
161760,note_on,24,0,7,,,,,,,,2,,,69,105
161760,note_on,48,0,3,,,,,,,,0,,,76,105
161856,note_on,96,0,5,,,,,,,,4,,,49,0
161856,note_on,96,0,4,,,,,,,,3,,,64,0
161856,note_on,96,0,7,,,,,,,,2,,,49,0
161856,note_on,96,0,6,,,,,,,,5,,,37,0
161880,note_on,24,0,5,,,,,,,,4,,,45,105
161880,note_on,24,0,6,,,,,,,,5,,,33,105
161880,note_on,24,0,7,,,,,,,,2,,,45,105
161880,note_on,24,0,4,,,,,,,,3,,,61,72
161952,note_on,72,0,7,,,,,,,,2,,,64,0
161952,note_on,0,0,7,,,,,,,,2,,,69,0
161952,note_on,192,0,2,,,,,,,,1,,,76,0
161952,note_on,192,0,1,,,,,,,,0,,,76,0
161952,note_on,192,0,3,,,,,,,,0,,,76,0
161976,note_on,96,0,6,,,,,,,,5,,,33,0
161976,note_on,24,0,7,,,,,,,,2,,,45,0
161976,note_on,96,0,4,,,,,,,,3,,,61,0
161976,note_on,96,0,5,,,,,,,,4,,,45,0
162000,note_on,24,0,4,,,,,,,,3,,,57,72
162000,note_on,24,0,7,,,,,,,,2,,,65,105
162000,note_on,24,0,5,,,,,,,,4,,,50,105
162000,note_on,0,0,7,,,,,,,,2,,,50,105
162000,note_on,24,0,6,,,,,,,,5,,,38,105
162000,note_on,48,0,3,,,,,,,,0,,,77,105
162000,note_on,48,0,2,,,,,,,,1,,,77,105
162000,note_on,48,0,1,,,,,,,,0,,,77,105
162096,note_on,96,0,5,,,,,,,,4,,,50,0
162096,note_on,0,0,7,,,,,,,,2,,,65,0
162096,note_on,96,0,6,,,,,,,,5,,,38,0
162096,note_on,96,0,7,,,,,,,,2,,,50,0
162120,note_on,24,0,7,,,,,,,,2,,,69,105
162120,note_on,24,0,6,,,,,,,,5,,,50,105
162120,note_on,0,0,7,,,,,,,,2,,,62,105
162120,note_on,24,0,5,,,,,,,,4,,,62,105
162192,note_on,192,0,4,,,,,,,,3,,,57,0
162216,note_on,0,0,7,,,,,,,,2,,,69,0
162216,note_on,96,0,7,,,,,,,,2,,,62,0
162216,note_on,96,0,5,,,,,,,,4,,,62,0
162216,note_on,96,0,6,,,,,,,,5,,,50,0
162240,note_on,0,0,7,,,,,,,,2,,,58,105
162240,note_on,24,0,7,,,,,,,,2,,,74,105
162240,note_on,24,0,5,,,,,,,,4,,,58,105
162240,note_on,24,0,6,,,,,,,,5,,,46,105
162288,note_on,288,0,1,,,,,,,,0,,,77,0
162288,note_on,288,0,2,,,,,,,,1,,,77,0
162288,note_on,288,0,3,,,,,,,,0,,,77,0
162336,note_on,96,0,6,,,,,,,,5,,,46,0
162336,note_on,96,0,5,,,,,,,,4,,,58,0
162336,note_on,0,0,7,,,,,,,,2,,,74,0
162336,note_on,96,0,7,,,,,,,,2,,,58,0
162360,note_on,168,0,4,,,,,,,,3,,,70,72
162360,note_on,24,0,6,,,,,,,,5,,,43,105
162360,note_on,0,0,7,,,,,,,,2,,,55,105
162360,note_on,24,0,7,,,,,,,,2,,,70,105
162360,note_on,72,0,1,,,,,,,,0,,,76,105
162360,note_on,72,0,2,,,,,,,,1,,,76,105
162360,note_on,72,0,3,,,,,,,,0,,,76,105
162360,note_on,24,0,5,,,,,,,,4,,,55,105
162456,note_on,0,0,7,,,,,,,,2,,,70,0
162456,note_on,96,0,6,,,,,,,,5,,,43,0
162456,note_on,96,0,7,,,,,,,,2,,,55,0
162456,note_on,96,0,2,,,,,,,,1,,,76,0
162456,note_on,96,0,5,,,,,,,,4,,,55,0
162456,note_on,96,0,3,,,,,,,,0,,,76,0
162456,note_on,96,0,1,,,,,,,,0,,,76,0
162456,note_on,96,0,4,,,,,,,,3,,,70,0
162480,note_on,24,0,1,,,,,,,,0,,,74,105
162480,note_on,24,0,7,,,,,,,,2,,,74,105
162480,note_on,0,0,7,,,,,,,,2,,,54,105
162480,note_on,0,0,7,,,,,,,,2,,,62,105
162480,note_on,0,0,7,,,,,,,,2,,,69,105
162480,note_on,24,0,5,,,,,,,,4,,,54,105
162480,note_on,24,0,2,,,,,,,,1,,,74,105
162480,note_on,24,0,3,,,,,,,,0,,,74,105
162480,note_on,24,0,6,,,,,,,,5,,,42,105
162480,note_on,24,0,4,,,,,,,,3,,,69,72
162576,note_on,96,0,3,,,,,,,,0,,,74,0
162576,note_on,96,0,2,,,,,,,,1,,,74,0
162576,note_on,96,0,1,,,,,,,,0,,,74,0
162600,note_on,24,0,1,,,,,,,,0,,,72,105
162600,note_on,24,0,2,,,,,,,,1,,,72,105
162600,note_on,24,0,3,,,,,,,,0,,,72,105
162672,note_on,0,0,7,,,,,,,,2,,,62,0
162672,note_on,192,0,4,,,,,,,,3,,,69,0
162672,note_on,0,0,7,,,,,,,,2,,,74,0
162672,note_on,192,0,7,,,,,,,,2,,,69,0
162672,note_on,0,0,7,,,,,,,,2,,,54,0
162672,note_on,192,0,5,,,,,,,,4,,,54,0
162672,note_on,192,0,6,,,,,,,,5,,,42,0
162696,note_on,96,0,3,,,,,,,,0,,,72,0
162696,note_on,96,0,2,,,,,,,,1,,,72,0
162696,note_on,96,0,1,,,,,,,,0,,,72,0
162720,note_on,0,0,7,,,,,,,,2,,,66,105
162720,note_on,24,0,3,,,,,,,,0,,,70,105
162720,note_on,0,0,7,,,,,,,,2,,,62,105
162720,note_on,48,0,6,,,,,,,,5,,,38,105
162720,note_on,48,0,4,,,,,,,,3,,,66,72
162720,note_on,48,0,7,,,,,,,,2,,,50,105
162720,note_on,24,0,2,,,,,,,,1,,,70,105
162720,note_on,24,0,1,,,,,,,,0,,,70,105
162720,note_on,48,0,5,,,,,,,,4,,,50,105
162720,note_on,0,0,7,,,,,,,,2,,,69,105
162816,note_on,96,0,2,,,,,,,,1,,,70,0
162816,note_on,96,0,3,,,,,,,,0,,,70,0
162816,note_on,96,0,1,,,,,,,,0,,,70,0
162840,note_on,24,0,3,,,,,,,,0,,,69,105
162840,note_on,24,0,1,,,,,,,,0,,,69,105
162840,note_on,24,0,2,,,,,,,,1,,,69,105
162912,note_on,192,0,7,,,,,,,,2,,,66,0
162912,note_on,192,0,4,,,,,,,,3,,,66,0
162912,note_on,192,0,5,,,,,,,,4,,,50,0
162912,note_on,0,0,7,,,,,,,,2,,,69,0
162912,note_on,0,0,7,,,,,,,,2,,,50,0
162912,note_on,0,0,7,,,,,,,,2,,,62,0
162912,note_on,192,0,6,,,,,,,,5,,,38,0
162936,note_on,96,0,2,,,,,,,,1,,,69,0
162936,note_on,96,0,1,,,,,,,,0,,,69,0
162936,note_on,96,0,3,,,,,,,,0,,,69,0
162960,note_on,0,0,7,,,,,,,,2,,,62,105
162960,note_on,24,0,2,,,,,,,,1,,,70,105
162960,note_on,24,0,3,,,,,,,,0,,,70,105
162960,note_on,48,0,6,,,,,,,,5,,,43,105
162960,note_on,48,0,7,,,,,,,,2,,,70,105
162960,note_on,48,0,5,,,,,,,,4,,,55,105
162960,note_on,0,0,7,,,,,,,,2,,,67,105
162960,note_on,0,0,7,,,,,,,,2,,,55,105
162960,note_on,48,0,4,,,,,,,,3,,,62,72
162960,note_on,24,0,1,,,,,,,,0,,,70,105
163152,note_on,192,0,3,,,,,,,,0,,,70,0
163152,note_on,192,0,5,,,,,,,,4,,,55,0
163152,note_on,192,0,7,,,,,,,,2,,,62,0
163152,note_on,192,0,6,,,,,,,,5,,,43,0
163152,note_on,0,0,7,,,,,,,,2,,,70,0
163152,note_on,0,0,7,,,,,,,,2,,,67,0
163152,note_on,0,0,7,,,,,,,,2,,,55,0
163152,note_on,192,0,4,,,,,,,,3,,,62,0
163152,note_on,192,0,1,,,,,,,,0,,,70,0
163152,note_on,192,0,2,,,,,,,,1,,,70,0
163200,note_on,48,0,1,,,,,,,,0,,,69,105
163200,note_on,0,0,7,,,,,,,,2,,,62,105
163200,note_on,48,0,6,,,,,,,,5,,,41,105
163200,note_on,48,0,3,,,,,,,,0,,,69,105
163200,note_on,0,0,7,,,,,,,,2,,,53,105
163200,note_on,48,0,2,,,,,,,,1,,,69,105
163200,note_on,48,0,7,,,,,,,,2,,,69,105
163200,note_on,48,0,5,,,,,,,,4,,,53,105
163296,note_on,96,0,2,,,,,,,,1,,,69,0
163296,note_on,96,0,7,,,,,,,,2,,,53,0
163296,note_on,96,0,3,,,,,,,,0,,,69,0
163296,note_on,96,0,1,,,,,,,,0,,,69,0
163296,note_on,0,0,7,,,,,,,,2,,,69,0
163296,note_on,96,0,6,,,,,,,,5,,,41,0
163296,note_on,96,0,5,,,,,,,,4,,,53,0
163320,note_on,24,0,2,,,,,,,,1,,,70,105
163320,note_on,0,0,7,,,,,,,,2,,,50,105
163320,note_on,24,0,7,,,,,,,,2,,,70,105
163320,note_on,24,0,3,,,,,,,,0,,,70,105
163320,note_on,24,0,5,,,,,,,,4,,,50,105
163320,note_on,24,0,1,,,,,,,,0,,,70,105
163320,note_on,168,0,4,,,,,,,,3,,,62,72
163320,note_on,24,0,6,,,,,,,,5,,,38,105
163392,note_on,72,0,7,,,,,,,,2,,,62,0
163416,note_on,96,0,4,,,,,,,,3,,,62,0
163416,note_on,0,0,7,,,,,,,,2,,,70,0
163416,note_on,24,0,7,,,,,,,,2,,,50,0
163416,note_on,96,0,2,,,,,,,,1,,,70,0
163416,note_on,96,0,6,,,,,,,,5,,,38,0
163416,note_on,96,0,5,,,,,,,,4,,,50,0
163416,note_on,96,0,1,,,,,,,,0,,,70,0
163416,note_on,96,0,3,,,,,,,,0,,,70,0
163440,note_on,24,0,4,,,,,,,,3,,,64,72
163440,note_on,0,0,7,,,,,,,,2,,,64,105
163440,note_on,0,0,7,,,,,,,,2,,,49,105
163440,note_on,24,0,6,,,,,,,,5,,,37,105
163440,note_on,24,0,1,,,,,,,,0,,,67,105
163440,note_on,24,0,2,,,,,,,,1,,,67,105
163440,note_on,24,0,3,,,,,,,,0,,,67,105
163440,note_on,24,0,5,,,,,,,,4,,,49,105
163440,note_on,24,0,7,,,,,,,,2,,,67,105
163536,note_on,96,0,3,,,,,,,,0,,,67,0
163536,note_on,96,0,2,,,,,,,,1,,,67,0
163536,note_on,96,0,1,,,,,,,,0,,,67,0
163560,note_on,24,0,3,,,,,,,,0,,,65,105
163560,note_on,24,0,2,,,,,,,,1,,,65,105
163560,note_on,24,0,1,,,,,,,,0,,,65,105
163632,note_on,192,0,6,,,,,,,,5,,,37,0
163632,note_on,192,0,5,,,,,,,,4,,,49,0
163632,note_on,192,0,4,,,,,,,,3,,,64,0
163632,note_on,0,0,7,,,,,,,,2,,,49,0
163632,note_on,192,0,7,,,,,,,,2,,,64,0
163656,note_on,96,0,2,,,,,,,,1,,,65,0
163656,note_on,96,0,3,,,,,,,,0,,,65,0
163656,note_on,96,0,1,,,,,,,,0,,,65,0
163680,note_on,48,0,5,,,,,,,,4,,,45,105
163680,note_on,48,0,7,,,,,,,,2,,,45,105
163680,note_on,48,0,4,,,,,,,,3,,,61,72
163680,note_on,24,0,2,,,,,,,,1,,,64,105
163680,note_on,48,0,6,,,,,,,,5,,,33,105
163680,note_on,24,0,1,,,,,,,,0,,,64,105
163680,note_on,24,0,3,,,,,,,,0,,,64,105
163680,note_on,0,0,7,,,,,,,,2,,,60,105
163776,note_on,96,0,3,,,,,,,,0,,,64,0
163776,note_on,96,0,2,,,,,,,,1,,,64,0
163776,note_on,96,0,1,,,,,,,,0,,,64,0
163800,note_on,24,0,2,,,,,,,,1,,,69,105
163800,note_on,24,0,3,,,,,,,,0,,,69,105
163800,note_on,24,0,1,,,,,,,,0,,,69,105
163824,note_on,144,0,7,,,,,,,,2,,,67,0
163872,note_on,192,0,5,,,,,,,,4,,,45,0
163872,note_on,192,0,6,,,,,,,,5,,,33,0
163872,note_on,0,0,7,,,,,,,,2,,,45,0
163872,note_on,192,0,4,,,,,,,,3,,,61,0
163872,note_on,48,0,7,,,,,,,,2,,,60,0
163896,note_on,96,0,1,,,,,,,,0,,,69,0
163896,note_on,96,0,2,,,,,,,,1,,,69,0
163896,note_on,96,0,3,,,,,,,,0,,,69,0
163920,note_on,24,0,3,,,,,,,,0,,,65,105
163920,note_on,24,0,1,,,,,,,,0,,,65,105
163920,note_on,48,0,7,,,,,,,,2,,,65,105
163920,note_on,48,0,4,,,,,,,,3,,,57,72
163920,note_on,0,0,7,,,,,,,,2,,,62,105
163920,note_on,48,0,6,,,,,,,,5,,,38,105
163920,note_on,24,0,2,,,,,,,,1,,,65,105
163920,note_on,48,0,5,,,,,,,,4,,,50,105
163920,note_on,0,0,7,,,,,,,,2,,,50,105
164016,note_on,96,0,2,,,,,,,,1,,,65,0
164016,note_on,96,0,3,,,,,,,,0,,,65,0
164016,note_on,96,0,1,,,,,,,,0,,,65,0
164040,note_on,24,0,1,,,,,,,,0,,,64,105
164040,note_on,24,0,3,,,,,,,,0,,,64,105
164040,note_on,24,0,2,,,,,,,,1,,,64,105
164112,note_on,192,0,5,,,,,,,,4,,,50,0
164112,note_on,192,0,6,,,,,,,,5,,,38,0
164112,note_on,192,0,4,,,,,,,,3,,,57,0
164112,note_on,192,0,7,,,,,,,,2,,,62,0
164112,note_on,0,0,7,,,,,,,,2,,,50,0
164112,note_on,0,0,7,,,,,,,,2,,,65,0
164136,note_on,96,0,3,,,,,,,,0,,,64,0
164136,note_on,96,0,2,,,,,,,,1,,,64,0
164136,note_on,96,0,1,,,,,,,,0,,,64,0
164160,note_on,48,0,6,,,,,,,,5,,,38,105
164160,note_on,24,0,2,,,,,,,,1,,,62,105
164160,note_on,24,0,3,,,,,,,,0,,,62,105
164160,note_on,48,0,7,,,,,,,,2,,,38,105
164160,note_on,48,0,4,,,,,,,,3,,,57,72
164160,note_on,24,0,1,,,,,,,,0,,,62,105
164160,note_on,48,0,5,,,,,,,,4,,,38,105
164352,note_on,192,0,1,,,,,,,,0,,,62,0
164352,note_on,192,0,7,,,,,,,,2,,,38,0
164352,note_on,192,0,6,,,,,,,,5,,,38,0
164352,note_on,192,0,5,,,,,,,,4,,,38,0
164352,note_on,192,0,3,,,,,,,,0,,,62,0
164352,note_on,192,0,4,,,,,,,,3,,,57,0
164352,note_on,192,0,2,,,,,,,,1,,,62,0
164400,note_on,0,0,7,,,,,,,,2,,,74,105
164400,note_on,0,0,7,,,,,,,,2,,,65,105
164400,note_on,48,0,7,,,,,,,,2,,,50,105
164400,note_on,48,0,5,,,,,,,,4,,,50,105
164400,note_on,48,0,1,,,,,,,,0,,,74,105
164448,note_on,48,0,1,,,,,,,,0,,,74,0
164460,note_on,12,0,1,,,,,,,,0,,,69,105
164508,note_on,48,0,1,,,,,,,,0,,,69,0
164520,note_on,12,0,1,,,,,,,,0,,,65,105
164568,note_on,48,0,1,,,,,,,,0,,,65,0
164580,note_on,12,0,1,,,,,,,,0,,,74,105
164592,note_on,192,0,7,,,,,,,,2,,,65,0
164592,note_on,0,0,7,,,,,,,,2,,,50,0
164592,note_on,192,0,5,,,,,,,,4,,,50,0
164628,note_on,48,0,1,,,,,,,,0,,,74,0
164640,note_on,48,0,5,,,,,,,,4,,,45,105
164640,note_on,48,0,7,,,,,,,,2,,,45,105
164640,note_on,12,0,1,,,,,,,,0,,,74,105
164640,note_on,0,0,7,,,,,,,,2,,,64,105
164736,note_on,96,0,1,,,,,,,,0,,,74,0
164760,note_on,24,0,1,,,,,,,,0,,,73,105
164784,note_on,144,0,7,,,,,,,,2,,,74,0
164808,note_on,48,0,1,,,,,,,,0,,,73,0
164820,note_on,12,0,1,,,,,,,,0,,,74,105
164832,note_on,0,0,7,,,,,,,,2,,,45,0
164832,note_on,192,0,5,,,,,,,,4,,,45,0
164832,note_on,48,0,7,,,,,,,,2,,,64,0
164868,note_on,48,0,1,,,,,,,,0,,,74,0
164880,note_on,48,0,7,,,,,,,,2,,,57,105
164880,note_on,0,0,7,,,,,,,,2,,,73,105
164880,note_on,0,0,7,,,,,,,,2,,,64,105
164880,note_on,48,0,5,,,,,,,,4,,,57,105
164880,note_on,12,0,1,,,,,,,,0,,,76,105
164928,note_on,48,0,1,,,,,,,,0,,,76,0
164940,note_on,12,0,1,,,,,,,,0,,,73,105
164988,note_on,48,0,1,,,,,,,,0,,,73,0
165000,note_on,12,0,1,,,,,,,,0,,,67,105
165048,note_on,48,0,1,,,,,,,,0,,,67,0
165060,note_on,12,0,1,,,,,,,,0,,,79,105
165072,note_on,192,0,5,,,,,,,,4,,,57,0
165072,note_on,192,0,7,,,,,,,,2,,,64,0
165072,note_on,0,0,7,,,,,,,,2,,,57,0
165108,note_on,48,0,1,,,,,,,,0,,,79,0
165120,note_on,0,0,7,,,,,,,,2,,,67,105
165120,note_on,12,0,1,,,,,,,,0,,,79,105
165120,note_on,48,0,5,,,,,,,,4,,,45,105
165120,note_on,48,0,7,,,,,,,,2,,,45,105
165216,note_on,96,0,1,,,,,,,,0,,,79,0
165240,note_on,24,0,1,,,,,,,,0,,,77,105
165264,note_on,144,0,7,,,,,,,,2,,,73,0
165288,note_on,48,0,1,,,,,,,,0,,,77,0
165300,note_on,12,0,1,,,,,,,,0,,,76,105
165312,note_on,0,0,7,,,,,,,,2,,,45,0
165312,note_on,48,0,7,,,,,,,,2,,,67,0
165312,note_on,192,0,5,,,,,,,,4,,,45,0
165348,note_on,48,0,1,,,,,,,,0,,,76,0
165360,note_on,12,0,1,,,,,,,,0,,,77,105
165360,note_on,48,0,7,,,,,,,,2,,,62,105
165360,note_on,48,0,5,,,,,,,,4,,,62,105
165360,note_on,0,0,7,,,,,,,,2,,,65,105
165360,note_on,0,0,7,,,,,,,,2,,,74,105
165360,note_on,0,0,7,,,,,,,,2,,,69,105
165408,note_on,48,0,1,,,,,,,,0,,,77,0
165420,note_on,12,0,1,,,,,,,,0,,,74,105
165468,note_on,48,0,1,,,,,,,,0,,,74,0
165480,note_on,12,0,1,,,,,,,,0,,,69,105
165528,note_on,48,0,1,,,,,,,,0,,,69,0
165540,note_on,12,0,1,,,,,,,,0,,,81,105
165552,note_on,192,0,5,,,,,,,,4,,,62,0
165552,note_on,192,0,7,,,,,,,,2,,,62,0
165588,note_on,48,0,1,,,,,,,,0,,,81,0
165600,note_on,48,0,5,,,,,,,,4,,,50,105
165600,note_on,48,0,7,,,,,,,,2,,,50,105
165600,note_on,12,0,1,,,,,,,,0,,,81,105
165696,note_on,96,0,1,,,,,,,,0,,,81,0
165720,note_on,24,0,1,,,,,,,,0,,,79,105
165744,note_on,144,0,7,,,,,,,,2,,,65,0
165744,note_on,0,0,7,,,,,,,,2,,,74,0
165744,note_on,0,0,7,,,,,,,,2,,,69,0
165768,note_on,48,0,1,,,,,,,,0,,,79,0
165780,note_on,12,0,1,,,,,,,,0,,,77,105
165792,note_on,48,0,7,,,,,,,,2,,,50,0
165792,note_on,192,0,5,,,,,,,,4,,,50,0
165828,note_on,48,0,1,,,,,,,,0,,,77,0
165840,note_on,12,0,1,,,,,,,,0,,,76,105
165840,note_on,48,0,5,,,,,,,,4,,,57,105
165840,note_on,0,0,7,,,,,,,,2,,,69,105
165840,note_on,0,0,7,,,,,,,,2,,,73,105
165840,note_on,48,0,7,,,,,,,,2,,,57,105
165840,note_on,0,0,7,,,,,,,,2,,,76,105
165888,note_on,48,0,1,,,,,,,,0,,,76,0
165900,note_on,12,0,1,,,,,,,,0,,,73,105
165948,note_on,48,0,1,,,,,,,,0,,,73,0
165960,note_on,12,0,1,,,,,,,,0,,,69,105
166032,note_on,192,0,7,,,,,,,,2,,,57,0
166032,note_on,192,0,5,,,,,,,,4,,,57,0
166056,note_on,96,0,1,,,,,,,,0,,,69,0
166080,note_on,48,0,7,,,,,,,,2,,,45,105
166080,note_on,48,0,5,,,,,,,,4,,,45,105
166224,note_on,0,0,7,,,,,,,,2,,,76,0
166224,note_on,0,0,7,,,,,,,,2,,,73,0
166224,note_on,144,0,7,,,,,,,,2,,,69,0
166272,note_on,48,0,7,,,,,,,,2,,,45,0
166272,note_on,192,0,5,,,,,,,,4,,,45,0
166320,note_on,48,0,7,,,,,,,,2,,,74,105
166320,note_on,0,0,7,,,,,,,,2,,,62,105
166320,note_on,0,0,7,,,,,,,,2,,,69,105
166320,note_on,0,0,7,,,,,,,,2,,,54,105
166320,note_on,48,0,5,,,,,,,,4,,,54,105
166320,note_on,264,0,1,,,,,,,,0,,,81,105
166368,note_on,48,0,1,,,,,,,,0,,,81,0
166380,note_on,12,0,1,,,,,,,,0,,,78,105
166428,note_on,48,0,1,,,,,,,,0,,,78,0
166440,note_on,12,0,1,,,,,,,,0,,,74,105
166488,note_on,48,0,1,,,,,,,,0,,,74,0
166500,note_on,12,0,1,,,,,,,,0,,,84,105
166512,note_on,192,0,5,,,,,,,,4,,,54,0
166512,note_on,192,0,7,,,,,,,,2,,,54,0
166512,note_on,0,0,7,,,,,,,,2,,,74,0
166548,note_on,48,0,1,,,,,,,,0,,,84,0
166560,note_on,48,0,7,,,,,,,,2,,,50,105
166560,note_on,0,0,7,,,,,,,,2,,,72,105
166560,note_on,12,0,1,,,,,,,,0,,,84,105
166560,note_on,48,0,5,,,,,,,,4,,,50,105
166656,note_on,96,0,1,,,,,,,,0,,,84,0
166680,note_on,24,0,1,,,,,,,,0,,,82,105
166704,note_on,144,0,7,,,,,,,,2,,,62,0
166704,note_on,0,0,7,,,,,,,,2,,,69,0
166728,note_on,48,0,1,,,,,,,,0,,,82,0
166740,note_on,12,0,1,,,,,,,,0,,,81,105
166752,note_on,192,0,5,,,,,,,,4,,,50,0
166752,note_on,48,0,7,,,,,,,,2,,,50,0
166752,note_on,0,0,7,,,,,,,,2,,,72,0
166788,note_on,48,0,1,,,,,,,,0,,,81,0
166800,note_on,0,0,7,,,,,,,,2,,,62,105
166800,note_on,12,0,1,,,,,,,,0,,,82,105
166800,note_on,48,0,5,,,,,,,,4,,,55,105
166800,note_on,48,0,7,,,,,,,,2,,,70,105
166800,note_on,0,0,7,,,,,,,,2,,,67,105
166800,note_on,0,0,7,,,,,,,,2,,,55,105
166848,note_on,48,0,1,,,,,,,,0,,,82,0
166860,note_on,12,0,1,,,,,,,,0,,,79,105
166908,note_on,48,0,1,,,,,,,,0,,,79,0
166920,note_on,12,0,1,,,,,,,,0,,,74,105
166968,note_on,48,0,1,,,,,,,,0,,,74,0
166980,note_on,12,0,1,,,,,,,,0,,,82,105
166992,note_on,192,0,5,,,,,,,,4,,,55,0
166992,note_on,192,0,7,,,,,,,,2,,,55,0
167028,note_on,48,0,1,,,,,,,,0,,,82,0
167040,note_on,48,0,7,,,,,,,,2,,,43,105
167040,note_on,48,0,5,,,,,,,,4,,,43,105
167040,note_on,12,0,1,,,,,,,,0,,,82,105
167136,note_on,96,0,1,,,,,,,,0,,,82,0
167160,note_on,24,0,1,,,,,,,,0,,,84,105
167184,note_on,0,0,7,,,,,,,,2,,,62,0
167184,note_on,0,0,7,,,,,,,,2,,,67,0
167184,note_on,144,0,7,,,,,,,,2,,,70,0
167208,note_on,48,0,1,,,,,,,,0,,,84,0
167220,note_on,12,0,1,,,,,,,,0,,,86,105
167232,note_on,192,0,5,,,,,,,,4,,,43,0
167232,note_on,48,0,7,,,,,,,,2,,,43,0
167268,note_on,48,0,1,,,,,,,,0,,,86,0
167280,note_on,12,0,1,,,,,,,,0,,,76,105
167280,note_on,48,0,5,,,,,,,,4,,,60,105
167280,note_on,48,0,7,,,,,,,,2,,,70,105
167280,note_on,0,0,7,,,,,,,,2,,,64,105
167280,note_on,0,0,7,,,,,,,,2,,,60,105
167280,note_on,0,0,7,,,,,,,,2,,,67,105
167328,note_on,48,0,1,,,,,,,,0,,,76,0
167340,note_on,12,0,1,,,,,,,,0,,,70,105
167388,note_on,48,0,1,,,,,,,,0,,,70,0
167400,note_on,12,0,1,,,,,,,,0,,,67,105
167448,note_on,48,0,1,,,,,,,,0,,,67,0
167460,note_on,12,0,1,,,,,,,,0,,,82,105
167472,note_on,192,0,7,,,,,,,,2,,,60,0
167472,note_on,192,0,5,,,,,,,,4,,,60,0
167508,note_on,48,0,1,,,,,,,,0,,,82,0
167520,note_on,48,0,5,,,,,,,,4,,,48,105
167520,note_on,12,0,1,,,,,,,,0,,,82,105
167520,note_on,48,0,7,,,,,,,,2,,,48,105
167616,note_on,96,0,1,,,,,,,,0,,,82,0
167640,note_on,24,0,1,,,,,,,,0,,,81,105
167664,note_on,0,0,7,,,,,,,,2,,,64,0
167664,note_on,0,0,7,,,,,,,,2,,,67,0
167664,note_on,144,0,7,,,,,,,,2,,,70,0
167688,note_on,48,0,1,,,,,,,,0,,,81,0
167700,note_on,12,0,1,,,,,,,,0,,,79,105
167712,note_on,48,0,7,,,,,,,,2,,,48,0
167712,note_on,192,0,5,,,,,,,,4,,,48,0
167748,note_on,48,0,1,,,,,,,,0,,,79,0
167760,note_on,12,0,1,,,,,,,,0,,,81,105
167760,note_on,0,0,7,,,,,,,,2,,,53,105
167760,note_on,48,0,5,,,,,,,,4,,,53,105
167760,note_on,48,0,7,,,,,,,,2,,,69,105
167760,note_on,0,0,7,,,,,,,,2,,,60,105
167760,note_on,0,0,7,,,,,,,,2,,,65,105
167808,note_on,48,0,1,,,,,,,,0,,,81,0
167820,note_on,12,0,1,,,,,,,,0,,,77,105
167868,note_on,48,0,1,,,,,,,,0,,,77,0
167880,note_on,12,0,1,,,,,,,,0,,,69,105
167928,note_on,48,0,1,,,,,,,,0,,,69,0
167940,note_on,12,0,1,,,,,,,,0,,,81,105
167952,note_on,192,0,7,,,,,,,,2,,,53,0
167952,note_on,192,0,5,,,,,,,,4,,,53,0
167988,note_on,48,0,1,,,,,,,,0,,,81,0
168000,note_on,12,0,1,,,,,,,,0,,,81,105
168000,note_on,48,0,5,,,,,,,,4,,,41,105
168000,note_on,48,0,7,,,,,,,,2,,,41,105
168096,note_on,96,0,1,,,,,,,,0,,,81,0
168120,note_on,24,0,1,,,,,,,,0,,,79,105
168144,note_on,0,0,7,,,,,,,,2,,,65,0
168144,note_on,0,0,7,,,,,,,,2,,,60,0
168144,note_on,144,0,7,,,,,,,,2,,,69,0
168168,note_on,48,0,1,,,,,,,,0,,,79,0
168180,note_on,12,0,1,,,,,,,,0,,,77,105
168192,note_on,48,0,7,,,,,,,,2,,,41,0
168192,note_on,192,0,5,,,,,,,,4,,,41,0
168228,note_on,48,0,1,,,,,,,,0,,,77,0
168240,note_on,0,0,7,,,,,,,,2,,,57,105
168240,note_on,0,0,7,,,,,,,,2,,,61,105
168240,note_on,12,0,1,,,,,,,,0,,,79,105
168240,note_on,48,0,7,,,,,,,,2,,,67,105
168240,note_on,48,0,5,,,,,,,,4,,,57,105
168240,note_on,0,0,7,,,,,,,,2,,,64,105
168288,note_on,48,0,1,,,,,,,,0,,,79,0
168300,note_on,12,0,1,,,,,,,,0,,,76,105
168348,note_on,48,0,1,,,,,,,,0,,,76,0
168360,note_on,12,0,1,,,,,,,,0,,,73,105
168408,note_on,48,0,1,,,,,,,,0,,,73,0
168420,note_on,12,0,1,,,,,,,,0,,,79,105
168432,note_on,192,0,7,,,,,,,,2,,,57,0
168432,note_on,192,0,5,,,,,,,,4,,,57,0
168468,note_on,48,0,1,,,,,,,,0,,,79,0
168480,note_on,48,0,5,,,,,,,,4,,,45,105
168480,note_on,48,0,7,,,,,,,,2,,,45,105
168480,note_on,12,0,1,,,,,,,,0,,,79,105
168576,note_on,96,0,1,,,,,,,,0,,,79,0
168600,note_on,24,0,1,,,,,,,,0,,,77,105
168624,note_on,0,0,7,,,,,,,,2,,,64,0
168624,note_on,0,0,7,,,,,,,,2,,,61,0
168624,note_on,144,0,7,,,,,,,,2,,,67,0
168648,note_on,48,0,1,,,,,,,,0,,,77,0
168660,note_on,12,0,1,,,,,,,,0,,,76,105
168672,note_on,192,0,5,,,,,,,,4,,,45,0
168672,note_on,48,0,7,,,,,,,,2,,,45,0
168708,note_on,48,0,1,,,,,,,,0,,,76,0
168720,note_on,48,0,5,,,,,,,,4,,,50,105
168720,note_on,12,0,1,,,,,,,,0,,,77,105
168720,note_on,0,0,7,,,,,,,,2,,,62,105
168720,note_on,48,0,7,,,,,,,,2,,,65,105
168720,note_on,0,0,7,,,,,,,,2,,,57,105
168720,note_on,0,0,7,,,,,,,,2,,,50,105
168768,note_on,48,0,1,,,,,,,,0,,,77,0
168780,note_on,12,0,1,,,,,,,,0,,,74,105
168828,note_on,48,0,1,,,,,,,,0,,,74,0
168840,note_on,12,0,1,,,,,,,,0,,,69,105
168888,note_on,48,0,1,,,,,,,,0,,,69,0
168900,note_on,12,0,1,,,,,,,,0,,,81,105
168912,note_on,192,0,7,,,,,,,,2,,,50,0
168912,note_on,192,0,5,,,,,,,,4,,,50,0
168948,note_on,48,0,1,,,,,,,,0,,,81,0
168960,note_on,48,0,7,,,,,,,,2,,,38,105
168960,note_on,48,0,5,,,,,,,,4,,,38,105
168960,note_on,12,0,1,,,,,,,,0,,,81,105
169056,note_on,96,0,1,,,,,,,,0,,,81,0
169080,note_on,24,0,1,,,,,,,,0,,,79,105
169104,note_on,144,0,7,,,,,,,,2,,,65,0
169104,note_on,0,0,7,,,,,,,,2,,,62,0
169104,note_on,0,0,7,,,,,,,,2,,,57,0
169128,note_on,48,0,1,,,,,,,,0,,,79,0
169140,note_on,12,0,1,,,,,,,,0,,,77,105
169152,note_on,192,0,5,,,,,,,,4,,,38,0
169152,note_on,48,0,7,,,,,,,,2,,,38,0
169188,note_on,48,0,1,,,,,,,,0,,,77,0
169200,note_on,0,0,7,,,,,,,,2,,,61,105
169200,note_on,0,0,7,,,,,,,,2,,,57,105
169200,note_on,0,0,7,,,,,,,,2,,,57,105
169200,note_on,12,0,1,,,,,,,,0,,,76,105
169200,note_on,48,0,5,,,,,,,,4,,,57,105
169200,note_on,48,0,7,,,,,,,,2,,,64,105
169248,note_on,48,0,1,,,,,,,,0,,,76,0
169260,note_on,12,0,1,,,,,,,,0,,,73,105
169308,note_on,48,0,1,,,,,,,,0,,,73,0
169320,note_on,12,0,1,,,,,,,,0,,,69,105
169368,note_on,48,0,1,,,,,,,,0,,,69,0
169380,note_on,12,0,1,,,,,,,,0,,,79,105
169392,note_on,192,0,5,,,,,,,,4,,,57,0
169392,note_on,192,0,7,,,,,,,,2,,,57,0
169428,note_on,48,0,1,,,,,,,,0,,,79,0
169440,note_on,48,0,5,,,,,,,,4,,,45,105
169440,note_on,48,0,7,,,,,,,,2,,,45,105
169440,note_on,12,0,1,,,,,,,,0,,,79,105
169536,note_on,96,0,1,,,,,,,,0,,,79,0
169560,note_on,24,0,1,,,,,,,,0,,,77,105
169584,note_on,144,0,7,,,,,,,,2,,,64,0
169584,note_on,0,0,7,,,,,,,,2,,,57,0
169584,note_on,0,0,7,,,,,,,,2,,,61,0
169608,note_on,48,0,1,,,,,,,,0,,,77,0
169620,note_on,12,0,1,,,,,,,,0,,,76,105
169632,note_on,48,0,7,,,,,,,,2,,,45,0
169632,note_on,192,0,5,,,,,,,,4,,,45,0
169668,note_on,48,0,1,,,,,,,,0,,,76,0
169680,note_on,48,0,5,,,,,,,,4,,,62,105
169680,note_on,12,0,1,,,,,,,,0,,,77,105
169680,note_on,0,0,7,,,,,,,,2,,,62,105
169680,note_on,48,0,7,,,,,,,,2,,,65,105
169728,note_on,48,0,1,,,,,,,,0,,,77,0
169740,note_on,12,0,1,,,,,,,,0,,,74,105
169776,note_on,96,0,7,,,,,,,,2,,,65,0
169788,note_on,48,0,1,,,,,,,,0,,,74,0
169800,note_on,24,0,7,,,,,,,,2,,,69,105
169800,note_on,12,0,1,,,,,,,,0,,,69,105
169848,note_on,48,0,1,,,,,,,,0,,,69,0
169860,note_on,12,0,1,,,,,,,,0,,,77,105
169872,note_on,192,0,5,,,,,,,,4,,,62,0
169872,note_on,72,0,7,,,,,,,,2,,,62,0
169896,note_on,24,0,7,,,,,,,,2,,,69,0
169908,note_on,48,0,1,,,,,,,,0,,,77,0
169920,note_on,48,0,5,,,,,,,,4,,,50,105
169920,note_on,24,0,7,,,,,,,,2,,,74,105
169920,note_on,0,0,7,,,,,,,,2,,,50,105
169920,note_on,12,0,1,,,,,,,,0,,,77,105
170016,note_on,96,0,1,,,,,,,,0,,,77,0
170016,note_on,96,0,7,,,,,,,,2,,,74,0
170040,note_on,24,0,1,,,,,,,,0,,,79,105
170040,note_on,24,0,7,,,,,,,,2,,,69,105
170088,note_on,48,0,1,,,,,,,,0,,,79,0
170100,note_on,12,0,1,,,,,,,,0,,,81,105
170112,note_on,72,0,7,,,,,,,,2,,,50,0
170112,note_on,192,0,5,,,,,,,,4,,,50,0
170136,note_on,24,0,7,,,,,,,,2,,,69,0
170148,note_on,48,0,1,,,,,,,,0,,,81,0
170160,note_on,48,0,5,,,,,,,,4,,,60,105
170160,note_on,12,0,1,,,,,,,,0,,,78,105
170160,note_on,0,0,7,,,,,,,,2,,,60,105
170160,note_on,0,0,7,,,,,,,,2,,,62,105
170160,note_on,24,0,7,,,,,,,,2,,,66,105
170208,note_on,48,0,1,,,,,,,,0,,,78,0
170220,note_on,12,0,1,,,,,,,,0,,,74,105
170268,note_on,48,0,1,,,,,,,,0,,,74,0
170280,note_on,12,0,1,,,,,,,,0,,,69,105
170328,note_on,48,0,1,,,,,,,,0,,,69,0
170340,note_on,12,0,1,,,,,,,,0,,,78,105
170352,note_on,192,0,7,,,,,,,,2,,,60,0
170352,note_on,192,0,5,,,,,,,,4,,,60,0
170388,note_on,48,0,1,,,,,,,,0,,,78,0
170400,note_on,48,0,5,,,,,,,,4,,,48,105
170400,note_on,48,0,7,,,,,,,,2,,,48,105
170400,note_on,12,0,1,,,,,,,,0,,,78,105
170496,note_on,96,0,1,,,,,,,,0,,,78,0
170520,note_on,24,0,1,,,,,,,,0,,,79,105
170544,note_on,144,0,7,,,,,,,,2,,,62,0
170544,note_on,0,0,7,,,,,,,,2,,,66,0
170568,note_on,48,0,1,,,,,,,,0,,,79,0
170580,note_on,12,0,1,,,,,,,,0,,,81,105
170592,note_on,48,0,7,,,,,,,,2,,,48,0
170592,note_on,192,0,5,,,,,,,,4,,,48,0
170628,note_on,48,0,1,,,,,,,,0,,,81,0
170640,note_on,48,0,5,,,,,,,,4,,,58,105
170640,note_on,0,0,7,,,,,,,,2,,,62,105
170640,note_on,48,0,7,,,,,,,,2,,,67,105
170640,note_on,0,0,7,,,,,,,,2,,,58,105
170640,note_on,12,0,1,,,,,,,,0,,,79,105
170688,note_on,48,0,1,,,,,,,,0,,,79,0
170700,note_on,12,0,1,,,,,,,,0,,,74,105
170748,note_on,48,0,1,,,,,,,,0,,,74,0
170760,note_on,12,0,1,,,,,,,,0,,,70,105
170808,note_on,48,0,1,,,,,,,,0,,,70,0
170820,note_on,12,0,1,,,,,,,,0,,,79,105
170832,note_on,192,0,7,,,,,,,,2,,,58,0
170832,note_on,192,0,5,,,,,,,,4,,,58,0
170868,note_on,48,0,1,,,,,,,,0,,,79,0
170880,note_on,48,0,7,,,,,,,,2,,,46,105
170880,note_on,48,0,5,,,,,,,,4,,,46,105
170880,note_on,12,0,1,,,,,,,,0,,,79,105
170976,note_on,96,0,1,,,,,,,,0,,,79,0
171000,note_on,24,0,1,,,,,,,,0,,,81,105
171024,note_on,144,0,7,,,,,,,,2,,,62,0
171024,note_on,0,0,7,,,,,,,,2,,,67,0
171048,note_on,48,0,1,,,,,,,,0,,,81,0
171060,note_on,12,0,1,,,,,,,,0,,,82,105
171072,note_on,48,0,7,,,,,,,,2,,,46,0
171072,note_on,192,0,5,,,,,,,,4,,,46,0
171108,note_on,48,0,1,,,,,,,,0,,,82,0
171120,note_on,48,0,7,,,,,,,,2,,,71,105
171120,note_on,0,0,7,,,,,,,,2,,,52,105
171120,note_on,0,0,7,,,,,,,,2,,,68,105
171120,note_on,48,0,5,,,,,,,,4,,,52,105
171120,note_on,12,0,1,,,,,,,,0,,,80,105
171120,note_on,0,0,7,,,,,,,,2,,,62,105
171168,note_on,48,0,1,,,,,,,,0,,,80,0
171180,note_on,12,0,1,,,,,,,,0,,,74,105
171228,note_on,48,0,1,,,,,,,,0,,,74,0
171240,note_on,12,0,1,,,,,,,,0,,,70,105
171288,note_on,48,0,1,,,,,,,,0,,,70,0
171300,note_on,12,0,1,,,,,,,,0,,,80,105
171312,note_on,192,0,7,,,,,,,,2,,,52,0
171312,note_on,192,0,5,,,,,,,,4,,,52,0
171348,note_on,48,0,1,,,,,,,,0,,,80,0
171360,note_on,12,0,1,,,,,,,,0,,,80,105
171360,note_on,48,0,7,,,,,,,,2,,,40,105
171360,note_on,48,0,5,,,,,,,,4,,,40,105
171456,note_on,96,0,1,,,,,,,,0,,,80,0
171480,note_on,24,0,1,,,,,,,,0,,,81,105
171504,note_on,0,0,7,,,,,,,,2,,,68,0
171504,note_on,144,0,7,,,,,,,,2,,,71,0
171504,note_on,0,0,7,,,,,,,,2,,,62,0
171528,note_on,48,0,1,,,,,,,,0,,,81,0
171540,note_on,12,0,1,,,,,,,,0,,,83,105
171552,note_on,48,0,7,,,,,,,,2,,,40,0
171552,note_on,192,0,5,,,,,,,,4,,,40,0
171588,note_on,48,0,1,,,,,,,,0,,,83,0
171600,note_on,0,0,7,,,,,,,,2,,,61,105
171600,note_on,48,0,5,,,,,,,,4,,,57,105
171600,note_on,0,0,7,,,,,,,,2,,,64,105
171600,note_on,0,0,7,,,,,,,,2,,,57,105
171600,note_on,12,0,1,,,,,,,,0,,,81,105
171600,note_on,48,0,7,,,,,,,,2,,,69,105
171648,note_on,48,0,1,,,,,,,,0,,,81,0
171660,note_on,12,0,1,,,,,,,,0,,,73,105
171708,note_on,48,0,1,,,,,,,,0,,,73,0
171720,note_on,12,0,1,,,,,,,,0,,,69,105
171768,note_on,48,0,1,,,,,,,,0,,,69,0
171780,note_on,12,0,1,,,,,,,,0,,,81,105
171792,note_on,192,0,7,,,,,,,,2,,,57,0
171792,note_on,192,0,5,,,,,,,,4,,,57,0
171828,note_on,48,0,1,,,,,,,,0,,,81,0
171840,note_on,48,0,7,,,,,,,,2,,,55,105
171840,note_on,48,0,5,,,,,,,,4,,,55,105
171840,note_on,12,0,1,,,,,,,,0,,,81,105
171936,note_on,96,0,1,,,,,,,,0,,,81,0
171960,note_on,24,0,1,,,,,,,,0,,,83,105
171984,note_on,144,0,7,,,,,,,,2,,,69,0
171984,note_on,0,0,7,,,,,,,,2,,,61,0
171984,note_on,0,0,7,,,,,,,,2,,,64,0
172008,note_on,48,0,1,,,,,,,,0,,,83,0
172020,note_on,12,0,1,,,,,,,,0,,,85,105
172032,note_on,192,0,5,,,,,,,,4,,,55,0
172032,note_on,48,0,7,,,,,,,,2,,,55,0
172068,note_on,48,0,1,,,,,,,,0,,,85,0
172080,note_on,48,0,5,,,,,,,,4,,,53,105
172080,note_on,12,0,1,,,,,,,,0,,,86,105
172080,note_on,0,0,7,,,,,,,,2,,,62,105
172080,note_on,0,0,7,,,,,,,,2,,,74,105
172080,note_on,0,0,7,,,,,,,,2,,,69,105
172080,note_on,48,0,7,,,,,,,,2,,,53,105
172128,note_on,48,0,1,,,,,,,,0,,,86,0
172140,note_on,12,0,1,,,,,,,,0,,,77,105
172176,note_on,96,0,5,,,,,,,,4,,,53,0
172176,note_on,96,0,7,,,,,,,,2,,,69,0
172176,note_on,0,0,7,,,,,,,,2,,,53,0
172188,note_on,48,0,1,,,,,,,,0,,,77,0
172200,note_on,24,0,7,,,,,,,,2,,,58,105
172200,note_on,24,0,5,,,,,,,,4,,,58,105
172200,note_on,0,0,7,,,,,,,,2,,,67,105
172200,note_on,12,0,1,,,,,,,,0,,,74,105
172248,note_on,48,0,1,,,,,,,,0,,,74,0
172260,note_on,12,0,1,,,,,,,,0,,,77,105
172272,note_on,72,0,7,,,,,,,,2,,,74,0
172272,note_on,0,0,7,,,,,,,,2,,,62,0
172296,note_on,96,0,5,,,,,,,,4,,,58,0
172296,note_on,24,0,7,,,,,,,,2,,,58,0
172296,note_on,0,0,7,,,,,,,,2,,,67,0
172308,note_on,48,0,1,,,,,,,,0,,,77,0
172320,note_on,24,0,5,,,,,,,,4,,,57,105
172320,note_on,0,0,7,,,,,,,,2,,,73,105
172320,note_on,12,0,1,,,,,,,,0,,,76,105
172320,note_on,24,0,7,,,,,,,,2,,,69,105
172320,note_on,0,0,7,,,,,,,,2,,,64,105
172320,note_on,0,0,7,,,,,,,,2,,,57,105
172344,note_on,24,0,1,,,,,,,,0,,,76,0
172350,note_on,6,0,1,,,,,,,,0,,,77,105
172374,note_on,24,0,1,,,,,,,,0,,,77,0
172380,note_on,6,0,1,,,,,,,,0,,,76,105
172404,note_on,24,0,1,,,,,,,,0,,,76,0
172410,note_on,6,0,1,,,,,,,,0,,,77,105
172416,note_on,96,0,7,,,,,,,,2,,,57,0
172416,note_on,96,0,5,,,,,,,,4,,,57,0
172434,note_on,24,0,1,,,,,,,,0,,,77,0
172440,note_on,6,0,1,,,,,,,,0,,,76,105
172440,note_on,24,0,7,,,,,,,,2,,,45,105
172440,note_on,24,0,5,,,,,,,,4,,,45,105
172464,note_on,24,0,1,,,,,,,,0,,,76,0
172470,note_on,6,0,1,,,,,,,,0,,,77,105
172494,note_on,24,0,1,,,,,,,,0,,,77,0
172500,note_on,6,0,1,,,,,,,,0,,,76,105
172512,note_on,0,0,7,,,,,,,,2,,,73,0
172512,note_on,72,0,7,,,,,,,,2,,,69,0
172512,note_on,0,0,7,,,,,,,,2,,,64,0
172524,note_on,24,0,1,,,,,,,,0,,,76,0
172530,note_on,6,0,1,,,,,,,,0,,,77,105
172536,note_on,96,0,5,,,,,,,,4,,,45,0
172536,note_on,24,0,7,,,,,,,,2,,,45,0
172554,note_on,24,0,1,,,,,,,,0,,,77,0
172560,note_on,0,0,7,,,,,,,,2,,,69,105
172560,note_on,0,0,7,,,,,,,,2,,,65,105
172560,note_on,0,0,7,,,,,,,,2,,,50,105
172560,note_on,24,0,7,,,,,,,,2,,,74,105
172560,note_on,24,0,5,,,,,,,,4,,,50,105
172560,note_on,6,0,1,,,,,,,,0,,,74,105
172752,note_on,192,0,1,,,,,,,,0,,,74,0
172752,note_on,0,0,7,,,,,,,,2,,,69,0
172752,note_on,0,0,7,,,,,,,,2,,,74,0
172752,note_on,192,0,7,,,,,,,,2,,,65,0
172752,note_on,192,0,5,,,,,,,,4,,,50,0
172752,note_on,0,0,7,,,,,,,,2,,,50,0
172800,note_on,0,0,7,,,,,,,,2,,,62,105
172800,note_on,48,0,5,,,,,,,,4,,,38,105
172800,note_on,48,0,7,,,,,,,,2,,,38,105
172896,note_on,96,0,7,,,,,,,,2,,,62,0
172920,note_on,24,0,7,,,,,,,,2,,,65,105
172992,note_on,192,0,5,,,,,,,,4,,,38,0
172992,note_on,72,0,7,,,,,,,,2,,,38,0
173016,note_on,24,0,7,,,,,,,,2,,,65,0
173040,note_on,0,0,7,,,,,,,,2,,,65,72
173040,note_on,48,0,5,,,,,,,,4,,,62,105
173040,note_on,288,0,1,,,,,,,,0,,,77,72
173040,note_on,24,0,7,,,,,,,,2,,,62,72
173088,note_on,48,0,1,,,,,,,,0,,,77,0
173100,note_on,12,0,1,,,,,,,,0,,,74,72
173136,note_on,96,0,7,,,,,,,,2,,,65,0
173148,note_on,48,0,1,,,,,,,,0,,,74,0
173160,note_on,12,0,1,,,,,,,,0,,,69,72
173160,note_on,24,0,7,,,,,,,,2,,,69,72
173208,note_on,48,0,1,,,,,,,,0,,,69,0
173220,note_on,12,0,1,,,,,,,,0,,,77,72
173232,note_on,192,0,5,,,,,,,,4,,,62,0
173232,note_on,72,0,7,,,,,,,,2,,,62,0
173256,note_on,24,0,7,,,,,,,,2,,,69,0
173268,note_on,48,0,1,,,,,,,,0,,,77,0
173280,note_on,12,0,1,,,,,,,,0,,,77,72
173280,note_on,48,0,5,,,,,,,,4,,,50,105
173280,note_on,0,0,7,,,,,,,,2,,,50,72
173280,note_on,24,0,7,,,,,,,,2,,,74,72
173376,note_on,96,0,1,,,,,,,,0,,,77,0
173376,note_on,96,0,7,,,,,,,,2,,,74,0
173400,note_on,24,0,1,,,,,,,,0,,,79,72
173400,note_on,24,0,7,,,,,,,,2,,,69,72
173448,note_on,48,0,1,,,,,,,,0,,,79,0
173460,note_on,12,0,1,,,,,,,,0,,,81,72
173472,note_on,72,0,7,,,,,,,,2,,,50,0
173472,note_on,192,0,5,,,,,,,,4,,,50,0
173496,note_on,24,0,7,,,,,,,,2,,,69,0
173508,note_on,48,0,1,,,,,,,,0,,,81,0
173520,note_on,0,0,7,,,,,,,,2,,,62,72
173520,note_on,24,0,7,,,,,,,,2,,,60,72
173520,note_on,0,0,7,,,,,,,,2,,,66,72
173520,note_on,48,0,5,,,,,,,,4,,,60,105
173520,note_on,12,0,1,,,,,,,,0,,,78,72
173568,note_on,48,0,1,,,,,,,,0,,,78,0
173580,note_on,12,0,1,,,,,,,,0,,,74,72
173628,note_on,48,0,1,,,,,,,,0,,,74,0
173640,note_on,12,0,1,,,,,,,,0,,,69,72
173688,note_on,48,0,1,,,,,,,,0,,,69,0
173700,note_on,12,0,1,,,,,,,,0,,,78,72
173712,note_on,192,0,5,,,,,,,,4,,,60,0
173712,note_on,192,0,7,,,,,,,,2,,,60,0
173748,note_on,48,0,1,,,,,,,,0,,,78,0
173760,note_on,12,0,1,,,,,,,,0,,,78,72
173760,note_on,48,0,5,,,,,,,,4,,,48,105
173760,note_on,48,0,7,,,,,,,,2,,,48,72
173856,note_on,96,0,1,,,,,,,,0,,,78,0
173880,note_on,24,0,1,,,,,,,,0,,,79,72
173904,note_on,144,0,7,,,,,,,,2,,,62,0
173904,note_on,0,0,7,,,,,,,,2,,,66,0
173928,note_on,48,0,1,,,,,,,,0,,,79,0
173940,note_on,12,0,1,,,,,,,,0,,,81,72
173952,note_on,48,0,7,,,,,,,,2,,,48,0
173952,note_on,192,0,5,,,,,,,,4,,,48,0
173988,note_on,48,0,1,,,,,,,,0,,,81,0
174000,note_on,48,0,7,,,,,,,,2,,,62,72
174000,note_on,48,0,5,,,,,,,,4,,,58,105
174000,note_on,0,0,7,,,,,,,,2,,,58,72
174000,note_on,0,0,7,,,,,,,,2,,,67,72
174000,note_on,12,0,1,,,,,,,,0,,,79,72
174048,note_on,48,0,1,,,,,,,,0,,,79,0
174060,note_on,12,0,1,,,,,,,,0,,,74,72
174108,note_on,48,0,1,,,,,,,,0,,,74,0
174120,note_on,12,0,1,,,,,,,,0,,,70,72
174168,note_on,48,0,1,,,,,,,,0,,,70,0
174180,note_on,12,0,1,,,,,,,,0,,,79,72
174192,note_on,192,0,5,,,,,,,,4,,,58,0
174192,note_on,192,0,7,,,,,,,,2,,,58,0
174228,note_on,48,0,1,,,,,,,,0,,,79,0
174240,note_on,12,0,1,,,,,,,,0,,,79,72
174240,note_on,48,0,5,,,,,,,,4,,,46,105
174240,note_on,48,0,7,,,,,,,,2,,,46,72
174336,note_on,96,0,1,,,,,,,,0,,,79,0
174360,note_on,24,0,1,,,,,,,,0,,,81,72
174384,note_on,144,0,7,,,,,,,,2,,,67,0
174384,note_on,0,0,7,,,,,,,,2,,,62,0
174408,note_on,48,0,1,,,,,,,,0,,,81,0
174420,note_on,12,0,1,,,,,,,,0,,,82,72
174432,note_on,192,0,5,,,,,,,,4,,,46,0
174432,note_on,48,0,7,,,,,,,,2,,,46,0
174468,note_on,48,0,1,,,,,,,,0,,,82,0
174480,note_on,0,0,7,,,,,,,,2,,,71,72
174480,note_on,0,0,7,,,,,,,,2,,,62,72
174480,note_on,12,0,1,,,,,,,,0,,,80,72
174480,note_on,48,0,5,,,,,,,,4,,,52,105
174480,note_on,48,0,7,,,,,,,,2,,,68,72
174480,note_on,0,0,7,,,,,,,,2,,,52,72
174528,note_on,48,0,1,,,,,,,,0,,,80,0
174540,note_on,12,0,1,,,,,,,,0,,,74,72
174588,note_on,48,0,1,,,,,,,,0,,,74,0
174600,note_on,12,0,1,,,,,,,,0,,,70,72
174648,note_on,48,0,1,,,,,,,,0,,,70,0
174660,note_on,12,0,1,,,,,,,,0,,,80,72
174672,note_on,192,0,7,,,,,,,,2,,,52,0
174672,note_on,192,0,5,,,,,,,,4,,,52,0
174708,note_on,48,0,1,,,,,,,,0,,,80,0
174720,note_on,48,0,7,,,,,,,,2,,,40,72
174720,note_on,12,0,1,,,,,,,,0,,,80,72
174720,note_on,48,0,5,,,,,,,,4,,,40,105
174816,note_on,96,0,1,,,,,,,,0,,,80,0
174840,note_on,24,0,1,,,,,,,,0,,,81,72
174864,note_on,144,0,7,,,,,,,,2,,,68,0
174864,note_on,0,0,7,,,,,,,,2,,,71,0
174864,note_on,0,0,7,,,,,,,,2,,,62,0
174888,note_on,48,0,1,,,,,,,,0,,,81,0
174900,note_on,12,0,1,,,,,,,,0,,,83,72
174912,note_on,48,0,7,,,,,,,,2,,,40,0
174912,note_on,192,0,5,,,,,,,,4,,,40,0
174948,note_on,48,0,1,,,,,,,,0,,,83,0
174960,note_on,0,0,7,,,,,,,,2,,,57,72
174960,note_on,12,0,1,,,,,,,,0,,,81,72
174960,note_on,0,0,7,,,,,,,,2,,,64,72
174960,note_on,0,0,7,,,,,,,,2,,,69,72
174960,note_on,48,0,7,,,,,,,,2,,,61,72
174960,note_on,48,0,5,,,,,,,,4,,,57,105
175008,note_on,48,0,1,,,,,,,,0,,,81,0
175020,note_on,12,0,1,,,,,,,,0,,,73,72
175068,note_on,48,0,1,,,,,,,,0,,,73,0
175080,note_on,12,0,1,,,,,,,,0,,,69,72
175128,note_on,48,0,1,,,,,,,,0,,,69,0
175140,note_on,12,0,1,,,,,,,,0,,,81,72
175152,note_on,192,0,5,,,,,,,,4,,,57,0
175152,note_on,192,0,7,,,,,,,,2,,,57,0
175188,note_on,48,0,1,,,,,,,,0,,,81,0
175200,note_on,48,0,5,,,,,,,,4,,,55,105
175200,note_on,48,0,7,,,,,,,,2,,,55,72
175200,note_on,12,0,1,,,,,,,,0,,,81,72
175296,note_on,96,0,1,,,,,,,,0,,,81,0
175320,note_on,24,0,1,,,,,,,,0,,,83,72
175344,note_on,144,0,7,,,,,,,,2,,,61,0
175344,note_on,0,0,7,,,,,,,,2,,,64,0
175344,note_on,0,0,7,,,,,,,,2,,,69,0
175368,note_on,48,0,1,,,,,,,,0,,,83,0
175380,note_on,12,0,1,,,,,,,,0,,,85,72
175392,note_on,192,0,5,,,,,,,,4,,,55,0
175392,note_on,48,0,7,,,,,,,,2,,,55,0
175428,note_on,48,0,1,,,,,,,,0,,,85,0
175440,note_on,0,0,7,,,,,,,,2,,,69,72
175440,note_on,12,0,1,,,,,,,,0,,,86,72
175440,note_on,0,0,7,,,,,,,,2,,,53,72
175440,note_on,0,0,7,,,,,,,,2,,,74,72
175440,note_on,48,0,7,,,,,,,,2,,,62,72
175440,note_on,48,0,5,,,,,,,,4,,,53,105
175488,note_on,48,0,1,,,,,,,,0,,,86,0
175500,note_on,12,0,1,,,,,,,,0,,,77,72
175536,note_on,96,0,7,,,,,,,,2,,,69,0
175536,note_on,96,0,5,,,,,,,,4,,,53,0
175536,note_on,0,0,7,,,,,,,,2,,,53,0
175548,note_on,48,0,1,,,,,,,,0,,,77,0
175560,note_on,24,0,7,,,,,,,,2,,,58,72
175560,note_on,24,0,5,,,,,,,,4,,,58,105
175560,note_on,12,0,1,,,,,,,,0,,,74,72
175560,note_on,0,0,7,,,,,,,,2,,,67,72
175608,note_on,48,0,1,,,,,,,,0,,,74,0
175620,note_on,12,0,1,,,,,,,,0,,,77,72
175632,note_on,72,0,7,,,,,,,,2,,,62,0
175632,note_on,0,0,7,,,,,,,,2,,,74,0
175656,note_on,96,0,5,,,,,,,,4,,,58,0
175656,note_on,0,0,7,,,,,,,,2,,,67,0
175656,note_on,24,0,7,,,,,,,,2,,,58,0
175668,note_on,48,0,1,,,,,,,,0,,,77,0
175680,note_on,24,0,5,,,,,,,,4,,,57,105
175680,note_on,0,0,7,,,,,,,,2,,,73,72
175680,note_on,0,0,7,,,,,,,,2,,,64,72
175680,note_on,24,0,7,,,,,,,,2,,,69,72
175680,note_on,0,0,7,,,,,,,,2,,,57,72
175680,note_on,12,0,1,,,,,,,,0,,,76,72
175704,note_on,24,0,1,,,,,,,,0,,,76,0
175710,note_on,6,0,1,,,,,,,,0,,,77,72
175734,note_on,24,0,1,,,,,,,,0,,,77,0
175740,note_on,6,0,1,,,,,,,,0,,,76,72
175764,note_on,24,0,1,,,,,,,,0,,,76,0
175770,note_on,6,0,1,,,,,,,,0,,,77,72
175776,note_on,96,0,5,,,,,,,,4,,,57,0
175776,note_on,96,0,7,,,,,,,,2,,,57,0
175794,note_on,24,0,1,,,,,,,,0,,,77,0
175800,note_on,24,0,7,,,,,,,,2,,,45,72
175800,note_on,6,0,1,,,,,,,,0,,,76,72
175800,note_on,24,0,5,,,,,,,,4,,,45,105
175824,note_on,24,0,1,,,,,,,,0,,,76,0
175830,note_on,6,0,1,,,,,,,,0,,,77,72
175854,note_on,24,0,1,,,,,,,,0,,,77,0
175860,note_on,6,0,1,,,,,,,,0,,,76,72
175872,note_on,72,0,7,,,,,,,,2,,,69,0
175872,note_on,0,0,7,,,,,,,,2,,,73,0
175872,note_on,0,0,7,,,,,,,,2,,,64,0
175884,note_on,24,0,1,,,,,,,,0,,,76,0
175890,note_on,6,0,1,,,,,,,,0,,,77,72
175896,note_on,96,0,5,,,,,,,,4,,,45,0
175896,note_on,24,0,7,,,,,,,,2,,,45,0
175914,note_on,24,0,1,,,,,,,,0,,,77,0
175920,note_on,24,0,5,,,,,,,,4,,,50,105
175920,note_on,24,0,7,,,,,,,,2,,,65,72
175920,note_on,0,0,7,,,,,,,,2,,,74,72
175920,note_on,0,0,7,,,,,,,,2,,,50,72
175920,note_on,0,0,7,,,,,,,,2,,,69,72
175920,note_on,6,0,1,,,,,,,,0,,,74,105
176112,note_on,192,0,1,,,,,,,,0,,,74,0
176112,note_on,0,0,7,,,,,,,,2,,,50,0
176112,note_on,0,0,7,,,,,,,,2,,,74,0
176112,note_on,0,0,7,,,,,,,,2,,,65,0
176112,note_on,192,0,5,,,,,,,,4,,,50,0
176112,note_on,192,0,7,,,,,,,,2,,,69,0
176280,note_on,168,0,1,,,,,,,,0,,,69,105
176280,note_on,11928,0,2,,,,,,,,1,,,69,124
176280,note_on,11928,0,4,,,,,,,,3,,,65,105
176280,note_on,168,0,7,,,,,,,,2,,,50,72
176280,note_on,168,0,5,,,,,,,,4,,,50,105
176280,note_on,11928,0,3,,,,,,,,0,,,69,105
176280,note_on,11928,0,6,,,,,,,,5,,,41,105
176376,note_on,96,0,7,,,,,,,,2,,,50,0
176376,note_on,96,0,4,,,,,,,,3,,,65,0
176376,note_on,96,0,6,,,,,,,,5,,,41,0
176376,note_on,96,0,1,,,,,,,,0,,,69,0
176376,note_on,96,0,3,,,,,,,,0,,,69,0
176376,note_on,96,0,5,,,,,,,,4,,,50,0
176376,note_on,96,0,2,,,,,,,,1,,,69,0
176400,note_on,24,0,7,,,,,,,,2,,,62,72
176400,note_on,24,0,4,,,,,,,,3,,,69,105
176400,note_on,24,0,2,,,,,,,,1,,,74,124
176400,note_on,0,0,7,,,,,,,,2,,,57,72
176400,note_on,0,0,7,,,,,,,,2,,,53,72
176400,note_on,24,0,3,,,,,,,,0,,,74,105
176400,note_on,24,0,6,,,,,,,,5,,,41,105
176400,note_on,24,0,5,,,,,,,,4,,,53,105
176400,note_on,24,0,1,,,,,,,,0,,,74,105
176496,note_on,96,0,5,,,,,,,,4,,,53,0
176496,note_on,96,0,6,,,,,,,,5,,,41,0
176496,note_on,96,0,7,,,,,,,,2,,,53,0
176496,note_on,0,0,7,,,,,,,,2,,,62,0
176496,note_on,96,0,4,,,,,,,,3,,,69,0
176520,note_on,24,0,6,,,,,,,,5,,,38,105
176520,note_on,24,0,7,,,,,,,,2,,,65,72
176520,note_on,0,0,7,,,,,,,,2,,,50,72
176520,note_on,24,0,5,,,,,,,,4,,,50,105
176520,note_on,24,0,4,,,,,,,,3,,,65,105
176592,note_on,192,0,3,,,,,,,,0,,,74,0
176592,note_on,72,0,7,,,,,,,,2,,,57,0
176592,note_on,192,0,1,,,,,,,,0,,,74,0
176592,note_on,192,0,2,,,,,,,,1,,,74,0
176616,note_on,0,0,7,,,,,,,,2,,,65,0
176616,note_on,24,0,7,,,,,,,,2,,,50,0
176616,note_on,96,0,4,,,,,,,,3,,,65,0
176616,note_on,96,0,5,,,,,,,,4,,,50,0
176616,note_on,96,0,6,,,,,,,,5,,,38,0
176640,note_on,48,0,1,,,,,,,,0,,,76,105
176640,note_on,24,0,4,,,,,,,,3,,,64,105
176640,note_on,48,0,2,,,,,,,,1,,,76,124
176640,note_on,0,0,7,,,,,,,,2,,,49,72
176640,note_on,0,0,7,,,,,,,,2,,,57,72
176640,note_on,0,0,7,,,,,,,,2,,,69,72
176640,note_on,48,0,3,,,,,,,,0,,,76,105
176640,note_on,24,0,5,,,,,,,,4,,,49,105
176640,note_on,24,0,6,,,,,,,,5,,,37,105
176640,note_on,24,0,7,,,,,,,,2,,,64,72
176736,note_on,96,0,6,,,,,,,,5,,,37,0
176736,note_on,96,0,7,,,,,,,,2,,,49,0
176736,note_on,96,0,4,,,,,,,,3,,,64,0
176736,note_on,96,0,5,,,,,,,,4,,,49,0
176760,note_on,24,0,4,,,,,,,,3,,,61,105
176760,note_on,24,0,7,,,,,,,,2,,,45,72
176760,note_on,24,0,6,,,,,,,,5,,,33,105
176760,note_on,24,0,5,,,,,,,,4,,,45,105
176832,note_on,72,0,7,,,,,,,,2,,,64,0
176832,note_on,0,0,7,,,,,,,,2,,,69,0
176832,note_on,0,0,7,,,,,,,,2,,,57,0
176832,note_on,192,0,1,,,,,,,,0,,,76,0
176832,note_on,192,0,2,,,,,,,,1,,,76,0
176832,note_on,192,0,3,,,,,,,,0,,,76,0
176856,note_on,24,0,7,,,,,,,,2,,,45,0
176856,note_on,96,0,4,,,,,,,,3,,,61,0
176856,note_on,96,0,5,,,,,,,,4,,,45,0
176856,note_on,96,0,6,,,,,,,,5,,,33,0
176880,note_on,48,0,3,,,,,,,,0,,,77,105
176880,note_on,24,0,5,,,,,,,,4,,,50,105
176880,note_on,24,0,6,,,,,,,,5,,,38,105
176880,note_on,0,0,7,,,,,,,,2,,,50,72
176880,note_on,24,0,7,,,,,,,,2,,,65,72
176880,note_on,48,0,2,,,,,,,,1,,,77,124
176880,note_on,24,0,4,,,,,,,,3,,,57,105
176880,note_on,48,0,1,,,,,,,,0,,,77,105
176880,note_on,0,0,7,,,,,,,,2,,,65,72
176976,note_on,96,0,5,,,,,,,,4,,,50,0
176976,note_on,0,0,7,,,,,,,,2,,,65,0
176976,note_on,96,0,7,,,,,,,,2,,,50,0
176976,note_on,96,0,6,,,,,,,,5,,,38,0
177000,note_on,24,0,5,,,,,,,,4,,,62,105
177000,note_on,24,0,7,,,,,,,,2,,,69,72
177000,note_on,0,0,7,,,,,,,,2,,,62,72
177000,note_on,24,0,6,,,,,,,,5,,,50,105
177072,note_on,192,0,4,,,,,,,,3,,,57,0
177096,note_on,96,0,6,,,,,,,,5,,,50,0
177096,note_on,96,0,7,,,,,,,,2,,,62,0
177096,note_on,0,0,7,,,,,,,,2,,,69,0
177096,note_on,96,0,5,,,,,,,,4,,,62,0
177120,note_on,24,0,6,,,,,,,,5,,,46,105
177120,note_on,24,0,7,,,,,,,,2,,,58,72
177120,note_on,0,0,7,,,,,,,,2,,,74,72
177120,note_on,24,0,5,,,,,,,,4,,,58,105
177168,note_on,288,0,1,,,,,,,,0,,,77,0
177168,note_on,288,0,2,,,,,,,,1,,,77,0
177168,note_on,288,0,3,,,,,,,,0,,,77,0
177168,note_on,48,0,7,,,,,,,,2,,,65,0
177216,note_on,96,0,6,,,,,,,,5,,,46,0
177216,note_on,0,0,7,,,,,,,,2,,,58,0
177216,note_on,48,0,7,,,,,,,,2,,,74,0
177216,note_on,96,0,5,,,,,,,,4,,,58,0
177240,note_on,72,0,1,,,,,,,,0,,,76,105
177240,note_on,24,0,6,,,,,,,,5,,,43,105
177240,note_on,72,0,3,,,,,,,,0,,,76,105
177240,note_on,24,0,5,,,,,,,,4,,,55,105
177240,note_on,72,0,2,,,,,,,,1,,,76,124
177240,note_on,0,0,7,,,,,,,,2,,,55,72
177240,note_on,168,0,4,,,,,,,,3,,,70,105
177240,note_on,24,0,7,,,,,,,,2,,,70,72
177240,note_on,0,0,7,,,,,,,,2,,,64,72
177336,note_on,96,0,3,,,,,,,,0,,,76,0
177336,note_on,0,0,7,,,,,,,,2,,,55,0
177336,note_on,0,0,7,,,,,,,,2,,,70,0
177336,note_on,96,0,7,,,,,,,,2,,,64,0
177336,note_on,96,0,5,,,,,,,,4,,,55,0
177336,note_on,96,0,4,,,,,,,,3,,,70,0
177336,note_on,96,0,6,,,,,,,,5,,,43,0
177336,note_on,96,0,2,,,,,,,,1,,,76,0
177336,note_on,96,0,1,,,,,,,,0,,,76,0
177360,note_on,0,0,7,,,,,,,,2,,,54,72
177360,note_on,0,0,7,,,,,,,,2,,,62,72
177360,note_on,24,0,4,,,,,,,,3,,,69,105
177360,note_on,24,0,7,,,,,,,,2,,,74,72
177360,note_on,24,0,6,,,,,,,,5,,,42,105
177360,note_on,24,0,1,,,,,,,,0,,,74,105
177360,note_on,0,0,7,,,,,,,,2,,,69,72
177360,note_on,24,0,5,,,,,,,,4,,,54,105
177360,note_on,24,0,2,,,,,,,,1,,,74,124
177360,note_on,24,0,3,,,,,,,,0,,,74,105
177456,note_on,96,0,2,,,,,,,,1,,,74,0
177456,note_on,96,0,1,,,,,,,,0,,,74,0
177456,note_on,96,0,3,,,,,,,,0,,,74,0
177480,note_on,24,0,1,,,,,,,,0,,,72,105
177480,note_on,24,0,3,,,,,,,,0,,,72,105
177480,note_on,24,0,2,,,,,,,,1,,,72,124
177552,note_on,0,0,7,,,,,,,,2,,,74,0
177552,note_on,192,0,6,,,,,,,,5,,,42,0
177552,note_on,192,0,5,,,,,,,,4,,,54,0
177552,note_on,0,0,7,,,,,,,,2,,,69,0
177552,note_on,0,0,7,,,,,,,,2,,,62,0
177552,note_on,192,0,7,,,,,,,,2,,,54,0
177552,note_on,192,0,4,,,,,,,,3,,,69,0
177576,note_on,96,0,1,,,,,,,,0,,,72,0
177576,note_on,96,0,3,,,,,,,,0,,,72,0
177576,note_on,96,0,2,,,,,,,,1,,,72,0
177600,note_on,0,0,7,,,,,,,,2,,,62,72
177600,note_on,48,0,4,,,,,,,,3,,,66,105
177600,note_on,0,0,7,,,,,,,,2,,,66,72
177600,note_on,24,0,3,,,,,,,,0,,,70,105
177600,note_on,48,0,5,,,,,,,,4,,,50,105
177600,note_on,48,0,7,,,,,,,,2,,,69,72
177600,note_on,0,0,7,,,,,,,,2,,,50,72
177600,note_on,48,0,6,,,,,,,,5,,,38,105
177600,note_on,24,0,1,,,,,,,,0,,,70,105
177600,note_on,24,0,2,,,,,,,,1,,,70,124
177696,note_on,96,0,3,,,,,,,,0,,,70,0
177696,note_on,96,0,2,,,,,,,,1,,,70,0
177696,note_on,96,0,1,,,,,,,,0,,,70,0
177720,note_on,24,0,1,,,,,,,,0,,,69,105
177720,note_on,24,0,2,,,,,,,,1,,,69,124
177720,note_on,24,0,3,,,,,,,,0,,,69,105
177792,note_on,192,0,6,,,,,,,,5,,,38,0
177792,note_on,192,0,7,,,,,,,,2,,,66,0
177792,note_on,0,0,7,,,,,,,,2,,,69,0
177792,note_on,0,0,7,,,,,,,,2,,,62,0
177792,note_on,0,0,7,,,,,,,,2,,,50,0
177792,note_on,192,0,5,,,,,,,,4,,,50,0
177792,note_on,192,0,4,,,,,,,,3,,,66,0
177816,note_on,96,0,3,,,,,,,,0,,,69,0
177816,note_on,96,0,2,,,,,,,,1,,,69,0
177816,note_on,96,0,1,,,,,,,,0,,,69,0
177840,note_on,48,0,6,,,,,,,,5,,,43,105
177840,note_on,24,0,1,,,,,,,,0,,,70,105
177840,note_on,24,0,2,,,,,,,,1,,,70,124
177840,note_on,48,0,4,,,,,,,,3,,,62,105
177840,note_on,48,0,5,,,,,,,,4,,,55,105
177840,note_on,24,0,3,,,,,,,,0,,,70,105
177840,note_on,48,0,7,,,,,,,,2,,,55,72
177840,note_on,0,0,7,,,,,,,,2,,,62,72
177840,note_on,0,0,7,,,,,,,,2,,,67,72
177840,note_on,0,0,7,,,,,,,,2,,,70,72
178032,note_on,192,0,6,,,,,,,,5,,,43,0
178032,note_on,192,0,1,,,,,,,,0,,,70,0
178032,note_on,192,0,2,,,,,,,,1,,,70,0
178032,note_on,192,0,5,,,,,,,,4,,,55,0
178032,note_on,192,0,7,,,,,,,,2,,,70,0
178032,note_on,192,0,3,,,,,,,,0,,,70,0
178032,note_on,0,0,7,,,,,,,,2,,,67,0
178032,note_on,0,0,7,,,,,,,,2,,,55,0
178032,note_on,0,0,7,,,,,,,,2,,,62,0
178080,note_on,48,0,5,,,,,,,,4,,,53,105
178080,note_on,48,0,1,,,,,,,,0,,,69,105
178080,note_on,48,0,3,,,,,,,,0,,,69,105
178080,note_on,48,0,7,,,,,,,,2,,,69,72
178080,note_on,0,0,7,,,,,,,,2,,,53,72
178080,note_on,0,0,7,,,,,,,,2,,,62,72
178080,note_on,48,0,6,,,,,,,,5,,,41,105
178080,note_on,48,0,2,,,,,,,,1,,,69,124
178128,note_on,288,0,4,,,,,,,,3,,,62,0
178176,note_on,96,0,6,,,,,,,,5,,,41,0
178176,note_on,96,0,3,,,,,,,,0,,,69,0
178176,note_on,96,0,5,,,,,,,,4,,,53,0
178176,note_on,96,0,2,,,,,,,,1,,,69,0
178176,note_on,96,0,1,,,,,,,,0,,,69,0
178176,note_on,96,0,7,,,,,,,,2,,,53,0
178176,note_on,0,0,7,,,,,,,,2,,,69,0
178200,note_on,24,0,6,,,,,,,,5,,,38,105
178200,note_on,24,0,2,,,,,,,,1,,,70,124
178200,note_on,24,0,1,,,,,,,,0,,,70,105
178200,note_on,24,0,3,,,,,,,,0,,,70,105
178200,note_on,0,0,7,,,,,,,,2,,,50,72
178200,note_on,72,0,4,,,,,,,,3,,,62,105
178200,note_on,24,0,5,,,,,,,,4,,,50,105
178200,note_on,24,0,7,,,,,,,,2,,,70,72
178272,note_on,72,0,7,,,,,,,,2,,,62,0
178296,note_on,96,0,1,,,,,,,,0,,,70,0
178296,note_on,96,0,6,,,,,,,,5,,,38,0
178296,note_on,0,0,7,,,,,,,,2,,,70,0
178296,note_on,96,0,4,,,,,,,,3,,,62,0
178296,note_on,96,0,3,,,,,,,,0,,,70,0
178296,note_on,24,0,7,,,,,,,,2,,,50,0
178296,note_on,96,0,5,,,,,,,,4,,,50,0
178296,note_on,96,0,2,,,,,,,,1,,,70,0
178320,note_on,0,0,7,,,,,,,,2,,,64,72
178320,note_on,0,0,7,,,,,,,,2,,,49,72
178320,note_on,24,0,3,,,,,,,,0,,,67,105
178320,note_on,24,0,6,,,,,,,,5,,,37,105
178320,note_on,24,0,1,,,,,,,,0,,,67,105
178320,note_on,24,0,2,,,,,,,,1,,,67,124
178320,note_on,24,0,4,,,,,,,,3,,,64,105
178320,note_on,24,0,7,,,,,,,,2,,,67,72
178320,note_on,24,0,5,,,,,,,,4,,,49,105
178416,note_on,96,0,1,,,,,,,,0,,,67,0
178416,note_on,96,0,3,,,,,,,,0,,,67,0
178416,note_on,96,0,2,,,,,,,,1,,,67,0
178440,note_on,24,0,2,,,,,,,,1,,,65,124
178440,note_on,24,0,1,,,,,,,,0,,,65,105
178440,note_on,24,0,3,,,,,,,,0,,,65,105
178512,note_on,192,0,7,,,,,,,,2,,,64,0
178512,note_on,192,0,5,,,,,,,,4,,,49,0
178512,note_on,0,0,7,,,,,,,,2,,,49,0
178512,note_on,192,0,6,,,,,,,,5,,,37,0
178512,note_on,192,0,4,,,,,,,,3,,,64,0
178536,note_on,96,0,2,,,,,,,,1,,,65,0
178536,note_on,96,0,1,,,,,,,,0,,,65,0
178536,note_on,96,0,3,,,,,,,,0,,,65,0
178560,note_on,24,0,1,,,,,,,,0,,,64,105
178560,note_on,24,0,2,,,,,,,,1,,,64,124
178560,note_on,48,0,6,,,,,,,,5,,,33,105
178560,note_on,48,0,7,,,,,,,,2,,,45,72
178560,note_on,24,0,3,,,,,,,,0,,,64,105
178560,note_on,48,0,5,,,,,,,,4,,,45,105
178560,note_on,0,0,7,,,,,,,,2,,,61,72
178560,note_on,48,0,4,,,,,,,,3,,,61,105
178656,note_on,96,0,3,,,,,,,,0,,,64,0
178656,note_on,96,0,2,,,,,,,,1,,,64,0
178656,note_on,96,0,1,,,,,,,,0,,,64,0
178680,note_on,24,0,3,,,,,,,,0,,,69,105
178680,note_on,24,0,2,,,,,,,,1,,,69,124
178680,note_on,24,0,1,,,,,,,,0,,,69,105
178704,note_on,144,0,7,,,,,,,,2,,,67,0
178752,note_on,192,0,5,,,,,,,,4,,,45,0
178752,note_on,48,0,7,,,,,,,,2,,,61,0
178752,note_on,192,0,4,,,,,,,,3,,,61,0
178752,note_on,192,0,6,,,,,,,,5,,,33,0
178752,note_on,0,0,7,,,,,,,,2,,,45,0
178776,note_on,96,0,2,,,,,,,,1,,,69,0
178776,note_on,96,0,1,,,,,,,,0,,,69,0
178776,note_on,96,0,3,,,,,,,,0,,,69,0
178800,note_on,0,0,7,,,,,,,,2,,,50,72
178800,note_on,48,0,4,,,,,,,,3,,,57,105
178800,note_on,48,0,6,,,,,,,,5,,,38,105
178800,note_on,48,0,7,,,,,,,,2,,,65,72
178800,note_on,48,0,5,,,,,,,,4,,,50,105
178800,note_on,0,0,7,,,,,,,,2,,,57,72
178800,note_on,24,0,2,,,,,,,,1,,,65,124
178800,note_on,24,0,3,,,,,,,,0,,,65,105
178800,note_on,24,0,1,,,,,,,,0,,,65,105
178896,note_on,96,0,6,,,,,,,,5,,,38,0
178896,note_on,96,0,2,,,,,,,,1,,,65,0
178896,note_on,96,0,7,,,,,,,,2,,,50,0
178896,note_on,96,0,1,,,,,,,,0,,,65,0
178896,note_on,96,0,5,,,,,,,,4,,,50,0
178896,note_on,96,0,3,,,,,,,,0,,,65,0
178920,note_on,24,0,1,,,,,,,,0,,,64,105
178920,note_on,24,0,2,,,,,,,,1,,,64,124
178920,note_on,24,0,6,,,,,,,,5,,,40,105
178920,note_on,24,0,7,,,,,,,,2,,,52,72
178920,note_on,24,0,5,,,,,,,,4,,,52,105
178920,note_on,24,0,3,,,,,,,,0,,,64,105
178992,note_on,192,0,4,,,,,,,,3,,,57,0
178992,note_on,72,0,7,,,,,,,,2,,,65,0
179016,note_on,96,0,6,,,,,,,,5,,,40,0
179016,note_on,24,0,7,,,,,,,,2,,,52,0
179016,note_on,96,0,1,,,,,,,,0,,,64,0
179016,note_on,96,0,3,,,,,,,,0,,,64,0
179016,note_on,96,0,5,,,,,,,,4,,,52,0
179016,note_on,96,0,2,,,,,,,,1,,,64,0
179040,note_on,24,0,3,,,,,,,,0,,,62,105
179040,note_on,24,0,1,,,,,,,,0,,,62,105
179040,note_on,24,0,6,,,,,,,,5,,,41,105
179040,note_on,24,0,5,,,,,,,,4,,,53,105
179040,note_on,24,0,7,,,,,,,,2,,,53,72
179040,note_on,0,0,7,,,,,,,,2,,,62,72
179040,note_on,24,0,2,,,,,,,,1,,,62,124
179136,note_on,96,0,5,,,,,,,,4,,,53,0
179136,note_on,96,0,1,,,,,,,,0,,,62,0
179136,note_on,96,0,2,,,,,,,,1,,,62,0
179136,note_on,96,0,7,,,,,,,,2,,,53,0
179136,note_on,96,0,6,,,,,,,,5,,,41,0
179136,note_on,96,0,3,,,,,,,,0,,,62,0
179160,note_on,24,0,7,,,,,,,,2,,,52,72
179160,note_on,24,0,5,,,,,,,,4,,,52,105
179160,note_on,24,0,2,,,,,,,,1,,,77,124
179160,note_on,24,0,6,,,,,,,,5,,,40,105
179160,note_on,24,0,3,,,,,,,,0,,,77,105
179160,note_on,24,0,1,,,,,,,,0,,,77,105
179184,note_on,24,0,7,,,,,,,,2,,,57,0
179232,note_on,48,0,7,,,,,,,,2,,,62,0
179256,note_on,96,0,1,,,,,,,,0,,,77,0
179256,note_on,96,0,3,,,,,,,,0,,,77,0
179256,note_on,96,0,6,,,,,,,,5,,,40,0
179256,note_on,24,0,7,,,,,,,,2,,,52,0
179256,note_on,96,0,5,,,,,,,,4,,,52,0
179256,note_on,96,0,2,,,,,,,,1,,,77,0
179280,note_on,0,0,7,,,,,,,,2,,,50,72
179280,note_on,24,0,7,,,,,,,,2,,,65,72
179280,note_on,0,0,7,,,,,,,,2,,,57,72
179280,note_on,24,0,3,,,,,,,,0,,,81,105
179280,note_on,288,0,4,,,,,,,,3,,,65,105
179280,note_on,24,0,6,,,,,,,,5,,,38,105
179280,note_on,24,0,5,,,,,,,,4,,,50,105
179280,note_on,24,0,2,,,,,,,,1,,,81,124
179280,note_on,24,0,1,,,,,,,,0,,,81,105
179376,note_on,96,0,6,,,,,,,,5,,,38,0
179376,note_on,96,0,5,,,,,,,,4,,,50,0
179376,note_on,96,0,7,,,,,,,,2,,,50,0
179400,note_on,24,0,7,,,,,,,,2,,,52,72
179400,note_on,24,0,6,,,,,,,,5,,,40,105
179400,note_on,24,0,5,,,,,,,,4,,,52,105
179472,note_on,72,0,7,,,,,,,,2,,,65,0
179472,note_on,192,0,2,,,,,,,,1,,,81,0
179472,note_on,192,0,3,,,,,,,,0,,,81,0
179472,note_on,192,0,1,,,,,,,,0,,,81,0
179472,note_on,192,0,4,,,,,,,,3,,,65,0
179496,note_on,96,0,5,,,,,,,,4,,,52,0
179496,note_on,24,0,7,,,,,,,,2,,,52,0
179496,note_on,96,0,6,,,,,,,,5,,,40,0
179520,note_on,48,0,3,,,,,,,,0,,,77,105
179520,note_on,48,0,2,,,,,,,,1,,,77,124
179520,note_on,24,0,5,,,,,,,,4,,,53,105
179520,note_on,48,0,4,,,,,,,,3,,,62,105
179520,note_on,0,0,7,,,,,,,,2,,,62,72
179520,note_on,24,0,7,,,,,,,,2,,,53,72
179520,note_on,48,0,1,,,,,,,,0,,,77,105
179520,note_on,24,0,6,,,,,,,,5,,,41,105
179616,note_on,96,0,7,,,,,,,,2,,,53,0
179616,note_on,96,0,6,,,,,,,,5,,,41,0
179616,note_on,96,0,5,,,,,,,,4,,,53,0
179640,note_on,24,0,5,,,,,,,,4,,,50,105
179640,note_on,24,0,7,,,,,,,,2,,,50,72
179640,note_on,24,0,6,,,,,,,,5,,,38,105
179664,note_on,24,0,7,,,,,,,,2,,,57,0
179712,note_on,192,0,4,,,,,,,,3,,,62,0
179712,note_on,192,0,1,,,,,,,,0,,,77,0
179712,note_on,192,0,2,,,,,,,,1,,,77,0
179712,note_on,48,0,7,,,,,,,,2,,,62,0
179712,note_on,192,0,3,,,,,,,,0,,,77,0
179736,note_on,96,0,5,,,,,,,,4,,,50,0
179736,note_on,24,0,7,,,,,,,,2,,,50,0
179736,note_on,96,0,6,,,,,,,,5,,,38,0
179760,note_on,48,0,3,,,,,,,,0,,,76,105
179760,note_on,48,0,2,,,,,,,,1,,,76,124
179760,note_on,48,0,4,,,,,,,,3,,,61,105
179760,note_on,0,0,7,,,,,,,,2,,,61,72
179760,note_on,0,0,7,,,,,,,,2,,,57,72
179760,note_on,24,0,6,,,,,,,,5,,,33,105
179760,note_on,24,0,7,,,,,,,,2,,,64,72
179760,note_on,48,0,1,,,,,,,,0,,,76,105
179760,note_on,24,0,5,,,,,,,,4,,,45,105
179760,note_on,0,0,7,,,,,,,,2,,,45,72
179856,note_on,96,0,2,,,,,,,,1,,,76,0
179856,note_on,96,0,1,,,,,,,,0,,,76,0
179856,note_on,96,0,3,,,,,,,,0,,,76,0
179880,note_on,24,0,3,,,,,,,,0,,,80,105
179880,note_on,24,0,1,,,,,,,,0,,,80,105
179880,note_on,24,0,2,,,,,,,,1,,,80,124
179952,note_on,192,0,6,,,,,,,,5,,,33,0
179952,note_on,192,0,5,,,,,,,,4,,,45,0
179952,note_on,192,0,7,,,,,,,,2,,,45,0
179952,note_on,0,0,7,,,,,,,,2,,,64,0
179952,note_on,0,0,7,,,,,,,,2,,,61,0
179952,note_on,0,0,7,,,,,,,,2,,,57,0
179952,note_on,192,0,4,,,,,,,,3,,,61,0
179976,note_on,96,0,1,,,,,,,,0,,,80,0
179976,note_on,96,0,3,,,,,,,,0,,,80,0
179976,note_on,96,0,2,,,,,,,,1,,,80,0
180000,note_on,24,0,3,,,,,,,,0,,,81,105
180000,note_on,24,0,1,,,,,,,,0,,,81,105
180000,note_on,24,0,2,,,,,,,,1,,,81,124
180192,note_on,192,0,1,,,,,,,,0,,,81,0
180192,note_on,192,0,3,,,,,,,,0,,,81,0
180192,note_on,192,0,2,,,,,,,,1,,,81,0
180240,note_on,48,0,1,,,,,,,,0,,,77,105
180240,note_on,48,0,3,,,,,,,,0,,,77,105
180240,note_on,288,0,6,,,,,,,,5,,,34,105
180240,note_on,288,0,4,,,,,,,,3,,,65,105
180240,note_on,48,0,2,,,,,,,,1,,,77,124
180240,note_on,288,0,5,,,,,,,,4,,,46,105
180240,note_on,288,0,7,,,,,,,,2,,,65,72
180240,note_on,0,0,7,,,,,,,,2,,,46,72
180336,note_on,96,0,6,,,,,,,,5,,,34,0
180336,note_on,96,0,5,,,,,,,,4,,,46,0
180336,note_on,96,0,7,,,,,,,,2,,,46,0
180360,note_on,24,0,6,,,,,,,,5,,,50,105
180360,note_on,24,0,7,,,,,,,,2,,,62,72
180360,note_on,24,0,5,,,,,,,,4,,,62,105
180432,note_on,192,0,2,,,,,,,,1,,,77,0
180432,note_on,72,0,7,,,,,,,,2,,,65,0
180432,note_on,192,0,1,,,,,,,,0,,,77,0
180432,note_on,192,0,3,,,,,,,,0,,,77,0
180432,note_on,192,0,4,,,,,,,,3,,,65,0
180456,note_on,96,0,5,,,,,,,,4,,,62,0
180456,note_on,24,0,7,,,,,,,,2,,,62,0
180456,note_on,96,0,6,,,,,,,,5,,,50,0
180480,note_on,48,0,2,,,,,,,,1,,,73,124
180480,note_on,24,0,7,,,,,,,,2,,,61,72
180480,note_on,0,0,7,,,,,,,,2,,,57,72
180480,note_on,48,0,4,,,,,,,,3,,,64,105
180480,note_on,48,0,1,,,,,,,,0,,,73,105
180480,note_on,0,0,7,,,,,,,,2,,,64,72
180480,note_on,0,0,7,,,,,,,,2,,,69,72
180480,note_on,48,0,3,,,,,,,,0,,,73,105
180480,note_on,24,0,5,,,,,,,,4,,,57,105
180480,note_on,24,0,6,,,,,,,,5,,,45,105
180576,note_on,96,0,7,,,,,,,,2,,,57,0
180576,note_on,96,0,5,,,,,,,,4,,,57,0
180576,note_on,96,0,6,,,,,,,,5,,,45,0
180600,note_on,24,0,7,,,,,,,,2,,,55,72
180600,note_on,24,0,5,,,,,,,,4,,,55,105
180600,note_on,24,0,6,,,,,,,,5,,,41,105
180672,note_on,0,0,7,,,,,,,,2,,,69,0
180672,note_on,192,0,3,,,,,,,,0,,,73,0
180672,note_on,192,0,1,,,,,,,,0,,,73,0
180672,note_on,192,0,2,,,,,,,,1,,,73,0
180672,note_on,192,0,4,,,,,,,,3,,,64,0
180672,note_on,0,0,7,,,,,,,,2,,,64,0
180672,note_on,72,0,7,,,,,,,,2,,,61,0
180696,note_on,24,0,7,,,,,,,,2,,,55,0
180696,note_on,96,0,6,,,,,,,,5,,,41,0
180696,note_on,96,0,5,,,,,,,,4,,,55,0
180720,note_on,48,0,1,,,,,,,,0,,,74,105
180720,note_on,48,0,4,,,,,,,,3,,,57,105
180720,note_on,24,0,5,,,,,,,,4,,,53,105
180720,note_on,48,0,2,,,,,,,,1,,,74,124
180720,note_on,0,0,7,,,,,,,,2,,,53,72
180720,note_on,24,0,6,,,,,,,,5,,,41,105
180720,note_on,0,0,7,,,,,,,,2,,,69,72
180720,note_on,48,0,3,,,,,,,,0,,,74,105
180720,note_on,24,0,7,,,,,,,,2,,,74,72
180720,note_on,0,0,7,,,,,,,,2,,,62,72
180816,note_on,96,0,1,,,,,,,,0,,,74,0
180816,note_on,96,0,2,,,,,,,,1,,,74,0
180816,note_on,96,0,3,,,,,,,,0,,,74,0
180840,note_on,24,0,3,,,,,,,,0,,,80,105
180840,note_on,24,0,2,,,,,,,,1,,,80,124
180840,note_on,24,0,1,,,,,,,,0,,,80,105
180912,note_on,192,0,6,,,,,,,,5,,,41,0
180912,note_on,192,0,4,,,,,,,,3,,,57,0
180912,note_on,0,0,7,,,,,,,,2,,,74,0
180912,note_on,0,0,7,,,,,,,,2,,,69,0
180912,note_on,0,0,7,,,,,,,,2,,,62,0
180912,note_on,192,0,5,,,,,,,,4,,,53,0
180912,note_on,192,0,7,,,,,,,,2,,,53,0
180936,note_on,96,0,2,,,,,,,,1,,,80,0
180936,note_on,96,0,1,,,,,,,,0,,,80,0
180936,note_on,96,0,3,,,,,,,,0,,,80,0
180960,note_on,24,0,2,,,,,,,,1,,,81,124
180960,note_on,24,0,1,,,,,,,,0,,,81,105
180960,note_on,24,0,3,,,,,,,,0,,,81,105
181152,note_on,192,0,2,,,,,,,,1,,,81,0
181152,note_on,192,0,1,,,,,,,,0,,,81,0
181152,note_on,192,0,3,,,,,,,,0,,,81,0
181200,note_on,288,0,7,,,,,,,,2,,,70,72
181200,note_on,0,0,7,,,,,,,,2,,,55,72
181200,note_on,48,0,3,,,,,,,,0,,,76,105
181200,note_on,48,0,1,,,,,,,,0,,,76,105
181200,note_on,0,0,7,,,,,,,,2,,,76,72
181200,note_on,288,0,6,,,,,,,,5,,,43,105
181200,note_on,48,0,2,,,,,,,,1,,,76,124
181200,note_on,288,0,5,,,,,,,,4,,,55,105
181200,note_on,288,0,4,,,,,,,,3,,,70,105
181296,note_on,96,0,5,,,,,,,,4,,,55,0
181296,note_on,96,0,6,,,,,,,,5,,,43,0
181296,note_on,96,0,4,,,,,,,,3,,,70,0
181296,note_on,96,0,7,,,,,,,,2,,,55,0
181320,note_on,24,0,6,,,,,,,,5,,,45,105
181320,note_on,24,0,7,,,,,,,,2,,,57,72
181320,note_on,24,0,5,,,,,,,,4,,,57,105
181320,note_on,24,0,4,,,,,,,,3,,,72,105
181392,note_on,192,0,1,,,,,,,,0,,,76,0
181392,note_on,0,0,7,,,,,,,,2,,,70,0
181392,note_on,72,0,7,,,,,,,,2,,,76,0
181392,note_on,192,0,3,,,,,,,,0,,,76,0
181392,note_on,192,0,2,,,,,,,,1,,,76,0
181416,note_on,24,0,7,,,,,,,,2,,,57,0
181416,note_on,96,0,5,,,,,,,,4,,,57,0
181416,note_on,96,0,4,,,,,,,,3,,,72,0
181416,note_on,96,0,6,,,,,,,,5,,,45,0
181440,note_on,0,0,7,,,,,,,,2,,,58,72
181440,note_on,48,0,2,,,,,,,,1,,,74,124
181440,note_on,48,0,3,,,,,,,,0,,,74,105
181440,note_on,24,0,4,,,,,,,,3,,,74,105
181440,note_on,24,0,7,,,,,,,,2,,,74,72
181440,note_on,24,0,5,,,,,,,,4,,,58,105
181440,note_on,0,0,7,,,,,,,,2,,,67,72
181440,note_on,24,0,6,,,,,,,,5,,,46,105
181440,note_on,48,0,1,,,,,,,,0,,,74,105
181536,note_on,96,0,7,,,,,,,,2,,,58,0
181536,note_on,96,0,4,,,,,,,,3,,,74,0
181536,note_on,96,0,5,,,,,,,,4,,,58,0
181536,note_on,96,0,6,,,,,,,,5,,,46,0
181560,note_on,24,0,7,,,,,,,,2,,,55,72
181560,note_on,24,0,4,,,,,,,,3,,,70,105
181560,note_on,24,0,6,,,,,,,,5,,,43,105
181560,note_on,24,0,5,,,,,,,,4,,,55,105
181632,note_on,72,0,7,,,,,,,,2,,,67,0
181632,note_on,0,0,7,,,,,,,,2,,,74,0
181632,note_on,192,0,1,,,,,,,,0,,,74,0
181632,note_on,192,0,2,,,,,,,,1,,,74,0
181632,note_on,192,0,3,,,,,,,,0,,,74,0
181656,note_on,24,0,7,,,,,,,,2,,,55,0
181656,note_on,96,0,4,,,,,,,,3,,,70,0
181656,note_on,96,0,5,,,,,,,,4,,,55,0
181656,note_on,96,0,6,,,,,,,,5,,,43,0
181680,note_on,48,0,3,,,,,,,,0,,,73,105
181680,note_on,24,0,4,,,,,,,,3,,,64,105
181680,note_on,48,0,1,,,,,,,,0,,,73,105
181680,note_on,0,0,7,,,,,,,,2,,,57,72
181680,note_on,48,0,2,,,,,,,,1,,,73,124
181680,note_on,0,0,7,,,,,,,,2,,,73,72
181680,note_on,24,0,7,,,,,,,,2,,,64,72
181680,note_on,24,0,6,,,,,,,,5,,,45,105
181680,note_on,24,0,5,,,,,,,,4,,,57,105
181776,note_on,96,0,7,,,,,,,,2,,,57,0
181776,note_on,96,0,6,,,,,,,,5,,,45,0
181776,note_on,96,0,5,,,,,,,,4,,,57,0
181800,note_on,24,0,5,,,,,,,,4,,,58,105
181800,note_on,24,0,7,,,,,,,,2,,,58,72
181800,note_on,24,0,6,,,,,,,,5,,,46,105
181872,note_on,192,0,2,,,,,,,,1,,,73,0
181872,note_on,192,0,3,,,,,,,,0,,,73,0
181872,note_on,192,0,4,,,,,,,,3,,,64,0
181872,note_on,192,0,1,,,,,,,,0,,,73,0
181896,note_on,96,0,7,,,,,,,,2,,,58,0
181896,note_on,96,0,6,,,,,,,,5,,,46,0
181896,note_on,96,0,5,,,,,,,,4,,,58,0
181920,note_on,24,0,6,,,,,,,,5,,,45,105
181920,note_on,24,0,7,,,,,,,,2,,,57,72
181920,note_on,24,0,5,,,,,,,,4,,,57,105
182016,note_on,96,0,6,,,,,,,,5,,,45,0
182016,note_on,96,0,7,,,,,,,,2,,,57,0
182016,note_on,96,0,5,,,,,,,,4,,,57,0
182040,note_on,168,0,3,,,,,,,,0,,,81,105
182040,note_on,168,0,2,,,,,,,,1,,,81,124
182040,note_on,24,0,5,,,,,,,,4,,,55,105
182040,note_on,168,0,1,,,,,,,,0,,,81,105
182040,note_on,24,0,6,,,,,,,,5,,,43,105
182040,note_on,24,0,7,,,,,,,,2,,,55,72
182064,note_on,0,0,7,,,,,,,,2,,,64,0
182064,note_on,24,0,7,,,,,,,,2,,,73,0
182136,note_on,96,0,3,,,,,,,,0,,,81,0
182136,note_on,96,0,6,,,,,,,,5,,,43,0
182136,note_on,72,0,7,,,,,,,,2,,,55,0
182136,note_on,96,0,1,,,,,,,,0,,,81,0
182136,note_on,96,0,2,,,,,,,,1,,,81,0
182136,note_on,96,0,5,,,,,,,,4,,,55,0
182160,note_on,288,0,4,,,,,,,,3,,,69,105
182160,note_on,24,0,1,,,,,,,,0,,,72,105
182160,note_on,24,0,3,,,,,,,,0,,,72,105
182160,note_on,24,0,2,,,,,,,,1,,,72,124
182160,note_on,0,0,7,,,,,,,,2,,,54,72
182160,note_on,0,0,7,,,,,,,,2,,,72,72
182160,note_on,24,0,7,,,,,,,,2,,,62,72
182160,note_on,24,0,6,,,,,,,,5,,,42,105
182160,note_on,24,0,5,,,,,,,,4,,,54,105
182160,note_on,0,0,7,,,,,,,,2,,,69,72
182184,note_on,24,0,2,,,,,,,,1,,,72,0
182184,note_on,24,0,3,,,,,,,,0,,,72,0
182184,note_on,24,0,1,,,,,,,,0,,,72,0
182190,note_on,6,0,1,,,,,,,,0,,,74,105
182190,note_on,6,0,3,,,,,,,,0,,,74,105
182190,note_on,6,0,2,,,,,,,,1,,,74,124
182214,note_on,24,0,1,,,,,,,,0,,,74,0
182214,note_on,24,0,3,,,,,,,,0,,,74,0
182214,note_on,24,0,2,,,,,,,,1,,,74,0
182220,note_on,6,0,3,,,,,,,,0,,,72,105
182220,note_on,6,0,1,,,,,,,,0,,,72,105
182220,note_on,6,0,2,,,,,,,,1,,,72,124
182244,note_on,24,0,2,,,,,,,,1,,,72,0
182244,note_on,24,0,3,,,,,,,,0,,,72,0
182244,note_on,24,0,1,,,,,,,,0,,,72,0
182250,note_on,6,0,2,,,,,,,,1,,,74,124
182250,note_on,6,0,3,,,,,,,,0,,,74,105
182250,note_on,6,0,1,,,,,,,,0,,,74,105
182256,note_on,96,0,5,,,,,,,,4,,,54,0
182256,note_on,96,0,7,,,,,,,,2,,,54,0
182256,note_on,96,0,6,,,,,,,,5,,,42,0
182256,note_on,96,0,4,,,,,,,,3,,,69,0
182274,note_on,24,0,1,,,,,,,,0,,,74,0
182274,note_on,24,0,2,,,,,,,,1,,,74,0
182274,note_on,24,0,3,,,,,,,,0,,,74,0
182280,note_on,6,0,3,,,,,,,,0,,,72,105
182280,note_on,6,0,1,,,,,,,,0,,,72,105
182280,note_on,24,0,5,,,,,,,,4,,,50,105
182280,note_on,6,0,2,,,,,,,,1,,,72,124
182280,note_on,24,0,4,,,,,,,,3,,,66,105
182280,note_on,24,0,7,,,,,,,,2,,,50,72
182280,note_on,24,0,6,,,,,,,,5,,,38,105
182304,note_on,24,0,3,,,,,,,,0,,,72,0
182304,note_on,24,0,1,,,,,,,,0,,,72,0
182304,note_on,24,0,2,,,,,,,,1,,,72,0
182310,note_on,6,0,2,,,,,,,,1,,,74,124
182310,note_on,6,0,3,,,,,,,,0,,,74,105
182310,note_on,6,0,1,,,,,,,,0,,,74,105
182334,note_on,24,0,2,,,,,,,,1,,,74,0
182334,note_on,24,0,3,,,,,,,,0,,,74,0
182334,note_on,24,0,1,,,,,,,,0,,,74,0
182340,note_on,6,0,3,,,,,,,,0,,,72,105
182340,note_on,6,0,1,,,,,,,,0,,,72,105
182340,note_on,6,0,2,,,,,,,,1,,,72,124
182364,note_on,24,0,1,,,,,,,,0,,,72,0
182364,note_on,24,0,2,,,,,,,,1,,,72,0
182364,note_on,24,0,3,,,,,,,,0,,,72,0
182370,note_on,6,0,1,,,,,,,,0,,,74,105
182370,note_on,6,0,3,,,,,,,,0,,,74,105
182370,note_on,6,0,2,,,,,,,,1,,,74,124
182376,note_on,96,0,6,,,,,,,,5,,,38,0
182376,note_on,96,0,5,,,,,,,,4,,,50,0
182376,note_on,96,0,4,,,,,,,,3,,,66,0
182376,note_on,96,0,7,,,,,,,,2,,,50,0
182394,note_on,24,0,1,,,,,,,,0,,,74,0
182394,note_on,24,0,3,,,,,,,,0,,,74,0
182394,note_on,24,0,2,,,,,,,,1,,,74,0
182400,note_on,24,0,4,,,,,,,,3,,,67,105
182400,note_on,6,0,2,,,,,,,,1,,,72,124
182400,note_on,6,0,1,,,,,,,,0,,,72,105
182400,note_on,24,0,6,,,,,,,,5,,,40,105
182400,note_on,24,0,5,,,,,,,,4,,,52,105
182400,note_on,6,0,3,,,,,,,,0,,,72,105
182400,note_on,24,0,7,,,,,,,,2,,,52,72
182424,note_on,24,0,2,,,,,,,,1,,,72,0
182424,note_on,24,0,3,,,,,,,,0,,,72,0
182424,note_on,24,0,1,,,,,,,,0,,,72,0
182430,note_on,6,0,2,,,,,,,,1,,,74,124
182430,note_on,6,0,1,,,,,,,,0,,,74,105
182430,note_on,6,0,3,,,,,,,,0,,,74,105
182454,note_on,24,0,1,,,,,,,,0,,,74,0
182454,note_on,24,0,3,,,,,,,,0,,,74,0
182454,note_on,24,0,2,,,,,,,,1,,,74,0
182460,note_on,6,0,2,,,,,,,,1,,,72,124
182460,note_on,6,0,1,,,,,,,,0,,,72,105
182460,note_on,6,0,3,,,,,,,,0,,,72,105
182484,note_on,24,0,1,,,,,,,,0,,,72,0
182484,note_on,24,0,2,,,,,,,,1,,,72,0
182484,note_on,24,0,3,,,,,,,,0,,,72,0
182490,note_on,6,0,1,,,,,,,,0,,,74,105
182490,note_on,6,0,2,,,,,,,,1,,,74,124
182490,note_on,6,0,3,,,,,,,,0,,,74,105
182496,note_on,96,0,6,,,,,,,,5,,,40,0
182496,note_on,96,0,7,,,,,,,,2,,,52,0
182496,note_on,96,0,5,,,,,,,,4,,,52,0
182496,note_on,96,0,4,,,,,,,,3,,,67,0
182514,note_on,24,0,3,,,,,,,,0,,,74,0
182514,note_on,24,0,1,,,,,,,,0,,,74,0
182514,note_on,24,0,2,,,,,,,,1,,,74,0
182520,note_on,24,0,7,,,,,,,,2,,,54,72
182520,note_on,24,0,4,,,,,,,,3,,,69,105
182520,note_on,6,0,1,,,,,,,,0,,,70,105
182520,note_on,6,0,2,,,,,,,,1,,,70,124
182520,note_on,6,0,3,,,,,,,,0,,,70,105
182520,note_on,24,0,5,,,,,,,,4,,,54,105
182520,note_on,24,0,6,,,,,,,,5,,,42,105
182544,note_on,0,0,7,,,,,,,,2,,,72,0
182544,note_on,0,0,7,,,,,,,,2,,,69,0
182544,note_on,24,0,7,,,,,,,,2,,,62,0
182568,note_on,48,0,1,,,,,,,,0,,,70,0
182568,note_on,48,0,3,,,,,,,,0,,,70,0
182568,note_on,48,0,2,,,,,,,,1,,,70,0
182580,note_on,12,0,2,,,,,,,,1,,,69,124
182580,note_on,12,0,3,,,,,,,,0,,,69,105
182580,note_on,12,0,1,,,,,,,,0,,,69,105
182616,note_on,96,0,5,,,,,,,,4,,,54,0
182616,note_on,72,0,7,,,,,,,,2,,,54,0
182616,note_on,96,0,6,,,,,,,,5,,,42,0
182616,note_on,96,0,4,,,,,,,,3,,,69,0
182628,note_on,48,0,3,,,,,,,,0,,,69,0
182628,note_on,48,0,1,,,,,,,,0,,,69,0
182628,note_on,48,0,2,,,,,,,,1,,,69,0
182640,note_on,0,0,7,,,,,,,,2,,,55,72
182640,note_on,24,0,6,,,,,,,,5,,,43,105
182640,note_on,0,0,7,,,,,,,,2,,,67,72
182640,note_on,24,0,7,,,,,,,,2,,,70,72
182640,note_on,0,0,7,,,,,,,,2,,,62,72
182640,note_on,12,0,3,,,,,,,,0,,,70,105
182640,note_on,12,0,2,,,,,,,,1,,,70,124
182640,note_on,24,0,4,,,,,,,,3,,,62,105
182640,note_on,12,0,1,,,,,,,,0,,,70,105
182640,note_on,24,0,5,,,,,,,,4,,,55,105
182736,note_on,96,0,3,,,,,,,,0,,,70,0
182736,note_on,96,0,6,,,,,,,,5,,,43,0
182736,note_on,96,0,1,,,,,,,,0,,,70,0
182736,note_on,96,0,7,,,,,,,,2,,,55,0
182736,note_on,96,0,2,,,,,,,,1,,,70,0
182736,note_on,96,0,5,,,,,,,,4,,,55,0
182760,note_on,24,0,1,,,,,,,,0,,,67,105
182760,note_on,24,0,6,,,,,,,,5,,,45,105
182760,note_on,24,0,2,,,,,,,,1,,,67,124
182760,note_on,24,0,7,,,,,,,,2,,,57,72
182760,note_on,24,0,3,,,,,,,,0,,,67,105
182760,note_on,24,0,5,,,,,,,,4,,,57,105
182832,note_on,192,0,4,,,,,,,,3,,,62,0
182856,note_on,96,0,7,,,,,,,,2,,,57,0
182856,note_on,96,0,2,,,,,,,,1,,,67,0
182856,note_on,96,0,1,,,,,,,,0,,,67,0
182856,note_on,96,0,3,,,,,,,,0,,,67,0
182856,note_on,96,0,6,,,,,,,,5,,,45,0
182856,note_on,96,0,5,,,,,,,,4,,,57,0
182880,note_on,24,0,1,,,,,,,,0,,,70,105
182880,note_on,24,0,7,,,,,,,,2,,,55,72
182880,note_on,24,0,6,,,,,,,,5,,,43,105
182880,note_on,24,0,5,,,,,,,,4,,,55,105
182880,note_on,24,0,2,,,,,,,,1,,,70,124
182880,note_on,24,0,3,,,,,,,,0,,,70,105
182976,note_on,96,0,7,,,,,,,,2,,,55,0
182976,note_on,96,0,3,,,,,,,,0,,,70,0
182976,note_on,96,0,5,,,,,,,,4,,,55,0
182976,note_on,96,0,6,,,,,,,,5,,,43,0
182976,note_on,96,0,1,,,,,,,,0,,,70,0
182976,note_on,96,0,2,,,,,,,,1,,,70,0
183000,note_on,24,0,2,,,,,,,,1,,,79,124
183000,note_on,24,0,5,,,,,,,,4,,,53,105
183000,note_on,24,0,3,,,,,,,,0,,,79,105
183000,note_on,24,0,1,,,,,,,,0,,,79,105
183000,note_on,24,0,7,,,,,,,,2,,,53,72
183000,note_on,24,0,6,,,,,,,,5,,,41,105
183024,note_on,0,0,7,,,,,,,,2,,,62,0
183024,note_on,24,0,7,,,,,,,,2,,,70,0
183024,note_on,0,0,7,,,,,,,,2,,,67,0
183096,note_on,96,0,1,,,,,,,,0,,,79,0
183096,note_on,96,0,3,,,,,,,,0,,,79,0
183096,note_on,96,0,2,,,,,,,,1,,,79,0
183096,note_on,96,0,6,,,,,,,,5,,,41,0
183096,note_on,72,0,7,,,,,,,,2,,,53,0
183096,note_on,96,0,5,,,,,,,,4,,,53,0
183120,note_on,24,0,3,,,,,,,,0,,,70,105
183120,note_on,24,0,2,,,,,,,,1,,,70,124
183120,note_on,288,0,4,,,,,,,,3,,,67,105
183120,note_on,24,0,1,,,,,,,,0,,,70,105
183120,note_on,24,0,5,,,,,,,,4,,,52,105
183120,note_on,0,0,7,,,,,,,,2,,,67,72
183120,note_on,0,0,7,,,,,,,,2,,,60,72
183120,note_on,24,0,7,,,,,,,,2,,,52,72
183120,note_on,24,0,6,,,,,,,,5,,,40,105
183120,note_on,0,0,7,,,,,,,,2,,,70,72
183144,note_on,24,0,2,,,,,,,,1,,,70,0
183144,note_on,24,0,1,,,,,,,,0,,,70,0
183144,note_on,24,0,3,,,,,,,,0,,,70,0
183150,note_on,6,0,2,,,,,,,,1,,,72,124
183150,note_on,6,0,1,,,,,,,,0,,,72,105
183150,note_on,6,0,3,,,,,,,,0,,,72,105
183174,note_on,24,0,3,,,,,,,,0,,,72,0
183174,note_on,24,0,2,,,,,,,,1,,,72,0
183174,note_on,24,0,1,,,,,,,,0,,,72,0
183180,note_on,6,0,1,,,,,,,,0,,,70,105
183180,note_on,6,0,3,,,,,,,,0,,,70,105
183180,note_on,6,0,2,,,,,,,,1,,,70,124
183204,note_on,24,0,2,,,,,,,,1,,,70,0
183204,note_on,24,0,1,,,,,,,,0,,,70,0
183204,note_on,24,0,3,,,,,,,,0,,,70,0
183210,note_on,6,0,1,,,,,,,,0,,,72,105
183210,note_on,6,0,2,,,,,,,,1,,,72,124
183210,note_on,6,0,3,,,,,,,,0,,,72,105
183216,note_on,96,0,5,,,,,,,,4,,,52,0
183216,note_on,96,0,6,,,,,,,,5,,,40,0
183216,note_on,96,0,7,,,,,,,,2,,,52,0
183216,note_on,96,0,4,,,,,,,,3,,,67,0
183234,note_on,24,0,1,,,,,,,,0,,,72,0
183234,note_on,24,0,3,,,,,,,,0,,,72,0
183234,note_on,24,0,2,,,,,,,,1,,,72,0
183240,note_on,24,0,7,,,,,,,,2,,,48,72
183240,note_on,24,0,6,,,,,,,,5,,,36,105
183240,note_on,6,0,2,,,,,,,,1,,,70,124
183240,note_on,24,0,5,,,,,,,,4,,,48,105
183240,note_on,6,0,1,,,,,,,,0,,,70,105
183240,note_on,6,0,3,,,,,,,,0,,,70,105
183240,note_on,24,0,4,,,,,,,,3,,,64,105
183264,note_on,24,0,2,,,,,,,,1,,,70,0
183264,note_on,24,0,1,,,,,,,,0,,,70,0
183264,note_on,24,0,3,,,,,,,,0,,,70,0
183270,note_on,6,0,1,,,,,,,,0,,,72,105
183270,note_on,6,0,2,,,,,,,,1,,,72,124
183270,note_on,6,0,3,,,,,,,,0,,,72,105
183294,note_on,24,0,2,,,,,,,,1,,,72,0
183294,note_on,24,0,1,,,,,,,,0,,,72,0
183294,note_on,24,0,3,,,,,,,,0,,,72,0
183300,note_on,6,0,3,,,,,,,,0,,,70,105
183300,note_on,6,0,2,,,,,,,,1,,,70,124
183300,note_on,6,0,1,,,,,,,,0,,,70,105
183324,note_on,24,0,2,,,,,,,,1,,,70,0
183324,note_on,24,0,3,,,,,,,,0,,,70,0
183324,note_on,24,0,1,,,,,,,,0,,,70,0
183330,note_on,6,0,3,,,,,,,,0,,,72,105
183330,note_on,6,0,1,,,,,,,,0,,,72,105
183330,note_on,6,0,2,,,,,,,,1,,,72,124
183336,note_on,96,0,4,,,,,,,,3,,,64,0
183336,note_on,96,0,7,,,,,,,,2,,,48,0
183336,note_on,96,0,6,,,,,,,,5,,,36,0
183336,note_on,96,0,5,,,,,,,,4,,,48,0
183354,note_on,24,0,1,,,,,,,,0,,,72,0
183354,note_on,24,0,3,,,,,,,,0,,,72,0
183354,note_on,24,0,2,,,,,,,,1,,,72,0
183360,note_on,6,0,2,,,,,,,,1,,,70,124
183360,note_on,24,0,6,,,,,,,,5,,,38,105
183360,note_on,24,0,4,,,,,,,,3,,,65,105
183360,note_on,24,0,5,,,,,,,,4,,,50,105
183360,note_on,24,0,7,,,,,,,,2,,,50,72
183360,note_on,6,0,1,,,,,,,,0,,,70,105
183360,note_on,6,0,3,,,,,,,,0,,,70,105
183384,note_on,24,0,3,,,,,,,,0,,,70,0
183384,note_on,24,0,2,,,,,,,,1,,,70,0
183384,note_on,24,0,1,,,,,,,,0,,,70,0
183390,note_on,6,0,1,,,,,,,,0,,,72,105
183390,note_on,6,0,3,,,,,,,,0,,,72,105
183390,note_on,6,0,2,,,,,,,,1,,,72,124
183414,note_on,24,0,1,,,,,,,,0,,,72,0
183414,note_on,24,0,2,,,,,,,,1,,,72,0
183414,note_on,24,0,3,,,,,,,,0,,,72,0
183420,note_on,6,0,1,,,,,,,,0,,,70,105
183420,note_on,6,0,3,,,,,,,,0,,,70,105
183420,note_on,6,0,2,,,,,,,,1,,,70,124
183444,note_on,24,0,2,,,,,,,,1,,,70,0
183444,note_on,24,0,1,,,,,,,,0,,,70,0
183444,note_on,24,0,3,,,,,,,,0,,,70,0
183450,note_on,6,0,2,,,,,,,,1,,,72,124
183450,note_on,6,0,1,,,,,,,,0,,,72,105
183450,note_on,6,0,3,,,,,,,,0,,,72,105
183456,note_on,96,0,6,,,,,,,,5,,,38,0
183456,note_on,96,0,7,,,,,,,,2,,,50,0
183456,note_on,96,0,4,,,,,,,,3,,,65,0
183456,note_on,96,0,5,,,,,,,,4,,,50,0
183474,note_on,24,0,2,,,,,,,,1,,,72,0
183474,note_on,24,0,1,,,,,,,,0,,,72,0
183474,note_on,24,0,3,,,,,,,,0,,,72,0
183480,note_on,24,0,5,,,,,,,,4,,,52,105
183480,note_on,6,0,2,,,,,,,,1,,,69,124
183480,note_on,24,0,7,,,,,,,,2,,,52,72
183480,note_on,6,0,1,,,,,,,,0,,,69,105
183480,note_on,24,0,6,,,,,,,,5,,,40,105
183480,note_on,24,0,4,,,,,,,,3,,,67,105
183480,note_on,6,0,3,,,,,,,,0,,,69,105
183504,note_on,0,0,7,,,,,,,,2,,,67,0
183504,note_on,0,0,7,,,,,,,,2,,,70,0
183504,note_on,24,0,7,,,,,,,,2,,,60,0
183528,note_on,48,0,2,,,,,,,,1,,,69,0
183528,note_on,48,0,1,,,,,,,,0,,,69,0
183528,note_on,48,0,3,,,,,,,,0,,,69,0
183540,note_on,12,0,2,,,,,,,,1,,,67,124
183540,note_on,12,0,1,,,,,,,,0,,,67,105
183540,note_on,12,0,3,,,,,,,,0,,,67,105
183576,note_on,96,0,4,,,,,,,,3,,,67,0
183576,note_on,96,0,5,,,,,,,,4,,,52,0
183576,note_on,96,0,6,,,,,,,,5,,,40,0
183576,note_on,72,0,7,,,,,,,,2,,,52,0
183588,note_on,48,0,2,,,,,,,,1,,,67,0
183588,note_on,48,0,1,,,,,,,,0,,,67,0
183588,note_on,48,0,3,,,,,,,,0,,,67,0
183600,note_on,0,0,7,,,,,,,,2,,,65,72
183600,note_on,0,0,7,,,,,,,,2,,,60,72
183600,note_on,24,0,6,,,,,,,,5,,,41,105
183600,note_on,0,0,7,,,,,,,,2,,,53,72
183600,note_on,24,0,5,,,,,,,,4,,,53,105
183600,note_on,12,0,3,,,,,,,,0,,,69,105
183600,note_on,12,0,2,,,,,,,,1,,,69,124
183600,note_on,12,0,1,,,,,,,,0,,,69,105
183600,note_on,24,0,4,,,,,,,,3,,,60,105
183600,note_on,24,0,7,,,,,,,,2,,,69,72
183696,note_on,96,0,7,,,,,,,,2,,,53,0
183696,note_on,96,0,2,,,,,,,,1,,,69,0
183696,note_on,96,0,1,,,,,,,,0,,,69,0
183696,note_on,96,0,3,,,,,,,,0,,,69,0
183696,note_on,96,0,6,,,,,,,,5,,,41,0
183696,note_on,96,0,5,,,,,,,,4,,,53,0
183720,note_on,24,0,3,,,,,,,,0,,,65,105
183720,note_on,24,0,1,,,,,,,,0,,,65,105
183720,note_on,24,0,2,,,,,,,,1,,,65,124
183720,note_on,24,0,7,,,,,,,,2,,,57,72
183720,note_on,24,0,6,,,,,,,,5,,,45,105
183720,note_on,24,0,5,,,,,,,,4,,,57,105
183792,note_on,192,0,4,,,,,,,,3,,,60,0
183816,note_on,96,0,7,,,,,,,,2,,,57,0
183816,note_on,96,0,1,,,,,,,,0,,,65,0
183816,note_on,96,0,3,,,,,,,,0,,,65,0
183816,note_on,96,0,5,,,,,,,,4,,,57,0
183816,note_on,96,0,6,,,,,,,,5,,,45,0
183816,note_on,96,0,2,,,,,,,,1,,,65,0
183840,note_on,24,0,7,,,,,,,,2,,,55,72
183840,note_on,24,0,3,,,,,,,,0,,,69,105
183840,note_on,24,0,1,,,,,,,,0,,,69,105
183840,note_on,24,0,5,,,,,,,,4,,,55,105
183840,note_on,24,0,6,,,,,,,,5,,,43,105
183840,note_on,24,0,2,,,,,,,,1,,,69,124
183936,note_on,96,0,2,,,,,,,,1,,,69,0
183936,note_on,96,0,6,,,,,,,,5,,,43,0
183936,note_on,96,0,7,,,,,,,,2,,,55,0
183936,note_on,96,0,1,,,,,,,,0,,,69,0
183936,note_on,96,0,3,,,,,,,,0,,,69,0
183936,note_on,96,0,5,,,,,,,,4,,,55,0
183960,note_on,24,0,6,,,,,,,,5,,,41,105
183960,note_on,24,0,5,,,,,,,,4,,,53,105
183960,note_on,24,0,7,,,,,,,,2,,,53,72
183960,note_on,24,0,1,,,,,,,,0,,,77,105
183960,note_on,168,0,4,,,,,,,,3,,,69,105
183960,note_on,24,0,2,,,,,,,,1,,,77,124
183960,note_on,24,0,3,,,,,,,,0,,,77,105
183984,note_on,0,0,7,,,,,,,,2,,,65,0
183984,note_on,0,0,7,,,,,,,,2,,,60,0
183984,note_on,24,0,7,,,,,,,,2,,,69,0
184056,note_on,96,0,5,,,,,,,,4,,,53,0
184056,note_on,96,0,3,,,,,,,,0,,,77,0
184056,note_on,96,0,2,,,,,,,,1,,,77,0
184056,note_on,96,0,1,,,,,,,,0,,,77,0
184056,note_on,96,0,4,,,,,,,,3,,,69,0
184056,note_on,96,0,6,,,,,,,,5,,,41,0
184056,note_on,72,0,7,,,,,,,,2,,,53,0
184080,note_on,24,0,4,,,,,,,,3,,,70,105
184080,note_on,24,0,5,,,,,,,,4,,,55,105
184080,note_on,24,0,1,,,,,,,,0,,,76,105
184080,note_on,0,0,7,,,,,,,,2,,,70,72
184080,note_on,24,0,2,,,,,,,,1,,,76,124
184080,note_on,24,0,3,,,,,,,,0,,,76,105
184080,note_on,24,0,7,,,,,,,,2,,,64,72
184080,note_on,0,0,7,,,,,,,,2,,,55,72
184080,note_on,24,0,6,,,,,,,,5,,,43,105
184272,note_on,192,0,5,,,,,,,,4,,,55,0
184272,note_on,192,0,3,,,,,,,,0,,,76,0
184272,note_on,192,0,4,,,,,,,,3,,,70,0
184272,note_on,192,0,7,,,,,,,,2,,,70,0
184272,note_on,0,0,7,,,,,,,,2,,,64,0
184272,note_on,192,0,2,,,,,,,,1,,,76,0
184272,note_on,192,0,1,,,,,,,,0,,,76,0
184272,note_on,0,0,7,,,,,,,,2,,,55,0
184272,note_on,192,0,6,,,,,,,,5,,,43,0
184320,note_on,48,0,7,,,,,,,,2,,,74,72
184320,note_on,0,0,7,,,,,,,,2,,,71,72
184320,note_on,0,0,7,,,,,,,,2,,,64,72
184320,note_on,0,0,7,,,,,,,,2,,,56,72
184320,note_on,48,0,6,,,,,,,,5,,,44,105
184320,note_on,48,0,4,,,,,,,,3,,,71,105
184320,note_on,48,0,1,,,,,,,,0,,,74,105
184320,note_on,48,0,2,,,,,,,,1,,,74,124
184320,note_on,48,0,3,,,,,,,,0,,,74,105
184320,note_on,48,0,5,,,,,,,,4,,,56,105
184512,note_on,192,0,3,,,,,,,,0,,,74,0
184512,note_on,192,0,2,,,,,,,,1,,,74,0
184512,note_on,192,0,4,,,,,,,,3,,,71,0
184512,note_on,192,0,5,,,,,,,,4,,,56,0
184512,note_on,192,0,7,,,,,,,,2,,,56,0
184512,note_on,0,0,7,,,,,,,,2,,,74,0
184512,note_on,192,0,1,,,,,,,,0,,,74,0
184512,note_on,0,0,7,,,,,,,,2,,,71,0
184512,note_on,0,0,7,,,,,,,,2,,,64,0
184512,note_on,192,0,6,,,,,,,,5,,,44,0
184560,note_on,48,0,5,,,,,,,,4,,,57,105
184560,note_on,48,0,3,,,,,,,,0,,,81,105
184560,note_on,48,0,7,,,,,,,,2,,,57,72
184560,note_on,0,0,7,,,,,,,,2,,,64,72
184560,note_on,0,0,7,,,,,,,,2,,,69,72
184560,note_on,0,0,7,,,,,,,,2,,,73,72
184560,note_on,48,0,6,,,,,,,,5,,,45,105
184560,note_on,48,0,4,,,,,,,,3,,,60,105
184560,note_on,48,0,1,,,,,,,,0,,,81,105
184560,note_on,48,0,2,,,,,,,,1,,,81,124
184656,note_on,96,0,3,,,,,,,,0,,,81,0
184656,note_on,96,0,2,,,,,,,,1,,,81,0
184656,note_on,96,0,1,,,,,,,,0,,,81,0
184680,note_on,24,0,1,,,,,,,,0,,,79,105
184680,note_on,24,0,3,,,,,,,,0,,,79,105
184680,note_on,24,0,2,,,,,,,,1,,,79,124
184728,note_on,48,0,3,,,,,,,,0,,,79,0
184728,note_on,48,0,1,,,,,,,,0,,,79,0
184728,note_on,48,0,2,,,,,,,,1,,,79,0
184740,note_on,12,0,2,,,,,,,,1,,,77,124
184740,note_on,12,0,3,,,,,,,,0,,,77,105
184740,note_on,12,0,1,,,,,,,,0,,,77,105
184752,note_on,192,0,7,,,,,,,,2,,,73,0
184752,note_on,0,0,7,,,,,,,,2,,,57,0
184752,note_on,0,0,7,,,,,,,,2,,,64,0
184752,note_on,192,0,6,,,,,,,,5,,,45,0
184752,note_on,192,0,4,,,,,,,,3,,,60,0
184752,note_on,192,0,5,,,,,,,,4,,,57,0
184752,note_on,0,0,7,,,,,,,,2,,,69,0
184788,note_on,48,0,1,,,,,,,,0,,,77,0
184788,note_on,48,0,2,,,,,,,,1,,,77,0
184788,note_on,48,0,3,,,,,,,,0,,,77,0
184800,note_on,12,0,1,,,,,,,,0,,,76,105
184800,note_on,12,0,2,,,,,,,,1,,,76,124
184800,note_on,12,0,3,,,,,,,,0,,,76,105
184896,note_on,96,0,2,,,,,,,,1,,,76,0
184896,note_on,96,0,1,,,,,,,,0,,,76,0
184896,note_on,96,0,3,,,,,,,,0,,,76,0
184920,note_on,24,0,1,,,,,,,,0,,,74,105
184920,note_on,24,0,2,,,,,,,,1,,,74,124
184920,note_on,0,0,7,,,,,,,,2,,,62,72
184920,note_on,0,0,7,,,,,,,,2,,,69,72
184920,note_on,168,0,7,,,,,,,,2,,,74,72
184920,note_on,168,0,4,,,,,,,,3,,,69,105
184920,note_on,168,0,6,,,,,,,,5,,,41,105
184920,note_on,168,0,5,,,,,,,,4,,,53,105
184920,note_on,24,0,3,,,,,,,,0,,,74,105
184920,note_on,0,0,7,,,,,,,,2,,,53,72
185016,note_on,0,0,7,,,,,,,,2,,,69,0
185016,note_on,0,0,7,,,,,,,,2,,,74,0
185016,note_on,96,0,7,,,,,,,,2,,,53,0
185016,note_on,0,0,7,,,,,,,,2,,,62,0
185016,note_on,96,0,5,,,,,,,,4,,,53,0
185016,note_on,96,0,3,,,,,,,,0,,,74,0
185016,note_on,96,0,2,,,,,,,,1,,,74,0
185016,note_on,96,0,1,,,,,,,,0,,,74,0
185016,note_on,96,0,6,,,,,,,,5,,,41,0
185016,note_on,96,0,4,,,,,,,,3,,,69,0
185040,note_on,24,0,5,,,,,,,,4,,,55,105
185040,note_on,24,0,2,,,,,,,,1,,,76,124
185040,note_on,24,0,1,,,,,,,,0,,,76,105
185040,note_on,24,0,3,,,,,,,,0,,,76,105
185040,note_on,0,0,7,,,,,,,,2,,,55,72
185040,note_on,0,0,7,,,,,,,,2,,,62,72
185040,note_on,0,0,7,,,,,,,,2,,,70,72
185040,note_on,24,0,4,,,,,,,,3,,,70,105
185040,note_on,24,0,7,,,,,,,,2,,,67,72
185040,note_on,24,0,6,,,,,,,,5,,,43,105
185136,note_on,96,0,6,,,,,,,,5,,,43,0
185136,note_on,96,0,5,,,,,,,,4,,,55,0
185136,note_on,96,0,4,,,,,,,,3,,,70,0
185136,note_on,96,0,7,,,,,,,,2,,,55,0
185160,note_on,24,0,6,,,,,,,,5,,,40,105
185160,note_on,24,0,4,,,,,,,,3,,,67,105
185160,note_on,24,0,5,,,,,,,,4,,,52,105
185160,note_on,24,0,7,,,,,,,,2,,,52,72
185232,note_on,192,0,1,,,,,,,,0,,,76,0
185232,note_on,192,0,2,,,,,,,,1,,,76,0
185232,note_on,192,0,3,,,,,,,,0,,,76,0
185232,note_on,0,0,7,,,,,,,,2,,,62,0
185232,note_on,0,0,7,,,,,,,,2,,,70,0
185232,note_on,72,0,7,,,,,,,,2,,,67,0
185256,note_on,24,0,7,,,,,,,,2,,,52,0
185256,note_on,96,0,4,,,,,,,,3,,,67,0
185256,note_on,96,0,5,,,,,,,,4,,,52,0
185256,note_on,96,0,6,,,,,,,,5,,,40,0
185280,note_on,0,0,7,,,,,,,,2,,,69,72
185280,note_on,48,0,1,,,,,,,,0,,,73,105
185280,note_on,24,0,5,,,,,,,,4,,,57,105
185280,note_on,24,0,6,,,,,,,,5,,,45,105
185280,note_on,0,0,7,,,,,,,,2,,,64,72
185280,note_on,48,0,2,,,,,,,,1,,,73,124
185280,note_on,0,0,7,,,,,,,,2,,,61,72
185280,note_on,24,0,4,,,,,,,,3,,,64,105
185280,note_on,48,0,3,,,,,,,,0,,,73,105
185280,note_on,24,0,7,,,,,,,,2,,,57,72
185304,note_on,24,0,1,,,,,,,,0,,,73,0
185304,note_on,24,0,3,,,,,,,,0,,,73,0
185304,note_on,24,0,2,,,,,,,,1,,,73,0
185310,note_on,6,0,1,,,,,,,,0,,,74,105
185310,note_on,6,0,3,,,,,,,,0,,,74,105
185310,note_on,6,0,2,,,,,,,,1,,,74,124
185334,note_on,24,0,3,,,,,,,,0,,,74,0
185334,note_on,24,0,1,,,,,,,,0,,,74,0
185334,note_on,24,0,2,,,,,,,,1,,,74,0
185340,note_on,6,0,3,,,,,,,,0,,,73,105
185340,note_on,6,0,2,,,,,,,,1,,,73,124
185340,note_on,6,0,1,,,,,,,,0,,,73,105
185364,note_on,24,0,2,,,,,,,,1,,,73,0
185364,note_on,24,0,3,,,,,,,,0,,,73,0
185364,note_on,24,0,1,,,,,,,,0,,,73,0
185370,note_on,6,0,2,,,,,,,,1,,,74,124
185370,note_on,6,0,3,,,,,,,,0,,,74,105
185370,note_on,6,0,1,,,,,,,,0,,,74,105
185376,note_on,96,0,7,,,,,,,,2,,,57,0
185376,note_on,96,0,5,,,,,,,,4,,,57,0
185376,note_on,96,0,6,,,,,,,,5,,,45,0
185394,note_on,24,0,2,,,,,,,,1,,,74,0
185394,note_on,24,0,3,,,,,,,,0,,,74,0
185394,note_on,24,0,1,,,,,,,,0,,,74,0
185400,note_on,6,0,2,,,,,,,,1,,,73,124
185400,note_on,24,0,6,,,,,,,,5,,,33,105
185400,note_on,24,0,5,,,,,,,,4,,,45,105
185400,note_on,6,0,3,,,,,,,,0,,,73,105
185400,note_on,6,0,1,,,,,,,,0,,,73,105
185400,note_on,24,0,7,,,,,,,,2,,,45,72
185424,note_on,24,0,1,,,,,,,,0,,,73,0
185424,note_on,24,0,3,,,,,,,,0,,,73,0
185424,note_on,24,0,2,,,,,,,,1,,,73,0
185430,note_on,6,0,1,,,,,,,,0,,,74,105
185430,note_on,6,0,3,,,,,,,,0,,,74,105
185430,note_on,6,0,2,,,,,,,,1,,,74,124
185454,note_on,24,0,2,,,,,,,,1,,,74,0
185454,note_on,24,0,3,,,,,,,,0,,,74,0
185454,note_on,24,0,1,,,,,,,,0,,,74,0
185460,note_on,6,0,2,,,,,,,,1,,,73,124
185460,note_on,6,0,1,,,,,,,,0,,,73,105
185460,note_on,6,0,3,,,,,,,,0,,,73,105
185472,note_on,0,0,7,,,,,,,,2,,,69,0
185472,note_on,0,0,7,,,,,,,,2,,,61,0
185472,note_on,72,0,7,,,,,,,,2,,,64,0
185472,note_on,192,0,4,,,,,,,,3,,,64,0
185484,note_on,24,0,1,,,,,,,,0,,,73,0
185484,note_on,24,0,3,,,,,,,,0,,,73,0
185484,note_on,24,0,2,,,,,,,,1,,,73,0
185490,note_on,6,0,1,,,,,,,,0,,,74,105
185490,note_on,6,0,3,,,,,,,,0,,,74,105
185490,note_on,6,0,2,,,,,,,,1,,,74,124
185496,note_on,96,0,5,,,,,,,,4,,,45,0
185496,note_on,24,0,7,,,,,,,,2,,,45,0
185496,note_on,96,0,6,,,,,,,,5,,,33,0
185514,note_on,24,0,2,,,,,,,,1,,,74,0
185514,note_on,24,0,3,,,,,,,,0,,,74,0
185514,note_on,24,0,1,,,,,,,,0,,,74,0
185520,note_on,24,0,7,,,,,,,,2,,,50,72
185520,note_on,0,0,7,,,,,,,,2,,,65,72
185520,note_on,0,0,7,,,,,,,,2,,,62,72
185520,note_on,0,0,7,,,,,,,,2,,,69,72
185520,note_on,24,0,6,,,,,,,,5,,,38,105
185520,note_on,48,0,4,,,,,,,,3,,,65,105
185520,note_on,6,0,3,,,,,,,,0,,,74,105
185520,note_on,6,0,1,,,,,,,,0,,,74,105
185520,note_on,24,0,5,,,,,,,,4,,,50,105
185520,note_on,6,0,2,,,,,,,,1,,,74,124
185616,note_on,96,0,6,,,,,,,,5,,,38,0
185616,note_on,96,0,5,,,,,,,,4,,,50,0
185616,note_on,96,0,7,,,,,,,,2,,,50,0
185640,note_on,24,0,6,,,,,,,,5,,,40,105
185640,note_on,24,0,5,,,,,,,,4,,,52,105
185640,note_on,24,0,7,,,,,,,,2,,,52,72
185712,note_on,72,0,7,,,,,,,,2,,,65,0
185712,note_on,192,0,2,,,,,,,,1,,,74,0
185712,note_on,192,0,3,,,,,,,,0,,,74,0
185712,note_on,192,0,4,,,,,,,,3,,,65,0
185712,note_on,192,0,1,,,,,,,,0,,,74,0
185736,note_on,96,0,5,,,,,,,,4,,,52,0
185736,note_on,96,0,6,,,,,,,,5,,,40,0
185736,note_on,24,0,7,,,,,,,,2,,,52,0
185760,note_on,24,0,7,,,,,,,,2,,,62,72
185760,note_on,24,0,6,,,,,,,,5,,,41,105
185760,note_on,0,0,7,,,,,,,,2,,,53,72
185760,note_on,24,0,5,,,,,,,,4,,,53,105
185856,note_on,96,0,6,,,,,,,,5,,,41,0
185856,note_on,96,0,5,,,,,,,,4,,,53,0
185856,note_on,96,0,7,,,,,,,,2,,,53,0
185880,note_on,168,0,2,,,,,,,,1,,,65,124
185880,note_on,168,0,4,,,,,,,,3,,,57,105
185880,note_on,168,0,3,,,,,,,,0,,,65,105
185880,note_on,24,0,5,,,,,,,,4,,,50,105
185880,note_on,24,0,7,,,,,,,,2,,,50,72
185880,note_on,24,0,6,,,,,,,,5,,,38,105
185880,note_on,168,0,1,,,,,,,,0,,,65,105
185904,note_on,0,0,7,,,,,,,,2,,,62,0
185904,note_on,24,0,7,,,,,,,,2,,,69,0
185952,note_on,48,0,7,,,,,,,,2,,,62,0
185976,note_on,96,0,4,,,,,,,,3,,,57,0
185976,note_on,96,0,1,,,,,,,,0,,,65,0
185976,note_on,96,0,6,,,,,,,,5,,,38,0
185976,note_on,96,0,5,,,,,,,,4,,,50,0
185976,note_on,96,0,3,,,,,,,,0,,,65,0
185976,note_on,96,0,2,,,,,,,,1,,,65,0
185976,note_on,24,0,7,,,,,,,,2,,,50,0
186000,note_on,24,0,7,,,,,,,,2,,,70,72
186000,note_on,0,0,7,,,,,,,,2,,,64,72
186000,note_on,24,0,2,,,,,,,,1,,,64,124
186000,note_on,0,0,7,,,,,,,,2,,,43,72
186000,note_on,24,0,4,,,,,,,,3,,,58,105
186000,note_on,24,0,1,,,,,,,,0,,,64,105
186000,note_on,24,0,5,,,,,,,,4,,,43,105
186000,note_on,24,0,6,,,,,,,,5,,,31,105
186000,note_on,24,0,3,,,,,,,,0,,,64,105
186192,note_on,192,0,4,,,,,,,,3,,,58,0
186192,note_on,192,0,5,,,,,,,,4,,,43,0
186192,note_on,192,0,7,,,,,,,,2,,,43,0
186192,note_on,0,0,7,,,,,,,,2,,,64,0
186192,note_on,192,0,2,,,,,,,,1,,,64,0
186192,note_on,192,0,3,,,,,,,,0,,,64,0
186192,note_on,0,0,7,,,,,,,,2,,,70,0
186192,note_on,192,0,6,,,,,,,,5,,,31,0
186192,note_on,192,0,1,,,,,,,,0,,,64,0
186240,note_on,48,0,6,,,,,,,,5,,,32,105
186240,note_on,0,0,7,,,,,,,,2,,,71,72
186240,note_on,48,0,1,,,,,,,,0,,,62,105
186240,note_on,48,0,3,,,,,,,,0,,,62,105
186240,note_on,48,0,5,,,,,,,,4,,,44,105
186240,note_on,0,0,7,,,,,,,,2,,,64,72
186240,note_on,48,0,7,,,,,,,,2,,,74,72
186240,note_on,0,0,7,,,,,,,,2,,,44,72
186240,note_on,48,0,4,,,,,,,,3,,,59,105
186240,note_on,48,0,2,,,,,,,,1,,,62,124
186432,note_on,192,0,1,,,,,,,,0,,,62,0
186432,note_on,192,0,4,,,,,,,,3,,,59,0
186432,note_on,0,0,7,,,,,,,,2,,,64,0
186432,note_on,192,0,6,,,,,,,,5,,,32,0
186432,note_on,192,0,7,,,,,,,,2,,,44,0
186432,note_on,192,0,2,,,,,,,,1,,,62,0
186432,note_on,0,0,7,,,,,,,,2,,,71,0
186432,note_on,0,0,7,,,,,,,,2,,,74,0
186432,note_on,192,0,3,,,,,,,,0,,,62,0
186432,note_on,192,0,5,,,,,,,,4,,,44,0
186480,note_on,48,0,2,,,,,,,,1,,,69,124
186480,note_on,48,0,6,,,,,,,,5,,,33,105
186480,note_on,48,0,5,,,,,,,,4,,,45,105
186480,note_on,48,0,7,,,,,,,,2,,,45,72
186480,note_on,0,0,7,,,,,,,,2,,,64,72
186480,note_on,0,0,7,,,,,,,,2,,,69,72
186480,note_on,0,0,7,,,,,,,,2,,,73,72
186480,note_on,48,0,4,,,,,,,,3,,,52,105
186480,note_on,48,0,3,,,,,,,,0,,,69,105
186480,note_on,48,0,1,,,,,,,,0,,,69,105
186576,note_on,96,0,1,,,,,,,,0,,,69,0
186576,note_on,96,0,3,,,,,,,,0,,,69,0
186576,note_on,96,0,2,,,,,,,,1,,,69,0
186600,note_on,24,0,1,,,,,,,,0,,,67,105
186600,note_on,24,0,2,,,,,,,,1,,,67,124
186600,note_on,24,0,3,,,,,,,,0,,,67,105
186648,note_on,48,0,3,,,,,,,,0,,,67,0
186648,note_on,48,0,1,,,,,,,,0,,,67,0
186648,note_on,48,0,2,,,,,,,,1,,,67,0
186660,note_on,12,0,2,,,,,,,,1,,,65,124
186660,note_on,12,0,1,,,,,,,,0,,,65,105
186660,note_on,12,0,3,,,,,,,,0,,,65,105
186672,note_on,192,0,7,,,,,,,,2,,,73,0
186672,note_on,0,0,7,,,,,,,,2,,,45,0
186672,note_on,0,0,7,,,,,,,,2,,,64,0
186672,note_on,0,0,7,,,,,,,,2,,,69,0
186672,note_on,192,0,6,,,,,,,,5,,,33,0
186672,note_on,192,0,4,,,,,,,,3,,,52,0
186672,note_on,192,0,5,,,,,,,,4,,,45,0
186708,note_on,48,0,2,,,,,,,,1,,,65,0
186708,note_on,48,0,3,,,,,,,,0,,,65,0
186708,note_on,48,0,1,,,,,,,,0,,,65,0
186720,set_tempo,81360,1,0,,,,,,652174,,,,,,
186720,note_on,12,0,1,,,,,,,,0,,,64,105
186720,note_on,12,0,3,,,,,,,,0,,,64,105
186720,note_on,12,0,2,,,,,,,,1,,,64,124
186816,note_on,96,0,3,,,,,,,,0,,,64,0
186816,note_on,96,0,2,,,,,,,,1,,,64,0
186816,note_on,96,0,1,,,,,,,,0,,,64,0
186840,note_on,168,0,4,,,,,,,,3,,,57,105
186840,note_on,24,0,3,,,,,,,,0,,,62,105
186840,note_on,168,0,6,,,,,,,,5,,,41,105
186840,note_on,24,0,2,,,,,,,,1,,,62,124
186840,note_on,168,0,7,,,,,,,,2,,,74,72
186840,note_on,0,0,7,,,,,,,,2,,,69,72
186840,note_on,0,0,7,,,,,,,,2,,,62,72
186840,note_on,0,0,7,,,,,,,,2,,,53,72
186840,note_on,24,0,1,,,,,,,,0,,,62,105
186840,note_on,168,0,5,,,,,,,,4,,,53,105
186936,note_on,96,0,6,,,,,,,,5,,,41,0
186936,note_on,96,0,4,,,,,,,,3,,,57,0
186936,note_on,96,0,7,,,,,,,,2,,,53,0
186936,note_on,0,0,7,,,,,,,,2,,,74,0
186936,note_on,96,0,2,,,,,,,,1,,,62,0
186936,note_on,96,0,5,,,,,,,,4,,,53,0
186936,note_on,96,0,1,,,,,,,,0,,,62,0
186936,note_on,0,0,7,,,,,,,,2,,,69,0
186936,note_on,0,0,7,,,,,,,,2,,,62,0
186936,note_on,96,0,3,,,,,,,,0,,,62,0
186960,note_on,24,0,5,,,,,,,,4,,,57,105
186960,note_on,24,0,1,,,,,,,,0,,,64,105
186960,note_on,24,0,6,,,,,,,,5,,,45,105
186960,note_on,24,0,4,,,,,,,,3,,,58,105
186960,note_on,0,0,7,,,,,,,,2,,,64,72
186960,set_tempo,240,1,0,,,,,,800000,,,,,,
186960,note_on,0,0,7,,,,,,,,2,,,70,72
186960,note_on,24,0,7,,,,,,,,2,,,67,72
186960,note_on,24,0,3,,,,,,,,0,,,64,105
186960,note_on,24,0,2,,,,,,,,1,,,64,124
186960,note_on,0,0,7,,,,,,,,2,,,57,72
187056,note_on,96,0,7,,,,,,,,2,,,64,0
187056,note_on,96,0,4,,,,,,,,3,,,58,0
187056,note_on,96,0,6,,,,,,,,5,,,45,0
187056,note_on,96,0,5,,,,,,,,4,,,57,0
187056,note_on,0,0,7,,,,,,,,2,,,57,0
187080,note_on,24,0,7,,,,,,,,2,,,52,72
187080,note_on,24,0,4,,,,,,,,3,,,55,105
187080,note_on,24,0,6,,,,,,,,5,,,40,105
187080,note_on,24,0,5,,,,,,,,4,,,52,105
187080,note_on,0,0,7,,,,,,,,2,,,67,72
187152,note_on,72,0,7,,,,,,,,2,,,70,0
187152,note_on,192,0,1,,,,,,,,0,,,64,0
187152,note_on,0,0,7,,,,,,,,2,,,67,0
187152,note_on,192,0,2,,,,,,,,1,,,64,0
187152,note_on,192,0,3,,,,,,,,0,,,64,0
187176,note_on,24,0,7,,,,,,,,2,,,52,0
187176,note_on,0,0,7,,,,,,,,2,,,67,0
187176,note_on,96,0,5,,,,,,,,4,,,52,0
187176,note_on,96,0,6,,,,,,,,5,,,40,0
187176,note_on,96,0,4,,,,,,,,3,,,55,0
187200,note_on,48,0,2,,,,,,,,1,,,61,124
187200,note_on,0,0,7,,,,,,,,2,,,69,72
187200,note_on,0,0,7,,,,,,,,2,,,61,72
187200,note_on,48,0,3,,,,,,,,0,,,61,105
187200,note_on,24,0,6,,,,,,,,5,,,45,105
187200,note_on,0,0,7,,,,,,,,2,,,64,72
187200,set_tempo,240,1,0,,,,,,1052632,,,,,,
187200,note_on,24,0,7,,,,,,,,2,,,57,72
187200,note_on,48,0,1,,,,,,,,0,,,61,105
187200,note_on,24,0,4,,,,,,,,3,,,57,105
187200,note_on,24,0,5,,,,,,,,4,,,57,105
187296,note_on,96,0,6,,,,,,,,5,,,45,0
187296,note_on,96,0,5,,,,,,,,4,,,57,0
187296,note_on,96,0,7,,,,,,,,2,,,57,0
187320,note_on,24,0,6,,,,,,,,5,,,33,105
187320,note_on,24,0,7,,,,,,,,2,,,45,72
187320,note_on,24,0,5,,,,,,,,4,,,45,105
187392,note_on,192,0,2,,,,,,,,1,,,61,0
187392,note_on,192,0,1,,,,,,,,0,,,61,0
187392,note_on,192,0,3,,,,,,,,0,,,61,0
187392,note_on,72,0,7,,,,,,,,2,,,64,0
187392,note_on,0,0,7,,,,,,,,2,,,61,0
187392,note_on,0,0,7,,,,,,,,2,,,69,0
187392,note_on,192,0,4,,,,,,,,3,,,57,0
187416,note_on,24,0,7,,,,,,,,2,,,45,0
187416,note_on,96,0,5,,,,,,,,4,,,45,0
187416,note_on,96,0,6,,,,,,,,5,,,33,0
187440,note_on,0,0,7,,,,,,,,2,,,50,72
187440,note_on,24,0,7,,,,,,,,2,,,53,72
187440,note_on,0,0,7,,,,,,,,2,,,62,72
187440,note_on,0,0,7,,,,,,,,2,,,57,72
187440,end_of_track,0,1,0,,,,,,,,,,,,
187440,note_on,48,0,1,,,,,,,,0,,,62,105
187440,note_on,48,0,2,,,,,,,,1,,,62,124
187440,note_on,48,0,4,,,,,,,,3,,,53,105
187440,note_on,24,0,6,,,,,,,,5,,,38,105
187440,set_tempo,240,1,0,,,,,,3000000,,,,,,
187440,note_on,24,0,5,,,,,,,,4,,,50,105
187440,note_on,48,0,3,,,,,,,,0,,,62,105
187632,end_of_track,0,1,4,,,,,,,,,,,,
187632,note_on,0,0,7,,,,,,,,2,,,57,0
187632,note_on,0,0,7,,,,,,,,2,,,62,0
187632,note_on,0,0,7,,,,,,,,2,,,53,0
187632,note_on,192,0,7,,,,,,,,2,,,50,0
187632,end_of_track,0,1,7,,,,,,,,,,,,
187632,end_of_track,0,1,3,,,,,,,,,,,,
187632,note_on,192,0,5,,,,,,,,4,,,50,0
187632,end_of_track,0,1,5,,,,,,,,,,,,
187632,note_on,192,0,6,,,,,,,,5,,,38,0
187632,end_of_track,0,1,6,,,,,,,,,,,,
187632,end_of_track,0,1,2,,,,,,,,,,,,
187632,note_on,192,0,2,,,,,,,,1,,,62,0
187632,end_of_track,0,1,1,,,,,,,,,,,,
187632,note_on,192,0,1,,,,,,,,0,,,62,0
187632,note_on,192,0,3,,,,,,,,0,,,62,0
187632,note_on,192,0,4,,,,,,,,3,,,53,0
