tick,type,time,meta,track,numerator,denominator,clocks_per_click,notated_32nd_notes_per_beat,key,tempo,program,channel,control,value,note,velocity
0,track_name,0,1,0,,,,,,,,,,,,
0,track_name,0,1,6,,,,,,,,,,,,
0,note_on,0,0,5,,,,,,,,4,,,48,85
0,control_change,0,0,5,,,,,,,,4,91,127,,
0,control_change,0,0,5,,,,,,,,4,10,86,,
0,control_change,0,0,5,,,,,,,,4,7,127,,
0,program_change,0,0,5,,,,,,,48,4,,,,
0,track_name,0,1,5,,,,,,,,,,,,
0,end_of_track,0,1,16,,,,,,,,,,,,
0,note_on,0,0,4,,,,,,,,3,,,67,85
0,control_change,0,0,4,,,,,,,,3,91,127,,
0,control_change,0,0,4,,,,,,,,3,10,39,,
0,program_change,0,0,6,,,,,,,48,5,,,,
0,control_change,0,0,4,,,,,,,,3,7,127,,
0,track_name,0,1,4,,,,,,,,,,,,
0,note_on,0,0,3,,,,,,,,2,,,76,85
0,control_change,0,0,3,,,,,,,,2,91,127,,
0,control_change,0,0,3,,,,,,,,2,10,127,,
0,control_change,0,0,3,,,,,,,,2,7,127,,
0,program_change,0,0,3,,,,,,,48,2,,,,
0,track_name,0,1,3,,,,,,,,,,,,
0,note_on,0,0,2,,,,,,,,1,,,72,85
0,control_change,0,0,2,,,,,,,,1,91,127,,
0,control_change,0,0,2,,,,,,,,1,10,0,,
0,control_change,0,0,2,,,,,,,,1,7,127,,
0,program_change,0,0,4,,,,,,,48,3,,,,
0,program_change,0,0,2,,,,,,,48,1,,,,
0,control_change,0,0,6,,,,,,,,5,7,127,,
0,control_change,0,0,6,,,,,,,,5,91,127,,
0,track_name,0,1,16,,,,,,,,,,,,
0,end_of_track,0,1,15,,,,,,,,,,,,
0,track_name,0,1,15,,,,,,,,,,,,
0,end_of_track,0,1,14,,,,,,,,,,,,
0,track_name,0,1,14,,,,,,,,,,,,
0,end_of_track,0,1,13,,,,,,,,,,,,
0,track_name,0,1,13,,,,,,,,,,,,
0,end_of_track,0,1,12,,,,,,,,,,,,
0,track_name,0,1,12,,,,,,,,,,,,
0,end_of_track,0,1,11,,,,,,,,,,,,
0,track_name,0,1,11,,,,,,,,,,,,
0,control_change,0,0,6,,,,,,,,5,10,127,,
0,end_of_track,0,1,10,,,,,,,,,,,,
0,end_of_track,0,1,9,,,,,,,,,,,,
0,track_name,0,1,9,,,,,,,,,,,,
0,end_of_track,0,1,8,,,,,,,,,,,,
0,control_change,0,0,8,,,,,,,,14,91,84,,
0,control_change,0,0,8,,,,,,,,14,10,64,,
0,control_change,0,0,7,,,,,,,,6,91,127,,
0,control_change,0,0,7,,,,,,,,6,10,64,,
0,control_change,0,0,7,,,,,,,,6,7,120,,
0,program_change,0,0,7,,,,,,,6,6,,,,
0,track_name,0,1,7,,,,,,,,,,,,
0,note_on,0,0,6,,,,,,,,5,,,36,85
0,track_name,0,1,10,,,,,,,,,,,,
0,track_name,0,1,2,,,,,,,,,,,,
0,end_of_track,0,1,17,,,,,,,,,,,,
0,track_name,0,1,1,,,,,,,,,,,,
0,control_change,0,0,1,,,,,,,,0,7,127,,
0,control_change,0,0,1,,,,,,,,0,10,72,,
0,control_change,0,0,1,,,,,,,,0,91,127,,
0,marker,0,1,0,,,,,,,,,,,,
0,set_tempo,0,1,0,,,,,,521739,,,,,,
0,key_signature,0,1,0,,,,,C,,,,,,,
0,note_on,0,0,1,,,,,,,,0,,,72,85
0,time_signature,0,1,0,4,4,24,8,,,,,,,,
0,program_change,0,0,1,,,,,,,40,0,,,,
445,note_on,445,0,1,,,,,,,,0,,,72,0
445,note_on,445,0,5,,,,,,,,4,,,48,0
445,note_on,445,0,4,,,,,,,,3,,,67,0
445,note_on,445,0,3,,,,,,,,2,,,76,0
445,note_on,445,0,2,,,,,,,,1,,,72,0
445,note_on,445,0,6,,,,,,,,5,,,36,0
600,note_on,155,0,3,,,,,,,,2,,,76,85
600,note_on,155,0,2,,,,,,,,1,,,72,85
600,note_on,155,0,1,,,,,,,,0,,,72,85
715,note_on,115,0,1,,,,,,,,0,,,72,0
715,note_on,115,0,2,,,,,,,,1,,,72,0
715,note_on,115,0,3,,,,,,,,2,,,76,0
720,note_on,5,0,3,,,,,,,,2,,,74,85
720,note_on,275,0,6,,,,,,,,5,,,36,85
720,note_on,275,0,4,,,,,,,,3,,,67,85
720,note_on,5,0,1,,,,,,,,0,,,71,85
720,note_on,5,0,2,,,,,,,,1,,,71,85
720,note_on,275,0,5,,,,,,,,4,,,48,85
835,note_on,115,0,3,,,,,,,,2,,,74,0
835,note_on,115,0,1,,,,,,,,0,,,71,0
835,note_on,115,0,2,,,,,,,,1,,,71,0
840,note_on,5,0,1,,,,,,,,0,,,72,85
840,note_on,5,0,2,,,,,,,,1,,,72,85
840,note_on,5,0,3,,,,,,,,2,,,76,85
945,note_on,225,0,5,,,,,,,,4,,,48,0
945,note_on,225,0,4,,,,,,,,3,,,67,0
945,note_on,225,0,6,,,,,,,,5,,,36,0
955,note_on,115,0,2,,,,,,,,1,,,72,0
955,note_on,115,0,1,,,,,,,,0,,,72,0
955,note_on,115,0,3,,,,,,,,2,,,76,0
960,note_on,5,0,3,,,,,,,,2,,,76,85
960,note_on,5,0,1,,,,,,,,0,,,79,85
960,note_on,15,0,6,,,,,,,,5,,,36,85
960,note_on,15,0,5,,,,,,,,4,,,48,85
960,note_on,15,0,4,,,,,,,,3,,,60,85
960,note_on,5,0,2,,,,,,,,1,,,79,85
1185,note_on,225,0,6,,,,,,,,5,,,36,0
1185,note_on,225,0,2,,,,,,,,1,,,79,0
1185,note_on,225,0,4,,,,,,,,3,,,60,0
1185,note_on,225,0,1,,,,,,,,0,,,79,0
1185,note_on,225,0,3,,,,,,,,2,,,76,0
1185,note_on,225,0,5,,,,,,,,4,,,48,0
1200,note_on,15,0,3,,,,,,,,2,,,76,85
1200,note_on,15,0,6,,,,,,,,5,,,38,85
1200,note_on,15,0,2,,,,,,,,1,,,79,85
1200,note_on,15,0,4,,,,,,,,3,,,62,85
1200,note_on,15,0,5,,,,,,,,4,,,50,85
1200,note_on,15,0,1,,,,,,,,0,,,79,85
1425,note_on,225,0,6,,,,,,,,5,,,38,0
1425,note_on,225,0,3,,,,,,,,2,,,76,0
1425,note_on,225,0,1,,,,,,,,0,,,79,0
1425,note_on,225,0,2,,,,,,,,1,,,79,0
1425,note_on,225,0,5,,,,,,,,4,,,50,0
1425,note_on,225,0,4,,,,,,,,3,,,62,0
1440,note_on,15,0,1,,,,,,,,0,,,79,85
1440,note_on,15,0,6,,,,,,,,5,,,40,85
1440,note_on,15,0,3,,,,,,,,2,,,76,85
1440,note_on,15,0,5,,,,,,,,4,,,52,85
1440,note_on,15,0,2,,,,,,,,1,,,79,85
1440,note_on,15,0,4,,,,,,,,3,,,64,85
1665,note_on,225,0,5,,,,,,,,4,,,52,0
1665,note_on,225,0,6,,,,,,,,5,,,40,0
1665,note_on,225,0,3,,,,,,,,2,,,76,0
1665,note_on,225,0,4,,,,,,,,3,,,64,0
1665,note_on,225,0,2,,,,,,,,1,,,79,0
1665,note_on,225,0,1,,,,,,,,0,,,79,0
1680,note_on,15,0,3,,,,,,,,2,,,76,85
1680,note_on,15,0,6,,,,,,,,5,,,38,85
1680,note_on,15,0,2,,,,,,,,1,,,79,85
1680,note_on,15,0,1,,,,,,,,0,,,79,85
1680,note_on,15,0,4,,,,,,,,3,,,62,85
1680,note_on,15,0,5,,,,,,,,4,,,50,85
1905,note_on,225,0,4,,,,,,,,3,,,62,0
1905,note_on,225,0,1,,,,,,,,0,,,79,0
1905,note_on,225,0,6,,,,,,,,5,,,38,0
1905,note_on,225,0,3,,,,,,,,2,,,76,0
1905,note_on,225,0,5,,,,,,,,4,,,50,0
1905,note_on,225,0,2,,,,,,,,1,,,79,0
1920,note_on,15,0,3,,,,,,,,2,,,77,101
1920,note_on,15,0,2,,,,,,,,1,,,81,101
1920,note_on,15,0,6,,,,,,,,5,,,36,101
1920,note_on,15,0,5,,,,,,,,4,,,48,101
1920,note_on,15,0,4,,,,,,,,3,,,60,101
1920,note_on,15,0,1,,,,,,,,0,,,81,101
2160,note_on,240,0,2,,,,,,,,1,,,81,0
2160,note_on,0,0,6,,,,,,,,5,,,38,85
2160,note_on,0,0,2,,,,,,,,1,,,79,85
2160,note_on,0,0,5,,,,,,,,4,,,50,85
2160,note_on,240,0,5,,,,,,,,4,,,48,0
2160,note_on,240,0,6,,,,,,,,5,,,36,0
2160,note_on,0,0,4,,,,,,,,3,,,62,85
2160,note_on,240,0,4,,,,,,,,3,,,60,0
2160,note_on,0,0,3,,,,,,,,2,,,76,85
2160,note_on,240,0,1,,,,,,,,0,,,81,0
2160,note_on,0,0,1,,,,,,,,0,,,79,85
2160,note_on,240,0,3,,,,,,,,2,,,77,0
2385,note_on,225,0,5,,,,,,,,4,,,50,0
2385,note_on,225,0,6,,,,,,,,5,,,38,0
2385,note_on,225,0,4,,,,,,,,3,,,62,0
2400,note_on,15,0,5,,,,,,,,4,,,52,85
2400,note_on,15,0,6,,,,,,,,5,,,40,85
2400,note_on,15,0,4,,,,,,,,3,,,64,85
2605,note_on,445,0,3,,,,,,,,2,,,76,0
2605,note_on,445,0,2,,,,,,,,1,,,79,0
2605,note_on,445,0,1,,,,,,,,0,,,79,0
2625,note_on,225,0,5,,,,,,,,4,,,52,0
2625,note_on,225,0,4,,,,,,,,3,,,64,0
2625,note_on,225,0,6,,,,,,,,5,,,40,0
2640,note_on,35,0,3,,,,,,,,2,,,76,85
2640,note_on,35,0,2,,,,,,,,1,,,72,85
2640,note_on,15,0,6,,,,,,,,5,,,38,85
2640,note_on,15,0,4,,,,,,,,3,,,62,85
2640,note_on,35,0,1,,,,,,,,0,,,72,85
2640,note_on,15,0,5,,,,,,,,4,,,50,85
2865,note_on,225,0,5,,,,,,,,4,,,50,0
2865,note_on,225,0,1,,,,,,,,0,,,72,0
2865,note_on,225,0,2,,,,,,,,1,,,72,0
2865,note_on,225,0,6,,,,,,,,5,,,38,0
2865,note_on,225,0,4,,,,,,,,3,,,62,0
2865,note_on,225,0,3,,,,,,,,2,,,76,0
2880,note_on,15,0,4,,,,,,,,3,,,60,101
2880,note_on,15,0,6,,,,,,,,5,,,36,101
2880,note_on,15,0,1,,,,,,,,0,,,81,101
2880,note_on,15,0,2,,,,,,,,1,,,81,101
2880,note_on,15,0,3,,,,,,,,2,,,77,101
2880,note_on,15,0,5,,,,,,,,4,,,48,101
3120,note_on,240,0,4,,,,,,,,3,,,60,0
3120,note_on,240,0,3,,,,,,,,2,,,77,0
3120,note_on,0,0,5,,,,,,,,4,,,50,85
3120,note_on,0,0,3,,,,,,,,2,,,76,85
3120,note_on,240,0,1,,,,,,,,0,,,81,0
3120,note_on,0,0,1,,,,,,,,0,,,79,85
3120,note_on,240,0,5,,,,,,,,4,,,48,0
3120,note_on,240,0,2,,,,,,,,1,,,81,0
3120,note_on,0,0,4,,,,,,,,3,,,62,85
3120,note_on,240,0,6,,,,,,,,5,,,36,0
3120,note_on,0,0,6,,,,,,,,5,,,38,85
3120,note_on,0,0,2,,,,,,,,1,,,79,85
3345,note_on,225,0,4,,,,,,,,3,,,62,0
3345,note_on,225,0,5,,,,,,,,4,,,50,0
3345,note_on,225,0,6,,,,,,,,5,,,38,0
3360,note_on,15,0,4,,,,,,,,3,,,64,85
3360,note_on,15,0,5,,,,,,,,4,,,52,85
3360,note_on,15,0,6,,,,,,,,5,,,40,85
3565,note_on,445,0,2,,,,,,,,1,,,79,0
3565,note_on,445,0,1,,,,,,,,0,,,79,0
3565,note_on,445,0,3,,,,,,,,2,,,76,0
3585,note_on,225,0,5,,,,,,,,4,,,52,0
3585,note_on,225,0,6,,,,,,,,5,,,40,0
3585,note_on,225,0,4,,,,,,,,3,,,64,0
3600,note_on,15,0,6,,,,,,,,5,,,36,85
3600,note_on,35,0,2,,,,,,,,1,,,72,85
3600,note_on,35,0,3,,,,,,,,2,,,76,85
3600,note_on,15,0,5,,,,,,,,4,,,48,85
3600,note_on,15,0,4,,,,,,,,3,,,60,85
3600,note_on,35,0,1,,,,,,,,0,,,72,85
3825,note_on,225,0,6,,,,,,,,5,,,36,0
3825,note_on,225,0,5,,,,,,,,4,,,48,0
3825,note_on,225,0,3,,,,,,,,2,,,76,0
3825,note_on,225,0,1,,,,,,,,0,,,72,0
3825,note_on,225,0,4,,,,,,,,3,,,60,0
3825,note_on,225,0,2,,,,,,,,1,,,72,0
3840,note_on,15,0,5,,,,,,,,4,,,53,85
3840,note_on,15,0,4,,,,,,,,3,,,65,85
3840,note_on,15,0,3,,,,,,,,2,,,77,85
3840,note_on,15,0,1,,,,,,,,0,,,81,85
3840,note_on,15,0,6,,,,,,,,5,,,41,85
3840,note_on,15,0,2,,,,,,,,1,,,81,85
3955,note_on,115,0,2,,,,,,,,1,,,81,0
3955,note_on,115,0,3,,,,,,,,2,,,77,0
3955,note_on,115,0,1,,,,,,,,0,,,81,0
3960,note_on,5,0,2,,,,,,,,1,,,83,85
3960,note_on,5,0,1,,,,,,,,0,,,83,85
3960,note_on,5,0,3,,,,,,,,2,,,79,85
4075,note_on,115,0,2,,,,,,,,1,,,83,0
4075,note_on,115,0,1,,,,,,,,0,,,83,0
4075,note_on,115,0,3,,,,,,,,2,,,79,0
4080,note_on,5,0,2,,,,,,,,1,,,79,85
4080,note_on,5,0,1,,,,,,,,0,,,79,85
4080,note_on,5,0,3,,,,,,,,2,,,76,85
4195,note_on,115,0,1,,,,,,,,0,,,79,0
4195,note_on,115,0,2,,,,,,,,1,,,79,0
4195,note_on,115,0,3,,,,,,,,2,,,76,0
4200,note_on,5,0,2,,,,,,,,1,,,81,85
4200,note_on,5,0,1,,,,,,,,0,,,81,85
4200,note_on,5,0,3,,,,,,,,2,,,77,85
4315,note_on,115,0,3,,,,,,,,2,,,77,0
4315,note_on,115,0,1,,,,,,,,0,,,81,0
4315,note_on,115,0,2,,,,,,,,1,,,81,0
4320,note_on,5,0,2,,,,,,,,1,,,77,85
4320,note_on,5,0,3,,,,,,,,2,,,74,85
4320,note_on,5,0,1,,,,,,,,0,,,77,85
4435,note_on,115,0,3,,,,,,,,2,,,74,0
4435,note_on,115,0,2,,,,,,,,1,,,77,0
4435,note_on,115,0,1,,,,,,,,0,,,77,0
4440,note_on,5,0,2,,,,,,,,1,,,79,85
4440,note_on,5,0,1,,,,,,,,0,,,79,85
4440,note_on,5,0,3,,,,,,,,2,,,76,85
4505,note_on,665,0,6,,,,,,,,5,,,41,0
4505,note_on,665,0,4,,,,,,,,3,,,65,0
4505,note_on,665,0,5,,,,,,,,4,,,53,0
4555,note_on,115,0,3,,,,,,,,2,,,76,0
4555,note_on,115,0,2,,,,,,,,1,,,79,0
4555,note_on,115,0,1,,,,,,,,0,,,79,0
4560,note_on,55,0,5,,,,,,,,4,,,54,85
4560,note_on,5,0,3,,,,,,,,2,,,72,85
4560,note_on,5,0,1,,,,,,,,0,,,76,85
4560,note_on,55,0,6,,,,,,,,5,,,42,85
4560,note_on,55,0,4,,,,,,,,3,,,66,85
4560,note_on,5,0,2,,,,,,,,1,,,76,85
4675,note_on,115,0,3,,,,,,,,2,,,72,0
4675,note_on,115,0,1,,,,,,,,0,,,76,0
4675,note_on,115,0,2,,,,,,,,1,,,76,0
4680,note_on,5,0,3,,,,,,,,2,,,74,85
4680,note_on,5,0,2,,,,,,,,1,,,77,85
4680,note_on,5,0,1,,,,,,,,0,,,77,85
4785,note_on,225,0,6,,,,,,,,5,,,42,0
4785,note_on,225,0,4,,,,,,,,3,,,66,0
4785,note_on,225,0,5,,,,,,,,4,,,54,0
4795,note_on,115,0,1,,,,,,,,0,,,77,0
4795,note_on,115,0,2,,,,,,,,1,,,77,0
4795,note_on,115,0,3,,,,,,,,2,,,74,0
4800,note_on,15,0,5,,,,,,,,4,,,55,101
4800,note_on,5,0,1,,,,,,,,0,,,74,101
4800,note_on,5,0,2,,,,,,,,1,,,74,101
4800,note_on,15,0,6,,,,,,,,5,,,43,101
4800,note_on,15,0,4,,,,,,,,3,,,67,101
4800,note_on,5,0,3,,,,,,,,2,,,71,101
5040,note_on,240,0,1,,,,,,,,0,,,74,0
5040,note_on,0,0,1,,,,,,,,0,,,67,85
5040,note_on,0,0,6,,,,,,,,5,,,45,85
5040,note_on,240,0,6,,,,,,,,5,,,43,0
5040,note_on,0,0,3,,,,,,,,2,,,71,85
5040,note_on,240,0,5,,,,,,,,4,,,55,0
5040,note_on,0,0,2,,,,,,,,1,,,67,85
5040,note_on,240,0,2,,,,,,,,1,,,74,0
5040,note_on,0,0,4,,,,,,,,3,,,69,85
5040,note_on,240,0,4,,,,,,,,3,,,67,0
5040,note_on,240,0,3,,,,,,,,2,,,71,0
5040,note_on,0,0,5,,,,,,,,4,,,57,85
5265,note_on,225,0,6,,,,,,,,5,,,45,0
5265,note_on,225,0,4,,,,,,,,3,,,69,0
5265,note_on,225,0,5,,,,,,,,4,,,57,0
5280,note_on,15,0,6,,,,,,,,5,,,47,85
5280,note_on,15,0,4,,,,,,,,3,,,71,85
5280,note_on,15,0,5,,,,,,,,4,,,59,85
5485,note_on,445,0,3,,,,,,,,2,,,71,0
5485,note_on,445,0,1,,,,,,,,0,,,67,0
5485,note_on,445,0,2,,,,,,,,1,,,67,0
5505,note_on,225,0,5,,,,,,,,4,,,59,0
5505,note_on,225,0,4,,,,,,,,3,,,71,0
5505,note_on,225,0,6,,,,,,,,5,,,47,0
5520,note_on,35,0,1,,,,,,,,0,,,74,85
5520,note_on,35,0,2,,,,,,,,1,,,74,85
5520,note_on,15,0,5,,,,,,,,4,,,57,85
5520,note_on,35,0,3,,,,,,,,2,,,71,85
5520,note_on,15,0,4,,,,,,,,3,,,69,85
5520,note_on,15,0,6,,,,,,,,5,,,45,85
5745,note_on,225,0,2,,,,,,,,1,,,74,0
5745,note_on,225,0,5,,,,,,,,4,,,57,0
5745,note_on,225,0,6,,,,,,,,5,,,45,0
5745,note_on,225,0,3,,,,,,,,2,,,71,0
5745,note_on,225,0,1,,,,,,,,0,,,74,0
5745,note_on,225,0,4,,,,,,,,3,,,69,0
5760,note_on,15,0,1,,,,,,,,0,,,76,101
5760,note_on,15,0,3,,,,,,,,2,,,72,101
5760,note_on,15,0,2,,,,,,,,1,,,76,101
5760,note_on,15,0,5,,,,,,,,4,,,55,101
5760,note_on,15,0,6,,,,,,,,5,,,43,101
5760,note_on,15,0,4,,,,,,,,3,,,67,101
6000,note_on,240,0,3,,,,,,,,2,,,72,0
6000,note_on,0,0,5,,,,,,,,4,,,57,85
6000,note_on,240,0,5,,,,,,,,4,,,55,0
6000,note_on,0,0,4,,,,,,,,3,,,69,85
6000,note_on,0,0,3,,,,,,,,2,,,71,85
6000,note_on,240,0,2,,,,,,,,1,,,76,0
6000,note_on,0,0,2,,,,,,,,1,,,74,85
6000,note_on,240,0,1,,,,,,,,0,,,76,0
6000,note_on,240,0,4,,,,,,,,3,,,67,0
6000,note_on,0,0,1,,,,,,,,0,,,74,85
6000,note_on,240,0,6,,,,,,,,5,,,43,0
6000,note_on,0,0,6,,,,,,,,5,,,45,85
6225,note_on,225,0,6,,,,,,,,5,,,45,0
6225,note_on,225,0,4,,,,,,,,3,,,69,0
6225,note_on,225,0,5,,,,,,,,4,,,57,0
6240,note_on,15,0,4,,,,,,,,3,,,71,85
6240,note_on,15,0,6,,,,,,,,5,,,47,85
6240,note_on,15,0,5,,,,,,,,4,,,59,85
6445,note_on,445,0,2,,,,,,,,1,,,74,0
6445,note_on,445,0,1,,,,,,,,0,,,74,0
6445,note_on,445,0,3,,,,,,,,2,,,71,0
6465,note_on,225,0,6,,,,,,,,5,,,47,0
6465,note_on,225,0,5,,,,,,,,4,,,59,0
6465,note_on,225,0,4,,,,,,,,3,,,71,0
6480,note_on,35,0,1,,,,,,,,0,,,67,85
6480,note_on,15,0,4,,,,,,,,3,,,69,85
6480,note_on,35,0,2,,,,,,,,1,,,67,85
6480,note_on,15,0,6,,,,,,,,5,,,45,85
6480,note_on,15,0,5,,,,,,,,4,,,57,85
6480,note_on,35,0,3,,,,,,,,2,,,71,85
6705,note_on,225,0,4,,,,,,,,3,,,69,0
6705,note_on,225,0,3,,,,,,,,2,,,71,0
6705,note_on,225,0,5,,,,,,,,4,,,57,0
6705,note_on,225,0,2,,,,,,,,1,,,67,0
6705,note_on,225,0,6,,,,,,,,5,,,45,0
6705,note_on,225,0,1,,,,,,,,0,,,67,0
6720,note_on,15,0,1,,,,,,,,0,,,76,101
6720,note_on,15,0,4,,,,,,,,3,,,67,101
6720,note_on,15,0,2,,,,,,,,1,,,76,101
6720,note_on,15,0,3,,,,,,,,2,,,72,101
6720,note_on,15,0,6,,,,,,,,5,,,43,101
6720,note_on,15,0,5,,,,,,,,4,,,55,101
6960,note_on,0,0,4,,,,,,,,3,,,69,85
6960,note_on,240,0,1,,,,,,,,0,,,76,0
6960,note_on,0,0,6,,,,,,,,5,,,45,85
6960,note_on,0,0,1,,,,,,,,0,,,74,85
6960,note_on,0,0,2,,,,,,,,1,,,74,85
6960,note_on,240,0,2,,,,,,,,1,,,76,0
6960,note_on,240,0,6,,,,,,,,5,,,43,0
6960,note_on,240,0,5,,,,,,,,4,,,55,0
6960,note_on,240,0,4,,,,,,,,3,,,67,0
6960,note_on,240,0,3,,,,,,,,2,,,72,0
6960,note_on,0,0,3,,,,,,,,2,,,71,85
6960,note_on,0,0,5,,,,,,,,4,,,57,85
7185,note_on,225,0,5,,,,,,,,4,,,57,0
7185,note_on,225,0,6,,,,,,,,5,,,45,0
7185,note_on,225,0,4,,,,,,,,3,,,69,0
7200,note_on,15,0,5,,,,,,,,4,,,59,85
7200,note_on,15,0,6,,,,,,,,5,,,47,85
7200,note_on,15,0,4,,,,,,,,3,,,71,85
7405,note_on,445,0,3,,,,,,,,2,,,71,0
7405,note_on,445,0,2,,,,,,,,1,,,74,0
7405,note_on,445,0,1,,,,,,,,0,,,74,0
7425,note_on,225,0,6,,,,,,,,5,,,47,0
7425,note_on,225,0,5,,,,,,,,4,,,59,0
7425,note_on,225,0,4,,,,,,,,3,,,71,0
7440,note_on,15,0,4,,,,,,,,3,,,69,85
7440,note_on,35,0,1,,,,,,,,0,,,67,85
7440,note_on,15,0,6,,,,,,,,5,,,45,85
7440,note_on,35,0,2,,,,,,,,1,,,67,85
7440,note_on,15,0,5,,,,,,,,4,,,57,85
7440,note_on,35,0,3,,,,,,,,2,,,71,85
7665,note_on,225,0,1,,,,,,,,0,,,67,0
7665,note_on,225,0,2,,,,,,,,1,,,67,0
7665,note_on,225,0,3,,,,,,,,2,,,71,0
7665,note_on,225,0,5,,,,,,,,4,,,57,0
7665,note_on,225,0,6,,,,,,,,5,,,45,0
7665,note_on,225,0,4,,,,,,,,3,,,69,0
7680,note_on,15,0,5,,,,,,,,4,,,55,85
7680,note_on,15,0,6,,,,,,,,5,,,43,85
7680,note_on,15,0,1,,,,,,,,0,,,67,85
7680,note_on,15,0,3,,,,,,,,2,,,71,85
7680,note_on,15,0,2,,,,,,,,1,,,67,85
7680,note_on,15,0,4,,,,,,,,3,,,67,85
7795,note_on,115,0,1,,,,,,,,0,,,67,0
7795,note_on,115,0,3,,,,,,,,2,,,71,0
7795,note_on,115,0,2,,,,,,,,1,,,67,0
7800,note_on,5,0,3,,,,,,,,2,,,72,85
7800,note_on,5,0,1,,,,,,,,0,,,69,85
7800,note_on,5,0,2,,,,,,,,1,,,69,85
7905,note_on,225,0,6,,,,,,,,5,,,43,0
7905,note_on,225,0,4,,,,,,,,3,,,67,0
7905,note_on,225,0,5,,,,,,,,4,,,55,0
7915,note_on,115,0,2,,,,,,,,1,,,69,0
7915,note_on,115,0,3,,,,,,,,2,,,72,0
7915,note_on,115,0,1,,,,,,,,0,,,69,0
7920,note_on,15,0,4,,,,,,,,3,,,62,85
7920,note_on,5,0,3,,,,,,,,2,,,74,85
7920,note_on,15,0,5,,,,,,,,4,,,50,85
7920,note_on,5,0,1,,,,,,,,0,,,71,85
7920,note_on,15,0,6,,,,,,,,5,,,38,85
7920,note_on,5,0,2,,,,,,,,1,,,71,85
8035,note_on,115,0,3,,,,,,,,2,,,74,0
8035,note_on,115,0,2,,,,,,,,1,,,71,0
8035,note_on,115,0,1,,,,,,,,0,,,71,0
8040,note_on,5,0,3,,,,,,,,2,,,76,85
8040,note_on,5,0,2,,,,,,,,1,,,72,85
8040,note_on,5,0,1,,,,,,,,0,,,72,85
8145,note_on,225,0,5,,,,,,,,4,,,50,0
8145,note_on,225,0,6,,,,,,,,5,,,38,0
8145,note_on,225,0,4,,,,,,,,3,,,62,0
8155,note_on,115,0,3,,,,,,,,2,,,76,0
8155,note_on,115,0,2,,,,,,,,1,,,72,0
8155,note_on,115,0,1,,,,,,,,0,,,72,0
8160,note_on,5,0,2,,,,,,,,1,,,74,85
8160,note_on,5,0,3,,,,,,,,2,,,77,85
8160,note_on,15,0,4,,,,,,,,3,,,59,85
8160,note_on,15,0,6,,,,,,,,5,,,35,85
8160,note_on,5,0,1,,,,,,,,0,,,74,85
8160,note_on,15,0,5,,,,,,,,4,,,47,85
8275,note_on,115,0,2,,,,,,,,1,,,74,0
8275,note_on,115,0,3,,,,,,,,2,,,77,0
8275,note_on,115,0,1,,,,,,,,0,,,74,0
8280,note_on,5,0,2,,,,,,,,1,,,76,85
8280,note_on,5,0,3,,,,,,,,2,,,79,85
8280,note_on,5,0,1,,,,,,,,0,,,76,85
8385,note_on,225,0,6,,,,,,,,5,,,35,0
8385,note_on,225,0,5,,,,,,,,4,,,47,0
8385,note_on,225,0,4,,,,,,,,3,,,59,0
8395,note_on,115,0,2,,,,,,,,1,,,76,0
8395,note_on,115,0,3,,,,,,,,2,,,79,0
8395,note_on,115,0,1,,,,,,,,0,,,76,0
8400,note_on,5,0,3,,,,,,,,2,,,81,85
8400,note_on,15,0,4,,,,,,,,3,,,55,85
8400,note_on,15,0,6,,,,,,,,5,,,31,85
8400,note_on,5,0,2,,,,,,,,1,,,77,85
8400,note_on,15,0,5,,,,,,,,4,,,43,85
8400,note_on,5,0,1,,,,,,,,0,,,77,85
8515,note_on,115,0,2,,,,,,,,1,,,77,0
8515,note_on,115,0,1,,,,,,,,0,,,77,0
8515,note_on,115,0,3,,,,,,,,2,,,81,0
8520,note_on,5,0,2,,,,,,,,1,,,79,85
8520,note_on,5,0,1,,,,,,,,0,,,79,85
8520,note_on,5,0,3,,,,,,,,2,,,83,85
8625,note_on,225,0,6,,,,,,,,5,,,31,0
8625,note_on,225,0,5,,,,,,,,4,,,43,0
8625,note_on,225,0,4,,,,,,,,3,,,55,0
8635,note_on,115,0,1,,,,,,,,0,,,79,0
8635,note_on,115,0,2,,,,,,,,1,,,79,0
8635,note_on,115,0,3,,,,,,,,2,,,83,0
8640,note_on,15,0,5,,,,,,,,4,,,48,85
8640,note_on,15,0,6,,,,,,,,5,,,36,85
8640,note_on,5,0,2,,,,,,,,1,,,76,85
8640,note_on,15,0,4,,,,,,,,3,,,60,85
8640,note_on,5,0,1,,,,,,,,0,,,76,85
8640,note_on,5,0,3,,,,,,,,2,,,84,85
8865,note_on,225,0,4,,,,,,,,3,,,60,0
8865,note_on,225,0,5,,,,,,,,4,,,48,0
8865,note_on,225,0,1,,,,,,,,0,,,76,0
8865,note_on,225,0,2,,,,,,,,1,,,76,0
8865,note_on,225,0,6,,,,,,,,5,,,36,0
8865,note_on,225,0,3,,,,,,,,2,,,84,0
8880,note_on,15,0,3,,,,,,,,2,,,76,85
8880,note_on,15,0,1,,,,,,,,0,,,72,85
8880,note_on,15,0,2,,,,,,,,1,,,72,85
8880,note_on,15,0,4,,,,,,,,3,,,62,85
8880,note_on,15,0,6,,,,,,,,5,,,38,85
8880,note_on,15,0,5,,,,,,,,4,,,50,85
9105,note_on,225,0,5,,,,,,,,4,,,50,0
9105,note_on,225,0,6,,,,,,,,5,,,38,0
9105,note_on,225,0,4,,,,,,,,3,,,62,0
9120,note_on,15,0,4,,,,,,,,3,,,64,85
9120,note_on,15,0,5,,,,,,,,4,,,52,85
9120,note_on,15,0,6,,,,,,,,5,,,40,85
9325,note_on,445,0,3,,,,,,,,2,,,76,0
9325,note_on,445,0,1,,,,,,,,0,,,72,0
9325,note_on,445,0,2,,,,,,,,1,,,72,0
9345,note_on,225,0,4,,,,,,,,3,,,64,0
9345,note_on,225,0,6,,,,,,,,5,,,40,0
9345,note_on,225,0,5,,,,,,,,4,,,52,0
9360,note_on,15,0,5,,,,,,,,4,,,50,85
9360,note_on,35,0,3,,,,,,,,2,,,76,85
9360,note_on,35,0,1,,,,,,,,0,,,79,85
9360,note_on,15,0,4,,,,,,,,3,,,62,85
9360,note_on,15,0,6,,,,,,,,5,,,38,85
9360,note_on,35,0,2,,,,,,,,1,,,79,85
9585,note_on,225,0,6,,,,,,,,5,,,38,0
9585,note_on,225,0,3,,,,,,,,2,,,76,0
9585,note_on,225,0,4,,,,,,,,3,,,62,0
9585,note_on,225,0,2,,,,,,,,1,,,79,0
9585,note_on,225,0,5,,,,,,,,4,,,50,0
9585,note_on,225,0,1,,,,,,,,0,,,79,0
9600,note_on,15,0,4,,,,,,,,3,,,60,101
9600,note_on,15,0,3,,,,,,,,2,,,79,101
9600,note_on,15,0,2,,,,,,,,1,,,84,101
9600,note_on,15,0,6,,,,,,,,5,,,36,101
9600,note_on,15,0,5,,,,,,,,4,,,48,101
9600,note_on,15,0,1,,,,,,,,0,,,84,101
9840,note_on,0,0,3,,,,,,,,2,,,76,85
9840,note_on,240,0,3,,,,,,,,2,,,79,0
9840,note_on,240,0,1,,,,,,,,0,,,84,0
9840,note_on,0,0,4,,,,,,,,3,,,62,85
9840,note_on,240,0,4,,,,,,,,3,,,60,0
9840,note_on,240,0,6,,,,,,,,5,,,36,0
9840,note_on,240,0,5,,,,,,,,4,,,48,0
9840,note_on,0,0,1,,,,,,,,0,,,79,85
9840,note_on,0,0,5,,,,,,,,4,,,50,85
9840,note_on,240,0,2,,,,,,,,1,,,84,0
9840,note_on,0,0,2,,,,,,,,1,,,79,85
9840,note_on,0,0,6,,,,,,,,5,,,38,85
10065,note_on,225,0,4,,,,,,,,3,,,62,0
10065,note_on,225,0,5,,,,,,,,4,,,50,0
10065,note_on,225,0,6,,,,,,,,5,,,38,0
10080,note_on,15,0,6,,,,,,,,5,,,40,85
10080,note_on,15,0,5,,,,,,,,4,,,52,85
10080,note_on,15,0,4,,,,,,,,3,,,64,85
10285,note_on,445,0,2,,,,,,,,1,,,79,0
10285,note_on,445,0,3,,,,,,,,2,,,76,0
10285,note_on,445,0,1,,,,,,,,0,,,79,0
10305,note_on,225,0,6,,,,,,,,5,,,40,0
10305,note_on,225,0,5,,,,,,,,4,,,52,0
10305,note_on,225,0,4,,,,,,,,3,,,64,0
10320,note_on,15,0,6,,,,,,,,5,,,38,85
10320,note_on,15,0,4,,,,,,,,3,,,62,85
10320,note_on,35,0,2,,,,,,,,1,,,79,85
10320,note_on,35,0,3,,,,,,,,2,,,76,85
10320,note_on,15,0,5,,,,,,,,4,,,50,85
10320,note_on,35,0,1,,,,,,,,0,,,79,85
10545,note_on,225,0,5,,,,,,,,4,,,50,0
10545,note_on,225,0,1,,,,,,,,0,,,79,0
10545,note_on,225,0,4,,,,,,,,3,,,62,0
10545,note_on,225,0,3,,,,,,,,2,,,76,0
10545,note_on,225,0,2,,,,,,,,1,,,79,0
10545,note_on,225,0,6,,,,,,,,5,,,38,0
10560,note_on,15,0,5,,,,,,,,4,,,48,101
10560,note_on,15,0,6,,,,,,,,5,,,36,101
10560,note_on,15,0,1,,,,,,,,0,,,81,101
10560,note_on,15,0,3,,,,,,,,2,,,77,101
10560,note_on,15,0,2,,,,,,,,1,,,81,101
10560,note_on,15,0,4,,,,,,,,3,,,60,101
10800,note_on,240,0,4,,,,,,,,3,,,60,0
10800,note_on,0,0,1,,,,,,,,0,,,79,85
10800,note_on,240,0,5,,,,,,,,4,,,48,0
10800,note_on,0,0,5,,,,,,,,4,,,50,85
10800,note_on,0,0,4,,,,,,,,3,,,62,85
10800,note_on,240,0,1,,,,,,,,0,,,81,0
10800,note_on,0,0,3,,,,,,,,2,,,76,85
10800,note_on,240,0,2,,,,,,,,1,,,81,0
10800,note_on,0,0,2,,,,,,,,1,,,79,85
10800,note_on,240,0,6,,,,,,,,5,,,36,0
10800,note_on,0,0,6,,,,,,,,5,,,38,85
10800,note_on,240,0,3,,,,,,,,2,,,77,0
11025,note_on,225,0,5,,,,,,,,4,,,50,0
11025,note_on,225,0,4,,,,,,,,3,,,62,0
11025,note_on,225,0,6,,,,,,,,5,,,38,0
11040,note_on,15,0,5,,,,,,,,4,,,52,85
11040,note_on,15,0,6,,,,,,,,5,,,40,85
11040,note_on,15,0,4,,,,,,,,3,,,64,85
11245,note_on,445,0,2,,,,,,,,1,,,79,0
11245,note_on,445,0,3,,,,,,,,2,,,76,0
11245,note_on,445,0,1,,,,,,,,0,,,79,0
11265,note_on,225,0,6,,,,,,,,5,,,40,0
11265,note_on,225,0,5,,,,,,,,4,,,52,0
11265,note_on,225,0,4,,,,,,,,3,,,64,0
11280,note_on,35,0,1,,,,,,,,0,,,79,85
11280,note_on,35,0,2,,,,,,,,1,,,79,85
11280,note_on,35,0,3,,,,,,,,2,,,76,85
11280,note_on,15,0,4,,,,,,,,3,,,62,85
11280,note_on,15,0,6,,,,,,,,5,,,38,85
11280,note_on,15,0,5,,,,,,,,4,,,50,85
11505,note_on,225,0,3,,,,,,,,2,,,76,0
11505,note_on,225,0,1,,,,,,,,0,,,79,0
11505,note_on,225,0,4,,,,,,,,3,,,62,0
11505,note_on,225,0,5,,,,,,,,4,,,50,0
11505,note_on,225,0,2,,,,,,,,1,,,79,0
11505,note_on,225,0,6,,,,,,,,5,,,38,0
11520,note_on,15,0,2,,,,,,,,1,,,84,101
11520,note_on,15,0,4,,,,,,,,3,,,60,101
11520,note_on,15,0,5,,,,,,,,4,,,48,101
11520,note_on,15,0,3,,,,,,,,2,,,79,101
11520,note_on,15,0,6,,,,,,,,5,,,36,101
11520,note_on,15,0,1,,,,,,,,0,,,84,101
11760,note_on,0,0,2,,,,,,,,1,,,79,85
11760,note_on,0,0,4,,,,,,,,3,,,62,85
11760,note_on,0,0,1,,,,,,,,0,,,79,85
11760,note_on,240,0,5,,,,,,,,4,,,48,0
11760,note_on,240,0,2,,,,,,,,1,,,84,0
11760,note_on,0,0,6,,,,,,,,5,,,38,85
11760,note_on,0,0,5,,,,,,,,4,,,50,85
11760,note_on,240,0,6,,,,,,,,5,,,36,0
11760,note_on,240,0,3,,,,,,,,2,,,79,0
11760,note_on,240,0,4,,,,,,,,3,,,60,0
11760,note_on,0,0,3,,,,,,,,2,,,76,85
11760,note_on,240,0,1,,,,,,,,0,,,84,0
11985,note_on,225,0,4,,,,,,,,3,,,62,0
11985,note_on,225,0,5,,,,,,,,4,,,50,0
11985,note_on,225,0,6,,,,,,,,5,,,38,0
12000,note_on,15,0,4,,,,,,,,3,,,64,85
12000,note_on,15,0,6,,,,,,,,5,,,40,85
12000,note_on,15,0,5,,,,,,,,4,,,52,85
12205,note_on,445,0,1,,,,,,,,0,,,79,0
12205,note_on,445,0,3,,,,,,,,2,,,76,0
12205,note_on,445,0,2,,,,,,,,1,,,79,0
12225,note_on,225,0,6,,,,,,,,5,,,40,0
12225,note_on,225,0,5,,,,,,,,4,,,52,0
12225,note_on,225,0,4,,,,,,,,3,,,64,0
12240,note_on,15,0,6,,,,,,,,5,,,38,85
12240,note_on,15,0,4,,,,,,,,3,,,62,85
12240,note_on,35,0,1,,,,,,,,0,,,79,85
12240,note_on,35,0,2,,,,,,,,1,,,79,85
12240,note_on,35,0,3,,,,,,,,2,,,76,85
12240,note_on,15,0,5,,,,,,,,4,,,50,85
12465,note_on,225,0,6,,,,,,,,5,,,38,0
12465,note_on,225,0,4,,,,,,,,3,,,62,0
12465,note_on,225,0,2,,,,,,,,1,,,79,0
12465,note_on,225,0,3,,,,,,,,2,,,76,0
12465,note_on,225,0,5,,,,,,,,4,,,50,0
12465,note_on,225,0,1,,,,,,,,0,,,79,0
12480,note_on,15,0,5,,,,,,,,4,,,48,101
12480,note_on,15,0,3,,,,,,,,2,,,77,101
12480,note_on,15,0,6,,,,,,,,5,,,36,101
12480,note_on,15,0,1,,,,,,,,0,,,81,101
12480,note_on,15,0,2,,,,,,,,1,,,81,101
12480,note_on,15,0,4,,,,,,,,3,,,60,101
12720,note_on,240,0,6,,,,,,,,5,,,36,0
12720,note_on,0,0,5,,,,,,,,4,,,50,85
12720,note_on,240,0,5,,,,,,,,4,,,48,0
12720,note_on,0,0,4,,,,,,,,3,,,62,85
12720,note_on,0,0,3,,,,,,,,2,,,76,85
12720,note_on,240,0,3,,,,,,,,2,,,77,0
12720,note_on,0,0,1,,,,,,,,0,,,79,85
12720,note_on,240,0,4,,,,,,,,3,,,60,0
12720,note_on,240,0,1,,,,,,,,0,,,81,0
12720,note_on,0,0,6,,,,,,,,5,,,38,85
12720,note_on,0,0,2,,,,,,,,1,,,79,85
12720,note_on,240,0,2,,,,,,,,1,,,81,0
12945,note_on,225,0,5,,,,,,,,4,,,50,0
12945,note_on,225,0,6,,,,,,,,5,,,38,0
12945,note_on,225,0,4,,,,,,,,3,,,62,0
12960,note_on,15,0,4,,,,,,,,3,,,64,85
12960,note_on,15,0,5,,,,,,,,4,,,52,85
12960,note_on,15,0,6,,,,,,,,5,,,40,85
13165,note_on,445,0,2,,,,,,,,1,,,79,0
13165,note_on,445,0,1,,,,,,,,0,,,79,0
13165,note_on,445,0,3,,,,,,,,2,,,76,0
13185,note_on,225,0,5,,,,,,,,4,,,52,0
13185,note_on,225,0,4,,,,,,,,3,,,64,0
13185,note_on,225,0,6,,,,,,,,5,,,40,0
13200,note_on,35,0,2,,,,,,,,1,,,79,85
13200,note_on,15,0,4,,,,,,,,3,,,60,85
13200,note_on,15,0,6,,,,,,,,5,,,36,85
13200,note_on,35,0,1,,,,,,,,0,,,79,85
13200,note_on,15,0,5,,,,,,,,4,,,48,85
13200,note_on,35,0,3,,,,,,,,2,,,76,85
13425,note_on,225,0,4,,,,,,,,3,,,60,0
13425,note_on,225,0,5,,,,,,,,4,,,48,0
13425,note_on,225,0,2,,,,,,,,1,,,79,0
13425,note_on,225,0,6,,,,,,,,5,,,36,0
13425,note_on,225,0,1,,,,,,,,0,,,79,0
13425,note_on,225,0,3,,,,,,,,2,,,76,0
13440,note_on,15,0,5,,,,,,,,4,,,53,85
13440,note_on,15,0,6,,,,,,,,5,,,41,85
13440,note_on,15,0,4,,,,,,,,3,,,65,85
13440,note_on,15,0,1,,,,,,,,0,,,81,85
13440,note_on,15,0,2,,,,,,,,1,,,81,85
13440,note_on,15,0,3,,,,,,,,2,,,77,85
13555,note_on,115,0,2,,,,,,,,1,,,81,0
13555,note_on,115,0,3,,,,,,,,2,,,77,0
13555,note_on,115,0,1,,,,,,,,0,,,81,0
13560,note_on,5,0,2,,,,,,,,1,,,83,85
13560,note_on,5,0,3,,,,,,,,2,,,79,85
13560,note_on,5,0,1,,,,,,,,0,,,83,85
13675,note_on,115,0,1,,,,,,,,0,,,83,0
13675,note_on,115,0,3,,,,,,,,2,,,79,0
13675,note_on,115,0,2,,,,,,,,1,,,83,0
13680,note_on,5,0,1,,,,,,,,0,,,79,85
13680,note_on,5,0,3,,,,,,,,2,,,76,85
13680,note_on,5,0,2,,,,,,,,1,,,79,85
13795,note_on,115,0,3,,,,,,,,2,,,76,0
13795,note_on,115,0,1,,,,,,,,0,,,79,0
13795,note_on,115,0,2,,,,,,,,1,,,79,0
13800,note_on,5,0,2,,,,,,,,1,,,81,85
13800,note_on,5,0,1,,,,,,,,0,,,81,85
13800,note_on,5,0,3,,,,,,,,2,,,77,85
13915,note_on,115,0,2,,,,,,,,1,,,81,0
13915,note_on,115,0,3,,,,,,,,2,,,77,0
13915,note_on,115,0,1,,,,,,,,0,,,81,0
13920,note_on,5,0,2,,,,,,,,1,,,77,85
13920,note_on,5,0,3,,,,,,,,2,,,74,85
13920,note_on,5,0,1,,,,,,,,0,,,77,85
14035,note_on,115,0,1,,,,,,,,0,,,77,0
14035,note_on,115,0,3,,,,,,,,2,,,74,0
14035,note_on,115,0,2,,,,,,,,1,,,77,0
14040,note_on,5,0,2,,,,,,,,1,,,79,85
14040,note_on,5,0,1,,,,,,,,0,,,79,85
14040,note_on,5,0,3,,,,,,,,2,,,76,85
14105,note_on,665,0,4,,,,,,,,3,,,65,0
14105,note_on,665,0,5,,,,,,,,4,,,53,0
14105,note_on,665,0,6,,,,,,,,5,,,41,0
14155,note_on,115,0,1,,,,,,,,0,,,79,0
14155,note_on,115,0,2,,,,,,,,1,,,79,0
14155,note_on,115,0,3,,,,,,,,2,,,76,0
14160,note_on,5,0,1,,,,,,,,0,,,76,85
14160,note_on,5,0,3,,,,,,,,2,,,72,85
14160,note_on,55,0,6,,,,,,,,5,,,42,85
14160,note_on,55,0,4,,,,,,,,3,,,66,85
14160,note_on,5,0,2,,,,,,,,1,,,76,85
14160,note_on,55,0,5,,,,,,,,4,,,54,85
14275,note_on,115,0,3,,,,,,,,2,,,72,0
14275,note_on,115,0,2,,,,,,,,1,,,76,0
14275,note_on,115,0,1,,,,,,,,0,,,76,0
14280,note_on,5,0,3,,,,,,,,2,,,74,85
14280,note_on,5,0,2,,,,,,,,1,,,77,85
14280,note_on,5,0,1,,,,,,,,0,,,77,85
14385,note_on,225,0,4,,,,,,,,3,,,66,0
14385,note_on,225,0,6,,,,,,,,5,,,42,0
14385,note_on,225,0,5,,,,,,,,4,,,54,0
14395,note_on,115,0,2,,,,,,,,1,,,77,0
14395,note_on,115,0,3,,,,,,,,2,,,74,0
14395,note_on,115,0,1,,,,,,,,0,,,77,0
14400,note_on,15,0,6,,,,,,,,5,,,43,101
14400,note_on,5,0,1,,,,,,,,0,,,74,101
14400,note_on,5,0,3,,,,,,,,2,,,71,101
14400,note_on,5,0,2,,,,,,,,1,,,74,101
14400,note_on,15,0,5,,,,,,,,4,,,55,101
14400,note_on,15,0,4,,,,,,,,3,,,67,101
14640,note_on,0,0,1,,,,,,,,0,,,67,85
14640,note_on,0,0,5,,,,,,,,4,,,57,85
14640,note_on,240,0,5,,,,,,,,4,,,55,0
14640,note_on,0,0,6,,,,,,,,5,,,45,85
14640,note_on,240,0,6,,,,,,,,5,,,43,0
14640,note_on,240,0,4,,,,,,,,3,,,67,0
14640,note_on,240,0,2,,,,,,,,1,,,74,0
14640,note_on,0,0,2,,,,,,,,1,,,67,85
14640,note_on,240,0,1,,,,,,,,0,,,74,0
14640,note_on,240,0,3,,,,,,,,2,,,71,0
14640,note_on,0,0,3,,,,,,,,2,,,67,85
14640,note_on,0,0,4,,,,,,,,3,,,69,85
14865,note_on,225,0,4,,,,,,,,3,,,69,0
14865,note_on,225,0,5,,,,,,,,4,,,57,0
14865,note_on,225,0,6,,,,,,,,5,,,45,0
14880,note_on,15,0,5,,,,,,,,4,,,55,85
14880,note_on,15,0,6,,,,,,,,5,,,43,85
14880,note_on,15,0,4,,,,,,,,3,,,67,85
15085,note_on,445,0,3,,,,,,,,2,,,67,0
15085,note_on,445,0,2,,,,,,,,1,,,67,0
15085,note_on,445,0,1,,,,,,,,0,,,67,0
15105,note_on,225,0,4,,,,,,,,3,,,67,0
15105,note_on,225,0,5,,,,,,,,4,,,55,0
15105,note_on,225,0,6,,,,,,,,5,,,43,0
15120,note_on,15,0,6,,,,,,,,5,,,41,85
15120,note_on,35,0,3,,,,,,,,2,,,79,85
15120,note_on,35,0,2,,,,,,,,1,,,67,85
15120,note_on,35,0,1,,,,,,,,0,,,67,85
15120,note_on,15,0,5,,,,,,,,4,,,53,85
15120,note_on,15,0,4,,,,,,,,3,,,65,85
15345,note_on,225,0,6,,,,,,,,5,,,41,0
15345,note_on,225,0,1,,,,,,,,0,,,67,0
15345,note_on,225,0,5,,,,,,,,4,,,53,0
15345,note_on,225,0,3,,,,,,,,2,,,79,0
15345,note_on,225,0,2,,,,,,,,1,,,67,0
15345,note_on,225,0,4,,,,,,,,3,,,65,0
15360,note_on,15,0,4,,,,,,,,3,,,64,85
15360,note_on,15,0,2,,,,,,,,1,,,72,85
15360,note_on,15,0,1,,,,,,,,0,,,72,85
15360,note_on,15,0,5,,,,,,,,4,,,52,85
15360,note_on,15,0,3,,,,,,,,2,,,79,85
15360,note_on,15,0,6,,,,,,,,5,,,40,85
15585,note_on,225,0,1,,,,,,,,0,,,72,0
15585,note_on,225,0,6,,,,,,,,5,,,40,0
15585,note_on,225,0,2,,,,,,,,1,,,72,0
15585,note_on,225,0,3,,,,,,,,2,,,79,0
15585,note_on,225,0,4,,,,,,,,3,,,64,0
15585,note_on,225,0,5,,,,,,,,4,,,52,0
15600,note_on,15,0,5,,,,,,,,4,,,50,85
15600,note_on,15,0,4,,,,,,,,3,,,62,85
15600,note_on,15,0,2,,,,,,,,1,,,70,85
15600,note_on,15,0,3,,,,,,,,2,,,79,85
15600,note_on,15,0,6,,,,,,,,5,,,38,85
15600,note_on,15,0,1,,,,,,,,0,,,70,85
15825,note_on,225,0,6,,,,,,,,5,,,38,0
15825,note_on,225,0,4,,,,,,,,3,,,62,0
15825,note_on,225,0,5,,,,,,,,4,,,50,0
15840,note_on,15,0,6,,,,,,,,5,,,40,85
15840,note_on,15,0,4,,,,,,,,3,,,64,85
15840,note_on,15,0,5,,,,,,,,4,,,52,85
16045,note_on,445,0,1,,,,,,,,0,,,70,0
16045,note_on,445,0,3,,,,,,,,2,,,79,0
16045,note_on,445,0,2,,,,,,,,1,,,70,0
16065,note_on,225,0,6,,,,,,,,5,,,40,0
16065,note_on,225,0,4,,,,,,,,3,,,64,0
16065,note_on,225,0,5,,,,,,,,4,,,52,0
16080,note_on,15,0,5,,,,,,,,4,,,48,85
16080,note_on,35,0,1,,,,,,,,0,,,70,85
16080,note_on,15,0,6,,,,,,,,5,,,36,85
16080,note_on,15,0,4,,,,,,,,3,,,60,85
16080,note_on,35,0,3,,,,,,,,2,,,76,85
16080,note_on,35,0,2,,,,,,,,1,,,70,85
16305,note_on,225,0,1,,,,,,,,0,,,70,0
16305,note_on,225,0,4,,,,,,,,3,,,60,0
16305,note_on,225,0,3,,,,,,,,2,,,76,0
16305,note_on,225,0,5,,,,,,,,4,,,48,0
16305,note_on,225,0,2,,,,,,,,1,,,70,0
16305,note_on,225,0,6,,,,,,,,5,,,36,0
16320,note_on,15,0,4,,,,,,,,3,,,65,85
16320,note_on,15,0,1,,,,,,,,0,,,70,85
16320,note_on,15,0,5,,,,,,,,4,,,53,85
16320,note_on,15,0,2,,,,,,,,1,,,70,85
16320,note_on,15,0,3,,,,,,,,2,,,72,85
16320,note_on,15,0,6,,,,,,,,5,,,41,85
16545,note_on,225,0,3,,,,,,,,2,,,72,0
16545,note_on,225,0,5,,,,,,,,4,,,53,0
16545,note_on,225,0,1,,,,,,,,0,,,70,0
16545,note_on,225,0,2,,,,,,,,1,,,70,0
16545,note_on,225,0,4,,,,,,,,3,,,65,0
16545,note_on,225,0,6,,,,,,,,5,,,41,0
16560,note_on,15,0,1,,,,,,,,0,,,69,85
16560,note_on,15,0,4,,,,,,,,3,,,67,85
16560,note_on,15,0,2,,,,,,,,1,,,69,85
16560,note_on,15,0,6,,,,,,,,5,,,43,85
16560,note_on,15,0,5,,,,,,,,4,,,55,85
16560,note_on,15,0,3,,,,,,,,2,,,72,85
16785,note_on,225,0,5,,,,,,,,4,,,55,0
16785,note_on,225,0,6,,,,,,,,5,,,43,0
16785,note_on,225,0,4,,,,,,,,3,,,67,0
16800,note_on,15,0,4,,,,,,,,3,,,69,85
16800,note_on,15,0,5,,,,,,,,4,,,57,85
16800,note_on,15,0,6,,,,,,,,5,,,45,85
17005,note_on,445,0,2,,,,,,,,1,,,69,0
17005,note_on,445,0,3,,,,,,,,2,,,72,0
17005,note_on,445,0,1,,,,,,,,0,,,69,0
17025,note_on,225,0,5,,,,,,,,4,,,57,0
17025,note_on,225,0,4,,,,,,,,3,,,69,0
17025,note_on,225,0,6,,,,,,,,5,,,45,0
17040,note_on,35,0,3,,,,,,,,2,,,81,85
17040,note_on,35,0,2,,,,,,,,1,,,65,85
17040,note_on,35,0,1,,,,,,,,0,,,65,85
17040,note_on,15,0,5,,,,,,,,4,,,55,85
17040,note_on,15,0,6,,,,,,,,5,,,43,85
17040,note_on,15,0,4,,,,,,,,3,,,67,85
17265,note_on,225,0,4,,,,,,,,3,,,67,0
17265,note_on,225,0,2,,,,,,,,1,,,65,0
17265,note_on,225,0,5,,,,,,,,4,,,55,0
17265,note_on,225,0,1,,,,,,,,0,,,65,0
17265,note_on,225,0,3,,,,,,,,2,,,81,0
17265,note_on,225,0,6,,,,,,,,5,,,43,0
17280,note_on,15,0,3,,,,,,,,2,,,81,85
17280,note_on,15,0,6,,,,,,,,5,,,42,85
17280,note_on,15,0,4,,,,,,,,3,,,66,85
17280,note_on,15,0,1,,,,,,,,0,,,74,85
17280,note_on,15,0,2,,,,,,,,1,,,74,85
17280,note_on,15,0,5,,,,,,,,4,,,54,85
17505,note_on,225,0,3,,,,,,,,2,,,81,0
17505,note_on,225,0,4,,,,,,,,3,,,66,0
17505,note_on,225,0,2,,,,,,,,1,,,74,0
17505,note_on,225,0,1,,,,,,,,0,,,74,0
17505,note_on,225,0,5,,,,,,,,4,,,54,0
17505,note_on,225,0,6,,,,,,,,5,,,42,0
17520,note_on,15,0,5,,,,,,,,4,,,52,85
17520,note_on,15,0,2,,,,,,,,1,,,72,85
17520,note_on,15,0,3,,,,,,,,2,,,81,85
17520,note_on,15,0,4,,,,,,,,3,,,64,85
17520,note_on,15,0,6,,,,,,,,5,,,40,85
17520,note_on,15,0,1,,,,,,,,0,,,72,85
17745,note_on,225,0,6,,,,,,,,5,,,40,0
17745,note_on,225,0,4,,,,,,,,3,,,64,0
17745,note_on,225,0,5,,,,,,,,4,,,52,0
17760,note_on,15,0,5,,,,,,,,4,,,54,85
17760,note_on,15,0,4,,,,,,,,3,,,66,85
17760,note_on,15,0,6,,,,,,,,5,,,42,85
17965,note_on,445,0,1,,,,,,,,0,,,72,0
17965,note_on,445,0,2,,,,,,,,1,,,72,0
17965,note_on,445,0,3,,,,,,,,2,,,81,0
17985,note_on,225,0,5,,,,,,,,4,,,54,0
17985,note_on,225,0,4,,,,,,,,3,,,66,0
17985,note_on,225,0,6,,,,,,,,5,,,42,0
18000,note_on,35,0,2,,,,,,,,1,,,72,85
18000,note_on,15,0,6,,,,,,,,5,,,38,85
18000,note_on,35,0,3,,,,,,,,2,,,78,85
18000,note_on,15,0,5,,,,,,,,4,,,50,85
18000,note_on,35,0,1,,,,,,,,0,,,72,85
18000,note_on,15,0,4,,,,,,,,3,,,62,85
18225,note_on,225,0,5,,,,,,,,4,,,50,0
18225,note_on,225,0,4,,,,,,,,3,,,62,0
18225,note_on,225,0,6,,,,,,,,5,,,38,0
18225,note_on,225,0,1,,,,,,,,0,,,72,0
18225,note_on,225,0,3,,,,,,,,2,,,78,0
18225,note_on,225,0,2,,,,,,,,1,,,72,0
18240,note_on,15,0,5,,,,,,,,4,,,55,85
18240,note_on,15,0,4,,,,,,,,3,,,67,85
18240,note_on,15,0,6,,,,,,,,5,,,43,85
18240,note_on,15,0,1,,,,,,,,0,,,72,85
18240,note_on,15,0,3,,,,,,,,2,,,74,85
18240,note_on,15,0,2,,,,,,,,1,,,72,85
18465,note_on,225,0,5,,,,,,,,4,,,55,0
18465,note_on,225,0,1,,,,,,,,0,,,72,0
18465,note_on,225,0,6,,,,,,,,5,,,43,0
18465,note_on,225,0,4,,,,,,,,3,,,67,0
18465,note_on,225,0,2,,,,,,,,1,,,72,0
18465,note_on,225,0,3,,,,,,,,2,,,74,0
18480,note_on,15,0,4,,,,,,,,3,,,69,85
18480,note_on,15,0,2,,,,,,,,1,,,71,85
18480,note_on,15,0,5,,,,,,,,4,,,57,85
18480,note_on,15,0,6,,,,,,,,5,,,45,85
18480,note_on,15,0,3,,,,,,,,2,,,74,85
18480,note_on,15,0,1,,,,,,,,0,,,71,85
18705,note_on,225,0,4,,,,,,,,3,,,69,0
18705,note_on,225,0,6,,,,,,,,5,,,45,0
18705,note_on,225,0,5,,,,,,,,4,,,57,0
18720,note_on,15,0,4,,,,,,,,3,,,71,85
18720,note_on,15,0,6,,,,,,,,5,,,47,85
18720,note_on,15,0,5,,,,,,,,4,,,59,85
18925,note_on,445,0,3,,,,,,,,2,,,74,0
18925,note_on,445,0,2,,,,,,,,1,,,71,0
18925,note_on,445,0,1,,,,,,,,0,,,71,0
18945,note_on,225,0,4,,,,,,,,3,,,71,0
18945,note_on,225,0,5,,,,,,,,4,,,59,0
18945,note_on,225,0,6,,,,,,,,5,,,47,0
18960,note_on,35,0,3,,,,,,,,2,,,83,85
18960,note_on,35,0,2,,,,,,,,1,,,67,85
18960,note_on,15,0,4,,,,,,,,3,,,69,85
18960,note_on,15,0,5,,,,,,,,4,,,57,85
18960,note_on,15,0,6,,,,,,,,5,,,45,85
18960,note_on,35,0,1,,,,,,,,0,,,67,85
19185,note_on,225,0,2,,,,,,,,1,,,67,0
19185,note_on,225,0,5,,,,,,,,4,,,57,0
19185,note_on,225,0,4,,,,,,,,3,,,69,0
19185,note_on,225,0,3,,,,,,,,2,,,83,0
19185,note_on,225,0,6,,,,,,,,5,,,45,0
19185,note_on,225,0,1,,,,,,,,0,,,67,0
19200,note_on,15,0,1,,,,,,,,0,,,76,85
19200,note_on,15,0,5,,,,,,,,4,,,56,85
19200,note_on,15,0,4,,,,,,,,3,,,68,85
19200,note_on,15,0,3,,,,,,,,2,,,83,85
19200,note_on,15,0,2,,,,,,,,1,,,76,85
19200,note_on,15,0,6,,,,,,,,5,,,44,85
19425,note_on,225,0,5,,,,,,,,4,,,56,0
19425,note_on,225,0,6,,,,,,,,5,,,44,0
19425,note_on,225,0,3,,,,,,,,2,,,83,0
19425,note_on,225,0,2,,,,,,,,1,,,76,0
19425,note_on,225,0,1,,,,,,,,0,,,76,0
19425,note_on,225,0,4,,,,,,,,3,,,68,0
19440,note_on,15,0,4,,,,,,,,3,,,66,85
19440,note_on,15,0,6,,,,,,,,5,,,42,85
19440,note_on,15,0,3,,,,,,,,2,,,83,85
19440,note_on,15,0,2,,,,,,,,1,,,74,85
19440,note_on,15,0,1,,,,,,,,0,,,74,85
19440,note_on,15,0,5,,,,,,,,4,,,54,85
19665,note_on,225,0,4,,,,,,,,3,,,66,0
19665,note_on,225,0,5,,,,,,,,4,,,54,0
19665,note_on,225,0,6,,,,,,,,5,,,42,0
19680,note_on,15,0,5,,,,,,,,4,,,56,85
19680,note_on,15,0,4,,,,,,,,3,,,68,85
19680,note_on,15,0,6,,,,,,,,5,,,44,85
19885,note_on,445,0,3,,,,,,,,2,,,83,0
19885,note_on,445,0,2,,,,,,,,1,,,74,0
19885,note_on,445,0,1,,,,,,,,0,,,74,0
19905,note_on,225,0,4,,,,,,,,3,,,68,0
19905,note_on,225,0,5,,,,,,,,4,,,56,0
19905,note_on,225,0,6,,,,,,,,5,,,44,0
19920,note_on,15,0,6,,,,,,,,5,,,40,85
19920,note_on,35,0,3,,,,,,,,2,,,80,85
19920,note_on,15,0,5,,,,,,,,4,,,52,85
19920,note_on,35,0,2,,,,,,,,1,,,74,85
19920,note_on,35,0,1,,,,,,,,0,,,74,85
19920,note_on,15,0,4,,,,,,,,3,,,64,85
20145,note_on,225,0,1,,,,,,,,0,,,74,0
20145,note_on,225,0,6,,,,,,,,5,,,40,0
20145,note_on,225,0,2,,,,,,,,1,,,74,0
20145,note_on,225,0,3,,,,,,,,2,,,80,0
20145,note_on,225,0,4,,,,,,,,3,,,64,0
20145,note_on,225,0,5,,,,,,,,4,,,52,0
20160,note_on,15,0,4,,,,,,,,3,,,69,85
20160,note_on,15,0,2,,,,,,,,1,,,74,85
20160,note_on,15,0,5,,,,,,,,4,,,57,85
20160,note_on,15,0,6,,,,,,,,5,,,45,85
20160,note_on,15,0,1,,,,,,,,0,,,74,85
20160,note_on,15,0,3,,,,,,,,2,,,76,85
20385,note_on,225,0,3,,,,,,,,2,,,76,0
20385,note_on,225,0,5,,,,,,,,4,,,57,0
20385,note_on,225,0,2,,,,,,,,1,,,74,0
20385,note_on,225,0,6,,,,,,,,5,,,45,0
20385,note_on,225,0,1,,,,,,,,0,,,74,0
20385,note_on,225,0,4,,,,,,,,3,,,69,0
20400,note_on,15,0,4,,,,,,,,3,,,71,85
20400,note_on,15,0,1,,,,,,,,0,,,72,85
20400,note_on,15,0,5,,,,,,,,4,,,59,85
20400,note_on,15,0,6,,,,,,,,5,,,47,85
20400,note_on,15,0,2,,,,,,,,1,,,72,85
20400,note_on,15,0,3,,,,,,,,2,,,76,85
20625,note_on,225,0,4,,,,,,,,3,,,71,0
20625,note_on,225,0,6,,,,,,,,5,,,47,0
20625,note_on,225,0,5,,,,,,,,4,,,59,0
20640,note_on,15,0,5,,,,,,,,4,,,60,85
20640,note_on,15,0,4,,,,,,,,3,,,72,85
20640,note_on,15,0,6,,,,,,,,5,,,48,85
20845,note_on,445,0,2,,,,,,,,1,,,72,0
20845,note_on,445,0,3,,,,,,,,2,,,76,0
20845,note_on,445,0,1,,,,,,,,0,,,72,0
20865,note_on,225,0,5,,,,,,,,4,,,60,0
20865,note_on,225,0,4,,,,,,,,3,,,72,0
20865,note_on,225,0,6,,,,,,,,5,,,48,0
20880,note_on,35,0,1,,,,,,,,0,,,69,85
20880,note_on,15,0,6,,,,,,,,5,,,47,85
20880,note_on,15,0,4,,,,,,,,3,,,71,85
20880,note_on,35,0,2,,,,,,,,1,,,69,85
20880,note_on,35,0,3,,,,,,,,2,,,81,85
20880,note_on,15,0,5,,,,,,,,4,,,59,85
21105,note_on,225,0,2,,,,,,,,1,,,69,0
21105,note_on,225,0,3,,,,,,,,2,,,81,0
21105,note_on,225,0,6,,,,,,,,5,,,47,0
21105,note_on,225,0,4,,,,,,,,3,,,71,0
21105,note_on,225,0,1,,,,,,,,0,,,69,0
21105,note_on,225,0,5,,,,,,,,4,,,59,0
21120,note_on,15,0,5,,,,,,,,4,,,57,85
21120,note_on,15,0,6,,,,,,,,5,,,45,85
21120,note_on,15,0,4,,,,,,,,3,,,69,85
21120,note_on,15,0,2,,,,,,,,1,,,77,85
21120,note_on,15,0,3,,,,,,,,2,,,84,85
21120,note_on,15,0,1,,,,,,,,0,,,77,85
21345,note_on,225,0,3,,,,,,,,2,,,84,0
21345,note_on,225,0,1,,,,,,,,0,,,77,0
21345,note_on,225,0,5,,,,,,,,4,,,57,0
21345,note_on,225,0,4,,,,,,,,3,,,69,0
21345,note_on,225,0,2,,,,,,,,1,,,77,0
21345,note_on,225,0,6,,,,,,,,5,,,45,0
21360,note_on,15,0,5,,,,,,,,4,,,55,85
21360,note_on,15,0,4,,,,,,,,3,,,67,85
21360,note_on,15,0,3,,,,,,,,2,,,84,85
21360,note_on,15,0,6,,,,,,,,5,,,43,85
21360,note_on,15,0,1,,,,,,,,0,,,76,85
21360,note_on,15,0,2,,,,,,,,1,,,76,85
21585,note_on,225,0,4,,,,,,,,3,,,67,0
21585,note_on,225,0,5,,,,,,,,4,,,55,0
21585,note_on,225,0,6,,,,,,,,5,,,43,0
21600,note_on,15,0,4,,,,,,,,3,,,69,85
21600,note_on,15,0,5,,,,,,,,4,,,57,85
21600,note_on,15,0,6,,,,,,,,5,,,45,85
21805,note_on,445,0,1,,,,,,,,0,,,76,0
21805,note_on,445,0,3,,,,,,,,2,,,84,0
21805,note_on,445,0,2,,,,,,,,1,,,76,0
21825,note_on,225,0,5,,,,,,,,4,,,57,0
21825,note_on,225,0,4,,,,,,,,3,,,69,0
21825,note_on,225,0,6,,,,,,,,5,,,45,0
21840,note_on,35,0,1,,,,,,,,0,,,76,85
21840,note_on,15,0,6,,,,,,,,5,,,41,85
21840,note_on,15,0,5,,,,,,,,4,,,53,85
21840,note_on,15,0,4,,,,,,,,3,,,65,85
21840,note_on,35,0,3,,,,,,,,2,,,81,85
21840,note_on,35,0,2,,,,,,,,1,,,76,85
22065,note_on,225,0,4,,,,,,,,3,,,65,0
22065,note_on,225,0,6,,,,,,,,5,,,41,0
22065,note_on,225,0,5,,,,,,,,4,,,53,0
22065,note_on,225,0,3,,,,,,,,2,,,81,0
22065,note_on,225,0,2,,,,,,,,1,,,76,0
22065,note_on,225,0,1,,,,,,,,0,,,76,0
22080,note_on,15,0,2,,,,,,,,1,,,76,85
22080,note_on,15,0,6,,,,,,,,5,,,47,85
22080,note_on,15,0,4,,,,,,,,3,,,71,85
22080,note_on,15,0,1,,,,,,,,0,,,76,85
22080,note_on,15,0,5,,,,,,,,4,,,59,85
22080,note_on,15,0,3,,,,,,,,2,,,77,85
22305,note_on,225,0,3,,,,,,,,2,,,77,0
22305,note_on,225,0,1,,,,,,,,0,,,76,0
22305,note_on,225,0,6,,,,,,,,5,,,47,0
22305,note_on,225,0,4,,,,,,,,3,,,71,0
22305,note_on,225,0,2,,,,,,,,1,,,76,0
22305,note_on,225,0,5,,,,,,,,4,,,59,0
22320,note_on,15,0,5,,,,,,,,4,,,60,85
22320,note_on,15,0,1,,,,,,,,0,,,74,85
22320,note_on,15,0,4,,,,,,,,3,,,72,85
22320,note_on,15,0,2,,,,,,,,1,,,74,85
22320,note_on,15,0,3,,,,,,,,2,,,77,85
22320,note_on,15,0,6,,,,,,,,5,,,48,85
22545,note_on,225,0,5,,,,,,,,4,,,60,0
22545,note_on,225,0,6,,,,,,,,5,,,48,0
22545,note_on,225,0,4,,,,,,,,3,,,72,0
22560,note_on,15,0,5,,,,,,,,4,,,62,85
22560,note_on,15,0,6,,,,,,,,5,,,50,85
22560,note_on,15,0,4,,,,,,,,3,,,74,85
22765,note_on,445,0,3,,,,,,,,2,,,77,0
22765,note_on,445,0,2,,,,,,,,1,,,74,0
22765,note_on,445,0,1,,,,,,,,0,,,74,0
22785,note_on,225,0,6,,,,,,,,5,,,50,0
22785,note_on,225,0,4,,,,,,,,3,,,74,0
22785,note_on,225,0,5,,,,,,,,4,,,62,0
22800,note_on,35,0,3,,,,,,,,2,,,86,85
22800,note_on,35,0,1,,,,,,,,0,,,71,85
22800,note_on,15,0,5,,,,,,,,4,,,60,85
22800,note_on,15,0,4,,,,,,,,3,,,72,85
22800,note_on,35,0,2,,,,,,,,1,,,71,85
22800,note_on,15,0,6,,,,,,,,5,,,48,85
23025,note_on,225,0,1,,,,,,,,0,,,71,0
23025,note_on,225,0,2,,,,,,,,1,,,71,0
23025,note_on,225,0,5,,,,,,,,4,,,60,0
23025,note_on,225,0,6,,,,,,,,5,,,48,0
23025,note_on,225,0,4,,,,,,,,3,,,72,0
23025,note_on,225,0,3,,,,,,,,2,,,86,0
23040,note_on,15,0,3,,,,,,,,2,,,86,85
23040,note_on,15,0,5,,,,,,,,4,,,59,85
23040,note_on,15,0,6,,,,,,,,5,,,47,85
23040,note_on,15,0,2,,,,,,,,1,,,79,85
23040,note_on,15,0,4,,,,,,,,3,,,71,85
23040,note_on,15,0,1,,,,,,,,0,,,79,85
23265,note_on,225,0,3,,,,,,,,2,,,86,0
23265,note_on,225,0,1,,,,,,,,0,,,79,0
23265,note_on,225,0,6,,,,,,,,5,,,47,0
23265,note_on,225,0,2,,,,,,,,1,,,79,0
23265,note_on,225,0,4,,,,,,,,3,,,71,0
23265,note_on,225,0,5,,,,,,,,4,,,59,0
23280,note_on,15,0,6,,,,,,,,5,,,45,85
23280,note_on,15,0,2,,,,,,,,1,,,77,85
23280,note_on,15,0,3,,,,,,,,2,,,86,85
23280,note_on,15,0,5,,,,,,,,4,,,57,85
23280,note_on,15,0,1,,,,,,,,0,,,77,85
23280,note_on,15,0,4,,,,,,,,3,,,69,85
23505,note_on,225,0,4,,,,,,,,3,,,69,0
23505,note_on,225,0,5,,,,,,,,4,,,57,0
23505,note_on,225,0,6,,,,,,,,5,,,45,0
23520,note_on,15,0,4,,,,,,,,3,,,71,85
23520,note_on,15,0,6,,,,,,,,5,,,47,85
23520,note_on,15,0,5,,,,,,,,4,,,59,85
23725,note_on,445,0,3,,,,,,,,2,,,86,0
23725,note_on,445,0,1,,,,,,,,0,,,77,0
23725,note_on,445,0,2,,,,,,,,1,,,77,0
23745,note_on,225,0,4,,,,,,,,3,,,71,0
23745,note_on,225,0,6,,,,,,,,5,,,47,0
23745,note_on,225,0,5,,,,,,,,4,,,59,0
23760,note_on,35,0,3,,,,,,,,2,,,83,85
23760,note_on,15,0,5,,,,,,,,4,,,55,85
23760,note_on,15,0,6,,,,,,,,5,,,43,85
23760,note_on,35,0,2,,,,,,,,1,,,77,85
23760,note_on,15,0,4,,,,,,,,3,,,67,85
23760,note_on,35,0,1,,,,,,,,0,,,77,85
23985,note_on,225,0,6,,,,,,,,5,,,43,0
23985,note_on,225,0,4,,,,,,,,3,,,67,0
23985,note_on,225,0,5,,,,,,,,4,,,55,0
23985,note_on,225,0,1,,,,,,,,0,,,77,0
23985,note_on,225,0,2,,,,,,,,1,,,77,0
23985,note_on,225,0,3,,,,,,,,2,,,83,0
24000,note_on,15,0,3,,,,,,,,2,,,79,85
24000,note_on,15,0,5,,,,,,,,4,,,60,85
24000,note_on,15,0,4,,,,,,,,3,,,72,85
24000,note_on,15,0,1,,,,,,,,0,,,77,85
24000,note_on,15,0,2,,,,,,,,1,,,77,85
24000,note_on,15,0,6,,,,,,,,5,,,48,85
24225,note_on,225,0,3,,,,,,,,2,,,79,0
24225,note_on,225,0,2,,,,,,,,1,,,77,0
24225,note_on,225,0,1,,,,,,,,0,,,77,0
24225,note_on,225,0,4,,,,,,,,3,,,72,0
24225,note_on,225,0,6,,,,,,,,5,,,48,0
24225,note_on,225,0,5,,,,,,,,4,,,60,0
24240,note_on,15,0,6,,,,,,,,5,,,47,85
24240,note_on,15,0,2,,,,,,,,1,,,76,85
24240,note_on,15,0,3,,,,,,,,2,,,79,85
24240,note_on,15,0,5,,,,,,,,4,,,59,85
24240,note_on,15,0,4,,,,,,,,3,,,71,85
24240,note_on,15,0,1,,,,,,,,0,,,76,85
24465,note_on,225,0,6,,,,,,,,5,,,47,0
24465,note_on,225,0,5,,,,,,,,4,,,59,0
24465,note_on,225,0,4,,,,,,,,3,,,71,0
24480,note_on,15,0,4,,,,,,,,3,,,72,85
24480,note_on,15,0,6,,,,,,,,5,,,48,85
24480,note_on,15,0,5,,,,,,,,4,,,60,85
24685,note_on,445,0,1,,,,,,,,0,,,76,0
24685,note_on,445,0,2,,,,,,,,1,,,76,0
24685,note_on,445,0,3,,,,,,,,2,,,79,0
24705,note_on,225,0,6,,,,,,,,5,,,48,0
24705,note_on,225,0,5,,,,,,,,4,,,60,0
24705,note_on,225,0,4,,,,,,,,3,,,72,0
24720,note_on,15,0,5,,,,,,,,4,,,48,85
24720,note_on,15,0,4,,,,,,,,3,,,60,85
24720,note_on,15,0,6,,,,,,,,5,,,36,85
24720,note_on,35,0,1,,,,,,,,0,,,79,85
24720,note_on,35,0,3,,,,,,,,2,,,76,85
24720,note_on,35,0,2,,,,,,,,1,,,79,85
24945,note_on,225,0,2,,,,,,,,1,,,79,0
24945,note_on,225,0,3,,,,,,,,2,,,76,0
24945,note_on,225,0,6,,,,,,,,5,,,36,0
24945,note_on,225,0,5,,,,,,,,4,,,48,0
24945,note_on,225,0,1,,,,,,,,0,,,79,0
24945,note_on,225,0,4,,,,,,,,3,,,60,0
24960,note_on,15,0,5,,,,,,,,4,,,48,101
24960,note_on,15,0,1,,,,,,,,0,,,84,101
24960,note_on,15,0,3,,,,,,,,2,,,79,101
24960,note_on,15,0,6,,,,,,,,5,,,36,101
24960,note_on,15,0,2,,,,,,,,1,,,84,101
24960,note_on,15,0,4,,,,,,,,3,,,64,101
25200,note_on,240,0,1,,,,,,,,0,,,84,0
25200,note_on,240,0,2,,,,,,,,1,,,84,0
25200,note_on,0,0,2,,,,,,,,1,,,72,85
25200,note_on,0,0,1,,,,,,,,0,,,72,85
25200,note_on,0,0,6,,,,,,,,5,,,41,85
25200,note_on,240,0,6,,,,,,,,5,,,36,0
25200,note_on,240,0,3,,,,,,,,2,,,79,0
25200,note_on,0,0,5,,,,,,,,4,,,53,85
25200,note_on,0,0,3,,,,,,,,2,,,64,85
25200,note_on,0,0,4,,,,,,,,3,,,57,85
25200,note_on,240,0,5,,,,,,,,4,,,48,0
25200,note_on,240,0,4,,,,,,,,3,,,64,0
25425,note_on,225,0,5,,,,,,,,4,,,53,0
25425,note_on,225,0,4,,,,,,,,3,,,57,0
25425,note_on,225,0,2,,,,,,,,1,,,72,0
25425,note_on,225,0,3,,,,,,,,2,,,64,0
25425,note_on,225,0,6,,,,,,,,5,,,41,0
25425,note_on,225,0,1,,,,,,,,0,,,72,0
25440,note_on,15,0,1,,,,,,,,0,,,71,85
25440,note_on,15,0,2,,,,,,,,1,,,71,85
25440,note_on,15,0,4,,,,,,,,3,,,59,85
25440,note_on,15,0,3,,,,,,,,2,,,62,85
25440,note_on,15,0,6,,,,,,,,5,,,43,85
25440,note_on,15,0,5,,,,,,,,4,,,55,85
25665,note_on,225,0,2,,,,,,,,1,,,71,0
25665,note_on,225,0,3,,,,,,,,2,,,62,0
25665,note_on,225,0,5,,,,,,,,4,,,55,0
25665,note_on,225,0,6,,,,,,,,5,,,43,0
25665,note_on,225,0,1,,,,,,,,0,,,71,0
25665,note_on,225,0,4,,,,,,,,3,,,59,0
25680,note_on,15,0,6,,,,,,,,5,,,31,85
25680,note_on,15,0,4,,,,,,,,3,,,55,85
25680,note_on,15,0,1,,,,,,,,0,,,62,85
25680,note_on,15,0,3,,,,,,,,2,,,59,85
25680,note_on,15,0,5,,,,,,,,4,,,43,85
25680,note_on,15,0,2,,,,,,,,1,,,62,85
25905,note_on,225,0,6,,,,,,,,5,,,31,0
25905,note_on,225,0,4,,,,,,,,3,,,55,0
25905,note_on,225,0,2,,,,,,,,1,,,62,0
25905,note_on,225,0,1,,,,,,,,0,,,62,0
25905,note_on,225,0,3,,,,,,,,2,,,59,0
25905,note_on,225,0,5,,,,,,,,4,,,43,0
25920,note_on,15,0,2,,,,,,,,1,,,64,101
25920,note_on,15,0,4,,,,,,,,3,,,55,101
25920,note_on,15,0,1,,,,,,,,0,,,64,101
25920,note_on,15,0,6,,,,,,,,5,,,36,101
25920,note_on,15,0,3,,,,,,,,2,,,60,101
25920,note_on,15,0,5,,,,,,,,4,,,48,101
26160,note_on,0,0,2,,,,,,,,1,,,64,85
26160,note_on,0,0,6,,,,,,,,5,,,38,85
26160,note_on,240,0,6,,,,,,,,5,,,36,0
26160,note_on,240,0,3,,,,,,,,2,,,60,0
26160,note_on,240,0,1,,,,,,,,0,,,64,0
26160,note_on,0,0,1,,,,,,,,0,,,64,85
26160,note_on,0,0,3,,,,,,,,2,,,60,85
26160,note_on,240,0,2,,,,,,,,1,,,64,0
26160,note_on,0,0,5,,,,,,,,4,,,50,85
26160,note_on,240,0,5,,,,,,,,4,,,48,0
26385,note_on,225,0,5,,,,,,,,4,,,50,0
26385,note_on,225,0,6,,,,,,,,5,,,38,0
26400,note_on,0,0,4,,,,,,,,3,,,55,85
26400,note_on,480,0,4,,,,,,,,3,,,55,0
26400,note_on,15,0,5,,,,,,,,4,,,52,85
26400,note_on,15,0,6,,,,,,,,5,,,40,85
26605,note_on,445,0,1,,,,,,,,0,,,64,0
26605,note_on,445,0,3,,,,,,,,2,,,60,0
26605,note_on,445,0,2,,,,,,,,1,,,64,0
26625,note_on,225,0,6,,,,,,,,5,,,40,0
26625,note_on,225,0,5,,,,,,,,4,,,52,0
26640,note_on,35,0,2,,,,,,,,1,,,67,85
26640,note_on,15,0,5,,,,,,,,4,,,50,85
26640,note_on,35,0,3,,,,,,,,2,,,64,85
26640,note_on,15,0,6,,,,,,,,5,,,38,85
26640,note_on,35,0,1,,,,,,,,0,,,67,85
26845,note_on,445,0,4,,,,,,,,3,,,55,0
26865,note_on,225,0,3,,,,,,,,2,,,64,0
26865,note_on,225,0,2,,,,,,,,1,,,67,0
26865,note_on,225,0,6,,,,,,,,5,,,38,0
26865,note_on,225,0,5,,,,,,,,4,,,50,0
26865,note_on,225,0,1,,,,,,,,0,,,67,0
26880,note_on,15,0,2,,,,,,,,1,,,72,101
26880,note_on,15,0,1,,,,,,,,0,,,72,101
26880,note_on,15,0,3,,,,,,,,2,,,67,101
26880,note_on,15,0,5,,,,,,,,4,,,48,101
26880,note_on,35,0,4,,,,,,,,3,,,64,101
26880,note_on,15,0,6,,,,,,,,5,,,36,101
27120,note_on,0,0,5,,,,,,,,4,,,53,85
27120,note_on,0,0,6,,,,,,,,5,,,41,85
27120,note_on,240,0,6,,,,,,,,5,,,36,0
27120,note_on,240,0,1,,,,,,,,0,,,72,0
27120,note_on,0,0,1,,,,,,,,0,,,60,85
27120,note_on,240,0,3,,,,,,,,2,,,67,0
27120,note_on,0,0,3,,,,,,,,2,,,64,85
27120,note_on,0,0,4,,,,,,,,3,,,57,85
27120,note_on,240,0,4,,,,,,,,3,,,64,0
27120,note_on,240,0,2,,,,,,,,1,,,72,0
27120,note_on,240,0,5,,,,,,,,4,,,48,0
27120,note_on,0,0,2,,,,,,,,1,,,60,85
27345,note_on,225,0,3,,,,,,,,2,,,64,0
27345,note_on,225,0,1,,,,,,,,0,,,60,0
27345,note_on,225,0,2,,,,,,,,1,,,60,0
27345,note_on,225,0,5,,,,,,,,4,,,53,0
27345,note_on,225,0,4,,,,,,,,3,,,57,0
27345,note_on,225,0,6,,,,,,,,5,,,41,0
27360,note_on,15,0,4,,,,,,,,3,,,59,85
27360,note_on,15,0,3,,,,,,,,2,,,62,85
27360,note_on,15,0,2,,,,,,,,1,,,59,85
27360,note_on,15,0,1,,,,,,,,0,,,59,85
27360,note_on,15,0,5,,,,,,,,4,,,55,85
27360,note_on,15,0,6,,,,,,,,5,,,43,85
27585,note_on,225,0,6,,,,,,,,5,,,43,0
27585,note_on,225,0,1,,,,,,,,0,,,59,0
27585,note_on,225,0,2,,,,,,,,1,,,59,0
27585,note_on,225,0,5,,,,,,,,4,,,55,0
27585,note_on,225,0,4,,,,,,,,3,,,59,0
27585,note_on,225,0,3,,,,,,,,2,,,62,0
27600,note_on,15,0,3,,,,,,,,2,,,71,85
27600,note_on,15,0,2,,,,,,,,1,,,74,85
27600,note_on,15,0,6,,,,,,,,5,,,31,85
27600,note_on,15,0,1,,,,,,,,0,,,74,85
27600,note_on,15,0,4,,,,,,,,3,,,55,85
27600,note_on,15,0,5,,,,,,,,4,,,43,85
27825,note_on,225,0,1,,,,,,,,0,,,74,0
27825,note_on,225,0,3,,,,,,,,2,,,71,0
27825,note_on,225,0,6,,,,,,,,5,,,31,0
27825,note_on,225,0,4,,,,,,,,3,,,55,0
27825,note_on,225,0,2,,,,,,,,1,,,74,0
27825,note_on,225,0,5,,,,,,,,4,,,43,0
27840,note_on,15,0,2,,,,,,,,1,,,72,85
27840,note_on,15,0,1,,,,,,,,0,,,72,85
27840,note_on,15,0,6,,,,,,,,5,,,36,85
27840,note_on,15,0,3,,,,,,,,2,,,72,85
27840,note_on,15,0,4,,,,,,,,3,,,55,85
27840,note_on,15,0,5,,,,,,,,4,,,48,85
28285,note_on,445,0,6,,,,,,,,5,,,36,0
28285,note_on,445,0,3,,,,,,,,2,,,72,0
28285,note_on,445,0,1,,,,,,,,0,,,72,0
28285,note_on,445,0,4,,,,,,,,3,,,55,0
28285,note_on,445,0,2,,,,,,,,1,,,72,0
28285,note_on,445,0,5,,,,,,,,4,,,48,0
28560,note_on,275,0,1,,,,,,,,0,,,76,85
28785,note_on,225,0,1,,,,,,,,0,,,76,0
28800,note_on,515,0,5,,,,,,,,4,,,48,64
28800,note_on,15,0,1,,,,,,,,0,,,79,106
28800,note_on,515,0,6,,,,,,,,5,,,36,64
28915,note_on,115,0,1,,,,,,,,0,,,79,0
28920,note_on,5,0,1,,,,,,,,0,,,76,106
29025,note_on,225,0,5,,,,,,,,4,,,48,0
29025,note_on,225,0,6,,,,,,,,5,,,36,0
29035,note_on,115,0,1,,,,,,,,0,,,76,0
29040,note_on,5,0,1,,,,,,,,0,,,81,106
29040,note_on,15,0,5,,,,,,,,4,,,53,64
29040,note_on,15,0,6,,,,,,,,5,,,41,64
29155,note_on,115,0,1,,,,,,,,0,,,81,0
29160,note_on,5,0,1,,,,,,,,0,,,77,106
29265,note_on,225,0,5,,,,,,,,4,,,53,0
29265,note_on,225,0,6,,,,,,,,5,,,41,0
29275,note_on,115,0,1,,,,,,,,0,,,77,0
29280,note_on,5,0,1,,,,,,,,0,,,79,106
29280,note_on,15,0,5,,,,,,,,4,,,48,64
29280,note_on,15,0,6,,,,,,,,5,,,36,64
29395,note_on,115,0,1,,,,,,,,0,,,79,0
29400,note_on,5,0,1,,,,,,,,0,,,76,106
29505,note_on,225,0,6,,,,,,,,5,,,36,0
29505,note_on,225,0,5,,,,,,,,4,,,48,0
29515,note_on,115,0,1,,,,,,,,0,,,76,0
29520,note_on,5,0,1,,,,,,,,0,,,81,106
29520,note_on,15,0,6,,,,,,,,5,,,41,64
29520,note_on,15,0,5,,,,,,,,4,,,53,64
29635,note_on,115,0,1,,,,,,,,0,,,81,0
29640,note_on,5,0,1,,,,,,,,0,,,77,106
29745,note_on,225,0,6,,,,,,,,5,,,41,0
29745,note_on,225,0,5,,,,,,,,4,,,53,0
29755,note_on,115,0,1,,,,,,,,0,,,77,0
29760,note_on,5,0,1,,,,,,,,0,,,79,106
29760,note_on,15,0,6,,,,,,,,5,,,36,64
29760,note_on,15,0,5,,,,,,,,4,,,48,64
29875,note_on,115,0,1,,,,,,,,0,,,79,0
29880,note_on,5,0,1,,,,,,,,0,,,76,106
29985,note_on,225,0,6,,,,,,,,5,,,36,0
29985,note_on,225,0,5,,,,,,,,4,,,48,0
29995,note_on,115,0,1,,,,,,,,0,,,76,0
30000,note_on,15,0,5,,,,,,,,4,,,53,64
30000,note_on,15,0,6,,,,,,,,5,,,41,64
30000,note_on,5,0,1,,,,,,,,0,,,81,106
30115,note_on,115,0,1,,,,,,,,0,,,81,0
30120,note_on,5,0,1,,,,,,,,0,,,77,106
30225,note_on,225,0,5,,,,,,,,4,,,53,0
30225,note_on,225,0,6,,,,,,,,5,,,41,0
30235,note_on,115,0,1,,,,,,,,0,,,77,0
30240,note_on,15,0,6,,,,,,,,5,,,36,64
30240,note_on,15,0,5,,,,,,,,4,,,48,64
30240,note_on,5,0,1,,,,,,,,0,,,79,106
30355,note_on,115,0,1,,,,,,,,0,,,79,0
30360,note_on,5,0,1,,,,,,,,0,,,76,106
30465,note_on,225,0,5,,,,,,,,4,,,48,0
30465,note_on,225,0,6,,,,,,,,5,,,36,0
30475,note_on,115,0,1,,,,,,,,0,,,76,0
30480,note_on,5,0,1,,,,,,,,0,,,81,106
30480,note_on,15,0,5,,,,,,,,4,,,53,64
30480,note_on,15,0,6,,,,,,,,5,,,41,64
30595,note_on,115,0,1,,,,,,,,0,,,81,0
30600,note_on,5,0,1,,,,,,,,0,,,77,106
30705,note_on,225,0,5,,,,,,,,4,,,53,0
30705,note_on,225,0,6,,,,,,,,5,,,41,0
30715,note_on,115,0,1,,,,,,,,0,,,77,0
30720,note_on,2435,0,4,,,,,,,,3,,,64,49
30720,note_on,15,0,6,,,,,,,,5,,,36,64
30720,note_on,5,0,1,,,,,,,,0,,,79,106
30720,note_on,2435,0,3,,,,,,,,2,,,76,49
30720,note_on,2435,0,2,,,,,,,,1,,,79,49
30720,note_on,15,0,5,,,,,,,,4,,,48,64
30945,note_on,225,0,1,,,,,,,,0,,,79,0
30945,note_on,225,0,5,,,,,,,,4,,,48,0
30945,note_on,225,0,6,,,,,,,,5,,,36,0
30945,note_on,225,0,2,,,,,,,,1,,,79,0
30945,note_on,225,0,3,,,,,,,,2,,,76,0
30945,note_on,225,0,4,,,,,,,,3,,,64,0
30960,note_on,15,0,4,,,,,,,,3,,,65,49
30960,note_on,15,0,1,,,,,,,,0,,,72,106
30960,note_on,15,0,2,,,,,,,,1,,,79,49
30960,note_on,15,0,3,,,,,,,,2,,,76,49
30960,note_on,15,0,5,,,,,,,,4,,,50,64
30960,note_on,15,0,6,,,,,,,,5,,,38,64
31185,note_on,225,0,4,,,,,,,,3,,,65,0
31185,note_on,225,0,1,,,,,,,,0,,,72,0
31185,note_on,225,0,5,,,,,,,,4,,,50,0
31185,note_on,225,0,6,,,,,,,,5,,,38,0
31200,note_on,15,0,4,,,,,,,,3,,,67,49
31200,note_on,15,0,5,,,,,,,,4,,,52,64
31200,note_on,15,0,6,,,,,,,,5,,,40,64
31405,note_on,445,0,2,,,,,,,,1,,,79,0
31405,note_on,445,0,3,,,,,,,,2,,,76,0
31425,note_on,225,0,6,,,,,,,,5,,,40,0
31425,note_on,225,0,5,,,,,,,,4,,,52,0
31425,note_on,225,0,4,,,,,,,,3,,,67,0
31440,note_on,35,0,2,,,,,,,,1,,,79,49
31440,note_on,15,0,4,,,,,,,,3,,,64,49
31440,note_on,255,0,1,,,,,,,,0,,,79,106
31440,note_on,15,0,6,,,,,,,,5,,,36,64
31440,note_on,35,0,3,,,,,,,,2,,,76,49
31440,note_on,15,0,5,,,,,,,,4,,,48,64
31665,note_on,225,0,4,,,,,,,,3,,,64,0
31665,note_on,225,0,1,,,,,,,,0,,,79,0
31665,note_on,225,0,2,,,,,,,,1,,,79,0
31665,note_on,225,0,5,,,,,,,,4,,,48,0
31665,note_on,225,0,6,,,,,,,,5,,,36,0
31665,note_on,225,0,3,,,,,,,,2,,,76,0
31680,note_on,15,0,2,,,,,,,,1,,,81,49
31680,note_on,15,0,5,,,,,,,,4,,,53,64
31680,note_on,15,0,6,,,,,,,,5,,,41,64
31680,note_on,15,0,4,,,,,,,,3,,,60,49
31680,note_on,15,0,1,,,,,,,,0,,,81,106
31680,note_on,15,0,3,,,,,,,,2,,,77,49
31795,note_on,115,0,1,,,,,,,,0,,,81,0
31800,note_on,5,0,1,,,,,,,,0,,,79,106
31905,note_on,225,0,6,,,,,,,,5,,,41,0
31905,note_on,225,0,5,,,,,,,,4,,,53,0
31915,note_on,115,0,1,,,,,,,,0,,,79,0
31920,note_on,15,0,5,,,,,,,,4,,,52,64
31920,note_on,5,0,1,,,,,,,,0,,,84,106
31920,note_on,15,0,6,,,,,,,,5,,,40,64
32035,note_on,115,0,1,,,,,,,,0,,,84,0
32040,note_on,5,0,1,,,,,,,,0,,,79,106
32125,note_on,445,0,3,,,,,,,,2,,,77,0
32125,note_on,445,0,4,,,,,,,,3,,,60,0
32125,note_on,445,0,2,,,,,,,,1,,,81,0
32145,note_on,225,0,6,,,,,,,,5,,,40,0
32145,note_on,225,0,5,,,,,,,,4,,,52,0
32155,note_on,115,0,1,,,,,,,,0,,,79,0
32160,note_on,5,0,1,,,,,,,,0,,,81,106
32160,note_on,15,0,6,,,,,,,,5,,,41,64
32160,note_on,15,0,5,,,,,,,,4,,,53,64
32275,note_on,115,0,1,,,,,,,,0,,,81,0
32280,note_on,5,0,1,,,,,,,,0,,,79,106
32385,note_on,225,0,6,,,,,,,,5,,,41,0
32385,note_on,225,0,5,,,,,,,,4,,,53,0
32395,note_on,115,0,1,,,,,,,,0,,,79,0
32400,note_on,15,0,6,,,,,,,,5,,,40,64
32400,note_on,5,0,1,,,,,,,,0,,,84,106
32400,note_on,15,0,5,,,,,,,,4,,,52,64
32515,note_on,115,0,1,,,,,,,,0,,,84,0
32520,note_on,5,0,1,,,,,,,,0,,,79,106
32625,note_on,225,0,6,,,,,,,,5,,,40,0
32625,note_on,225,0,5,,,,,,,,4,,,52,0
32635,note_on,115,0,1,,,,,,,,0,,,79,0
32640,note_on,15,0,5,,,,,,,,4,,,53,64
32640,note_on,5,0,1,,,,,,,,0,,,81,106
32640,note_on,15,0,6,,,,,,,,5,,,41,64
32755,note_on,115,0,1,,,,,,,,0,,,81,0
32760,note_on,5,0,1,,,,,,,,0,,,79,106
32865,note_on,225,0,5,,,,,,,,4,,,53,0
32865,note_on,225,0,6,,,,,,,,5,,,41,0
32875,note_on,115,0,1,,,,,,,,0,,,79,0
32880,note_on,15,0,5,,,,,,,,4,,,52,64
32880,note_on,15,0,6,,,,,,,,5,,,40,64
32880,note_on,5,0,1,,,,,,,,0,,,84,106
32995,note_on,115,0,1,,,,,,,,0,,,84,0
33000,note_on,5,0,1,,,,,,,,0,,,79,106
33105,note_on,225,0,5,,,,,,,,4,,,52,0
33105,note_on,225,0,6,,,,,,,,5,,,40,0
33115,note_on,115,0,1,,,,,,,,0,,,79,0
33120,note_on,15,0,5,,,,,,,,4,,,50,64
33120,note_on,15,0,6,,,,,,,,5,,,38,64
33120,note_on,5,0,1,,,,,,,,0,,,77,106
33345,note_on,225,0,5,,,,,,,,4,,,50,0
33345,note_on,225,0,1,,,,,,,,0,,,77,0
33345,note_on,225,0,6,,,,,,,,5,,,38,0
33360,note_on,15,0,5,,,,,,,,4,,,48,64
33360,note_on,15,0,6,,,,,,,,5,,,36,64
33360,note_on,15,0,1,,,,,,,,0,,,76,106
33585,note_on,225,0,1,,,,,,,,0,,,76,0
33585,note_on,225,0,6,,,,,,,,5,,,36,0
33585,note_on,225,0,5,,,,,,,,4,,,48,0
33600,note_on,1475,0,4,,,,,,,,3,,,67,49
33600,note_on,15,0,1,,,,,,,,0,,,74,106
33600,note_on,15,0,6,,,,,,,,5,,,43,64
33600,note_on,1475,0,2,,,,,,,,1,,,74,49
33600,note_on,15,0,5,,,,,,,,4,,,55,64
33600,note_on,1475,0,3,,,,,,,,2,,,71,49
33825,note_on,225,0,4,,,,,,,,3,,,67,0
33825,note_on,225,0,6,,,,,,,,5,,,43,0
33825,note_on,225,0,5,,,,,,,,4,,,55,0
33825,note_on,225,0,3,,,,,,,,2,,,71,0
33825,note_on,225,0,2,,,,,,,,1,,,74,0
33840,note_on,15,0,6,,,,,,,,5,,,36,64
33840,note_on,15,0,2,,,,,,,,1,,,76,49
33840,note_on,15,0,3,,,,,,,,2,,,72,49
33840,note_on,15,0,4,,,,,,,,3,,,67,49
33840,note_on,15,0,5,,,,,,,,4,,,48,64
34045,note_on,445,0,1,,,,,,,,0,,,74,0
34065,note_on,225,0,5,,,,,,,,4,,,48,0
34065,note_on,225,0,4,,,,,,,,3,,,67,0
34065,note_on,225,0,6,,,,,,,,5,,,36,0
34080,note_on,15,0,4,,,,,,,,3,,,67,49
34080,note_on,15,0,6,,,,,,,,5,,,40,64
34080,note_on,15,0,5,,,,,,,,4,,,52,64
34285,note_on,445,0,2,,,,,,,,1,,,76,0
34285,note_on,445,0,3,,,,,,,,2,,,72,0
34305,note_on,225,0,6,,,,,,,,5,,,40,0
34305,note_on,225,0,4,,,,,,,,3,,,67,0
34305,note_on,225,0,5,,,,,,,,4,,,52,0
34320,note_on,35,0,2,,,,,,,,1,,,79,49
34320,note_on,15,0,5,,,,,,,,4,,,48,64
34320,note_on,35,0,3,,,,,,,,2,,,76,49
34320,note_on,15,0,4,,,,,,,,3,,,64,49
34320,note_on,15,0,6,,,,,,,,5,,,36,64
34320,note_on,275,0,1,,,,,,,,0,,,79,64
34545,note_on,225,0,4,,,,,,,,3,,,64,0
34545,note_on,225,0,2,,,,,,,,1,,,79,0
34545,note_on,225,0,5,,,,,,,,4,,,48,0
34545,note_on,225,0,1,,,,,,,,0,,,79,0
34545,note_on,225,0,6,,,,,,,,5,,,36,0
34545,note_on,225,0,3,,,,,,,,2,,,76,0
34560,note_on,15,0,2,,,,,,,,1,,,81,49
34560,note_on,15,0,3,,,,,,,,2,,,77,49
34560,note_on,15,0,6,,,,,,,,5,,,41,64
34560,note_on,15,0,5,,,,,,,,4,,,53,64
34560,note_on,15,0,4,,,,,,,,3,,,60,49
34560,note_on,15,0,1,,,,,,,,0,,,81,64
34675,note_on,115,0,1,,,,,,,,0,,,81,0
34680,note_on,5,0,1,,,,,,,,0,,,79,64
34785,note_on,225,0,6,,,,,,,,5,,,41,0
34785,note_on,225,0,5,,,,,,,,4,,,53,0
34795,note_on,115,0,1,,,,,,,,0,,,79,0
34800,note_on,15,0,5,,,,,,,,4,,,52,64
34800,note_on,5,0,1,,,,,,,,0,,,84,64
34800,note_on,15,0,6,,,,,,,,5,,,40,64
34915,note_on,115,0,1,,,,,,,,0,,,84,0
34920,note_on,5,0,1,,,,,,,,0,,,79,64
35005,note_on,445,0,2,,,,,,,,1,,,81,0
35005,note_on,445,0,4,,,,,,,,3,,,60,0
35005,note_on,445,0,3,,,,,,,,2,,,77,0
35025,note_on,225,0,5,,,,,,,,4,,,52,0
35025,note_on,225,0,6,,,,,,,,5,,,40,0
35035,note_on,115,0,1,,,,,,,,0,,,79,0
35040,note_on,15,0,5,,,,,,,,4,,,53,64
35040,note_on,5,0,1,,,,,,,,0,,,81,64
35040,note_on,15,0,6,,,,,,,,5,,,41,64
35155,note_on,115,0,1,,,,,,,,0,,,81,0
35160,note_on,5,0,1,,,,,,,,0,,,79,64
35265,note_on,225,0,6,,,,,,,,5,,,41,0
35265,note_on,225,0,5,,,,,,,,4,,,53,0
35275,note_on,115,0,1,,,,,,,,0,,,79,0
35280,note_on,5,0,1,,,,,,,,0,,,84,64
35280,note_on,15,0,6,,,,,,,,5,,,40,64
35280,note_on,15,0,5,,,,,,,,4,,,52,64
35395,note_on,115,0,1,,,,,,,,0,,,84,0
35400,note_on,5,0,1,,,,,,,,0,,,79,64
35505,note_on,225,0,5,,,,,,,,4,,,52,0
35505,note_on,225,0,6,,,,,,,,5,,,40,0
35515,note_on,115,0,1,,,,,,,,0,,,79,0
35520,note_on,5,0,1,,,,,,,,0,,,81,64
35520,note_on,15,0,5,,,,,,,,4,,,53,64
35520,note_on,15,0,6,,,,,,,,5,,,41,64
35635,note_on,115,0,1,,,,,,,,0,,,81,0
35640,note_on,5,0,1,,,,,,,,0,,,79,64
35745,note_on,225,0,5,,,,,,,,4,,,53,0
35745,note_on,225,0,6,,,,,,,,5,,,41,0
35755,note_on,115,0,1,,,,,,,,0,,,79,0
35760,note_on,5,0,1,,,,,,,,0,,,84,64
35760,note_on,15,0,5,,,,,,,,4,,,52,64
35760,note_on,15,0,6,,,,,,,,5,,,40,64
35875,note_on,115,0,1,,,,,,,,0,,,84,0
35880,note_on,5,0,1,,,,,,,,0,,,79,64
35985,note_on,225,0,5,,,,,,,,4,,,52,0
35985,note_on,225,0,6,,,,,,,,5,,,40,0
35995,note_on,115,0,1,,,,,,,,0,,,79,0
36000,note_on,15,0,6,,,,,,,,5,,,38,64
36000,note_on,5,0,1,,,,,,,,0,,,77,64
36000,note_on,15,0,5,,,,,,,,4,,,50,64
36225,note_on,225,0,6,,,,,,,,5,,,38,0
36225,note_on,225,0,5,,,,,,,,4,,,50,0
36225,note_on,225,0,1,,,,,,,,0,,,77,0
36240,note_on,15,0,6,,,,,,,,5,,,36,64
36240,note_on,15,0,5,,,,,,,,4,,,48,64
36240,note_on,15,0,1,,,,,,,,0,,,76,64
36465,note_on,225,0,5,,,,,,,,4,,,48,0
36465,note_on,225,0,1,,,,,,,,0,,,76,0
36465,note_on,225,0,6,,,,,,,,5,,,36,0
36480,note_on,15,0,6,,,,,,,,5,,,43,64
36480,note_on,1475,0,3,,,,,,,,2,,,71,49
36480,note_on,1475,0,2,,,,,,,,1,,,74,49
36480,note_on,15,0,5,,,,,,,,4,,,55,64
36480,note_on,1475,0,4,,,,,,,,3,,,67,49
36480,note_on,15,0,1,,,,,,,,0,,,74,64
36705,note_on,225,0,2,,,,,,,,1,,,74,0
36705,note_on,225,0,3,,,,,,,,2,,,71,0
36705,note_on,225,0,5,,,,,,,,4,,,55,0
36705,note_on,225,0,6,,,,,,,,5,,,43,0
36705,note_on,225,0,4,,,,,,,,3,,,67,0
36720,note_on,15,0,3,,,,,,,,2,,,74,49
36720,note_on,15,0,2,,,,,,,,1,,,77,49
36720,note_on,15,0,5,,,,,,,,4,,,53,64
36720,note_on,15,0,4,,,,,,,,3,,,67,49
36720,note_on,15,0,6,,,,,,,,5,,,41,64
36925,note_on,445,0,1,,,,,,,,0,,,74,0
36945,note_on,225,0,6,,,,,,,,5,,,41,0
36945,note_on,225,0,5,,,,,,,,4,,,53,0
36945,note_on,225,0,4,,,,,,,,3,,,67,0
36960,note_on,15,0,5,,,,,,,,4,,,55,64
36960,note_on,15,0,4,,,,,,,,3,,,67,49
36960,note_on,15,0,6,,,,,,,,5,,,43,64
37165,note_on,445,0,2,,,,,,,,1,,,77,0
37165,note_on,445,0,3,,,,,,,,2,,,74,0
37185,note_on,225,0,4,,,,,,,,3,,,67,0
37185,note_on,225,0,6,,,,,,,,5,,,43,0
37185,note_on,225,0,5,,,,,,,,4,,,55,0
37200,note_on,275,0,1,,,,,,,,0,,,77,106
37200,note_on,15,0,4,,,,,,,,3,,,67,49
37200,note_on,35,0,2,,,,,,,,1,,,77,49
37200,note_on,15,0,5,,,,,,,,4,,,43,64
37200,note_on,35,0,3,,,,,,,,2,,,74,49
37200,note_on,15,0,6,,,,,,,,5,,,31,64
37425,note_on,225,0,6,,,,,,,,5,,,31,0
37425,note_on,225,0,1,,,,,,,,0,,,77,0
37425,note_on,225,0,3,,,,,,,,2,,,74,0
37425,note_on,225,0,4,,,,,,,,3,,,67,0
37425,note_on,225,0,2,,,,,,,,1,,,77,0
37425,note_on,225,0,5,,,,,,,,4,,,43,0
37440,note_on,15,0,1,,,,,,,,0,,,76,106
37440,note_on,15,0,4,,,,,,,,3,,,67,49
37440,note_on,15,0,3,,,,,,,,2,,,72,49
37440,note_on,15,0,5,,,,,,,,4,,,48,64
37440,note_on,15,0,2,,,,,,,,1,,,76,49
37440,note_on,15,0,6,,,,,,,,5,,,36,64
37555,note_on,115,0,1,,,,,,,,0,,,76,0
37560,note_on,5,0,1,,,,,,,,0,,,77,106
37665,note_on,225,0,5,,,,,,,,4,,,48,0
37665,note_on,225,0,6,,,,,,,,5,,,36,0
37675,note_on,115,0,1,,,,,,,,0,,,77,0
37680,note_on,15,0,5,,,,,,,,4,,,52,64
37680,note_on,15,0,6,,,,,,,,5,,,40,64
37680,note_on,5,0,1,,,,,,,,0,,,79,106
37795,note_on,115,0,1,,,,,,,,0,,,79,0
37800,note_on,5,0,1,,,,,,,,0,,,81,106
37885,note_on,445,0,2,,,,,,,,1,,,76,0
37885,note_on,445,0,3,,,,,,,,2,,,72,0
37885,note_on,445,0,4,,,,,,,,3,,,67,0
37905,note_on,225,0,6,,,,,,,,5,,,40,0
37905,note_on,225,0,5,,,,,,,,4,,,52,0
37915,note_on,115,0,1,,,,,,,,0,,,81,0
37920,note_on,5,0,1,,,,,,,,0,,,82,106
37920,note_on,15,0,6,,,,,,,,5,,,36,64
37920,note_on,15,0,5,,,,,,,,4,,,48,64
38145,note_on,225,0,1,,,,,,,,0,,,82,0
38145,note_on,225,0,6,,,,,,,,5,,,36,0
38145,note_on,225,0,5,,,,,,,,4,,,48,0
38160,note_on,15,0,6,,,,,,,,5,,,40,64
38160,note_on,15,0,5,,,,,,,,4,,,52,64
38160,note_on,15,0,1,,,,,,,,0,,,79,106
38385,note_on,225,0,6,,,,,,,,5,,,40,0
38385,note_on,225,0,5,,,,,,,,4,,,52,0
38385,note_on,225,0,1,,,,,,,,0,,,79,0
38400,note_on,15,0,5,,,,,,,,4,,,53,64
38400,note_on,15,0,6,,,,,,,,5,,,41,64
38400,note_on,15,0,1,,,,,,,,0,,,81,106
38625,note_on,225,0,6,,,,,,,,5,,,41,0
38625,note_on,225,0,5,,,,,,,,4,,,53,0
38640,note_on,15,0,5,,,,,,,,4,,,55,64
38640,note_on,15,0,6,,,,,,,,5,,,43,64
38865,note_on,225,0,6,,,,,,,,5,,,43,0
38865,note_on,225,0,5,,,,,,,,4,,,55,0
38880,note_on,15,0,5,,,,,,,,4,,,53,64
38880,note_on,15,0,6,,,,,,,,5,,,41,64
39065,note_on,665,0,1,,,,,,,,0,,,81,0
39105,note_on,225,0,5,,,,,,,,4,,,53,0
39105,note_on,225,0,6,,,,,,,,5,,,41,0
39120,note_on,15,0,6,,,,,,,,5,,,40,64
39120,note_on,55,0,1,,,,,,,,0,,,79,106
39120,note_on,15,0,5,,,,,,,,4,,,52,64
39345,note_on,225,0,1,,,,,,,,0,,,79,0
39345,note_on,225,0,6,,,,,,,,5,,,40,0
39345,note_on,225,0,5,,,,,,,,4,,,52,0
39360,note_on,15,0,6,,,,,,,,5,,,38,64
39360,note_on,15,0,1,,,,,,,,0,,,78,106
39360,note_on,15,0,5,,,,,,,,4,,,50,64
39475,note_on,115,0,1,,,,,,,,0,,,78,0
39480,note_on,5,0,1,,,,,,,,0,,,79,106
39585,note_on,225,0,6,,,,,,,,5,,,38,0
39585,note_on,225,0,5,,,,,,,,4,,,50,0
39595,note_on,115,0,1,,,,,,,,0,,,79,0
39600,note_on,15,0,6,,,,,,,,5,,,42,64
39600,note_on,15,0,5,,,,,,,,4,,,54,64
39600,note_on,5,0,1,,,,,,,,0,,,81,106
39715,note_on,115,0,1,,,,,,,,0,,,81,0
39720,note_on,5,0,1,,,,,,,,0,,,83,106
39825,note_on,225,0,5,,,,,,,,4,,,54,0
39825,note_on,225,0,6,,,,,,,,5,,,42,0
39835,note_on,115,0,1,,,,,,,,0,,,83,0
39840,note_on,15,0,5,,,,,,,,4,,,50,64
39840,note_on,5,0,1,,,,,,,,0,,,84,106
39840,note_on,15,0,6,,,,,,,,5,,,38,64
40065,note_on,225,0,6,,,,,,,,5,,,38,0
40065,note_on,225,0,1,,,,,,,,0,,,84,0
40065,note_on,225,0,5,,,,,,,,4,,,50,0
40080,note_on,15,0,6,,,,,,,,5,,,42,64
40080,note_on,15,0,5,,,,,,,,4,,,54,64
40080,note_on,15,0,1,,,,,,,,0,,,81,106
40305,note_on,225,0,1,,,,,,,,0,,,81,0
40305,note_on,225,0,6,,,,,,,,5,,,42,0
40305,note_on,225,0,5,,,,,,,,4,,,54,0
40320,note_on,15,0,6,,,,,,,,5,,,43,64
40320,note_on,15,0,1,,,,,,,,0,,,83,106
40320,note_on,15,0,5,,,,,,,,4,,,55,64
40545,note_on,225,0,6,,,,,,,,5,,,43,0
40545,note_on,225,0,5,,,,,,,,4,,,55,0
40560,note_on,15,0,5,,,,,,,,4,,,57,64
40560,note_on,15,0,6,,,,,,,,5,,,45,64
40785,note_on,225,0,6,,,,,,,,5,,,45,0
40785,note_on,225,0,5,,,,,,,,4,,,57,0
40800,note_on,15,0,5,,,,,,,,4,,,55,64
40800,note_on,15,0,6,,,,,,,,5,,,43,64
40985,note_on,665,0,1,,,,,,,,0,,,83,0
41025,note_on,225,0,5,,,,,,,,4,,,55,0
41025,note_on,225,0,6,,,,,,,,5,,,43,0
41040,note_on,15,0,5,,,,,,,,4,,,53,64
41040,note_on,15,0,6,,,,,,,,5,,,41,64
41040,note_on,55,0,1,,,,,,,,0,,,81,106
41265,note_on,225,0,6,,,,,,,,5,,,41,0
41265,note_on,225,0,1,,,,,,,,0,,,81,0
41265,note_on,225,0,5,,,,,,,,4,,,53,0
41280,note_on,15,0,1,,,,,,,,0,,,80,106
41280,note_on,15,0,5,,,,,,,,4,,,52,64
41280,note_on,15,0,6,,,,,,,,5,,,40,64
41395,note_on,115,0,1,,,,,,,,0,,,80,0
41400,note_on,5,0,1,,,,,,,,0,,,81,106
41505,note_on,225,0,5,,,,,,,,4,,,52,0
41505,note_on,225,0,6,,,,,,,,5,,,40,0
41515,note_on,115,0,1,,,,,,,,0,,,81,0
41520,note_on,5,0,1,,,,,,,,0,,,83,106
41520,note_on,15,0,5,,,,,,,,4,,,56,64
41520,note_on,15,0,6,,,,,,,,5,,,44,64
41635,note_on,115,0,1,,,,,,,,0,,,83,0
41640,note_on,5,0,1,,,,,,,,0,,,84,106
41745,note_on,225,0,5,,,,,,,,4,,,56,0
41745,note_on,225,0,6,,,,,,,,5,,,44,0
41755,note_on,115,0,1,,,,,,,,0,,,84,0
41760,note_on,5,0,1,,,,,,,,0,,,86,106
41760,note_on,15,0,6,,,,,,,,5,,,40,64
41760,note_on,15,0,5,,,,,,,,4,,,52,64
41985,note_on,225,0,1,,,,,,,,0,,,86,0
41985,note_on,225,0,5,,,,,,,,4,,,52,0
41985,note_on,225,0,6,,,,,,,,5,,,40,0
42000,note_on,15,0,5,,,,,,,,4,,,56,64
42000,note_on,15,0,1,,,,,,,,0,,,83,106
42000,note_on,15,0,6,,,,,,,,5,,,44,64
42225,note_on,225,0,1,,,,,,,,0,,,83,0
42225,note_on,225,0,6,,,,,,,,5,,,44,0
42225,note_on,225,0,5,,,,,,,,4,,,56,0
42240,note_on,15,0,6,,,,,,,,5,,,45,64
42240,note_on,15,0,5,,,,,,,,4,,,57,64
42240,note_on,15,0,1,,,,,,,,0,,,84,106
42465,note_on,225,0,5,,,,,,,,4,,,57,0
42465,note_on,225,0,6,,,,,,,,5,,,45,0
42480,note_on,15,0,5,,,,,,,,4,,,59,64
42480,note_on,15,0,6,,,,,,,,5,,,47,64
42705,note_on,225,0,5,,,,,,,,4,,,59,0
42705,note_on,225,0,6,,,,,,,,5,,,47,0
42720,note_on,15,0,6,,,,,,,,5,,,45,64
42720,note_on,15,0,5,,,,,,,,4,,,57,64
42905,note_on,665,0,1,,,,,,,,0,,,84,0
42945,note_on,225,0,6,,,,,,,,5,,,45,0
42945,note_on,225,0,5,,,,,,,,4,,,57,0
42960,note_on,15,0,6,,,,,,,,5,,,43,64
42960,note_on,15,0,5,,,,,,,,4,,,55,64
42960,note_on,55,0,1,,,,,,,,0,,,83,106
43185,note_on,225,0,1,,,,,,,,0,,,83,0
43185,note_on,225,0,6,,,,,,,,5,,,43,0
43185,note_on,225,0,5,,,,,,,,4,,,55,0
43200,note_on,15,0,1,,,,,,,,0,,,81,106
43200,note_on,15,0,6,,,,,,,,5,,,41,64
43200,note_on,15,0,5,,,,,,,,4,,,53,64
43315,note_on,115,0,1,,,,,,,,0,,,81,0
43320,note_on,5,0,1,,,,,,,,0,,,83,106
43425,note_on,225,0,6,,,,,,,,5,,,41,0
43425,note_on,225,0,5,,,,,,,,4,,,53,0
43435,note_on,115,0,1,,,,,,,,0,,,83,0
43440,note_on,5,0,1,,,,,,,,0,,,84,106
43440,note_on,15,0,5,,,,,,,,4,,,57,64
43440,note_on,15,0,6,,,,,,,,5,,,45,64
43555,note_on,115,0,1,,,,,,,,0,,,84,0
43560,note_on,5,0,1,,,,,,,,0,,,86,106
43665,note_on,225,0,6,,,,,,,,5,,,45,0
43665,note_on,225,0,5,,,,,,,,4,,,57,0
43675,note_on,115,0,1,,,,,,,,0,,,86,0
43680,note_on,5,0,1,,,,,,,,0,,,88,106
43680,note_on,15,0,6,,,,,,,,5,,,48,64
43680,note_on,15,0,5,,,,,,,,4,,,60,64
43905,note_on,225,0,1,,,,,,,,0,,,88,0
43905,note_on,225,0,6,,,,,,,,5,,,48,0
43905,note_on,225,0,5,,,,,,,,4,,,60,0
43920,note_on,15,0,5,,,,,,,,4,,,57,64
43920,note_on,15,0,1,,,,,,,,0,,,81,106
43920,note_on,15,0,6,,,,,,,,5,,,45,64
44145,note_on,225,0,1,,,,,,,,0,,,81,0
44145,note_on,225,0,6,,,,,,,,5,,,45,0
44145,note_on,225,0,5,,,,,,,,4,,,57,0
44160,note_on,15,0,5,,,,,,,,4,,,64,64
44160,note_on,15,0,1,,,,,,,,0,,,80,106
44160,note_on,15,0,6,,,,,,,,5,,,52,64
44385,note_on,225,0,6,,,,,,,,5,,,52,0
44385,note_on,225,0,5,,,,,,,,4,,,64,0
44400,note_on,15,0,5,,,,,,,,4,,,62,64
44400,note_on,15,0,6,,,,,,,,5,,,50,64
44625,note_on,225,0,5,,,,,,,,4,,,62,0
44625,note_on,225,0,6,,,,,,,,5,,,50,0
44640,note_on,15,0,5,,,,,,,,4,,,60,64
44640,note_on,15,0,6,,,,,,,,5,,,48,64
44825,note_on,665,0,1,,,,,,,,0,,,80,0
44865,note_on,225,0,5,,,,,,,,4,,,60,0
44865,note_on,225,0,6,,,,,,,,5,,,48,0
44880,note_on,55,0,1,,,,,,,,0,,,81,106
44880,note_on,15,0,5,,,,,,,,4,,,59,64
44880,note_on,15,0,6,,,,,,,,5,,,47,64
45105,note_on,225,0,6,,,,,,,,5,,,47,0
45105,note_on,225,0,1,,,,,,,,0,,,81,0
45105,note_on,225,0,5,,,,,,,,4,,,59,0
45120,note_on,15,0,6,,,,,,,,5,,,50,64
45120,note_on,15,0,1,,,,,,,,0,,,83,106
45120,note_on,15,0,5,,,,,,,,4,,,62,64
45235,note_on,115,0,1,,,,,,,,0,,,83,0
45240,note_on,5,0,1,,,,,,,,0,,,81,106
45345,note_on,225,0,6,,,,,,,,5,,,50,0
45345,note_on,225,0,5,,,,,,,,4,,,62,0
45355,note_on,115,0,1,,,,,,,,0,,,81,0
45360,note_on,15,0,6,,,,,,,,5,,,48,64
45360,note_on,5,0,1,,,,,,,,0,,,88,106
45360,note_on,15,0,5,,,,,,,,4,,,60,64
45475,note_on,115,0,1,,,,,,,,0,,,88,0
45480,note_on,5,0,1,,,,,,,,0,,,81,106
45585,note_on,225,0,6,,,,,,,,5,,,48,0
45585,note_on,225,0,5,,,,,,,,4,,,60,0
45595,note_on,115,0,1,,,,,,,,0,,,81,0
45600,note_on,15,0,6,,,,,,,,5,,,50,64
45600,note_on,15,0,5,,,,,,,,4,,,62,64
45600,note_on,5,0,1,,,,,,,,0,,,83,106
45715,note_on,115,0,1,,,,,,,,0,,,83,0
45720,note_on,5,0,1,,,,,,,,0,,,81,106
45825,note_on,225,0,6,,,,,,,,5,,,50,0
45825,note_on,225,0,5,,,,,,,,4,,,62,0
45835,note_on,115,0,1,,,,,,,,0,,,81,0
45840,note_on,5,0,1,,,,,,,,0,,,88,106
45840,note_on,15,0,5,,,,,,,,4,,,60,64
45840,note_on,15,0,6,,,,,,,,5,,,48,64
45955,note_on,115,0,1,,,,,,,,0,,,88,0
45960,note_on,5,0,1,,,,,,,,0,,,81,106
46065,note_on,225,0,5,,,,,,,,4,,,60,0
46065,note_on,225,0,6,,,,,,,,5,,,48,0
46075,note_on,115,0,1,,,,,,,,0,,,81,0
46080,note_on,5,0,1,,,,,,,,0,,,83,106
46080,note_on,15,0,6,,,,,,,,5,,,50,64
46080,note_on,15,0,5,,,,,,,,4,,,62,64
46195,note_on,115,0,1,,,,,,,,0,,,83,0
46200,note_on,5,0,1,,,,,,,,0,,,81,106
46305,note_on,225,0,5,,,,,,,,4,,,62,0
46305,note_on,225,0,6,,,,,,,,5,,,50,0
46315,note_on,115,0,1,,,,,,,,0,,,81,0
46320,note_on,15,0,5,,,,,,,,4,,,60,64
46320,note_on,15,0,6,,,,,,,,5,,,48,64
46320,note_on,5,0,1,,,,,,,,0,,,88,106
46435,note_on,115,0,1,,,,,,,,0,,,88,0
46440,note_on,5,0,1,,,,,,,,0,,,81,106
46545,note_on,225,0,6,,,,,,,,5,,,48,0
46545,note_on,225,0,5,,,,,,,,4,,,60,0
46555,note_on,115,0,1,,,,,,,,0,,,81,0
46560,note_on,15,0,5,,,,,,,,4,,,62,64
46560,note_on,5,0,1,,,,,,,,0,,,83,106
46560,note_on,15,0,6,,,,,,,,5,,,50,64
46675,note_on,115,0,1,,,,,,,,0,,,83,0
46680,note_on,5,0,1,,,,,,,,0,,,81,106
46785,note_on,225,0,5,,,,,,,,4,,,62,0
46785,note_on,225,0,6,,,,,,,,5,,,50,0
46795,note_on,115,0,1,,,,,,,,0,,,81,0
46800,note_on,5,0,1,,,,,,,,0,,,88,106
46800,note_on,15,0,5,,,,,,,,4,,,60,64
46800,note_on,15,0,6,,,,,,,,5,,,48,64
46915,note_on,115,0,1,,,,,,,,0,,,88,0
46920,note_on,5,0,1,,,,,,,,0,,,81,106
47025,note_on,225,0,5,,,,,,,,4,,,60,0
47025,note_on,225,0,6,,,,,,,,5,,,48,0
47035,note_on,115,0,1,,,,,,,,0,,,81,0
47040,note_on,5,0,1,,,,,,,,0,,,86,106
47040,note_on,15,0,5,,,,,,,,4,,,59,64
47040,note_on,15,0,6,,,,,,,,5,,,47,64
47265,note_on,225,0,5,,,,,,,,4,,,59,0
47265,note_on,225,0,6,,,,,,,,5,,,47,0
47280,note_on,15,0,5,,,,,,,,4,,,57,64
47280,note_on,15,0,6,,,,,,,,5,,,45,64
47505,note_on,225,0,5,,,,,,,,4,,,57,0
47505,note_on,225,0,6,,,,,,,,5,,,45,0
47520,note_on,15,0,6,,,,,,,,5,,,44,64
47520,note_on,15,0,5,,,,,,,,4,,,56,64
47705,note_on,665,0,1,,,,,,,,0,,,86,0
47745,note_on,225,0,5,,,,,,,,4,,,56,0
47745,note_on,225,0,6,,,,,,,,5,,,44,0
47760,note_on,55,0,1,,,,,,,,0,,,84,106
47760,note_on,15,0,5,,,,,,,,4,,,52,64
47760,note_on,15,0,6,,,,,,,,5,,,40,64
47875,note_on,115,0,1,,,,,,,,0,,,84,0
47880,note_on,5,0,1,,,,,,,,0,,,83,106
47985,note_on,225,0,6,,,,,,,,5,,,40,0
47985,note_on,225,0,5,,,,,,,,4,,,52,0
47995,note_on,115,0,1,,,,,,,,0,,,83,0
48000,note_on,5,0,1,,,,,,,,0,,,84,106
48000,note_on,15,0,5,,,,,,,,4,,,57,64
48000,note_on,15,0,6,,,,,,,,5,,,45,64
48225,note_on,225,0,5,,,,,,,,4,,,57,0
48225,note_on,225,0,6,,,,,,,,5,,,45,0
48225,note_on,225,0,1,,,,,,,,0,,,84,0
48240,note_on,15,0,5,,,,,,,,4,,,45,64
48240,note_on,15,0,1,,,,,,,,0,,,83,106
48240,note_on,15,0,6,,,,,,,,5,,,33,64
48355,note_on,115,0,1,,,,,,,,0,,,83,0
48360,note_on,5,0,1,,,,,,,,0,,,81,106
48465,note_on,225,0,5,,,,,,,,4,,,45,0
48465,note_on,225,0,6,,,,,,,,5,,,33,0
48475,note_on,115,0,1,,,,,,,,0,,,81,0
48480,note_on,5,0,1,,,,,,,,0,,,84,106
48480,note_on,15,0,6,,,,,,,,5,,,40,64
48480,note_on,15,0,5,,,,,,,,4,,,52,64
48540,note_on,0,0,1,,,,,,,,0,,,83,106
48540,note_on,60,0,1,,,,,,,,0,,,84,0
48600,note_on,60,0,1,,,,,,,,0,,,83,0
48600,note_on,0,0,1,,,,,,,,0,,,84,106
48660,note_on,60,0,1,,,,,,,,0,,,84,0
48660,note_on,0,0,1,,,,,,,,0,,,83,106
48705,note_on,225,0,5,,,,,,,,4,,,52,0
48705,note_on,225,0,6,,,,,,,,5,,,40,0
48720,note_on,15,0,5,,,,,,,,4,,,36,64
48720,note_on,15,0,6,,,,,,,,5,,,24,64
48945,note_on,225,0,5,,,,,,,,4,,,36,0
48945,note_on,225,0,6,,,,,,,,5,,,24,0
48945,note_on,285,0,1,,,,,,,,0,,,83,0
48960,note_on,11075,0,4,,,,,,,,3,,,72,49
48960,note_on,11075,0,3,,,,,,,,2,,,76,49
48960,note_on,15,0,5,,,,,,,,4,,,57,64
48960,note_on,15,0,6,,,,,,,,5,,,45,64
48960,note_on,11075,0,2,,,,,,,,1,,,81,49
48960,note_on,15,0,1,,,,,,,,0,,,81,106
49185,note_on,225,0,6,,,,,,,,5,,,45,0
49185,note_on,225,0,4,,,,,,,,3,,,72,0
49185,note_on,225,0,2,,,,,,,,1,,,81,0
49185,note_on,225,0,3,,,,,,,,2,,,76,0
49185,note_on,225,0,5,,,,,,,,4,,,57,0
49200,note_on,15,0,6,,,,,,,,5,,,47,64
49200,note_on,15,0,2,,,,,,,,1,,,81,49
49200,note_on,15,0,3,,,,,,,,2,,,76,49
49200,note_on,15,0,4,,,,,,,,3,,,72,49
49200,note_on,15,0,5,,,,,,,,4,,,59,64
49405,note_on,445,0,1,,,,,,,,0,,,81,0
49425,note_on,225,0,6,,,,,,,,5,,,47,0
49425,note_on,225,0,5,,,,,,,,4,,,59,0
49440,note_on,15,0,6,,,,,,,,5,,,48,64
49440,note_on,15,0,5,,,,,,,,4,,,60,64
49645,note_on,445,0,4,,,,,,,,3,,,72,0
49645,note_on,445,0,3,,,,,,,,2,,,76,0
49645,note_on,445,0,2,,,,,,,,1,,,81,0
49665,note_on,225,0,5,,,,,,,,4,,,60,0
49665,note_on,225,0,6,,,,,,,,5,,,48,0
49680,note_on,35,0,4,,,,,,,,3,,,72,49
49680,note_on,35,0,2,,,,,,,,1,,,81,49
49680,note_on,15,0,6,,,,,,,,5,,,45,64
49680,note_on,15,0,5,,,,,,,,4,,,57,64
49680,note_on,275,0,1,,,,,,,,0,,,81,64
49680,note_on,35,0,3,,,,,,,,2,,,76,49
49905,note_on,225,0,1,,,,,,,,0,,,81,0
49905,note_on,225,0,5,,,,,,,,4,,,57,0
49905,note_on,225,0,6,,,,,,,,5,,,45,0
49905,note_on,225,0,4,,,,,,,,3,,,72,0
49905,note_on,225,0,2,,,,,,,,1,,,81,0
49905,note_on,225,0,3,,,,,,,,2,,,76,0
49920,note_on,15,0,6,,,,,,,,5,,,50,49
49920,note_on,15,0,2,,,,,,,,1,,,77,49
49920,note_on,15,0,1,,,,,,,,0,,,83,64
49920,note_on,15,0,4,,,,,,,,3,,,71,49
49920,note_on,15,0,3,,,,,,,,2,,,74,49
49920,note_on,15,0,5,,,,,,,,4,,,62,49
50035,note_on,115,0,1,,,,,,,,0,,,83,0
50040,note_on,5,0,1,,,,,,,,0,,,81,64
50145,note_on,225,0,5,,,,,,,,4,,,62,0
50145,note_on,225,0,6,,,,,,,,5,,,50,0
50155,note_on,115,0,1,,,,,,,,0,,,81,0
50160,note_on,15,0,5,,,,,,,,4,,,60,49
50160,note_on,5,0,1,,,,,,,,0,,,88,64
50160,note_on,15,0,6,,,,,,,,5,,,48,49
50275,note_on,115,0,1,,,,,,,,0,,,88,0
50280,note_on,5,0,1,,,,,,,,0,,,81,64
50365,note_on,445,0,3,,,,,,,,2,,,74,0
50365,note_on,445,0,4,,,,,,,,3,,,71,0
50365,note_on,445,0,2,,,,,,,,1,,,77,0
50385,note_on,225,0,6,,,,,,,,5,,,48,0
50385,note_on,225,0,5,,,,,,,,4,,,60,0
50395,note_on,115,0,1,,,,,,,,0,,,81,0
50400,note_on,15,0,6,,,,,,,,5,,,50,49
50400,note_on,15,0,5,,,,,,,,4,,,62,49
50400,note_on,5,0,1,,,,,,,,0,,,83,64
50515,note_on,115,0,1,,,,,,,,0,,,83,0
50520,note_on,5,0,1,,,,,,,,0,,,81,64
50625,note_on,225,0,6,,,,,,,,5,,,50,0
50625,note_on,225,0,5,,,,,,,,4,,,62,0
50635,note_on,115,0,1,,,,,,,,0,,,81,0
50640,note_on,15,0,5,,,,,,,,4,,,60,49
50640,note_on,5,0,1,,,,,,,,0,,,88,64
50640,note_on,15,0,6,,,,,,,,5,,,48,49
50755,note_on,115,0,1,,,,,,,,0,,,88,0
50760,note_on,5,0,1,,,,,,,,0,,,81,64
50865,note_on,225,0,5,,,,,,,,4,,,60,0
50865,note_on,225,0,6,,,,,,,,5,,,48,0
50875,note_on,115,0,1,,,,,,,,0,,,81,0
50880,note_on,15,0,6,,,,,,,,5,,,50,49
50880,note_on,5,0,1,,,,,,,,0,,,83,64
50880,note_on,15,0,5,,,,,,,,4,,,62,49
50995,note_on,115,0,1,,,,,,,,0,,,83,0
51000,note_on,5,0,1,,,,,,,,0,,,81,64
51105,note_on,225,0,6,,,,,,,,5,,,50,0
51105,note_on,225,0,5,,,,,,,,4,,,62,0
51115,note_on,115,0,1,,,,,,,,0,,,81,0
51120,note_on,15,0,6,,,,,,,,5,,,48,49
51120,note_on,15,0,5,,,,,,,,4,,,60,49
51120,note_on,5,0,1,,,,,,,,0,,,88,64
51235,note_on,115,0,1,,,,,,,,0,,,88,0
51240,note_on,5,0,1,,,,,,,,0,,,81,64
51345,note_on,225,0,5,,,,,,,,4,,,60,0
51345,note_on,225,0,6,,,,,,,,5,,,48,0
51355,note_on,115,0,1,,,,,,,,0,,,81,0
51360,note_on,5,0,1,,,,,,,,0,,,83,64
51360,note_on,15,0,6,,,,,,,,5,,,50,49
51360,note_on,15,0,5,,,,,,,,4,,,62,49
51475,note_on,115,0,1,,,,,,,,0,,,83,0
51480,note_on,5,0,1,,,,,,,,0,,,81,64
51585,note_on,225,0,5,,,,,,,,4,,,62,0
51585,note_on,225,0,6,,,,,,,,5,,,50,0
51595,note_on,115,0,1,,,,,,,,0,,,81,0
51600,note_on,5,0,1,,,,,,,,0,,,88,64
51600,note_on,15,0,5,,,,,,,,4,,,60,49
51600,note_on,15,0,6,,,,,,,,5,,,48,49
51715,note_on,115,0,1,,,,,,,,0,,,88,0
51720,note_on,5,0,1,,,,,,,,0,,,81,64
51825,note_on,225,0,5,,,,,,,,4,,,60,0
51825,note_on,225,0,6,,,,,,,,5,,,48,0
51835,note_on,115,0,1,,,,,,,,0,,,81,0
51840,note_on,15,0,6,,,,,,,,5,,,47,49
51840,note_on,15,0,5,,,,,,,,4,,,59,49
51840,note_on,5,0,1,,,,,,,,0,,,86,64
52065,note_on,225,0,6,,,,,,,,5,,,47,0
52065,note_on,225,0,5,,,,,,,,4,,,59,0
52080,note_on,15,0,6,,,,,,,,5,,,45,49
52080,note_on,15,0,5,,,,,,,,4,,,57,49
52305,note_on,225,0,5,,,,,,,,4,,,57,0
52305,note_on,225,0,6,,,,,,,,5,,,45,0
52320,note_on,15,0,5,,,,,,,,4,,,56,49
52320,note_on,15,0,6,,,,,,,,5,,,44,49
52505,note_on,665,0,1,,,,,,,,0,,,86,0
52545,note_on,225,0,5,,,,,,,,4,,,56,0
52545,note_on,225,0,6,,,,,,,,5,,,44,0
52560,note_on,15,0,5,,,,,,,,4,,,52,49
52560,note_on,15,0,6,,,,,,,,5,,,40,49
52560,note_on,55,0,1,,,,,,,,0,,,84,64
52675,note_on,115,0,1,,,,,,,,0,,,84,0
52680,note_on,5,0,1,,,,,,,,0,,,83,64
52785,note_on,225,0,6,,,,,,,,5,,,40,0
52785,note_on,225,0,5,,,,,,,,4,,,52,0
52795,note_on,115,0,1,,,,,,,,0,,,83,0
52800,note_on,5,0,1,,,,,,,,0,,,84,64
52800,note_on,15,0,5,,,,,,,,4,,,57,49
52800,note_on,15,0,6,,,,,,,,5,,,45,49
53025,note_on,225,0,1,,,,,,,,0,,,84,0
53025,note_on,225,0,5,,,,,,,,4,,,57,0
53025,note_on,225,0,6,,,,,,,,5,,,45,0
53040,note_on,15,0,6,,,,,,,,5,,,33,49
53040,note_on,15,0,1,,,,,,,,0,,,83,64
53040,note_on,15,0,5,,,,,,,,4,,,45,49
53155,note_on,115,0,1,,,,,,,,0,,,83,0
53160,note_on,5,0,1,,,,,,,,0,,,81,64
53265,note_on,225,0,5,,,,,,,,4,,,45,0
53265,note_on,225,0,6,,,,,,,,5,,,33,0
53275,note_on,115,0,1,,,,,,,,0,,,81,0
53280,note_on,15,0,5,,,,,,,,4,,,52,49
53280,note_on,5,0,1,,,,,,,,0,,,84,64
53280,note_on,15,0,6,,,,,,,,5,,,40,49
53340,note_on,0,0,1,,,,,,,,0,,,83,64
53340,note_on,60,0,1,,,,,,,,0,,,84,0
53400,note_on,0,0,1,,,,,,,,0,,,84,64
53400,note_on,60,0,1,,,,,,,,0,,,83,0
53460,note_on,0,0,1,,,,,,,,0,,,83,64
53460,note_on,60,0,1,,,,,,,,0,,,84,0
53505,note_on,225,0,6,,,,,,,,5,,,40,0
53505,note_on,225,0,5,,,,,,,,4,,,52,0
53520,note_on,15,0,5,,,,,,,,4,,,40,49
53520,note_on,15,0,6,,,,,,,,5,,,28,49
53745,note_on,225,0,6,,,,,,,,5,,,28,0
53745,note_on,225,0,5,,,,,,,,4,,,40,0
53745,note_on,285,0,1,,,,,,,,0,,,83,0
53760,note_on,15,0,6,,,,,,,,5,,,33,85
53760,note_on,3395,0,2,,,,,,,,1,,,81,85
53760,note_on,3395,0,4,,,,,,,,3,,,64,85
53760,note_on,3395,0,3,,,,,,,,2,,,69,85
53760,note_on,15,0,5,,,,,,,,4,,,45,85
53760,note_on,15,0,1,,,,,,,,0,,,81,64
54205,note_on,445,0,2,,,,,,,,1,,,81,0
54205,note_on,445,0,3,,,,,,,,2,,,69,0
54205,note_on,445,0,1,,,,,,,,0,,,81,0
54205,note_on,445,0,4,,,,,,,,3,,,64,0
54205,note_on,445,0,6,,,,,,,,5,,,33,0
54205,note_on,445,0,5,,,,,,,,4,,,45,0
54360,note_on,155,0,1,,,,,,,,0,,,72,85
54360,note_on,155,0,2,,,,,,,,1,,,72,85
54360,note_on,155,0,3,,,,,,,,2,,,69,85
54475,note_on,115,0,1,,,,,,,,0,,,72,0
54475,note_on,115,0,2,,,,,,,,1,,,72,0
54475,note_on,115,0,3,,,,,,,,2,,,69,0
54480,note_on,5,0,3,,,,,,,,2,,,68,85
54480,note_on,275,0,5,,,,,,,,4,,,45,85
54480,note_on,5,0,2,,,,,,,,1,,,71,85
54480,note_on,275,0,6,,,,,,,,5,,,33,85
54480,note_on,275,0,4,,,,,,,,3,,,64,85
54480,note_on,5,0,1,,,,,,,,0,,,71,85
54595,note_on,115,0,3,,,,,,,,2,,,68,0
54595,note_on,115,0,2,,,,,,,,1,,,71,0
54595,note_on,115,0,1,,,,,,,,0,,,71,0
54600,note_on,5,0,3,,,,,,,,2,,,69,85
54600,note_on,5,0,2,,,,,,,,1,,,72,85
54600,note_on,5,0,1,,,,,,,,0,,,72,85
54705,note_on,225,0,4,,,,,,,,3,,,64,0
54705,note_on,225,0,6,,,,,,,,5,,,33,0
54705,note_on,225,0,5,,,,,,,,4,,,45,0
54715,note_on,115,0,3,,,,,,,,2,,,69,0
54715,note_on,115,0,1,,,,,,,,0,,,72,0
54715,note_on,115,0,2,,,,,,,,1,,,72,0
54720,note_on,15,0,6,,,,,,,,5,,,33,85
54720,note_on,5,0,1,,,,,,,,0,,,76,85
54720,note_on,5,0,2,,,,,,,,1,,,76,85
54720,note_on,5,0,3,,,,,,,,2,,,72,85
54720,note_on,15,0,4,,,,,,,,3,,,57,85
54720,note_on,15,0,5,,,,,,,,4,,,45,85
54945,note_on,225,0,4,,,,,,,,3,,,57,0
54945,note_on,225,0,5,,,,,,,,4,,,45,0
54945,note_on,225,0,2,,,,,,,,1,,,76,0
54945,note_on,225,0,1,,,,,,,,0,,,76,0
54945,note_on,225,0,3,,,,,,,,2,,,72,0
54945,note_on,225,0,6,,,,,,,,5,,,33,0
54960,note_on,15,0,5,,,,,,,,4,,,47,85
54960,note_on,15,0,4,,,,,,,,3,,,59,85
54960,note_on,15,0,3,,,,,,,,2,,,72,85
54960,note_on,15,0,1,,,,,,,,0,,,76,85
54960,note_on,15,0,6,,,,,,,,5,,,35,85
54960,note_on,15,0,2,,,,,,,,1,,,76,85
55185,note_on,225,0,4,,,,,,,,3,,,59,0
55185,note_on,225,0,3,,,,,,,,2,,,72,0
55185,note_on,225,0,5,,,,,,,,4,,,47,0
55185,note_on,225,0,6,,,,,,,,5,,,35,0
55185,note_on,225,0,2,,,,,,,,1,,,76,0
55185,note_on,225,0,1,,,,,,,,0,,,76,0
55200,note_on,15,0,3,,,,,,,,2,,,72,85
55200,note_on,15,0,5,,,,,,,,4,,,48,85
55200,note_on,15,0,6,,,,,,,,5,,,36,85
55200,note_on,15,0,4,,,,,,,,3,,,60,85
55200,note_on,15,0,2,,,,,,,,1,,,76,85
55200,note_on,15,0,1,,,,,,,,0,,,76,85
55425,note_on,225,0,1,,,,,,,,0,,,76,0
55425,note_on,225,0,6,,,,,,,,5,,,36,0
55425,note_on,225,0,4,,,,,,,,3,,,60,0
55425,note_on,225,0,2,,,,,,,,1,,,76,0
55425,note_on,225,0,5,,,,,,,,4,,,48,0
55425,note_on,225,0,3,,,,,,,,2,,,72,0
55440,note_on,15,0,4,,,,,,,,3,,,59,85
55440,note_on,15,0,6,,,,,,,,5,,,35,85
55440,note_on,15,0,1,,,,,,,,0,,,76,85
55440,note_on,15,0,2,,,,,,,,1,,,76,85
55440,note_on,15,0,5,,,,,,,,4,,,47,85
55440,note_on,15,0,3,,,,,,,,2,,,72,85
55665,note_on,225,0,6,,,,,,,,5,,,35,0
55665,note_on,225,0,2,,,,,,,,1,,,76,0
55665,note_on,225,0,1,,,,,,,,0,,,76,0
55665,note_on,225,0,3,,,,,,,,2,,,72,0
55665,note_on,225,0,4,,,,,,,,3,,,59,0
55665,note_on,225,0,5,,,,,,,,4,,,47,0
55680,note_on,15,0,6,,,,,,,,5,,,33,101
55680,note_on,15,0,4,,,,,,,,3,,,57,101
55680,note_on,15,0,2,,,,,,,,1,,,77,101
55680,note_on,15,0,1,,,,,,,,0,,,77,101
55680,note_on,15,0,5,,,,,,,,4,,,45,101
55680,note_on,15,0,3,,,,,,,,2,,,74,101
55920,note_on,0,0,1,,,,,,,,0,,,76,85
55920,note_on,240,0,1,,,,,,,,0,,,77,0
55920,note_on,0,0,6,,,,,,,,5,,,35,85
55920,note_on,240,0,3,,,,,,,,2,,,74,0
55920,note_on,240,0,4,,,,,,,,3,,,57,0
55920,note_on,0,0,4,,,,,,,,3,,,59,85
55920,note_on,0,0,5,,,,,,,,4,,,47,85
55920,note_on,240,0,5,,,,,,,,4,,,45,0
55920,note_on,0,0,2,,,,,,,,1,,,76,85
55920,note_on,240,0,2,,,,,,,,1,,,77,0
55920,note_on,240,0,6,,,,,,,,5,,,33,0
55920,note_on,0,0,3,,,,,,,,2,,,72,85
56145,note_on,225,0,5,,,,,,,,4,,,47,0
56145,note_on,225,0,4,,,,,,,,3,,,59,0
56145,note_on,225,0,6,,,,,,,,5,,,35,0
56160,note_on,15,0,4,,,,,,,,3,,,60,85
56160,note_on,15,0,5,,,,,,,,4,,,48,85
56160,note_on,15,0,6,,,,,,,,5,,,36,85
56365,note_on,445,0,3,,,,,,,,2,,,72,0
56365,note_on,445,0,1,,,,,,,,0,,,76,0
56365,note_on,445,0,2,,,,,,,,1,,,76,0
56385,note_on,225,0,5,,,,,,,,4,,,48,0
56385,note_on,225,0,6,,,,,,,,5,,,36,0
56385,note_on,225,0,4,,,,,,,,3,,,60,0
56400,note_on,15,0,4,,,,,,,,3,,,59,85
56400,note_on,15,0,6,,,,,,,,5,,,35,85
56400,note_on,35,0,2,,,,,,,,1,,,69,85
56400,note_on,35,0,3,,,,,,,,2,,,72,85
56400,note_on,15,0,5,,,,,,,,4,,,47,85
56400,note_on,35,0,1,,,,,,,,0,,,69,85
56625,note_on,225,0,5,,,,,,,,4,,,47,0
56625,note_on,225,0,6,,,,,,,,5,,,35,0
56625,note_on,225,0,3,,,,,,,,2,,,72,0
56625,note_on,225,0,2,,,,,,,,1,,,69,0
56625,note_on,225,0,4,,,,,,,,3,,,59,0
56625,note_on,225,0,1,,,,,,,,0,,,69,0
56640,note_on,15,0,1,,,,,,,,0,,,77,101
56640,note_on,15,0,5,,,,,,,,4,,,45,101
56640,note_on,15,0,2,,,,,,,,1,,,77,101
56640,note_on,15,0,4,,,,,,,,3,,,57,101
56640,note_on,15,0,3,,,,,,,,2,,,74,101
56640,note_on,15,0,6,,,,,,,,5,,,33,101
56880,note_on,240,0,2,,,,,,,,1,,,77,0
56880,note_on,0,0,3,,,,,,,,2,,,72,85
56880,note_on,240,0,3,,,,,,,,2,,,74,0
56880,note_on,240,0,4,,,,,,,,3,,,57,0
56880,note_on,0,0,5,,,,,,,,4,,,47,85
56880,note_on,240,0,6,,,,,,,,5,,,33,0
56880,note_on,0,0,6,,,,,,,,5,,,35,85
56880,note_on,240,0,5,,,,,,,,4,,,45,0
56880,note_on,240,0,1,,,,,,,,0,,,77,0
56880,note_on,0,0,1,,,,,,,,0,,,76,85
56880,note_on,0,0,2,,,,,,,,1,,,76,85
56880,note_on,0,0,4,,,,,,,,3,,,59,85
57105,note_on,225,0,4,,,,,,,,3,,,59,0
57105,note_on,225,0,5,,,,,,,,4,,,47,0
57105,note_on,225,0,6,,,,,,,,5,,,35,0
57120,note_on,15,0,4,,,,,,,,3,,,60,85
57120,note_on,15,0,5,,,,,,,,4,,,48,85
57120,note_on,15,0,6,,,,,,,,5,,,36,85
57325,note_on,445,0,3,,,,,,,,2,,,72,0
57325,note_on,445,0,1,,,,,,,,0,,,76,0
57325,note_on,445,0,2,,,,,,,,1,,,76,0
57345,note_on,225,0,4,,,,,,,,3,,,60,0
57345,note_on,225,0,5,,,,,,,,4,,,48,0
57345,note_on,225,0,6,,,,,,,,5,,,36,0
57360,note_on,15,0,6,,,,,,,,5,,,33,85
57360,note_on,35,0,2,,,,,,,,1,,,69,85
57360,note_on,35,0,1,,,,,,,,0,,,69,85
57360,note_on,15,0,4,,,,,,,,3,,,57,85
57360,note_on,35,0,3,,,,,,,,2,,,72,85
57360,note_on,15,0,5,,,,,,,,4,,,45,85
57585,note_on,225,0,6,,,,,,,,5,,,33,0
57585,note_on,225,0,1,,,,,,,,0,,,69,0
57585,note_on,225,0,2,,,,,,,,1,,,69,0
57585,note_on,225,0,5,,,,,,,,4,,,45,0
57585,note_on,225,0,3,,,,,,,,2,,,72,0
57585,note_on,225,0,4,,,,,,,,3,,,57,0
57600,note_on,15,0,1,,,,,,,,0,,,77,85
57600,note_on,15,0,2,,,,,,,,1,,,77,85
57600,note_on,15,0,3,,,,,,,,2,,,74,85
57600,note_on,15,0,6,,,,,,,,5,,,38,85
57600,note_on,15,0,5,,,,,,,,4,,,50,85
57600,note_on,15,0,4,,,,,,,,3,,,62,85
57715,note_on,115,0,2,,,,,,,,1,,,77,0
57715,note_on,115,0,1,,,,,,,,0,,,77,0
57715,note_on,115,0,3,,,,,,,,2,,,74,0
57720,note_on,5,0,2,,,,,,,,1,,,79,85
57720,note_on,5,0,3,,,,,,,,2,,,76,85
57720,note_on,5,0,1,,,,,,,,0,,,79,85
57835,note_on,115,0,3,,,,,,,,2,,,76,0
57835,note_on,115,0,1,,,,,,,,0,,,79,0
57835,note_on,115,0,2,,,,,,,,1,,,79,0
57840,note_on,5,0,3,,,,,,,,2,,,72,85
57840,note_on,5,0,1,,,,,,,,0,,,76,85
57840,note_on,5,0,2,,,,,,,,1,,,76,85
57955,note_on,115,0,3,,,,,,,,2,,,72,0
57955,note_on,115,0,1,,,,,,,,0,,,76,0
57955,note_on,115,0,2,,,,,,,,1,,,76,0
57960,note_on,5,0,1,,,,,,,,0,,,77,85
57960,note_on,5,0,3,,,,,,,,2,,,74,85
57960,note_on,5,0,2,,,,,,,,1,,,77,85
58075,note_on,115,0,2,,,,,,,,1,,,77,0
58075,note_on,115,0,1,,,,,,,,0,,,77,0
58075,note_on,115,0,3,,,,,,,,2,,,74,0
58080,note_on,5,0,1,,,,,,,,0,,,74,85
58080,note_on,5,0,3,,,,,,,,2,,,71,85
58080,note_on,5,0,2,,,,,,,,1,,,74,85
58195,note_on,115,0,1,,,,,,,,0,,,74,0
58195,note_on,115,0,3,,,,,,,,2,,,71,0
58195,note_on,115,0,2,,,,,,,,1,,,74,0
58200,note_on,5,0,1,,,,,,,,0,,,76,85
58200,note_on,5,0,2,,,,,,,,1,,,76,85
58200,note_on,5,0,3,,,,,,,,2,,,72,85
58265,note_on,665,0,6,,,,,,,,5,,,38,0
58265,note_on,665,0,5,,,,,,,,4,,,50,0
58265,note_on,665,0,4,,,,,,,,3,,,62,0
58315,note_on,115,0,2,,,,,,,,1,,,76,0
58315,note_on,115,0,1,,,,,,,,0,,,76,0
58315,note_on,115,0,3,,,,,,,,2,,,72,0
58320,note_on,5,0,3,,,,,,,,2,,,69,85
58320,note_on,5,0,2,,,,,,,,1,,,72,85
58320,note_on,55,0,6,,,,,,,,5,,,39,85
58320,note_on,5,0,1,,,,,,,,0,,,72,85
58320,note_on,55,0,5,,,,,,,,4,,,51,85
58320,note_on,55,0,4,,,,,,,,3,,,63,85
58435,note_on,115,0,2,,,,,,,,1,,,72,0
58435,note_on,115,0,1,,,,,,,,0,,,72,0
58435,note_on,115,0,3,,,,,,,,2,,,69,0
58440,note_on,5,0,2,,,,,,,,1,,,74,85
58440,note_on,5,0,1,,,,,,,,0,,,74,85
58440,note_on,5,0,3,,,,,,,,2,,,71,85
58545,note_on,225,0,6,,,,,,,,5,,,39,0
58545,note_on,225,0,5,,,,,,,,4,,,51,0
58545,note_on,225,0,4,,,,,,,,3,,,63,0
58555,note_on,115,0,3,,,,,,,,2,,,71,0
58555,note_on,115,0,1,,,,,,,,0,,,74,0
58555,note_on,115,0,2,,,,,,,,1,,,74,0
58560,note_on,15,0,6,,,,,,,,5,,,40,85
58560,note_on,5,0,3,,,,,,,,2,,,68,85
58560,note_on,5,0,2,,,,,,,,1,,,71,85
58560,note_on,15,0,4,,,,,,,,3,,,64,85
58560,note_on,5,0,1,,,,,,,,0,,,71,85
58560,note_on,15,0,5,,,,,,,,4,,,52,85
58785,note_on,225,0,5,,,,,,,,4,,,52,0
58785,note_on,225,0,2,,,,,,,,1,,,71,0
58785,note_on,225,0,6,,,,,,,,5,,,40,0
58785,note_on,225,0,4,,,,,,,,3,,,64,0
58785,note_on,225,0,3,,,,,,,,2,,,68,0
58785,note_on,225,0,1,,,,,,,,0,,,71,0
58800,note_on,15,0,5,,,,,,,,4,,,54,85
58800,note_on,15,0,1,,,,,,,,0,,,64,85
58800,note_on,15,0,4,,,,,,,,3,,,66,85
58800,note_on,15,0,2,,,,,,,,1,,,64,85
58800,note_on,15,0,3,,,,,,,,2,,,68,85
58800,note_on,15,0,6,,,,,,,,5,,,42,85
59025,note_on,225,0,5,,,,,,,,4,,,54,0
59025,note_on,225,0,6,,,,,,,,5,,,42,0
59025,note_on,225,0,4,,,,,,,,3,,,66,0
59040,note_on,15,0,4,,,,,,,,3,,,68,85
59040,note_on,15,0,6,,,,,,,,5,,,44,85
59040,note_on,15,0,5,,,,,,,,4,,,56,85
59245,note_on,445,0,3,,,,,,,,2,,,68,0
59245,note_on,445,0,1,,,,,,,,0,,,64,0
59245,note_on,445,0,2,,,,,,,,1,,,64,0
59265,note_on,225,0,5,,,,,,,,4,,,56,0
59265,note_on,225,0,4,,,,,,,,3,,,68,0
59265,note_on,225,0,6,,,,,,,,5,,,44,0
59280,note_on,35,0,1,,,,,,,,0,,,71,85
59280,note_on,15,0,4,,,,,,,,3,,,66,85
59280,note_on,15,0,5,,,,,,,,4,,,54,85
59280,note_on,35,0,2,,,,,,,,1,,,71,85
59280,note_on,35,0,3,,,,,,,,2,,,68,85
59280,note_on,15,0,6,,,,,,,,5,,,42,85
59505,note_on,225,0,1,,,,,,,,0,,,71,0
59505,note_on,225,0,5,,,,,,,,4,,,54,0
59505,note_on,225,0,4,,,,,,,,3,,,66,0
59505,note_on,225,0,2,,,,,,,,1,,,71,0
59505,note_on,225,0,6,,,,,,,,5,,,42,0
59505,note_on,225,0,3,,,,,,,,2,,,68,0
59520,note_on,15,0,1,,,,,,,,0,,,72,85
59520,note_on,15,0,5,,,,,,,,4,,,52,85
59520,note_on,15,0,6,,,,,,,,5,,,40,85
59520,note_on,15,0,4,,,,,,,,3,,,64,85
59520,note_on,15,0,2,,,,,,,,1,,,72,85
59520,note_on,15,0,3,,,,,,,,2,,,69,85
59745,note_on,225,0,6,,,,,,,,5,,,40,0
59745,note_on,225,0,5,,,,,,,,4,,,52,0
59745,note_on,225,0,3,,,,,,,,2,,,69,0
59745,note_on,225,0,1,,,,,,,,0,,,72,0
59745,note_on,225,0,4,,,,,,,,3,,,64,0
59745,note_on,225,0,2,,,,,,,,1,,,72,0
59760,note_on,15,0,6,,,,,,,,5,,,42,85
59760,note_on,15,0,5,,,,,,,,4,,,54,85
59760,note_on,15,0,2,,,,,,,,1,,,71,85
59760,note_on,15,0,3,,,,,,,,2,,,68,85
59760,note_on,15,0,1,,,,,,,,0,,,71,85
59760,note_on,15,0,4,,,,,,,,3,,,66,85
59985,note_on,225,0,6,,,,,,,,5,,,42,0
59985,note_on,225,0,4,,,,,,,,3,,,66,0
59985,note_on,225,0,5,,,,,,,,4,,,54,0
60000,note_on,15,0,4,,,,,,,,3,,,68,85
60000,note_on,15,0,6,,,,,,,,5,,,44,85
60000,note_on,15,0,5,,,,,,,,4,,,56,85
60205,note_on,445,0,2,,,,,,,,1,,,71,0
60205,note_on,445,0,3,,,,,,,,2,,,68,0
60205,note_on,445,0,1,,,,,,,,0,,,71,0
60225,note_on,225,0,5,,,,,,,,4,,,56,0
60225,note_on,225,0,4,,,,,,,,3,,,68,0
60225,note_on,225,0,6,,,,,,,,5,,,44,0
60240,note_on,15,0,5,,,,,,,,4,,,54,85
60240,note_on,35,0,3,,,,,,,,2,,,68,85
60240,note_on,35,0,2,,,,,,,,1,,,64,85
60240,note_on,35,0,1,,,,,,,,0,,,64,85
60240,note_on,15,0,6,,,,,,,,5,,,42,85
60240,note_on,15,0,4,,,,,,,,3,,,66,85
60465,note_on,225,0,2,,,,,,,,1,,,64,0
60465,note_on,225,0,5,,,,,,,,4,,,54,0
60465,note_on,225,0,4,,,,,,,,3,,,66,0
60465,note_on,225,0,1,,,,,,,,0,,,64,0
60465,note_on,225,0,3,,,,,,,,2,,,68,0
60465,note_on,225,0,6,,,,,,,,5,,,42,0
60480,note_on,15,0,2,,,,,,,,1,,,72,101
60480,note_on,15,0,6,,,,,,,,5,,,40,101
60480,note_on,15,0,1,,,,,,,,0,,,72,101
60480,note_on,15,0,4,,,,,,,,3,,,64,101
60480,note_on,15,0,3,,,,,,,,2,,,69,101
60480,note_on,15,0,5,,,,,,,,4,,,52,101
60720,note_on,240,0,3,,,,,,,,2,,,69,0
60720,note_on,240,0,2,,,,,,,,1,,,72,0
60720,note_on,0,0,4,,,,,,,,3,,,66,85
60720,note_on,0,0,5,,,,,,,,4,,,54,85
60720,note_on,0,0,2,,,,,,,,1,,,71,85
60720,note_on,0,0,3,,,,,,,,2,,,68,85
60720,note_on,240,0,5,,,,,,,,4,,,52,0
60720,note_on,240,0,4,,,,,,,,3,,,64,0
60720,note_on,0,0,6,,,,,,,,5,,,42,85
60720,note_on,240,0,1,,,,,,,,0,,,72,0
60720,note_on,240,0,6,,,,,,,,5,,,40,0
60720,note_on,0,0,1,,,,,,,,0,,,71,85
60945,note_on,225,0,4,,,,,,,,3,,,66,0
60945,note_on,225,0,5,,,,,,,,4,,,54,0
60945,note_on,225,0,6,,,,,,,,5,,,42,0
60960,note_on,15,0,4,,,,,,,,3,,,68,85
60960,note_on,15,0,5,,,,,,,,4,,,56,85
60960,note_on,15,0,6,,,,,,,,5,,,44,85
61165,note_on,445,0,2,,,,,,,,1,,,71,0
61165,note_on,445,0,3,,,,,,,,2,,,68,0
61165,note_on,445,0,1,,,,,,,,0,,,71,0
61185,note_on,225,0,5,,,,,,,,4,,,56,0
61185,note_on,225,0,6,,,,,,,,5,,,44,0
61185,note_on,225,0,4,,,,,,,,3,,,68,0
61200,note_on,15,0,5,,,,,,,,4,,,54,85
61200,note_on,15,0,6,,,,,,,,5,,,42,85
61200,note_on,35,0,2,,,,,,,,1,,,64,85
61200,note_on,35,0,1,,,,,,,,0,,,64,85
61200,note_on,15,0,4,,,,,,,,3,,,66,85
61200,note_on,35,0,3,,,,,,,,2,,,68,85
61425,note_on,225,0,3,,,,,,,,2,,,68,0
61425,note_on,225,0,5,,,,,,,,4,,,54,0
61425,note_on,225,0,6,,,,,,,,5,,,42,0
61425,note_on,225,0,4,,,,,,,,3,,,66,0
61425,note_on,225,0,2,,,,,,,,1,,,64,0
61425,note_on,225,0,1,,,,,,,,0,,,64,0
61440,note_on,15,0,4,,,,,,,,3,,,64,85
61440,note_on,15,0,5,,,,,,,,4,,,52,85
61440,note_on,15,0,2,,,,,,,,1,,,64,85
61440,note_on,15,0,3,,,,,,,,2,,,68,85
61440,note_on,15,0,1,,,,,,,,0,,,64,85
61440,note_on,15,0,6,,,,,,,,5,,,40,85
61555,note_on,115,0,1,,,,,,,,0,,,64,0
61555,note_on,115,0,2,,,,,,,,1,,,64,0
61555,note_on,115,0,3,,,,,,,,2,,,68,0
61560,note_on,5,0,1,,,,,,,,0,,,66,85
61560,note_on,5,0,2,,,,,,,,1,,,66,85
61560,note_on,5,0,3,,,,,,,,2,,,69,85
61665,note_on,225,0,6,,,,,,,,5,,,40,0
61665,note_on,225,0,4,,,,,,,,3,,,64,0
61665,note_on,225,0,5,,,,,,,,4,,,52,0
61675,note_on,115,0,2,,,,,,,,1,,,66,0
61675,note_on,115,0,3,,,,,,,,2,,,69,0
61675,note_on,115,0,1,,,,,,,,0,,,66,0
61680,note_on,5,0,2,,,,,,,,1,,,68,85
61680,note_on,5,0,1,,,,,,,,0,,,68,85
61680,note_on,15,0,5,,,,,,,,4,,,47,85
61680,note_on,15,0,6,,,,,,,,5,,,35,85
61680,note_on,5,0,3,,,,,,,,2,,,71,85
61680,note_on,15,0,4,,,,,,,,3,,,59,85
61795,note_on,115,0,1,,,,,,,,0,,,68,0
61795,note_on,115,0,3,,,,,,,,2,,,71,0
61795,note_on,115,0,2,,,,,,,,1,,,68,0
61800,note_on,5,0,1,,,,,,,,0,,,69,85
61800,note_on,5,0,3,,,,,,,,2,,,72,85
61800,note_on,5,0,2,,,,,,,,1,,,69,85
61905,note_on,225,0,4,,,,,,,,3,,,59,0
61905,note_on,225,0,5,,,,,,,,4,,,47,0
61905,note_on,225,0,6,,,,,,,,5,,,35,0
61915,note_on,115,0,1,,,,,,,,0,,,69,0
61915,note_on,115,0,2,,,,,,,,1,,,69,0
61915,note_on,115,0,3,,,,,,,,2,,,72,0
61920,note_on,5,0,2,,,,,,,,1,,,71,85
61920,note_on,5,0,3,,,,,,,,2,,,74,85
61920,note_on,5,0,1,,,,,,,,0,,,71,85
61920,note_on,15,0,6,,,,,,,,5,,,32,85
61920,note_on,15,0,5,,,,,,,,4,,,44,85
61920,note_on,15,0,4,,,,,,,,3,,,56,85
62035,note_on,115,0,3,,,,,,,,2,,,74,0
62035,note_on,115,0,1,,,,,,,,0,,,71,0
62035,note_on,115,0,2,,,,,,,,1,,,71,0
62040,note_on,5,0,1,,,,,,,,0,,,72,85
62040,note_on,5,0,2,,,,,,,,1,,,72,85
62040,note_on,5,0,3,,,,,,,,2,,,76,85
62145,note_on,225,0,6,,,,,,,,5,,,32,0
62145,note_on,225,0,4,,,,,,,,3,,,56,0
62145,note_on,225,0,5,,,,,,,,4,,,44,0
62155,note_on,115,0,3,,,,,,,,2,,,76,0
62155,note_on,115,0,1,,,,,,,,0,,,72,0
62155,note_on,115,0,2,,,,,,,,1,,,72,0
62160,note_on,15,0,6,,,,,,,,5,,,28,85
62160,note_on,15,0,4,,,,,,,,3,,,52,85
62160,note_on,5,0,2,,,,,,,,1,,,74,85
62160,note_on,5,0,3,,,,,,,,2,,,78,85
62160,note_on,5,0,1,,,,,,,,0,,,74,85
62160,note_on,15,0,5,,,,,,,,4,,,40,85
62275,note_on,115,0,1,,,,,,,,0,,,74,0
62275,note_on,115,0,3,,,,,,,,2,,,78,0
62275,note_on,115,0,2,,,,,,,,1,,,74,0
62280,note_on,5,0,2,,,,,,,,1,,,76,85
62280,note_on,5,0,3,,,,,,,,2,,,80,85
62280,note_on,5,0,1,,,,,,,,0,,,76,85
62385,note_on,225,0,5,,,,,,,,4,,,40,0
62385,note_on,225,0,6,,,,,,,,5,,,28,0
62385,note_on,225,0,4,,,,,,,,3,,,52,0
62395,note_on,115,0,1,,,,,,,,0,,,76,0
62395,note_on,115,0,3,,,,,,,,2,,,80,0
62395,note_on,115,0,2,,,,,,,,1,,,76,0
62400,note_on,15,0,6,,,,,,,,5,,,33,85
62400,note_on,15,0,4,,,,,,,,3,,,57,85
62400,note_on,5,0,2,,,,,,,,1,,,72,85
62400,note_on,5,0,1,,,,,,,,0,,,72,85
62400,note_on,5,0,3,,,,,,,,2,,,76,85
62400,note_on,15,0,5,,,,,,,,4,,,45,85
62625,note_on,225,0,3,,,,,,,,2,,,76,0
62625,note_on,225,0,6,,,,,,,,5,,,33,0
62625,note_on,225,0,4,,,,,,,,3,,,57,0
62625,note_on,225,0,5,,,,,,,,4,,,45,0
62625,note_on,225,0,2,,,,,,,,1,,,72,0
62625,note_on,225,0,1,,,,,,,,0,,,72,0
62640,note_on,15,0,3,,,,,,,,2,,,76,85
62640,note_on,15,0,1,,,,,,,,0,,,81,85
62640,note_on,15,0,6,,,,,,,,5,,,35,85
62640,note_on,15,0,5,,,,,,,,4,,,47,85
62640,note_on,15,0,2,,,,,,,,1,,,81,85
62640,note_on,15,0,4,,,,,,,,3,,,59,85
62865,note_on,225,0,6,,,,,,,,5,,,35,0
62865,note_on,225,0,5,,,,,,,,4,,,47,0
62865,note_on,225,0,4,,,,,,,,3,,,59,0
62880,note_on,15,0,6,,,,,,,,5,,,36,85
62880,note_on,15,0,4,,,,,,,,3,,,60,85
62880,note_on,15,0,5,,,,,,,,4,,,48,85
63085,note_on,445,0,3,,,,,,,,2,,,76,0
63085,note_on,445,0,1,,,,,,,,0,,,81,0
63085,note_on,445,0,2,,,,,,,,1,,,81,0
63105,note_on,225,0,6,,,,,,,,5,,,36,0
63105,note_on,225,0,5,,,,,,,,4,,,48,0
63105,note_on,225,0,4,,,,,,,,3,,,60,0
63120,note_on,35,0,1,,,,,,,,0,,,76,85
63120,note_on,15,0,6,,,,,,,,5,,,35,85
63120,note_on,35,0,2,,,,,,,,1,,,76,85
63120,note_on,15,0,5,,,,,,,,4,,,47,85
63120,note_on,35,0,3,,,,,,,,2,,,72,85
63120,note_on,15,0,4,,,,,,,,3,,,59,85
63345,note_on,225,0,1,,,,,,,,0,,,76,0
63345,note_on,225,0,4,,,,,,,,3,,,59,0
63345,note_on,225,0,6,,,,,,,,5,,,35,0
63345,note_on,225,0,3,,,,,,,,2,,,72,0
63345,note_on,225,0,5,,,,,,,,4,,,47,0
63345,note_on,225,0,2,,,,,,,,1,,,76,0
63360,note_on,15,0,2,,,,,,,,1,,,81,101
63360,note_on,15,0,6,,,,,,,,5,,,33,101
63360,note_on,15,0,3,,,,,,,,2,,,76,101
63360,note_on,15,0,1,,,,,,,,0,,,81,101
63360,note_on,15,0,4,,,,,,,,3,,,60,101
63360,note_on,15,0,5,,,,,,,,4,,,45,101
63600,note_on,240,0,3,,,,,,,,2,,,76,0
63600,note_on,240,0,6,,,,,,,,5,,,33,0
63600,note_on,0,0,6,,,,,,,,5,,,38,85
63600,note_on,240,0,1,,,,,,,,0,,,81,0
63600,note_on,0,0,4,,,,,,,,3,,,57,85
63600,note_on,0,0,3,,,,,,,,2,,,60,85
63600,note_on,240,0,4,,,,,,,,3,,,60,0
63600,note_on,0,0,5,,,,,,,,4,,,50,85
63600,note_on,240,0,5,,,,,,,,4,,,45,0
63600,note_on,0,0,1,,,,,,,,0,,,69,85
63600,note_on,240,0,2,,,,,,,,1,,,81,0
63600,note_on,0,0,2,,,,,,,,1,,,69,85
63825,note_on,225,0,2,,,,,,,,1,,,69,0
63825,note_on,225,0,4,,,,,,,,3,,,57,0
63825,note_on,225,0,3,,,,,,,,2,,,60,0
63825,note_on,225,0,1,,,,,,,,0,,,69,0
63825,note_on,225,0,6,,,,,,,,5,,,38,0
63825,note_on,225,0,5,,,,,,,,4,,,50,0
63840,note_on,15,0,6,,,,,,,,5,,,40,85
63840,note_on,15,0,3,,,,,,,,2,,,59,85
63840,note_on,15,0,4,,,,,,,,3,,,52,85
63840,note_on,15,0,5,,,,,,,,4,,,52,85
63840,note_on,15,0,2,,,,,,,,1,,,68,85
63840,note_on,15,0,1,,,,,,,,0,,,68,85
64065,note_on,225,0,3,,,,,,,,2,,,59,0
64065,note_on,225,0,1,,,,,,,,0,,,68,0
64065,note_on,225,0,6,,,,,,,,5,,,40,0
64065,note_on,225,0,5,,,,,,,,4,,,52,0
64065,note_on,225,0,2,,,,,,,,1,,,68,0
64065,note_on,225,0,4,,,,,,,,3,,,52,0
64080,note_on,15,0,3,,,,,,,,2,,,56,85
64080,note_on,15,0,4,,,,,,,,3,,,52,85
64080,note_on,15,0,6,,,,,,,,5,,,28,85
64080,note_on,15,0,1,,,,,,,,0,,,59,85
64080,note_on,15,0,5,,,,,,,,4,,,40,85
64080,note_on,15,0,2,,,,,,,,1,,,59,85
64305,note_on,225,0,3,,,,,,,,2,,,56,0
64305,note_on,225,0,4,,,,,,,,3,,,52,0
64305,note_on,225,0,2,,,,,,,,1,,,59,0
64305,note_on,225,0,6,,,,,,,,5,,,28,0
64305,note_on,225,0,5,,,,,,,,4,,,40,0
64305,note_on,225,0,1,,,,,,,,0,,,59,0
64320,note_on,15,0,3,,,,,,,,2,,,57,101
64320,note_on,15,0,2,,,,,,,,1,,,60,101
64320,note_on,15,0,6,,,,,,,,5,,,33,101
64320,note_on,15,0,5,,,,,,,,4,,,45,101
64320,note_on,15,0,1,,,,,,,,0,,,60,101
64320,note_on,15,0,4,,,,,,,,3,,,52,101
64560,note_on,240,0,4,,,,,,,,3,,,52,0
64560,note_on,0,0,4,,,,,,,,3,,,52,85
64560,note_on,0,0,2,,,,,,,,1,,,60,85
64560,note_on,240,0,2,,,,,,,,1,,,60,0
64560,note_on,240,0,6,,,,,,,,5,,,33,0
64560,note_on,240,0,5,,,,,,,,4,,,45,0
64560,note_on,240,0,3,,,,,,,,2,,,57,0
64560,note_on,0,0,3,,,,,,,,2,,,57,85
64560,note_on,0,0,1,,,,,,,,0,,,60,85
64560,note_on,0,0,5,,,,,,,,4,,,47,85
64560,note_on,0,0,6,,,,,,,,5,,,35,85
64560,note_on,240,0,1,,,,,,,,0,,,60,0
64785,note_on,225,0,5,,,,,,,,4,,,47,0
64785,note_on,225,0,6,,,,,,,,5,,,35,0
64800,note_on,15,0,6,,,,,,,,5,,,36,85
64800,note_on,15,0,5,,,,,,,,4,,,48,85
65005,note_on,445,0,4,,,,,,,,3,,,52,0
65005,note_on,445,0,1,,,,,,,,0,,,60,0
65005,note_on,445,0,3,,,,,,,,2,,,57,0
65005,note_on,445,0,2,,,,,,,,1,,,60,0
65025,note_on,225,0,6,,,,,,,,5,,,36,0
65025,note_on,225,0,5,,,,,,,,4,,,48,0
65040,note_on,35,0,4,,,,,,,,3,,,52,85
65040,note_on,15,0,5,,,,,,,,4,,,47,85
65040,note_on,35,0,1,,,,,,,,0,,,64,85
65040,note_on,15,0,6,,,,,,,,5,,,35,85
65040,note_on,35,0,2,,,,,,,,1,,,64,85
65040,note_on,35,0,3,,,,,,,,2,,,60,85
65265,note_on,225,0,6,,,,,,,,5,,,35,0
65265,note_on,225,0,4,,,,,,,,3,,,52,0
65265,note_on,225,0,2,,,,,,,,1,,,64,0
65265,note_on,225,0,5,,,,,,,,4,,,47,0
65265,note_on,225,0,1,,,,,,,,0,,,64,0
65265,note_on,225,0,3,,,,,,,,2,,,60,0
65280,note_on,15,0,6,,,,,,,,5,,,33,85
65280,note_on,15,0,5,,,,,,,,4,,,45,85
65280,note_on,15,0,3,,,,,,,,2,,,64,85
65280,note_on,15,0,2,,,,,,,,1,,,69,85
65280,note_on,15,0,1,,,,,,,,0,,,69,85
65280,note_on,15,0,4,,,,,,,,3,,,60,85
65505,note_on,225,0,6,,,,,,,,5,,,33,0
65505,note_on,225,0,2,,,,,,,,1,,,69,0
65505,note_on,225,0,3,,,,,,,,2,,,64,0
65505,note_on,225,0,5,,,,,,,,4,,,45,0
65505,note_on,225,0,1,,,,,,,,0,,,69,0
65505,note_on,225,0,4,,,,,,,,3,,,60,0
65520,note_on,15,0,4,,,,,,,,3,,,57,85
65520,note_on,15,0,5,,,,,,,,4,,,50,85
65520,note_on,15,0,2,,,,,,,,1,,,57,85
65520,note_on,15,0,6,,,,,,,,5,,,38,85
65520,note_on,15,0,1,,,,,,,,0,,,57,85
65520,note_on,15,0,3,,,,,,,,2,,,60,85
65745,note_on,225,0,6,,,,,,,,5,,,38,0
65745,note_on,225,0,5,,,,,,,,4,,,50,0
65745,note_on,225,0,3,,,,,,,,2,,,60,0
65745,note_on,225,0,1,,,,,,,,0,,,57,0
65745,note_on,225,0,4,,,,,,,,3,,,57,0
65745,note_on,225,0,2,,,,,,,,1,,,57,0
65760,note_on,15,0,1,,,,,,,,0,,,56,85
65760,note_on,15,0,5,,,,,,,,4,,,52,85
65760,note_on,15,0,3,,,,,,,,2,,,59,85
65760,note_on,15,0,2,,,,,,,,1,,,56,85
65760,note_on,15,0,6,,,,,,,,5,,,40,85
65760,note_on,15,0,4,,,,,,,,3,,,52,85
65985,note_on,225,0,6,,,,,,,,5,,,40,0
65985,note_on,225,0,3,,,,,,,,2,,,59,0
65985,note_on,225,0,5,,,,,,,,4,,,52,0
65985,note_on,225,0,2,,,,,,,,1,,,56,0
65985,note_on,225,0,4,,,,,,,,3,,,52,0
65985,note_on,225,0,1,,,,,,,,0,,,56,0
66000,note_on,15,0,1,,,,,,,,0,,,71,85
66000,note_on,15,0,6,,,,,,,,5,,,28,85
66000,note_on,15,0,2,,,,,,,,1,,,71,85
66000,note_on,15,0,5,,,,,,,,4,,,40,85
66000,note_on,15,0,4,,,,,,,,3,,,52,85
66000,note_on,15,0,3,,,,,,,,2,,,68,85
66225,note_on,225,0,1,,,,,,,,0,,,71,0
66225,note_on,225,0,4,,,,,,,,3,,,52,0
66225,note_on,225,0,2,,,,,,,,1,,,71,0
66225,note_on,225,0,6,,,,,,,,5,,,28,0
66225,note_on,225,0,3,,,,,,,,2,,,68,0
66225,note_on,225,0,5,,,,,,,,4,,,40,0
66240,note_on,15,0,3,,,,,,,,2,,,69,85
66240,note_on,15,0,1,,,,,,,,0,,,69,106
66240,note_on,15,0,2,,,,,,,,1,,,69,85
66240,note_on,15,0,6,,,,,,,,5,,,33,85
66240,note_on,15,0,4,,,,,,,,3,,,52,85
66240,note_on,15,0,5,,,,,,,,4,,,45,85
66355,note_on,115,0,1,,,,,,,,0,,,69,0
66360,note_on,5,0,1,,,,,,,,0,,,81,106
66465,note_on,225,0,5,,,,,,,,4,,,45,0
66465,note_on,225,0,6,,,,,,,,5,,,33,0
66475,note_on,115,0,1,,,,,,,,0,,,81,0
66480,note_on,15,0,5,,,,,,,,4,,,57,64
66480,note_on,15,0,6,,,,,,,,5,,,45,64
66480,note_on,5,0,1,,,,,,,,0,,,72,106
66595,note_on,115,0,1,,,,,,,,0,,,72,0
66600,note_on,5,0,1,,,,,,,,0,,,81,106
66685,note_on,445,0,3,,,,,,,,2,,,69,0
66685,note_on,445,0,2,,,,,,,,1,,,69,0
66685,note_on,445,0,4,,,,,,,,3,,,52,0
66705,note_on,225,0,5,,,,,,,,4,,,57,0
66705,note_on,225,0,6,,,,,,,,5,,,45,0
66715,note_on,115,0,1,,,,,,,,0,,,81,0
66720,note_on,5,0,1,,,,,,,,0,,,71,106
66720,note_on,15,0,6,,,,,,,,5,,,43,64
66720,note_on,15,0,5,,,,,,,,4,,,55,64
66835,note_on,115,0,1,,,,,,,,0,,,71,0
66840,note_on,5,0,1,,,,,,,,0,,,79,106
66945,note_on,225,0,5,,,,,,,,4,,,55,0
66945,note_on,225,0,6,,,,,,,,5,,,43,0
66955,note_on,115,0,1,,,,,,,,0,,,79,0
66960,note_on,5,0,1,,,,,,,,0,,,69,106
66960,note_on,15,0,5,,,,,,,,4,,,53,64
66960,note_on,15,0,6,,,,,,,,5,,,41,64
67075,note_on,115,0,1,,,,,,,,0,,,69,0
67080,note_on,5,0,1,,,,,,,,0,,,77,106
67185,note_on,225,0,6,,,,,,,,5,,,41,0
67185,note_on,225,0,5,,,,,,,,4,,,53,0
67195,note_on,115,0,1,,,,,,,,0,,,77,0
67200,note_on,15,0,5,,,,,,,,4,,,52,64
67200,note_on,5,0,1,,,,,,,,0,,,67,106
67200,note_on,15,0,6,,,,,,,,5,,,40,64
67315,note_on,115,0,1,,,,,,,,0,,,67,0
67320,note_on,5,0,1,,,,,,,,0,,,76,106
67425,note_on,225,0,5,,,,,,,,4,,,52,0
67425,note_on,225,0,6,,,,,,,,5,,,40,0
67435,note_on,115,0,1,,,,,,,,0,,,76,0
67440,note_on,5,0,1,,,,,,,,0,,,65,106
67440,note_on,15,0,6,,,,,,,,5,,,38,64
67440,note_on,15,0,5,,,,,,,,4,,,50,64
67555,note_on,115,0,1,,,,,,,,0,,,65,0
67560,note_on,5,0,1,,,,,,,,0,,,74,106
67665,note_on,225,0,5,,,,,,,,4,,,50,0
67665,note_on,225,0,6,,,,,,,,5,,,38,0
67675,note_on,115,0,1,,,,,,,,0,,,74,0
67680,note_on,15,0,6,,,,,,,,5,,,36,64
67680,note_on,15,0,5,,,,,,,,4,,,48,64
67680,note_on,5,0,1,,,,,,,,0,,,64,106
67795,note_on,115,0,1,,,,,,,,0,,,64,0
67800,note_on,5,0,1,,,,,,,,0,,,72,106
67905,note_on,225,0,6,,,,,,,,5,,,36,0
67905,note_on,225,0,5,,,,,,,,4,,,48,0
67915,note_on,115,0,1,,,,,,,,0,,,72,0
67920,note_on,5,0,1,,,,,,,,0,,,62,106
67920,note_on,15,0,5,,,,,,,,4,,,47,64
67920,note_on,15,0,6,,,,,,,,5,,,35,64
68035,note_on,115,0,1,,,,,,,,0,,,62,0
68040,note_on,5,0,1,,,,,,,,0,,,71,106
68145,note_on,225,0,5,,,,,,,,4,,,47,0
68145,note_on,225,0,6,,,,,,,,5,,,35,0
68155,note_on,115,0,1,,,,,,,,0,,,71,0
68160,note_on,15,0,6,,,,,,,,5,,,33,64
68160,note_on,15,0,5,,,,,,,,4,,,45,64
68160,note_on,5,0,1,,,,,,,,0,,,60,106
68275,note_on,115,0,1,,,,,,,,0,,,60,0
68280,note_on,5,0,1,,,,,,,,0,,,69,106
68385,note_on,225,0,5,,,,,,,,4,,,45,0
68385,note_on,225,0,6,,,,,,,,5,,,33,0
68395,note_on,115,0,1,,,,,,,,0,,,69,0
68400,note_on,5,0,1,,,,,,,,0,,,59,106
68400,note_on,15,0,5,,,,,,,,4,,,43,64
68400,note_on,15,0,6,,,,,,,,5,,,31,64
68515,note_on,115,0,1,,,,,,,,0,,,59,0
68520,note_on,5,0,1,,,,,,,,0,,,67,106
68625,note_on,225,0,6,,,,,,,,5,,,31,0
68625,note_on,225,0,5,,,,,,,,4,,,43,0
68635,note_on,115,0,1,,,,,,,,0,,,67,0
68640,note_on,15,0,5,,,,,,,,4,,,41,64
68640,note_on,15,0,6,,,,,,,,5,,,29,64
68640,note_on,5,0,1,,,,,,,,0,,,57,106
68755,note_on,115,0,1,,,,,,,,0,,,57,0
68760,note_on,5,0,1,,,,,,,,0,,,59,106
68875,note_on,115,0,1,,,,,,,,0,,,59,0
68880,note_on,5,0,1,,,,,,,,0,,,60,106
68995,note_on,115,0,1,,,,,,,,0,,,60,0
69000,note_on,5,0,1,,,,,,,,0,,,62,106
69085,note_on,445,0,5,,,,,,,,4,,,41,0
69085,note_on,445,0,6,,,,,,,,5,,,29,0
69115,note_on,115,0,1,,,,,,,,0,,,62,0
69120,note_on,5,0,1,,,,,,,,0,,,64,106
69120,note_on,35,0,6,,,,,,,,5,,,28,64
69120,note_on,35,0,5,,,,,,,,4,,,40,64
69345,note_on,225,0,5,,,,,,,,4,,,40,0
69345,note_on,225,0,6,,,,,,,,5,,,28,0
69360,note_on,15,0,5,,,,,,,,4,,,52,64
69360,note_on,15,0,6,,,,,,,,5,,,40,64
69565,note_on,445,0,1,,,,,,,,0,,,64,0
69585,note_on,225,0,5,,,,,,,,4,,,52,0
69585,note_on,225,0,6,,,,,,,,5,,,40,0
69600,note_on,15,0,6,,,,,,,,5,,,44,64
69600,note_on,15,0,5,,,,,,,,4,,,56,64
69825,note_on,225,0,6,,,,,,,,5,,,44,0
69825,note_on,225,0,5,,,,,,,,4,,,56,0
69840,note_on,275,0,1,,,,,,,,0,,,83,106
69840,note_on,15,0,5,,,,,,,,4,,,54,64
69840,note_on,15,0,6,,,,,,,,5,,,42,64
70065,note_on,225,0,6,,,,,,,,5,,,42,0
70065,note_on,225,0,1,,,,,,,,0,,,83,0
70065,note_on,225,0,5,,,,,,,,4,,,54,0
70080,note_on,15,0,1,,,,,,,,0,,,88,106
70080,note_on,15,0,5,,,,,,,,4,,,52,64
70080,note_on,15,0,6,,,,,,,,5,,,40,64
70195,note_on,115,0,1,,,,,,,,0,,,88,0
70200,note_on,5,0,1,,,,,,,,0,,,83,106
70305,note_on,225,0,5,,,,,,,,4,,,52,0
70305,note_on,225,0,6,,,,,,,,5,,,40,0
70315,note_on,115,0,1,,,,,,,,0,,,83,0
70320,note_on,5,0,1,,,,,,,,0,,,76,106
70320,note_on,15,0,6,,,,,,,,5,,,42,64
70320,note_on,15,0,5,,,,,,,,4,,,54,64
70435,note_on,115,0,1,,,,,,,,0,,,76,0
70440,note_on,5,0,1,,,,,,,,0,,,83,106
70545,note_on,225,0,5,,,,,,,,4,,,54,0
70545,note_on,225,0,6,,,,,,,,5,,,42,0
70555,note_on,115,0,1,,,,,,,,0,,,83,0
70560,note_on,15,0,6,,,,,,,,5,,,44,64
70560,note_on,15,0,5,,,,,,,,4,,,56,64
70560,note_on,5,0,1,,,,,,,,0,,,88,106
70675,note_on,115,0,1,,,,,,,,0,,,88,0
70680,note_on,5,0,1,,,,,,,,0,,,86,106
70785,note_on,225,0,6,,,,,,,,5,,,44,0
70785,note_on,225,0,5,,,,,,,,4,,,56,0
70795,note_on,115,0,1,,,,,,,,0,,,86,0
70800,note_on,15,0,6,,,,,,,,5,,,40,64
70800,note_on,15,0,5,,,,,,,,4,,,52,64
70800,note_on,5,0,1,,,,,,,,0,,,84,106
70915,note_on,115,0,1,,,,,,,,0,,,84,0
70920,note_on,5,0,1,,,,,,,,0,,,83,106
71025,note_on,225,0,6,,,,,,,,5,,,40,0
71025,note_on,225,0,5,,,,,,,,4,,,52,0
71035,note_on,115,0,1,,,,,,,,0,,,83,0
71040,note_on,5,0,1,,,,,,,,0,,,84,106
71040,note_on,15,0,6,,,,,,,,5,,,45,64
71040,note_on,15,0,5,,,,,,,,4,,,57,64
71155,note_on,115,0,1,,,,,,,,0,,,84,0
71160,note_on,5,0,1,,,,,,,,0,,,76,106
71275,note_on,115,0,1,,,,,,,,0,,,76,0
71280,note_on,5,0,1,,,,,,,,0,,,69,106
71395,note_on,115,0,1,,,,,,,,0,,,69,0
71400,note_on,5,0,1,,,,,,,,0,,,76,106
71485,note_on,445,0,6,,,,,,,,5,,,45,0
71485,note_on,445,0,5,,,,,,,,4,,,57,0
71515,note_on,115,0,1,,,,,,,,0,,,76,0
71520,note_on,5,0,1,,,,,,,,0,,,86,106
71635,note_on,115,0,1,,,,,,,,0,,,86,0
71640,note_on,5,0,1,,,,,,,,0,,,84,106
71755,note_on,115,0,1,,,,,,,,0,,,84,0
71760,note_on,5,0,1,,,,,,,,0,,,83,106
71875,note_on,115,0,1,,,,,,,,0,,,83,0
71880,note_on,5,0,1,,,,,,,,0,,,81,106
71995,note_on,115,0,1,,,,,,,,0,,,81,0
72000,note_on,5,0,1,,,,,,,,0,,,86,106
72000,note_on,515,0,6,,,,,,,,5,,,41,64
72000,note_on,515,0,5,,,,,,,,4,,,53,64
72115,note_on,115,0,1,,,,,,,,0,,,86,0
72120,note_on,5,0,1,,,,,,,,0,,,81,106
72235,note_on,115,0,1,,,,,,,,0,,,81,0
72240,note_on,5,0,1,,,,,,,,0,,,74,106
72355,note_on,115,0,1,,,,,,,,0,,,74,0
72360,note_on,5,0,1,,,,,,,,0,,,81,106
72445,note_on,445,0,5,,,,,,,,4,,,53,0
72445,note_on,445,0,6,,,,,,,,5,,,41,0
72475,note_on,115,0,1,,,,,,,,0,,,81,0
72480,note_on,5,0,1,,,,,,,,0,,,86,106
72595,note_on,115,0,1,,,,,,,,0,,,86,0
72600,note_on,5,0,1,,,,,,,,0,,,84,106
72715,note_on,115,0,1,,,,,,,,0,,,84,0
72720,note_on,5,0,1,,,,,,,,0,,,83,106
72835,note_on,115,0,1,,,,,,,,0,,,83,0
72840,note_on,5,0,1,,,,,,,,0,,,81,106
72955,note_on,115,0,1,,,,,,,,0,,,81,0
72960,note_on,515,0,6,,,,,,,,5,,,43,64
72960,note_on,5,0,1,,,,,,,,0,,,83,106
72960,note_on,515,0,5,,,,,,,,4,,,55,64
73075,note_on,115,0,1,,,,,,,,0,,,83,0
73080,note_on,5,0,1,,,,,,,,0,,,74,106
73195,note_on,115,0,1,,,,,,,,0,,,74,0
73200,note_on,5,0,1,,,,,,,,0,,,67,106
73315,note_on,115,0,1,,,,,,,,0,,,67,0
73320,note_on,5,0,1,,,,,,,,0,,,79,106
73405,note_on,445,0,5,,,,,,,,4,,,55,0
73405,note_on,445,0,6,,,,,,,,5,,,43,0
73435,note_on,115,0,1,,,,,,,,0,,,79,0
73440,note_on,5,0,1,,,,,,,,0,,,84,106
73555,note_on,115,0,1,,,,,,,,0,,,84,0
73560,note_on,5,0,1,,,,,,,,0,,,83,106
73675,note_on,115,0,1,,,,,,,,0,,,83,0
73680,note_on,5,0,1,,,,,,,,0,,,81,106
73795,note_on,115,0,1,,,,,,,,0,,,81,0
73800,note_on,5,0,1,,,,,,,,0,,,79,106
73915,note_on,115,0,1,,,,,,,,0,,,79,0
73920,note_on,515,0,5,,,,,,,,4,,,52,64
73920,note_on,515,0,6,,,,,,,,5,,,40,64
73920,note_on,5,0,1,,,,,,,,0,,,84,106
74035,note_on,115,0,1,,,,,,,,0,,,84,0
74040,note_on,5,0,1,,,,,,,,0,,,79,106
74155,note_on,115,0,1,,,,,,,,0,,,79,0
74160,note_on,5,0,1,,,,,,,,0,,,72,106
74275,note_on,115,0,1,,,,,,,,0,,,72,0
74280,note_on,5,0,1,,,,,,,,0,,,79,106
74365,note_on,445,0,5,,,,,,,,4,,,52,0
74365,note_on,445,0,6,,,,,,,,5,,,40,0
74395,note_on,115,0,1,,,,,,,,0,,,79,0
74400,note_on,5,0,1,,,,,,,,0,,,84,106
74515,note_on,115,0,1,,,,,,,,0,,,84,0
74520,note_on,5,0,1,,,,,,,,0,,,83,106
74635,note_on,115,0,1,,,,,,,,0,,,83,0
74640,note_on,5,0,1,,,,,,,,0,,,81,106
74755,note_on,115,0,1,,,,,,,,0,,,81,0
74760,note_on,5,0,1,,,,,,,,0,,,79,106
74875,note_on,115,0,1,,,,,,,,0,,,79,0
74880,note_on,515,0,5,,,,,,,,4,,,53,64
74880,note_on,515,0,6,,,,,,,,5,,,41,64
74880,note_on,5,0,1,,,,,,,,0,,,81,106
74995,note_on,115,0,1,,,,,,,,0,,,81,0
75000,note_on,5,0,1,,,,,,,,0,,,72,106
75115,note_on,115,0,1,,,,,,,,0,,,72,0
75120,note_on,5,0,1,,,,,,,,0,,,65,106
75235,note_on,115,0,1,,,,,,,,0,,,65,0
75240,note_on,5,0,1,,,,,,,,0,,,77,106
75325,note_on,445,0,5,,,,,,,,4,,,53,0
75325,note_on,445,0,6,,,,,,,,5,,,41,0
75355,note_on,115,0,1,,,,,,,,0,,,77,0
75360,note_on,5,0,1,,,,,,,,0,,,83,106
75475,note_on,115,0,1,,,,,,,,0,,,83,0
75480,note_on,5,0,1,,,,,,,,0,,,81,106
75595,note_on,115,0,1,,,,,,,,0,,,81,0
75600,note_on,5,0,1,,,,,,,,0,,,79,106
75715,note_on,115,0,1,,,,,,,,0,,,79,0
75720,note_on,5,0,1,,,,,,,,0,,,77,106
75835,note_on,115,0,1,,,,,,,,0,,,77,0
75840,note_on,5,0,1,,,,,,,,0,,,76,106
75840,note_on,515,0,5,,,,,,,,4,,,44,64
75840,note_on,515,0,6,,,,,,,,5,,,32,64
75955,note_on,115,0,1,,,,,,,,0,,,76,0
75960,note_on,5,0,1,,,,,,,,0,,,71,106
76075,note_on,115,0,1,,,,,,,,0,,,71,0
76080,note_on,5,0,1,,,,,,,,0,,,68,106
76195,note_on,115,0,1,,,,,,,,0,,,68,0
76200,note_on,5,0,1,,,,,,,,0,,,77,106
76285,note_on,445,0,5,,,,,,,,4,,,44,0
76285,note_on,445,0,6,,,,,,,,5,,,32,0
76315,note_on,115,0,1,,,,,,,,0,,,77,0
76320,note_on,5,0,1,,,,,,,,0,,,76,106
76435,note_on,115,0,1,,,,,,,,0,,,76,0
76440,note_on,5,0,1,,,,,,,,0,,,74,106
76555,note_on,115,0,1,,,,,,,,0,,,74,0
76560,note_on,5,0,1,,,,,,,,0,,,73,106
76675,note_on,115,0,1,,,,,,,,0,,,73,0
76680,note_on,5,0,1,,,,,,,,0,,,71,106
76795,note_on,115,0,1,,,,,,,,0,,,71,0
76800,note_on,5,0,1,,,,,,,,0,,,73,106
76800,note_on,515,0,6,,,,,,,,5,,,33,64
76800,note_on,515,0,5,,,,,,,,4,,,45,64
76915,note_on,115,0,1,,,,,,,,0,,,73,0
76920,note_on,5,0,1,,,,,,,,0,,,64,106
77035,note_on,115,0,1,,,,,,,,0,,,64,0
77040,note_on,5,0,1,,,,,,,,0,,,57,106
77155,note_on,115,0,1,,,,,,,,0,,,57,0
77160,note_on,5,0,1,,,,,,,,0,,,76,106
77245,note_on,445,0,5,,,,,,,,4,,,45,0
77245,note_on,445,0,6,,,,,,,,5,,,33,0
77275,note_on,115,0,1,,,,,,,,0,,,76,0
77280,note_on,5,0,1,,,,,,,,0,,,74,106
77395,note_on,115,0,1,,,,,,,,0,,,74,0
77400,note_on,5,0,1,,,,,,,,0,,,73,106
77515,note_on,115,0,1,,,,,,,,0,,,73,0
77520,note_on,5,0,1,,,,,,,,0,,,71,106
77635,note_on,115,0,1,,,,,,,,0,,,71,0
77640,note_on,5,0,1,,,,,,,,0,,,69,106
77755,note_on,115,0,1,,,,,,,,0,,,69,0
77760,note_on,515,0,5,,,,,,,,4,,,50,64
77760,note_on,5,0,1,,,,,,,,0,,,77,106
77760,note_on,515,0,6,,,,,,,,5,,,38,64
77875,note_on,115,0,1,,,,,,,,0,,,77,0
77880,note_on,5,0,1,,,,,,,,0,,,69,106
77995,note_on,115,0,1,,,,,,,,0,,,69,0
78000,note_on,5,0,1,,,,,,,,0,,,62,106
78115,note_on,115,0,1,,,,,,,,0,,,62,0
78120,note_on,5,0,1,,,,,,,,0,,,77,106
78205,note_on,445,0,5,,,,,,,,4,,,50,0
78205,note_on,445,0,6,,,,,,,,5,,,38,0
78235,note_on,115,0,1,,,,,,,,0,,,77,0
78240,note_on,5,0,1,,,,,,,,0,,,74,106
78355,note_on,115,0,1,,,,,,,,0,,,74,0
78360,note_on,5,0,1,,,,,,,,0,,,72,106
78475,note_on,115,0,1,,,,,,,,0,,,72,0
78480,note_on,5,0,1,,,,,,,,0,,,71,106
78595,note_on,115,0,1,,,,,,,,0,,,71,0
78600,note_on,5,0,1,,,,,,,,0,,,69,106
78715,note_on,115,0,1,,,,,,,,0,,,69,0
78720,note_on,515,0,6,,,,,,,,5,,,44,64
78720,note_on,515,0,5,,,,,,,,4,,,56,64
78720,note_on,5,0,1,,,,,,,,0,,,76,106
78835,note_on,115,0,1,,,,,,,,0,,,76,0
78840,note_on,5,0,1,,,,,,,,0,,,71,106
78955,note_on,115,0,1,,,,,,,,0,,,71,0
78960,note_on,5,0,1,,,,,,,,0,,,68,106
79075,note_on,115,0,1,,,,,,,,0,,,68,0
79080,note_on,5,0,1,,,,,,,,0,,,83,106
79165,note_on,445,0,5,,,,,,,,4,,,56,0
79165,note_on,445,0,6,,,,,,,,5,,,44,0
79195,note_on,115,0,1,,,,,,,,0,,,83,0
79200,note_on,5,0,1,,,,,,,,0,,,80,106
79315,note_on,115,0,1,,,,,,,,0,,,80,0
79320,note_on,5,0,1,,,,,,,,0,,,77,106
79435,note_on,115,0,1,,,,,,,,0,,,77,0
79440,note_on,5,0,1,,,,,,,,0,,,76,106
79555,note_on,115,0,1,,,,,,,,0,,,76,0
79560,note_on,5,0,1,,,,,,,,0,,,74,106
79675,note_on,115,0,1,,,,,,,,0,,,74,0
79680,note_on,5,0,1,,,,,,,,0,,,72,106
79680,note_on,515,0,6,,,,,,,,5,,,45,64
79680,note_on,515,0,5,,,,,,,,4,,,57,64
79795,note_on,115,0,1,,,,,,,,0,,,72,0
79800,note_on,5,0,1,,,,,,,,0,,,64,106
79915,note_on,115,0,1,,,,,,,,0,,,64,0
79920,note_on,5,0,1,,,,,,,,0,,,57,106
80035,note_on,115,0,1,,,,,,,,0,,,57,0
80040,note_on,5,0,1,,,,,,,,0,,,76,106
80125,note_on,445,0,5,,,,,,,,4,,,57,0
80125,note_on,445,0,6,,,,,,,,5,,,45,0
80155,note_on,115,0,1,,,,,,,,0,,,76,0
80160,note_on,5,0,1,,,,,,,,0,,,81,106
80275,note_on,115,0,1,,,,,,,,0,,,81,0
80280,note_on,5,0,1,,,,,,,,0,,,79,106
80395,note_on,115,0,1,,,,,,,,0,,,79,0
80400,note_on,5,0,1,,,,,,,,0,,,78,106
80515,note_on,115,0,1,,,,,,,,0,,,78,0
80520,note_on,5,0,1,,,,,,,,0,,,76,106
80635,note_on,115,0,1,,,,,,,,0,,,76,0
80640,note_on,515,0,5,,,,,,,,4,,,59,64
80640,note_on,515,0,6,,,,,,,,5,,,47,64
80640,note_on,5,0,1,,,,,,,,0,,,75,106
80755,note_on,115,0,1,,,,,,,,0,,,75,0
80760,note_on,5,0,1,,,,,,,,0,,,66,106
80875,note_on,115,0,1,,,,,,,,0,,,66,0
80880,note_on,5,0,1,,,,,,,,0,,,59,106
80995,note_on,115,0,1,,,,,,,,0,,,59,0
81000,note_on,5,0,1,,,,,,,,0,,,78,106
81085,note_on,445,0,6,,,,,,,,5,,,47,0
81085,note_on,445,0,5,,,,,,,,4,,,59,0
81115,note_on,115,0,1,,,,,,,,0,,,78,0
81120,note_on,5,0,1,,,,,,,,0,,,83,106
81235,note_on,115,0,1,,,,,,,,0,,,83,0
81240,note_on,5,0,1,,,,,,,,0,,,81,106
81355,note_on,115,0,1,,,,,,,,0,,,81,0
81360,note_on,5,0,1,,,,,,,,0,,,79,106
81475,note_on,115,0,1,,,,,,,,0,,,79,0
81480,note_on,5,0,1,,,,,,,,0,,,78,106
81595,note_on,115,0,1,,,,,,,,0,,,78,0
81600,note_on,515,0,6,,,,,,,,5,,,40,64
81600,note_on,5,0,1,,,,,,,,0,,,79,106
81600,note_on,515,0,5,,,,,,,,4,,,52,64
81715,note_on,115,0,1,,,,,,,,0,,,79,0
81720,note_on,5,0,1,,,,,,,,0,,,71,106
81835,note_on,115,0,1,,,,,,,,0,,,71,0
81840,note_on,5,0,1,,,,,,,,0,,,64,106
81955,note_on,115,0,1,,,,,,,,0,,,64,0
81960,note_on,5,0,1,,,,,,,,0,,,76,106
82045,note_on,445,0,5,,,,,,,,4,,,52,0
82045,note_on,445,0,6,,,,,,,,5,,,40,0
82075,note_on,115,0,1,,,,,,,,0,,,76,0
82080,note_on,5,0,1,,,,,,,,0,,,79,106
82195,note_on,115,0,1,,,,,,,,0,,,79,0
82200,note_on,5,0,1,,,,,,,,0,,,78,106
82315,note_on,115,0,1,,,,,,,,0,,,78,0
82320,note_on,5,0,1,,,,,,,,0,,,76,106
82435,note_on,115,0,1,,,,,,,,0,,,76,0
82440,note_on,5,0,1,,,,,,,,0,,,83,106
82555,note_on,115,0,1,,,,,,,,0,,,83,0
82560,note_on,5,0,1,,,,,,,,0,,,79,106
82560,note_on,515,0,5,,,,,,,,4,,,52,64
82560,note_on,515,0,6,,,,,,,,5,,,40,64
82675,note_on,115,0,1,,,,,,,,0,,,79,0
82680,note_on,5,0,1,,,,,,,,0,,,78,106
82795,note_on,115,0,1,,,,,,,,0,,,78,0
82800,note_on,5,0,1,,,,,,,,0,,,76,106
82915,note_on,115,0,1,,,,,,,,0,,,76,0
82920,note_on,5,0,1,,,,,,,,0,,,83,106
83005,note_on,445,0,6,,,,,,,,5,,,40,0
83005,note_on,445,0,5,,,,,,,,4,,,52,0
83035,note_on,115,0,1,,,,,,,,0,,,83,0
83040,note_on,35,0,6,,,,,,,,5,,,40,64
83040,note_on,5,0,1,,,,,,,,0,,,79,106
83040,note_on,35,0,5,,,,,,,,4,,,52,64
83155,note_on,115,0,1,,,,,,,,0,,,79,0
83160,note_on,5,0,1,,,,,,,,0,,,78,106
83275,note_on,115,0,1,,,,,,,,0,,,78,0
83280,note_on,5,0,1,,,,,,,,0,,,76,106
83395,note_on,115,0,1,,,,,,,,0,,,76,0
83400,note_on,5,0,1,,,,,,,,0,,,83,106
83485,note_on,445,0,6,,,,,,,,5,,,40,0
83485,note_on,445,0,5,,,,,,,,4,,,52,0
83515,note_on,115,0,1,,,,,,,,0,,,83,0
83520,note_on,35,0,5,,,,,,,,4,,,57,64
83520,note_on,5,0,1,,,,,,,,0,,,72,106
83520,note_on,35,0,6,,,,,,,,5,,,45,64
83635,note_on,115,0,1,,,,,,,,0,,,72,0
83640,note_on,5,0,1,,,,,,,,0,,,71,106
83755,note_on,115,0,1,,,,,,,,0,,,71,0
83760,note_on,5,0,1,,,,,,,,0,,,69,106
83875,note_on,115,0,1,,,,,,,,0,,,69,0
83880,note_on,5,0,1,,,,,,,,0,,,81,106
83965,note_on,445,0,6,,,,,,,,5,,,45,0
83965,note_on,445,0,5,,,,,,,,4,,,57,0
83995,note_on,115,0,1,,,,,,,,0,,,81,0
84000,note_on,35,0,6,,,,,,,,5,,,45,64
84000,note_on,35,0,5,,,,,,,,4,,,57,64
84000,note_on,5,0,1,,,,,,,,0,,,72,106
84115,note_on,115,0,1,,,,,,,,0,,,72,0
84120,note_on,5,0,1,,,,,,,,0,,,71,106
84235,note_on,115,0,1,,,,,,,,0,,,71,0
84240,note_on,5,0,1,,,,,,,,0,,,69,106
84355,note_on,115,0,1,,,,,,,,0,,,69,0
84360,note_on,5,0,1,,,,,,,,0,,,81,106
84445,note_on,445,0,6,,,,,,,,5,,,45,0
84445,note_on,445,0,5,,,,,,,,4,,,57,0
84475,note_on,115,0,1,,,,,,,,0,,,81,0
84480,note_on,35,0,5,,,,,,,,4,,,47,64
84480,note_on,35,0,6,,,,,,,,5,,,35,64
84480,note_on,5,0,1,,,,,,,,0,,,81,106
84595,note_on,115,0,1,,,,,,,,0,,,81,0
84600,note_on,5,0,1,,,,,,,,0,,,71,106
84705,note_on,225,0,5,,,,,,,,4,,,47,0
84705,note_on,225,0,6,,,,,,,,5,,,35,0
84715,note_on,115,0,1,,,,,,,,0,,,71,0
84720,note_on,5,0,1,,,,,,,,0,,,81,106
84720,note_on,15,0,6,,,,,,,,5,,,37,64
84720,note_on,15,0,5,,,,,,,,4,,,49,64
84835,note_on,115,0,1,,,,,,,,0,,,81,0
84840,note_on,5,0,1,,,,,,,,0,,,71,106
84945,note_on,225,0,6,,,,,,,,5,,,37,0
84945,note_on,225,0,5,,,,,,,,4,,,49,0
84955,note_on,115,0,1,,,,,,,,0,,,71,0
84960,note_on,15,0,6,,,,,,,,5,,,39,64
84960,note_on,5,0,1,,,,,,,,0,,,81,106
84960,note_on,15,0,5,,,,,,,,4,,,51,64
85075,note_on,115,0,1,,,,,,,,0,,,81,0
85080,note_on,5,0,1,,,,,,,,0,,,71,106
85185,note_on,225,0,5,,,,,,,,4,,,51,0
85185,note_on,225,0,6,,,,,,,,5,,,39,0
85195,note_on,115,0,1,,,,,,,,0,,,71,0
85200,note_on,15,0,5,,,,,,,,4,,,47,64
85200,note_on,5,0,1,,,,,,,,0,,,79,106
85200,note_on,15,0,6,,,,,,,,5,,,35,64
85315,note_on,115,0,1,,,,,,,,0,,,79,0
85320,note_on,5,0,1,,,,,,,,0,,,78,106
85425,note_on,225,0,6,,,,,,,,5,,,35,0
85425,note_on,225,0,5,,,,,,,,4,,,47,0
85435,note_on,115,0,1,,,,,,,,0,,,78,0
85440,note_on,5,0,1,,,,,,,,0,,,79,106
85440,note_on,15,0,6,,,,,,,,5,,,40,64
85440,note_on,15,0,5,,,,,,,,4,,,52,64
85555,note_on,115,0,1,,,,,,,,0,,,79,0
85560,note_on,5,0,1,,,,,,,,0,,,71,106
85665,note_on,225,0,5,,,,,,,,4,,,52,0
85665,note_on,225,0,6,,,,,,,,5,,,40,0
85675,note_on,115,0,1,,,,,,,,0,,,71,0
85680,note_on,5,0,1,,,,,,,,0,,,78,106
85680,note_on,15,0,6,,,,,,,,5,,,28,64
85680,note_on,15,0,5,,,,,,,,4,,,40,64
85795,note_on,115,0,1,,,,,,,,0,,,78,0
85800,note_on,5,0,1,,,,,,,,0,,,76,106
85905,note_on,225,0,5,,,,,,,,4,,,40,0
85905,note_on,225,0,6,,,,,,,,5,,,28,0
85915,note_on,115,0,1,,,,,,,,0,,,76,0
85920,note_on,15,0,6,,,,,,,,5,,,47,64
85920,note_on,15,0,5,,,,,,,,4,,,59,64
85920,note_on,5,0,1,,,,,,,,0,,,79,106
85980,note_on,60,0,1,,,,,,,,0,,,79,0
85980,note_on,60,0,6,,,,,,,,5,,,47,0
85980,note_on,60,0,5,,,,,,,,4,,,59,0
85980,note_on,0,0,1,,,,,,,,0,,,78,106
86040,note_on,60,0,1,,,,,,,,0,,,78,0
86040,note_on,0,0,1,,,,,,,,0,,,79,106
86100,note_on,0,0,1,,,,,,,,0,,,78,106
86100,note_on,60,0,1,,,,,,,,0,,,79,0
86160,note_on,180,0,6,,,,,,,,5,,,35,64
86160,note_on,180,0,5,,,,,,,,4,,,47,64
86220,note_on,60,0,5,,,,,,,,4,,,47,0
86220,note_on,60,0,6,,,,,,,,5,,,35,0
86385,note_on,285,0,1,,,,,,,,0,,,78,0
86400,note_on,19715,0,3,,,,,,,,2,,,79,85
86400,note_on,19715,0,2,,,,,,,,1,,,76,85
86400,note_on,15,0,1,,,,,,,,0,,,76,85
86400,note_on,180,0,5,,,,,,,,4,,,52,85
86400,note_on,19715,0,4,,,,,,,,3,,,71,85
86400,note_on,180,0,6,,,,,,,,5,,,40,85
86845,note_on,445,0,2,,,,,,,,1,,,76,0
86845,note_on,445,0,4,,,,,,,,3,,,71,0
86845,note_on,445,0,1,,,,,,,,0,,,76,0
86845,note_on,445,0,3,,,,,,,,2,,,79,0
86845,note_on,445,0,6,,,,,,,,5,,,40,0
86845,note_on,445,0,5,,,,,,,,4,,,52,0
87000,note_on,155,0,1,,,,,,,,0,,,76,85
87000,note_on,155,0,3,,,,,,,,2,,,79,85
87000,note_on,155,0,2,,,,,,,,1,,,76,85
87115,note_on,115,0,1,,,,,,,,0,,,76,0
87115,note_on,115,0,3,,,,,,,,2,,,79,0
87115,note_on,115,0,2,,,,,,,,1,,,76,0
87120,note_on,275,0,4,,,,,,,,3,,,71,85
87120,note_on,275,0,5,,,,,,,,4,,,52,85
87120,note_on,5,0,3,,,,,,,,2,,,78,85
87120,note_on,5,0,1,,,,,,,,0,,,75,85
87120,note_on,5,0,2,,,,,,,,1,,,75,85
87120,note_on,275,0,6,,,,,,,,5,,,40,85
87235,note_on,115,0,2,,,,,,,,1,,,75,0
87235,note_on,115,0,3,,,,,,,,2,,,78,0
87235,note_on,115,0,1,,,,,,,,0,,,75,0
87240,note_on,5,0,1,,,,,,,,0,,,76,85
87240,note_on,5,0,2,,,,,,,,1,,,76,85
87240,note_on,5,0,3,,,,,,,,2,,,79,85
87345,note_on,225,0,5,,,,,,,,4,,,52,0
87345,note_on,225,0,4,,,,,,,,3,,,71,0
87345,note_on,225,0,6,,,,,,,,5,,,40,0
87355,note_on,115,0,1,,,,,,,,0,,,76,0
87355,note_on,115,0,2,,,,,,,,1,,,76,0
87355,note_on,115,0,3,,,,,,,,2,,,79,0
87360,note_on,5,0,2,,,,,,,,1,,,83,85
87360,note_on,5,0,3,,,,,,,,2,,,79,85
87360,note_on,15,0,4,,,,,,,,3,,,64,85
87360,note_on,15,0,5,,,,,,,,4,,,52,85
87360,note_on,5,0,1,,,,,,,,0,,,83,85
87360,note_on,15,0,6,,,,,,,,5,,,40,85
87585,note_on,225,0,5,,,,,,,,4,,,52,0
87585,note_on,225,0,1,,,,,,,,0,,,83,0
87585,note_on,225,0,3,,,,,,,,2,,,79,0
87585,note_on,225,0,6,,,,,,,,5,,,40,0
87585,note_on,225,0,4,,,,,,,,3,,,64,0
87585,note_on,225,0,2,,,,,,,,1,,,83,0
87600,note_on,15,0,2,,,,,,,,1,,,83,85
87600,note_on,15,0,3,,,,,,,,2,,,79,85
87600,note_on,15,0,5,,,,,,,,4,,,54,85
87600,note_on,15,0,6,,,,,,,,5,,,42,85
87600,note_on,15,0,4,,,,,,,,3,,,66,85
87600,note_on,15,0,1,,,,,,,,0,,,83,85
87825,note_on,225,0,5,,,,,,,,4,,,54,0
87825,note_on,225,0,6,,,,,,,,5,,,42,0
87825,note_on,225,0,4,,,,,,,,3,,,66,0
87825,note_on,225,0,1,,,,,,,,0,,,83,0
87825,note_on,225,0,3,,,,,,,,2,,,79,0
87825,note_on,225,0,2,,,,,,,,1,,,83,0
87840,note_on,15,0,2,,,,,,,,1,,,83,85
87840,note_on,15,0,5,,,,,,,,4,,,55,85
87840,note_on,15,0,1,,,,,,,,0,,,83,85
87840,note_on,15,0,3,,,,,,,,2,,,79,85
87840,note_on,15,0,4,,,,,,,,3,,,67,85
87840,note_on,15,0,6,,,,,,,,5,,,43,85
88065,note_on,225,0,3,,,,,,,,2,,,79,0
88065,note_on,225,0,1,,,,,,,,0,,,83,0
88065,note_on,225,0,4,,,,,,,,3,,,67,0
88065,note_on,225,0,5,,,,,,,,4,,,55,0
88065,note_on,225,0,2,,,,,,,,1,,,83,0
88065,note_on,225,0,6,,,,,,,,5,,,43,0
88080,note_on,15,0,4,,,,,,,,3,,,66,85
88080,note_on,15,0,1,,,,,,,,0,,,83,85
88080,note_on,15,0,5,,,,,,,,4,,,54,85
88080,note_on,15,0,3,,,,,,,,2,,,79,85
88080,note_on,15,0,2,,,,,,,,1,,,83,85
88080,note_on,15,0,6,,,,,,,,5,,,42,85
88305,note_on,225,0,4,,,,,,,,3,,,66,0
88305,note_on,225,0,3,,,,,,,,2,,,79,0
88305,note_on,225,0,5,,,,,,,,4,,,54,0
88305,note_on,225,0,2,,,,,,,,1,,,83,0
88305,note_on,225,0,1,,,,,,,,0,,,83,0
88305,note_on,225,0,6,,,,,,,,5,,,42,0
88320,note_on,15,0,6,,,,,,,,5,,,40,101
88320,note_on,15,0,1,,,,,,,,0,,,84,101
88320,note_on,15,0,5,,,,,,,,4,,,52,101
88320,note_on,15,0,2,,,,,,,,1,,,84,101
88320,note_on,15,0,4,,,,,,,,3,,,64,101
88320,note_on,15,0,3,,,,,,,,2,,,81,101
88560,note_on,0,0,2,,,,,,,,1,,,83,85
88560,note_on,0,0,1,,,,,,,,0,,,83,85
88560,note_on,240,0,1,,,,,,,,0,,,84,0
88560,note_on,0,0,4,,,,,,,,3,,,66,85
88560,note_on,240,0,4,,,,,,,,3,,,64,0
88560,note_on,240,0,3,,,,,,,,2,,,81,0
88560,note_on,240,0,2,,,,,,,,1,,,84,0
88560,note_on,0,0,3,,,,,,,,2,,,79,85
88560,note_on,0,0,5,,,,,,,,4,,,54,85
88560,note_on,0,0,6,,,,,,,,5,,,42,85
88560,note_on,240,0,6,,,,,,,,5,,,40,0
88560,note_on,240,0,5,,,,,,,,4,,,52,0
88785,note_on,225,0,5,,,,,,,,4,,,54,0
88785,note_on,225,0,4,,,,,,,,3,,,66,0
88785,note_on,225,0,6,,,,,,,,5,,,42,0
88800,note_on,15,0,6,,,,,,,,5,,,43,85
88800,note_on,15,0,5,,,,,,,,4,,,55,85
88800,note_on,15,0,4,,,,,,,,3,,,67,85
89005,note_on,445,0,3,,,,,,,,2,,,79,0
89005,note_on,445,0,2,,,,,,,,1,,,83,0
89005,note_on,445,0,1,,,,,,,,0,,,83,0
89025,note_on,225,0,6,,,,,,,,5,,,43,0
89025,note_on,225,0,5,,,,,,,,4,,,55,0
89025,note_on,225,0,4,,,,,,,,3,,,67,0
89040,note_on,35,0,2,,,,,,,,1,,,76,85
89040,note_on,35,0,1,,,,,,,,0,,,76,85
89040,note_on,35,0,3,,,,,,,,2,,,79,85
89040,note_on,15,0,5,,,,,,,,4,,,54,85
89040,note_on,15,0,6,,,,,,,,5,,,42,85
89040,note_on,15,0,4,,,,,,,,3,,,66,85
89265,note_on,225,0,2,,,,,,,,1,,,76,0
89265,note_on,225,0,1,,,,,,,,0,,,76,0
89265,note_on,225,0,5,,,,,,,,4,,,54,0
89265,note_on,225,0,3,,,,,,,,2,,,79,0
89265,note_on,225,0,4,,,,,,,,3,,,66,0
89265,note_on,225,0,6,,,,,,,,5,,,42,0
89280,note_on,15,0,6,,,,,,,,5,,,40,101
89280,note_on,15,0,3,,,,,,,,2,,,81,101
89280,note_on,15,0,4,,,,,,,,3,,,64,101
89280,note_on,15,0,1,,,,,,,,0,,,84,101
89280,note_on,15,0,2,,,,,,,,1,,,84,101
89280,note_on,15,0,5,,,,,,,,4,,,52,101
89520,note_on,240,0,5,,,,,,,,4,,,52,0
89520,note_on,0,0,3,,,,,,,,2,,,79,85
89520,note_on,240,0,3,,,,,,,,2,,,81,0
89520,note_on,0,0,6,,,,,,,,5,,,42,85
89520,note_on,240,0,2,,,,,,,,1,,,84,0
89520,note_on,240,0,4,,,,,,,,3,,,64,0
89520,note_on,0,0,4,,,,,,,,3,,,66,85
89520,note_on,0,0,2,,,,,,,,1,,,83,85
89520,note_on,240,0,1,,,,,,,,0,,,84,0
89520,note_on,0,0,1,,,,,,,,0,,,83,85
89520,note_on,0,0,5,,,,,,,,4,,,54,85
89520,note_on,240,0,6,,,,,,,,5,,,40,0
89745,note_on,225,0,6,,,,,,,,5,,,42,0
89745,note_on,225,0,5,,,,,,,,4,,,54,0
89745,note_on,225,0,4,,,,,,,,3,,,66,0
89760,note_on,15,0,4,,,,,,,,3,,,67,85
89760,note_on,15,0,6,,,,,,,,5,,,43,85
89760,note_on,15,0,5,,,,,,,,4,,,55,85
89965,note_on,445,0,2,,,,,,,,1,,,83,0
89965,note_on,445,0,3,,,,,,,,2,,,79,0
89965,note_on,445,0,1,,,,,,,,0,,,83,0
89985,note_on,225,0,5,,,,,,,,4,,,55,0
89985,note_on,225,0,6,,,,,,,,5,,,43,0
89985,note_on,225,0,4,,,,,,,,3,,,67,0
90000,note_on,35,0,1,,,,,,,,0,,,76,85
90000,note_on,35,0,3,,,,,,,,2,,,79,85
90000,note_on,15,0,4,,,,,,,,3,,,64,85
90000,note_on,35,0,2,,,,,,,,1,,,76,85
90000,note_on,15,0,6,,,,,,,,5,,,40,85
90000,note_on,15,0,5,,,,,,,,4,,,52,85
90225,note_on,225,0,2,,,,,,,,1,,,76,0
90225,note_on,225,0,3,,,,,,,,2,,,79,0
90225,note_on,225,0,6,,,,,,,,5,,,40,0
90225,note_on,225,0,1,,,,,,,,0,,,76,0
90225,note_on,225,0,4,,,,,,,,3,,,64,0
90225,note_on,225,0,5,,,,,,,,4,,,52,0
90240,note_on,15,0,3,,,,,,,,2,,,81,85
90240,note_on,15,0,4,,,,,,,,3,,,57,85
90240,note_on,15,0,5,,,,,,,,4,,,45,85
90240,note_on,15,0,6,,,,,,,,5,,,33,85
90240,note_on,15,0,2,,,,,,,,1,,,84,85
90240,note_on,15,0,1,,,,,,,,0,,,84,85
90355,note_on,115,0,3,,,,,,,,2,,,81,0
90355,note_on,115,0,2,,,,,,,,1,,,84,0
90355,note_on,115,0,1,,,,,,,,0,,,84,0
90360,note_on,5,0,3,,,,,,,,2,,,83,85
90360,note_on,5,0,1,,,,,,,,0,,,86,85
90360,note_on,5,0,2,,,,,,,,1,,,86,85
90475,note_on,115,0,3,,,,,,,,2,,,83,0
90475,note_on,115,0,2,,,,,,,,1,,,86,0
90475,note_on,115,0,1,,,,,,,,0,,,86,0
90480,note_on,5,0,3,,,,,,,,2,,,79,85
90480,note_on,5,0,1,,,,,,,,0,,,83,85
90480,note_on,5,0,2,,,,,,,,1,,,83,85
90595,note_on,115,0,3,,,,,,,,2,,,79,0
90595,note_on,115,0,2,,,,,,,,1,,,83,0
90595,note_on,115,0,1,,,,,,,,0,,,83,0
90600,note_on,5,0,2,,,,,,,,1,,,84,85
90600,note_on,5,0,3,,,,,,,,2,,,81,85
90600,note_on,5,0,1,,,,,,,,0,,,84,85
90715,note_on,115,0,2,,,,,,,,1,,,84,0
90715,note_on,115,0,3,,,,,,,,2,,,81,0
90715,note_on,115,0,1,,,,,,,,0,,,84,0
90720,note_on,5,0,1,,,,,,,,0,,,81,85
90720,note_on,5,0,2,,,,,,,,1,,,81,85
90720,note_on,5,0,3,,,,,,,,2,,,78,85
90835,note_on,115,0,2,,,,,,,,1,,,81,0
90835,note_on,115,0,3,,,,,,,,2,,,78,0
90835,note_on,115,0,1,,,,,,,,0,,,81,0
90840,note_on,5,0,1,,,,,,,,0,,,83,85
90840,note_on,5,0,2,,,,,,,,1,,,83,85
90840,note_on,5,0,3,,,,,,,,2,,,79,85
90905,note_on,665,0,5,,,,,,,,4,,,45,0
90905,note_on,665,0,6,,,,,,,,5,,,33,0
90905,note_on,665,0,4,,,,,,,,3,,,57,0
90955,note_on,115,0,2,,,,,,,,1,,,83,0
90955,note_on,115,0,3,,,,,,,,2,,,79,0
90955,note_on,115,0,1,,,,,,,,0,,,83,0
90960,note_on,55,0,4,,,,,,,,3,,,58,85
90960,note_on,5,0,1,,,,,,,,0,,,79,85
90960,note_on,5,0,2,,,,,,,,1,,,79,85
90960,note_on,55,0,6,,,,,,,,5,,,34,85
90960,note_on,5,0,3,,,,,,,,2,,,76,85
90960,note_on,55,0,5,,,,,,,,4,,,46,85
91075,note_on,115,0,1,,,,,,,,0,,,79,0
91075,note_on,115,0,2,,,,,,,,1,,,79,0
91075,note_on,115,0,3,,,,,,,,2,,,76,0
91080,note_on,5,0,3,,,,,,,,2,,,78,85
91080,note_on,5,0,2,,,,,,,,1,,,81,85
91080,note_on,5,0,1,,,,,,,,0,,,81,85
91185,note_on,225,0,6,,,,,,,,5,,,34,0
91185,note_on,225,0,4,,,,,,,,3,,,58,0
91185,note_on,225,0,5,,,,,,,,4,,,46,0
91195,note_on,115,0,2,,,,,,,,1,,,81,0
91195,note_on,115,0,1,,,,,,,,0,,,81,0
91195,note_on,115,0,3,,,,,,,,2,,,78,0
91200,note_on,15,0,4,,,,,,,,3,,,59,101
91200,note_on,5,0,3,,,,,,,,2,,,75,101
91200,note_on,5,0,2,,,,,,,,1,,,78,101
91200,note_on,5,0,1,,,,,,,,0,,,78,101
91200,note_on,15,0,6,,,,,,,,5,,,35,101
91200,note_on,15,0,5,,,,,,,,4,,,47,101
91440,note_on,0,0,6,,,,,,,,5,,,37,85
91440,note_on,240,0,2,,,,,,,,1,,,78,0
91440,note_on,0,0,2,,,,,,,,1,,,71,85
91440,note_on,0,0,1,,,,,,,,0,,,71,85
91440,note_on,0,0,4,,,,,,,,3,,,61,85
91440,note_on,240,0,1,,,,,,,,0,,,78,0
91440,note_on,240,0,4,,,,,,,,3,,,59,0
91440,note_on,240,0,6,,,,,,,,5,,,35,0
91440,note_on,240,0,5,,,,,,,,4,,,47,0
91440,note_on,0,0,5,,,,,,,,4,,,49,85
91440,note_on,0,0,3,,,,,,,,2,,,75,85
91440,note_on,240,0,3,,,,,,,,2,,,75,0
91665,note_on,225,0,5,,,,,,,,4,,,49,0
91665,note_on,225,0,6,,,,,,,,5,,,37,0
91665,note_on,225,0,4,,,,,,,,3,,,61,0
91680,note_on,15,0,6,,,,,,,,5,,,39,85
91680,note_on,15,0,4,,,,,,,,3,,,63,85
91680,note_on,15,0,5,,,,,,,,4,,,51,85
91885,note_on,445,0,2,,,,,,,,1,,,71,0
91885,note_on,445,0,3,,,,,,,,2,,,75,0
91885,note_on,445,0,1,,,,,,,,0,,,71,0
91905,note_on,225,0,6,,,,,,,,5,,,39,0
91905,note_on,225,0,4,,,,,,,,3,,,63,0
91905,note_on,225,0,5,,,,,,,,4,,,51,0
91920,note_on,35,0,2,,,,,,,,1,,,78,85
91920,note_on,35,0,3,,,,,,,,2,,,75,85
91920,note_on,15,0,4,,,,,,,,3,,,61,85
91920,note_on,35,0,1,,,,,,,,0,,,78,85
91920,note_on,15,0,6,,,,,,,,5,,,37,85
91920,note_on,15,0,5,,,,,,,,4,,,49,85
92145,note_on,225,0,6,,,,,,,,5,,,37,0
92145,note_on,225,0,1,,,,,,,,0,,,78,0
92145,note_on,225,0,5,,,,,,,,4,,,49,0
92145,note_on,225,0,3,,,,,,,,2,,,75,0
92145,note_on,225,0,4,,,,,,,,3,,,61,0
92145,note_on,225,0,2,,,,,,,,1,,,78,0
92160,note_on,15,0,6,,,,,,,,5,,,35,101
92160,note_on,15,0,5,,,,,,,,4,,,47,101
92160,note_on,15,0,4,,,,,,,,3,,,59,101
92160,note_on,15,0,2,,,,,,,,1,,,79,101
92160,note_on,15,0,3,,,,,,,,2,,,76,101
92160,note_on,15,0,1,,,,,,,,0,,,79,101
92400,note_on,0,0,6,,,,,,,,5,,,37,85
92400,note_on,240,0,6,,,,,,,,5,,,35,0
92400,note_on,240,0,2,,,,,,,,1,,,79,0
92400,note_on,0,0,2,,,,,,,,1,,,78,85
92400,note_on,0,0,3,,,,,,,,2,,,75,85
92400,note_on,240,0,3,,,,,,,,2,,,76,0
92400,note_on,240,0,5,,,,,,,,4,,,47,0
92400,note_on,0,0,5,,,,,,,,4,,,49,85
92400,note_on,0,0,4,,,,,,,,3,,,61,85
92400,note_on,240,0,4,,,,,,,,3,,,59,0
92400,note_on,240,0,1,,,,,,,,0,,,79,0
92400,note_on,0,0,1,,,,,,,,0,,,78,85
92625,note_on,225,0,4,,,,,,,,3,,,61,0
92625,note_on,225,0,6,,,,,,,,5,,,37,0
92625,note_on,225,0,5,,,,,,,,4,,,49,0
92640,note_on,15,0,6,,,,,,,,5,,,39,85
92640,note_on,15,0,5,,,,,,,,4,,,51,85
92640,note_on,15,0,4,,,,,,,,3,,,63,85
92845,note_on,445,0,1,,,,,,,,0,,,78,0
92845,note_on,445,0,2,,,,,,,,1,,,78,0
92845,note_on,445,0,3,,,,,,,,2,,,75,0
92865,note_on,225,0,4,,,,,,,,3,,,63,0
92865,note_on,225,0,5,,,,,,,,4,,,51,0
92865,note_on,225,0,6,,,,,,,,5,,,39,0
92880,note_on,15,0,4,,,,,,,,3,,,61,85
92880,note_on,15,0,5,,,,,,,,4,,,49,85
92880,note_on,35,0,3,,,,,,,,2,,,75,85
92880,note_on,35,0,2,,,,,,,,1,,,71,85
92880,note_on,15,0,6,,,,,,,,5,,,37,85
92880,note_on,35,0,1,,,,,,,,0,,,71,85
93105,note_on,225,0,3,,,,,,,,2,,,75,0
93105,note_on,225,0,2,,,,,,,,1,,,71,0
93105,note_on,225,0,4,,,,,,,,3,,,61,0
93105,note_on,225,0,5,,,,,,,,4,,,49,0
93105,note_on,225,0,1,,,,,,,,0,,,71,0
93105,note_on,225,0,6,,,,,,,,5,,,37,0
93120,note_on,15,0,3,,,,,,,,2,,,76,101
93120,note_on,15,0,5,,,,,,,,4,,,47,101
93120,note_on,15,0,2,,,,,,,,1,,,79,101
93120,note_on,15,0,6,,,,,,,,5,,,35,101
93120,note_on,15,0,4,,,,,,,,3,,,59,101
93120,note_on,15,0,1,,,,,,,,0,,,79,101
93360,note_on,240,0,4,,,,,,,,3,,,59,0
93360,note_on,0,0,4,,,,,,,,3,,,61,85
93360,note_on,240,0,2,,,,,,,,1,,,79,0
93360,note_on,0,0,1,,,,,,,,0,,,78,85
93360,note_on,0,0,2,,,,,,,,1,,,78,85
93360,note_on,240,0,5,,,,,,,,4,,,47,0
93360,note_on,0,0,5,,,,,,,,4,,,49,85
93360,note_on,0,0,6,,,,,,,,5,,,37,85
93360,note_on,240,0,6,,,,,,,,5,,,35,0
93360,note_on,240,0,3,,,,,,,,2,,,76,0
93360,note_on,0,0,3,,,,,,,,2,,,75,85
93360,note_on,240,0,1,,,,,,,,0,,,79,0
93585,note_on,225,0,4,,,,,,,,3,,,61,0
93585,note_on,225,0,5,,,,,,,,4,,,49,0
93585,note_on,225,0,6,,,,,,,,5,,,37,0
93600,note_on,15,0,5,,,,,,,,4,,,51,85
93600,note_on,15,0,4,,,,,,,,3,,,63,85
93600,note_on,15,0,6,,,,,,,,5,,,39,85
93805,note_on,445,0,3,,,,,,,,2,,,75,0
93805,note_on,445,0,2,,,,,,,,1,,,78,0
93805,note_on,445,0,1,,,,,,,,0,,,78,0
93825,note_on,225,0,6,,,,,,,,5,,,39,0
93825,note_on,225,0,5,,,,,,,,4,,,51,0
93825,note_on,225,0,4,,,,,,,,3,,,63,0
93840,note_on,15,0,5,,,,,,,,4,,,49,85
93840,note_on,35,0,1,,,,,,,,0,,,71,85
93840,note_on,35,0,2,,,,,,,,1,,,71,85
93840,note_on,15,0,4,,,,,,,,3,,,61,85
93840,note_on,15,0,6,,,,,,,,5,,,37,85
93840,note_on,35,0,3,,,,,,,,2,,,75,85
94065,note_on,225,0,5,,,,,,,,4,,,49,0
94065,note_on,225,0,2,,,,,,,,1,,,71,0
94065,note_on,225,0,6,,,,,,,,5,,,37,0
94065,note_on,225,0,1,,,,,,,,0,,,71,0
94065,note_on,225,0,3,,,,,,,,2,,,75,0
94065,note_on,225,0,4,,,,,,,,3,,,61,0
94080,note_on,15,0,1,,,,,,,,0,,,81,101
94080,note_on,15,0,3,,,,,,,,2,,,78,101
94080,note_on,15,0,4,,,,,,,,3,,,59,101
94080,note_on,15,0,5,,,,,,,,4,,,47,101
94080,note_on,15,0,2,,,,,,,,1,,,81,101
94080,note_on,15,0,6,,,,,,,,5,,,35,101
94320,note_on,240,0,6,,,,,,,,5,,,35,0
94320,note_on,0,0,6,,,,,,,,5,,,37,85
94320,note_on,240,0,4,,,,,,,,3,,,59,0
94320,note_on,240,0,5,,,,,,,,4,,,47,0
94320,note_on,0,0,4,,,,,,,,3,,,61,85
94320,note_on,0,0,5,,,,,,,,4,,,49,85
94320,note_on,0,0,3,,,,,,,,2,,,75,85
94320,note_on,240,0,3,,,,,,,,2,,,78,0
94320,note_on,240,0,1,,,,,,,,0,,,81,0
94320,note_on,0,0,1,,,,,,,,0,,,78,85
94320,note_on,0,0,2,,,,,,,,1,,,78,85
94320,note_on,240,0,2,,,,,,,,1,,,81,0
94545,note_on,225,0,5,,,,,,,,4,,,49,0
94545,note_on,225,0,6,,,,,,,,5,,,37,0
94545,note_on,225,0,4,,,,,,,,3,,,61,0
94560,note_on,15,0,6,,,,,,,,5,,,39,85
94560,note_on,15,0,5,,,,,,,,4,,,51,85
94560,note_on,15,0,4,,,,,,,,3,,,63,85
94765,note_on,445,0,1,,,,,,,,0,,,78,0
94765,note_on,445,0,2,,,,,,,,1,,,78,0
94765,note_on,445,0,3,,,,,,,,2,,,75,0
94785,note_on,225,0,4,,,,,,,,3,,,63,0
94785,note_on,225,0,6,,,,,,,,5,,,39,0
94785,note_on,225,0,5,,,,,,,,4,,,51,0
94800,note_on,15,0,4,,,,,,,,3,,,59,85
94800,note_on,35,0,1,,,,,,,,0,,,81,85
94800,note_on,15,0,6,,,,,,,,5,,,35,85
94800,note_on,35,0,2,,,,,,,,1,,,81,85
94800,note_on,35,0,3,,,,,,,,2,,,78,85
94800,note_on,15,0,5,,,,,,,,4,,,47,85
95025,note_on,225,0,2,,,,,,,,1,,,81,0
95025,note_on,225,0,4,,,,,,,,3,,,59,0
95025,note_on,225,0,5,,,,,,,,4,,,47,0
95025,note_on,225,0,6,,,,,,,,5,,,35,0
95025,note_on,225,0,1,,,,,,,,0,,,81,0
95025,note_on,225,0,3,,,,,,,,2,,,78,0
95040,note_on,15,0,1,,,,,,,,0,,,79,101
95040,note_on,15,0,2,,,,,,,,1,,,79,101
95040,note_on,15,0,3,,,,,,,,2,,,76,101
95040,note_on,15,0,5,,,,,,,,4,,,52,101
95040,note_on,15,0,4,,,,,,,,3,,,64,101
95040,note_on,15,0,6,,,,,,,,5,,,40,101
95280,note_on,240,0,1,,,,,,,,0,,,79,0
95280,note_on,0,0,1,,,,,,,,0,,,76,85
95280,note_on,240,0,3,,,,,,,,2,,,76,0
95280,note_on,0,0,2,,,,,,,,1,,,76,85
95280,note_on,240,0,4,,,,,,,,3,,,64,0
95280,note_on,0,0,4,,,,,,,,3,,,66,85
95280,note_on,240,0,2,,,,,,,,1,,,79,0
95280,note_on,0,0,6,,,,,,,,5,,,42,85
95280,note_on,0,0,5,,,,,,,,4,,,54,85
95280,note_on,0,0,3,,,,,,,,2,,,71,85
95280,note_on,240,0,6,,,,,,,,5,,,40,0
95280,note_on,240,0,5,,,,,,,,4,,,52,0
95505,note_on,225,0,5,,,,,,,,4,,,54,0
95505,note_on,225,0,6,,,,,,,,5,,,42,0
95505,note_on,225,0,4,,,,,,,,3,,,66,0
95520,note_on,15,0,4,,,,,,,,3,,,67,85
95520,note_on,15,0,5,,,,,,,,4,,,55,85
95520,note_on,15,0,6,,,,,,,,5,,,43,85
95725,note_on,445,0,3,,,,,,,,2,,,71,0
95725,note_on,445,0,2,,,,,,,,1,,,76,0
95725,note_on,445,0,1,,,,,,,,0,,,76,0
95745,note_on,225,0,6,,,,,,,,5,,,43,0
95745,note_on,225,0,4,,,,,,,,3,,,67,0
95745,note_on,225,0,5,,,,,,,,4,,,55,0
95760,note_on,35,0,1,,,,,,,,0,,,79,85
95760,note_on,15,0,6,,,,,,,,5,,,40,85
95760,note_on,15,0,4,,,,,,,,3,,,64,85
95760,note_on,35,0,2,,,,,,,,1,,,79,85
95760,note_on,35,0,3,,,,,,,,2,,,76,85
95760,note_on,15,0,5,,,,,,,,4,,,52,85
95985,note_on,225,0,2,,,,,,,,1,,,79,0
95985,note_on,225,0,5,,,,,,,,4,,,52,0
95985,note_on,225,0,1,,,,,,,,0,,,79,0
95985,note_on,225,0,4,,,,,,,,3,,,64,0
95985,note_on,225,0,6,,,,,,,,5,,,40,0
95985,note_on,225,0,3,,,,,,,,2,,,76,0
96000,note_on,15,0,1,,,,,,,,0,,,78,101
96000,note_on,15,0,5,,,,,,,,4,,,59,101
96000,note_on,15,0,2,,,,,,,,1,,,78,101
96000,note_on,15,0,4,,,,,,,,3,,,71,101
96000,note_on,15,0,6,,,,,,,,5,,,47,101
96000,note_on,15,0,3,,,,,,,,2,,,75,101
96240,note_on,0,0,1,,,,,,,,0,,,75,85
96240,note_on,240,0,1,,,,,,,,0,,,78,0
96240,note_on,0,0,2,,,,,,,,1,,,75,85
96240,note_on,240,0,3,,,,,,,,2,,,75,0
96240,note_on,0,0,3,,,,,,,,2,,,71,85
96240,note_on,240,0,2,,,,,,,,1,,,78,0
96480,note_on,480,0,6,,,,,,,,5,,,47,0
96480,note_on,480,0,4,,,,,,,,3,,,71,0
96480,note_on,480,0,5,,,,,,,,4,,,59,0
96480,note_on,0,0,5,,,,,,,,4,,,47,85
96480,note_on,0,0,4,,,,,,,,3,,,59,85
96480,note_on,0,0,6,,,,,,,,5,,,35,85
96685,note_on,445,0,3,,,,,,,,2,,,71,0
96685,note_on,445,0,1,,,,,,,,0,,,75,0
96685,note_on,445,0,2,,,,,,,,1,,,75,0
96720,note_on,35,0,3,,,,,,,,2,,,75,85
96720,note_on,35,0,2,,,,,,,,1,,,78,85
96720,note_on,35,0,1,,,,,,,,0,,,78,85
96925,note_on,445,0,5,,,,,,,,4,,,47,0
96925,note_on,445,0,6,,,,,,,,5,,,35,0
96925,note_on,445,0,4,,,,,,,,3,,,59,0
96945,note_on,225,0,3,,,,,,,,2,,,75,0
96945,note_on,225,0,1,,,,,,,,0,,,78,0
96945,note_on,225,0,2,,,,,,,,1,,,78,0
96960,note_on,15,0,2,,,,,,,,1,,,76,85
96960,note_on,35,0,5,,,,,,,,4,,,52,85
96960,note_on,15,0,3,,,,,,,,2,,,76,85
96960,note_on,35,0,4,,,,,,,,3,,,64,85
96960,note_on,15,0,1,,,,,,,,0,,,76,85
96960,note_on,35,0,6,,,,,,,,5,,,40,85
97075,note_on,115,0,1,,,,,,,,0,,,76,0
97080,note_on,5,0,1,,,,,,,,0,,,83,85
97185,note_on,225,0,3,,,,,,,,2,,,76,0
97185,note_on,225,0,2,,,,,,,,1,,,76,0
97195,note_on,115,0,1,,,,,,,,0,,,83,0
97200,note_on,15,0,3,,,,,,,,2,,,67,49
97200,note_on,5,0,1,,,,,,,,0,,,83,85
97200,note_on,15,0,2,,,,,,,,1,,,71,49
97315,note_on,115,0,1,,,,,,,,0,,,83,0
97320,note_on,5,0,1,,,,,,,,0,,,88,85
97405,note_on,445,0,5,,,,,,,,4,,,52,0
97405,note_on,445,0,4,,,,,,,,3,,,64,0
97405,note_on,445,0,6,,,,,,,,5,,,40,0
97435,note_on,115,0,1,,,,,,,,0,,,88,0
97440,note_on,5,0,1,,,,,,,,0,,,88,85
97555,note_on,115,0,1,,,,,,,,0,,,88,0
97560,note_on,5,0,1,,,,,,,,0,,,83,85
97645,note_on,445,0,2,,,,,,,,1,,,71,0
97645,note_on,445,0,3,,,,,,,,2,,,67,0
97675,note_on,115,0,1,,,,,,,,0,,,83,0
97680,note_on,35,0,2,,,,,,,,1,,,71,49
97680,note_on,35,0,3,,,,,,,,2,,,67,49
97680,note_on,5,0,1,,,,,,,,0,,,83,85
97795,note_on,115,0,1,,,,,,,,0,,,83,0
97800,note_on,5,0,1,,,,,,,,0,,,88,85
97905,note_on,225,0,3,,,,,,,,2,,,67,0
97905,note_on,225,0,2,,,,,,,,1,,,71,0
97915,note_on,115,0,1,,,,,,,,0,,,88,0
97920,note_on,15,0,3,,,,,,,,2,,,67,49
97920,note_on,5,0,1,,,,,,,,0,,,88,85
97920,note_on,15,0,2,,,,,,,,1,,,71,49
98035,note_on,115,0,1,,,,,,,,0,,,88,0
98040,note_on,5,0,1,,,,,,,,0,,,83,85
98145,note_on,225,0,2,,,,,,,,1,,,71,0
98145,note_on,225,0,3,,,,,,,,2,,,67,0
98155,note_on,115,0,1,,,,,,,,0,,,83,0
98160,note_on,5,0,1,,,,,,,,0,,,83,85
98160,note_on,15,0,2,,,,,,,,1,,,71,49
98160,note_on,15,0,3,,,,,,,,2,,,67,49
98275,note_on,115,0,1,,,,,,,,0,,,83,0
98280,note_on,5,0,1,,,,,,,,0,,,88,85
98395,note_on,115,0,1,,,,,,,,0,,,88,0
98400,note_on,5,0,1,,,,,,,,0,,,88,85
98515,note_on,115,0,1,,,,,,,,0,,,88,0
98520,note_on,5,0,1,,,,,,,,0,,,83,85
98605,note_on,445,0,2,,,,,,,,1,,,71,0
98605,note_on,445,0,3,,,,,,,,2,,,67,0
98635,note_on,115,0,1,,,,,,,,0,,,83,0
98640,note_on,35,0,3,,,,,,,,2,,,67,49
98640,note_on,35,0,2,,,,,,,,1,,,71,49
98640,note_on,5,0,1,,,,,,,,0,,,83,85
98755,note_on,115,0,1,,,,,,,,0,,,83,0
98760,note_on,5,0,1,,,,,,,,0,,,88,85
98865,note_on,225,0,3,,,,,,,,2,,,67,0
98865,note_on,225,0,2,,,,,,,,1,,,71,0
98875,note_on,115,0,1,,,,,,,,0,,,88,0
98880,note_on,15,0,3,,,,,,,,2,,,69,49
98880,note_on,5,0,1,,,,,,,,0,,,85,85
98880,note_on,15,0,2,,,,,,,,1,,,73,49
98995,note_on,115,0,1,,,,,,,,0,,,85,0
99000,note_on,5,0,1,,,,,,,,0,,,85,85
99105,note_on,225,0,2,,,,,,,,1,,,73,0
99105,note_on,225,0,3,,,,,,,,2,,,69,0
99115,note_on,115,0,1,,,,,,,,0,,,85,0
99120,note_on,15,0,3,,,,,,,,2,,,69,49
99120,note_on,5,0,1,,,,,,,,0,,,85,85
99120,note_on,15,0,2,,,,,,,,1,,,73,49
99235,note_on,115,0,1,,,,,,,,0,,,85,0
99240,note_on,5,0,1,,,,,,,,0,,,90,85
99355,note_on,115,0,1,,,,,,,,0,,,90,0
99360,note_on,5,0,1,,,,,,,,0,,,90,85
99475,note_on,115,0,1,,,,,,,,0,,,90,0
99480,note_on,5,0,1,,,,,,,,0,,,85,85
99565,note_on,445,0,3,,,,,,,,2,,,69,0
99565,note_on,445,0,2,,,,,,,,1,,,73,0
99595,note_on,115,0,1,,,,,,,,0,,,85,0
99600,note_on,35,0,2,,,,,,,,1,,,73,49
99600,note_on,35,0,3,,,,,,,,2,,,69,49
99600,note_on,5,0,1,,,,,,,,0,,,85,85
99715,note_on,115,0,1,,,,,,,,0,,,85,0
99720,note_on,5,0,1,,,,,,,,0,,,90,85
99825,note_on,225,0,3,,,,,,,,2,,,69,0
99825,note_on,225,0,2,,,,,,,,1,,,73,0
99835,note_on,115,0,1,,,,,,,,0,,,90,0
99840,note_on,15,0,3,,,,,,,,2,,,69,49
99840,note_on,15,0,2,,,,,,,,1,,,73,49
99840,note_on,5,0,1,,,,,,,,0,,,90,85
99955,note_on,115,0,1,,,,,,,,0,,,90,0
99960,note_on,5,0,1,,,,,,,,0,,,85,85
100065,note_on,225,0,3,,,,,,,,2,,,69,0
100065,note_on,225,0,2,,,,,,,,1,,,73,0
100075,note_on,115,0,1,,,,,,,,0,,,85,0
100080,note_on,5,0,1,,,,,,,,0,,,85,85
100080,note_on,15,0,2,,,,,,,,1,,,73,49
100080,note_on,15,0,3,,,,,,,,2,,,69,49
100195,note_on,115,0,1,,,,,,,,0,,,85,0
100200,note_on,5,0,1,,,,,,,,0,,,90,85
100315,note_on,115,0,1,,,,,,,,0,,,90,0
100320,note_on,5,0,1,,,,,,,,0,,,90,85
100435,note_on,115,0,1,,,,,,,,0,,,90,0
100440,note_on,5,0,1,,,,,,,,0,,,85,85
100525,note_on,445,0,2,,,,,,,,1,,,73,0
100525,note_on,445,0,3,,,,,,,,2,,,69,0
100555,note_on,115,0,1,,,,,,,,0,,,85,0
100560,note_on,5,0,1,,,,,,,,0,,,85,85
100560,note_on,35,0,2,,,,,,,,1,,,73,49
100560,note_on,35,0,3,,,,,,,,2,,,69,49
100675,note_on,115,0,1,,,,,,,,0,,,85,0
100680,note_on,5,0,1,,,,,,,,0,,,90,85
100785,note_on,225,0,3,,,,,,,,2,,,69,0
100785,note_on,225,0,2,,,,,,,,1,,,73,0
100795,note_on,115,0,1,,,,,,,,0,,,90,0
100800,note_on,5,0,1,,,,,,,,0,,,87,85
100800,note_on,15,0,3,,,,,,,,2,,,71,49
100800,note_on,15,0,2,,,,,,,,1,,,75,49
100915,note_on,115,0,1,,,,,,,,0,,,87,0
100920,note_on,5,0,1,,,,,,,,0,,,87,85
101025,note_on,225,0,2,,,,,,,,1,,,75,0
101025,note_on,225,0,3,,,,,,,,2,,,71,0
101035,note_on,115,0,1,,,,,,,,0,,,87,0
101040,note_on,15,0,3,,,,,,,,2,,,71,49
101040,note_on,15,0,2,,,,,,,,1,,,75,49
101040,note_on,5,0,1,,,,,,,,0,,,87,85
101155,note_on,115,0,1,,,,,,,,0,,,87,0
101160,note_on,5,0,1,,,,,,,,0,,,91,85
101275,note_on,115,0,1,,,,,,,,0,,,91,0
101280,note_on,5,0,1,,,,,,,,0,,,91,85
101395,note_on,115,0,1,,,,,,,,0,,,91,0
101400,note_on,5,0,1,,,,,,,,0,,,87,85
101485,note_on,445,0,3,,,,,,,,2,,,71,0
101485,note_on,445,0,2,,,,,,,,1,,,75,0
101515,note_on,115,0,1,,,,,,,,0,,,87,0
101520,note_on,35,0,3,,,,,,,,2,,,71,49
101520,note_on,35,0,2,,,,,,,,1,,,75,49
101520,note_on,5,0,1,,,,,,,,0,,,87,85
101635,note_on,115,0,1,,,,,,,,0,,,87,0
101640,note_on,5,0,1,,,,,,,,0,,,91,85
101745,note_on,225,0,2,,,,,,,,1,,,75,0
101745,note_on,225,0,3,,,,,,,,2,,,71,0
101755,note_on,115,0,1,,,,,,,,0,,,91,0
101760,note_on,5,0,1,,,,,,,,0,,,91,85
101760,note_on,15,0,3,,,,,,,,2,,,71,49
101760,note_on,15,0,2,,,,,,,,1,,,75,49
101875,note_on,115,0,1,,,,,,,,0,,,91,0
101880,note_on,5,0,1,,,,,,,,0,,,87,85
101985,note_on,225,0,2,,,,,,,,1,,,75,0
101985,note_on,225,0,3,,,,,,,,2,,,71,0
101995,note_on,115,0,1,,,,,,,,0,,,87,0
102000,note_on,15,0,2,,,,,,,,1,,,75,49
102000,note_on,15,0,3,,,,,,,,2,,,71,49
102000,note_on,5,0,1,,,,,,,,0,,,87,85
102115,note_on,115,0,1,,,,,,,,0,,,87,0
102120,note_on,5,0,1,,,,,,,,0,,,91,85
102235,note_on,115,0,1,,,,,,,,0,,,91,0
102240,note_on,5,0,1,,,,,,,,0,,,91,85
102355,note_on,115,0,1,,,,,,,,0,,,91,0
102360,note_on,5,0,1,,,,,,,,0,,,87,85
102445,note_on,445,0,2,,,,,,,,1,,,75,0
102445,note_on,445,0,3,,,,,,,,2,,,71,0
102475,note_on,115,0,1,,,,,,,,0,,,87,0
102480,note_on,35,0,3,,,,,,,,2,,,71,49
102480,note_on,5,0,1,,,,,,,,0,,,87,85
102480,note_on,35,0,2,,,,,,,,1,,,75,49
102595,note_on,115,0,1,,,,,,,,0,,,87,0
102600,note_on,5,0,1,,,,,,,,0,,,91,85
102705,note_on,225,0,3,,,,,,,,2,,,71,0
102705,note_on,225,0,2,,,,,,,,1,,,75,0
102715,note_on,115,0,1,,,,,,,,0,,,91,0
102720,note_on,15,0,2,,,,,,,,1,,,76,49
102720,note_on,15,0,3,,,,,,,,2,,,72,49
102720,note_on,5,0,1,,,,,,,,0,,,88,85
102835,note_on,115,0,1,,,,,,,,0,,,88,0
102840,note_on,5,0,1,,,,,,,,0,,,88,85
102945,note_on,225,0,2,,,,,,,,1,,,76,0
102945,note_on,225,0,3,,,,,,,,2,,,72,0
102955,note_on,115,0,1,,,,,,,,0,,,88,0
102960,note_on,15,0,2,,,,,,,,1,,,76,49
102960,note_on,5,0,1,,,,,,,,0,,,88,85
102960,note_on,15,0,3,,,,,,,,2,,,72,49
103075,note_on,115,0,1,,,,,,,,0,,,88,0
103080,note_on,5,0,1,,,,,,,,0,,,93,85
103195,note_on,115,0,1,,,,,,,,0,,,93,0
103200,note_on,5,0,1,,,,,,,,0,,,93,85
103315,note_on,115,0,1,,,,,,,,0,,,93,0
103320,note_on,5,0,1,,,,,,,,0,,,88,85
103405,note_on,445,0,3,,,,,,,,2,,,72,0
103405,note_on,445,0,2,,,,,,,,1,,,76,0
103435,note_on,115,0,1,,,,,,,,0,,,88,0
103440,note_on,5,0,1,,,,,,,,0,,,88,85
103440,note_on,35,0,2,,,,,,,,1,,,76,49
103440,note_on,35,0,3,,,,,,,,2,,,72,49
103555,note_on,115,0,1,,,,,,,,0,,,88,0
103560,note_on,5,0,1,,,,,,,,0,,,93,85
103665,note_on,225,0,3,,,,,,,,2,,,72,0
103665,note_on,225,0,2,,,,,,,,1,,,76,0
103675,note_on,115,0,1,,,,,,,,0,,,93,0
103680,note_on,15,0,3,,,,,,,,2,,,73,49
103680,note_on,5,0,1,,,,,,,,0,,,93,85
103680,note_on,15,0,2,,,,,,,,1,,,76,49
103795,note_on,115,0,1,,,,,,,,0,,,93,0
103800,note_on,5,0,1,,,,,,,,0,,,88,85
103905,note_on,225,0,2,,,,,,,,1,,,76,0
103905,note_on,225,0,3,,,,,,,,2,,,73,0
103915,note_on,115,0,1,,,,,,,,0,,,88,0
103920,note_on,15,0,2,,,,,,,,1,,,76,49
103920,note_on,5,0,1,,,,,,,,0,,,88,85
103920,note_on,15,0,3,,,,,,,,2,,,73,49
104035,note_on,115,0,1,,,,,,,,0,,,88,0
104040,note_on,5,0,1,,,,,,,,0,,,93,85
104155,note_on,115,0,1,,,,,,,,0,,,93,0
104160,note_on,5,0,1,,,,,,,,0,,,93,85
104275,note_on,115,0,1,,,,,,,,0,,,93,0
104280,note_on,5,0,1,,,,,,,,0,,,88,85
104365,note_on,445,0,2,,,,,,,,1,,,76,0
104365,note_on,445,0,3,,,,,,,,2,,,73,0
104395,note_on,115,0,1,,,,,,,,0,,,88,0
104400,note_on,5,0,1,,,,,,,,0,,,88,85
104400,note_on,35,0,2,,,,,,,,1,,,76,49
104400,note_on,35,0,3,,,,,,,,2,,,73,49
104515,note_on,115,0,1,,,,,,,,0,,,88,0
104520,note_on,5,0,1,,,,,,,,0,,,93,85
104625,note_on,225,0,2,,,,,,,,1,,,76,0
104625,note_on,225,0,3,,,,,,,,2,,,73,0
104635,note_on,115,0,1,,,,,,,,0,,,93,0
104640,note_on,15,0,2,,,,,,,,1,,,78,49
104640,note_on,15,0,3,,,,,,,,2,,,74,49
104640,note_on,5,0,1,,,,,,,,0,,,90,85
104755,note_on,115,0,1,,,,,,,,0,,,90,0
104760,note_on,5,0,1,,,,,,,,0,,,90,85
104865,note_on,225,0,2,,,,,,,,1,,,78,0
104865,note_on,225,0,3,,,,,,,,2,,,74,0
104875,note_on,115,0,1,,,,,,,,0,,,90,0
104880,note_on,5,0,1,,,,,,,,0,,,90,85
104880,note_on,15,0,2,,,,,,,,1,,,78,49
104880,note_on,15,0,3,,,,,,,,2,,,74,49
104995,note_on,115,0,1,,,,,,,,0,,,90,0
105000,note_on,5,0,1,,,,,,,,0,,,95,85
105115,note_on,115,0,1,,,,,,,,0,,,95,0
105120,note_on,5,0,1,,,,,,,,0,,,95,85
105235,note_on,115,0,1,,,,,,,,0,,,95,0
105240,note_on,5,0,1,,,,,,,,0,,,90,85
105325,note_on,445,0,2,,,,,,,,1,,,78,0
105325,note_on,445,0,3,,,,,,,,2,,,74,0
105355,note_on,115,0,1,,,,,,,,0,,,90,0
105360,note_on,5,0,1,,,,,,,,0,,,90,85
105360,note_on,35,0,3,,,,,,,,2,,,74,49
105360,note_on,35,0,2,,,,,,,,1,,,78,49
105475,note_on,115,0,1,,,,,,,,0,,,90,0
105480,note_on,5,0,1,,,,,,,,0,,,95,85
105585,note_on,225,0,2,,,,,,,,1,,,78,0
105585,note_on,225,0,3,,,,,,,,2,,,74,0
105595,note_on,115,0,1,,,,,,,,0,,,95,0
105600,note_on,15,0,2,,,,,,,,1,,,78,49
105600,note_on,15,0,3,,,,,,,,2,,,75,49
105600,note_on,5,0,1,,,,,,,,0,,,95,85
105715,note_on,115,0,1,,,,,,,,0,,,95,0
105720,note_on,5,0,1,,,,,,,,0,,,90,85
105825,note_on,225,0,2,,,,,,,,1,,,78,0
105825,note_on,225,0,3,,,,,,,,2,,,75,0
105835,note_on,115,0,1,,,,,,,,0,,,90,0
105840,note_on,15,0,2,,,,,,,,1,,,78,49
105840,note_on,15,0,3,,,,,,,,2,,,75,49
105840,note_on,5,0,1,,,,,,,,0,,,90,85
105955,note_on,115,0,1,,,,,,,,0,,,90,0
105960,note_on,5,0,1,,,,,,,,0,,,95,85
106075,note_on,115,0,1,,,,,,,,0,,,95,0
106080,note_on,5,0,1,,,,,,,,0,,,95,85
106195,note_on,115,0,1,,,,,,,,0,,,95,0
106200,note_on,5,0,1,,,,,,,,0,,,90,85
106285,note_on,445,0,3,,,,,,,,2,,,75,0
106285,note_on,445,0,2,,,,,,,,1,,,78,0
106315,note_on,115,0,1,,,,,,,,0,,,90,0
106320,note_on,5,0,1,,,,,,,,0,,,90,85
106320,note_on,35,0,2,,,,,,,,1,,,78,49
106320,note_on,35,0,3,,,,,,,,2,,,75,49
106435,note_on,115,0,1,,,,,,,,0,,,90,0
106440,note_on,5,0,1,,,,,,,,0,,,95,85
106545,note_on,225,0,2,,,,,,,,1,,,78,0
106545,note_on,225,0,3,,,,,,,,2,,,75,0
106555,note_on,115,0,1,,,,,,,,0,,,95,0
106560,note_on,15,0,2,,,,,,,,1,,,79,49
106560,note_on,15,0,3,,,,,,,,2,,,76,49
106560,note_on,5,0,1,,,,,,,,0,,,91,85
106675,note_on,115,0,1,,,,,,,,0,,,91,0
106680,note_on,5,0,1,,,,,,,,0,,,93,85
106795,note_on,115,0,1,,,,,,,,0,,,93,0
106800,note_on,5,0,1,,,,,,,,0,,,91,85
106915,note_on,115,0,1,,,,,,,,0,,,91,0
106920,note_on,5,0,1,,,,,,,,0,,,93,85
107005,note_on,445,0,3,,,,,,,,2,,,76,0
107005,note_on,445,0,2,,,,,,,,1,,,79,0
107035,note_on,115,0,1,,,,,,,,0,,,93,0
107040,note_on,5,0,1,,,,,,,,0,,,91,85
107155,note_on,115,0,1,,,,,,,,0,,,91,0
107160,note_on,5,0,1,,,,,,,,0,,,93,85
107275,note_on,115,0,1,,,,,,,,0,,,93,0
107280,note_on,5,0,1,,,,,,,,0,,,91,85
107395,note_on,115,0,1,,,,,,,,0,,,91,0
107400,note_on,5,0,1,,,,,,,,0,,,93,85
107515,note_on,115,0,1,,,,,,,,0,,,93,0
107520,note_on,5,0,1,,,,,,,,0,,,91,85
107635,note_on,115,0,1,,,,,,,,0,,,91,0
107640,note_on,5,0,1,,,,,,,,0,,,83,85
107755,note_on,115,0,1,,,,,,,,0,,,83,0
107760,note_on,5,0,1,,,,,,,,0,,,83,85
107760,note_on,10355,0,6,,,,,,,,5,,,40,49
107760,note_on,10355,0,5,,,,,,,,4,,,52,49
107875,note_on,115,0,1,,,,,,,,0,,,83,0
107880,note_on,5,0,1,,,,,,,,0,,,91,85
107985,note_on,225,0,5,,,,,,,,4,,,52,0
107985,note_on,225,0,6,,,,,,,,5,,,40,0
107995,note_on,115,0,1,,,,,,,,0,,,91,0
108000,note_on,15,0,6,,,,,,,,5,,,43,49
108000,note_on,5,0,1,,,,,,,,0,,,91,85
108000,note_on,15,0,5,,,,,,,,4,,,55,49
108115,note_on,115,0,1,,,,,,,,0,,,91,0
108120,note_on,5,0,1,,,,,,,,0,,,93,85
108225,note_on,225,0,6,,,,,,,,5,,,43,0
108225,note_on,225,0,5,,,,,,,,4,,,55,0
108235,note_on,115,0,1,,,,,,,,0,,,93,0
108240,note_on,15,0,5,,,,,,,,4,,,52,49
108240,note_on,5,0,1,,,,,,,,0,,,91,85
108240,note_on,15,0,6,,,,,,,,5,,,40,49
108355,note_on,115,0,1,,,,,,,,0,,,91,0
108360,note_on,5,0,1,,,,,,,,0,,,93,85
108465,note_on,225,0,6,,,,,,,,5,,,40,0
108465,note_on,225,0,5,,,,,,,,4,,,52,0
108475,note_on,115,0,1,,,,,,,,0,,,93,0
108480,note_on,5,0,1,,,,,,,,0,,,90,85
108595,note_on,115,0,1,,,,,,,,0,,,90,0
108600,note_on,5,0,1,,,,,,,,0,,,81,85
108715,note_on,115,0,1,,,,,,,,0,,,81,0
108720,note_on,255,0,5,,,,,,,,4,,,50,49
108720,note_on,5,0,1,,,,,,,,0,,,81,85
108720,note_on,255,0,6,,,,,,,,5,,,38,49
108835,note_on,115,0,1,,,,,,,,0,,,81,0
108840,note_on,5,0,1,,,,,,,,0,,,90,85
108945,note_on,225,0,6,,,,,,,,5,,,38,0
108945,note_on,225,0,5,,,,,,,,4,,,50,0
108955,note_on,115,0,1,,,,,,,,0,,,90,0
108960,note_on,15,0,6,,,,,,,,5,,,42,49
108960,note_on,5,0,1,,,,,,,,0,,,90,85
108960,note_on,15,0,5,,,,,,,,4,,,54,49
109075,note_on,115,0,1,,,,,,,,0,,,90,0
109080,note_on,5,0,1,,,,,,,,0,,,91,85
109185,note_on,225,0,6,,,,,,,,5,,,42,0
109185,note_on,225,0,5,,,,,,,,4,,,54,0
109195,note_on,115,0,1,,,,,,,,0,,,91,0
109200,note_on,15,0,5,,,,,,,,4,,,50,49
109200,note_on,15,0,6,,,,,,,,5,,,38,49
109200,note_on,5,0,1,,,,,,,,0,,,90,85
109315,note_on,115,0,1,,,,,,,,0,,,90,0
109320,note_on,5,0,1,,,,,,,,0,,,91,85
109425,note_on,225,0,5,,,,,,,,4,,,50,0
109425,note_on,225,0,6,,,,,,,,5,,,38,0
109435,note_on,115,0,1,,,,,,,,0,,,91,0
109440,note_on,5,0,1,,,,,,,,0,,,88,85
109555,note_on,115,0,1,,,,,,,,0,,,88,0
109560,note_on,5,0,1,,,,,,,,0,,,79,85
109675,note_on,115,0,1,,,,,,,,0,,,79,0
109680,note_on,255,0,6,,,,,,,,5,,,36,49
109680,note_on,5,0,1,,,,,,,,0,,,79,85
109680,note_on,255,0,5,,,,,,,,4,,,48,49
109795,note_on,115,0,1,,,,,,,,0,,,79,0
109800,note_on,5,0,1,,,,,,,,0,,,88,85
109905,note_on,225,0,6,,,,,,,,5,,,36,0
109905,note_on,225,0,5,,,,,,,,4,,,48,0
109915,note_on,115,0,1,,,,,,,,0,,,88,0
109920,note_on,5,0,1,,,,,,,,0,,,88,85
109920,note_on,15,0,6,,,,,,,,5,,,40,49
109920,note_on,15,0,5,,,,,,,,4,,,52,49
110035,note_on,115,0,1,,,,,,,,0,,,88,0
110040,note_on,5,0,1,,,,,,,,0,,,90,85
110145,note_on,225,0,6,,,,,,,,5,,,40,0
110145,note_on,225,0,5,,,,,,,,4,,,52,0
110155,note_on,115,0,1,,,,,,,,0,,,90,0
110160,note_on,5,0,1,,,,,,,,0,,,88,85
110160,note_on,15,0,6,,,,,,,,5,,,36,49
110160,note_on,15,0,5,,,,,,,,4,,,48,49
110275,note_on,115,0,1,,,,,,,,0,,,88,0
110280,note_on,5,0,1,,,,,,,,0,,,90,85
110385,note_on,225,0,6,,,,,,,,5,,,36,0
110385,note_on,225,0,5,,,,,,,,4,,,48,0
110395,note_on,115,0,1,,,,,,,,0,,,90,0
110400,note_on,5,0,1,,,,,,,,0,,,87,85
110515,note_on,115,0,1,,,,,,,,0,,,87,0
110520,note_on,5,0,1,,,,,,,,0,,,78,85
110635,note_on,115,0,1,,,,,,,,0,,,78,0
110640,note_on,255,0,5,,,,,,,,4,,,47,49
110640,note_on,5,0,1,,,,,,,,0,,,78,85
110640,note_on,255,0,6,,,,,,,,5,,,35,49
110755,note_on,115,0,1,,,,,,,,0,,,78,0
110760,note_on,5,0,1,,,,,,,,0,,,87,85
110865,note_on,225,0,5,,,,,,,,4,,,47,0
110865,note_on,225,0,6,,,,,,,,5,,,35,0
110875,note_on,115,0,1,,,,,,,,0,,,87,0
110880,note_on,15,0,6,,,,,,,,5,,,39,49
110880,note_on,5,0,1,,,,,,,,0,,,87,85
110880,note_on,15,0,5,,,,,,,,4,,,51,49
110995,note_on,115,0,1,,,,,,,,0,,,87,0
111000,note_on,5,0,1,,,,,,,,0,,,88,85
111105,note_on,225,0,5,,,,,,,,4,,,51,0
111105,note_on,225,0,6,,,,,,,,5,,,39,0
111115,note_on,115,0,1,,,,,,,,0,,,88,0
111120,note_on,15,0,6,,,,,,,,5,,,35,49
111120,note_on,5,0,1,,,,,,,,0,,,87,85
111120,note_on,15,0,5,,,,,,,,4,,,47,49
111235,note_on,115,0,1,,,,,,,,0,,,87,0
111240,note_on,5,0,1,,,,,,,,0,,,88,85
111345,note_on,225,0,5,,,,,,,,4,,,47,0
111345,note_on,225,0,6,,,,,,,,5,,,35,0
111355,note_on,115,0,1,,,,,,,,0,,,88,0
111360,note_on,5,0,1,,,,,,,,0,,,84,85
111475,note_on,115,0,1,,,,,,,,0,,,84,0
111480,note_on,5,0,1,,,,,,,,0,,,76,85
111595,note_on,115,0,1,,,,,,,,0,,,76,0
111600,note_on,5,0,1,,,,,,,,0,,,76,85
111600,note_on,255,0,5,,,,,,,,4,,,57,49
111600,note_on,255,0,6,,,,,,,,5,,,45,49
111715,note_on,115,0,1,,,,,,,,0,,,76,0
111720,note_on,5,0,1,,,,,,,,0,,,84,85
111825,note_on,225,0,5,,,,,,,,4,,,57,0
111825,note_on,225,0,6,,,,,,,,5,,,45,0
111835,note_on,115,0,1,,,,,,,,0,,,84,0
111840,note_on,15,0,5,,,,,,,,4,,,60,49
111840,note_on,15,0,6,,,,,,,,5,,,48,49
111840,note_on,5,0,1,,,,,,,,0,,,84,85
111955,note_on,115,0,1,,,,,,,,0,,,84,0
111960,note_on,5,0,1,,,,,,,,0,,,86,85
112065,note_on,225,0,6,,,,,,,,5,,,48,0
112065,note_on,225,0,5,,,,,,,,4,,,60,0
112075,note_on,115,0,1,,,,,,,,0,,,86,0
112080,note_on,15,0,5,,,,,,,,4,,,57,49
112080,note_on,5,0,1,,,,,,,,0,,,84,85
112080,note_on,15,0,6,,,,,,,,5,,,45,49
112195,note_on,115,0,1,,,,,,,,0,,,84,0
112200,note_on,5,0,1,,,,,,,,0,,,86,85
112305,note_on,225,0,6,,,,,,,,5,,,45,0
112305,note_on,225,0,5,,,,,,,,4,,,57,0
112315,note_on,115,0,1,,,,,,,,0,,,86,0
112320,note_on,5,0,1,,,,,,,,0,,,83,85
112435,note_on,115,0,1,,,,,,,,0,,,83,0
112440,note_on,5,0,1,,,,,,,,0,,,75,85
112555,note_on,115,0,1,,,,,,,,0,,,75,0
112560,note_on,255,0,5,,,,,,,,4,,,47,49
112560,note_on,5,0,1,,,,,,,,0,,,75,85
112560,note_on,255,0,6,,,,,,,,5,,,35,49
112675,note_on,115,0,1,,,,,,,,0,,,75,0
112680,note_on,5,0,1,,,,,,,,0,,,83,85
112785,note_on,225,0,5,,,,,,,,4,,,47,0
112785,note_on,225,0,6,,,,,,,,5,,,35,0
112795,note_on,115,0,1,,,,,,,,0,,,83,0
112800,note_on,5,0,1,,,,,,,,0,,,83,85
112800,note_on,15,0,6,,,,,,,,5,,,39,49
112800,note_on,15,0,5,,,,,,,,4,,,51,49
112915,note_on,115,0,1,,,,,,,,0,,,83,0
112920,note_on,5,0,1,,,,,,,,0,,,84,85
113025,note_on,225,0,6,,,,,,,,5,,,39,0
113025,note_on,225,0,5,,,,,,,,4,,,51,0
113035,note_on,115,0,1,,,,,,,,0,,,84,0
113040,note_on,5,0,1,,,,,,,,0,,,83,85
113040,note_on,15,0,6,,,,,,,,5,,,35,49
113040,note_on,15,0,5,,,,,,,,4,,,47,49
113155,note_on,115,0,1,,,,,,,,0,,,83,0
113160,note_on,5,0,1,,,,,,,,0,,,84,85
113265,note_on,225,0,5,,,,,,,,4,,,47,0
113265,note_on,225,0,6,,,,,,,,5,,,35,0
113275,note_on,115,0,1,,,,,,,,0,,,84,0
113280,note_on,5,0,1,,,,,,,,0,,,81,85
113395,note_on,115,0,1,,,,,,,,0,,,81,0
113400,note_on,5,0,1,,,,,,,,0,,,75,85
113515,note_on,115,0,1,,,,,,,,0,,,75,0
113520,note_on,255,0,6,,,,,,,,5,,,35,49
113520,note_on,5,0,1,,,,,,,,0,,,75,85
113520,note_on,255,0,5,,,,,,,,4,,,47,49
113635,note_on,115,0,1,,,,,,,,0,,,75,0
113640,note_on,5,0,1,,,,,,,,0,,,81,85
113745,note_on,225,0,6,,,,,,,,5,,,35,0
113745,note_on,225,0,5,,,,,,,,4,,,47,0
113755,note_on,115,0,1,,,,,,,,0,,,81,0
113760,note_on,15,0,6,,,,,,,,5,,,39,49
113760,note_on,15,0,5,,,,,,,,4,,,51,49
113760,note_on,5,0,1,,,,,,,,0,,,81,85
113875,note_on,115,0,1,,,,,,,,0,,,81,0
113880,note_on,5,0,1,,,,,,,,0,,,83,85
113985,note_on,225,0,5,,,,,,,,4,,,51,0
113985,note_on,225,0,6,,,,,,,,5,,,39,0
113995,note_on,115,0,1,,,,,,,,0,,,83,0
114000,note_on,5,0,1,,,,,,,,0,,,81,85
114000,note_on,15,0,6,,,,,,,,5,,,35,49
114000,note_on,15,0,5,,,,,,,,4,,,47,49
114115,note_on,115,0,1,,,,,,,,0,,,81,0
114120,note_on,5,0,1,,,,,,,,0,,,83,85
114225,note_on,225,0,5,,,,,,,,4,,,47,0
114225,note_on,225,0,6,,,,,,,,5,,,35,0
114235,note_on,115,0,1,,,,,,,,0,,,83,0
114240,note_on,5,0,1,,,,,,,,0,,,79,85
114355,note_on,115,0,1,,,,,,,,0,,,79,0
114360,note_on,5,0,1,,,,,,,,0,,,76,85
114475,note_on,115,0,1,,,,,,,,0,,,76,0
114480,note_on,255,0,5,,,,,,,,4,,,64,49
114480,note_on,255,0,6,,,,,,,,5,,,52,49
114480,note_on,5,0,1,,,,,,,,0,,,76,85
114595,note_on,115,0,1,,,,,,,,0,,,76,0
114600,note_on,5,0,1,,,,,,,,0,,,79,85
114705,note_on,225,0,6,,,,,,,,5,,,52,0
114705,note_on,225,0,5,,,,,,,,4,,,64,0
114715,note_on,115,0,1,,,,,,,,0,,,79,0
114720,note_on,5,0,1,,,,,,,,0,,,79,85
114720,note_on,15,0,6,,,,,,,,5,,,40,49
114720,note_on,15,0,5,,,,,,,,4,,,52,49
114835,note_on,115,0,1,,,,,,,,0,,,79,0
114840,note_on,5,0,1,,,,,,,,0,,,81,85
114945,note_on,225,0,5,,,,,,,,4,,,52,0
114945,note_on,225,0,6,,,,,,,,5,,,40,0
114955,note_on,115,0,1,,,,,,,,0,,,81,0
114960,note_on,5,0,1,,,,,,,,0,,,79,85
114960,note_on,15,0,6,,,,,,,,5,,,28,49
114960,note_on,15,0,5,,,,,,,,4,,,40,49
115075,note_on,115,0,1,,,,,,,,0,,,79,0
115080,note_on,5,0,1,,,,,,,,0,,,81,85
115185,note_on,225,0,5,,,,,,,,4,,,40,0
115185,note_on,225,0,6,,,,,,,,5,,,28,0
115195,note_on,115,0,1,,,,,,,,0,,,81,0
115200,note_on,5,0,1,,,,,,,,0,,,79,85
115315,note_on,115,0,1,,,,,,,,0,,,79,0
115320,note_on,5,0,1,,,,,,,,0,,,70,85
115435,note_on,115,0,1,,,,,,,,0,,,70,0
115440,note_on,255,0,5,,,,,,,,4,,,54,49
115440,note_on,255,0,6,,,,,,,,5,,,42,49
115440,note_on,5,0,1,,,,,,,,0,,,70,85
115555,note_on,115,0,1,,,,,,,,0,,,70,0
115560,note_on,5,0,1,,,,,,,,0,,,79,85
115665,note_on,225,0,5,,,,,,,,4,,,54,0
115665,note_on,225,0,6,,,,,,,,5,,,42,0
115675,note_on,115,0,1,,,,,,,,0,,,79,0
115680,note_on,5,0,1,,,,,,,,0,,,78,85
115680,note_on,15,0,6,,,,,,,,5,,,46,49
115680,note_on,15,0,5,,,,,,,,4,,,58,49
115795,note_on,115,0,1,,,,,,,,0,,,78,0
115800,note_on,5,0,1,,,,,,,,0,,,79,85
115905,note_on,225,0,6,,,,,,,,5,,,46,0
115905,note_on,225,0,5,,,,,,,,4,,,58,0
115915,note_on,115,0,1,,,,,,,,0,,,79,0
115920,note_on,15,0,6,,,,,,,,5,,,42,49
115920,note_on,15,0,5,,,,,,,,4,,,54,49
115920,note_on,5,0,1,,,,,,,,0,,,78,85
116035,note_on,115,0,1,,,,,,,,0,,,78,0
116040,note_on,5,0,1,,,,,,,,0,,,76,85
116145,note_on,225,0,5,,,,,,,,4,,,54,0
116145,note_on,225,0,6,,,,,,,,5,,,42,0
116155,note_on,115,0,1,,,,,,,,0,,,76,0
116160,note_on,5,0,1,,,,,,,,0,,,74,85
116275,note_on,115,0,1,,,,,,,,0,,,74,0
116280,note_on,5,0,1,,,,,,,,0,,,71,85
116395,note_on,115,0,1,,,,,,,,0,,,71,0
116400,note_on,255,0,6,,,,,,,,5,,,50,49
116400,note_on,5,0,1,,,,,,,,0,,,71,85
116400,note_on,255,0,5,,,,,,,,4,,,62,49
116515,note_on,115,0,1,,,,,,,,0,,,71,0
116520,note_on,5,0,1,,,,,,,,0,,,74,85
116625,note_on,225,0,5,,,,,,,,4,,,62,0
116625,note_on,225,0,6,,,,,,,,5,,,50,0
116635,note_on,115,0,1,,,,,,,,0,,,74,0
116640,note_on,15,0,6,,,,,,,,5,,,47,49
116640,note_on,15,0,5,,,,,,,,4,,,59,49
116640,note_on,5,0,1,,,,,,,,0,,,74,85
116755,note_on,115,0,1,,,,,,,,0,,,74,0
116760,note_on,5,0,1,,,,,,,,0,,,76,85
116865,note_on,225,0,5,,,,,,,,4,,,59,0
116865,note_on,225,0,6,,,,,,,,5,,,47,0
116875,note_on,115,0,1,,,,,,,,0,,,76,0
116880,note_on,15,0,5,,,,,,,,4,,,47,49
116880,note_on,15,0,6,,,,,,,,5,,,35,49
116880,note_on,5,0,1,,,,,,,,0,,,74,85
116995,note_on,115,0,1,,,,,,,,0,,,74,0
117000,note_on,5,0,1,,,,,,,,0,,,76,85
117105,note_on,225,0,6,,,,,,,,5,,,35,0
117105,note_on,225,0,5,,,,,,,,4,,,47,0
117115,note_on,115,0,1,,,,,,,,0,,,76,0
117120,note_on,5,0,1,,,,,,,,0,,,74,85
117235,note_on,115,0,1,,,,,,,,0,,,74,0
117240,note_on,5,0,1,,,,,,,,0,,,68,85
117355,note_on,115,0,1,,,,,,,,0,,,68,0
117360,note_on,5,0,1,,,,,,,,0,,,68,85
117360,note_on,255,0,6,,,,,,,,5,,,40,49
117360,note_on,255,0,5,,,,,,,,4,,,52,49
117475,note_on,115,0,1,,,,,,,,0,,,68,0
117480,note_on,5,0,1,,,,,,,,0,,,74,85
117585,note_on,225,0,6,,,,,,,,5,,,40,0
117585,note_on,225,0,5,,,,,,,,4,,,52,0
117595,note_on,115,0,1,,,,,,,,0,,,74,0
117600,note_on,15,0,6,,,,,,,,5,,,44,49
117600,note_on,15,0,5,,,,,,,,4,,,56,49
117600,note_on,5,0,1,,,,,,,,0,,,74,85
117715,note_on,115,0,1,,,,,,,,0,,,74,0
117720,note_on,5,0,1,,,,,,,,0,,,76,85
117825,note_on,225,0,6,,,,,,,,5,,,44,0
117825,note_on,225,0,5,,,,,,,,4,,,56,0
117835,note_on,115,0,1,,,,,,,,0,,,76,0
117840,note_on,15,0,5,,,,,,,,4,,,52,49
117840,note_on,15,0,6,,,,,,,,5,,,40,49
117840,note_on,5,0,1,,,,,,,,0,,,74,85
117955,note_on,115,0,1,,,,,,,,0,,,74,0
117960,note_on,5,0,1,,,,,,,,0,,,76,85
118065,note_on,225,0,6,,,,,,,,5,,,40,0
118065,note_on,225,0,5,,,,,,,,4,,,52,0
118075,note_on,115,0,1,,,,,,,,0,,,76,0
118080,note_on,5,0,1,,,,,,,,0,,,72,85
118195,note_on,115,0,1,,,,,,,,0,,,72,0
118200,note_on,5,0,1,,,,,,,,0,,,69,85
118315,note_on,115,0,1,,,,,,,,0,,,69,0
118320,note_on,255,0,5,,,,,,,,4,,,60,49
118320,note_on,255,0,6,,,,,,,,5,,,48,49
118320,note_on,5,0,1,,,,,,,,0,,,69,85
118435,note_on,115,0,1,,,,,,,,0,,,69,0
118440,note_on,5,0,1,,,,,,,,0,,,72,85
118545,note_on,225,0,6,,,,,,,,5,,,48,0
118545,note_on,225,0,5,,,,,,,,4,,,60,0
118555,note_on,115,0,1,,,,,,,,0,,,72,0
118560,note_on,5,0,1,,,,,,,,0,,,72,85
118560,note_on,15,0,6,,,,,,,,5,,,45,49
118560,note_on,15,0,5,,,,,,,,4,,,57,49
118675,note_on,115,0,1,,,,,,,,0,,,72,0
118680,note_on,5,0,1,,,,,,,,0,,,74,85
118785,note_on,225,0,5,,,,,,,,4,,,57,0
118785,note_on,225,0,6,,,,,,,,5,,,45,0
118795,note_on,115,0,1,,,,,,,,0,,,74,0
118800,note_on,5,0,1,,,,,,,,0,,,72,85
118800,note_on,15,0,6,,,,,,,,5,,,33,49
118800,note_on,15,0,5,,,,,,,,4,,,45,49
118915,note_on,115,0,1,,,,,,,,0,,,72,0
118920,note_on,5,0,1,,,,,,,,0,,,74,85
119025,note_on,225,0,6,,,,,,,,5,,,33,0
119025,note_on,225,0,5,,,,,,,,4,,,45,0
119035,note_on,115,0,1,,,,,,,,0,,,74,0
119040,note_on,5,0,1,,,,,,,,0,,,72,85
119155,note_on,115,0,1,,,,,,,,0,,,72,0
119160,note_on,5,0,1,,,,,,,,0,,,66,85
119275,note_on,115,0,1,,,,,,,,0,,,66,0
119280,note_on,5,0,1,,,,,,,,0,,,66,85
119280,note_on,255,0,5,,,,,,,,4,,,50,49
119280,note_on,255,0,6,,,,,,,,5,,,38,49
119395,note_on,115,0,1,,,,,,,,0,,,66,0
119400,note_on,5,0,1,,,,,,,,0,,,72,85
119505,note_on,225,0,6,,,,,,,,5,,,38,0
119505,note_on,225,0,5,,,,,,,,4,,,50,0
119515,note_on,115,0,1,,,,,,,,0,,,72,0
119520,note_on,15,0,5,,,,,,,,4,,,54,49
119520,note_on,5,0,1,,,,,,,,0,,,72,85
119520,note_on,15,0,6,,,,,,,,5,,,42,49
119635,note_on,115,0,1,,,,,,,,0,,,72,0
119640,note_on,5,0,1,,,,,,,,0,,,74,85
119745,note_on,225,0,5,,,,,,,,4,,,54,0
119745,note_on,225,0,6,,,,,,,,5,,,42,0
119755,note_on,115,0,1,,,,,,,,0,,,74,0
119760,note_on,5,0,1,,,,,,,,0,,,72,85
119760,note_on,15,0,5,,,,,,,,4,,,50,49
119760,note_on,15,0,6,,,,,,,,5,,,38,49
119875,note_on,115,0,1,,,,,,,,0,,,72,0
119880,note_on,5,0,1,,,,,,,,0,,,74,85
119985,note_on,225,0,5,,,,,,,,4,,,50,0
119985,note_on,225,0,6,,,,,,,,5,,,38,0
119995,note_on,115,0,1,,,,,,,,0,,,74,0
120000,note_on,5,0,1,,,,,,,,0,,,71,85
120115,note_on,115,0,1,,,,,,,,0,,,71,0
120120,note_on,5,0,1,,,,,,,,0,,,67,85
120235,note_on,115,0,1,,,,,,,,0,,,67,0
120240,note_on,5,0,1,,,,,,,,0,,,67,85
120240,note_on,255,0,5,,,,,,,,4,,,59,49
120240,note_on,255,0,6,,,,,,,,5,,,47,49
120355,note_on,115,0,1,,,,,,,,0,,,67,0
120360,note_on,5,0,1,,,,,,,,0,,,77,85
120465,note_on,225,0,5,,,,,,,,4,,,59,0
120465,note_on,225,0,6,,,,,,,,5,,,47,0
120475,note_on,115,0,1,,,,,,,,0,,,77,0
120480,note_on,5,0,1,,,,,,,,0,,,77,85
120480,note_on,15,0,6,,,,,,,,5,,,43,49
120480,note_on,15,0,5,,,,,,,,4,,,55,49
120595,note_on,115,0,1,,,,,,,,0,,,77,0
120600,note_on,5,0,1,,,,,,,,0,,,79,85
120705,note_on,225,0,6,,,,,,,,5,,,43,0
120705,note_on,225,0,5,,,,,,,,4,,,55,0
120715,note_on,115,0,1,,,,,,,,0,,,79,0
120720,note_on,5,0,1,,,,,,,,0,,,77,85
120720,note_on,15,0,6,,,,,,,,5,,,31,49
120720,note_on,15,0,5,,,,,,,,4,,,43,49
120835,note_on,115,0,1,,,,,,,,0,,,77,0
120840,note_on,5,0,1,,,,,,,,0,,,79,85
120945,note_on,225,0,5,,,,,,,,4,,,43,0
120945,note_on,225,0,6,,,,,,,,5,,,31,0
120955,note_on,115,0,1,,,,,,,,0,,,79,0
120960,note_on,5,0,1,,,,,,,,0,,,77,85
121075,note_on,115,0,1,,,,,,,,0,,,77,0
121080,note_on,5,0,1,,,,,,,,0,,,71,85
121195,note_on,115,0,1,,,,,,,,0,,,71,0
121200,note_on,255,0,5,,,,,,,,4,,,55,49
121200,note_on,5,0,1,,,,,,,,0,,,71,85
121200,note_on,255,0,6,,,,,,,,5,,,43,49
121315,note_on,115,0,1,,,,,,,,0,,,71,0
121320,note_on,5,0,1,,,,,,,,0,,,77,85
121425,note_on,225,0,6,,,,,,,,5,,,43,0
121425,note_on,225,0,5,,,,,,,,4,,,55,0
121435,note_on,115,0,1,,,,,,,,0,,,77,0
121440,note_on,5,0,1,,,,,,,,0,,,77,85
121440,note_on,15,0,6,,,,,,,,5,,,47,49
121440,note_on,15,0,5,,,,,,,,4,,,59,49
121555,note_on,115,0,1,,,,,,,,0,,,77,0
121560,note_on,5,0,1,,,,,,,,0,,,79,85
121665,note_on,225,0,5,,,,,,,,4,,,59,0
121665,note_on,225,0,6,,,,,,,,5,,,47,0
121675,note_on,115,0,1,,,,,,,,0,,,79,0
121680,note_on,15,0,5,,,,,,,,4,,,55,49
121680,note_on,5,0,1,,,,,,,,0,,,77,85
121680,note_on,15,0,6,,,,,,,,5,,,43,49
121795,note_on,115,0,1,,,,,,,,0,,,77,0
121800,note_on,5,0,1,,,,,,,,0,,,79,85
121905,note_on,225,0,6,,,,,,,,5,,,43,0
121905,note_on,225,0,5,,,,,,,,4,,,55,0
121915,note_on,115,0,1,,,,,,,,0,,,79,0
121920,note_on,15,0,6,,,,,,,,5,,,36,85
121920,note_on,15,0,5,,,,,,,,4,,,48,85
121920,note_on,14915,0,2,,,,,,,,1,,,72,85
121920,note_on,5,0,1,,,,,,,,0,,,76,85
121920,note_on,24515,0,4,,,,,,,,3,,,67,85
121920,note_on,14915,0,3,,,,,,,,2,,,76,85
122365,note_on,445,0,3,,,,,,,,2,,,76,0
122365,note_on,445,0,2,,,,,,,,1,,,72,0
122365,note_on,445,0,1,,,,,,,,0,,,76,0
122365,note_on,445,0,4,,,,,,,,3,,,67,0
122365,note_on,445,0,5,,,,,,,,4,,,48,0
122365,note_on,445,0,6,,,,,,,,5,,,36,0
122520,note_on,155,0,1,,,,,,,,0,,,72,85
122520,note_on,155,0,2,,,,,,,,1,,,72,85
122520,note_on,155,0,3,,,,,,,,2,,,76,85
122635,note_on,115,0,2,,,,,,,,1,,,72,0
122635,note_on,115,0,1,,,,,,,,0,,,72,0
122635,note_on,115,0,3,,,,,,,,2,,,76,0
122640,note_on,5,0,2,,,,,,,,1,,,71,85
122640,note_on,275,0,4,,,,,,,,3,,,67,85
122640,note_on,5,0,1,,,,,,,,0,,,71,85
122640,note_on,275,0,5,,,,,,,,4,,,48,85
122640,note_on,275,0,6,,,,,,,,5,,,36,85
122640,note_on,5,0,3,,,,,,,,2,,,74,85
122755,note_on,115,0,3,,,,,,,,2,,,74,0
122755,note_on,115,0,1,,,,,,,,0,,,71,0
122755,note_on,115,0,2,,,,,,,,1,,,71,0
122760,note_on,5,0,2,,,,,,,,1,,,72,85
122760,note_on,5,0,1,,,,,,,,0,,,72,85
122760,note_on,5,0,3,,,,,,,,2,,,76,85
122865,note_on,225,0,6,,,,,,,,5,,,36,0
122865,note_on,225,0,4,,,,,,,,3,,,67,0
122865,note_on,225,0,5,,,,,,,,4,,,48,0
122875,note_on,115,0,1,,,,,,,,0,,,72,0
122875,note_on,115,0,3,,,,,,,,2,,,76,0
122875,note_on,115,0,2,,,,,,,,1,,,72,0
122880,note_on,5,0,3,,,,,,,,2,,,76,85
122880,note_on,5,0,2,,,,,,,,1,,,79,85
122880,note_on,15,0,4,,,,,,,,3,,,60,85
122880,note_on,15,0,6,,,,,,,,5,,,36,85
122880,note_on,15,0,5,,,,,,,,4,,,48,85
122880,note_on,5,0,1,,,,,,,,0,,,79,85
123105,note_on,225,0,1,,,,,,,,0,,,79,0
123105,note_on,225,0,4,,,,,,,,3,,,60,0
123105,note_on,225,0,5,,,,,,,,4,,,48,0
123105,note_on,225,0,3,,,,,,,,2,,,76,0
123105,note_on,225,0,6,,,,,,,,5,,,36,0
123105,note_on,225,0,2,,,,,,,,1,,,79,0
123120,note_on,15,0,6,,,,,,,,5,,,38,85
123120,note_on,15,0,5,,,,,,,,4,,,50,85
123120,note_on,15,0,2,,,,,,,,1,,,79,85
123120,note_on,15,0,4,,,,,,,,3,,,62,85
123120,note_on,15,0,1,,,,,,,,0,,,79,85
123120,note_on,15,0,3,,,,,,,,2,,,76,85
123345,note_on,225,0,5,,,,,,,,4,,,50,0
123345,note_on,225,0,1,,,,,,,,0,,,79,0
123345,note_on,225,0,4,,,,,,,,3,,,62,0
123345,note_on,225,0,2,,,,,,,,1,,,79,0
123345,note_on,225,0,6,,,,,,,,5,,,38,0
123345,note_on,225,0,3,,,,,,,,2,,,76,0
123360,note_on,15,0,5,,,,,,,,4,,,52,85
123360,note_on,15,0,6,,,,,,,,5,,,40,85
123360,note_on,15,0,2,,,,,,,,1,,,79,85
123360,note_on,15,0,3,,,,,,,,2,,,76,85
123360,note_on,15,0,1,,,,,,,,0,,,79,85
123360,note_on,15,0,4,,,,,,,,3,,,64,85
123585,note_on,225,0,3,,,,,,,,2,,,76,0
123585,note_on,225,0,6,,,,,,,,5,,,40,0
123585,note_on,225,0,5,,,,,,,,4,,,52,0
123585,note_on,225,0,4,,,,,,,,3,,,64,0
123585,note_on,225,0,1,,,,,,,,0,,,79,0
123585,note_on,225,0,2,,,,,,,,1,,,79,0
123600,note_on,15,0,4,,,,,,,,3,,,62,85
123600,note_on,15,0,6,,,,,,,,5,,,38,85
123600,note_on,15,0,1,,,,,,,,0,,,79,85
123600,note_on,15,0,3,,,,,,,,2,,,76,85
123600,note_on,15,0,2,,,,,,,,1,,,79,85
123600,note_on,15,0,5,,,,,,,,4,,,50,85
123825,note_on,225,0,5,,,,,,,,4,,,50,0
123825,note_on,225,0,1,,,,,,,,0,,,79,0
123825,note_on,225,0,4,,,,,,,,3,,,62,0
123825,note_on,225,0,6,,,,,,,,5,,,38,0
123825,note_on,225,0,2,,,,,,,,1,,,79,0
123825,note_on,225,0,3,,,,,,,,2,,,76,0
123840,note_on,15,0,6,,,,,,,,5,,,36,85
123840,note_on,15,0,2,,,,,,,,1,,,81,85
123840,note_on,15,0,5,,,,,,,,4,,,48,85
123840,note_on,15,0,4,,,,,,,,3,,,60,85
123840,note_on,15,0,1,,,,,,,,0,,,81,85
123840,note_on,15,0,3,,,,,,,,2,,,77,85
124065,note_on,225,0,1,,,,,,,,0,,,81,0
124065,note_on,225,0,4,,,,,,,,3,,,60,0
124065,note_on,225,0,3,,,,,,,,2,,,77,0
124065,note_on,225,0,2,,,,,,,,1,,,81,0
124065,note_on,225,0,6,,,,,,,,5,,,36,0
124065,note_on,225,0,5,,,,,,,,4,,,48,0
124080,note_on,15,0,6,,,,,,,,5,,,38,85
124080,note_on,15,0,5,,,,,,,,4,,,50,85
124080,note_on,15,0,1,,,,,,,,0,,,79,85
124080,note_on,15,0,4,,,,,,,,3,,,62,85
124080,note_on,15,0,3,,,,,,,,2,,,76,85
124080,note_on,15,0,2,,,,,,,,1,,,79,85
124305,note_on,225,0,5,,,,,,,,4,,,50,0
124305,note_on,225,0,6,,,,,,,,5,,,38,0
124305,note_on,225,0,4,,,,,,,,3,,,62,0
124320,note_on,15,0,4,,,,,,,,3,,,64,85
124320,note_on,15,0,5,,,,,,,,4,,,52,85
124320,note_on,15,0,6,,,,,,,,5,,,40,85
124525,note_on,445,0,3,,,,,,,,2,,,76,0
124525,note_on,445,0,1,,,,,,,,0,,,79,0
124525,note_on,445,0,2,,,,,,,,1,,,79,0
124545,note_on,225,0,5,,,,,,,,4,,,52,0
124545,note_on,225,0,4,,,,,,,,3,,,64,0
124545,note_on,225,0,6,,,,,,,,5,,,40,0
124560,note_on,15,0,6,,,,,,,,5,,,38,85
124560,note_on,35,0,3,,,,,,,,2,,,76,85
124560,note_on,15,0,5,,,,,,,,4,,,50,85
124560,note_on,35,0,1,,,,,,,,0,,,72,85
124560,note_on,35,0,2,,,,,,,,1,,,72,85
124560,note_on,15,0,4,,,,,,,,3,,,62,85
124785,note_on,225,0,6,,,,,,,,5,,,38,0
124785,note_on,225,0,5,,,,,,,,4,,,50,0
124785,note_on,225,0,2,,,,,,,,1,,,72,0
124785,note_on,225,0,1,,,,,,,,0,,,72,0
124785,note_on,225,0,3,,,,,,,,2,,,76,0
124785,note_on,225,0,4,,,,,,,,3,,,62,0
124800,note_on,15,0,4,,,,,,,,3,,,60,85
124800,note_on,15,0,3,,,,,,,,2,,,77,85
124800,note_on,15,0,6,,,,,,,,5,,,36,85
124800,note_on,15,0,2,,,,,,,,1,,,81,85
124800,note_on,15,0,1,,,,,,,,0,,,81,85
124800,note_on,15,0,5,,,,,,,,4,,,48,85
125025,note_on,225,0,2,,,,,,,,1,,,81,0
125025,note_on,225,0,1,,,,,,,,0,,,81,0
125025,note_on,225,0,6,,,,,,,,5,,,36,0
125025,note_on,225,0,5,,,,,,,,4,,,48,0
125025,note_on,225,0,3,,,,,,,,2,,,77,0
125025,note_on,225,0,4,,,,,,,,3,,,60,0
125040,note_on,15,0,2,,,,,,,,1,,,79,85
125040,note_on,15,0,4,,,,,,,,3,,,62,85
125040,note_on,15,0,6,,,,,,,,5,,,38,85
125040,note_on,15,0,1,,,,,,,,0,,,79,85
125040,note_on,15,0,3,,,,,,,,2,,,76,85
125040,note_on,15,0,5,,,,,,,,4,,,50,85
125265,note_on,225,0,5,,,,,,,,4,,,50,0
125265,note_on,225,0,4,,,,,,,,3,,,62,0
125265,note_on,225,0,6,,,,,,,,5,,,38,0
125280,note_on,15,0,4,,,,,,,,3,,,64,85
125280,note_on,15,0,6,,,,,,,,5,,,40,85
125280,note_on,15,0,5,,,,,,,,4,,,52,85
125485,note_on,445,0,3,,,,,,,,2,,,76,0
125485,note_on,445,0,1,,,,,,,,0,,,79,0
125485,note_on,445,0,2,,,,,,,,1,,,79,0
125505,note_on,225,0,4,,,,,,,,3,,,64,0
125505,note_on,225,0,6,,,,,,,,5,,,40,0
125505,note_on,225,0,5,,,,,,,,4,,,52,0
125520,note_on,35,0,2,,,,,,,,1,,,72,85
125520,note_on,15,0,4,,,,,,,,3,,,60,85
125520,note_on,35,0,1,,,,,,,,0,,,72,85
125520,note_on,35,0,3,,,,,,,,2,,,76,85
125520,note_on,15,0,5,,,,,,,,4,,,48,85
125520,note_on,15,0,6,,,,,,,,5,,,36,85
125745,note_on,225,0,1,,,,,,,,0,,,72,0
125745,note_on,225,0,4,,,,,,,,3,,,60,0
125745,note_on,225,0,3,,,,,,,,2,,,76,0
125745,note_on,225,0,5,,,,,,,,4,,,48,0
125745,note_on,225,0,2,,,,,,,,1,,,72,0
125745,note_on,225,0,6,,,,,,,,5,,,36,0
125760,note_on,15,0,6,,,,,,,,5,,,41,85
125760,note_on,15,0,1,,,,,,,,0,,,81,85
125760,note_on,15,0,5,,,,,,,,4,,,53,85
125760,note_on,15,0,3,,,,,,,,2,,,77,85
125760,note_on,15,0,2,,,,,,,,1,,,81,85
125760,note_on,15,0,4,,,,,,,,3,,,65,85
125875,note_on,115,0,1,,,,,,,,0,,,81,0
125875,note_on,115,0,3,,,,,,,,2,,,77,0
125875,note_on,115,0,2,,,,,,,,1,,,81,0
125880,note_on,5,0,2,,,,,,,,1,,,83,85
125880,note_on,5,0,3,,,,,,,,2,,,79,85
125880,note_on,5,0,1,,,,,,,,0,,,83,85
125995,note_on,115,0,3,,,,,,,,2,,,79,0
125995,note_on,115,0,2,,,,,,,,1,,,83,0
125995,note_on,115,0,1,,,,,,,,0,,,83,0
126000,note_on,5,0,3,,,,,,,,2,,,76,85
126000,note_on,5,0,1,,,,,,,,0,,,79,85
126000,note_on,5,0,2,,,,,,,,1,,,79,85
126115,note_on,115,0,1,,,,,,,,0,,,79,0
126115,note_on,115,0,3,,,,,,,,2,,,76,0
126115,note_on,115,0,2,,,,,,,,1,,,79,0
126120,note_on,5,0,2,,,,,,,,1,,,81,85
126120,note_on,5,0,3,,,,,,,,2,,,77,85
126120,note_on,5,0,1,,,,,,,,0,,,81,85
126235,note_on,115,0,2,,,,,,,,1,,,81,0
126235,note_on,115,0,3,,,,,,,,2,,,77,0
126235,note_on,115,0,1,,,,,,,,0,,,81,0
126240,note_on,5,0,2,,,,,,,,1,,,77,85
126240,note_on,5,0,3,,,,,,,,2,,,74,85
126240,note_on,5,0,1,,,,,,,,0,,,77,85
126355,note_on,115,0,3,,,,,,,,2,,,74,0
126355,note_on,115,0,1,,,,,,,,0,,,77,0
126355,note_on,115,0,2,,,,,,,,1,,,77,0
126360,note_on,5,0,2,,,,,,,,1,,,79,85
126360,note_on,5,0,3,,,,,,,,2,,,76,85
126360,note_on,5,0,1,,,,,,,,0,,,79,85
126425,note_on,665,0,4,,,,,,,,3,,,65,0
126425,note_on,665,0,6,,,,,,,,5,,,41,0
126425,note_on,665,0,5,,,,,,,,4,,,53,0
126475,note_on,115,0,2,,,,,,,,1,,,79,0
126475,note_on,115,0,1,,,,,,,,0,,,79,0
126475,note_on,115,0,3,,,,,,,,2,,,76,0
126480,note_on,55,0,4,,,,,,,,3,,,66,85
126480,note_on,5,0,2,,,,,,,,1,,,76,85
126480,note_on,55,0,5,,,,,,,,4,,,54,85
126480,note_on,5,0,1,,,,,,,,0,,,76,85
126480,note_on,55,0,6,,,,,,,,5,,,42,85
126480,note_on,5,0,3,,,,,,,,2,,,72,85
126595,note_on,115,0,2,,,,,,,,1,,,76,0
126595,note_on,115,0,1,,,,,,,,0,,,76,0
126595,note_on,115,0,3,,,,,,,,2,,,72,0
126600,note_on,5,0,1,,,,,,,,0,,,77,85
126600,note_on,5,0,2,,,,,,,,1,,,77,85
126600,note_on,5,0,3,,,,,,,,2,,,74,85
126705,note_on,225,0,4,,,,,,,,3,,,66,0
126705,note_on,225,0,5,,,,,,,,4,,,54,0
126705,note_on,225,0,6,,,,,,,,5,,,42,0
126715,note_on,115,0,3,,,,,,,,2,,,74,0
126715,note_on,115,0,2,,,,,,,,1,,,77,0
126715,note_on,115,0,1,,,,,,,,0,,,77,0
126720,note_on,5,0,1,,,,,,,,0,,,74,106
126720,note_on,5,0,2,,,,,,,,1,,,74,85
126720,note_on,15,0,4,,,,,,,,3,,,67,85
126720,note_on,5,0,3,,,,,,,,2,,,71,85
126720,note_on,15,0,6,,,,,,,,5,,,43,64
126720,note_on,15,0,5,,,,,,,,4,,,55,64
126835,note_on,115,0,1,,,,,,,,0,,,74,0
126840,note_on,5,0,1,,,,,,,,0,,,67,106
126955,note_on,115,0,1,,,,,,,,0,,,67,0
126960,note_on,5,0,1,,,,,,,,0,,,67,106
127075,note_on,115,0,1,,,,,,,,0,,,67,0
127080,note_on,5,0,1,,,,,,,,0,,,71,106
127165,note_on,445,0,2,,,,,,,,1,,,74,0
127165,note_on,445,0,3,,,,,,,,2,,,71,0
127165,note_on,445,0,4,,,,,,,,3,,,67,0
127195,note_on,115,0,1,,,,,,,,0,,,71,0
127200,note_on,5,0,1,,,,,,,,0,,,71,106
127315,note_on,115,0,1,,,,,,,,0,,,71,0
127320,note_on,5,0,1,,,,,,,,0,,,72,106
127435,note_on,115,0,1,,,,,,,,0,,,72,0
127440,note_on,5,0,1,,,,,,,,0,,,71,106
127555,note_on,115,0,1,,,,,,,,0,,,71,0
127560,note_on,5,0,1,,,,,,,,0,,,72,106
127675,note_on,115,0,1,,,,,,,,0,,,72,0
127680,note_on,5,0,1,,,,,,,,0,,,71,106
127795,note_on,115,0,1,,,,,,,,0,,,71,0
127800,note_on,5,0,1,,,,,,,,0,,,67,106
127915,note_on,115,0,1,,,,,,,,0,,,67,0
127920,note_on,5,0,1,,,,,,,,0,,,67,106
128035,note_on,115,0,1,,,,,,,,0,,,67,0
128040,note_on,5,0,1,,,,,,,,0,,,71,106
128155,note_on,115,0,1,,,,,,,,0,,,71,0
128160,note_on,5,0,1,,,,,,,,0,,,71,106
128275,note_on,115,0,1,,,,,,,,0,,,71,0
128280,note_on,5,0,1,,,,,,,,0,,,72,106
128395,note_on,115,0,1,,,,,,,,0,,,72,0
128400,note_on,5,0,1,,,,,,,,0,,,71,106
128515,note_on,115,0,1,,,,,,,,0,,,71,0
128520,note_on,5,0,1,,,,,,,,0,,,74,106
128635,note_on,115,0,1,,,,,,,,0,,,74,0
128640,note_on,5,0,1,,,,,,,,0,,,72,106
128755,note_on,115,0,1,,,,,,,,0,,,72,0
128760,note_on,5,0,1,,,,,,,,0,,,67,106
128875,note_on,115,0,1,,,,,,,,0,,,67,0
128880,note_on,5,0,1,,,,,,,,0,,,67,106
128995,note_on,115,0,1,,,,,,,,0,,,67,0
129000,note_on,5,0,1,,,,,,,,0,,,72,106
129115,note_on,115,0,1,,,,,,,,0,,,72,0
129120,note_on,5,0,1,,,,,,,,0,,,72,106
129235,note_on,115,0,1,,,,,,,,0,,,72,0
129240,note_on,5,0,1,,,,,,,,0,,,74,106
129355,note_on,115,0,1,,,,,,,,0,,,74,0
129360,note_on,5,0,1,,,,,,,,0,,,72,106
129475,note_on,115,0,1,,,,,,,,0,,,72,0
129480,note_on,5,0,1,,,,,,,,0,,,74,106
129595,note_on,115,0,1,,,,,,,,0,,,74,0
129600,note_on,5,0,1,,,,,,,,0,,,72,106
129715,note_on,115,0,1,,,,,,,,0,,,72,0
129720,note_on,5,0,1,,,,,,,,0,,,67,106
129835,note_on,115,0,1,,,,,,,,0,,,67,0
129840,note_on,5,0,1,,,,,,,,0,,,67,106
129955,note_on,115,0,1,,,,,,,,0,,,67,0
129960,note_on,5,0,1,,,,,,,,0,,,72,106
130075,note_on,115,0,1,,,,,,,,0,,,72,0
130080,note_on,5,0,1,,,,,,,,0,,,72,106
130195,note_on,115,0,1,,,,,,,,0,,,72,0
130200,note_on,5,0,1,,,,,,,,0,,,74,106
130315,note_on,115,0,1,,,,,,,,0,,,74,0
130320,note_on,5,0,1,,,,,,,,0,,,72,106
130435,note_on,115,0,1,,,,,,,,0,,,72,0
130440,note_on,5,0,1,,,,,,,,0,,,76,106
130555,note_on,115,0,1,,,,,,,,0,,,76,0
130560,note_on,5,0,1,,,,,,,,0,,,74,106
130675,note_on,115,0,1,,,,,,,,0,,,74,0
130680,note_on,5,0,1,,,,,,,,0,,,67,106
130795,note_on,115,0,1,,,,,,,,0,,,67,0
130800,note_on,5,0,1,,,,,,,,0,,,67,106
130915,note_on,115,0,1,,,,,,,,0,,,67,0
130920,note_on,5,0,1,,,,,,,,0,,,74,106
131035,note_on,115,0,1,,,,,,,,0,,,74,0
131040,note_on,5,0,1,,,,,,,,0,,,74,106
131155,note_on,115,0,1,,,,,,,,0,,,74,0
131160,note_on,5,0,1,,,,,,,,0,,,76,106
131275,note_on,115,0,1,,,,,,,,0,,,76,0
131280,note_on,5,0,1,,,,,,,,0,,,74,106
131395,note_on,115,0,1,,,,,,,,0,,,74,0
131400,note_on,5,0,1,,,,,,,,0,,,76,106
131515,note_on,115,0,1,,,,,,,,0,,,76,0
131520,note_on,5,0,1,,,,,,,,0,,,74,106
131635,note_on,115,0,1,,,,,,,,0,,,74,0
131640,note_on,5,0,1,,,,,,,,0,,,67,106
131755,note_on,115,0,1,,,,,,,,0,,,67,0
131760,note_on,5,0,1,,,,,,,,0,,,67,106
131875,note_on,115,0,1,,,,,,,,0,,,67,0
131880,note_on,5,0,1,,,,,,,,0,,,74,106
131995,note_on,115,0,1,,,,,,,,0,,,74,0
132000,note_on,5,0,1,,,,,,,,0,,,74,106
132115,note_on,115,0,1,,,,,,,,0,,,74,0
132120,note_on,5,0,1,,,,,,,,0,,,76,106
132235,note_on,115,0,1,,,,,,,,0,,,76,0
132240,note_on,5,0,1,,,,,,,,0,,,74,106
132355,note_on,115,0,1,,,,,,,,0,,,74,0
132360,note_on,5,0,1,,,,,,,,0,,,77,106
132475,note_on,115,0,1,,,,,,,,0,,,77,0
132480,note_on,5,0,1,,,,,,,,0,,,76,106
132595,note_on,115,0,1,,,,,,,,0,,,76,0
132600,note_on,5,0,1,,,,,,,,0,,,67,106
132715,note_on,115,0,1,,,,,,,,0,,,67,0
132720,note_on,5,0,1,,,,,,,,0,,,67,106
132835,note_on,115,0,1,,,,,,,,0,,,67,0
132840,note_on,5,0,1,,,,,,,,0,,,76,106
132955,note_on,115,0,1,,,,,,,,0,,,76,0
132960,note_on,5,0,1,,,,,,,,0,,,76,106
133075,note_on,115,0,1,,,,,,,,0,,,76,0
133080,note_on,5,0,1,,,,,,,,0,,,77,106
133195,note_on,115,0,1,,,,,,,,0,,,77,0
133200,note_on,5,0,1,,,,,,,,0,,,76,106
133315,note_on,115,0,1,,,,,,,,0,,,76,0
133320,note_on,5,0,1,,,,,,,,0,,,77,106
133435,note_on,115,0,1,,,,,,,,0,,,77,0
133440,note_on,5,0,1,,,,,,,,0,,,76,106
133555,note_on,115,0,1,,,,,,,,0,,,76,0
133560,note_on,5,0,1,,,,,,,,0,,,67,106
133675,note_on,115,0,1,,,,,,,,0,,,67,0
133680,note_on,5,0,1,,,,,,,,0,,,67,106
133795,note_on,115,0,1,,,,,,,,0,,,67,0
133800,note_on,5,0,1,,,,,,,,0,,,76,106
133915,note_on,115,0,1,,,,,,,,0,,,76,0
133920,note_on,5,0,1,,,,,,,,0,,,76,106
134035,note_on,115,0,1,,,,,,,,0,,,76,0
134040,note_on,5,0,1,,,,,,,,0,,,77,106
134155,note_on,115,0,1,,,,,,,,0,,,77,0
134160,note_on,5,0,1,,,,,,,,0,,,76,106
134275,note_on,115,0,1,,,,,,,,0,,,76,0
134280,note_on,5,0,1,,,,,,,,0,,,79,106
134395,note_on,115,0,1,,,,,,,,0,,,79,0
134400,note_on,5,0,1,,,,,,,,0,,,77,106
134515,note_on,115,0,1,,,,,,,,0,,,77,0
134520,note_on,5,0,1,,,,,,,,0,,,67,106
134635,note_on,115,0,1,,,,,,,,0,,,67,0
134640,note_on,5,0,1,,,,,,,,0,,,67,106
134755,note_on,115,0,1,,,,,,,,0,,,67,0
134760,note_on,5,0,1,,,,,,,,0,,,77,106
134875,note_on,115,0,1,,,,,,,,0,,,77,0
134880,note_on,5,0,1,,,,,,,,0,,,77,106
134995,note_on,115,0,1,,,,,,,,0,,,77,0
135000,note_on,5,0,1,,,,,,,,0,,,79,106
135115,note_on,115,0,1,,,,,,,,0,,,79,0
135120,note_on,5,0,1,,,,,,,,0,,,77,106
135235,note_on,115,0,1,,,,,,,,0,,,77,0
135240,note_on,5,0,1,,,,,,,,0,,,79,106
135355,note_on,115,0,1,,,,,,,,0,,,79,0
135360,note_on,5,0,1,,,,,,,,0,,,77,106
135475,note_on,115,0,1,,,,,,,,0,,,77,0
135480,note_on,5,0,1,,,,,,,,0,,,67,106
135595,note_on,115,0,1,,,,,,,,0,,,67,0
135600,note_on,5,0,1,,,,,,,,0,,,67,106
135715,note_on,115,0,1,,,,,,,,0,,,67,0
135720,note_on,5,0,1,,,,,,,,0,,,77,106
135835,note_on,115,0,1,,,,,,,,0,,,77,0
135840,note_on,5,0,1,,,,,,,,0,,,77,106
135955,note_on,115,0,1,,,,,,,,0,,,77,0
135960,note_on,5,0,1,,,,,,,,0,,,79,106
136075,note_on,115,0,1,,,,,,,,0,,,79,0
136080,note_on,5,0,1,,,,,,,,0,,,77,106
136170,note_on,9450,0,5,,,,,,,,4,,,55,0
136170,note_on,9450,0,6,,,,,,,,5,,,43,0
136195,note_on,115,0,1,,,,,,,,0,,,77,0
136200,note_on,5,0,1,,,,,,,,0,,,79,106
136315,note_on,115,0,1,,,,,,,,0,,,79,0
136320,note_on,5,0,1,,,,,,,,0,,,76,106
136320,note_on,150,0,5,,,,,,,,4,,,60,64
136320,note_on,150,0,6,,,,,,,,5,,,48,64
136545,note_on,225,0,5,,,,,,,,4,,,60,0
136545,note_on,225,0,6,,,,,,,,5,,,48,0
136560,note_on,15,0,6,,,,,,,,5,,,47,64
136560,note_on,15,0,5,,,,,,,,4,,,59,64
136765,note_on,445,0,1,,,,,,,,0,,,76,0
136785,note_on,225,0,5,,,,,,,,4,,,59,0
136785,note_on,225,0,6,,,,,,,,5,,,47,0
136800,note_on,15,0,5,,,,,,,,4,,,57,64
136800,note_on,15,0,6,,,,,,,,5,,,45,64
137025,note_on,225,0,5,,,,,,,,4,,,57,0
137025,note_on,225,0,6,,,,,,,,5,,,45,0
137040,note_on,275,0,1,,,,,,,,0,,,83,106
137040,note_on,15,0,5,,,,,,,,4,,,55,64
137040,note_on,15,0,6,,,,,,,,5,,,43,64
137265,note_on,225,0,5,,,,,,,,4,,,55,0
137265,note_on,225,0,6,,,,,,,,5,,,43,0
137265,note_on,225,0,1,,,,,,,,0,,,83,0
137280,note_on,15,0,1,,,,,,,,0,,,84,106
137280,note_on,15,0,6,,,,,,,,5,,,36,64
137280,note_on,15,0,5,,,,,,,,4,,,48,64
137395,note_on,115,0,1,,,,,,,,0,,,84,0
137400,note_on,5,0,1,,,,,,,,0,,,86,106
137515,note_on,115,0,1,,,,,,,,0,,,86,0
137520,note_on,5,0,1,,,,,,,,0,,,83,106
137635,note_on,115,0,1,,,,,,,,0,,,83,0
137640,note_on,5,0,1,,,,,,,,0,,,84,106
137725,note_on,445,0,5,,,,,,,,4,,,48,0
137725,note_on,445,0,6,,,,,,,,5,,,36,0
137755,note_on,115,0,1,,,,,,,,0,,,84,0
137760,note_on,5,0,1,,,,,,,,0,,,81,106
137875,note_on,115,0,1,,,,,,,,0,,,81,0
137880,note_on,5,0,1,,,,,,,,0,,,83,106
137995,note_on,115,0,1,,,,,,,,0,,,83,0
138000,note_on,5,0,1,,,,,,,,0,,,79,106
138115,note_on,115,0,1,,,,,,,,0,,,79,0
138120,note_on,5,0,1,,,,,,,,0,,,81,106
138235,note_on,115,0,1,,,,,,,,0,,,81,0
138240,note_on,5,0,1,,,,,,,,0,,,77,106
138355,note_on,115,0,1,,,,,,,,0,,,77,0
138360,note_on,5,0,1,,,,,,,,0,,,79,106
138475,note_on,115,0,1,,,,,,,,0,,,79,0
138480,note_on,5,0,1,,,,,,,,0,,,76,106
138595,note_on,115,0,1,,,,,,,,0,,,76,0
138600,note_on,5,0,1,,,,,,,,0,,,77,106
138715,note_on,115,0,1,,,,,,,,0,,,77,0
138720,note_on,5,0,1,,,,,,,,0,,,74,106
138835,note_on,115,0,1,,,,,,,,0,,,74,0
138840,note_on,5,0,1,,,,,,,,0,,,76,106
138955,note_on,115,0,1,,,,,,,,0,,,76,0
138960,note_on,5,0,1,,,,,,,,0,,,72,106
139075,note_on,115,0,1,,,,,,,,0,,,72,0
139080,note_on,5,0,1,,,,,,,,0,,,74,106
139195,note_on,115,0,1,,,,,,,,0,,,74,0
139200,note_on,5,0,1,,,,,,,,0,,,71,106
139315,note_on,115,0,1,,,,,,,,0,,,71,0
139320,note_on,5,0,1,,,,,,,,0,,,72,106
139435,note_on,115,0,1,,,,,,,,0,,,72,0
139440,note_on,5,0,1,,,,,,,,0,,,69,106
139555,note_on,115,0,1,,,,,,,,0,,,69,0
139560,note_on,5,0,1,,,,,,,,0,,,71,106
139675,note_on,115,0,1,,,,,,,,0,,,71,0
139680,note_on,5,0,1,,,,,,,,0,,,67,106
139795,note_on,115,0,1,,,,,,,,0,,,67,0
139800,note_on,5,0,1,,,,,,,,0,,,69,106
139915,note_on,115,0,1,,,,,,,,0,,,69,0
139920,note_on,5,0,1,,,,,,,,0,,,65,106
140035,note_on,115,0,1,,,,,,,,0,,,65,0
140040,note_on,5,0,1,,,,,,,,0,,,67,106
140155,note_on,115,0,1,,,,,,,,0,,,67,0
140160,note_on,2435,0,5,,,,,,,,4,,,60,64
140160,note_on,2435,0,6,,,,,,,,5,,,48,64
140160,note_on,5,0,1,,,,,,,,0,,,64,106
140385,note_on,225,0,5,,,,,,,,4,,,60,0
140385,note_on,225,0,6,,,,,,,,5,,,48,0
140400,note_on,15,0,5,,,,,,,,4,,,59,64
140400,note_on,15,0,6,,,,,,,,5,,,47,64
140605,note_on,445,0,1,,,,,,,,0,,,64,0
140625,note_on,225,0,5,,,,,,,,4,,,59,0
140625,note_on,225,0,6,,,,,,,,5,,,47,0
140640,note_on,15,0,5,,,,,,,,4,,,57,64
140640,note_on,15,0,6,,,,,,,,5,,,45,64
140865,note_on,225,0,6,,,,,,,,5,,,45,0
140865,note_on,225,0,5,,,,,,,,4,,,57,0
140880,note_on,15,0,6,,,,,,,,5,,,43,64
140880,note_on,15,0,5,,,,,,,,4,,,55,64
140880,note_on,275,0,1,,,,,,,,0,,,83,106
141105,note_on,225,0,5,,,,,,,,4,,,55,0
141105,note_on,225,0,1,,,,,,,,0,,,83,0
141105,note_on,225,0,6,,,,,,,,5,,,43,0
141120,note_on,15,0,1,,,,,,,,0,,,84,106
141120,note_on,15,0,6,,,,,,,,5,,,45,64
141120,note_on,15,0,5,,,,,,,,4,,,57,64
141345,note_on,225,0,5,,,,,,,,4,,,57,0
141345,note_on,225,0,1,,,,,,,,0,,,84,0
141345,note_on,225,0,6,,,,,,,,5,,,45,0
141360,note_on,15,0,6,,,,,,,,5,,,47,64
141360,note_on,15,0,5,,,,,,,,4,,,59,64
141360,note_on,15,0,1,,,,,,,,0,,,77,106
141585,note_on,225,0,6,,,,,,,,5,,,47,0
141585,note_on,225,0,5,,,,,,,,4,,,59,0
141600,note_on,15,0,5,,,,,,,,4,,,60,64
141600,note_on,15,0,6,,,,,,,,5,,,48,64
141805,note_on,445,0,1,,,,,,,,0,,,77,0
141825,note_on,225,0,5,,,,,,,,4,,,60,0
141825,note_on,225,0,6,,,,,,,,5,,,48,0
141840,note_on,35,0,1,,,,,,,,0,,,76,106
141840,note_on,15,0,6,,,,,,,,5,,,36,64
141840,note_on,15,0,5,,,,,,,,4,,,48,64
142065,note_on,225,0,6,,,,,,,,5,,,36,0
142065,note_on,225,0,1,,,,,,,,0,,,76,0
142065,note_on,225,0,5,,,,,,,,4,,,48,0
142080,note_on,15,0,1,,,,,,,,0,,,77,106
142080,note_on,15,0,6,,,,,,,,5,,,43,64
142080,note_on,15,0,5,,,,,,,,4,,,55,64
142140,note_on,60,0,1,,,,,,,,0,,,77,0
142140,note_on,0,0,1,,,,,,,,0,,,76,106
142200,note_on,60,0,1,,,,,,,,0,,,76,0
142200,note_on,0,0,1,,,,,,,,0,,,77,106
142260,note_on,60,0,1,,,,,,,,0,,,77,0
142260,note_on,0,0,1,,,,,,,,0,,,76,106
142305,note_on,225,0,5,,,,,,,,4,,,55,0
142305,note_on,225,0,6,,,,,,,,5,,,43,0
142320,note_on,60,0,1,,,,,,,,0,,,76,0
142320,note_on,0,0,1,,,,,,,,0,,,74,106
142320,note_on,15,0,5,,,,,,,,4,,,57,64
142320,note_on,15,0,6,,,,,,,,5,,,45,64
142545,note_on,225,0,6,,,,,,,,5,,,45,0
142545,note_on,225,0,5,,,,,,,,4,,,57,0
142560,note_on,15,0,6,,,,,,,,5,,,47,64
142560,note_on,15,0,5,,,,,,,,4,,,59,64
142765,note_on,445,0,1,,,,,,,,0,,,74,0
142785,note_on,225,0,6,,,,,,,,5,,,47,0
142785,note_on,225,0,5,,,,,,,,4,,,59,0
142800,note_on,35,0,1,,,,,,,,0,,,83,106
142800,note_on,15,0,6,,,,,,,,5,,,43,64
142800,note_on,15,0,5,,,,,,,,4,,,55,64
143025,note_on,225,0,5,,,,,,,,4,,,55,0
143025,note_on,225,0,6,,,,,,,,5,,,43,0
143025,note_on,225,0,1,,,,,,,,0,,,83,0
143040,note_on,15,0,5,,,,,,,,4,,,57,64
143040,note_on,15,0,1,,,,,,,,0,,,84,106
143040,note_on,15,0,6,,,,,,,,5,,,45,64
143265,note_on,225,0,1,,,,,,,,0,,,84,0
143265,note_on,225,0,5,,,,,,,,4,,,57,0
143265,note_on,225,0,6,,,,,,,,5,,,45,0
143280,note_on,15,0,5,,,,,,,,4,,,59,64
143280,note_on,15,0,1,,,,,,,,0,,,77,106
143280,note_on,15,0,6,,,,,,,,5,,,47,64
143505,note_on,225,0,6,,,,,,,,5,,,47,0
143505,note_on,225,0,5,,,,,,,,4,,,59,0
143520,note_on,15,0,6,,,,,,,,5,,,48,64
143520,note_on,15,0,5,,,,,,,,4,,,60,64
143725,note_on,445,0,1,,,,,,,,0,,,77,0
143745,note_on,225,0,5,,,,,,,,4,,,60,0
143745,note_on,225,0,6,,,,,,,,5,,,48,0
143760,note_on,15,0,6,,,,,,,,5,,,36,64
143760,note_on,15,0,5,,,,,,,,4,,,48,64
143760,note_on,35,0,1,,,,,,,,0,,,76,106
143985,note_on,225,0,5,,,,,,,,4,,,48,0
143985,note_on,225,0,1,,,,,,,,0,,,76,0
143985,note_on,225,0,6,,,,,,,,5,,,36,0
144000,note_on,15,0,6,,,,,,,,5,,,43,64
144000,note_on,15,0,5,,,,,,,,4,,,55,64
144000,note_on,15,0,1,,,,,,,,0,,,77,106
144060,note_on,60,0,1,,,,,,,,0,,,77,0
144060,note_on,0,0,1,,,,,,,,0,,,76,106
144120,note_on,60,0,1,,,,,,,,0,,,76,0
144120,note_on,0,0,1,,,,,,,,0,,,77,106
144180,note_on,60,0,1,,,,,,,,0,,,77,0
144180,note_on,0,0,1,,,,,,,,0,,,76,106
144225,note_on,225,0,6,,,,,,,,5,,,43,0
144225,note_on,225,0,5,,,,,,,,4,,,55,0
144240,note_on,0,0,1,,,,,,,,0,,,74,106
144240,note_on,15,0,6,,,,,,,,5,,,45,64
144240,note_on,15,0,5,,,,,,,,4,,,57,64
144240,note_on,60,0,1,,,,,,,,0,,,76,0
144465,note_on,225,0,6,,,,,,,,5,,,45,0
144465,note_on,225,0,5,,,,,,,,4,,,57,0
144480,note_on,15,0,5,,,,,,,,4,,,59,64
144480,note_on,15,0,6,,,,,,,,5,,,47,64
144685,note_on,445,0,1,,,,,,,,0,,,74,0
144705,note_on,225,0,5,,,,,,,,4,,,59,0
144705,note_on,225,0,6,,,,,,,,5,,,47,0
144720,note_on,15,0,5,,,,,,,,4,,,55,64
144720,note_on,35,0,1,,,,,,,,0,,,83,106
144720,note_on,15,0,6,,,,,,,,5,,,43,64
144945,note_on,225,0,5,,,,,,,,4,,,55,0
144945,note_on,225,0,1,,,,,,,,0,,,83,0
144945,note_on,225,0,6,,,,,,,,5,,,43,0
144960,note_on,15,0,5,,,,,,,,4,,,52,64
144960,note_on,15,0,1,,,,,,,,0,,,84,106
144960,note_on,15,0,6,,,,,,,,5,,,40,64
145185,note_on,225,0,6,,,,,,,,5,,,40,0
145185,note_on,225,0,1,,,,,,,,0,,,84,0
145185,note_on,225,0,5,,,,,,,,4,,,52,0
145200,note_on,15,0,5,,,,,,,,4,,,48,64
145200,note_on,15,0,1,,,,,,,,0,,,72,106
145200,note_on,15,0,6,,,,,,,,5,,,36,64
145425,note_on,225,0,6,,,,,,,,5,,,36,0
145425,note_on,225,0,5,,,,,,,,4,,,48,0
145425,note_on,225,0,1,,,,,,,,0,,,72,0
145440,note_on,15,0,5,,,,,,,,4,,,55,64
145440,note_on,15,0,1,,,,,,,,0,,,76,106
145440,note_on,15,0,6,,,,,,,,5,,,43,64
145500,note_on,0,0,1,,,,,,,,0,,,74,106
145500,note_on,60,0,1,,,,,,,,0,,,76,0
145560,note_on,60,0,1,,,,,,,,0,,,74,0
145560,note_on,0,0,1,,,,,,,,0,,,76,106
145620,note_on,60,0,1,,,,,,,,0,,,76,0
145620,note_on,0,0,1,,,,,,,,0,,,74,106
145665,note_on,225,0,5,,,,,,,,4,,,55,0
145665,note_on,225,0,6,,,,,,,,5,,,43,0
145680,note_on,15,0,6,,,,,,,,5,,,31,64
145680,note_on,15,0,5,,,,,,,,4,,,43,64
145905,note_on,225,0,6,,,,,,,,5,,,31,0
145905,note_on,285,0,1,,,,,,,,0,,,74,0
145905,note_on,225,0,5,,,,,,,,4,,,43,0
145920,note_on,15,0,5,,,,,,,,4,,,52,80
145920,note_on,15,0,6,,,,,,,,5,,,40,80
145920,note_on,18755,0,4,,,,,,,,3,,,64,80
145920,note_on,15,0,1,,,,,,,,0,,,72,80
145920,note_on,18755,0,2,,,,,,,,1,,,72,80
145920,note_on,18755,0,3,,,,,,,,2,,,79,80
146160,note_on,240,0,4,,,,,,,,3,,,64,0
146160,note_on,0,0,4,,,,,,,,3,,,62,64
146160,note_on,240,0,1,,,,,,,,0,,,72,0
146160,note_on,0,0,1,,,,,,,,0,,,70,64
146160,note_on,0,0,3,,,,,,,,2,,,79,64
146160,note_on,0,0,5,,,,,,,,4,,,50,64
146160,note_on,240,0,6,,,,,,,,5,,,40,0
146160,note_on,240,0,3,,,,,,,,2,,,79,0
146160,note_on,0,0,2,,,,,,,,1,,,70,64
146160,note_on,240,0,5,,,,,,,,4,,,52,0
146160,note_on,0,0,6,,,,,,,,5,,,38,64
146160,note_on,240,0,2,,,,,,,,1,,,72,0
146385,note_on,225,0,4,,,,,,,,3,,,62,0
146385,note_on,225,0,5,,,,,,,,4,,,50,0
146385,note_on,225,0,6,,,,,,,,5,,,38,0
146400,note_on,15,0,4,,,,,,,,3,,,64,64
146400,note_on,15,0,5,,,,,,,,4,,,52,64
146400,note_on,15,0,6,,,,,,,,5,,,40,64
146605,note_on,445,0,3,,,,,,,,2,,,79,0
146605,note_on,445,0,1,,,,,,,,0,,,70,0
146605,note_on,445,0,2,,,,,,,,1,,,70,0
146625,note_on,225,0,5,,,,,,,,4,,,52,0
146625,note_on,225,0,6,,,,,,,,5,,,40,0
146625,note_on,225,0,4,,,,,,,,3,,,64,0
146640,note_on,15,0,5,,,,,,,,4,,,48,64
146640,note_on,15,0,4,,,,,,,,3,,,60,64
146640,note_on,35,0,1,,,,,,,,0,,,70,64
146640,note_on,35,0,2,,,,,,,,1,,,70,64
146640,note_on,15,0,6,,,,,,,,5,,,36,64
146640,note_on,35,0,3,,,,,,,,2,,,76,64
146865,note_on,225,0,4,,,,,,,,3,,,60,0
146865,note_on,225,0,2,,,,,,,,1,,,70,0
146865,note_on,225,0,5,,,,,,,,4,,,48,0
146865,note_on,225,0,1,,,,,,,,0,,,70,0
146865,note_on,225,0,3,,,,,,,,2,,,76,0
146865,note_on,225,0,6,,,,,,,,5,,,36,0
146880,note_on,15,0,1,,,,,,,,0,,,70,80
146880,note_on,15,0,3,,,,,,,,2,,,72,80
146880,note_on,15,0,5,,,,,,,,4,,,53,80
146880,note_on,15,0,4,,,,,,,,3,,,65,80
146880,note_on,15,0,6,,,,,,,,5,,,41,80
146880,note_on,15,0,2,,,,,,,,1,,,70,80
147120,note_on,0,0,1,,,,,,,,0,,,69,64
147120,note_on,240,0,4,,,,,,,,3,,,65,0
147120,note_on,240,0,1,,,,,,,,0,,,70,0
147120,note_on,0,0,6,,,,,,,,5,,,43,64
147120,note_on,240,0,6,,,,,,,,5,,,41,0
147120,note_on,0,0,3,,,,,,,,2,,,72,64
147120,note_on,240,0,5,,,,,,,,4,,,53,0
147120,note_on,240,0,2,,,,,,,,1,,,70,0
147120,note_on,240,0,3,,,,,,,,2,,,72,0
147120,note_on,0,0,2,,,,,,,,1,,,69,64
147120,note_on,0,0,5,,,,,,,,4,,,55,64
147120,note_on,0,0,4,,,,,,,,3,,,67,64
147345,note_on,225,0,5,,,,,,,,4,,,55,0
147345,note_on,225,0,4,,,,,,,,3,,,67,0
147345,note_on,225,0,6,,,,,,,,5,,,43,0
147360,note_on,15,0,4,,,,,,,,3,,,69,64
147360,note_on,15,0,6,,,,,,,,5,,,45,64
147360,note_on,15,0,5,,,,,,,,4,,,57,64
147565,note_on,445,0,1,,,,,,,,0,,,69,0
147565,note_on,445,0,2,,,,,,,,1,,,69,0
147565,note_on,445,0,3,,,,,,,,2,,,72,0
147585,note_on,225,0,5,,,,,,,,4,,,57,0
147585,note_on,225,0,4,,,,,,,,3,,,69,0
147585,note_on,225,0,6,,,,,,,,5,,,45,0
147600,note_on,15,0,6,,,,,,,,5,,,43,85
147600,note_on,15,0,4,,,,,,,,3,,,67,64
147600,note_on,35,0,2,,,,,,,,1,,,65,64
147600,note_on,35,0,1,,,,,,,,0,,,65,64
147600,note_on,15,0,5,,,,,,,,4,,,55,85
147600,note_on,35,0,3,,,,,,,,2,,,81,64
147825,note_on,225,0,5,,,,,,,,4,,,55,0
147825,note_on,225,0,2,,,,,,,,1,,,65,0
147825,note_on,225,0,6,,,,,,,,5,,,43,0
147825,note_on,225,0,4,,,,,,,,3,,,67,0
147825,note_on,225,0,3,,,,,,,,2,,,81,0
147825,note_on,225,0,1,,,,,,,,0,,,65,0
147840,note_on,15,0,1,,,,,,,,0,,,74,80
147840,note_on,15,0,2,,,,,,,,1,,,74,80
147840,note_on,15,0,5,,,,,,,,4,,,54,101
147840,note_on,15,0,6,,,,,,,,5,,,42,101
147840,note_on,15,0,3,,,,,,,,2,,,81,80
147840,note_on,15,0,4,,,,,,,,3,,,66,80
148080,note_on,240,0,2,,,,,,,,1,,,74,0
148080,note_on,0,0,1,,,,,,,,0,,,72,64
148080,note_on,240,0,1,,,,,,,,0,,,74,0
148080,note_on,0,0,4,,,,,,,,3,,,64,85
148080,note_on,240,0,5,,,,,,,,4,,,54,0
148080,note_on,0,0,5,,,,,,,,4,,,52,85
148080,note_on,240,0,3,,,,,,,,2,,,81,0
148080,note_on,0,0,3,,,,,,,,2,,,81,64
148080,note_on,0,0,6,,,,,,,,5,,,40,85
148080,note_on,240,0,6,,,,,,,,5,,,42,0
148080,note_on,0,0,2,,,,,,,,1,,,72,64
148080,note_on,240,0,4,,,,,,,,3,,,66,0
148305,note_on,225,0,6,,,,,,,,5,,,40,0
148305,note_on,225,0,4,,,,,,,,3,,,64,0
148305,note_on,225,0,5,,,,,,,,4,,,52,0
148320,note_on,15,0,6,,,,,,,,5,,,42,85
148320,note_on,15,0,4,,,,,,,,3,,,66,85
148320,note_on,15,0,5,,,,,,,,4,,,54,85
148525,note_on,445,0,2,,,,,,,,1,,,72,0
148525,note_on,445,0,3,,,,,,,,2,,,81,0
148525,note_on,445,0,1,,,,,,,,0,,,72,0
148545,note_on,225,0,5,,,,,,,,4,,,54,0
148545,note_on,225,0,4,,,,,,,,3,,,66,0
148545,note_on,225,0,6,,,,,,,,5,,,42,0
148560,note_on,15,0,5,,,,,,,,4,,,50,85
148560,note_on,15,0,4,,,,,,,,3,,,62,85
148560,note_on,35,0,1,,,,,,,,0,,,72,64
148560,note_on,15,0,6,,,,,,,,5,,,38,85
148560,note_on,35,0,2,,,,,,,,1,,,72,64
148560,note_on,35,0,3,,,,,,,,2,,,78,85
148785,note_on,225,0,1,,,,,,,,0,,,72,0
148785,note_on,225,0,3,,,,,,,,2,,,78,0
148785,note_on,225,0,6,,,,,,,,5,,,38,0
148785,note_on,225,0,4,,,,,,,,3,,,62,0
148785,note_on,225,0,5,,,,,,,,4,,,50,0
148785,note_on,225,0,2,,,,,,,,1,,,72,0
148800,note_on,15,0,1,,,,,,,,0,,,72,80
148800,note_on,15,0,3,,,,,,,,2,,,74,101
148800,note_on,15,0,4,,,,,,,,3,,,67,101
148800,note_on,15,0,6,,,,,,,,5,,,43,101
148800,note_on,15,0,2,,,,,,,,1,,,72,80
148800,note_on,15,0,5,,,,,,,,4,,,55,101
149040,note_on,0,0,4,,,,,,,,3,,,69,85
149040,note_on,240,0,4,,,,,,,,3,,,67,0
149040,note_on,240,0,5,,,,,,,,4,,,55,0
149040,note_on,0,0,5,,,,,,,,4,,,57,85
149040,note_on,0,0,2,,,,,,,,1,,,71,85
149040,note_on,0,0,3,,,,,,,,2,,,74,85
149040,note_on,240,0,3,,,,,,,,2,,,74,0
149040,note_on,240,0,6,,,,,,,,5,,,43,0
149040,note_on,240,0,1,,,,,,,,0,,,72,0
149040,note_on,0,0,1,,,,,,,,0,,,71,64
149040,note_on,240,0,2,,,,,,,,1,,,72,0
149040,note_on,0,0,6,,,,,,,,5,,,45,85
149265,note_on,225,0,5,,,,,,,,4,,,57,0
149265,note_on,225,0,4,,,,,,,,3,,,69,0
149265,note_on,225,0,6,,,,,,,,5,,,45,0
149280,note_on,15,0,6,,,,,,,,5,,,47,85
149280,note_on,15,0,5,,,,,,,,4,,,59,85
149280,note_on,15,0,4,,,,,,,,3,,,71,85
149485,note_on,445,0,1,,,,,,,,0,,,71,0
149485,note_on,445,0,2,,,,,,,,1,,,71,0
149485,note_on,445,0,3,,,,,,,,2,,,74,0
149505,note_on,225,0,6,,,,,,,,5,,,47,0
149505,note_on,225,0,5,,,,,,,,4,,,59,0
149505,note_on,225,0,4,,,,,,,,3,,,71,0
149520,note_on,15,0,6,,,,,,,,5,,,45,85
149520,note_on,35,0,2,,,,,,,,1,,,67,85
149520,note_on,35,0,3,,,,,,,,2,,,83,85
149520,note_on,35,0,1,,,,,,,,0,,,67,85
149520,note_on,15,0,4,,,,,,,,3,,,69,85
149520,note_on,15,0,5,,,,,,,,4,,,57,85
149745,note_on,225,0,2,,,,,,,,1,,,67,0
149745,note_on,225,0,1,,,,,,,,0,,,67,0
149745,note_on,225,0,5,,,,,,,,4,,,57,0
149745,note_on,225,0,4,,,,,,,,3,,,69,0
149745,note_on,225,0,6,,,,,,,,5,,,45,0
149745,note_on,225,0,3,,,,,,,,2,,,83,0
149760,note_on,15,0,2,,,,,,,,1,,,76,101
149760,note_on,15,0,6,,,,,,,,5,,,44,101
149760,note_on,15,0,4,,,,,,,,3,,,68,101
149760,note_on,15,0,5,,,,,,,,4,,,56,101
149760,note_on,15,0,3,,,,,,,,2,,,83,101
149760,note_on,15,0,1,,,,,,,,0,,,76,101
150000,note_on,240,0,1,,,,,,,,0,,,76,0
150000,note_on,0,0,4,,,,,,,,3,,,66,85
150000,note_on,240,0,4,,,,,,,,3,,,68,0
150000,note_on,240,0,5,,,,,,,,4,,,56,0
150000,note_on,0,0,5,,,,,,,,4,,,54,85
150000,note_on,240,0,2,,,,,,,,1,,,76,0
150000,note_on,0,0,2,,,,,,,,1,,,74,85
150000,note_on,0,0,6,,,,,,,,5,,,42,85
150000,note_on,0,0,3,,,,,,,,2,,,83,85
150000,note_on,240,0,6,,,,,,,,5,,,44,0
150000,note_on,240,0,3,,,,,,,,2,,,83,0
150000,note_on,0,0,1,,,,,,,,0,,,74,85
150225,note_on,225,0,6,,,,,,,,5,,,42,0
150225,note_on,225,0,4,,,,,,,,3,,,66,0
150225,note_on,225,0,5,,,,,,,,4,,,54,0
150240,note_on,15,0,5,,,,,,,,4,,,56,85
150240,note_on,15,0,4,,,,,,,,3,,,68,85
150240,note_on,15,0,6,,,,,,,,5,,,44,85
150445,note_on,445,0,1,,,,,,,,0,,,74,0
150445,note_on,445,0,2,,,,,,,,1,,,74,0
150445,note_on,445,0,3,,,,,,,,2,,,83,0
150465,note_on,225,0,6,,,,,,,,5,,,44,0
150465,note_on,225,0,4,,,,,,,,3,,,68,0
150465,note_on,225,0,5,,,,,,,,4,,,56,0
150480,note_on,35,0,2,,,,,,,,1,,,74,85
150480,note_on,15,0,6,,,,,,,,5,,,40,85
150480,note_on,35,0,1,,,,,,,,0,,,74,85
150480,note_on,35,0,3,,,,,,,,2,,,80,85
150480,note_on,15,0,4,,,,,,,,3,,,64,85
150480,note_on,15,0,5,,,,,,,,4,,,52,85
150705,note_on,225,0,5,,,,,,,,4,,,52,0
150705,note_on,225,0,4,,,,,,,,3,,,64,0
150705,note_on,225,0,6,,,,,,,,5,,,40,0
150705,note_on,225,0,2,,,,,,,,1,,,74,0
150705,note_on,225,0,3,,,,,,,,2,,,80,0
150705,note_on,225,0,1,,,,,,,,0,,,74,0
150720,note_on,15,0,2,,,,,,,,1,,,74,101
150720,note_on,15,0,1,,,,,,,,0,,,74,101
150720,note_on,15,0,4,,,,,,,,3,,,69,101
150720,note_on,15,0,3,,,,,,,,2,,,76,101
150720,note_on,15,0,5,,,,,,,,4,,,57,101
150720,note_on,15,0,6,,,,,,,,5,,,45,101
150960,note_on,0,0,2,,,,,,,,1,,,72,85
150960,note_on,0,0,6,,,,,,,,5,,,47,85
150960,note_on,240,0,6,,,,,,,,5,,,45,0
150960,note_on,240,0,2,,,,,,,,1,,,74,0
150960,note_on,0,0,5,,,,,,,,4,,,59,85
150960,note_on,240,0,1,,,,,,,,0,,,74,0
150960,note_on,0,0,1,,,,,,,,0,,,72,85
150960,note_on,240,0,5,,,,,,,,4,,,57,0
150960,note_on,240,0,4,,,,,,,,3,,,69,0
150960,note_on,0,0,4,,,,,,,,3,,,71,85
150960,note_on,0,0,3,,,,,,,,2,,,76,85
150960,note_on,240,0,3,,,,,,,,2,,,76,0
151185,note_on,225,0,6,,,,,,,,5,,,47,0
151185,note_on,225,0,5,,,,,,,,4,,,59,0
151185,note_on,225,0,4,,,,,,,,3,,,71,0
151200,note_on,15,0,4,,,,,,,,3,,,72,85
151200,note_on,15,0,6,,,,,,,,5,,,48,85
151200,note_on,15,0,5,,,,,,,,4,,,60,85
151405,note_on,445,0,1,,,,,,,,0,,,72,0
151405,note_on,445,0,3,,,,,,,,2,,,76,0
151405,note_on,445,0,2,,,,,,,,1,,,72,0
151425,note_on,225,0,4,,,,,,,,3,,,72,0
151425,note_on,225,0,5,,,,,,,,4,,,60,0
151425,note_on,225,0,6,,,,,,,,5,,,48,0
151440,note_on,15,0,4,,,,,,,,3,,,71,85
151440,note_on,15,0,6,,,,,,,,5,,,47,85
151440,note_on,35,0,2,,,,,,,,1,,,69,85
151440,note_on,35,0,3,,,,,,,,2,,,81,85
151440,note_on,35,0,1,,,,,,,,0,,,69,85
151440,note_on,15,0,5,,,,,,,,4,,,59,85
151665,note_on,225,0,4,,,,,,,,3,,,71,0
151665,note_on,225,0,5,,,,,,,,4,,,59,0
151665,note_on,225,0,3,,,,,,,,2,,,81,0
151665,note_on,225,0,2,,,,,,,,1,,,69,0
151665,note_on,225,0,1,,,,,,,,0,,,69,0
151665,note_on,225,0,6,,,,,,,,5,,,47,0
151680,note_on,15,0,4,,,,,,,,3,,,69,101
151680,note_on,15,0,3,,,,,,,,2,,,84,101
151680,note_on,15,0,2,,,,,,,,1,,,77,101
151680,note_on,15,0,5,,,,,,,,4,,,57,101
151680,note_on,15,0,6,,,,,,,,5,,,45,101
151680,note_on,15,0,1,,,,,,,,0,,,77,101
151920,note_on,240,0,1,,,,,,,,0,,,77,0
151920,note_on,0,0,6,,,,,,,,5,,,43,85
151920,note_on,240,0,2,,,,,,,,1,,,77,0
151920,note_on,0,0,2,,,,,,,,1,,,76,85
151920,note_on,0,0,1,,,,,,,,0,,,76,85
151920,note_on,240,0,5,,,,,,,,4,,,57,0
151920,note_on,240,0,4,,,,,,,,3,,,69,0
151920,note_on,240,0,6,,,,,,,,5,,,45,0
151920,note_on,0,0,3,,,,,,,,2,,,84,85
151920,note_on,240,0,3,,,,,,,,2,,,84,0
151920,note_on,0,0,5,,,,,,,,4,,,55,85
151920,note_on,0,0,4,,,,,,,,3,,,67,85
152145,note_on,225,0,4,,,,,,,,3,,,67,0
152145,note_on,225,0,6,,,,,,,,5,,,43,0
152145,note_on,225,0,5,,,,,,,,4,,,55,0
152160,note_on,15,0,4,,,,,,,,3,,,69,85
152160,note_on,15,0,6,,,,,,,,5,,,45,85
152160,note_on,15,0,5,,,,,,,,4,,,57,85
152365,note_on,445,0,3,,,,,,,,2,,,84,0
152365,note_on,445,0,1,,,,,,,,0,,,76,0
152365,note_on,445,0,2,,,,,,,,1,,,76,0
152385,note_on,225,0,4,,,,,,,,3,,,69,0
152385,note_on,225,0,5,,,,,,,,4,,,57,0
152385,note_on,225,0,6,,,,,,,,5,,,45,0
152400,note_on,15,0,6,,,,,,,,5,,,41,85
152400,note_on,15,0,5,,,,,,,,4,,,53,85
152400,note_on,35,0,3,,,,,,,,2,,,81,85
152400,note_on,35,0,1,,,,,,,,0,,,76,85
152400,note_on,15,0,4,,,,,,,,3,,,65,85
152400,note_on,35,0,2,,,,,,,,1,,,76,85
152625,note_on,225,0,3,,,,,,,,2,,,81,0
152625,note_on,225,0,4,,,,,,,,3,,,65,0
152625,note_on,225,0,5,,,,,,,,4,,,53,0
152625,note_on,225,0,6,,,,,,,,5,,,41,0
152625,note_on,225,0,2,,,,,,,,1,,,76,0
152625,note_on,225,0,1,,,,,,,,0,,,76,0
152640,note_on,15,0,1,,,,,,,,0,,,76,101
152640,note_on,15,0,2,,,,,,,,1,,,76,101
152640,note_on,15,0,3,,,,,,,,2,,,77,101
152640,note_on,15,0,4,,,,,,,,3,,,71,101
152640,note_on,15,0,5,,,,,,,,4,,,59,101
152640,note_on,15,0,6,,,,,,,,5,,,47,101
152880,note_on,240,0,2,,,,,,,,1,,,76,0
152880,note_on,0,0,3,,,,,,,,2,,,77,85
152880,note_on,240,0,3,,,,,,,,2,,,77,0
152880,note_on,240,0,4,,,,,,,,3,,,71,0
152880,note_on,0,0,4,,,,,,,,3,,,72,85
152880,note_on,240,0,6,,,,,,,,5,,,47,0
152880,note_on,0,0,6,,,,,,,,5,,,48,85
152880,note_on,0,0,5,,,,,,,,4,,,60,85
152880,note_on,240,0,5,,,,,,,,4,,,59,0
152880,note_on,240,0,1,,,,,,,,0,,,76,0
152880,note_on,0,0,1,,,,,,,,0,,,74,85
152880,note_on,0,0,2,,,,,,,,1,,,74,85
153105,note_on,225,0,4,,,,,,,,3,,,72,0
153105,note_on,225,0,6,,,,,,,,5,,,48,0
153105,note_on,225,0,5,,,,,,,,4,,,60,0
153120,note_on,15,0,5,,,,,,,,4,,,62,85
153120,note_on,15,0,6,,,,,,,,5,,,50,85
153120,note_on,15,0,4,,,,,,,,3,,,74,85
153325,note_on,445,0,1,,,,,,,,0,,,74,0
153325,note_on,445,0,3,,,,,,,,2,,,77,0
153325,note_on,445,0,2,,,,,,,,1,,,74,0
153345,note_on,225,0,5,,,,,,,,4,,,62,0
153345,note_on,225,0,4,,,,,,,,3,,,74,0
153345,note_on,225,0,6,,,,,,,,5,,,50,0
153360,note_on,15,0,4,,,,,,,,3,,,72,85
153360,note_on,35,0,2,,,,,,,,1,,,71,85
153360,note_on,35,0,3,,,,,,,,2,,,86,85
153360,note_on,35,0,1,,,,,,,,0,,,71,85
153360,note_on,15,0,5,,,,,,,,4,,,60,85
153360,note_on,15,0,6,,,,,,,,5,,,48,85
153585,note_on,225,0,6,,,,,,,,5,,,48,0
153585,note_on,225,0,4,,,,,,,,3,,,72,0
153585,note_on,225,0,1,,,,,,,,0,,,71,0
153585,note_on,225,0,3,,,,,,,,2,,,86,0
153585,note_on,225,0,2,,,,,,,,1,,,71,0
153585,note_on,225,0,5,,,,,,,,4,,,60,0
153600,note_on,15,0,5,,,,,,,,4,,,59,101
153600,note_on,15,0,2,,,,,,,,1,,,79,101
153600,note_on,15,0,4,,,,,,,,3,,,71,101
153600,note_on,15,0,3,,,,,,,,2,,,86,101
153600,note_on,15,0,6,,,,,,,,5,,,47,101
153600,note_on,15,0,1,,,,,,,,0,,,79,101
153840,note_on,240,0,2,,,,,,,,1,,,79,0
153840,note_on,240,0,6,,,,,,,,5,,,47,0
153840,note_on,0,0,6,,,,,,,,5,,,45,85
153840,note_on,0,0,4,,,,,,,,3,,,69,85
153840,note_on,240,0,1,,,,,,,,0,,,79,0
153840,note_on,0,0,2,,,,,,,,1,,,77,85
153840,note_on,0,0,1,,,,,,,,0,,,77,85
153840,note_on,240,0,3,,,,,,,,2,,,86,0
153840,note_on,0,0,3,,,,,,,,2,,,86,85
153840,note_on,240,0,4,,,,,,,,3,,,71,0
153840,note_on,240,0,5,,,,,,,,4,,,59,0
153840,note_on,0,0,5,,,,,,,,4,,,57,85
154065,note_on,225,0,6,,,,,,,,5,,,45,0
154065,note_on,225,0,5,,,,,,,,4,,,57,0
154065,note_on,225,0,4,,,,,,,,3,,,69,0
154080,note_on,15,0,6,,,,,,,,5,,,47,85
154080,note_on,15,0,4,,,,,,,,3,,,71,85
154080,note_on,15,0,5,,,,,,,,4,,,59,85
154285,note_on,445,0,2,,,,,,,,1,,,77,0
154285,note_on,445,0,3,,,,,,,,2,,,86,0
154285,note_on,445,0,1,,,,,,,,0,,,77,0
154305,note_on,225,0,5,,,,,,,,4,,,59,0
154305,note_on,225,0,6,,,,,,,,5,,,47,0
154305,note_on,225,0,4,,,,,,,,3,,,71,0
154320,note_on,15,0,6,,,,,,,,5,,,43,85
154320,note_on,35,0,1,,,,,,,,0,,,77,85
154320,note_on,15,0,4,,,,,,,,3,,,67,85
154320,note_on,35,0,2,,,,,,,,1,,,77,85
154320,note_on,15,0,5,,,,,,,,4,,,55,85
154320,note_on,35,0,3,,,,,,,,2,,,83,85
154545,note_on,225,0,4,,,,,,,,3,,,67,0
154545,note_on,225,0,2,,,,,,,,1,,,77,0
154545,note_on,225,0,3,,,,,,,,2,,,83,0
154545,note_on,225,0,5,,,,,,,,4,,,55,0
154545,note_on,225,0,6,,,,,,,,5,,,43,0
154545,note_on,225,0,1,,,,,,,,0,,,77,0
154560,note_on,15,0,3,,,,,,,,2,,,79,101
154560,note_on,15,0,2,,,,,,,,1,,,77,101
154560,note_on,15,0,1,,,,,,,,0,,,77,101
154560,note_on,15,0,6,,,,,,,,5,,,48,101
154560,note_on,15,0,4,,,,,,,,3,,,72,101
154560,note_on,15,0,5,,,,,,,,4,,,60,101
154800,note_on,0,0,5,,,,,,,,4,,,59,85
154800,note_on,0,0,6,,,,,,,,5,,,47,85
154800,note_on,240,0,1,,,,,,,,0,,,77,0
154800,note_on,0,0,1,,,,,,,,0,,,76,85
154800,note_on,240,0,3,,,,,,,,2,,,79,0
154800,note_on,0,0,3,,,,,,,,2,,,79,85
154800,note_on,0,0,2,,,,,,,,1,,,76,85
154800,note_on,240,0,6,,,,,,,,5,,,48,0
154800,note_on,240,0,5,,,,,,,,4,,,60,0
154800,note_on,240,0,4,,,,,,,,3,,,72,0
154800,note_on,0,0,4,,,,,,,,3,,,71,85
154800,note_on,240,0,2,,,,,,,,1,,,77,0
155025,note_on,225,0,4,,,,,,,,3,,,71,0
155025,note_on,225,0,5,,,,,,,,4,,,59,0
155025,note_on,225,0,6,,,,,,,,5,,,47,0
155040,note_on,15,0,4,,,,,,,,3,,,72,85
155040,note_on,15,0,5,,,,,,,,4,,,60,85
155040,note_on,15,0,6,,,,,,,,5,,,48,85
155245,note_on,445,0,2,,,,,,,,1,,,76,0
155245,note_on,445,0,3,,,,,,,,2,,,79,0
155245,note_on,445,0,1,,,,,,,,0,,,76,0
155265,note_on,225,0,4,,,,,,,,3,,,72,0
155265,note_on,225,0,5,,,,,,,,4,,,60,0
155265,note_on,225,0,6,,,,,,,,5,,,48,0
155280,note_on,35,0,1,,,,,,,,0,,,79,85
155280,note_on,35,0,2,,,,,,,,1,,,79,85
155280,note_on,15,0,4,,,,,,,,3,,,60,85
155280,note_on,15,0,5,,,,,,,,4,,,48,85
155280,note_on,35,0,3,,,,,,,,2,,,76,85
155280,note_on,15,0,6,,,,,,,,5,,,36,85
155505,note_on,225,0,6,,,,,,,,5,,,36,0
155505,note_on,225,0,5,,,,,,,,4,,,48,0
155505,note_on,225,0,2,,,,,,,,1,,,79,0
155505,note_on,225,0,4,,,,,,,,3,,,60,0
155505,note_on,225,0,1,,,,,,,,0,,,79,0
155505,note_on,225,0,3,,,,,,,,2,,,76,0
155520,note_on,15,0,1,,,,,,,,0,,,84,101
155520,note_on,15,0,4,,,,,,,,3,,,64,101
155520,note_on,15,0,6,,,,,,,,5,,,36,101
155520,note_on,15,0,2,,,,,,,,1,,,84,101
155520,note_on,15,0,5,,,,,,,,4,,,48,101
155520,note_on,15,0,3,,,,,,,,2,,,79,101
155760,note_on,0,0,5,,,,,,,,4,,,53,85
155760,note_on,240,0,4,,,,,,,,3,,,64,0
155760,note_on,0,0,4,,,,,,,,3,,,57,85
155760,note_on,0,0,3,,,,,,,,2,,,64,85
155760,note_on,240,0,3,,,,,,,,2,,,79,0
155760,note_on,0,0,2,,,,,,,,1,,,72,85
155760,note_on,0,0,6,,,,,,,,5,,,41,85
155760,note_on,240,0,6,,,,,,,,5,,,36,0
155760,note_on,0,0,1,,,,,,,,0,,,72,85
155760,note_on,240,0,1,,,,,,,,0,,,84,0
155760,note_on,240,0,2,,,,,,,,1,,,84,0
155760,note_on,240,0,5,,,,,,,,4,,,48,0
155985,note_on,225,0,2,,,,,,,,1,,,72,0
155985,note_on,225,0,5,,,,,,,,4,,,53,0
155985,note_on,225,0,3,,,,,,,,2,,,64,0
155985,note_on,225,0,6,,,,,,,,5,,,41,0
155985,note_on,225,0,1,,,,,,,,0,,,72,0
155985,note_on,225,0,4,,,,,,,,3,,,57,0
156000,note_on,15,0,1,,,,,,,,0,,,71,85
156000,note_on,15,0,6,,,,,,,,5,,,43,85
156000,note_on,15,0,5,,,,,,,,4,,,55,85
156000,note_on,15,0,2,,,,,,,,1,,,71,85
156000,note_on,15,0,4,,,,,,,,3,,,59,85
156000,note_on,15,0,3,,,,,,,,2,,,62,85
156225,note_on,225,0,6,,,,,,,,5,,,43,0
156225,note_on,225,0,1,,,,,,,,0,,,71,0
156225,note_on,225,0,3,,,,,,,,2,,,62,0
156225,note_on,225,0,5,,,,,,,,4,,,55,0
156225,note_on,225,0,2,,,,,,,,1,,,71,0
156225,note_on,225,0,4,,,,,,,,3,,,59,0
156240,note_on,15,0,4,,,,,,,,3,,,55,85
156240,note_on,15,0,2,,,,,,,,1,,,62,85
156240,note_on,15,0,3,,,,,,,,2,,,59,85
156240,note_on,15,0,6,,,,,,,,5,,,31,85
156240,note_on,15,0,5,,,,,,,,4,,,43,85
156240,note_on,15,0,1,,,,,,,,0,,,62,85
156465,note_on,225,0,5,,,,,,,,4,,,43,0
156465,note_on,225,0,3,,,,,,,,2,,,59,0
156465,note_on,225,0,1,,,,,,,,0,,,62,0
156465,note_on,225,0,4,,,,,,,,3,,,55,0
156465,note_on,225,0,2,,,,,,,,1,,,62,0
156465,note_on,225,0,6,,,,,,,,5,,,31,0
156480,note_on,15,0,3,,,,,,,,2,,,60,101
156480,note_on,15,0,5,,,,,,,,4,,,48,101
156480,note_on,15,0,1,,,,,,,,0,,,64,101
156480,note_on,15,0,2,,,,,,,,1,,,64,101
156480,note_on,15,0,4,,,,,,,,3,,,55,101
156480,note_on,15,0,6,,,,,,,,5,,,36,101
156540,note_on,60,0,2,,,,,,,,1,,,64,0
156540,note_on,60,0,3,,,,,,,,2,,,60,0
156540,note_on,60,0,1,,,,,,,,0,,,64,0
156720,note_on,0,0,6,,,,,,,,5,,,38,85
156720,note_on,180,0,1,,,,,,,,0,,,64,85
156720,note_on,180,0,3,,,,,,,,2,,,60,85
156720,note_on,180,0,2,,,,,,,,1,,,64,85
156720,note_on,0,0,5,,,,,,,,4,,,50,85
156720,note_on,240,0,5,,,,,,,,4,,,48,0
156720,note_on,240,0,6,,,,,,,,5,,,36,0
156945,note_on,225,0,5,,,,,,,,4,,,50,0
156945,note_on,225,0,6,,,,,,,,5,,,38,0
156960,note_on,480,0,4,,,,,,,,3,,,55,0
156960,note_on,15,0,6,,,,,,,,5,,,40,85
156960,note_on,15,0,5,,,,,,,,4,,,52,85
156960,note_on,0,0,4,,,,,,,,3,,,55,85
157165,note_on,445,0,2,,,,,,,,1,,,64,0
157165,note_on,445,0,1,,,,,,,,0,,,64,0
157165,note_on,445,0,3,,,,,,,,2,,,60,0
157185,note_on,225,0,6,,,,,,,,5,,,40,0
157185,note_on,225,0,5,,,,,,,,4,,,52,0
157200,note_on,35,0,3,,,,,,,,2,,,64,85
157200,note_on,15,0,6,,,,,,,,5,,,38,85
157200,note_on,35,0,1,,,,,,,,0,,,67,85
157200,note_on,15,0,5,,,,,,,,4,,,50,85
157200,note_on,35,0,2,,,,,,,,1,,,67,85
157405,note_on,445,0,4,,,,,,,,3,,,55,0
157425,note_on,225,0,6,,,,,,,,5,,,38,0
157425,note_on,225,0,1,,,,,,,,0,,,67,0
157425,note_on,225,0,5,,,,,,,,4,,,50,0
157425,note_on,225,0,2,,,,,,,,1,,,67,0
157425,note_on,225,0,3,,,,,,,,2,,,64,0
157440,note_on,15,0,2,,,,,,,,1,,,72,85
157440,note_on,15,0,6,,,,,,,,5,,,36,85
157440,note_on,15,0,5,,,,,,,,4,,,48,85
157440,note_on,35,0,4,,,,,,,,3,,,64,85
157440,note_on,15,0,1,,,,,,,,0,,,72,85
157440,note_on,15,0,3,,,,,,,,2,,,67,85
157665,note_on,225,0,4,,,,,,,,3,,,64,0
157665,note_on,225,0,1,,,,,,,,0,,,72,0
157665,note_on,225,0,6,,,,,,,,5,,,36,0
157665,note_on,225,0,5,,,,,,,,4,,,48,0
157665,note_on,225,0,3,,,,,,,,2,,,67,0
157665,note_on,225,0,2,,,,,,,,1,,,72,0
157680,note_on,15,0,1,,,,,,,,0,,,60,85
157680,note_on,15,0,2,,,,,,,,1,,,60,85
157680,note_on,15,0,6,,,,,,,,5,,,41,85
157680,note_on,15,0,4,,,,,,,,3,,,57,85
157680,note_on,15,0,5,,,,,,,,4,,,53,85
157680,note_on,15,0,3,,,,,,,,2,,,64,85
157685,set_tempo,157685,1,0,,,,,,571429,,,,,,
157905,note_on,225,0,4,,,,,,,,3,,,57,0
157905,note_on,225,0,2,,,,,,,,1,,,60,0
157905,note_on,225,0,3,,,,,,,,2,,,64,0
157905,note_on,225,0,1,,,,,,,,0,,,60,0
157905,note_on,225,0,6,,,,,,,,5,,,41,0
157905,note_on,225,0,5,,,,,,,,4,,,53,0
157920,set_tempo,235,1,0,,,,,,631579,,,,,,
157920,note_on,15,0,4,,,,,,,,3,,,59,101
157920,note_on,15,0,1,,,,,,,,0,,,59,101
157920,note_on,15,0,2,,,,,,,,1,,,59,101
157920,note_on,15,0,6,,,,,,,,5,,,43,101
157920,note_on,15,0,5,,,,,,,,4,,,55,101
157920,note_on,15,0,3,,,,,,,,2,,,62,101
157980,note_on,60,0,2,,,,,,,,1,,,59,0
157980,note_on,60,0,4,,,,,,,,3,,,59,0
157980,note_on,60,0,6,,,,,,,,5,,,43,0
157980,note_on,60,0,3,,,,,,,,2,,,62,0
157980,note_on,60,0,5,,,,,,,,4,,,55,0
157980,note_on,60,0,1,,,,,,,,0,,,59,0
158160,note_on,180,0,2,,,,,,,,1,,,74,101
158160,note_on,180,0,1,,,,,,,,0,,,74,101
158160,note_on,180,0,3,,,,,,,,2,,,71,101
158160,note_on,180,0,4,,,,,,,,3,,,55,101
158160,note_on,180,0,5,,,,,,,,4,,,43,101
158160,note_on,180,0,6,,,,,,,,5,,,31,101
158165,set_tempo,245,1,0,,,,,,705882,,,,,,
158220,note_on,60,0,3,,,,,,,,2,,,71,0
158220,note_on,60,0,4,,,,,,,,3,,,55,0
158220,note_on,60,0,2,,,,,,,,1,,,74,0
158220,note_on,60,0,5,,,,,,,,4,,,43,0
158220,note_on,60,0,6,,,,,,,,5,,,31,0
158220,note_on,60,0,1,,,,,,,,0,,,74,0
158640,note_on,420,0,4,,,,,,,,3,,,55,101
158640,note_on,420,0,3,,,,,,,,2,,,72,101
158640,note_on,420,0,1,,,,,,,,0,,,72,101
158640,note_on,420,0,5,,,,,,,,4,,,48,101
158640,note_on,420,0,6,,,,,,,,5,,,36,101
158640,note_on,420,0,2,,,,,,,,1,,,72,101
159360,note_on,720,0,4,,,,,,,,3,,,55,0
159360,note_on,720,0,5,,,,,,,,4,,,48,0
159360,note_on,720,0,3,,,,,,,,2,,,72,0
159360,note_on,720,0,2,,,,,,,,1,,,72,0
159360,note_on,720,0,1,,,,,,,,0,,,72,0
159360,note_on,720,0,6,,,,,,,,5,,,36,0
161280,note_on,1920,0,6,,,,,,,,5,,,52,85
161280,note_on,1920,0,4,,,,,,,,3,,,64,85
161280,set_tempo,3115,1,0,,,,,,1000000,,,,,,
161280,marker,0,1,0,,,,,,,,,,,,
161280,program_change,161280,0,7,,,,,,,6,6,,,,
161280,note_on,1920,0,5,,,,,,,,4,,,64,85
161280,note_on,1920,0,2,,,,,,,,1,,,76,85
161280,note_on,0,0,7,,,,,,,,6,,,64,85
161280,note_on,1920,0,3,,,,,,,,2,,,76,85
161615,note_on,335,0,5,,,,,,,,4,,,64,0
161615,note_on,335,0,6,,,,,,,,5,,,52,0
161615,note_on,335,0,3,,,,,,,,2,,,76,0
161615,note_on,335,0,2,,,,,,,,1,,,76,0
161615,note_on,335,0,7,,,,,,,,6,,,64,0
161615,note_on,335,0,4,,,,,,,,3,,,64,0
161640,note_on,25,0,3,,,,,,,,2,,,78,85
161640,note_on,25,0,2,,,,,,,,1,,,78,85
161640,note_on,25,0,6,,,,,,,,5,,,54,85
161640,note_on,25,0,4,,,,,,,,3,,,66,85
161640,note_on,25,0,7,,,,,,,,6,,,66,85
161640,note_on,25,0,5,,,,,,,,4,,,66,85
161755,note_on,115,0,6,,,,,,,,5,,,54,0
161755,note_on,115,0,2,,,,,,,,1,,,78,0
161755,note_on,115,0,3,,,,,,,,2,,,78,0
161755,note_on,115,0,5,,,,,,,,4,,,66,0
161755,note_on,115,0,4,,,,,,,,3,,,66,0
161755,note_on,115,0,7,,,,,,,,6,,,66,0
161760,note_on,5,0,3,,,,,,,,2,,,76,85
161760,note_on,5,0,6,,,,,,,,5,,,52,85
161760,note_on,5,0,5,,,,,,,,4,,,64,85
161760,note_on,5,0,4,,,,,,,,3,,,64,85
161760,note_on,5,0,2,,,,,,,,1,,,76,85
161760,note_on,5,0,7,,,,,,,,6,,,64,85
161985,note_on,225,0,7,,,,,,,,6,,,64,0
161985,note_on,225,0,5,,,,,,,,4,,,64,0
161985,note_on,225,0,4,,,,,,,,3,,,64,0
161985,note_on,225,0,6,,,,,,,,5,,,52,0
161985,note_on,225,0,3,,,,,,,,2,,,76,0
161985,note_on,225,0,2,,,,,,,,1,,,76,0
162000,note_on,15,0,5,,,,,,,,4,,,64,85
162000,note_on,15,0,2,,,,,,,,1,,,76,85
162000,note_on,15,0,6,,,,,,,,5,,,52,85
162000,note_on,15,0,7,,,,,,,,6,,,64,85
162000,note_on,15,0,3,,,,,,,,2,,,76,85
162000,note_on,15,0,4,,,,,,,,3,,,64,85
162445,note_on,445,0,2,,,,,,,,1,,,76,0
162445,note_on,445,0,7,,,,,,,,6,,,64,0
162445,note_on,445,0,6,,,,,,,,5,,,52,0
162445,note_on,445,0,5,,,,,,,,4,,,64,0
162445,note_on,445,0,4,,,,,,,,3,,,64,0
162445,note_on,445,0,3,,,,,,,,2,,,76,0
162480,note_on,35,0,6,,,,,,,,5,,,52,85
162480,note_on,35,0,4,,,,,,,,3,,,64,85
162480,note_on,35,0,3,,,,,,,,2,,,76,85
162480,note_on,35,0,5,,,,,,,,4,,,64,85
162480,note_on,35,0,2,,,,,,,,1,,,76,85
162480,note_on,35,0,7,,,,,,,,6,,,64,85
162705,note_on,225,0,5,,,,,,,,4,,,64,0
162705,note_on,225,0,2,,,,,,,,1,,,76,0
162705,note_on,225,0,6,,,,,,,,5,,,52,0
162705,note_on,225,0,3,,,,,,,,2,,,76,0
162705,note_on,225,0,7,,,,,,,,6,,,64,0
162705,note_on,225,0,4,,,,,,,,3,,,64,0
162720,note_on,15,0,2,,,,,,,,1,,,75,85
162720,note_on,15,0,6,,,,,,,,5,,,51,85
162720,note_on,15,0,3,,,,,,,,2,,,75,85
162720,note_on,15,0,4,,,,,,,,3,,,63,85
162720,note_on,15,0,7,,,,,,,,6,,,63,85
162720,note_on,15,0,5,,,,,,,,4,,,63,85
162756,note_on,36,0,7,,,,,,,,6,,,66,64
162798,note_on,42,0,7,,,,,,,,6,,,69,64
162860,note_on,62,0,7,,,,,,,,6,,,72,64
163165,note_on,445,0,6,,,,,,,,5,,,51,0
163165,note_on,305,0,7,,,,,,,,6,,,63,0
163165,note_on,445,0,4,,,,,,,,3,,,63,0
163165,note_on,445,0,5,,,,,,,,4,,,63,0
163165,note_on,445,0,2,,,,,,,,1,,,75,0
163165,note_on,445,0,3,,,,,,,,2,,,75,0
163421,note_on,256,0,7,,,,,,,,6,,,66,0
163440,note_on,0,0,7,,,,,,,,6,,,71,64
163440,note_on,0,0,7,,,,,,,,6,,,66,64
163440,note_on,0,0,7,,,,,,,,6,,,62,85
163440,note_on,275,0,2,,,,,,,,1,,,74,85
163440,note_on,19,0,7,,,,,,,,6,,,74,64
163440,note_on,275,0,3,,,,,,,,2,,,74,85
163440,note_on,275,0,6,,,,,,,,5,,,50,85
163440,note_on,275,0,4,,,,,,,,3,,,62,85
163440,note_on,275,0,5,,,,,,,,4,,,62,85
163463,note_on,23,0,7,,,,,,,,6,,,69,0
163525,note_on,62,0,7,,,,,,,,6,,,72,0
163775,note_on,335,0,2,,,,,,,,1,,,74,0
163775,note_on,335,0,6,,,,,,,,5,,,50,0
163775,note_on,335,0,4,,,,,,,,3,,,62,0
163775,note_on,250,0,7,,,,,,,,6,,,62,0
163775,note_on,335,0,5,,,,,,,,4,,,62,0
163775,note_on,335,0,3,,,,,,,,2,,,74,0
163800,note_on,25,0,5,,,,,,,,4,,,64,85
163800,note_on,25,0,2,,,,,,,,1,,,76,85
163800,note_on,25,0,4,,,,,,,,3,,,64,85
163800,note_on,25,0,7,,,,,,,,6,,,64,85
163800,note_on,25,0,3,,,,,,,,2,,,76,85
163800,note_on,25,0,6,,,,,,,,5,,,52,85
163915,note_on,115,0,5,,,,,,,,4,,,64,0
163915,note_on,115,0,2,,,,,,,,1,,,76,0
163915,note_on,115,0,4,,,,,,,,3,,,64,0
163915,note_on,115,0,7,,,,,,,,6,,,64,0
163915,note_on,115,0,3,,,,,,,,2,,,76,0
163915,note_on,115,0,6,,,,,,,,5,,,52,0
163920,note_on,5,0,5,,,,,,,,4,,,62,85
163920,note_on,5,0,7,,,,,,,,6,,,62,85
163920,note_on,5,0,4,,,,,,,,3,,,62,85
163920,note_on,5,0,3,,,,,,,,2,,,74,85
163920,note_on,5,0,2,,,,,,,,1,,,74,85
163920,note_on,5,0,6,,,,,,,,5,,,50,85
164105,note_on,0,0,7,,,,,,,,6,,,66,0
164105,note_on,185,0,7,,,,,,,,6,,,74,0
164105,note_on,0,0,7,,,,,,,,6,,,71,0
164145,note_on,225,0,5,,,,,,,,4,,,62,0
164145,note_on,225,0,2,,,,,,,,1,,,74,0
164145,note_on,225,0,4,,,,,,,,3,,,62,0
164145,note_on,225,0,3,,,,,,,,2,,,74,0
164145,note_on,40,0,7,,,,,,,,6,,,62,0
164145,note_on,225,0,6,,,,,,,,5,,,50,0
164160,note_on,15,0,2,,,,,,,,1,,,73,85
164160,note_on,15,0,6,,,,,,,,5,,,49,85
164160,note_on,15,0,3,,,,,,,,2,,,73,85
164160,note_on,15,0,4,,,,,,,,3,,,61,85
164160,note_on,15,0,7,,,,,,,,6,,,61,85
164160,note_on,15,0,5,,,,,,,,4,,,61,85
164196,note_on,36,0,7,,,,,,,,6,,,67,64
164238,note_on,42,0,7,,,,,,,,6,,,71,64
164295,note_on,57,0,7,,,,,,,,6,,,76,64
164825,note_on,665,0,6,,,,,,,,5,,,49,0
164825,note_on,665,0,5,,,,,,,,4,,,61,0
164825,note_on,530,0,7,,,,,,,,6,,,61,0
164825,note_on,665,0,2,,,,,,,,1,,,73,0
164825,note_on,665,0,3,,,,,,,,2,,,73,0
164825,note_on,665,0,4,,,,,,,,3,,,61,0
164853,note_on,28,0,7,,,,,,,,6,,,76,0
164861,note_on,8,0,7,,,,,,,,6,,,67,0
164880,note_on,55,0,2,,,,,,,,1,,,72,85
164880,note_on,55,0,6,,,,,,,,5,,,48,85
164880,note_on,0,0,7,,,,,,,,6,,,60,85
164880,note_on,0,0,7,,,,,,,,6,,,69,64
164880,note_on,0,0,7,,,,,,,,6,,,72,64
164880,note_on,19,0,7,,,,,,,,6,,,76,64
164880,note_on,55,0,4,,,,,,,,3,,,60,85
164880,note_on,55,0,5,,,,,,,,4,,,60,85
164880,note_on,55,0,3,,,,,,,,2,,,72,85
164903,note_on,23,0,7,,,,,,,,6,,,71,0
165215,note_on,312,0,7,,,,,,,,6,,,60,0
165215,note_on,335,0,2,,,,,,,,1,,,72,0
165215,note_on,335,0,5,,,,,,,,4,,,60,0
165215,note_on,335,0,6,,,,,,,,5,,,48,0
165215,note_on,335,0,4,,,,,,,,3,,,60,0
165215,note_on,335,0,3,,,,,,,,2,,,72,0
165240,note_on,25,0,2,,,,,,,,1,,,74,85
165240,note_on,25,0,7,,,,,,,,6,,,62,85
165240,note_on,25,0,3,,,,,,,,2,,,74,85
165240,note_on,25,0,4,,,,,,,,3,,,62,85
165240,note_on,25,0,5,,,,,,,,4,,,62,85
165240,note_on,25,0,6,,,,,,,,5,,,50,85
165355,note_on,115,0,6,,,,,,,,5,,,50,0
165355,note_on,115,0,7,,,,,,,,6,,,62,0
165355,note_on,115,0,5,,,,,,,,4,,,62,0
165355,note_on,115,0,3,,,,,,,,2,,,74,0
165355,note_on,115,0,2,,,,,,,,1,,,74,0
165355,note_on,115,0,4,,,,,,,,3,,,62,0
165360,note_on,5,0,7,,,,,,,,6,,,60,85
165360,note_on,5,0,4,,,,,,,,3,,,60,85
165360,note_on,5,0,2,,,,,,,,1,,,72,85
165360,note_on,5,0,6,,,,,,,,5,,,48,85
165360,note_on,5,0,3,,,,,,,,2,,,72,85
165360,note_on,5,0,5,,,,,,,,4,,,60,85
165545,note_on,0,0,7,,,,,,,,6,,,76,0
165545,note_on,0,0,7,,,,,,,,6,,,72,0
165545,note_on,185,0,7,,,,,,,,6,,,69,0
165585,note_on,40,0,7,,,,,,,,6,,,60,0
165585,note_on,225,0,5,,,,,,,,4,,,60,0
165585,note_on,225,0,2,,,,,,,,1,,,72,0
165585,note_on,225,0,4,,,,,,,,3,,,60,0
165585,note_on,225,0,3,,,,,,,,2,,,72,0
165585,note_on,225,0,6,,,,,,,,5,,,48,0
165600,note_on,15,0,2,,,,,,,,1,,,71,85
165600,note_on,15,0,5,,,,,,,,4,,,59,85
165600,note_on,15,0,4,,,,,,,,3,,,59,85
165600,note_on,15,0,3,,,,,,,,2,,,71,85
165600,note_on,15,0,7,,,,,,,,6,,,59,85
165600,note_on,15,0,6,,,,,,,,5,,,47,85
165678,note_on,78,0,7,,,,,,,,6,,,66,64
165720,note_on,42,0,7,,,,,,,,6,,,69,64
165766,note_on,46,0,7,,,,,,,,6,,,75,64
166265,note_on,665,0,5,,,,,,,,4,,,59,0
166265,note_on,499,0,7,,,,,,,,6,,,59,0
166265,note_on,665,0,4,,,,,,,,3,,,59,0
166265,note_on,665,0,3,,,,,,,,2,,,71,0
166265,note_on,665,0,6,,,,,,,,5,,,47,0
166265,note_on,665,0,2,,,,,,,,1,,,71,0
166343,note_on,78,0,7,,,,,,,,6,,,66,0
166385,note_on,42,0,7,,,,,,,,6,,,69,0
166431,note_on,46,0,7,,,,,,,,6,,,75,0
167040,note_on,609,0,7,,,,,,,,6,,,55,85
167040,note_on,775,0,3,,,,,,,,2,,,67,49
167040,note_on,775,0,6,,,,,,,,5,,,43,49
167040,note_on,775,0,2,,,,,,,,1,,,67,85
167040,note_on,7680,0,1,,,,,,,,0,,,76,85
167040,note_on,775,0,5,,,,,,,,4,,,55,49
167040,note_on,775,0,4,,,,,,,,3,,,67,49
167071,note_on,31,0,7,,,,,,,,6,,,64,64
167086,note_on,15,0,7,,,,,,,,6,,,67,64
167107,note_on,21,0,7,,,,,,,,6,,,71,64
167375,note_on,335,0,2,,,,,,,,1,,,67,0
167375,note_on,335,0,4,,,,,,,,3,,,67,0
167375,note_on,268,0,7,,,,,,,,6,,,55,0
167375,note_on,335,0,3,,,,,,,,2,,,67,0
167375,note_on,335,0,5,,,,,,,,4,,,55,0
167375,note_on,335,0,6,,,,,,,,5,,,43,0
167400,note_on,25,0,4,,,,,,,,3,,,69,49
167400,note_on,25,0,3,,,,,,,,2,,,69,49
167400,note_on,25,0,6,,,,,,,,5,,,45,49
167400,note_on,25,0,5,,,,,,,,4,,,57,49
167400,note_on,25,0,2,,,,,,,,1,,,69,49
167400,note_on,25,0,7,,,,,,,,6,,,57,85
167515,note_on,115,0,3,,,,,,,,2,,,69,0
167515,note_on,115,0,5,,,,,,,,4,,,57,0
167515,note_on,115,0,2,,,,,,,,1,,,69,0
167515,note_on,115,0,6,,,,,,,,5,,,45,0
167515,note_on,115,0,7,,,,,,,,6,,,57,0
167515,note_on,115,0,4,,,,,,,,3,,,69,0
167520,note_on,5,0,5,,,,,,,,4,,,55,49
167520,note_on,5,0,7,,,,,,,,6,,,55,85
167520,note_on,5,0,6,,,,,,,,5,,,43,49
167520,note_on,5,0,2,,,,,,,,1,,,67,49
167520,note_on,5,0,3,,,,,,,,2,,,67,49
167520,note_on,5,0,4,,,,,,,,3,,,67,49
167736,note_on,216,0,7,,,,,,,,6,,,64,0
167745,note_on,225,0,4,,,,,,,,3,,,67,0
167745,note_on,9,0,7,,,,,,,,6,,,55,0
167745,note_on,225,0,2,,,,,,,,1,,,67,0
167745,note_on,225,0,6,,,,,,,,5,,,43,0
167745,note_on,225,0,5,,,,,,,,4,,,55,0
167745,note_on,225,0,3,,,,,,,,2,,,67,0
167751,note_on,6,0,7,,,,,,,,6,,,67,0
167760,note_on,15,0,4,,,,,,,,3,,,67,49
167760,note_on,15,0,2,,,,,,,,1,,,67,49
167760,note_on,15,0,5,,,,,,,,4,,,55,49
167760,note_on,0,0,7,,,,,,,,6,,,67,64
167760,note_on,0,0,7,,,,,,,,6,,,55,85
167760,note_on,0,0,7,,,,,,,,6,,,71,64
167760,note_on,15,0,3,,,,,,,,2,,,67,49
167760,note_on,15,0,6,,,,,,,,5,,,43,49
167760,note_on,9,0,7,,,,,,,,6,,,76,64
167772,note_on,12,0,7,,,,,,,,6,,,71,0
168095,note_on,1055,0,1,,,,,,,,0,,,76,0
168120,note_on,25,0,1,,,,,,,,0,,,83,85
168205,note_on,445,0,3,,,,,,,,2,,,67,0
168205,note_on,445,0,2,,,,,,,,1,,,67,0
168205,note_on,433,0,7,,,,,,,,6,,,55,0
168205,note_on,445,0,4,,,,,,,,3,,,67,0
168205,note_on,445,0,6,,,,,,,,5,,,43,0
168205,note_on,445,0,5,,,,,,,,4,,,55,0
168235,note_on,115,0,1,,,,,,,,0,,,83,0
168240,note_on,35,0,4,,,,,,,,3,,,67,49
168240,note_on,35,0,6,,,,,,,,5,,,43,49
168240,note_on,35,0,3,,,,,,,,2,,,67,49
168240,note_on,35,0,5,,,,,,,,4,,,55,49
168240,note_on,35,0,2,,,,,,,,1,,,67,49
168240,note_on,35,0,7,,,,,,,,6,,,55,85
168240,note_on,5,0,1,,,,,,,,0,,,79,85
168425,note_on,185,0,7,,,,,,,,6,,,76,0
168425,note_on,0,0,7,,,,,,,,6,,,67,0
168425,note_on,0,0,7,,,,,,,,6,,,71,0
168465,note_on,40,0,7,,,,,,,,6,,,55,0
168465,note_on,225,0,4,,,,,,,,3,,,67,0
168465,note_on,225,0,5,,,,,,,,4,,,55,0
168465,note_on,225,0,2,,,,,,,,1,,,67,0
168465,note_on,225,0,6,,,,,,,,5,,,43,0
168465,note_on,225,0,1,,,,,,,,0,,,79,0
168465,note_on,225,0,3,,,,,,,,2,,,67,0
168480,note_on,15,0,1,,,,,,,,0,,,76,85
168480,note_on,15,0,6,,,,,,,,5,,,45,49
168480,note_on,15,0,4,,,,,,,,3,,,69,49
168480,note_on,15,0,5,,,,,,,,4,,,57,49
168480,note_on,15,0,2,,,,,,,,1,,,69,49
168480,note_on,15,0,7,,,,,,,,6,,,57,85
168480,note_on,15,0,3,,,,,,,,2,,,69,49
168511,note_on,31,0,7,,,,,,,,6,,,64,64
168532,note_on,21,0,7,,,,,,,,6,,,69,64
168563,note_on,31,0,7,,,,,,,,6,,,72,64
168815,note_on,335,0,3,,,,,,,,2,,,69,0
168815,note_on,335,0,4,,,,,,,,3,,,69,0
168815,note_on,335,0,2,,,,,,,,1,,,69,0
168815,note_on,335,0,6,,,,,,,,5,,,45,0
168815,note_on,252,0,7,,,,,,,,6,,,57,0
168815,note_on,335,0,5,,,,,,,,4,,,57,0
168840,note_on,25,0,2,,,,,,,,1,,,71,49
168840,note_on,25,0,5,,,,,,,,4,,,59,49
168840,note_on,25,0,3,,,,,,,,2,,,71,49
168840,note_on,25,0,6,,,,,,,,5,,,47,49
168840,note_on,25,0,4,,,,,,,,3,,,71,49
168840,note_on,25,0,7,,,,,,,,6,,,59,85
168955,note_on,115,0,5,,,,,,,,4,,,59,0
168955,note_on,115,0,4,,,,,,,,3,,,71,0
168955,note_on,115,0,2,,,,,,,,1,,,71,0
168955,note_on,115,0,3,,,,,,,,2,,,71,0
168955,note_on,115,0,7,,,,,,,,6,,,59,0
168955,note_on,115,0,6,,,,,,,,5,,,47,0
168960,note_on,5,0,5,,,,,,,,4,,,57,49
168960,note_on,5,0,6,,,,,,,,5,,,45,49
168960,note_on,5,0,3,,,,,,,,2,,,69,49
168960,note_on,5,0,4,,,,,,,,3,,,69,49
168960,note_on,5,0,2,,,,,,,,1,,,69,49
168960,note_on,5,0,7,,,,,,,,6,,,57,85
169176,note_on,216,0,7,,,,,,,,6,,,64,0
169185,note_on,225,0,6,,,,,,,,5,,,45,0
169185,note_on,225,0,3,,,,,,,,2,,,69,0
169185,note_on,225,0,5,,,,,,,,4,,,57,0
169185,note_on,225,0,2,,,,,,,,1,,,69,0
169185,note_on,225,0,4,,,,,,,,3,,,69,0
169185,note_on,9,0,7,,,,,,,,6,,,57,0
169197,note_on,12,0,7,,,,,,,,6,,,69,0
169199,note_on,2,0,7,,,,,,,,6,,,72,0
169200,note_on,15,0,2,,,,,,,,1,,,69,49
169200,note_on,0,0,7,,,,,,,,6,,,72,64
169200,note_on,0,0,7,,,,,,,,6,,,69,64
169200,note_on,0,0,7,,,,,,,,6,,,57,85
169200,note_on,1,0,7,,,,,,,,6,,,76,64
169200,note_on,15,0,4,,,,,,,,3,,,69,49
169200,note_on,15,0,5,,,,,,,,4,,,57,49
169200,note_on,15,0,3,,,,,,,,2,,,69,49
169200,note_on,15,0,6,,,,,,,,5,,,45,49
169535,note_on,1055,0,1,,,,,,,,0,,,76,0
169560,note_on,25,0,1,,,,,,,,0,,,84,85
169645,note_on,445,0,2,,,,,,,,1,,,69,0
169645,note_on,445,0,3,,,,,,,,2,,,69,0
169645,note_on,445,0,5,,,,,,,,4,,,57,0
169645,note_on,445,0,7,,,,,,,,6,,,57,0
169645,note_on,445,0,6,,,,,,,,5,,,45,0
169645,note_on,445,0,4,,,,,,,,3,,,69,0
169675,note_on,115,0,1,,,,,,,,0,,,84,0
169680,note_on,35,0,2,,,,,,,,1,,,69,49
169680,note_on,35,0,6,,,,,,,,5,,,45,49
169680,note_on,35,0,5,,,,,,,,4,,,57,49
169680,note_on,35,0,4,,,,,,,,3,,,69,49
169680,note_on,35,0,3,,,,,,,,2,,,69,49
169680,note_on,35,0,7,,,,,,,,6,,,57,85
169680,note_on,5,0,1,,,,,,,,0,,,76,85
169865,note_on,185,0,7,,,,,,,,6,,,76,0
169865,note_on,0,0,7,,,,,,,,6,,,69,0
169865,note_on,0,0,7,,,,,,,,6,,,72,0
169905,note_on,225,0,6,,,,,,,,5,,,45,0
169905,note_on,225,0,3,,,,,,,,2,,,69,0
169905,note_on,40,0,7,,,,,,,,6,,,57,0
169905,note_on,225,0,1,,,,,,,,0,,,76,0
169905,note_on,225,0,5,,,,,,,,4,,,57,0
169905,note_on,225,0,4,,,,,,,,3,,,69,0
169905,note_on,225,0,2,,,,,,,,1,,,69,0
169920,note_on,15,0,1,,,,,,,,0,,,75,85
169920,note_on,15,0,7,,,,,,,,6,,,59,85
169920,note_on,15,0,2,,,,,,,,1,,,71,49
169920,note_on,15,0,3,,,,,,,,2,,,71,49
169920,note_on,15,0,4,,,,,,,,3,,,71,49
169920,note_on,15,0,6,,,,,,,,5,,,47,49
169920,note_on,15,0,5,,,,,,,,4,,,59,49
169946,note_on,26,0,7,,,,,,,,6,,,66,64
169972,note_on,26,0,7,,,,,,,,6,,,71,64
169993,note_on,21,0,7,,,,,,,,6,,,75,64
170255,note_on,335,0,4,,,,,,,,3,,,71,0
170255,note_on,335,0,6,,,,,,,,5,,,47,0
170255,note_on,335,0,5,,,,,,,,4,,,59,0
170255,note_on,335,0,3,,,,,,,,2,,,71,0
170255,note_on,335,0,2,,,,,,,,1,,,71,0
170255,note_on,262,0,7,,,,,,,,6,,,59,0
170280,note_on,25,0,5,,,,,,,,4,,,60,49
170280,note_on,25,0,6,,,,,,,,5,,,48,49
170280,note_on,25,0,3,,,,,,,,2,,,72,49
170280,note_on,25,0,4,,,,,,,,3,,,72,49
170280,note_on,25,0,2,,,,,,,,1,,,72,49
170280,note_on,25,0,7,,,,,,,,6,,,60,85
170365,note_on,445,0,1,,,,,,,,0,,,75,0
170395,note_on,115,0,7,,,,,,,,6,,,60,0
170395,note_on,115,0,2,,,,,,,,1,,,72,0
170395,note_on,115,0,6,,,,,,,,5,,,48,0
170395,note_on,115,0,4,,,,,,,,3,,,72,0
170395,note_on,115,0,5,,,,,,,,4,,,60,0
170395,note_on,115,0,3,,,,,,,,2,,,72,0
170400,note_on,5,0,3,,,,,,,,2,,,71,49
170400,note_on,5,0,6,,,,,,,,5,,,47,49
170400,note_on,5,0,5,,,,,,,,4,,,59,49
170400,note_on,35,0,1,,,,,,,,0,,,81,85
170400,note_on,5,0,2,,,,,,,,1,,,71,49
170400,note_on,5,0,4,,,,,,,,3,,,71,49
170400,note_on,5,0,7,,,,,,,,6,,,59,85
170625,note_on,225,0,4,,,,,,,,3,,,71,0
170625,note_on,225,0,3,,,,,,,,2,,,71,0
170625,note_on,225,0,7,,,,,,,,6,,,59,0
170625,note_on,225,0,6,,,,,,,,5,,,47,0
170625,note_on,225,0,5,,,,,,,,4,,,59,0
170625,note_on,225,0,2,,,,,,,,1,,,71,0
170625,note_on,225,0,1,,,,,,,,0,,,81,0
170637,note_on,12,0,7,,,,,,,,6,,,71,0
170640,note_on,15,0,1,,,,,,,,0,,,79,85
170640,note_on,15,0,3,,,,,,,,2,,,71,49
170640,note_on,0,0,7,,,,,,,,6,,,59,85
170640,note_on,15,0,5,,,,,,,,4,,,59,49
170640,note_on,15,0,2,,,,,,,,1,,,71,49
170640,note_on,15,0,6,,,,,,,,5,,,47,49
170640,note_on,0,0,7,,,,,,,,6,,,67,64
170640,note_on,15,0,4,,,,,,,,3,,,71,49
170640,note_on,3,0,7,,,,,,,,6,,,71,64
170666,note_on,26,0,7,,,,,,,,6,,,66,0
170975,note_on,335,0,1,,,,,,,,0,,,79,0
171000,note_on,25,0,1,,,,,,,,0,,,81,85
171085,note_on,445,0,6,,,,,,,,5,,,47,0
171085,note_on,445,0,2,,,,,,,,1,,,71,0
171085,note_on,445,0,5,,,,,,,,4,,,59,0
171085,note_on,445,0,4,,,,,,,,3,,,71,0
171085,note_on,445,0,3,,,,,,,,2,,,71,0
171085,note_on,419,0,7,,,,,,,,6,,,59,0
171115,note_on,115,0,1,,,,,,,,0,,,81,0
171120,note_on,35,0,2,,,,,,,,1,,,59,49
171120,note_on,35,0,4,,,,,,,,3,,,59,49
171120,note_on,35,0,5,,,,,,,,4,,,47,49
171120,note_on,0,0,7,,,,,,,,6,,,47,85
171120,note_on,35,0,6,,,,,,,,5,,,35,49
171120,note_on,35,0,3,,,,,,,,2,,,59,49
171120,note_on,5,0,1,,,,,,,,0,,,78,85
171120,note_on,35,0,7,,,,,,,,6,,,75,64
171158,note_on,38,0,7,,,,,,,,6,,,75,0
171305,note_on,147,0,7,,,,,,,,6,,,67,0
171305,note_on,0,0,7,,,,,,,,6,,,71,0
171345,note_on,225,0,4,,,,,,,,3,,,59,0
171345,note_on,225,0,6,,,,,,,,5,,,35,0
171345,note_on,225,0,3,,,,,,,,2,,,59,0
171345,note_on,0,0,7,,,,,,,,6,,,47,0
171345,note_on,225,0,1,,,,,,,,0,,,78,0
171345,note_on,225,0,2,,,,,,,,1,,,59,0
171345,note_on,225,0,5,,,,,,,,4,,,47,0
171345,note_on,40,0,7,,,,,,,,6,,,75,0
171360,note_on,15,0,6,,,,,,,,5,,,40,49
171360,note_on,15,0,1,,,,,,,,0,,,79,85
171360,note_on,15,0,7,,,,,,,,6,,,52,85
171360,note_on,15,0,4,,,,,,,,3,,,64,49
171360,note_on,15,0,2,,,,,,,,1,,,64,49
171360,note_on,15,0,5,,,,,,,,4,,,52,49
171360,note_on,15,0,3,,,,,,,,2,,,64,49
171386,note_on,26,0,7,,,,,,,,6,,,64,64
171406,note_on,20,0,7,,,,,,,,6,,,67,64
171433,note_on,27,0,7,,,,,,,,6,,,71,64
171695,note_on,335,0,4,,,,,,,,3,,,64,0
171695,note_on,335,0,5,,,,,,,,4,,,52,0
171695,note_on,262,0,7,,,,,,,,6,,,52,0
171695,note_on,335,0,3,,,,,,,,2,,,64,0
171695,note_on,335,0,2,,,,,,,,1,,,64,0
171695,note_on,335,0,6,,,,,,,,5,,,40,0
171695,note_on,335,0,1,,,,,,,,0,,,79,0
171720,note_on,25,0,1,,,,,,,,0,,,81,85
171720,note_on,25,0,5,,,,,,,,4,,,54,49
171720,note_on,25,0,3,,,,,,,,2,,,66,49
171720,note_on,25,0,7,,,,,,,,6,,,54,85
171720,note_on,25,0,4,,,,,,,,3,,,66,49
171720,note_on,25,0,6,,,,,,,,5,,,42,49
171720,note_on,25,0,2,,,,,,,,1,,,66,49
171835,note_on,115,0,3,,,,,,,,2,,,66,0
171835,note_on,115,0,5,,,,,,,,4,,,54,0
171835,note_on,115,0,1,,,,,,,,0,,,81,0
171835,note_on,115,0,6,,,,,,,,5,,,42,0
171835,note_on,115,0,7,,,,,,,,6,,,54,0
171835,note_on,115,0,4,,,,,,,,3,,,66,0
171835,note_on,115,0,2,,,,,,,,1,,,66,0
171840,note_on,5,0,4,,,,,,,,3,,,64,49
171840,note_on,5,0,6,,,,,,,,5,,,40,49
171840,note_on,5,0,3,,,,,,,,2,,,64,49
171840,note_on,5,0,5,,,,,,,,4,,,52,49
171840,note_on,5,0,1,,,,,,,,0,,,83,85
171840,note_on,5,0,2,,,,,,,,1,,,64,49
171840,note_on,5,0,7,,,,,,,,6,,,52,85
172051,note_on,211,0,7,,,,,,,,6,,,64,0
172059,note_on,8,0,7,,,,,,,,6,,,71,0
172065,note_on,225,0,4,,,,,,,,3,,,64,0
172065,note_on,225,0,5,,,,,,,,4,,,52,0
172065,note_on,225,0,3,,,,,,,,2,,,64,0
172065,note_on,225,0,6,,,,,,,,5,,,40,0
172065,note_on,225,0,2,,,,,,,,1,,,64,0
172065,note_on,225,0,1,,,,,,,,0,,,83,0
172065,note_on,6,0,7,,,,,,,,6,,,52,0
172071,note_on,6,0,7,,,,,,,,6,,,67,0
172080,note_on,15,0,2,,,,,,,,1,,,64,49
172080,note_on,15,0,1,,,,,,,,0,,,76,85
172080,note_on,9,0,7,,,,,,,,6,,,76,64
172080,note_on,0,0,7,,,,,,,,6,,,71,64
172080,note_on,0,0,7,,,,,,,,6,,,67,64
172080,note_on,0,0,7,,,,,,,,6,,,52,85
172080,note_on,15,0,3,,,,,,,,2,,,64,49
172080,note_on,15,0,5,,,,,,,,4,,,52,49
172080,note_on,15,0,4,,,,,,,,3,,,64,49
172080,note_on,15,0,6,,,,,,,,5,,,40,49
172525,note_on,445,0,1,,,,,,,,0,,,76,0
172525,note_on,445,0,6,,,,,,,,5,,,40,0
172525,note_on,445,0,4,,,,,,,,3,,,64,0
172525,note_on,445,0,3,,,,,,,,2,,,64,0
172525,note_on,445,0,5,,,,,,,,4,,,52,0
172525,note_on,445,0,7,,,,,,,,6,,,52,0
172525,note_on,445,0,2,,,,,,,,1,,,64,0
172560,note_on,35,0,6,,,,,,,,5,,,40,49
172560,note_on,35,0,5,,,,,,,,4,,,52,49
172560,note_on,35,0,4,,,,,,,,3,,,64,49
172560,note_on,35,0,1,,,,,,,,0,,,84,85
172560,note_on,35,0,7,,,,,,,,6,,,52,85
172560,note_on,35,0,3,,,,,,,,2,,,64,49
172560,note_on,35,0,2,,,,,,,,1,,,64,49
172745,note_on,0,0,7,,,,,,,,6,,,71,0
172745,note_on,185,0,7,,,,,,,,6,,,76,0
172745,note_on,0,0,7,,,,,,,,6,,,67,0
172785,note_on,225,0,4,,,,,,,,3,,,64,0
172785,note_on,225,0,5,,,,,,,,4,,,52,0
172785,note_on,225,0,1,,,,,,,,0,,,84,0
172785,note_on,225,0,2,,,,,,,,1,,,64,0
172785,note_on,40,0,7,,,,,,,,6,,,52,0
172785,note_on,225,0,3,,,,,,,,2,,,64,0
172785,note_on,225,0,6,,,,,,,,5,,,40,0
172800,note_on,15,0,2,,,,,,,,1,,,66,49
172800,note_on,15,0,5,,,,,,,,4,,,54,49
172800,note_on,15,0,1,,,,,,,,0,,,82,85
172800,note_on,15,0,4,,,,,,,,3,,,66,49
172800,note_on,15,0,7,,,,,,,,6,,,54,85
172800,note_on,15,0,6,,,,,,,,5,,,42,49
172800,note_on,15,0,3,,,,,,,,2,,,66,49
172831,note_on,31,0,7,,,,,,,,6,,,64,64
172862,note_on,31,0,7,,,,,,,,6,,,70,64
172904,note_on,42,0,7,,,,,,,,6,,,73,64
173135,note_on,231,0,7,,,,,,,,6,,,54,0
173135,note_on,335,0,4,,,,,,,,3,,,66,0
173135,note_on,335,0,3,,,,,,,,2,,,66,0
173135,note_on,335,0,2,,,,,,,,1,,,66,0
173135,note_on,335,0,5,,,,,,,,4,,,54,0
173135,note_on,335,0,6,,,,,,,,5,,,42,0
173160,note_on,25,0,4,,,,,,,,3,,,67,49
173160,note_on,25,0,3,,,,,,,,2,,,67,49
173160,note_on,25,0,5,,,,,,,,4,,,55,49
173160,note_on,25,0,7,,,,,,,,6,,,55,85
173160,note_on,25,0,2,,,,,,,,1,,,67,49
173160,note_on,25,0,6,,,,,,,,5,,,43,49
173275,note_on,115,0,2,,,,,,,,1,,,67,0
173275,note_on,115,0,5,,,,,,,,4,,,55,0
173275,note_on,115,0,3,,,,,,,,2,,,67,0
173275,note_on,115,0,6,,,,,,,,5,,,43,0
173275,note_on,115,0,4,,,,,,,,3,,,67,0
173275,note_on,115,0,7,,,,,,,,6,,,55,0
173280,note_on,5,0,6,,,,,,,,5,,,42,49
173280,note_on,5,0,7,,,,,,,,6,,,54,85
173280,note_on,5,0,4,,,,,,,,3,,,66,49
173280,note_on,5,0,3,,,,,,,,2,,,66,49
173280,note_on,5,0,5,,,,,,,,4,,,54,49
173280,note_on,5,0,2,,,,,,,,1,,,66,49
173505,note_on,225,0,6,,,,,,,,5,,,42,0
173505,note_on,225,0,3,,,,,,,,2,,,66,0
173505,note_on,225,0,5,,,,,,,,4,,,54,0
173505,note_on,225,0,7,,,,,,,,6,,,54,0
173505,note_on,225,0,4,,,,,,,,3,,,66,0
173505,note_on,225,0,2,,,,,,,,1,,,66,0
173520,note_on,15,0,2,,,,,,,,1,,,66,49
173520,note_on,15,0,6,,,,,,,,5,,,42,49
173520,note_on,15,0,5,,,,,,,,4,,,54,49
173520,note_on,15,0,7,,,,,,,,6,,,54,85
173520,note_on,15,0,4,,,,,,,,3,,,66,49
173520,note_on,15,0,3,,,,,,,,2,,,66,49
173965,note_on,445,0,2,,,,,,,,1,,,66,0
173965,note_on,445,0,7,,,,,,,,6,,,54,0
173965,note_on,445,0,6,,,,,,,,5,,,42,0
173965,note_on,1165,0,1,,,,,,,,0,,,82,0
173965,note_on,445,0,5,,,,,,,,4,,,54,0
173965,note_on,445,0,4,,,,,,,,3,,,66,0
173965,note_on,445,0,3,,,,,,,,2,,,66,0
174000,note_on,35,0,2,,,,,,,,1,,,64,49
174000,note_on,35,0,1,,,,,,,,0,,,85,85
174000,note_on,35,0,6,,,,,,,,5,,,40,49
174000,note_on,35,0,4,,,,,,,,3,,,64,49
174000,note_on,35,0,7,,,,,,,,6,,,52,85
174000,note_on,35,0,3,,,,,,,,2,,,64,49
174000,note_on,35,0,5,,,,,,,,4,,,52,49
174216,note_on,216,0,7,,,,,,,,6,,,64,0
174225,note_on,9,0,7,,,,,,,,6,,,52,0
174225,note_on,225,0,6,,,,,,,,5,,,40,0
174225,note_on,225,0,2,,,,,,,,1,,,64,0
174225,note_on,225,0,1,,,,,,,,0,,,85,0
174225,note_on,225,0,3,,,,,,,,2,,,64,0
174225,note_on,225,0,4,,,,,,,,3,,,64,0
174225,note_on,225,0,5,,,,,,,,4,,,52,0
174229,note_on,4,0,7,,,,,,,,6,,,73,0
174240,note_on,15,0,1,,,,,,,,0,,,76,85
174240,note_on,15,0,3,,,,,,,,2,,,58,49
174240,note_on,15,0,4,,,,,,,,3,,,58,49
174240,note_on,15,0,2,,,,,,,,1,,,58,49
174240,note_on,11,0,7,,,,,,,,6,,,76,64
174240,note_on,0,0,7,,,,,,,,6,,,73,64
174240,note_on,0,0,7,,,,,,,,6,,,70,64
174240,note_on,0,0,7,,,,,,,,6,,,46,85
174240,note_on,15,0,6,,,,,,,,5,,,34,49
174240,note_on,15,0,5,,,,,,,,4,,,46,49
174247,note_on,7,0,7,,,,,,,,6,,,70,0
174575,note_on,335,0,5,,,,,,,,4,,,46,0
174575,note_on,335,0,4,,,,,,,,3,,,58,0
174575,note_on,335,0,2,,,,,,,,1,,,58,0
174575,note_on,335,0,6,,,,,,,,5,,,34,0
174575,note_on,335,0,3,,,,,,,,2,,,58,0
174575,note_on,328,0,7,,,,,,,,6,,,46,0
174600,note_on,25,0,5,,,,,,,,4,,,47,49
174600,note_on,25,0,2,,,,,,,,1,,,59,49
174600,note_on,25,0,3,,,,,,,,2,,,59,49
174600,note_on,25,0,6,,,,,,,,5,,,35,49
174600,note_on,25,0,7,,,,,,,,6,,,47,85
174600,note_on,25,0,4,,,,,,,,3,,,59,49
174715,note_on,115,0,4,,,,,,,,3,,,59,0
174715,note_on,115,0,3,,,,,,,,2,,,59,0
174715,note_on,115,0,5,,,,,,,,4,,,47,0
174715,note_on,115,0,2,,,,,,,,1,,,59,0
174715,note_on,115,0,7,,,,,,,,6,,,47,0
174715,note_on,115,0,6,,,,,,,,5,,,35,0
174720,note_on,5,0,7,,,,,,,,6,,,46,85
174720,note_on,5,0,2,,,,,,,,1,,,58,49
174720,note_on,5,0,3,,,,,,,,2,,,58,49
174720,note_on,5,0,5,,,,,,,,4,,,46,49
174720,note_on,5,0,4,,,,,,,,3,,,58,49
174720,note_on,5,0,6,,,,,,,,5,,,34,49
174945,note_on,225,0,7,,,,,,,,6,,,46,0
174945,note_on,225,0,5,,,,,,,,4,,,46,0
174945,note_on,225,0,4,,,,,,,,3,,,58,0
174945,note_on,225,0,2,,,,,,,,1,,,58,0
174945,note_on,225,0,3,,,,,,,,2,,,58,0
174945,note_on,225,0,6,,,,,,,,5,,,34,0
174960,note_on,15,0,2,,,,,,,,1,,,58,49
174960,note_on,15,0,7,,,,,,,,6,,,46,85
174960,note_on,15,0,4,,,,,,,,3,,,58,49
174960,note_on,15,0,6,,,,,,,,5,,,34,49
174960,note_on,15,0,3,,,,,,,,2,,,58,49
174960,note_on,15,0,5,,,,,,,,4,,,46,49
175405,note_on,445,0,5,,,,,,,,4,,,46,0
175405,note_on,445,0,6,,,,,,,,5,,,34,0
175405,note_on,445,0,7,,,,,,,,6,,,46,0
175405,note_on,445,0,2,,,,,,,,1,,,58,0
175405,note_on,1165,0,1,,,,,,,,0,,,76,0
175405,note_on,445,0,4,,,,,,,,3,,,58,0
175405,note_on,445,0,3,,,,,,,,2,,,58,0
175440,note_on,35,0,4,,,,,,,,3,,,58,49
175440,note_on,35,0,3,,,,,,,,2,,,58,49
175440,note_on,35,0,2,,,,,,,,1,,,58,49
175440,note_on,35,0,1,,,,,,,,0,,,78,85
175440,note_on,35,0,6,,,,,,,,5,,,34,49
175440,note_on,35,0,5,,,,,,,,4,,,46,49
175440,note_on,35,0,7,,,,,,,,6,,,46,85
175625,note_on,0,0,7,,,,,,,,6,,,73,0
175625,note_on,0,0,7,,,,,,,,6,,,76,0
175625,note_on,185,0,7,,,,,,,,6,,,70,0
175665,note_on,225,0,4,,,,,,,,3,,,58,0
175665,note_on,225,0,3,,,,,,,,2,,,58,0
175665,note_on,40,0,7,,,,,,,,6,,,46,0
175665,note_on,225,0,5,,,,,,,,4,,,46,0
175665,note_on,225,0,1,,,,,,,,0,,,78,0
175665,note_on,225,0,6,,,,,,,,5,,,34,0
175665,note_on,225,0,2,,,,,,,,1,,,58,0
175680,note_on,15,0,4,,,,,,,,3,,,59,49
175680,note_on,15,0,7,,,,,,,,6,,,47,85
175680,note_on,15,0,6,,,,,,,,5,,,35,49
175680,note_on,15,0,1,,,,,,,,0,,,74,85
175680,note_on,15,0,5,,,,,,,,4,,,47,49
175680,note_on,15,0,2,,,,,,,,1,,,59,49
175680,note_on,15,0,3,,,,,,,,2,,,59,49
175716,note_on,36,0,7,,,,,,,,6,,,66,64
175753,note_on,37,0,7,,,,,,,,6,,,71,64
175794,note_on,41,0,7,,,,,,,,6,,,74,64
176015,note_on,335,0,1,,,,,,,,0,,,74,0
176040,note_on,25,0,1,,,,,,,,0,,,73,85
176125,note_on,445,0,5,,,,,,,,4,,,47,0
176125,note_on,445,0,6,,,,,,,,5,,,35,0
176125,note_on,445,0,2,,,,,,,,1,,,59,0
176125,note_on,445,0,3,,,,,,,,2,,,59,0
176125,note_on,445,0,4,,,,,,,,3,,,59,0
176125,note_on,331,0,7,,,,,,,,6,,,47,0
176155,note_on,115,0,1,,,,,,,,0,,,73,0
176160,note_on,35,0,5,,,,,,,,4,,,47,49
176160,note_on,35,0,3,,,,,,,,2,,,59,49
176160,note_on,35,0,2,,,,,,,,1,,,59,49
176160,note_on,35,0,7,,,,,,,,6,,,47,85
176160,note_on,5,0,1,,,,,,,,0,,,71,85
176160,note_on,35,0,4,,,,,,,,3,,,59,49
176160,note_on,35,0,6,,,,,,,,5,,,35,49
176381,note_on,221,0,7,,,,,,,,6,,,66,0
176385,note_on,225,0,4,,,,,,,,3,,,59,0
176385,note_on,225,0,2,,,,,,,,1,,,59,0
176385,note_on,225,0,3,,,,,,,,2,,,59,0
176385,note_on,225,0,1,,,,,,,,0,,,71,0
176385,note_on,225,0,5,,,,,,,,4,,,47,0
176385,note_on,4,0,7,,,,,,,,6,,,47,0
176385,note_on,225,0,6,,,,,,,,5,,,35,0
176400,note_on,15,0,6,,,,,,,,5,,,42,49
176400,note_on,15,0,2,,,,,,,,1,,,66,49
176400,note_on,15,0,4,,,,,,,,3,,,66,49
176400,note_on,15,0,7,,,,,,,,6,,,73,64
176400,note_on,15,0,3,,,,,,,,2,,,66,49
176400,note_on,0,0,7,,,,,,,,6,,,66,64
176400,note_on,0,0,7,,,,,,,,6,,,54,85
176400,note_on,0,0,7,,,,,,,,6,,,70,64
176400,note_on,15,0,1,,,,,,,,0,,,73,85
176400,note_on,15,0,5,,,,,,,,4,,,54,49
176418,note_on,18,0,7,,,,,,,,6,,,71,0
176459,note_on,41,0,7,,,,,,,,6,,,74,0
176845,note_on,445,0,2,,,,,,,,1,,,66,0
176845,note_on,445,0,6,,,,,,,,5,,,42,0
176845,note_on,445,0,4,,,,,,,,3,,,66,0
176845,note_on,386,0,7,,,,,,,,6,,,54,0
176845,note_on,445,0,5,,,,,,,,4,,,54,0
176845,note_on,445,0,3,,,,,,,,2,,,66,0
176880,note_on,35,0,3,,,,,,,,2,,,54,49
176880,note_on,35,0,4,,,,,,,,3,,,54,49
176880,note_on,35,0,7,,,,,,,,6,,,42,85
176880,note_on,35,0,2,,,,,,,,1,,,54,49
176880,note_on,35,0,6,,,,,,,,5,,,30,49
176880,note_on,35,0,5,,,,,,,,4,,,42,49
177065,note_on,0,0,7,,,,,,,,6,,,66,0
177065,note_on,0,0,7,,,,,,,,6,,,73,0
177065,note_on,185,0,7,,,,,,,,6,,,70,0
177065,note_on,665,0,1,,,,,,,,0,,,73,0
177105,note_on,225,0,6,,,,,,,,5,,,30,0
177105,note_on,225,0,2,,,,,,,,1,,,54,0
177105,note_on,225,0,4,,,,,,,,3,,,54,0
177105,note_on,225,0,5,,,,,,,,4,,,42,0
177105,note_on,40,0,7,,,,,,,,6,,,42,0
177105,note_on,225,0,3,,,,,,,,2,,,54,0
177120,note_on,15,0,4,,,,,,,,3,,,71,64
177120,note_on,15,0,6,,,,,,,,5,,,47,64
177120,note_on,15,0,5,,,,,,,,4,,,59,64
177120,note_on,15,0,2,,,,,,,,1,,,71,64
177120,note_on,0,0,7,,,,,,,,6,,,59,85
177120,note_on,15,0,7,,,,,,,,6,,,71,64
177120,note_on,15,0,3,,,,,,,,2,,,71,64
177120,note_on,55,0,1,,,,,,,,0,,,71,85
177455,note_on,335,0,5,,,,,,,,4,,,59,0
177455,note_on,335,0,2,,,,,,,,1,,,71,0
177455,note_on,335,0,3,,,,,,,,2,,,71,0
177455,note_on,335,0,4,,,,,,,,3,,,71,0
177455,note_on,335,0,7,,,,,,,,6,,,59,0
177455,note_on,0,0,7,,,,,,,,6,,,71,0
177455,note_on,335,0,6,,,,,,,,5,,,47,0
177480,note_on,25,0,6,,,,,,,,5,,,49,64
177480,note_on,25,0,7,,,,,,,,6,,,73,64
177480,note_on,25,0,2,,,,,,,,1,,,73,64
177480,note_on,0,0,7,,,,,,,,6,,,61,85
177480,note_on,25,0,5,,,,,,,,4,,,61,64
177480,note_on,25,0,4,,,,,,,,3,,,73,64
177480,note_on,25,0,3,,,,,,,,2,,,73,64
177595,note_on,115,0,7,,,,,,,,6,,,61,0
177595,note_on,115,0,5,,,,,,,,4,,,61,0
177595,note_on,115,0,3,,,,,,,,2,,,73,0
177595,note_on,0,0,7,,,,,,,,6,,,73,0
177595,note_on,115,0,4,,,,,,,,3,,,73,0
177595,note_on,115,0,2,,,,,,,,1,,,73,0
177595,note_on,115,0,6,,,,,,,,5,,,49,0
177600,note_on,5,0,5,,,,,,,,4,,,59,64
177600,note_on,5,0,4,,,,,,,,3,,,71,64
177600,note_on,0,0,7,,,,,,,,6,,,59,85
177600,note_on,5,0,7,,,,,,,,6,,,71,64
177600,note_on,5,0,2,,,,,,,,1,,,71,64
177600,note_on,5,0,6,,,,,,,,5,,,47,64
177600,note_on,5,0,3,,,,,,,,2,,,71,64
177785,note_on,665,0,1,,,,,,,,0,,,71,0
177825,note_on,225,0,7,,,,,,,,6,,,59,0
177825,note_on,225,0,6,,,,,,,,5,,,47,0
177825,note_on,225,0,3,,,,,,,,2,,,71,0
177825,note_on,0,0,7,,,,,,,,6,,,71,0
177825,note_on,225,0,5,,,,,,,,4,,,59,0
177825,note_on,225,0,4,,,,,,,,3,,,71,0
177825,note_on,225,0,2,,,,,,,,1,,,71,0
177840,note_on,15,0,5,,,,,,,,4,,,59,64
177840,note_on,15,0,4,,,,,,,,3,,,71,64
177840,note_on,15,0,7,,,,,,,,6,,,71,64
177840,note_on,15,0,6,,,,,,,,5,,,47,64
177840,note_on,0,0,7,,,,,,,,6,,,59,85
177840,note_on,15,0,3,,,,,,,,2,,,71,64
177840,note_on,15,0,2,,,,,,,,1,,,71,64
178285,note_on,445,0,5,,,,,,,,4,,,59,0
178285,note_on,445,0,4,,,,,,,,3,,,71,0
178285,note_on,0,0,7,,,,,,,,6,,,71,0
178285,note_on,445,0,7,,,,,,,,6,,,59,0
178285,note_on,445,0,6,,,,,,,,5,,,47,0
178285,note_on,445,0,2,,,,,,,,1,,,71,0
178285,note_on,445,0,3,,,,,,,,2,,,71,0
178320,note_on,35,0,7,,,,,,,,6,,,71,64
178320,note_on,35,0,2,,,,,,,,1,,,71,64
178320,note_on,35,0,4,,,,,,,,3,,,71,64
178320,note_on,35,0,5,,,,,,,,4,,,59,64
178320,note_on,35,0,6,,,,,,,,5,,,47,64
178320,note_on,35,0,3,,,,,,,,2,,,71,64
178320,note_on,0,0,7,,,,,,,,6,,,59,85
178545,note_on,225,0,4,,,,,,,,3,,,71,0
178545,note_on,225,0,6,,,,,,,,5,,,47,0
178545,note_on,225,0,3,,,,,,,,2,,,71,0
178545,note_on,225,0,5,,,,,,,,4,,,59,0
178545,note_on,225,0,2,,,,,,,,1,,,71,0
178545,note_on,225,0,7,,,,,,,,6,,,59,0
178545,note_on,0,0,7,,,,,,,,6,,,71,0
178560,note_on,15,0,7,,,,,,,,6,,,58,85
178560,note_on,15,0,6,,,,,,,,5,,,46,64
178560,note_on,15,0,4,,,,,,,,3,,,70,64
178560,note_on,15,0,3,,,,,,,,2,,,70,64
178560,note_on,15,0,2,,,,,,,,1,,,70,64
178560,note_on,15,0,5,,,,,,,,4,,,58,64
178598,note_on,38,0,7,,,,,,,,6,,,64,64
178637,note_on,39,0,7,,,,,,,,6,,,67,64
178715,note_on,78,0,7,,,,,,,,6,,,73,64
179005,note_on,445,0,3,,,,,,,,2,,,70,0
179005,note_on,445,0,2,,,,,,,,1,,,70,0
179005,note_on,445,0,5,,,,,,,,4,,,58,0
179005,note_on,290,0,7,,,,,,,,6,,,58,0
179005,note_on,445,0,4,,,,,,,,3,,,70,0
179005,note_on,445,0,6,,,,,,,,5,,,46,0
179263,note_on,258,0,7,,,,,,,,6,,,64,0
179280,note_on,275,0,2,,,,,,,,1,,,69,64
179280,note_on,0,0,7,,,,,,,,6,,,57,85
179280,note_on,275,0,6,,,,,,,,5,,,45,64
179280,note_on,275,0,4,,,,,,,,3,,,69,64
179280,note_on,275,0,5,,,,,,,,4,,,57,64
179280,note_on,275,0,3,,,,,,,,2,,,69,64
179280,note_on,0,0,7,,,,,,,,6,,,69,64
179280,note_on,17,0,7,,,,,,,,6,,,72,64
179280,note_on,0,0,7,,,,,,,,6,,,66,64
179302,note_on,22,0,7,,,,,,,,6,,,67,0
179380,note_on,78,0,7,,,,,,,,6,,,73,0
179615,note_on,335,0,5,,,,,,,,4,,,57,0
179615,note_on,335,0,4,,,,,,,,3,,,69,0
179615,note_on,235,0,7,,,,,,,,6,,,57,0
179615,note_on,335,0,6,,,,,,,,5,,,45,0
179615,note_on,335,0,2,,,,,,,,1,,,69,0
179615,note_on,335,0,3,,,,,,,,2,,,69,0
179640,note_on,25,0,6,,,,,,,,5,,,47,64
179640,note_on,25,0,7,,,,,,,,6,,,59,85
179640,note_on,25,0,5,,,,,,,,4,,,59,64
179640,note_on,25,0,4,,,,,,,,3,,,71,64
179640,note_on,25,0,3,,,,,,,,2,,,71,64
179640,note_on,25,0,2,,,,,,,,1,,,71,64
179755,note_on,115,0,7,,,,,,,,6,,,59,0
179755,note_on,115,0,6,,,,,,,,5,,,47,0
179755,note_on,115,0,3,,,,,,,,2,,,71,0
179755,note_on,115,0,4,,,,,,,,3,,,71,0
179755,note_on,115,0,5,,,,,,,,4,,,59,0
179755,note_on,115,0,2,,,,,,,,1,,,71,0
179760,note_on,5,0,3,,,,,,,,2,,,69,64
179760,note_on,5,0,6,,,,,,,,5,,,45,64
179760,note_on,5,0,4,,,,,,,,3,,,69,64
179760,note_on,5,0,7,,,,,,,,6,,,57,85
179760,note_on,5,0,2,,,,,,,,1,,,69,64
179760,note_on,5,0,5,,,,,,,,4,,,57,64
179945,note_on,185,0,7,,,,,,,,6,,,72,0
179945,note_on,0,0,7,,,,,,,,6,,,69,0
179945,note_on,0,0,7,,,,,,,,6,,,66,0
179985,note_on,225,0,2,,,,,,,,1,,,69,0
179985,note_on,225,0,4,,,,,,,,3,,,69,0
179985,note_on,225,0,5,,,,,,,,4,,,57,0
179985,note_on,40,0,7,,,,,,,,6,,,57,0
179985,note_on,225,0,6,,,,,,,,5,,,45,0
179985,note_on,225,0,3,,,,,,,,2,,,69,0
180000,note_on,0,0,7,,,,,,,,6,,,56,85
180000,note_on,0,0,7,,,,,,,,6,,,71,64
180000,note_on,15,0,7,,,,,,,,6,,,74,64
180000,note_on,0,0,7,,,,,,,,6,,,66,64
180000,note_on,15,0,5,,,,,,,,4,,,56,64
180000,note_on,15,0,6,,,,,,,,5,,,44,64
180000,note_on,15,0,2,,,,,,,,1,,,68,64
180000,note_on,15,0,4,,,,,,,,3,,,68,64
180000,note_on,15,0,3,,,,,,,,2,,,68,64
180445,note_on,445,0,2,,,,,,,,1,,,68,0
180445,note_on,445,0,5,,,,,,,,4,,,56,0
180445,note_on,445,0,3,,,,,,,,2,,,68,0
180445,note_on,445,0,6,,,,,,,,5,,,44,0
180445,note_on,445,0,4,,,,,,,,3,,,68,0
180445,note_on,445,0,7,,,,,,,,6,,,56,0
180665,note_on,220,0,7,,,,,,,,6,,,74,0
180665,note_on,0,0,7,,,,,,,,6,,,66,0
180665,note_on,0,0,7,,,,,,,,6,,,71,0
180720,note_on,275,0,5,,,,,,,,4,,,55,64
180720,note_on,275,0,2,,,,,,,,1,,,67,64
180720,note_on,55,0,7,,,,,,,,6,,,76,64
180720,note_on,0,0,7,,,,,,,,6,,,71,64
180720,note_on,0,0,7,,,,,,,,6,,,67,64
180720,note_on,0,0,7,,,,,,,,6,,,55,85
180720,note_on,275,0,3,,,,,,,,2,,,67,64
180720,note_on,275,0,4,,,,,,,,3,,,67,64
180720,note_on,275,0,6,,,,,,,,5,,,43,64
181055,note_on,335,0,4,,,,,,,,3,,,67,0
181055,note_on,335,0,2,,,,,,,,1,,,67,0
181055,note_on,335,0,7,,,,,,,,6,,,55,0
181055,note_on,335,0,3,,,,,,,,2,,,67,0
181055,note_on,335,0,6,,,,,,,,5,,,43,0
181055,note_on,335,0,5,,,,,,,,4,,,55,0
181080,note_on,25,0,2,,,,,,,,1,,,69,64
181080,note_on,25,0,4,,,,,,,,3,,,69,64
181080,note_on,25,0,7,,,,,,,,6,,,57,85
181080,note_on,25,0,5,,,,,,,,4,,,57,64
181080,note_on,25,0,3,,,,,,,,2,,,69,64
181080,note_on,25,0,6,,,,,,,,5,,,45,64
181195,note_on,115,0,5,,,,,,,,4,,,57,0
181195,note_on,115,0,4,,,,,,,,3,,,69,0
181195,note_on,115,0,6,,,,,,,,5,,,45,0
181195,note_on,115,0,2,,,,,,,,1,,,69,0
181195,note_on,115,0,7,,,,,,,,6,,,57,0
181195,note_on,115,0,3,,,,,,,,2,,,69,0
181200,note_on,5,0,3,,,,,,,,2,,,67,64
181200,note_on,5,0,2,,,,,,,,1,,,67,64
181200,note_on,5,0,7,,,,,,,,6,,,55,85
181200,note_on,5,0,6,,,,,,,,5,,,43,64
181200,note_on,5,0,4,,,,,,,,3,,,67,64
181200,note_on,5,0,5,,,,,,,,4,,,55,64
181385,note_on,0,0,7,,,,,,,,6,,,76,0
181385,note_on,0,0,7,,,,,,,,6,,,71,0
181385,note_on,185,0,7,,,,,,,,6,,,67,0
181425,note_on,225,0,4,,,,,,,,3,,,67,0
181425,note_on,225,0,2,,,,,,,,1,,,67,0
181425,note_on,40,0,7,,,,,,,,6,,,55,0
181425,note_on,225,0,3,,,,,,,,2,,,67,0
181425,note_on,225,0,5,,,,,,,,4,,,55,0
181425,note_on,225,0,6,,,,,,,,5,,,43,0
181440,note_on,15,0,3,,,,,,,,2,,,66,64
181440,note_on,15,0,7,,,,,,,,6,,,54,85
181440,note_on,15,0,5,,,,,,,,4,,,54,64
181440,note_on,15,0,2,,,,,,,,1,,,66,64
181440,note_on,15,0,4,,,,,,,,3,,,66,64
181440,note_on,15,0,6,,,,,,,,5,,,42,64
181530,note_on,90,0,7,,,,,,,,6,,,64,64
181595,note_on,65,0,7,,,,,,,,6,,,70,64
181660,note_on,65,0,7,,,,,,,,6,,,78,64
182105,note_on,665,0,6,,,,,,,,5,,,42,0
182105,note_on,665,0,4,,,,,,,,3,,,66,0
182105,note_on,665,0,5,,,,,,,,4,,,54,0
182105,note_on,445,0,7,,,,,,,,6,,,54,0
182105,note_on,665,0,2,,,,,,,,1,,,66,0
182105,note_on,665,0,3,,,,,,,,2,,,66,0
182195,note_on,90,0,7,,,,,,,,6,,,64,0
182260,note_on,65,0,7,,,,,,,,6,,,70,0
182325,note_on,65,0,7,,,,,,,,6,,,78,0
182880,note_on,775,0,4,,,,,,,,3,,,62,49
182880,note_on,775,0,5,,,,,,,,4,,,50,49
182880,note_on,775,0,3,,,,,,,,2,,,62,49
182880,note_on,0,0,7,,,,,,,,6,,,50,85
182880,note_on,0,0,7,,,,,,,,6,,,62,64
182880,note_on,0,0,7,,,,,,,,6,,,66,64
182880,note_on,555,0,7,,,,,,,,6,,,71,64
182880,note_on,5095,0,1,,,,,,,,0,,,71,85
182880,note_on,775,0,6,,,,,,,,5,,,38,49
182880,note_on,775,0,2,,,,,,,,1,,,62,49
183215,note_on,335,0,5,,,,,,,,4,,,50,0
183215,note_on,335,0,3,,,,,,,,2,,,62,0
183215,note_on,335,0,6,,,,,,,,5,,,38,0
183215,note_on,335,0,7,,,,,,,,6,,,50,0
183215,note_on,335,0,4,,,,,,,,3,,,62,0
183215,note_on,335,0,2,,,,,,,,1,,,62,0
183240,note_on,25,0,2,,,,,,,,1,,,64,49
183240,note_on,25,0,7,,,,,,,,6,,,52,85
183240,note_on,25,0,5,,,,,,,,4,,,52,49
183240,note_on,25,0,6,,,,,,,,5,,,40,49
183240,note_on,25,0,3,,,,,,,,2,,,64,49
183240,note_on,25,0,4,,,,,,,,3,,,64,49
183355,note_on,115,0,2,,,,,,,,1,,,64,0
183355,note_on,115,0,7,,,,,,,,6,,,52,0
183355,note_on,115,0,3,,,,,,,,2,,,64,0
183355,note_on,115,0,5,,,,,,,,4,,,52,0
183355,note_on,115,0,6,,,,,,,,5,,,40,0
183355,note_on,115,0,4,,,,,,,,3,,,64,0
183360,note_on,5,0,7,,,,,,,,6,,,50,85
183360,note_on,5,0,2,,,,,,,,1,,,62,49
183360,note_on,5,0,4,,,,,,,,3,,,62,49
183360,note_on,5,0,3,,,,,,,,2,,,62,49
183360,note_on,5,0,6,,,,,,,,5,,,38,49
183360,note_on,5,0,5,,,,,,,,4,,,50,49
183545,note_on,0,0,7,,,,,,,,6,,,71,0
183545,note_on,185,0,7,,,,,,,,6,,,62,0
183545,note_on,0,0,7,,,,,,,,6,,,66,0
183585,note_on,225,0,5,,,,,,,,4,,,50,0
183585,note_on,225,0,4,,,,,,,,3,,,62,0
183585,note_on,225,0,3,,,,,,,,2,,,62,0
183585,note_on,225,0,6,,,,,,,,5,,,38,0
183585,note_on,40,0,7,,,,,,,,6,,,50,0
183585,note_on,225,0,2,,,,,,,,1,,,62,0
183600,note_on,15,0,3,,,,,,,,2,,,62,49
183600,note_on,0,0,7,,,,,,,,6,,,50,85
183600,note_on,0,0,7,,,,,,,,6,,,66,64
183600,note_on,15,0,4,,,,,,,,3,,,62,49
183600,note_on,0,0,7,,,,,,,,6,,,71,64
183600,note_on,15,0,2,,,,,,,,1,,,62,49
183600,note_on,15,0,7,,,,,,,,6,,,74,64
183600,note_on,15,0,6,,,,,,,,5,,,38,49
183600,note_on,15,0,5,,,,,,,,4,,,50,49
183935,note_on,1055,0,1,,,,,,,,0,,,71,0
183960,note_on,25,0,1,,,,,,,,0,,,78,85
184045,note_on,445,0,7,,,,,,,,6,,,50,0
184045,note_on,445,0,5,,,,,,,,4,,,50,0
184045,note_on,445,0,2,,,,,,,,1,,,62,0
184045,note_on,445,0,6,,,,,,,,5,,,38,0
184045,note_on,445,0,4,,,,,,,,3,,,62,0
184045,note_on,445,0,3,,,,,,,,2,,,62,0
184075,note_on,115,0,1,,,,,,,,0,,,78,0
184080,note_on,35,0,5,,,,,,,,4,,,50,49
184080,note_on,35,0,4,,,,,,,,3,,,62,49
184080,note_on,35,0,2,,,,,,,,1,,,62,49
184080,note_on,35,0,6,,,,,,,,5,,,38,49
184080,note_on,35,0,3,,,,,,,,2,,,62,49
184080,note_on,35,0,7,,,,,,,,6,,,50,85
184080,note_on,5,0,1,,,,,,,,0,,,74,85
184265,note_on,0,0,7,,,,,,,,6,,,71,0
184265,note_on,0,0,7,,,,,,,,6,,,66,0
184265,note_on,185,0,7,,,,,,,,6,,,74,0
184305,note_on,225,0,1,,,,,,,,0,,,74,0
184305,note_on,40,0,7,,,,,,,,6,,,50,0
184305,note_on,225,0,3,,,,,,,,2,,,62,0
184305,note_on,225,0,5,,,,,,,,4,,,50,0
184305,note_on,225,0,4,,,,,,,,3,,,62,0
184305,note_on,225,0,6,,,,,,,,5,,,38,0
184305,note_on,225,0,2,,,,,,,,1,,,62,0
184320,note_on,15,0,7,,,,,,,,6,,,71,64
184320,note_on,0,0,7,,,,,,,,6,,,67,64
184320,note_on,15,0,6,,,,,,,,5,,,40,49
184320,note_on,0,0,7,,,,,,,,6,,,64,64
184320,note_on,15,0,1,,,,,,,,0,,,71,85
184320,note_on,15,0,2,,,,,,,,1,,,64,49
184320,note_on,0,0,7,,,,,,,,6,,,52,85
184320,note_on,15,0,3,,,,,,,,2,,,64,49
184320,note_on,15,0,5,,,,,,,,4,,,52,49
184320,note_on,15,0,4,,,,,,,,3,,,64,49
184655,note_on,335,0,2,,,,,,,,1,,,64,0
184655,note_on,335,0,7,,,,,,,,6,,,52,0
184655,note_on,335,0,3,,,,,,,,2,,,64,0
184655,note_on,335,0,5,,,,,,,,4,,,52,0
184655,note_on,335,0,4,,,,,,,,3,,,64,0
184655,note_on,335,0,6,,,,,,,,5,,,40,0
184680,note_on,25,0,7,,,,,,,,6,,,54,85
184680,note_on,25,0,6,,,,,,,,5,,,42,49
184680,note_on,25,0,5,,,,,,,,4,,,54,49
184680,note_on,25,0,3,,,,,,,,2,,,66,49
184680,note_on,25,0,4,,,,,,,,3,,,66,49
184680,note_on,25,0,2,,,,,,,,1,,,66,49
184795,note_on,115,0,7,,,,,,,,6,,,54,0
184795,note_on,115,0,3,,,,,,,,2,,,66,0
184795,note_on,115,0,2,,,,,,,,1,,,66,0
184795,note_on,115,0,6,,,,,,,,5,,,42,0
184795,note_on,115,0,5,,,,,,,,4,,,54,0
184795,note_on,115,0,4,,,,,,,,3,,,66,0
184800,note_on,5,0,3,,,,,,,,2,,,64,49
184800,note_on,5,0,5,,,,,,,,4,,,52,49
184800,note_on,5,0,4,,,,,,,,3,,,64,49
184800,note_on,5,0,6,,,,,,,,5,,,40,49
184800,note_on,5,0,7,,,,,,,,6,,,52,85
184800,note_on,5,0,2,,,,,,,,1,,,64,49
184985,note_on,0,0,7,,,,,,,,6,,,71,0
184985,note_on,0,0,7,,,,,,,,6,,,67,0
184985,note_on,185,0,7,,,,,,,,6,,,64,0
185025,note_on,225,0,4,,,,,,,,3,,,64,0
185025,note_on,225,0,5,,,,,,,,4,,,52,0
185025,note_on,225,0,6,,,,,,,,5,,,40,0
185025,note_on,225,0,2,,,,,,,,1,,,64,0
185025,note_on,225,0,3,,,,,,,,2,,,64,0
185025,note_on,40,0,7,,,,,,,,6,,,52,0
185040,note_on,15,0,3,,,,,,,,2,,,64,49
185040,note_on,15,0,6,,,,,,,,5,,,40,49
185040,note_on,0,0,7,,,,,,,,6,,,67,64
185040,note_on,0,0,7,,,,,,,,6,,,52,85
185040,note_on,15,0,5,,,,,,,,4,,,52,49
185040,note_on,15,0,2,,,,,,,,1,,,64,49
185040,note_on,15,0,4,,,,,,,,3,,,64,49
185040,note_on,15,0,7,,,,,,,,6,,,76,64
185040,note_on,0,0,7,,,,,,,,6,,,71,64
185375,note_on,1055,0,1,,,,,,,,0,,,71,0
185400,note_on,25,0,1,,,,,,,,0,,,79,85
185485,note_on,445,0,6,,,,,,,,5,,,40,0
185485,note_on,445,0,4,,,,,,,,3,,,64,0
185485,note_on,445,0,3,,,,,,,,2,,,64,0
185485,note_on,445,0,5,,,,,,,,4,,,52,0
185485,note_on,445,0,7,,,,,,,,6,,,52,0
185485,note_on,445,0,2,,,,,,,,1,,,64,0
185515,note_on,115,0,1,,,,,,,,0,,,79,0
185520,note_on,5,0,1,,,,,,,,0,,,76,85
185520,note_on,35,0,3,,,,,,,,2,,,64,49
185520,note_on,35,0,5,,,,,,,,4,,,52,49
185520,note_on,35,0,7,,,,,,,,6,,,52,85
185520,note_on,35,0,6,,,,,,,,5,,,40,49
185520,note_on,35,0,4,,,,,,,,3,,,64,49
185520,note_on,35,0,2,,,,,,,,1,,,64,49
185705,note_on,0,0,7,,,,,,,,6,,,71,0
185705,note_on,0,0,7,,,,,,,,6,,,67,0
185705,note_on,185,0,7,,,,,,,,6,,,76,0
185745,note_on,225,0,4,,,,,,,,3,,,64,0
185745,note_on,225,0,5,,,,,,,,4,,,52,0
185745,note_on,225,0,1,,,,,,,,0,,,76,0
185745,note_on,40,0,7,,,,,,,,6,,,52,0
185745,note_on,225,0,3,,,,,,,,2,,,64,0
185745,note_on,225,0,6,,,,,,,,5,,,40,0
185745,note_on,225,0,2,,,,,,,,1,,,64,0
185760,note_on,15,0,1,,,,,,,,0,,,70,85
185760,note_on,15,0,7,,,,,,,,6,,,73,64
185760,note_on,0,0,7,,,,,,,,6,,,70,64
185760,note_on,0,0,7,,,,,,,,6,,,66,64
185760,note_on,0,0,7,,,,,,,,6,,,54,85
185760,note_on,15,0,4,,,,,,,,3,,,66,49
185760,note_on,15,0,2,,,,,,,,1,,,66,49
185760,note_on,15,0,5,,,,,,,,4,,,54,49
185760,note_on,15,0,3,,,,,,,,2,,,66,49
185760,note_on,15,0,6,,,,,,,,5,,,42,49
186095,note_on,335,0,4,,,,,,,,3,,,66,0
186095,note_on,335,0,3,,,,,,,,2,,,66,0
186095,note_on,335,0,2,,,,,,,,1,,,66,0
186095,note_on,335,0,5,,,,,,,,4,,,54,0
186095,note_on,335,0,6,,,,,,,,5,,,42,0
186095,note_on,335,0,7,,,,,,,,6,,,54,0
186120,note_on,25,0,5,,,,,,,,4,,,55,49
186120,note_on,25,0,2,,,,,,,,1,,,67,49
186120,note_on,25,0,7,,,,,,,,6,,,55,85
186120,note_on,25,0,6,,,,,,,,5,,,43,49
186120,note_on,25,0,4,,,,,,,,3,,,67,49
186120,note_on,25,0,3,,,,,,,,2,,,67,49
186205,note_on,445,0,1,,,,,,,,0,,,70,0
186235,note_on,115,0,6,,,,,,,,5,,,43,0
186235,note_on,115,0,7,,,,,,,,6,,,55,0
186235,note_on,115,0,4,,,,,,,,3,,,67,0
186235,note_on,115,0,3,,,,,,,,2,,,67,0
186235,note_on,115,0,5,,,,,,,,4,,,55,0
186235,note_on,115,0,2,,,,,,,,1,,,67,0
186240,note_on,35,0,1,,,,,,,,0,,,76,85
186240,note_on,5,0,5,,,,,,,,4,,,54,49
186240,note_on,5,0,2,,,,,,,,1,,,66,49
186240,note_on,5,0,6,,,,,,,,5,,,42,49
186240,note_on,5,0,3,,,,,,,,2,,,66,49
186240,note_on,5,0,4,,,,,,,,3,,,66,49
186240,note_on,5,0,7,,,,,,,,6,,,54,85
186425,note_on,0,0,7,,,,,,,,6,,,70,0
186425,note_on,0,0,7,,,,,,,,6,,,73,0
186425,note_on,185,0,7,,,,,,,,6,,,66,0
186465,note_on,225,0,4,,,,,,,,3,,,66,0
186465,note_on,225,0,2,,,,,,,,1,,,66,0
186465,note_on,40,0,7,,,,,,,,6,,,54,0
186465,note_on,225,0,1,,,,,,,,0,,,76,0
186465,note_on,225,0,6,,,,,,,,5,,,42,0
186465,note_on,225,0,3,,,,,,,,2,,,66,0
186465,note_on,225,0,5,,,,,,,,4,,,54,0
186480,note_on,15,0,1,,,,,,,,0,,,74,85
186480,note_on,15,0,3,,,,,,,,2,,,66,49
186480,note_on,15,0,2,,,,,,,,1,,,66,49
186480,note_on,0,0,7,,,,,,,,6,,,70,64
186480,note_on,15,0,4,,,,,,,,3,,,66,49
186480,note_on,0,0,7,,,,,,,,6,,,66,64
186480,note_on,15,0,6,,,,,,,,5,,,42,49
186480,note_on,0,0,7,,,,,,,,6,,,54,85
186480,note_on,15,0,7,,,,,,,,6,,,74,64
186480,note_on,15,0,5,,,,,,,,4,,,54,49
186815,note_on,335,0,1,,,,,,,,0,,,74,0
186840,note_on,25,0,1,,,,,,,,0,,,76,85
186925,note_on,445,0,5,,,,,,,,4,,,54,0
186925,note_on,445,0,2,,,,,,,,1,,,66,0
186925,note_on,0,0,7,,,,,,,,6,,,74,0
186925,note_on,445,0,6,,,,,,,,5,,,42,0
186925,note_on,445,0,3,,,,,,,,2,,,66,0
186925,note_on,0,0,7,,,,,,,,6,,,66,0
186925,note_on,0,0,7,,,,,,,,6,,,70,0
186925,note_on,445,0,4,,,,,,,,3,,,66,0
186925,note_on,445,0,7,,,,,,,,6,,,54,0
186955,note_on,115,0,1,,,,,,,,0,,,76,0
186960,note_on,5,0,1,,,,,,,,0,,,73,85
186960,note_on,35,0,3,,,,,,,,2,,,54,49
186960,note_on,35,0,2,,,,,,,,1,,,54,49
186960,note_on,35,0,5,,,,,,,,4,,,42,49
186960,note_on,35,0,6,,,,,,,,5,,,30,49
186960,note_on,35,0,4,,,,,,,,3,,,54,49
186960,note_on,0,0,7,,,,,,,,6,,,42,85
186960,note_on,0,0,7,,,,,,,,6,,,66,64
186960,note_on,0,0,7,,,,,,,,6,,,70,64
186960,note_on,35,0,7,,,,,,,,6,,,73,64
187185,note_on,225,0,6,,,,,,,,5,,,30,0
187185,note_on,225,0,3,,,,,,,,2,,,54,0
187185,note_on,225,0,4,,,,,,,,3,,,54,0
187185,note_on,225,0,5,,,,,,,,4,,,42,0
187185,note_on,225,0,1,,,,,,,,0,,,73,0
187185,note_on,225,0,2,,,,,,,,1,,,54,0
187185,note_on,0,0,7,,,,,,,,6,,,70,0
187185,note_on,225,0,7,,,,,,,,6,,,42,0
187185,note_on,0,0,7,,,,,,,,6,,,66,0
187185,note_on,0,0,7,,,,,,,,6,,,73,0
187200,note_on,15,0,1,,,,,,,,0,,,74,85
187200,note_on,15,0,7,,,,,,,,6,,,74,64
187200,note_on,15,0,6,,,,,,,,5,,,35,49
187200,note_on,15,0,2,,,,,,,,1,,,59,49
187200,note_on,0,0,7,,,,,,,,6,,,71,64
187200,note_on,15,0,3,,,,,,,,2,,,59,49
187200,note_on,0,0,7,,,,,,,,6,,,66,64
187200,note_on,0,0,7,,,,,,,,6,,,47,85
187200,note_on,15,0,5,,,,,,,,4,,,47,49
187200,note_on,15,0,4,,,,,,,,3,,,59,49
187535,note_on,335,0,2,,,,,,,,1,,,59,0
187535,note_on,335,0,6,,,,,,,,5,,,35,0
187535,note_on,335,0,7,,,,,,,,6,,,47,0
187535,note_on,335,0,5,,,,,,,,4,,,47,0
187535,note_on,335,0,1,,,,,,,,0,,,74,0
187535,note_on,335,0,3,,,,,,,,2,,,59,0
187535,note_on,335,0,4,,,,,,,,3,,,59,0
187560,note_on,25,0,7,,,,,,,,6,,,49,85
187560,note_on,25,0,2,,,,,,,,1,,,61,49
187560,note_on,25,0,5,,,,,,,,4,,,49,49
187560,note_on,25,0,3,,,,,,,,2,,,61,49
187560,note_on,25,0,6,,,,,,,,5,,,37,49
187560,note_on,25,0,1,,,,,,,,0,,,76,85
187560,note_on,25,0,4,,,,,,,,3,,,61,49
187675,note_on,115,0,7,,,,,,,,6,,,49,0
187675,note_on,115,0,6,,,,,,,,5,,,37,0
187675,note_on,115,0,1,,,,,,,,0,,,76,0
187675,note_on,115,0,2,,,,,,,,1,,,61,0
187675,note_on,115,0,5,,,,,,,,4,,,49,0
187675,note_on,115,0,4,,,,,,,,3,,,61,0
187675,note_on,115,0,3,,,,,,,,2,,,61,0
187680,note_on,5,0,1,,,,,,,,0,,,78,85
187680,note_on,5,0,6,,,,,,,,5,,,35,49
187680,note_on,5,0,7,,,,,,,,6,,,47,85
187680,note_on,5,0,3,,,,,,,,2,,,59,49
187680,note_on,5,0,2,,,,,,,,1,,,59,49
187680,note_on,5,0,4,,,,,,,,3,,,59,49
187680,note_on,5,0,5,,,,,,,,4,,,47,49
187865,note_on,0,0,7,,,,,,,,6,,,74,0
187865,note_on,185,0,7,,,,,,,,6,,,66,0
187865,note_on,0,0,7,,,,,,,,6,,,71,0
187905,note_on,225,0,6,,,,,,,,5,,,35,0
187905,note_on,225,0,4,,,,,,,,3,,,59,0
187905,note_on,225,0,1,,,,,,,,0,,,78,0
187905,note_on,225,0,3,,,,,,,,2,,,59,0
187905,note_on,40,0,7,,,,,,,,6,,,47,0
187905,note_on,225,0,5,,,,,,,,4,,,47,0
187905,note_on,225,0,2,,,,,,,,1,,,59,0
187920,note_on,15,0,4,,,,,,,,3,,,59,49
187920,note_on,15,0,6,,,,,,,,5,,,35,49
187920,note_on,15,0,5,,,,,,,,4,,,47,49
187920,note_on,15,0,7,,,,,,,,6,,,71,64
187920,note_on,15,0,1,,,,,,,,0,,,71,85
187920,note_on,15,0,2,,,,,,,,1,,,59,49
187920,note_on,15,0,3,,,,,,,,2,,,59,49
187920,note_on,0,0,7,,,,,,,,6,,,66,64
187920,note_on,0,0,7,,,,,,,,6,,,62,64
187920,note_on,0,0,7,,,,,,,,6,,,47,85
188365,note_on,445,0,7,,,,,,,,6,,,47,0
188365,note_on,445,0,6,,,,,,,,5,,,35,0
188365,note_on,445,0,1,,,,,,,,0,,,71,0
188365,note_on,445,0,5,,,,,,,,4,,,47,0
188365,note_on,445,0,3,,,,,,,,2,,,59,0
188365,note_on,445,0,2,,,,,,,,1,,,59,0
188365,note_on,0,0,7,,,,,,,,6,,,62,0
188365,note_on,0,0,7,,,,,,,,6,,,71,0
188365,note_on,0,0,7,,,,,,,,6,,,66,0
188365,note_on,445,0,4,,,,,,,,3,,,59,0
188400,note_on,35,0,3,,,,,,,,2,,,59,49
188400,note_on,35,0,5,,,,,,,,4,,,47,49
188400,note_on,35,0,6,,,,,,,,5,,,35,49
188400,note_on,35,0,1,,,,,,,,0,,,79,85
188400,note_on,35,0,4,,,,,,,,3,,,59,49
188400,note_on,35,0,7,,,,,,,,6,,,71,64
188400,note_on,0,0,7,,,,,,,,6,,,67,64
188400,note_on,0,0,7,,,,,,,,6,,,62,64
188400,note_on,35,0,2,,,,,,,,1,,,59,49
188400,note_on,0,0,7,,,,,,,,6,,,47,85
188625,note_on,225,0,6,,,,,,,,5,,,35,0
188625,note_on,225,0,3,,,,,,,,2,,,59,0
188625,note_on,225,0,4,,,,,,,,3,,,59,0
188625,note_on,225,0,1,,,,,,,,0,,,79,0
188625,note_on,225,0,2,,,,,,,,1,,,59,0
188625,note_on,225,0,5,,,,,,,,4,,,47,0
188625,note_on,0,0,7,,,,,,,,6,,,62,0
188625,note_on,225,0,7,,,,,,,,6,,,47,0
188625,note_on,0,0,7,,,,,,,,6,,,71,0
188625,note_on,0,0,7,,,,,,,,6,,,67,0
188640,note_on,0,0,7,,,,,,,,6,,,49,85
188640,note_on,15,0,2,,,,,,,,1,,,61,49
188640,note_on,15,0,5,,,,,,,,4,,,49,49
188640,note_on,15,0,7,,,,,,,,6,,,71,64
188640,note_on,0,0,7,,,,,,,,6,,,67,64
188640,note_on,0,0,7,,,,,,,,6,,,65,64
188640,note_on,15,0,3,,,,,,,,2,,,61,49
188640,note_on,15,0,1,,,,,,,,0,,,77,85
188640,note_on,15,0,6,,,,,,,,5,,,37,49
188640,note_on,15,0,4,,,,,,,,3,,,61,49
188975,note_on,335,0,4,,,,,,,,3,,,61,0
188975,note_on,335,0,3,,,,,,,,2,,,61,0
188975,note_on,335,0,7,,,,,,,,6,,,49,0
188975,note_on,335,0,5,,,,,,,,4,,,49,0
188975,note_on,335,0,2,,,,,,,,1,,,61,0
188975,note_on,335,0,6,,,,,,,,5,,,37,0
189000,note_on,25,0,3,,,,,,,,2,,,62,49
189000,note_on,25,0,5,,,,,,,,4,,,50,49
189000,note_on,25,0,2,,,,,,,,1,,,62,49
189000,note_on,25,0,7,,,,,,,,6,,,50,85
189000,note_on,25,0,4,,,,,,,,3,,,62,49
189000,note_on,25,0,6,,,,,,,,5,,,38,49
189115,note_on,115,0,5,,,,,,,,4,,,50,0
189115,note_on,115,0,6,,,,,,,,5,,,38,0
189115,note_on,115,0,3,,,,,,,,2,,,62,0
189115,note_on,115,0,7,,,,,,,,6,,,50,0
189115,note_on,115,0,2,,,,,,,,1,,,62,0
189115,note_on,115,0,4,,,,,,,,3,,,62,0
189120,note_on,5,0,6,,,,,,,,5,,,37,49
189120,note_on,5,0,2,,,,,,,,1,,,61,49
189120,note_on,5,0,5,,,,,,,,4,,,49,49
189120,note_on,5,0,4,,,,,,,,3,,,61,49
189120,note_on,5,0,3,,,,,,,,2,,,61,49
189120,note_on,5,0,7,,,,,,,,6,,,49,85
189305,note_on,185,0,7,,,,,,,,6,,,65,0
189305,note_on,0,0,7,,,,,,,,6,,,71,0
189305,note_on,0,0,7,,,,,,,,6,,,67,0
189345,note_on,225,0,4,,,,,,,,3,,,61,0
189345,note_on,225,0,5,,,,,,,,4,,,49,0
189345,note_on,225,0,3,,,,,,,,2,,,61,0
189345,note_on,225,0,2,,,,,,,,1,,,61,0
189345,note_on,40,0,7,,,,,,,,6,,,49,0
189345,note_on,225,0,6,,,,,,,,5,,,37,0
189360,note_on,15,0,6,,,,,,,,5,,,37,49
189360,note_on,15,0,2,,,,,,,,1,,,61,49
189360,note_on,0,0,7,,,,,,,,6,,,49,85
189360,note_on,0,0,7,,,,,,,,6,,,71,64
189360,note_on,15,0,7,,,,,,,,6,,,77,64
189360,note_on,15,0,4,,,,,,,,3,,,61,49
189360,note_on,15,0,5,,,,,,,,4,,,49,49
189360,note_on,15,0,3,,,,,,,,2,,,61,49
189360,note_on,0,0,7,,,,,,,,6,,,67,64
189805,note_on,445,0,7,,,,,,,,6,,,49,0
189805,note_on,445,0,2,,,,,,,,1,,,61,0
189805,note_on,445,0,3,,,,,,,,2,,,61,0
189805,note_on,445,0,4,,,,,,,,3,,,61,0
189805,note_on,445,0,5,,,,,,,,4,,,49,0
189805,note_on,445,0,6,,,,,,,,5,,,37,0
189805,note_on,1165,0,1,,,,,,,,0,,,77,0
189840,note_on,35,0,1,,,,,,,,0,,,80,85
189840,note_on,35,0,2,,,,,,,,1,,,61,49
189840,note_on,35,0,4,,,,,,,,3,,,61,49
189840,note_on,35,0,7,,,,,,,,6,,,49,85
189840,note_on,35,0,5,,,,,,,,4,,,49,49
189840,note_on,35,0,6,,,,,,,,5,,,37,49
189840,note_on,35,0,3,,,,,,,,2,,,61,49
190025,note_on,185,0,7,,,,,,,,6,,,77,0
190025,note_on,0,0,7,,,,,,,,6,,,67,0
190025,note_on,0,0,7,,,,,,,,6,,,71,0
190065,note_on,225,0,2,,,,,,,,1,,,61,0
190065,note_on,225,0,3,,,,,,,,2,,,61,0
190065,note_on,225,0,6,,,,,,,,5,,,37,0
190065,note_on,40,0,7,,,,,,,,6,,,49,0
190065,note_on,225,0,5,,,,,,,,4,,,49,0
190065,note_on,225,0,1,,,,,,,,0,,,80,0
190065,note_on,225,0,4,,,,,,,,3,,,61,0
190080,note_on,15,0,5,,,,,,,,4,,,53,49
190080,note_on,15,0,4,,,,,,,,3,,,65,49
190080,note_on,0,0,7,,,,,,,,6,,,53,85
190080,note_on,0,0,7,,,,,,,,6,,,59,64
190080,note_on,15,0,3,,,,,,,,2,,,65,49
190080,note_on,15,0,7,,,,,,,,6,,,73,64
190080,note_on,15,0,2,,,,,,,,1,,,65,49
190080,note_on,15,0,6,,,,,,,,5,,,41,49
190080,note_on,15,0,1,,,,,,,,0,,,71,85
190415,note_on,335,0,3,,,,,,,,2,,,65,0
190415,note_on,335,0,4,,,,,,,,3,,,65,0
190415,note_on,335,0,5,,,,,,,,4,,,53,0
190415,note_on,335,0,6,,,,,,,,5,,,41,0
190415,note_on,335,0,7,,,,,,,,6,,,53,0
190415,note_on,335,0,2,,,,,,,,1,,,65,0
190440,note_on,25,0,2,,,,,,,,1,,,66,49
190440,note_on,25,0,3,,,,,,,,2,,,66,49
190440,note_on,25,0,4,,,,,,,,3,,,66,49
190440,note_on,25,0,5,,,,,,,,4,,,54,49
190440,note_on,25,0,6,,,,,,,,5,,,42,49
190440,note_on,25,0,7,,,,,,,,6,,,54,85
190555,note_on,115,0,2,,,,,,,,1,,,66,0
190555,note_on,115,0,3,,,,,,,,2,,,66,0
190555,note_on,115,0,7,,,,,,,,6,,,54,0
190555,note_on,115,0,5,,,,,,,,4,,,54,0
190555,note_on,115,0,6,,,,,,,,5,,,42,0
190555,note_on,115,0,4,,,,,,,,3,,,66,0
190560,note_on,5,0,5,,,,,,,,4,,,53,49
190560,note_on,5,0,3,,,,,,,,2,,,65,49
190560,note_on,5,0,6,,,,,,,,5,,,41,49
190560,note_on,5,0,2,,,,,,,,1,,,65,49
190560,note_on,5,0,4,,,,,,,,3,,,65,49
190560,note_on,5,0,7,,,,,,,,6,,,53,85
190785,note_on,225,0,7,,,,,,,,6,,,53,0
190785,note_on,225,0,5,,,,,,,,4,,,53,0
190785,note_on,225,0,3,,,,,,,,2,,,65,0
190785,note_on,225,0,2,,,,,,,,1,,,65,0
190785,note_on,225,0,4,,,,,,,,3,,,65,0
190785,note_on,225,0,6,,,,,,,,5,,,41,0
190800,note_on,15,0,5,,,,,,,,4,,,53,49
190800,note_on,15,0,3,,,,,,,,2,,,65,49
190800,note_on,15,0,7,,,,,,,,6,,,53,85
190800,note_on,15,0,4,,,,,,,,3,,,65,49
190800,note_on,15,0,6,,,,,,,,5,,,41,49
190800,note_on,15,0,2,,,,,,,,1,,,65,49
191245,note_on,445,0,2,,,,,,,,1,,,65,0
191245,note_on,445,0,5,,,,,,,,4,,,53,0
191245,note_on,445,0,7,,,,,,,,6,,,53,0
191245,note_on,445,0,4,,,,,,,,3,,,65,0
191245,note_on,445,0,6,,,,,,,,5,,,41,0
191245,note_on,445,0,3,,,,,,,,2,,,65,0
191245,note_on,1165,0,1,,,,,,,,0,,,71,0
191280,note_on,35,0,5,,,,,,,,4,,,53,49
191280,note_on,35,0,7,,,,,,,,6,,,53,85
191280,note_on,35,0,6,,,,,,,,5,,,41,49
191280,note_on,35,0,1,,,,,,,,0,,,73,85
191280,note_on,35,0,3,,,,,,,,2,,,65,49
191280,note_on,35,0,2,,,,,,,,1,,,65,49
191280,note_on,35,0,4,,,,,,,,3,,,65,49
191465,note_on,0,0,7,,,,,,,,6,,,73,0
191465,note_on,185,0,7,,,,,,,,6,,,59,0
191505,note_on,40,0,7,,,,,,,,6,,,53,0
191505,note_on,225,0,1,,,,,,,,0,,,73,0
191505,note_on,225,0,5,,,,,,,,4,,,53,0
191505,note_on,225,0,6,,,,,,,,5,,,41,0
191505,note_on,225,0,3,,,,,,,,2,,,65,0
191505,note_on,225,0,2,,,,,,,,1,,,65,0
191505,note_on,225,0,4,,,,,,,,3,,,65,0
191520,note_on,15,0,2,,,,,,,,1,,,66,49
191520,note_on,0,0,7,,,,,,,,6,,,61,64
191520,note_on,0,0,7,,,,,,,,6,,,54,85
191520,note_on,15,0,6,,,,,,,,5,,,42,49
191520,note_on,15,0,7,,,,,,,,6,,,69,64
191520,note_on,0,0,7,,,,,,,,6,,,66,64
191520,note_on,15,0,3,,,,,,,,2,,,66,49
191520,note_on,15,0,5,,,,,,,,4,,,54,49
191520,note_on,15,0,1,,,,,,,,0,,,69,85
191520,note_on,15,0,4,,,,,,,,3,,,66,49
191855,note_on,335,0,1,,,,,,,,0,,,69,0
191880,note_on,25,0,1,,,,,,,,0,,,68,85
191965,note_on,445,0,4,,,,,,,,3,,,66,0
191965,note_on,445,0,3,,,,,,,,2,,,66,0
191965,note_on,445,0,2,,,,,,,,1,,,66,0
191965,note_on,445,0,5,,,,,,,,4,,,54,0
191965,note_on,445,0,7,,,,,,,,6,,,54,0
191965,note_on,445,0,6,,,,,,,,5,,,42,0
191995,note_on,115,0,1,,,,,,,,0,,,68,0
192000,note_on,35,0,6,,,,,,,,5,,,30,49
192000,note_on,35,0,2,,,,,,,,1,,,54,49
192000,note_on,5,0,1,,,,,,,,0,,,66,85
192000,note_on,35,0,5,,,,,,,,4,,,42,49
192000,note_on,35,0,4,,,,,,,,3,,,54,49
192000,note_on,35,0,3,,,,,,,,2,,,54,49
192000,note_on,35,0,7,,,,,,,,6,,,42,85
192225,note_on,225,0,6,,,,,,,,5,,,30,0
192225,note_on,225,0,3,,,,,,,,2,,,54,0
192225,note_on,225,0,4,,,,,,,,3,,,54,0
192225,note_on,225,0,1,,,,,,,,0,,,66,0
192225,note_on,225,0,5,,,,,,,,4,,,42,0
192225,note_on,225,0,2,,,,,,,,1,,,54,0
192225,note_on,225,0,7,,,,,,,,6,,,42,0
192240,note_on,15,0,5,,,,,,,,4,,,42,49
192240,note_on,15,0,6,,,,,,,,5,,,30,49
192240,note_on,15,0,3,,,,,,,,2,,,54,49
192240,note_on,15,0,1,,,,,,,,0,,,66,85
192240,note_on,15,0,7,,,,,,,,6,,,42,85
192240,note_on,15,0,4,,,,,,,,3,,,54,49
192240,note_on,15,0,2,,,,,,,,1,,,54,49
192905,note_on,0,0,7,,,,,,,,6,,,69,0
192905,note_on,665,0,5,,,,,,,,4,,,42,0
192905,note_on,0,0,7,,,,,,,,6,,,61,0
192905,note_on,665,0,7,,,,,,,,6,,,42,0
192905,note_on,665,0,6,,,,,,,,5,,,30,0
192905,note_on,665,0,4,,,,,,,,3,,,54,0
192905,note_on,665,0,2,,,,,,,,1,,,54,0
192905,note_on,665,0,1,,,,,,,,0,,,66,0
192905,note_on,0,0,7,,,,,,,,6,,,66,0
192905,note_on,665,0,3,,,,,,,,2,,,54,0
192960,note_on,55,0,7,,,,,,,,6,,,69,64
192960,note_on,55,0,5,,,,,,,,4,,,54,49
192960,note_on,55,0,4,,,,,,,,3,,,66,49
192960,note_on,55,0,1,,,,,,,,0,,,74,85
192960,note_on,0,0,7,,,,,,,,6,,,54,85
192960,note_on,55,0,6,,,,,,,,5,,,42,49
192960,note_on,0,0,7,,,,,,,,6,,,62,64
192960,note_on,55,0,3,,,,,,,,2,,,66,49
192960,note_on,0,0,7,,,,,,,,6,,,66,64
192960,note_on,55,0,2,,,,,,,,1,,,66,49
193295,note_on,335,0,4,,,,,,,,3,,,66,0
193295,note_on,335,0,5,,,,,,,,4,,,54,0
193295,note_on,335,0,7,,,,,,,,6,,,54,0
193295,note_on,335,0,2,,,,,,,,1,,,66,0
193295,note_on,335,0,6,,,,,,,,5,,,42,0
193295,note_on,335,0,3,,,,,,,,2,,,66,0
193320,note_on,25,0,7,,,,,,,,6,,,55,85
193320,note_on,25,0,5,,,,,,,,4,,,55,49
193320,note_on,25,0,6,,,,,,,,5,,,43,49
193320,note_on,25,0,3,,,,,,,,2,,,67,49
193320,note_on,25,0,2,,,,,,,,1,,,67,49
193320,note_on,25,0,4,,,,,,,,3,,,67,49
193435,note_on,115,0,6,,,,,,,,5,,,43,0
193435,note_on,115,0,5,,,,,,,,4,,,55,0
193435,note_on,115,0,2,,,,,,,,1,,,67,0
193435,note_on,115,0,3,,,,,,,,2,,,67,0
193435,note_on,115,0,4,,,,,,,,3,,,67,0
193435,note_on,115,0,7,,,,,,,,6,,,55,0
193440,note_on,5,0,7,,,,,,,,6,,,54,85
193440,note_on,5,0,5,,,,,,,,4,,,54,49
193440,note_on,5,0,3,,,,,,,,2,,,66,49
193440,note_on,5,0,2,,,,,,,,1,,,66,49
193440,note_on,5,0,6,,,,,,,,5,,,42,49
193440,note_on,5,0,4,,,,,,,,3,,,66,49
193625,note_on,0,0,7,,,,,,,,6,,,66,0
193625,note_on,0,0,7,,,,,,,,6,,,69,0
193625,note_on,185,0,7,,,,,,,,6,,,62,0
193665,note_on,40,0,7,,,,,,,,6,,,54,0
193665,note_on,225,0,6,,,,,,,,5,,,42,0
193665,note_on,225,0,3,,,,,,,,2,,,66,0
193665,note_on,225,0,4,,,,,,,,3,,,66,0
193665,note_on,225,0,2,,,,,,,,1,,,66,0
193665,note_on,225,0,5,,,,,,,,4,,,54,0
193680,note_on,0,0,7,,,,,,,,6,,,66,64
193680,note_on,15,0,6,,,,,,,,5,,,42,49
193680,note_on,15,0,2,,,,,,,,1,,,66,49
193680,note_on,15,0,3,,,,,,,,2,,,66,49
193680,note_on,15,0,4,,,,,,,,3,,,66,49
193680,note_on,15,0,5,,,,,,,,4,,,54,49
193680,note_on,0,0,7,,,,,,,,6,,,54,85
193680,note_on,0,0,7,,,,,,,,6,,,69,64
193680,note_on,15,0,7,,,,,,,,6,,,74,64
194015,note_on,1055,0,1,,,,,,,,0,,,74,0
194040,note_on,25,0,1,,,,,,,,0,,,76,85
194125,note_on,445,0,5,,,,,,,,4,,,54,0
194125,note_on,445,0,7,,,,,,,,6,,,54,0
194125,note_on,445,0,6,,,,,,,,5,,,42,0
194125,note_on,445,0,4,,,,,,,,3,,,66,0
194125,note_on,445,0,2,,,,,,,,1,,,66,0
194125,note_on,445,0,3,,,,,,,,2,,,66,0
194155,note_on,115,0,1,,,,,,,,0,,,76,0
194160,note_on,35,0,2,,,,,,,,1,,,66,49
194160,note_on,35,0,6,,,,,,,,5,,,42,49
194160,note_on,5,0,1,,,,,,,,0,,,78,85
194160,note_on,35,0,5,,,,,,,,4,,,54,49
194160,note_on,35,0,7,,,,,,,,6,,,54,85
194160,note_on,35,0,4,,,,,,,,3,,,66,49
194160,note_on,35,0,3,,,,,,,,2,,,66,49
194345,note_on,0,0,7,,,,,,,,6,,,69,0
194345,note_on,0,0,7,,,,,,,,6,,,66,0
194345,note_on,185,0,7,,,,,,,,6,,,74,0
194385,note_on,225,0,1,,,,,,,,0,,,78,0
194385,note_on,40,0,7,,,,,,,,6,,,54,0
194385,note_on,225,0,2,,,,,,,,1,,,66,0
194385,note_on,225,0,4,,,,,,,,3,,,66,0
194385,note_on,225,0,6,,,,,,,,5,,,42,0
194385,note_on,225,0,3,,,,,,,,2,,,66,0
194385,note_on,225,0,5,,,,,,,,4,,,54,0
194400,note_on,15,0,6,,,,,,,,5,,,43,49
194400,note_on,15,0,7,,,,,,,,6,,,74,64
194400,note_on,0,0,7,,,,,,,,6,,,71,64
194400,note_on,0,0,7,,,,,,,,6,,,67,64
194400,note_on,0,0,7,,,,,,,,6,,,55,85
194400,note_on,15,0,1,,,,,,,,0,,,71,85
194400,note_on,15,0,5,,,,,,,,4,,,55,49
194400,note_on,15,0,3,,,,,,,,2,,,67,49
194400,note_on,15,0,2,,,,,,,,1,,,67,49
194400,note_on,15,0,4,,,,,,,,3,,,67,49
194735,note_on,335,0,3,,,,,,,,2,,,67,0
194735,note_on,335,0,5,,,,,,,,4,,,55,0
194735,note_on,335,0,7,,,,,,,,6,,,55,0
194735,note_on,335,0,2,,,,,,,,1,,,67,0
194735,note_on,335,0,6,,,,,,,,5,,,43,0
194735,note_on,335,0,4,,,,,,,,3,,,67,0
194760,note_on,25,0,5,,,,,,,,4,,,57,49
194760,note_on,25,0,2,,,,,,,,1,,,69,49
194760,note_on,25,0,7,,,,,,,,6,,,57,85
194760,note_on,25,0,6,,,,,,,,5,,,45,49
194760,note_on,25,0,3,,,,,,,,2,,,69,49
194760,note_on,25,0,4,,,,,,,,3,,,69,49
194875,note_on,115,0,4,,,,,,,,3,,,69,0
194875,note_on,115,0,6,,,,,,,,5,,,45,0
194875,note_on,115,0,2,,,,,,,,1,,,69,0
194875,note_on,115,0,5,,,,,,,,4,,,57,0
194875,note_on,115,0,3,,,,,,,,2,,,69,0
194875,note_on,115,0,7,,,,,,,,6,,,57,0
194880,note_on,5,0,7,,,,,,,,6,,,55,85
194880,note_on,5,0,4,,,,,,,,3,,,67,49
194880,note_on,5,0,6,,,,,,,,5,,,43,49
194880,note_on,5,0,2,,,,,,,,1,,,67,49
194880,note_on,5,0,5,,,,,,,,4,,,55,49
194880,note_on,5,0,3,,,,,,,,2,,,67,49
195065,note_on,185,0,7,,,,,,,,6,,,67,0
195065,note_on,0,0,7,,,,,,,,6,,,74,0
195065,note_on,0,0,7,,,,,,,,6,,,71,0
195105,note_on,225,0,4,,,,,,,,3,,,67,0
195105,note_on,225,0,2,,,,,,,,1,,,67,0
195105,note_on,225,0,5,,,,,,,,4,,,55,0
195105,note_on,225,0,6,,,,,,,,5,,,43,0
195105,note_on,225,0,3,,,,,,,,2,,,67,0
195105,note_on,40,0,7,,,,,,,,6,,,55,0
195120,note_on,15,0,3,,,,,,,,2,,,67,49
195120,note_on,15,0,5,,,,,,,,4,,,55,49
195120,note_on,15,0,2,,,,,,,,1,,,67,49
195120,note_on,0,0,7,,,,,,,,6,,,55,85
195120,note_on,0,0,7,,,,,,,,6,,,62,64
195120,note_on,15,0,4,,,,,,,,3,,,67,49
195120,note_on,0,0,7,,,,,,,,6,,,67,64
195120,note_on,15,0,7,,,,,,,,6,,,71,64
195120,note_on,15,0,6,,,,,,,,5,,,43,49
195565,note_on,445,0,4,,,,,,,,3,,,67,0
195565,note_on,1165,0,1,,,,,,,,0,,,71,0
195565,note_on,445,0,3,,,,,,,,2,,,67,0
195565,note_on,0,0,7,,,,,,,,6,,,62,0
195565,note_on,445,0,5,,,,,,,,4,,,55,0
195565,note_on,445,0,7,,,,,,,,6,,,55,0
195565,note_on,445,0,2,,,,,,,,1,,,67,0
195565,note_on,445,0,6,,,,,,,,5,,,43,0
195565,note_on,0,0,7,,,,,,,,6,,,67,0
195565,note_on,0,0,7,,,,,,,,6,,,71,0
195600,note_on,35,0,3,,,,,,,,2,,,67,49
195600,note_on,35,0,4,,,,,,,,3,,,67,49
195600,note_on,35,0,2,,,,,,,,1,,,67,49
195600,note_on,35,0,5,,,,,,,,4,,,55,49
195600,note_on,35,0,6,,,,,,,,5,,,43,49
195600,note_on,35,0,7,,,,,,,,6,,,76,64
195600,note_on,0,0,7,,,,,,,,6,,,71,64
195600,note_on,0,0,7,,,,,,,,6,,,67,64
195600,note_on,0,0,7,,,,,,,,6,,,55,85
195600,note_on,35,0,1,,,,,,,,0,,,83,85
195825,note_on,225,0,5,,,,,,,,4,,,55,0
195825,note_on,225,0,2,,,,,,,,1,,,67,0
195825,note_on,0,0,7,,,,,,,,6,,,71,0
195825,note_on,225,0,3,,,,,,,,2,,,67,0
195825,note_on,225,0,6,,,,,,,,5,,,43,0
195825,note_on,0,0,7,,,,,,,,6,,,67,0
195825,note_on,0,0,7,,,,,,,,6,,,76,0
195825,note_on,225,0,4,,,,,,,,3,,,67,0
195825,note_on,225,0,1,,,,,,,,0,,,83,0
195825,note_on,225,0,7,,,,,,,,6,,,55,0
195840,note_on,15,0,6,,,,,,,,5,,,43,49
195840,note_on,15,0,4,,,,,,,,3,,,67,49
195840,note_on,15,0,2,,,,,,,,1,,,67,49
195840,note_on,15,0,1,,,,,,,,0,,,76,85
195840,note_on,15,0,7,,,,,,,,6,,,76,64
195840,note_on,0,0,7,,,,,,,,6,,,71,64
195840,note_on,0,0,7,,,,,,,,6,,,67,64
195840,note_on,15,0,3,,,,,,,,2,,,67,49
195840,note_on,0,0,7,,,,,,,,6,,,55,85
195840,note_on,15,0,5,,,,,,,,4,,,55,49
196175,note_on,335,0,3,,,,,,,,2,,,67,0
196175,note_on,335,0,5,,,,,,,,4,,,55,0
196175,note_on,335,0,2,,,,,,,,1,,,67,0
196175,note_on,335,0,6,,,,,,,,5,,,43,0
196175,note_on,335,0,4,,,,,,,,3,,,67,0
196175,note_on,335,0,7,,,,,,,,6,,,55,0
196200,note_on,25,0,3,,,,,,,,2,,,69,49
196200,note_on,25,0,4,,,,,,,,3,,,69,49
196200,note_on,25,0,7,,,,,,,,6,,,57,85
196200,note_on,25,0,5,,,,,,,,4,,,57,49
196200,note_on,25,0,6,,,,,,,,5,,,45,49
196200,note_on,25,0,2,,,,,,,,1,,,69,49
196315,note_on,115,0,7,,,,,,,,6,,,57,0
196315,note_on,115,0,5,,,,,,,,4,,,57,0
196315,note_on,115,0,4,,,,,,,,3,,,69,0
196315,note_on,115,0,2,,,,,,,,1,,,69,0
196315,note_on,115,0,3,,,,,,,,2,,,69,0
196315,note_on,115,0,6,,,,,,,,5,,,45,0
196320,note_on,5,0,2,,,,,,,,1,,,67,49
196320,note_on,5,0,4,,,,,,,,3,,,67,49
196320,note_on,5,0,3,,,,,,,,2,,,67,49
196320,note_on,5,0,5,,,,,,,,4,,,55,49
196320,note_on,5,0,6,,,,,,,,5,,,43,49
196320,note_on,5,0,7,,,,,,,,6,,,55,85
196505,note_on,185,0,7,,,,,,,,6,,,67,0
196505,note_on,0,0,7,,,,,,,,6,,,76,0
196505,note_on,0,0,7,,,,,,,,6,,,71,0
196545,note_on,225,0,5,,,,,,,,4,,,55,0
196545,note_on,225,0,3,,,,,,,,2,,,67,0
196545,note_on,225,0,4,,,,,,,,3,,,67,0
196545,note_on,225,0,2,,,,,,,,1,,,67,0
196545,note_on,40,0,7,,,,,,,,6,,,55,0
196545,note_on,225,0,6,,,,,,,,5,,,43,0
196560,note_on,0,0,7,,,,,,,,6,,,64,64
196560,note_on,0,0,7,,,,,,,,6,,,67,64
196560,note_on,0,0,7,,,,,,,,6,,,55,85
196560,note_on,15,0,6,,,,,,,,5,,,43,49
196560,note_on,15,0,5,,,,,,,,4,,,55,49
196560,note_on,15,0,7,,,,,,,,6,,,71,64
196560,note_on,15,0,3,,,,,,,,2,,,67,49
196560,note_on,15,0,4,,,,,,,,3,,,67,49
196560,note_on,15,0,2,,,,,,,,1,,,67,49
196895,note_on,1055,0,1,,,,,,,,0,,,76,0
196920,note_on,25,0,1,,,,,,,,0,,,78,85
197005,note_on,445,0,7,,,,,,,,6,,,55,0
197005,note_on,445,0,2,,,,,,,,1,,,67,0
197005,note_on,445,0,4,,,,,,,,3,,,67,0
197005,note_on,445,0,6,,,,,,,,5,,,43,0
197005,note_on,445,0,5,,,,,,,,4,,,55,0
197005,note_on,445,0,3,,,,,,,,2,,,67,0
197035,note_on,115,0,1,,,,,,,,0,,,78,0
197040,note_on,35,0,4,,,,,,,,3,,,67,49
197040,note_on,35,0,3,,,,,,,,2,,,67,49
197040,note_on,35,0,2,,,,,,,,1,,,67,49
197040,note_on,35,0,5,,,,,,,,4,,,55,49
197040,note_on,5,0,1,,,,,,,,0,,,79,85
197040,note_on,35,0,7,,,,,,,,6,,,55,85
197040,note_on,35,0,6,,,,,,,,5,,,43,49
197225,note_on,0,0,7,,,,,,,,6,,,67,0
197225,note_on,0,0,7,,,,,,,,6,,,64,0
197225,note_on,185,0,7,,,,,,,,6,,,71,0
197265,note_on,225,0,1,,,,,,,,0,,,79,0
197265,note_on,40,0,7,,,,,,,,6,,,55,0
197265,note_on,225,0,4,,,,,,,,3,,,67,0
197265,note_on,225,0,5,,,,,,,,4,,,55,0
197265,note_on,225,0,6,,,,,,,,5,,,43,0
197265,note_on,225,0,2,,,,,,,,1,,,67,0
197265,note_on,225,0,3,,,,,,,,2,,,67,0
197280,note_on,15,0,1,,,,,,,,0,,,73,85
197280,note_on,0,0,7,,,,,,,,6,,,69,64
197280,note_on,15,0,5,,,,,,,,4,,,57,49
197280,note_on,0,0,7,,,,,,,,6,,,64,64
197280,note_on,15,0,3,,,,,,,,2,,,69,49
197280,note_on,15,0,6,,,,,,,,5,,,45,49
197280,note_on,0,0,7,,,,,,,,6,,,57,85
197280,note_on,15,0,2,,,,,,,,1,,,69,49
197280,note_on,15,0,7,,,,,,,,6,,,73,64
197280,note_on,15,0,4,,,,,,,,3,,,69,49
197615,note_on,335,0,1,,,,,,,,0,,,73,0
197640,note_on,25,0,1,,,,,,,,0,,,71,85
197725,note_on,445,0,3,,,,,,,,2,,,69,0
197725,note_on,445,0,2,,,,,,,,1,,,69,0
197725,note_on,445,0,6,,,,,,,,5,,,45,0
197725,note_on,445,0,4,,,,,,,,3,,,69,0
197725,note_on,445,0,7,,,,,,,,6,,,57,0
197725,note_on,445,0,5,,,,,,,,4,,,57,0
197755,note_on,115,0,1,,,,,,,,0,,,71,0
197760,note_on,35,0,3,,,,,,,,2,,,57,49
197760,note_on,35,0,2,,,,,,,,1,,,57,49
197760,note_on,35,0,6,,,,,,,,5,,,33,49
197760,note_on,5,0,1,,,,,,,,0,,,69,85
197760,note_on,35,0,4,,,,,,,,3,,,57,49
197760,note_on,35,0,7,,,,,,,,6,,,45,85
197760,note_on,35,0,5,,,,,,,,4,,,45,49
197945,note_on,0,0,7,,,,,,,,6,,,69,0
197945,note_on,0,0,7,,,,,,,,6,,,64,0
197945,note_on,185,0,7,,,,,,,,6,,,73,0
197985,note_on,225,0,1,,,,,,,,0,,,69,0
197985,note_on,225,0,5,,,,,,,,4,,,45,0
197985,note_on,225,0,6,,,,,,,,5,,,33,0
197985,note_on,225,0,3,,,,,,,,2,,,57,0
197985,note_on,225,0,2,,,,,,,,1,,,57,0
197985,note_on,40,0,7,,,,,,,,6,,,45,0
197985,note_on,225,0,4,,,,,,,,3,,,57,0
198000,note_on,15,0,7,,,,,,,,6,,,73,64
198000,note_on,0,0,7,,,,,,,,6,,,67,64
198000,note_on,15,0,6,,,,,,,,5,,,33,49
198000,note_on,0,0,7,,,,,,,,6,,,64,64
198000,note_on,0,0,7,,,,,,,,6,,,45,85
198000,note_on,15,0,4,,,,,,,,3,,,57,49
198000,note_on,15,0,5,,,,,,,,4,,,45,49
198000,note_on,15,0,3,,,,,,,,2,,,57,49
198000,note_on,15,0,2,,,,,,,,1,,,57,49
198000,note_on,15,0,1,,,,,,,,0,,,79,85
198445,note_on,445,0,4,,,,,,,,3,,,57,0
198445,note_on,445,0,3,,,,,,,,2,,,57,0
198445,note_on,445,0,2,,,,,,,,1,,,57,0
198445,note_on,445,0,6,,,,,,,,5,,,33,0
198445,note_on,445,0,7,,,,,,,,6,,,45,0
198445,note_on,445,0,1,,,,,,,,0,,,79,0
198445,note_on,445,0,5,,,,,,,,4,,,45,0
198480,note_on,35,0,6,,,,,,,,5,,,33,49
198480,note_on,35,0,7,,,,,,,,6,,,45,85
198480,note_on,35,0,5,,,,,,,,4,,,45,49
198480,note_on,35,0,4,,,,,,,,3,,,57,49
198480,note_on,35,0,3,,,,,,,,2,,,57,49
198480,note_on,35,0,1,,,,,,,,0,,,76,85
198480,note_on,35,0,2,,,,,,,,1,,,57,49
198665,note_on,0,0,7,,,,,,,,6,,,67,0
198665,note_on,185,0,7,,,,,,,,6,,,73,0
198665,note_on,0,0,7,,,,,,,,6,,,64,0
198705,note_on,225,0,6,,,,,,,,5,,,33,0
198705,note_on,40,0,7,,,,,,,,6,,,45,0
198705,note_on,225,0,4,,,,,,,,3,,,57,0
198705,note_on,225,0,2,,,,,,,,1,,,57,0
198705,note_on,225,0,5,,,,,,,,4,,,45,0
198705,note_on,225,0,1,,,,,,,,0,,,76,0
198705,note_on,225,0,3,,,,,,,,2,,,57,0
198720,note_on,15,0,2,,,,,,,,1,,,62,49
198720,note_on,15,0,4,,,,,,,,3,,,62,49
198720,note_on,15,0,6,,,,,,,,5,,,38,49
198720,note_on,15,0,1,,,,,,,,0,,,78,85
198720,note_on,15,0,5,,,,,,,,4,,,50,49
198720,note_on,0,0,7,,,,,,,,6,,,50,85
198720,note_on,15,0,3,,,,,,,,2,,,62,49
198720,note_on,15,0,7,,,,,,,,6,,,74,64
198720,note_on,0,0,7,,,,,,,,6,,,69,64
198720,note_on,0,0,7,,,,,,,,6,,,66,64
199055,note_on,335,0,1,,,,,,,,0,,,78,0
199080,note_on,25,0,1,,,,,,,,0,,,76,85
199165,note_on,445,0,2,,,,,,,,1,,,62,0
199165,note_on,445,0,3,,,,,,,,2,,,62,0
199165,note_on,445,0,5,,,,,,,,4,,,50,0
199165,note_on,445,0,6,,,,,,,,5,,,38,0
199165,note_on,445,0,4,,,,,,,,3,,,62,0
199165,note_on,445,0,7,,,,,,,,6,,,50,0
199195,note_on,115,0,1,,,,,,,,0,,,76,0
199200,note_on,35,0,3,,,,,,,,2,,,67,49
199200,note_on,35,0,4,,,,,,,,3,,,67,49
199200,note_on,35,0,6,,,,,,,,5,,,43,49
199200,note_on,35,0,5,,,,,,,,4,,,55,49
199200,note_on,5,0,1,,,,,,,,0,,,74,85
199200,note_on,35,0,2,,,,,,,,1,,,67,49
199200,note_on,35,0,7,,,,,,,,6,,,55,85
199385,note_on,0,0,7,,,,,,,,6,,,66,0
199385,note_on,185,0,7,,,,,,,,6,,,74,0
199385,note_on,0,0,7,,,,,,,,6,,,69,0
199425,note_on,40,0,7,,,,,,,,6,,,55,0
199425,note_on,225,0,3,,,,,,,,2,,,67,0
199425,note_on,225,0,2,,,,,,,,1,,,67,0
199425,note_on,225,0,1,,,,,,,,0,,,74,0
199425,note_on,225,0,6,,,,,,,,5,,,43,0
199425,note_on,225,0,4,,,,,,,,3,,,67,0
199425,note_on,225,0,5,,,,,,,,4,,,55,0
199440,note_on,15,0,1,,,,,,,,0,,,74,85
199440,note_on,15,0,4,,,,,,,,3,,,69,49
199440,note_on,15,0,2,,,,,,,,1,,,69,49
199440,note_on,15,0,5,,,,,,,,4,,,57,49
199440,note_on,15,0,7,,,,,,,,6,,,73,64
199440,note_on,15,0,3,,,,,,,,2,,,69,49
199440,note_on,15,0,6,,,,,,,,5,,,45,49
199440,note_on,0,0,7,,,,,,,,6,,,69,64
199440,note_on,0,0,7,,,,,,,,6,,,64,64
199440,note_on,0,0,7,,,,,,,,6,,,57,85
199775,note_on,335,0,1,,,,,,,,0,,,74,0
199800,note_on,25,0,1,,,,,,,,0,,,76,85
199885,note_on,445,0,7,,,,,,,,6,,,57,0
199885,note_on,445,0,5,,,,,,,,4,,,57,0
199885,note_on,445,0,6,,,,,,,,5,,,45,0
199885,note_on,445,0,2,,,,,,,,1,,,69,0
199885,note_on,445,0,3,,,,,,,,2,,,69,0
199885,note_on,445,0,4,,,,,,,,3,,,69,0
199915,note_on,115,0,1,,,,,,,,0,,,76,0
199920,note_on,5,0,1,,,,,,,,0,,,73,85
199920,note_on,35,0,3,,,,,,,,2,,,57,49
199920,note_on,35,0,2,,,,,,,,1,,,57,49
199920,note_on,35,0,6,,,,,,,,5,,,33,49
199920,note_on,35,0,5,,,,,,,,4,,,45,49
199920,note_on,35,0,7,,,,,,,,6,,,45,85
199920,note_on,35,0,4,,,,,,,,3,,,57,49
200105,note_on,0,0,7,,,,,,,,6,,,69,0
200105,note_on,0,0,7,,,,,,,,6,,,64,0
200105,note_on,185,0,7,,,,,,,,6,,,73,0
200145,note_on,225,0,5,,,,,,,,4,,,45,0
200145,note_on,225,0,2,,,,,,,,1,,,57,0
200145,note_on,225,0,3,,,,,,,,2,,,57,0
200145,note_on,40,0,7,,,,,,,,6,,,45,0
200145,note_on,225,0,4,,,,,,,,3,,,57,0
200145,note_on,225,0,1,,,,,,,,0,,,73,0
200145,note_on,225,0,6,,,,,,,,5,,,33,0
200160,note_on,15,0,2,,,,,,,,1,,,62,49
200160,note_on,15,0,4,,,,,,,,3,,,62,49
200160,note_on,15,0,1,,,,,,,,0,,,74,85
200160,note_on,15,0,6,,,,,,,,5,,,38,49
200160,note_on,15,0,3,,,,,,,,2,,,62,49
200160,note_on,0,0,7,,,,,,,,6,,,50,85
200160,note_on,0,0,7,,,,,,,,6,,,66,64
200160,note_on,0,0,7,,,,,,,,6,,,69,64
200160,note_on,15,0,7,,,,,,,,6,,,74,64
200160,note_on,15,0,5,,,,,,,,4,,,50,49
200495,note_on,335,0,7,,,,,,,,6,,,50,0
200495,note_on,335,0,4,,,,,,,,3,,,62,0
200495,note_on,335,0,6,,,,,,,,5,,,38,0
200495,note_on,335,0,5,,,,,,,,4,,,50,0
200495,note_on,335,0,2,,,,,,,,1,,,62,0
200495,note_on,335,0,3,,,,,,,,2,,,62,0
200520,note_on,25,0,4,,,,,,,,3,,,64,49
200520,note_on,25,0,2,,,,,,,,1,,,64,49
200520,note_on,25,0,7,,,,,,,,6,,,52,85
200520,note_on,25,0,5,,,,,,,,4,,,52,49
200520,note_on,25,0,6,,,,,,,,5,,,40,49
200520,note_on,25,0,3,,,,,,,,2,,,64,49
200635,note_on,115,0,6,,,,,,,,5,,,40,0
200635,note_on,115,0,3,,,,,,,,2,,,64,0
200635,note_on,115,0,2,,,,,,,,1,,,64,0
200635,note_on,115,0,7,,,,,,,,6,,,52,0
200635,note_on,115,0,5,,,,,,,,4,,,52,0
200635,note_on,115,0,4,,,,,,,,3,,,64,0
200640,note_on,5,0,2,,,,,,,,1,,,62,49
200640,note_on,5,0,7,,,,,,,,6,,,50,85
200640,note_on,5,0,5,,,,,,,,4,,,50,49
200640,note_on,5,0,6,,,,,,,,5,,,38,49
200640,note_on,5,0,4,,,,,,,,3,,,62,49
200640,note_on,5,0,3,,,,,,,,2,,,62,49
200825,note_on,665,0,1,,,,,,,,0,,,74,0
200865,note_on,225,0,2,,,,,,,,1,,,62,0
200865,note_on,225,0,4,,,,,,,,3,,,62,0
200865,note_on,225,0,6,,,,,,,,5,,,38,0
200865,note_on,225,0,5,,,,,,,,4,,,50,0
200865,note_on,225,0,3,,,,,,,,2,,,62,0
200865,note_on,225,0,7,,,,,,,,6,,,50,0
200880,note_on,15,0,3,,,,,,,,2,,,62,49
200880,note_on,15,0,2,,,,,,,,1,,,62,49
200880,note_on,15,0,4,,,,,,,,3,,,62,49
200880,note_on,15,0,7,,,,,,,,6,,,50,85
200880,note_on,15,0,6,,,,,,,,5,,,38,49
200880,note_on,15,0,5,,,,,,,,4,,,50,49
201325,note_on,445,0,7,,,,,,,,6,,,50,0
201325,note_on,445,0,4,,,,,,,,3,,,62,0
201325,note_on,445,0,6,,,,,,,,5,,,38,0
201325,note_on,445,0,2,,,,,,,,1,,,62,0
201325,note_on,445,0,3,,,,,,,,2,,,62,0
201325,note_on,445,0,5,,,,,,,,4,,,50,0
201360,note_on,35,0,6,,,,,,,,5,,,38,49
201360,note_on,35,0,2,,,,,,,,1,,,62,49
201360,note_on,535,0,1,,,,,,,,0,,,74,85
201360,note_on,35,0,4,,,,,,,,3,,,62,49
201360,note_on,35,0,3,,,,,,,,2,,,62,49
201360,note_on,35,0,5,,,,,,,,4,,,50,49
201360,note_on,35,0,7,,,,,,,,6,,,50,85
201485,note_on,0,0,7,,,,,,,,6,,,69,0
201485,note_on,125,0,7,,,,,,,,6,,,66,0
201485,note_on,0,0,7,,,,,,,,6,,,74,0
201585,note_on,225,0,6,,,,,,,,5,,,38,0
201585,note_on,225,0,4,,,,,,,,3,,,62,0
201585,note_on,225,0,5,,,,,,,,4,,,50,0
201585,note_on,225,0,1,,,,,,,,0,,,74,0
201585,note_on,225,0,2,,,,,,,,1,,,62,0
201585,note_on,100,0,7,,,,,,,,6,,,50,0
201585,note_on,225,0,3,,,,,,,,2,,,62,0
201600,note_on,15,0,6,,,,,,,,5,,,39,49
201600,note_on,15,0,2,,,,,,,,1,,,63,49
201600,note_on,15,0,7,,,,,,,,6,,,69,64
201600,note_on,15,0,3,,,,,,,,2,,,63,49
201600,note_on,0,0,7,,,,,,,,6,,,59,64
201600,note_on,15,0,4,,,,,,,,3,,,63,49
201600,note_on,0,0,7,,,,,,,,6,,,51,85
201600,note_on,15,0,5,,,,,,,,4,,,51,49
201600,note_on,15,0,1,,,,,,,,0,,,81,85
201935,note_on,335,0,5,,,,,,,,4,,,51,0
201935,note_on,335,0,3,,,,,,,,2,,,63,0
201935,note_on,335,0,2,,,,,,,,1,,,63,0
201935,note_on,335,0,7,,,,,,,,6,,,51,0
201935,note_on,335,0,4,,,,,,,,3,,,63,0
201935,note_on,335,0,6,,,,,,,,5,,,39,0
201960,note_on,25,0,4,,,,,,,,3,,,64,49
201960,note_on,25,0,2,,,,,,,,1,,,64,49
201960,note_on,25,0,3,,,,,,,,2,,,64,49
201960,note_on,25,0,5,,,,,,,,4,,,52,49
201960,note_on,25,0,7,,,,,,,,6,,,52,85
201960,note_on,25,0,6,,,,,,,,5,,,40,49
202045,note_on,445,0,1,,,,,,,,0,,,81,0
202075,note_on,115,0,6,,,,,,,,5,,,40,0
202075,note_on,115,0,4,,,,,,,,3,,,64,0
202075,note_on,115,0,7,,,,,,,,6,,,52,0
202075,note_on,115,0,2,,,,,,,,1,,,64,0
202075,note_on,115,0,5,,,,,,,,4,,,52,0
202075,note_on,115,0,3,,,,,,,,2,,,64,0
202080,note_on,5,0,5,,,,,,,,4,,,51,49
202080,note_on,5,0,6,,,,,,,,5,,,39,49
202080,note_on,5,0,7,,,,,,,,6,,,51,85
202080,note_on,5,0,3,,,,,,,,2,,,63,49
202080,note_on,35,0,1,,,,,,,,0,,,81,85
202080,note_on,5,0,2,,,,,,,,1,,,63,49
202080,note_on,5,0,4,,,,,,,,3,,,63,49
202265,note_on,185,0,7,,,,,,,,6,,,59,0
202265,note_on,0,0,7,,,,,,,,6,,,69,0
202305,note_on,225,0,2,,,,,,,,1,,,63,0
202305,note_on,225,0,5,,,,,,,,4,,,51,0
202305,note_on,225,0,6,,,,,,,,5,,,39,0
202305,note_on,225,0,1,,,,,,,,0,,,81,0
202305,note_on,225,0,3,,,,,,,,2,,,63,0
202305,note_on,40,0,7,,,,,,,,6,,,51,0
202305,note_on,225,0,4,,,,,,,,3,,,63,0
202320,note_on,0,0,7,,,,,,,,6,,,47,85
202320,note_on,15,0,5,,,,,,,,4,,,47,49
202320,note_on,0,0,7,,,,,,,,6,,,66,64
202320,note_on,0,0,7,,,,,,,,6,,,69,64
202320,note_on,15,0,2,,,,,,,,1,,,59,49
202320,note_on,15,0,7,,,,,,,,6,,,75,64
202320,note_on,15,0,4,,,,,,,,3,,,59,49
202320,note_on,15,0,1,,,,,,,,0,,,81,85
202320,note_on,15,0,3,,,,,,,,2,,,59,49
202320,note_on,15,0,6,,,,,,,,5,,,35,49
202655,note_on,335,0,1,,,,,,,,0,,,81,0
202680,note_on,25,0,1,,,,,,,,0,,,79,85
202765,note_on,445,0,3,,,,,,,,2,,,59,0
202765,note_on,445,0,4,,,,,,,,3,,,59,0
202765,note_on,445,0,5,,,,,,,,4,,,47,0
202765,note_on,445,0,7,,,,,,,,6,,,47,0
202765,note_on,445,0,2,,,,,,,,1,,,59,0
202765,note_on,445,0,6,,,,,,,,5,,,35,0
202795,note_on,115,0,1,,,,,,,,0,,,79,0
202800,note_on,35,0,2,,,,,,,,1,,,59,49
202800,note_on,35,0,4,,,,,,,,3,,,59,49
202800,note_on,35,0,3,,,,,,,,2,,,59,49
202800,note_on,35,0,6,,,,,,,,5,,,35,49
202800,note_on,5,0,1,,,,,,,,0,,,78,85
202800,note_on,35,0,7,,,,,,,,6,,,47,85
202800,note_on,35,0,5,,,,,,,,4,,,47,49
202985,note_on,0,0,7,,,,,,,,6,,,69,0
202985,note_on,0,0,7,,,,,,,,6,,,66,0
202985,note_on,185,0,7,,,,,,,,6,,,75,0
203025,note_on,225,0,6,,,,,,,,5,,,35,0
203025,note_on,225,0,4,,,,,,,,3,,,59,0
203025,note_on,225,0,2,,,,,,,,1,,,59,0
203025,note_on,225,0,1,,,,,,,,0,,,78,0
203025,note_on,40,0,7,,,,,,,,6,,,47,0
203025,note_on,225,0,3,,,,,,,,2,,,59,0
203025,note_on,225,0,5,,,,,,,,4,,,47,0
203040,note_on,0,0,7,,,,,,,,6,,,52,85
203040,note_on,15,0,4,,,,,,,,3,,,64,49
203040,note_on,15,0,2,,,,,,,,1,,,64,49
203040,note_on,15,0,7,,,,,,,,6,,,71,64
203040,note_on,0,0,7,,,,,,,,6,,,67,64
203040,note_on,0,0,7,,,,,,,,6,,,64,64
203040,note_on,15,0,6,,,,,,,,5,,,40,49
203040,note_on,15,0,5,,,,,,,,4,,,52,49
203040,note_on,15,0,1,,,,,,,,0,,,79,85
203040,note_on,15,0,3,,,,,,,,2,,,64,49
203375,note_on,335,0,1,,,,,,,,0,,,79,0
203400,note_on,25,0,1,,,,,,,,0,,,81,85
203485,note_on,445,0,5,,,,,,,,4,,,52,0
203485,note_on,445,0,3,,,,,,,,2,,,64,0
203485,note_on,445,0,7,,,,,,,,6,,,52,0
203485,note_on,445,0,4,,,,,,,,3,,,64,0
203485,note_on,445,0,6,,,,,,,,5,,,40,0
203485,note_on,445,0,2,,,,,,,,1,,,64,0
203515,note_on,115,0,1,,,,,,,,0,,,81,0
203520,note_on,35,0,7,,,,,,,,6,,,64,85
203520,note_on,35,0,5,,,,,,,,4,,,64,49
203520,note_on,35,0,3,,,,,,,,2,,,76,49
203520,note_on,35,0,4,,,,,,,,3,,,76,49
203520,note_on,35,0,2,,,,,,,,1,,,76,49
203520,note_on,5,0,1,,,,,,,,0,,,83,85
203520,note_on,35,0,6,,,,,,,,5,,,52,49
203705,note_on,0,0,7,,,,,,,,6,,,67,0
203705,note_on,185,0,7,,,,,,,,6,,,71,0
203705,note_on,0,0,7,,,,,,,,6,,,64,0
203745,note_on,225,0,6,,,,,,,,5,,,52,0
203745,note_on,225,0,4,,,,,,,,3,,,76,0
203745,note_on,40,0,7,,,,,,,,6,,,64,0
203745,note_on,225,0,1,,,,,,,,0,,,83,0
203745,note_on,225,0,2,,,,,,,,1,,,76,0
203745,note_on,225,0,5,,,,,,,,4,,,64,0
203745,note_on,225,0,3,,,,,,,,2,,,76,0
203760,note_on,15,0,6,,,,,,,,5,,,52,49
203760,note_on,15,0,4,,,,,,,,3,,,76,49
203760,note_on,15,0,1,,,,,,,,0,,,76,85
203760,note_on,15,0,2,,,,,,,,1,,,76,49
203760,note_on,0,0,7,,,,,,,,6,,,67,64
203760,note_on,15,0,3,,,,,,,,2,,,76,49
203760,note_on,0,0,7,,,,,,,,6,,,71,64
203760,note_on,15,0,5,,,,,,,,4,,,64,49
203760,note_on,15,0,7,,,,,,,,6,,,76,64
203760,note_on,0,0,7,,,,,,,,6,,,64,85
204205,note_on,445,0,6,,,,,,,,5,,,52,0
204205,note_on,445,0,4,,,,,,,,3,,,76,0
204205,note_on,445,0,1,,,,,,,,0,,,76,0
204205,note_on,445,0,5,,,,,,,,4,,,64,0
204205,note_on,445,0,7,,,,,,,,6,,,64,0
204205,note_on,445,0,3,,,,,,,,2,,,76,0
204205,note_on,445,0,2,,,,,,,,1,,,76,0
204240,note_on,35,0,7,,,,,,,,6,,,64,85
204240,note_on,35,0,2,,,,,,,,1,,,76,49
204240,note_on,35,0,1,,,,,,,,0,,,79,85
204240,note_on,35,0,3,,,,,,,,2,,,76,49
204240,note_on,35,0,4,,,,,,,,3,,,76,49
204240,note_on,35,0,6,,,,,,,,5,,,52,49
204240,note_on,35,0,5,,,,,,,,4,,,64,49
204425,note_on,185,0,7,,,,,,,,6,,,76,0
204425,note_on,0,0,7,,,,,,,,6,,,67,0
204425,note_on,0,0,7,,,,,,,,6,,,71,0
204465,note_on,225,0,1,,,,,,,,0,,,79,0
204465,note_on,225,0,4,,,,,,,,3,,,76,0
204465,note_on,40,0,7,,,,,,,,6,,,64,0
204465,note_on,225,0,2,,,,,,,,1,,,76,0
204465,note_on,225,0,6,,,,,,,,5,,,52,0
204465,note_on,225,0,3,,,,,,,,2,,,76,0
204465,note_on,225,0,5,,,,,,,,4,,,64,0
204480,note_on,15,0,3,,,,,,,,2,,,75,49
204480,note_on,15,0,2,,,,,,,,1,,,75,49
204480,note_on,15,0,1,,,,,,,,0,,,78,85
204480,note_on,0,0,7,,,,,,,,6,,,63,85
204480,note_on,0,0,7,,,,,,,,6,,,69,64
204480,note_on,15,0,7,,,,,,,,6,,,78,64
204480,note_on,15,0,6,,,,,,,,5,,,51,49
204480,note_on,0,0,7,,,,,,,,6,,,72,64
204480,note_on,15,0,4,,,,,,,,3,,,75,49
204480,note_on,15,0,5,,,,,,,,4,,,63,49
204815,note_on,335,0,1,,,,,,,,0,,,78,0
204840,note_on,25,0,1,,,,,,,,0,,,79,85
204925,note_on,445,0,3,,,,,,,,2,,,75,0
204925,note_on,445,0,7,,,,,,,,6,,,63,0
204925,note_on,445,0,2,,,,,,,,1,,,75,0
204925,note_on,445,0,4,,,,,,,,3,,,75,0
204925,note_on,445,0,5,,,,,,,,4,,,63,0
204925,note_on,445,0,6,,,,,,,,5,,,51,0
204955,note_on,115,0,1,,,,,,,,0,,,79,0
204960,note_on,5,0,1,,,,,,,,0,,,78,85
205145,note_on,0,0,7,,,,,,,,6,,,72,0
205145,note_on,0,0,7,,,,,,,,6,,,69,0
205145,note_on,220,0,7,,,,,,,,6,,,78,0
205185,note_on,225,0,1,,,,,,,,0,,,78,0
205200,note_on,275,0,3,,,,,,,,2,,,74,49
205200,note_on,275,0,6,,,,,,,,5,,,50,49
205200,note_on,275,0,2,,,,,,,,1,,,74,49
205200,note_on,15,0,1,,,,,,,,0,,,83,85
205200,note_on,55,0,7,,,,,,,,6,,,78,64
205200,note_on,0,0,7,,,,,,,,6,,,74,64
205200,note_on,275,0,5,,,,,,,,4,,,62,49
205200,note_on,0,0,7,,,,,,,,6,,,62,85
205200,note_on,275,0,4,,,,,,,,3,,,74,49
205200,note_on,0,0,7,,,,,,,,6,,,71,64
205535,note_on,335,0,3,,,,,,,,2,,,74,0
205535,note_on,335,0,7,,,,,,,,6,,,62,0
205535,note_on,335,0,4,,,,,,,,3,,,74,0
205535,note_on,335,0,5,,,,,,,,4,,,62,0
205535,note_on,335,0,6,,,,,,,,5,,,50,0
205535,note_on,335,0,2,,,,,,,,1,,,74,0
205560,note_on,25,0,3,,,,,,,,2,,,76,49
205560,note_on,25,0,5,,,,,,,,4,,,64,49
205560,note_on,25,0,2,,,,,,,,1,,,76,49
205560,note_on,25,0,7,,,,,,,,6,,,64,85
205560,note_on,25,0,4,,,,,,,,3,,,76,49
205560,note_on,25,0,6,,,,,,,,5,,,52,49
205645,note_on,445,0,1,,,,,,,,0,,,83,0
205675,note_on,115,0,6,,,,,,,,5,,,52,0
205675,note_on,115,0,7,,,,,,,,6,,,64,0
205675,note_on,115,0,4,,,,,,,,3,,,76,0
205675,note_on,115,0,3,,,,,,,,2,,,76,0
205675,note_on,115,0,5,,,,,,,,4,,,64,0
205675,note_on,115,0,2,,,,,,,,1,,,76,0
205680,note_on,5,0,5,,,,,,,,4,,,62,49
205680,note_on,5,0,4,,,,,,,,3,,,74,49
205680,note_on,5,0,7,,,,,,,,6,,,62,85
205680,note_on,5,0,6,,,,,,,,5,,,50,49
205680,note_on,5,0,2,,,,,,,,1,,,74,49
205680,note_on,5,0,3,,,,,,,,2,,,74,49
205865,note_on,185,0,7,,,,,,,,6,,,71,0
205865,note_on,0,0,7,,,,,,,,6,,,78,0
205865,note_on,0,0,7,,,,,,,,6,,,74,0
205905,note_on,225,0,6,,,,,,,,5,,,50,0
205905,note_on,225,0,4,,,,,,,,3,,,74,0
205905,note_on,225,0,3,,,,,,,,2,,,74,0
205905,note_on,225,0,5,,,,,,,,4,,,62,0
205905,note_on,225,0,2,,,,,,,,1,,,74,0
205905,note_on,40,0,7,,,,,,,,6,,,62,0
205920,note_on,15,0,2,,,,,,,,1,,,73,49
205920,note_on,15,0,3,,,,,,,,2,,,73,49
205920,note_on,15,0,6,,,,,,,,5,,,49,49
205920,note_on,15,0,5,,,,,,,,4,,,61,49
205920,note_on,15,0,7,,,,,,,,6,,,76,64
205920,note_on,0,0,7,,,,,,,,6,,,71,64
205920,note_on,0,0,7,,,,,,,,6,,,67,64
205920,note_on,0,0,7,,,,,,,,6,,,61,85
205920,note_on,15,0,4,,,,,,,,3,,,73,49
205920,note_on,275,0,1,,,,,,,,0,,,76,85
206255,note_on,335,0,1,,,,,,,,0,,,76,0
206280,note_on,25,0,1,,,,,,,,0,,,78,85
206365,note_on,445,0,7,,,,,,,,6,,,61,0
206365,note_on,445,0,6,,,,,,,,5,,,49,0
206365,note_on,445,0,4,,,,,,,,3,,,73,0
206365,note_on,445,0,2,,,,,,,,1,,,73,0
206365,note_on,445,0,5,,,,,,,,4,,,61,0
206365,note_on,445,0,3,,,,,,,,2,,,73,0
206395,note_on,115,0,1,,,,,,,,0,,,78,0
206400,note_on,5,0,1,,,,,,,,0,,,76,85
206585,note_on,0,0,7,,,,,,,,6,,,71,0
206585,note_on,220,0,7,,,,,,,,6,,,76,0
206585,note_on,0,0,7,,,,,,,,6,,,67,0
206625,note_on,225,0,1,,,,,,,,0,,,76,0
206640,note_on,55,0,7,,,,,,,,6,,,76,64
206640,note_on,0,0,7,,,,,,,,6,,,72,64
206640,note_on,0,0,7,,,,,,,,6,,,60,85
206640,note_on,275,0,6,,,,,,,,5,,,48,49
206640,note_on,15,0,1,,,,,,,,0,,,81,85
206640,note_on,275,0,4,,,,,,,,3,,,72,49
206640,note_on,275,0,2,,,,,,,,1,,,72,49
206640,note_on,275,0,5,,,,,,,,4,,,60,49
206640,note_on,275,0,3,,,,,,,,2,,,72,49
206640,note_on,0,0,7,,,,,,,,6,,,69,64
206975,note_on,335,0,6,,,,,,,,5,,,48,0
206975,note_on,335,0,7,,,,,,,,6,,,60,0
206975,note_on,335,0,5,,,,,,,,4,,,60,0
206975,note_on,335,0,4,,,,,,,,3,,,72,0
206975,note_on,335,0,2,,,,,,,,1,,,72,0
206975,note_on,335,0,3,,,,,,,,2,,,72,0
207000,note_on,25,0,7,,,,,,,,6,,,62,85
207000,note_on,25,0,5,,,,,,,,4,,,62,49
207000,note_on,25,0,6,,,,,,,,5,,,50,49
207000,note_on,25,0,4,,,,,,,,3,,,74,49
207000,note_on,25,0,3,,,,,,,,2,,,74,49
207000,note_on,25,0,2,,,,,,,,1,,,74,49
207085,note_on,445,0,1,,,,,,,,0,,,81,0
207115,note_on,115,0,4,,,,,,,,3,,,74,0
207115,note_on,115,0,5,,,,,,,,4,,,62,0
207115,note_on,115,0,3,,,,,,,,2,,,74,0
207115,note_on,115,0,2,,,,,,,,1,,,74,0
207115,note_on,115,0,6,,,,,,,,5,,,50,0
207115,note_on,115,0,7,,,,,,,,6,,,62,0
207120,note_on,5,0,2,,,,,,,,1,,,72,49
207120,note_on,5,0,5,,,,,,,,4,,,60,49
207120,note_on,5,0,7,,,,,,,,6,,,60,85
207120,note_on,5,0,4,,,,,,,,3,,,72,49
207120,note_on,5,0,3,,,,,,,,2,,,72,49
207120,note_on,5,0,6,,,,,,,,5,,,48,49
207305,note_on,0,0,7,,,,,,,,6,,,72,0
207305,note_on,0,0,7,,,,,,,,6,,,76,0
207305,note_on,185,0,7,,,,,,,,6,,,69,0
207345,note_on,225,0,6,,,,,,,,5,,,48,0
207345,note_on,225,0,5,,,,,,,,4,,,60,0
207345,note_on,225,0,2,,,,,,,,1,,,72,0
207345,note_on,225,0,4,,,,,,,,3,,,72,0
207345,note_on,40,0,7,,,,,,,,6,,,60,0
207345,note_on,225,0,3,,,,,,,,2,,,72,0
207360,note_on,275,0,1,,,,,,,,0,,,75,85
207360,note_on,15,0,6,,,,,,,,5,,,47,49
207360,note_on,15,0,4,,,,,,,,3,,,71,49
207360,note_on,15,0,5,,,,,,,,4,,,59,49
207360,note_on,0,0,7,,,,,,,,6,,,59,85
207360,note_on,0,0,7,,,,,,,,6,,,69,64
207360,note_on,0,0,7,,,,,,,,6,,,75,64
207360,note_on,15,0,7,,,,,,,,6,,,78,64
207360,note_on,15,0,3,,,,,,,,2,,,71,49
207360,note_on,15,0,2,,,,,,,,1,,,71,49
207695,note_on,335,0,1,,,,,,,,0,,,75,0
207720,note_on,25,0,1,,,,,,,,0,,,76,85
207835,note_on,115,0,1,,,,,,,,0,,,76,0
207840,note_on,5,0,1,,,,,,,,0,,,78,85
208025,note_on,0,0,7,,,,,,,,6,,,75,0
208025,note_on,665,0,4,,,,,,,,3,,,71,0
208025,note_on,0,0,7,,,,,,,,6,,,69,0
208025,note_on,665,0,2,,,,,,,,1,,,71,0
208025,note_on,665,0,5,,,,,,,,4,,,59,0
208025,note_on,665,0,6,,,,,,,,5,,,47,0
208025,note_on,665,0,3,,,,,,,,2,,,71,0
208025,note_on,0,0,7,,,,,,,,6,,,78,0
208025,note_on,665,0,7,,,,,,,,6,,,59,0
208065,note_on,225,0,1,,,,,,,,0,,,78,0
208080,note_on,15,0,1,,,,,,,,0,,,78,85
208415,note_on,335,0,1,,,,,,,,0,,,78,0
208440,note_on,25,0,1,,,,,,,,0,,,79,85
208555,note_on,115,0,1,,,,,,,,0,,,79,0
208560,note_on,5,0,1,,,,,,,,0,,,81,85
208785,note_on,225,0,1,,,,,,,,0,,,81,0
208800,note_on,0,0,7,,,,,,,,6,,,67,64
208800,note_on,775,0,3,,,,,,,,2,,,67,49
208800,note_on,775,0,7,,,,,,,,6,,,71,64
208800,note_on,15,0,1,,,,,,,,0,,,79,85
208800,note_on,775,0,2,,,,,,,,1,,,67,49
208800,note_on,775,0,4,,,,,,,,3,,,67,49
208800,note_on,0,0,7,,,,,,,,6,,,55,85
208800,note_on,775,0,6,,,,,,,,5,,,43,49
208800,note_on,0,0,7,,,,,,,,6,,,64,64
208800,note_on,775,0,5,,,,,,,,4,,,55,49
209135,note_on,335,0,2,,,,,,,,1,,,67,0
209135,note_on,335,0,4,,,,,,,,3,,,67,0
209135,note_on,335,0,5,,,,,,,,4,,,55,0
209135,note_on,335,0,6,,,,,,,,5,,,43,0
209135,note_on,335,0,3,,,,,,,,2,,,67,0
209135,note_on,335,0,7,,,,,,,,6,,,55,0
209160,note_on,25,0,6,,,,,,,,5,,,45,49
209160,note_on,25,0,4,,,,,,,,3,,,69,49
209160,note_on,25,0,7,,,,,,,,6,,,57,85
209160,note_on,25,0,2,,,,,,,,1,,,69,49
209160,note_on,25,0,5,,,,,,,,4,,,57,49
209160,note_on,25,0,3,,,,,,,,2,,,69,49
209245,note_on,445,0,1,,,,,,,,0,,,79,0
209275,note_on,115,0,7,,,,,,,,6,,,57,0
209275,note_on,115,0,5,,,,,,,,4,,,57,0
209275,note_on,115,0,6,,,,,,,,5,,,45,0
209275,note_on,115,0,2,,,,,,,,1,,,69,0
209275,note_on,115,0,4,,,,,,,,3,,,69,0
209275,note_on,115,0,3,,,,,,,,2,,,69,0
209280,note_on,5,0,4,,,,,,,,3,,,67,49
209280,note_on,5,0,3,,,,,,,,2,,,67,49
209280,note_on,5,0,5,,,,,,,,4,,,55,49
209280,note_on,35,0,1,,,,,,,,0,,,83,85
209280,note_on,5,0,7,,,,,,,,6,,,55,85
209280,note_on,5,0,6,,,,,,,,5,,,43,49
209280,note_on,5,0,2,,,,,,,,1,,,67,49
209465,note_on,0,0,7,,,,,,,,6,,,71,0
209465,note_on,185,0,7,,,,,,,,6,,,64,0
209465,note_on,0,0,7,,,,,,,,6,,,67,0
209505,note_on,225,0,6,,,,,,,,5,,,43,0
209505,note_on,225,0,4,,,,,,,,3,,,67,0
209505,note_on,225,0,1,,,,,,,,0,,,83,0
209505,note_on,40,0,7,,,,,,,,6,,,55,0
209505,note_on,225,0,2,,,,,,,,1,,,67,0
209505,note_on,225,0,3,,,,,,,,2,,,67,0
209505,note_on,225,0,5,,,,,,,,4,,,55,0
209520,note_on,15,0,4,,,,,,,,3,,,67,49
209520,note_on,15,0,2,,,,,,,,1,,,67,49
209520,note_on,15,0,5,,,,,,,,4,,,55,49
209520,note_on,15,0,6,,,,,,,,5,,,43,49
209520,note_on,15,0,1,,,,,,,,0,,,76,85
209520,note_on,15,0,3,,,,,,,,2,,,67,49
209520,note_on,0,0,7,,,,,,,,6,,,55,85
209520,note_on,0,0,7,,,,,,,,6,,,71,64
209520,note_on,15,0,7,,,,,,,,6,,,76,64
209520,note_on,0,0,7,,,,,,,,6,,,67,64
209965,note_on,445,0,5,,,,,,,,4,,,55,0
209965,note_on,445,0,4,,,,,,,,3,,,67,0
209965,note_on,445,0,7,,,,,,,,6,,,55,0
209965,note_on,445,0,6,,,,,,,,5,,,43,0
209965,note_on,445,0,2,,,,,,,,1,,,67,0
209965,note_on,445,0,3,,,,,,,,2,,,67,0
210000,note_on,35,0,5,,,,,,,,4,,,55,49
210000,note_on,35,0,7,,,,,,,,6,,,55,85
210000,note_on,35,0,2,,,,,,,,1,,,67,49
210000,note_on,35,0,6,,,,,,,,5,,,43,49
210000,note_on,35,0,3,,,,,,,,2,,,67,49
210000,note_on,35,0,4,,,,,,,,3,,,67,49
210185,note_on,0,0,7,,,,,,,,6,,,67,0
210185,note_on,185,0,7,,,,,,,,6,,,76,0
210185,note_on,0,0,7,,,,,,,,6,,,71,0
210225,note_on,225,0,4,,,,,,,,3,,,67,0
210225,note_on,225,0,5,,,,,,,,4,,,55,0
210225,note_on,40,0,7,,,,,,,,6,,,55,0
210225,note_on,225,0,6,,,,,,,,5,,,43,0
210225,note_on,225,0,3,,,,,,,,2,,,67,0
210225,note_on,225,0,2,,,,,,,,1,,,67,0
210240,note_on,15,0,2,,,,,,,,1,,,69,49
210240,note_on,15,0,5,,,,,,,,4,,,57,49
210240,note_on,15,0,7,,,,,,,,6,,,72,64
210240,note_on,0,0,7,,,,,,,,6,,,69,64
210240,note_on,0,0,7,,,,,,,,6,,,64,64
210240,note_on,0,0,7,,,,,,,,6,,,57,85
210240,note_on,15,0,6,,,,,,,,5,,,45,49
210240,note_on,15,0,3,,,,,,,,2,,,69,49
210240,note_on,15,0,4,,,,,,,,3,,,69,49
210575,note_on,335,0,4,,,,,,,,3,,,69,0
210575,note_on,335,0,5,,,,,,,,4,,,57,0
210575,note_on,335,0,6,,,,,,,,5,,,45,0
210575,note_on,335,0,2,,,,,,,,1,,,69,0
210575,note_on,335,0,3,,,,,,,,2,,,69,0
210575,note_on,335,0,7,,,,,,,,6,,,57,0
210600,note_on,25,0,6,,,,,,,,5,,,47,49
210600,note_on,25,0,5,,,,,,,,4,,,59,49
210600,note_on,25,0,3,,,,,,,,2,,,71,49
210600,note_on,25,0,2,,,,,,,,1,,,71,49
210600,note_on,25,0,7,,,,,,,,6,,,59,85
210600,note_on,25,0,4,,,,,,,,3,,,71,49
210685,note_on,1165,0,1,,,,,,,,0,,,76,0
210715,note_on,115,0,3,,,,,,,,2,,,71,0
210715,note_on,115,0,6,,,,,,,,5,,,47,0
210715,note_on,115,0,7,,,,,,,,6,,,59,0
210715,note_on,115,0,5,,,,,,,,4,,,59,0
210715,note_on,115,0,2,,,,,,,,1,,,71,0
210715,note_on,115,0,4,,,,,,,,3,,,71,0
210720,note_on,5,0,4,,,,,,,,3,,,69,49
210720,note_on,5,0,6,,,,,,,,5,,,45,49
210720,note_on,5,0,7,,,,,,,,6,,,57,85
210720,note_on,5,0,3,,,,,,,,2,,,69,49
210720,note_on,5,0,2,,,,,,,,1,,,69,49
210720,note_on,35,0,1,,,,,,,,0,,,84,85
210720,note_on,5,0,5,,,,,,,,4,,,57,49
210905,note_on,0,0,7,,,,,,,,6,,,69,0
210905,note_on,185,0,7,,,,,,,,6,,,64,0
210905,note_on,0,0,7,,,,,,,,6,,,72,0
210945,note_on,225,0,3,,,,,,,,2,,,69,0
210945,note_on,225,0,1,,,,,,,,0,,,84,0
210945,note_on,225,0,4,,,,,,,,3,,,69,0
210945,note_on,40,0,7,,,,,,,,6,,,57,0
210945,note_on,225,0,6,,,,,,,,5,,,45,0
210945,note_on,225,0,2,,,,,,,,1,,,69,0
210945,note_on,225,0,5,,,,,,,,4,,,57,0
210960,note_on,15,0,7,,,,,,,,6,,,76,64
210960,note_on,15,0,5,,,,,,,,4,,,57,49
210960,note_on,15,0,3,,,,,,,,2,,,69,49
210960,note_on,15,0,1,,,,,,,,0,,,76,85
210960,note_on,15,0,6,,,,,,,,5,,,45,49
210960,note_on,15,0,4,,,,,,,,3,,,69,49
210960,note_on,0,0,7,,,,,,,,6,,,72,64
210960,note_on,15,0,2,,,,,,,,1,,,69,49
210960,note_on,0,0,7,,,,,,,,6,,,69,64
210960,note_on,0,0,7,,,,,,,,6,,,57,85
211405,note_on,445,0,5,,,,,,,,4,,,57,0
211405,note_on,445,0,3,,,,,,,,2,,,69,0
211405,note_on,445,0,6,,,,,,,,5,,,45,0
211405,note_on,445,0,4,,,,,,,,3,,,69,0
211405,note_on,445,0,2,,,,,,,,1,,,69,0
211405,note_on,445,0,7,,,,,,,,6,,,57,0
211440,note_on,35,0,3,,,,,,,,2,,,69,49
211440,note_on,35,0,2,,,,,,,,1,,,69,49
211440,note_on,35,0,6,,,,,,,,5,,,45,49
211440,note_on,35,0,7,,,,,,,,6,,,57,85
211440,note_on,35,0,4,,,,,,,,3,,,69,49
211440,note_on,35,0,5,,,,,,,,4,,,57,49
211625,note_on,185,0,7,,,,,,,,6,,,76,0
211625,note_on,0,0,7,,,,,,,,6,,,69,0
211625,note_on,665,0,1,,,,,,,,0,,,76,0
211625,note_on,0,0,7,,,,,,,,6,,,72,0
211665,note_on,225,0,4,,,,,,,,3,,,69,0
211665,note_on,225,0,2,,,,,,,,1,,,69,0
211665,note_on,225,0,5,,,,,,,,4,,,57,0
211665,note_on,225,0,3,,,,,,,,2,,,69,0
211665,note_on,225,0,6,,,,,,,,5,,,45,0
211665,note_on,40,0,7,,,,,,,,6,,,57,0
211680,note_on,15,0,7,,,,,,,,6,,,75,64
211680,note_on,0,0,7,,,,,,,,6,,,71,64
211680,note_on,0,0,7,,,,,,,,6,,,66,64
211680,note_on,15,0,5,,,,,,,,4,,,59,49
211680,note_on,0,0,7,,,,,,,,6,,,59,85
211680,note_on,15,0,4,,,,,,,,3,,,71,49
211680,note_on,15,0,3,,,,,,,,2,,,71,49
211680,note_on,55,0,1,,,,,,,,0,,,75,85
211680,note_on,15,0,2,,,,,,,,1,,,71,49
211680,note_on,15,0,6,,,,,,,,5,,,47,49
212125,note_on,445,0,7,,,,,,,,6,,,59,0
212125,note_on,445,0,3,,,,,,,,2,,,71,0
212125,note_on,445,0,6,,,,,,,,5,,,47,0
212125,note_on,445,0,1,,,,,,,,0,,,75,0
212125,note_on,445,0,5,,,,,,,,4,,,59,0
212125,note_on,445,0,4,,,,,,,,3,,,71,0
212125,note_on,0,0,7,,,,,,,,6,,,75,0
212125,note_on,445,0,2,,,,,,,,1,,,71,0
212160,note_on,35,0,6,,,,,,,,5,,,40,49
212160,note_on,35,0,7,,,,,,,,6,,,76,64
212160,note_on,35,0,2,,,,,,,,1,,,64,49
212160,note_on,35,0,3,,,,,,,,2,,,64,49
212160,note_on,35,0,1,,,,,,,,0,,,76,85
212160,note_on,35,0,5,,,,,,,,4,,,52,49
212160,note_on,35,0,4,,,,,,,,3,,,64,49
212160,note_on,0,0,7,,,,,,,,6,,,52,85
212345,note_on,185,0,7,,,,,,,,6,,,66,0
212345,note_on,0,0,7,,,,,,,,6,,,71,0
212385,note_on,225,0,2,,,,,,,,1,,,64,0
212385,note_on,225,0,6,,,,,,,,5,,,40,0
212385,note_on,225,0,4,,,,,,,,3,,,64,0
212385,note_on,40,0,7,,,,,,,,6,,,76,0
212385,note_on,225,0,5,,,,,,,,4,,,52,0
212385,note_on,225,0,1,,,,,,,,0,,,76,0
212385,note_on,225,0,3,,,,,,,,2,,,64,0
212385,note_on,0,0,7,,,,,,,,6,,,52,0
212400,note_on,15,0,3,,,,,,,,2,,,71,49
212400,note_on,15,0,1,,,,,,,,0,,,76,85
212400,note_on,15,0,7,,,,,,,,6,,,71,64
212400,note_on,15,0,5,,,,,,,,4,,,59,49
212400,note_on,0,0,7,,,,,,,,6,,,64,64
212400,note_on,0,0,7,,,,,,,,6,,,59,85
212400,note_on,15,0,2,,,,,,,,1,,,71,49
212400,note_on,15,0,6,,,,,,,,5,,,47,49
212400,note_on,0,0,7,,,,,,,,6,,,67,64
212400,note_on,15,0,4,,,,,,,,3,,,71,49
212735,note_on,335,0,1,,,,,,,,0,,,76,0
212760,note_on,25,0,1,,,,,,,,0,,,78,85
212782,set_tempo,51502,1,0,,,,,,1200000,,,,,,
212845,note_on,0,0,7,,,,,,,,6,,,64,0
212845,note_on,0,0,7,,,,,,,,6,,,67,0
212845,note_on,0,0,7,,,,,,,,6,,,71,0
212845,note_on,445,0,7,,,,,,,,6,,,59,0
212845,note_on,445,0,4,,,,,,,,3,,,71,0
212845,note_on,445,0,5,,,,,,,,4,,,59,0
212845,note_on,445,0,6,,,,,,,,5,,,47,0
212845,note_on,445,0,2,,,,,,,,1,,,71,0
212845,note_on,445,0,3,,,,,,,,2,,,71,0
212875,note_on,115,0,1,,,,,,,,0,,,78,0
212880,note_on,35,0,3,,,,,,,,2,,,59,49
212880,note_on,0,0,7,,,,,,,,6,,,66,64
212880,note_on,5,0,1,,,,,,,,0,,,75,85
212880,note_on,35,0,6,,,,,,,,5,,,35,49
212880,note_on,35,0,4,,,,,,,,3,,,59,49
212880,note_on,35,0,2,,,,,,,,1,,,59,49
212880,note_on,35,0,7,,,,,,,,6,,,75,64
212880,note_on,0,0,7,,,,,,,,6,,,71,64
212880,note_on,0,0,7,,,,,,,,6,,,47,85
212880,note_on,35,0,5,,,,,,,,4,,,47,49
212886,set_tempo,104,1,0,,,,,,1500000,,,,,,
213105,note_on,225,0,1,,,,,,,,0,,,75,0
213105,note_on,225,0,3,,,,,,,,2,,,59,0
213105,note_on,225,0,6,,,,,,,,5,,,35,0
213105,note_on,225,0,4,,,,,,,,3,,,59,0
213105,note_on,225,0,5,,,,,,,,4,,,47,0
213105,note_on,225,0,2,,,,,,,,1,,,59,0
213105,note_on,0,0,7,,,,,,,,6,,,66,0
213105,note_on,0,0,7,,,,,,,,6,,,71,0
213105,note_on,0,0,7,,,,,,,,6,,,75,0
213105,note_on,225,0,7,,,,,,,,6,,,47,0
213120,set_tempo,234,1,0,,,,,,1000000,,,,,,
213120,note_on,15,0,2,,,,,,,,1,,,64,64
213120,note_on,0,0,7,,,,,,,,6,,,52,64
213120,note_on,0,0,7,,,,,,,,6,,,67,64
213120,note_on,15,0,5,,,,,,,,4,,,52,64
213120,note_on,15,0,7,,,,,,,,6,,,76,64
213120,note_on,15,0,1,,,,,,,,0,,,76,85
213120,note_on,15,0,4,,,,,,,,3,,,64,64
213120,note_on,0,0,7,,,,,,,,6,,,71,64
213120,note_on,15,0,3,,,,,,,,2,,,64,64
213120,note_on,15,0,6,,,,,,,,5,,,40,64
213455,note_on,0,0,7,,,,,,,,6,,,67,0
213455,note_on,335,0,3,,,,,,,,2,,,64,0
213455,note_on,335,0,4,,,,,,,,3,,,64,0
213455,note_on,335,0,6,,,,,,,,5,,,40,0
213455,note_on,335,0,7,,,,,,,,6,,,52,0
213455,note_on,335,0,5,,,,,,,,4,,,52,0
213455,note_on,335,0,2,,,,,,,,1,,,64,0
213480,note_on,25,0,4,,,,,,,,3,,,66,64
213480,note_on,25,0,2,,,,,,,,1,,,66,64
213480,note_on,25,0,5,,,,,,,,4,,,54,64
213480,note_on,25,0,6,,,,,,,,5,,,42,64
213480,note_on,25,0,3,,,,,,,,2,,,66,64
213480,note_on,0,0,7,,,,,,,,6,,,54,64
213480,note_on,25,0,7,,,,,,,,6,,,66,64
213595,note_on,115,0,5,,,,,,,,4,,,54,0
213595,note_on,115,0,4,,,,,,,,3,,,66,0
213595,note_on,115,0,6,,,,,,,,5,,,42,0
213595,note_on,0,0,7,,,,,,,,6,,,66,0
213595,note_on,115,0,7,,,,,,,,6,,,54,0
213595,note_on,115,0,3,,,,,,,,2,,,66,0
213595,note_on,115,0,2,,,,,,,,1,,,66,0
213600,note_on,5,0,4,,,,,,,,3,,,64,64
213600,note_on,5,0,6,,,,,,,,5,,,40,64
213600,note_on,5,0,7,,,,,,,,6,,,64,64
213600,note_on,5,0,5,,,,,,,,4,,,52,64
213600,note_on,0,0,7,,,,,,,,6,,,52,64
213600,note_on,5,0,2,,,,,,,,1,,,64,64
213600,note_on,5,0,3,,,,,,,,2,,,64,64
213785,note_on,665,0,1,,,,,,,,0,,,76,0
213785,note_on,0,0,7,,,,,,,,6,,,76,0
213785,note_on,185,0,7,,,,,,,,6,,,71,0
213825,note_on,40,0,7,,,,,,,,6,,,64,0
213825,note_on,0,0,7,,,,,,,,6,,,52,0
213825,note_on,225,0,4,,,,,,,,3,,,64,0
213825,note_on,225,0,6,,,,,,,,5,,,40,0
213825,note_on,225,0,5,,,,,,,,4,,,52,0
213825,note_on,225,0,3,,,,,,,,2,,,64,0
213825,note_on,225,0,2,,,,,,,,1,,,64,0
213840,note_on,15,0,7,,,,,,,,6,,,64,64
213840,note_on,15,0,6,,,,,,,,5,,,40,64
213840,note_on,0,0,7,,,,,,,,6,,,52,64
213840,note_on,15,0,5,,,,,,,,4,,,52,64
213840,note_on,15,0,4,,,,,,,,3,,,64,64
213840,note_on,15,0,3,,,,,,,,2,,,64,64
213840,note_on,15,0,2,,,,,,,,1,,,64,64
214285,note_on,445,0,2,,,,,,,,1,,,64,0
214285,note_on,445,0,4,,,,,,,,3,,,64,0
214285,note_on,445,0,5,,,,,,,,4,,,52,0
214285,note_on,445,0,6,,,,,,,,5,,,40,0
214285,note_on,445,0,7,,,,,,,,6,,,52,0
214285,note_on,0,0,7,,,,,,,,6,,,64,0
214285,note_on,445,0,3,,,,,,,,2,,,64,0
214320,note_on,35,0,2,,,,,,,,1,,,64,64
214320,note_on,35,0,5,,,,,,,,4,,,52,64
214320,note_on,35,0,3,,,,,,,,2,,,64,64
214320,note_on,35,0,6,,,,,,,,5,,,40,64
214320,note_on,35,0,4,,,,,,,,3,,,64,64
214320,note_on,0,0,7,,,,,,,,6,,,52,64
214320,note_on,35,0,7,,,,,,,,6,,,64,64
214545,note_on,225,0,6,,,,,,,,5,,,40,0
214545,note_on,225,0,5,,,,,,,,4,,,52,0
214545,note_on,225,0,3,,,,,,,,2,,,64,0
214545,note_on,225,0,2,,,,,,,,1,,,64,0
214545,note_on,225,0,4,,,,,,,,3,,,64,0
214545,note_on,225,0,7,,,,,,,,6,,,52,0
214545,note_on,0,0,7,,,,,,,,6,,,64,0
214560,note_on,15,0,4,,,,,,,,3,,,57,64
214560,note_on,15,0,5,,,,,,,,4,,,45,64
214560,note_on,15,0,7,,,,,,,,6,,,57,64
214560,note_on,15,0,2,,,,,,,,1,,,57,64
214560,note_on,15,0,6,,,,,,,,5,,,33,64
214560,note_on,15,0,3,,,,,,,,2,,,57,64
214560,note_on,0,0,7,,,,,,,,6,,,45,64
215005,note_on,445,0,5,,,,,,,,4,,,45,0
215005,note_on,445,0,3,,,,,,,,2,,,57,0
215005,note_on,0,0,7,,,,,,,,6,,,57,0
215005,note_on,445,0,7,,,,,,,,6,,,45,0
215005,note_on,445,0,2,,,,,,,,1,,,57,0
215005,note_on,445,0,6,,,,,,,,5,,,33,0
215005,note_on,445,0,4,,,,,,,,3,,,57,0
215040,note_on,35,0,6,,,,,,,,5,,,33,64
215040,note_on,35,0,4,,,,,,,,3,,,57,64
215040,note_on,35,0,3,,,,,,,,2,,,57,64
215040,set_tempo,1920,1,0,,,,,,1090909,,,,,,
215040,note_on,35,0,5,,,,,,,,4,,,45,64
215040,note_on,35,0,2,,,,,,,,1,,,57,64
215040,note_on,35,0,7,,,,,,,,6,,,57,64
215040,note_on,0,0,7,,,,,,,,6,,,45,64
215265,note_on,225,0,4,,,,,,,,3,,,57,0
215265,note_on,0,0,7,,,,,,,,6,,,57,0
215265,note_on,225,0,7,,,,,,,,6,,,45,0
215265,note_on,225,0,6,,,,,,,,5,,,33,0
215265,note_on,225,0,3,,,,,,,,2,,,57,0
215265,note_on,225,0,5,,,,,,,,4,,,45,0
215265,note_on,225,0,2,,,,,,,,1,,,57,0
215280,note_on,15,0,7,,,,,,,,6,,,59,64
215280,note_on,15,0,2,,,,,,,,1,,,59,64
215280,note_on,15,0,5,,,,,,,,4,,,47,64
215280,note_on,15,0,4,,,,,,,,3,,,59,64
215280,note_on,15,0,3,,,,,,,,2,,,59,64
215280,note_on,15,0,6,,,,,,,,5,,,35,64
215280,note_on,0,0,7,,,,,,,,6,,,47,64
215286,set_tempo,246,1,0,,,,,,1200000,,,,,,
215725,note_on,445,0,5,,,,,,,,4,,,47,0
215725,note_on,445,0,3,,,,,,,,2,,,59,0
215725,note_on,445,0,2,,,,,,,,1,,,59,0
215725,note_on,445,0,6,,,,,,,,5,,,35,0
215725,note_on,445,0,7,,,,,,,,6,,,47,0
215725,note_on,445,0,4,,,,,,,,3,,,59,0
215725,note_on,0,0,7,,,,,,,,6,,,59,0
215760,note_on,35,0,2,,,,,,,,1,,,59,64
215760,note_on,35,0,3,,,,,,,,2,,,59,64
215760,note_on,35,0,5,,,,,,,,4,,,47,64
215760,note_on,0,0,7,,,,,,,,6,,,47,64
215760,note_on,35,0,6,,,,,,,,5,,,35,64
215760,note_on,35,0,4,,,,,,,,3,,,59,64
215760,note_on,35,0,7,,,,,,,,6,,,59,64
215766,set_tempo,480,1,0,,,,,,1500000,,,,,,
215985,note_on,225,0,6,,,,,,,,5,,,35,0
215985,note_on,225,0,4,,,,,,,,3,,,59,0
215985,note_on,225,0,5,,,,,,,,4,,,47,0
215985,note_on,225,0,3,,,,,,,,2,,,59,0
215985,note_on,225,0,7,,,,,,,,6,,,47,0
215985,note_on,225,0,2,,,,,,,,1,,,59,0
215985,note_on,0,0,7,,,,,,,,6,,,59,0
216000,note_on,15,0,2,,,,,,,,1,,,64,64
216000,note_on,15,0,6,,,,,,,,5,,,40,64
216000,note_on,15,0,7,,,,,,,,6,,,52,64
216000,note_on,15,0,4,,,,,,,,3,,,64,64
216000,note_on,15,0,5,,,,,,,,4,,,52,64
216000,note_on,15,0,3,,,,,,,,2,,,64,64
216064,note_on,64,0,7,,,,,,,,6,,,67,64
216103,note_on,39,0,7,,,,,,,,6,,,71,64
216155,note_on,52,0,7,,,,,,,,6,,,76,64
217325,note_on,1325,0,5,,,,,,,,4,,,52,0
217325,note_on,1325,0,3,,,,,,,,2,,,64,0
217325,note_on,1170,0,7,,,,,,,,6,,,52,0
217325,note_on,1325,0,6,,,,,,,,5,,,40,0
217325,note_on,1325,0,2,,,,,,,,1,,,64,0
217325,note_on,1325,0,4,,,,,,,,3,,,64,0
217389,note_on,64,0,7,,,,,,,,6,,,67,0
217428,note_on,39,0,7,,,,,,,,6,,,71,0
217480,note_on,52,0,7,,,,,,,,6,,,76,0
218880,marker,0,1,0,,,,,,,,,,,,
218880,set_tempo,3114,1,0,,,,,,500000,,,,,,
219600,note_on,2275,0,3,,,,,,,,2,,,72,85
219600,note_on,5815,0,1,,,,,,,,0,,,72,85
219600,note_on,2275,0,2,,,,,,,,1,,,72,85
219825,note_on,225,0,2,,,,,,,,1,,,72,0
219825,note_on,225,0,1,,,,,,,,0,,,72,0
219825,note_on,225,0,3,,,,,,,,2,,,72,0
219840,note_on,15,0,3,,,,,,,,2,,,55,85
219840,note_on,15,0,2,,,,,,,,1,,,55,85
219840,note_on,15,0,1,,,,,,,,0,,,55,85
220065,note_on,225,0,2,,,,,,,,1,,,55,0
220065,note_on,225,0,3,,,,,,,,2,,,55,0
220065,note_on,225,0,1,,,,,,,,0,,,55,0
220080,note_on,15,0,2,,,,,,,,1,,,55,85
220080,note_on,15,0,1,,,,,,,,0,,,55,85
220080,note_on,15,0,3,,,,,,,,2,,,55,85
220305,note_on,225,0,3,,,,,,,,2,,,55,0
220305,note_on,225,0,2,,,,,,,,1,,,55,0
220305,note_on,225,0,1,,,,,,,,0,,,55,0
220320,note_on,15,0,3,,,,,,,,2,,,55,85
220320,note_on,15,0,2,,,,,,,,1,,,55,85
220320,note_on,15,0,1,,,,,,,,0,,,55,85
220545,note_on,225,0,3,,,,,,,,2,,,55,0
220545,note_on,225,0,2,,,,,,,,1,,,55,0
220545,note_on,225,0,1,,,,,,,,0,,,55,0
220560,note_on,3235,0,6,,,,,,,,5,,,48,85
220560,note_on,15,0,3,,,,,,,,2,,,76,85
220560,note_on,15,0,2,,,,,,,,1,,,72,85
220560,note_on,3235,0,4,,,,,,,,3,,,67,85
220560,note_on,3235,0,5,,,,,,,,4,,,60,85
220560,note_on,15,0,1,,,,,,,,0,,,72,85
220560,note_on,0,0,7,,,,,,,,6,,,72,85
220560,note_on,0,0,7,,,,,,,,6,,,64,85
220560,note_on,0,0,7,,,,,,,,6,,,60,85
220560,note_on,3080,0,7,,,,,,,,6,,,67,85
220785,note_on,225,0,2,,,,,,,,1,,,72,0
220785,note_on,0,0,7,,,,,,,,6,,,64,0
220785,note_on,0,0,7,,,,,,,,6,,,60,0
220785,note_on,0,0,7,,,,,,,,6,,,67,0
220785,note_on,225,0,7,,,,,,,,6,,,72,0
220785,note_on,225,0,3,,,,,,,,2,,,76,0
220785,note_on,225,0,5,,,,,,,,4,,,60,0
220785,note_on,225,0,1,,,,,,,,0,,,72,0
220785,note_on,225,0,4,,,,,,,,3,,,67,0
220785,note_on,225,0,6,,,,,,,,5,,,48,0
220800,note_on,0,0,7,,,,,,,,6,,,43,85
220800,note_on,15,0,1,,,,,,,,0,,,72,85
220800,note_on,0,0,7,,,,,,,,6,,,64,85
220800,note_on,0,0,7,,,,,,,,6,,,67,85
220800,note_on,15,0,7,,,,,,,,6,,,72,85
220800,note_on,15,0,2,,,,,,,,1,,,72,85
220800,note_on,15,0,4,,,,,,,,3,,,55,85
220800,note_on,15,0,6,,,,,,,,5,,,31,85
220800,note_on,15,0,3,,,,,,,,2,,,76,85
220800,note_on,15,0,5,,,,,,,,4,,,43,85
221025,note_on,225,0,6,,,,,,,,5,,,31,0
221025,note_on,225,0,7,,,,,,,,6,,,43,0
221025,note_on,225,0,4,,,,,,,,3,,,55,0
221025,note_on,225,0,5,,,,,,,,4,,,43,0
221040,note_on,15,0,7,,,,,,,,6,,,43,85
221040,note_on,15,0,5,,,,,,,,4,,,43,85
221040,note_on,15,0,4,,,,,,,,3,,,55,85
221040,note_on,15,0,6,,,,,,,,5,,,31,85
221245,note_on,445,0,1,,,,,,,,0,,,72,0
221245,note_on,445,0,2,,,,,,,,1,,,72,0
221245,note_on,205,0,7,,,,,,,,6,,,72,0
221245,note_on,0,0,7,,,,,,,,6,,,64,0
221245,note_on,445,0,3,,,,,,,,2,,,76,0
221245,note_on,0,0,7,,,,,,,,6,,,67,0
221265,note_on,225,0,5,,,,,,,,4,,,43,0
221265,note_on,20,0,7,,,,,,,,6,,,43,0
221265,note_on,225,0,6,,,,,,,,5,,,31,0
221265,note_on,225,0,4,,,,,,,,3,,,55,0
221280,note_on,0,0,7,,,,,,,,6,,,71,85
221280,note_on,0,0,7,,,,,,,,6,,,43,85
221280,note_on,35,0,1,,,,,,,,0,,,71,85
221280,note_on,0,0,7,,,,,,,,6,,,67,85
221280,note_on,15,0,7,,,,,,,,6,,,74,85
221280,note_on,35,0,3,,,,,,,,2,,,74,85
221280,note_on,15,0,5,,,,,,,,4,,,43,85
221280,note_on,15,0,6,,,,,,,,5,,,31,85
221280,note_on,35,0,2,,,,,,,,1,,,71,85
221280,note_on,15,0,4,,,,,,,,3,,,55,85
221505,note_on,225,0,4,,,,,,,,3,,,55,0
221505,note_on,225,0,7,,,,,,,,6,,,43,0
221505,note_on,225,0,5,,,,,,,,4,,,43,0
221505,note_on,225,0,6,,,,,,,,5,,,31,0
221505,note_on,225,0,1,,,,,,,,0,,,71,0
221505,note_on,225,0,3,,,,,,,,2,,,74,0
221505,note_on,225,0,2,,,,,,,,1,,,71,0
221520,note_on,15,0,6,,,,,,,,5,,,48,85
221520,note_on,15,0,4,,,,,,,,3,,,67,85
221520,note_on,15,0,3,,,,,,,,2,,,76,85
221520,note_on,15,0,5,,,,,,,,4,,,60,85
221520,note_on,15,0,1,,,,,,,,0,,,72,85
221520,note_on,15,0,2,,,,,,,,1,,,72,85
221520,note_on,15,0,7,,,,,,,,6,,,60,85
221725,note_on,0,0,7,,,,,,,,6,,,67,0
221725,note_on,205,0,7,,,,,,,,6,,,74,0
221725,note_on,0,0,7,,,,,,,,6,,,71,0
221745,note_on,225,0,6,,,,,,,,5,,,48,0
221745,note_on,225,0,4,,,,,,,,3,,,67,0
221745,note_on,20,0,7,,,,,,,,6,,,60,0
221745,note_on,225,0,1,,,,,,,,0,,,72,0
221745,note_on,225,0,2,,,,,,,,1,,,72,0
221745,note_on,225,0,3,,,,,,,,2,,,76,0
221745,note_on,225,0,5,,,,,,,,4,,,60,0
221760,note_on,0,0,7,,,,,,,,6,,,55,85
221760,note_on,15,0,1,,,,,,,,0,,,74,85
221760,note_on,15,0,2,,,,,,,,1,,,74,85
221760,note_on,15,0,6,,,,,,,,5,,,43,85
221760,note_on,15,0,4,,,,,,,,3,,,67,85
221760,note_on,15,0,5,,,,,,,,4,,,55,85
221760,note_on,0,0,7,,,,,,,,6,,,67,85
221760,note_on,0,0,7,,,,,,,,6,,,71,85
221760,note_on,15,0,3,,,,,,,,2,,,71,85
221760,note_on,15,0,7,,,,,,,,6,,,74,85
221985,note_on,225,0,3,,,,,,,,2,,,71,0
221985,note_on,225,0,2,,,,,,,,1,,,74,0
221985,note_on,225,0,1,,,,,,,,0,,,74,0
222000,note_on,15,0,1,,,,,,,,0,,,55,85
222000,note_on,15,0,3,,,,,,,,2,,,55,85
222000,note_on,15,0,2,,,,,,,,1,,,55,85
222205,note_on,445,0,7,,,,,,,,6,,,55,0
222205,note_on,0,0,7,,,,,,,,6,,,74,0
222205,note_on,445,0,4,,,,,,,,3,,,67,0
222205,note_on,0,0,7,,,,,,,,6,,,71,0
222205,note_on,0,0,7,,,,,,,,6,,,67,0
222205,note_on,445,0,6,,,,,,,,5,,,43,0
222205,note_on,445,0,5,,,,,,,,4,,,55,0
222225,note_on,225,0,1,,,,,,,,0,,,55,0
222225,note_on,225,0,3,,,,,,,,2,,,55,0
222225,note_on,225,0,2,,,,,,,,1,,,55,0
222240,note_on,15,0,1,,,,,,,,0,,,55,85
222240,note_on,15,0,2,,,,,,,,1,,,55,85
222240,note_on,15,0,3,,,,,,,,2,,,55,85
222465,note_on,225,0,3,,,,,,,,2,,,55,0
222465,note_on,225,0,2,,,,,,,,1,,,55,0
222465,note_on,225,0,1,,,,,,,,0,,,55,0
222480,note_on,275,0,7,,,,,,,,6,,,77,85
222480,note_on,0,0,7,,,,,,,,6,,,74,85
222480,note_on,15,0,2,,,,,,,,1,,,77,85
222480,note_on,0,0,7,,,,,,,,6,,,71,85
222480,note_on,0,0,7,,,,,,,,6,,,55,85
222480,note_on,15,0,1,,,,,,,,0,,,77,85
222480,note_on,275,0,6,,,,,,,,5,,,43,85
222480,note_on,15,0,3,,,,,,,,2,,,74,85
222480,note_on,275,0,4,,,,,,,,3,,,71,85
222480,note_on,275,0,5,,,,,,,,4,,,55,85
222705,note_on,225,0,4,,,,,,,,3,,,71,0
222705,note_on,225,0,7,,,,,,,,6,,,55,0
222705,note_on,0,0,7,,,,,,,,6,,,74,0
222705,note_on,0,0,7,,,,,,,,6,,,71,0
222705,note_on,0,0,7,,,,,,,,6,,,77,0
222705,note_on,225,0,3,,,,,,,,2,,,74,0
222705,note_on,225,0,1,,,,,,,,0,,,77,0
222705,note_on,225,0,2,,,,,,,,1,,,77,0
222705,note_on,225,0,6,,,,,,,,5,,,43,0
222705,note_on,225,0,5,,,,,,,,4,,,55,0
222720,note_on,0,0,7,,,,,,,,6,,,74,85
222720,note_on,15,0,7,,,,,,,,6,,,77,85
222720,note_on,15,0,3,,,,,,,,2,,,74,85
222720,note_on,0,0,7,,,,,,,,6,,,71,85
222720,note_on,15,0,2,,,,,,,,1,,,77,85
222720,note_on,15,0,6,,,,,,,,5,,,31,85
222720,note_on,15,0,5,,,,,,,,4,,,43,85
222720,note_on,0,0,7,,,,,,,,6,,,43,85
222720,note_on,15,0,1,,,,,,,,0,,,77,85
222720,note_on,15,0,4,,,,,,,,3,,,55,85
222945,note_on,225,0,5,,,,,,,,4,,,43,0
222945,note_on,225,0,7,,,,,,,,6,,,43,0
222945,note_on,225,0,6,,,,,,,,5,,,31,0
222945,note_on,225,0,4,,,,,,,,3,,,55,0
222960,note_on,15,0,7,,,,,,,,6,,,43,85
222960,note_on,15,0,6,,,,,,,,5,,,31,85
222960,note_on,15,0,4,,,,,,,,3,,,55,85
222960,note_on,15,0,5,,,,,,,,4,,,43,85
223165,note_on,445,0,3,,,,,,,,2,,,74,0
223165,note_on,445,0,1,,,,,,,,0,,,77,0
223165,note_on,205,0,7,,,,,,,,6,,,77,0
223165,note_on,0,0,7,,,,,,,,6,,,71,0
223165,note_on,0,0,7,,,,,,,,6,,,74,0
223165,note_on,445,0,2,,,,,,,,1,,,77,0
223185,note_on,225,0,4,,,,,,,,3,,,55,0
223185,note_on,225,0,5,,,,,,,,4,,,43,0
223185,note_on,20,0,7,,,,,,,,6,,,43,0
223185,note_on,225,0,6,,,,,,,,5,,,31,0
223200,note_on,35,0,2,,,,,,,,1,,,76,85
223200,note_on,15,0,7,,,,,,,,6,,,76,85
223200,note_on,0,0,7,,,,,,,,6,,,72,85
223200,note_on,0,0,7,,,,,,,,6,,,67,85
223200,note_on,0,0,7,,,,,,,,6,,,43,85
223200,note_on,35,0,3,,,,,,,,2,,,72,85
223200,note_on,15,0,4,,,,,,,,3,,,55,85
223200,note_on,15,0,5,,,,,,,,4,,,43,85
223200,note_on,35,0,1,,,,,,,,0,,,76,85
223200,note_on,15,0,6,,,,,,,,5,,,31,85
223425,note_on,225,0,3,,,,,,,,2,,,72,0
223425,note_on,225,0,7,,,,,,,,6,,,43,0
223425,note_on,225,0,4,,,,,,,,3,,,55,0
223425,note_on,225,0,5,,,,,,,,4,,,43,0
223425,note_on,225,0,1,,,,,,,,0,,,76,0
223425,note_on,225,0,2,,,,,,,,1,,,76,0
223425,note_on,225,0,6,,,,,,,,5,,,31,0
223440,note_on,15,0,7,,,,,,,,6,,,60,85
223440,note_on,15,0,4,,,,,,,,3,,,67,85
223440,note_on,15,0,5,,,,,,,,4,,,60,85
223440,note_on,15,0,2,,,,,,,,1,,,72,85
223440,note_on,15,0,3,,,,,,,,2,,,72,85
223440,note_on,15,0,6,,,,,,,,5,,,48,85
223440,note_on,15,0,1,,,,,,,,0,,,72,85
223645,note_on,0,0,7,,,,,,,,6,,,72,0
223645,note_on,0,0,7,,,,,,,,6,,,67,0
223645,note_on,205,0,7,,,,,,,,6,,,76,0
223665,note_on,20,0,7,,,,,,,,6,,,60,0
223665,note_on,225,0,3,,,,,,,,2,,,72,0
223665,note_on,225,0,6,,,,,,,,5,,,48,0
223665,note_on,225,0,4,,,,,,,,3,,,67,0
223665,note_on,225,0,2,,,,,,,,1,,,72,0
223665,note_on,225,0,5,,,,,,,,4,,,60,0
223665,note_on,225,0,1,,,,,,,,0,,,72,0
223680,note_on,15,0,1,,,,,,,,0,,,55,85
223680,note_on,15,0,5,,,,,,,,4,,,43,85
223680,note_on,15,0,7,,,,,,,,6,,,74,85
223680,note_on,0,0,7,,,,,,,,6,,,71,85
223680,note_on,0,0,7,,,,,,,,6,,,67,85
223680,note_on,0,0,7,,,,,,,,6,,,43,85
223680,note_on,15,0,4,,,,,,,,3,,,55,85
223680,note_on,15,0,2,,,,,,,,1,,,55,85
223680,note_on,15,0,3,,,,,,,,2,,,55,85
223680,note_on,15,0,6,,,,,,,,5,,,31,85
223905,note_on,225,0,1,,,,,,,,0,,,55,0
223905,note_on,225,0,2,,,,,,,,1,,,55,0
223905,note_on,225,0,3,,,,,,,,2,,,55,0
223920,note_on,15,0,2,,,,,,,,1,,,55,85
223920,note_on,15,0,3,,,,,,,,2,,,55,85
223920,note_on,15,0,1,,,,,,,,0,,,55,85
224125,note_on,445,0,4,,,,,,,,3,,,55,0
224125,note_on,445,0,5,,,,,,,,4,,,43,0
224125,note_on,445,0,6,,,,,,,,5,,,31,0
224125,note_on,445,0,7,,,,,,,,6,,,43,0
224125,note_on,0,0,7,,,,,,,,6,,,71,0
224125,note_on,0,0,7,,,,,,,,6,,,67,0
224125,note_on,0,0,7,,,,,,,,6,,,74,0
224145,note_on,225,0,3,,,,,,,,2,,,55,0
224145,note_on,225,0,1,,,,,,,,0,,,55,0
224145,note_on,225,0,2,,,,,,,,1,,,55,0
224160,note_on,15,0,1,,,,,,,,0,,,55,85
224160,note_on,15,0,3,,,,,,,,2,,,55,85
224160,note_on,15,0,2,,,,,,,,1,,,55,85
224385,note_on,225,0,2,,,,,,,,1,,,55,0
224385,note_on,225,0,1,,,,,,,,0,,,55,0
224385,note_on,225,0,3,,,,,,,,2,,,55,0
224400,note_on,275,0,4,,,,,,,,3,,,67,85
224400,note_on,0,0,7,,,,,,,,6,,,60,85
224400,note_on,15,0,1,,,,,,,,0,,,72,85
224400,note_on,0,0,7,,,,,,,,6,,,64,85
224400,note_on,0,0,7,,,,,,,,6,,,67,85
224400,note_on,15,0,2,,,,,,,,1,,,72,85
224400,note_on,15,0,3,,,,,,,,2,,,76,85
224400,note_on,275,0,6,,,,,,,,5,,,48,85
224400,note_on,275,0,5,,,,,,,,4,,,60,85
224400,note_on,275,0,7,,,,,,,,6,,,72,85
224625,note_on,225,0,6,,,,,,,,5,,,48,0
224625,note_on,225,0,5,,,,,,,,4,,,60,0
224625,note_on,225,0,4,,,,,,,,3,,,67,0
224625,note_on,0,0,7,,,,,,,,6,,,72,0
224625,note_on,0,0,7,,,,,,,,6,,,64,0
224625,note_on,0,0,7,,,,,,,,6,,,67,0
224625,note_on,225,0,7,,,,,,,,6,,,60,0
224625,note_on,225,0,3,,,,,,,,2,,,76,0
224625,note_on,225,0,2,,,,,,,,1,,,72,0
224625,note_on,225,0,1,,,,,,,,0,,,72,0
224640,note_on,15,0,7,,,,,,,,6,,,72,85
224640,note_on,15,0,4,,,,,,,,3,,,55,85
224640,note_on,0,0,7,,,,,,,,6,,,67,85
224640,note_on,0,0,7,,,,,,,,6,,,64,85
224640,note_on,15,0,1,,,,,,,,0,,,72,85
224640,note_on,15,0,5,,,,,,,,4,,,43,85
224640,note_on,15,0,3,,,,,,,,2,,,76,85
224640,note_on,15,0,6,,,,,,,,5,,,31,85
224640,note_on,0,0,7,,,,,,,,6,,,43,85
224640,note_on,15,0,2,,,,,,,,1,,,72,85
224865,note_on,225,0,5,,,,,,,,4,,,43,0
224865,note_on,225,0,4,,,,,,,,3,,,55,0
224865,note_on,225,0,6,,,,,,,,5,,,31,0
224865,note_on,225,0,7,,,,,,,,6,,,43,0
224880,note_on,15,0,4,,,,,,,,3,,,55,85
224880,note_on,15,0,7,,,,,,,,6,,,43,85
224880,note_on,15,0,6,,,,,,,,5,,,31,85
224880,note_on,15,0,5,,,,,,,,4,,,43,85
225085,note_on,445,0,1,,,,,,,,0,,,72,0
225085,note_on,205,0,7,,,,,,,,6,,,72,0
225085,note_on,0,0,7,,,,,,,,6,,,64,0
225085,note_on,445,0,2,,,,,,,,1,,,72,0
225085,note_on,445,0,3,,,,,,,,2,,,76,0
225085,note_on,0,0,7,,,,,,,,6,,,67,0
225105,note_on,225,0,4,,,,,,,,3,,,55,0
225105,note_on,225,0,6,,,,,,,,5,,,31,0
225105,note_on,20,0,7,,,,,,,,6,,,43,0
225105,note_on,225,0,5,,,,,,,,4,,,43,0
225120,note_on,15,0,4,,,,,,,,3,,,55,85
225120,note_on,35,0,3,,,,,,,,2,,,74,85
225120,note_on,0,0,7,,,,,,,,6,,,67,85
225120,note_on,0,0,7,,,,,,,,6,,,43,85
225120,note_on,15,0,7,,,,,,,,6,,,74,85
225120,note_on,0,0,7,,,,,,,,6,,,71,85
225120,note_on,35,0,1,,,,,,,,0,,,71,85
225120,note_on,15,0,6,,,,,,,,5,,,31,85
225120,note_on,15,0,5,,,,,,,,4,,,43,85
225120,note_on,35,0,2,,,,,,,,1,,,71,85
225345,note_on,225,0,2,,,,,,,,1,,,71,0
225345,note_on,225,0,4,,,,,,,,3,,,55,0
225345,note_on,225,0,7,,,,,,,,6,,,43,0
225345,note_on,225,0,6,,,,,,,,5,,,31,0
225345,note_on,225,0,5,,,,,,,,4,,,43,0
225345,note_on,225,0,1,,,,,,,,0,,,71,0
225345,note_on,225,0,3,,,,,,,,2,,,74,0
225360,note_on,15,0,3,,,,,,,,2,,,76,85
225360,note_on,15,0,2,,,,,,,,1,,,72,85
225360,note_on,15,0,4,,,,,,,,3,,,67,85
225360,note_on,15,0,5,,,,,,,,4,,,60,85
225360,note_on,15,0,1,,,,,,,,0,,,72,85
225360,note_on,15,0,6,,,,,,,,5,,,48,85
225360,note_on,15,0,7,,,,,,,,6,,,60,85
225565,note_on,205,0,7,,,,,,,,6,,,74,0
225565,note_on,0,0,7,,,,,,,,6,,,67,0
225565,note_on,0,0,7,,,,,,,,6,,,71,0
225585,note_on,225,0,1,,,,,,,,0,,,72,0
225585,note_on,225,0,4,,,,,,,,3,,,67,0
225585,note_on,20,0,7,,,,,,,,6,,,60,0
225585,note_on,225,0,6,,,,,,,,5,,,48,0
225585,note_on,225,0,2,,,,,,,,1,,,72,0
225585,note_on,225,0,5,,,,,,,,4,,,60,0
225585,note_on,225,0,3,,,,,,,,2,,,76,0
225600,note_on,0,0,7,,,,,,,,6,,,71,85
225600,note_on,15,0,2,,,,,,,,1,,,74,85
225600,note_on,15,0,7,,,,,,,,6,,,74,85
225600,note_on,15,0,1,,,,,,,,0,,,74,85
225600,note_on,15,0,3,,,,,,,,2,,,71,85
225600,note_on,15,0,4,,,,,,,,3,,,67,85
225600,note_on,15,0,6,,,,,,,,5,,,31,85
225600,note_on,0,0,7,,,,,,,,6,,,43,85
225600,note_on,0,0,7,,,,,,,,6,,,67,85
225600,note_on,15,0,5,,,,,,,,4,,,43,85
225825,note_on,225,0,3,,,,,,,,2,,,71,0
225825,note_on,225,0,1,,,,,,,,0,,,74,0
225825,note_on,225,0,2,,,,,,,,1,,,74,0
225840,note_on,15,0,3,,,,,,,,2,,,55,85
225840,note_on,15,0,1,,,,,,,,0,,,55,85
225840,note_on,15,0,2,,,,,,,,1,,,55,85
226045,note_on,445,0,4,,,,,,,,3,,,67,0
226045,note_on,445,0,7,,,,,,,,6,,,43,0
226045,note_on,0,0,7,,,,,,,,6,,,67,0
226045,note_on,0,0,7,,,,,,,,6,,,71,0
226045,note_on,0,0,7,,,,,,,,6,,,74,0
226045,note_on,445,0,6,,,,,,,,5,,,31,0
226045,note_on,445,0,5,,,,,,,,4,,,43,0
226065,note_on,225,0,3,,,,,,,,2,,,55,0
226065,note_on,225,0,1,,,,,,,,0,,,55,0
226065,note_on,225,0,2,,,,,,,,1,,,55,0
226080,note_on,15,0,3,,,,,,,,2,,,55,85
226080,note_on,15,0,2,,,,,,,,1,,,55,85
226080,note_on,15,0,1,,,,,,,,0,,,55,85
226305,note_on,225,0,2,,,,,,,,1,,,55,0
226305,note_on,225,0,3,,,,,,,,2,,,55,0
226305,note_on,225,0,1,,,,,,,,0,,,55,0
226320,note_on,275,0,5,,,,,,,,4,,,55,85
226320,note_on,275,0,6,,,,,,,,5,,,43,85
226320,note_on,0,0,7,,,,,,,,6,,,55,85
226320,note_on,0,0,7,,,,,,,,6,,,62,85
226320,note_on,275,0,7,,,,,,,,6,,,71,85
226320,note_on,0,0,7,,,,,,,,6,,,65,85
226320,note_on,275,0,4,,,,,,,,3,,,71,85
226320,note_on,15,0,3,,,,,,,,2,,,74,85
226320,note_on,15,0,2,,,,,,,,1,,,77,85
226320,note_on,15,0,1,,,,,,,,0,,,77,85
226545,note_on,225,0,5,,,,,,,,4,,,55,0
226545,note_on,0,0,7,,,,,,,,6,,,65,0
226545,note_on,225,0,7,,,,,,,,6,,,55,0
226545,note_on,0,0,7,,,,,,,,6,,,71,0
226545,note_on,0,0,7,,,,,,,,6,,,62,0
226545,note_on,225,0,2,,,,,,,,1,,,77,0
226545,note_on,225,0,1,,,,,,,,0,,,77,0
226545,note_on,225,0,3,,,,,,,,2,,,74,0
226545,note_on,225,0,4,,,,,,,,3,,,71,0
226545,note_on,225,0,6,,,,,,,,5,,,43,0
226560,note_on,15,0,4,,,,,,,,3,,,55,85
226560,note_on,15,0,1,,,,,,,,0,,,77,85
226560,note_on,15,0,7,,,,,,,,6,,,71,85
226560,note_on,0,0,7,,,,,,,,6,,,65,85
226560,note_on,0,0,7,,,,,,,,6,,,62,85
226560,note_on,0,0,7,,,,,,,,6,,,43,85
226560,note_on,15,0,3,,,,,,,,2,,,74,85
226560,note_on,15,0,6,,,,,,,,5,,,31,85
226560,note_on,15,0,2,,,,,,,,1,,,77,85
226560,note_on,15,0,5,,,,,,,,4,,,43,85
226785,note_on,225,0,4,,,,,,,,3,,,55,0
226785,note_on,225,0,6,,,,,,,,5,,,31,0
226785,note_on,225,0,7,,,,,,,,6,,,43,0
226785,note_on,225,0,5,,,,,,,,4,,,43,0
226800,note_on,15,0,6,,,,,,,,5,,,31,85
226800,note_on,15,0,4,,,,,,,,3,,,55,85
226800,note_on,15,0,5,,,,,,,,4,,,43,85
226800,note_on,15,0,7,,,,,,,,6,,,43,85
227005,note_on,205,0,7,,,,,,,,6,,,71,0
227005,note_on,0,0,7,,,,,,,,6,,,65,0
227005,note_on,0,0,7,,,,,,,,6,,,62,0
227005,note_on,445,0,3,,,,,,,,2,,,74,0
227005,note_on,445,0,2,,,,,,,,1,,,77,0
227005,note_on,445,0,1,,,,,,,,0,,,77,0
227025,note_on,20,0,7,,,,,,,,6,,,43,0
227025,note_on,225,0,6,,,,,,,,5,,,31,0
227025,note_on,225,0,4,,,,,,,,3,,,55,0
227025,note_on,225,0,5,,,,,,,,4,,,43,0
227040,note_on,15,0,4,,,,,,,,3,,,55,85
227040,note_on,15,0,5,,,,,,,,4,,,43,85
227040,note_on,35,0,2,,,,,,,,1,,,76,85
227040,note_on,15,0,6,,,,,,,,5,,,31,85
227040,note_on,35,0,3,,,,,,,,2,,,72,85
227040,note_on,15,0,7,,,,,,,,6,,,72,85
227040,note_on,0,0,7,,,,,,,,6,,,67,85
227040,note_on,0,0,7,,,,,,,,6,,,64,85
227040,note_on,0,0,7,,,,,,,,6,,,43,85
227040,note_on,35,0,1,,,,,,,,0,,,76,85
227265,note_on,225,0,4,,,,,,,,3,,,55,0
227265,note_on,225,0,2,,,,,,,,1,,,76,0
227265,note_on,225,0,1,,,,,,,,0,,,76,0
227265,note_on,225,0,5,,,,,,,,4,,,43,0
227265,note_on,225,0,6,,,,,,,,5,,,31,0
227265,note_on,225,0,3,,,,,,,,2,,,72,0
227265,note_on,225,0,7,,,,,,,,6,,,43,0
227280,note_on,15,0,2,,,,,,,,1,,,79,85
227280,note_on,15,0,1,,,,,,,,0,,,79,85
227280,note_on,15,0,7,,,,,,,,6,,,60,85
227280,note_on,15,0,3,,,,,,,,2,,,79,85
227280,note_on,15,0,4,,,,,,,,3,,,64,85
227280,note_on,15,0,6,,,,,,,,5,,,48,85
227280,note_on,15,0,5,,,,,,,,4,,,60,85
227485,note_on,0,0,7,,,,,,,,6,,,67,0
227485,note_on,0,0,7,,,,,,,,6,,,64,0
227485,note_on,205,0,7,,,,,,,,6,,,72,0
227505,note_on,225,0,2,,,,,,,,1,,,79,0
227505,note_on,225,0,6,,,,,,,,5,,,48,0
227505,note_on,20,0,7,,,,,,,,6,,,60,0
227505,note_on,225,0,3,,,,,,,,2,,,79,0
227505,note_on,225,0,1,,,,,,,,0,,,79,0
227505,note_on,225,0,5,,,,,,,,4,,,60,0
227505,note_on,225,0,4,,,,,,,,3,,,64,0
227520,note_on,15,0,3,,,,,,,,2,,,72,85
227520,note_on,15,0,2,,,,,,,,1,,,72,85
227520,note_on,0,0,7,,,,,,,,6,,,52,85
227520,note_on,15,0,4,,,,,,,,3,,,67,85
227520,note_on,15,0,1,,,,,,,,0,,,72,85
227520,note_on,0,0,7,,,,,,,,6,,,64,85
227520,note_on,15,0,5,,,,,,,,4,,,52,85
227520,note_on,15,0,6,,,,,,,,5,,,40,85
227520,note_on,0,0,7,,,,,,,,6,,,67,85
227520,note_on,15,0,7,,,,,,,,6,,,72,85
227745,note_on,225,0,2,,,,,,,,1,,,72,0
227745,note_on,225,0,1,,,,,,,,0,,,72,0
227745,note_on,225,0,3,,,,,,,,2,,,72,0
227760,note_on,15,0,2,,,,,,,,1,,,72,85
227760,note_on,15,0,1,,,,,,,,0,,,72,85
227760,note_on,15,0,3,,,,,,,,2,,,72,85
227965,note_on,0,0,7,,,,,,,,6,,,64,0
227965,note_on,445,0,7,,,,,,,,6,,,52,0
227965,note_on,445,0,4,,,,,,,,3,,,67,0
227965,note_on,445,0,5,,,,,,,,4,,,52,0
227965,note_on,0,0,7,,,,,,,,6,,,67,0
227965,note_on,445,0,6,,,,,,,,5,,,40,0
227965,note_on,0,0,7,,,,,,,,6,,,72,0
227985,note_on,225,0,3,,,,,,,,2,,,72,0
227985,note_on,225,0,1,,,,,,,,0,,,72,0
227985,note_on,225,0,2,,,,,,,,1,,,72,0
228000,note_on,15,0,3,,,,,,,,2,,,72,85
228000,note_on,15,0,2,,,,,,,,1,,,72,85
228000,note_on,15,0,1,,,,,,,,0,,,72,85
228225,note_on,225,0,1,,,,,,,,0,,,72,0
228225,note_on,225,0,3,,,,,,,,2,,,72,0
228225,note_on,225,0,2,,,,,,,,1,,,72,0
228240,note_on,275,0,6,,,,,,,,5,,,40,85
228240,note_on,15,0,3,,,,,,,,2,,,79,85
228240,note_on,15,0,1,,,,,,,,0,,,82,85
228240,note_on,275,0,7,,,,,,,,6,,,70,85
228240,note_on,0,0,7,,,,,,,,6,,,52,85
228240,note_on,275,0,4,,,,,,,,3,,,64,85
228240,note_on,15,0,2,,,,,,,,1,,,82,85
228240,note_on,275,0,5,,,,,,,,4,,,52,85
228240,note_on,0,0,7,,,,,,,,6,,,72,85
228465,note_on,225,0,6,,,,,,,,5,,,40,0
228465,note_on,225,0,4,,,,,,,,3,,,64,0
228465,note_on,225,0,1,,,,,,,,0,,,82,0
228465,note_on,0,0,7,,,,,,,,6,,,72,0
228465,note_on,0,0,7,,,,,,,,6,,,70,0
228465,note_on,225,0,2,,,,,,,,1,,,82,0
228465,note_on,225,0,5,,,,,,,,4,,,52,0
228465,note_on,225,0,7,,,,,,,,6,,,52,0
228465,note_on,225,0,3,,,,,,,,2,,,79,0
228480,note_on,15,0,2,,,,,,,,1,,,82,85
228480,note_on,15,0,3,,,,,,,,2,,,79,85
228480,note_on,15,0,5,,,,,,,,4,,,41,85
228480,note_on,0,0,7,,,,,,,,6,,,41,85
228480,note_on,15,0,1,,,,,,,,0,,,82,85
228480,note_on,15,0,7,,,,,,,,6,,,70,85
228480,note_on,0,0,7,,,,,,,,6,,,72,85
228480,note_on,15,0,6,,,,,,,,5,,,29,85
228480,note_on,15,0,4,,,,,,,,3,,,60,85
228705,note_on,225,0,4,,,,,,,,3,,,60,0
228705,note_on,225,0,7,,,,,,,,6,,,41,0
228705,note_on,225,0,6,,,,,,,,5,,,29,0
228705,note_on,225,0,5,,,,,,,,4,,,41,0
228720,note_on,15,0,6,,,,,,,,5,,,29,85
228720,note_on,15,0,4,,,,,,,,3,,,60,85
228720,note_on,15,0,5,,,,,,,,4,,,41,85
228720,note_on,15,0,7,,,,,,,,6,,,41,85
228925,note_on,445,0,1,,,,,,,,0,,,82,0
228925,note_on,445,0,2,,,,,,,,1,,,82,0
228925,note_on,445,0,3,,,,,,,,2,,,79,0
228925,note_on,205,0,7,,,,,,,,6,,,70,0
228945,note_on,225,0,4,,,,,,,,3,,,60,0
228945,note_on,225,0,6,,,,,,,,5,,,29,0
228945,note_on,225,0,5,,,,,,,,4,,,41,0
228945,note_on,20,0,7,,,,,,,,6,,,41,0
228960,note_on,15,0,5,,,,,,,,4,,,41,85
228960,note_on,35,0,1,,,,,,,,0,,,81,85
228960,note_on,0,0,7,,,,,,,,6,,,41,85
228960,note_on,15,0,4,,,,,,,,3,,,60,85
228960,note_on,15,0,6,,,,,,,,5,,,29,85
228960,note_on,15,0,7,,,,,,,,6,,,69,85
228960,note_on,35,0,3,,,,,,,,2,,,77,85
228960,note_on,35,0,2,,,,,,,,1,,,81,85
229185,note_on,225,0,5,,,,,,,,4,,,41,0
229185,note_on,225,0,6,,,,,,,,5,,,29,0
229185,note_on,225,0,1,,,,,,,,0,,,81,0
229185,note_on,225,0,4,,,,,,,,3,,,60,0
229185,note_on,225,0,2,,,,,,,,1,,,81,0
229185,note_on,225,0,7,,,,,,,,6,,,41,0
229185,note_on,225,0,3,,,,,,,,2,,,77,0
229200,note_on,15,0,1,,,,,,,,0,,,81,85
229200,note_on,15,0,6,,,,,,,,5,,,41,85
229200,note_on,15,0,5,,,,,,,,4,,,53,85
229200,note_on,15,0,7,,,,,,,,6,,,53,85
229200,note_on,15,0,4,,,,,,,,3,,,69,85
229200,note_on,15,0,2,,,,,,,,1,,,81,85
229200,note_on,15,0,3,,,,,,,,2,,,81,85
229365,note_on,165,0,7,,,,,,,,6,,,72,0
229405,note_on,40,0,7,,,,,,,,6,,,69,0
229425,note_on,225,0,3,,,,,,,,2,,,81,0
229425,note_on,225,0,6,,,,,,,,5,,,41,0
229425,note_on,225,0,5,,,,,,,,4,,,53,0
229425,note_on,225,0,2,,,,,,,,1,,,81,0
229425,note_on,225,0,4,,,,,,,,3,,,69,0
229425,note_on,20,0,7,,,,,,,,6,,,53,0
229425,note_on,225,0,1,,,,,,,,0,,,81,0
229440,note_on,15,0,6,,,,,,,,5,,,30,85
229440,note_on,0,0,7,,,,,,,,6,,,69,85
229440,note_on,15,0,1,,,,,,,,0,,,74,85
229440,note_on,0,0,7,,,,,,,,6,,,66,85
229440,note_on,0,0,7,,,,,,,,6,,,42,85
229440,note_on,15,0,3,,,,,,,,2,,,74,85
229440,note_on,15,0,5,,,,,,,,4,,,42,85
229440,note_on,15,0,4,,,,,,,,3,,,69,85
229440,note_on,15,0,7,,,,,,,,6,,,74,85
229440,note_on,15,0,2,,,,,,,,1,,,74,85
229665,note_on,225,0,2,,,,,,,,1,,,74,0
229665,note_on,225,0,3,,,,,,,,2,,,74,0
229665,note_on,225,0,1,,,,,,,,0,,,74,0
229680,note_on,15,0,2,,,,,,,,1,,,74,85
229680,note_on,15,0,3,,,,,,,,2,,,74,85
229680,note_on,15,0,1,,,,,,,,0,,,74,85
229885,note_on,445,0,4,,,,,,,,3,,,69,0
229885,note_on,0,0,7,,,,,,,,6,,,66,0
229885,note_on,0,0,7,,,,,,,,6,,,69,0
229885,note_on,445,0,7,,,,,,,,6,,,42,0
229885,note_on,445,0,5,,,,,,,,4,,,42,0
229885,note_on,0,0,7,,,,,,,,6,,,74,0
229885,note_on,445,0,6,,,,,,,,5,,,30,0
229905,note_on,225,0,1,,,,,,,,0,,,74,0
229905,note_on,225,0,2,,,,,,,,1,,,74,0
229905,note_on,225,0,3,,,,,,,,2,,,74,0
229920,note_on,15,0,3,,,,,,,,2,,,74,85
229920,note_on,15,0,2,,,,,,,,1,,,74,85
229920,note_on,15,0,1,,,,,,,,0,,,74,85
230145,note_on,225,0,1,,,,,,,,0,,,74,0
230145,note_on,225,0,3,,,,,,,,2,,,74,0
230145,note_on,225,0,2,,,,,,,,1,,,74,0
230160,note_on,275,0,4,,,,,,,,3,,,69,85
230160,note_on,15,0,3,,,,,,,,2,,,81,85
230160,note_on,0,0,7,,,,,,,,6,,,66,85
230160,note_on,0,0,7,,,,,,,,6,,,69,85
230160,note_on,275,0,7,,,,,,,,6,,,74,85
230160,note_on,15,0,2,,,,,,,,1,,,84,85
230160,note_on,275,0,5,,,,,,,,4,,,54,85
230160,note_on,275,0,6,,,,,,,,5,,,42,85
230160,note_on,15,0,1,,,,,,,,0,,,84,85
230160,note_on,0,0,7,,,,,,,,6,,,54,85
230385,note_on,225,0,6,,,,,,,,5,,,42,0
230385,note_on,225,0,4,,,,,,,,3,,,69,0
230385,note_on,225,0,5,,,,,,,,4,,,54,0
230385,note_on,225,0,3,,,,,,,,2,,,81,0
230385,note_on,0,0,7,,,,,,,,6,,,66,0
230385,note_on,0,0,7,,,,,,,,6,,,69,0
230385,note_on,0,0,7,,,,,,,,6,,,74,0
230385,note_on,225,0,1,,,,,,,,0,,,84,0
230385,note_on,225,0,2,,,,,,,,1,,,84,0
230385,note_on,225,0,7,,,,,,,,6,,,54,0
230400,note_on,15,0,1,,,,,,,,0,,,84,85
230400,note_on,15,0,3,,,,,,,,2,,,81,85
230400,note_on,15,0,5,,,,,,,,4,,,43,85
230400,note_on,15,0,7,,,,,,,,6,,,74,85
230400,note_on,0,0,7,,,,,,,,6,,,72,85
230400,note_on,15,0,2,,,,,,,,1,,,84,85
230400,note_on,0,0,7,,,,,,,,6,,,43,85
230400,note_on,15,0,6,,,,,,,,5,,,31,85
230400,note_on,15,0,4,,,,,,,,3,,,62,85
230625,note_on,225,0,7,,,,,,,,6,,,43,0
230625,note_on,225,0,6,,,,,,,,5,,,31,0
230625,note_on,225,0,5,,,,,,,,4,,,43,0
230625,note_on,225,0,4,,,,,,,,3,,,62,0
230640,note_on,15,0,5,,,,,,,,4,,,43,85
230640,note_on,15,0,7,,,,,,,,6,,,43,85
230640,note_on,15,0,6,,,,,,,,5,,,31,85
230640,note_on,15,0,4,,,,,,,,3,,,62,85
230845,note_on,445,0,3,,,,,,,,2,,,81,0
230845,note_on,445,0,1,,,,,,,,0,,,84,0
230845,note_on,0,0,7,,,,,,,,6,,,74,0
230845,note_on,445,0,2,,,,,,,,1,,,84,0
230845,note_on,205,0,7,,,,,,,,6,,,72,0
230865,note_on,225,0,6,,,,,,,,5,,,31,0
230865,note_on,225,0,5,,,,,,,,4,,,43,0
230865,note_on,225,0,4,,,,,,,,3,,,62,0
230865,note_on,20,0,7,,,,,,,,6,,,43,0
230880,note_on,15,0,6,,,,,,,,5,,,31,85
230880,note_on,15,0,7,,,,,,,,6,,,74,85
230880,note_on,0,0,7,,,,,,,,6,,,71,85
230880,note_on,0,0,7,,,,,,,,6,,,67,85
230880,note_on,35,0,2,,,,,,,,1,,,83,85
230880,note_on,0,0,7,,,,,,,,6,,,43,85
230880,note_on,15,0,4,,,,,,,,3,,,62,85
230880,note_on,15,0,5,,,,,,,,4,,,43,85
230880,note_on,35,0,3,,,,,,,,2,,,79,85
230880,note_on,35,0,1,,,,,,,,0,,,83,85
231105,note_on,225,0,6,,,,,,,,5,,,31,0
231105,note_on,225,0,4,,,,,,,,3,,,62,0
231105,note_on,225,0,2,,,,,,,,1,,,83,0
231105,note_on,225,0,7,,,,,,,,6,,,43,0
231105,note_on,0,0,7,,,,,,,,6,,,74,0
231105,note_on,225,0,1,,,,,,,,0,,,83,0
231105,note_on,225,0,3,,,,,,,,2,,,79,0
231105,note_on,225,0,5,,,,,,,,4,,,43,0
231120,note_on,15,0,1,,,,,,,,0,,,79,85
231120,note_on,15,0,4,,,,,,,,3,,,72,85
231120,note_on,15,0,3,,,,,,,,2,,,76,85
231120,note_on,15,0,2,,,,,,,,1,,,79,85
231120,note_on,15,0,5,,,,,,,,4,,,60,85
231120,note_on,15,0,6,,,,,,,,5,,,48,85
231120,note_on,0,0,7,,,,,,,,6,,,60,85
231120,note_on,15,0,7,,,,,,,,6,,,72,85
231325,note_on,0,0,7,,,,,,,,6,,,71,0
231325,note_on,205,0,7,,,,,,,,6,,,67,0
231345,note_on,225,0,2,,,,,,,,1,,,79,0
231345,note_on,225,0,1,,,,,,,,0,,,79,0
231345,note_on,0,0,7,,,,,,,,6,,,60,0
231345,note_on,20,0,7,,,,,,,,6,,,72,0
231345,note_on,225,0,3,,,,,,,,2,,,76,0
231345,note_on,225,0,5,,,,,,,,4,,,60,0
231345,note_on,225,0,4,,,,,,,,3,,,72,0
231345,note_on,225,0,6,,,,,,,,5,,,48,0
231360,note_on,15,0,5,,,,,,,,4,,,53,85
231360,note_on,0,0,7,,,,,,,,6,,,53,85
231360,note_on,15,0,3,,,,,,,,2,,,77,85
231360,note_on,0,0,7,,,,,,,,6,,,69,85
231360,note_on,0,0,7,,,,,,,,6,,,72,85
231360,note_on,15,0,7,,,,,,,,6,,,77,85
231360,note_on,15,0,6,,,,,,,,5,,,41,85
231360,note_on,15,0,1,,,,,,,,0,,,81,85
231360,note_on,15,0,2,,,,,,,,1,,,81,85
231360,note_on,15,0,4,,,,,,,,3,,,72,85
231585,note_on,225,0,6,,,,,,,,5,,,41,0
231585,note_on,225,0,2,,,,,,,,1,,,81,0
231585,note_on,225,0,7,,,,,,,,6,,,53,0
231585,note_on,0,0,7,,,,,,,,6,,,72,0
231585,note_on,0,0,7,,,,,,,,6,,,69,0
231585,note_on,0,0,7,,,,,,,,6,,,77,0
231585,note_on,225,0,4,,,,,,,,3,,,72,0
231585,note_on,225,0,3,,,,,,,,2,,,77,0
231585,note_on,225,0,1,,,,,,,,0,,,81,0
231585,note_on,225,0,5,,,,,,,,4,,,53,0
231600,note_on,0,0,7,,,,,,,,6,,,72,85
231600,note_on,15,0,1,,,,,,,,0,,,79,85
231600,note_on,15,0,2,,,,,,,,1,,,79,85
231600,note_on,15,0,6,,,,,,,,5,,,36,85
231600,note_on,15,0,4,,,,,,,,3,,,72,85
231600,note_on,15,0,5,,,,,,,,4,,,48,85
231600,note_on,0,0,7,,,,,,,,6,,,64,85
231600,note_on,0,0,7,,,,,,,,6,,,48,85
231600,note_on,15,0,3,,,,,,,,2,,,76,85
231600,note_on,15,0,7,,,,,,,,6,,,79,85
231825,note_on,0,0,7,,,,,,,,6,,,72,0
231825,note_on,0,0,7,,,,,,,,6,,,64,0
231825,note_on,225,0,7,,,,,,,,6,,,48,0
231825,note_on,225,0,5,,,,,,,,4,,,48,0
231825,note_on,225,0,4,,,,,,,,3,,,72,0
231825,note_on,225,0,2,,,,,,,,1,,,79,0
231825,note_on,225,0,3,,,,,,,,2,,,76,0
231825,note_on,225,0,1,,,,,,,,0,,,79,0
231825,note_on,225,0,6,,,,,,,,5,,,36,0
231825,note_on,0,0,7,,,,,,,,6,,,79,0
231840,note_on,15,0,4,,,,,,,,3,,,72,85
231840,note_on,15,0,6,,,,,,,,5,,,41,85
231840,note_on,15,0,3,,,,,,,,2,,,77,85
231840,note_on,15,0,1,,,,,,,,0,,,81,85
231840,note_on,15,0,5,,,,,,,,4,,,53,85
231840,note_on,15,0,7,,,,,,,,6,,,77,85
231840,note_on,0,0,7,,,,,,,,6,,,72,85
231840,note_on,0,0,7,,,,,,,,6,,,69,85
231840,note_on,0,0,7,,,,,,,,6,,,53,85
231840,note_on,15,0,2,,,,,,,,1,,,81,85
232065,note_on,225,0,2,,,,,,,,1,,,81,0
232065,note_on,0,0,7,,,,,,,,6,,,69,0
232065,note_on,225,0,5,,,,,,,,4,,,53,0
232065,note_on,225,0,7,,,,,,,,6,,,53,0
232065,note_on,0,0,7,,,,,,,,6,,,77,0
232065,note_on,0,0,7,,,,,,,,6,,,72,0
232065,note_on,225,0,6,,,,,,,,5,,,41,0
232065,note_on,225,0,1,,,,,,,,0,,,81,0
232065,note_on,225,0,4,,,,,,,,3,,,72,0
232065,note_on,225,0,3,,,,,,,,2,,,77,0
232080,note_on,15,0,3,,,,,,,,2,,,76,85
232080,note_on,0,0,7,,,,,,,,6,,,48,85
232080,note_on,0,0,7,,,,,,,,6,,,64,85
232080,note_on,0,0,7,,,,,,,,6,,,72,85
232080,note_on,15,0,7,,,,,,,,6,,,79,85
232080,note_on,15,0,6,,,,,,,,5,,,36,85
232080,note_on,15,0,2,,,,,,,,1,,,79,85
232080,note_on,15,0,5,,,,,,,,4,,,48,85
232080,note_on,15,0,4,,,,,,,,3,,,72,85
232080,note_on,15,0,1,,,,,,,,0,,,79,85
232305,note_on,0,0,7,,,,,,,,6,,,64,0
232305,note_on,0,0,7,,,,,,,,6,,,72,0
232305,note_on,0,0,7,,,,,,,,6,,,79,0
232305,note_on,225,0,7,,,,,,,,6,,,48,0
232305,note_on,225,0,3,,,,,,,,2,,,76,0
232305,note_on,225,0,6,,,,,,,,5,,,36,0
232305,note_on,225,0,1,,,,,,,,0,,,79,0
232305,note_on,225,0,4,,,,,,,,3,,,72,0
232305,note_on,225,0,5,,,,,,,,4,,,48,0
232305,note_on,225,0,2,,,,,,,,1,,,79,0
232320,note_on,15,0,3,,,,,,,,2,,,74,85
232320,note_on,15,0,1,,,,,,,,0,,,77,85
232320,note_on,0,0,7,,,,,,,,6,,,69,85
232320,note_on,0,0,7,,,,,,,,6,,,72,85
232320,note_on,15,0,6,,,,,,,,5,,,41,85
232320,note_on,15,0,7,,,,,,,,6,,,77,85
232320,note_on,15,0,5,,,,,,,,4,,,53,85
232320,note_on,15,0,4,,,,,,,,3,,,69,85
232320,note_on,0,0,7,,,,,,,,6,,,53,85
232320,note_on,15,0,2,,,,,,,,1,,,77,85
232545,note_on,225,0,2,,,,,,,,1,,,77,0
232545,note_on,225,0,1,,,,,,,,0,,,77,0
232545,note_on,225,0,3,,,,,,,,2,,,74,0
232545,note_on,225,0,7,,,,,,,,6,,,77,0
232560,note_on,15,0,2,,,,,,,,1,,,76,85
232560,note_on,15,0,7,,,,,,,,6,,,76,85
232560,note_on,15,0,3,,,,,,,,2,,,72,85
232560,note_on,15,0,1,,,,,,,,0,,,76,85
232765,note_on,205,0,7,,,,,,,,6,,,72,0
232765,note_on,0,0,7,,,,,,,,6,,,53,0
232765,note_on,445,0,6,,,,,,,,5,,,41,0
232765,note_on,445,0,5,,,,,,,,4,,,53,0
232765,note_on,0,0,7,,,,,,,,6,,,69,0
232765,note_on,445,0,4,,,,,,,,3,,,69,0
232785,note_on,225,0,1,,,,,,,,0,,,76,0
232785,note_on,225,0,2,,,,,,,,1,,,76,0
232785,note_on,225,0,3,,,,,,,,2,,,72,0
232785,note_on,20,0,7,,,,,,,,6,,,76,0
232800,note_on,35,0,5,,,,,,,,4,,,54,85
232800,note_on,35,0,6,,,,,,,,5,,,42,85
232800,note_on,15,0,2,,,,,,,,1,,,74,85
232800,note_on,15,0,1,,,,,,,,0,,,74,85
232800,note_on,15,0,3,,,,,,,,2,,,71,85
232800,note_on,15,0,7,,,,,,,,6,,,74,85
232800,note_on,35,0,4,,,,,,,,3,,,69,85
232800,note_on,0,0,7,,,,,,,,6,,,66,85
232800,note_on,0,0,7,,,,,,,,6,,,69,85
232800,note_on,0,0,7,,,,,,,,6,,,54,85
233025,note_on,225,0,2,,,,,,,,1,,,74,0
233025,note_on,225,0,1,,,,,,,,0,,,74,0
233025,note_on,225,0,7,,,,,,,,6,,,74,0
233025,note_on,225,0,3,,,,,,,,2,,,71,0
233040,note_on,15,0,1,,,,,,,,0,,,72,85
233040,note_on,15,0,3,,,,,,,,2,,,69,85
233040,note_on,15,0,7,,,,,,,,6,,,72,85
233040,note_on,15,0,2,,,,,,,,1,,,72,85
233245,note_on,445,0,4,,,,,,,,3,,,69,0
233245,note_on,445,0,6,,,,,,,,5,,,42,0
233245,note_on,445,0,5,,,,,,,,4,,,54,0
233245,note_on,205,0,7,,,,,,,,6,,,69,0
233245,note_on,0,0,7,,,,,,,,6,,,54,0
233245,note_on,0,0,7,,,,,,,,6,,,66,0
233265,note_on,225,0,3,,,,,,,,2,,,69,0
233265,note_on,225,0,2,,,,,,,,1,,,72,0
233265,note_on,20,0,7,,,,,,,,6,,,72,0
233265,note_on,225,0,1,,,,,,,,0,,,72,0
233280,note_on,15,0,3,,,,,,,,2,,,67,85
233280,note_on,35,0,4,,,,,,,,3,,,62,85
233280,note_on,35,0,5,,,,,,,,4,,,55,85
233280,note_on,0,0,7,,,,,,,,6,,,62,85
233280,note_on,15,0,7,,,,,,,,6,,,72,85
233280,note_on,15,0,1,,,,,,,,0,,,74,85
233280,note_on,15,0,2,,,,,,,,1,,,74,85
233280,note_on,0,0,7,,,,,,,,6,,,55,85
233280,note_on,35,0,6,,,,,,,,5,,,43,85
233340,note_on,0,0,2,,,,,,,,1,,,72,85
233340,note_on,0,0,1,,,,,,,,0,,,72,85
233340,note_on,60,0,2,,,,,,,,1,,,74,0
233340,note_on,60,0,1,,,,,,,,0,,,74,0
233400,note_on,0,0,2,,,,,,,,1,,,74,85
233400,note_on,60,0,2,,,,,,,,1,,,72,0
233400,note_on,60,0,1,,,,,,,,0,,,72,0
233400,note_on,0,0,1,,,,,,,,0,,,74,85
233460,note_on,60,0,1,,,,,,,,0,,,74,0
233460,note_on,0,0,1,,,,,,,,0,,,72,85
233460,note_on,0,0,2,,,,,,,,1,,,72,85
233460,note_on,60,0,2,,,,,,,,1,,,74,0
233505,note_on,225,0,7,,,,,,,,6,,,55,0
233505,note_on,225,0,6,,,,,,,,5,,,43,0
233505,note_on,225,0,5,,,,,,,,4,,,55,0
233505,note_on,225,0,4,,,,,,,,3,,,62,0
233520,note_on,15,0,4,,,,,,,,3,,,59,85
233520,note_on,15,0,7,,,,,,,,6,,,43,85
233520,note_on,15,0,5,,,,,,,,4,,,43,85
233520,note_on,15,0,6,,,,,,,,5,,,31,85
233725,note_on,0,0,7,,,,,,,,6,,,72,0
233725,note_on,205,0,7,,,,,,,,6,,,62,0
233745,note_on,225,0,5,,,,,,,,4,,,43,0
233745,note_on,285,0,1,,,,,,,,0,,,72,0
233745,note_on,285,0,2,,,,,,,,1,,,72,0
233745,note_on,225,0,4,,,,,,,,3,,,59,0
233745,note_on,20,0,7,,,,,,,,6,,,43,0
233745,note_on,225,0,6,,,,,,,,5,,,31,0
233760,note_on,15,0,2,,,,,,,,1,,,71,85
233760,note_on,15,0,4,,,,,,,,3,,,59,85
233760,note_on,15,0,5,,,,,,,,4,,,43,85
233760,note_on,15,0,1,,,,,,,,0,,,71,85
233760,note_on,0,0,7,,,,,,,,6,,,43,85
233760,note_on,0,0,7,,,,,,,,6,,,62,85
233760,note_on,15,0,6,,,,,,,,5,,,31,85
233760,note_on,15,0,7,,,,,,,,6,,,71,85
233945,note_on,665,0,3,,,,,,,,2,,,67,0
233985,note_on,225,0,2,,,,,,,,1,,,71,0
233985,note_on,225,0,1,,,,,,,,0,,,71,0
234000,note_on,15,0,2,,,,,,,,1,,,72,85
234000,note_on,15,0,1,,,,,,,,0,,,72,85
234000,note_on,55,0,3,,,,,,,,2,,,72,85
234205,note_on,445,0,5,,,,,,,,4,,,43,0
234205,note_on,445,0,6,,,,,,,,5,,,31,0
234205,note_on,0,0,7,,,,,,,,6,,,71,0
234205,note_on,0,0,7,,,,,,,,6,,,62,0
234205,note_on,445,0,7,,,,,,,,6,,,43,0
234205,note_on,445,0,4,,,,,,,,3,,,59,0
234225,note_on,225,0,2,,,,,,,,1,,,72,0
234225,note_on,225,0,1,,,,,,,,0,,,72,0
234225,note_on,225,0,3,,,,,,,,2,,,72,0
234240,note_on,15,0,2,,,,,,,,1,,,55,85
234240,note_on,15,0,1,,,,,,,,0,,,55,85
234240,note_on,15,0,3,,,,,,,,2,,,55,85
234465,note_on,225,0,1,,,,,,,,0,,,55,0
234465,note_on,225,0,3,,,,,,,,2,,,55,0
234465,note_on,225,0,2,,,,,,,,1,,,55,0
234480,note_on,15,0,1,,,,,,,,0,,,55,85
234480,note_on,15,0,3,,,,,,,,2,,,55,85
234480,note_on,15,0,2,,,,,,,,1,,,55,85
234705,note_on,225,0,3,,,,,,,,2,,,55,0
234705,note_on,225,0,1,,,,,,,,0,,,55,0
234705,note_on,225,0,2,,,,,,,,1,,,55,0
234720,note_on,15,0,2,,,,,,,,1,,,55,85
234720,note_on,15,0,1,,,,,,,,0,,,55,85
234720,note_on,15,0,3,,,,,,,,2,,,55,85
234945,note_on,225,0,2,,,,,,,,1,,,55,0
234945,note_on,225,0,1,,,,,,,,0,,,55,0
234945,note_on,225,0,3,,,,,,,,2,,,55,0
234960,note_on,15,0,2,,,,,,,,1,,,76,85
234960,note_on,755,0,7,,,,,,,,6,,,72,85
234960,note_on,0,0,7,,,,,,,,6,,,67,85
234960,note_on,0,0,7,,,,,,,,6,,,64,85
234960,note_on,0,0,7,,,,,,,,6,,,60,85
234960,note_on,755,0,6,,,,,,,,5,,,48,85
234960,note_on,755,0,5,,,,,,,,4,,,60,85
234960,note_on,15,0,3,,,,,,,,2,,,72,85
234960,note_on,755,0,4,,,,,,,,3,,,67,85
234960,note_on,15,0,1,,,,,,,,0,,,76,85
235185,note_on,0,0,7,,,,,,,,6,,,64,0
235185,note_on,225,0,4,,,,,,,,3,,,67,0
235185,note_on,0,0,7,,,,,,,,6,,,72,0
235185,note_on,225,0,7,,,,,,,,6,,,60,0
235185,note_on,225,0,5,,,,,,,,4,,,60,0
235185,note_on,225,0,3,,,,,,,,2,,,72,0
235185,note_on,225,0,2,,,,,,,,1,,,76,0
235185,note_on,225,0,1,,,,,,,,0,,,76,0
235185,note_on,225,0,6,,,,,,,,5,,,48,0
235185,note_on,0,0,7,,,,,,,,6,,,67,0
235200,note_on,15,0,4,,,,,,,,3,,,55,85
235200,note_on,0,0,7,,,,,,,,6,,,67,85
235200,note_on,15,0,7,,,,,,,,6,,,72,85
235200,note_on,15,0,5,,,,,,,,4,,,43,85
235200,note_on,0,0,7,,,,,,,,6,,,43,85
235200,note_on,0,0,7,,,,,,,,6,,,64,85
235200,note_on,15,0,6,,,,,,,,5,,,31,85
235200,note_on,15,0,1,,,,,,,,0,,,76,85
235200,note_on,15,0,3,,,,,,,,2,,,72,85
235200,note_on,15,0,2,,,,,,,,1,,,76,85
235425,note_on,225,0,5,,,,,,,,4,,,43,0
235425,note_on,225,0,6,,,,,,,,5,,,31,0
235425,note_on,225,0,7,,,,,,,,6,,,43,0
235425,note_on,225,0,4,,,,,,,,3,,,55,0
235440,note_on,15,0,5,,,,,,,,4,,,43,85
235440,note_on,15,0,6,,,,,,,,5,,,31,85
235440,note_on,15,0,7,,,,,,,,6,,,43,85
235440,note_on,15,0,4,,,,,,,,3,,,55,85
235645,note_on,445,0,1,,,,,,,,0,,,76,0
235645,note_on,445,0,3,,,,,,,,2,,,72,0
235645,note_on,205,0,7,,,,,,,,6,,,72,0
235645,note_on,0,0,7,,,,,,,,6,,,64,0
235645,note_on,0,0,7,,,,,,,,6,,,67,0
235645,note_on,445,0,2,,,,,,,,1,,,76,0
235665,note_on,225,0,6,,,,,,,,5,,,31,0
235665,note_on,225,0,4,,,,,,,,3,,,55,0
235665,note_on,20,0,7,,,,,,,,6,,,43,0
235665,note_on,225,0,5,,,,,,,,4,,,43,0
235680,note_on,15,0,7,,,,,,,,6,,,74,85
235680,note_on,0,0,7,,,,,,,,6,,,71,85
235680,note_on,0,0,7,,,,,,,,6,,,67,85
235680,note_on,0,0,7,,,,,,,,6,,,43,85
235680,note_on,35,0,3,,,,,,,,2,,,71,85
235680,note_on,35,0,1,,,,,,,,0,,,74,85
235680,note_on,15,0,5,,,,,,,,4,,,43,85
235680,note_on,15,0,6,,,,,,,,5,,,31,85
235680,note_on,15,0,4,,,,,,,,3,,,55,85
235680,note_on,35,0,2,,,,,,,,1,,,74,85
235905,note_on,225,0,3,,,,,,,,2,,,71,0
235905,note_on,225,0,7,,,,,,,,6,,,43,0
235905,note_on,225,0,1,,,,,,,,0,,,74,0
235905,note_on,225,0,5,,,,,,,,4,,,43,0
235905,note_on,225,0,6,,,,,,,,5,,,31,0
235905,note_on,225,0,2,,,,,,,,1,,,74,0
235905,note_on,225,0,4,,,,,,,,3,,,55,0
235920,note_on,15,0,4,,,,,,,,3,,,67,85
235920,note_on,15,0,2,,,,,,,,1,,,72,85
235920,note_on,15,0,3,,,,,,,,2,,,72,85
235920,note_on,15,0,6,,,,,,,,5,,,48,85
235920,note_on,15,0,5,,,,,,,,4,,,60,85
235920,note_on,15,0,7,,,,,,,,6,,,60,85
235920,note_on,15,0,1,,,,,,,,0,,,72,85
236125,note_on,0,0,7,,,,,,,,6,,,67,0
236125,note_on,0,0,7,,,,,,,,6,,,71,0
236125,note_on,205,0,7,,,,,,,,6,,,74,0
236145,note_on,225,0,6,,,,,,,,5,,,48,0
236145,note_on,225,0,1,,,,,,,,0,,,72,0
236145,note_on,225,0,2,,,,,,,,1,,,72,0
236145,note_on,20,0,7,,,,,,,,6,,,60,0
236145,note_on,225,0,5,,,,,,,,4,,,60,0
236145,note_on,225,0,4,,,,,,,,3,,,67,0
236145,note_on,225,0,3,,,,,,,,2,,,72,0
236160,note_on,15,0,4,,,,,,,,3,,,55,85
236160,note_on,0,0,7,,,,,,,,6,,,43,85
236160,note_on,15,0,2,,,,,,,,1,,,55,85
236160,note_on,0,0,7,,,,,,,,6,,,71,85
236160,note_on,15,0,3,,,,,,,,2,,,55,85
236160,note_on,15,0,6,,,,,,,,5,,,31,85
236160,note_on,15,0,7,,,,,,,,6,,,74,85
236160,note_on,15,0,1,,,,,,,,0,,,55,85
236160,note_on,15,0,5,,,,,,,,4,,,43,85
236160,note_on,0,0,7,,,,,,,,6,,,67,85
236385,note_on,225,0,3,,,,,,,,2,,,55,0
236385,note_on,225,0,1,,,,,,,,0,,,55,0
236385,note_on,225,0,2,,,,,,,,1,,,55,0
236400,note_on,15,0,1,,,,,,,,0,,,55,85
236400,note_on,15,0,3,,,,,,,,2,,,55,85
236400,note_on,15,0,2,,,,,,,,1,,,55,85
236605,note_on,445,0,4,,,,,,,,3,,,55,0
236605,note_on,445,0,5,,,,,,,,4,,,43,0
236605,note_on,445,0,7,,,,,,,,6,,,43,0
236605,note_on,0,0,7,,,,,,,,6,,,74,0
236605,note_on,0,0,7,,,,,,,,6,,,71,0
236605,note_on,0,0,7,,,,,,,,6,,,67,0
236605,note_on,445,0,6,,,,,,,,5,,,31,0
236625,note_on,225,0,2,,,,,,,,1,,,55,0
236625,note_on,225,0,1,,,,,,,,0,,,55,0
236625,note_on,225,0,3,,,,,,,,2,,,55,0
236640,note_on,15,0,2,,,,,,,,1,,,55,85
236640,note_on,15,0,3,,,,,,,,2,,,55,85
236640,note_on,15,0,1,,,,,,,,0,,,55,85
236865,note_on,225,0,2,,,,,,,,1,,,55,0
236865,note_on,225,0,3,,,,,,,,2,,,55,0
236865,note_on,225,0,1,,,,,,,,0,,,55,0
236880,note_on,15,0,1,,,,,,,,0,,,77,85
236880,note_on,275,0,6,,,,,,,,5,,,43,85
236880,note_on,0,0,7,,,,,,,,6,,,74,85
236880,note_on,275,0,5,,,,,,,,4,,,55,85
236880,note_on,275,0,7,,,,,,,,6,,,77,85
236880,note_on,15,0,3,,,,,,,,2,,,74,85
236880,note_on,15,0,2,,,,,,,,1,,,77,85
236880,note_on,275,0,4,,,,,,,,3,,,71,85
236880,note_on,0,0,7,,,,,,,,6,,,55,85
236880,note_on,0,0,7,,,,,,,,6,,,71,85
237105,note_on,225,0,3,,,,,,,,2,,,74,0
237105,note_on,225,0,5,,,,,,,,4,,,55,0
237105,note_on,225,0,6,,,,,,,,5,,,43,0
237105,note_on,225,0,1,,,,,,,,0,,,77,0
237105,note_on,225,0,2,,,,,,,,1,,,77,0
237105,note_on,225,0,4,,,,,,,,3,,,71,0
237105,note_on,0,0,7,,,,,,,,6,,,71,0
237105,note_on,0,0,7,,,,,,,,6,,,74,0
237105,note_on,225,0,7,,,,,,,,6,,,55,0
237105,note_on,0,0,7,,,,,,,,6,,,77,0
237120,note_on,0,0,7,,,,,,,,6,,,71,85
237120,note_on,0,0,7,,,,,,,,6,,,43,85
237120,note_on,0,0,7,,,,,,,,6,,,74,85
237120,note_on,15,0,6,,,,,,,,5,,,31,85
237120,note_on,15,0,7,,,,,,,,6,,,77,85
237120,note_on,15,0,1,,,,,,,,0,,,77,85
237120,note_on,15,0,5,,,,,,,,4,,,43,85
237120,note_on,15,0,3,,,,,,,,2,,,74,85
237120,note_on,15,0,4,,,,,,,,3,,,55,85
237120,note_on,15,0,2,,,,,,,,1,,,77,85
237345,note_on,225,0,7,,,,,,,,6,,,43,0
237345,note_on,225,0,6,,,,,,,,5,,,31,0
237345,note_on,225,0,5,,,,,,,,4,,,43,0
237345,note_on,225,0,4,,,,,,,,3,,,55,0
237360,note_on,15,0,7,,,,,,,,6,,,43,85
237360,note_on,15,0,6,,,,,,,,5,,,31,85
237360,note_on,15,0,4,,,,,,,,3,,,55,85
237360,note_on,15,0,5,,,,,,,,4,,,43,85
237565,note_on,205,0,7,,,,,,,,6,,,77,0
237565,note_on,445,0,2,,,,,,,,1,,,77,0
237565,note_on,0,0,7,,,,,,,,6,,,74,0
237565,note_on,0,0,7,,,,,,,,6,,,71,0
237565,note_on,445,0,1,,,,,,,,0,,,77,0
237565,note_on,445,0,3,,,,,,,,2,,,74,0
237585,note_on,225,0,5,,,,,,,,4,,,43,0
237585,note_on,225,0,4,,,,,,,,3,,,55,0
237585,note_on,20,0,7,,,,,,,,6,,,43,0
237585,note_on,225,0,6,,,,,,,,5,,,31,0
237600,note_on,0,0,7,,,,,,,,6,,,43,85
237600,note_on,35,0,3,,,,,,,,2,,,72,85
237600,note_on,0,0,7,,,,,,,,6,,,72,85
237600,note_on,0,0,7,,,,,,,,6,,,67,85
237600,note_on,15,0,7,,,,,,,,6,,,76,85
237600,note_on,15,0,5,,,,,,,,4,,,43,85
237600,note_on,35,0,2,,,,,,,,1,,,76,85
237600,note_on,35,0,1,,,,,,,,0,,,76,85
237600,note_on,15,0,6,,,,,,,,5,,,31,85
237600,note_on,15,0,4,,,,,,,,3,,,55,85
237825,note_on,225,0,7,,,,,,,,6,,,43,0
237825,note_on,225,0,3,,,,,,,,2,,,72,0
237825,note_on,225,0,2,,,,,,,,1,,,76,0
237825,note_on,225,0,4,,,,,,,,3,,,55,0
237825,note_on,225,0,1,,,,,,,,0,,,76,0
237825,note_on,225,0,6,,,,,,,,5,,,31,0
237825,note_on,225,0,5,,,,,,,,4,,,43,0
237840,note_on,15,0,3,,,,,,,,2,,,72,85
237840,note_on,15,0,6,,,,,,,,5,,,48,85
237840,note_on,15,0,1,,,,,,,,0,,,72,85
237840,note_on,15,0,2,,,,,,,,1,,,72,85
237840,note_on,15,0,4,,,,,,,,3,,,67,85
237840,note_on,15,0,7,,,,,,,,6,,,60,85
237840,note_on,15,0,5,,,,,,,,4,,,60,85
238045,note_on,0,0,7,,,,,,,,6,,,72,0
238045,note_on,0,0,7,,,,,,,,6,,,67,0
238045,note_on,205,0,7,,,,,,,,6,,,76,0
238065,note_on,225,0,6,,,,,,,,5,,,48,0
238065,note_on,225,0,2,,,,,,,,1,,,72,0
238065,note_on,225,0,3,,,,,,,,2,,,72,0
238065,note_on,20,0,7,,,,,,,,6,,,60,0
238065,note_on,225,0,5,,,,,,,,4,,,60,0
238065,note_on,225,0,4,,,,,,,,3,,,67,0
238065,note_on,225,0,1,,,,,,,,0,,,72,0
238080,note_on,0,0,7,,,,,,,,6,,,43,85
238080,note_on,0,0,7,,,,,,,,6,,,67,85
238080,note_on,0,0,7,,,,,,,,6,,,71,85
238080,note_on,15,0,6,,,,,,,,5,,,31,85
238080,note_on,15,0,7,,,,,,,,6,,,74,85
238080,note_on,15,0,2,,,,,,,,1,,,55,85
238080,note_on,15,0,4,,,,,,,,3,,,55,85
238080,note_on,15,0,1,,,,,,,,0,,,55,85
238080,note_on,15,0,3,,,,,,,,2,,,55,85
238080,note_on,15,0,5,,,,,,,,4,,,43,85
238305,note_on,225,0,2,,,,,,,,1,,,55,0
238305,note_on,225,0,1,,,,,,,,0,,,55,0
238305,note_on,225,0,3,,,,,,,,2,,,55,0
238320,note_on,15,0,1,,,,,,,,0,,,55,85
238320,note_on,15,0,3,,,,,,,,2,,,55,85
238320,note_on,15,0,2,,,,,,,,1,,,55,85
238525,note_on,445,0,7,,,,,,,,6,,,43,0
238525,note_on,445,0,4,,,,,,,,3,,,55,0
238525,note_on,445,0,5,,,,,,,,4,,,43,0
238525,note_on,445,0,6,,,,,,,,5,,,31,0
238525,note_on,0,0,7,,,,,,,,6,,,67,0
238525,note_on,0,0,7,,,,,,,,6,,,74,0
238525,note_on,0,0,7,,,,,,,,6,,,71,0
238545,note_on,225,0,1,,,,,,,,0,,,55,0
238545,note_on,225,0,3,,,,,,,,2,,,55,0
238545,note_on,225,0,2,,,,,,,,1,,,55,0
238560,note_on,15,0,1,,,,,,,,0,,,55,85
238560,note_on,15,0,2,,,,,,,,1,,,55,85
238560,note_on,15,0,3,,,,,,,,2,,,55,85
238785,note_on,225,0,1,,,,,,,,0,,,55,0
238785,note_on,225,0,2,,,,,,,,1,,,55,0
238785,note_on,225,0,3,,,,,,,,2,,,55,0
238800,note_on,275,0,4,,,,,,,,3,,,67,85
238800,note_on,15,0,2,,,,,,,,1,,,79,85
238800,note_on,0,0,7,,,,,,,,6,,,60,85
238800,note_on,0,0,7,,,,,,,,6,,,64,85
238800,note_on,15,0,3,,,,,,,,2,,,76,85
238800,note_on,275,0,7,,,,,,,,6,,,72,85
238800,note_on,0,0,7,,,,,,,,6,,,67,85
238800,note_on,275,0,5,,,,,,,,4,,,60,85
238800,note_on,275,0,6,,,,,,,,5,,,48,85
238800,note_on,15,0,1,,,,,,,,0,,,79,85
239025,note_on,225,0,2,,,,,,,,1,,,79,0
239025,note_on,225,0,7,,,,,,,,6,,,60,0
239025,note_on,0,0,7,,,,,,,,6,,,72,0
239025,note_on,0,0,7,,,,,,,,6,,,67,0
239025,note_on,0,0,7,,,,,,,,6,,,64,0
239025,note_on,225,0,5,,,,,,,,4,,,60,0
239025,note_on,225,0,4,,,,,,,,3,,,67,0
239025,note_on,225,0,6,,,,,,,,5,,,48,0
239025,note_on,225,0,1,,,,,,,,0,,,79,0
239025,note_on,225,0,3,,,,,,,,2,,,76,0
239040,note_on,15,0,1,,,,,,,,0,,,79,85
239040,note_on,0,0,7,,,,,,,,6,,,43,85
239040,note_on,0,0,7,,,,,,,,6,,,67,85
239040,note_on,15,0,7,,,,,,,,6,,,76,85
239040,note_on,15,0,4,,,,,,,,3,,,55,85
239040,note_on,15,0,3,,,,,,,,2,,,76,85
239040,note_on,15,0,6,,,,,,,,5,,,31,85
239040,note_on,15,0,5,,,,,,,,4,,,43,85
239040,note_on,15,0,2,,,,,,,,1,,,79,85
239265,note_on,225,0,7,,,,,,,,6,,,43,0
239265,note_on,225,0,5,,,,,,,,4,,,43,0
239265,note_on,225,0,4,,,,,,,,3,,,55,0
239265,note_on,225,0,6,,,,,,,,5,,,31,0
239280,note_on,15,0,6,,,,,,,,5,,,31,85
239280,note_on,15,0,4,,,,,,,,3,,,55,85
239280,note_on,15,0,7,,,,,,,,6,,,43,85
239280,note_on,15,0,5,,,,,,,,4,,,43,85
239485,note_on,445,0,3,,,,,,,,2,,,76,0
239485,note_on,445,0,2,,,,,,,,1,,,79,0
239485,note_on,205,0,7,,,,,,,,6,,,67,0
239485,note_on,0,0,7,,,,,,,,6,,,76,0
239485,note_on,445,0,1,,,,,,,,0,,,79,0
239505,note_on,20,0,7,,,,,,,,6,,,43,0
239505,note_on,225,0,5,,,,,,,,4,,,43,0
239505,note_on,225,0,6,,,,,,,,5,,,31,0
239505,note_on,225,0,4,,,,,,,,3,,,55,0
239520,note_on,35,0,3,,,,,,,,2,,,74,85
239520,note_on,35,0,1,,,,,,,,0,,,77,85
239520,note_on,35,0,2,,,,,,,,1,,,77,85
239520,note_on,15,0,5,,,,,,,,4,,,43,85
239520,note_on,15,0,7,,,,,,,,6,,,74,85
239520,note_on,0,0,7,,,,,,,,6,,,65,85
239520,note_on,0,0,7,,,,,,,,6,,,43,85
239520,note_on,15,0,4,,,,,,,,3,,,55,85
239520,note_on,15,0,6,,,,,,,,5,,,31,85
239745,note_on,225,0,1,,,,,,,,0,,,77,0
239745,note_on,225,0,6,,,,,,,,5,,,31,0
239745,note_on,225,0,2,,,,,,,,1,,,77,0
239745,note_on,225,0,7,,,,,,,,6,,,43,0
239745,note_on,225,0,3,,,,,,,,2,,,74,0
239745,note_on,225,0,4,,,,,,,,3,,,55,0
239745,note_on,225,0,5,,,,,,,,4,,,43,0
239760,note_on,15,0,1,,,,,,,,0,,,76,85
239760,note_on,15,0,6,,,,,,,,5,,,48,85
239760,note_on,15,0,2,,,,,,,,1,,,76,85
239760,note_on,15,0,3,,,,,,,,2,,,72,85
239760,note_on,15,0,5,,,,,,,,4,,,60,85
239760,note_on,15,0,4,,,,,,,,3,,,67,85
239760,note_on,15,0,7,,,,,,,,6,,,60,85
239965,note_on,0,0,7,,,,,,,,6,,,74,0
239965,note_on,205,0,7,,,,,,,,6,,,65,0
239985,note_on,225,0,5,,,,,,,,4,,,60,0
239985,note_on,225,0,1,,,,,,,,0,,,76,0
239985,note_on,20,0,7,,,,,,,,6,,,60,0
239985,note_on,225,0,6,,,,,,,,5,,,48,0
239985,note_on,225,0,2,,,,,,,,1,,,76,0
239985,note_on,225,0,4,,,,,,,,3,,,67,0
239985,note_on,225,0,3,,,,,,,,2,,,72,0
240000,note_on,15,0,3,,,,,,,,2,,,79,85
240000,note_on,15,0,2,,,,,,,,1,,,84,85
240000,note_on,15,0,4,,,,,,,,3,,,67,85
240000,note_on,0,0,7,,,,,,,,6,,,52,85
240000,note_on,15,0,6,,,,,,,,5,,,40,85
240000,note_on,15,0,7,,,,,,,,6,,,72,85
240000,note_on,15,0,5,,,,,,,,4,,,52,85
240000,note_on,15,0,1,,,,,,,,0,,,84,85
240000,note_on,0,0,7,,,,,,,,6,,,64,85
240000,note_on,0,0,7,,,,,,,,6,,,67,85
240225,note_on,225,0,2,,,,,,,,1,,,84,0
240225,note_on,225,0,3,,,,,,,,2,,,79,0
240225,note_on,225,0,1,,,,,,,,0,,,84,0
240240,note_on,15,0,3,,,,,,,,2,,,76,85
240240,note_on,15,0,1,,,,,,,,0,,,72,85
240240,note_on,15,0,2,,,,,,,,1,,,72,85
240445,note_on,0,0,7,,,,,,,,6,,,72,0
240445,note_on,445,0,7,,,,,,,,6,,,52,0
240445,note_on,0,0,7,,,,,,,,6,,,67,0
240445,note_on,445,0,4,,,,,,,,3,,,67,0
240445,note_on,0,0,7,,,,,,,,6,,,64,0
240445,note_on,445,0,6,,,,,,,,5,,,40,0
240445,note_on,445,0,5,,,,,,,,4,,,52,0
240465,note_on,225,0,3,,,,,,,,2,,,76,0
240465,note_on,225,0,1,,,,,,,,0,,,72,0
240465,note_on,225,0,2,,,,,,,,1,,,72,0
240480,note_on,15,0,1,,,,,,,,0,,,74,85
240480,note_on,15,0,2,,,,,,,,1,,,74,85
240480,note_on,15,0,3,,,,,,,,2,,,77,85
240705,note_on,225,0,3,,,,,,,,2,,,77,0
240705,note_on,225,0,1,,,,,,,,0,,,74,0
240705,note_on,225,0,2,,,,,,,,1,,,74,0
240720,note_on,15,0,2,,,,,,,,1,,,72,85
240720,note_on,275,0,5,,,,,,,,4,,,52,85
240720,note_on,275,0,6,,,,,,,,5,,,40,85
240720,note_on,0,0,7,,,,,,,,6,,,67,85
240720,note_on,0,0,7,,,,,,,,6,,,64,85
240720,note_on,0,0,7,,,,,,,,6,,,52,85
240720,note_on,15,0,1,,,,,,,,0,,,72,85
240720,note_on,275,0,7,,,,,,,,6,,,72,85
240720,note_on,15,0,3,,,,,,,,2,,,76,85
240720,note_on,275,0,4,,,,,,,,3,,,67,85
240945,note_on,225,0,5,,,,,,,,4,,,52,0
240945,note_on,0,0,7,,,,,,,,6,,,67,0
240945,note_on,225,0,1,,,,,,,,0,,,72,0
240945,note_on,225,0,2,,,,,,,,1,,,72,0
240945,note_on,0,0,7,,,,,,,,6,,,72,0
240945,note_on,225,0,4,,,,,,,,3,,,67,0
240945,note_on,0,0,7,,,,,,,,6,,,64,0
240945,note_on,225,0,3,,,,,,,,2,,,76,0
240945,note_on,225,0,6,,,,,,,,5,,,40,0
240945,note_on,225,0,7,,,,,,,,6,,,52,0
240960,note_on,15,0,2,,,,,,,,1,,,81,85
240960,note_on,0,0,7,,,,,,,,6,,,53,85
240960,note_on,15,0,6,,,,,,,,5,,,41,85
240960,note_on,15,0,5,,,,,,,,4,,,53,85
240960,note_on,15,0,4,,,,,,,,3,,,60,85
240960,note_on,15,0,1,,,,,,,,0,,,81,85
240960,note_on,0,0,7,,,,,,,,6,,,65,85
240960,note_on,0,0,7,,,,,,,,6,,,69,85
240960,note_on,15,0,7,,,,,,,,6,,,72,85
240960,note_on,15,0,3,,,,,,,,2,,,81,85
241405,note_on,445,0,3,,,,,,,,2,,,81,0
241405,note_on,445,0,7,,,,,,,,6,,,53,0
241405,note_on,445,0,1,,,,,,,,0,,,81,0
241405,note_on,0,0,7,,,,,,,,6,,,72,0
241405,note_on,0,0,7,,,,,,,,6,,,65,0
241405,note_on,445,0,5,,,,,,,,4,,,53,0
241405,note_on,445,0,6,,,,,,,,5,,,41,0
241405,note_on,445,0,4,,,,,,,,3,,,60,0
241405,note_on,0,0,7,,,,,,,,6,,,69,0
241405,note_on,445,0,2,,,,,,,,1,,,81,0
241440,note_on,35,0,7,,,,,,,,6,,,74,85
241440,note_on,35,0,1,,,,,,,,0,,,79,85
241440,note_on,35,0,3,,,,,,,,2,,,79,85
241440,note_on,35,0,2,,,,,,,,1,,,79,85
241440,note_on,35,0,5,,,,,,,,4,,,47,85
241440,note_on,35,0,4,,,,,,,,3,,,62,85
241440,note_on,0,0,7,,,,,,,,6,,,67,85
241440,note_on,0,0,7,,,,,,,,6,,,71,85
241440,note_on,0,0,7,,,,,,,,6,,,47,85
241440,note_on,35,0,6,,,,,,,,5,,,35,85
241665,note_on,225,0,1,,,,,,,,0,,,79,0
241665,note_on,225,0,2,,,,,,,,1,,,79,0
241665,note_on,225,0,3,,,,,,,,2,,,79,0
241680,note_on,15,0,2,,,,,,,,1,,,77,85
241680,note_on,15,0,3,,,,,,,,2,,,77,85
241680,note_on,15,0,1,,,,,,,,0,,,77,85
241885,note_on,445,0,6,,,,,,,,5,,,35,0
241885,note_on,445,0,4,,,,,,,,3,,,62,0
241885,note_on,445,0,7,,,,,,,,6,,,47,0
241885,note_on,0,0,7,,,,,,,,6,,,74,0
241885,note_on,0,0,7,,,,,,,,6,,,71,0
241885,note_on,0,0,7,,,,,,,,6,,,67,0
241885,note_on,445,0,5,,,,,,,,4,,,47,0
241905,note_on,225,0,2,,,,,,,,1,,,77,0
241905,note_on,225,0,3,,,,,,,,2,,,77,0
241905,note_on,225,0,1,,,,,,,,0,,,77,0
241920,note_on,35,0,6,,,,,,,,5,,,31,85
241920,note_on,0,0,7,,,,,,,,6,,,67,85
241920,note_on,15,0,2,,,,,,,,1,,,76,85
241920,note_on,15,0,3,,,,,,,,2,,,76,85
241920,note_on,35,0,7,,,,,,,,6,,,76,85
241920,note_on,0,0,7,,,,,,,,6,,,72,85
241920,note_on,35,0,4,,,,,,,,3,,,55,85
241920,note_on,15,0,1,,,,,,,,0,,,76,85
241920,note_on,35,0,5,,,,,,,,4,,,43,85
241920,note_on,0,0,7,,,,,,,,6,,,48,85
242145,note_on,225,0,2,,,,,,,,1,,,76,0
242145,note_on,225,0,4,,,,,,,,3,,,55,0
242145,note_on,225,0,1,,,,,,,,0,,,76,0
242145,note_on,225,0,7,,,,,,,,6,,,48,0
242145,note_on,225,0,3,,,,,,,,2,,,76,0
242145,note_on,225,0,5,,,,,,,,4,,,43,0
242145,note_on,225,0,6,,,,,,,,5,,,31,0
242160,note_on,15,0,5,,,,,,,,4,,,52,85
242160,note_on,15,0,4,,,,,,,,3,,,67,85
242160,note_on,15,0,7,,,,,,,,6,,,52,85
242160,note_on,15,0,6,,,,,,,,5,,,40,85
242160,note_on,15,0,1,,,,,,,,0,,,74,85
242160,note_on,15,0,2,,,,,,,,1,,,74,85
242160,note_on,15,0,3,,,,,,,,2,,,74,85
242275,note_on,115,0,3,,,,,,,,2,,,74,0
242275,note_on,115,0,1,,,,,,,,0,,,74,0
242275,note_on,115,0,2,,,,,,,,1,,,74,0
242280,note_on,5,0,3,,,,,,,,2,,,72,85
242280,note_on,5,0,2,,,,,,,,1,,,72,85
242280,note_on,5,0,1,,,,,,,,0,,,72,85
242365,note_on,205,0,7,,,,,,,,6,,,76,0
242365,note_on,0,0,7,,,,,,,,6,,,67,0
242365,note_on,0,0,7,,,,,,,,6,,,72,0
242385,note_on,225,0,5,,,,,,,,4,,,52,0
242385,note_on,225,0,6,,,,,,,,5,,,40,0
242385,note_on,20,0,7,,,,,,,,6,,,52,0
242385,note_on,225,0,4,,,,,,,,3,,,67,0
242395,note_on,115,0,3,,,,,,,,2,,,72,0
242395,note_on,115,0,2,,,,,,,,1,,,72,0
242395,note_on,115,0,1,,,,,,,,0,,,72,0
242400,note_on,15,0,6,,,,,,,,5,,,41,85
242400,note_on,5,0,2,,,,,,,,1,,,74,85
242400,note_on,15,0,5,,,,,,,,4,,,53,85
242400,note_on,5,0,3,,,,,,,,2,,,74,85
242400,note_on,5,0,1,,,,,,,,0,,,74,85
242400,note_on,15,0,7,,,,,,,,6,,,74,85
242400,note_on,15,0,4,,,,,,,,3,,,69,85
242400,note_on,0,0,7,,,,,,,,6,,,53,85
242400,note_on,0,0,7,,,,,,,,6,,,65,85
242400,note_on,0,0,7,,,,,,,,6,,,69,85
242625,note_on,225,0,4,,,,,,,,3,,,69,0
242625,note_on,225,0,3,,,,,,,,2,,,74,0
242625,note_on,225,0,5,,,,,,,,4,,,53,0
242625,note_on,225,0,6,,,,,,,,5,,,41,0
242625,note_on,225,0,1,,,,,,,,0,,,74,0
242625,note_on,225,0,2,,,,,,,,1,,,74,0
242625,note_on,225,0,7,,,,,,,,6,,,53,0
242640,note_on,15,0,2,,,,,,,,1,,,71,85
242640,note_on,15,0,3,,,,,,,,2,,,71,85
242640,note_on,15,0,4,,,,,,,,3,,,62,85
242640,note_on,15,0,1,,,,,,,,0,,,71,85
242640,note_on,15,0,7,,,,,,,,6,,,55,85
242640,note_on,15,0,5,,,,,,,,4,,,55,85
242640,note_on,15,0,6,,,,,,,,5,,,43,85
242845,note_on,205,0,7,,,,,,,,6,,,74,0
242845,note_on,0,0,7,,,,,,,,6,,,65,0
242845,note_on,0,0,7,,,,,,,,6,,,69,0
242865,note_on,225,0,2,,,,,,,,1,,,71,0
242865,note_on,225,0,5,,,,,,,,4,,,55,0
242865,note_on,225,0,1,,,,,,,,0,,,71,0
242865,note_on,225,0,6,,,,,,,,5,,,43,0
242865,note_on,225,0,4,,,,,,,,3,,,62,0
242865,note_on,20,0,7,,,,,,,,6,,,55,0
242865,note_on,225,0,3,,,,,,,,2,,,71,0
242880,note_on,0,0,7,,,,,,,,6,,,48,85
242880,note_on,0,0,7,,,,,,,,6,,,72,85
242880,note_on,15,0,7,,,,,,,,6,,,76,85
242880,note_on,0,0,7,,,,,,,,6,,,67,85
242880,note_on,15,0,2,,,,,,,,1,,,72,85
242880,note_on,15,0,3,,,,,,,,2,,,72,85
242880,note_on,15,0,6,,,,,,,,5,,,36,85
242880,note_on,15,0,5,,,,,,,,4,,,48,85
242880,note_on,15,0,1,,,,,,,,0,,,72,85
242880,note_on,15,0,4,,,,,,,,3,,,64,85
243105,note_on,0,0,7,,,,,,,,6,,,76,0
243105,note_on,225,0,7,,,,,,,,6,,,48,0
243105,note_on,225,0,4,,,,,,,,3,,,64,0
243105,note_on,225,0,6,,,,,,,,5,,,36,0
243105,note_on,225,0,5,,,,,,,,4,,,48,0
243120,note_on,15,0,5,,,,,,,,4,,,48,85
243120,note_on,0,0,7,,,,,,,,6,,,48,85
243120,note_on,15,0,7,,,,,,,,6,,,74,85
243120,note_on,15,0,4,,,,,,,,3,,,64,85
243120,note_on,15,0,6,,,,,,,,5,,,36,85
243325,note_on,445,0,3,,,,,,,,2,,,72,0
243325,note_on,205,0,7,,,,,,,,6,,,67,0
243325,note_on,0,0,7,,,,,,,,6,,,72,0
243325,note_on,445,0,2,,,,,,,,1,,,72,0
243325,note_on,445,0,1,,,,,,,,0,,,72,0
243345,note_on,20,0,7,,,,,,,,6,,,74,0
243345,note_on,225,0,4,,,,,,,,3,,,64,0
243345,note_on,0,0,7,,,,,,,,6,,,48,0
243345,note_on,225,0,6,,,,,,,,5,,,36,0
243345,note_on,225,0,5,,,,,,,,4,,,48,0
243360,note_on,15,0,4,,,,,,,,3,,,64,85
243360,note_on,15,0,7,,,,,,,,6,,,72,85
243360,note_on,0,0,7,,,,,,,,6,,,67,85
243360,note_on,15,0,5,,,,,,,,4,,,48,85
243360,note_on,15,0,6,,,,,,,,5,,,36,85
243360,note_on,0,0,7,,,,,,,,6,,,64,85
243360,note_on,0,0,7,,,,,,,,6,,,48,85
243585,note_on,225,0,6,,,,,,,,5,,,36,0
243585,note_on,225,0,5,,,,,,,,4,,,48,0
243585,note_on,225,0,4,,,,,,,,3,,,64,0
243585,note_on,225,0,7,,,,,,,,6,,,48,0
243600,note_on,15,0,6,,,,,,,,5,,,48,64
243600,note_on,15,0,7,,,,,,,,6,,,60,85
243600,note_on,275,0,1,,,,,,,,0,,,79,64
243600,note_on,275,0,3,,,,,,,,2,,,79,64
243600,note_on,275,0,2,,,,,,,,1,,,79,64
243600,note_on,15,0,4,,,,,,,,3,,,67,64
243600,note_on,15,0,5,,,,,,,,4,,,60,64
243805,note_on,205,0,7,,,,,,,,6,,,72,0
243805,note_on,0,0,7,,,,,,,,6,,,64,0
243805,note_on,0,0,7,,,,,,,,6,,,67,0
243825,note_on,20,0,7,,,,,,,,6,,,60,0
243825,note_on,225,0,3,,,,,,,,2,,,79,0
243825,note_on,225,0,5,,,,,,,,4,,,60,0
243825,note_on,225,0,6,,,,,,,,5,,,48,0
243825,note_on,225,0,2,,,,,,,,1,,,79,0
243825,note_on,225,0,1,,,,,,,,0,,,79,0
243825,note_on,225,0,4,,,,,,,,3,,,67,0
243840,note_on,0,0,7,,,,,,,,6,,,52,85
243840,note_on,0,0,7,,,,,,,,6,,,64,85
243840,note_on,0,0,7,,,,,,,,6,,,67,85
243840,note_on,15,0,7,,,,,,,,6,,,72,85
243840,note_on,15,0,1,,,,,,,,0,,,84,64
243840,note_on,15,0,6,,,,,,,,5,,,40,64
243840,note_on,15,0,5,,,,,,,,4,,,52,64
243840,note_on,15,0,2,,,,,,,,1,,,84,64
243840,note_on,15,0,3,,,,,,,,2,,,79,64
243840,note_on,15,0,4,,,,,,,,3,,,67,64
244065,note_on,225,0,2,,,,,,,,1,,,84,0
244065,note_on,225,0,1,,,,,,,,0,,,84,0
244065,note_on,225,0,3,,,,,,,,2,,,79,0
244080,note_on,15,0,2,,,,,,,,1,,,72,64
244080,note_on,15,0,1,,,,,,,,0,,,72,64
244080,note_on,15,0,3,,,,,,,,2,,,76,64
244285,note_on,0,0,7,,,,,,,,6,,,64,0
244285,note_on,445,0,7,,,,,,,,6,,,52,0
244285,note_on,0,0,7,,,,,,,,6,,,72,0
244285,note_on,445,0,6,,,,,,,,5,,,40,0
244285,note_on,0,0,7,,,,,,,,6,,,67,0
244285,note_on,445,0,4,,,,,,,,3,,,67,0
244285,note_on,445,0,5,,,,,,,,4,,,52,0
244305,note_on,225,0,2,,,,,,,,1,,,72,0
244305,note_on,225,0,3,,,,,,,,2,,,76,0
244305,note_on,225,0,1,,,,,,,,0,,,72,0
244320,note_on,15,0,2,,,,,,,,1,,,74,64
244320,note_on,15,0,3,,,,,,,,2,,,77,64
244320,note_on,15,0,1,,,,,,,,0,,,74,64
244545,note_on,225,0,1,,,,,,,,0,,,74,0
244545,note_on,225,0,2,,,,,,,,1,,,74,0
244545,note_on,225,0,3,,,,,,,,2,,,77,0
244560,note_on,275,0,5,,,,,,,,4,,,52,64
244560,note_on,275,0,7,,,,,,,,6,,,72,85
244560,note_on,0,0,7,,,,,,,,6,,,64,85
244560,note_on,275,0,4,,,,,,,,3,,,67,64
244560,note_on,275,0,6,,,,,,,,5,,,40,64
244560,note_on,0,0,7,,,,,,,,6,,,67,85
244560,note_on,0,0,7,,,,,,,,6,,,52,85
244560,note_on,15,0,3,,,,,,,,2,,,76,64
244560,note_on,15,0,1,,,,,,,,0,,,72,64
244560,note_on,15,0,2,,,,,,,,1,,,72,64
244785,note_on,225,0,6,,,,,,,,5,,,40,0
244785,note_on,225,0,2,,,,,,,,1,,,72,0
244785,note_on,225,0,4,,,,,,,,3,,,67,0
244785,note_on,225,0,5,,,,,,,,4,,,52,0
244785,note_on,225,0,3,,,,,,,,2,,,76,0
244785,note_on,225,0,1,,,,,,,,0,,,72,0
244785,note_on,0,0,7,,,,,,,,6,,,64,0
244785,note_on,0,0,7,,,,,,,,6,,,67,0
244785,note_on,0,0,7,,,,,,,,6,,,72,0
244785,note_on,225,0,7,,,,,,,,6,,,52,0
244800,note_on,0,0,7,,,,,,,,6,,,53,85
244800,note_on,15,0,3,,,,,,,,2,,,81,64
244800,note_on,15,0,1,,,,,,,,0,,,81,64
244800,note_on,15,0,6,,,,,,,,5,,,41,64
244800,note_on,15,0,7,,,,,,,,6,,,72,85
244800,note_on,15,0,5,,,,,,,,4,,,53,64
244800,note_on,0,0,7,,,,,,,,6,,,65,85
244800,note_on,15,0,2,,,,,,,,1,,,81,64
244800,note_on,0,0,7,,,,,,,,6,,,69,85
244800,note_on,15,0,4,,,,,,,,3,,,60,64
245245,note_on,445,0,7,,,,,,,,6,,,53,0
245245,note_on,445,0,1,,,,,,,,0,,,81,0
245245,note_on,445,0,6,,,,,,,,5,,,41,0
245245,note_on,445,0,5,,,,,,,,4,,,53,0
245245,note_on,0,0,7,,,,,,,,6,,,72,0
245245,note_on,445,0,2,,,,,,,,1,,,81,0
245245,note_on,0,0,7,,,,,,,,6,,,65,0
245245,note_on,0,0,7,,,,,,,,6,,,69,0
245245,note_on,445,0,3,,,,,,,,2,,,81,0
245245,note_on,445,0,4,,,,,,,,3,,,60,0
245280,note_on,0,0,7,,,,,,,,6,,,71,85
245280,note_on,35,0,5,,,,,,,,4,,,47,64
245280,note_on,0,0,7,,,,,,,,6,,,47,85
245280,note_on,35,0,7,,,,,,,,6,,,74,85
245280,note_on,35,0,1,,,,,,,,0,,,79,64
245280,note_on,35,0,4,,,,,,,,3,,,62,64
245280,note_on,0,0,7,,,,,,,,6,,,67,85
245280,note_on,35,0,3,,,,,,,,2,,,79,64
245280,note_on,35,0,2,,,,,,,,1,,,79,64
245280,note_on,35,0,6,,,,,,,,5,,,35,64
245505,note_on,225,0,3,,,,,,,,2,,,79,0
245505,note_on,225,0,2,,,,,,,,1,,,79,0
245505,note_on,225,0,1,,,,,,,,0,,,79,0
245520,note_on,15,0,3,,,,,,,,2,,,77,64
245520,note_on,15,0,2,,,,,,,,1,,,77,64
245520,note_on,15,0,1,,,,,,,,0,,,77,64
245725,note_on,445,0,5,,,,,,,,4,,,47,0
245725,note_on,445,0,6,,,,,,,,5,,,35,0
245725,note_on,445,0,4,,,,,,,,3,,,62,0
245725,note_on,445,0,7,,,,,,,,6,,,47,0
245725,note_on,0,0,7,,,,,,,,6,,,74,0
245725,note_on,0,0,7,,,,,,,,6,,,71,0
245725,note_on,0,0,7,,,,,,,,6,,,67,0
245745,note_on,225,0,1,,,,,,,,0,,,77,0
245745,note_on,225,0,3,,,,,,,,2,,,77,0
245745,note_on,225,0,2,,,,,,,,1,,,77,0
245760,note_on,35,0,4,,,,,,,,3,,,55,64
245760,note_on,15,0,2,,,,,,,,1,,,76,64
245760,note_on,35,0,7,,,,,,,,6,,,76,85
245760,note_on,0,0,7,,,,,,,,6,,,72,85
245760,note_on,0,0,7,,,,,,,,6,,,67,85
245760,note_on,15,0,1,,,,,,,,0,,,76,64
245760,note_on,15,0,3,,,,,,,,2,,,76,64
245760,note_on,35,0,6,,,,,,,,5,,,31,64
245760,note_on,35,0,5,,,,,,,,4,,,43,64
245760,note_on,0,0,7,,,,,,,,6,,,43,85
245985,note_on,225,0,2,,,,,,,,1,,,76,0
245985,note_on,225,0,3,,,,,,,,2,,,76,0
245985,note_on,225,0,7,,,,,,,,6,,,43,0
245985,note_on,225,0,6,,,,,,,,5,,,31,0
245985,note_on,225,0,4,,,,,,,,3,,,55,0
245985,note_on,225,0,1,,,,,,,,0,,,76,0
245985,note_on,225,0,5,,,,,,,,4,,,43,0
246000,note_on,15,0,3,,,,,,,,2,,,74,64
246000,note_on,15,0,5,,,,,,,,4,,,52,64
246000,note_on,15,0,1,,,,,,,,0,,,74,64
246000,note_on,15,0,2,,,,,,,,1,,,74,64
246000,note_on,15,0,6,,,,,,,,5,,,40,64
246000,note_on,15,0,7,,,,,,,,6,,,52,85
246000,note_on,15,0,4,,,,,,,,3,,,67,64
246115,note_on,115,0,2,,,,,,,,1,,,74,0
246115,note_on,115,0,1,,,,,,,,0,,,74,0
246115,note_on,115,0,3,,,,,,,,2,,,74,0
246120,note_on,5,0,1,,,,,,,,0,,,72,64
246120,note_on,5,0,2,,,,,,,,1,,,72,64
246120,note_on,5,0,3,,,,,,,,2,,,72,64
246205,note_on,0,0,7,,,,,,,,6,,,67,0
246205,note_on,0,0,7,,,,,,,,6,,,72,0
246205,note_on,205,0,7,,,,,,,,6,,,76,0
246225,note_on,225,0,6,,,,,,,,5,,,40,0
246225,note_on,20,0,7,,,,,,,,6,,,52,0
246225,note_on,225,0,5,,,,,,,,4,,,52,0
246225,note_on,225,0,4,,,,,,,,3,,,67,0
246235,note_on,115,0,1,,,,,,,,0,,,72,0
246235,note_on,115,0,2,,,,,,,,1,,,72,0
246235,note_on,115,0,3,,,,,,,,2,,,72,0
246240,note_on,15,0,7,,,,,,,,6,,,74,85
246240,note_on,0,0,7,,,,,,,,6,,,65,85
246240,note_on,5,0,2,,,,,,,,1,,,74,64
246240,note_on,0,0,7,,,,,,,,6,,,53,85
246240,note_on,5,0,1,,,,,,,,0,,,74,64
246240,note_on,0,0,7,,,,,,,,6,,,69,85
246240,note_on,15,0,6,,,,,,,,5,,,41,64
246240,note_on,5,0,3,,,,,,,,2,,,74,64
246240,note_on,15,0,4,,,,,,,,3,,,69,64
246240,note_on,15,0,5,,,,,,,,4,,,53,64
246465,note_on,225,0,6,,,,,,,,5,,,41,0
246465,note_on,225,0,4,,,,,,,,3,,,69,0
246465,note_on,225,0,7,,,,,,,,6,,,53,0
246465,note_on,225,0,3,,,,,,,,2,,,74,0
246465,note_on,225,0,5,,,,,,,,4,,,53,0
246465,note_on,225,0,2,,,,,,,,1,,,74,0
246465,note_on,225,0,1,,,,,,,,0,,,74,0
246480,note_on,15,0,4,,,,,,,,3,,,62,64
246480,note_on,15,0,3,,,,,,,,2,,,71,64
246480,note_on,15,0,5,,,,,,,,4,,,55,64
246480,note_on,15,0,1,,,,,,,,0,,,71,64
246480,note_on,15,0,2,,,,,,,,1,,,71,64
246480,note_on,15,0,6,,,,,,,,5,,,43,64
246480,note_on,15,0,7,,,,,,,,6,,,55,85
246685,note_on,0,0,7,,,,,,,,6,,,69,0
246685,note_on,0,0,7,,,,,,,,6,,,65,0
246685,note_on,205,0,7,,,,,,,,6,,,74,0
246705,note_on,225,0,3,,,,,,,,2,,,71,0
246705,note_on,225,0,4,,,,,,,,3,,,62,0
246705,note_on,225,0,6,,,,,,,,5,,,43,0
246705,note_on,225,0,5,,,,,,,,4,,,55,0
246705,note_on,225,0,1,,,,,,,,0,,,71,0
246705,note_on,20,0,7,,,,,,,,6,,,55,0
246705,note_on,225,0,2,,,,,,,,1,,,71,0
246720,note_on,15,0,3,,,,,,,,2,,,72,64
246720,note_on,0,0,7,,,,,,,,6,,,48,85
246720,note_on,15,0,6,,,,,,,,5,,,36,64
246720,note_on,0,0,7,,,,,,,,6,,,64,85
246720,note_on,15,0,7,,,,,,,,6,,,72,85
246720,note_on,15,0,4,,,,,,,,3,,,64,64
246720,note_on,0,0,7,,,,,,,,6,,,67,85
246720,note_on,15,0,1,,,,,,,,0,,,72,106
246720,note_on,15,0,5,,,,,,,,4,,,48,64
246720,note_on,15,0,2,,,,,,,,1,,,72,64
246835,note_on,115,0,1,,,,,,,,0,,,72,0
246840,note_on,5,0,1,,,,,,,,0,,,72,106
246945,note_on,225,0,6,,,,,,,,5,,,36,0
246945,note_on,225,0,7,,,,,,,,6,,,48,0
246945,note_on,225,0,5,,,,,,,,4,,,48,0
246955,note_on,115,0,1,,,,,,,,0,,,72,0
246960,note_on,15,0,7,,,,,,,,6,,,47,85
246960,note_on,5,0,1,,,,,,,,0,,,74,106
246960,note_on,15,0,6,,,,,,,,5,,,35,64
246960,note_on,15,0,5,,,,,,,,4,,,47,64
247165,note_on,445,0,3,,,,,,,,2,,,72,0
247165,note_on,445,0,2,,,,,,,,1,,,72,0
247165,note_on,445,0,4,,,,,,,,3,,,64,0
247185,note_on,225,0,5,,,,,,,,4,,,47,0
247185,note_on,225,0,7,,,,,,,,6,,,47,0
247185,note_on,225,0,6,,,,,,,,5,,,35,0
247200,note_on,15,0,7,,,,,,,,6,,,47,85
247200,note_on,15,0,6,,,,,,,,5,,,35,64
247200,note_on,15,0,5,,,,,,,,4,,,47,64
247315,note_on,355,0,1,,,,,,,,0,,,74,0
247320,note_on,5,0,1,,,,,,,,0,,,74,106
247425,note_on,225,0,6,,,,,,,,5,,,35,0
247425,note_on,225,0,7,,,,,,,,6,,,47,0
247425,note_on,225,0,5,,,,,,,,4,,,47,0
247435,note_on,115,0,1,,,,,,,,0,,,74,0
247440,note_on,5,0,1,,,,,,,,0,,,76,106
247440,note_on,15,0,7,,,,,,,,6,,,48,85
247440,note_on,15,0,5,,,,,,,,4,,,48,64
247440,note_on,15,0,6,,,,,,,,5,,,36,64
247555,note_on,115,0,1,,,,,,,,0,,,76,0
247560,note_on,5,0,1,,,,,,,,0,,,76,106
247605,note_on,0,0,7,,,,,,,,6,,,67,0
247605,note_on,0,0,7,,,,,,,,6,,,64,0
247605,note_on,165,0,7,,,,,,,,6,,,72,0
247665,note_on,225,0,5,,,,,,,,4,,,48,0
247665,note_on,225,0,6,,,,,,,,5,,,36,0
247665,note_on,60,0,7,,,,,,,,6,,,48,0
247675,note_on,115,0,1,,,,,,,,0,,,76,0
247680,note_on,15,0,6,,,,,,,,5,,,38,64
247680,note_on,15,0,5,,,,,,,,4,,,50,64
247680,note_on,15,0,7,,,,,,,,6,,,50,85
247680,note_on,5,0,1,,,,,,,,0,,,77,106
247795,note_on,115,0,1,,,,,,,,0,,,77,0
247800,note_on,5,0,1,,,,,,,,0,,,77,106
247905,note_on,225,0,7,,,,,,,,6,,,50,0
247905,note_on,225,0,5,,,,,,,,4,,,50,0
247905,note_on,225,0,6,,,,,,,,5,,,38,0
247915,note_on,115,0,1,,,,,,,,0,,,77,0
247920,note_on,15,0,7,,,,,,,,6,,,52,85
247920,note_on,15,0,5,,,,,,,,4,,,52,64
247920,note_on,5,0,1,,,,,,,,0,,,79,106
247920,note_on,15,0,6,,,,,,,,5,,,40,64
248145,note_on,225,0,6,,,,,,,,5,,,40,0
248145,note_on,225,0,7,,,,,,,,6,,,52,0
248145,note_on,225,0,5,,,,,,,,4,,,52,0
248160,note_on,15,0,6,,,,,,,,5,,,40,64
248160,note_on,15,0,7,,,,,,,,6,,,52,85
248160,note_on,15,0,5,,,,,,,,4,,,52,64
248275,note_on,355,0,1,,,,,,,,0,,,79,0
248280,note_on,5,0,1,,,,,,,,0,,,79,106
248385,note_on,225,0,7,,,,,,,,6,,,52,0
248385,note_on,225,0,6,,,,,,,,5,,,40,0
248385,note_on,225,0,5,,,,,,,,4,,,52,0
248395,note_on,115,0,1,,,,,,,,0,,,79,0
248400,note_on,15,0,5,,,,,,,,4,,,53,64
248400,note_on,15,0,6,,,,,,,,5,,,41,64
248400,note_on,15,0,7,,,,,,,,6,,,53,85
248400,note_on,5,0,1,,,,,,,,0,,,81,106
248515,note_on,115,0,1,,,,,,,,0,,,81,0
248520,note_on,5,0,1,,,,,,,,0,,,81,106
248625,note_on,225,0,6,,,,,,,,5,,,41,0
248625,note_on,225,0,5,,,,,,,,4,,,53,0
248625,note_on,225,0,7,,,,,,,,6,,,53,0
248635,note_on,115,0,1,,,,,,,,0,,,81,0
248640,note_on,15,0,7,,,,,,,,6,,,55,85
248640,note_on,15,0,6,,,,,,,,5,,,43,64
248640,note_on,5,0,1,,,,,,,,0,,,83,106
248640,note_on,15,0,5,,,,,,,,4,,,55,64
248755,note_on,115,0,1,,,,,,,,0,,,83,0
248760,note_on,5,0,1,,,,,,,,0,,,83,106
248865,note_on,225,0,5,,,,,,,,4,,,55,0
248865,note_on,225,0,7,,,,,,,,6,,,55,0
248865,note_on,225,0,6,,,,,,,,5,,,43,0
248875,note_on,115,0,1,,,,,,,,0,,,83,0
248880,note_on,15,0,5,,,,,,,,4,,,57,64
248880,note_on,15,0,7,,,,,,,,6,,,57,85
248880,note_on,5,0,1,,,,,,,,0,,,84,106
248880,note_on,15,0,6,,,,,,,,5,,,45,64
249105,note_on,225,0,5,,,,,,,,4,,,57,0
249105,note_on,225,0,6,,,,,,,,5,,,45,0
249105,note_on,225,0,7,,,,,,,,6,,,57,0
249120,note_on,15,0,6,,,,,,,,5,,,45,64
249120,note_on,0,0,7,,,,,,,,6,,,57,85
249120,note_on,15,0,5,,,,,,,,4,,,57,64
249120,note_on,15,0,7,,,,,,,,6,,,72,85
249120,note_on,0,0,7,,,,,,,,6,,,69,85
249120,note_on,0,0,7,,,,,,,,6,,,65,85
249345,note_on,225,0,6,,,,,,,,5,,,45,0
249345,note_on,465,0,1,,,,,,,,0,,,84,0
249345,note_on,225,0,7,,,,,,,,6,,,57,0
249345,note_on,225,0,5,,,,,,,,4,,,57,0
249360,note_on,15,0,6,,,,,,,,5,,,43,64
249360,note_on,15,0,5,,,,,,,,4,,,55,64
249360,note_on,15,0,1,,,,,,,,0,,,83,106
249360,note_on,15,0,7,,,,,,,,6,,,55,85
249475,note_on,115,0,1,,,,,,,,0,,,83,0
249475,note_on,115,0,7,,,,,,,,6,,,55,0
249475,note_on,115,0,6,,,,,,,,5,,,43,0
249475,note_on,115,0,5,,,,,,,,4,,,55,0
249480,note_on,5,0,6,,,,,,,,5,,,41,64
249480,note_on,5,0,7,,,,,,,,6,,,53,85
249480,note_on,5,0,1,,,,,,,,0,,,81,106
249480,note_on,5,0,5,,,,,,,,4,,,53,64
249565,note_on,0,0,7,,,,,,,,6,,,69,0
249565,note_on,0,0,7,,,,,,,,6,,,72,0
249565,note_on,85,0,7,,,,,,,,6,,,65,0
249595,note_on,30,0,7,,,,,,,,6,,,53,0
249595,note_on,115,0,6,,,,,,,,5,,,41,0
249595,note_on,115,0,1,,,,,,,,0,,,81,0
249595,note_on,115,0,5,,,,,,,,4,,,53,0
249600,note_on,5,0,7,,,,,,,,6,,,76,85
249600,note_on,0,0,7,,,,,,,,6,,,52,85
249600,note_on,0,0,7,,,,,,,,6,,,67,85
249600,note_on,0,0,7,,,,,,,,6,,,72,85
249600,note_on,5,0,1,,,,,,,,0,,,79,106
249600,note_on,5,0,6,,,,,,,,5,,,40,64
249600,note_on,5,0,5,,,,,,,,4,,,52,64
249715,note_on,115,0,1,,,,,,,,0,,,79,0
249720,note_on,5,0,1,,,,,,,,0,,,84,106
249825,note_on,225,0,5,,,,,,,,4,,,52,0
249825,note_on,225,0,6,,,,,,,,5,,,40,0
249825,note_on,225,0,7,,,,,,,,6,,,52,0
249835,note_on,115,0,1,,,,,,,,0,,,84,0
249840,note_on,15,0,7,,,,,,,,6,,,48,85
249840,note_on,5,0,1,,,,,,,,0,,,83,106
249840,note_on,15,0,5,,,,,,,,4,,,48,64
249840,note_on,15,0,6,,,,,,,,5,,,36,64
249955,note_on,115,0,1,,,,,,,,0,,,83,0
249960,note_on,5,0,1,,,,,,,,0,,,81,106
250045,note_on,0,0,7,,,,,,,,6,,,72,0
250045,note_on,0,0,7,,,,,,,,6,,,67,0
250045,note_on,205,0,7,,,,,,,,6,,,76,0
250065,note_on,20,0,7,,,,,,,,6,,,48,0
250065,note_on,225,0,6,,,,,,,,5,,,36,0
250065,note_on,225,0,5,,,,,,,,4,,,48,0
250075,note_on,115,0,1,,,,,,,,0,,,81,0
250080,note_on,15,0,7,,,,,,,,6,,,77,85
250080,note_on,0,0,7,,,,,,,,6,,,74,85
250080,note_on,0,0,7,,,,,,,,6,,,71,85
250080,note_on,15,0,6,,,,,,,,5,,,38,64
250080,note_on,5,0,1,,,,,,,,0,,,79,106
250080,note_on,15,0,5,,,,,,,,4,,,50,64
250080,note_on,0,0,7,,,,,,,,6,,,50,85
250195,note_on,115,0,1,,,,,,,,0,,,79,0
250200,note_on,5,0,1,,,,,,,,0,,,77,106
250305,note_on,225,0,7,,,,,,,,6,,,50,0
250305,note_on,225,0,6,,,,,,,,5,,,38,0
250305,note_on,225,0,5,,,,,,,,4,,,50,0
250315,note_on,115,0,1,,,,,,,,0,,,77,0
250320,note_on,5,0,1,,,,,,,,0,,,76,106
250320,note_on,15,0,6,,,,,,,,5,,,35,64
250320,note_on,15,0,5,,,,,,,,4,,,47,64
250320,note_on,15,0,7,,,,,,,,6,,,47,85
250435,note_on,115,0,1,,,,,,,,0,,,76,0
250440,note_on,5,0,1,,,,,,,,0,,,74,106
250525,note_on,205,0,7,,,,,,,,6,,,77,0
250525,note_on,0,0,7,,,,,,,,6,,,71,0
250525,note_on,0,0,7,,,,,,,,6,,,74,0
250545,note_on,20,0,7,,,,,,,,6,,,47,0
250545,note_on,225,0,5,,,,,,,,4,,,47,0
250545,note_on,225,0,6,,,,,,,,5,,,35,0
250555,note_on,115,0,1,,,,,,,,0,,,74,0
250560,note_on,15,0,5,,,,,,,,4,,,48,64
250560,note_on,15,0,6,,,,,,,,5,,,36,64
250560,note_on,5,0,1,,,,,,,,0,,,76,106
250560,note_on,0,0,7,,,,,,,,6,,,48,85
250560,note_on,0,0,7,,,,,,,,6,,,67,85
250560,note_on,0,0,7,,,,,,,,6,,,72,85
250560,note_on,15,0,7,,,,,,,,6,,,76,85
250785,note_on,225,0,1,,,,,,,,0,,,76,0
250785,note_on,225,0,7,,,,,,,,6,,,48,0
250785,note_on,225,0,6,,,,,,,,5,,,36,0
250785,note_on,225,0,5,,,,,,,,4,,,48,0
250800,note_on,15,0,1,,,,,,,,0,,,72,106
250800,note_on,15,0,7,,,,,,,,6,,,48,85
250800,note_on,15,0,6,,,,,,,,5,,,36,64
250800,note_on,15,0,5,,,,,,,,4,,,48,64
251005,note_on,205,0,7,,,,,,,,6,,,76,0
251005,note_on,0,0,7,,,,,,,,6,,,72,0
251005,note_on,0,0,7,,,,,,,,6,,,67,0
251025,note_on,20,0,7,,,,,,,,6,,,48,0
251025,note_on,225,0,1,,,,,,,,0,,,72,0
251025,note_on,225,0,5,,,,,,,,4,,,48,0
251025,note_on,225,0,6,,,,,,,,5,,,36,0
251040,note_on,15,0,7,,,,,,,,6,,,48,85
251040,note_on,15,0,5,,,,,,,,4,,,48,64
251040,note_on,15,0,6,,,,,,,,5,,,36,64
251265,note_on,225,0,5,,,,,,,,4,,,48,0
251265,note_on,225,0,7,,,,,,,,6,,,48,0
251265,note_on,225,0,6,,,,,,,,5,,,36,0
251280,note_on,15,0,7,,,,,,,,6,,,60,85
251280,note_on,15,0,6,,,,,,,,5,,,48,64
251280,note_on,15,0,5,,,,,,,,4,,,60,64
251505,note_on,225,0,6,,,,,,,,5,,,48,0
251505,note_on,225,0,5,,,,,,,,4,,,60,0
251505,note_on,225,0,7,,,,,,,,6,,,60,0
251520,note_on,15,0,6,,,,,,,,5,,,36,64
251520,note_on,15,0,5,,,,,,,,4,,,48,64
251520,note_on,15,0,7,,,,,,,,6,,,48,85
251520,note_on,495,0,1,,,,,,,,0,,,79,106
251635,note_on,115,0,1,,,,,,,,0,,,79,0
251640,note_on,5,0,1,,,,,,,,0,,,79,106
251755,note_on,115,0,1,,,,,,,,0,,,79,0
251760,note_on,5,0,1,,,,,,,,0,,,84,106
251965,note_on,445,0,5,,,,,,,,4,,,48,0
251965,note_on,445,0,7,,,,,,,,6,,,48,0
251965,note_on,445,0,6,,,,,,,,5,,,36,0
252000,note_on,0,0,7,,,,,,,,6,,,48,85
252000,note_on,0,0,7,,,,,,,,6,,,65,85
252000,note_on,35,0,5,,,,,,,,4,,,48,64
252000,note_on,35,0,7,,,,,,,,6,,,72,85
252000,note_on,0,0,7,,,,,,,,6,,,69,85
252000,note_on,35,0,6,,,,,,,,5,,,36,64
252115,note_on,355,0,1,,,,,,,,0,,,84,0
252120,note_on,5,0,1,,,,,,,,0,,,81,106
252235,note_on,115,0,1,,,,,,,,0,,,81,0
252240,note_on,5,0,1,,,,,,,,0,,,79,106
252355,note_on,115,0,1,,,,,,,,0,,,79,0
252360,note_on,5,0,1,,,,,,,,0,,,77,106
252445,note_on,445,0,7,,,,,,,,6,,,48,0
252445,note_on,445,0,5,,,,,,,,4,,,48,0
252445,note_on,0,0,7,,,,,,,,6,,,69,0
252445,note_on,0,0,7,,,,,,,,6,,,65,0
252445,note_on,445,0,6,,,,,,,,5,,,36,0
252445,note_on,0,0,7,,,,,,,,6,,,72,0
252475,note_on,115,0,1,,,,,,,,0,,,77,0
252480,note_on,35,0,7,,,,,,,,6,,,48,85
252480,note_on,35,0,5,,,,,,,,4,,,48,64
252480,note_on,35,0,6,,,,,,,,5,,,36,64
252480,note_on,5,0,1,,,,,,,,0,,,79,106
252705,note_on,225,0,1,,,,,,,,0,,,79,0
252720,note_on,15,0,1,,,,,,,,0,,,79,106
252835,note_on,115,0,1,,,,,,,,0,,,79,0
252840,note_on,5,0,1,,,,,,,,0,,,84,106
252925,note_on,445,0,5,,,,,,,,4,,,48,0
252925,note_on,445,0,6,,,,,,,,5,,,36,0
252925,note_on,445,0,7,,,,,,,,6,,,48,0
252960,note_on,35,0,7,,,,,,,,6,,,72,85
252960,note_on,35,0,5,,,,,,,,4,,,48,64
252960,note_on,35,0,6,,,,,,,,5,,,36,64
252960,note_on,0,0,7,,,,,,,,6,,,65,85
252960,note_on,0,0,7,,,,,,,,6,,,69,85
252960,note_on,0,0,7,,,,,,,,6,,,48,85
253075,note_on,235,0,1,,,,,,,,0,,,84,0
253080,note_on,5,0,1,,,,,,,,0,,,79,106
253195,note_on,115,0,1,,,,,,,,0,,,79,0
253200,note_on,5,0,1,,,,,,,,0,,,77,106
253315,note_on,115,0,1,,,,,,,,0,,,77,0
253320,note_on,5,0,1,,,,,,,,0,,,76,106
253405,note_on,445,0,7,,,,,,,,6,,,48,0
253405,note_on,0,0,7,,,,,,,,6,,,72,0
253405,note_on,445,0,6,,,,,,,,5,,,36,0
253405,note_on,0,0,7,,,,,,,,6,,,65,0
253405,note_on,0,0,7,,,,,,,,6,,,69,0
253405,note_on,445,0,5,,,,,,,,4,,,48,0
253435,note_on,115,0,1,,,,,,,,0,,,76,0
253440,note_on,0,0,7,,,,,,,,6,,,48,85
253440,note_on,35,0,6,,,,,,,,5,,,36,64
253440,note_on,35,0,7,,,,,,,,6,,,65,85
253440,note_on,35,0,5,,,,,,,,4,,,48,64
253440,note_on,5,0,1,,,,,,,,0,,,77,106
253555,note_on,115,0,1,,,,,,,,0,,,77,0
253560,note_on,5,0,1,,,,,,,,0,,,79,106
253665,note_on,225,0,7,,,,,,,,6,,,65,0
253675,note_on,115,0,1,,,,,,,,0,,,79,0
253680,note_on,5,0,1,,,,,,,,0,,,84,106
253680,note_on,15,0,7,,,,,,,,6,,,67,85
253885,note_on,205,0,7,,,,,,,,6,,,48,0
253885,note_on,445,0,6,,,,,,,,5,,,36,0
253885,note_on,445,0,5,,,,,,,,4,,,48,0
253905,note_on,20,0,7,,,,,,,,6,,,67,0
253920,note_on,0,0,7,,,,,,,,6,,,69,85
253920,note_on,15,0,7,,,,,,,,6,,,65,85
253920,note_on,35,0,6,,,,,,,,5,,,36,64
253920,note_on,0,0,7,,,,,,,,6,,,62,85
253920,note_on,35,0,5,,,,,,,,4,,,48,64
253920,note_on,0,0,7,,,,,,,,6,,,48,85
254035,note_on,355,0,1,,,,,,,,0,,,84,0
254040,note_on,5,0,1,,,,,,,,0,,,77,106
254155,note_on,115,0,1,,,,,,,,0,,,77,0
254160,note_on,5,0,1,,,,,,,,0,,,76,106
254275,note_on,115,0,1,,,,,,,,0,,,76,0
254280,note_on,5,0,1,,,,,,,,0,,,74,106
254365,note_on,445,0,6,,,,,,,,5,,,36,0
254365,note_on,445,0,7,,,,,,,,6,,,48,0
254365,note_on,0,0,7,,,,,,,,6,,,69,0
254365,note_on,445,0,5,,,,,,,,4,,,48,0
254365,note_on,0,0,7,,,,,,,,6,,,62,0
254365,note_on,0,0,7,,,,,,,,6,,,65,0
254395,note_on,115,0,1,,,,,,,,0,,,74,0
254400,note_on,35,0,6,,,,,,,,5,,,36,64
254400,note_on,35,0,5,,,,,,,,4,,,48,64
254400,note_on,5,0,1,,,,,,,,0,,,76,106
254400,note_on,35,0,7,,,,,,,,6,,,48,85
254515,note_on,115,0,1,,,,,,,,0,,,76,0
254520,note_on,5,0,1,,,,,,,,0,,,79,106
254635,note_on,115,0,1,,,,,,,,0,,,79,0
254640,note_on,5,0,1,,,,,,,,0,,,84,106
254845,note_on,445,0,6,,,,,,,,5,,,36,0
254845,note_on,445,0,7,,,,,,,,6,,,48,0
254845,note_on,445,0,5,,,,,,,,4,,,48,0
254880,note_on,35,0,6,,,,,,,,5,,,36,64
254880,note_on,35,0,7,,,,,,,,6,,,72,85
254880,note_on,0,0,7,,,,,,,,6,,,69,85
254880,note_on,0,0,7,,,,,,,,6,,,65,85
254880,note_on,0,0,7,,,,,,,,6,,,48,85
254880,note_on,35,0,5,,,,,,,,4,,,48,64
254995,note_on,355,0,1,,,,,,,,0,,,84,0
255000,note_on,5,0,1,,,,,,,,0,,,76,106
255115,note_on,115,0,1,,,,,,,,0,,,76,0
255120,note_on,5,0,1,,,,,,,,0,,,74,106
255235,note_on,115,0,1,,,,,,,,0,,,74,0
255240,note_on,5,0,1,,,,,,,,0,,,72,106
255325,note_on,0,0,7,,,,,,,,6,,,72,0
255325,note_on,445,0,6,,,,,,,,5,,,36,0
255325,note_on,445,0,7,,,,,,,,6,,,48,0
255325,note_on,0,0,7,,,,,,,,6,,,69,0
255325,note_on,0,0,7,,,,,,,,6,,,65,0
255325,note_on,445,0,5,,,,,,,,4,,,48,0
255355,note_on,115,0,1,,,,,,,,0,,,72,0
255360,note_on,35,0,6,,,,,,,,5,,,31,64
255360,note_on,0,0,7,,,,,,,,6,,,59,85
255360,note_on,0,0,7,,,,,,,,6,,,43,85
255360,note_on,35,0,7,,,,,,,,6,,,67,85
255360,note_on,0,0,7,,,,,,,,6,,,62,85
255360,note_on,5,0,1,,,,,,,,0,,,71,106
255360,note_on,35,0,5,,,,,,,,4,,,43,64
255475,note_on,115,0,1,,,,,,,,0,,,71,0
255480,note_on,5,0,1,,,,,,,,0,,,69,106
255585,note_on,225,0,6,,,,,,,,5,,,31,0
255585,note_on,225,0,7,,,,,,,,6,,,43,0
255585,note_on,225,0,5,,,,,,,,4,,,43,0
255595,note_on,115,0,1,,,,,,,,0,,,69,0
255600,note_on,15,0,7,,,,,,,,6,,,43,85
255600,note_on,15,0,5,,,,,,,,4,,,43,64
255600,note_on,15,0,6,,,,,,,,5,,,31,64
255600,note_on,5,0,1,,,,,,,,0,,,67,106
255805,note_on,205,0,7,,,,,,,,6,,,67,0
255805,note_on,0,0,7,,,,,,,,6,,,59,0
255805,note_on,0,0,7,,,,,,,,6,,,62,0
255825,note_on,20,0,7,,,,,,,,6,,,43,0
255825,note_on,225,0,1,,,,,,,,0,,,67,0
255825,note_on,225,0,5,,,,,,,,4,,,43,0
255825,note_on,225,0,6,,,,,,,,5,,,31,0
255840,note_on,15,0,6,,,,,,,,5,,,31,64
255840,note_on,15,0,7,,,,,,,,6,,,43,85
255840,note_on,15,0,5,,,,,,,,4,,,43,64
256065,note_on,225,0,6,,,,,,,,5,,,31,0
256065,note_on,225,0,7,,,,,,,,6,,,43,0
256065,note_on,225,0,5,,,,,,,,4,,,43,0
256080,note_on,15,0,7,,,,,,,,6,,,55,85
256080,note_on,15,0,6,,,,,,,,5,,,43,64
256080,note_on,15,0,5,,,,,,,,4,,,55,64
256305,note_on,225,0,6,,,,,,,,5,,,43,0
256305,note_on,225,0,7,,,,,,,,6,,,55,0
256305,note_on,225,0,5,,,,,,,,4,,,55,0
256320,note_on,15,0,6,,,,,,,,5,,,31,64
256320,note_on,495,0,1,,,,,,,,0,,,79,106
256320,note_on,15,0,7,,,,,,,,6,,,43,85
256320,note_on,15,0,5,,,,,,,,4,,,43,64
256545,note_on,225,0,1,,,,,,,,0,,,79,0
256560,note_on,15,0,1,,,,,,,,0,,,55,106
256765,note_on,445,0,5,,,,,,,,4,,,43,0
256765,note_on,445,0,7,,,,,,,,6,,,43,0
256765,note_on,445,0,6,,,,,,,,5,,,31,0
256785,note_on,225,0,1,,,,,,,,0,,,55,0
256800,note_on,0,0,7,,,,,,,,6,,,43,85
256800,note_on,15,0,1,,,,,,,,0,,,77,106
256800,note_on,0,0,7,,,,,,,,6,,,65,85
256800,note_on,0,0,7,,,,,,,,6,,,71,85
256800,note_on,35,0,5,,,,,,,,4,,,43,64
256800,note_on,35,0,7,,,,,,,,6,,,74,85
256800,note_on,35,0,6,,,,,,,,5,,,31,64
257025,note_on,225,0,1,,,,,,,,0,,,77,0
257040,note_on,15,0,1,,,,,,,,0,,,55,106
257245,note_on,445,0,6,,,,,,,,5,,,31,0
257245,note_on,445,0,5,,,,,,,,4,,,43,0
257245,note_on,445,0,7,,,,,,,,6,,,43,0
257245,note_on,0,0,7,,,,,,,,6,,,65,0
257245,note_on,0,0,7,,,,,,,,6,,,71,0
257245,note_on,0,0,7,,,,,,,,6,,,74,0
257265,note_on,225,0,1,,,,,,,,0,,,55,0
257280,note_on,0,0,7,,,,,,,,6,,,43,85
257280,note_on,0,0,7,,,,,,,,6,,,67,85
257280,note_on,0,0,7,,,,,,,,6,,,71,85
257280,note_on,35,0,7,,,,,,,,6,,,76,85
257280,note_on,35,0,6,,,,,,,,5,,,31,64
257280,note_on,15,0,1,,,,,,,,0,,,76,106
257280,note_on,35,0,5,,,,,,,,4,,,43,64
257505,note_on,225,0,1,,,,,,,,0,,,76,0
257520,note_on,15,0,1,,,,,,,,0,,,55,106
257725,note_on,445,0,5,,,,,,,,4,,,43,0
257725,note_on,445,0,7,,,,,,,,6,,,43,0
257725,note_on,0,0,7,,,,,,,,6,,,76,0
257725,note_on,0,0,7,,,,,,,,6,,,71,0
257725,note_on,0,0,7,,,,,,,,6,,,67,0
257725,note_on,445,0,6,,,,,,,,5,,,31,0
257745,note_on,225,0,1,,,,,,,,0,,,55,0
257760,note_on,35,0,7,,,,,,,,6,,,74,85
257760,note_on,0,0,7,,,,,,,,6,,,43,85
257760,note_on,15,0,1,,,,,,,,0,,,74,106
257760,note_on,35,0,5,,,,,,,,4,,,43,64
257760,note_on,35,0,6,,,,,,,,5,,,31,64
257985,note_on,225,0,1,,,,,,,,0,,,74,0
258000,note_on,15,0,1,,,,,,,,0,,,55,106
258205,note_on,0,0,7,,,,,,,,6,,,74,0
258205,note_on,445,0,7,,,,,,,,6,,,43,0
258205,note_on,445,0,5,,,,,,,,4,,,43,0
258205,note_on,445,0,6,,,,,,,,5,,,31,0
258225,note_on,225,0,1,,,,,,,,0,,,55,0
258240,note_on,35,0,7,,,,,,,,6,,,74,85
258240,note_on,35,0,5,,,,,,,,4,,,43,64
258240,note_on,35,0,6,,,,,,,,5,,,31,64
258240,note_on,0,0,7,,,,,,,,6,,,71,85
258240,note_on,15,0,1,,,,,,,,0,,,79,106
258240,note_on,0,0,7,,,,,,,,6,,,43,85
258240,note_on,0,0,7,,,,,,,,6,,,67,85
258465,note_on,225,0,1,,,,,,,,0,,,79,0
258480,note_on,15,0,1,,,,,,,,0,,,55,106
258685,note_on,445,0,7,,,,,,,,6,,,43,0
258685,note_on,0,0,7,,,,,,,,6,,,71,0
258685,note_on,445,0,5,,,,,,,,4,,,43,0
258685,note_on,0,0,7,,,,,,,,6,,,67,0
258685,note_on,445,0,6,,,,,,,,5,,,31,0
258685,note_on,0,0,7,,,,,,,,6,,,74,0
258705,note_on,225,0,1,,,,,,,,0,,,55,0
258720,note_on,35,0,6,,,,,,,,5,,,31,64
258720,note_on,15,0,1,,,,,,,,0,,,77,106
258720,note_on,35,0,7,,,,,,,,6,,,77,85
258720,note_on,0,0,7,,,,,,,,6,,,43,85
258720,note_on,35,0,5,,,,,,,,4,,,43,64
258945,note_on,225,0,1,,,,,,,,0,,,77,0
258960,note_on,15,0,1,,,,,,,,0,,,55,106
259165,note_on,445,0,6,,,,,,,,5,,,31,0
259165,note_on,445,0,7,,,,,,,,6,,,43,0
259165,note_on,0,0,7,,,,,,,,6,,,77,0
259165,note_on,445,0,5,,,,,,,,4,,,43,0
259185,note_on,225,0,1,,,,,,,,0,,,55,0
259200,note_on,35,0,7,,,,,,,,6,,,76,85
259200,note_on,0,0,7,,,,,,,,6,,,43,85
259200,note_on,0,0,7,,,,,,,,6,,,67,85
259200,note_on,15,0,1,,,,,,,,0,,,76,106
259200,note_on,0,0,7,,,,,,,,6,,,71,85
259200,note_on,35,0,6,,,,,,,,5,,,31,64
259200,note_on,35,0,5,,,,,,,,4,,,43,64
259425,note_on,225,0,1,,,,,,,,0,,,76,0
259440,note_on,15,0,1,,,,,,,,0,,,55,106
259645,note_on,445,0,6,,,,,,,,5,,,31,0
259645,note_on,445,0,7,,,,,,,,6,,,43,0
259645,note_on,0,0,7,,,,,,,,6,,,76,0
259645,note_on,0,0,7,,,,,,,,6,,,71,0
259645,note_on,0,0,7,,,,,,,,6,,,67,0
259645,note_on,445,0,5,,,,,,,,4,,,43,0
259665,note_on,225,0,1,,,,,,,,0,,,55,0
259680,note_on,0,0,7,,,,,,,,6,,,43,85
259680,note_on,15,0,1,,,,,,,,0,,,74,106
259680,note_on,35,0,7,,,,,,,,6,,,74,85
259680,note_on,35,0,5,,,,,,,,4,,,43,64
259680,note_on,35,0,6,,,,,,,,5,,,31,64
259905,note_on,225,0,1,,,,,,,,0,,,74,0
259920,note_on,15,0,1,,,,,,,,0,,,55,106
260125,note_on,445,0,5,,,,,,,,4,,,43,0
260125,note_on,445,0,7,,,,,,,,6,,,43,0
260125,note_on,445,0,6,,,,,,,,5,,,31,0
260125,note_on,0,0,7,,,,,,,,6,,,74,0
260145,note_on,225,0,1,,,,,,,,0,,,55,0
260160,note_on,0,0,7,,,,,,,,6,,,67,85
260160,note_on,0,0,7,,,,,,,,6,,,52,85
260160,note_on,15,0,1,,,,,,,,0,,,72,106
260160,note_on,0,0,7,,,,,,,,6,,,64,85
260160,note_on,35,0,6,,,,,,,,5,,,40,64
260160,note_on,35,0,7,,,,,,,,6,,,72,85
260160,note_on,35,0,5,,,,,,,,4,,,52,64
260275,note_on,115,0,1,,,,,,,,0,,,72,0
260280,note_on,5,0,1,,,,,,,,0,,,71,106
260395,note_on,115,0,1,,,,,,,,0,,,71,0
260400,note_on,5,0,1,,,,,,,,0,,,72,106
260515,note_on,115,0,1,,,,,,,,0,,,72,0
260520,note_on,5,0,1,,,,,,,,0,,,74,106
260605,note_on,445,0,7,,,,,,,,6,,,52,0
260605,note_on,0,0,7,,,,,,,,6,,,72,0
260605,note_on,0,0,7,,,,,,,,6,,,67,0
260605,note_on,0,0,7,,,,,,,,6,,,64,0
260605,note_on,445,0,6,,,,,,,,5,,,40,0
260605,note_on,445,0,5,,,,,,,,4,,,52,0
260635,note_on,115,0,1,,,,,,,,0,,,74,0
260640,note_on,35,0,5,,,,,,,,4,,,48,64
260640,note_on,0,0,7,,,,,,,,6,,,72,85
260640,note_on,35,0,7,,,,,,,,6,,,76,85
260640,note_on,0,0,7,,,,,,,,6,,,67,85
260640,note_on,35,0,6,,,,,,,,5,,,36,64
260640,note_on,0,0,7,,,,,,,,6,,,48,85
260640,note_on,5,0,1,,,,,,,,0,,,76,106
260755,note_on,115,0,1,,,,,,,,0,,,76,0
260760,note_on,5,0,1,,,,,,,,0,,,74,106
260875,note_on,115,0,1,,,,,,,,0,,,74,0
260880,note_on,5,0,1,,,,,,,,0,,,76,106
260995,note_on,115,0,1,,,,,,,,0,,,76,0
261000,note_on,5,0,1,,,,,,,,0,,,77,106
261085,note_on,445,0,5,,,,,,,,4,,,48,0
261085,note_on,445,0,6,,,,,,,,5,,,36,0
261085,note_on,0,0,7,,,,,,,,6,,,72,0
261085,note_on,445,0,7,,,,,,,,6,,,48,0
261085,note_on,0,0,7,,,,,,,,6,,,76,0
261085,note_on,0,0,7,,,,,,,,6,,,67,0
261115,note_on,115,0,1,,,,,,,,0,,,77,0
261120,note_on,5,0,1,,,,,,,,0,,,79,106
261120,note_on,35,0,6,,,,,,,,5,,,35,64
261120,note_on,35,0,7,,,,,,,,6,,,74,85
261120,note_on,0,0,7,,,,,,,,6,,,71,85
261120,note_on,0,0,7,,,,,,,,6,,,67,85
261120,note_on,35,0,5,,,,,,,,4,,,47,64
261120,note_on,0,0,7,,,,,,,,6,,,47,85
261235,note_on,115,0,1,,,,,,,,0,,,79,0
261240,note_on,5,0,1,,,,,,,,0,,,78,106
261355,note_on,115,0,1,,,,,,,,0,,,78,0
261360,note_on,5,0,1,,,,,,,,0,,,79,106
261475,note_on,115,0,1,,,,,,,,0,,,79,0
261480,note_on,5,0,1,,,,,,,,0,,,81,106
261565,note_on,445,0,5,,,,,,,,4,,,47,0
261565,note_on,445,0,7,,,,,,,,6,,,47,0
261565,note_on,0,0,7,,,,,,,,6,,,74,0
261565,note_on,0,0,7,,,,,,,,6,,,71,0
261565,note_on,0,0,7,,,,,,,,6,,,67,0
261565,note_on,445,0,6,,,,,,,,5,,,35,0
261595,note_on,115,0,1,,,,,,,,0,,,81,0
261600,note_on,35,0,5,,,,,,,,4,,,55,64
261600,note_on,5,0,1,,,,,,,,0,,,83,106
261600,note_on,35,0,6,,,,,,,,5,,,43,64
261600,note_on,35,0,7,,,,,,,,6,,,55,85
261715,note_on,115,0,1,,,,,,,,0,,,83,0
261720,note_on,5,0,1,,,,,,,,0,,,81,106
261825,note_on,225,0,5,,,,,,,,4,,,55,0
261825,note_on,225,0,7,,,,,,,,6,,,55,0
261825,note_on,225,0,6,,,,,,,,5,,,43,0
261835,note_on,115,0,1,,,,,,,,0,,,81,0
261840,note_on,15,0,7,,,,,,,,6,,,52,85
261840,note_on,15,0,6,,,,,,,,5,,,40,64
261840,note_on,15,0,5,,,,,,,,4,,,52,64
261840,note_on,5,0,1,,,,,,,,0,,,83,106
261955,note_on,115,0,1,,,,,,,,0,,,83,0
261960,note_on,5,0,1,,,,,,,,0,,,84,106
262065,note_on,225,0,7,,,,,,,,6,,,52,0
262065,note_on,225,0,5,,,,,,,,4,,,52,0
262065,note_on,225,0,6,,,,,,,,5,,,40,0
262075,note_on,115,0,1,,,,,,,,0,,,84,0
262080,note_on,0,0,7,,,,,,,,6,,,74,85
262080,note_on,15,0,7,,,,,,,,6,,,78,85
262080,note_on,0,0,7,,,,,,,,6,,,50,85
262080,note_on,5,0,1,,,,,,,,0,,,86,106
262080,note_on,0,0,7,,,,,,,,6,,,69,85
262080,note_on,15,0,5,,,,,,,,4,,,50,64
262080,note_on,15,0,6,,,,,,,,5,,,38,64
262305,note_on,225,0,1,,,,,,,,0,,,86,0
262320,note_on,15,0,1,,,,,,,,0,,,62,106
262525,note_on,0,0,7,,,,,,,,6,,,69,0
262525,note_on,0,0,7,,,,,,,,6,,,74,0
262525,note_on,445,0,7,,,,,,,,6,,,50,0
262525,note_on,445,0,5,,,,,,,,4,,,50,0
262525,note_on,445,0,6,,,,,,,,5,,,38,0
262545,note_on,225,0,1,,,,,,,,0,,,62,0
262560,note_on,15,0,1,,,,,,,,0,,,84,106
262560,note_on,35,0,5,,,,,,,,4,,,50,64
262560,note_on,35,0,6,,,,,,,,5,,,38,64
262560,note_on,35,0,7,,,,,,,,6,,,72,85
262560,note_on,0,0,7,,,,,,,,6,,,69,85
262560,note_on,0,0,7,,,,,,,,6,,,50,85
262785,note_on,225,0,1,,,,,,,,0,,,84,0
262800,note_on,15,0,1,,,,,,,,0,,,62,106
263005,note_on,0,0,7,,,,,,,,6,,,69,0
263005,note_on,445,0,7,,,,,,,,6,,,50,0
263005,note_on,0,0,7,,,,,,,,6,,,78,0
263005,note_on,0,0,7,,,,,,,,6,,,72,0
263005,note_on,445,0,5,,,,,,,,4,,,50,0
263005,note_on,445,0,6,,,,,,,,5,,,38,0
263025,note_on,225,0,1,,,,,,,,0,,,62,0
263040,note_on,0,0,7,,,,,,,,6,,,71,85
263040,note_on,0,0,7,,,,,,,,6,,,50,85
263040,note_on,35,0,7,,,,,,,,6,,,78,85
263040,note_on,15,0,1,,,,,,,,0,,,83,106
263040,note_on,35,0,6,,,,,,,,5,,,38,64
263040,note_on,0,0,7,,,,,,,,6,,,74,85
263040,note_on,35,0,5,,,,,,,,4,,,50,64
263265,note_on,225,0,1,,,,,,,,0,,,83,0
263280,note_on,15,0,1,,,,,,,,0,,,62,106
263485,note_on,445,0,5,,,,,,,,4,,,50,0
263485,note_on,445,0,7,,,,,,,,6,,,50,0
263485,note_on,0,0,7,,,,,,,,6,,,71,0
263485,note_on,445,0,6,,,,,,,,5,,,38,0
263505,note_on,225,0,1,,,,,,,,0,,,62,0
263520,note_on,35,0,7,,,,,,,,6,,,69,85
263520,note_on,35,0,6,,,,,,,,5,,,38,64
263520,note_on,0,0,7,,,,,,,,6,,,50,85
263520,note_on,15,0,1,,,,,,,,0,,,81,106
263520,note_on,35,0,5,,,,,,,,4,,,50,64
263745,note_on,225,0,1,,,,,,,,0,,,81,0
263760,note_on,15,0,1,,,,,,,,0,,,62,106
263965,note_on,445,0,7,,,,,,,,6,,,50,0
263965,note_on,0,0,7,,,,,,,,6,,,78,0
263965,note_on,0,0,7,,,,,,,,6,,,74,0
263965,note_on,445,0,6,,,,,,,,5,,,38,0
263965,note_on,0,0,7,,,,,,,,6,,,69,0
263965,note_on,445,0,5,,,,,,,,4,,,50,0
263985,note_on,225,0,1,,,,,,,,0,,,62,0
264000,note_on,0,0,7,,,,,,,,6,,,66,85
264000,note_on,0,0,7,,,,,,,,6,,,69,85
264000,note_on,35,0,5,,,,,,,,4,,,50,64
264000,note_on,35,0,7,,,,,,,,6,,,74,85
264000,note_on,0,0,7,,,,,,,,6,,,50,85
264000,note_on,35,0,6,,,,,,,,5,,,38,64
264000,note_on,15,0,1,,,,,,,,0,,,86,106
264225,note_on,225,0,1,,,,,,,,0,,,86,0
264240,note_on,15,0,1,,,,,,,,0,,,62,106
264445,note_on,445,0,6,,,,,,,,5,,,38,0
264445,note_on,445,0,7,,,,,,,,6,,,50,0
264445,note_on,0,0,7,,,,,,,,6,,,74,0
264445,note_on,0,0,7,,,,,,,,6,,,69,0
264445,note_on,445,0,5,,,,,,,,4,,,50,0
264465,note_on,225,0,1,,,,,,,,0,,,62,0
264480,note_on,35,0,7,,,,,,,,6,,,69,85
264480,note_on,35,0,6,,,,,,,,5,,,38,64
264480,note_on,15,0,1,,,,,,,,0,,,84,106
264480,note_on,0,0,7,,,,,,,,6,,,50,85
264480,note_on,35,0,5,,,,,,,,4,,,50,64
264480,note_on,0,0,7,,,,,,,,6,,,60,85
264705,note_on,225,0,1,,,,,,,,0,,,84,0
264720,note_on,15,0,1,,,,,,,,0,,,62,106
264925,note_on,445,0,6,,,,,,,,5,,,38,0
264925,note_on,445,0,5,,,,,,,,4,,,50,0
264925,note_on,0,0,7,,,,,,,,6,,,69,0
264925,note_on,0,0,7,,,,,,,,6,,,60,0
264925,note_on,445,0,7,,,,,,,,6,,,50,0
264925,note_on,0,0,7,,,,,,,,6,,,66,0
264945,note_on,225,0,1,,,,,,,,0,,,62,0
264960,note_on,15,0,1,,,,,,,,0,,,83,106
264960,note_on,35,0,6,,,,,,,,5,,,38,64
264960,note_on,0,0,7,,,,,,,,6,,,50,85
264960,note_on,0,0,7,,,,,,,,6,,,66,85
264960,note_on,35,0,7,,,,,,,,6,,,71,85
264960,note_on,35,0,5,,,,,,,,4,,,50,64
265185,note_on,225,0,1,,,,,,,,0,,,83,0
265200,note_on,15,0,1,,,,,,,,0,,,62,106
265405,note_on,445,0,6,,,,,,,,5,,,38,0
265405,note_on,445,0,5,,,,,,,,4,,,50,0
265405,note_on,0,0,7,,,,,,,,6,,,71,0
265405,note_on,445,0,7,,,,,,,,6,,,50,0
265425,note_on,225,0,1,,,,,,,,0,,,62,0
265440,note_on,35,0,6,,,,,,,,5,,,38,64
265440,note_on,15,0,1,,,,,,,,0,,,81,106
265440,note_on,35,0,7,,,,,,,,6,,,69,85
265440,note_on,0,0,7,,,,,,,,6,,,50,85
265440,note_on,35,0,5,,,,,,,,4,,,50,64
265665,note_on,225,0,1,,,,,,,,0,,,81,0
265680,note_on,15,0,1,,,,,,,,0,,,62,106
265885,note_on,445,0,7,,,,,,,,6,,,50,0
265885,note_on,0,0,7,,,,,,,,6,,,69,0
265885,note_on,0,0,7,,,,,,,,6,,,66,0
265885,note_on,445,0,6,,,,,,,,5,,,38,0
265885,note_on,445,0,5,,,,,,,,4,,,50,0
265905,note_on,225,0,1,,,,,,,,0,,,62,0
265920,note_on,35,0,7,,,,,,,,6,,,72,85
265920,note_on,15,0,1,,,,,,,,0,,,84,106
265920,note_on,35,0,5,,,,,,,,4,,,50,64
265920,note_on,0,0,7,,,,,,,,6,,,69,85
265920,note_on,35,0,6,,,,,,,,5,,,38,64
265920,note_on,0,0,7,,,,,,,,6,,,50,85
265920,note_on,0,0,7,,,,,,,,6,,,66,85
266145,note_on,225,0,5,,,,,,,,4,,,50,0
266145,note_on,225,0,6,,,,,,,,5,,,38,0
266145,note_on,225,0,7,,,,,,,,6,,,50,0
266160,note_on,15,0,7,,,,,,,,6,,,50,85
266160,note_on,15,0,6,,,,,,,,5,,,38,64
266160,note_on,15,0,5,,,,,,,,4,,,50,64
266365,note_on,205,0,7,,,,,,,,6,,,72,0
266365,note_on,0,0,7,,,,,,,,6,,,66,0
266365,note_on,0,0,7,,,,,,,,6,,,69,0
266385,note_on,225,0,6,,,,,,,,5,,,38,0
266385,note_on,20,0,7,,,,,,,,6,,,50,0
266385,note_on,225,0,5,,,,,,,,4,,,50,0
266400,note_on,15,0,5,,,,,,,,4,,,50,64
266400,note_on,15,0,7,,,,,,,,6,,,50,85
266400,note_on,15,0,6,,,,,,,,5,,,38,64
266585,note_on,665,0,1,,,,,,,,0,,,84,0
266625,note_on,225,0,5,,,,,,,,4,,,50,0
266625,note_on,225,0,7,,,,,,,,6,,,50,0
266625,note_on,225,0,6,,,,,,,,5,,,38,0
266640,note_on,15,0,6,,,,,,,,5,,,50,64
266640,note_on,55,0,1,,,,,,,,0,,,83,106
266640,note_on,15,0,5,,,,,,,,4,,,62,64
266640,note_on,15,0,7,,,,,,,,6,,,62,85
266755,note_on,115,0,1,,,,,,,,0,,,83,0
266760,note_on,5,0,1,,,,,,,,0,,,81,106
266865,note_on,225,0,6,,,,,,,,5,,,50,0
266865,note_on,225,0,7,,,,,,,,6,,,62,0
266865,note_on,225,0,5,,,,,,,,4,,,62,0
266875,note_on,115,0,1,,,,,,,,0,,,81,0
266880,note_on,15,0,5,,,,,,,,4,,,55,64
266880,note_on,0,0,7,,,,,,,,6,,,55,85
266880,note_on,0,0,7,,,,,,,,6,,,67,85
266880,note_on,0,0,7,,,,,,,,6,,,71,85
266880,note_on,5,0,1,,,,,,,,0,,,83,106
266880,note_on,15,0,7,,,,,,,,6,,,74,85
266880,note_on,15,0,6,,,,,,,,5,,,43,64
267105,note_on,225,0,7,,,,,,,,6,,,55,0
267105,note_on,225,0,5,,,,,,,,4,,,55,0
267105,note_on,225,0,1,,,,,,,,0,,,83,0
267105,note_on,225,0,6,,,,,,,,5,,,43,0
267120,note_on,15,0,6,,,,,,,,5,,,35,64
267120,note_on,15,0,7,,,,,,,,6,,,47,85
267120,note_on,15,0,1,,,,,,,,0,,,79,106
267120,note_on,15,0,5,,,,,,,,4,,,47,64
267325,note_on,0,0,7,,,,,,,,6,,,71,0
267325,note_on,205,0,7,,,,,,,,6,,,74,0
267325,note_on,0,0,7,,,,,,,,6,,,67,0
267345,note_on,225,0,1,,,,,,,,0,,,79,0
267345,note_on,225,0,6,,,,,,,,5,,,35,0
267345,note_on,225,0,5,,,,,,,,4,,,47,0
267345,note_on,20,0,7,,,,,,,,6,,,47,0
267360,note_on,0,0,7,,,,,,,,6,,,69,85
267360,note_on,0,0,7,,,,,,,,6,,,48,85
267360,note_on,15,0,5,,,,,,,,4,,,48,64
267360,note_on,0,0,7,,,,,,,,6,,,72,85
267360,note_on,15,0,6,,,,,,,,5,,,36,64
267360,note_on,15,0,1,,,,,,,,0,,,81,106
267360,note_on,15,0,7,,,,,,,,6,,,76,85
267585,note_on,225,0,1,,,,,,,,0,,,81,0
267585,note_on,225,0,7,,,,,,,,6,,,48,0
267585,note_on,0,0,7,,,,,,,,6,,,76,0
267585,note_on,0,0,7,,,,,,,,6,,,72,0
267585,note_on,0,0,7,,,,,,,,6,,,69,0
267585,note_on,225,0,5,,,,,,,,4,,,48,0
267585,note_on,225,0,6,,,,,,,,5,,,36,0
267600,note_on,15,0,6,,,,,,,,5,,,38,64
267600,note_on,15,0,1,,,,,,,,0,,,78,106
267600,note_on,15,0,7,,,,,,,,6,,,74,85
267600,note_on,0,0,7,,,,,,,,6,,,69,85
267600,note_on,15,0,5,,,,,,,,4,,,50,64
267600,note_on,0,0,7,,,,,,,,6,,,50,85
267600,note_on,0,0,7,,,,,,,,6,,,66,85
267825,note_on,0,0,7,,,,,,,,6,,,66,0
267825,note_on,225,0,1,,,,,,,,0,,,78,0
267825,note_on,0,0,7,,,,,,,,6,,,69,0
267825,note_on,0,0,7,,,,,,,,6,,,74,0
267825,note_on,225,0,7,,,,,,,,6,,,50,0
267825,note_on,225,0,5,,,,,,,,4,,,50,0
267825,note_on,225,0,6,,,,,,,,5,,,38,0
267840,note_on,0,0,7,,,,,,,,6,,,67,85
267840,note_on,15,0,6,,,,,,,,5,,,31,64
267840,note_on,15,0,7,,,,,,,,6,,,74,85
267840,note_on,15,0,1,,,,,,,,0,,,79,106
267840,note_on,15,0,5,,,,,,,,4,,,43,64
267840,note_on,0,0,7,,,,,,,,6,,,43,85
267840,note_on,0,0,7,,,,,,,,6,,,71,85
268065,note_on,225,0,1,,,,,,,,0,,,79,0
268080,note_on,15,0,1,,,,,,,,0,,,78,106
268195,note_on,115,0,1,,,,,,,,0,,,78,0
268200,note_on,5,0,1,,,,,,,,0,,,76,106
268285,note_on,0,0,7,,,,,,,,6,,,74,0
268285,note_on,445,0,7,,,,,,,,6,,,43,0
268285,note_on,445,0,5,,,,,,,,4,,,43,0
268285,note_on,0,0,7,,,,,,,,6,,,71,0
268285,note_on,0,0,7,,,,,,,,6,,,67,0
268285,note_on,445,0,6,,,,,,,,5,,,31,0
268315,note_on,115,0,1,,,,,,,,0,,,76,0
268320,note_on,5,0,1,,,,,,,,0,,,74,106
268435,note_on,115,0,1,,,,,,,,0,,,74,0
268440,note_on,5,0,1,,,,,,,,0,,,72,106
268555,note_on,115,0,1,,,,,,,,0,,,72,0
268560,note_on,5,0,1,,,,,,,,0,,,71,106
268675,note_on,115,0,1,,,,,,,,0,,,71,0
268680,note_on,5,0,1,,,,,,,,0,,,69,106
268795,note_on,115,0,1,,,,,,,,0,,,69,0
268800,note_on,5,0,1,,,,,,,,0,,,71,106
268800,note_on,515,0,5,,,,,,,,4,,,55,64
268800,note_on,0,0,7,,,,,,,,6,,,67,85
268800,note_on,0,0,7,,,,,,,,6,,,71,85
268800,note_on,515,0,7,,,,,,,,6,,,74,85
268800,note_on,0,0,7,,,,,,,,6,,,55,85
268800,note_on,515,0,6,,,,,,,,5,,,43,64
269025,note_on,225,0,6,,,,,,,,5,,,43,0
269025,note_on,225,0,7,,,,,,,,6,,,55,0
269025,note_on,225,0,1,,,,,,,,0,,,71,0
269025,note_on,225,0,5,,,,,,,,4,,,55,0
269040,note_on,15,0,6,,,,,,,,5,,,35,64
269040,note_on,15,0,1,,,,,,,,0,,,67,106
269040,note_on,15,0,5,,,,,,,,4,,,47,64
269040,note_on,15,0,7,,,,,,,,6,,,47,85
269245,note_on,205,0,7,,,,,,,,6,,,74,0
269245,note_on,0,0,7,,,,,,,,6,,,67,0
269245,note_on,0,0,7,,,,,,,,6,,,71,0
269265,note_on,20,0,7,,,,,,,,6,,,47,0
269265,note_on,225,0,5,,,,,,,,4,,,47,0
269265,note_on,225,0,1,,,,,,,,0,,,67,0
269265,note_on,225,0,6,,,,,,,,5,,,35,0
269280,note_on,15,0,5,,,,,,,,4,,,48,64
269280,note_on,15,0,7,,,,,,,,6,,,76,85
269280,note_on,0,0,7,,,,,,,,6,,,72,85
269280,note_on,0,0,7,,,,,,,,6,,,69,85
269280,note_on,0,0,7,,,,,,,,6,,,48,85
269280,note_on,15,0,1,,,,,,,,0,,,69,106
269280,note_on,15,0,6,,,,,,,,5,,,36,64
269505,note_on,225,0,7,,,,,,,,6,,,48,0
269505,note_on,0,0,7,,,,,,,,6,,,76,0
269505,note_on,0,0,7,,,,,,,,6,,,72,0
269505,note_on,0,0,7,,,,,,,,6,,,69,0
269505,note_on,225,0,6,,,,,,,,5,,,36,0
269505,note_on,225,0,5,,,,,,,,4,,,48,0
269505,note_on,225,0,1,,,,,,,,0,,,69,0
269520,note_on,0,0,7,,,,,,,,6,,,66,85
269520,note_on,15,0,5,,,,,,,,4,,,50,64
269520,note_on,15,0,6,,,,,,,,5,,,38,64
269520,note_on,15,0,7,,,,,,,,6,,,74,85
269520,note_on,0,0,7,,,,,,,,6,,,69,85
269520,note_on,15,0,1,,,,,,,,0,,,66,106
269520,note_on,0,0,7,,,,,,,,6,,,50,85
269745,note_on,225,0,1,,,,,,,,0,,,66,0
269745,note_on,0,0,7,,,,,,,,6,,,69,0
269745,note_on,0,0,7,,,,,,,,6,,,66,0
269745,note_on,225,0,7,,,,,,,,6,,,50,0
269745,note_on,225,0,6,,,,,,,,5,,,38,0
269745,note_on,0,0,7,,,,,,,,6,,,74,0
269745,note_on,225,0,5,,,,,,,,4,,,50,0
269760,note_on,15,0,6,,,,,,,,5,,,31,64
269760,note_on,15,0,5,,,,,,,,4,,,43,64
269760,note_on,0,0,7,,,,,,,,6,,,67,85
269760,note_on,0,0,7,,,,,,,,6,,,71,85
269760,note_on,15,0,7,,,,,,,,6,,,74,85
269760,note_on,0,0,7,,,,,,,,6,,,43,85
269760,note_on,15,0,1,,,,,,,,0,,,67,106
269985,note_on,225,0,7,,,,,,,,6,,,43,0
269985,note_on,225,0,6,,,,,,,,5,,,31,0
269985,note_on,225,0,5,,,,,,,,4,,,43,0
270000,note_on,15,0,5,,,,,,,,4,,,43,64
270000,note_on,15,0,7,,,,,,,,6,,,43,85
270000,note_on,15,0,6,,,,,,,,5,,,31,64
270205,note_on,0,0,7,,,,,,,,6,,,71,0
270205,note_on,445,0,1,,,,,,,,0,,,67,0
270205,note_on,205,0,7,,,,,,,,6,,,74,0
270205,note_on,0,0,7,,,,,,,,6,,,67,0
270225,note_on,225,0,5,,,,,,,,4,,,43,0
270225,note_on,225,0,6,,,,,,,,5,,,31,0
270225,note_on,20,0,7,,,,,,,,6,,,43,0
270240,note_on,15,0,6,,,,,,,,5,,,31,64
270240,note_on,15,0,5,,,,,,,,4,,,43,64
270240,note_on,15,0,7,,,,,,,,6,,,43,85
270465,note_on,225,0,6,,,,,,,,5,,,31,0
270465,note_on,225,0,5,,,,,,,,4,,,43,0
270465,note_on,225,0,7,,,,,,,,6,,,43,0
270480,note_on,15,0,7,,,,,,,,6,,,55,85
270480,note_on,275,0,1,,,,,,,,0,,,79,85
270480,note_on,15,0,6,,,,,,,,5,,,43,85
270480,note_on,23315,0,3,,,,,,,,2,,,79,85
270480,note_on,23315,0,2,,,,,,,,1,,,79,85
270480,note_on,15,0,5,,,,,,,,4,,,55,85
270705,note_on,225,0,1,,,,,,,,0,,,79,0
270705,note_on,225,0,3,,,,,,,,2,,,79,0
270705,note_on,225,0,2,,,,,,,,1,,,79,0
270705,note_on,225,0,5,,,,,,,,4,,,55,0
270705,note_on,225,0,7,,,,,,,,6,,,55,0
270705,note_on,225,0,6,,,,,,,,5,,,43,0
270720,note_on,0,0,7,,,,,,,,6,,,54,85
270720,note_on,0,0,7,,,,,,,,6,,,66,85
270720,note_on,0,0,7,,,,,,,,6,,,69,85
270720,note_on,15,0,1,,,,,,,,0,,,62,85
270720,note_on,15,0,7,,,,,,,,6,,,74,85
270720,note_on,15,0,2,,,,,,,,1,,,62,85
270720,note_on,15,0,6,,,,,,,,5,,,42,85
270720,note_on,15,0,5,,,,,,,,4,,,54,85
270720,note_on,15,0,3,,,,,,,,2,,,62,85
270945,note_on,225,0,2,,,,,,,,1,,,62,0
270945,note_on,225,0,1,,,,,,,,0,,,62,0
270945,note_on,225,0,3,,,,,,,,2,,,62,0
270960,note_on,15,0,3,,,,,,,,2,,,62,85
270960,note_on,15,0,1,,,,,,,,0,,,62,85
270960,note_on,15,0,2,,,,,,,,1,,,62,85
271165,note_on,445,0,7,,,,,,,,6,,,54,0
271165,note_on,445,0,5,,,,,,,,4,,,54,0
271165,note_on,445,0,6,,,,,,,,5,,,42,0
271165,note_on,0,0,7,,,,,,,,6,,,74,0
271165,note_on,0,0,7,,,,,,,,6,,,69,0
271165,note_on,0,0,7,,,,,,,,6,,,66,0
271185,note_on,225,0,3,,,,,,,,2,,,62,0
271185,note_on,225,0,2,,,,,,,,1,,,62,0
271185,note_on,225,0,1,,,,,,,,0,,,62,0
271200,note_on,15,0,3,,,,,,,,2,,,62,85
271200,note_on,15,0,2,,,,,,,,1,,,62,85
271200,note_on,15,0,1,,,,,,,,0,,,62,85
271425,note_on,225,0,2,,,,,,,,1,,,62,0
271425,note_on,225,0,1,,,,,,,,0,,,62,0
271425,note_on,225,0,3,,,,,,,,2,,,62,0
271440,note_on,275,0,5,,,,,,,,4,,,55,85
271440,note_on,24275,0,4,,,,,,,,3,,,62,85
271440,note_on,15,0,1,,,,,,,,0,,,79,85
271440,note_on,275,0,6,,,,,,,,5,,,43,85
271440,note_on,15,0,2,,,,,,,,1,,,79,85
271440,note_on,275,0,7,,,,,,,,6,,,79,85
271440,note_on,0,0,7,,,,,,,,6,,,55,85
271440,note_on,15,0,3,,,,,,,,2,,,71,85
271665,note_on,225,0,5,,,,,,,,4,,,55,0
271665,note_on,225,0,2,,,,,,,,1,,,79,0
271665,note_on,225,0,4,,,,,,,,3,,,62,0
271665,note_on,225,0,7,,,,,,,,6,,,55,0
271665,note_on,0,0,7,,,,,,,,6,,,79,0
271665,note_on,225,0,3,,,,,,,,2,,,71,0
271665,note_on,225,0,1,,,,,,,,0,,,79,0
271665,note_on,225,0,6,,,,,,,,5,,,43,0
271680,note_on,15,0,5,,,,,,,,4,,,38,85
271680,note_on,15,0,3,,,,,,,,2,,,71,85
271680,note_on,15,0,6,,,,,,,,5,,,26,85
271680,note_on,0,0,7,,,,,,,,6,,,38,85
271680,note_on,0,0,7,,,,,,,,6,,,71,85
271680,note_on,0,0,7,,,,,,,,6,,,74,85
271680,note_on,15,0,7,,,,,,,,6,,,79,85
271680,note_on,15,0,2,,,,,,,,1,,,79,85
271680,note_on,15,0,4,,,,,,,,3,,,62,85
271680,note_on,15,0,1,,,,,,,,0,,,79,85
271905,note_on,225,0,4,,,,,,,,3,,,62,0
271905,note_on,225,0,5,,,,,,,,4,,,38,0
271905,note_on,225,0,6,,,,,,,,5,,,26,0
271905,note_on,225,0,7,,,,,,,,6,,,38,0
271920,note_on,15,0,4,,,,,,,,3,,,62,85
271920,note_on,15,0,5,,,,,,,,4,,,38,85
271920,note_on,15,0,6,,,,,,,,5,,,26,85
271920,note_on,15,0,7,,,,,,,,6,,,38,85
272125,note_on,205,0,7,,,,,,,,6,,,79,0
272125,note_on,445,0,3,,,,,,,,2,,,71,0
272125,note_on,0,0,7,,,,,,,,6,,,74,0
272125,note_on,0,0,7,,,,,,,,6,,,71,0
272125,note_on,445,0,2,,,,,,,,1,,,79,0
272125,note_on,445,0,1,,,,,,,,0,,,79,0
272145,note_on,225,0,4,,,,,,,,3,,,62,0
272145,note_on,225,0,6,,,,,,,,5,,,26,0
272145,note_on,225,0,5,,,,,,,,4,,,38,0
272145,note_on,20,0,7,,,,,,,,6,,,38,0
272160,note_on,0,0,7,,,,,,,,6,,,74,85
272160,note_on,15,0,4,,,,,,,,3,,,62,85
272160,note_on,35,0,3,,,,,,,,2,,,69,85
272160,note_on,0,0,7,,,,,,,,6,,,38,85
272160,note_on,15,0,7,,,,,,,,6,,,78,85
272160,note_on,15,0,6,,,,,,,,5,,,26,85
272160,note_on,35,0,1,,,,,,,,0,,,78,85
272160,note_on,15,0,5,,,,,,,,4,,,38,85
272160,note_on,0,0,7,,,,,,,,6,,,69,85
272160,note_on,35,0,2,,,,,,,,1,,,78,85
272385,note_on,225,0,5,,,,,,,,4,,,38,0
272385,note_on,225,0,4,,,,,,,,3,,,62,0
272385,note_on,225,0,3,,,,,,,,2,,,69,0
272385,note_on,225,0,6,,,,,,,,5,,,26,0
272385,note_on,225,0,1,,,,,,,,0,,,78,0
272385,note_on,225,0,2,,,,,,,,1,,,78,0
272385,note_on,225,0,7,,,,,,,,6,,,38,0
272400,note_on,15,0,6,,,,,,,,5,,,43,85
272400,note_on,15,0,3,,,,,,,,2,,,79,85
272400,note_on,15,0,1,,,,,,,,0,,,79,85
272400,note_on,15,0,5,,,,,,,,4,,,55,85
272400,note_on,15,0,7,,,,,,,,6,,,55,85
272400,note_on,15,0,4,,,,,,,,3,,,71,85
272400,note_on,15,0,2,,,,,,,,1,,,79,85
272605,note_on,205,0,7,,,,,,,,6,,,78,0
272605,note_on,0,0,7,,,,,,,,6,,,69,0
272605,note_on,0,0,7,,,,,,,,6,,,74,0
272625,note_on,225,0,1,,,,,,,,0,,,79,0
272625,note_on,225,0,6,,,,,,,,5,,,43,0
272625,note_on,225,0,3,,,,,,,,2,,,79,0
272625,note_on,225,0,2,,,,,,,,1,,,79,0
272625,note_on,225,0,5,,,,,,,,4,,,55,0
272625,note_on,20,0,7,,,,,,,,6,,,55,0
272625,note_on,225,0,4,,,,,,,,3,,,71,0
272640,note_on,15,0,1,,,,,,,,0,,,81,85
272640,note_on,15,0,2,,,,,,,,1,,,81,85
272640,note_on,15,0,4,,,,,,,,3,,,62,85
272640,note_on,15,0,7,,,,,,,,6,,,78,85
272640,note_on,0,0,7,,,,,,,,6,,,74,85
272640,note_on,0,0,7,,,,,,,,6,,,38,85
272640,note_on,15,0,3,,,,,,,,2,,,78,85
272640,note_on,15,0,6,,,,,,,,5,,,26,85
272640,note_on,15,0,5,,,,,,,,4,,,38,85
272640,note_on,0,0,7,,,,,,,,6,,,69,85
272865,note_on,225,0,1,,,,,,,,0,,,81,0
272865,note_on,225,0,2,,,,,,,,1,,,81,0
272865,note_on,225,0,3,,,,,,,,2,,,78,0
272880,note_on,15,0,3,,,,,,,,2,,,62,85
272880,note_on,15,0,2,,,,,,,,1,,,62,85
272880,note_on,15,0,1,,,,,,,,0,,,62,85
273085,note_on,0,0,7,,,,,,,,6,,,78,0
273085,note_on,445,0,4,,,,,,,,3,,,62,0
273085,note_on,445,0,6,,,,,,,,5,,,26,0
273085,note_on,0,0,7,,,,,,,,6,,,74,0
273085,note_on,0,0,7,,,,,,,,6,,,69,0
273085,note_on,445,0,7,,,,,,,,6,,,38,0
273085,note_on,445,0,5,,,,,,,,4,,,38,0
273105,note_on,225,0,1,,,,,,,,0,,,62,0
273105,note_on,225,0,2,,,,,,,,1,,,62,0
273105,note_on,225,0,3,,,,,,,,2,,,62,0
273120,note_on,15,0,2,,,,,,,,1,,,62,85
273120,note_on,15,0,3,,,,,,,,2,,,62,85
273120,note_on,15,0,1,,,,,,,,0,,,62,85
273345,note_on,225,0,3,,,,,,,,2,,,62,0
273345,note_on,225,0,1,,,,,,,,0,,,62,0
273345,note_on,225,0,2,,,,,,,,1,,,62,0
273360,note_on,15,0,2,,,,,,,,1,,,84,85
273360,note_on,275,0,5,,,,,,,,4,,,50,85
273360,note_on,275,0,7,,,,,,,,6,,,78,85
273360,note_on,15,0,1,,,,,,,,0,,,84,85
273360,note_on,0,0,7,,,,,,,,6,,,50,85
273360,note_on,0,0,7,,,,,,,,6,,,72,85
273360,note_on,0,0,7,,,,,,,,6,,,69,85
273360,note_on,15,0,3,,,,,,,,2,,,81,85
273360,note_on,275,0,4,,,,,,,,3,,,66,85
273360,note_on,275,0,6,,,,,,,,5,,,38,85
273585,note_on,225,0,3,,,,,,,,2,,,81,0
273585,note_on,225,0,4,,,,,,,,3,,,66,0
273585,note_on,225,0,2,,,,,,,,1,,,84,0
273585,note_on,225,0,6,,,,,,,,5,,,38,0
273585,note_on,225,0,7,,,,,,,,6,,,50,0
273585,note_on,225,0,1,,,,,,,,0,,,84,0
273585,note_on,225,0,5,,,,,,,,4,,,50,0
273585,note_on,0,0,7,,,,,,,,6,,,78,0
273585,note_on,0,0,7,,,,,,,,6,,,72,0
273585,note_on,0,0,7,,,,,,,,6,,,69,0
273600,note_on,15,0,4,,,,,,,,3,,,62,85
273600,note_on,15,0,5,,,,,,,,4,,,38,85
273600,note_on,15,0,2,,,,,,,,1,,,84,85
273600,note_on,15,0,3,,,,,,,,2,,,81,85
273600,note_on,15,0,6,,,,,,,,5,,,26,85
273600,note_on,15,0,7,,,,,,,,6,,,78,85
273600,note_on,0,0,7,,,,,,,,6,,,72,85
273600,note_on,15,0,1,,,,,,,,0,,,84,85
273600,note_on,0,0,7,,,,,,,,6,,,38,85
273600,note_on,0,0,7,,,,,,,,6,,,69,85
273825,note_on,225,0,5,,,,,,,,4,,,38,0
273825,note_on,225,0,7,,,,,,,,6,,,38,0
273825,note_on,0,0,7,,,,,,,,6,,,78,0
273825,note_on,225,0,4,,,,,,,,3,,,62,0
273825,note_on,225,0,6,,,,,,,,5,,,26,0
273840,note_on,15,0,4,,,,,,,,3,,,62,85
273840,note_on,15,0,6,,,,,,,,5,,,26,85
273840,note_on,15,0,7,,,,,,,,6,,,76,85
273840,note_on,0,0,7,,,,,,,,6,,,38,85
273840,note_on,15,0,5,,,,,,,,4,,,38,85
274045,note_on,445,0,2,,,,,,,,1,,,84,0
274045,note_on,0,0,7,,,,,,,,6,,,72,0
274045,note_on,205,0,7,,,,,,,,6,,,69,0
274045,note_on,445,0,3,,,,,,,,2,,,81,0
274045,note_on,445,0,1,,,,,,,,0,,,84,0
274065,note_on,0,0,7,,,,,,,,6,,,38,0
274065,note_on,225,0,6,,,,,,,,5,,,26,0
274065,note_on,225,0,4,,,,,,,,3,,,62,0
274065,note_on,225,0,5,,,,,,,,4,,,38,0
274065,note_on,20,0,7,,,,,,,,6,,,76,0
274080,note_on,15,0,5,,,,,,,,4,,,38,85
274080,note_on,35,0,1,,,,,,,,0,,,83,85
274080,note_on,15,0,4,,,,,,,,3,,,62,85
274080,note_on,35,0,2,,,,,,,,1,,,83,85
274080,note_on,15,0,6,,,,,,,,5,,,26,85
274080,note_on,35,0,3,,,,,,,,2,,,79,85
274080,note_on,0,0,7,,,,,,,,6,,,38,85
274080,note_on,0,0,7,,,,,,,,6,,,67,85
274080,note_on,15,0,7,,,,,,,,6,,,74,85
274080,note_on,0,0,7,,,,,,,,6,,,71,85
274305,note_on,225,0,6,,,,,,,,5,,,26,0
274305,note_on,225,0,3,,,,,,,,2,,,79,0
274305,note_on,225,0,1,,,,,,,,0,,,83,0
274305,note_on,225,0,4,,,,,,,,3,,,62,0
274305,note_on,225,0,2,,,,,,,,1,,,83,0
274305,note_on,225,0,7,,,,,,,,6,,,38,0
274305,note_on,225,0,5,,,,,,,,4,,,38,0
274320,note_on,15,0,3,,,,,,,,2,,,79,85
274320,note_on,15,0,6,,,,,,,,5,,,43,85
274320,note_on,15,0,1,,,,,,,,0,,,79,85
274320,note_on,15,0,4,,,,,,,,3,,,71,85
274320,note_on,15,0,2,,,,,,,,1,,,79,85
274320,note_on,15,0,7,,,,,,,,6,,,55,85
274320,note_on,15,0,5,,,,,,,,4,,,55,85
274525,note_on,0,0,7,,,,,,,,6,,,71,0
274525,note_on,0,0,7,,,,,,,,6,,,67,0
274525,note_on,205,0,7,,,,,,,,6,,,74,0
274545,note_on,225,0,6,,,,,,,,5,,,43,0
274545,note_on,225,0,2,,,,,,,,1,,,79,0
274545,note_on,20,0,7,,,,,,,,6,,,55,0
274545,note_on,225,0,1,,,,,,,,0,,,79,0
274545,note_on,225,0,5,,,,,,,,4,,,55,0
274545,note_on,225,0,4,,,,,,,,3,,,71,0
274545,note_on,225,0,3,,,,,,,,2,,,79,0
274560,note_on,15,0,4,,,,,,,,3,,,62,85
274560,note_on,15,0,1,,,,,,,,0,,,62,85
274560,note_on,15,0,7,,,,,,,,6,,,74,85
274560,note_on,0,0,7,,,,,,,,6,,,69,85
274560,note_on,0,0,7,,,,,,,,6,,,66,85
274560,note_on,0,0,7,,,,,,,,6,,,38,85
274560,note_on,15,0,3,,,,,,,,2,,,62,85
274560,note_on,15,0,2,,,,,,,,1,,,62,85
274560,note_on,15,0,6,,,,,,,,5,,,26,85
274560,note_on,15,0,5,,,,,,,,4,,,38,85
274785,note_on,225,0,1,,,,,,,,0,,,62,0
274785,note_on,225,0,3,,,,,,,,2,,,62,0
274785,note_on,225,0,2,,,,,,,,1,,,62,0
274800,note_on,15,0,2,,,,,,,,1,,,62,85
274800,note_on,15,0,3,,,,,,,,2,,,62,85
274800,note_on,15,0,1,,,,,,,,0,,,62,85
275005,note_on,0,0,7,,,,,,,,6,,,66,0
275005,note_on,0,0,7,,,,,,,,6,,,74,0
275005,note_on,445,0,7,,,,,,,,6,,,38,0
275005,note_on,445,0,6,,,,,,,,5,,,26,0
275005,note_on,445,0,5,,,,,,,,4,,,38,0
275005,note_on,0,0,7,,,,,,,,6,,,69,0
275005,note_on,445,0,4,,,,,,,,3,,,62,0
275025,note_on,225,0,3,,,,,,,,2,,,62,0
275025,note_on,225,0,1,,,,,,,,0,,,62,0
275025,note_on,225,0,2,,,,,,,,1,,,62,0
275040,note_on,15,0,1,,,,,,,,0,,,62,85
275040,note_on,15,0,2,,,,,,,,1,,,62,85
275040,note_on,15,0,3,,,,,,,,2,,,62,85
275265,note_on,225,0,2,,,,,,,,1,,,62,0
275265,note_on,225,0,3,,,,,,,,2,,,62,0
275265,note_on,225,0,1,,,,,,,,0,,,62,0
275280,note_on,275,0,5,,,,,,,,4,,,55,85
275280,note_on,15,0,2,,,,,,,,1,,,83,85
275280,note_on,15,0,3,,,,,,,,2,,,79,85
275280,note_on,0,0,7,,,,,,,,6,,,67,85
275280,note_on,275,0,4,,,,,,,,3,,,62,85
275280,note_on,275,0,6,,,,,,,,5,,,43,85
275280,note_on,0,0,7,,,,,,,,6,,,71,85
275280,note_on,275,0,7,,,,,,,,6,,,74,85
275280,note_on,0,0,7,,,,,,,,6,,,55,85
275280,note_on,15,0,1,,,,,,,,0,,,83,85
275505,note_on,225,0,5,,,,,,,,4,,,55,0
275505,note_on,225,0,2,,,,,,,,1,,,83,0
275505,note_on,225,0,7,,,,,,,,6,,,55,0
275505,note_on,225,0,4,,,,,,,,3,,,62,0
275505,note_on,0,0,7,,,,,,,,6,,,67,0
275505,note_on,0,0,7,,,,,,,,6,,,71,0
275505,note_on,0,0,7,,,,,,,,6,,,74,0
275505,note_on,225,0,6,,,,,,,,5,,,43,0
275505,note_on,225,0,1,,,,,,,,0,,,83,0
275505,note_on,225,0,3,,,,,,,,2,,,79,0
275520,note_on,15,0,3,,,,,,,,2,,,79,85
275520,note_on,15,0,5,,,,,,,,4,,,38,85
275520,note_on,15,0,6,,,,,,,,5,,,26,85
275520,note_on,0,0,7,,,,,,,,6,,,38,85
275520,note_on,15,0,1,,,,,,,,0,,,83,85
275520,note_on,0,0,7,,,,,,,,6,,,67,85
275520,note_on,0,0,7,,,,,,,,6,,,71,85
275520,note_on,15,0,4,,,,,,,,3,,,62,85
275520,note_on,15,0,7,,,,,,,,6,,,74,85
275520,note_on,15,0,2,,,,,,,,1,,,83,85
275745,note_on,225,0,5,,,,,,,,4,,,38,0
275745,note_on,225,0,6,,,,,,,,5,,,26,0
275745,note_on,225,0,4,,,,,,,,3,,,62,0
275745,note_on,225,0,7,,,,,,,,6,,,38,0
275760,note_on,15,0,5,,,,,,,,4,,,38,85
275760,note_on,15,0,7,,,,,,,,6,,,38,85
275760,note_on,15,0,6,,,,,,,,5,,,26,85
275760,note_on,15,0,4,,,,,,,,3,,,62,85
275965,note_on,445,0,2,,,,,,,,1,,,83,0
275965,note_on,205,0,7,,,,,,,,6,,,67,0
275965,note_on,0,0,7,,,,,,,,6,,,71,0
275965,note_on,445,0,3,,,,,,,,2,,,79,0
275965,note_on,445,0,1,,,,,,,,0,,,83,0
275985,note_on,225,0,4,,,,,,,,3,,,62,0
275985,note_on,20,0,7,,,,,,,,6,,,38,0
275985,note_on,225,0,5,,,,,,,,4,,,38,0
275985,note_on,225,0,6,,,,,,,,5,,,26,0
276000,note_on,15,0,4,,,,,,,,3,,,62,85
276000,note_on,35,0,3,,,,,,,,2,,,78,85
276000,note_on,35,0,2,,,,,,,,1,,,81,85
276000,note_on,15,0,7,,,,,,,,6,,,69,85
276000,note_on,35,0,1,,,,,,,,0,,,81,85
276000,note_on,0,0,7,,,,,,,,6,,,38,85
276000,note_on,15,0,5,,,,,,,,4,,,38,85
276000,note_on,0,0,7,,,,,,,,6,,,66,85
276000,note_on,15,0,6,,,,,,,,5,,,26,85
276225,note_on,225,0,4,,,,,,,,3,,,62,0
276225,note_on,225,0,1,,,,,,,,0,,,81,0
276225,note_on,225,0,7,,,,,,,,6,,,38,0
276225,note_on,225,0,5,,,,,,,,4,,,38,0
276225,note_on,225,0,2,,,,,,,,1,,,81,0
276225,note_on,225,0,6,,,,,,,,5,,,26,0
276225,note_on,225,0,3,,,,,,,,2,,,78,0
276240,note_on,15,0,2,,,,,,,,1,,,79,85
276240,note_on,15,0,3,,,,,,,,2,,,79,85
276240,note_on,15,0,1,,,,,,,,0,,,79,85
276240,note_on,15,0,4,,,,,,,,3,,,71,85
276240,note_on,15,0,7,,,,,,,,6,,,55,85
276240,note_on,15,0,5,,,,,,,,4,,,55,85
276240,note_on,15,0,6,,,,,,,,5,,,43,85
276445,note_on,0,0,7,,,,,,,,6,,,66,0
276445,note_on,0,0,7,,,,,,,,6,,,69,0
276445,note_on,205,0,7,,,,,,,,6,,,74,0
276465,note_on,20,0,7,,,,,,,,6,,,55,0
276465,note_on,225,0,1,,,,,,,,0,,,79,0
276465,note_on,225,0,4,,,,,,,,3,,,71,0
276465,note_on,225,0,6,,,,,,,,5,,,43,0
276465,note_on,225,0,5,,,,,,,,4,,,55,0
276465,note_on,225,0,3,,,,,,,,2,,,79,0
276465,note_on,225,0,2,,,,,,,,1,,,79,0
276480,note_on,0,0,7,,,,,,,,6,,,69,85
276480,note_on,15,0,1,,,,,,,,0,,,62,85
276480,note_on,15,0,5,,,,,,,,4,,,38,85
276480,note_on,15,0,4,,,,,,,,3,,,62,85
276480,note_on,15,0,2,,,,,,,,1,,,62,85
276480,note_on,15,0,6,,,,,,,,5,,,26,85
276480,note_on,15,0,3,,,,,,,,2,,,62,85
276480,note_on,0,0,7,,,,,,,,6,,,66,85
276480,note_on,15,0,7,,,,,,,,6,,,74,85
276480,note_on,0,0,7,,,,,,,,6,,,38,85
276705,note_on,225,0,2,,,,,,,,1,,,62,0
276705,note_on,225,0,3,,,,,,,,2,,,62,0
276705,note_on,225,0,1,,,,,,,,0,,,62,0
276720,note_on,15,0,2,,,,,,,,1,,,62,85
276720,note_on,15,0,3,,,,,,,,2,,,62,85
276720,note_on,15,0,1,,,,,,,,0,,,62,85
276925,note_on,445,0,5,,,,,,,,4,,,38,0
276925,note_on,0,0,7,,,,,,,,6,,,66,0
276925,note_on,445,0,6,,,,,,,,5,,,26,0
276925,note_on,0,0,7,,,,,,,,6,,,74,0
276925,note_on,0,0,7,,,,,,,,6,,,69,0
276925,note_on,445,0,4,,,,,,,,3,,,62,0
276925,note_on,445,0,7,,,,,,,,6,,,38,0
276945,note_on,225,0,1,,,,,,,,0,,,62,0
276945,note_on,225,0,2,,,,,,,,1,,,62,0
276945,note_on,225,0,3,,,,,,,,2,,,62,0
276960,note_on,15,0,3,,,,,,,,2,,,62,85
276960,note_on,15,0,2,,,,,,,,1,,,62,85
276960,note_on,15,0,1,,,,,,,,0,,,62,85
277185,note_on,225,0,2,,,,,,,,1,,,62,0
277185,note_on,225,0,3,,,,,,,,2,,,62,0
277185,note_on,225,0,1,,,,,,,,0,,,62,0
277200,note_on,275,0,6,,,,,,,,5,,,38,85
277200,note_on,15,0,2,,,,,,,,1,,,84,85
277200,note_on,15,0,1,,,,,,,,0,,,84,85
277200,note_on,275,0,5,,,,,,,,4,,,50,85
277200,note_on,275,0,4,,,,,,,,3,,,66,85
277200,note_on,15,0,3,,,,,,,,2,,,81,85
277200,note_on,0,0,7,,,,,,,,6,,,50,85
277200,note_on,0,0,7,,,,,,,,6,,,66,85
277200,note_on,0,0,7,,,,,,,,6,,,69,85
277200,note_on,275,0,7,,,,,,,,6,,,72,85
277425,note_on,225,0,3,,,,,,,,2,,,81,0
277425,note_on,0,0,7,,,,,,,,6,,,69,0
277425,note_on,225,0,5,,,,,,,,4,,,50,0
277425,note_on,0,0,7,,,,,,,,6,,,72,0
277425,note_on,225,0,7,,,,,,,,6,,,50,0
277425,note_on,225,0,2,,,,,,,,1,,,84,0
277425,note_on,225,0,1,,,,,,,,0,,,84,0
277425,note_on,225,0,4,,,,,,,,3,,,66,0
277425,note_on,0,0,7,,,,,,,,6,,,66,0
277425,note_on,225,0,6,,,,,,,,5,,,38,0
277440,note_on,15,0,5,,,,,,,,4,,,38,85
277440,note_on,15,0,1,,,,,,,,0,,,84,85
277440,note_on,15,0,4,,,,,,,,3,,,62,85
277440,note_on,15,0,6,,,,,,,,5,,,26,85
277440,note_on,0,0,7,,,,,,,,6,,,69,85
277440,note_on,15,0,2,,,,,,,,1,,,84,85
277440,note_on,15,0,7,,,,,,,,6,,,74,85
277440,note_on,0,0,7,,,,,,,,6,,,66,85
277440,note_on,0,0,7,,,,,,,,6,,,38,85
277440,note_on,15,0,3,,,,,,,,2,,,81,85
277665,note_on,225,0,6,,,,,,,,5,,,26,0
277665,note_on,225,0,4,,,,,,,,3,,,62,0
277665,note_on,225,0,7,,,,,,,,6,,,38,0
277665,note_on,225,0,5,,,,,,,,4,,,38,0
277680,note_on,15,0,5,,,,,,,,4,,,38,85
277680,note_on,15,0,4,,,,,,,,3,,,62,85
277680,note_on,15,0,6,,,,,,,,5,,,26,85
277680,note_on,15,0,7,,,,,,,,6,,,38,85
277885,note_on,445,0,3,,,,,,,,2,,,81,0
277885,note_on,205,0,7,,,,,,,,6,,,66,0
277885,note_on,445,0,2,,,,,,,,1,,,84,0
277885,note_on,445,0,1,,,,,,,,0,,,84,0
277885,note_on,0,0,7,,,,,,,,6,,,69,0
277905,note_on,225,0,6,,,,,,,,5,,,26,0
277905,note_on,20,0,7,,,,,,,,6,,,38,0
277905,note_on,225,0,4,,,,,,,,3,,,62,0
277905,note_on,225,0,5,,,,,,,,4,,,38,0
277920,note_on,15,0,7,,,,,,,,6,,,71,85
277920,note_on,35,0,1,,,,,,,,0,,,83,85
277920,note_on,15,0,4,,,,,,,,3,,,62,85
277920,note_on,35,0,2,,,,,,,,1,,,83,85
277920,note_on,35,0,3,,,,,,,,2,,,79,85
277920,note_on,0,0,7,,,,,,,,6,,,38,85
277920,note_on,0,0,7,,,,,,,,6,,,67,85
277920,note_on,15,0,5,,,,,,,,4,,,38,85
277920,note_on,15,0,6,,,,,,,,5,,,26,85
278145,note_on,225,0,4,,,,,,,,3,,,62,0
278145,note_on,225,0,7,,,,,,,,6,,,38,0
278145,note_on,225,0,1,,,,,,,,0,,,83,0
278145,note_on,225,0,6,,,,,,,,5,,,26,0
278145,note_on,225,0,5,,,,,,,,4,,,38,0
278145,note_on,225,0,2,,,,,,,,1,,,83,0
278145,note_on,225,0,3,,,,,,,,2,,,79,0
278160,note_on,15,0,5,,,,,,,,4,,,55,85
278160,note_on,15,0,1,,,,,,,,0,,,79,85
278160,note_on,15,0,4,,,,,,,,3,,,71,85
278160,note_on,15,0,2,,,,,,,,1,,,79,85
278160,note_on,15,0,3,,,,,,,,2,,,79,85
278160,note_on,15,0,6,,,,,,,,5,,,43,85
278160,note_on,15,0,7,,,,,,,,6,,,55,85
278365,note_on,0,0,7,,,,,,,,6,,,67,0
278365,note_on,205,0,7,,,,,,,,6,,,74,0
278365,note_on,0,0,7,,,,,,,,6,,,71,0
278385,note_on,225,0,3,,,,,,,,2,,,79,0
278385,note_on,225,0,6,,,,,,,,5,,,43,0
278385,note_on,225,0,4,,,,,,,,3,,,71,0
278385,note_on,225,0,1,,,,,,,,0,,,79,0
278385,note_on,225,0,2,,,,,,,,1,,,79,0
278385,note_on,225,0,5,,,,,,,,4,,,55,0
278385,note_on,20,0,7,,,,,,,,6,,,55,0
278400,note_on,15,0,7,,,,,,,,6,,,78,85
278400,note_on,15,0,1,,,,,,,,0,,,62,85
278400,note_on,15,0,4,,,,,,,,3,,,62,85
278400,note_on,15,0,6,,,,,,,,5,,,26,85
278400,note_on,15,0,5,,,,,,,,4,,,38,85
278400,note_on,15,0,2,,,,,,,,1,,,62,85
278400,note_on,15,0,3,,,,,,,,2,,,62,85
278400,note_on,0,0,7,,,,,,,,6,,,74,85
278400,note_on,0,0,7,,,,,,,,6,,,69,85
278400,note_on,0,0,7,,,,,,,,6,,,38,85
278625,note_on,225,0,2,,,,,,,,1,,,62,0
278625,note_on,225,0,3,,,,,,,,2,,,62,0
278625,note_on,225,0,1,,,,,,,,0,,,62,0
278640,note_on,15,0,3,,,,,,,,2,,,62,85
278640,note_on,15,0,2,,,,,,,,1,,,62,85
278640,note_on,15,0,1,,,,,,,,0,,,62,85
278845,note_on,445,0,6,,,,,,,,5,,,26,0
278845,note_on,445,0,7,,,,,,,,6,,,38,0
278845,note_on,445,0,5,,,,,,,,4,,,38,0
278845,note_on,0,0,7,,,,,,,,6,,,74,0
278845,note_on,445,0,4,,,,,,,,3,,,62,0
278845,note_on,0,0,7,,,,,,,,6,,,78,0
278845,note_on,0,0,7,,,,,,,,6,,,69,0
278865,note_on,225,0,3,,,,,,,,2,,,62,0
278865,note_on,225,0,2,,,,,,,,1,,,62,0
278865,note_on,225,0,1,,,,,,,,0,,,62,0
278880,note_on,15,0,1,,,,,,,,0,,,62,85
278880,note_on,15,0,3,,,,,,,,2,,,62,85
278880,note_on,15,0,2,,,,,,,,1,,,62,85
279105,note_on,225,0,2,,,,,,,,1,,,62,0
279105,note_on,225,0,3,,,,,,,,2,,,62,0
279105,note_on,225,0,1,,,,,,,,0,,,62,0
279120,note_on,275,0,6,,,,,,,,5,,,43,85
279120,note_on,275,0,7,,,,,,,,6,,,74,85
279120,note_on,15,0,3,,,,,,,,2,,,83,85
279120,note_on,275,0,4,,,,,,,,3,,,62,85
279120,note_on,275,0,5,,,,,,,,4,,,55,85
279120,note_on,15,0,2,,,,,,,,1,,,86,85
279120,note_on,0,0,7,,,,,,,,6,,,55,85
279120,note_on,0,0,7,,,,,,,,6,,,67,85
279120,note_on,0,0,7,,,,,,,,6,,,71,85
279120,note_on,15,0,1,,,,,,,,0,,,86,85
279345,note_on,225,0,1,,,,,,,,0,,,86,0
279345,note_on,225,0,3,,,,,,,,2,,,83,0
279345,note_on,225,0,5,,,,,,,,4,,,55,0
279345,note_on,225,0,4,,,,,,,,3,,,62,0
279345,note_on,225,0,6,,,,,,,,5,,,43,0
279345,note_on,225,0,2,,,,,,,,1,,,86,0
279345,note_on,225,0,7,,,,,,,,6,,,55,0
279345,note_on,0,0,7,,,,,,,,6,,,74,0
279345,note_on,0,0,7,,,,,,,,6,,,71,0
279345,note_on,0,0,7,,,,,,,,6,,,67,0
279360,note_on,15,0,1,,,,,,,,0,,,86,85
279360,note_on,15,0,5,,,,,,,,4,,,38,85
279360,note_on,15,0,3,,,,,,,,2,,,83,85
279360,note_on,0,0,7,,,,,,,,6,,,71,85
279360,note_on,15,0,2,,,,,,,,1,,,86,85
279360,note_on,15,0,7,,,,,,,,6,,,74,85
279360,note_on,0,0,7,,,,,,,,6,,,38,85
279360,note_on,15,0,6,,,,,,,,5,,,26,85
279360,note_on,15,0,4,,,,,,,,3,,,62,85
279585,note_on,225,0,6,,,,,,,,5,,,26,0
279585,note_on,225,0,7,,,,,,,,6,,,38,0
279585,note_on,225,0,4,,,,,,,,3,,,62,0
279585,note_on,225,0,5,,,,,,,,4,,,38,0
279600,note_on,15,0,5,,,,,,,,4,,,38,85
279600,note_on,15,0,6,,,,,,,,5,,,26,85
279600,note_on,15,0,7,,,,,,,,6,,,38,85
279600,note_on,15,0,4,,,,,,,,3,,,62,85
279805,note_on,445,0,1,,,,,,,,0,,,86,0
279805,note_on,445,0,3,,,,,,,,2,,,83,0
279805,note_on,205,0,7,,,,,,,,6,,,71,0
279805,note_on,445,0,2,,,,,,,,1,,,86,0
279805,note_on,0,0,7,,,,,,,,6,,,74,0
279825,note_on,20,0,7,,,,,,,,6,,,38,0
279825,note_on,225,0,5,,,,,,,,4,,,38,0
279825,note_on,225,0,4,,,,,,,,3,,,62,0
279825,note_on,225,0,6,,,,,,,,5,,,26,0
279840,note_on,35,0,3,,,,,,,,2,,,81,85
279840,note_on,15,0,6,,,,,,,,5,,,26,85
279840,note_on,35,0,2,,,,,,,,1,,,84,85
279840,note_on,35,0,1,,,,,,,,0,,,84,85
279840,note_on,15,0,5,,,,,,,,4,,,38,85
279840,note_on,0,0,7,,,,,,,,6,,,38,85
279840,note_on,15,0,4,,,,,,,,3,,,62,85
279840,note_on,0,0,7,,,,,,,,6,,,69,85
279840,note_on,15,0,7,,,,,,,,6,,,72,85
279840,note_on,0,0,7,,,,,,,,6,,,66,85
280065,note_on,225,0,7,,,,,,,,6,,,38,0
280065,note_on,225,0,4,,,,,,,,3,,,62,0
280065,note_on,225,0,6,,,,,,,,5,,,26,0
280065,note_on,225,0,3,,,,,,,,2,,,81,0
280065,note_on,225,0,1,,,,,,,,0,,,84,0
280065,note_on,225,0,2,,,,,,,,1,,,84,0
280065,note_on,0,0,7,,,,,,,,6,,,66,0
280065,note_on,225,0,5,,,,,,,,4,,,38,0
280080,note_on,15,0,1,,,,,,,,0,,,78,85
280080,note_on,15,0,5,,,,,,,,4,,,50,85
280080,note_on,15,0,7,,,,,,,,6,,,66,85
280080,note_on,15,0,2,,,,,,,,1,,,78,85
280080,note_on,0,0,7,,,,,,,,6,,,50,85
280080,note_on,15,0,6,,,,,,,,5,,,38,85
280080,note_on,15,0,4,,,,,,,,3,,,69,85
280080,note_on,15,0,3,,,,,,,,2,,,81,85
280285,note_on,205,0,7,,,,,,,,6,,,69,0
280285,note_on,0,0,7,,,,,,,,6,,,72,0
280305,note_on,225,0,6,,,,,,,,5,,,38,0
280305,note_on,0,0,7,,,,,,,,6,,,50,0
280305,note_on,225,0,3,,,,,,,,2,,,81,0
280305,note_on,225,0,5,,,,,,,,4,,,50,0
280305,note_on,20,0,7,,,,,,,,6,,,66,0
280305,note_on,225,0,2,,,,,,,,1,,,78,0
280305,note_on,225,0,4,,,,,,,,3,,,69,0
280305,note_on,225,0,1,,,,,,,,0,,,78,0
280320,note_on,15,0,1,,,,,,,,0,,,79,85
280320,note_on,0,0,7,,,,,,,,6,,,67,85
280320,note_on,0,0,7,,,,,,,,6,,,55,85
280320,note_on,0,0,7,,,,,,,,6,,,62,85
280320,note_on,15,0,7,,,,,,,,6,,,71,85
280320,note_on,15,0,5,,,,,,,,4,,,55,85
280320,note_on,15,0,4,,,,,,,,3,,,71,85
280320,note_on,15,0,6,,,,,,,,5,,,43,85
280320,note_on,15,0,3,,,,,,,,2,,,79,85
280320,note_on,15,0,2,,,,,,,,1,,,79,85
280545,note_on,225,0,3,,,,,,,,2,,,79,0
280545,note_on,225,0,1,,,,,,,,0,,,79,0
280545,note_on,225,0,2,,,,,,,,1,,,79,0
280560,note_on,15,0,2,,,,,,,,1,,,67,85
280560,note_on,15,0,1,,,,,,,,0,,,67,85
280560,note_on,15,0,3,,,,,,,,2,,,67,85
280765,note_on,0,0,7,,,,,,,,6,,,62,0
280765,note_on,445,0,6,,,,,,,,5,,,43,0
280765,note_on,0,0,7,,,,,,,,6,,,71,0
280765,note_on,445,0,7,,,,,,,,6,,,55,0
280765,note_on,0,0,7,,,,,,,,6,,,67,0
280765,note_on,445,0,4,,,,,,,,3,,,71,0
280765,note_on,445,0,5,,,,,,,,4,,,55,0
280785,note_on,225,0,1,,,,,,,,0,,,67,0
280785,note_on,225,0,3,,,,,,,,2,,,67,0
280785,note_on,225,0,2,,,,,,,,1,,,67,0
280800,note_on,15,0,3,,,,,,,,2,,,69,85
280800,note_on,15,0,2,,,,,,,,1,,,69,85
280800,note_on,15,0,1,,,,,,,,0,,,69,85
281025,note_on,225,0,1,,,,,,,,0,,,69,0
281025,note_on,225,0,2,,,,,,,,1,,,69,0
281025,note_on,225,0,3,,,,,,,,2,,,69,0
281040,note_on,0,0,7,,,,,,,,6,,,62,85
281040,note_on,15,0,2,,,,,,,,1,,,67,85
281040,note_on,275,0,4,,,,,,,,3,,,71,85
281040,note_on,0,0,7,,,,,,,,6,,,67,85
281040,note_on,0,0,7,,,,,,,,6,,,55,85
281040,note_on,275,0,7,,,,,,,,6,,,71,85
281040,note_on,275,0,5,,,,,,,,4,,,55,85
281040,note_on,275,0,6,,,,,,,,5,,,43,85
281040,note_on,15,0,3,,,,,,,,2,,,67,85
281040,note_on,15,0,1,,,,,,,,0,,,67,85
281265,note_on,225,0,2,,,,,,,,1,,,67,0
281265,note_on,225,0,6,,,,,,,,5,,,43,0
281265,note_on,225,0,4,,,,,,,,3,,,71,0
281265,note_on,225,0,3,,,,,,,,2,,,67,0
281265,note_on,225,0,1,,,,,,,,0,,,67,0
281265,note_on,225,0,5,,,,,,,,4,,,55,0
281265,note_on,225,0,7,,,,,,,,6,,,55,0
281265,note_on,0,0,7,,,,,,,,6,,,71,0
281265,note_on,0,0,7,,,,,,,,6,,,67,0
281265,note_on,0,0,7,,,,,,,,6,,,62,0
281280,note_on,0,0,7,,,,,,,,6,,,64,85
281280,note_on,15,0,6,,,,,,,,5,,,48,85
281280,note_on,15,0,5,,,,,,,,4,,,60,85
281280,note_on,15,0,4,,,,,,,,3,,,67,85
281280,note_on,0,0,7,,,,,,,,6,,,67,85
281280,note_on,15,0,3,,,,,,,,2,,,76,85
281280,note_on,15,0,1,,,,,,,,0,,,76,85
281280,note_on,15,0,2,,,,,,,,1,,,76,85
281280,note_on,15,0,7,,,,,,,,6,,,72,85
281280,note_on,0,0,7,,,,,,,,6,,,60,85
281725,note_on,445,0,3,,,,,,,,2,,,76,0
281725,note_on,445,0,5,,,,,,,,4,,,60,0
281725,note_on,445,0,4,,,,,,,,3,,,67,0
281725,note_on,0,0,7,,,,,,,,6,,,64,0
281725,note_on,0,0,7,,,,,,,,6,,,67,0
281725,note_on,0,0,7,,,,,,,,6,,,72,0
281725,note_on,445,0,7,,,,,,,,6,,,60,0
281725,note_on,445,0,6,,,,,,,,5,,,48,0
281725,note_on,445,0,1,,,,,,,,0,,,76,0
281725,note_on,445,0,2,,,,,,,,1,,,76,0
281760,note_on,35,0,1,,,,,,,,0,,,74,85
281760,note_on,35,0,6,,,,,,,,5,,,42,85
281760,note_on,0,0,7,,,,,,,,6,,,66,85
281760,note_on,35,0,2,,,,,,,,1,,,74,85
281760,note_on,35,0,4,,,,,,,,3,,,69,85
281760,note_on,35,0,3,,,,,,,,2,,,74,85
281760,note_on,0,0,7,,,,,,,,6,,,54,85
281760,note_on,0,0,7,,,,,,,,6,,,69,85
281760,note_on,35,0,7,,,,,,,,6,,,74,85
281760,note_on,35,0,5,,,,,,,,4,,,54,85
281985,note_on,225,0,2,,,,,,,,1,,,74,0
281985,note_on,225,0,1,,,,,,,,0,,,74,0
281985,note_on,225,0,3,,,,,,,,2,,,74,0
282000,note_on,15,0,3,,,,,,,,2,,,72,85
282000,note_on,15,0,2,,,,,,,,1,,,72,85
282000,note_on,15,0,1,,,,,,,,0,,,72,85
282205,note_on,445,0,6,,,,,,,,5,,,42,0
282205,note_on,445,0,5,,,,,,,,4,,,54,0
282205,note_on,445,0,7,,,,,,,,6,,,54,0
282205,note_on,0,0,7,,,,,,,,6,,,74,0
282205,note_on,0,0,7,,,,,,,,6,,,69,0
282205,note_on,0,0,7,,,,,,,,6,,,66,0
282205,note_on,445,0,4,,,,,,,,3,,,69,0
282225,note_on,225,0,3,,,,,,,,2,,,72,0
282225,note_on,225,0,1,,,,,,,,0,,,72,0
282225,note_on,225,0,2,,,,,,,,1,,,72,0
282240,note_on,15,0,3,,,,,,,,2,,,71,85
282240,note_on,15,0,1,,,,,,,,0,,,71,85
282240,note_on,35,0,6,,,,,,,,5,,,43,85
282240,note_on,0,0,7,,,,,,,,6,,,71,85
282240,note_on,35,0,4,,,,,,,,3,,,62,85
282240,note_on,35,0,5,,,,,,,,4,,,55,85
282240,note_on,15,0,2,,,,,,,,1,,,71,85
282240,note_on,0,0,7,,,,,,,,6,,,55,85
282240,note_on,35,0,7,,,,,,,,6,,,74,85
282240,note_on,0,0,7,,,,,,,,6,,,67,85
282465,note_on,225,0,6,,,,,,,,5,,,43,0
282465,note_on,225,0,1,,,,,,,,0,,,71,0
282465,note_on,225,0,3,,,,,,,,2,,,71,0
282465,note_on,225,0,4,,,,,,,,3,,,62,0
282465,note_on,225,0,5,,,,,,,,4,,,55,0
282465,note_on,225,0,2,,,,,,,,1,,,71,0
282465,note_on,225,0,7,,,,,,,,6,,,55,0
282480,note_on,15,0,1,,,,,,,,0,,,69,85
282480,note_on,15,0,5,,,,,,,,4,,,47,85
282480,note_on,15,0,6,,,,,,,,5,,,35,85
282480,note_on,15,0,4,,,,,,,,3,,,62,85
282480,note_on,15,0,3,,,,,,,,2,,,69,85
282480,note_on,15,0,7,,,,,,,,6,,,47,85
282480,note_on,15,0,2,,,,,,,,1,,,69,85
282595,note_on,115,0,2,,,,,,,,1,,,69,0
282595,note_on,115,0,1,,,,,,,,0,,,69,0
282595,note_on,115,0,3,,,,,,,,2,,,69,0
282600,note_on,5,0,2,,,,,,,,1,,,67,85
282600,note_on,5,0,1,,,,,,,,0,,,67,85
282600,note_on,5,0,3,,,,,,,,2,,,67,85
282705,note_on,225,0,7,,,,,,,,6,,,47,0
282705,note_on,225,0,5,,,,,,,,4,,,47,0
282705,note_on,0,0,7,,,,,,,,6,,,71,0
282705,note_on,0,0,7,,,,,,,,6,,,67,0
282705,note_on,225,0,6,,,,,,,,5,,,35,0
282705,note_on,0,0,7,,,,,,,,6,,,74,0
282705,note_on,225,0,4,,,,,,,,3,,,62,0
282715,note_on,115,0,2,,,,,,,,1,,,67,0
282715,note_on,115,0,1,,,,,,,,0,,,67,0
282715,note_on,115,0,3,,,,,,,,2,,,67,0
282720,note_on,5,0,3,,,,,,,,2,,,69,85
282720,note_on,5,0,2,,,,,,,,1,,,69,85
282720,note_on,5,0,1,,,,,,,,0,,,69,85
282720,note_on,15,0,5,,,,,,,,4,,,48,85
282720,note_on,15,0,7,,,,,,,,6,,,72,85
282720,note_on,0,0,7,,,,,,,,6,,,48,85
282720,note_on,0,0,7,,,,,,,,6,,,64,85
282720,note_on,0,0,7,,,,,,,,6,,,69,85
282720,note_on,15,0,6,,,,,,,,5,,,36,85
282720,note_on,15,0,4,,,,,,,,3,,,64,85
282945,note_on,225,0,3,,,,,,,,2,,,69,0
282945,note_on,0,0,7,,,,,,,,6,,,64,0
282945,note_on,225,0,4,,,,,,,,3,,,64,0
282945,note_on,0,0,7,,,,,,,,6,,,69,0
282945,note_on,225,0,7,,,,,,,,6,,,48,0
282945,note_on,0,0,7,,,,,,,,6,,,72,0
282945,note_on,225,0,1,,,,,,,,0,,,69,0
282945,note_on,225,0,5,,,,,,,,4,,,48,0
282945,note_on,225,0,6,,,,,,,,5,,,36,0
282945,note_on,225,0,2,,,,,,,,1,,,69,0
282960,note_on,15,0,7,,,,,,,,6,,,69,85
282960,note_on,15,0,2,,,,,,,,1,,,66,85
282960,note_on,15,0,6,,,,,,,,5,,,38,85
282960,note_on,15,0,3,,,,,,,,2,,,66,85
282960,note_on,15,0,4,,,,,,,,3,,,62,85
282960,note_on,0,0,7,,,,,,,,6,,,66,85
282960,note_on,15,0,1,,,,,,,,0,,,66,85
282960,note_on,15,0,5,,,,,,,,4,,,50,85
282960,note_on,0,0,7,,,,,,,,6,,,50,85
282960,note_on,0,0,7,,,,,,,,6,,,62,85
283185,note_on,225,0,3,,,,,,,,2,,,66,0
283185,note_on,225,0,5,,,,,,,,4,,,50,0
283185,note_on,225,0,2,,,,,,,,1,,,66,0
283185,note_on,225,0,7,,,,,,,,6,,,50,0
283185,note_on,0,0,7,,,,,,,,6,,,69,0
283185,note_on,0,0,7,,,,,,,,6,,,66,0
283185,note_on,0,0,7,,,,,,,,6,,,62,0
283185,note_on,225,0,4,,,,,,,,3,,,62,0
283185,note_on,225,0,1,,,,,,,,0,,,66,0
283185,note_on,225,0,6,,,,,,,,5,,,38,0
283200,note_on,15,0,1,,,,,,,,0,,,67,85
283200,note_on,15,0,4,,,,,,,,3,,,59,85
283200,note_on,15,0,6,,,,,,,,5,,,31,85
283200,note_on,15,0,2,,,,,,,,1,,,67,85
283200,note_on,0,0,7,,,,,,,,6,,,43,85
283200,note_on,0,0,7,,,,,,,,6,,,62,85
283200,note_on,15,0,7,,,,,,,,6,,,71,85
283200,note_on,15,0,3,,,,,,,,2,,,67,85
283200,note_on,15,0,5,,,,,,,,4,,,43,85
283200,note_on,0,0,7,,,,,,,,6,,,67,85
283425,note_on,225,0,5,,,,,,,,4,,,43,0
283425,note_on,225,0,7,,,,,,,,6,,,43,0
283425,note_on,225,0,6,,,,,,,,5,,,31,0
283425,note_on,225,0,4,,,,,,,,3,,,59,0
283440,note_on,15,0,6,,,,,,,,5,,,31,85
283440,note_on,15,0,5,,,,,,,,4,,,43,85
283440,note_on,15,0,4,,,,,,,,3,,,59,85
283440,note_on,15,0,7,,,,,,,,6,,,43,85
283645,note_on,205,0,7,,,,,,,,6,,,71,0
283645,note_on,445,0,1,,,,,,,,0,,,67,0
283645,note_on,0,0,7,,,,,,,,6,,,67,0
283645,note_on,0,0,7,,,,,,,,6,,,62,0
283645,note_on,445,0,2,,,,,,,,1,,,67,0
283645,note_on,445,0,3,,,,,,,,2,,,67,0
283665,note_on,225,0,5,,,,,,,,4,,,43,0
283665,note_on,225,0,6,,,,,,,,5,,,31,0
283665,note_on,20,0,7,,,,,,,,6,,,43,0
283665,note_on,225,0,4,,,,,,,,3,,,59,0
283680,note_on,15,0,5,,,,,,,,4,,,43,85
283680,note_on,15,0,4,,,,,,,,3,,,59,85
283680,note_on,15,0,7,,,,,,,,6,,,43,85
283680,note_on,15,0,6,,,,,,,,5,,,31,85
283905,note_on,225,0,4,,,,,,,,3,,,59,0
283905,note_on,225,0,5,,,,,,,,4,,,43,0
283905,note_on,225,0,7,,,,,,,,6,,,43,0
283905,note_on,225,0,6,,,,,,,,5,,,31,0
283920,note_on,275,0,2,,,,,,,,1,,,74,64
283920,note_on,275,0,1,,,,,,,,0,,,74,64
283920,note_on,15,0,4,,,,,,,,3,,,71,64
283920,note_on,275,0,3,,,,,,,,2,,,74,64
283920,note_on,0,0,7,,,,,,,,6,,,55,85
283920,note_on,15,0,6,,,,,,,,5,,,43,85
283920,note_on,15,0,7,,,,,,,,6,,,67,85
283920,note_on,15,0,5,,,,,,,,4,,,55,85
284145,note_on,225,0,6,,,,,,,,5,,,43,0
284145,note_on,225,0,4,,,,,,,,3,,,71,0
284145,note_on,225,0,5,,,,,,,,4,,,55,0
284145,note_on,0,0,7,,,,,,,,6,,,67,0
284145,note_on,225,0,3,,,,,,,,2,,,74,0
284145,note_on,225,0,7,,,,,,,,6,,,55,0
284145,note_on,225,0,2,,,,,,,,1,,,74,0
284145,note_on,225,0,1,,,,,,,,0,,,74,0
284160,note_on,15,0,3,,,,,,,,2,,,79,64
284160,note_on,0,0,7,,,,,,,,6,,,62,85
284160,note_on,15,0,4,,,,,,,,3,,,59,64
284160,note_on,0,0,7,,,,,,,,6,,,67,85
284160,note_on,15,0,7,,,,,,,,6,,,71,85
284160,note_on,15,0,6,,,,,,,,5,,,31,85
284160,note_on,15,0,1,,,,,,,,0,,,79,64
284160,note_on,15,0,5,,,,,,,,4,,,43,85
284160,note_on,0,0,7,,,,,,,,6,,,43,85
284160,note_on,15,0,2,,,,,,,,1,,,79,64
284385,note_on,225,0,1,,,,,,,,0,,,79,0
284385,note_on,225,0,3,,,,,,,,2,,,79,0
284385,note_on,225,0,2,,,,,,,,1,,,79,0
284400,note_on,15,0,3,,,,,,,,2,,,67,64
284400,note_on,15,0,2,,,,,,,,1,,,67,64
284400,note_on,15,0,1,,,,,,,,0,,,67,64
284605,note_on,0,0,7,,,,,,,,6,,,67,0
284605,note_on,445,0,5,,,,,,,,4,,,43,0
284605,note_on,0,0,7,,,,,,,,6,,,71,0
284605,note_on,445,0,4,,,,,,,,3,,,59,0
284605,note_on,445,0,6,,,,,,,,5,,,31,0
284605,note_on,445,0,7,,,,,,,,6,,,43,0
284605,note_on,0,0,7,,,,,,,,6,,,62,0
284625,note_on,225,0,3,,,,,,,,2,,,67,0
284625,note_on,225,0,2,,,,,,,,1,,,67,0
284625,note_on,225,0,1,,,,,,,,0,,,67,0
284640,note_on,15,0,3,,,,,,,,2,,,69,64
284640,note_on,15,0,2,,,,,,,,1,,,69,64
284640,note_on,15,0,1,,,,,,,,0,,,69,64
284865,note_on,225,0,1,,,,,,,,0,,,69,0
284865,note_on,225,0,3,,,,,,,,2,,,69,0
284865,note_on,225,0,2,,,,,,,,1,,,69,0
284880,note_on,15,0,3,,,,,,,,2,,,67,64
284880,note_on,275,0,4,,,,,,,,3,,,71,64
284880,note_on,275,0,6,,,,,,,,5,,,43,85
284880,note_on,0,0,7,,,,,,,,6,,,55,85
284880,note_on,0,0,7,,,,,,,,6,,,62,85
284880,note_on,0,0,7,,,,,,,,6,,,67,85
284880,note_on,15,0,1,,,,,,,,0,,,67,64
284880,note_on,15,0,2,,,,,,,,1,,,67,64
284880,note_on,275,0,7,,,,,,,,6,,,71,85
284880,note_on,275,0,5,,,,,,,,4,,,55,85
285105,note_on,225,0,5,,,,,,,,4,,,55,0
285105,note_on,225,0,3,,,,,,,,2,,,67,0
285105,note_on,225,0,1,,,,,,,,0,,,67,0
285105,note_on,225,0,6,,,,,,,,5,,,43,0
285105,note_on,225,0,2,,,,,,,,1,,,67,0
285105,note_on,225,0,7,,,,,,,,6,,,55,0
285105,note_on,0,0,7,,,,,,,,6,,,71,0
285105,note_on,0,0,7,,,,,,,,6,,,62,0
285105,note_on,0,0,7,,,,,,,,6,,,67,0
285105,note_on,225,0,4,,,,,,,,3,,,71,0
285120,note_on,0,0,7,,,,,,,,6,,,64,85
285120,note_on,15,0,1,,,,,,,,0,,,76,64
285120,note_on,15,0,2,,,,,,,,1,,,76,64
285120,note_on,15,0,6,,,,,,,,5,,,48,85
285120,note_on,15,0,4,,,,,,,,3,,,67,64
285120,note_on,15,0,5,,,,,,,,4,,,60,85
285120,note_on,15,0,3,,,,,,,,2,,,76,64
285120,note_on,15,0,7,,,,,,,,6,,,72,85
285120,note_on,0,0,7,,,,,,,,6,,,67,85
285120,note_on,0,0,7,,,,,,,,6,,,60,85
285565,note_on,445,0,5,,,,,,,,4,,,60,0
285565,note_on,445,0,4,,,,,,,,3,,,67,0
285565,note_on,445,0,6,,,,,,,,5,,,48,0
285565,note_on,445,0,7,,,,,,,,6,,,60,0
285565,note_on,445,0,1,,,,,,,,0,,,76,0
285565,note_on,0,0,7,,,,,,,,6,,,72,0
285565,note_on,0,0,7,,,,,,,,6,,,67,0
285565,note_on,0,0,7,,,,,,,,6,,,64,0
285565,note_on,445,0,3,,,,,,,,2,,,76,0
285565,note_on,445,0,2,,,,,,,,1,,,76,0
285600,note_on,35,0,6,,,,,,,,5,,,42,85
285600,note_on,35,0,1,,,,,,,,0,,,74,64
285600,note_on,35,0,7,,,,,,,,6,,,74,85
285600,note_on,35,0,3,,,,,,,,2,,,74,64
285600,note_on,35,0,5,,,,,,,,4,,,54,85
285600,note_on,0,0,7,,,,,,,,6,,,69,85
285600,note_on,35,0,2,,,,,,,,1,,,74,64
285600,note_on,0,0,7,,,,,,,,6,,,66,85
285600,note_on,35,0,4,,,,,,,,3,,,69,64
285600,note_on,0,0,7,,,,,,,,6,,,54,85
285825,note_on,225,0,2,,,,,,,,1,,,74,0
285825,note_on,225,0,3,,,,,,,,2,,,74,0
285825,note_on,225,0,1,,,,,,,,0,,,74,0
285840,note_on,15,0,1,,,,,,,,0,,,72,64
285840,note_on,15,0,2,,,,,,,,1,,,72,64
285840,note_on,15,0,3,,,,,,,,2,,,72,64
286045,note_on,445,0,5,,,,,,,,4,,,54,0
286045,note_on,445,0,7,,,,,,,,6,,,54,0
286045,note_on,0,0,7,,,,,,,,6,,,74,0
286045,note_on,0,0,7,,,,,,,,6,,,69,0
286045,note_on,0,0,7,,,,,,,,6,,,66,0
286045,note_on,445,0,4,,,,,,,,3,,,69,0
286045,note_on,445,0,6,,,,,,,,5,,,42,0
286065,note_on,225,0,1,,,,,,,,0,,,72,0
286065,note_on,225,0,2,,,,,,,,1,,,72,0
286065,note_on,225,0,3,,,,,,,,2,,,72,0
286080,note_on,0,0,7,,,,,,,,6,,,67,85
286080,note_on,0,0,7,,,,,,,,6,,,55,85
286080,note_on,15,0,3,,,,,,,,2,,,71,64
286080,note_on,0,0,7,,,,,,,,6,,,71,85
286080,note_on,35,0,6,,,,,,,,5,,,43,85
286080,note_on,15,0,1,,,,,,,,0,,,71,64
286080,note_on,35,0,5,,,,,,,,4,,,55,85
286080,note_on,35,0,7,,,,,,,,6,,,74,85
286080,note_on,15,0,2,,,,,,,,1,,,71,64
286080,note_on,35,0,4,,,,,,,,3,,,62,64
286305,note_on,225,0,3,,,,,,,,2,,,71,0
286305,note_on,225,0,1,,,,,,,,0,,,71,0
286305,note_on,225,0,7,,,,,,,,6,,,55,0
286305,note_on,225,0,6,,,,,,,,5,,,43,0
286305,note_on,225,0,2,,,,,,,,1,,,71,0
286305,note_on,225,0,5,,,,,,,,4,,,55,0
286305,note_on,225,0,4,,,,,,,,3,,,62,0
286320,note_on,15,0,2,,,,,,,,1,,,69,64
286320,note_on,15,0,6,,,,,,,,5,,,35,85
286320,note_on,15,0,3,,,,,,,,2,,,69,64
286320,note_on,15,0,1,,,,,,,,0,,,69,64
286320,note_on,15,0,4,,,,,,,,3,,,62,64
286320,note_on,15,0,7,,,,,,,,6,,,47,85
286320,note_on,15,0,5,,,,,,,,4,,,47,85
286435,note_on,115,0,1,,,,,,,,0,,,69,0
286435,note_on,115,0,2,,,,,,,,1,,,69,0
286435,note_on,115,0,3,,,,,,,,2,,,69,0
286440,note_on,5,0,1,,,,,,,,0,,,67,64
286440,note_on,5,0,3,,,,,,,,2,,,67,64
286440,note_on,5,0,2,,,,,,,,1,,,67,64
286545,note_on,225,0,6,,,,,,,,5,,,35,0
286545,note_on,225,0,4,,,,,,,,3,,,62,0
286545,note_on,0,0,7,,,,,,,,6,,,71,0
286545,note_on,0,0,7,,,,,,,,6,,,74,0
286545,note_on,225,0,7,,,,,,,,6,,,47,0
286545,note_on,225,0,5,,,,,,,,4,,,47,0
286545,note_on,0,0,7,,,,,,,,6,,,67,0
286555,note_on,115,0,2,,,,,,,,1,,,67,0
286555,note_on,115,0,3,,,,,,,,2,,,67,0
286555,note_on,115,0,1,,,,,,,,0,,,67,0
286560,note_on,15,0,6,,,,,,,,5,,,36,85
286560,note_on,15,0,7,,,,,,,,6,,,72,85
286560,note_on,0,0,7,,,,,,,,6,,,69,85
286560,note_on,0,0,7,,,,,,,,6,,,64,85
286560,note_on,5,0,3,,,,,,,,2,,,69,64
286560,note_on,0,0,7,,,,,,,,6,,,48,85
286560,note_on,15,0,4,,,,,,,,3,,,64,64
286560,note_on,5,0,2,,,,,,,,1,,,69,64
286560,note_on,15,0,5,,,,,,,,4,,,48,85
286560,note_on,5,0,1,,,,,,,,0,,,69,64
286785,note_on,225,0,4,,,,,,,,3,,,64,0
286785,note_on,225,0,7,,,,,,,,6,,,48,0
286785,note_on,225,0,1,,,,,,,,0,,,69,0
286785,note_on,0,0,7,,,,,,,,6,,,72,0
286785,note_on,0,0,7,,,,,,,,6,,,69,0
286785,note_on,225,0,2,,,,,,,,1,,,69,0
286785,note_on,225,0,5,,,,,,,,4,,,48,0
286785,note_on,0,0,7,,,,,,,,6,,,64,0
286785,note_on,225,0,6,,,,,,,,5,,,36,0
286785,note_on,225,0,3,,,,,,,,2,,,69,0
286800,note_on,15,0,7,,,,,,,,6,,,69,85
286800,note_on,0,0,7,,,,,,,,6,,,62,85
286800,note_on,15,0,3,,,,,,,,2,,,66,64
286800,note_on,0,0,7,,,,,,,,6,,,66,85
286800,note_on,15,0,4,,,,,,,,3,,,62,64
286800,note_on,15,0,1,,,,,,,,0,,,66,64
286800,note_on,15,0,2,,,,,,,,1,,,66,64
286800,note_on,15,0,5,,,,,,,,4,,,50,85
286800,note_on,15,0,6,,,,,,,,5,,,38,85
286800,note_on,0,0,7,,,,,,,,6,,,50,85
287025,note_on,225,0,3,,,,,,,,2,,,66,0
287025,note_on,225,0,2,,,,,,,,1,,,66,0
287025,note_on,225,0,5,,,,,,,,4,,,50,0
287025,note_on,0,0,7,,,,,,,,6,,,69,0
287025,note_on,0,0,7,,,,,,,,6,,,66,0
287025,note_on,0,0,7,,,,,,,,6,,,62,0
287025,note_on,225,0,1,,,,,,,,0,,,66,0
287025,note_on,225,0,7,,,,,,,,6,,,50,0
287025,note_on,225,0,6,,,,,,,,5,,,38,0
287025,note_on,225,0,4,,,,,,,,3,,,62,0
287040,note_on,15,0,5,,,,,,,,4,,,55,85
287040,note_on,15,0,4,,,,,,,,3,,,59,64
287040,note_on,15,0,1,,,,,,,,0,,,67,106
287040,note_on,15,0,6,,,,,,,,5,,,43,85
287040,note_on,15,0,3,,,,,,,,2,,,67,64
287040,note_on,15,0,2,,,,,,,,1,,,67,64
287040,note_on,0,0,7,,,,,,,,6,,,55,85
287040,note_on,0,0,7,,,,,,,,6,,,59,85
287040,note_on,0,0,7,,,,,,,,6,,,62,85
287040,note_on,15,0,7,,,,,,,,6,,,67,85
287155,note_on,115,0,1,,,,,,,,0,,,67,0
287160,note_on,5,0,1,,,,,,,,0,,,66,106
287275,note_on,115,0,1,,,,,,,,0,,,66,0
287280,note_on,5,0,1,,,,,,,,0,,,64,106
287395,note_on,115,0,1,,,,,,,,0,,,64,0
287400,note_on,5,0,1,,,,,,,,0,,,62,106
287485,note_on,445,0,6,,,,,,,,5,,,43,0
287485,note_on,445,0,4,,,,,,,,3,,,59,0
287485,note_on,445,0,3,,,,,,,,2,,,67,0
287485,note_on,445,0,5,,,,,,,,4,,,55,0
287485,note_on,0,0,7,,,,,,,,6,,,59,0
287485,note_on,0,0,7,,,,,,,,6,,,62,0
287485,note_on,0,0,7,,,,,,,,6,,,67,0
287485,note_on,445,0,7,,,,,,,,6,,,55,0
287485,note_on,445,0,2,,,,,,,,1,,,67,0
287515,note_on,115,0,1,,,,,,,,0,,,62,0
287520,note_on,35,0,5,,,,,,,,4,,,55,64
287520,note_on,35,0,6,,,,,,,,5,,,43,64
287520,note_on,35,0,7,,,,,,,,6,,,55,85
287520,note_on,5,0,1,,,,,,,,0,,,60,106
287635,note_on,115,0,1,,,,,,,,0,,,60,0
287640,note_on,5,0,1,,,,,,,,0,,,59,106
287755,note_on,115,0,1,,,,,,,,0,,,59,0
287760,note_on,5,0,1,,,,,,,,0,,,57,106
287875,note_on,115,0,1,,,,,,,,0,,,57,0
287880,note_on,5,0,1,,,,,,,,0,,,55,106
287965,note_on,445,0,6,,,,,,,,5,,,43,0
287965,note_on,445,0,5,,,,,,,,4,,,55,0
287965,note_on,445,0,7,,,,,,,,6,,,55,0
287995,note_on,115,0,1,,,,,,,,0,,,55,0
288000,note_on,35,0,5,,,,,,,,4,,,54,64
288000,note_on,0,0,7,,,,,,,,6,,,69,85
288000,note_on,0,0,7,,,,,,,,6,,,54,85
288000,note_on,0,0,7,,,,,,,,6,,,66,85
288000,note_on,35,0,7,,,,,,,,6,,,74,85
288000,note_on,5,0,1,,,,,,,,0,,,74,106
288000,note_on,35,0,6,,,,,,,,5,,,42,64
288115,note_on,115,0,1,,,,,,,,0,,,74,0
288120,note_on,5,0,1,,,,,,,,0,,,72,106
288235,note_on,115,0,1,,,,,,,,0,,,72,0
288240,note_on,5,0,1,,,,,,,,0,,,71,106
288355,note_on,115,0,1,,,,,,,,0,,,71,0
288360,note_on,5,0,1,,,,,,,,0,,,69,106
288445,note_on,445,0,6,,,,,,,,5,,,42,0
288445,note_on,445,0,7,,,,,,,,6,,,54,0
288445,note_on,445,0,5,,,,,,,,4,,,54,0
288475,note_on,115,0,1,,,,,,,,0,,,69,0
288480,note_on,35,0,5,,,,,,,,4,,,54,64
288480,note_on,35,0,7,,,,,,,,6,,,54,85
288480,note_on,5,0,1,,,,,,,,0,,,67,106
288480,note_on,35,0,6,,,,,,,,5,,,42,64
288595,note_on,115,0,1,,,,,,,,0,,,67,0
288600,note_on,5,0,1,,,,,,,,0,,,66,106
288715,note_on,115,0,1,,,,,,,,0,,,66,0
288720,note_on,5,0,1,,,,,,,,0,,,64,106
288835,note_on,115,0,1,,,,,,,,0,,,64,0
288840,note_on,5,0,1,,,,,,,,0,,,62,106
288885,note_on,405,0,7,,,,,,,,6,,,74,0
288885,note_on,0,0,7,,,,,,,,6,,,66,0
288885,note_on,0,0,7,,,,,,,,6,,,69,0
288925,note_on,40,0,7,,,,,,,,6,,,54,0
288925,note_on,445,0,5,,,,,,,,4,,,54,0
288925,note_on,445,0,6,,,,,,,,5,,,42,0
288955,note_on,115,0,1,,,,,,,,0,,,62,0
288960,note_on,35,0,5,,,,,,,,4,,,52,64
288960,note_on,5,0,1,,,,,,,,0,,,79,106
288960,note_on,35,0,6,,,,,,,,5,,,40,64
288960,note_on,0,0,7,,,,,,,,6,,,52,85
288960,note_on,0,0,7,,,,,,,,6,,,67,85
288960,note_on,0,0,7,,,,,,,,6,,,72,85
288960,note_on,35,0,7,,,,,,,,6,,,76,85
289075,note_on,115,0,1,,,,,,,,0,,,79,0
289080,note_on,5,0,1,,,,,,,,0,,,78,106
289195,note_on,115,0,1,,,,,,,,0,,,78,0
289200,note_on,5,0,1,,,,,,,,0,,,76,106
289315,note_on,115,0,1,,,,,,,,0,,,76,0
289320,note_on,5,0,1,,,,,,,,0,,,74,106
289405,note_on,445,0,6,,,,,,,,5,,,40,0
289405,note_on,445,0,5,,,,,,,,4,,,52,0
289405,note_on,445,0,7,,,,,,,,6,,,52,0
289435,note_on,115,0,1,,,,,,,,0,,,74,0
289440,note_on,5,0,1,,,,,,,,0,,,72,106
289440,note_on,35,0,7,,,,,,,,6,,,52,85
289440,note_on,35,0,6,,,,,,,,5,,,40,64
289440,note_on,35,0,5,,,,,,,,4,,,52,64
289555,note_on,115,0,1,,,,,,,,0,,,72,0
289560,note_on,5,0,1,,,,,,,,0,,,71,106
289675,note_on,115,0,1,,,,,,,,0,,,71,0
289680,note_on,5,0,1,,,,,,,,0,,,69,106
289795,note_on,115,0,1,,,,,,,,0,,,69,0
289800,note_on,5,0,1,,,,,,,,0,,,67,106
289845,note_on,0,0,7,,,,,,,,6,,,72,0
289845,note_on,405,0,7,,,,,,,,6,,,76,0
289845,note_on,0,0,7,,,,,,,,6,,,67,0
289885,note_on,445,0,5,,,,,,,,4,,,52,0
289885,note_on,40,0,7,,,,,,,,6,,,52,0
289885,note_on,445,0,6,,,,,,,,5,,,40,0
289915,note_on,115,0,1,,,,,,,,0,,,67,0
289920,note_on,5,0,1,,,,,,,,0,,,74,106
289920,note_on,35,0,7,,,,,,,,6,,,78,85
289920,note_on,0,0,7,,,,,,,,6,,,74,85
289920,note_on,0,0,7,,,,,,,,6,,,69,85
289920,note_on,35,0,6,,,,,,,,5,,,38,64
289920,note_on,35,0,5,,,,,,,,4,,,50,64
289920,note_on,0,0,7,,,,,,,,6,,,50,85
290145,note_on,225,0,7,,,,,,,,6,,,50,0
290145,note_on,225,0,6,,,,,,,,5,,,38,0
290145,note_on,225,0,5,,,,,,,,4,,,50,0
290160,note_on,15,0,6,,,,,,,,5,,,38,64
290160,note_on,15,0,7,,,,,,,,6,,,50,85
290160,note_on,15,0,5,,,,,,,,4,,,50,64
290365,note_on,445,0,1,,,,,,,,0,,,74,0
290385,note_on,225,0,6,,,,,,,,5,,,38,0
290385,note_on,225,0,7,,,,,,,,6,,,50,0
290385,note_on,225,0,5,,,,,,,,4,,,50,0
290400,note_on,15,0,5,,,,,,,,4,,,50,64
290400,note_on,15,0,6,,,,,,,,5,,,38,64
290400,note_on,15,0,7,,,,,,,,6,,,50,85
290625,note_on,225,0,6,,,,,,,,5,,,38,0
290625,note_on,225,0,5,,,,,,,,4,,,50,0
290625,note_on,225,0,7,,,,,,,,6,,,50,0
290640,note_on,15,0,7,,,,,,,,6,,,62,85
290640,note_on,15,0,5,,,,,,,,4,,,62,64
290640,note_on,15,0,6,,,,,,,,5,,,50,64
290805,note_on,0,0,7,,,,,,,,6,,,69,0
290805,note_on,0,0,7,,,,,,,,6,,,74,0
290805,note_on,165,0,7,,,,,,,,6,,,78,0
290865,note_on,60,0,7,,,,,,,,6,,,62,0
290865,note_on,225,0,6,,,,,,,,5,,,50,0
290865,note_on,225,0,5,,,,,,,,4,,,62,0
290880,note_on,15,0,6,,,,,,,,5,,,41,64
290880,note_on,515,0,1,,,,,,,,0,,,74,106
290880,note_on,15,0,5,,,,,,,,4,,,53,64
290880,note_on,15,0,7,,,,,,,,6,,,74,85
290880,note_on,0,0,7,,,,,,,,6,,,69,85
290880,note_on,0,0,7,,,,,,,,6,,,65,85
290880,note_on,0,0,7,,,,,,,,6,,,53,85
290995,note_on,115,0,1,,,,,,,,0,,,74,0
291000,note_on,5,0,1,,,,,,,,0,,,76,106
291115,note_on,115,0,1,,,,,,,,0,,,76,0
291120,note_on,5,0,1,,,,,,,,0,,,77,106
291235,note_on,115,0,1,,,,,,,,0,,,77,0
291240,note_on,5,0,1,,,,,,,,0,,,74,106
291325,note_on,0,0,7,,,,,,,,6,,,69,0
291325,note_on,445,0,7,,,,,,,,6,,,53,0
291325,note_on,0,0,7,,,,,,,,6,,,65,0
291325,note_on,0,0,7,,,,,,,,6,,,74,0
291325,note_on,445,0,5,,,,,,,,4,,,53,0
291325,note_on,445,0,6,,,,,,,,5,,,41,0
291355,note_on,115,0,1,,,,,,,,0,,,74,0
291360,note_on,35,0,6,,,,,,,,5,,,38,64
291360,note_on,35,0,7,,,,,,,,6,,,77,85
291360,note_on,0,0,7,,,,,,,,6,,,74,85
291360,note_on,0,0,7,,,,,,,,6,,,71,85
291360,note_on,0,0,7,,,,,,,,6,,,50,85
291360,note_on,35,0,5,,,,,,,,4,,,50,64
291360,note_on,5,0,1,,,,,,,,0,,,71,106
291475,note_on,115,0,1,,,,,,,,0,,,71,0
291480,note_on,5,0,1,,,,,,,,0,,,72,106
291595,note_on,115,0,1,,,,,,,,0,,,72,0
291600,note_on,5,0,1,,,,,,,,0,,,74,106
291715,note_on,115,0,1,,,,,,,,0,,,74,0
291720,note_on,5,0,1,,,,,,,,0,,,71,106
291805,note_on,445,0,7,,,,,,,,6,,,50,0
291805,note_on,0,0,7,,,,,,,,6,,,71,0
291805,note_on,445,0,6,,,,,,,,5,,,38,0
291805,note_on,445,0,5,,,,,,,,4,,,50,0
291805,note_on,0,0,7,,,,,,,,6,,,77,0
291805,note_on,0,0,7,,,,,,,,6,,,74,0
291835,note_on,115,0,1,,,,,,,,0,,,71,0
291840,note_on,35,0,5,,,,,,,,4,,,52,64
291840,note_on,35,0,7,,,,,,,,6,,,76,85
291840,note_on,0,0,7,,,,,,,,6,,,71,85
291840,note_on,0,0,7,,,,,,,,6,,,68,85
291840,note_on,0,0,7,,,,,,,,6,,,52,85
291840,note_on,35,0,6,,,,,,,,5,,,40,64
291840,note_on,5,0,1,,,,,,,,0,,,68,106
291955,note_on,115,0,1,,,,,,,,0,,,68,0
291960,note_on,5,0,1,,,,,,,,0,,,69,106
292075,note_on,115,0,1,,,,,,,,0,,,69,0
292080,note_on,5,0,1,,,,,,,,0,,,71,106
292195,note_on,115,0,1,,,,,,,,0,,,71,0
292200,note_on,5,0,1,,,,,,,,0,,,68,106
292285,note_on,445,0,6,,,,,,,,5,,,40,0
292285,note_on,445,0,7,,,,,,,,6,,,52,0
292285,note_on,0,0,7,,,,,,,,6,,,71,0
292285,note_on,0,0,7,,,,,,,,6,,,76,0
292285,note_on,445,0,5,,,,,,,,4,,,52,0
292285,note_on,0,0,7,,,,,,,,6,,,68,0
292315,note_on,115,0,1,,,,,,,,0,,,68,0
292320,note_on,0,0,7,,,,,,,,6,,,76,85
292320,note_on,35,0,5,,,,,,,,4,,,47,64
292320,note_on,5,0,1,,,,,,,,0,,,64,106
292320,note_on,35,0,6,,,,,,,,5,,,35,64
292320,note_on,35,0,7,,,,,,,,6,,,80,85
292320,note_on,0,0,7,,,,,,,,6,,,47,85
292320,note_on,0,0,7,,,,,,,,6,,,71,85
292435,note_on,115,0,1,,,,,,,,0,,,64,0
292440,note_on,5,0,1,,,,,,,,0,,,66,106
292555,note_on,115,0,1,,,,,,,,0,,,66,0
292560,note_on,5,0,1,,,,,,,,0,,,68,106
292675,note_on,115,0,1,,,,,,,,0,,,68,0
292680,note_on,5,0,1,,,,,,,,0,,,64,106
292765,note_on,0,0,7,,,,,,,,6,,,80,0
292765,note_on,0,0,7,,,,,,,,6,,,76,0
292765,note_on,445,0,6,,,,,,,,5,,,35,0
292765,note_on,445,0,7,,,,,,,,6,,,47,0
292765,note_on,0,0,7,,,,,,,,6,,,71,0
292765,note_on,445,0,5,,,,,,,,4,,,47,0
292795,note_on,115,0,1,,,,,,,,0,,,64,0
292800,note_on,35,0,6,,,,,,,,5,,,45,64
292800,note_on,35,0,7,,,,,,,,6,,,81,85
292800,note_on,0,0,7,,,,,,,,6,,,77,85
292800,note_on,0,0,7,,,,,,,,6,,,72,85
292800,note_on,35,0,5,,,,,,,,4,,,57,64
292800,note_on,0,0,7,,,,,,,,6,,,57,85
292800,note_on,5,0,1,,,,,,,,0,,,72,106
292915,note_on,115,0,1,,,,,,,,0,,,72,0
292920,note_on,5,0,1,,,,,,,,0,,,74,106
293035,note_on,115,0,1,,,,,,,,0,,,74,0
293040,note_on,5,0,1,,,,,,,,0,,,76,106
293155,note_on,115,0,1,,,,,,,,0,,,76,0
293160,note_on,5,0,1,,,,,,,,0,,,72,106
293245,note_on,445,0,7,,,,,,,,6,,,57,0
293245,note_on,0,0,7,,,,,,,,6,,,81,0
293245,note_on,445,0,5,,,,,,,,4,,,57,0
293245,note_on,0,0,7,,,,,,,,6,,,77,0
293245,note_on,445,0,6,,,,,,,,5,,,45,0
293245,note_on,0,0,7,,,,,,,,6,,,72,0
293275,note_on,115,0,1,,,,,,,,0,,,72,0
293280,note_on,35,0,6,,,,,,,,5,,,41,64
293280,note_on,35,0,5,,,,,,,,4,,,53,64
293280,note_on,0,0,7,,,,,,,,6,,,53,85
293280,note_on,0,0,7,,,,,,,,6,,,72,85
293280,note_on,0,0,7,,,,,,,,6,,,77,85
293280,note_on,35,0,7,,,,,,,,6,,,81,85
293280,note_on,5,0,1,,,,,,,,0,,,69,106
293395,note_on,115,0,1,,,,,,,,0,,,69,0
293400,note_on,5,0,1,,,,,,,,0,,,71,106
293515,note_on,115,0,1,,,,,,,,0,,,71,0
293520,note_on,5,0,1,,,,,,,,0,,,72,106
293635,note_on,115,0,1,,,,,,,,0,,,72,0
293640,note_on,5,0,1,,,,,,,,0,,,69,106
293725,note_on,445,0,5,,,,,,,,4,,,53,0
293725,note_on,445,0,7,,,,,,,,6,,,53,0
293725,note_on,0,0,7,,,,,,,,6,,,81,0
293725,note_on,0,0,7,,,,,,,,6,,,77,0
293725,note_on,0,0,7,,,,,,,,6,,,72,0
293725,note_on,445,0,6,,,,,,,,5,,,41,0
293755,note_on,115,0,1,,,,,,,,0,,,69,0
293760,note_on,5,0,1,,,,,,,,0,,,65,106
293760,note_on,35,0,6,,,,,,,,5,,,38,64
293760,note_on,35,0,5,,,,,,,,4,,,50,64
293760,note_on,0,0,7,,,,,,,,6,,,50,85
293760,note_on,35,0,7,,,,,,,,6,,,77,85
293760,note_on,0,0,7,,,,,,,,6,,,74,85
293760,note_on,0,0,7,,,,,,,,6,,,69,85
293875,note_on,115,0,1,,,,,,,,0,,,65,0
293880,note_on,5,0,1,,,,,,,,0,,,67,106
293995,note_on,115,0,1,,,,,,,,0,,,67,0
294000,note_on,5,0,1,,,,,,,,0,,,69,106
294115,note_on,115,0,1,,,,,,,,0,,,69,0
294120,note_on,5,0,1,,,,,,,,0,,,65,106
294205,note_on,445,0,6,,,,,,,,5,,,38,0
294205,note_on,445,0,5,,,,,,,,4,,,50,0
294205,note_on,445,0,7,,,,,,,,6,,,50,0
294205,note_on,0,0,7,,,,,,,,6,,,74,0
294205,note_on,0,0,7,,,,,,,,6,,,77,0
294205,note_on,0,0,7,,,,,,,,6,,,69,0
294235,note_on,115,0,1,,,,,,,,0,,,65,0
294240,note_on,35,0,6,,,,,,,,5,,,35,64
294240,note_on,0,0,7,,,,,,,,6,,,47,85
294240,note_on,0,0,7,,,,,,,,6,,,71,85
294240,note_on,5,0,1,,,,,,,,0,,,62,106
294240,note_on,35,0,7,,,,,,,,6,,,77,85
294240,note_on,0,0,7,,,,,,,,6,,,74,85
294240,note_on,35,0,5,,,,,,,,4,,,47,64
294355,note_on,115,0,1,,,,,,,,0,,,62,0
294360,note_on,5,0,1,,,,,,,,0,,,64,106
294475,note_on,115,0,1,,,,,,,,0,,,64,0
294480,note_on,5,0,1,,,,,,,,0,,,65,106
294595,note_on,115,0,1,,,,,,,,0,,,65,0
294600,note_on,5,0,1,,,,,,,,0,,,62,106
294685,note_on,0,0,7,,,,,,,,6,,,74,0
294685,note_on,445,0,6,,,,,,,,5,,,35,0
294685,note_on,0,0,7,,,,,,,,6,,,77,0
294685,note_on,0,0,7,,,,,,,,6,,,71,0
294685,note_on,445,0,5,,,,,,,,4,,,47,0
294685,note_on,445,0,7,,,,,,,,6,,,47,0
294715,note_on,115,0,1,,,,,,,,0,,,62,0
294720,note_on,0,0,7,,,,,,,,6,,,59,85
294720,note_on,5,0,1,,,,,,,,0,,,74,106
294720,note_on,35,0,5,,,,,,,,4,,,59,64
294720,note_on,35,0,6,,,,,,,,5,,,47,64
294720,note_on,35,0,7,,,,,,,,6,,,74,85
294720,note_on,0,0,7,,,,,,,,6,,,71,85
294720,note_on,0,0,7,,,,,,,,6,,,65,85
294835,note_on,115,0,1,,,,,,,,0,,,74,0
294840,note_on,5,0,1,,,,,,,,0,,,76,106
294955,note_on,115,0,1,,,,,,,,0,,,76,0
294960,note_on,5,0,1,,,,,,,,0,,,77,106
295075,note_on,115,0,1,,,,,,,,0,,,77,0
295080,note_on,5,0,1,,,,,,,,0,,,74,106
295165,note_on,0,0,7,,,,,,,,6,,,74,0
295165,note_on,0,0,7,,,,,,,,6,,,71,0
295165,note_on,445,0,7,,,,,,,,6,,,59,0
295165,note_on,0,0,7,,,,,,,,6,,,65,0
295165,note_on,445,0,6,,,,,,,,5,,,47,0
295165,note_on,445,0,5,,,,,,,,4,,,59,0
295195,note_on,115,0,1,,,,,,,,0,,,74,0
295200,note_on,0,0,7,,,,,,,,6,,,56,85
295200,note_on,5,0,1,,,,,,,,0,,,71,106
295200,note_on,0,0,7,,,,,,,,6,,,68,85
295200,note_on,35,0,5,,,,,,,,4,,,56,64
295200,note_on,0,0,7,,,,,,,,6,,,71,85
295200,note_on,35,0,6,,,,,,,,5,,,44,64
295200,note_on,35,0,7,,,,,,,,6,,,74,85
295315,note_on,115,0,1,,,,,,,,0,,,71,0
295320,note_on,5,0,1,,,,,,,,0,,,72,106
295435,note_on,115,0,1,,,,,,,,0,,,72,0
295440,note_on,5,0,1,,,,,,,,0,,,74,106
295555,note_on,115,0,1,,,,,,,,0,,,74,0
295560,note_on,5,0,1,,,,,,,,0,,,71,106
295645,note_on,0,0,7,,,,,,,,6,,,68,0
295645,note_on,445,0,5,,,,,,,,4,,,56,0
295645,note_on,0,0,7,,,,,,,,6,,,71,0
295645,note_on,445,0,6,,,,,,,,5,,,44,0
295645,note_on,445,0,7,,,,,,,,6,,,56,0
295645,note_on,0,0,7,,,,,,,,6,,,74,0
295675,note_on,115,0,1,,,,,,,,0,,,71,0
295680,note_on,0,0,7,,,,,,,,6,,,71,85
295680,note_on,0,0,7,,,,,,,,6,,,68,85
295680,note_on,0,0,7,,,,,,,,6,,,52,85
295680,note_on,35,0,6,,,,,,,,5,,,40,64
295680,note_on,5,0,1,,,,,,,,0,,,68,106
295680,note_on,35,0,5,,,,,,,,4,,,52,64
295680,note_on,35,0,7,,,,,,,,6,,,76,85
295795,note_on,115,0,1,,,,,,,,0,,,68,0
295800,note_on,5,0,1,,,,,,,,0,,,69,106
295915,note_on,115,0,1,,,,,,,,0,,,69,0
295920,note_on,5,0,1,,,,,,,,0,,,71,106
296035,note_on,115,0,1,,,,,,,,0,,,71,0
296040,note_on,5,0,1,,,,,,,,0,,,68,106
296125,note_on,445,0,6,,,,,,,,5,,,40,0
296125,note_on,0,0,7,,,,,,,,6,,,71,0
296125,note_on,445,0,5,,,,,,,,4,,,52,0
296125,note_on,0,0,7,,,,,,,,6,,,68,0
296125,note_on,0,0,7,,,,,,,,6,,,76,0
296125,note_on,445,0,7,,,,,,,,6,,,52,0
296155,note_on,115,0,1,,,,,,,,0,,,68,0
296160,note_on,5,0,1,,,,,,,,0,,,64,106
296160,note_on,35,0,6,,,,,,,,5,,,35,64
296160,note_on,0,0,7,,,,,,,,6,,,47,85
296160,note_on,0,0,7,,,,,,,,6,,,68,85
296160,note_on,0,0,7,,,,,,,,6,,,71,85
296160,note_on,35,0,7,,,,,,,,6,,,76,85
296160,note_on,35,0,5,,,,,,,,4,,,47,64
296275,note_on,115,0,1,,,,,,,,0,,,64,0
296280,note_on,5,0,1,,,,,,,,0,,,66,106
296395,note_on,115,0,1,,,,,,,,0,,,66,0
296400,note_on,5,0,1,,,,,,,,0,,,68,106
296515,note_on,115,0,1,,,,,,,,0,,,68,0
296520,note_on,5,0,1,,,,,,,,0,,,64,106
296605,note_on,445,0,5,,,,,,,,4,,,47,0
296605,note_on,0,0,7,,,,,,,,6,,,76,0
296605,note_on,0,0,7,,,,,,,,6,,,71,0
296605,note_on,0,0,7,,,,,,,,6,,,68,0
296605,note_on,445,0,6,,,,,,,,5,,,35,0
296605,note_on,445,0,7,,,,,,,,6,,,47,0
296635,note_on,115,0,1,,,,,,,,0,,,64,0
296640,note_on,0,0,7,,,,,,,,6,,,60,85
296640,note_on,35,0,7,,,,,,,,6,,,76,85
296640,note_on,0,0,7,,,,,,,,6,,,67,85
296640,note_on,5,0,1,,,,,,,,0,,,76,106
296640,note_on,35,0,6,,,,,,,,5,,,48,64
296640,note_on,0,0,7,,,,,,,,6,,,72,85
296640,note_on,35,0,5,,,,,,,,4,,,60,64
296755,note_on,115,0,1,,,,,,,,0,,,76,0
296760,note_on,5,0,1,,,,,,,,0,,,77,106
296875,note_on,115,0,1,,,,,,,,0,,,77,0
296880,note_on,5,0,1,,,,,,,,0,,,79,106
296995,note_on,115,0,1,,,,,,,,0,,,79,0
297000,note_on,5,0,1,,,,,,,,0,,,76,106
297085,note_on,0,0,7,,,,,,,,6,,,67,0
297085,note_on,445,0,7,,,,,,,,6,,,60,0
297085,note_on,445,0,5,,,,,,,,4,,,60,0
297085,note_on,445,0,6,,,,,,,,5,,,48,0
297115,note_on,115,0,1,,,,,,,,0,,,76,0
297120,note_on,35,0,5,,,,,,,,4,,,57,64
297120,note_on,5,0,1,,,,,,,,0,,,72,106
297120,note_on,0,0,7,,,,,,,,6,,,57,85
297120,note_on,35,0,7,,,,,,,,6,,,69,85
297120,note_on,35,0,6,,,,,,,,5,,,45,64
297235,note_on,115,0,1,,,,,,,,0,,,72,0
297240,note_on,5,0,1,,,,,,,,0,,,74,106
297355,note_on,115,0,1,,,,,,,,0,,,74,0
297360,note_on,5,0,1,,,,,,,,0,,,76,106
297475,note_on,115,0,1,,,,,,,,0,,,76,0
297480,note_on,5,0,1,,,,,,,,0,,,72,106
297565,note_on,445,0,5,,,,,,,,4,,,57,0
297565,note_on,0,0,7,,,,,,,,6,,,69,0
297565,note_on,0,0,7,,,,,,,,6,,,76,0
297565,note_on,0,0,7,,,,,,,,6,,,72,0
297565,note_on,445,0,6,,,,,,,,5,,,45,0
297565,note_on,445,0,7,,,,,,,,6,,,57,0
297595,note_on,115,0,1,,,,,,,,0,,,72,0
297600,note_on,35,0,7,,,,,,,,6,,,77,85
297600,note_on,0,0,7,,,,,,,,6,,,72,85
297600,note_on,0,0,7,,,,,,,,6,,,69,85
297600,note_on,0,0,7,,,,,,,,6,,,53,85
297600,note_on,35,0,6,,,,,,,,5,,,41,64
297600,note_on,5,0,1,,,,,,,,0,,,69,106
297600,note_on,35,0,5,,,,,,,,4,,,53,64
297715,note_on,115,0,1,,,,,,,,0,,,69,0
297720,note_on,5,0,1,,,,,,,,0,,,71,106
297835,note_on,115,0,1,,,,,,,,0,,,71,0
297840,note_on,5,0,1,,,,,,,,0,,,72,106
297955,note_on,115,0,1,,,,,,,,0,,,72,0
297960,note_on,5,0,1,,,,,,,,0,,,69,106
298045,note_on,445,0,6,,,,,,,,5,,,41,0
298045,note_on,445,0,5,,,,,,,,4,,,53,0
298045,note_on,445,0,7,,,,,,,,6,,,53,0
298045,note_on,0,0,7,,,,,,,,6,,,72,0
298075,note_on,115,0,1,,,,,,,,0,,,69,0
298080,note_on,35,0,6,,,,,,,,5,,,38,64
298080,note_on,35,0,7,,,,,,,,6,,,74,85
298080,note_on,0,0,7,,,,,,,,6,,,50,85
298080,note_on,35,0,5,,,,,,,,4,,,50,64
298080,note_on,5,0,1,,,,,,,,0,,,65,106
298195,note_on,115,0,1,,,,,,,,0,,,65,0
298200,note_on,5,0,1,,,,,,,,0,,,67,106
298315,note_on,115,0,1,,,,,,,,0,,,67,0
298320,note_on,5,0,1,,,,,,,,0,,,69,106
298435,note_on,115,0,1,,,,,,,,0,,,69,0
298440,note_on,5,0,1,,,,,,,,0,,,65,106
298525,note_on,445,0,5,,,,,,,,4,,,50,0
298525,note_on,445,0,7,,,,,,,,6,,,50,0
298525,note_on,0,0,7,,,,,,,,6,,,77,0
298525,note_on,0,0,7,,,,,,,,6,,,69,0
298525,note_on,0,0,7,,,,,,,,6,,,74,0
298525,note_on,445,0,6,,,,,,,,5,,,38,0
298555,note_on,115,0,1,,,,,,,,0,,,65,0
298560,note_on,0,0,7,,,,,,,,6,,,62,85
298560,note_on,35,0,7,,,,,,,,6,,,74,85
298560,note_on,0,0,7,,,,,,,,6,,,69,85
298560,note_on,35,0,5,,,,,,,,4,,,62,64
298560,note_on,0,0,7,,,,,,,,6,,,65,85
298560,note_on,35,0,6,,,,,,,,5,,,50,64
298560,note_on,5,0,1,,,,,,,,0,,,77,106
298675,note_on,115,0,1,,,,,,,,0,,,77,0
298680,note_on,5,0,1,,,,,,,,0,,,79,106
298795,note_on,115,0,1,,,,,,,,0,,,79,0
298800,note_on,5,0,1,,,,,,,,0,,,81,106
298915,note_on,115,0,1,,,,,,,,0,,,81,0
298920,note_on,5,0,1,,,,,,,,0,,,77,106
299005,note_on,445,0,7,,,,,,,,6,,,62,0
299005,note_on,0,0,7,,,,,,,,6,,,69,0
299005,note_on,445,0,5,,,,,,,,4,,,62,0
299005,note_on,445,0,6,,,,,,,,5,,,50,0
299035,note_on,115,0,1,,,,,,,,0,,,77,0
299040,note_on,35,0,5,,,,,,,,4,,,59,64
299040,note_on,0,0,7,,,,,,,,6,,,59,85
299040,note_on,35,0,7,,,,,,,,6,,,71,85
299040,note_on,5,0,1,,,,,,,,0,,,74,106
299040,note_on,35,0,6,,,,,,,,5,,,47,64
299155,note_on,115,0,1,,,,,,,,0,,,74,0
299160,note_on,5,0,1,,,,,,,,0,,,76,106
299275,note_on,115,0,1,,,,,,,,0,,,76,0
299280,note_on,5,0,1,,,,,,,,0,,,77,106
299395,note_on,115,0,1,,,,,,,,0,,,77,0
299400,note_on,5,0,1,,,,,,,,0,,,74,106
299485,note_on,445,0,6,,,,,,,,5,,,47,0
299485,note_on,445,0,5,,,,,,,,4,,,59,0
299485,note_on,445,0,7,,,,,,,,6,,,59,0
299485,note_on,0,0,7,,,,,,,,6,,,71,0
299485,note_on,0,0,7,,,,,,,,6,,,65,0
299485,note_on,0,0,7,,,,,,,,6,,,74,0
299515,note_on,115,0,1,,,,,,,,0,,,74,0
299520,note_on,35,0,5,,,,,,,,4,,,56,64
299520,note_on,5,0,1,,,,,,,,0,,,71,106
299520,note_on,35,0,6,,,,,,,,5,,,44,64
299520,note_on,35,0,7,,,,,,,,6,,,74,85
299520,note_on,0,0,7,,,,,,,,6,,,68,85
299520,note_on,0,0,7,,,,,,,,6,,,56,85
299520,note_on,0,0,7,,,,,,,,6,,,71,85
299635,note_on,115,0,1,,,,,,,,0,,,71,0
299640,note_on,5,0,1,,,,,,,,0,,,72,106
299755,note_on,115,0,1,,,,,,,,0,,,72,0
299760,note_on,5,0,1,,,,,,,,0,,,74,106
299875,note_on,115,0,1,,,,,,,,0,,,74,0
299880,note_on,5,0,1,,,,,,,,0,,,71,106
299965,note_on,445,0,5,,,,,,,,4,,,56,0
299965,note_on,445,0,7,,,,,,,,6,,,56,0
299965,note_on,0,0,7,,,,,,,,6,,,74,0
299965,note_on,445,0,6,,,,,,,,5,,,44,0
299995,note_on,115,0,1,,,,,,,,0,,,71,0
300000,note_on,35,0,5,,,,,,,,4,,,52,64
300000,note_on,35,0,7,,,,,,,,6,,,76,85
300000,note_on,0,0,7,,,,,,,,6,,,52,85
300000,note_on,5,0,1,,,,,,,,0,,,68,106
300000,note_on,35,0,6,,,,,,,,5,,,40,64
300115,note_on,115,0,1,,,,,,,,0,,,68,0
300120,note_on,5,0,1,,,,,,,,0,,,69,106
300235,note_on,115,0,1,,,,,,,,0,,,69,0
300240,note_on,5,0,1,,,,,,,,0,,,71,106
300355,note_on,115,0,1,,,,,,,,0,,,71,0
300360,note_on,5,0,1,,,,,,,,0,,,68,106
300445,note_on,445,0,5,,,,,,,,4,,,52,0
300445,note_on,445,0,7,,,,,,,,6,,,52,0
300445,note_on,0,0,7,,,,,,,,6,,,71,0
300445,note_on,0,0,7,,,,,,,,6,,,68,0
300445,note_on,0,0,7,,,,,,,,6,,,76,0
300445,note_on,445,0,6,,,,,,,,5,,,40,0
300475,note_on,115,0,1,,,,,,,,0,,,68,0
300480,note_on,0,0,7,,,,,,,,6,,,48,85
300480,note_on,0,0,7,,,,,,,,6,,,57,85
300480,note_on,0,0,7,,,,,,,,6,,,64,85
300480,note_on,35,0,7,,,,,,,,6,,,72,85
300480,note_on,35,0,5,,,,,,,,4,,,48,64
300480,note_on,35,0,6,,,,,,,,5,,,36,64
300480,note_on,5,0,1,,,,,,,,0,,,64,106
300705,note_on,225,0,6,,,,,,,,5,,,36,0
300705,note_on,225,0,7,,,,,,,,6,,,48,0
300705,note_on,225,0,5,,,,,,,,4,,,48,0
300720,note_on,15,0,5,,,,,,,,4,,,48,64
300720,note_on,15,0,7,,,,,,,,6,,,48,85
300720,note_on,15,0,6,,,,,,,,5,,,36,64
300925,note_on,0,0,7,,,,,,,,6,,,57,0
300925,note_on,445,0,1,,,,,,,,0,,,64,0
300925,note_on,0,0,7,,,,,,,,6,,,64,0
300925,note_on,205,0,7,,,,,,,,6,,,72,0
300945,note_on,20,0,7,,,,,,,,6,,,48,0
300945,note_on,225,0,5,,,,,,,,4,,,48,0
300945,note_on,225,0,6,,,,,,,,5,,,36,0
300960,note_on,15,0,5,,,,,,,,4,,,48,64
300960,note_on,15,0,7,,,,,,,,6,,,48,85
300960,note_on,15,0,6,,,,,,,,5,,,36,64
301185,note_on,225,0,7,,,,,,,,6,,,48,0
301185,note_on,225,0,5,,,,,,,,4,,,48,0
301185,note_on,225,0,6,,,,,,,,5,,,36,0
301200,note_on,15,0,7,,,,,,,,6,,,57,85
301200,note_on,15,0,5,,,,,,,,4,,,57,64
301200,note_on,15,0,6,,,,,,,,5,,,45,64
301425,note_on,225,0,7,,,,,,,,6,,,57,0
301425,note_on,225,0,5,,,,,,,,4,,,57,0
301425,note_on,225,0,6,,,,,,,,5,,,45,0
301440,note_on,15,0,6,,,,,,,,5,,,40,64
301440,note_on,0,0,7,,,,,,,,6,,,52,85
301440,note_on,0,0,7,,,,,,,,6,,,64,85
301440,note_on,0,0,7,,,,,,,,6,,,68,85
301440,note_on,15,0,7,,,,,,,,6,,,71,85
301440,note_on,15,0,5,,,,,,,,4,,,52,64
301440,note_on,515,0,1,,,,,,,,0,,,88,106
301606,note_on,166,0,1,,,,,,,,0,,,88,0
301680,note_on,74,0,1,,,,,,,,0,,,76,106
301885,note_on,445,0,6,,,,,,,,5,,,40,0
301885,note_on,445,0,5,,,,,,,,4,,,52,0
301885,note_on,0,0,7,,,,,,,,6,,,71,0
301885,note_on,0,0,7,,,,,,,,6,,,64,0
301885,note_on,445,0,7,,,,,,,,6,,,52,0
301905,note_on,225,0,1,,,,,,,,0,,,76,0
301920,note_on,0,0,7,,,,,,,,6,,,52,85
301920,note_on,0,0,7,,,,,,,,6,,,62,85
301920,note_on,35,0,7,,,,,,,,6,,,71,85
301920,note_on,15,0,1,,,,,,,,0,,,86,106
301920,note_on,35,0,6,,,,,,,,5,,,40,64
301920,note_on,35,0,5,,,,,,,,4,,,52,64
302092,note_on,172,0,1,,,,,,,,0,,,86,0
302160,note_on,68,0,1,,,,,,,,0,,,76,106
302365,note_on,0,0,7,,,,,,,,6,,,68,0
302365,note_on,0,0,7,,,,,,,,6,,,62,0
302365,note_on,445,0,6,,,,,,,,5,,,40,0
302365,note_on,445,0,7,,,,,,,,6,,,52,0
302365,note_on,445,0,5,,,,,,,,4,,,52,0
302385,note_on,225,0,1,,,,,,,,0,,,76,0
302400,note_on,15,0,1,,,,,,,,0,,,84,106
302400,note_on,35,0,5,,,,,,,,4,,,52,64
302400,note_on,35,0,7,,,,,,,,6,,,68,85
302400,note_on,0,0,7,,,,,,,,6,,,64,85
302400,note_on,0,0,7,,,,,,,,6,,,52,85
302400,note_on,35,0,6,,,,,,,,5,,,40,64
302561,note_on,161,0,1,,,,,,,,0,,,84,0
302640,note_on,79,0,1,,,,,,,,0,,,76,106
302845,note_on,445,0,6,,,,,,,,5,,,40,0
302845,note_on,445,0,7,,,,,,,,6,,,52,0
302845,note_on,0,0,7,,,,,,,,6,,,71,0
302845,note_on,0,0,7,,,,,,,,6,,,64,0
302845,note_on,445,0,5,,,,,,,,4,,,52,0
302865,note_on,225,0,1,,,,,,,,0,,,76,0
302880,note_on,15,0,1,,,,,,,,0,,,83,106
302880,note_on,35,0,5,,,,,,,,4,,,52,64
302880,note_on,35,0,7,,,,,,,,6,,,71,85
302880,note_on,0,0,7,,,,,,,,6,,,64,85
302880,note_on,0,0,7,,,,,,,,6,,,52,85
302880,note_on,35,0,6,,,,,,,,5,,,40,64
303036,note_on,156,0,1,,,,,,,,0,,,83,0
303120,note_on,84,0,1,,,,,,,,0,,,76,106
303325,note_on,445,0,5,,,,,,,,4,,,52,0
303325,note_on,445,0,7,,,,,,,,6,,,52,0
303325,note_on,0,0,7,,,,,,,,6,,,68,0
303325,note_on,445,0,6,,,,,,,,5,,,40,0
303345,note_on,225,0,1,,,,,,,,0,,,76,0
303360,note_on,0,0,7,,,,,,,,6,,,52,85
303360,note_on,35,0,5,,,,,,,,4,,,52,64
303360,note_on,15,0,1,,,,,,,,0,,,88,106
303360,note_on,35,0,7,,,,,,,,6,,,68,85
303360,note_on,35,0,6,,,,,,,,5,,,40,64
303542,note_on,182,0,1,,,,,,,,0,,,88,0
303600,note_on,58,0,1,,,,,,,,0,,,76,106
303805,note_on,445,0,6,,,,,,,,5,,,40,0
303805,note_on,445,0,7,,,,,,,,6,,,52,0
303805,note_on,0,0,7,,,,,,,,6,,,64,0
303805,note_on,0,0,7,,,,,,,,6,,,71,0
303805,note_on,445,0,5,,,,,,,,4,,,52,0
303825,note_on,225,0,1,,,,,,,,0,,,76,0
303840,note_on,15,0,1,,,,,,,,0,,,86,106
303840,note_on,0,0,7,,,,,,,,6,,,52,85
303840,note_on,0,0,7,,,,,,,,6,,,62,85
303840,note_on,35,0,7,,,,,,,,6,,,71,85
303840,note_on,35,0,5,,,,,,,,4,,,52,64
303840,note_on,35,0,6,,,,,,,,5,,,40,64
304001,note_on,161,0,1,,,,,,,,0,,,86,0
304080,note_on,79,0,1,,,,,,,,0,,,76,106
304285,note_on,445,0,7,,,,,,,,6,,,52,0
304285,note_on,0,0,7,,,,,,,,6,,,62,0
304285,note_on,0,0,7,,,,,,,,6,,,68,0
304285,note_on,445,0,6,,,,,,,,5,,,40,0
304285,note_on,445,0,5,,,,,,,,4,,,52,0
304305,note_on,225,0,1,,,,,,,,0,,,76,0
304320,note_on,35,0,5,,,,,,,,4,,,52,64
304320,note_on,35,0,7,,,,,,,,6,,,68,85
304320,note_on,0,0,7,,,,,,,,6,,,64,85
304320,note_on,0,0,7,,,,,,,,6,,,52,85
304320,note_on,35,0,6,,,,,,,,5,,,40,64
304320,note_on,15,0,1,,,,,,,,0,,,84,106
304481,note_on,161,0,1,,,,,,,,0,,,84,0
304560,note_on,79,0,1,,,,,,,,0,,,76,106
304765,note_on,445,0,6,,,,,,,,5,,,40,0
304765,note_on,0,0,7,,,,,,,,6,,,71,0
304765,note_on,445,0,5,,,,,,,,4,,,52,0
304765,note_on,445,0,7,,,,,,,,6,,,52,0
304785,note_on,225,0,1,,,,,,,,0,,,76,0
304800,note_on,35,0,5,,,,,,,,4,,,52,64
304800,note_on,15,0,1,,,,,,,,0,,,83,106
304800,note_on,0,0,7,,,,,,,,6,,,52,85
304800,note_on,35,0,7,,,,,,,,6,,,71,85
304800,note_on,35,0,6,,,,,,,,5,,,40,64
304956,note_on,156,0,1,,,,,,,,0,,,83,0
305040,note_on,84,0,1,,,,,,,,0,,,76,106
305245,note_on,445,0,6,,,,,,,,5,,,40,0
305245,note_on,445,0,5,,,,,,,,4,,,52,0
305245,note_on,445,0,7,,,,,,,,6,,,52,0
305245,note_on,0,0,7,,,,,,,,6,,,68,0
305245,note_on,0,0,7,,,,,,,,6,,,64,0
305245,note_on,0,0,7,,,,,,,,6,,,71,0
305265,note_on,225,0,1,,,,,,,,0,,,76,0
305280,note_on,0,0,7,,,,,,,,6,,,71,85
305280,note_on,0,0,7,,,,,,,,6,,,68,85
305280,note_on,35,0,6,,,,,,,,5,,,40,64
305280,note_on,35,0,7,,,,,,,,6,,,74,85
305280,note_on,35,0,5,,,,,,,,4,,,52,64
305280,note_on,0,0,7,,,,,,,,6,,,52,85
305280,note_on,15,0,1,,,,,,,,0,,,74,106
305395,note_on,115,0,1,,,,,,,,0,,,74,0
305400,note_on,5,0,1,,,,,,,,0,,,76,106
305515,note_on,115,0,1,,,,,,,,0,,,76,0
305520,note_on,5,0,1,,,,,,,,0,,,77,106
305635,note_on,115,0,1,,,,,,,,0,,,77,0
305640,note_on,5,0,1,,,,,,,,0,,,74,106
305725,note_on,445,0,7,,,,,,,,6,,,52,0
305725,note_on,445,0,6,,,,,,,,5,,,40,0
305725,note_on,445,0,5,,,,,,,,4,,,52,0
305755,note_on,115,0,1,,,,,,,,0,,,74,0
305760,note_on,5,0,1,,,,,,,,0,,,71,106
305760,note_on,35,0,6,,,,,,,,5,,,40,64
305760,note_on,35,0,7,,,,,,,,6,,,52,85
305760,note_on,35,0,5,,,,,,,,4,,,52,64
305875,note_on,115,0,1,,,,,,,,0,,,71,0
305880,note_on,5,0,1,,,,,,,,0,,,72,106
305995,note_on,115,0,1,,,,,,,,0,,,72,0
306000,note_on,5,0,1,,,,,,,,0,,,74,106
306115,note_on,115,0,1,,,,,,,,0,,,74,0
306120,note_on,5,0,1,,,,,,,,0,,,71,106
306205,note_on,0,0,7,,,,,,,,6,,,68,0
306205,note_on,445,0,6,,,,,,,,5,,,40,0
306205,note_on,445,0,5,,,,,,,,4,,,52,0
306205,note_on,0,0,7,,,,,,,,6,,,74,0
306205,note_on,0,0,7,,,,,,,,6,,,71,0
306205,note_on,445,0,7,,,,,,,,6,,,52,0
306235,note_on,115,0,1,,,,,,,,0,,,71,0
306240,note_on,0,0,7,,,,,,,,6,,,68,85
306240,note_on,0,0,7,,,,,,,,6,,,52,85
306240,note_on,35,0,5,,,,,,,,4,,,52,64
306240,note_on,35,0,7,,,,,,,,6,,,74,85
306240,note_on,0,0,7,,,,,,,,6,,,71,85
306240,note_on,5,0,1,,,,,,,,0,,,68,106
306240,note_on,35,0,6,,,,,,,,5,,,40,64
306355,note_on,115,0,1,,,,,,,,0,,,68,0
306360,note_on,5,0,1,,,,,,,,0,,,69,106
306475,note_on,115,0,1,,,,,,,,0,,,69,0
306480,note_on,5,0,1,,,,,,,,0,,,71,106
306595,note_on,115,0,1,,,,,,,,0,,,71,0
306600,note_on,5,0,1,,,,,,,,0,,,68,106
306685,note_on,445,0,5,,,,,,,,4,,,52,0
306685,note_on,445,0,7,,,,,,,,6,,,52,0
306685,note_on,445,0,6,,,,,,,,5,,,40,0
306715,note_on,115,0,1,,,,,,,,0,,,68,0
306720,note_on,35,0,5,,,,,,,,4,,,52,64
306720,note_on,5,0,1,,,,,,,,0,,,62,106
306720,note_on,35,0,7,,,,,,,,6,,,52,85
306720,note_on,35,0,6,,,,,,,,5,,,40,64
306835,note_on,115,0,1,,,,,,,,0,,,62,0
306840,note_on,5,0,1,,,,,,,,0,,,64,106
306955,note_on,115,0,1,,,,,,,,0,,,64,0
306960,note_on,5,0,1,,,,,,,,0,,,65,106
307075,note_on,115,0,1,,,,,,,,0,,,65,0
307080,note_on,5,0,1,,,,,,,,0,,,62,106
307165,note_on,445,0,5,,,,,,,,4,,,52,0
307165,note_on,0,0,7,,,,,,,,6,,,71,0
307165,note_on,445,0,6,,,,,,,,5,,,40,0
307165,note_on,0,0,7,,,,,,,,6,,,74,0
307165,note_on,0,0,7,,,,,,,,6,,,68,0
307165,note_on,445,0,7,,,,,,,,6,,,52,0
307195,note_on,115,0,1,,,,,,,,0,,,62,0
307200,note_on,5,0,1,,,,,,,,0,,,60,106
307200,note_on,0,0,7,,,,,,,,6,,,69,85
307200,note_on,35,0,7,,,,,,,,6,,,76,85
307200,note_on,0,0,7,,,,,,,,6,,,72,85
307200,note_on,35,0,5,,,,,,,,4,,,45,64
307200,note_on,0,0,7,,,,,,,,6,,,45,85
307200,note_on,35,0,6,,,,,,,,5,,,33,64
307315,note_on,115,0,1,,,,,,,,0,,,60,0
307320,note_on,5,0,1,,,,,,,,0,,,64,106
307435,note_on,115,0,1,,,,,,,,0,,,64,0
307440,note_on,5,0,1,,,,,,,,0,,,69,106
307645,note_on,445,0,6,,,,,,,,5,,,33,0
307645,note_on,445,0,7,,,,,,,,6,,,45,0
307645,note_on,445,0,5,,,,,,,,4,,,45,0
307680,note_on,35,0,5,,,,,,,,4,,,45,64
307680,note_on,35,0,7,,,,,,,,6,,,45,85
307680,note_on,35,0,6,,,,,,,,5,,,33,64
307795,note_on,355,0,1,,,,,,,,0,,,69,0
307800,note_on,5,0,1,,,,,,,,0,,,72,106
307915,note_on,115,0,1,,,,,,,,0,,,72,0
307920,note_on,5,0,1,,,,,,,,0,,,71,106
308035,note_on,115,0,1,,,,,,,,0,,,71,0
308040,note_on,5,0,1,,,,,,,,0,,,69,106
308085,note_on,0,0,7,,,,,,,,6,,,72,0
308085,note_on,405,0,7,,,,,,,,6,,,69,0
308125,note_on,40,0,7,,,,,,,,6,,,76,0
308125,note_on,445,0,5,,,,,,,,4,,,45,0
308125,note_on,0,0,7,,,,,,,,6,,,45,0
308125,note_on,445,0,6,,,,,,,,5,,,33,0
308155,note_on,115,0,1,,,,,,,,0,,,69,0
308160,note_on,5,0,1,,,,,,,,0,,,60,106
308160,note_on,0,0,7,,,,,,,,6,,,72,85
308160,note_on,0,0,7,,,,,,,,6,,,69,85
308160,note_on,0,0,7,,,,,,,,6,,,45,85
308160,note_on,35,0,5,,,,,,,,4,,,45,64
308160,note_on,35,0,7,,,,,,,,6,,,76,85
308160,note_on,35,0,6,,,,,,,,5,,,33,64
308275,note_on,115,0,1,,,,,,,,0,,,60,0
308280,note_on,5,0,1,,,,,,,,0,,,64,106
308395,note_on,115,0,1,,,,,,,,0,,,64,0
308400,note_on,5,0,1,,,,,,,,0,,,69,106
308605,note_on,445,0,6,,,,,,,,5,,,33,0
308605,note_on,445,0,7,,,,,,,,6,,,45,0
308605,note_on,445,0,5,,,,,,,,4,,,45,0
308640,note_on,35,0,6,,,,,,,,5,,,33,64
308640,note_on,35,0,7,,,,,,,,6,,,45,85
308640,note_on,35,0,5,,,,,,,,4,,,45,64
308755,note_on,355,0,1,,,,,,,,0,,,69,0
308760,note_on,5,0,1,,,,,,,,0,,,72,106
308875,note_on,115,0,1,,,,,,,,0,,,72,0
308880,note_on,5,0,1,,,,,,,,0,,,71,106
308995,note_on,115,0,1,,,,,,,,0,,,71,0
309000,note_on,5,0,1,,,,,,,,0,,,69,106
309045,note_on,0,0,7,,,,,,,,6,,,69,0
309045,note_on,0,0,7,,,,,,,,6,,,72,0
309045,note_on,405,0,7,,,,,,,,6,,,76,0
309085,note_on,445,0,6,,,,,,,,5,,,33,0
309085,note_on,445,0,5,,,,,,,,4,,,45,0
309085,note_on,40,0,7,,,,,,,,6,,,45,0
309115,note_on,115,0,1,,,,,,,,0,,,69,0
309120,note_on,35,0,6,,,,,,,,5,,,33,64
309120,note_on,35,0,5,,,,,,,,4,,,45,64
309120,note_on,35,0,7,,,,,,,,6,,,76,85
309120,note_on,5,0,1,,,,,,,,0,,,81,106
309120,note_on,0,0,7,,,,,,,,6,,,69,85
309120,note_on,0,0,7,,,,,,,,6,,,72,85
309120,note_on,0,0,7,,,,,,,,6,,,45,85
309180,note_on,60,0,1,,,,,,,,0,,,81,0
309360,note_on,180,0,1,,,,,,,,0,,,69,106
309420,note_on,60,0,1,,,,,,,,0,,,69,0
309565,note_on,0,0,7,,,,,,,,6,,,72,0
309565,note_on,0,0,7,,,,,,,,6,,,69,0
309565,note_on,0,0,7,,,,,,,,6,,,76,0
309565,note_on,445,0,7,,,,,,,,6,,,45,0
309565,note_on,445,0,5,,,,,,,,4,,,45,0
309565,note_on,445,0,6,,,,,,,,5,,,33,0
309600,note_on,35,0,5,,,,,,,,4,,,52,64
309600,note_on,180,0,1,,,,,,,,0,,,72,106
309600,note_on,35,0,6,,,,,,,,5,,,40,64
309600,note_on,35,0,7,,,,,,,,6,,,71,85
309600,note_on,0,0,7,,,,,,,,6,,,68,85
309600,note_on,0,0,7,,,,,,,,6,,,64,85
309600,note_on,0,0,7,,,,,,,,6,,,52,85
309660,note_on,60,0,1,,,,,,,,0,,,72,0
309660,note_on,0,0,1,,,,,,,,0,,,71,106
309720,note_on,60,0,1,,,,,,,,0,,,71,0
309720,note_on,0,0,1,,,,,,,,0,,,72,106
309780,note_on,0,0,1,,,,,,,,0,,,71,106
309780,note_on,60,0,1,,,,,,,,0,,,72,0
310045,note_on,0,0,7,,,,,,,,6,,,71,0
310045,note_on,0,0,7,,,,,,,,6,,,68,0
310045,note_on,0,0,7,,,,,,,,6,,,64,0
310045,note_on,445,0,5,,,,,,,,4,,,52,0
310045,note_on,445,0,6,,,,,,,,5,,,40,0
310045,note_on,445,0,7,,,,,,,,6,,,52,0
310065,note_on,285,0,1,,,,,,,,0,,,71,0
310080,note_on,35,0,7,,,,,,,,6,,,72,85
310080,note_on,0,0,7,,,,,,,,6,,,69,85
310080,note_on,35,0,6,,,,,,,,5,,,33,64
310080,note_on,0,0,7,,,,,,,,6,,,45,85
310080,note_on,15,0,1,,,,,,,,0,,,69,106
310080,note_on,35,0,5,,,,,,,,4,,,45,64
310080,note_on,0,0,7,,,,,,,,6,,,64,85
310525,note_on,445,0,5,,,,,,,,4,,,45,0
310525,note_on,445,0,1,,,,,,,,0,,,69,0
310525,note_on,445,0,6,,,,,,,,5,,,33,0
310525,note_on,445,0,7,,,,,,,,6,,,45,0
310745,note_on,0,0,7,,,,,,,,6,,,64,0
310745,note_on,0,0,7,,,,,,,,6,,,69,0
310745,note_on,220,0,7,,,,,,,,6,,,72,0
310800,note_on,23315,0,2,,,,,,,,1,,,69,85
310800,note_on,275,0,1,,,,,,,,0,,,69,85
310800,note_on,23315,0,3,,,,,,,,2,,,69,85
311025,note_on,225,0,2,,,,,,,,1,,,69,0
311025,note_on,225,0,1,,,,,,,,0,,,69,0
311025,note_on,225,0,3,,,,,,,,2,,,69,0
311040,note_on,15,0,1,,,,,,,,0,,,64,85
311040,note_on,15,0,2,,,,,,,,1,,,64,85
311040,note_on,15,0,3,,,,,,,,2,,,64,85
311265,note_on,225,0,1,,,,,,,,0,,,64,0
311265,note_on,225,0,3,,,,,,,,2,,,64,0
311265,note_on,225,0,2,,,,,,,,1,,,64,0
311280,note_on,15,0,3,,,,,,,,2,,,64,85
311280,note_on,15,0,1,,,,,,,,0,,,64,85
311280,note_on,15,0,2,,,,,,,,1,,,64,85
311505,note_on,225,0,1,,,,,,,,0,,,64,0
311505,note_on,225,0,2,,,,,,,,1,,,64,0
311505,note_on,225,0,3,,,,,,,,2,,,64,0
311520,note_on,15,0,1,,,,,,,,0,,,64,85
311520,note_on,15,0,3,,,,,,,,2,,,64,85
311520,note_on,15,0,2,,,,,,,,1,,,64,85
311745,note_on,225,0,2,,,,,,,,1,,,64,0
311745,note_on,225,0,1,,,,,,,,0,,,64,0
311745,note_on,225,0,3,,,,,,,,2,,,64,0
311760,note_on,24275,0,4,,,,,,,,3,,,64,85
311760,note_on,1235,0,5,,,,,,,,4,,,57,85
311760,note_on,15,0,2,,,,,,,,1,,,69,85
311760,note_on,15,0,1,,,,,,,,0,,,69,85
311760,note_on,15,0,3,,,,,,,,2,,,72,85
311760,note_on,1235,0,6,,,,,,,,5,,,45,85
311760,note_on,0,0,7,,,,,,,,6,,,57,85
311760,note_on,1015,0,7,,,,,,,,6,,,69,85
311985,note_on,225,0,1,,,,,,,,0,,,69,0
311985,note_on,225,0,3,,,,,,,,2,,,72,0
311985,note_on,225,0,7,,,,,,,,6,,,57,0
311985,note_on,0,0,7,,,,,,,,6,,,69,0
311985,note_on,225,0,5,,,,,,,,4,,,57,0
311985,note_on,225,0,6,,,,,,,,5,,,45,0
311985,note_on,225,0,4,,,,,,,,3,,,64,0
311985,note_on,225,0,2,,,,,,,,1,,,69,0
312000,note_on,15,0,5,,,,,,,,4,,,52,85
312000,note_on,15,0,4,,,,,,,,3,,,64,85
312000,note_on,15,0,1,,,,,,,,0,,,69,85
312000,note_on,15,0,2,,,,,,,,1,,,69,85
312000,note_on,15,0,6,,,,,,,,5,,,40,85
312000,note_on,0,0,7,,,,,,,,6,,,52,85
312000,note_on,0,0,7,,,,,,,,6,,,69,85
312000,note_on,0,0,7,,,,,,,,6,,,72,85
312000,note_on,15,0,7,,,,,,,,6,,,76,85
312000,note_on,15,0,3,,,,,,,,2,,,72,85
312225,note_on,225,0,7,,,,,,,,6,,,52,0
312225,note_on,0,0,7,,,,,,,,6,,,76,0
312225,note_on,225,0,5,,,,,,,,4,,,52,0
312225,note_on,225,0,6,,,,,,,,5,,,40,0
312225,note_on,225,0,4,,,,,,,,3,,,64,0
312240,note_on,15,0,4,,,,,,,,3,,,64,85
312240,note_on,15,0,5,,,,,,,,4,,,52,85
312240,note_on,0,0,7,,,,,,,,6,,,52,85
312240,note_on,15,0,7,,,,,,,,6,,,74,85
312240,note_on,15,0,6,,,,,,,,5,,,40,85
312355,note_on,115,0,7,,,,,,,,6,,,74,0
312360,note_on,5,0,7,,,,,,,,6,,,72,85
312445,note_on,445,0,3,,,,,,,,2,,,72,0
312445,note_on,85,0,7,,,,,,,,6,,,72,0
312445,note_on,445,0,1,,,,,,,,0,,,69,0
312445,note_on,445,0,2,,,,,,,,1,,,69,0
312445,note_on,0,0,7,,,,,,,,6,,,69,0
312465,note_on,20,0,7,,,,,,,,6,,,52,0
312465,note_on,225,0,5,,,,,,,,4,,,52,0
312465,note_on,225,0,4,,,,,,,,3,,,64,0
312465,note_on,225,0,6,,,,,,,,5,,,40,0
312475,note_on,10,0,7,,,,,,,,6,,,72,0
312480,note_on,5,0,7,,,,,,,,6,,,71,85
312480,note_on,35,0,3,,,,,,,,2,,,71,85
312480,note_on,15,0,6,,,,,,,,5,,,40,85
312480,note_on,15,0,4,,,,,,,,3,,,64,85
312480,note_on,0,0,7,,,,,,,,6,,,52,85
312480,note_on,35,0,1,,,,,,,,0,,,68,85
312480,note_on,0,0,7,,,,,,,,6,,,68,85
312480,note_on,35,0,2,,,,,,,,1,,,68,85
312480,note_on,0,0,7,,,,,,,,6,,,64,85
312480,note_on,15,0,5,,,,,,,,4,,,52,85
312705,note_on,225,0,3,,,,,,,,2,,,71,0
312705,note_on,225,0,2,,,,,,,,1,,,68,0
312705,note_on,225,0,5,,,,,,,,4,,,52,0
312705,note_on,225,0,1,,,,,,,,0,,,68,0
312705,note_on,225,0,6,,,,,,,,5,,,40,0
312705,note_on,225,0,7,,,,,,,,6,,,52,0
312705,note_on,225,0,4,,,,,,,,3,,,64,0
312720,note_on,15,0,4,,,,,,,,3,,,64,85
312720,note_on,15,0,1,,,,,,,,0,,,69,85
312720,note_on,15,0,3,,,,,,,,2,,,72,85
312720,note_on,15,0,5,,,,,,,,4,,,57,85
312720,note_on,15,0,7,,,,,,,,6,,,57,85
312720,note_on,15,0,6,,,,,,,,5,,,45,85
312720,note_on,15,0,2,,,,,,,,1,,,69,85
312925,note_on,0,0,7,,,,,,,,6,,,68,0
312925,note_on,205,0,7,,,,,,,,6,,,71,0
312925,note_on,0,0,7,,,,,,,,6,,,64,0
312945,note_on,225,0,4,,,,,,,,3,,,64,0
312945,note_on,225,0,3,,,,,,,,2,,,72,0
312945,note_on,225,0,5,,,,,,,,4,,,57,0
312945,note_on,225,0,1,,,,,,,,0,,,69,0
312945,note_on,20,0,7,,,,,,,,6,,,57,0
312945,note_on,225,0,2,,,,,,,,1,,,69,0
312945,note_on,225,0,6,,,,,,,,5,,,45,0
312960,note_on,0,0,7,,,,,,,,6,,,64,85
312960,note_on,0,0,7,,,,,,,,6,,,52,85
312960,note_on,15,0,3,,,,,,,,2,,,64,85
312960,note_on,15,0,1,,,,,,,,0,,,64,85
312960,note_on,15,0,6,,,,,,,,5,,,40,85
312960,note_on,15,0,7,,,,,,,,6,,,71,85
312960,note_on,15,0,5,,,,,,,,4,,,52,85
312960,note_on,15,0,4,,,,,,,,3,,,64,85
312960,note_on,15,0,2,,,,,,,,1,,,64,85
312960,note_on,0,0,7,,,,,,,,6,,,68,85
313185,note_on,225,0,3,,,,,,,,2,,,64,0
313185,note_on,225,0,2,,,,,,,,1,,,64,0
313185,note_on,225,0,1,,,,,,,,0,,,64,0
313200,note_on,15,0,3,,,,,,,,2,,,64,85
313200,note_on,15,0,1,,,,,,,,0,,,64,85
313200,note_on,15,0,2,,,,,,,,1,,,64,85
313425,note_on,225,0,1,,,,,,,,0,,,64,0
313425,note_on,225,0,3,,,,,,,,2,,,64,0
313425,note_on,225,0,2,,,,,,,,1,,,64,0
313440,note_on,15,0,3,,,,,,,,2,,,64,85
313440,note_on,15,0,1,,,,,,,,0,,,64,85
313440,note_on,15,0,2,,,,,,,,1,,,64,85
313625,note_on,665,0,5,,,,,,,,4,,,52,0
313625,note_on,665,0,7,,,,,,,,6,,,52,0
313625,note_on,0,0,7,,,,,,,,6,,,71,0
313625,note_on,0,0,7,,,,,,,,6,,,68,0
313625,note_on,0,0,7,,,,,,,,6,,,64,0
313625,note_on,665,0,4,,,,,,,,3,,,64,0
313625,note_on,665,0,6,,,,,,,,5,,,40,0
313665,note_on,225,0,3,,,,,,,,2,,,64,0
313665,note_on,225,0,1,,,,,,,,0,,,64,0
313665,note_on,225,0,2,,,,,,,,1,,,64,0
313680,note_on,55,0,5,,,,,,,,4,,,64,85
313680,note_on,55,0,7,,,,,,,,6,,,71,85
313680,note_on,15,0,3,,,,,,,,2,,,71,85
313680,note_on,15,0,1,,,,,,,,0,,,74,85
313680,note_on,0,0,7,,,,,,,,6,,,68,85
313680,note_on,0,0,7,,,,,,,,6,,,64,85
313680,note_on,0,0,7,,,,,,,,6,,,62,85
313680,note_on,55,0,6,,,,,,,,5,,,52,85
313680,note_on,55,0,4,,,,,,,,3,,,68,85
313680,note_on,15,0,2,,,,,,,,1,,,74,85
313905,note_on,225,0,7,,,,,,,,6,,,64,0
313905,note_on,0,0,7,,,,,,,,6,,,68,0
313905,note_on,225,0,5,,,,,,,,4,,,64,0
313905,note_on,225,0,1,,,,,,,,0,,,74,0
313905,note_on,225,0,3,,,,,,,,2,,,71,0
313905,note_on,0,0,7,,,,,,,,6,,,71,0
313905,note_on,225,0,2,,,,,,,,1,,,74,0
313905,note_on,0,0,7,,,,,,,,6,,,62,0
313905,note_on,225,0,4,,,,,,,,3,,,68,0
313905,note_on,225,0,6,,,,,,,,5,,,52,0
313920,note_on,15,0,5,,,,,,,,4,,,52,85
313920,note_on,15,0,6,,,,,,,,5,,,40,85
313920,note_on,15,0,7,,,,,,,,6,,,74,85
313920,note_on,0,0,7,,,,,,,,6,,,71,85
313920,note_on,0,0,7,,,,,,,,6,,,68,85
313920,note_on,0,0,7,,,,,,,,6,,,52,85
313920,note_on,15,0,1,,,,,,,,0,,,74,85
313920,note_on,15,0,3,,,,,,,,2,,,71,85
313920,note_on,15,0,2,,,,,,,,1,,,74,85
313920,note_on,15,0,4,,,,,,,,3,,,64,85
314145,note_on,225,0,7,,,,,,,,6,,,52,0
314145,note_on,225,0,4,,,,,,,,3,,,64,0
314145,note_on,225,0,6,,,,,,,,5,,,40,0
314145,note_on,225,0,5,,,,,,,,4,,,52,0
314160,note_on,15,0,7,,,,,,,,6,,,52,85
314160,note_on,15,0,6,,,,,,,,5,,,40,85
314160,note_on,15,0,5,,,,,,,,4,,,52,85
314160,note_on,15,0,4,,,,,,,,3,,,64,85
314365,note_on,445,0,3,,,,,,,,2,,,71,0
314365,note_on,445,0,1,,,,,,,,0,,,74,0
314365,note_on,445,0,2,,,,,,,,1,,,74,0
314365,note_on,0,0,7,,,,,,,,6,,,71,0
314365,note_on,205,0,7,,,,,,,,6,,,74,0
314385,note_on,225,0,5,,,,,,,,4,,,52,0
314385,note_on,20,0,7,,,,,,,,6,,,52,0
314385,note_on,225,0,4,,,,,,,,3,,,64,0
314385,note_on,225,0,6,,,,,,,,5,,,40,0
314400,note_on,15,0,6,,,,,,,,5,,,40,85
314400,note_on,35,0,1,,,,,,,,0,,,72,85
314400,note_on,0,0,7,,,,,,,,6,,,52,85
314400,note_on,15,0,7,,,,,,,,6,,,76,85
314400,note_on,15,0,5,,,,,,,,4,,,52,85
314400,note_on,35,0,2,,,,,,,,1,,,72,85
314400,note_on,15,0,4,,,,,,,,3,,,64,85
314400,note_on,35,0,3,,,,,,,,2,,,69,85
314400,note_on,0,0,7,,,,,,,,6,,,72,85
314625,note_on,225,0,2,,,,,,,,1,,,72,0
314625,note_on,225,0,1,,,,,,,,0,,,72,0
314625,note_on,225,0,5,,,,,,,,4,,,52,0
314625,note_on,225,0,7,,,,,,,,6,,,52,0
314625,note_on,225,0,3,,,,,,,,2,,,69,0
314625,note_on,225,0,6,,,,,,,,5,,,40,0
314625,note_on,225,0,4,,,,,,,,3,,,64,0
314640,note_on,15,0,3,,,,,,,,2,,,72,85
314640,note_on,15,0,5,,,,,,,,4,,,57,85
314640,note_on,15,0,1,,,,,,,,0,,,69,85
314640,note_on,15,0,4,,,,,,,,3,,,64,85
314640,note_on,15,0,6,,,,,,,,5,,,45,85
314640,note_on,15,0,7,,,,,,,,6,,,57,85
314640,note_on,15,0,2,,,,,,,,1,,,69,85
314805,note_on,165,0,7,,,,,,,,6,,,68,0
314845,note_on,0,0,7,,,,,,,,6,,,72,0
314845,note_on,40,0,7,,,,,,,,6,,,76,0
314865,note_on,225,0,4,,,,,,,,3,,,64,0
314865,note_on,225,0,2,,,,,,,,1,,,69,0
314865,note_on,225,0,6,,,,,,,,5,,,45,0
314865,note_on,225,0,3,,,,,,,,2,,,72,0
314865,note_on,225,0,1,,,,,,,,0,,,69,0
314865,note_on,225,0,5,,,,,,,,4,,,57,0
314865,note_on,20,0,7,,,,,,,,6,,,57,0
314880,note_on,15,0,7,,,,,,,,6,,,76,85
314880,note_on,15,0,1,,,,,,,,0,,,64,85
314880,note_on,0,0,7,,,,,,,,6,,,71,85
314880,note_on,0,0,7,,,,,,,,6,,,68,85
314880,note_on,0,0,7,,,,,,,,6,,,52,85
314880,note_on,15,0,5,,,,,,,,4,,,52,85
314880,note_on,15,0,6,,,,,,,,5,,,40,85
314880,note_on,15,0,4,,,,,,,,3,,,64,85
314880,note_on,15,0,2,,,,,,,,1,,,64,85
314880,note_on,15,0,3,,,,,,,,2,,,64,85
315105,note_on,225,0,3,,,,,,,,2,,,64,0
315105,note_on,225,0,1,,,,,,,,0,,,64,0
315105,note_on,225,0,2,,,,,,,,1,,,64,0
315120,note_on,15,0,3,,,,,,,,2,,,64,85
315120,note_on,15,0,2,,,,,,,,1,,,64,85
315120,note_on,15,0,1,,,,,,,,0,,,64,85
315325,note_on,445,0,7,,,,,,,,6,,,68,0
315325,note_on,0,0,7,,,,,,,,6,,,71,0
315345,note_on,225,0,2,,,,,,,,1,,,64,0
315345,note_on,225,0,3,,,,,,,,2,,,64,0
315345,note_on,225,0,1,,,,,,,,0,,,64,0
315360,note_on,15,0,1,,,,,,,,0,,,64,85
315360,note_on,15,0,2,,,,,,,,1,,,64,85
315360,note_on,15,0,3,,,,,,,,2,,,64,85
315545,note_on,665,0,6,,,,,,,,5,,,40,0
315545,note_on,665,0,5,,,,,,,,4,,,52,0
315545,note_on,220,0,7,,,,,,,,6,,,76,0
315545,note_on,0,0,7,,,,,,,,6,,,52,0
315545,note_on,665,0,4,,,,,,,,3,,,64,0
315585,note_on,225,0,2,,,,,,,,1,,,64,0
315585,note_on,225,0,1,,,,,,,,0,,,64,0
315585,note_on,225,0,3,,,,,,,,2,,,64,0
315600,note_on,55,0,6,,,,,,,,5,,,44,85
315600,note_on,55,0,7,,,,,,,,6,,,74,85
315600,note_on,55,0,4,,,,,,,,3,,,71,85
315600,note_on,55,0,5,,,,,,,,4,,,56,85
315600,note_on,15,0,2,,,,,,,,1,,,74,85
315600,note_on,0,0,7,,,,,,,,6,,,56,85
315600,note_on,15,0,1,,,,,,,,0,,,74,85
315600,note_on,15,0,3,,,,,,,,2,,,77,85
315825,note_on,225,0,4,,,,,,,,3,,,71,0
315825,note_on,225,0,3,,,,,,,,2,,,77,0
315825,note_on,0,0,7,,,,,,,,6,,,74,0
315825,note_on,225,0,5,,,,,,,,4,,,56,0
315825,note_on,225,0,2,,,,,,,,1,,,74,0
315825,note_on,225,0,6,,,,,,,,5,,,44,0
315825,note_on,225,0,1,,,,,,,,0,,,74,0
315825,note_on,225,0,7,,,,,,,,6,,,56,0
315840,note_on,0,0,7,,,,,,,,6,,,65,85
315840,note_on,0,0,7,,,,,,,,6,,,45,85
315840,note_on,15,0,7,,,,,,,,6,,,74,85
315840,note_on,15,0,1,,,,,,,,0,,,74,85
315840,note_on,15,0,3,,,,,,,,2,,,77,85
315840,note_on,15,0,6,,,,,,,,5,,,33,85
315840,note_on,15,0,2,,,,,,,,1,,,74,85
315840,note_on,15,0,5,,,,,,,,4,,,45,85
315840,note_on,0,0,7,,,,,,,,6,,,69,85
315840,note_on,15,0,4,,,,,,,,3,,,69,85
316065,note_on,225,0,7,,,,,,,,6,,,45,0
316065,note_on,225,0,4,,,,,,,,3,,,69,0
316065,note_on,225,0,6,,,,,,,,5,,,33,0
316065,note_on,225,0,5,,,,,,,,4,,,45,0
316080,note_on,15,0,5,,,,,,,,4,,,45,85
316080,note_on,15,0,4,,,,,,,,3,,,69,85
316080,note_on,15,0,6,,,,,,,,5,,,33,85
316080,note_on,15,0,7,,,,,,,,6,,,45,85
316285,note_on,445,0,2,,,,,,,,1,,,74,0
316285,note_on,205,0,7,,,,,,,,6,,,65,0
316285,note_on,0,0,7,,,,,,,,6,,,74,0
316285,note_on,445,0,3,,,,,,,,2,,,77,0
316285,note_on,445,0,1,,,,,,,,0,,,74,0
316305,note_on,20,0,7,,,,,,,,6,,,45,0
316305,note_on,225,0,4,,,,,,,,3,,,69,0
316305,note_on,225,0,6,,,,,,,,5,,,33,0
316305,note_on,225,0,5,,,,,,,,4,,,45,0
316320,note_on,35,0,1,,,,,,,,0,,,73,85
316320,note_on,0,0,7,,,,,,,,6,,,64,85
316320,note_on,15,0,6,,,,,,,,5,,,33,85
316320,note_on,15,0,5,,,,,,,,4,,,45,85
316320,note_on,35,0,3,,,,,,,,2,,,76,85
316320,note_on,35,0,2,,,,,,,,1,,,73,85
316320,note_on,15,0,4,,,,,,,,3,,,69,85
316320,note_on,15,0,7,,,,,,,,6,,,73,85
316320,note_on,0,0,7,,,,,,,,6,,,45,85
316545,note_on,225,0,6,,,,,,,,5,,,33,0
316545,note_on,225,0,4,,,,,,,,3,,,69,0
316545,note_on,225,0,7,,,,,,,,6,,,45,0
316545,note_on,225,0,2,,,,,,,,1,,,73,0
316545,note_on,225,0,3,,,,,,,,2,,,76,0
316545,note_on,225,0,5,,,,,,,,4,,,45,0
316545,note_on,225,0,1,,,,,,,,0,,,73,0
316560,note_on,15,0,2,,,,,,,,1,,,76,85
316560,note_on,15,0,7,,,,,,,,6,,,57,85
316560,note_on,15,0,5,,,,,,,,4,,,57,85
316560,note_on,15,0,6,,,,,,,,5,,,45,85
316560,note_on,15,0,4,,,,,,,,3,,,69,85
316560,note_on,15,0,1,,,,,,,,0,,,76,85
316560,note_on,15,0,3,,,,,,,,2,,,73,85
316765,note_on,0,0,7,,,,,,,,6,,,73,0
316765,note_on,0,0,7,,,,,,,,6,,,64,0
316765,note_on,205,0,7,,,,,,,,6,,,69,0
316785,note_on,225,0,6,,,,,,,,5,,,45,0
316785,note_on,225,0,2,,,,,,,,1,,,76,0
316785,note_on,20,0,7,,,,,,,,6,,,57,0
316785,note_on,225,0,4,,,,,,,,3,,,69,0
316785,note_on,225,0,5,,,,,,,,4,,,57,0
316785,note_on,225,0,3,,,,,,,,2,,,73,0
316785,note_on,225,0,1,,,,,,,,0,,,76,0
316800,note_on,15,0,2,,,,,,,,1,,,69,85
316800,note_on,15,0,3,,,,,,,,2,,,69,85
316800,note_on,15,0,6,,,,,,,,5,,,33,85
316800,note_on,0,0,7,,,,,,,,6,,,45,85
316800,note_on,0,0,7,,,,,,,,6,,,64,85
316800,note_on,0,0,7,,,,,,,,6,,,69,85
316800,note_on,15,0,7,,,,,,,,6,,,73,85
316800,note_on,15,0,4,,,,,,,,3,,,61,85
316800,note_on,15,0,1,,,,,,,,0,,,69,85
316800,note_on,15,0,5,,,,,,,,4,,,45,85
317025,note_on,225,0,2,,,,,,,,1,,,69,0
317025,note_on,225,0,4,,,,,,,,3,,,61,0
317025,note_on,225,0,3,,,,,,,,2,,,69,0
317025,note_on,225,0,1,,,,,,,,0,,,69,0
317040,note_on,15,0,3,,,,,,,,2,,,69,85
317040,note_on,15,0,2,,,,,,,,1,,,69,85
317040,note_on,15,0,4,,,,,,,,3,,,61,85
317040,note_on,15,0,1,,,,,,,,0,,,69,85
317245,note_on,0,0,7,,,,,,,,6,,,73,0
317245,note_on,445,0,7,,,,,,,,6,,,64,0
317265,note_on,225,0,2,,,,,,,,1,,,69,0
317265,note_on,225,0,1,,,,,,,,0,,,69,0
317265,note_on,225,0,4,,,,,,,,3,,,61,0
317265,note_on,225,0,3,,,,,,,,2,,,69,0
317280,note_on,15,0,4,,,,,,,,3,,,61,85
317280,note_on,15,0,3,,,,,,,,2,,,69,85
317280,note_on,15,0,2,,,,,,,,1,,,69,85
317280,note_on,15,0,1,,,,,,,,0,,,69,85
317465,note_on,665,0,5,,,,,,,,4,,,45,0
317465,note_on,665,0,6,,,,,,,,5,,,33,0
317465,note_on,0,0,7,,,,,,,,6,,,45,0
317465,note_on,220,0,7,,,,,,,,6,,,69,0
317505,note_on,225,0,4,,,,,,,,3,,,61,0
317505,note_on,225,0,3,,,,,,,,2,,,69,0
317505,note_on,225,0,2,,,,,,,,1,,,69,0
317505,note_on,225,0,1,,,,,,,,0,,,69,0
317520,note_on,15,0,2,,,,,,,,1,,,79,85
317520,note_on,55,0,6,,,,,,,,5,,,45,85
317520,note_on,15,0,4,,,,,,,,3,,,61,85
317520,note_on,15,0,3,,,,,,,,2,,,76,85
317520,note_on,55,0,5,,,,,,,,4,,,57,85
317520,note_on,15,0,1,,,,,,,,0,,,79,85
317520,note_on,55,0,7,,,,,,,,6,,,67,85
317520,note_on,0,0,7,,,,,,,,6,,,57,85
317745,note_on,225,0,7,,,,,,,,6,,,57,0
317745,note_on,225,0,4,,,,,,,,3,,,61,0
317745,note_on,225,0,5,,,,,,,,4,,,57,0
317745,note_on,225,0,6,,,,,,,,5,,,45,0
317745,note_on,225,0,2,,,,,,,,1,,,79,0
317745,note_on,225,0,3,,,,,,,,2,,,76,0
317745,note_on,0,0,7,,,,,,,,6,,,67,0
317745,note_on,225,0,1,,,,,,,,0,,,79,0
317760,note_on,15,0,4,,,,,,,,3,,,57,85
317760,note_on,0,0,7,,,,,,,,6,,,50,85
317760,note_on,0,0,7,,,,,,,,6,,,64,85
317760,note_on,15,0,7,,,,,,,,6,,,73,85
317760,note_on,15,0,5,,,,,,,,4,,,50,85
317760,note_on,15,0,3,,,,,,,,2,,,76,85
317760,note_on,15,0,1,,,,,,,,0,,,79,85
317760,note_on,15,0,2,,,,,,,,1,,,79,85
317760,note_on,15,0,6,,,,,,,,5,,,38,85
317985,note_on,225,0,7,,,,,,,,6,,,50,0
317985,note_on,225,0,6,,,,,,,,5,,,38,0
317985,note_on,225,0,5,,,,,,,,4,,,50,0
318000,note_on,15,0,7,,,,,,,,6,,,50,85
318000,note_on,15,0,5,,,,,,,,4,,,50,85
318000,note_on,15,0,6,,,,,,,,5,,,38,85
318205,note_on,445,0,3,,,,,,,,2,,,76,0
318205,note_on,445,0,1,,,,,,,,0,,,79,0
318205,note_on,205,0,7,,,,,,,,6,,,64,0
318205,note_on,0,0,7,,,,,,,,6,,,73,0
318205,note_on,445,0,2,,,,,,,,1,,,79,0
318225,note_on,225,0,5,,,,,,,,4,,,50,0
318225,note_on,225,0,6,,,,,,,,5,,,38,0
318225,note_on,20,0,7,,,,,,,,6,,,50,0
318240,note_on,35,0,2,,,,,,,,1,,,77,85
318240,note_on,35,0,1,,,,,,,,0,,,77,85
318240,note_on,15,0,6,,,,,,,,5,,,38,85
318240,note_on,0,0,7,,,,,,,,6,,,62,85
318240,note_on,0,0,7,,,,,,,,6,,,50,85
318240,note_on,15,0,5,,,,,,,,4,,,50,85
318240,note_on,15,0,7,,,,,,,,6,,,71,85
318240,note_on,35,0,3,,,,,,,,2,,,74,85
318425,note_on,665,0,4,,,,,,,,3,,,57,0
318465,note_on,225,0,5,,,,,,,,4,,,50,0
318465,note_on,225,0,2,,,,,,,,1,,,77,0
318465,note_on,225,0,3,,,,,,,,2,,,74,0
318465,note_on,225,0,7,,,,,,,,6,,,50,0
318465,note_on,225,0,6,,,,,,,,5,,,38,0
318465,note_on,225,0,1,,,,,,,,0,,,77,0
318480,note_on,15,0,6,,,,,,,,5,,,50,85
318480,note_on,15,0,3,,,,,,,,2,,,81,85
318480,note_on,15,0,2,,,,,,,,1,,,81,85
318480,note_on,55,0,4,,,,,,,,3,,,65,85
318480,note_on,15,0,7,,,,,,,,6,,,62,85
318480,note_on,15,0,5,,,,,,,,4,,,62,85
318480,note_on,15,0,1,,,,,,,,0,,,81,85
318685,note_on,205,0,7,,,,,,,,6,,,62,0
318685,note_on,0,0,7,,,,,,,,6,,,71,0
318705,note_on,225,0,2,,,,,,,,1,,,81,0
318705,note_on,225,0,6,,,,,,,,5,,,50,0
318705,note_on,20,0,7,,,,,,,,6,,,62,0
318705,note_on,225,0,4,,,,,,,,3,,,65,0
318705,note_on,225,0,5,,,,,,,,4,,,62,0
318705,note_on,225,0,1,,,,,,,,0,,,81,0
318705,note_on,225,0,3,,,,,,,,2,,,81,0
318720,note_on,15,0,1,,,,,,,,0,,,86,85
318720,note_on,15,0,6,,,,,,,,5,,,38,85
318720,note_on,15,0,3,,,,,,,,2,,,86,85
318720,note_on,15,0,7,,,,,,,,6,,,74,85
318720,note_on,15,0,2,,,,,,,,1,,,86,85
318720,note_on,0,0,7,,,,,,,,6,,,69,85
318720,note_on,0,0,7,,,,,,,,6,,,65,85
318720,note_on,15,0,4,,,,,,,,3,,,65,85
318720,note_on,15,0,5,,,,,,,,4,,,50,85
318720,note_on,0,0,7,,,,,,,,6,,,50,85
318945,note_on,225,0,2,,,,,,,,1,,,86,0
318945,note_on,225,0,1,,,,,,,,0,,,86,0
318945,note_on,225,0,3,,,,,,,,2,,,86,0
318960,note_on,15,0,1,,,,,,,,0,,,74,85
318960,note_on,15,0,2,,,,,,,,1,,,74,85
318960,note_on,15,0,3,,,,,,,,2,,,74,85
319165,note_on,445,0,4,,,,,,,,3,,,65,0
319165,note_on,445,0,5,,,,,,,,4,,,50,0
319165,note_on,445,0,6,,,,,,,,5,,,38,0
319165,note_on,445,0,7,,,,,,,,6,,,50,0
319165,note_on,0,0,7,,,,,,,,6,,,74,0
319165,note_on,0,0,7,,,,,,,,6,,,69,0
319165,note_on,0,0,7,,,,,,,,6,,,65,0
319185,note_on,225,0,3,,,,,,,,2,,,74,0
319185,note_on,225,0,1,,,,,,,,0,,,74,0
319185,note_on,225,0,2,,,,,,,,1,,,74,0
319200,note_on,15,0,3,,,,,,,,2,,,76,85
319200,note_on,15,0,1,,,,,,,,0,,,76,85
319200,note_on,15,0,2,,,,,,,,1,,,76,85
319425,note_on,225,0,2,,,,,,,,1,,,76,0
319425,note_on,225,0,3,,,,,,,,2,,,76,0
319425,note_on,225,0,1,,,,,,,,0,,,76,0
319440,note_on,275,0,5,,,,,,,,4,,,50,85
319440,note_on,15,0,2,,,,,,,,1,,,74,85
319440,note_on,15,0,1,,,,,,,,0,,,74,85
319440,note_on,15,0,3,,,,,,,,2,,,74,85
319440,note_on,0,0,7,,,,,,,,6,,,69,85
319440,note_on,275,0,4,,,,,,,,3,,,65,85
319440,note_on,0,0,7,,,,,,,,6,,,50,85
319440,note_on,0,0,7,,,,,,,,6,,,65,85
319440,note_on,275,0,7,,,,,,,,6,,,74,85
319440,note_on,275,0,6,,,,,,,,5,,,38,85
319665,note_on,0,0,7,,,,,,,,6,,,65,0
319665,note_on,0,0,7,,,,,,,,6,,,69,0
319665,note_on,0,0,7,,,,,,,,6,,,74,0
319665,note_on,225,0,7,,,,,,,,6,,,50,0
319665,note_on,225,0,6,,,,,,,,5,,,38,0
319665,note_on,225,0,4,,,,,,,,3,,,65,0
319665,note_on,225,0,2,,,,,,,,1,,,74,0
319665,note_on,225,0,5,,,,,,,,4,,,50,0
319665,note_on,225,0,3,,,,,,,,2,,,74,0
319665,note_on,225,0,1,,,,,,,,0,,,74,0
319680,note_on,15,0,2,,,,,,,,1,,,82,85
319680,note_on,15,0,7,,,,,,,,6,,,74,85
319680,note_on,15,0,4,,,,,,,,3,,,62,85
319680,note_on,15,0,1,,,,,,,,0,,,82,85
319680,note_on,0,0,7,,,,,,,,6,,,55,85
319680,note_on,15,0,3,,,,,,,,2,,,82,85
319680,note_on,15,0,5,,,,,,,,4,,,55,85
319680,note_on,15,0,6,,,,,,,,5,,,43,85
319680,note_on,0,0,7,,,,,,,,6,,,67,85
319680,note_on,0,0,7,,,,,,,,6,,,70,85
320125,note_on,0,0,7,,,,,,,,6,,,70,0
320125,note_on,0,0,7,,,,,,,,6,,,67,0
320125,note_on,445,0,7,,,,,,,,6,,,55,0
320125,note_on,445,0,6,,,,,,,,5,,,43,0
320125,note_on,445,0,4,,,,,,,,3,,,62,0
320125,note_on,445,0,2,,,,,,,,1,,,82,0
320125,note_on,445,0,3,,,,,,,,2,,,82,0
320125,note_on,445,0,5,,,,,,,,4,,,55,0
320125,note_on,445,0,1,,,,,,,,0,,,82,0
320125,note_on,0,0,7,,,,,,,,6,,,74,0
320160,note_on,35,0,7,,,,,,,,6,,,76,85
320160,note_on,0,0,7,,,,,,,,6,,,73,85
320160,note_on,0,0,7,,,,,,,,6,,,49,85
320160,note_on,35,0,1,,,,,,,,0,,,81,85
320160,note_on,0,0,7,,,,,,,,6,,,69,85
320160,note_on,35,0,2,,,,,,,,1,,,81,85
320160,note_on,35,0,4,,,,,,,,3,,,64,85
320160,note_on,35,0,3,,,,,,,,2,,,81,85
320160,note_on,35,0,5,,,,,,,,4,,,49,85
320160,note_on,35,0,6,,,,,,,,5,,,37,85
320385,note_on,225,0,2,,,,,,,,1,,,81,0
320385,note_on,225,0,3,,,,,,,,2,,,81,0
320385,note_on,225,0,1,,,,,,,,0,,,81,0
320400,note_on,15,0,2,,,,,,,,1,,,79,85
320400,note_on,15,0,1,,,,,,,,0,,,79,85
320400,note_on,15,0,3,,,,,,,,2,,,79,85
320605,note_on,445,0,4,,,,,,,,3,,,64,0
320605,note_on,0,0,7,,,,,,,,6,,,73,0
320605,note_on,0,0,7,,,,,,,,6,,,69,0
320605,note_on,445,0,5,,,,,,,,4,,,49,0
320605,note_on,0,0,7,,,,,,,,6,,,76,0
320605,note_on,445,0,7,,,,,,,,6,,,49,0
320605,note_on,445,0,6,,,,,,,,5,,,37,0
320625,note_on,225,0,1,,,,,,,,0,,,79,0
320625,note_on,225,0,2,,,,,,,,1,,,79,0
320625,note_on,225,0,3,,,,,,,,2,,,79,0
320640,note_on,35,0,4,,,,,,,,3,,,57,85
320640,note_on,0,0,7,,,,,,,,6,,,65,85
320640,note_on,0,0,7,,,,,,,,6,,,69,85
320640,note_on,15,0,1,,,,,,,,0,,,77,85
320640,note_on,35,0,7,,,,,,,,6,,,74,85
320640,note_on,15,0,2,,,,,,,,1,,,77,85
320640,note_on,35,0,5,,,,,,,,4,,,50,85
320640,note_on,35,0,6,,,,,,,,5,,,38,85
320640,note_on,0,0,7,,,,,,,,6,,,50,85
320640,note_on,15,0,3,,,,,,,,2,,,77,85
320865,note_on,225,0,5,,,,,,,,4,,,50,0
320865,note_on,225,0,3,,,,,,,,2,,,77,0
320865,note_on,225,0,4,,,,,,,,3,,,57,0
320865,note_on,225,0,1,,,,,,,,0,,,77,0
320865,note_on,225,0,7,,,,,,,,6,,,50,0
320865,note_on,225,0,6,,,,,,,,5,,,38,0
320865,note_on,225,0,2,,,,,,,,1,,,77,0
320880,note_on,15,0,7,,,,,,,,6,,,53,85
320880,note_on,15,0,4,,,,,,,,3,,,69,85
320880,note_on,15,0,1,,,,,,,,0,,,76,85
320880,note_on,15,0,5,,,,,,,,4,,,53,85
320880,note_on,15,0,6,,,,,,,,5,,,41,85
320880,note_on,15,0,3,,,,,,,,2,,,76,85
320880,note_on,15,0,2,,,,,,,,1,,,76,85
320995,note_on,115,0,1,,,,,,,,0,,,76,0
320995,note_on,115,0,3,,,,,,,,2,,,76,0
320995,note_on,115,0,2,,,,,,,,1,,,76,0
321000,note_on,5,0,2,,,,,,,,1,,,74,85
321000,note_on,5,0,3,,,,,,,,2,,,74,85
321000,note_on,5,0,1,,,,,,,,0,,,74,85
321085,note_on,0,0,7,,,,,,,,6,,,69,0
321085,note_on,205,0,7,,,,,,,,6,,,74,0
321085,note_on,0,0,7,,,,,,,,6,,,65,0
321105,note_on,225,0,5,,,,,,,,4,,,53,0
321105,note_on,20,0,7,,,,,,,,6,,,53,0
321105,note_on,225,0,6,,,,,,,,5,,,41,0
321105,note_on,225,0,4,,,,,,,,3,,,69,0
321115,note_on,115,0,3,,,,,,,,2,,,74,0
321115,note_on,115,0,2,,,,,,,,1,,,74,0
321115,note_on,115,0,1,,,,,,,,0,,,74,0
321120,note_on,5,0,1,,,,,,,,0,,,76,85
321120,note_on,15,0,6,,,,,,,,5,,,43,85
321120,note_on,0,0,7,,,,,,,,6,,,64,85
321120,note_on,15,0,5,,,,,,,,4,,,55,85
321120,note_on,5,0,2,,,,,,,,1,,,76,85
321120,note_on,15,0,7,,,,,,,,6,,,70,85
321120,note_on,0,0,7,,,,,,,,6,,,55,85
321120,note_on,5,0,3,,,,,,,,2,,,76,85
321120,note_on,15,0,4,,,,,,,,3,,,70,85
321120,note_on,0,0,7,,,,,,,,6,,,67,85
321345,note_on,225,0,3,,,,,,,,2,,,76,0
321345,note_on,0,0,7,,,,,,,,6,,,70,0
321345,note_on,225,0,4,,,,,,,,3,,,70,0
321345,note_on,0,0,7,,,,,,,,6,,,67,0
321345,note_on,225,0,6,,,,,,,,5,,,43,0
321345,note_on,225,0,2,,,,,,,,1,,,76,0
321345,note_on,225,0,1,,,,,,,,0,,,76,0
321345,note_on,225,0,5,,,,,,,,4,,,55,0
321345,note_on,225,0,7,,,,,,,,6,,,55,0
321360,note_on,15,0,7,,,,,,,,6,,,73,85
321360,note_on,0,0,7,,,,,,,,6,,,69,85
321360,note_on,0,0,7,,,,,,,,6,,,57,85
321360,note_on,15,0,5,,,,,,,,4,,,57,85
321360,note_on,15,0,4,,,,,,,,3,,,64,85
321360,note_on,15,0,6,,,,,,,,5,,,45,85
321360,note_on,15,0,2,,,,,,,,1,,,73,85
321360,note_on,15,0,1,,,,,,,,0,,,73,85
321360,note_on,15,0,3,,,,,,,,2,,,73,85
321565,note_on,205,0,7,,,,,,,,6,,,64,0
321585,note_on,225,0,3,,,,,,,,2,,,73,0
321585,note_on,225,0,4,,,,,,,,3,,,64,0
321585,note_on,225,0,6,,,,,,,,5,,,45,0
321585,note_on,20,0,7,,,,,,,,6,,,73,0
321585,note_on,0,0,7,,,,,,,,6,,,69,0
321585,note_on,0,0,7,,,,,,,,6,,,57,0
321585,note_on,225,0,1,,,,,,,,0,,,73,0
321585,note_on,225,0,5,,,,,,,,4,,,57,0
321585,note_on,225,0,2,,,,,,,,1,,,73,0
321600,note_on,15,0,2,,,,,,,,1,,,74,85
321600,note_on,15,0,6,,,,,,,,5,,,38,85
321600,note_on,15,0,4,,,,,,,,3,,,65,85
321600,note_on,15,0,3,,,,,,,,2,,,74,85
321600,note_on,15,0,5,,,,,,,,4,,,50,85
321600,note_on,15,0,7,,,,,,,,6,,,74,85
321600,note_on,0,0,7,,,,,,,,6,,,65,85
321600,note_on,0,0,7,,,,,,,,6,,,69,85
321600,note_on,0,0,7,,,,,,,,6,,,50,85
321600,note_on,15,0,1,,,,,,,,0,,,74,85
321825,note_on,225,0,7,,,,,,,,6,,,50,0
321825,note_on,225,0,5,,,,,,,,4,,,50,0
321825,note_on,225,0,6,,,,,,,,5,,,38,0
321840,note_on,15,0,7,,,,,,,,6,,,52,85
321840,note_on,15,0,5,,,,,,,,4,,,52,85
321840,note_on,15,0,6,,,,,,,,5,,,40,85
322045,note_on,445,0,3,,,,,,,,2,,,74,0
322045,note_on,445,0,2,,,,,,,,1,,,74,0
322045,note_on,445,0,4,,,,,,,,3,,,65,0
322045,note_on,445,0,1,,,,,,,,0,,,74,0
322065,note_on,225,0,7,,,,,,,,6,,,52,0
322065,note_on,225,0,5,,,,,,,,4,,,52,0
322065,note_on,225,0,6,,,,,,,,5,,,40,0
322080,note_on,15,0,5,,,,,,,,4,,,53,85
322080,note_on,15,0,7,,,,,,,,6,,,53,85
322080,note_on,15,0,6,,,,,,,,5,,,41,85
322265,note_on,185,0,7,,,,,,,,6,,,69,0
322265,note_on,0,0,7,,,,,,,,6,,,65,0
322265,note_on,0,0,7,,,,,,,,6,,,74,0
322305,note_on,40,0,7,,,,,,,,6,,,53,0
322305,note_on,225,0,5,,,,,,,,4,,,53,0
322305,note_on,225,0,6,,,,,,,,5,,,41,0
322320,note_on,15,0,5,,,,,,,,4,,,49,64
322320,note_on,0,0,7,,,,,,,,6,,,49,85
322320,note_on,275,0,1,,,,,,,,0,,,81,85
322320,note_on,15,0,6,,,,,,,,5,,,37,64
322320,note_on,15,0,7,,,,,,,,6,,,69,85
322545,note_on,225,0,6,,,,,,,,5,,,37,0
322545,note_on,225,0,7,,,,,,,,6,,,49,0
322545,note_on,225,0,1,,,,,,,,0,,,81,0
322545,note_on,225,0,5,,,,,,,,4,,,49,0
322545,note_on,0,0,7,,,,,,,,6,,,69,0
322560,note_on,15,0,1,,,,,,,,0,,,81,85
322560,note_on,15,0,7,,,,,,,,6,,,74,85
322560,note_on,15,0,6,,,,,,,,5,,,38,64
322560,note_on,0,0,7,,,,,,,,6,,,69,85
322560,note_on,0,0,7,,,,,,,,6,,,65,85
322560,note_on,15,0,5,,,,,,,,4,,,50,64
322560,note_on,0,0,7,,,,,,,,6,,,50,85
322675,note_on,115,0,1,,,,,,,,0,,,81,0
322680,note_on,5,0,1,,,,,,,,0,,,79,85
322785,note_on,225,0,7,,,,,,,,6,,,74,0
322795,note_on,115,0,1,,,,,,,,0,,,79,0
322800,note_on,15,0,7,,,,,,,,6,,,72,85
322800,note_on,5,0,1,,,,,,,,0,,,77,85
322915,note_on,115,0,7,,,,,,,,6,,,72,0
322915,note_on,115,0,1,,,,,,,,0,,,77,0
322920,note_on,5,0,1,,,,,,,,0,,,76,85
322920,note_on,5,0,7,,,,,,,,6,,,71,85
323005,note_on,0,0,7,,,,,,,,6,,,65,0
323005,note_on,85,0,7,,,,,,,,6,,,50,0
323005,note_on,0,0,7,,,,,,,,6,,,69,0
323005,note_on,445,0,6,,,,,,,,5,,,38,0
323005,note_on,445,0,5,,,,,,,,4,,,50,0
323035,note_on,30,0,7,,,,,,,,6,,,71,0
323035,note_on,115,0,1,,,,,,,,0,,,76,0
323040,note_on,35,0,5,,,,,,,,4,,,57,64
323040,note_on,35,0,6,,,,,,,,5,,,45,64
323040,note_on,5,0,1,,,,,,,,0,,,77,85
323040,note_on,5,0,7,,,,,,,,6,,,69,85
323040,note_on,0,0,7,,,,,,,,6,,,57,85
323040,note_on,0,0,7,,,,,,,,6,,,62,85
323040,note_on,0,0,7,,,,,,,,6,,,65,85
323155,note_on,115,0,1,,,,,,,,0,,,77,0
323160,note_on,5,0,1,,,,,,,,0,,,76,85
323275,note_on,115,0,1,,,,,,,,0,,,76,0
323280,note_on,5,0,1,,,,,,,,0,,,74,85
323395,note_on,115,0,1,,,,,,,,0,,,74,0
323400,note_on,5,0,1,,,,,,,,0,,,72,85
323485,note_on,0,0,7,,,,,,,,6,,,62,0
323485,note_on,0,0,7,,,,,,,,6,,,69,0
323485,note_on,0,0,7,,,,,,,,6,,,65,0
323485,note_on,445,0,6,,,,,,,,5,,,45,0
323485,note_on,445,0,7,,,,,,,,6,,,57,0
323485,note_on,445,0,5,,,,,,,,4,,,57,0
323515,note_on,115,0,1,,,,,,,,0,,,72,0
323520,note_on,35,0,6,,,,,,,,5,,,43,64
323520,note_on,35,0,7,,,,,,,,6,,,71,85
323520,note_on,0,0,7,,,,,,,,6,,,67,85
323520,note_on,0,0,7,,,,,,,,6,,,62,85
323520,note_on,5,0,1,,,,,,,,0,,,71,85
323520,note_on,0,0,7,,,,,,,,6,,,55,85
323520,note_on,35,0,5,,,,,,,,4,,,55,64
323697,note_on,177,0,1,,,,,,,,0,,,71,0
323745,note_on,225,0,5,,,,,,,,4,,,55,0
323745,note_on,225,0,6,,,,,,,,5,,,43,0
323745,note_on,225,0,7,,,,,,,,6,,,55,0
323760,note_on,15,0,6,,,,,,,,5,,,45,64
323760,note_on,63,0,1,,,,,,,,0,,,55,85
323760,note_on,15,0,5,,,,,,,,4,,,57,64
323760,note_on,15,0,7,,,,,,,,6,,,57,85
323937,note_on,177,0,1,,,,,,,,0,,,55,0
323965,note_on,0,0,7,,,,,,,,6,,,67,0
323965,note_on,0,0,7,,,,,,,,6,,,62,0
323965,note_on,205,0,7,,,,,,,,6,,,71,0
323985,note_on,225,0,6,,,,,,,,5,,,45,0
323985,note_on,20,0,7,,,,,,,,6,,,57,0
323985,note_on,225,0,5,,,,,,,,4,,,57,0
324000,note_on,63,0,1,,,,,,,,0,,,55,85
324000,note_on,0,0,7,,,,,,,,6,,,59,85
324000,note_on,0,0,7,,,,,,,,6,,,59,85
324000,note_on,15,0,7,,,,,,,,6,,,67,85
324000,note_on,15,0,5,,,,,,,,4,,,59,64
324000,note_on,15,0,6,,,,,,,,5,,,47,64
324000,note_on,0,0,7,,,,,,,,6,,,62,85
324193,note_on,193,0,1,,,,,,,,0,,,55,0
324225,note_on,225,0,7,,,,,,,,6,,,59,0
324225,note_on,225,0,5,,,,,,,,4,,,59,0
324225,note_on,225,0,6,,,,,,,,5,,,47,0
324240,note_on,15,0,5,,,,,,,,4,,,57,64
324240,note_on,47,0,1,,,,,,,,0,,,77,85
324240,note_on,15,0,6,,,,,,,,5,,,45,64
324240,note_on,15,0,7,,,,,,,,6,,,57,85
324445,note_on,205,0,7,,,,,,,,6,,,67,0
324445,note_on,0,0,7,,,,,,,,6,,,59,0
324445,note_on,0,0,7,,,,,,,,6,,,62,0
324465,note_on,225,0,5,,,,,,,,4,,,57,0
324465,note_on,225,0,1,,,,,,,,0,,,77,0
324465,note_on,20,0,7,,,,,,,,6,,,57,0
324465,note_on,225,0,6,,,,,,,,5,,,45,0
324480,note_on,15,0,1,,,,,,,,0,,,77,85
324480,note_on,15,0,7,,,,,,,,6,,,65,85
324480,note_on,0,0,7,,,,,,,,6,,,62,85
324480,note_on,0,0,7,,,,,,,,6,,,59,85
324480,note_on,0,0,7,,,,,,,,6,,,55,85
324480,note_on,15,0,6,,,,,,,,5,,,43,64
324480,note_on,15,0,5,,,,,,,,4,,,55,64
324595,note_on,115,0,1,,,,,,,,0,,,77,0
324600,note_on,5,0,1,,,,,,,,0,,,76,85
324705,note_on,225,0,5,,,,,,,,4,,,55,0
324705,note_on,225,0,7,,,,,,,,6,,,55,0
324705,note_on,225,0,6,,,,,,,,5,,,43,0
324715,note_on,115,0,1,,,,,,,,0,,,76,0
324720,note_on,15,0,5,,,,,,,,4,,,57,64
324720,note_on,15,0,7,,,,,,,,6,,,57,85
324720,note_on,15,0,6,,,,,,,,5,,,45,64
324720,note_on,5,0,1,,,,,,,,0,,,74,85
324835,note_on,115,0,1,,,,,,,,0,,,74,0
324840,note_on,5,0,1,,,,,,,,0,,,72,85
324925,note_on,0,0,7,,,,,,,,6,,,59,0
324925,note_on,205,0,7,,,,,,,,6,,,65,0
324925,note_on,0,0,7,,,,,,,,6,,,62,0
324945,note_on,20,0,7,,,,,,,,6,,,57,0
324945,note_on,225,0,6,,,,,,,,5,,,45,0
324945,note_on,225,0,5,,,,,,,,4,,,57,0
324955,note_on,115,0,1,,,,,,,,0,,,72,0
324960,note_on,15,0,5,,,,,,,,4,,,59,64
324960,note_on,15,0,6,,,,,,,,5,,,47,64
324960,note_on,15,0,7,,,,,,,,6,,,71,85
324960,note_on,5,0,1,,,,,,,,0,,,71,85
324960,note_on,0,0,7,,,,,,,,6,,,65,85
324960,note_on,0,0,7,,,,,,,,6,,,62,85
324960,note_on,0,0,7,,,,,,,,6,,,59,85
325185,note_on,225,0,1,,,,,,,,0,,,71,0
325185,note_on,225,0,7,,,,,,,,6,,,59,0
325185,note_on,225,0,5,,,,,,,,4,,,59,0
325185,note_on,225,0,6,,,,,,,,5,,,47,0
325200,note_on,15,0,7,,,,,,,,6,,,55,85
325200,note_on,15,0,5,,,,,,,,4,,,55,64
325200,note_on,15,0,6,,,,,,,,5,,,43,64
325200,note_on,15,0,1,,,,,,,,0,,,77,85
325405,note_on,205,0,7,,,,,,,,6,,,71,0
325405,note_on,0,0,7,,,,,,,,6,,,65,0
325405,note_on,0,0,7,,,,,,,,6,,,62,0
325425,note_on,225,0,5,,,,,,,,4,,,55,0
325425,note_on,225,0,1,,,,,,,,0,,,77,0
325425,note_on,20,0,7,,,,,,,,6,,,55,0
325425,note_on,225,0,6,,,,,,,,5,,,43,0
325440,note_on,0,0,7,,,,,,,,6,,,67,85
325440,note_on,15,0,5,,,,,,,,4,,,60,64
325440,note_on,15,0,7,,,,,,,,6,,,72,85
325440,note_on,0,0,7,,,,,,,,6,,,65,85
325440,note_on,15,0,1,,,,,,,,0,,,79,85
325440,note_on,15,0,6,,,,,,,,5,,,48,64
325440,note_on,0,0,7,,,,,,,,6,,,60,85
325500,note_on,60,0,1,,,,,,,,0,,,79,0
325500,note_on,0,0,1,,,,,,,,0,,,77,85
325560,note_on,60,0,1,,,,,,,,0,,,77,0
325560,note_on,0,0,1,,,,,,,,0,,,79,85
325620,note_on,60,0,1,,,,,,,,0,,,79,0
325620,note_on,0,0,1,,,,,,,,0,,,77,85
325665,note_on,225,0,7,,,,,,,,6,,,60,0
325665,note_on,225,0,5,,,,,,,,4,,,60,0
325665,note_on,225,0,6,,,,,,,,5,,,48,0
325680,note_on,15,0,7,,,,,,,,6,,,59,85
325680,note_on,15,0,5,,,,,,,,4,,,59,64
325680,note_on,15,0,6,,,,,,,,5,,,47,64
325885,note_on,205,0,7,,,,,,,,6,,,65,0
325905,note_on,285,0,1,,,,,,,,0,,,77,0
325905,note_on,225,0,5,,,,,,,,4,,,59,0
325905,note_on,20,0,7,,,,,,,,6,,,59,0
325905,note_on,225,0,6,,,,,,,,5,,,47,0
325920,note_on,0,0,7,,,,,,,,6,,,60,85
325920,note_on,15,0,1,,,,,,,,0,,,76,85
325920,note_on,15,0,7,,,,,,,,6,,,64,85
325920,note_on,15,0,5,,,,,,,,4,,,60,64
325920,note_on,15,0,6,,,,,,,,5,,,48,64
326145,note_on,225,0,5,,,,,,,,4,,,60,0
326145,note_on,225,0,7,,,,,,,,6,,,60,0
326145,note_on,225,0,6,,,,,,,,5,,,48,0
326145,note_on,225,0,1,,,,,,,,0,,,76,0
326160,note_on,15,0,6,,,,,,,,5,,,43,64
326160,note_on,15,0,1,,,,,,,,0,,,74,85
326160,note_on,15,0,7,,,,,,,,6,,,55,85
326160,note_on,15,0,5,,,,,,,,4,,,55,64
326365,note_on,205,0,7,,,,,,,,6,,,72,0
326365,note_on,0,0,7,,,,,,,,6,,,67,0
326365,note_on,0,0,7,,,,,,,,6,,,64,0
326385,note_on,20,0,7,,,,,,,,6,,,55,0
326385,note_on,225,0,6,,,,,,,,5,,,43,0
326385,note_on,225,0,5,,,,,,,,4,,,55,0
326385,note_on,225,0,1,,,,,,,,0,,,74,0
326400,note_on,15,0,6,,,,,,,,5,,,31,64
326400,note_on,15,0,1,,,,,,,,0,,,79,85
326400,note_on,15,0,5,,,,,,,,4,,,43,64
326400,note_on,15,0,7,,,,,,,,6,,,43,85
326577,note_on,177,0,1,,,,,,,,0,,,79,0
326640,note_on,63,0,1,,,,,,,,0,,,55,85
326845,note_on,445,0,7,,,,,,,,6,,,43,0
326845,note_on,445,0,6,,,,,,,,5,,,31,0
326845,note_on,445,0,5,,,,,,,,4,,,43,0
326865,note_on,225,0,1,,,,,,,,0,,,55,0
326880,note_on,0,0,7,,,,,,,,6,,,65,85
326880,note_on,0,0,7,,,,,,,,6,,,71,85
326880,note_on,35,0,7,,,,,,,,6,,,74,85
326880,note_on,15,0,1,,,,,,,,0,,,77,85
326880,note_on,0,0,7,,,,,,,,6,,,43,85
326880,note_on,35,0,5,,,,,,,,4,,,43,64
326880,note_on,35,0,6,,,,,,,,5,,,31,64
327052,note_on,172,0,1,,,,,,,,0,,,77,0
327120,note_on,68,0,1,,,,,,,,0,,,55,85
327325,note_on,0,0,7,,,,,,,,6,,,65,0
327325,note_on,445,0,5,,,,,,,,4,,,43,0
327325,note_on,445,0,6,,,,,,,,5,,,31,0
327325,note_on,0,0,7,,,,,,,,6,,,71,0
327325,note_on,0,0,7,,,,,,,,6,,,74,0
327325,note_on,445,0,7,,,,,,,,6,,,43,0
327345,note_on,225,0,1,,,,,,,,0,,,55,0
327360,note_on,0,0,7,,,,,,,,6,,,67,85
327360,note_on,0,0,7,,,,,,,,6,,,43,85
327360,note_on,0,0,7,,,,,,,,6,,,71,85
327360,note_on,35,0,6,,,,,,,,5,,,31,64
327360,note_on,35,0,5,,,,,,,,4,,,43,64
327360,note_on,35,0,7,,,,,,,,6,,,76,85
327360,note_on,15,0,1,,,,,,,,0,,,76,85
327537,note_on,177,0,1,,,,,,,,0,,,76,0
327600,note_on,63,0,1,,,,,,,,0,,,55,85
327805,note_on,445,0,6,,,,,,,,5,,,31,0
327805,note_on,445,0,5,,,,,,,,4,,,43,0
327805,note_on,445,0,7,,,,,,,,6,,,43,0
327805,note_on,0,0,7,,,,,,,,6,,,67,0
327805,note_on,0,0,7,,,,,,,,6,,,76,0
327825,note_on,225,0,1,,,,,,,,0,,,55,0
327840,note_on,15,0,1,,,,,,,,0,,,74,85
327840,note_on,35,0,7,,,,,,,,6,,,43,85
327840,note_on,35,0,6,,,,,,,,5,,,31,64
327840,note_on,35,0,5,,,,,,,,4,,,43,64
328006,note_on,166,0,1,,,,,,,,0,,,74,0
328080,note_on,74,0,1,,,,,,,,0,,,55,85
328285,note_on,445,0,7,,,,,,,,6,,,43,0
328285,note_on,445,0,5,,,,,,,,4,,,43,0
328285,note_on,0,0,7,,,,,,,,6,,,71,0
328285,note_on,445,0,6,,,,,,,,5,,,31,0
328305,note_on,225,0,1,,,,,,,,0,,,55,0
328320,note_on,35,0,6,,,,,,,,5,,,31,64
328320,note_on,0,0,7,,,,,,,,6,,,67,85
328320,note_on,0,0,7,,,,,,,,6,,,43,85
328320,note_on,35,0,7,,,,,,,,6,,,71,85
328320,note_on,35,0,5,,,,,,,,4,,,43,64
328320,note_on,15,0,1,,,,,,,,0,,,79,85
328492,note_on,172,0,1,,,,,,,,0,,,79,0
328560,note_on,68,0,1,,,,,,,,0,,,55,85
328765,note_on,0,0,7,,,,,,,,6,,,67,0
328765,note_on,445,0,5,,,,,,,,4,,,43,0
328765,note_on,445,0,7,,,,,,,,6,,,43,0
328765,note_on,445,0,6,,,,,,,,5,,,31,0
328785,note_on,225,0,1,,,,,,,,0,,,55,0
328800,note_on,35,0,7,,,,,,,,6,,,65,85
328800,note_on,0,0,7,,,,,,,,6,,,62,85
328800,note_on,0,0,7,,,,,,,,6,,,43,85
328800,note_on,15,0,1,,,,,,,,0,,,77,85
328800,note_on,35,0,5,,,,,,,,4,,,43,64
328800,note_on,35,0,6,,,,,,,,5,,,31,64
328987,note_on,187,0,1,,,,,,,,0,,,77,0
329040,note_on,53,0,1,,,,,,,,0,,,55,85
329245,note_on,445,0,7,,,,,,,,6,,,43,0
329245,note_on,445,0,5,,,,,,,,4,,,43,0
329245,note_on,445,0,6,,,,,,,,5,,,31,0
329245,note_on,0,0,7,,,,,,,,6,,,71,0
329245,note_on,0,0,7,,,,,,,,6,,,65,0
329245,note_on,0,0,7,,,,,,,,6,,,62,0
329265,note_on,225,0,1,,,,,,,,0,,,55,0
329280,note_on,0,0,7,,,,,,,,6,,,43,85
329280,note_on,0,0,7,,,,,,,,6,,,64,85
329280,note_on,35,0,5,,,,,,,,4,,,43,64
329280,note_on,35,0,7,,,,,,,,6,,,71,85
329280,note_on,15,0,1,,,,,,,,0,,,76,85
329280,note_on,35,0,6,,,,,,,,5,,,31,64
329280,note_on,0,0,7,,,,,,,,6,,,67,85
329473,note_on,193,0,1,,,,,,,,0,,,76,0
329520,note_on,47,0,1,,,,,,,,0,,,55,85
329725,note_on,445,0,7,,,,,,,,6,,,43,0
329725,note_on,445,0,6,,,,,,,,5,,,31,0
329725,note_on,445,0,5,,,,,,,,4,,,43,0
329725,note_on,0,0,7,,,,,,,,6,,,67,0
329725,note_on,0,0,7,,,,,,,,6,,,71,0
329725,note_on,0,0,7,,,,,,,,6,,,64,0
329745,note_on,225,0,1,,,,,,,,0,,,55,0
329760,note_on,35,0,6,,,,,,,,5,,,31,64
329760,note_on,15,0,1,,,,,,,,0,,,74,85
329760,note_on,35,0,7,,,,,,,,6,,,67,85
329760,note_on,0,0,7,,,,,,,,6,,,43,85
329760,note_on,0,0,7,,,,,,,,6,,,59,85
329760,note_on,0,0,7,,,,,,,,6,,,62,85
329760,note_on,35,0,5,,,,,,,,4,,,43,64
329953,note_on,193,0,1,,,,,,,,0,,,74,0
330000,note_on,47,0,1,,,,,,,,0,,,55,85
330205,note_on,0,0,7,,,,,,,,6,,,67,0
330205,note_on,445,0,5,,,,,,,,4,,,43,0
330205,note_on,445,0,7,,,,,,,,6,,,43,0
330205,note_on,445,0,6,,,,,,,,5,,,31,0
330205,note_on,0,0,7,,,,,,,,6,,,62,0
330205,note_on,0,0,7,,,,,,,,6,,,59,0
330225,note_on,225,0,1,,,,,,,,0,,,55,0
330240,note_on,35,0,5,,,,,,,,4,,,52,64
330240,note_on,35,0,6,,,,,,,,5,,,40,64
330240,note_on,15,0,1,,,,,,,,0,,,79,85
330240,note_on,35,0,7,,,,,,,,6,,,76,85
330240,note_on,0,0,7,,,,,,,,6,,,72,85
330240,note_on,0,0,7,,,,,,,,6,,,67,85
330240,note_on,0,0,7,,,,,,,,6,,,52,85
330355,note_on,115,0,1,,,,,,,,0,,,79,0
330360,note_on,5,0,1,,,,,,,,0,,,81,85
330475,note_on,115,0,1,,,,,,,,0,,,81,0
330480,note_on,5,0,1,,,,,,,,0,,,79,85
330595,note_on,115,0,1,,,,,,,,0,,,79,0
330600,note_on,5,0,1,,,,,,,,0,,,77,85
330685,note_on,0,0,7,,,,,,,,6,,,67,0
330685,note_on,0,0,7,,,,,,,,6,,,72,0
330685,note_on,0,0,7,,,,,,,,6,,,76,0
330685,note_on,445,0,5,,,,,,,,4,,,52,0
330685,note_on,445,0,6,,,,,,,,5,,,40,0
330685,note_on,445,0,7,,,,,,,,6,,,52,0
330715,note_on,115,0,1,,,,,,,,0,,,77,0
330720,note_on,5,0,1,,,,,,,,0,,,76,85
330835,note_on,115,0,1,,,,,,,,0,,,76,0
330840,note_on,5,0,1,,,,,,,,0,,,74,85
330955,note_on,115,0,1,,,,,,,,0,,,74,0
330960,note_on,5,0,1,,,,,,,,0,,,72,85
331075,note_on,115,0,1,,,,,,,,0,,,72,0
331080,note_on,5,0,1,,,,,,,,0,,,71,85
331195,note_on,115,0,1,,,,,,,,0,,,71,0
331200,note_on,515,0,6,,,,,,,,5,,,41,64
331200,note_on,5,0,1,,,,,,,,0,,,69,85
331200,note_on,515,0,5,,,,,,,,4,,,53,64
331200,note_on,515,0,7,,,,,,,,6,,,53,85
331315,note_on,115,0,1,,,,,,,,0,,,69,0
331320,note_on,5,0,1,,,,,,,,0,,,67,85
331425,note_on,225,0,6,,,,,,,,5,,,41,0
331425,note_on,225,0,5,,,,,,,,4,,,53,0
331425,note_on,225,0,7,,,,,,,,6,,,53,0
331435,note_on,115,0,1,,,,,,,,0,,,67,0
331440,note_on,5,0,1,,,,,,,,0,,,65,85
331440,note_on,15,0,6,,,,,,,,5,,,43,64
331440,note_on,15,0,5,,,,,,,,4,,,55,64
331440,note_on,15,0,7,,,,,,,,6,,,55,85
331555,note_on,115,0,1,,,,,,,,0,,,65,0
331560,note_on,5,0,1,,,,,,,,0,,,64,85
331665,note_on,225,0,5,,,,,,,,4,,,55,0
331665,note_on,225,0,6,,,,,,,,5,,,43,0
331665,note_on,225,0,7,,,,,,,,6,,,55,0
331675,note_on,115,0,1,,,,,,,,0,,,64,0
331680,note_on,5,0,1,,,,,,,,0,,,65,85
331680,note_on,15,0,5,,,,,,,,4,,,57,64
331680,note_on,15,0,7,,,,,,,,6,,,57,85
331680,note_on,15,0,6,,,,,,,,5,,,45,64
331905,note_on,225,0,7,,,,,,,,6,,,57,0
331905,note_on,225,0,6,,,,,,,,5,,,45,0
331905,note_on,225,0,1,,,,,,,,0,,,65,0
331905,note_on,225,0,5,,,,,,,,4,,,57,0
331920,note_on,15,0,6,,,,,,,,5,,,43,64
331920,note_on,15,0,5,,,,,,,,4,,,55,64
331920,note_on,15,0,7,,,,,,,,6,,,55,85
332145,note_on,225,0,5,,,,,,,,4,,,55,0
332145,note_on,225,0,6,,,,,,,,5,,,43,0
332145,note_on,225,0,7,,,,,,,,6,,,55,0
332160,note_on,0,0,7,,,,,,,,6,,,65,85
332160,note_on,15,0,7,,,,,,,,6,,,74,85
332160,note_on,0,0,7,,,,,,,,6,,,53,85
332160,note_on,0,0,7,,,,,,,,6,,,69,85
332160,note_on,15,0,6,,,,,,,,5,,,41,64
332160,note_on,15,0,5,,,,,,,,4,,,53,64
332160,note_on,255,0,1,,,,,,,,0,,,81,85
332275,note_on,115,0,1,,,,,,,,0,,,81,0
332280,note_on,5,0,1,,,,,,,,0,,,83,85
332395,note_on,115,0,1,,,,,,,,0,,,83,0
332400,note_on,5,0,1,,,,,,,,0,,,81,85
332515,note_on,115,0,1,,,,,,,,0,,,81,0
332520,note_on,5,0,1,,,,,,,,0,,,79,85
332605,note_on,445,0,7,,,,,,,,6,,,53,0
332605,note_on,0,0,7,,,,,,,,6,,,74,0
332605,note_on,0,0,7,,,,,,,,6,,,69,0
332605,note_on,0,0,7,,,,,,,,6,,,65,0
332605,note_on,445,0,6,,,,,,,,5,,,41,0
332605,note_on,445,0,5,,,,,,,,4,,,53,0
332635,note_on,115,0,1,,,,,,,,0,,,79,0
332640,note_on,5,0,1,,,,,,,,0,,,77,85
332755,note_on,115,0,1,,,,,,,,0,,,77,0
332760,note_on,5,0,1,,,,,,,,0,,,76,85
332875,note_on,115,0,1,,,,,,,,0,,,76,0
332880,note_on,5,0,1,,,,,,,,0,,,74,85
332995,note_on,115,0,1,,,,,,,,0,,,74,0
333000,note_on,5,0,1,,,,,,,,0,,,72,85
333115,note_on,115,0,1,,,,,,,,0,,,72,0
333120,note_on,515,0,6,,,,,,,,5,,,43,64
333120,note_on,5,0,1,,,,,,,,0,,,71,85
333120,note_on,515,0,7,,,,,,,,6,,,55,85
333120,note_on,515,0,5,,,,,,,,4,,,55,64
333235,note_on,115,0,1,,,,,,,,0,,,71,0
333240,note_on,5,0,1,,,,,,,,0,,,69,85
333345,note_on,225,0,6,,,,,,,,5,,,43,0
333345,note_on,225,0,7,,,,,,,,6,,,55,0
333345,note_on,225,0,5,,,,,,,,4,,,55,0
333355,note_on,115,0,1,,,,,,,,0,,,69,0
333360,note_on,5,0,1,,,,,,,,0,,,67,85
333360,note_on,15,0,5,,,,,,,,4,,,57,64
333360,note_on,15,0,6,,,,,,,,5,,,45,64
333360,note_on,15,0,7,,,,,,,,6,,,57,85
333475,note_on,115,0,1,,,,,,,,0,,,67,0
333480,note_on,5,0,1,,,,,,,,0,,,66,85
333585,note_on,225,0,7,,,,,,,,6,,,57,0
333585,note_on,225,0,5,,,,,,,,4,,,57,0
333585,note_on,225,0,6,,,,,,,,5,,,45,0
333595,note_on,115,0,1,,,,,,,,0,,,66,0
333600,note_on,5,0,1,,,,,,,,0,,,67,85
333600,note_on,15,0,7,,,,,,,,6,,,59,85
333600,note_on,15,0,5,,,,,,,,4,,,59,64
333600,note_on,15,0,6,,,,,,,,5,,,47,64
333825,note_on,225,0,5,,,,,,,,4,,,59,0
333825,note_on,225,0,7,,,,,,,,6,,,59,0
333825,note_on,225,0,6,,,,,,,,5,,,47,0
333825,note_on,225,0,1,,,,,,,,0,,,67,0
333840,note_on,15,0,6,,,,,,,,5,,,45,64
333840,note_on,15,0,7,,,,,,,,6,,,57,85
333840,note_on,15,0,5,,,,,,,,4,,,57,64
334065,note_on,225,0,7,,,,,,,,6,,,57,0
334065,note_on,225,0,5,,,,,,,,4,,,57,0
334065,note_on,225,0,6,,,,,,,,5,,,45,0
334080,note_on,255,0,1,,,,,,,,0,,,83,85
334080,note_on,15,0,6,,,,,,,,5,,,43,64
334080,note_on,15,0,5,,,,,,,,4,,,55,64
334080,note_on,15,0,7,,,,,,,,6,,,71,85
334080,note_on,0,0,7,,,,,,,,6,,,67,85
334080,note_on,0,0,7,,,,,,,,6,,,64,85
334080,note_on,0,0,7,,,,,,,,6,,,55,85
334195,note_on,115,0,1,,,,,,,,0,,,83,0
334200,note_on,5,0,1,,,,,,,,0,,,84,85
334315,note_on,115,0,1,,,,,,,,0,,,84,0
334320,note_on,5,0,1,,,,,,,,0,,,83,85
334435,note_on,115,0,1,,,,,,,,0,,,83,0
334440,note_on,5,0,1,,,,,,,,0,,,81,85
334525,note_on,0,0,7,,,,,,,,6,,,64,0
334525,note_on,0,0,7,,,,,,,,6,,,71,0
334525,note_on,445,0,7,,,,,,,,6,,,55,0
334525,note_on,445,0,6,,,,,,,,5,,,43,0
334525,note_on,445,0,5,,,,,,,,4,,,55,0
334525,note_on,0,0,7,,,,,,,,6,,,67,0
334555,note_on,115,0,1,,,,,,,,0,,,81,0
334560,note_on,5,0,1,,,,,,,,0,,,79,85
334675,note_on,115,0,1,,,,,,,,0,,,79,0
334680,note_on,5,0,1,,,,,,,,0,,,77,85
334795,note_on,115,0,1,,,,,,,,0,,,77,0
334800,note_on,5,0,1,,,,,,,,0,,,76,85
334915,note_on,115,0,1,,,,,,,,0,,,76,0
334920,note_on,5,0,1,,,,,,,,0,,,74,85
335035,note_on,115,0,1,,,,,,,,0,,,74,0
335040,note_on,515,0,5,,,,,,,,4,,,57,64
335040,note_on,5,0,1,,,,,,,,0,,,72,85
335040,note_on,515,0,7,,,,,,,,6,,,57,85
335040,note_on,515,0,6,,,,,,,,5,,,45,64
335155,note_on,115,0,1,,,,,,,,0,,,72,0
335160,note_on,5,0,1,,,,,,,,0,,,71,85
335265,note_on,225,0,7,,,,,,,,6,,,57,0
335265,note_on,225,0,6,,,,,,,,5,,,45,0
335265,note_on,225,0,5,,,,,,,,4,,,57,0
335275,note_on,115,0,1,,,,,,,,0,,,71,0
335280,note_on,15,0,7,,,,,,,,6,,,59,85
335280,note_on,15,0,6,,,,,,,,5,,,47,64
335280,note_on,5,0,1,,,,,,,,0,,,69,85
335280,note_on,15,0,5,,,,,,,,4,,,59,64
335395,note_on,115,0,1,,,,,,,,0,,,69,0
335400,note_on,5,0,1,,,,,,,,0,,,68,85
335505,note_on,225,0,7,,,,,,,,6,,,59,0
335505,note_on,225,0,6,,,,,,,,5,,,47,0
335505,note_on,225,0,5,,,,,,,,4,,,59,0
335515,note_on,115,0,1,,,,,,,,0,,,68,0
335520,note_on,15,0,5,,,,,,,,4,,,60,64
335520,note_on,15,0,7,,,,,,,,6,,,60,85
335520,note_on,5,0,1,,,,,,,,0,,,69,85
335520,note_on,15,0,6,,,,,,,,5,,,48,64
335745,note_on,225,0,6,,,,,,,,5,,,48,0
335745,note_on,225,0,5,,,,,,,,4,,,60,0
335745,note_on,225,0,7,,,,,,,,6,,,60,0
335745,note_on,225,0,1,,,,,,,,0,,,69,0
335760,note_on,15,0,6,,,,,,,,5,,,47,64
335760,note_on,15,0,7,,,,,,,,6,,,59,85
335760,note_on,15,0,5,,,,,,,,4,,,59,64
335985,note_on,225,0,6,,,,,,,,5,,,47,0
335985,note_on,225,0,5,,,,,,,,4,,,59,0
335985,note_on,225,0,7,,,,,,,,6,,,59,0
336000,note_on,255,0,1,,,,,,,,0,,,84,85
336000,note_on,15,0,5,,,,,,,,4,,,57,64
336000,note_on,15,0,7,,,,,,,,6,,,69,85
336000,note_on,0,0,7,,,,,,,,6,,,65,85
336000,note_on,0,0,7,,,,,,,,6,,,57,85
336000,note_on,0,0,7,,,,,,,,6,,,60,85
336000,note_on,15,0,6,,,,,,,,5,,,45,64
336115,note_on,115,0,1,,,,,,,,0,,,84,0
336120,note_on,5,0,1,,,,,,,,0,,,86,85
336235,note_on,115,0,1,,,,,,,,0,,,86,0
336240,note_on,5,0,1,,,,,,,,0,,,84,85
336355,note_on,115,0,1,,,,,,,,0,,,84,0
336360,note_on,5,0,1,,,,,,,,0,,,83,85
336445,note_on,445,0,6,,,,,,,,5,,,45,0
336445,note_on,0,0,7,,,,,,,,6,,,60,0
336445,note_on,445,0,5,,,,,,,,4,,,57,0
336445,note_on,0,0,7,,,,,,,,6,,,65,0
336445,note_on,445,0,7,,,,,,,,6,,,57,0
336445,note_on,0,0,7,,,,,,,,6,,,69,0
336475,note_on,115,0,1,,,,,,,,0,,,83,0
336480,note_on,5,0,1,,,,,,,,0,,,81,85
336595,note_on,115,0,1,,,,,,,,0,,,81,0
336600,note_on,5,0,1,,,,,,,,0,,,79,85
336715,note_on,115,0,1,,,,,,,,0,,,79,0
336720,note_on,5,0,1,,,,,,,,0,,,77,85
336835,note_on,115,0,1,,,,,,,,0,,,77,0
336840,note_on,5,0,1,,,,,,,,0,,,76,85
336955,note_on,115,0,1,,,,,,,,0,,,76,0
336960,note_on,515,0,7,,,,,,,,6,,,59,85
336960,note_on,515,0,6,,,,,,,,5,,,47,64
336960,note_on,5,0,1,,,,,,,,0,,,74,85
336960,note_on,515,0,5,,,,,,,,4,,,59,64
337075,note_on,115,0,1,,,,,,,,0,,,74,0
337080,note_on,5,0,1,,,,,,,,0,,,72,85
337185,note_on,225,0,6,,,,,,,,5,,,47,0
337185,note_on,225,0,5,,,,,,,,4,,,59,0
337185,note_on,225,0,7,,,,,,,,6,,,59,0
337195,note_on,115,0,1,,,,,,,,0,,,72,0
337200,note_on,15,0,7,,,,,,,,6,,,60,85
337200,note_on,15,0,5,,,,,,,,4,,,60,64
337200,note_on,15,0,6,,,,,,,,5,,,48,64
337200,note_on,5,0,1,,,,,,,,0,,,71,85
337315,note_on,115,0,1,,,,,,,,0,,,71,0
337320,note_on,5,0,1,,,,,,,,0,,,69,85
337425,note_on,225,0,6,,,,,,,,5,,,48,0
337425,note_on,225,0,5,,,,,,,,4,,,60,0
337425,note_on,225,0,7,,,,,,,,6,,,60,0
337435,note_on,115,0,1,,,,,,,,0,,,69,0
337440,note_on,15,0,5,,,,,,,,4,,,62,64
337440,note_on,5,0,1,,,,,,,,0,,,71,85
337440,note_on,15,0,6,,,,,,,,5,,,50,64
337440,note_on,15,0,7,,,,,,,,6,,,62,85
337665,note_on,225,0,6,,,,,,,,5,,,50,0
337665,note_on,225,0,1,,,,,,,,0,,,71,0
337665,note_on,225,0,5,,,,,,,,4,,,62,0
337665,note_on,225,0,7,,,,,,,,6,,,62,0
337680,note_on,15,0,5,,,,,,,,4,,,60,64
337680,note_on,15,0,6,,,,,,,,5,,,48,64
337680,note_on,15,0,7,,,,,,,,6,,,60,85
337905,note_on,225,0,5,,,,,,,,4,,,60,0
337905,note_on,225,0,7,,,,,,,,6,,,60,0
337905,note_on,225,0,6,,,,,,,,5,,,48,0
337920,note_on,0,0,7,,,,,,,,6,,,59,85
337920,note_on,0,0,7,,,,,,,,6,,,62,85
337920,note_on,15,0,5,,,,,,,,4,,,59,64
337920,note_on,15,0,7,,,,,,,,6,,,67,85
337920,note_on,15,0,6,,,,,,,,5,,,47,64
337920,note_on,255,0,1,,,,,,,,0,,,86,85
338035,note_on,115,0,1,,,,,,,,0,,,86,0
338040,note_on,5,0,1,,,,,,,,0,,,88,85
338155,note_on,115,0,1,,,,,,,,0,,,88,0
338160,note_on,5,0,1,,,,,,,,0,,,86,85
338275,note_on,115,0,1,,,,,,,,0,,,86,0
338280,note_on,5,0,1,,,,,,,,0,,,84,85
338365,note_on,445,0,6,,,,,,,,5,,,47,0
338365,note_on,0,0,7,,,,,,,,6,,,67,0
338365,note_on,0,0,7,,,,,,,,6,,,62,0
338365,note_on,445,0,7,,,,,,,,6,,,59,0
338365,note_on,445,0,5,,,,,,,,4,,,59,0
338395,note_on,115,0,1,,,,,,,,0,,,84,0
338400,note_on,5,0,1,,,,,,,,0,,,83,85
338515,note_on,115,0,1,,,,,,,,0,,,83,0
338520,note_on,5,0,1,,,,,,,,0,,,81,85
338635,note_on,115,0,1,,,,,,,,0,,,81,0
338640,note_on,5,0,1,,,,,,,,0,,,79,85
338755,note_on,115,0,1,,,,,,,,0,,,79,0
338760,note_on,5,0,1,,,,,,,,0,,,77,85
338875,note_on,115,0,1,,,,,,,,0,,,77,0
338880,note_on,515,0,7,,,,,,,,6,,,72,85
338880,note_on,0,0,7,,,,,,,,6,,,67,85
338880,note_on,5,0,1,,,,,,,,0,,,76,85
338880,note_on,0,0,7,,,,,,,,6,,,60,85
338880,note_on,515,0,6,,,,,,,,5,,,48,64
338880,note_on,0,0,7,,,,,,,,6,,,64,85
338880,note_on,515,0,5,,,,,,,,4,,,60,64
338940,note_on,60,0,1,,,,,,,,0,,,76,0
339105,note_on,225,0,6,,,,,,,,5,,,48,0
339105,note_on,225,0,7,,,,,,,,6,,,60,0
339105,note_on,225,0,5,,,,,,,,4,,,60,0
339120,note_on,15,0,6,,,,,,,,5,,,40,64
339120,note_on,15,0,5,,,,,,,,4,,,52,64
339120,note_on,180,0,1,,,,,,,,0,,,86,85
339120,note_on,15,0,7,,,,,,,,6,,,52,85
339180,note_on,60,0,1,,,,,,,,0,,,86,0
339180,note_on,0,0,1,,,,,,,,0,,,84,85
339240,note_on,60,0,1,,,,,,,,0,,,84,0
339240,note_on,0,0,1,,,,,,,,0,,,86,85
339300,note_on,0,0,1,,,,,,,,0,,,84,85
339300,note_on,60,0,1,,,,,,,,0,,,86,0
339325,note_on,205,0,7,,,,,,,,6,,,72,0
339325,note_on,0,0,7,,,,,,,,6,,,64,0
339325,note_on,0,0,7,,,,,,,,6,,,67,0
339345,note_on,20,0,7,,,,,,,,6,,,52,0
339345,note_on,225,0,5,,,,,,,,4,,,52,0
339345,note_on,225,0,6,,,,,,,,5,,,40,0
339360,note_on,15,0,7,,,,,,,,6,,,76,85
339360,note_on,0,0,7,,,,,,,,6,,,72,85
339360,note_on,15,0,5,,,,,,,,4,,,48,64
339360,note_on,0,0,7,,,,,,,,6,,,67,85
339360,note_on,0,0,7,,,,,,,,6,,,48,85
339360,note_on,15,0,6,,,,,,,,5,,,36,64
339585,note_on,285,0,1,,,,,,,,0,,,84,0
339585,note_on,225,0,5,,,,,,,,4,,,48,0
339585,note_on,225,0,7,,,,,,,,6,,,48,0
339585,note_on,225,0,6,,,,,,,,5,,,36,0
339600,note_on,15,0,5,,,,,,,,4,,,60,64
339600,note_on,15,0,7,,,,,,,,6,,,60,85
339600,note_on,15,0,6,,,,,,,,5,,,48,64
339600,note_on,15,0,1,,,,,,,,0,,,76,85
339660,note_on,60,0,1,,,,,,,,0,,,76,0
339805,note_on,205,0,7,,,,,,,,6,,,76,0
339805,note_on,0,0,7,,,,,,,,6,,,67,0
339805,note_on,0,0,7,,,,,,,,6,,,72,0
339825,note_on,20,0,7,,,,,,,,6,,,60,0
339825,note_on,225,0,6,,,,,,,,5,,,48,0
339825,note_on,225,0,5,,,,,,,,4,,,60,0
339840,note_on,0,0,7,,,,,,,,6,,,67,85
339840,note_on,0,0,7,,,,,,,,6,,,71,85
339840,note_on,15,0,7,,,,,,,,6,,,74,85
339840,note_on,15,0,6,,,,,,,,5,,,47,64
339840,note_on,180,0,1,,,,,,,,0,,,74,85
339840,note_on,0,0,7,,,,,,,,6,,,59,85
339840,note_on,15,0,5,,,,,,,,4,,,59,64
339900,note_on,60,0,1,,,,,,,,0,,,74,0
340065,note_on,225,0,6,,,,,,,,5,,,47,0
340065,note_on,225,0,5,,,,,,,,4,,,59,0
340065,note_on,225,0,7,,,,,,,,6,,,59,0
340080,note_on,15,0,7,,,,,,,,6,,,50,85
340080,note_on,180,0,1,,,,,,,,0,,,84,85
340080,note_on,15,0,6,,,,,,,,5,,,38,64
340080,note_on,15,0,5,,,,,,,,4,,,50,64
340140,note_on,0,0,1,,,,,,,,0,,,83,85
340140,note_on,60,0,1,,,,,,,,0,,,84,0
340200,note_on,60,0,1,,,,,,,,0,,,83,0
340200,note_on,0,0,1,,,,,,,,0,,,84,85
340260,note_on,60,0,1,,,,,,,,0,,,84,0
340260,note_on,0,0,1,,,,,,,,0,,,83,85
340285,note_on,0,0,7,,,,,,,,6,,,71,0
340285,note_on,205,0,7,,,,,,,,6,,,74,0
340285,note_on,0,0,7,,,,,,,,6,,,67,0
340305,note_on,20,0,7,,,,,,,,6,,,50,0
340305,note_on,225,0,5,,,,,,,,4,,,50,0
340305,note_on,225,0,6,,,,,,,,5,,,38,0
340320,note_on,15,0,7,,,,,,,,6,,,71,85
340320,note_on,0,0,7,,,,,,,,6,,,67,85
340320,note_on,0,0,7,,,,,,,,6,,,62,85
340320,note_on,15,0,6,,,,,,,,5,,,35,64
340320,note_on,15,0,5,,,,,,,,4,,,47,64
340320,note_on,0,0,7,,,,,,,,6,,,47,85
340545,note_on,225,0,6,,,,,,,,5,,,35,0
340545,note_on,225,0,7,,,,,,,,6,,,47,0
340545,note_on,285,0,1,,,,,,,,0,,,83,0
340545,note_on,225,0,5,,,,,,,,4,,,47,0
340560,note_on,15,0,7,,,,,,,,6,,,59,85
340560,note_on,15,0,1,,,,,,,,0,,,74,85
340560,note_on,15,0,5,,,,,,,,4,,,59,64
340560,note_on,15,0,6,,,,,,,,5,,,47,64
340620,note_on,60,0,1,,,,,,,,0,,,74,0
340765,note_on,205,0,7,,,,,,,,6,,,71,0
340765,note_on,0,0,7,,,,,,,,6,,,62,0
340765,note_on,0,0,7,,,,,,,,6,,,67,0
340785,note_on,225,0,5,,,,,,,,4,,,59,0
340785,note_on,225,0,6,,,,,,,,5,,,47,0
340785,note_on,20,0,7,,,,,,,,6,,,59,0
340800,note_on,15,0,5,,,,,,,,4,,,57,64
340800,note_on,180,0,1,,,,,,,,0,,,72,85
340800,note_on,15,0,7,,,,,,,,6,,,77,85
340800,note_on,0,0,7,,,,,,,,6,,,72,85
340800,note_on,15,0,6,,,,,,,,5,,,45,64
340800,note_on,0,0,7,,,,,,,,6,,,57,85
340800,note_on,0,0,7,,,,,,,,6,,,69,85
340860,note_on,60,0,1,,,,,,,,0,,,72,0
341025,note_on,225,0,5,,,,,,,,4,,,57,0
341025,note_on,225,0,6,,,,,,,,5,,,45,0
341025,note_on,225,0,7,,,,,,,,6,,,57,0
341040,note_on,15,0,7,,,,,,,,6,,,48,85
341040,note_on,15,0,5,,,,,,,,4,,,48,64
341040,note_on,180,0,1,,,,,,,,0,,,83,85
341040,note_on,15,0,6,,,,,,,,5,,,36,64
341100,note_on,60,0,1,,,,,,,,0,,,83,0
341100,note_on,0,0,1,,,,,,,,0,,,81,85
341160,note_on,60,0,1,,,,,,,,0,,,81,0
341160,note_on,0,0,1,,,,,,,,0,,,83,85
341220,note_on,60,0,1,,,,,,,,0,,,83,0
341220,note_on,0,0,1,,,,,,,,0,,,81,85
341245,note_on,0,0,7,,,,,,,,6,,,69,0
341245,note_on,0,0,7,,,,,,,,6,,,72,0
341245,note_on,205,0,7,,,,,,,,6,,,77,0
341265,note_on,20,0,7,,,,,,,,6,,,48,0
341265,note_on,225,0,5,,,,,,,,4,,,48,0
341265,note_on,225,0,6,,,,,,,,5,,,36,0
341280,note_on,0,0,7,,,,,,,,6,,,72,85
341280,note_on,15,0,5,,,,,,,,4,,,45,64
341280,note_on,0,0,7,,,,,,,,6,,,77,85
341280,note_on,15,0,7,,,,,,,,6,,,81,85
341280,note_on,0,0,7,,,,,,,,6,,,45,85
341280,note_on,15,0,6,,,,,,,,5,,,33,64
341505,note_on,225,0,7,,,,,,,,6,,,45,0
341505,note_on,285,0,1,,,,,,,,0,,,81,0
341505,note_on,225,0,6,,,,,,,,5,,,33,0
341505,note_on,225,0,5,,,,,,,,4,,,45,0
341520,note_on,15,0,6,,,,,,,,5,,,45,64
341520,note_on,15,0,5,,,,,,,,4,,,57,64
341520,note_on,15,0,1,,,,,,,,0,,,72,85
341520,note_on,15,0,7,,,,,,,,6,,,57,85
341580,note_on,60,0,1,,,,,,,,0,,,72,0
341725,note_on,0,0,7,,,,,,,,6,,,77,0
341725,note_on,0,0,7,,,,,,,,6,,,72,0
341725,note_on,205,0,7,,,,,,,,6,,,81,0
341745,note_on,20,0,7,,,,,,,,6,,,57,0
341745,note_on,225,0,5,,,,,,,,4,,,57,0
341745,note_on,225,0,6,,,,,,,,5,,,45,0
341760,note_on,0,0,7,,,,,,,,6,,,71,85
341760,note_on,15,0,7,,,,,,,,6,,,79,85
341760,note_on,15,0,6,,,,,,,,5,,,43,64
341760,note_on,0,0,7,,,,,,,,6,,,55,85
341760,note_on,0,0,7,,,,,,,,6,,,74,85
341760,note_on,15,0,5,,,,,,,,4,,,55,64
341760,note_on,180,0,1,,,,,,,,0,,,71,85
341820,note_on,60,0,1,,,,,,,,0,,,71,0
341985,note_on,225,0,5,,,,,,,,4,,,55,0
341985,note_on,225,0,6,,,,,,,,5,,,43,0
341985,note_on,225,0,7,,,,,,,,6,,,55,0
342000,note_on,180,0,1,,,,,,,,0,,,81,85
342000,note_on,15,0,5,,,,,,,,4,,,47,64
342000,note_on,15,0,7,,,,,,,,6,,,47,85
342000,note_on,15,0,6,,,,,,,,5,,,35,64
342060,note_on,60,0,1,,,,,,,,0,,,81,0
342060,note_on,0,0,1,,,,,,,,0,,,79,85
342120,note_on,60,0,1,,,,,,,,0,,,79,0
342120,note_on,0,0,1,,,,,,,,0,,,81,85
342180,note_on,60,0,1,,,,,,,,0,,,81,0
342180,note_on,0,0,1,,,,,,,,0,,,79,85
342205,note_on,0,0,7,,,,,,,,6,,,74,0
342205,note_on,0,0,7,,,,,,,,6,,,71,0
342205,note_on,205,0,7,,,,,,,,6,,,79,0
342225,note_on,225,0,6,,,,,,,,5,,,35,0
342225,note_on,20,0,7,,,,,,,,6,,,47,0
342225,note_on,225,0,5,,,,,,,,4,,,47,0
342240,note_on,15,0,6,,,,,,,,5,,,31,64
342240,note_on,15,0,7,,,,,,,,6,,,74,85
342240,note_on,0,0,7,,,,,,,,6,,,71,85
342240,note_on,0,0,7,,,,,,,,6,,,67,85
342240,note_on,0,0,7,,,,,,,,6,,,43,85
342240,note_on,15,0,5,,,,,,,,4,,,43,64
342465,note_on,225,0,5,,,,,,,,4,,,43,0
342465,note_on,225,0,7,,,,,,,,6,,,43,0
342465,note_on,285,0,1,,,,,,,,0,,,79,0
342465,note_on,225,0,6,,,,,,,,5,,,31,0
342480,note_on,15,0,5,,,,,,,,4,,,55,64
342480,note_on,15,0,1,,,,,,,,0,,,71,85
342480,note_on,15,0,7,,,,,,,,6,,,55,85
342480,note_on,15,0,6,,,,,,,,5,,,43,64
342540,note_on,60,0,1,,,,,,,,0,,,71,0
342685,note_on,0,0,7,,,,,,,,6,,,71,0
342685,note_on,0,0,7,,,,,,,,6,,,67,0
342685,note_on,205,0,7,,,,,,,,6,,,74,0
342705,note_on,225,0,5,,,,,,,,4,,,55,0
342705,note_on,20,0,7,,,,,,,,6,,,55,0
342705,note_on,225,0,6,,,,,,,,5,,,43,0
342720,note_on,15,0,5,,,,,,,,4,,,53,64
342720,note_on,0,0,7,,,,,,,,6,,,65,85
342720,note_on,0,0,7,,,,,,,,6,,,69,85
342720,note_on,15,0,7,,,,,,,,6,,,74,85
342720,note_on,15,0,6,,,,,,,,5,,,41,64
342720,note_on,180,0,1,,,,,,,,0,,,69,85
342720,note_on,0,0,7,,,,,,,,6,,,53,85
342780,note_on,60,0,1,,,,,,,,0,,,69,0
342945,note_on,225,0,7,,,,,,,,6,,,53,0
342945,note_on,225,0,6,,,,,,,,5,,,41,0
342945,note_on,225,0,5,,,,,,,,4,,,53,0
342960,note_on,15,0,7,,,,,,,,6,,,45,85
342960,note_on,15,0,5,,,,,,,,4,,,45,64
342960,note_on,180,0,1,,,,,,,,0,,,79,85
342960,note_on,15,0,6,,,,,,,,5,,,33,64
343020,note_on,0,0,1,,,,,,,,0,,,77,85
343020,note_on,60,0,1,,,,,,,,0,,,79,0
343080,note_on,60,0,1,,,,,,,,0,,,77,0
343080,note_on,0,0,1,,,,,,,,0,,,79,85
343140,note_on,0,0,1,,,,,,,,0,,,77,85
343140,note_on,60,0,1,,,,,,,,0,,,79,0
343165,note_on,0,0,7,,,,,,,,6,,,69,0
343165,note_on,205,0,7,,,,,,,,6,,,74,0
343165,note_on,0,0,7,,,,,,,,6,,,65,0
343185,note_on,20,0,7,,,,,,,,6,,,45,0
343185,note_on,225,0,6,,,,,,,,5,,,33,0
343185,note_on,225,0,5,,,,,,,,4,,,45,0
343200,note_on,15,0,5,,,,,,,,4,,,41,64
343200,note_on,0,0,7,,,,,,,,6,,,74,85
343200,note_on,0,0,7,,,,,,,,6,,,69,85
343200,note_on,0,0,7,,,,,,,,6,,,41,85
343200,note_on,15,0,6,,,,,,,,5,,,29,64
343200,note_on,15,0,7,,,,,,,,6,,,77,85
343425,note_on,225,0,5,,,,,,,,4,,,41,0
343425,note_on,225,0,7,,,,,,,,6,,,41,0
343425,note_on,225,0,6,,,,,,,,5,,,29,0
343425,note_on,285,0,1,,,,,,,,0,,,77,0
343440,note_on,15,0,5,,,,,,,,4,,,53,64
343440,note_on,15,0,7,,,,,,,,6,,,53,85
343440,note_on,15,0,1,,,,,,,,0,,,69,85
343440,note_on,15,0,6,,,,,,,,5,,,41,64
343500,note_on,60,0,1,,,,,,,,0,,,69,0
343645,note_on,205,0,7,,,,,,,,6,,,77,0
343645,note_on,0,0,7,,,,,,,,6,,,69,0
343645,note_on,0,0,7,,,,,,,,6,,,74,0
343665,note_on,225,0,5,,,,,,,,4,,,53,0
343665,note_on,20,0,7,,,,,,,,6,,,53,0
343665,note_on,225,0,6,,,,,,,,5,,,41,0
343680,note_on,0,0,7,,,,,,,,6,,,74,85
343680,note_on,15,0,5,,,,,,,,4,,,55,64
343680,note_on,0,0,7,,,,,,,,6,,,71,85
343680,note_on,15,0,6,,,,,,,,5,,,43,64
343680,note_on,180,0,1,,,,,,,,0,,,67,85
343680,note_on,0,0,7,,,,,,,,6,,,55,85
343680,note_on,15,0,7,,,,,,,,6,,,79,85
343795,note_on,115,0,1,,,,,,,,0,,,67,0
343800,note_on,5,0,1,,,,,,,,0,,,55,85
343905,note_on,225,0,5,,,,,,,,4,,,55,0
343905,note_on,225,0,7,,,,,,,,6,,,55,0
343905,note_on,225,0,6,,,,,,,,5,,,43,0
343915,note_on,115,0,1,,,,,,,,0,,,55,0
343920,note_on,15,0,5,,,,,,,,4,,,55,64
343920,note_on,15,0,7,,,,,,,,6,,,55,85
343920,note_on,5,0,1,,,,,,,,0,,,67,85
343920,note_on,15,0,6,,,,,,,,5,,,43,64
344035,note_on,115,0,1,,,,,,,,0,,,67,0
344040,note_on,5,0,1,,,,,,,,0,,,55,85
344125,note_on,0,0,7,,,,,,,,6,,,79,0
344125,note_on,205,0,7,,,,,,,,6,,,71,0
344145,note_on,20,0,7,,,,,,,,6,,,55,0
344145,note_on,225,0,6,,,,,,,,5,,,43,0
344145,note_on,225,0,5,,,,,,,,4,,,55,0
344155,note_on,115,0,1,,,,,,,,0,,,55,0
344160,note_on,15,0,6,,,,,,,,5,,,43,64
344160,note_on,15,0,5,,,,,,,,4,,,55,64
344160,note_on,15,0,7,,,,,,,,6,,,77,85
344160,note_on,5,0,1,,,,,,,,0,,,65,85
344160,note_on,0,0,7,,,,,,,,6,,,71,85
344160,note_on,0,0,7,,,,,,,,6,,,55,85
344275,note_on,115,0,1,,,,,,,,0,,,65,0
344280,note_on,5,0,1,,,,,,,,0,,,55,85
344385,note_on,225,0,6,,,,,,,,5,,,43,0
344385,note_on,225,0,7,,,,,,,,6,,,55,0
344385,note_on,225,0,5,,,,,,,,4,,,55,0
344395,note_on,115,0,1,,,,,,,,0,,,55,0
344400,note_on,15,0,7,,,,,,,,6,,,55,85
344400,note_on,15,0,6,,,,,,,,5,,,43,64
344400,note_on,5,0,1,,,,,,,,0,,,65,85
344400,note_on,15,0,5,,,,,,,,4,,,55,64
344515,note_on,115,0,1,,,,,,,,0,,,65,0
344520,note_on,5,0,1,,,,,,,,0,,,55,85
344605,note_on,205,0,7,,,,,,,,6,,,74,0
344605,note_on,0,0,7,,,,,,,,6,,,77,0
344625,note_on,20,0,7,,,,,,,,6,,,55,0
344625,note_on,225,0,5,,,,,,,,4,,,55,0
344625,note_on,225,0,6,,,,,,,,5,,,43,0
344635,note_on,115,0,1,,,,,,,,0,,,55,0
344640,note_on,0,0,7,,,,,,,,6,,,67,85
344640,note_on,5,0,1,,,,,,,,0,,,64,85
344640,note_on,15,0,7,,,,,,,,6,,,76,85
344640,note_on,15,0,6,,,,,,,,5,,,43,64
344640,note_on,0,0,7,,,,,,,,6,,,55,85
344640,note_on,15,0,5,,,,,,,,4,,,55,64
344755,note_on,115,0,1,,,,,,,,0,,,64,0
344760,note_on,5,0,1,,,,,,,,0,,,55,85
344865,note_on,225,0,6,,,,,,,,5,,,43,0
344865,note_on,225,0,7,,,,,,,,6,,,55,0
344865,note_on,225,0,5,,,,,,,,4,,,55,0
344875,note_on,115,0,1,,,,,,,,0,,,55,0
344880,note_on,15,0,6,,,,,,,,5,,,43,64
344880,note_on,5,0,1,,,,,,,,0,,,64,85
344880,note_on,15,0,7,,,,,,,,6,,,55,85
344880,note_on,15,0,5,,,,,,,,4,,,55,64
344995,note_on,115,0,1,,,,,,,,0,,,64,0
345000,note_on,5,0,1,,,,,,,,0,,,55,85
345085,note_on,205,0,7,,,,,,,,6,,,71,0
345105,note_on,225,0,5,,,,,,,,4,,,55,0
345105,note_on,225,0,6,,,,,,,,5,,,43,0
345105,note_on,20,0,7,,,,,,,,6,,,55,0
345115,note_on,115,0,1,,,,,,,,0,,,55,0
345120,note_on,0,0,7,,,,,,,,6,,,55,85
345120,note_on,15,0,7,,,,,,,,6,,,76,0
345120,note_on,0,0,7,,,,,,,,6,,,74,85
345120,note_on,5,0,1,,,,,,,,0,,,62,85
345120,note_on,0,0,7,,,,,,,,6,,,71,85
345120,note_on,15,0,6,,,,,,,,5,,,43,64
345120,note_on,15,0,5,,,,,,,,4,,,55,64
345235,note_on,115,0,1,,,,,,,,0,,,62,0
345240,note_on,5,0,1,,,,,,,,0,,,55,85
345345,note_on,225,0,6,,,,,,,,5,,,43,0
345345,note_on,225,0,5,,,,,,,,4,,,55,0
345345,note_on,225,0,7,,,,,,,,6,,,55,0
345355,note_on,115,0,1,,,,,,,,0,,,55,0
345360,note_on,15,0,7,,,,,,,,6,,,55,85
345360,note_on,5,0,1,,,,,,,,0,,,62,85
345360,note_on,15,0,6,,,,,,,,5,,,43,64
345360,note_on,15,0,5,,,,,,,,4,,,55,64
345475,note_on,115,0,1,,,,,,,,0,,,62,0
345480,note_on,5,0,1,,,,,,,,0,,,55,85
345565,note_on,0,0,7,,,,,,,,6,,,74,0
345565,note_on,205,0,7,,,,,,,,6,,,67,0
345585,note_on,225,0,6,,,,,,,,5,,,43,0
345585,note_on,20,0,7,,,,,,,,6,,,55,0
345585,note_on,225,0,5,,,,,,,,4,,,55,0
345595,note_on,115,0,1,,,,,,,,0,,,55,0
345600,note_on,15,0,6,,,,,,,,5,,,43,64
345600,note_on,15,0,5,,,,,,,,4,,,55,64
345600,note_on,0,0,7,,,,,,,,6,,,74,85
345600,note_on,0,0,7,,,,,,,,6,,,55,85
345600,note_on,5,0,1,,,,,,,,0,,,67,85
345600,note_on,15,0,7,,,,,,,,6,,,79,85
345715,note_on,115,0,1,,,,,,,,0,,,67,0
345720,note_on,5,0,1,,,,,,,,0,,,55,85
345825,note_on,225,0,7,,,,,,,,6,,,55,0
345825,note_on,225,0,5,,,,,,,,4,,,55,0
345825,note_on,225,0,6,,,,,,,,5,,,43,0
345835,note_on,115,0,1,,,,,,,,0,,,55,0
345840,note_on,5,0,1,,,,,,,,0,,,67,85
345840,note_on,15,0,5,,,,,,,,4,,,55,64
345840,note_on,15,0,6,,,,,,,,5,,,43,64
345840,note_on,15,0,7,,,,,,,,6,,,55,85
345955,note_on,115,0,1,,,,,,,,0,,,67,0
345960,note_on,5,0,1,,,,,,,,0,,,55,85
346045,note_on,0,0,7,,,,,,,,6,,,79,0
346045,note_on,205,0,7,,,,,,,,6,,,71,0
346065,note_on,225,0,5,,,,,,,,4,,,55,0
346065,note_on,225,0,6,,,,,,,,5,,,43,0
346065,note_on,20,0,7,,,,,,,,6,,,55,0
346075,note_on,115,0,1,,,,,,,,0,,,55,0
346080,note_on,0,0,7,,,,,,,,6,,,71,85
346080,note_on,15,0,7,,,,,,,,6,,,77,85
346080,note_on,15,0,6,,,,,,,,5,,,43,64
346080,note_on,5,0,1,,,,,,,,0,,,65,85
346080,note_on,15,0,5,,,,,,,,4,,,55,64
346080,note_on,0,0,7,,,,,,,,6,,,55,85
346195,note_on,115,0,1,,,,,,,,0,,,65,0
346200,note_on,5,0,1,,,,,,,,0,,,55,85
346305,note_on,225,0,5,,,,,,,,4,,,55,0
346305,note_on,225,0,7,,,,,,,,6,,,55,0
346305,note_on,225,0,6,,,,,,,,5,,,43,0
346315,note_on,115,0,1,,,,,,,,0,,,55,0
346320,note_on,15,0,5,,,,,,,,4,,,55,64
346320,note_on,5,0,1,,,,,,,,0,,,65,85
346320,note_on,15,0,7,,,,,,,,6,,,55,85
346320,note_on,15,0,6,,,,,,,,5,,,43,64
346435,note_on,115,0,1,,,,,,,,0,,,65,0
346440,note_on,5,0,1,,,,,,,,0,,,55,85
346525,note_on,0,0,7,,,,,,,,6,,,77,0
346525,note_on,205,0,7,,,,,,,,6,,,74,0
346545,note_on,225,0,5,,,,,,,,4,,,55,0
346545,note_on,20,0,7,,,,,,,,6,,,55,0
346545,note_on,225,0,6,,,,,,,,5,,,43,0
346555,note_on,115,0,1,,,,,,,,0,,,55,0
346560,note_on,15,0,6,,,,,,,,5,,,43,64
346560,note_on,5,0,1,,,,,,,,0,,,64,85
346560,note_on,15,0,7,,,,,,,,6,,,76,85
346560,note_on,0,0,7,,,,,,,,6,,,55,85
346560,note_on,0,0,7,,,,,,,,6,,,67,85
346560,note_on,15,0,5,,,,,,,,4,,,55,64
346675,note_on,115,0,1,,,,,,,,0,,,64,0
346680,note_on,5,0,1,,,,,,,,0,,,55,85
346785,note_on,225,0,5,,,,,,,,4,,,55,0
346785,note_on,225,0,6,,,,,,,,5,,,43,0
346785,note_on,225,0,7,,,,,,,,6,,,55,0
346795,note_on,115,0,1,,,,,,,,0,,,55,0
346800,note_on,15,0,7,,,,,,,,6,,,55,85
346800,note_on,15,0,5,,,,,,,,4,,,55,64
346800,note_on,5,0,1,,,,,,,,0,,,64,85
346800,note_on,15,0,6,,,,,,,,5,,,43,64
346915,note_on,115,0,1,,,,,,,,0,,,64,0
346920,note_on,5,0,1,,,,,,,,0,,,55,85
347005,note_on,205,0,7,,,,,,,,6,,,71,0
347025,note_on,225,0,5,,,,,,,,4,,,55,0
347025,note_on,225,0,6,,,,,,,,5,,,43,0
347025,note_on,20,0,7,,,,,,,,6,,,55,0
347035,note_on,115,0,1,,,,,,,,0,,,55,0
347040,note_on,5,0,1,,,,,,,,0,,,62,85
347040,note_on,15,0,6,,,,,,,,5,,,43,64
347040,note_on,15,0,7,,,,,,,,6,,,76,0
347040,note_on,0,0,7,,,,,,,,6,,,74,85
347040,note_on,0,0,7,,,,,,,,6,,,71,85
347040,note_on,0,0,7,,,,,,,,6,,,55,85
347040,note_on,15,0,5,,,,,,,,4,,,55,64
347155,note_on,115,0,1,,,,,,,,0,,,62,0
347160,note_on,5,0,1,,,,,,,,0,,,55,85
347265,note_on,225,0,7,,,,,,,,6,,,55,0
347265,note_on,225,0,5,,,,,,,,4,,,55,0
347265,note_on,225,0,6,,,,,,,,5,,,43,0
347275,note_on,115,0,1,,,,,,,,0,,,55,0
347280,note_on,15,0,7,,,,,,,,6,,,55,85
347280,note_on,15,0,6,,,,,,,,5,,,43,64
347280,note_on,5,0,1,,,,,,,,0,,,62,85
347280,note_on,15,0,5,,,,,,,,4,,,55,64
347395,note_on,115,0,1,,,,,,,,0,,,62,0
347400,note_on,5,0,1,,,,,,,,0,,,55,85
347485,note_on,205,0,7,,,,,,,,6,,,67,0
347485,note_on,0,0,7,,,,,,,,6,,,71,0
347485,note_on,0,0,7,,,,,,,,6,,,74,0
347505,note_on,225,0,6,,,,,,,,5,,,43,0
347505,note_on,225,0,5,,,,,,,,4,,,55,0
347505,note_on,20,0,7,,,,,,,,6,,,55,0
347515,note_on,115,0,1,,,,,,,,0,,,55,0
347520,note_on,0,0,7,,,,,,,,6,,,74,85
347520,note_on,15,0,6,,,,,,,,5,,,43,64
347520,note_on,5,0,1,,,,,,,,0,,,79,85
347520,note_on,0,0,7,,,,,,,,6,,,55,85
347520,note_on,0,0,7,,,,,,,,6,,,71,85
347520,note_on,15,0,5,,,,,,,,4,,,55,64
347520,note_on,15,0,7,,,,,,,,6,,,79,85
347635,note_on,115,0,1,,,,,,,,0,,,79,0
347640,note_on,5,0,1,,,,,,,,0,,,67,85
347745,note_on,225,0,7,,,,,,,,6,,,55,0
347745,note_on,225,0,6,,,,,,,,5,,,43,0
347745,note_on,225,0,5,,,,,,,,4,,,55,0
347755,note_on,115,0,1,,,,,,,,0,,,67,0
347760,note_on,5,0,1,,,,,,,,0,,,79,85
347760,note_on,15,0,5,,,,,,,,4,,,55,64
347760,note_on,15,0,7,,,,,,,,6,,,55,85
347760,note_on,15,0,6,,,,,,,,5,,,43,64
347875,note_on,115,0,1,,,,,,,,0,,,79,0
347880,note_on,5,0,1,,,,,,,,0,,,67,85
347965,note_on,205,0,7,,,,,,,,6,,,71,0
347965,note_on,0,0,7,,,,,,,,6,,,79,0
347985,note_on,225,0,6,,,,,,,,5,,,43,0
347985,note_on,225,0,5,,,,,,,,4,,,55,0
347985,note_on,20,0,7,,,,,,,,6,,,55,0
347995,note_on,115,0,1,,,,,,,,0,,,67,0
348000,note_on,15,0,6,,,,,,,,5,,,43,64
348000,note_on,5,0,1,,,,,,,,0,,,77,85
348000,note_on,0,0,7,,,,,,,,6,,,71,85
348000,note_on,0,0,7,,,,,,,,6,,,55,85
348000,note_on,15,0,5,,,,,,,,4,,,55,64
348000,note_on,15,0,7,,,,,,,,6,,,77,85
348115,note_on,115,0,1,,,,,,,,0,,,77,0
348120,note_on,5,0,1,,,,,,,,0,,,67,85
348225,note_on,225,0,6,,,,,,,,5,,,43,0
348225,note_on,225,0,7,,,,,,,,6,,,55,0
348225,note_on,225,0,5,,,,,,,,4,,,55,0
348235,note_on,115,0,1,,,,,,,,0,,,67,0
348240,note_on,15,0,7,,,,,,,,6,,,55,85
348240,note_on,15,0,6,,,,,,,,5,,,43,64
348240,note_on,5,0,1,,,,,,,,0,,,77,85
348240,note_on,15,0,5,,,,,,,,4,,,55,64
348355,note_on,115,0,1,,,,,,,,0,,,77,0
348360,note_on,5,0,1,,,,,,,,0,,,67,85
348445,note_on,0,0,7,,,,,,,,6,,,77,0
348445,note_on,205,0,7,,,,,,,,6,,,74,0
348465,note_on,225,0,6,,,,,,,,5,,,43,0
348465,note_on,20,0,7,,,,,,,,6,,,55,0
348465,note_on,225,0,5,,,,,,,,4,,,55,0
348475,note_on,115,0,1,,,,,,,,0,,,67,0
348480,note_on,15,0,5,,,,,,,,4,,,55,64
348480,note_on,15,0,6,,,,,,,,5,,,43,64
348480,note_on,15,0,7,,,,,,,,6,,,76,85
348480,note_on,0,0,7,,,,,,,,6,,,67,85
348480,note_on,0,0,7,,,,,,,,6,,,55,85
348480,note_on,5,0,1,,,,,,,,0,,,76,85
348595,note_on,115,0,1,,,,,,,,0,,,76,0
348600,note_on,5,0,1,,,,,,,,0,,,67,85
348705,note_on,225,0,6,,,,,,,,5,,,43,0
348705,note_on,225,0,7,,,,,,,,6,,,55,0
348705,note_on,225,0,5,,,,,,,,4,,,55,0
348715,note_on,115,0,1,,,,,,,,0,,,67,0
348720,note_on,5,0,1,,,,,,,,0,,,76,85
348720,note_on,15,0,6,,,,,,,,5,,,43,64
348720,note_on,15,0,5,,,,,,,,4,,,55,64
348720,note_on,15,0,7,,,,,,,,6,,,55,85
348835,note_on,115,0,1,,,,,,,,0,,,76,0
348840,note_on,5,0,1,,,,,,,,0,,,67,85
348925,note_on,205,0,7,,,,,,,,6,,,71,0
348945,note_on,225,0,6,,,,,,,,5,,,43,0
348945,note_on,20,0,7,,,,,,,,6,,,55,0
348945,note_on,225,0,5,,,,,,,,4,,,55,0
348955,note_on,115,0,1,,,,,,,,0,,,67,0
348960,note_on,0,0,7,,,,,,,,6,,,71,85
348960,note_on,0,0,7,,,,,,,,6,,,74,85
348960,note_on,15,0,7,,,,,,,,6,,,76,0
348960,note_on,15,0,5,,,,,,,,4,,,55,64
348960,note_on,15,0,6,,,,,,,,5,,,43,64
348960,note_on,5,0,1,,,,,,,,0,,,74,85
348960,note_on,0,0,7,,,,,,,,6,,,55,85
349075,note_on,115,0,1,,,,,,,,0,,,74,0
349080,note_on,5,0,1,,,,,,,,0,,,67,85
349185,note_on,225,0,6,,,,,,,,5,,,43,0
349185,note_on,225,0,5,,,,,,,,4,,,55,0
349185,note_on,225,0,7,,,,,,,,6,,,55,0
349195,note_on,115,0,1,,,,,,,,0,,,67,0
349200,note_on,15,0,5,,,,,,,,4,,,55,64
349200,note_on,15,0,6,,,,,,,,5,,,43,64
349200,note_on,15,0,7,,,,,,,,6,,,55,85
349200,note_on,5,0,1,,,,,,,,0,,,74,85
349315,note_on,115,0,1,,,,,,,,0,,,74,0
349320,note_on,5,0,1,,,,,,,,0,,,67,85
349405,note_on,205,0,7,,,,,,,,6,,,67,0
349405,note_on,0,0,7,,,,,,,,6,,,74,0
349425,note_on,20,0,7,,,,,,,,6,,,55,0
349425,note_on,225,0,5,,,,,,,,4,,,55,0
349425,note_on,225,0,6,,,,,,,,5,,,43,0
349435,note_on,115,0,1,,,,,,,,0,,,67,0
349440,note_on,15,0,7,,,,,,,,6,,,79,85
349440,note_on,5,0,1,,,,,,,,0,,,79,85
349440,note_on,15,0,5,,,,,,,,4,,,55,64
349440,note_on,15,0,6,,,,,,,,5,,,43,64
349440,note_on,0,0,7,,,,,,,,6,,,74,85
349440,note_on,0,0,7,,,,,,,,6,,,55,85
349555,note_on,115,0,1,,,,,,,,0,,,79,0
349560,note_on,5,0,1,,,,,,,,0,,,67,85
349665,note_on,225,0,6,,,,,,,,5,,,43,0
349665,note_on,225,0,5,,,,,,,,4,,,55,0
349665,note_on,225,0,7,,,,,,,,6,,,55,0
349675,note_on,115,0,1,,,,,,,,0,,,67,0
349680,note_on,15,0,5,,,,,,,,4,,,55,64
349680,note_on,5,0,1,,,,,,,,0,,,79,85
349680,note_on,15,0,6,,,,,,,,5,,,43,64
349680,note_on,15,0,7,,,,,,,,6,,,55,85
349795,note_on,115,0,1,,,,,,,,0,,,79,0
349800,note_on,5,0,1,,,,,,,,0,,,67,85
349885,note_on,205,0,7,,,,,,,,6,,,71,0
349885,note_on,0,0,7,,,,,,,,6,,,79,0
349905,note_on,225,0,6,,,,,,,,5,,,43,0
349905,note_on,225,0,5,,,,,,,,4,,,55,0
349905,note_on,20,0,7,,,,,,,,6,,,55,0
349915,note_on,115,0,1,,,,,,,,0,,,67,0
349920,note_on,15,0,6,,,,,,,,5,,,43,64
349920,note_on,15,0,7,,,,,,,,6,,,77,85
349920,note_on,0,0,7,,,,,,,,6,,,71,85
349920,note_on,0,0,7,,,,,,,,6,,,55,85
349920,note_on,5,0,1,,,,,,,,0,,,77,85
349920,note_on,15,0,5,,,,,,,,4,,,55,64
350035,note_on,115,0,1,,,,,,,,0,,,77,0
350040,note_on,5,0,1,,,,,,,,0,,,67,85
350145,note_on,225,0,7,,,,,,,,6,,,55,0
350145,note_on,225,0,5,,,,,,,,4,,,55,0
350145,note_on,225,0,6,,,,,,,,5,,,43,0
350155,note_on,115,0,1,,,,,,,,0,,,67,0
350160,note_on,5,0,1,,,,,,,,0,,,77,85
350160,note_on,15,0,5,,,,,,,,4,,,55,64
350160,note_on,15,0,7,,,,,,,,6,,,55,85
350160,note_on,15,0,6,,,,,,,,5,,,43,64
350275,note_on,115,0,1,,,,,,,,0,,,77,0
350280,note_on,5,0,1,,,,,,,,0,,,67,85
350365,note_on,0,0,7,,,,,,,,6,,,77,0
350365,note_on,205,0,7,,,,,,,,6,,,74,0
350385,note_on,20,0,7,,,,,,,,6,,,55,0
350385,note_on,225,0,6,,,,,,,,5,,,43,0
350385,note_on,225,0,5,,,,,,,,4,,,55,0
350395,note_on,115,0,1,,,,,,,,0,,,67,0
350400,note_on,15,0,5,,,,,,,,4,,,55,64
350400,note_on,5,0,1,,,,,,,,0,,,76,85
350400,note_on,15,0,7,,,,,,,,6,,,76,85
350400,note_on,0,0,7,,,,,,,,6,,,67,85
350400,note_on,0,0,7,,,,,,,,6,,,55,85
350400,note_on,15,0,6,,,,,,,,5,,,43,64
350515,note_on,115,0,1,,,,,,,,0,,,76,0
350520,note_on,5,0,1,,,,,,,,0,,,67,85
350625,note_on,225,0,7,,,,,,,,6,,,55,0
350625,note_on,225,0,6,,,,,,,,5,,,43,0
350625,note_on,225,0,5,,,,,,,,4,,,55,0
350635,note_on,115,0,1,,,,,,,,0,,,67,0
350640,note_on,15,0,7,,,,,,,,6,,,55,85
350640,note_on,15,0,6,,,,,,,,5,,,43,64
350640,note_on,5,0,1,,,,,,,,0,,,76,85
350640,note_on,15,0,5,,,,,,,,4,,,55,64
350755,note_on,115,0,1,,,,,,,,0,,,76,0
350760,note_on,5,0,1,,,,,,,,0,,,67,85
350845,note_on,205,0,7,,,,,,,,6,,,71,0
350865,note_on,225,0,5,,,,,,,,4,,,55,0
350865,note_on,225,0,6,,,,,,,,5,,,43,0
350865,note_on,20,0,7,,,,,,,,6,,,55,0
350875,note_on,115,0,1,,,,,,,,0,,,67,0
350880,note_on,15,0,6,,,,,,,,5,,,43,64
350880,note_on,15,0,5,,,,,,,,4,,,55,64
350880,note_on,0,0,7,,,,,,,,6,,,55,85
350880,note_on,0,0,7,,,,,,,,6,,,71,85
350880,note_on,15,0,7,,,,,,,,6,,,76,0
350880,note_on,5,0,1,,,,,,,,0,,,74,85
350880,note_on,0,0,7,,,,,,,,6,,,74,85
350995,note_on,115,0,1,,,,,,,,0,,,74,0
351000,note_on,5,0,1,,,,,,,,0,,,67,85
351105,note_on,225,0,7,,,,,,,,6,,,55,0
351105,note_on,225,0,5,,,,,,,,4,,,55,0
351105,note_on,225,0,6,,,,,,,,5,,,43,0
351115,note_on,115,0,1,,,,,,,,0,,,67,0
351120,note_on,15,0,6,,,,,,,,5,,,43,64
351120,note_on,15,0,5,,,,,,,,4,,,55,64
351120,note_on,5,0,1,,,,,,,,0,,,74,85
351120,note_on,15,0,7,,,,,,,,6,,,55,85
351235,note_on,115,0,1,,,,,,,,0,,,74,0
351240,note_on,5,0,1,,,,,,,,0,,,67,85
351325,note_on,0,0,7,,,,,,,,6,,,71,0
351325,note_on,0,0,7,,,,,,,,6,,,74,0
351325,note_on,205,0,7,,,,,,,,6,,,67,0
351345,note_on,20,0,7,,,,,,,,6,,,55,0
351345,note_on,225,0,5,,,,,,,,4,,,55,0
351345,note_on,225,0,6,,,,,,,,5,,,43,0
351355,note_on,115,0,1,,,,,,,,0,,,67,0
351360,note_on,15,0,6,,,,,,,,5,,,45,64
351360,note_on,15,0,7,,,,,,,,6,,,76,85
351360,note_on,0,0,7,,,,,,,,6,,,57,85
351360,note_on,5,0,1,,,,,,,,0,,,84,85
351360,note_on,15,0,5,,,,,,,,4,,,57,64
351585,note_on,225,0,7,,,,,,,,6,,,57,0
351585,note_on,225,0,5,,,,,,,,4,,,57,0
351585,note_on,225,0,6,,,,,,,,5,,,45,0
351600,note_on,15,0,6,,,,,,,,5,,,43,64
351600,note_on,15,0,7,,,,,,,,6,,,55,85
351600,note_on,15,0,5,,,,,,,,4,,,55,64
351825,note_on,225,0,5,,,,,,,,4,,,55,0
351825,note_on,225,0,7,,,,,,,,6,,,55,0
351825,note_on,225,0,6,,,,,,,,5,,,43,0
351840,note_on,15,0,7,,,,,,,,6,,,57,85
351840,note_on,15,0,6,,,,,,,,5,,,45,64
351840,note_on,15,0,5,,,,,,,,4,,,57,64
352025,note_on,665,0,1,,,,,,,,0,,,84,0
352025,note_on,185,0,7,,,,,,,,6,,,76,0
352065,note_on,225,0,6,,,,,,,,5,,,45,0
352065,note_on,40,0,7,,,,,,,,6,,,57,0
352065,note_on,225,0,5,,,,,,,,4,,,57,0
352080,note_on,15,0,6,,,,,,,,5,,,47,64
352080,note_on,0,0,7,,,,,,,,6,,,59,85
352080,note_on,15,0,7,,,,,,,,6,,,71,85
352080,note_on,55,0,1,,,,,,,,0,,,83,85
352080,note_on,15,0,5,,,,,,,,4,,,59,64
352195,note_on,115,0,1,,,,,,,,0,,,83,0
352195,note_on,115,0,7,,,,,,,,6,,,71,0
352200,note_on,5,0,7,,,,,,,,6,,,74,85
352200,note_on,5,0,1,,,,,,,,0,,,81,85
352305,note_on,225,0,5,,,,,,,,4,,,59,0
352305,note_on,225,0,6,,,,,,,,5,,,47,0
352305,note_on,105,0,7,,,,,,,,6,,,59,0
352315,note_on,115,0,1,,,,,,,,0,,,81,0
352315,note_on,10,0,7,,,,,,,,6,,,74,0
352320,note_on,0,0,7,,,,,,,,6,,,60,85
352320,note_on,15,0,5,,,,,,,,4,,,60,64
352320,note_on,5,0,1,,,,,,,,0,,,79,85
352320,note_on,15,0,6,,,,,,,,5,,,48,64
352320,note_on,5,0,7,,,,,,,,6,,,76,85
352545,note_on,225,0,5,,,,,,,,4,,,60,0
352545,note_on,225,0,7,,,,,,,,6,,,60,0
352545,note_on,225,0,6,,,,,,,,5,,,48,0
352560,note_on,15,0,7,,,,,,,,6,,,62,85
352560,note_on,15,0,6,,,,,,,,5,,,50,64
352560,note_on,15,0,5,,,,,,,,4,,,62,64
352785,note_on,225,0,5,,,,,,,,4,,,62,0
352785,note_on,225,0,7,,,,,,,,6,,,62,0
352785,note_on,225,0,6,,,,,,,,5,,,50,0
352800,note_on,15,0,6,,,,,,,,5,,,52,64
352800,note_on,15,0,7,,,,,,,,6,,,64,85
352800,note_on,15,0,5,,,,,,,,4,,,64,64
352985,note_on,185,0,7,,,,,,,,6,,,76,0
352985,note_on,665,0,1,,,,,,,,0,,,79,0
353025,note_on,225,0,6,,,,,,,,5,,,52,0
353025,note_on,40,0,7,,,,,,,,6,,,64,0
353025,note_on,225,0,5,,,,,,,,4,,,64,0
353040,note_on,15,0,6,,,,,,,,5,,,48,64
353040,note_on,15,0,5,,,,,,,,4,,,60,64
353040,note_on,55,0,1,,,,,,,,0,,,77,85
353040,note_on,0,0,7,,,,,,,,6,,,60,85
353040,note_on,15,0,7,,,,,,,,6,,,74,85
353155,note_on,115,0,1,,,,,,,,0,,,77,0
353155,note_on,115,0,7,,,,,,,,6,,,74,0
353160,note_on,5,0,1,,,,,,,,0,,,76,85
353160,note_on,5,0,7,,,,,,,,6,,,72,85
353265,note_on,225,0,5,,,,,,,,4,,,60,0
353265,note_on,105,0,7,,,,,,,,6,,,60,0
353265,note_on,225,0,6,,,,,,,,5,,,48,0
353275,note_on,115,0,1,,,,,,,,0,,,76,0
353275,note_on,10,0,7,,,,,,,,6,,,72,0
353280,note_on,15,0,6,,,,,,,,5,,,47,64
353280,note_on,0,0,7,,,,,,,,6,,,59,85
353280,note_on,5,0,7,,,,,,,,6,,,71,85
353280,note_on,15,0,5,,,,,,,,4,,,59,64
353280,note_on,5,0,1,,,,,,,,0,,,74,85
353505,note_on,225,0,6,,,,,,,,5,,,47,0
353505,note_on,225,0,5,,,,,,,,4,,,59,0
353505,note_on,225,0,7,,,,,,,,6,,,59,0
353520,note_on,15,0,5,,,,,,,,4,,,57,64
353520,note_on,15,0,7,,,,,,,,6,,,57,85
353520,note_on,15,0,6,,,,,,,,5,,,45,64
353745,note_on,225,0,7,,,,,,,,6,,,57,0
353745,note_on,225,0,6,,,,,,,,5,,,45,0
353745,note_on,225,0,5,,,,,,,,4,,,57,0
353760,note_on,15,0,6,,,,,,,,5,,,47,64
353760,note_on,15,0,7,,,,,,,,6,,,59,85
353760,note_on,15,0,5,,,,,,,,4,,,59,64
353945,note_on,185,0,7,,,,,,,,6,,,71,0
353945,note_on,665,0,1,,,,,,,,0,,,74,0
353985,note_on,225,0,6,,,,,,,,5,,,47,0
353985,note_on,40,0,7,,,,,,,,6,,,59,0
353985,note_on,225,0,5,,,,,,,,4,,,59,0
354000,note_on,0,0,7,,,,,,,,6,,,55,85
354000,note_on,15,0,7,,,,,,,,6,,,72,85
354000,note_on,15,0,5,,,,,,,,4,,,55,64
354000,note_on,55,0,1,,,,,,,,0,,,76,85
354000,note_on,15,0,6,,,,,,,,5,,,43,64
354115,note_on,115,0,7,,,,,,,,6,,,72,0
354115,note_on,115,0,1,,,,,,,,0,,,76,0
354120,note_on,5,0,7,,,,,,,,6,,,74,85
354120,note_on,5,0,1,,,,,,,,0,,,77,85
354225,note_on,225,0,6,,,,,,,,5,,,43,0
354225,note_on,225,0,5,,,,,,,,4,,,55,0
354225,note_on,105,0,7,,,,,,,,6,,,55,0
354235,note_on,115,0,1,,,,,,,,0,,,77,0
354235,note_on,10,0,7,,,,,,,,6,,,74,0
354240,note_on,0,0,7,,,,,,,,6,,,57,85
354240,note_on,5,0,1,,,,,,,,0,,,84,64
354240,note_on,15,0,5,,,,,,,,4,,,57,49
354240,note_on,15,0,6,,,,,,,,5,,,45,49
354240,note_on,5,0,7,,,,,,,,6,,,81,85
354465,note_on,225,0,7,,,,,,,,6,,,57,0
354465,note_on,225,0,6,,,,,,,,5,,,45,0
354465,note_on,225,0,5,,,,,,,,4,,,57,0
354480,note_on,15,0,7,,,,,,,,6,,,55,85
354480,note_on,15,0,6,,,,,,,,5,,,43,49
354480,note_on,15,0,5,,,,,,,,4,,,55,49
354705,note_on,225,0,6,,,,,,,,5,,,43,0
354705,note_on,225,0,5,,,,,,,,4,,,55,0
354705,note_on,225,0,7,,,,,,,,6,,,55,0
354720,note_on,15,0,5,,,,,,,,4,,,57,49
354720,note_on,15,0,7,,,,,,,,6,,,57,85
354720,note_on,15,0,6,,,,,,,,5,,,45,49
354905,note_on,185,0,7,,,,,,,,6,,,81,0
354905,note_on,665,0,1,,,,,,,,0,,,84,0
354945,note_on,225,0,5,,,,,,,,4,,,57,0
354945,note_on,40,0,7,,,,,,,,6,,,57,0
354945,note_on,225,0,6,,,,,,,,5,,,45,0
354960,note_on,15,0,5,,,,,,,,4,,,59,49
354960,note_on,55,0,1,,,,,,,,0,,,83,64
354960,note_on,15,0,6,,,,,,,,5,,,47,49
354960,note_on,15,0,7,,,,,,,,6,,,79,85
354960,note_on,0,0,7,,,,,,,,6,,,59,85
355075,note_on,115,0,1,,,,,,,,0,,,83,0
355075,note_on,115,0,7,,,,,,,,6,,,79,0
355080,note_on,5,0,1,,,,,,,,0,,,81,64
355080,note_on,5,0,7,,,,,,,,6,,,77,85
355185,note_on,225,0,6,,,,,,,,5,,,47,0
355185,note_on,225,0,5,,,,,,,,4,,,59,0
355185,note_on,105,0,7,,,,,,,,6,,,59,0
355195,note_on,10,0,7,,,,,,,,6,,,77,0
355195,note_on,115,0,1,,,,,,,,0,,,81,0
355200,note_on,15,0,5,,,,,,,,4,,,60,49
355200,note_on,5,0,7,,,,,,,,6,,,76,85
355200,note_on,0,0,7,,,,,,,,6,,,60,85
355200,note_on,15,0,6,,,,,,,,5,,,48,49
355200,note_on,5,0,1,,,,,,,,0,,,79,64
355425,note_on,225,0,6,,,,,,,,5,,,48,0
355425,note_on,225,0,7,,,,,,,,6,,,60,0
355425,note_on,225,0,5,,,,,,,,4,,,60,0
355440,note_on,15,0,6,,,,,,,,5,,,50,49
355440,note_on,15,0,7,,,,,,,,6,,,62,85
355440,note_on,15,0,5,,,,,,,,4,,,62,49
355665,note_on,225,0,6,,,,,,,,5,,,50,0
355665,note_on,225,0,7,,,,,,,,6,,,62,0
355665,note_on,225,0,5,,,,,,,,4,,,62,0
355680,note_on,15,0,5,,,,,,,,4,,,64,49
355680,note_on,15,0,6,,,,,,,,5,,,52,49
355680,note_on,15,0,7,,,,,,,,6,,,64,85
355865,note_on,665,0,1,,,,,,,,0,,,79,0
355865,note_on,185,0,7,,,,,,,,6,,,76,0
355905,note_on,225,0,5,,,,,,,,4,,,64,0
355905,note_on,40,0,7,,,,,,,,6,,,64,0
355905,note_on,225,0,6,,,,,,,,5,,,52,0
355920,note_on,55,0,1,,,,,,,,0,,,77,64
355920,note_on,15,0,5,,,,,,,,4,,,60,49
355920,note_on,15,0,7,,,,,,,,6,,,74,85
355920,note_on,0,0,7,,,,,,,,6,,,60,85
355920,note_on,15,0,6,,,,,,,,5,,,48,49
356035,note_on,115,0,1,,,,,,,,0,,,77,0
356035,note_on,115,0,7,,,,,,,,6,,,74,0
356040,note_on,5,0,1,,,,,,,,0,,,76,64
356040,note_on,5,0,7,,,,,,,,6,,,76,85
356145,note_on,225,0,6,,,,,,,,5,,,48,0
356145,note_on,225,0,5,,,,,,,,4,,,60,0
356145,note_on,105,0,7,,,,,,,,6,,,60,0
356155,note_on,115,0,1,,,,,,,,0,,,76,0
356155,note_on,10,0,7,,,,,,,,6,,,76,0
356160,note_on,15,0,6,,,,,,,,5,,,47,49
356160,note_on,5,0,1,,,,,,,,0,,,74,64
356160,note_on,15,0,5,,,,,,,,4,,,59,49
356160,note_on,5,0,7,,,,,,,,6,,,71,85
356160,note_on,0,0,7,,,,,,,,6,,,59,85
356385,note_on,225,0,7,,,,,,,,6,,,59,0
356385,note_on,225,0,6,,,,,,,,5,,,47,0
356385,note_on,225,0,5,,,,,,,,4,,,59,0
356400,note_on,15,0,7,,,,,,,,6,,,57,85
356400,note_on,15,0,6,,,,,,,,5,,,45,49
356400,note_on,15,0,5,,,,,,,,4,,,57,49
356625,note_on,225,0,6,,,,,,,,5,,,45,0
356625,note_on,225,0,5,,,,,,,,4,,,57,0
356625,note_on,225,0,7,,,,,,,,6,,,57,0
356640,note_on,15,0,6,,,,,,,,5,,,47,49
356640,note_on,15,0,7,,,,,,,,6,,,59,85
356640,note_on,15,0,5,,,,,,,,4,,,59,49
356825,note_on,665,0,1,,,,,,,,0,,,74,0
356825,note_on,185,0,7,,,,,,,,6,,,71,0
356865,note_on,40,0,7,,,,,,,,6,,,59,0
356865,note_on,225,0,5,,,,,,,,4,,,59,0
356865,note_on,225,0,6,,,,,,,,5,,,47,0
356880,note_on,0,0,7,,,,,,,,6,,,55,85
356880,note_on,15,0,7,,,,,,,,6,,,72,85
356880,note_on,15,0,5,,,,,,,,4,,,55,49
356880,note_on,55,0,1,,,,,,,,0,,,76,64
356880,note_on,15,0,6,,,,,,,,5,,,43,49
356995,note_on,115,0,1,,,,,,,,0,,,76,0
356995,note_on,115,0,7,,,,,,,,6,,,72,0
357000,note_on,5,0,7,,,,,,,,6,,,74,85
357000,note_on,5,0,1,,,,,,,,0,,,77,64
357105,note_on,225,0,5,,,,,,,,4,,,55,0
357105,note_on,105,0,7,,,,,,,,6,,,55,0
357105,note_on,225,0,6,,,,,,,,5,,,43,0
357115,note_on,115,0,1,,,,,,,,0,,,77,0
357115,note_on,10,0,7,,,,,,,,6,,,74,0
357120,note_on,15,0,5,,,,,,,,4,,,60,64
357120,note_on,5,0,1,,,,,,,,0,,,76,106
357120,note_on,15,0,6,,,,,,,,5,,,48,64
357120,note_on,0,0,7,,,,,,,,6,,,60,85
357120,note_on,5,0,7,,,,,,,,6,,,72,85
357345,note_on,0,0,7,,,,,,,,6,,,72,0
357345,note_on,225,0,7,,,,,,,,6,,,60,0
357345,note_on,225,0,1,,,,,,,,0,,,76,0
357345,note_on,225,0,5,,,,,,,,4,,,60,0
357345,note_on,225,0,6,,,,,,,,5,,,48,0
357360,note_on,15,0,1,,,,,,,,0,,,84,106
357360,note_on,0,0,7,,,,,,,,6,,,67,85
357360,note_on,0,0,7,,,,,,,,6,,,64,85
357360,note_on,0,0,7,,,,,,,,6,,,52,85
357360,note_on,15,0,5,,,,,,,,4,,,52,64
357360,note_on,15,0,7,,,,,,,,6,,,72,85
357360,note_on,15,0,6,,,,,,,,5,,,40,64
357585,note_on,225,0,5,,,,,,,,4,,,52,0
357585,note_on,0,0,7,,,,,,,,6,,,64,0
357585,note_on,0,0,7,,,,,,,,6,,,72,0
357585,note_on,225,0,7,,,,,,,,6,,,52,0
357585,note_on,225,0,1,,,,,,,,0,,,84,0
357585,note_on,0,0,7,,,,,,,,6,,,67,0
357585,note_on,225,0,6,,,,,,,,5,,,40,0
357600,note_on,15,0,5,,,,,,,,4,,,53,64
357600,note_on,0,0,7,,,,,,,,6,,,62,85
357600,note_on,0,0,7,,,,,,,,6,,,65,85
357600,note_on,15,0,6,,,,,,,,5,,,41,64
357600,note_on,15,0,7,,,,,,,,6,,,69,85
357600,note_on,0,0,7,,,,,,,,6,,,53,85
357600,note_on,15,0,1,,,,,,,,0,,,74,106
357825,note_on,225,0,5,,,,,,,,4,,,53,0
357825,note_on,225,0,6,,,,,,,,5,,,41,0
357825,note_on,225,0,7,,,,,,,,6,,,53,0
357825,note_on,0,0,7,,,,,,,,6,,,69,0
357825,note_on,0,0,7,,,,,,,,6,,,62,0
357825,note_on,225,0,1,,,,,,,,0,,,74,0
357825,note_on,0,0,7,,,,,,,,6,,,65,0
357840,note_on,0,0,7,,,,,,,,6,,,67,85
357840,note_on,0,0,7,,,,,,,,6,,,55,85
357840,note_on,15,0,5,,,,,,,,4,,,55,64
357840,note_on,15,0,1,,,,,,,,0,,,83,106
357840,note_on,15,0,6,,,,,,,,5,,,43,64
357840,note_on,0,0,7,,,,,,,,6,,,62,85
357840,note_on,15,0,7,,,,,,,,6,,,71,85
358065,note_on,225,0,7,,,,,,,,6,,,55,0
358065,note_on,0,0,7,,,,,,,,6,,,71,0
358065,note_on,0,0,7,,,,,,,,6,,,67,0
358065,note_on,0,0,7,,,,,,,,6,,,62,0
358065,note_on,225,0,1,,,,,,,,0,,,83,0
358065,note_on,225,0,5,,,,,,,,4,,,55,0
358065,note_on,225,0,6,,,,,,,,5,,,43,0
358080,note_on,0,0,7,,,,,,,,6,,,48,85
358080,note_on,0,0,7,,,,,,,,6,,,64,85
358080,note_on,15,0,5,,,,,,,,4,,,48,64
358080,note_on,15,0,1,,,,,,,,0,,,84,106
358080,note_on,0,0,7,,,,,,,,6,,,67,85
358080,note_on,15,0,6,,,,,,,,5,,,36,64
358080,note_on,15,0,7,,,,,,,,6,,,72,85
358525,note_on,445,0,6,,,,,,,,5,,,36,0
358525,note_on,445,0,5,,,,,,,,4,,,48,0
358525,note_on,445,0,1,,,,,,,,0,,,84,0
358525,note_on,0,0,7,,,,,,,,6,,,64,0
358525,note_on,0,0,7,,,,,,,,6,,,67,0
358525,note_on,0,0,7,,,,,,,,6,,,72,0
358525,note_on,445,0,7,,,,,,,,6,,,48,0
358800,note_on,275,0,1,,,,,,,,0,,,79,106
358800,note_on,36755,0,2,,,,,,,,1,,,79,85
358800,note_on,36755,0,3,,,,,,,,2,,,79,85
359025,note_on,225,0,1,,,,,,,,0,,,79,0
359025,note_on,225,0,2,,,,,,,,1,,,79,0
359025,note_on,225,0,3,,,,,,,,2,,,79,0
359040,note_on,15,0,2,,,,,,,,1,,,72,85
359040,note_on,15,0,3,,,,,,,,2,,,72,85
359040,note_on,0,0,7,,,,,,,,6,,,64,85
359040,note_on,0,0,7,,,,,,,,6,,,67,85
359040,note_on,15,0,1,,,,,,,,0,,,72,106
359040,note_on,0,0,7,,,,,,,,6,,,52,85
359040,note_on,515,0,7,,,,,,,,6,,,72,85
359265,note_on,225,0,1,,,,,,,,0,,,72,0
359265,note_on,225,0,3,,,,,,,,2,,,72,0
359265,note_on,225,0,2,,,,,,,,1,,,72,0
359280,note_on,15,0,1,,,,,,,,0,,,72,106
359280,note_on,15,0,3,,,,,,,,2,,,72,85
359280,note_on,15,0,2,,,,,,,,1,,,72,85
359485,note_on,0,0,7,,,,,,,,6,,,64,0
359485,note_on,0,0,7,,,,,,,,6,,,72,0
359485,note_on,445,0,7,,,,,,,,6,,,52,0
359485,note_on,0,0,7,,,,,,,,6,,,67,0
359505,note_on,225,0,3,,,,,,,,2,,,72,0
359505,note_on,225,0,2,,,,,,,,1,,,72,0
359505,note_on,225,0,1,,,,,,,,0,,,72,0
359520,note_on,15,0,1,,,,,,,,0,,,72,106
359520,note_on,15,0,3,,,,,,,,2,,,72,85
359520,note_on,15,0,2,,,,,,,,1,,,72,85
359745,note_on,225,0,1,,,,,,,,0,,,72,0
359745,note_on,225,0,2,,,,,,,,1,,,72,0
359745,note_on,225,0,3,,,,,,,,2,,,72,0
359760,note_on,1235,0,6,,,,,,,,5,,,40,85
359760,note_on,1235,0,5,,,,,,,,4,,,52,85
359760,note_on,15,0,3,,,,,,,,2,,,79,85
359760,note_on,37715,0,4,,,,,,,,3,,,64,85
359760,note_on,15,0,2,,,,,,,,1,,,82,85
359760,note_on,0,0,7,,,,,,,,6,,,52,85
359760,note_on,0,0,7,,,,,,,,6,,,72,85
359760,note_on,275,0,7,,,,,,,,6,,,70,85
359760,note_on,15,0,1,,,,,,,,0,,,82,106
359985,note_on,225,0,6,,,,,,,,5,,,40,0
359985,note_on,225,0,4,,,,,,,,3,,,64,0
359985,note_on,225,0,1,,,,,,,,0,,,82,0
359985,note_on,225,0,2,,,,,,,,1,,,82,0
359985,note_on,225,0,5,,,,,,,,4,,,52,0
359985,note_on,225,0,7,,,,,,,,6,,,52,0
359985,note_on,0,0,7,,,,,,,,6,,,72,0
359985,note_on,0,0,7,,,,,,,,6,,,70,0
359985,note_on,225,0,3,,,,,,,,2,,,79,0
360000,note_on,15,0,3,,,,,,,,2,,,79,85
360000,note_on,15,0,6,,,,,,,,5,,,29,85
360000,note_on,0,0,7,,,,,,,,6,,,41,85
360000,note_on,15,0,5,,,,,,,,4,,,41,85
360000,note_on,15,0,2,,,,,,,,1,,,82,85
360000,note_on,0,0,7,,,,,,,,6,,,72,85
360000,note_on,15,0,1,,,,,,,,0,,,82,106
360000,note_on,15,0,7,,,,,,,,6,,,70,85
360000,note_on,15,0,4,,,,,,,,3,,,60,85
360225,note_on,225,0,5,,,,,,,,4,,,41,0
360225,note_on,225,0,7,,,,,,,,6,,,41,0
360225,note_on,225,0,4,,,,,,,,3,,,60,0
360225,note_on,225,0,6,,,,,,,,5,,,29,0
360240,note_on,15,0,5,,,,,,,,4,,,41,85
360240,note_on,15,0,4,,,,,,,,3,,,60,85
360240,note_on,15,0,6,,,,,,,,5,,,29,85
360240,note_on,15,0,7,,,,,,,,6,,,41,85
360445,note_on,205,0,7,,,,,,,,6,,,70,0
360445,note_on,445,0,1,,,,,,,,0,,,82,0
360445,note_on,445,0,2,,,,,,,,1,,,82,0
360445,note_on,445,0,3,,,,,,,,2,,,79,0
360465,note_on,20,0,7,,,,,,,,6,,,41,0
360465,note_on,225,0,4,,,,,,,,3,,,60,0
360465,note_on,225,0,5,,,,,,,,4,,,41,0
360465,note_on,225,0,6,,,,,,,,5,,,29,0
360480,note_on,15,0,6,,,,,,,,5,,,29,85
360480,note_on,15,0,5,,,,,,,,4,,,41,85
360480,note_on,15,0,7,,,,,,,,6,,,69,85
360480,note_on,0,0,7,,,,,,,,6,,,41,85
360480,note_on,35,0,2,,,,,,,,1,,,81,85
360480,note_on,35,0,1,,,,,,,,0,,,81,106
360480,note_on,15,0,4,,,,,,,,3,,,60,85
360480,note_on,35,0,3,,,,,,,,2,,,77,85
360705,note_on,225,0,2,,,,,,,,1,,,81,0
360705,note_on,225,0,6,,,,,,,,5,,,29,0
360705,note_on,225,0,1,,,,,,,,0,,,81,0
360705,note_on,225,0,5,,,,,,,,4,,,41,0
360705,note_on,225,0,7,,,,,,,,6,,,41,0
360705,note_on,225,0,4,,,,,,,,3,,,60,0
360705,note_on,225,0,3,,,,,,,,2,,,77,0
360720,note_on,15,0,3,,,,,,,,2,,,81,85
360720,note_on,15,0,7,,,,,,,,6,,,53,85
360720,note_on,15,0,6,,,,,,,,5,,,41,85
360720,note_on,15,0,5,,,,,,,,4,,,53,85
360720,note_on,15,0,2,,,,,,,,1,,,81,85
360720,note_on,15,0,4,,,,,,,,3,,,69,85
360720,note_on,15,0,1,,,,,,,,0,,,81,106
360885,note_on,165,0,7,,,,,,,,6,,,72,0
360925,note_on,40,0,7,,,,,,,,6,,,69,0
360945,note_on,225,0,2,,,,,,,,1,,,81,0
360945,note_on,225,0,6,,,,,,,,5,,,41,0
360945,note_on,225,0,4,,,,,,,,3,,,69,0
360945,note_on,225,0,1,,,,,,,,0,,,81,0
360945,note_on,225,0,5,,,,,,,,4,,,53,0
360945,note_on,20,0,7,,,,,,,,6,,,53,0
360945,note_on,225,0,3,,,,,,,,2,,,81,0
360960,note_on,15,0,1,,,,,,,,0,,,74,106
360960,note_on,15,0,2,,,,,,,,1,,,74,85
360960,note_on,0,0,7,,,,,,,,6,,,42,85
360960,note_on,15,0,6,,,,,,,,5,,,30,85
360960,note_on,15,0,4,,,,,,,,3,,,69,85
360960,note_on,15,0,5,,,,,,,,4,,,42,85
360960,note_on,15,0,7,,,,,,,,6,,,74,85
360960,note_on,0,0,7,,,,,,,,6,,,69,85
360960,note_on,0,0,7,,,,,,,,6,,,66,85
360960,note_on,15,0,3,,,,,,,,2,,,74,85
361185,note_on,225,0,3,,,,,,,,2,,,74,0
361185,note_on,225,0,2,,,,,,,,1,,,74,0
361185,note_on,225,0,1,,,,,,,,0,,,74,0
361200,note_on,15,0,3,,,,,,,,2,,,74,85
361200,note_on,15,0,2,,,,,,,,1,,,74,85
361200,note_on,15,0,1,,,,,,,,0,,,74,106
361405,note_on,445,0,6,,,,,,,,5,,,30,0
361405,note_on,445,0,7,,,,,,,,6,,,42,0
361405,note_on,0,0,7,,,,,,,,6,,,74,0
361405,note_on,0,0,7,,,,,,,,6,,,66,0
361405,note_on,445,0,4,,,,,,,,3,,,69,0
361405,note_on,445,0,5,,,,,,,,4,,,42,0
361405,note_on,0,0,7,,,,,,,,6,,,69,0
361425,note_on,225,0,1,,,,,,,,0,,,74,0
361425,note_on,225,0,3,,,,,,,,2,,,74,0
361425,note_on,225,0,2,,,,,,,,1,,,74,0
361440,note_on,15,0,1,,,,,,,,0,,,74,106
361440,note_on,15,0,3,,,,,,,,2,,,74,85
361440,note_on,15,0,2,,,,,,,,1,,,74,85
361665,note_on,225,0,1,,,,,,,,0,,,74,0
361665,note_on,225,0,2,,,,,,,,1,,,74,0
361665,note_on,225,0,3,,,,,,,,2,,,74,0
361680,note_on,15,0,2,,,,,,,,1,,,84,85
361680,note_on,275,0,6,,,,,,,,5,,,42,85
361680,note_on,275,0,5,,,,,,,,4,,,54,85
361680,note_on,275,0,4,,,,,,,,3,,,69,85
361680,note_on,15,0,1,,,,,,,,0,,,84,106
361680,note_on,15,0,3,,,,,,,,2,,,81,85
361680,note_on,0,0,7,,,,,,,,6,,,54,85
361680,note_on,275,0,7,,,,,,,,6,,,74,85
361680,note_on,0,0,7,,,,,,,,6,,,69,85
361680,note_on,0,0,7,,,,,,,,6,,,66,85
361905,note_on,225,0,3,,,,,,,,2,,,81,0
361905,note_on,225,0,5,,,,,,,,4,,,54,0
361905,note_on,225,0,2,,,,,,,,1,,,84,0
361905,note_on,225,0,7,,,,,,,,6,,,54,0
361905,note_on,0,0,7,,,,,,,,6,,,74,0
361905,note_on,0,0,7,,,,,,,,6,,,69,0
361905,note_on,0,0,7,,,,,,,,6,,,66,0
361905,note_on,225,0,6,,,,,,,,5,,,42,0
361905,note_on,225,0,4,,,,,,,,3,,,69,0
361905,note_on,225,0,1,,,,,,,,0,,,84,0
361920,note_on,15,0,4,,,,,,,,3,,,62,85
361920,note_on,15,0,2,,,,,,,,1,,,84,85
361920,note_on,15,0,5,,,,,,,,4,,,43,85
361920,note_on,15,0,6,,,,,,,,5,,,31,85
361920,note_on,15,0,1,,,,,,,,0,,,84,106
361920,note_on,0,0,7,,,,,,,,6,,,43,85
361920,note_on,0,0,7,,,,,,,,6,,,72,85
361920,note_on,15,0,7,,,,,,,,6,,,74,85
361920,note_on,15,0,3,,,,,,,,2,,,81,85
362145,note_on,225,0,7,,,,,,,,6,,,43,0
362145,note_on,225,0,4,,,,,,,,3,,,62,0
362145,note_on,225,0,6,,,,,,,,5,,,31,0
362145,note_on,225,0,5,,,,,,,,4,,,43,0
362160,note_on,15,0,4,,,,,,,,3,,,62,85
362160,note_on,15,0,6,,,,,,,,5,,,31,85
362160,note_on,15,0,7,,,,,,,,6,,,43,85
362160,note_on,15,0,5,,,,,,,,4,,,43,85
362365,note_on,0,0,7,,,,,,,,6,,,74,0
362365,note_on,445,0,3,,,,,,,,2,,,81,0
362365,note_on,205,0,7,,,,,,,,6,,,72,0
362365,note_on,445,0,1,,,,,,,,0,,,84,0
362365,note_on,445,0,2,,,,,,,,1,,,84,0
362385,note_on,20,0,7,,,,,,,,6,,,43,0
362385,note_on,225,0,6,,,,,,,,5,,,31,0
362385,note_on,225,0,4,,,,,,,,3,,,62,0
362385,note_on,225,0,5,,,,,,,,4,,,43,0
362400,note_on,15,0,5,,,,,,,,4,,,43,85
362400,note_on,15,0,6,,,,,,,,5,,,31,85
362400,note_on,15,0,7,,,,,,,,6,,,74,85
362400,note_on,0,0,7,,,,,,,,6,,,43,85
362400,note_on,0,0,7,,,,,,,,6,,,67,85
362400,note_on,0,0,7,,,,,,,,6,,,71,85
362400,note_on,35,0,2,,,,,,,,1,,,83,85
362400,note_on,15,0,4,,,,,,,,3,,,62,85
362400,note_on,35,0,1,,,,,,,,0,,,83,106
362400,note_on,35,0,3,,,,,,,,2,,,79,85
362625,note_on,225,0,4,,,,,,,,3,,,62,0
362625,note_on,225,0,1,,,,,,,,0,,,83,0
362625,note_on,225,0,3,,,,,,,,2,,,79,0
362625,note_on,225,0,7,,,,,,,,6,,,43,0
362625,note_on,225,0,6,,,,,,,,5,,,31,0
362625,note_on,225,0,5,,,,,,,,4,,,43,0
362625,note_on,225,0,2,,,,,,,,1,,,83,0
362640,note_on,15,0,3,,,,,,,,2,,,76,85
362640,note_on,15,0,6,,,,,,,,5,,,48,85
362640,note_on,15,0,2,,,,,,,,1,,,79,85
362640,note_on,15,0,4,,,,,,,,3,,,72,85
362640,note_on,15,0,7,,,,,,,,6,,,60,85
362640,note_on,15,0,5,,,,,,,,4,,,60,85
362640,note_on,15,0,1,,,,,,,,0,,,79,106
362845,note_on,0,0,7,,,,,,,,6,,,67,0
362845,note_on,205,0,7,,,,,,,,6,,,74,0
362845,note_on,0,0,7,,,,,,,,6,,,71,0
362865,note_on,20,0,7,,,,,,,,6,,,60,0
362865,note_on,225,0,6,,,,,,,,5,,,48,0
362865,note_on,225,0,4,,,,,,,,3,,,72,0
362865,note_on,225,0,2,,,,,,,,1,,,79,0
362865,note_on,225,0,5,,,,,,,,4,,,60,0
362865,note_on,225,0,1,,,,,,,,0,,,79,0
362865,note_on,225,0,3,,,,,,,,2,,,76,0
362880,note_on,15,0,3,,,,,,,,2,,,77,85
362880,note_on,0,0,7,,,,,,,,6,,,72,85
362880,note_on,15,0,2,,,,,,,,1,,,81,85
362880,note_on,15,0,6,,,,,,,,5,,,41,85
362880,note_on,15,0,1,,,,,,,,0,,,81,106
362880,note_on,0,0,7,,,,,,,,6,,,53,85
362880,note_on,15,0,5,,,,,,,,4,,,53,85
362880,note_on,15,0,7,,,,,,,,6,,,77,85
362880,note_on,15,0,4,,,,,,,,3,,,72,85
362880,note_on,0,0,7,,,,,,,,6,,,69,85
363105,note_on,225,0,3,,,,,,,,2,,,77,0
363105,note_on,225,0,6,,,,,,,,5,,,41,0
363105,note_on,0,0,7,,,,,,,,6,,,77,0
363105,note_on,225,0,4,,,,,,,,3,,,72,0
363105,note_on,225,0,2,,,,,,,,1,,,81,0
363105,note_on,225,0,1,,,,,,,,0,,,81,0
363105,note_on,0,0,7,,,,,,,,6,,,69,0
363105,note_on,0,0,7,,,,,,,,6,,,72,0
363105,note_on,225,0,5,,,,,,,,4,,,53,0
363105,note_on,225,0,7,,,,,,,,6,,,53,0
363120,note_on,15,0,4,,,,,,,,3,,,72,85
363120,note_on,15,0,7,,,,,,,,6,,,79,85
363120,note_on,15,0,6,,,,,,,,5,,,36,85
363120,note_on,15,0,5,,,,,,,,4,,,48,85
363120,note_on,0,0,7,,,,,,,,6,,,72,85
363120,note_on,15,0,3,,,,,,,,2,,,76,85
363120,note_on,15,0,1,,,,,,,,0,,,79,106
363120,note_on,15,0,2,,,,,,,,1,,,79,85
363120,note_on,0,0,7,,,,,,,,6,,,48,85
363120,note_on,0,0,7,,,,,,,,6,,,64,85
363345,note_on,225,0,6,,,,,,,,5,,,36,0
363345,note_on,0,0,7,,,,,,,,6,,,64,0
363345,note_on,225,0,5,,,,,,,,4,,,48,0
363345,note_on,225,0,1,,,,,,,,0,,,79,0
363345,note_on,225,0,2,,,,,,,,1,,,79,0
363345,note_on,0,0,7,,,,,,,,6,,,72,0
363345,note_on,225,0,3,,,,,,,,2,,,76,0
363345,note_on,225,0,4,,,,,,,,3,,,72,0
363345,note_on,225,0,7,,,,,,,,6,,,48,0
363345,note_on,0,0,7,,,,,,,,6,,,79,0
363360,note_on,15,0,4,,,,,,,,3,,,72,85
363360,note_on,15,0,5,,,,,,,,4,,,53,85
363360,note_on,15,0,2,,,,,,,,1,,,81,85
363360,note_on,15,0,1,,,,,,,,0,,,81,106
363360,note_on,0,0,7,,,,,,,,6,,,69,85
363360,note_on,15,0,6,,,,,,,,5,,,41,85
363360,note_on,15,0,7,,,,,,,,6,,,77,85
363360,note_on,0,0,7,,,,,,,,6,,,72,85
363360,note_on,0,0,7,,,,,,,,6,,,53,85
363360,note_on,15,0,3,,,,,,,,2,,,77,85
363585,note_on,225,0,5,,,,,,,,4,,,53,0
363585,note_on,0,0,7,,,,,,,,6,,,72,0
363585,note_on,0,0,7,,,,,,,,6,,,69,0
363585,note_on,0,0,7,,,,,,,,6,,,77,0
363585,note_on,225,0,7,,,,,,,,6,,,53,0
363585,note_on,225,0,6,,,,,,,,5,,,41,0
363585,note_on,225,0,1,,,,,,,,0,,,81,0
363585,note_on,225,0,4,,,,,,,,3,,,72,0
363585,note_on,225,0,3,,,,,,,,2,,,77,0
363585,note_on,225,0,2,,,,,,,,1,,,81,0
363600,note_on,15,0,1,,,,,,,,0,,,79,106
363600,note_on,0,0,7,,,,,,,,6,,,48,85
363600,note_on,0,0,7,,,,,,,,6,,,64,85
363600,note_on,15,0,5,,,,,,,,4,,,48,85
363600,note_on,15,0,6,,,,,,,,5,,,36,85
363600,note_on,15,0,2,,,,,,,,1,,,79,85
363600,note_on,15,0,3,,,,,,,,2,,,76,85
363600,note_on,15,0,4,,,,,,,,3,,,72,85
363600,note_on,15,0,7,,,,,,,,6,,,79,85
363600,note_on,0,0,7,,,,,,,,6,,,72,85
363825,note_on,225,0,7,,,,,,,,6,,,48,0
363825,note_on,0,0,7,,,,,,,,6,,,79,0
363825,note_on,0,0,7,,,,,,,,6,,,72,0
363825,note_on,0,0,7,,,,,,,,6,,,64,0
363825,note_on,225,0,4,,,,,,,,3,,,72,0
363825,note_on,225,0,5,,,,,,,,4,,,48,0
363825,note_on,225,0,1,,,,,,,,0,,,79,0
363825,note_on,225,0,2,,,,,,,,1,,,79,0
363825,note_on,225,0,6,,,,,,,,5,,,36,0
363825,note_on,225,0,3,,,,,,,,2,,,76,0
363840,note_on,0,0,7,,,,,,,,6,,,69,85
363840,note_on,15,0,4,,,,,,,,3,,,69,85
363840,note_on,15,0,2,,,,,,,,1,,,77,85
363840,note_on,15,0,5,,,,,,,,4,,,53,85
363840,note_on,0,0,7,,,,,,,,6,,,53,85
363840,note_on,15,0,6,,,,,,,,5,,,41,85
363840,note_on,15,0,3,,,,,,,,2,,,74,85
363840,note_on,0,0,7,,,,,,,,6,,,72,85
363840,note_on,15,0,7,,,,,,,,6,,,77,85
363840,note_on,15,0,1,,,,,,,,0,,,77,106
364065,note_on,225,0,3,,,,,,,,2,,,74,0
364065,note_on,225,0,1,,,,,,,,0,,,77,0
364065,note_on,225,0,2,,,,,,,,1,,,77,0
364080,note_on,15,0,3,,,,,,,,2,,,72,85
364080,note_on,15,0,1,,,,,,,,0,,,76,106
364080,note_on,15,0,2,,,,,,,,1,,,76,85
364285,note_on,445,0,4,,,,,,,,3,,,69,0
364285,note_on,0,0,7,,,,,,,,6,,,77,0
364285,note_on,445,0,5,,,,,,,,4,,,53,0
364285,note_on,445,0,7,,,,,,,,6,,,53,0
364285,note_on,445,0,6,,,,,,,,5,,,41,0
364285,note_on,0,0,7,,,,,,,,6,,,69,0
364285,note_on,0,0,7,,,,,,,,6,,,72,0
364305,note_on,225,0,2,,,,,,,,1,,,76,0
364305,note_on,225,0,1,,,,,,,,0,,,76,0
364305,note_on,225,0,3,,,,,,,,2,,,72,0
364320,note_on,0,0,7,,,,,,,,6,,,69,85
364320,note_on,35,0,7,,,,,,,,6,,,74,85
364320,note_on,0,0,7,,,,,,,,6,,,66,85
364320,note_on,0,0,7,,,,,,,,6,,,54,85
364320,note_on,35,0,4,,,,,,,,3,,,69,85
364320,note_on,15,0,3,,,,,,,,2,,,71,85
364320,note_on,35,0,6,,,,,,,,5,,,42,85
364320,note_on,15,0,1,,,,,,,,0,,,74,106
364320,note_on,35,0,5,,,,,,,,4,,,54,85
364320,note_on,15,0,2,,,,,,,,1,,,74,85
364545,note_on,225,0,2,,,,,,,,1,,,74,0
364545,note_on,225,0,3,,,,,,,,2,,,71,0
364545,note_on,225,0,1,,,,,,,,0,,,74,0
364560,note_on,15,0,2,,,,,,,,1,,,72,85
364560,note_on,15,0,3,,,,,,,,2,,,69,85
364560,note_on,15,0,1,,,,,,,,0,,,72,106
364765,note_on,445,0,5,,,,,,,,4,,,54,0
364765,note_on,445,0,4,,,,,,,,3,,,69,0
364765,note_on,0,0,7,,,,,,,,6,,,69,0
364765,note_on,0,0,7,,,,,,,,6,,,74,0
364765,note_on,445,0,7,,,,,,,,6,,,54,0
364765,note_on,445,0,6,,,,,,,,5,,,42,0
364765,note_on,0,0,7,,,,,,,,6,,,66,0
364785,note_on,225,0,2,,,,,,,,1,,,72,0
364785,note_on,225,0,3,,,,,,,,2,,,69,0
364785,note_on,225,0,1,,,,,,,,0,,,72,0
364800,note_on,35,0,4,,,,,,,,3,,,62,85
364800,note_on,35,0,5,,,,,,,,4,,,55,85
364800,note_on,35,0,7,,,,,,,,6,,,74,85
364800,note_on,0,0,7,,,,,,,,6,,,72,85
364800,note_on,0,0,7,,,,,,,,6,,,67,85
364800,note_on,0,0,7,,,,,,,,6,,,55,85
364800,note_on,15,0,2,,,,,,,,1,,,74,85
364800,note_on,35,0,6,,,,,,,,5,,,43,85
364800,note_on,15,0,3,,,,,,,,2,,,67,85
364800,note_on,15,0,1,,,,,,,,0,,,74,106
364860,note_on,0,0,2,,,,,,,,1,,,72,85
364860,note_on,60,0,2,,,,,,,,1,,,74,0
364860,note_on,0,0,1,,,,,,,,0,,,72,106
364860,note_on,60,0,1,,,,,,,,0,,,74,0
364920,note_on,60,0,2,,,,,,,,1,,,72,0
364920,note_on,0,0,1,,,,,,,,0,,,74,106
364920,note_on,60,0,1,,,,,,,,0,,,72,0
364920,note_on,0,0,2,,,,,,,,1,,,74,85
364980,note_on,60,0,2,,,,,,,,1,,,74,0
364980,note_on,0,0,1,,,,,,,,0,,,72,106
364980,note_on,60,0,1,,,,,,,,0,,,74,0
364980,note_on,0,0,2,,,,,,,,1,,,72,85
365025,note_on,225,0,4,,,,,,,,3,,,62,0
365025,note_on,225,0,6,,,,,,,,5,,,43,0
365025,note_on,225,0,7,,,,,,,,6,,,55,0
365025,note_on,225,0,5,,,,,,,,4,,,55,0
365040,note_on,15,0,4,,,,,,,,3,,,59,85
365040,note_on,15,0,7,,,,,,,,6,,,43,85
365040,note_on,15,0,6,,,,,,,,5,,,31,85
365040,note_on,15,0,5,,,,,,,,4,,,43,85
365245,note_on,205,0,7,,,,,,,,6,,,74,0
365245,note_on,0,0,7,,,,,,,,6,,,67,0
365245,note_on,0,0,7,,,,,,,,6,,,72,0
365265,note_on,285,0,2,,,,,,,,1,,,72,0
365265,note_on,225,0,6,,,,,,,,5,,,31,0
365265,note_on,225,0,4,,,,,,,,3,,,59,0
365265,note_on,285,0,1,,,,,,,,0,,,72,0
365265,note_on,20,0,7,,,,,,,,6,,,43,0
365265,note_on,225,0,5,,,,,,,,4,,,43,0
365280,note_on,15,0,2,,,,,,,,1,,,71,85
365280,note_on,15,0,7,,,,,,,,6,,,74,85
365280,note_on,0,0,7,,,,,,,,6,,,71,85
365280,note_on,15,0,4,,,,,,,,3,,,59,85
365280,note_on,0,0,7,,,,,,,,6,,,67,85
365280,note_on,15,0,1,,,,,,,,0,,,71,106
365280,note_on,15,0,5,,,,,,,,4,,,43,85
365280,note_on,15,0,6,,,,,,,,5,,,31,85
365280,note_on,0,0,7,,,,,,,,6,,,43,85
365465,note_on,665,0,3,,,,,,,,2,,,67,0
365505,note_on,225,0,2,,,,,,,,1,,,71,0
365505,note_on,225,0,1,,,,,,,,0,,,71,0
365520,note_on,15,0,2,,,,,,,,1,,,72,85
365520,note_on,55,0,3,,,,,,,,2,,,72,85
365520,note_on,15,0,1,,,,,,,,0,,,72,106
365725,note_on,445,0,7,,,,,,,,6,,,43,0
365725,note_on,445,0,4,,,,,,,,3,,,59,0
365725,note_on,445,0,5,,,,,,,,4,,,43,0
365725,note_on,0,0,7,,,,,,,,6,,,71,0
365725,note_on,0,0,7,,,,,,,,6,,,67,0
365725,note_on,0,0,7,,,,,,,,6,,,74,0
365725,note_on,445,0,6,,,,,,,,5,,,31,0
365745,note_on,225,0,3,,,,,,,,2,,,72,0
365745,note_on,225,0,2,,,,,,,,1,,,72,0
365745,note_on,225,0,1,,,,,,,,0,,,72,0
365760,note_on,15,0,2,,,,,,,,1,,,55,85
365760,note_on,15,0,3,,,,,,,,2,,,55,85
365760,note_on,15,0,1,,,,,,,,0,,,55,106
365985,note_on,225,0,2,,,,,,,,1,,,55,0
365985,note_on,225,0,3,,,,,,,,2,,,55,0
365985,note_on,225,0,1,,,,,,,,0,,,55,0
366000,note_on,15,0,1,,,,,,,,0,,,55,106
366000,note_on,15,0,3,,,,,,,,2,,,55,85
366000,note_on,15,0,2,,,,,,,,1,,,55,85
366225,note_on,225,0,1,,,,,,,,0,,,55,0
366225,note_on,225,0,3,,,,,,,,2,,,55,0
366225,note_on,225,0,2,,,,,,,,1,,,55,0
366240,note_on,15,0,2,,,,,,,,1,,,55,85
366240,note_on,15,0,1,,,,,,,,0,,,55,106
366240,note_on,15,0,3,,,,,,,,2,,,55,85
366465,note_on,225,0,3,,,,,,,,2,,,55,0
366465,note_on,225,0,2,,,,,,,,1,,,55,0
366465,note_on,225,0,1,,,,,,,,0,,,55,0
366480,note_on,15,0,2,,,,,,,,1,,,76,85
366480,note_on,755,0,5,,,,,,,,4,,,60,85
366480,note_on,15,0,1,,,,,,,,0,,,76,106
366480,note_on,755,0,4,,,,,,,,3,,,67,85
366480,note_on,15,0,3,,,,,,,,2,,,72,85
366480,note_on,0,0,7,,,,,,,,6,,,60,85
366480,note_on,0,0,7,,,,,,,,6,,,67,85
366480,note_on,755,0,7,,,,,,,,6,,,72,85
366480,note_on,0,0,7,,,,,,,,6,,,64,85
366480,note_on,755,0,6,,,,,,,,5,,,48,85
366705,note_on,225,0,6,,,,,,,,5,,,48,0
366705,note_on,225,0,2,,,,,,,,1,,,76,0
366705,note_on,225,0,3,,,,,,,,2,,,72,0
366705,note_on,225,0,7,,,,,,,,6,,,60,0
366705,note_on,225,0,5,,,,,,,,4,,,60,0
366705,note_on,225,0,1,,,,,,,,0,,,76,0
366705,note_on,0,0,7,,,,,,,,6,,,72,0
366705,note_on,0,0,7,,,,,,,,6,,,67,0
366705,note_on,225,0,4,,,,,,,,3,,,67,0
366705,note_on,0,0,7,,,,,,,,6,,,64,0
366720,note_on,15,0,6,,,,,,,,5,,,31,85
366720,note_on,15,0,5,,,,,,,,4,,,43,85
366720,note_on,15,0,2,,,,,,,,1,,,76,85
366720,note_on,15,0,4,,,,,,,,3,,,55,85
366720,note_on,15,0,1,,,,,,,,0,,,76,106
366720,note_on,0,0,7,,,,,,,,6,,,67,85
366720,note_on,15,0,7,,,,,,,,6,,,72,85
366720,note_on,0,0,7,,,,,,,,6,,,64,85
366720,note_on,15,0,3,,,,,,,,2,,,72,85
366720,note_on,0,0,7,,,,,,,,6,,,43,85
366945,note_on,225,0,5,,,,,,,,4,,,43,0
366945,note_on,225,0,4,,,,,,,,3,,,55,0
366945,note_on,225,0,6,,,,,,,,5,,,31,0
366945,note_on,225,0,7,,,,,,,,6,,,43,0
366960,note_on,15,0,4,,,,,,,,3,,,55,85
366960,note_on,15,0,6,,,,,,,,5,,,31,85
366960,note_on,15,0,5,,,,,,,,4,,,43,85
366960,note_on,15,0,7,,,,,,,,6,,,43,85
367165,note_on,205,0,7,,,,,,,,6,,,72,0
367165,note_on,0,0,7,,,,,,,,6,,,64,0
367165,note_on,0,0,7,,,,,,,,6,,,67,0
367165,note_on,445,0,3,,,,,,,,2,,,72,0
367165,note_on,445,0,2,,,,,,,,1,,,76,0
367165,note_on,445,0,1,,,,,,,,0,,,76,0
367185,note_on,225,0,6,,,,,,,,5,,,31,0
367185,note_on,225,0,4,,,,,,,,3,,,55,0
367185,note_on,20,0,7,,,,,,,,6,,,43,0
367185,note_on,225,0,5,,,,,,,,4,,,43,0
367200,note_on,35,0,1,,,,,,,,0,,,74,106
367200,note_on,15,0,4,,,,,,,,3,,,55,85
367200,note_on,35,0,2,,,,,,,,1,,,74,85
367200,note_on,15,0,5,,,,,,,,4,,,43,85
367200,note_on,35,0,3,,,,,,,,2,,,71,85
367200,note_on,15,0,7,,,,,,,,6,,,74,85
367200,note_on,15,0,6,,,,,,,,5,,,31,85
367200,note_on,0,0,7,,,,,,,,6,,,71,85
367200,note_on,0,0,7,,,,,,,,6,,,67,85
367200,note_on,0,0,7,,,,,,,,6,,,43,85
367425,note_on,225,0,7,,,,,,,,6,,,43,0
367425,note_on,225,0,3,,,,,,,,2,,,71,0
367425,note_on,225,0,5,,,,,,,,4,,,43,0
367425,note_on,225,0,1,,,,,,,,0,,,74,0
367425,note_on,225,0,4,,,,,,,,3,,,55,0
367425,note_on,225,0,6,,,,,,,,5,,,31,0
367425,note_on,225,0,2,,,,,,,,1,,,74,0
367440,note_on,15,0,7,,,,,,,,6,,,60,85
367440,note_on,15,0,4,,,,,,,,3,,,67,85
367440,note_on,15,0,6,,,,,,,,5,,,48,85
367440,note_on,15,0,1,,,,,,,,0,,,72,106
367440,note_on,15,0,2,,,,,,,,1,,,72,85
367440,note_on,15,0,3,,,,,,,,2,,,72,85
367440,note_on,15,0,5,,,,,,,,4,,,60,85
367645,note_on,0,0,7,,,,,,,,6,,,67,0
367645,note_on,0,0,7,,,,,,,,6,,,71,0
367645,note_on,205,0,7,,,,,,,,6,,,74,0
367665,note_on,20,0,7,,,,,,,,6,,,60,0
367665,note_on,225,0,5,,,,,,,,4,,,60,0
367665,note_on,225,0,2,,,,,,,,1,,,72,0
367665,note_on,225,0,3,,,,,,,,2,,,72,0
367665,note_on,225,0,4,,,,,,,,3,,,67,0
367665,note_on,225,0,6,,,,,,,,5,,,48,0
367665,note_on,225,0,1,,,,,,,,0,,,72,0
367680,note_on,15,0,3,,,,,,,,2,,,55,85
367680,note_on,15,0,6,,,,,,,,5,,,31,85
367680,note_on,0,0,7,,,,,,,,6,,,43,85
367680,note_on,15,0,5,,,,,,,,4,,,43,85
367680,note_on,0,0,7,,,,,,,,6,,,67,85
367680,note_on,0,0,7,,,,,,,,6,,,71,85
367680,note_on,15,0,4,,,,,,,,3,,,55,85
367680,note_on,15,0,2,,,,,,,,1,,,55,85
367680,note_on,15,0,7,,,,,,,,6,,,74,85
367680,note_on,15,0,1,,,,,,,,0,,,55,106
367905,note_on,225,0,3,,,,,,,,2,,,55,0
367905,note_on,225,0,1,,,,,,,,0,,,55,0
367905,note_on,225,0,2,,,,,,,,1,,,55,0
367920,note_on,15,0,3,,,,,,,,2,,,55,85
367920,note_on,15,0,2,,,,,,,,1,,,55,85
367920,note_on,15,0,1,,,,,,,,0,,,55,106
368125,note_on,445,0,6,,,,,,,,5,,,31,0
368125,note_on,445,0,5,,,,,,,,4,,,43,0
368125,note_on,445,0,7,,,,,,,,6,,,43,0
368125,note_on,0,0,7,,,,,,,,6,,,74,0
368125,note_on,0,0,7,,,,,,,,6,,,71,0
368125,note_on,445,0,4,,,,,,,,3,,,55,0
368125,note_on,0,0,7,,,,,,,,6,,,67,0
368145,note_on,225,0,2,,,,,,,,1,,,55,0
368145,note_on,225,0,1,,,,,,,,0,,,55,0
368145,note_on,225,0,3,,,,,,,,2,,,55,0
368160,note_on,15,0,3,,,,,,,,2,,,55,85
368160,note_on,15,0,1,,,,,,,,0,,,55,106
368160,note_on,15,0,2,,,,,,,,1,,,55,85
368385,note_on,225,0,2,,,,,,,,1,,,55,0
368385,note_on,225,0,1,,,,,,,,0,,,55,0
368385,note_on,225,0,3,,,,,,,,2,,,55,0
368400,note_on,15,0,2,,,,,,,,1,,,77,85
368400,note_on,15,0,3,,,,,,,,2,,,74,85
368400,note_on,275,0,6,,,,,,,,5,,,43,85
368400,note_on,15,0,1,,,,,,,,0,,,77,106
368400,note_on,275,0,4,,,,,,,,3,,,71,85
368400,note_on,0,0,7,,,,,,,,6,,,55,85
368400,note_on,0,0,7,,,,,,,,6,,,71,85
368400,note_on,0,0,7,,,,,,,,6,,,74,85
368400,note_on,275,0,5,,,,,,,,4,,,55,85
368400,note_on,275,0,7,,,,,,,,6,,,77,85
368625,note_on,225,0,4,,,,,,,,3,,,71,0
368625,note_on,225,0,6,,,,,,,,5,,,43,0
368625,note_on,225,0,1,,,,,,,,0,,,77,0
368625,note_on,225,0,2,,,,,,,,1,,,77,0
368625,note_on,0,0,7,,,,,,,,6,,,71,0
368625,note_on,0,0,7,,,,,,,,6,,,74,0
368625,note_on,0,0,7,,,,,,,,6,,,77,0
368625,note_on,225,0,7,,,,,,,,6,,,55,0
368625,note_on,225,0,5,,,,,,,,4,,,55,0
368625,note_on,225,0,3,,,,,,,,2,,,74,0
368640,note_on,15,0,3,,,,,,,,2,,,74,85
368640,note_on,15,0,4,,,,,,,,3,,,55,85
368640,note_on,15,0,6,,,,,,,,5,,,31,85
368640,note_on,15,0,1,,,,,,,,0,,,77,106
368640,note_on,0,0,7,,,,,,,,6,,,43,85
368640,note_on,0,0,7,,,,,,,,6,,,71,85
368640,note_on,0,0,7,,,,,,,,6,,,74,85
368640,note_on,15,0,7,,,,,,,,6,,,77,85
368640,note_on,15,0,2,,,,,,,,1,,,77,85
368640,note_on,15,0,5,,,,,,,,4,,,43,85
368865,note_on,225,0,4,,,,,,,,3,,,55,0
368865,note_on,225,0,6,,,,,,,,5,,,31,0
368865,note_on,225,0,7,,,,,,,,6,,,43,0
368865,note_on,225,0,5,,,,,,,,4,,,43,0
368880,note_on,15,0,6,,,,,,,,5,,,31,85
368880,note_on,15,0,4,,,,,,,,3,,,55,85
368880,note_on,15,0,7,,,,,,,,6,,,43,85
368880,note_on,15,0,5,,,,,,,,4,,,43,85
369085,note_on,445,0,1,,,,,,,,0,,,77,0
369085,note_on,445,0,2,,,,,,,,1,,,77,0
369085,note_on,445,0,3,,,,,,,,2,,,74,0
369085,note_on,205,0,7,,,,,,,,6,,,77,0
369085,note_on,0,0,7,,,,,,,,6,,,71,0
369085,note_on,0,0,7,,,,,,,,6,,,74,0
369105,note_on,225,0,6,,,,,,,,5,,,31,0
369105,note_on,225,0,5,,,,,,,,4,,,43,0
369105,note_on,225,0,4,,,,,,,,3,,,55,0
369105,note_on,20,0,7,,,,,,,,6,,,43,0
369120,note_on,15,0,7,,,,,,,,6,,,76,85
369120,note_on,0,0,7,,,,,,,,6,,,67,85
369120,note_on,0,0,7,,,,,,,,6,,,43,85
369120,note_on,15,0,6,,,,,,,,5,,,31,85
369120,note_on,15,0,5,,,,,,,,4,,,43,85
369120,note_on,35,0,3,,,,,,,,2,,,72,85
369120,note_on,15,0,4,,,,,,,,3,,,55,85
369120,note_on,35,0,2,,,,,,,,1,,,76,85
369120,note_on,0,0,7,,,,,,,,6,,,72,85
369120,note_on,35,0,1,,,,,,,,0,,,76,106
369345,note_on,225,0,2,,,,,,,,1,,,76,0
369345,note_on,225,0,4,,,,,,,,3,,,55,0
369345,note_on,225,0,7,,,,,,,,6,,,43,0
369345,note_on,225,0,1,,,,,,,,0,,,76,0
369345,note_on,225,0,6,,,,,,,,5,,,31,0
369345,note_on,225,0,5,,,,,,,,4,,,43,0
369345,note_on,225,0,3,,,,,,,,2,,,72,0
369360,note_on,15,0,4,,,,,,,,3,,,67,85
369360,note_on,15,0,5,,,,,,,,4,,,60,85
369360,note_on,15,0,3,,,,,,,,2,,,72,85
369360,note_on,15,0,6,,,,,,,,5,,,48,85
369360,note_on,15,0,2,,,,,,,,1,,,72,85
369360,note_on,15,0,7,,,,,,,,6,,,60,85
369360,note_on,15,0,1,,,,,,,,0,,,72,106
369565,note_on,0,0,7,,,,,,,,6,,,72,0
369565,note_on,0,0,7,,,,,,,,6,,,67,0
369565,note_on,205,0,7,,,,,,,,6,,,76,0
369585,note_on,225,0,3,,,,,,,,2,,,72,0
369585,note_on,20,0,7,,,,,,,,6,,,60,0
369585,note_on,225,0,1,,,,,,,,0,,,72,0
369585,note_on,225,0,4,,,,,,,,3,,,67,0
369585,note_on,225,0,6,,,,,,,,5,,,48,0
369585,note_on,225,0,2,,,,,,,,1,,,72,0
369585,note_on,225,0,5,,,,,,,,4,,,60,0
369600,note_on,15,0,5,,,,,,,,4,,,43,85
369600,note_on,15,0,7,,,,,,,,6,,,74,85
369600,note_on,15,0,6,,,,,,,,5,,,31,85
369600,note_on,0,0,7,,,,,,,,6,,,71,85
369600,note_on,15,0,3,,,,,,,,2,,,55,85
369600,note_on,0,0,7,,,,,,,,6,,,43,85
369600,note_on,15,0,2,,,,,,,,1,,,55,85
369600,note_on,15,0,1,,,,,,,,0,,,55,106
369600,note_on,15,0,4,,,,,,,,3,,,55,85
369600,note_on,0,0,7,,,,,,,,6,,,67,85
369825,note_on,225,0,3,,,,,,,,2,,,55,0
369825,note_on,225,0,2,,,,,,,,1,,,55,0
369825,note_on,225,0,1,,,,,,,,0,,,55,0
369840,note_on,15,0,1,,,,,,,,0,,,55,106
369840,note_on,15,0,3,,,,,,,,2,,,55,85
369840,note_on,15,0,2,,,,,,,,1,,,55,85
370045,note_on,0,0,7,,,,,,,,6,,,67,0
370045,note_on,445,0,4,,,,,,,,3,,,55,0
370045,note_on,445,0,5,,,,,,,,4,,,43,0
370045,note_on,0,0,7,,,,,,,,6,,,71,0
370045,note_on,0,0,7,,,,,,,,6,,,74,0
370045,note_on,445,0,7,,,,,,,,6,,,43,0
370045,note_on,445,0,6,,,,,,,,5,,,31,0
370065,note_on,225,0,2,,,,,,,,1,,,55,0
370065,note_on,225,0,3,,,,,,,,2,,,55,0
370065,note_on,225,0,1,,,,,,,,0,,,55,0
370080,note_on,15,0,3,,,,,,,,2,,,55,85
370080,note_on,15,0,2,,,,,,,,1,,,55,85
370080,note_on,15,0,1,,,,,,,,0,,,55,106
370305,note_on,225,0,1,,,,,,,,0,,,55,0
370305,note_on,225,0,2,,,,,,,,1,,,55,0
370305,note_on,225,0,3,,,,,,,,2,,,55,0
370320,note_on,0,0,7,,,,,,,,6,,,60,85
370320,note_on,0,0,7,,,,,,,,6,,,64,85
370320,note_on,0,0,7,,,,,,,,6,,,67,85
370320,note_on,275,0,7,,,,,,,,6,,,72,85
370320,note_on,275,0,6,,,,,,,,5,,,48,85
370320,note_on,15,0,2,,,,,,,,1,,,79,85
370320,note_on,15,0,3,,,,,,,,2,,,76,85
370320,note_on,275,0,5,,,,,,,,4,,,60,85
370320,note_on,275,0,4,,,,,,,,3,,,67,85
370320,note_on,15,0,1,,,,,,,,0,,,79,106
370545,note_on,225,0,2,,,,,,,,1,,,79,0
370545,note_on,0,0,7,,,,,,,,6,,,67,0
370545,note_on,225,0,4,,,,,,,,3,,,67,0
370545,note_on,225,0,1,,,,,,,,0,,,79,0
370545,note_on,225,0,7,,,,,,,,6,,,60,0
370545,note_on,0,0,7,,,,,,,,6,,,72,0
370545,note_on,225,0,5,,,,,,,,4,,,60,0
370545,note_on,0,0,7,,,,,,,,6,,,64,0
370545,note_on,225,0,6,,,,,,,,5,,,48,0
370545,note_on,225,0,3,,,,,,,,2,,,76,0
370560,note_on,15,0,1,,,,,,,,0,,,79,106
370560,note_on,15,0,4,,,,,,,,3,,,55,85
370560,note_on,15,0,6,,,,,,,,5,,,31,85
370560,note_on,15,0,5,,,,,,,,4,,,43,85
370560,note_on,0,0,7,,,,,,,,6,,,67,85
370560,note_on,0,0,7,,,,,,,,6,,,43,85
370560,note_on,15,0,7,,,,,,,,6,,,76,85
370560,note_on,15,0,2,,,,,,,,1,,,79,85
370560,note_on,15,0,3,,,,,,,,2,,,76,85
370785,note_on,225,0,7,,,,,,,,6,,,43,0
370785,note_on,225,0,4,,,,,,,,3,,,55,0
370785,note_on,225,0,6,,,,,,,,5,,,31,0
370785,note_on,225,0,5,,,,,,,,4,,,43,0
370800,note_on,15,0,4,,,,,,,,3,,,55,85
370800,note_on,15,0,6,,,,,,,,5,,,31,85
370800,note_on,15,0,5,,,,,,,,4,,,43,85
370800,note_on,15,0,7,,,,,,,,6,,,43,85
371005,note_on,205,0,7,,,,,,,,6,,,67,0
371005,note_on,0,0,7,,,,,,,,6,,,76,0
371005,note_on,445,0,3,,,,,,,,2,,,76,0
371005,note_on,445,0,2,,,,,,,,1,,,79,0
371005,note_on,445,0,1,,,,,,,,0,,,79,0
371025,note_on,225,0,6,,,,,,,,5,,,31,0
371025,note_on,225,0,5,,,,,,,,4,,,43,0
371025,note_on,225,0,4,,,,,,,,3,,,55,0
371025,note_on,20,0,7,,,,,,,,6,,,43,0
371040,note_on,15,0,6,,,,,,,,5,,,31,85
371040,note_on,15,0,5,,,,,,,,4,,,43,85
371040,note_on,15,0,4,,,,,,,,3,,,55,85
371040,note_on,35,0,3,,,,,,,,2,,,74,85
371040,note_on,35,0,1,,,,,,,,0,,,77,106
371040,note_on,15,0,7,,,,,,,,6,,,74,85
371040,note_on,35,0,2,,,,,,,,1,,,77,85
371040,note_on,0,0,7,,,,,,,,6,,,65,85
371040,note_on,0,0,7,,,,,,,,6,,,43,85
371265,note_on,225,0,2,,,,,,,,1,,,77,0
371265,note_on,225,0,3,,,,,,,,2,,,74,0
371265,note_on,225,0,4,,,,,,,,3,,,55,0
371265,note_on,225,0,7,,,,,,,,6,,,43,0
371265,note_on,225,0,5,,,,,,,,4,,,43,0
371265,note_on,225,0,6,,,,,,,,5,,,31,0
371265,note_on,225,0,1,,,,,,,,0,,,77,0
371280,note_on,15,0,7,,,,,,,,6,,,60,85
371280,note_on,15,0,4,,,,,,,,3,,,67,85
371280,note_on,15,0,3,,,,,,,,2,,,72,85
371280,note_on,15,0,6,,,,,,,,5,,,48,85
371280,note_on,15,0,1,,,,,,,,0,,,76,106
371280,note_on,15,0,5,,,,,,,,4,,,60,85
371280,note_on,15,0,2,,,,,,,,1,,,76,85
371485,note_on,205,0,7,,,,,,,,6,,,65,0
371485,note_on,0,0,7,,,,,,,,6,,,74,0
371505,note_on,225,0,4,,,,,,,,3,,,67,0
371505,note_on,20,0,7,,,,,,,,6,,,60,0
371505,note_on,225,0,1,,,,,,,,0,,,76,0
371505,note_on,225,0,6,,,,,,,,5,,,48,0
371505,note_on,225,0,5,,,,,,,,4,,,60,0
371505,note_on,225,0,3,,,,,,,,2,,,72,0
371505,note_on,225,0,2,,,,,,,,1,,,76,0
371520,note_on,15,0,2,,,,,,,,1,,,84,85
371520,note_on,15,0,6,,,,,,,,5,,,40,85
371520,note_on,15,0,4,,,,,,,,3,,,67,85
371520,note_on,15,0,5,,,,,,,,4,,,52,85
371520,note_on,15,0,1,,,,,,,,0,,,84,106
371520,note_on,0,0,7,,,,,,,,6,,,52,85
371520,note_on,0,0,7,,,,,,,,6,,,64,85
371520,note_on,0,0,7,,,,,,,,6,,,67,85
371520,note_on,15,0,7,,,,,,,,6,,,72,85
371520,note_on,15,0,3,,,,,,,,2,,,79,85
371745,note_on,225,0,3,,,,,,,,2,,,79,0
371745,note_on,225,0,2,,,,,,,,1,,,84,0
371745,note_on,225,0,1,,,,,,,,0,,,84,0
371760,note_on,15,0,2,,,,,,,,1,,,72,85
371760,note_on,15,0,3,,,,,,,,2,,,76,85
371760,note_on,15,0,1,,,,,,,,0,,,72,106
371965,note_on,0,0,7,,,,,,,,6,,,64,0
371965,note_on,0,0,7,,,,,,,,6,,,67,0
371965,note_on,0,0,7,,,,,,,,6,,,72,0
371965,note_on,445,0,6,,,,,,,,5,,,40,0
371965,note_on,445,0,7,,,,,,,,6,,,52,0
371965,note_on,445,0,4,,,,,,,,3,,,67,0
371965,note_on,445,0,5,,,,,,,,4,,,52,0
371985,note_on,225,0,3,,,,,,,,2,,,76,0
371985,note_on,225,0,1,,,,,,,,0,,,72,0
371985,note_on,225,0,2,,,,,,,,1,,,72,0
372000,note_on,15,0,2,,,,,,,,1,,,74,85
372000,note_on,15,0,3,,,,,,,,2,,,77,85
372000,note_on,15,0,1,,,,,,,,0,,,74,106
372225,note_on,225,0,2,,,,,,,,1,,,74,0
372225,note_on,225,0,3,,,,,,,,2,,,77,0
372225,note_on,225,0,1,,,,,,,,0,,,74,0
372240,note_on,0,0,7,,,,,,,,6,,,67,85
372240,note_on,15,0,2,,,,,,,,1,,,72,85
372240,note_on,15,0,1,,,,,,,,0,,,72,106
372240,note_on,0,0,7,,,,,,,,6,,,64,85
372240,note_on,0,0,7,,,,,,,,6,,,52,85
372240,note_on,275,0,5,,,,,,,,4,,,52,85
372240,note_on,15,0,3,,,,,,,,2,,,76,85
372240,note_on,275,0,7,,,,,,,,6,,,72,85
372240,note_on,275,0,6,,,,,,,,5,,,40,85
372240,note_on,275,0,4,,,,,,,,3,,,67,85
372465,note_on,225,0,3,,,,,,,,2,,,76,0
372465,note_on,225,0,2,,,,,,,,1,,,72,0
372465,note_on,225,0,1,,,,,,,,0,,,72,0
372465,note_on,225,0,6,,,,,,,,5,,,40,0
372465,note_on,225,0,7,,,,,,,,6,,,52,0
372465,note_on,225,0,5,,,,,,,,4,,,52,0
372465,note_on,225,0,4,,,,,,,,3,,,67,0
372465,note_on,0,0,7,,,,,,,,6,,,72,0
372465,note_on,0,0,7,,,,,,,,6,,,64,0
372465,note_on,0,0,7,,,,,,,,6,,,67,0
372480,note_on,15,0,5,,,,,,,,4,,,53,85
372480,note_on,15,0,7,,,,,,,,6,,,72,85
372480,note_on,15,0,4,,,,,,,,3,,,60,85
372480,note_on,0,0,7,,,,,,,,6,,,69,85
372480,note_on,15,0,2,,,,,,,,1,,,81,85
372480,note_on,0,0,7,,,,,,,,6,,,65,85
372480,note_on,15,0,3,,,,,,,,2,,,81,85
372480,note_on,15,0,6,,,,,,,,5,,,41,85
372480,note_on,0,0,7,,,,,,,,6,,,53,85
372480,note_on,15,0,1,,,,,,,,0,,,81,106
372925,note_on,0,0,7,,,,,,,,6,,,65,0
372925,note_on,0,0,7,,,,,,,,6,,,69,0
372925,note_on,0,0,7,,,,,,,,6,,,72,0
372925,note_on,445,0,7,,,,,,,,6,,,53,0
372925,note_on,445,0,4,,,,,,,,3,,,60,0
372925,note_on,445,0,3,,,,,,,,2,,,81,0
372925,note_on,445,0,6,,,,,,,,5,,,41,0
372925,note_on,445,0,2,,,,,,,,1,,,81,0
372925,note_on,445,0,5,,,,,,,,4,,,53,0
372925,note_on,445,0,1,,,,,,,,0,,,81,0
372960,note_on,35,0,1,,,,,,,,0,,,79,106
372960,note_on,0,0,7,,,,,,,,6,,,71,85
372960,note_on,35,0,3,,,,,,,,2,,,79,85
372960,note_on,0,0,7,,,,,,,,6,,,47,85
372960,note_on,35,0,7,,,,,,,,6,,,74,85
372960,note_on,35,0,4,,,,,,,,3,,,62,85
372960,note_on,0,0,7,,,,,,,,6,,,67,85
372960,note_on,35,0,2,,,,,,,,1,,,79,85
372960,note_on,35,0,6,,,,,,,,5,,,35,85
372960,note_on,35,0,5,,,,,,,,4,,,47,85
373185,note_on,225,0,2,,,,,,,,1,,,79,0
373185,note_on,225,0,3,,,,,,,,2,,,79,0
373185,note_on,225,0,1,,,,,,,,0,,,79,0
373200,note_on,15,0,2,,,,,,,,1,,,77,85
373200,note_on,15,0,3,,,,,,,,2,,,77,85
373200,note_on,15,0,1,,,,,,,,0,,,77,106
373405,note_on,445,0,7,,,,,,,,6,,,47,0
373405,note_on,445,0,4,,,,,,,,3,,,62,0
373405,note_on,445,0,5,,,,,,,,4,,,47,0
373405,note_on,445,0,6,,,,,,,,5,,,35,0
373405,note_on,0,0,7,,,,,,,,6,,,74,0
373405,note_on,0,0,7,,,,,,,,6,,,67,0
373405,note_on,0,0,7,,,,,,,,6,,,71,0
373425,note_on,225,0,3,,,,,,,,2,,,77,0
373425,note_on,225,0,2,,,,,,,,1,,,77,0
373425,note_on,225,0,1,,,,,,,,0,,,77,0
373440,note_on,0,0,7,,,,,,,,6,,,72,85
373440,note_on,35,0,4,,,,,,,,3,,,55,85
373440,note_on,35,0,5,,,,,,,,4,,,43,85
373440,note_on,15,0,1,,,,,,,,0,,,76,106
373440,note_on,0,0,7,,,,,,,,6,,,67,85
373440,note_on,35,0,7,,,,,,,,6,,,76,85
373440,note_on,35,0,6,,,,,,,,5,,,31,85
373440,note_on,15,0,2,,,,,,,,1,,,76,85
373440,note_on,0,0,7,,,,,,,,6,,,48,85
373440,note_on,15,0,3,,,,,,,,2,,,76,85
373665,note_on,225,0,6,,,,,,,,5,,,31,0
373665,note_on,225,0,2,,,,,,,,1,,,76,0
373665,note_on,225,0,3,,,,,,,,2,,,76,0
373665,note_on,225,0,1,,,,,,,,0,,,76,0
373665,note_on,225,0,5,,,,,,,,4,,,43,0
373665,note_on,225,0,4,,,,,,,,3,,,55,0
373665,note_on,225,0,7,,,,,,,,6,,,48,0
373680,note_on,15,0,3,,,,,,,,2,,,74,85
373680,note_on,15,0,1,,,,,,,,0,,,74,106
373680,note_on,15,0,5,,,,,,,,4,,,52,85
373680,note_on,15,0,6,,,,,,,,5,,,40,85
373680,note_on,15,0,2,,,,,,,,1,,,74,85
373680,note_on,15,0,4,,,,,,,,3,,,67,85
373680,note_on,15,0,7,,,,,,,,6,,,52,85
373795,note_on,115,0,1,,,,,,,,0,,,74,0
373795,note_on,115,0,3,,,,,,,,2,,,74,0
373795,note_on,115,0,2,,,,,,,,1,,,74,0
373800,note_on,5,0,3,,,,,,,,2,,,72,85
373800,note_on,5,0,1,,,,,,,,0,,,72,106
373800,note_on,5,0,2,,,,,,,,1,,,72,85
373885,note_on,0,0,7,,,,,,,,6,,,72,0
373885,note_on,0,0,7,,,,,,,,6,,,67,0
373885,note_on,205,0,7,,,,,,,,6,,,76,0
373905,note_on,225,0,5,,,,,,,,4,,,52,0
373905,note_on,20,0,7,,,,,,,,6,,,52,0
373905,note_on,225,0,6,,,,,,,,5,,,40,0
373905,note_on,225,0,4,,,,,,,,3,,,67,0
373915,note_on,115,0,2,,,,,,,,1,,,72,0
373915,note_on,115,0,3,,,,,,,,2,,,72,0
373915,note_on,115,0,1,,,,,,,,0,,,72,0
373920,note_on,15,0,5,,,,,,,,4,,,53,85
373920,note_on,15,0,6,,,,,,,,5,,,41,85
373920,note_on,5,0,2,,,,,,,,1,,,74,85
373920,note_on,5,0,1,,,,,,,,0,,,74,106
373920,note_on,15,0,7,,,,,,,,6,,,74,85
373920,note_on,0,0,7,,,,,,,,6,,,69,85
373920,note_on,0,0,7,,,,,,,,6,,,53,85
373920,note_on,0,0,7,,,,,,,,6,,,65,85
373920,note_on,15,0,4,,,,,,,,3,,,69,85
373920,note_on,5,0,3,,,,,,,,2,,,74,85
374145,note_on,225,0,6,,,,,,,,5,,,41,0
374145,note_on,225,0,2,,,,,,,,1,,,74,0
374145,note_on,225,0,5,,,,,,,,4,,,53,0
374145,note_on,225,0,7,,,,,,,,6,,,53,0
374145,note_on,225,0,4,,,,,,,,3,,,69,0
374145,note_on,225,0,1,,,,,,,,0,,,74,0
374145,note_on,225,0,3,,,,,,,,2,,,74,0
374160,note_on,15,0,5,,,,,,,,4,,,55,85
374160,note_on,15,0,6,,,,,,,,5,,,43,85
374160,note_on,15,0,4,,,,,,,,3,,,62,85
374160,note_on,15,0,7,,,,,,,,6,,,55,85
374160,note_on,15,0,2,,,,,,,,1,,,71,85
374160,note_on,15,0,3,,,,,,,,2,,,71,85
374160,note_on,15,0,1,,,,,,,,0,,,71,106
374365,note_on,205,0,7,,,,,,,,6,,,74,0
374365,note_on,0,0,7,,,,,,,,6,,,65,0
374365,note_on,0,0,7,,,,,,,,6,,,69,0
374385,note_on,225,0,1,,,,,,,,0,,,71,0
374385,note_on,225,0,5,,,,,,,,4,,,55,0
374385,note_on,225,0,3,,,,,,,,2,,,71,0
374385,note_on,225,0,6,,,,,,,,5,,,43,0
374385,note_on,225,0,4,,,,,,,,3,,,62,0
374385,note_on,20,0,7,,,,,,,,6,,,55,0
374385,note_on,225,0,2,,,,,,,,1,,,71,0
374400,note_on,15,0,6,,,,,,,,5,,,36,85
374400,note_on,15,0,4,,,,,,,,3,,,64,85
374400,note_on,15,0,1,,,,,,,,0,,,72,106
374400,note_on,0,0,7,,,,,,,,6,,,72,85
374400,note_on,0,0,7,,,,,,,,6,,,67,85
374400,note_on,0,0,7,,,,,,,,6,,,48,85
374400,note_on,15,0,2,,,,,,,,1,,,72,85
374400,note_on,15,0,5,,,,,,,,4,,,48,85
374400,note_on,15,0,3,,,,,,,,2,,,72,85
374400,note_on,15,0,7,,,,,,,,6,,,76,85
374625,note_on,225,0,6,,,,,,,,5,,,36,0
374625,note_on,225,0,7,,,,,,,,6,,,48,0
374625,note_on,225,0,5,,,,,,,,4,,,48,0
374625,note_on,225,0,4,,,,,,,,3,,,64,0
374640,note_on,15,0,6,,,,,,,,5,,,36,85
374640,note_on,15,0,4,,,,,,,,3,,,64,85
374640,note_on,15,0,7,,,,,,,,6,,,48,85
374640,note_on,15,0,5,,,,,,,,4,,,48,85
374845,note_on,205,0,7,,,,,,,,6,,,76,0
374845,note_on,0,0,7,,,,,,,,6,,,67,0
374845,note_on,0,0,7,,,,,,,,6,,,72,0
374845,note_on,445,0,3,,,,,,,,2,,,72,0
374845,note_on,445,0,2,,,,,,,,1,,,72,0
374845,note_on,445,0,1,,,,,,,,0,,,72,0
374865,note_on,225,0,4,,,,,,,,3,,,64,0
374865,note_on,225,0,6,,,,,,,,5,,,36,0
374865,note_on,225,0,5,,,,,,,,4,,,48,0
374865,note_on,20,0,7,,,,,,,,6,,,48,0
374880,note_on,15,0,7,,,,,,,,6,,,72,85
374880,note_on,0,0,7,,,,,,,,6,,,67,85
374880,note_on,0,0,7,,,,,,,,6,,,64,85
374880,note_on,0,0,7,,,,,,,,6,,,48,85
374880,note_on,15,0,6,,,,,,,,5,,,36,85
374880,note_on,15,0,4,,,,,,,,3,,,64,85
374880,note_on,15,0,5,,,,,,,,4,,,48,85
375105,note_on,225,0,4,,,,,,,,3,,,64,0
375105,note_on,225,0,5,,,,,,,,4,,,48,0
375105,note_on,225,0,6,,,,,,,,5,,,36,0
375105,note_on,225,0,7,,,,,,,,6,,,48,0
375120,note_on,15,0,7,,,,,,,,6,,,60,85
375120,note_on,15,0,4,,,,,,,,3,,,67,64
375120,note_on,275,0,1,,,,,,,,0,,,79,64
375120,note_on,275,0,3,,,,,,,,2,,,79,64
375120,note_on,15,0,5,,,,,,,,4,,,60,64
375120,note_on,15,0,6,,,,,,,,5,,,48,64
375120,note_on,275,0,2,,,,,,,,1,,,79,64
375325,note_on,0,0,7,,,,,,,,6,,,64,0
375325,note_on,205,0,7,,,,,,,,6,,,72,0
375325,note_on,0,0,7,,,,,,,,6,,,67,0
375345,note_on,225,0,1,,,,,,,,0,,,79,0
375345,note_on,20,0,7,,,,,,,,6,,,60,0
375345,note_on,225,0,3,,,,,,,,2,,,79,0
375345,note_on,225,0,4,,,,,,,,3,,,67,0
375345,note_on,225,0,6,,,,,,,,5,,,48,0
375345,note_on,225,0,5,,,,,,,,4,,,60,0
375345,note_on,225,0,2,,,,,,,,1,,,79,0
375360,note_on,15,0,3,,,,,,,,2,,,79,64
375360,note_on,0,0,7,,,,,,,,6,,,52,85
375360,note_on,0,0,7,,,,,,,,6,,,64,85
375360,note_on,0,0,7,,,,,,,,6,,,67,85
375360,note_on,15,0,7,,,,,,,,6,,,72,85
375360,note_on,15,0,6,,,,,,,,5,,,40,64
375360,note_on,15,0,2,,,,,,,,1,,,84,64
375360,note_on,15,0,4,,,,,,,,3,,,67,64
375360,note_on,15,0,5,,,,,,,,4,,,52,64
375360,note_on,15,0,1,,,,,,,,0,,,84,64
375585,note_on,225,0,2,,,,,,,,1,,,84,0
375585,note_on,225,0,3,,,,,,,,2,,,79,0
375585,note_on,225,0,1,,,,,,,,0,,,84,0
375600,note_on,15,0,2,,,,,,,,1,,,72,64
375600,note_on,15,0,3,,,,,,,,2,,,76,64
375600,note_on,15,0,1,,,,,,,,0,,,72,64
375805,note_on,445,0,4,,,,,,,,3,,,67,0
375805,note_on,445,0,7,,,,,,,,6,,,52,0
375805,note_on,0,0,7,,,,,,,,6,,,72,0
375805,note_on,0,0,7,,,,,,,,6,,,64,0
375805,note_on,445,0,5,,,,,,,,4,,,52,0
375805,note_on,445,0,6,,,,,,,,5,,,40,0
375805,note_on,0,0,7,,,,,,,,6,,,67,0
375825,note_on,225,0,2,,,,,,,,1,,,72,0
375825,note_on,225,0,3,,,,,,,,2,,,76,0
375825,note_on,225,0,1,,,,,,,,0,,,72,0
375840,note_on,15,0,2,,,,,,,,1,,,74,64
375840,note_on,15,0,1,,,,,,,,0,,,74,64
375840,note_on,15,0,3,,,,,,,,2,,,77,64
376065,note_on,225,0,3,,,,,,,,2,,,77,0
376065,note_on,225,0,1,,,,,,,,0,,,74,0
376065,note_on,225,0,2,,,,,,,,1,,,74,0
376080,note_on,15,0,3,,,,,,,,2,,,76,64
376080,note_on,15,0,1,,,,,,,,0,,,72,64
376080,note_on,0,0,7,,,,,,,,6,,,67,85
376080,note_on,275,0,7,,,,,,,,6,,,72,85
376080,note_on,275,0,6,,,,,,,,5,,,40,64
376080,note_on,0,0,7,,,,,,,,6,,,52,85
376080,note_on,275,0,5,,,,,,,,4,,,52,64
376080,note_on,0,0,7,,,,,,,,6,,,64,85
376080,note_on,275,0,4,,,,,,,,3,,,67,64
376080,note_on,15,0,2,,,,,,,,1,,,72,64
376305,note_on,225,0,1,,,,,,,,0,,,72,0
376305,note_on,225,0,6,,,,,,,,5,,,40,0
376305,note_on,225,0,3,,,,,,,,2,,,76,0
376305,note_on,225,0,4,,,,,,,,3,,,67,0
376305,note_on,225,0,7,,,,,,,,6,,,52,0
376305,note_on,0,0,7,,,,,,,,6,,,67,0
376305,note_on,225,0,5,,,,,,,,4,,,52,0
376305,note_on,0,0,7,,,,,,,,6,,,64,0
376305,note_on,225,0,2,,,,,,,,1,,,72,0
376305,note_on,0,0,7,,,,,,,,6,,,72,0
376320,note_on,0,0,7,,,,,,,,6,,,65,85
376320,note_on,15,0,5,,,,,,,,4,,,53,64
376320,note_on,15,0,6,,,,,,,,5,,,41,64
376320,note_on,0,0,7,,,,,,,,6,,,53,85
376320,note_on,15,0,2,,,,,,,,1,,,81,64
376320,note_on,15,0,7,,,,,,,,6,,,72,85
376320,note_on,15,0,4,,,,,,,,3,,,60,64
376320,note_on,15,0,3,,,,,,,,2,,,81,64
376320,note_on,0,0,7,,,,,,,,6,,,69,85
376320,note_on,15,0,1,,,,,,,,0,,,81,64
376765,note_on,445,0,1,,,,,,,,0,,,81,0
376765,note_on,0,0,7,,,,,,,,6,,,65,0
376765,note_on,0,0,7,,,,,,,,6,,,69,0
376765,note_on,0,0,7,,,,,,,,6,,,72,0
376765,note_on,445,0,3,,,,,,,,2,,,81,0
376765,note_on,445,0,4,,,,,,,,3,,,60,0
376765,note_on,445,0,7,,,,,,,,6,,,53,0
376765,note_on,445,0,6,,,,,,,,5,,,41,0
376765,note_on,445,0,5,,,,,,,,4,,,53,0
376765,note_on,445,0,2,,,,,,,,1,,,81,0
376800,note_on,0,0,7,,,,,,,,6,,,71,85
376800,note_on,0,0,7,,,,,,,,6,,,47,85
376800,note_on,35,0,4,,,,,,,,3,,,62,64
376800,note_on,35,0,7,,,,,,,,6,,,74,85
376800,note_on,35,0,6,,,,,,,,5,,,35,64
376800,note_on,35,0,5,,,,,,,,4,,,47,64
376800,note_on,35,0,2,,,,,,,,1,,,79,64
376800,note_on,35,0,1,,,,,,,,0,,,79,64
376800,note_on,0,0,7,,,,,,,,6,,,67,85
376800,note_on,35,0,3,,,,,,,,2,,,79,64
377025,note_on,225,0,1,,,,,,,,0,,,79,0
377025,note_on,225,0,3,,,,,,,,2,,,79,0
377025,note_on,225,0,2,,,,,,,,1,,,79,0
377040,note_on,15,0,2,,,,,,,,1,,,77,64
377040,note_on,15,0,1,,,,,,,,0,,,77,64
377040,note_on,15,0,3,,,,,,,,2,,,77,64
377245,note_on,0,0,7,,,,,,,,6,,,71,0
377245,note_on,445,0,4,,,,,,,,3,,,62,0
377245,note_on,445,0,6,,,,,,,,5,,,35,0
377245,note_on,0,0,7,,,,,,,,6,,,67,0
377245,note_on,445,0,5,,,,,,,,4,,,47,0
377245,note_on,0,0,7,,,,,,,,6,,,74,0
377245,note_on,445,0,7,,,,,,,,6,,,47,0
377265,note_on,225,0,2,,,,,,,,1,,,77,0
377265,note_on,225,0,1,,,,,,,,0,,,77,0
377265,note_on,225,0,3,,,,,,,,2,,,77,0
377280,note_on,15,0,3,,,,,,,,2,,,76,64
377280,note_on,15,0,2,,,,,,,,1,,,76,64
377280,note_on,35,0,5,,,,,,,,4,,,43,64
377280,note_on,35,0,4,,,,,,,,3,,,55,64
377280,note_on,35,0,6,,,,,,,,5,,,31,64
377280,note_on,0,0,7,,,,,,,,6,,,43,85
377280,note_on,35,0,7,,,,,,,,6,,,76,85
377280,note_on,0,0,7,,,,,,,,6,,,67,85
377280,note_on,0,0,7,,,,,,,,6,,,72,85
377280,note_on,15,0,1,,,,,,,,0,,,76,64
377505,note_on,225,0,3,,,,,,,,2,,,76,0
377505,note_on,225,0,4,,,,,,,,3,,,55,0
377505,note_on,225,0,5,,,,,,,,4,,,43,0
377505,note_on,225,0,7,,,,,,,,6,,,43,0
377505,note_on,225,0,6,,,,,,,,5,,,31,0
377505,note_on,225,0,2,,,,,,,,1,,,76,0
377505,note_on,225,0,1,,,,,,,,0,,,76,0
377520,note_on,15,0,2,,,,,,,,1,,,74,64
377520,note_on,15,0,6,,,,,,,,5,,,40,64
377520,note_on,15,0,3,,,,,,,,2,,,74,64
377520,note_on,15,0,4,,,,,,,,3,,,67,64
377520,note_on,15,0,5,,,,,,,,4,,,52,64
377520,note_on,15,0,1,,,,,,,,0,,,74,64
377520,note_on,15,0,7,,,,,,,,6,,,52,85
377635,note_on,115,0,3,,,,,,,,2,,,74,0
377635,note_on,115,0,1,,,,,,,,0,,,74,0
377635,note_on,115,0,2,,,,,,,,1,,,74,0
377640,note_on,5,0,2,,,,,,,,1,,,72,64
377640,note_on,5,0,3,,,,,,,,2,,,72,64
377640,note_on,5,0,1,,,,,,,,0,,,72,64
377725,note_on,0,0,7,,,,,,,,6,,,67,0
377725,note_on,0,0,7,,,,,,,,6,,,72,0
377725,note_on,205,0,7,,,,,,,,6,,,76,0
377745,note_on,225,0,6,,,,,,,,5,,,40,0
377745,note_on,20,0,7,,,,,,,,6,,,52,0
377745,note_on,225,0,4,,,,,,,,3,,,67,0
377745,note_on,225,0,5,,,,,,,,4,,,52,0
377755,note_on,115,0,2,,,,,,,,1,,,72,0
377755,note_on,115,0,3,,,,,,,,2,,,72,0
377755,note_on,115,0,1,,,,,,,,0,,,72,0
377760,note_on,0,0,7,,,,,,,,6,,,69,85
377760,note_on,0,0,7,,,,,,,,6,,,65,85
377760,note_on,15,0,7,,,,,,,,6,,,74,85
377760,note_on,0,0,7,,,,,,,,6,,,53,85
377760,note_on,5,0,3,,,,,,,,2,,,74,64
377760,set_tempo,158880,1,0,,,,,,600000,,,,,,
377760,note_on,15,0,6,,,,,,,,5,,,41,64
377760,note_on,15,0,5,,,,,,,,4,,,53,64
377760,note_on,5,0,1,,,,,,,,0,,,74,64
377760,note_on,15,0,4,,,,,,,,3,,,69,64
377760,note_on,5,0,2,,,,,,,,1,,,74,64
377869,note_on,109,0,1,,,,,,,,0,,,74,0
377885,note_on,125,0,2,,,,,,,,1,,,74,0
377885,note_on,125,0,3,,,,,,,,2,,,74,0
377890,note_on,130,0,4,,,,,,,,3,,,69,0
377895,note_on,135,0,6,,,,,,,,5,,,41,0
377906,note_on,146,0,5,,,,,,,,4,,,53,0
377985,note_on,225,0,7,,,,,,,,6,,,53,0
377993,set_tempo,233,1,0,,,,,,705882,,,,,,
378000,note_on,94,0,5,,,,,,,,4,,,55,64
378000,note_on,15,0,7,,,,,,,,6,,,55,85
378000,note_on,115,0,2,,,,,,,,1,,,71,64
378000,note_on,115,0,3,,,,,,,,2,,,71,64
378000,note_on,105,0,6,,,,,,,,5,,,43,64
378000,note_on,110,0,4,,,,,,,,3,,,62,64
378000,note_on,131,0,1,,,,,,,,0,,,71,64
378120,note_on,120,0,2,,,,,,,,1,,,71,0
378120,note_on,120,0,1,,,,,,,,0,,,71,0
378120,note_on,120,0,6,,,,,,,,5,,,43,0
378120,note_on,120,0,3,,,,,,,,2,,,71,0
378125,note_on,125,0,4,,,,,,,,3,,,62,0
378140,note_on,140,0,5,,,,,,,,4,,,55,0
378205,note_on,205,0,7,,,,,,,,6,,,74,0
378205,note_on,0,0,7,,,,,,,,6,,,65,0
378205,note_on,0,0,7,,,,,,,,6,,,69,0
378225,note_on,20,0,7,,,,,,,,6,,,55,0
378480,note_on,340,0,5,,,,,,,,4,,,48,64
378480,note_on,360,0,6,,,,,,,,5,,,36,64
378480,note_on,360,0,1,,,,,,,,0,,,72,64
378480,note_on,355,0,4,,,,,,,,3,,,64,64
378480,note_on,360,0,2,,,,,,,,1,,,72,64
378480,note_on,360,0,3,,,,,,,,2,,,72,64
378485,end_of_track,0,1,0,,,,,,,,,,,,
378485,set_tempo,492,1,0,,,,,,857143,,,,,,
378485,note_on,260,0,7,,,,,,,,6,,,48,85
378547,note_on,62,0,7,,,,,,,,6,,,64,85
378605,note_on,58,0,7,,,,,,,,6,,,67,85
378693,note_on,88,0,7,,,,,,,,6,,,72,85
379145,end_of_track,0,1,1,,,,,,,,,,,,
379145,note_on,665,0,2,,,,,,,,1,,,72,0
379145,end_of_track,0,1,6,,,,,,,,,,,,
379145,note_on,665,0,6,,,,,,,,5,,,36,0
379145,end_of_track,0,1,2,,,,,,,,,,,,
379145,end_of_track,0,1,4,,,,,,,,,,,,
379145,note_on,665,0,4,,,,,,,,3,,,64,0
379145,end_of_track,0,1,3,,,,,,,,,,,,
379145,note_on,665,0,5,,,,,,,,4,,,48,0
379145,note_on,665,0,3,,,,,,,,2,,,72,0
379145,end_of_track,0,1,5,,,,,,,,,,,,
379145,note_on,665,0,1,,,,,,,,0,,,72,0
379370,note_on,677,0,7,,,,,,,,6,,,48,0
379432,note_on,62,0,7,,,,,,,,6,,,64,0
379490,note_on,58,0,7,,,,,,,,6,,,67,0
379578,note_on,88,0,7,,,,,,,,6,,,72,0
379578,end_of_track,0,1,7,,,,,,,,,,,,
