tick,type,time,meta,track,numerator,denominator,clocks_per_click,notated_32nd_notes_per_beat,key,tempo,port,program,channel,control,value,note,velocity
0,track_name,0,1,0,,,,,,,,,,,,,
0,control_change,0,0,2,,,,,,,,,1,7,100,,
0,control_change,0,0,2,,,,,,,,,1,10,16,,
0,track_name,0,1,11,,,,,,,,,,,,,
0,midi_port,0,1,3,,,,,,,0,,,,,,
0,program_change,0,0,3,,,,,,,,48,2,,,,
0,control_change,0,0,3,,,,,,,,,2,7,100,,
0,control_change,0,0,3,,,,,,,,,2,10,35,,
0,midi_port,0,1,4,,,,,,,0,,,,,,
0,program_change,0,0,4,,,,,,,,48,3,,,,
0,control_change,0,0,4,,,,,,,,,3,7,101,,
0,control_change,0,0,4,,,,,,,,,3,10,86,,
0,midi_port,0,1,5,,,,,,,0,,,,,,
0,program_change,0,0,5,,,,,,,,49,4,,,,
0,control_change,0,0,5,,,,,,,,,4,7,108,,
0,control_change,0,0,5,,,,,,,,,4,10,112,,
0,midi_port,0,1,6,,,,,,,0,,,,,,
0,track_name,0,1,6,,,,,,,,,,,,,
0,midi_port,0,1,11,,,,,,,0,,,,,,
0,end_of_track,0,1,10,,,,,,,,,,,,,
0,track_name,0,1,10,,,,,,,,,,,,,
0,midi_port,0,1,10,,,,,,,0,,,,,,
0,end_of_track,0,1,9,,,,,,,,,,,,,
0,track_name,0,1,9,,,,,,,,,,,,,
0,program_change,0,0,2,,,,,,,,48,1,,,,
0,midi_port,0,1,9,,,,,,,0,,,,,,
0,track_name,0,1,8,,,,,,,,,,,,,
0,midi_port,0,1,8,,,,,,,0,,,,,,
0,end_of_track,0,1,7,,,,,,,,,,,,,
0,track_name,0,1,7,,,,,,,,,,,,,
0,midi_port,0,1,7,,,,,,,0,,,,,,
0,end_of_track,0,1,6,,,,,,,,,,,,,
0,end_of_track,0,1,8,,,,,,,,,,,,,
0,midi_port,0,1,2,,,,,,,0,,,,,,
0,end_of_track,0,1,11,,,,,,,,,,,,,
0,time_signature,0,1,0,4,4,24,8,,,,,,,,,
0,set_tempo,0,1,0,,,,,,468750,,,,,,,
0,control_change,0,0,1,,,,,,,,,0,10,54,,
0,control_change,0,0,1,,,,,,,,,0,7,111,,
0,program_change,0,0,1,,,,,,,,40,0,,,,
0,midi_port,0,1,1,,,,,,,0,,,,,,
0,key_signature,0,1,0,,,,,C,,,,,,,,
960,note_on,960,0,1,,,,,,,,,0,,,63,92
960,note_on,960,0,2,,,,,,,,,1,,,63,92
1008,note_on,48,0,1,,,,,,,,,0,,,63,0
1008,note_on,48,0,2,,,,,,,,,1,,,63,0
1020,note_on,12,0,2,,,,,,,,,1,,,63,92
1020,note_on,12,0,1,,,,,,,,,0,,,63,92
1068,note_on,48,0,2,,,,,,,,,1,,,63,0
1068,note_on,48,0,1,,,,,,,,,0,,,63,0
1080,note_on,12,0,1,,,,,,,,,0,,,63,92
1080,note_on,12,0,2,,,,,,,,,1,,,63,92
1128,note_on,48,0,2,,,,,,,,,1,,,63,0
1128,note_on,48,0,1,,,,,,,,,0,,,63,0
1140,note_on,12,0,1,,,,,,,,,0,,,63,92
1140,note_on,12,0,2,,,,,,,,,1,,,63,92
1188,note_on,48,0,1,,,,,,,,,0,,,63,0
1188,note_on,48,0,2,,,,,,,,,1,,,63,0
1200,note_on,12,0,1,,,,,,,,,0,,,63,92
1200,note_on,12,0,2,,,,,,,,,1,,,63,92
1248,note_on,48,0,1,,,,,,,,,0,,,63,0
1248,note_on,48,0,2,,,,,,,,,1,,,63,0
1260,note_on,12,0,2,,,,,,,,,1,,,63,92
1260,note_on,12,0,1,,,,,,,,,0,,,63,92
1308,note_on,48,0,2,,,,,,,,,1,,,63,0
1308,note_on,48,0,1,,,,,,,,,0,,,63,0
1320,note_on,12,0,2,,,,,,,,,1,,,63,92
1320,note_on,12,0,1,,,,,,,,,0,,,63,92
1368,note_on,48,0,2,,,,,,,,,1,,,63,0
1368,note_on,48,0,1,,,,,,,,,0,,,63,0
1380,note_on,12,0,2,,,,,,,,,1,,,63,92
1380,note_on,12,0,1,,,,,,,,,0,,,63,92
1428,note_on,48,0,2,,,,,,,,,1,,,63,0
1428,note_on,48,0,1,,,,,,,,,0,,,63,0
1440,note_on,12,0,2,,,,,,,,,1,,,70,92
1440,note_on,12,0,1,,,,,,,,,0,,,70,92
1488,note_on,48,0,2,,,,,,,,,1,,,70,0
1488,note_on,48,0,1,,,,,,,,,0,,,70,0
1500,note_on,12,0,2,,,,,,,,,1,,,70,92
1500,note_on,12,0,1,,,,,,,,,0,,,70,92
1548,note_on,48,0,1,,,,,,,,,0,,,70,0
1548,note_on,48,0,2,,,,,,,,,1,,,70,0
1560,note_on,12,0,2,,,,,,,,,1,,,70,92
1560,note_on,12,0,1,,,,,,,,,0,,,70,92
1608,note_on,48,0,2,,,,,,,,,1,,,70,0
1608,note_on,48,0,1,,,,,,,,,0,,,70,0
1620,note_on,12,0,2,,,,,,,,,1,,,70,92
1620,note_on,12,0,1,,,,,,,,,0,,,70,92
1668,note_on,48,0,1,,,,,,,,,0,,,70,0
1668,note_on,48,0,2,,,,,,,,,1,,,70,0
1680,note_on,12,0,1,,,,,,,,,0,,,70,92
1680,note_on,12,0,2,,,,,,,,,1,,,70,92
1728,note_on,48,0,2,,,,,,,,,1,,,70,0
1728,note_on,48,0,1,,,,,,,,,0,,,70,0
1740,note_on,12,0,2,,,,,,,,,1,,,70,92
1740,note_on,12,0,1,,,,,,,,,0,,,70,92
1788,note_on,48,0,2,,,,,,,,,1,,,70,0
1788,note_on,48,0,1,,,,,,,,,0,,,70,0
1800,note_on,12,0,1,,,,,,,,,0,,,70,92
1800,note_on,12,0,2,,,,,,,,,1,,,70,92
1848,note_on,48,0,1,,,,,,,,,0,,,70,0
1848,note_on,48,0,2,,,,,,,,,1,,,70,0
1860,note_on,12,0,1,,,,,,,,,0,,,70,92
1860,note_on,12,0,2,,,,,,,,,1,,,70,92
1908,note_on,48,0,1,,,,,,,,,0,,,70,0
1908,note_on,48,0,2,,,,,,,,,1,,,70,0
1920,note_on,12,0,2,,,,,,,,,1,,,75,92
1920,note_on,12,0,1,,,,,,,,,0,,,75,92
1920,note_on,1920,0,3,,,,,,,,,2,,,63,92
1968,note_on,48,0,3,,,,,,,,,2,,,63,0
1980,note_on,12,0,3,,,,,,,,,2,,,63,92
2016,note_on,96,0,2,,,,,,,,,1,,,75,0
2016,note_on,96,0,1,,,,,,,,,0,,,75,0
2028,note_on,48,0,3,,,,,,,,,2,,,63,0
2040,note_on,24,0,1,,,,,,,,,0,,,63,92
2040,note_on,24,0,2,,,,,,,,,1,,,63,92
2040,note_on,12,0,3,,,,,,,,,2,,,63,92
2088,note_on,48,0,3,,,,,,,,,2,,,63,0
2100,note_on,12,0,3,,,,,,,,,2,,,63,92
2136,note_on,96,0,2,,,,,,,,,1,,,63,0
2136,note_on,96,0,1,,,,,,,,,0,,,63,0
2148,note_on,48,0,3,,,,,,,,,2,,,63,0
2160,note_on,24,0,1,,,,,,,,,0,,,75,92
2160,note_on,24,0,2,,,,,,,,,1,,,75,92
2160,note_on,12,0,3,,,,,,,,,2,,,63,92
2208,note_on,48,0,1,,,,,,,,,0,,,75,0
2208,note_on,48,0,3,,,,,,,,,2,,,63,0
2208,note_on,48,0,2,,,,,,,,,1,,,75,0
2220,note_on,12,0,1,,,,,,,,,0,,,77,92
2220,note_on,12,0,3,,,,,,,,,2,,,63,92
2220,note_on,12,0,2,,,,,,,,,1,,,77,92
2268,note_on,48,0,1,,,,,,,,,0,,,77,0
2268,note_on,48,0,3,,,,,,,,,2,,,63,0
2268,note_on,48,0,2,,,,,,,,,1,,,77,0
2280,note_on,12,0,2,,,,,,,,,1,,,79,92
2280,note_on,12,0,1,,,,,,,,,0,,,79,92
2280,note_on,12,0,3,,,,,,,,,2,,,63,92
2328,note_on,48,0,3,,,,,,,,,2,,,63,0
2328,note_on,48,0,1,,,,,,,,,0,,,79,0
2328,note_on,48,0,2,,,,,,,,,1,,,79,0
2340,note_on,12,0,3,,,,,,,,,2,,,63,92
2340,note_on,12,0,1,,,,,,,,,0,,,75,92
2340,note_on,12,0,2,,,,,,,,,1,,,75,92
2388,note_on,48,0,2,,,,,,,,,1,,,75,0
2388,note_on,48,0,3,,,,,,,,,2,,,63,0
2388,note_on,48,0,1,,,,,,,,,0,,,75,0
2400,note_on,12,0,3,,,,,,,,,2,,,70,92
2400,note_on,12,0,1,,,,,,,,,0,,,77,92
2400,note_on,12,0,2,,,,,,,,,1,,,77,92
2448,note_on,48,0,1,,,,,,,,,0,,,77,0
2448,note_on,48,0,3,,,,,,,,,2,,,70,0
2448,note_on,48,0,2,,,,,,,,,1,,,77,0
2460,note_on,12,0,2,,,,,,,,,1,,,75,92
2460,note_on,12,0,3,,,,,,,,,2,,,70,92
2460,note_on,12,0,1,,,,,,,,,0,,,75,92
2508,note_on,48,0,2,,,,,,,,,1,,,75,0
2508,note_on,48,0,1,,,,,,,,,0,,,75,0
2508,note_on,48,0,3,,,,,,,,,2,,,70,0
2520,note_on,12,0,1,,,,,,,,,0,,,74,92
2520,note_on,12,0,3,,,,,,,,,2,,,70,92
2520,note_on,12,0,2,,,,,,,,,1,,,74,92
2568,note_on,48,0,2,,,,,,,,,1,,,74,0
2568,note_on,48,0,1,,,,,,,,,0,,,74,0
2568,note_on,48,0,3,,,,,,,,,2,,,70,0
2580,note_on,12,0,2,,,,,,,,,1,,,72,92
2580,note_on,12,0,1,,,,,,,,,0,,,72,92
2580,note_on,12,0,3,,,,,,,,,2,,,70,92
2628,note_on,48,0,2,,,,,,,,,1,,,72,0
2628,note_on,48,0,1,,,,,,,,,0,,,72,0
2628,note_on,48,0,3,,,,,,,,,2,,,70,0
2640,note_on,12,0,1,,,,,,,,,0,,,70,92
2640,note_on,12,0,3,,,,,,,,,2,,,70,92
2640,note_on,12,0,2,,,,,,,,,1,,,70,92
2688,note_on,48,0,3,,,,,,,,,2,,,70,0
2688,note_on,48,0,2,,,,,,,,,1,,,70,0
2688,note_on,48,0,1,,,,,,,,,0,,,70,0
2700,note_on,12,0,2,,,,,,,,,1,,,68,92
2700,note_on,12,0,3,,,,,,,,,2,,,70,92
2700,note_on,12,0,1,,,,,,,,,0,,,68,92
2748,note_on,48,0,3,,,,,,,,,2,,,70,0
2748,note_on,48,0,2,,,,,,,,,1,,,68,0
2748,note_on,48,0,1,,,,,,,,,0,,,68,0
2760,note_on,12,0,3,,,,,,,,,2,,,70,92
2760,note_on,12,0,2,,,,,,,,,1,,,67,92
2760,note_on,12,0,1,,,,,,,,,0,,,67,92
2808,note_on,48,0,3,,,,,,,,,2,,,70,0
2808,note_on,48,0,2,,,,,,,,,1,,,67,0
2808,note_on,48,0,1,,,,,,,,,0,,,67,0
2820,note_on,12,0,3,,,,,,,,,2,,,70,92
2820,note_on,12,0,2,,,,,,,,,1,,,65,92
2820,note_on,12,0,1,,,,,,,,,0,,,65,92
2868,note_on,48,0,1,,,,,,,,,0,,,65,0
2868,note_on,48,0,3,,,,,,,,,2,,,70,0
2868,note_on,48,0,2,,,,,,,,,1,,,65,0
2880,note_on,2880,0,4,,,,,,,,,3,,,51,92
2880,note_on,12,0,2,,,,,,,,,1,,,67,92
2880,note_on,12,0,3,,,,,,,,,2,,,75,92
2880,note_on,12,0,1,,,,,,,,,0,,,67,92
2928,note_on,48,0,4,,,,,,,,,3,,,51,0
2940,note_on,12,0,4,,,,,,,,,3,,,51,92
2976,note_on,96,0,1,,,,,,,,,0,,,67,0
2976,note_on,96,0,3,,,,,,,,,2,,,75,0
2976,note_on,96,0,2,,,,,,,,,1,,,67,0
2988,note_on,48,0,4,,,,,,,,,3,,,51,0
3000,note_on,24,0,1,,,,,,,,,0,,,63,92
3000,note_on,24,0,3,,,,,,,,,2,,,63,92
3000,note_on,12,0,4,,,,,,,,,3,,,51,92
3000,note_on,24,0,2,,,,,,,,,1,,,63,92
3048,note_on,48,0,4,,,,,,,,,3,,,51,0
3060,note_on,12,0,4,,,,,,,,,3,,,51,92
3096,note_on,96,0,2,,,,,,,,,1,,,63,0
3096,note_on,96,0,3,,,,,,,,,2,,,63,0
3096,note_on,96,0,1,,,,,,,,,0,,,63,0
3108,note_on,48,0,4,,,,,,,,,3,,,51,0
3120,note_on,24,0,3,,,,,,,,,2,,,75,92
3120,note_on,12,0,4,,,,,,,,,3,,,51,92
3120,note_on,24,0,2,,,,,,,,,1,,,79,92
3120,note_on,24,0,1,,,,,,,,,0,,,79,92
3168,note_on,48,0,2,,,,,,,,,1,,,79,0
3168,note_on,48,0,1,,,,,,,,,0,,,79,0
3168,note_on,48,0,3,,,,,,,,,2,,,75,0
3168,note_on,48,0,4,,,,,,,,,3,,,51,0
3180,note_on,12,0,2,,,,,,,,,1,,,80,92
3180,note_on,12,0,1,,,,,,,,,0,,,80,92
3180,note_on,12,0,3,,,,,,,,,2,,,77,92
3180,note_on,12,0,4,,,,,,,,,3,,,51,92
3228,note_on,48,0,4,,,,,,,,,3,,,51,0
3228,note_on,48,0,2,,,,,,,,,1,,,80,0
3228,note_on,48,0,1,,,,,,,,,0,,,80,0
3228,note_on,48,0,3,,,,,,,,,2,,,77,0
3240,note_on,12,0,2,,,,,,,,,1,,,82,92
3240,note_on,12,0,1,,,,,,,,,0,,,82,92
3240,note_on,12,0,3,,,,,,,,,2,,,79,92
3240,note_on,12,0,4,,,,,,,,,3,,,51,92
3288,note_on,48,0,1,,,,,,,,,0,,,82,0
3288,note_on,48,0,3,,,,,,,,,2,,,79,0
3288,note_on,48,0,4,,,,,,,,,3,,,51,0
3288,note_on,48,0,2,,,,,,,,,1,,,82,0
3300,note_on,12,0,1,,,,,,,,,0,,,79,92
3300,note_on,12,0,4,,,,,,,,,3,,,51,92
3300,note_on,12,0,2,,,,,,,,,1,,,79,92
3300,note_on,12,0,3,,,,,,,,,2,,,75,92
3348,note_on,48,0,2,,,,,,,,,1,,,79,0
3348,note_on,48,0,4,,,,,,,,,3,,,51,0
3348,note_on,48,0,1,,,,,,,,,0,,,79,0
3348,note_on,48,0,3,,,,,,,,,2,,,75,0
3360,note_on,12,0,4,,,,,,,,,3,,,58,92
3360,note_on,12,0,2,,,,,,,,,1,,,80,92
3360,note_on,12,0,3,,,,,,,,,2,,,77,92
3360,note_on,12,0,1,,,,,,,,,0,,,80,92
3408,note_on,48,0,3,,,,,,,,,2,,,77,0
3408,note_on,48,0,2,,,,,,,,,1,,,80,0
3408,note_on,48,0,4,,,,,,,,,3,,,58,0
3408,note_on,48,0,1,,,,,,,,,0,,,80,0
3420,note_on,12,0,2,,,,,,,,,1,,,79,92
3420,note_on,12,0,3,,,,,,,,,2,,,75,92
3420,note_on,12,0,4,,,,,,,,,3,,,58,92
3420,note_on,12,0,1,,,,,,,,,0,,,79,92
3468,note_on,48,0,3,,,,,,,,,2,,,75,0
3468,note_on,48,0,4,,,,,,,,,3,,,58,0
3468,note_on,48,0,1,,,,,,,,,0,,,79,0
3468,note_on,48,0,2,,,,,,,,,1,,,79,0
3480,note_on,12,0,2,,,,,,,,,1,,,77,92
3480,note_on,12,0,1,,,,,,,,,0,,,77,92
3480,note_on,12,0,4,,,,,,,,,3,,,58,92
3480,note_on,12,0,3,,,,,,,,,2,,,74,92
3528,note_on,48,0,4,,,,,,,,,3,,,58,0
3528,note_on,48,0,1,,,,,,,,,0,,,77,0
3528,note_on,48,0,2,,,,,,,,,1,,,77,0
3528,note_on,48,0,3,,,,,,,,,2,,,74,0
3540,note_on,12,0,4,,,,,,,,,3,,,58,92
3540,note_on,12,0,1,,,,,,,,,0,,,75,92
3540,note_on,12,0,2,,,,,,,,,1,,,75,92
3540,note_on,12,0,3,,,,,,,,,2,,,72,92
3588,note_on,48,0,2,,,,,,,,,1,,,75,0
3588,note_on,48,0,4,,,,,,,,,3,,,58,0
3588,note_on,48,0,1,,,,,,,,,0,,,75,0
3588,note_on,48,0,3,,,,,,,,,2,,,72,0
3600,note_on,12,0,3,,,,,,,,,2,,,70,92
3600,note_on,12,0,4,,,,,,,,,3,,,58,92
3600,note_on,12,0,2,,,,,,,,,1,,,74,92
3600,note_on,12,0,1,,,,,,,,,0,,,74,92
3648,note_on,48,0,3,,,,,,,,,2,,,70,0
3648,note_on,48,0,1,,,,,,,,,0,,,74,0
3648,note_on,48,0,4,,,,,,,,,3,,,58,0
3648,note_on,48,0,2,,,,,,,,,1,,,74,0
3660,note_on,12,0,1,,,,,,,,,0,,,72,92
3660,note_on,12,0,4,,,,,,,,,3,,,58,92
3660,note_on,12,0,2,,,,,,,,,1,,,72,92
3660,note_on,12,0,3,,,,,,,,,2,,,68,92
3708,note_on,48,0,3,,,,,,,,,2,,,68,0
3708,note_on,48,0,1,,,,,,,,,0,,,72,0
3708,note_on,48,0,4,,,,,,,,,3,,,58,0
3708,note_on,48,0,2,,,,,,,,,1,,,72,0
3720,note_on,12,0,2,,,,,,,,,1,,,70,92
3720,note_on,12,0,1,,,,,,,,,0,,,70,92
3720,note_on,12,0,4,,,,,,,,,3,,,58,92
3720,note_on,12,0,3,,,,,,,,,2,,,67,92
3768,note_on,48,0,2,,,,,,,,,1,,,70,0
3768,note_on,48,0,1,,,,,,,,,0,,,70,0
3768,note_on,48,0,4,,,,,,,,,3,,,58,0
3768,note_on,48,0,3,,,,,,,,,2,,,67,0
3780,note_on,12,0,1,,,,,,,,,0,,,68,92
3780,note_on,12,0,4,,,,,,,,,3,,,58,92
3780,note_on,12,0,2,,,,,,,,,1,,,68,92
3780,note_on,12,0,3,,,,,,,,,2,,,65,92
3828,note_on,48,0,1,,,,,,,,,0,,,68,0
3828,note_on,48,0,2,,,,,,,,,1,,,68,0
3828,note_on,48,0,4,,,,,,,,,3,,,58,0
3828,note_on,48,0,3,,,,,,,,,2,,,65,0
3840,note_on,12,0,3,,,,,,,,,2,,,67,92
3840,note_on,12,0,4,,,,,,,,,3,,,63,92
3840,note_on,12,0,1,,,,,,,,,0,,,70,92
3840,note_on,12,0,2,,,,,,,,,1,,,70,92
3840,note_on,3840,0,5,,,,,,,,,4,,,39,92
3888,note_on,48,0,5,,,,,,,,,4,,,39,0
3900,note_on,12,0,5,,,,,,,,,4,,,39,92
3936,note_on,96,0,3,,,,,,,,,2,,,67,0
3936,note_on,96,0,1,,,,,,,,,0,,,70,0
3936,note_on,96,0,2,,,,,,,,,1,,,70,0
3936,note_on,96,0,4,,,,,,,,,3,,,63,0
3948,note_on,48,0,5,,,,,,,,,4,,,39,0
3960,note_on,24,0,2,,,,,,,,,1,,,67,92
3960,note_on,24,0,4,,,,,,,,,3,,,51,92
3960,note_on,24,0,1,,,,,,,,,0,,,67,92
3960,note_on,24,0,3,,,,,,,,,2,,,63,92
3960,note_on,12,0,5,,,,,,,,,4,,,39,92
4008,note_on,48,0,5,,,,,,,,,4,,,39,0
4020,note_on,12,0,5,,,,,,,,,4,,,39,92
4056,note_on,96,0,1,,,,,,,,,0,,,67,0
4056,note_on,96,0,2,,,,,,,,,1,,,67,0
4056,note_on,96,0,4,,,,,,,,,3,,,51,0
4056,note_on,96,0,3,,,,,,,,,2,,,63,0
4068,note_on,48,0,5,,,,,,,,,4,,,39,0
4080,note_on,24,0,2,,,,,,,,,1,,,70,92
4080,note_on,24,0,3,,,,,,,,,2,,,79,92
4080,note_on,24,0,4,,,,,,,,,3,,,63,92
4080,note_on,24,0,1,,,,,,,,,0,,,70,92
4080,note_on,12,0,5,,,,,,,,,4,,,39,92
4128,note_on,48,0,5,,,,,,,,,4,,,39,0
4128,note_on,48,0,4,,,,,,,,,3,,,63,0
4128,note_on,48,0,3,,,,,,,,,2,,,79,0
4140,note_on,12,0,4,,,,,,,,,3,,,65,92
4140,note_on,12,0,5,,,,,,,,,4,,,39,92
4140,note_on,12,0,3,,,,,,,,,2,,,80,92
4176,note_on,96,0,1,,,,,,,,,0,,,70,0
4176,note_on,96,0,2,,,,,,,,,1,,,70,0
4188,note_on,48,0,5,,,,,,,,,4,,,39,0
4188,note_on,48,0,4,,,,,,,,,3,,,65,0
4188,note_on,48,0,3,,,,,,,,,2,,,80,0
4200,note_on,24,0,1,,,,,,,,,0,,,75,92
4200,note_on,24,0,2,,,,,,,,,1,,,75,92
4200,note_on,12,0,4,,,,,,,,,3,,,67,92
4200,note_on,12,0,3,,,,,,,,,2,,,82,92
4200,note_on,12,0,5,,,,,,,,,4,,,39,92
4248,note_on,48,0,5,,,,,,,,,4,,,39,0
4248,note_on,48,0,3,,,,,,,,,2,,,82,0
4248,note_on,48,0,4,,,,,,,,,3,,,67,0
4260,note_on,12,0,4,,,,,,,,,3,,,63,92
4260,note_on,12,0,3,,,,,,,,,2,,,79,92
4260,note_on,12,0,5,,,,,,,,,4,,,39,92
4296,note_on,96,0,1,,,,,,,,,0,,,75,0
4296,note_on,96,0,2,,,,,,,,,1,,,75,0
4308,note_on,48,0,4,,,,,,,,,3,,,63,0
4308,note_on,48,0,3,,,,,,,,,2,,,79,0
4308,note_on,48,0,5,,,,,,,,,4,,,39,0
4320,note_on,12,0,4,,,,,,,,,3,,,65,92
4320,note_on,24,0,1,,,,,,,,,0,,,74,92
4320,note_on,12,0,5,,,,,,,,,4,,,46,92
4320,note_on,24,0,2,,,,,,,,,1,,,74,92
4320,note_on,12,0,3,,,,,,,,,2,,,80,92
4368,note_on,48,0,5,,,,,,,,,4,,,46,0
4368,note_on,48,0,2,,,,,,,,,1,,,74,0
4368,note_on,48,0,4,,,,,,,,,3,,,65,0
4368,note_on,48,0,3,,,,,,,,,2,,,80,0
4368,note_on,48,0,1,,,,,,,,,0,,,74,0
4380,note_on,12,0,3,,,,,,,,,2,,,79,92
4380,note_on,12,0,5,,,,,,,,,4,,,46,92
4380,note_on,12,0,1,,,,,,,,,0,,,74,92
4380,note_on,12,0,4,,,,,,,,,3,,,63,92
4380,note_on,12,0,2,,,,,,,,,1,,,74,92
4428,note_on,48,0,4,,,,,,,,,3,,,63,0
4428,note_on,48,0,3,,,,,,,,,2,,,79,0
4428,note_on,48,0,1,,,,,,,,,0,,,74,0
4428,note_on,48,0,5,,,,,,,,,4,,,46,0
4428,note_on,48,0,2,,,,,,,,,1,,,74,0
4440,note_on,12,0,2,,,,,,,,,1,,,74,92
4440,note_on,12,0,5,,,,,,,,,4,,,46,92
4440,note_on,12,0,4,,,,,,,,,3,,,62,92
4440,note_on,12,0,3,,,,,,,,,2,,,77,92
4440,note_on,12,0,1,,,,,,,,,0,,,74,92
4488,note_on,48,0,3,,,,,,,,,2,,,77,0
4488,note_on,48,0,2,,,,,,,,,1,,,74,0
4488,note_on,48,0,4,,,,,,,,,3,,,62,0
4488,note_on,48,0,1,,,,,,,,,0,,,74,0
4488,note_on,48,0,5,,,,,,,,,4,,,46,0
4500,note_on,12,0,4,,,,,,,,,3,,,60,92
4500,note_on,12,0,5,,,,,,,,,4,,,46,92
4500,note_on,12,0,2,,,,,,,,,1,,,74,92
4500,note_on,12,0,3,,,,,,,,,2,,,75,92
4500,note_on,12,0,1,,,,,,,,,0,,,74,92
4548,note_on,48,0,4,,,,,,,,,3,,,60,0
4548,note_on,48,0,2,,,,,,,,,1,,,74,0
4548,note_on,48,0,3,,,,,,,,,2,,,75,0
4548,note_on,48,0,5,,,,,,,,,4,,,46,0
4548,note_on,48,0,1,,,,,,,,,0,,,74,0
4560,note_on,12,0,4,,,,,,,,,3,,,58,92
4560,note_on,12,0,3,,,,,,,,,2,,,74,92
4560,note_on,12,0,2,,,,,,,,,1,,,74,92
4560,note_on,12,0,5,,,,,,,,,4,,,46,92
4560,note_on,12,0,1,,,,,,,,,0,,,74,92
4608,note_on,48,0,2,,,,,,,,,1,,,74,0
4608,note_on,48,0,5,,,,,,,,,4,,,46,0
4608,note_on,48,0,3,,,,,,,,,2,,,74,0
4608,note_on,48,0,1,,,,,,,,,0,,,74,0
4608,note_on,48,0,4,,,,,,,,,3,,,58,0
4620,note_on,12,0,3,,,,,,,,,2,,,72,92
4620,note_on,12,0,1,,,,,,,,,0,,,74,92
4620,note_on,12,0,5,,,,,,,,,4,,,46,92
4620,note_on,12,0,4,,,,,,,,,3,,,56,92
4620,note_on,12,0,2,,,,,,,,,1,,,74,92
4668,note_on,48,0,4,,,,,,,,,3,,,56,0
4668,note_on,48,0,5,,,,,,,,,4,,,46,0
4668,note_on,48,0,2,,,,,,,,,1,,,74,0
4668,note_on,48,0,1,,,,,,,,,0,,,74,0
4668,note_on,48,0,3,,,,,,,,,2,,,72,0
4680,note_on,12,0,4,,,,,,,,,3,,,55,92
4680,note_on,12,0,5,,,,,,,,,4,,,46,92
4680,note_on,12,0,3,,,,,,,,,2,,,70,92
4680,note_on,12,0,2,,,,,,,,,1,,,74,92
4680,note_on,12,0,1,,,,,,,,,0,,,74,92
4728,note_on,48,0,2,,,,,,,,,1,,,74,0
4728,note_on,48,0,3,,,,,,,,,2,,,70,0
4728,note_on,48,0,5,,,,,,,,,4,,,46,0
4728,note_on,48,0,4,,,,,,,,,3,,,55,0
4728,note_on,48,0,1,,,,,,,,,0,,,74,0
4740,note_on,12,0,5,,,,,,,,,4,,,46,92
4740,note_on,12,0,4,,,,,,,,,3,,,53,92
4740,note_on,12,0,3,,,,,,,,,2,,,68,92
4740,note_on,12,0,2,,,,,,,,,1,,,74,92
4740,note_on,12,0,1,,,,,,,,,0,,,74,92
4788,note_on,48,0,4,,,,,,,,,3,,,53,0
4788,note_on,48,0,3,,,,,,,,,2,,,68,0
4788,note_on,48,0,2,,,,,,,,,1,,,74,0
4788,note_on,48,0,5,,,,,,,,,4,,,46,0
4788,note_on,48,0,1,,,,,,,,,0,,,74,0
4800,note_on,12,0,5,,,,,,,,,4,,,51,92
4800,note_on,12,0,2,,,,,,,,,1,,,75,92
4800,note_on,12,0,3,,,,,,,,,2,,,70,92
4800,note_on,12,0,1,,,,,,,,,0,,,75,92
4800,note_on,12,0,4,,,,,,,,,3,,,55,92
4848,note_on,48,0,2,,,,,,,,,1,,,75,0
4848,note_on,48,0,1,,,,,,,,,0,,,75,0
4860,note_on,12,0,1,,,,,,,,,0,,,82,92
4860,note_on,12,0,2,,,,,,,,,1,,,82,92
4896,note_on,96,0,3,,,,,,,,,2,,,70,0
4896,note_on,96,0,4,,,,,,,,,3,,,55,0
4896,note_on,96,0,5,,,,,,,,,4,,,51,0
4908,note_on,48,0,2,,,,,,,,,1,,,82,0
4908,note_on,48,0,1,,,,,,,,,0,,,82,0
4920,note_on,24,0,3,,,,,,,,,2,,,67,92
4920,note_on,24,0,4,,,,,,,,,3,,,51,92
4920,note_on,24,0,5,,,,,,,,,4,,,39,92
4920,note_on,12,0,2,,,,,,,,,1,,,82,92
4920,note_on,12,0,1,,,,,,,,,0,,,82,92
4968,note_on,48,0,2,,,,,,,,,1,,,82,0
4968,note_on,48,0,1,,,,,,,,,0,,,82,0
4980,note_on,12,0,1,,,,,,,,,0,,,82,92
4980,note_on,12,0,2,,,,,,,,,1,,,82,92
5016,note_on,96,0,3,,,,,,,,,2,,,67,0
5016,note_on,96,0,5,,,,,,,,,4,,,39,0
5016,note_on,96,0,4,,,,,,,,,3,,,51,0
5028,note_on,48,0,2,,,,,,,,,1,,,82,0
5028,note_on,48,0,1,,,,,,,,,0,,,82,0
5040,note_on,12,0,2,,,,,,,,,1,,,82,92
5040,note_on,12,0,1,,,,,,,,,0,,,82,92
5088,note_on,48,0,1,,,,,,,,,0,,,82,0
5088,note_on,48,0,2,,,,,,,,,1,,,82,0
5100,note_on,12,0,1,,,,,,,,,0,,,82,92
5100,note_on,12,0,2,,,,,,,,,1,,,82,92
5148,note_on,48,0,1,,,,,,,,,0,,,82,0
5148,note_on,48,0,2,,,,,,,,,1,,,82,0
5160,note_on,12,0,1,,,,,,,,,0,,,82,92
5160,note_on,12,0,2,,,,,,,,,1,,,82,92
5208,note_on,48,0,2,,,,,,,,,1,,,82,0
5208,note_on,48,0,1,,,,,,,,,0,,,82,0
5220,note_on,12,0,2,,,,,,,,,1,,,82,92
5220,note_on,12,0,1,,,,,,,,,0,,,82,92
5268,note_on,48,0,2,,,,,,,,,1,,,82,0
5268,note_on,48,0,1,,,,,,,,,0,,,82,0
5280,note_on,12,0,2,,,,,,,,,1,,,72,92
5280,note_on,12,0,1,,,,,,,,,0,,,72,92
5280,note_on,264,0,5,,,,,,,,,4,,,51,92
5280,note_on,264,0,3,,,,,,,,,2,,,79,92
5280,note_on,264,0,4,,,,,,,,,3,,,63,92
5328,note_on,48,0,3,,,,,,,,,2,,,79,0
5328,note_on,48,0,5,,,,,,,,,4,,,51,0
5328,note_on,48,0,1,,,,,,,,,0,,,72,0
5328,note_on,48,0,4,,,,,,,,,3,,,63,0
5328,note_on,48,0,2,,,,,,,,,1,,,72,0
5340,note_on,12,0,3,,,,,,,,,2,,,80,92
5340,note_on,12,0,1,,,,,,,,,0,,,72,92
5340,note_on,12,0,5,,,,,,,,,4,,,51,92
5340,note_on,12,0,4,,,,,,,,,3,,,63,92
5340,note_on,12,0,2,,,,,,,,,1,,,72,92
5388,note_on,48,0,1,,,,,,,,,0,,,72,0
5388,note_on,48,0,5,,,,,,,,,4,,,51,0
5388,note_on,48,0,2,,,,,,,,,1,,,72,0
5388,note_on,48,0,4,,,,,,,,,3,,,63,0
5388,note_on,48,0,3,,,,,,,,,2,,,80,0
5400,note_on,12,0,2,,,,,,,,,1,,,72,92
5400,note_on,12,0,5,,,,,,,,,4,,,51,92
5400,note_on,12,0,4,,,,,,,,,3,,,63,92
5400,note_on,12,0,1,,,,,,,,,0,,,72,92
5400,note_on,12,0,3,,,,,,,,,2,,,82,92
5448,note_on,48,0,5,,,,,,,,,4,,,51,0
5448,note_on,48,0,4,,,,,,,,,3,,,63,0
5448,note_on,48,0,2,,,,,,,,,1,,,72,0
5448,note_on,48,0,3,,,,,,,,,2,,,82,0
5448,note_on,48,0,1,,,,,,,,,0,,,72,0
5460,note_on,12,0,4,,,,,,,,,3,,,63,92
5460,note_on,12,0,3,,,,,,,,,2,,,80,92
5460,note_on,12,0,5,,,,,,,,,4,,,51,92
5460,note_on,12,0,2,,,,,,,,,1,,,72,92
5460,note_on,12,0,1,,,,,,,,,0,,,72,92
5508,note_on,48,0,2,,,,,,,,,1,,,72,0
5508,note_on,48,0,4,,,,,,,,,3,,,63,0
5508,note_on,48,0,1,,,,,,,,,0,,,72,0
5508,note_on,48,0,5,,,,,,,,,4,,,51,0
5508,note_on,48,0,3,,,,,,,,,2,,,80,0
5520,note_on,12,0,4,,,,,,,,,3,,,63,92
5520,note_on,12,0,1,,,,,,,,,0,,,72,92
5520,note_on,12,0,2,,,,,,,,,1,,,72,92
5520,note_on,12,0,3,,,,,,,,,2,,,79,92
5520,note_on,12,0,5,,,,,,,,,4,,,51,92
5568,note_on,48,0,2,,,,,,,,,1,,,72,0
5568,note_on,48,0,4,,,,,,,,,3,,,63,0
5568,note_on,48,0,1,,,,,,,,,0,,,72,0
5568,note_on,48,0,3,,,,,,,,,2,,,79,0
5568,note_on,48,0,5,,,,,,,,,4,,,51,0
5580,note_on,12,0,1,,,,,,,,,0,,,72,92
5580,note_on,12,0,4,,,,,,,,,3,,,63,92
5580,note_on,12,0,3,,,,,,,,,2,,,77,92
5580,note_on,12,0,2,,,,,,,,,1,,,72,92
5580,note_on,12,0,5,,,,,,,,,4,,,51,92
5628,note_on,48,0,3,,,,,,,,,2,,,77,0
5628,note_on,48,0,4,,,,,,,,,3,,,63,0
5628,note_on,48,0,1,,,,,,,,,0,,,72,0
5628,note_on,48,0,2,,,,,,,,,1,,,72,0
5628,note_on,48,0,5,,,,,,,,,4,,,51,0
5640,note_on,12,0,3,,,,,,,,,2,,,75,92
5640,note_on,12,0,5,,,,,,,,,4,,,51,92
5640,note_on,12,0,2,,,,,,,,,1,,,72,92
5640,note_on,12,0,1,,,,,,,,,0,,,72,92
5640,note_on,12,0,4,,,,,,,,,3,,,67,92
5688,note_on,48,0,1,,,,,,,,,0,,,72,0
5688,note_on,48,0,3,,,,,,,,,2,,,75,0
5688,note_on,48,0,5,,,,,,,,,4,,,51,0
5688,note_on,48,0,4,,,,,,,,,3,,,67,0
5688,note_on,48,0,2,,,,,,,,,1,,,72,0
5700,note_on,12,0,1,,,,,,,,,0,,,72,92
5700,note_on,12,0,2,,,,,,,,,1,,,72,92
5700,note_on,12,0,4,,,,,,,,,3,,,67,92
5700,note_on,12,0,3,,,,,,,,,2,,,74,92
5700,note_on,12,0,5,,,,,,,,,4,,,51,92
5748,note_on,48,0,3,,,,,,,,,2,,,74,0
5748,note_on,48,0,2,,,,,,,,,1,,,72,0
5748,note_on,48,0,1,,,,,,,,,0,,,72,0
5748,note_on,48,0,5,,,,,,,,,4,,,51,0
5748,note_on,48,0,4,,,,,,,,,3,,,67,0
5760,note_on,12,0,5,,,,,,,,,4,,,53,92
5760,note_on,12,0,3,,,,,,,,,2,,,72,92
5760,note_on,12,0,2,,,,,,,,,1,,,80,92
5760,note_on,12,0,4,,,,,,,,,3,,,68,92
5760,note_on,12,0,1,,,,,,,,,0,,,80,92
5808,note_on,48,0,1,,,,,,,,,0,,,80,0
5808,note_on,48,0,2,,,,,,,,,1,,,80,0
5820,note_on,12,0,2,,,,,,,,,1,,,80,92
5820,note_on,12,0,1,,,,,,,,,0,,,80,92
5868,note_on,48,0,2,,,,,,,,,1,,,80,0
5868,note_on,48,0,1,,,,,,,,,0,,,80,0
5880,note_on,12,0,1,,,,,,,,,0,,,80,92
5880,note_on,12,0,2,,,,,,,,,1,,,80,92
5928,note_on,48,0,2,,,,,,,,,1,,,80,0
5928,note_on,48,0,1,,,,,,,,,0,,,80,0
5940,note_on,12,0,1,,,,,,,,,0,,,80,92
5940,note_on,12,0,2,,,,,,,,,1,,,80,92
5952,note_on,192,0,3,,,,,,,,,2,,,72,0
5952,note_on,192,0,5,,,,,,,,,4,,,53,0
5952,note_on,192,0,4,,,,,,,,,3,,,68,0
5988,note_on,48,0,2,,,,,,,,,1,,,80,0
5988,note_on,48,0,1,,,,,,,,,0,,,80,0
6000,note_on,12,0,2,,,,,,,,,1,,,80,92
6000,note_on,12,0,1,,,,,,,,,0,,,80,92
6048,note_on,48,0,2,,,,,,,,,1,,,80,0
6048,note_on,48,0,1,,,,,,,,,0,,,80,0
6060,note_on,0,0,2,,,,,,,,,1,,,80,92
6060,note_on,12,0,1,,,,,,,,,0,,,80,92
6060,note_on,0,0,1,,,,,,,,,0,,,80,92
6060,note_on,0,0,1,,,,,,,,,0,,,80,92
6060,note_on,12,0,2,,,,,,,,,1,,,80,92
6060,note_on,0,0,2,,,,,,,,,1,,,80,92
6108,note_on,0,0,2,,,,,,,,,1,,,80,0
6108,note_on,0,0,1,,,,,,,,,0,,,80,0
6108,note_on,0,0,1,,,,,,,,,0,,,80,0
6108,note_on,48,0,1,,,,,,,,,0,,,80,0
6108,note_on,48,0,2,,,,,,,,,1,,,80,0
6108,note_on,0,0,2,,,,,,,,,1,,,80,0
6120,note_on,12,0,2,,,,,,,,,1,,,80,92
6120,note_on,12,0,1,,,,,,,,,0,,,80,92
6168,note_on,48,0,2,,,,,,,,,1,,,80,0
6168,note_on,48,0,1,,,,,,,,,0,,,80,0
6180,note_on,12,0,2,,,,,,,,,1,,,80,92
6180,note_on,12,0,1,,,,,,,,,0,,,80,92
6228,note_on,48,0,1,,,,,,,,,0,,,80,0
6228,note_on,48,0,2,,,,,,,,,1,,,80,0
6240,note_on,12,0,1,,,,,,,,,0,,,70,92
6240,note_on,12,0,2,,,,,,,,,1,,,70,92
6240,note_on,288,0,3,,,,,,,,,2,,,77,92
6240,note_on,288,0,5,,,,,,,,,4,,,50,92
6240,note_on,288,0,4,,,,,,,,,3,,,62,92
6288,note_on,48,0,3,,,,,,,,,2,,,77,0
6288,note_on,48,0,2,,,,,,,,,1,,,70,0
6288,note_on,48,0,5,,,,,,,,,4,,,50,0
6288,note_on,48,0,4,,,,,,,,,3,,,62,0
6288,note_on,48,0,1,,,,,,,,,0,,,70,0
6300,note_on,12,0,4,,,,,,,,,3,,,62,92
6300,note_on,12,0,5,,,,,,,,,4,,,50,92
6300,note_on,12,0,3,,,,,,,,,2,,,79,92
6300,note_on,12,0,1,,,,,,,,,0,,,70,92
6300,note_on,12,0,2,,,,,,,,,1,,,70,92
6348,note_on,48,0,4,,,,,,,,,3,,,62,0
6348,note_on,48,0,3,,,,,,,,,2,,,79,0
6348,note_on,48,0,1,,,,,,,,,0,,,70,0
6348,note_on,48,0,5,,,,,,,,,4,,,50,0
6348,note_on,48,0,2,,,,,,,,,1,,,70,0
6360,note_on,12,0,2,,,,,,,,,1,,,70,92
6360,note_on,12,0,1,,,,,,,,,0,,,70,92
6360,note_on,12,0,3,,,,,,,,,2,,,80,92
6360,note_on,12,0,4,,,,,,,,,3,,,62,92
6360,note_on,12,0,5,,,,,,,,,4,,,50,92
6408,note_on,48,0,5,,,,,,,,,4,,,50,0
6408,note_on,48,0,3,,,,,,,,,2,,,80,0
6408,note_on,48,0,1,,,,,,,,,0,,,70,0
6408,note_on,48,0,2,,,,,,,,,1,,,70,0
6408,note_on,48,0,4,,,,,,,,,3,,,62,0
6420,note_on,12,0,5,,,,,,,,,4,,,50,92
6420,note_on,12,0,3,,,,,,,,,2,,,79,92
6420,note_on,12,0,1,,,,,,,,,0,,,70,92
6420,note_on,12,0,2,,,,,,,,,1,,,70,92
6420,note_on,12,0,4,,,,,,,,,3,,,62,92
6468,note_on,48,0,1,,,,,,,,,0,,,70,0
6468,note_on,48,0,5,,,,,,,,,4,,,50,0
6468,note_on,48,0,2,,,,,,,,,1,,,70,0
6468,note_on,48,0,3,,,,,,,,,2,,,79,0
6468,note_on,48,0,4,,,,,,,,,3,,,62,0
6480,note_on,12,0,1,,,,,,,,,0,,,70,92
6480,note_on,12,0,2,,,,,,,,,1,,,70,92
6480,note_on,12,0,3,,,,,,,,,2,,,77,92
6480,note_on,12,0,5,,,,,,,,,4,,,50,92
6480,note_on,12,0,4,,,,,,,,,3,,,62,92
6528,note_on,48,0,3,,,,,,,,,2,,,77,0
6528,note_on,48,0,4,,,,,,,,,3,,,62,0
6528,note_on,48,0,5,,,,,,,,,4,,,50,0
6528,note_on,48,0,1,,,,,,,,,0,,,70,0
6528,note_on,48,0,2,,,,,,,,,1,,,70,0
6540,note_on,12,0,2,,,,,,,,,1,,,70,92
6540,note_on,12,0,1,,,,,,,,,0,,,70,92
6540,note_on,12,0,4,,,,,,,,,3,,,62,92
6540,note_on,12,0,5,,,,,,,,,4,,,50,92
6540,note_on,12,0,3,,,,,,,,,2,,,75,92
6588,note_on,48,0,5,,,,,,,,,4,,,50,0
6588,note_on,48,0,2,,,,,,,,,1,,,70,0
6588,note_on,48,0,1,,,,,,,,,0,,,70,0
6588,note_on,48,0,3,,,,,,,,,2,,,75,0
6588,note_on,48,0,4,,,,,,,,,3,,,62,0
6600,note_on,12,0,4,,,,,,,,,3,,,65,92
6600,note_on,12,0,5,,,,,,,,,4,,,50,92
6600,note_on,12,0,2,,,,,,,,,1,,,70,92
6600,note_on,12,0,1,,,,,,,,,0,,,70,92
6600,note_on,12,0,3,,,,,,,,,2,,,74,92
6648,note_on,48,0,3,,,,,,,,,2,,,74,0
6648,note_on,48,0,2,,,,,,,,,1,,,70,0
6648,note_on,48,0,1,,,,,,,,,0,,,70,0
6648,note_on,48,0,4,,,,,,,,,3,,,65,0
6648,note_on,48,0,5,,,,,,,,,4,,,50,0
6660,note_on,12,0,4,,,,,,,,,3,,,65,92
6660,note_on,12,0,1,,,,,,,,,0,,,70,92
6660,note_on,12,0,3,,,,,,,,,2,,,72,92
6660,note_on,12,0,2,,,,,,,,,1,,,70,92
6660,note_on,12,0,5,,,,,,,,,4,,,50,92
6708,note_on,48,0,4,,,,,,,,,3,,,65,0
6708,note_on,48,0,5,,,,,,,,,4,,,50,0
6708,note_on,48,0,2,,,,,,,,,1,,,70,0
6708,note_on,48,0,1,,,,,,,,,0,,,70,0
6708,note_on,48,0,3,,,,,,,,,2,,,72,0
6720,note_on,12,0,3,,,,,,,,,2,,,70,92
6720,note_on,12,0,1,,,,,,,,,0,,,79,92
6720,note_on,12,0,2,,,,,,,,,1,,,79,92
6720,note_on,12,0,5,,,,,,,,,4,,,51,92
6720,note_on,12,0,4,,,,,,,,,3,,,67,92
6768,note_on,48,0,2,,,,,,,,,1,,,79,0
6768,note_on,48,0,1,,,,,,,,,0,,,79,0
6780,note_on,12,0,2,,,,,,,,,1,,,79,92
6780,note_on,12,0,1,,,,,,,,,0,,,79,92
6828,note_on,48,0,2,,,,,,,,,1,,,79,0
6828,note_on,48,0,1,,,,,,,,,0,,,79,0
6840,note_on,12,0,1,,,,,,,,,0,,,79,92
6840,note_on,12,0,2,,,,,,,,,1,,,79,92
6888,note_on,48,0,1,,,,,,,,,0,,,79,0
6888,note_on,48,0,2,,,,,,,,,1,,,79,0
6900,note_on,12,0,2,,,,,,,,,1,,,79,92
6900,note_on,12,0,1,,,,,,,,,0,,,79,92
6912,note_on,192,0,3,,,,,,,,,2,,,70,0
6912,note_on,192,0,5,,,,,,,,,4,,,51,0
6912,note_on,192,0,4,,,,,,,,,3,,,67,0
6948,note_on,48,0,2,,,,,,,,,1,,,79,0
6948,note_on,48,0,1,,,,,,,,,0,,,79,0
6960,note_on,48,0,3,,,,,,,,,2,,,75,92
6960,note_on,12,0,1,,,,,,,,,0,,,79,92
6960,note_on,12,0,2,,,,,,,,,1,,,79,92
7008,note_on,48,0,3,,,,,,,,,2,,,75,0
7008,note_on,48,0,1,,,,,,,,,0,,,79,0
7008,note_on,48,0,2,,,,,,,,,1,,,79,0
7020,note_on,12,0,1,,,,,,,,,0,,,79,92
7020,note_on,12,0,2,,,,,,,,,1,,,79,92
7020,note_on,12,0,3,,,,,,,,,2,,,75,92
7068,note_on,48,0,1,,,,,,,,,0,,,79,0
7068,note_on,48,0,3,,,,,,,,,2,,,75,0
7068,note_on,48,0,2,,,,,,,,,1,,,79,0
7080,note_on,12,0,1,,,,,,,,,0,,,79,92
7080,note_on,12,0,3,,,,,,,,,2,,,75,92
7080,note_on,12,0,2,,,,,,,,,1,,,79,92
7128,note_on,48,0,2,,,,,,,,,1,,,79,0
7128,note_on,48,0,3,,,,,,,,,2,,,75,0
7128,note_on,48,0,1,,,,,,,,,0,,,79,0
7140,note_on,12,0,2,,,,,,,,,1,,,79,92
7140,note_on,12,0,3,,,,,,,,,2,,,75,92
7140,note_on,12,0,1,,,,,,,,,0,,,79,92
7188,note_on,48,0,3,,,,,,,,,2,,,75,0
7188,note_on,48,0,1,,,,,,,,,0,,,79,0
7188,note_on,48,0,2,,,,,,,,,1,,,79,0
7200,note_on,12,0,3,,,,,,,,,2,,,77,92
7200,note_on,12,0,1,,,,,,,,,0,,,80,92
7200,note_on,12,0,2,,,,,,,,,1,,,80,92
7200,note_on,288,0,4,,,,,,,,,3,,,62,92
7200,note_on,288,0,5,,,,,,,,,4,,,46,92
7248,note_on,48,0,1,,,,,,,,,0,,,80,0
7248,note_on,48,0,2,,,,,,,,,1,,,80,0
7248,note_on,48,0,3,,,,,,,,,2,,,77,0
7260,note_on,12,0,2,,,,,,,,,1,,,80,92
7260,note_on,12,0,3,,,,,,,,,2,,,77,92
7260,note_on,12,0,1,,,,,,,,,0,,,80,92
7296,note_on,96,0,4,,,,,,,,,3,,,62,0
7296,note_on,96,0,5,,,,,,,,,4,,,46,0
7308,note_on,48,0,3,,,,,,,,,2,,,77,0
7308,note_on,48,0,1,,,,,,,,,0,,,80,0
7308,note_on,48,0,2,,,,,,,,,1,,,80,0
7320,note_on,12,0,3,,,,,,,,,2,,,77,92
7320,note_on,24,0,5,,,,,,,,,4,,,48,92
7320,note_on,12,0,1,,,,,,,,,0,,,80,92
7320,note_on,24,0,4,,,,,,,,,3,,,63,92
7320,note_on,12,0,2,,,,,,,,,1,,,80,92
7368,note_on,48,0,3,,,,,,,,,2,,,77,0
7368,note_on,48,0,1,,,,,,,,,0,,,80,0
7368,note_on,48,0,2,,,,,,,,,1,,,80,0
7368,note_on,48,0,5,,,,,,,,,4,,,48,0
7368,note_on,48,0,4,,,,,,,,,3,,,63,0
7380,note_on,12,0,1,,,,,,,,,0,,,80,92
7380,note_on,12,0,5,,,,,,,,,4,,,50,92
7380,note_on,12,0,4,,,,,,,,,3,,,65,92
7380,note_on,12,0,2,,,,,,,,,1,,,80,92
7380,note_on,12,0,3,,,,,,,,,2,,,77,92
7428,note_on,48,0,3,,,,,,,,,2,,,77,0
7428,note_on,48,0,2,,,,,,,,,1,,,80,0
7428,note_on,48,0,1,,,,,,,,,0,,,80,0
7428,note_on,48,0,5,,,,,,,,,4,,,50,0
7428,note_on,48,0,4,,,,,,,,,3,,,65,0
7440,note_on,12,0,5,,,,,,,,,4,,,51,92
7440,note_on,12,0,1,,,,,,,,,0,,,79,92
7440,note_on,12,0,4,,,,,,,,,3,,,67,92
7440,note_on,12,0,2,,,,,,,,,1,,,79,92
7440,note_on,12,0,3,,,,,,,,,2,,,75,92
7488,note_on,48,0,3,,,,,,,,,2,,,75,0
7488,note_on,48,0,4,,,,,,,,,3,,,67,0
7488,note_on,48,0,5,,,,,,,,,4,,,51,0
7488,note_on,48,0,2,,,,,,,,,1,,,79,0
7488,note_on,48,0,1,,,,,,,,,0,,,79,0
7500,note_on,12,0,4,,,,,,,,,3,,,68,92
7500,note_on,12,0,5,,,,,,,,,4,,,53,92
7500,note_on,12,0,2,,,,,,,,,1,,,79,92
7500,note_on,12,0,3,,,,,,,,,2,,,75,92
7500,note_on,12,0,1,,,,,,,,,0,,,79,92
7548,note_on,48,0,1,,,,,,,,,0,,,79,0
7548,note_on,48,0,2,,,,,,,,,1,,,79,0
7548,note_on,48,0,5,,,,,,,,,4,,,53,0
7548,note_on,48,0,4,,,,,,,,,3,,,68,0
7548,note_on,48,0,3,,,,,,,,,2,,,75,0
7560,note_on,12,0,2,,,,,,,,,1,,,79,92
7560,note_on,12,0,4,,,,,,,,,3,,,70,92
7560,note_on,12,0,3,,,,,,,,,2,,,75,92
7560,note_on,12,0,5,,,,,,,,,4,,,55,92
7560,note_on,12,0,1,,,,,,,,,0,,,79,92
7608,note_on,48,0,3,,,,,,,,,2,,,75,0
7608,note_on,48,0,5,,,,,,,,,4,,,55,0
7608,note_on,48,0,2,,,,,,,,,1,,,79,0
7608,note_on,48,0,4,,,,,,,,,3,,,70,0
7608,note_on,48,0,1,,,,,,,,,0,,,79,0
7620,note_on,12,0,5,,,,,,,,,4,,,56,92
7620,note_on,12,0,2,,,,,,,,,1,,,79,92
7620,note_on,12,0,3,,,,,,,,,2,,,75,92
7620,note_on,12,0,1,,,,,,,,,0,,,79,92
7620,note_on,12,0,4,,,,,,,,,3,,,72,92
7668,note_on,48,0,2,,,,,,,,,1,,,79,0
7668,note_on,48,0,3,,,,,,,,,2,,,75,0
7668,note_on,48,0,5,,,,,,,,,4,,,56,0
7668,note_on,48,0,1,,,,,,,,,0,,,79,0
7668,note_on,48,0,4,,,,,,,,,3,,,72,0
7680,note_on,12,0,4,,,,,,,,,3,,,65,92
7680,note_on,12,0,3,,,,,,,,,2,,,74,92
7680,note_on,12,0,1,,,,,,,,,0,,,77,92
7680,note_on,12,0,5,,,,,,,,,4,,,58,92
7680,note_on,12,0,2,,,,,,,,,1,,,77,92
7728,note_on,48,0,2,,,,,,,,,1,,,77,0
7728,note_on,48,0,3,,,,,,,,,2,,,74,0
7728,note_on,48,0,1,,,,,,,,,0,,,77,0
7740,note_on,12,0,2,,,,,,,,,1,,,77,92
7740,note_on,12,0,3,,,,,,,,,2,,,74,92
7740,note_on,12,0,1,,,,,,,,,0,,,77,92
7776,note_on,96,0,4,,,,,,,,,3,,,65,0
7776,note_on,96,0,5,,,,,,,,,4,,,58,0
7788,note_on,48,0,2,,,,,,,,,1,,,77,0
7788,note_on,48,0,1,,,,,,,,,0,,,77,0
7788,note_on,48,0,3,,,,,,,,,2,,,74,0
7800,note_on,24,0,5,,,,,,,,,4,,,46,92
7800,note_on,12,0,3,,,,,,,,,2,,,74,92
7800,note_on,12,0,2,,,,,,,,,1,,,77,92
7800,note_on,24,0,4,,,,,,,,,3,,,65,92
7800,note_on,12,0,1,,,,,,,,,0,,,77,92
7848,note_on,48,0,3,,,,,,,,,2,,,74,0
7848,note_on,48,0,2,,,,,,,,,1,,,77,0
7848,note_on,48,0,1,,,,,,,,,0,,,77,0
7860,note_on,12,0,3,,,,,,,,,2,,,74,92
7860,note_on,12,0,1,,,,,,,,,0,,,77,92
7860,note_on,12,0,2,,,,,,,,,1,,,77,92
7896,note_on,96,0,4,,,,,,,,,3,,,65,0
7896,note_on,96,0,5,,,,,,,,,4,,,46,0
7908,note_on,48,0,2,,,,,,,,,1,,,77,0
7908,note_on,48,0,1,,,,,,,,,0,,,77,0
7908,note_on,48,0,3,,,,,,,,,2,,,74,0
7920,note_on,24,0,4,,,,,,,,,3,,,63,92
7920,note_on,12,0,3,,,,,,,,,2,,,75,92
7920,note_on,24,0,5,,,,,,,,,4,,,46,92
7920,note_on,12,0,1,,,,,,,,,0,,,79,92
7920,note_on,12,0,2,,,,,,,,,1,,,79,92
7968,note_on,48,0,1,,,,,,,,,0,,,79,0
7968,note_on,48,0,3,,,,,,,,,2,,,75,0
7968,note_on,48,0,2,,,,,,,,,1,,,79,0
7980,note_on,12,0,2,,,,,,,,,1,,,79,92
7980,note_on,12,0,3,,,,,,,,,2,,,75,92
7980,note_on,12,0,1,,,,,,,,,0,,,79,92
8016,note_on,96,0,5,,,,,,,,,4,,,46,0
8016,note_on,96,0,4,,,,,,,,,3,,,63,0
8028,note_on,48,0,2,,,,,,,,,1,,,79,0
8028,note_on,48,0,1,,,,,,,,,0,,,79,0
8028,note_on,48,0,3,,,,,,,,,2,,,75,0
8040,note_on,12,0,3,,,,,,,,,2,,,75,92
8040,note_on,12,0,2,,,,,,,,,1,,,79,92
8040,note_on,12,0,1,,,,,,,,,0,,,79,92
8040,note_on,24,0,5,,,,,,,,,4,,,46,92
8040,note_on,24,0,4,,,,,,,,,3,,,63,92
8088,note_on,48,0,1,,,,,,,,,0,,,79,0
8088,note_on,48,0,3,,,,,,,,,2,,,75,0
8088,note_on,48,0,2,,,,,,,,,1,,,79,0
8100,note_on,12,0,3,,,,,,,,,2,,,75,92
8100,note_on,12,0,1,,,,,,,,,0,,,79,92
8100,note_on,12,0,2,,,,,,,,,1,,,79,92
8136,note_on,96,0,5,,,,,,,,,4,,,46,0
8136,note_on,96,0,4,,,,,,,,,3,,,63,0
8148,note_on,48,0,2,,,,,,,,,1,,,79,0
8148,note_on,48,0,3,,,,,,,,,2,,,75,0
8148,note_on,48,0,1,,,,,,,,,0,,,79,0
8160,note_on,12,0,3,,,,,,,,,2,,,77,92
8160,note_on,24,0,4,,,,,,,,,3,,,62,92
8160,note_on,12,0,1,,,,,,,,,0,,,80,92
8160,note_on,12,0,2,,,,,,,,,1,,,80,92
8160,note_on,24,0,5,,,,,,,,,4,,,46,92
8208,note_on,48,0,2,,,,,,,,,1,,,80,0
8208,note_on,48,0,1,,,,,,,,,0,,,80,0
8208,note_on,48,0,3,,,,,,,,,2,,,77,0
8220,note_on,12,0,1,,,,,,,,,0,,,80,92
8220,note_on,12,0,2,,,,,,,,,1,,,80,92
8220,note_on,12,0,3,,,,,,,,,2,,,77,92
8256,note_on,96,0,5,,,,,,,,,4,,,46,0
8256,note_on,96,0,4,,,,,,,,,3,,,62,0
8268,note_on,48,0,1,,,,,,,,,0,,,80,0
8268,note_on,48,0,3,,,,,,,,,2,,,77,0
8268,note_on,48,0,2,,,,,,,,,1,,,80,0
8280,note_on,12,0,2,,,,,,,,,1,,,80,92
8280,note_on,12,0,1,,,,,,,,,0,,,80,92
8280,note_on,24,0,5,,,,,,,,,4,,,48,92
8280,note_on,24,0,4,,,,,,,,,3,,,63,92
8280,note_on,12,0,3,,,,,,,,,2,,,77,92
8328,note_on,48,0,2,,,,,,,,,1,,,80,0
8328,note_on,48,0,3,,,,,,,,,2,,,77,0
8328,note_on,48,0,5,,,,,,,,,4,,,48,0
8328,note_on,48,0,1,,,,,,,,,0,,,80,0
8328,note_on,48,0,4,,,,,,,,,3,,,63,0
8340,note_on,12,0,2,,,,,,,,,1,,,80,92
8340,note_on,12,0,5,,,,,,,,,4,,,50,92
8340,note_on,12,0,3,,,,,,,,,2,,,77,92
8340,note_on,12,0,4,,,,,,,,,3,,,65,92
8340,note_on,12,0,1,,,,,,,,,0,,,80,92
8388,note_on,48,0,5,,,,,,,,,4,,,50,0
8388,note_on,48,0,2,,,,,,,,,1,,,80,0
8388,note_on,48,0,1,,,,,,,,,0,,,80,0
8388,note_on,48,0,4,,,,,,,,,3,,,65,0
8388,note_on,48,0,3,,,,,,,,,2,,,77,0
8400,note_on,12,0,1,,,,,,,,,0,,,79,92
8400,note_on,12,0,5,,,,,,,,,4,,,51,92
8400,note_on,12,0,2,,,,,,,,,1,,,79,92
8400,note_on,12,0,4,,,,,,,,,3,,,67,92
8400,note_on,12,0,3,,,,,,,,,2,,,75,92
8448,note_on,48,0,5,,,,,,,,,4,,,51,0
8448,note_on,48,0,4,,,,,,,,,3,,,67,0
8448,note_on,48,0,2,,,,,,,,,1,,,79,0
8448,note_on,48,0,1,,,,,,,,,0,,,79,0
8448,note_on,48,0,3,,,,,,,,,2,,,75,0
8460,note_on,0,0,1,,,,,,,,,0,,,79,92
8460,note_on,12,0,2,,,,,,,,,1,,,79,92
8460,note_on,0,0,2,,,,,,,,,1,,,79,92
8460,note_on,12,0,4,,,,,,,,,3,,,68,92
8460,note_on,12,0,5,,,,,,,,,4,,,53,92
8460,note_on,12,0,1,,,,,,,,,0,,,79,92
8460,note_on,12,0,3,,,,,,,,,2,,,75,92
8508,note_on,0,0,1,,,,,,,,,0,,,79,0
8508,note_on,48,0,4,,,,,,,,,3,,,68,0
8508,note_on,48,0,3,,,,,,,,,2,,,75,0
8508,note_on,48,0,2,,,,,,,,,1,,,79,0
8508,note_on,0,0,2,,,,,,,,,1,,,79,0
8508,note_on,48,0,5,,,,,,,,,4,,,53,0
8508,note_on,48,0,1,,,,,,,,,0,,,79,0
8520,note_on,12,0,2,,,,,,,,,1,,,79,92
8520,note_on,12,0,3,,,,,,,,,2,,,75,92
8520,note_on,12,0,4,,,,,,,,,3,,,70,92
8520,note_on,12,0,5,,,,,,,,,4,,,55,92
8520,note_on,12,0,1,,,,,,,,,0,,,79,92
8568,note_on,48,0,2,,,,,,,,,1,,,79,0
8568,note_on,48,0,5,,,,,,,,,4,,,55,0
8568,note_on,48,0,1,,,,,,,,,0,,,79,0
8568,note_on,48,0,3,,,,,,,,,2,,,75,0
8568,note_on,48,0,4,,,,,,,,,3,,,70,0
8580,note_on,12,0,2,,,,,,,,,1,,,79,92
8580,note_on,12,0,5,,,,,,,,,4,,,56,92
8580,note_on,12,0,4,,,,,,,,,3,,,72,92
8580,note_on,12,0,1,,,,,,,,,0,,,79,92
8580,note_on,12,0,3,,,,,,,,,2,,,75,92
8628,note_on,48,0,3,,,,,,,,,2,,,75,0
8628,note_on,48,0,5,,,,,,,,,4,,,56,0
8628,note_on,48,0,2,,,,,,,,,1,,,79,0
8628,note_on,48,0,4,,,,,,,,,3,,,72,0
8628,note_on,48,0,1,,,,,,,,,0,,,79,0
8640,note_on,12,0,2,,,,,,,,,1,,,77,92
8640,note_on,12,0,3,,,,,,,,,2,,,74,92
8640,note_on,12,0,4,,,,,,,,,3,,,65,92
8640,note_on,12,0,5,,,,,,,,,4,,,58,92
8640,note_on,12,0,1,,,,,,,,,0,,,77,92
8688,note_on,48,0,2,,,,,,,,,1,,,77,0
8688,note_on,48,0,3,,,,,,,,,2,,,74,0
8688,note_on,48,0,1,,,,,,,,,0,,,77,0
8700,note_on,12,0,1,,,,,,,,,0,,,77,92
8700,note_on,12,0,2,,,,,,,,,1,,,77,92
8700,note_on,12,0,3,,,,,,,,,2,,,74,92
8736,note_on,96,0,5,,,,,,,,,4,,,58,0
8736,note_on,96,0,4,,,,,,,,,3,,,65,0
8748,note_on,48,0,1,,,,,,,,,0,,,77,0
8748,note_on,48,0,2,,,,,,,,,1,,,77,0
8748,note_on,48,0,3,,,,,,,,,2,,,74,0
8760,note_on,12,0,1,,,,,,,,,0,,,77,92
8760,note_on,12,0,3,,,,,,,,,2,,,74,92
8760,note_on,24,0,5,,,,,,,,,4,,,46,92
8760,note_on,12,0,2,,,,,,,,,1,,,77,92
8760,note_on,24,0,4,,,,,,,,,3,,,65,92
8808,note_on,48,0,2,,,,,,,,,1,,,77,0
8808,note_on,48,0,1,,,,,,,,,0,,,77,0
8808,note_on,48,0,3,,,,,,,,,2,,,74,0
8820,note_on,12,0,2,,,,,,,,,1,,,77,92
8820,note_on,12,0,1,,,,,,,,,0,,,77,92
8820,note_on,12,0,3,,,,,,,,,2,,,74,92
8856,note_on,96,0,5,,,,,,,,,4,,,46,0
8856,note_on,96,0,4,,,,,,,,,3,,,65,0
8868,note_on,48,0,3,,,,,,,,,2,,,74,0
8868,note_on,48,0,2,,,,,,,,,1,,,77,0
8868,note_on,48,0,1,,,,,,,,,0,,,77,0
8880,note_on,12,0,3,,,,,,,,,2,,,75,92
8880,note_on,12,0,2,,,,,,,,,1,,,79,92
8880,note_on,12,0,1,,,,,,,,,0,,,79,92
8880,note_on,24,0,5,,,,,,,,,4,,,46,92
8880,note_on,24,0,4,,,,,,,,,3,,,63,92
8928,note_on,48,0,1,,,,,,,,,0,,,79,0
8928,note_on,48,0,2,,,,,,,,,1,,,79,0
8928,note_on,48,0,3,,,,,,,,,2,,,75,0
8940,note_on,12,0,1,,,,,,,,,0,,,79,92
8940,note_on,12,0,3,,,,,,,,,2,,,75,92
8940,note_on,12,0,2,,,,,,,,,1,,,79,92
8976,note_on,96,0,4,,,,,,,,,3,,,63,0
8976,note_on,96,0,5,,,,,,,,,4,,,46,0
8988,note_on,48,0,1,,,,,,,,,0,,,79,0
8988,note_on,48,0,3,,,,,,,,,2,,,75,0
8988,note_on,48,0,2,,,,,,,,,1,,,79,0
9000,note_on,24,0,5,,,,,,,,,4,,,46,92
9000,note_on,12,0,2,,,,,,,,,1,,,79,92
9000,note_on,24,0,4,,,,,,,,,3,,,63,92
9000,note_on,12,0,3,,,,,,,,,2,,,75,92
9000,note_on,12,0,1,,,,,,,,,0,,,79,92
9048,note_on,48,0,2,,,,,,,,,1,,,79,0
9048,note_on,48,0,1,,,,,,,,,0,,,79,0
9048,note_on,48,0,3,,,,,,,,,2,,,75,0
9060,note_on,12,0,2,,,,,,,,,1,,,79,92
9060,note_on,12,0,1,,,,,,,,,0,,,79,92
9060,note_on,12,0,3,,,,,,,,,2,,,75,92
9096,note_on,96,0,4,,,,,,,,,3,,,63,0
9096,note_on,96,0,5,,,,,,,,,4,,,46,0
9108,note_on,48,0,1,,,,,,,,,0,,,79,0
9108,note_on,48,0,2,,,,,,,,,1,,,79,0
9108,note_on,48,0,3,,,,,,,,,2,,,75,0
9120,note_on,24,0,4,,,,,,,,,3,,,62,92
9120,note_on,24,0,5,,,,,,,,,4,,,46,92
9120,note_on,12,0,2,,,,,,,,,1,,,80,92
9120,note_on,12,0,1,,,,,,,,,0,,,80,92
9120,note_on,12,0,3,,,,,,,,,2,,,77,92
9168,note_on,48,0,3,,,,,,,,,2,,,77,0
9168,note_on,48,0,2,,,,,,,,,1,,,80,0
9168,note_on,48,0,1,,,,,,,,,0,,,80,0
9180,note_on,12,0,1,,,,,,,,,0,,,80,92
9180,note_on,12,0,2,,,,,,,,,1,,,80,92
9180,note_on,12,0,3,,,,,,,,,2,,,77,92
9216,note_on,96,0,4,,,,,,,,,3,,,62,0
9216,note_on,96,0,5,,,,,,,,,4,,,46,0
9228,note_on,48,0,1,,,,,,,,,0,,,80,0
9228,note_on,48,0,2,,,,,,,,,1,,,80,0
9228,note_on,48,0,3,,,,,,,,,2,,,77,0
9240,note_on,12,0,1,,,,,,,,,0,,,80,92
9240,note_on,12,0,2,,,,,,,,,1,,,80,92
9240,note_on,24,0,4,,,,,,,,,3,,,63,92
9240,note_on,24,0,5,,,,,,,,,4,,,48,92
9240,note_on,12,0,3,,,,,,,,,2,,,77,92
9288,note_on,48,0,1,,,,,,,,,0,,,80,0
9288,note_on,48,0,4,,,,,,,,,3,,,63,0
9288,note_on,48,0,5,,,,,,,,,4,,,48,0
9288,note_on,48,0,3,,,,,,,,,2,,,77,0
9288,note_on,48,0,2,,,,,,,,,1,,,80,0
9300,note_on,12,0,5,,,,,,,,,4,,,50,92
9300,note_on,12,0,3,,,,,,,,,2,,,77,92
9300,note_on,12,0,4,,,,,,,,,3,,,65,92
9300,note_on,12,0,2,,,,,,,,,1,,,80,92
9300,note_on,12,0,1,,,,,,,,,0,,,80,92
9348,note_on,48,0,2,,,,,,,,,1,,,80,0
9348,note_on,48,0,1,,,,,,,,,0,,,80,0
9348,note_on,48,0,3,,,,,,,,,2,,,77,0
9348,note_on,48,0,4,,,,,,,,,3,,,65,0
9348,note_on,48,0,5,,,,,,,,,4,,,50,0
9360,note_on,12,0,2,,,,,,,,,1,,,79,92
9360,note_on,12,0,4,,,,,,,,,3,,,67,92
9360,note_on,12,0,3,,,,,,,,,2,,,75,92
9360,note_on,12,0,5,,,,,,,,,4,,,51,92
9360,note_on,12,0,1,,,,,,,,,0,,,79,92
9408,note_on,48,0,5,,,,,,,,,4,,,51,0
9408,note_on,48,0,2,,,,,,,,,1,,,79,0
9408,note_on,48,0,4,,,,,,,,,3,,,67,0
9408,note_on,48,0,3,,,,,,,,,2,,,75,0
9408,note_on,48,0,1,,,,,,,,,0,,,79,0
9420,note_on,12,0,1,,,,,,,,,0,,,79,92
9420,note_on,12,0,3,,,,,,,,,2,,,75,92
9420,note_on,12,0,2,,,,,,,,,1,,,79,92
9420,note_on,12,0,5,,,,,,,,,4,,,53,92
9420,note_on,12,0,4,,,,,,,,,3,,,68,92
9468,note_on,48,0,1,,,,,,,,,0,,,79,0
9468,note_on,48,0,2,,,,,,,,,1,,,79,0
9468,note_on,48,0,4,,,,,,,,,3,,,68,0
9468,note_on,48,0,3,,,,,,,,,2,,,75,0
9468,note_on,48,0,5,,,,,,,,,4,,,53,0
9480,note_on,12,0,4,,,,,,,,,3,,,70,92
9480,note_on,12,0,5,,,,,,,,,4,,,55,92
9480,note_on,12,0,1,,,,,,,,,0,,,79,92
9480,note_on,12,0,2,,,,,,,,,1,,,79,92
9480,note_on,12,0,3,,,,,,,,,2,,,75,92
9528,note_on,48,0,2,,,,,,,,,1,,,79,0
9528,note_on,48,0,5,,,,,,,,,4,,,55,0
9528,note_on,48,0,4,,,,,,,,,3,,,70,0
9528,note_on,48,0,3,,,,,,,,,2,,,75,0
9528,note_on,48,0,1,,,,,,,,,0,,,79,0
9540,note_on,12,0,2,,,,,,,,,1,,,79,92
9540,note_on,12,0,5,,,,,,,,,4,,,56,92
9540,note_on,12,0,3,,,,,,,,,2,,,75,92
9540,note_on,12,0,4,,,,,,,,,3,,,72,92
9540,note_on,12,0,1,,,,,,,,,0,,,79,92
9588,note_on,48,0,1,,,,,,,,,0,,,79,0
9588,note_on,48,0,4,,,,,,,,,3,,,72,0
9588,note_on,48,0,5,,,,,,,,,4,,,56,0
9588,note_on,48,0,3,,,,,,,,,2,,,75,0
9588,note_on,48,0,2,,,,,,,,,1,,,79,0
9600,note_on,12,0,1,,,,,,,,,0,,,77,92
9600,note_on,12,0,3,,,,,,,,,2,,,74,92
9600,note_on,12,0,5,,,,,,,,,4,,,58,92
9600,note_on,12,0,4,,,,,,,,,3,,,65,92
9600,note_on,12,0,2,,,,,,,,,1,,,77,92
9696,note_on,96,0,5,,,,,,,,,4,,,58,0
9720,note_on,24,0,5,,,,,,,,,4,,,56,92
9768,note_on,48,0,5,,,,,,,,,4,,,56,0
9780,note_on,12,0,5,,,,,,,,,4,,,55,92
9792,note_on,192,0,4,,,,,,,,,3,,,65,0
9792,note_on,192,0,2,,,,,,,,,1,,,77,0
9792,note_on,192,0,3,,,,,,,,,2,,,74,0
9792,note_on,192,0,1,,,,,,,,,0,,,77,0
9828,note_on,48,0,5,,,,,,,,,4,,,55,0
9840,note_on,12,0,5,,,,,,,,,4,,,53,92
9888,note_on,48,0,5,,,,,,,,,4,,,53,0
9900,note_on,12,0,5,,,,,,,,,4,,,51,92
9948,note_on,48,0,5,,,,,,,,,4,,,51,0
9960,note_on,12,0,5,,,,,,,,,4,,,50,92
10008,note_on,48,0,5,,,,,,,,,4,,,50,0
10020,note_on,12,0,5,,,,,,,,,4,,,48,92
10068,note_on,48,0,5,,,,,,,,,4,,,48,0
10080,note_on,288,0,1,,,,,,,,,0,,,82,92
10080,note_on,288,0,4,,,,,,,,,3,,,62,92
10080,note_on,12,0,5,,,,,,,,,4,,,46,92
10080,note_on,288,0,3,,,,,,,,,2,,,58,92
10080,note_on,288,0,2,,,,,,,,,1,,,82,92
10176,note_on,96,0,5,,,,,,,,,4,,,46,0
10176,note_on,96,0,1,,,,,,,,,0,,,82,0
10176,note_on,96,0,3,,,,,,,,,2,,,58,0
10176,note_on,96,0,4,,,,,,,,,3,,,62,0
10176,note_on,96,0,2,,,,,,,,,1,,,82,0
10200,note_on,24,0,5,,,,,,,,,4,,,46,92
10200,note_on,24,0,3,,,,,,,,,2,,,60,92
10200,note_on,24,0,1,,,,,,,,,0,,,80,92
10200,note_on,24,0,4,,,,,,,,,3,,,62,92
10200,note_on,24,0,2,,,,,,,,,1,,,80,92
10248,note_on,48,0,3,,,,,,,,,2,,,60,0
10248,note_on,48,0,1,,,,,,,,,0,,,80,0
10248,note_on,48,0,2,,,,,,,,,1,,,80,0
10260,note_on,12,0,3,,,,,,,,,2,,,62,92
10260,note_on,12,0,1,,,,,,,,,0,,,79,92
10260,note_on,12,0,2,,,,,,,,,1,,,79,92
10296,note_on,96,0,5,,,,,,,,,4,,,46,0
10296,note_on,96,0,4,,,,,,,,,3,,,62,0
10308,note_on,48,0,1,,,,,,,,,0,,,79,0
10308,note_on,48,0,2,,,,,,,,,1,,,79,0
10308,note_on,48,0,3,,,,,,,,,2,,,62,0
10320,note_on,12,0,1,,,,,,,,,0,,,77,92
10320,note_on,24,0,4,,,,,,,,,3,,,62,92
10320,note_on,24,0,5,,,,,,,,,4,,,46,92
10320,note_on,12,0,2,,,,,,,,,1,,,77,92
10320,note_on,12,0,3,,,,,,,,,2,,,63,92
10368,note_on,48,0,1,,,,,,,,,0,,,77,0
10368,note_on,48,0,3,,,,,,,,,2,,,63,0
10368,note_on,48,0,2,,,,,,,,,1,,,77,0
10380,note_on,12,0,3,,,,,,,,,2,,,65,92
10380,note_on,12,0,2,,,,,,,,,1,,,75,92
10380,note_on,12,0,1,,,,,,,,,0,,,75,92
10416,note_on,96,0,4,,,,,,,,,3,,,62,0
10416,note_on,96,0,5,,,,,,,,,4,,,46,0
10428,note_on,48,0,2,,,,,,,,,1,,,75,0
10428,note_on,48,0,1,,,,,,,,,0,,,75,0
10428,note_on,48,0,3,,,,,,,,,2,,,65,0
10440,note_on,12,0,2,,,,,,,,,1,,,74,92
10440,note_on,12,0,3,,,,,,,,,2,,,67,92
10440,note_on,12,0,1,,,,,,,,,0,,,74,92
10440,note_on,24,0,4,,,,,,,,,3,,,62,92
10440,note_on,24,0,5,,,,,,,,,4,,,46,92
10488,note_on,48,0,3,,,,,,,,,2,,,67,0
10488,note_on,48,0,2,,,,,,,,,1,,,74,0
10488,note_on,48,0,1,,,,,,,,,0,,,74,0
10500,note_on,12,0,3,,,,,,,,,2,,,68,92
10500,note_on,12,0,2,,,,,,,,,1,,,72,92
10500,note_on,12,0,1,,,,,,,,,0,,,72,92
10536,note_on,96,0,5,,,,,,,,,4,,,46,0
10536,note_on,96,0,4,,,,,,,,,3,,,62,0
10548,note_on,48,0,1,,,,,,,,,0,,,72,0
10548,note_on,48,0,2,,,,,,,,,1,,,72,0
10548,note_on,48,0,3,,,,,,,,,2,,,68,0
10560,note_on,12,0,1,,,,,,,,,0,,,70,92
10560,note_on,24,0,5,,,,,,,,,4,,,46,92
10560,note_on,12,0,2,,,,,,,,,1,,,70,92
10560,note_on,12,0,3,,,,,,,,,2,,,70,92
10560,note_on,24,0,4,,,,,,,,,3,,,62,92
10656,note_on,96,0,4,,,,,,,,,3,,,62,0
10656,note_on,96,0,2,,,,,,,,,1,,,70,0
10656,note_on,96,0,3,,,,,,,,,2,,,70,0
10656,note_on,96,0,5,,,,,,,,,4,,,46,0
10656,note_on,96,0,1,,,,,,,,,0,,,70,0
10680,note_on,24,0,3,,,,,,,,,2,,,72,92
10680,note_on,24,0,2,,,,,,,,,1,,,68,92
10680,note_on,24,0,1,,,,,,,,,0,,,68,92
10680,note_on,24,0,5,,,,,,,,,4,,,46,92
10680,note_on,24,0,4,,,,,,,,,3,,,62,92
10728,note_on,48,0,3,,,,,,,,,2,,,72,0
10728,note_on,48,0,2,,,,,,,,,1,,,68,0
10728,note_on,48,0,1,,,,,,,,,0,,,68,0
10740,note_on,12,0,1,,,,,,,,,0,,,67,92
10740,note_on,12,0,2,,,,,,,,,1,,,67,92
10740,note_on,12,0,3,,,,,,,,,2,,,74,92
10776,note_on,96,0,4,,,,,,,,,3,,,62,0
10776,note_on,96,0,5,,,,,,,,,4,,,46,0
10788,note_on,48,0,2,,,,,,,,,1,,,67,0
10788,note_on,48,0,1,,,,,,,,,0,,,67,0
10788,note_on,48,0,3,,,,,,,,,2,,,74,0
10800,note_on,12,0,2,,,,,,,,,1,,,65,92
10800,note_on,12,0,1,,,,,,,,,0,,,65,92
10800,note_on,12,0,3,,,,,,,,,2,,,75,92
10800,note_on,24,0,5,,,,,,,,,4,,,46,92
10800,note_on,24,0,4,,,,,,,,,3,,,62,92
10848,note_on,48,0,3,,,,,,,,,2,,,75,0
10848,note_on,48,0,1,,,,,,,,,0,,,65,0
10848,note_on,48,0,2,,,,,,,,,1,,,65,0
10860,note_on,12,0,3,,,,,,,,,2,,,77,92
10860,note_on,12,0,1,,,,,,,,,0,,,63,92
10860,note_on,12,0,2,,,,,,,,,1,,,63,92
10896,note_on,96,0,5,,,,,,,,,4,,,46,0
10896,note_on,96,0,4,,,,,,,,,3,,,62,0
10908,note_on,48,0,3,,,,,,,,,2,,,77,0
10908,note_on,48,0,1,,,,,,,,,0,,,63,0
10908,note_on,48,0,2,,,,,,,,,1,,,63,0
10920,note_on,24,0,5,,,,,,,,,4,,,46,92
10920,note_on,12,0,3,,,,,,,,,2,,,79,92
10920,note_on,24,0,4,,,,,,,,,3,,,62,92
10920,note_on,12,0,2,,,,,,,,,1,,,62,92
10920,note_on,12,0,1,,,,,,,,,0,,,62,92
10968,note_on,48,0,3,,,,,,,,,2,,,79,0
10968,note_on,48,0,2,,,,,,,,,1,,,62,0
10968,note_on,48,0,1,,,,,,,,,0,,,62,0
10980,note_on,12,0,1,,,,,,,,,0,,,60,92
10980,note_on,12,0,2,,,,,,,,,1,,,60,92
10980,note_on,12,0,3,,,,,,,,,2,,,80,92
11016,note_on,96,0,5,,,,,,,,,4,,,46,0
11016,note_on,96,0,4,,,,,,,,,3,,,62,0
11028,note_on,48,0,1,,,,,,,,,0,,,60,0
11028,note_on,48,0,2,,,,,,,,,1,,,60,0
11028,note_on,48,0,3,,,,,,,,,2,,,80,0
11040,note_on,24,0,5,,,,,,,,,4,,,58,92
11040,note_on,12,0,2,,,,,,,,,1,,,58,92
11040,note_on,24,0,4,,,,,,,,,3,,,62,92
11040,note_on,12,0,1,,,,,,,,,0,,,58,92
11040,note_on,12,0,3,,,,,,,,,2,,,82,92
11136,note_on,96,0,5,,,,,,,,,4,,,58,0
11160,note_on,24,0,5,,,,,,,,,4,,,56,92
11208,note_on,48,0,5,,,,,,,,,4,,,56,0
11220,note_on,12,0,5,,,,,,,,,4,,,55,92
11232,note_on,192,0,4,,,,,,,,,3,,,62,0
11232,note_on,192,0,3,,,,,,,,,2,,,82,0
11232,note_on,192,0,2,,,,,,,,,1,,,58,0
11232,note_on,192,0,1,,,,,,,,,0,,,58,0
11268,note_on,48,0,5,,,,,,,,,4,,,55,0
11280,note_on,12,0,5,,,,,,,,,4,,,53,92
11328,note_on,48,0,5,,,,,,,,,4,,,53,0
11340,note_on,12,0,5,,,,,,,,,4,,,51,92
11388,note_on,48,0,5,,,,,,,,,4,,,51,0
11400,note_on,12,0,5,,,,,,,,,4,,,50,92
11448,note_on,48,0,5,,,,,,,,,4,,,50,0
11460,note_on,12,0,5,,,,,,,,,4,,,48,92
11508,note_on,48,0,5,,,,,,,,,4,,,48,0
11520,note_on,288,0,3,,,,,,,,,2,,,75,92
11520,note_on,288,0,4,,,,,,,,,3,,,58,92
11520,note_on,12,0,5,,,,,,,,,4,,,46,92
11520,note_on,288,0,1,,,,,,,,,0,,,79,92
11520,note_on,288,0,2,,,,,,,,,1,,,79,92
11568,note_on,48,0,4,,,,,,,,,3,,,58,0
11568,note_on,48,0,3,,,,,,,,,2,,,75,0
11568,note_on,48,0,1,,,,,,,,,0,,,79,0
11568,note_on,48,0,2,,,,,,,,,1,,,79,0
11568,note_on,48,0,5,,,,,,,,,4,,,46,0
11580,note_on,12,0,4,,,,,,,,,3,,,58,92
11580,note_on,12,0,1,,,,,,,,,0,,,75,92
11580,note_on,12,0,3,,,,,,,,,2,,,70,92
11580,note_on,12,0,2,,,,,,,,,1,,,75,92
11580,note_on,12,0,5,,,,,,,,,4,,,46,92
11628,note_on,48,0,1,,,,,,,,,0,,,75,0
11628,note_on,48,0,2,,,,,,,,,1,,,75,0
11628,note_on,48,0,4,,,,,,,,,3,,,58,0
11628,note_on,48,0,3,,,,,,,,,2,,,70,0
11628,note_on,48,0,5,,,,,,,,,4,,,46,0
11640,note_on,12,0,2,,,,,,,,,1,,,70,92
11640,note_on,12,0,4,,,,,,,,,3,,,58,92
11640,note_on,12,0,1,,,,,,,,,0,,,70,92
11640,note_on,12,0,3,,,,,,,,,2,,,67,92
11640,note_on,12,0,5,,,,,,,,,4,,,46,92
11688,note_on,48,0,1,,,,,,,,,0,,,70,0
11688,note_on,48,0,3,,,,,,,,,2,,,67,0
11688,note_on,48,0,5,,,,,,,,,4,,,46,0
11688,note_on,48,0,2,,,,,,,,,1,,,70,0
11688,note_on,48,0,4,,,,,,,,,3,,,58,0
11700,note_on,12,0,1,,,,,,,,,0,,,75,92
11700,note_on,12,0,3,,,,,,,,,2,,,70,92
11700,note_on,12,0,5,,,,,,,,,4,,,46,92
11700,note_on,12,0,2,,,,,,,,,1,,,75,92
11700,note_on,12,0,4,,,,,,,,,3,,,58,92
11748,note_on,48,0,5,,,,,,,,,4,,,46,0
11748,note_on,48,0,3,,,,,,,,,2,,,70,0
11748,note_on,48,0,2,,,,,,,,,1,,,75,0
11748,note_on,48,0,4,,,,,,,,,3,,,58,0
11748,note_on,48,0,1,,,,,,,,,0,,,75,0
11760,note_on,12,0,4,,,,,,,,,3,,,58,92
11760,note_on,12,0,5,,,,,,,,,4,,,46,92
11760,note_on,12,0,1,,,,,,,,,0,,,79,92
11760,note_on,12,0,3,,,,,,,,,2,,,75,92
11760,note_on,12,0,2,,,,,,,,,1,,,79,92
11808,note_on,48,0,5,,,,,,,,,4,,,46,0
11808,note_on,48,0,3,,,,,,,,,2,,,75,0
11808,note_on,48,0,1,,,,,,,,,0,,,79,0
11808,note_on,48,0,4,,,,,,,,,3,,,58,0
11808,note_on,48,0,2,,,,,,,,,1,,,79,0
11820,note_on,12,0,4,,,,,,,,,3,,,58,92
11820,note_on,12,0,1,,,,,,,,,0,,,75,92
11820,note_on,12,0,3,,,,,,,,,2,,,70,92
11820,note_on,12,0,5,,,,,,,,,4,,,46,92
11820,note_on,12,0,2,,,,,,,,,1,,,75,92
11868,note_on,48,0,1,,,,,,,,,0,,,75,0
11868,note_on,48,0,4,,,,,,,,,3,,,58,0
11868,note_on,48,0,5,,,,,,,,,4,,,46,0
11868,note_on,48,0,3,,,,,,,,,2,,,70,0
11868,note_on,48,0,2,,,,,,,,,1,,,75,0
11880,note_on,12,0,1,,,,,,,,,0,,,70,92
11880,note_on,12,0,2,,,,,,,,,1,,,70,92
11880,note_on,12,0,4,,,,,,,,,3,,,58,92
11880,note_on,12,0,5,,,,,,,,,4,,,46,92
11880,note_on,12,0,3,,,,,,,,,2,,,67,92
11928,note_on,48,0,5,,,,,,,,,4,,,46,0
11928,note_on,48,0,3,,,,,,,,,2,,,67,0
11928,note_on,48,0,1,,,,,,,,,0,,,70,0
11928,note_on,48,0,2,,,,,,,,,1,,,70,0
11928,note_on,48,0,4,,,,,,,,,3,,,58,0
11940,note_on,12,0,1,,,,,,,,,0,,,75,92
11940,note_on,12,0,5,,,,,,,,,4,,,46,92
11940,note_on,12,0,2,,,,,,,,,1,,,75,92
11940,note_on,12,0,4,,,,,,,,,3,,,58,92
11940,note_on,12,0,3,,,,,,,,,2,,,70,92
11988,note_on,48,0,1,,,,,,,,,0,,,75,0
11988,note_on,48,0,5,,,,,,,,,4,,,46,0
11988,note_on,48,0,2,,,,,,,,,1,,,75,0
11988,note_on,48,0,3,,,,,,,,,2,,,70,0
11988,note_on,48,0,4,,,,,,,,,3,,,58,0
12000,note_on,12,0,1,,,,,,,,,0,,,79,92
12000,note_on,12,0,5,,,,,,,,,4,,,46,92
12000,note_on,12,0,2,,,,,,,,,1,,,79,92
12000,note_on,12,0,4,,,,,,,,,3,,,58,92
12000,note_on,12,0,3,,,,,,,,,2,,,75,92
12048,note_on,48,0,5,,,,,,,,,4,,,46,0
12048,note_on,48,0,2,,,,,,,,,1,,,79,0
12048,note_on,48,0,4,,,,,,,,,3,,,58,0
12048,note_on,48,0,3,,,,,,,,,2,,,75,0
12048,note_on,48,0,1,,,,,,,,,0,,,79,0
12060,note_on,12,0,3,,,,,,,,,2,,,70,92
12060,note_on,12,0,4,,,,,,,,,3,,,58,92
12060,note_on,12,0,2,,,,,,,,,1,,,75,92
12060,note_on,12,0,1,,,,,,,,,0,,,75,92
12060,note_on,12,0,5,,,,,,,,,4,,,46,92
12108,note_on,48,0,4,,,,,,,,,3,,,58,0
12108,note_on,48,0,2,,,,,,,,,1,,,75,0
12108,note_on,48,0,5,,,,,,,,,4,,,46,0
12108,note_on,48,0,3,,,,,,,,,2,,,70,0
12108,note_on,48,0,1,,,,,,,,,0,,,75,0
12120,note_on,12,0,3,,,,,,,,,2,,,67,92
12120,note_on,12,0,1,,,,,,,,,0,,,70,92
12120,note_on,12,0,2,,,,,,,,,1,,,70,92
12120,note_on,12,0,4,,,,,,,,,3,,,58,92
12120,note_on,12,0,5,,,,,,,,,4,,,46,92
12168,note_on,48,0,3,,,,,,,,,2,,,67,0
12168,note_on,48,0,1,,,,,,,,,0,,,70,0
12168,note_on,48,0,5,,,,,,,,,4,,,46,0
12168,note_on,48,0,2,,,,,,,,,1,,,70,0
12168,note_on,48,0,4,,,,,,,,,3,,,58,0
12180,note_on,12,0,4,,,,,,,,,3,,,58,92
12180,note_on,12,0,5,,,,,,,,,4,,,46,92
12180,note_on,12,0,2,,,,,,,,,1,,,75,92
12180,note_on,12,0,3,,,,,,,,,2,,,70,92
12180,note_on,12,0,1,,,,,,,,,0,,,75,92
12228,note_on,48,0,5,,,,,,,,,4,,,46,0
12228,note_on,48,0,3,,,,,,,,,2,,,70,0
12228,note_on,48,0,1,,,,,,,,,0,,,75,0
12228,note_on,48,0,2,,,,,,,,,1,,,75,0
12228,note_on,48,0,4,,,,,,,,,3,,,58,0
12240,note_on,12,0,1,,,,,,,,,0,,,79,92
12240,note_on,12,0,2,,,,,,,,,1,,,79,92
12240,note_on,12,0,4,,,,,,,,,3,,,58,92
12240,note_on,12,0,5,,,,,,,,,4,,,46,92
12240,note_on,12,0,3,,,,,,,,,2,,,75,92
12288,note_on,48,0,5,,,,,,,,,4,,,46,0
12288,note_on,48,0,4,,,,,,,,,3,,,58,0
12288,note_on,48,0,2,,,,,,,,,1,,,79,0
12288,note_on,48,0,1,,,,,,,,,0,,,79,0
12288,note_on,48,0,3,,,,,,,,,2,,,75,0
12300,note_on,12,0,1,,,,,,,,,0,,,75,92
12300,note_on,12,0,4,,,,,,,,,3,,,58,92
12300,note_on,12,0,2,,,,,,,,,1,,,75,92
12300,note_on,12,0,3,,,,,,,,,2,,,70,92
12300,note_on,12,0,5,,,,,,,,,4,,,46,92
12348,note_on,48,0,4,,,,,,,,,3,,,58,0
12348,note_on,48,0,2,,,,,,,,,1,,,75,0
12348,note_on,48,0,5,,,,,,,,,4,,,46,0
12348,note_on,48,0,3,,,,,,,,,2,,,70,0
12348,note_on,48,0,1,,,,,,,,,0,,,75,0
12360,note_on,12,0,4,,,,,,,,,3,,,58,92
12360,note_on,12,0,1,,,,,,,,,0,,,70,92
12360,note_on,12,0,3,,,,,,,,,2,,,67,92
12360,note_on,12,0,2,,,,,,,,,1,,,70,92
12360,note_on,12,0,5,,,,,,,,,4,,,46,92
12408,note_on,48,0,4,,,,,,,,,3,,,58,0
12408,note_on,48,0,3,,,,,,,,,2,,,67,0
12408,note_on,48,0,2,,,,,,,,,1,,,70,0
12408,note_on,48,0,5,,,,,,,,,4,,,46,0
12408,note_on,48,0,1,,,,,,,,,0,,,70,0
12420,note_on,12,0,3,,,,,,,,,2,,,70,92
12420,note_on,12,0,1,,,,,,,,,0,,,75,92
12420,note_on,12,0,2,,,,,,,,,1,,,75,92
12420,note_on,12,0,4,,,,,,,,,3,,,58,92
12420,note_on,12,0,5,,,,,,,,,4,,,46,92
12468,note_on,48,0,3,,,,,,,,,2,,,70,0
12468,note_on,48,0,4,,,,,,,,,3,,,58,0
12468,note_on,48,0,1,,,,,,,,,0,,,75,0
12468,note_on,48,0,5,,,,,,,,,4,,,46,0
12468,note_on,48,0,2,,,,,,,,,1,,,75,0
12480,note_on,12,0,2,,,,,,,,,1,,,77,92
12480,note_on,12,0,1,,,,,,,,,0,,,77,92
12480,note_on,12,0,3,,,,,,,,,2,,,75,92
12480,note_on,12,0,5,,,,,,,,,4,,,46,92
12480,note_on,12,0,4,,,,,,,,,3,,,58,92
12528,note_on,48,0,3,,,,,,,,,2,,,75,0
12528,note_on,48,0,1,,,,,,,,,0,,,77,0
12528,note_on,48,0,4,,,,,,,,,3,,,58,0
12528,note_on,48,0,5,,,,,,,,,4,,,46,0
12528,note_on,48,0,2,,,,,,,,,1,,,77,0
12540,note_on,12,0,2,,,,,,,,,1,,,75,92
12540,note_on,12,0,5,,,,,,,,,4,,,46,92
12540,note_on,12,0,3,,,,,,,,,2,,,70,92
12540,note_on,12,0,4,,,,,,,,,3,,,58,92
12540,note_on,12,0,1,,,,,,,,,0,,,75,92
12588,note_on,48,0,2,,,,,,,,,1,,,75,0
12588,note_on,48,0,5,,,,,,,,,4,,,46,0
12588,note_on,48,0,4,,,,,,,,,3,,,58,0
12588,note_on,48,0,3,,,,,,,,,2,,,70,0
12588,note_on,48,0,1,,,,,,,,,0,,,75,0
12600,note_on,12,0,5,,,,,,,,,4,,,46,92
12600,note_on,12,0,1,,,,,,,,,0,,,70,92
12600,note_on,12,0,3,,,,,,,,,2,,,65,92
12600,note_on,12,0,4,,,,,,,,,3,,,58,92
12600,note_on,12,0,2,,,,,,,,,1,,,70,92
12648,note_on,48,0,5,,,,,,,,,4,,,46,0
12648,note_on,48,0,4,,,,,,,,,3,,,58,0
12648,note_on,48,0,2,,,,,,,,,1,,,70,0
12648,note_on,48,0,1,,,,,,,,,0,,,70,0
12648,note_on,48,0,3,,,,,,,,,2,,,65,0
12660,note_on,12,0,1,,,,,,,,,0,,,75,92
12660,note_on,12,0,3,,,,,,,,,2,,,70,92
12660,note_on,12,0,5,,,,,,,,,4,,,46,92
12660,note_on,12,0,2,,,,,,,,,1,,,75,92
12660,note_on,12,0,4,,,,,,,,,3,,,58,92
12708,note_on,48,0,5,,,,,,,,,4,,,46,0
12708,note_on,48,0,4,,,,,,,,,3,,,58,0
12708,note_on,48,0,1,,,,,,,,,0,,,75,0
12708,note_on,48,0,3,,,,,,,,,2,,,70,0
12708,note_on,48,0,2,,,,,,,,,1,,,75,0
12720,note_on,12,0,2,,,,,,,,,1,,,77,92
12720,note_on,12,0,5,,,,,,,,,4,,,46,92
12720,note_on,12,0,4,,,,,,,,,3,,,58,92
12720,note_on,12,0,1,,,,,,,,,0,,,77,92
12720,note_on,12,0,3,,,,,,,,,2,,,75,92
12768,note_on,48,0,1,,,,,,,,,0,,,77,0
12768,note_on,48,0,3,,,,,,,,,2,,,75,0
12768,note_on,48,0,5,,,,,,,,,4,,,46,0
12768,note_on,48,0,4,,,,,,,,,3,,,58,0
12768,note_on,48,0,2,,,,,,,,,1,,,77,0
12780,note_on,12,0,5,,,,,,,,,4,,,46,92
12780,note_on,12,0,3,,,,,,,,,2,,,70,92
12780,note_on,12,0,2,,,,,,,,,1,,,75,92
12780,note_on,12,0,1,,,,,,,,,0,,,75,92
12780,note_on,12,0,4,,,,,,,,,3,,,58,92
12828,note_on,48,0,3,,,,,,,,,2,,,70,0
12828,note_on,48,0,1,,,,,,,,,0,,,75,0
12828,note_on,48,0,2,,,,,,,,,1,,,75,0
12828,note_on,48,0,4,,,,,,,,,3,,,58,0
12828,note_on,48,0,5,,,,,,,,,4,,,46,0
12840,note_on,12,0,3,,,,,,,,,2,,,65,92
12840,note_on,12,0,4,,,,,,,,,3,,,58,92
12840,note_on,12,0,1,,,,,,,,,0,,,70,92
12840,note_on,12,0,5,,,,,,,,,4,,,46,92
12840,note_on,12,0,2,,,,,,,,,1,,,70,92
12888,note_on,48,0,4,,,,,,,,,3,,,58,0
12888,note_on,48,0,5,,,,,,,,,4,,,46,0
12888,note_on,48,0,3,,,,,,,,,2,,,65,0
12888,note_on,48,0,1,,,,,,,,,0,,,70,0
12888,note_on,48,0,2,,,,,,,,,1,,,70,0
12900,note_on,12,0,4,,,,,,,,,3,,,58,92
12900,note_on,12,0,2,,,,,,,,,1,,,75,92
12900,note_on,12,0,5,,,,,,,,,4,,,46,92
12900,note_on,12,0,1,,,,,,,,,0,,,75,92
12900,note_on,12,0,3,,,,,,,,,2,,,70,92
12948,note_on,48,0,5,,,,,,,,,4,,,46,0
12948,note_on,48,0,4,,,,,,,,,3,,,58,0
12948,note_on,48,0,1,,,,,,,,,0,,,75,0
12948,note_on,48,0,2,,,,,,,,,1,,,75,0
12948,note_on,48,0,3,,,,,,,,,2,,,70,0
12960,note_on,12,0,1,,,,,,,,,0,,,77,92
12960,note_on,12,0,3,,,,,,,,,2,,,75,92
12960,note_on,12,0,2,,,,,,,,,1,,,77,92
12960,note_on,12,0,4,,,,,,,,,3,,,58,92
12960,note_on,12,0,5,,,,,,,,,4,,,46,92
13008,note_on,48,0,3,,,,,,,,,2,,,75,0
13008,note_on,48,0,5,,,,,,,,,4,,,46,0
13008,note_on,48,0,4,,,,,,,,,3,,,58,0
13008,note_on,48,0,1,,,,,,,,,0,,,77,0
13008,note_on,48,0,2,,,,,,,,,1,,,77,0
13020,note_on,12,0,5,,,,,,,,,4,,,46,92
13020,note_on,12,0,3,,,,,,,,,2,,,70,92
13020,note_on,12,0,4,,,,,,,,,3,,,58,92
13020,note_on,12,0,1,,,,,,,,,0,,,75,92
13020,note_on,12,0,2,,,,,,,,,1,,,75,92
13068,note_on,48,0,4,,,,,,,,,3,,,58,0
13068,note_on,48,0,3,,,,,,,,,2,,,70,0
13068,note_on,48,0,2,,,,,,,,,1,,,75,0
13068,note_on,48,0,5,,,,,,,,,4,,,46,0
13068,note_on,48,0,1,,,,,,,,,0,,,75,0
13080,note_on,12,0,1,,,,,,,,,0,,,70,92
13080,note_on,12,0,2,,,,,,,,,1,,,70,92
13080,note_on,12,0,5,,,,,,,,,4,,,46,92
13080,note_on,12,0,3,,,,,,,,,2,,,65,92
13080,note_on,12,0,4,,,,,,,,,3,,,58,92
13128,note_on,48,0,2,,,,,,,,,1,,,70,0
13128,note_on,48,0,5,,,,,,,,,4,,,46,0
13128,note_on,48,0,1,,,,,,,,,0,,,70,0
13128,note_on,48,0,4,,,,,,,,,3,,,58,0
13128,note_on,48,0,3,,,,,,,,,2,,,65,0
13140,note_on,12,0,4,,,,,,,,,3,,,58,92
13140,note_on,12,0,2,,,,,,,,,1,,,75,92
13140,note_on,12,0,5,,,,,,,,,4,,,46,92
13140,note_on,12,0,1,,,,,,,,,0,,,75,92
13140,note_on,12,0,3,,,,,,,,,2,,,70,92
13188,note_on,48,0,4,,,,,,,,,3,,,58,0
13188,note_on,48,0,2,,,,,,,,,1,,,75,0
13188,note_on,48,0,5,,,,,,,,,4,,,46,0
13188,note_on,48,0,1,,,,,,,,,0,,,75,0
13188,note_on,48,0,3,,,,,,,,,2,,,70,0
13200,note_on,12,0,2,,,,,,,,,1,,,77,92
13200,note_on,12,0,5,,,,,,,,,4,,,46,92
13200,note_on,12,0,3,,,,,,,,,2,,,75,92
13200,note_on,12,0,1,,,,,,,,,0,,,77,92
13200,note_on,12,0,4,,,,,,,,,3,,,58,92
13248,note_on,48,0,5,,,,,,,,,4,,,46,0
13248,note_on,48,0,2,,,,,,,,,1,,,77,0
13248,note_on,48,0,3,,,,,,,,,2,,,75,0
13248,note_on,48,0,4,,,,,,,,,3,,,58,0
13248,note_on,48,0,1,,,,,,,,,0,,,77,0
13260,note_on,12,0,2,,,,,,,,,1,,,75,92
13260,note_on,12,0,3,,,,,,,,,2,,,70,92
13260,note_on,12,0,5,,,,,,,,,4,,,46,92
13260,note_on,12,0,1,,,,,,,,,0,,,75,92
13260,note_on,12,0,4,,,,,,,,,3,,,58,92
13308,note_on,48,0,2,,,,,,,,,1,,,75,0
13308,note_on,48,0,4,,,,,,,,,3,,,58,0
13308,note_on,48,0,3,,,,,,,,,2,,,70,0
13308,note_on,48,0,5,,,,,,,,,4,,,46,0
13308,note_on,48,0,1,,,,,,,,,0,,,75,0
13320,note_on,12,0,5,,,,,,,,,4,,,46,92
13320,note_on,12,0,2,,,,,,,,,1,,,70,92
13320,note_on,12,0,3,,,,,,,,,2,,,65,92
13320,note_on,12,0,1,,,,,,,,,0,,,70,92
13320,note_on,12,0,4,,,,,,,,,3,,,58,92
13368,note_on,48,0,4,,,,,,,,,3,,,58,0
13368,note_on,48,0,1,,,,,,,,,0,,,70,0
13368,note_on,48,0,5,,,,,,,,,4,,,46,0
13368,note_on,48,0,3,,,,,,,,,2,,,65,0
13368,note_on,48,0,2,,,,,,,,,1,,,70,0
13380,note_on,12,0,4,,,,,,,,,3,,,58,92
13380,note_on,12,0,1,,,,,,,,,0,,,75,92
13380,note_on,12,0,3,,,,,,,,,2,,,70,92
13380,note_on,12,0,5,,,,,,,,,4,,,46,92
13380,note_on,12,0,2,,,,,,,,,1,,,75,92
13428,note_on,48,0,3,,,,,,,,,2,,,70,0
13428,note_on,48,0,2,,,,,,,,,1,,,75,0
13428,note_on,48,0,4,,,,,,,,,3,,,58,0
13428,note_on,48,0,5,,,,,,,,,4,,,46,0
13428,note_on,48,0,1,,,,,,,,,0,,,75,0
13440,note_on,12,0,2,,,,,,,,,1,,,77,92
13440,note_on,12,0,4,,,,,,,,,3,,,58,92
13440,note_on,12,0,1,,,,,,,,,0,,,77,92
13440,note_on,12,0,3,,,,,,,,,2,,,74,92
13440,note_on,12,0,5,,,,,,,,,4,,,46,92
13488,note_on,48,0,4,,,,,,,,,3,,,58,0
13488,note_on,48,0,5,,,,,,,,,4,,,46,0
13488,note_on,48,0,3,,,,,,,,,2,,,74,0
13488,note_on,48,0,1,,,,,,,,,0,,,77,0
13488,note_on,48,0,2,,,,,,,,,1,,,77,0
13500,note_on,12,0,1,,,,,,,,,0,,,74,92
13500,note_on,12,0,5,,,,,,,,,4,,,46,92
13500,note_on,12,0,2,,,,,,,,,1,,,74,92
13500,note_on,12,0,3,,,,,,,,,2,,,70,92
13500,note_on,12,0,4,,,,,,,,,3,,,58,92
13548,note_on,48,0,2,,,,,,,,,1,,,74,0
13548,note_on,48,0,3,,,,,,,,,2,,,70,0
13548,note_on,48,0,5,,,,,,,,,4,,,46,0
13548,note_on,48,0,4,,,,,,,,,3,,,58,0
13548,note_on,48,0,1,,,,,,,,,0,,,74,0
13560,note_on,12,0,5,,,,,,,,,4,,,46,92
13560,note_on,12,0,1,,,,,,,,,0,,,70,92
13560,note_on,12,0,4,,,,,,,,,3,,,58,92
13560,note_on,12,0,3,,,,,,,,,2,,,65,92
13560,note_on,12,0,2,,,,,,,,,1,,,70,92
13608,note_on,48,0,4,,,,,,,,,3,,,58,0
13608,note_on,48,0,3,,,,,,,,,2,,,65,0
13608,note_on,48,0,2,,,,,,,,,1,,,70,0
13608,note_on,48,0,5,,,,,,,,,4,,,46,0
13608,note_on,48,0,1,,,,,,,,,0,,,70,0
13620,note_on,12,0,5,,,,,,,,,4,,,46,92
13620,note_on,12,0,2,,,,,,,,,1,,,74,92
13620,note_on,12,0,4,,,,,,,,,3,,,58,92
13620,note_on,12,0,1,,,,,,,,,0,,,74,92
13620,note_on,12,0,3,,,,,,,,,2,,,70,92
13668,note_on,48,0,5,,,,,,,,,4,,,46,0
13668,note_on,48,0,4,,,,,,,,,3,,,58,0
13668,note_on,48,0,3,,,,,,,,,2,,,70,0
13668,note_on,48,0,1,,,,,,,,,0,,,74,0
13668,note_on,48,0,2,,,,,,,,,1,,,74,0
13680,note_on,12,0,1,,,,,,,,,0,,,77,92
13680,note_on,12,0,3,,,,,,,,,2,,,74,92
13680,note_on,12,0,2,,,,,,,,,1,,,77,92
13680,note_on,12,0,4,,,,,,,,,3,,,58,92
13680,note_on,12,0,5,,,,,,,,,4,,,46,92
13728,note_on,48,0,5,,,,,,,,,4,,,46,0
13728,note_on,48,0,2,,,,,,,,,1,,,77,0
13728,note_on,48,0,4,,,,,,,,,3,,,58,0
13728,note_on,48,0,1,,,,,,,,,0,,,77,0
13728,note_on,48,0,3,,,,,,,,,2,,,74,0
13740,note_on,12,0,1,,,,,,,,,0,,,74,92
13740,note_on,12,0,3,,,,,,,,,2,,,70,92
13740,note_on,12,0,5,,,,,,,,,4,,,46,92
13740,note_on,12,0,4,,,,,,,,,3,,,58,92
13740,note_on,12,0,2,,,,,,,,,1,,,74,92
13788,note_on,48,0,3,,,,,,,,,2,,,70,0
13788,note_on,48,0,4,,,,,,,,,3,,,58,0
13788,note_on,48,0,1,,,,,,,,,0,,,74,0
13788,note_on,48,0,5,,,,,,,,,4,,,46,0
13788,note_on,48,0,2,,,,,,,,,1,,,74,0
13800,note_on,12,0,5,,,,,,,,,4,,,46,92
13800,note_on,12,0,3,,,,,,,,,2,,,65,92
13800,note_on,12,0,2,,,,,,,,,1,,,70,92
13800,note_on,12,0,1,,,,,,,,,0,,,70,92
13800,note_on,12,0,4,,,,,,,,,3,,,58,92
13848,note_on,48,0,4,,,,,,,,,3,,,58,0
13848,note_on,48,0,5,,,,,,,,,4,,,46,0
13848,note_on,48,0,1,,,,,,,,,0,,,70,0
13848,note_on,48,0,3,,,,,,,,,2,,,65,0
13848,note_on,48,0,2,,,,,,,,,1,,,70,0
13860,note_on,12,0,2,,,,,,,,,1,,,74,92
13860,note_on,12,0,5,,,,,,,,,4,,,46,92
13860,note_on,12,0,3,,,,,,,,,2,,,70,92
13860,note_on,12,0,1,,,,,,,,,0,,,74,92
13860,note_on,12,0,4,,,,,,,,,3,,,58,92
13908,note_on,48,0,3,,,,,,,,,2,,,70,0
13908,note_on,48,0,5,,,,,,,,,4,,,46,0
13908,note_on,48,0,1,,,,,,,,,0,,,74,0
13908,note_on,48,0,4,,,,,,,,,3,,,58,0
13908,note_on,48,0,2,,,,,,,,,1,,,74,0
13920,note_on,12,0,5,,,,,,,,,4,,,46,92
13920,note_on,12,0,3,,,,,,,,,2,,,74,92
13920,note_on,12,0,2,,,,,,,,,1,,,77,92
13920,note_on,12,0,1,,,,,,,,,0,,,77,92
13920,note_on,12,0,4,,,,,,,,,3,,,58,92
13968,note_on,48,0,5,,,,,,,,,4,,,46,0
13968,note_on,48,0,2,,,,,,,,,1,,,77,0
13968,note_on,48,0,1,,,,,,,,,0,,,77,0
13968,note_on,48,0,3,,,,,,,,,2,,,74,0
13968,note_on,48,0,4,,,,,,,,,3,,,58,0
13980,note_on,12,0,1,,,,,,,,,0,,,74,92
13980,note_on,12,0,2,,,,,,,,,1,,,74,92
13980,note_on,12,0,5,,,,,,,,,4,,,46,92
13980,note_on,12,0,3,,,,,,,,,2,,,70,92
13980,note_on,12,0,4,,,,,,,,,3,,,58,92
14028,note_on,48,0,3,,,,,,,,,2,,,70,0
14028,note_on,48,0,1,,,,,,,,,0,,,74,0
14028,note_on,48,0,5,,,,,,,,,4,,,46,0
14028,note_on,48,0,4,,,,,,,,,3,,,58,0
14028,note_on,48,0,2,,,,,,,,,1,,,74,0
14040,note_on,12,0,5,,,,,,,,,4,,,46,92
14040,note_on,12,0,3,,,,,,,,,2,,,65,92
14040,note_on,12,0,1,,,,,,,,,0,,,70,92
14040,note_on,12,0,4,,,,,,,,,3,,,58,92
14040,note_on,12,0,2,,,,,,,,,1,,,70,92
14088,note_on,48,0,2,,,,,,,,,1,,,70,0
14088,note_on,48,0,5,,,,,,,,,4,,,46,0
14088,note_on,48,0,3,,,,,,,,,2,,,65,0
14088,note_on,48,0,4,,,,,,,,,3,,,58,0
14088,note_on,48,0,1,,,,,,,,,0,,,70,0
14100,note_on,12,0,2,,,,,,,,,1,,,74,92
14100,note_on,12,0,5,,,,,,,,,4,,,46,92
14100,note_on,12,0,3,,,,,,,,,2,,,70,92
14100,note_on,12,0,4,,,,,,,,,3,,,58,92
14100,note_on,12,0,1,,,,,,,,,0,,,74,92
14148,note_on,48,0,4,,,,,,,,,3,,,58,0
14148,note_on,48,0,2,,,,,,,,,1,,,74,0
14148,note_on,48,0,5,,,,,,,,,4,,,46,0
14148,note_on,48,0,1,,,,,,,,,0,,,74,0
14148,note_on,48,0,3,,,,,,,,,2,,,70,0
14160,note_on,12,0,5,,,,,,,,,4,,,46,92
14160,note_on,12,0,1,,,,,,,,,0,,,77,92
14160,note_on,12,0,3,,,,,,,,,2,,,74,92
14160,note_on,12,0,2,,,,,,,,,1,,,77,92
14160,note_on,12,0,4,,,,,,,,,3,,,58,92
14208,note_on,48,0,5,,,,,,,,,4,,,46,0
14208,note_on,48,0,4,,,,,,,,,3,,,58,0
14208,note_on,48,0,1,,,,,,,,,0,,,77,0
14208,note_on,48,0,2,,,,,,,,,1,,,77,0
14208,note_on,48,0,3,,,,,,,,,2,,,74,0
14220,note_on,12,0,3,,,,,,,,,2,,,70,92
14220,note_on,12,0,4,,,,,,,,,3,,,58,92
14220,note_on,12,0,5,,,,,,,,,4,,,46,92
14220,note_on,12,0,1,,,,,,,,,0,,,74,92
14220,note_on,12,0,2,,,,,,,,,1,,,74,92
14268,note_on,48,0,4,,,,,,,,,3,,,58,0
14268,note_on,48,0,5,,,,,,,,,4,,,46,0
14268,note_on,48,0,1,,,,,,,,,0,,,74,0
14268,note_on,48,0,3,,,,,,,,,2,,,70,0
14268,note_on,48,0,2,,,,,,,,,1,,,74,0
14280,note_on,12,0,5,,,,,,,,,4,,,46,92
14280,note_on,12,0,1,,,,,,,,,0,,,70,92
14280,note_on,12,0,4,,,,,,,,,3,,,58,92
14280,note_on,12,0,2,,,,,,,,,1,,,70,92
14280,note_on,12,0,3,,,,,,,,,2,,,65,92
14328,note_on,48,0,5,,,,,,,,,4,,,46,0
14328,note_on,48,0,4,,,,,,,,,3,,,58,0
14328,note_on,48,0,3,,,,,,,,,2,,,65,0
14328,note_on,48,0,2,,,,,,,,,1,,,70,0
14328,note_on,48,0,1,,,,,,,,,0,,,70,0
14340,note_on,12,0,5,,,,,,,,,4,,,46,92
14340,note_on,12,0,3,,,,,,,,,2,,,70,92
14340,note_on,12,0,1,,,,,,,,,0,,,74,92
14340,note_on,12,0,2,,,,,,,,,1,,,74,92
14340,note_on,12,0,4,,,,,,,,,3,,,58,92
14388,note_on,48,0,4,,,,,,,,,3,,,58,0
14388,note_on,48,0,2,,,,,,,,,1,,,74,0
14388,note_on,48,0,5,,,,,,,,,4,,,46,0
14388,note_on,48,0,3,,,,,,,,,2,,,70,0
14388,note_on,48,0,1,,,,,,,,,0,,,74,0
14400,note_on,12,0,4,,,,,,,,,3,,,58,92
14400,note_on,12,0,5,,,,,,,,,4,,,39,92
14400,note_on,12,0,3,,,,,,,,,2,,,75,92
14400,note_on,12,0,1,,,,,,,,,0,,,75,92
14400,note_on,12,0,2,,,,,,,,,1,,,75,92
14496,note_on,96,0,2,,,,,,,,,1,,,75,0
14496,note_on,96,0,3,,,,,,,,,2,,,75,0
14496,note_on,96,0,1,,,,,,,,,0,,,75,0
14520,note_on,24,0,2,,,,,,,,,1,,,74,92
14520,note_on,24,0,1,,,,,,,,,0,,,74,92
14520,note_on,24,0,3,,,,,,,,,2,,,74,92
14568,note_on,48,0,2,,,,,,,,,1,,,74,0
14568,note_on,48,0,3,,,,,,,,,2,,,74,0
14568,note_on,48,0,1,,,,,,,,,0,,,74,0
14580,note_on,12,0,2,,,,,,,,,1,,,72,92
14580,note_on,12,0,3,,,,,,,,,2,,,72,92
14580,note_on,12,0,1,,,,,,,,,0,,,72,92
14592,note_on,192,0,4,,,,,,,,,3,,,58,0
14592,note_on,192,0,5,,,,,,,,,4,,,39,0
14628,note_on,48,0,2,,,,,,,,,1,,,72,0
14628,note_on,48,0,3,,,,,,,,,2,,,72,0
14628,note_on,48,0,1,,,,,,,,,0,,,72,0
14640,note_on,12,0,1,,,,,,,,,0,,,70,92
14640,note_on,12,0,3,,,,,,,,,2,,,70,92
14640,note_on,12,0,2,,,,,,,,,1,,,70,92
14688,note_on,48,0,2,,,,,,,,,1,,,70,0
14688,note_on,48,0,3,,,,,,,,,2,,,70,0
14688,note_on,48,0,1,,,,,,,,,0,,,70,0
14700,note_on,12,0,1,,,,,,,,,0,,,68,92
14700,note_on,12,0,2,,,,,,,,,1,,,68,92
14700,note_on,12,0,3,,,,,,,,,2,,,68,92
14748,note_on,48,0,1,,,,,,,,,0,,,68,0
14748,note_on,48,0,2,,,,,,,,,1,,,68,0
14748,note_on,48,0,3,,,,,,,,,2,,,68,0
14760,note_on,12,0,1,,,,,,,,,0,,,67,92
14760,note_on,12,0,2,,,,,,,,,1,,,67,92
14760,note_on,12,0,3,,,,,,,,,2,,,67,92
14808,note_on,48,0,3,,,,,,,,,2,,,67,0
14808,note_on,48,0,1,,,,,,,,,0,,,67,0
14808,note_on,48,0,2,,,,,,,,,1,,,67,0
14820,note_on,12,0,1,,,,,,,,,0,,,65,92
14820,note_on,12,0,3,,,,,,,,,2,,,65,92
14820,note_on,12,0,2,,,,,,,,,1,,,65,92
14868,note_on,48,0,1,,,,,,,,,0,,,65,0
14868,note_on,48,0,3,,,,,,,,,2,,,65,0
14868,note_on,48,0,2,,,,,,,,,1,,,65,0
14880,note_on,12,0,2,,,,,,,,,1,,,63,92
14880,note_on,288,0,5,,,,,,,,,4,,,51,92
14880,note_on,12,0,3,,,,,,,,,2,,,63,92
14880,note_on,288,0,4,,,,,,,,,3,,,63,92
14880,note_on,12,0,1,,,,,,,,,0,,,63,92
14976,note_on,96,0,5,,,,,,,,,4,,,51,0
14976,note_on,96,0,4,,,,,,,,,3,,,63,0
15000,note_on,24,0,4,,,,,,,,,3,,,62,92
15000,note_on,24,0,5,,,,,,,,,4,,,50,92
15048,note_on,48,0,4,,,,,,,,,3,,,62,0
15048,note_on,48,0,5,,,,,,,,,4,,,50,0
15060,note_on,12,0,5,,,,,,,,,4,,,48,92
15060,note_on,12,0,4,,,,,,,,,3,,,60,92
15072,note_on,192,0,1,,,,,,,,,0,,,63,0
15072,note_on,192,0,2,,,,,,,,,1,,,63,0
15072,note_on,192,0,3,,,,,,,,,2,,,63,0
15108,note_on,48,0,5,,,,,,,,,4,,,48,0
15108,note_on,48,0,4,,,,,,,,,3,,,60,0
15120,note_on,12,0,4,,,,,,,,,3,,,58,92
15120,note_on,12,0,5,,,,,,,,,4,,,46,92
15168,note_on,48,0,5,,,,,,,,,4,,,46,0
15168,note_on,48,0,4,,,,,,,,,3,,,58,0
15180,note_on,12,0,4,,,,,,,,,3,,,56,92
15180,note_on,12,0,5,,,,,,,,,4,,,44,92
15228,note_on,48,0,4,,,,,,,,,3,,,56,0
15228,note_on,48,0,5,,,,,,,,,4,,,44,0
15240,note_on,12,0,4,,,,,,,,,3,,,55,92
15240,note_on,12,0,5,,,,,,,,,4,,,43,92
15288,note_on,48,0,4,,,,,,,,,3,,,55,0
15288,note_on,48,0,5,,,,,,,,,4,,,43,0
15300,note_on,12,0,4,,,,,,,,,3,,,53,92
15300,note_on,12,0,5,,,,,,,,,4,,,41,92
15348,note_on,48,0,4,,,,,,,,,3,,,53,0
15348,note_on,48,0,5,,,,,,,,,4,,,41,0
15360,note_on,12,0,4,,,,,,,,,3,,,51,92
15360,note_on,12,0,5,,,,,,,,,4,,,39,92
15360,note_on,288,0,1,,,,,,,,,0,,,75,92
15408,note_on,48,0,1,,,,,,,,,0,,,75,0
15420,note_on,12,0,1,,,,,,,,,0,,,79,92
15468,note_on,48,0,1,,,,,,,,,0,,,79,0
15480,note_on,12,0,1,,,,,,,,,0,,,70,92
15528,note_on,48,0,1,,,,,,,,,0,,,70,0
15540,note_on,12,0,1,,,,,,,,,0,,,79,92
15552,note_on,192,0,4,,,,,,,,,3,,,51,0
15552,note_on,192,0,5,,,,,,,,,4,,,39,0
15588,note_on,48,0,1,,,,,,,,,0,,,79,0
15600,note_on,12,0,1,,,,,,,,,0,,,75,92
15600,note_on,48,0,5,,,,,,,,,4,,,39,92
15648,note_on,48,0,1,,,,,,,,,0,,,75,0
15660,note_on,12,0,1,,,,,,,,,0,,,79,92
15708,note_on,48,0,1,,,,,,,,,0,,,79,0
15720,note_on,12,0,1,,,,,,,,,0,,,70,92
15768,note_on,48,0,1,,,,,,,,,0,,,70,0
15780,note_on,12,0,1,,,,,,,,,0,,,79,92
15792,note_on,192,0,5,,,,,,,,,4,,,39,0
15828,note_on,48,0,1,,,,,,,,,0,,,79,0
15840,note_on,12,0,1,,,,,,,,,0,,,75,92
15840,note_on,48,0,5,,,,,,,,,4,,,39,92
15888,note_on,48,0,1,,,,,,,,,0,,,75,0
15900,note_on,12,0,1,,,,,,,,,0,,,79,92
15948,note_on,48,0,1,,,,,,,,,0,,,79,0
15960,note_on,12,0,1,,,,,,,,,0,,,70,92
16008,note_on,48,0,1,,,,,,,,,0,,,70,0
16020,note_on,12,0,1,,,,,,,,,0,,,79,92
16032,note_on,192,0,5,,,,,,,,,4,,,39,0
16068,note_on,48,0,1,,,,,,,,,0,,,79,0
16080,note_on,12,0,1,,,,,,,,,0,,,75,92
16080,note_on,48,0,5,,,,,,,,,4,,,39,92
16128,note_on,48,0,1,,,,,,,,,0,,,75,0
16140,note_on,12,0,1,,,,,,,,,0,,,79,92
16188,note_on,48,0,1,,,,,,,,,0,,,79,0
16200,note_on,12,0,1,,,,,,,,,0,,,70,92
16248,note_on,48,0,1,,,,,,,,,0,,,70,0
16260,note_on,12,0,1,,,,,,,,,0,,,79,92
16272,note_on,192,0,5,,,,,,,,,4,,,39,0
16308,note_on,48,0,1,,,,,,,,,0,,,79,0
16320,note_on,12,0,1,,,,,,,,,0,,,67,92
16320,note_on,48,0,5,,,,,,,,,4,,,39,92
16368,note_on,48,0,1,,,,,,,,,0,,,67,0
16380,note_on,12,0,1,,,,,,,,,0,,,70,92
16428,note_on,48,0,1,,,,,,,,,0,,,70,0
16440,note_on,12,0,1,,,,,,,,,0,,,63,92
16488,note_on,48,0,1,,,,,,,,,0,,,63,0
16500,note_on,12,0,1,,,,,,,,,0,,,70,92
16512,note_on,192,0,5,,,,,,,,,4,,,39,0
16548,note_on,48,0,1,,,,,,,,,0,,,70,0
16560,note_on,48,0,5,,,,,,,,,4,,,39,92
16560,note_on,12,0,1,,,,,,,,,0,,,67,92
16608,note_on,48,0,1,,,,,,,,,0,,,67,0
16620,note_on,12,0,1,,,,,,,,,0,,,70,92
16668,note_on,48,0,1,,,,,,,,,0,,,70,0
16680,note_on,12,0,1,,,,,,,,,0,,,63,92
16728,note_on,48,0,1,,,,,,,,,0,,,63,0
16740,note_on,12,0,1,,,,,,,,,0,,,70,92
16752,note_on,192,0,5,,,,,,,,,4,,,39,0
16788,note_on,48,0,1,,,,,,,,,0,,,70,0
16800,note_on,48,0,5,,,,,,,,,4,,,39,92
16800,note_on,12,0,1,,,,,,,,,0,,,67,92
16848,note_on,48,0,1,,,,,,,,,0,,,67,0
16860,note_on,12,0,1,,,,,,,,,0,,,70,92
16908,note_on,48,0,1,,,,,,,,,0,,,70,0
16920,note_on,12,0,1,,,,,,,,,0,,,63,92
16968,note_on,48,0,1,,,,,,,,,0,,,63,0
16980,note_on,12,0,1,,,,,,,,,0,,,70,92
16992,note_on,192,0,5,,,,,,,,,4,,,39,0
17028,note_on,48,0,1,,,,,,,,,0,,,70,0
17040,note_on,12,0,1,,,,,,,,,0,,,67,92
17040,note_on,48,0,5,,,,,,,,,4,,,39,92
17088,note_on,48,0,1,,,,,,,,,0,,,67,0
17100,note_on,12,0,1,,,,,,,,,0,,,70,92
17148,note_on,48,0,1,,,,,,,,,0,,,70,0
17160,note_on,12,0,1,,,,,,,,,0,,,63,92
17208,note_on,48,0,1,,,,,,,,,0,,,63,0
17220,note_on,12,0,1,,,,,,,,,0,,,70,92
17232,note_on,192,0,5,,,,,,,,,4,,,39,0
17268,note_on,48,0,1,,,,,,,,,0,,,70,0
17280,note_on,48,0,5,,,,,,,,,4,,,39,92
17280,note_on,12,0,1,,,,,,,,,0,,,58,92
17328,note_on,48,0,1,,,,,,,,,0,,,58,0
17340,note_on,12,0,1,,,,,,,,,0,,,63,92
17388,note_on,48,0,1,,,,,,,,,0,,,63,0
17400,note_on,12,0,1,,,,,,,,,0,,,55,92
17448,note_on,48,0,1,,,,,,,,,0,,,55,0
17460,note_on,12,0,1,,,,,,,,,0,,,63,92
17472,note_on,192,0,5,,,,,,,,,4,,,39,0
17508,note_on,48,0,1,,,,,,,,,0,,,63,0
17520,note_on,12,0,1,,,,,,,,,0,,,58,92
17520,note_on,48,0,5,,,,,,,,,4,,,39,92
17568,note_on,48,0,1,,,,,,,,,0,,,58,0
17580,note_on,12,0,1,,,,,,,,,0,,,63,92
17628,note_on,48,0,1,,,,,,,,,0,,,63,0
17640,note_on,12,0,1,,,,,,,,,0,,,55,92
17688,note_on,48,0,1,,,,,,,,,0,,,55,0
17700,note_on,12,0,1,,,,,,,,,0,,,63,92
17712,note_on,192,0,5,,,,,,,,,4,,,39,0
17748,note_on,48,0,1,,,,,,,,,0,,,63,0
17760,note_on,48,0,5,,,,,,,,,4,,,39,92
17760,note_on,12,0,1,,,,,,,,,0,,,58,92
17808,note_on,48,0,1,,,,,,,,,0,,,58,0
17820,note_on,12,0,1,,,,,,,,,0,,,63,92
17868,note_on,48,0,1,,,,,,,,,0,,,63,0
17880,note_on,12,0,1,,,,,,,,,0,,,55,92
17928,note_on,48,0,1,,,,,,,,,0,,,55,0
17940,note_on,12,0,1,,,,,,,,,0,,,63,92
17952,note_on,192,0,5,,,,,,,,,4,,,39,0
17988,note_on,48,0,1,,,,,,,,,0,,,63,0
18000,note_on,12,0,1,,,,,,,,,0,,,58,92
18000,note_on,48,0,5,,,,,,,,,4,,,39,92
18048,note_on,48,0,1,,,,,,,,,0,,,58,0
18060,note_on,12,0,1,,,,,,,,,0,,,63,92
18108,note_on,48,0,1,,,,,,,,,0,,,63,0
18120,note_on,12,0,1,,,,,,,,,0,,,55,92
18168,note_on,48,0,1,,,,,,,,,0,,,55,0
18180,note_on,12,0,1,,,,,,,,,0,,,63,92
18192,note_on,192,0,5,,,,,,,,,4,,,39,0
18228,note_on,48,0,1,,,,,,,,,0,,,63,0
18240,note_on,48,0,5,,,,,,,,,4,,,51,92
18240,note_on,12,0,1,,,,,,,,,0,,,67,92
18288,note_on,48,0,1,,,,,,,,,0,,,67,0
18300,note_on,12,0,1,,,,,,,,,0,,,70,92
18348,note_on,48,0,1,,,,,,,,,0,,,70,0
18360,note_on,12,0,1,,,,,,,,,0,,,63,92
18408,note_on,48,0,1,,,,,,,,,0,,,63,0
18420,note_on,12,0,1,,,,,,,,,0,,,70,92
18432,note_on,192,0,5,,,,,,,,,4,,,51,0
18468,note_on,48,0,1,,,,,,,,,0,,,70,0
18480,note_on,48,0,5,,,,,,,,,4,,,49,92
18480,note_on,12,0,1,,,,,,,,,0,,,67,92
18528,note_on,48,0,1,,,,,,,,,0,,,67,0
18540,note_on,12,0,1,,,,,,,,,0,,,70,92
18588,note_on,48,0,1,,,,,,,,,0,,,70,0
18600,note_on,12,0,1,,,,,,,,,0,,,63,92
18648,note_on,48,0,1,,,,,,,,,0,,,63,0
18660,note_on,12,0,1,,,,,,,,,0,,,70,92
18672,note_on,192,0,5,,,,,,,,,4,,,49,0
18708,note_on,48,0,1,,,,,,,,,0,,,70,0
18720,note_on,48,0,5,,,,,,,,,4,,,48,92
18720,note_on,12,0,1,,,,,,,,,0,,,68,92
18768,note_on,48,0,1,,,,,,,,,0,,,68,0
18780,note_on,12,0,1,,,,,,,,,0,,,72,92
18828,note_on,48,0,1,,,,,,,,,0,,,72,0
18840,note_on,12,0,1,,,,,,,,,0,,,63,92
18888,note_on,48,0,1,,,,,,,,,0,,,63,0
18900,note_on,12,0,1,,,,,,,,,0,,,72,92
18912,note_on,192,0,5,,,,,,,,,4,,,48,0
18948,note_on,48,0,1,,,,,,,,,0,,,72,0
18960,note_on,48,0,5,,,,,,,,,4,,,44,92
18960,note_on,12,0,1,,,,,,,,,0,,,68,92
19008,note_on,48,0,1,,,,,,,,,0,,,68,0
19020,note_on,12,0,1,,,,,,,,,0,,,72,92
19068,note_on,48,0,1,,,,,,,,,0,,,72,0
19080,note_on,12,0,1,,,,,,,,,0,,,63,92
19128,note_on,48,0,1,,,,,,,,,0,,,63,0
19140,note_on,12,0,1,,,,,,,,,0,,,72,92
19152,note_on,192,0,5,,,,,,,,,4,,,44,0
19188,note_on,48,0,1,,,,,,,,,0,,,72,0
19200,note_on,12,0,1,,,,,,,,,0,,,67,92
19200,note_on,48,0,5,,,,,,,,,4,,,51,92
19248,note_on,48,0,1,,,,,,,,,0,,,67,0
19260,note_on,12,0,1,,,,,,,,,0,,,70,92
19308,note_on,48,0,1,,,,,,,,,0,,,70,0
19320,note_on,12,0,1,,,,,,,,,0,,,63,92
19368,note_on,48,0,1,,,,,,,,,0,,,63,0
19380,note_on,12,0,1,,,,,,,,,0,,,70,92
19392,note_on,192,0,5,,,,,,,,,4,,,51,0
19428,note_on,48,0,1,,,,,,,,,0,,,70,0
19440,note_on,48,0,5,,,,,,,,,4,,,49,92
19440,note_on,12,0,1,,,,,,,,,0,,,67,92
19488,note_on,48,0,1,,,,,,,,,0,,,67,0
19500,note_on,12,0,1,,,,,,,,,0,,,70,92
19548,note_on,48,0,1,,,,,,,,,0,,,70,0
19560,note_on,12,0,1,,,,,,,,,0,,,63,92
19608,note_on,48,0,1,,,,,,,,,0,,,63,0
19620,note_on,12,0,1,,,,,,,,,0,,,70,92
19632,note_on,192,0,5,,,,,,,,,4,,,49,0
19668,note_on,48,0,1,,,,,,,,,0,,,70,0
19680,note_on,48,0,5,,,,,,,,,4,,,48,92
19680,note_on,12,0,1,,,,,,,,,0,,,68,92
19728,note_on,48,0,1,,,,,,,,,0,,,68,0
19740,note_on,12,0,1,,,,,,,,,0,,,72,92
19788,note_on,48,0,1,,,,,,,,,0,,,72,0
19800,note_on,12,0,1,,,,,,,,,0,,,63,92
19848,note_on,48,0,1,,,,,,,,,0,,,63,0
19860,note_on,12,0,1,,,,,,,,,0,,,72,92
19872,note_on,192,0,5,,,,,,,,,4,,,48,0
19908,note_on,48,0,1,,,,,,,,,0,,,72,0
19920,note_on,48,0,5,,,,,,,,,4,,,44,92
19920,note_on,12,0,1,,,,,,,,,0,,,68,92
19968,note_on,48,0,1,,,,,,,,,0,,,68,0
19980,note_on,12,0,1,,,,,,,,,0,,,72,92
20028,note_on,48,0,1,,,,,,,,,0,,,72,0
20040,note_on,12,0,1,,,,,,,,,0,,,63,92
20088,note_on,48,0,1,,,,,,,,,0,,,63,0
20100,note_on,12,0,1,,,,,,,,,0,,,72,92
20112,note_on,192,0,5,,,,,,,,,4,,,44,0
20148,note_on,48,0,1,,,,,,,,,0,,,72,0
20160,note_on,12,0,1,,,,,,,,,0,,,67,92
20160,note_on,48,0,5,,,,,,,,,4,,,51,92
20208,note_on,48,0,1,,,,,,,,,0,,,67,0
20220,note_on,12,0,1,,,,,,,,,0,,,70,92
20268,note_on,48,0,1,,,,,,,,,0,,,70,0
20280,note_on,12,0,1,,,,,,,,,0,,,63,92
20328,note_on,48,0,1,,,,,,,,,0,,,63,0
20340,note_on,12,0,1,,,,,,,,,0,,,70,92
20352,note_on,192,0,5,,,,,,,,,4,,,51,0
20388,note_on,48,0,1,,,,,,,,,0,,,70,0
20400,note_on,12,0,1,,,,,,,,,0,,,67,92
20448,note_on,48,0,1,,,,,,,,,0,,,67,0
20460,note_on,12,0,1,,,,,,,,,0,,,70,92
20508,note_on,48,0,1,,,,,,,,,0,,,70,0
20520,note_on,12,0,1,,,,,,,,,0,,,63,92
20568,note_on,48,0,1,,,,,,,,,0,,,63,0
20580,note_on,12,0,1,,,,,,,,,0,,,70,92
20628,note_on,48,0,1,,,,,,,,,0,,,70,0
20640,note_on,288,0,5,,,,,,,,,4,,,52,92
20640,note_on,12,0,1,,,,,,,,,0,,,67,92
20688,note_on,48,0,1,,,,,,,,,0,,,67,0
20700,note_on,12,0,1,,,,,,,,,0,,,72,92
20748,note_on,48,0,1,,,,,,,,,0,,,72,0
20760,note_on,12,0,1,,,,,,,,,0,,,64,92
20808,note_on,48,0,1,,,,,,,,,0,,,64,0
20820,note_on,12,0,1,,,,,,,,,0,,,72,92
20832,note_on,192,0,5,,,,,,,,,4,,,52,0
20868,note_on,48,0,1,,,,,,,,,0,,,72,0
20880,note_on,48,0,5,,,,,,,,,4,,,48,92
20880,note_on,12,0,1,,,,,,,,,0,,,67,92
20928,note_on,48,0,1,,,,,,,,,0,,,67,0
20940,note_on,12,0,1,,,,,,,,,0,,,72,92
20988,note_on,48,0,1,,,,,,,,,0,,,72,0
21000,note_on,12,0,1,,,,,,,,,0,,,64,92
21048,note_on,48,0,1,,,,,,,,,0,,,64,0
21060,note_on,12,0,1,,,,,,,,,0,,,72,92
21072,note_on,192,0,5,,,,,,,,,4,,,48,0
21108,note_on,48,0,1,,,,,,,,,0,,,72,0
21120,note_on,48,0,5,,,,,,,,,4,,,41,92
21120,note_on,12,0,1,,,,,,,,,0,,,68,92
21168,note_on,48,0,1,,,,,,,,,0,,,68,0
21180,note_on,12,0,1,,,,,,,,,0,,,72,92
21228,note_on,48,0,1,,,,,,,,,0,,,72,0
21240,note_on,12,0,1,,,,,,,,,0,,,65,92
21288,note_on,48,0,1,,,,,,,,,0,,,65,0
21300,note_on,12,0,1,,,,,,,,,0,,,72,92
21312,note_on,192,0,5,,,,,,,,,4,,,41,0
21348,note_on,48,0,1,,,,,,,,,0,,,72,0
21360,note_on,12,0,1,,,,,,,,,0,,,68,92
21408,note_on,48,0,1,,,,,,,,,0,,,68,0
21420,note_on,12,0,1,,,,,,,,,0,,,72,92
21468,note_on,48,0,1,,,,,,,,,0,,,72,0
21480,note_on,12,0,1,,,,,,,,,0,,,65,92
21528,note_on,48,0,1,,,,,,,,,0,,,65,0
21540,note_on,12,0,1,,,,,,,,,0,,,72,92
21588,note_on,48,0,1,,,,,,,,,0,,,72,0
21600,note_on,12,0,1,,,,,,,,,0,,,67,92
21600,note_on,288,0,5,,,,,,,,,4,,,52,92
21648,note_on,48,0,1,,,,,,,,,0,,,67,0
21660,note_on,12,0,1,,,,,,,,,0,,,72,92
21708,note_on,48,0,1,,,,,,,,,0,,,72,0
21720,note_on,12,0,1,,,,,,,,,0,,,64,92
21768,note_on,48,0,1,,,,,,,,,0,,,64,0
21780,note_on,12,0,1,,,,,,,,,0,,,72,92
21792,note_on,192,0,5,,,,,,,,,4,,,52,0
21828,note_on,48,0,1,,,,,,,,,0,,,72,0
21840,note_on,48,0,5,,,,,,,,,4,,,48,92
21840,note_on,12,0,1,,,,,,,,,0,,,67,92
21888,note_on,48,0,1,,,,,,,,,0,,,67,0
21900,note_on,12,0,1,,,,,,,,,0,,,72,92
21948,note_on,48,0,1,,,,,,,,,0,,,72,0
21960,note_on,12,0,1,,,,,,,,,0,,,64,92
22008,note_on,48,0,1,,,,,,,,,0,,,64,0
22020,note_on,12,0,1,,,,,,,,,0,,,72,92
22032,note_on,192,0,5,,,,,,,,,4,,,48,0
22068,note_on,48,0,1,,,,,,,,,0,,,72,0
22080,note_on,48,0,5,,,,,,,,,4,,,41,92
22080,note_on,12,0,1,,,,,,,,,0,,,68,92
22128,note_on,48,0,1,,,,,,,,,0,,,68,0
22140,note_on,12,0,1,,,,,,,,,0,,,72,92
22188,note_on,48,0,1,,,,,,,,,0,,,72,0
22200,note_on,12,0,1,,,,,,,,,0,,,65,92
22248,note_on,48,0,1,,,,,,,,,0,,,65,0
22260,note_on,12,0,1,,,,,,,,,0,,,72,92
22272,note_on,192,0,5,,,,,,,,,4,,,41,0
22308,note_on,48,0,1,,,,,,,,,0,,,72,0
22320,note_on,12,0,1,,,,,,,,,0,,,68,92
22368,note_on,48,0,1,,,,,,,,,0,,,68,0
22380,note_on,12,0,1,,,,,,,,,0,,,72,92
22428,note_on,48,0,1,,,,,,,,,0,,,72,0
22440,note_on,12,0,1,,,,,,,,,0,,,65,92
22488,note_on,48,0,1,,,,,,,,,0,,,65,0
22500,note_on,12,0,1,,,,,,,,,0,,,72,92
22548,note_on,48,0,1,,,,,,,,,0,,,72,0
22560,note_on,12,0,1,,,,,,,,,0,,,69,92
22560,note_on,288,0,5,,,,,,,,,4,,,54,92
22608,note_on,48,0,1,,,,,,,,,0,,,69,0
22620,note_on,12,0,1,,,,,,,,,0,,,72,92
22668,note_on,48,0,1,,,,,,,,,0,,,72,0
22680,note_on,12,0,1,,,,,,,,,0,,,66,92
22728,note_on,48,0,1,,,,,,,,,0,,,66,0
22740,note_on,12,0,1,,,,,,,,,0,,,72,92
22752,note_on,192,0,5,,,,,,,,,4,,,54,0
22788,note_on,48,0,1,,,,,,,,,0,,,72,0
22800,note_on,12,0,1,,,,,,,,,0,,,69,92
22800,note_on,48,0,5,,,,,,,,,4,,,50,92
22848,note_on,48,0,1,,,,,,,,,0,,,69,0
22860,note_on,12,0,1,,,,,,,,,0,,,72,92
22908,note_on,48,0,1,,,,,,,,,0,,,72,0
22920,note_on,12,0,1,,,,,,,,,0,,,66,92
22968,note_on,48,0,1,,,,,,,,,0,,,66,0
22980,note_on,12,0,1,,,,,,,,,0,,,72,92
22992,note_on,192,0,5,,,,,,,,,4,,,50,0
23028,note_on,48,0,1,,,,,,,,,0,,,72,0
23040,note_on,12,0,1,,,,,,,,,0,,,70,92
23040,note_on,48,0,5,,,,,,,,,4,,,43,92
23088,note_on,48,0,1,,,,,,,,,0,,,70,0
23100,note_on,12,0,1,,,,,,,,,0,,,74,92
23148,note_on,48,0,1,,,,,,,,,0,,,74,0
23160,note_on,12,0,1,,,,,,,,,0,,,67,92
23208,note_on,48,0,1,,,,,,,,,0,,,67,0
23220,note_on,12,0,1,,,,,,,,,0,,,74,92
23232,note_on,192,0,5,,,,,,,,,4,,,43,0
23268,note_on,48,0,1,,,,,,,,,0,,,74,0
23280,note_on,12,0,1,,,,,,,,,0,,,70,92
23328,note_on,48,0,1,,,,,,,,,0,,,70,0
23340,note_on,12,0,1,,,,,,,,,0,,,74,92
23388,note_on,48,0,1,,,,,,,,,0,,,74,0
23400,note_on,12,0,1,,,,,,,,,0,,,67,92
23448,note_on,48,0,1,,,,,,,,,0,,,67,0
23460,note_on,12,0,1,,,,,,,,,0,,,74,92
23508,note_on,48,0,1,,,,,,,,,0,,,74,0
23520,note_on,12,0,1,,,,,,,,,0,,,69,92
23520,note_on,288,0,5,,,,,,,,,4,,,54,92
23568,note_on,48,0,1,,,,,,,,,0,,,69,0
23580,note_on,12,0,1,,,,,,,,,0,,,74,92
23628,note_on,48,0,1,,,,,,,,,0,,,74,0
23640,note_on,12,0,1,,,,,,,,,0,,,66,92
23688,note_on,48,0,1,,,,,,,,,0,,,66,0
23700,note_on,12,0,1,,,,,,,,,0,,,74,92
23712,note_on,192,0,5,,,,,,,,,4,,,54,0
23748,note_on,48,0,1,,,,,,,,,0,,,74,0
23760,note_on,12,0,1,,,,,,,,,0,,,69,92
23760,note_on,48,0,5,,,,,,,,,4,,,50,92
23808,note_on,48,0,1,,,,,,,,,0,,,69,0
23820,note_on,12,0,1,,,,,,,,,0,,,74,92
23868,note_on,48,0,1,,,,,,,,,0,,,74,0
23880,note_on,12,0,1,,,,,,,,,0,,,66,92
23928,note_on,48,0,1,,,,,,,,,0,,,66,0
23940,note_on,12,0,1,,,,,,,,,0,,,74,92
23952,note_on,192,0,5,,,,,,,,,4,,,50,0
23988,note_on,48,0,1,,,,,,,,,0,,,74,0
24000,note_on,48,0,5,,,,,,,,,4,,,43,92
24000,note_on,12,0,1,,,,,,,,,0,,,70,92
24048,note_on,48,0,1,,,,,,,,,0,,,70,0
24060,note_on,12,0,1,,,,,,,,,0,,,74,92
24108,note_on,48,0,1,,,,,,,,,0,,,74,0
24120,note_on,12,0,1,,,,,,,,,0,,,67,92
24168,note_on,48,0,1,,,,,,,,,0,,,67,0
24180,note_on,12,0,1,,,,,,,,,0,,,74,92
24192,note_on,192,0,5,,,,,,,,,4,,,43,0
24228,note_on,48,0,1,,,,,,,,,0,,,74,0
24240,note_on,12,0,1,,,,,,,,,0,,,70,92
24288,note_on,48,0,1,,,,,,,,,0,,,70,0
24300,note_on,12,0,1,,,,,,,,,0,,,74,92
24348,note_on,48,0,1,,,,,,,,,0,,,74,0
24360,note_on,12,0,1,,,,,,,,,0,,,67,92
24408,note_on,48,0,1,,,,,,,,,0,,,67,0
24420,note_on,12,0,1,,,,,,,,,0,,,74,92
24468,note_on,48,0,1,,,,,,,,,0,,,74,0
24480,note_on,288,0,5,,,,,,,,,4,,,58,92
24480,note_on,12,0,1,,,,,,,,,0,,,74,92
24528,note_on,48,0,1,,,,,,,,,0,,,74,0
24540,note_on,12,0,1,,,,,,,,,0,,,77,92
24588,note_on,48,0,1,,,,,,,,,0,,,77,0
24600,note_on,12,0,1,,,,,,,,,0,,,70,92
24648,note_on,48,0,1,,,,,,,,,0,,,70,0
24660,note_on,12,0,1,,,,,,,,,0,,,77,92
24672,note_on,192,0,5,,,,,,,,,4,,,58,0
24708,note_on,48,0,1,,,,,,,,,0,,,77,0
24720,note_on,12,0,1,,,,,,,,,0,,,74,92
24720,note_on,48,0,5,,,,,,,,,4,,,55,92
24768,note_on,48,0,1,,,,,,,,,0,,,74,0
24780,note_on,12,0,1,,,,,,,,,0,,,77,92
24828,note_on,48,0,1,,,,,,,,,0,,,77,0
24840,note_on,12,0,1,,,,,,,,,0,,,70,92
24888,note_on,48,0,1,,,,,,,,,0,,,70,0
24900,note_on,12,0,1,,,,,,,,,0,,,77,92
24912,note_on,192,0,5,,,,,,,,,4,,,55,0
24948,note_on,48,0,1,,,,,,,,,0,,,77,0
24960,note_on,48,0,5,,,,,,,,,4,,,51,92
24960,note_on,12,0,1,,,,,,,,,0,,,75,92
25008,note_on,48,0,1,,,,,,,,,0,,,75,0
25020,note_on,12,0,1,,,,,,,,,0,,,79,92
25068,note_on,48,0,1,,,,,,,,,0,,,79,0
25080,note_on,12,0,1,,,,,,,,,0,,,70,92
25128,note_on,48,0,1,,,,,,,,,0,,,70,0
25140,note_on,12,0,1,,,,,,,,,0,,,79,92
25152,note_on,192,0,5,,,,,,,,,4,,,51,0
25188,note_on,48,0,1,,,,,,,,,0,,,79,0
25200,note_on,48,0,5,,,,,,,,,4,,,43,92
25200,note_on,12,0,1,,,,,,,,,0,,,75,92
25248,note_on,48,0,1,,,,,,,,,0,,,75,0
25260,note_on,12,0,1,,,,,,,,,0,,,79,92
25308,note_on,48,0,1,,,,,,,,,0,,,79,0
25320,note_on,12,0,1,,,,,,,,,0,,,70,92
25368,note_on,48,0,1,,,,,,,,,0,,,70,0
25380,note_on,12,0,1,,,,,,,,,0,,,79,92
25392,note_on,192,0,5,,,,,,,,,4,,,43,0
25428,note_on,48,0,1,,,,,,,,,0,,,79,0
25440,note_on,12,0,1,,,,,,,,,0,,,74,92
25440,note_on,48,0,5,,,,,,,,,4,,,58,92
25488,note_on,48,0,1,,,,,,,,,0,,,74,0
25500,note_on,12,0,1,,,,,,,,,0,,,77,92
25548,note_on,48,0,1,,,,,,,,,0,,,77,0
25560,note_on,12,0,1,,,,,,,,,0,,,70,92
25608,note_on,48,0,1,,,,,,,,,0,,,70,0
25620,note_on,12,0,1,,,,,,,,,0,,,77,92
25632,note_on,192,0,5,,,,,,,,,4,,,58,0
25668,note_on,48,0,1,,,,,,,,,0,,,77,0
25680,note_on,12,0,1,,,,,,,,,0,,,74,92
25680,note_on,48,0,5,,,,,,,,,4,,,46,92
25728,note_on,48,0,1,,,,,,,,,0,,,74,0
25740,note_on,12,0,1,,,,,,,,,0,,,77,92
25788,note_on,48,0,1,,,,,,,,,0,,,77,0
25800,note_on,12,0,1,,,,,,,,,0,,,70,92
25848,note_on,48,0,1,,,,,,,,,0,,,70,0
25860,note_on,12,0,1,,,,,,,,,0,,,77,92
25872,note_on,192,0,5,,,,,,,,,4,,,46,0
25908,note_on,48,0,1,,,,,,,,,0,,,77,0
25920,note_on,12,0,1,,,,,,,,,0,,,63,92
25920,note_on,10848,0,2,,,,,,,,,1,,,63,92
25920,note_on,48,0,5,,,,,,,,,4,,,39,92
25920,note_on,10848,0,3,,,,,,,,,2,,,63,92
25920,note_on,10368,0,4,,,,,,,,,3,,,55,92
25950,note_on,30,0,1,,,,,,,,,0,,,70,92
25968,note_on,48,0,2,,,,,,,,,1,,,63,0
25968,note_on,48,0,3,,,,,,,,,2,,,63,0
25980,note_on,30,0,1,,,,,,,,,0,,,79,92
25980,note_on,12,0,2,,,,,,,,,1,,,63,92
25980,note_on,12,0,3,,,,,,,,,2,,,63,92
26016,note_on,96,0,4,,,,,,,,,3,,,55,0
26028,note_on,48,0,3,,,,,,,,,2,,,63,0
26028,note_on,48,0,2,,,,,,,,,1,,,63,0
26040,note_on,12,0,3,,,,,,,,,2,,,63,92
26040,note_on,12,0,2,,,,,,,,,1,,,63,92
26040,note_on,24,0,4,,,,,,,,,3,,,55,92
26088,note_on,48,0,2,,,,,,,,,1,,,63,0
26088,note_on,48,0,3,,,,,,,,,2,,,63,0
26100,note_on,12,0,3,,,,,,,,,2,,,63,92
26100,note_on,12,0,2,,,,,,,,,1,,,63,92
26112,note_on,192,0,5,,,,,,,,,4,,,39,0
26124,note_on,0,0,1,,,,,,,,,0,,,63,0
26124,note_on,0,0,1,,,,,,,,,0,,,70,0
26124,note_on,144,0,1,,,,,,,,,0,,,79,0
26136,note_on,96,0,4,,,,,,,,,3,,,55,0
26148,note_on,48,0,3,,,,,,,,,2,,,63,0
26148,note_on,48,0,2,,,,,,,,,1,,,63,0
26160,note_on,12,0,3,,,,,,,,,2,,,63,92
26160,note_on,24,0,4,,,,,,,,,3,,,55,92
26160,note_on,48,0,5,,,,,,,,,4,,,51,92
26160,note_on,12,0,2,,,,,,,,,1,,,63,92
26208,note_on,48,0,3,,,,,,,,,2,,,63,0
26208,note_on,48,0,5,,,,,,,,,4,,,51,0
26208,note_on,48,0,2,,,,,,,,,1,,,63,0
26220,note_on,12,0,3,,,,,,,,,2,,,63,92
26220,note_on,12,0,5,,,,,,,,,4,,,53,92
26220,note_on,12,0,2,,,,,,,,,1,,,63,92
26256,note_on,96,0,4,,,,,,,,,3,,,55,0
26268,note_on,48,0,3,,,,,,,,,2,,,63,0
26268,note_on,48,0,2,,,,,,,,,1,,,63,0
26268,note_on,48,0,5,,,,,,,,,4,,,53,0
26280,note_on,12,0,3,,,,,,,,,2,,,63,92
26280,note_on,24,0,4,,,,,,,,,3,,,55,92
26280,note_on,12,0,2,,,,,,,,,1,,,63,92
26280,note_on,12,0,5,,,,,,,,,4,,,55,92
26328,note_on,48,0,3,,,,,,,,,2,,,63,0
26328,note_on,48,0,5,,,,,,,,,4,,,55,0
26328,note_on,48,0,2,,,,,,,,,1,,,63,0
26340,note_on,12,0,2,,,,,,,,,1,,,63,92
26340,note_on,12,0,3,,,,,,,,,2,,,63,92
26340,note_on,12,0,5,,,,,,,,,4,,,51,92
26376,note_on,96,0,4,,,,,,,,,3,,,55,0
26388,note_on,48,0,3,,,,,,,,,2,,,63,0
26388,note_on,48,0,2,,,,,,,,,1,,,63,0
26388,note_on,48,0,5,,,,,,,,,4,,,51,0
26400,note_on,12,0,5,,,,,,,,,4,,,50,92
26400,note_on,12,0,2,,,,,,,,,1,,,70,92
26400,note_on,24,0,4,,,,,,,,,3,,,65,92
26400,note_on,12,0,3,,,,,,,,,2,,,70,92
26448,note_on,48,0,2,,,,,,,,,1,,,70,0
26448,note_on,48,0,3,,,,,,,,,2,,,70,0
26448,note_on,48,0,4,,,,,,,,,3,,,65,0
26448,note_on,48,0,5,,,,,,,,,4,,,50,0
26460,note_on,12,0,3,,,,,,,,,2,,,70,92
26460,note_on,12,0,5,,,,,,,,,4,,,48,92
26460,note_on,12,0,2,,,,,,,,,1,,,70,92
26460,note_on,12,0,4,,,,,,,,,3,,,63,92
26508,note_on,48,0,3,,,,,,,,,2,,,70,0
26508,note_on,48,0,5,,,,,,,,,4,,,48,0
26508,note_on,48,0,2,,,,,,,,,1,,,70,0
26508,note_on,48,0,4,,,,,,,,,3,,,63,0
26520,note_on,12,0,2,,,,,,,,,1,,,70,92
26520,note_on,12,0,4,,,,,,,,,3,,,62,92
26520,note_on,12,0,3,,,,,,,,,2,,,70,92
26520,note_on,12,0,5,,,,,,,,,4,,,46,92
26568,note_on,48,0,4,,,,,,,,,3,,,62,0
26568,note_on,48,0,3,,,,,,,,,2,,,70,0
26568,note_on,48,0,5,,,,,,,,,4,,,46,0
26568,note_on,48,0,2,,,,,,,,,1,,,70,0
26580,note_on,12,0,3,,,,,,,,,2,,,70,92
26580,note_on,12,0,5,,,,,,,,,4,,,44,92
26580,note_on,12,0,2,,,,,,,,,1,,,70,92
26580,note_on,12,0,4,,,,,,,,,3,,,60,92
26628,note_on,48,0,5,,,,,,,,,4,,,44,0
26628,note_on,48,0,4,,,,,,,,,3,,,60,0
26628,note_on,48,0,3,,,,,,,,,2,,,70,0
26628,note_on,48,0,2,,,,,,,,,1,,,70,0
26640,note_on,12,0,2,,,,,,,,,1,,,70,92
26640,note_on,12,0,5,,,,,,,,,4,,,43,92
26640,note_on,12,0,4,,,,,,,,,3,,,58,92
26640,note_on,12,0,3,,,,,,,,,2,,,70,92
26688,note_on,48,0,2,,,,,,,,,1,,,70,0
26688,note_on,48,0,4,,,,,,,,,3,,,58,0
26688,note_on,48,0,3,,,,,,,,,2,,,70,0
26688,note_on,48,0,5,,,,,,,,,4,,,43,0
26700,note_on,12,0,5,,,,,,,,,4,,,41,92
26700,note_on,12,0,4,,,,,,,,,3,,,56,92
26700,note_on,12,0,2,,,,,,,,,1,,,70,92
26700,note_on,12,0,3,,,,,,,,,2,,,70,92
26748,note_on,48,0,5,,,,,,,,,4,,,41,0
26748,note_on,48,0,3,,,,,,,,,2,,,70,0
26748,note_on,48,0,2,,,,,,,,,1,,,70,0
26748,note_on,48,0,4,,,,,,,,,3,,,56,0
26760,note_on,12,0,5,,,,,,,,,4,,,39,92
26760,note_on,12,0,2,,,,,,,,,1,,,70,92
26760,note_on,12,0,4,,,,,,,,,3,,,55,92
26760,note_on,12,0,3,,,,,,,,,2,,,70,92
26808,note_on,48,0,3,,,,,,,,,2,,,70,0
26808,note_on,48,0,5,,,,,,,,,4,,,39,0
26808,note_on,48,0,2,,,,,,,,,1,,,70,0
26808,note_on,48,0,4,,,,,,,,,3,,,55,0
26820,note_on,12,0,2,,,,,,,,,1,,,70,92
26820,note_on,12,0,3,,,,,,,,,2,,,70,92
26820,note_on,12,0,5,,,,,,,,,4,,,38,92
26820,note_on,12,0,4,,,,,,,,,3,,,53,92
26868,note_on,48,0,5,,,,,,,,,4,,,38,0
26868,note_on,48,0,4,,,,,,,,,3,,,53,0
26868,note_on,48,0,3,,,,,,,,,2,,,70,0
26868,note_on,48,0,2,,,,,,,,,1,,,70,0
26880,note_on,12,0,4,,,,,,,,,3,,,55,92
26880,note_on,12,0,3,,,,,,,,,2,,,75,92
26880,note_on,756,0,1,,,,,,,,,0,,,82,92
26880,note_on,12,0,5,,,,,,,,,4,,,39,92
26880,note_on,12,0,2,,,,,,,,,1,,,75,92
26940,note_on,0,0,1,,,,,,,,,0,,,80,92
26940,note_on,60,0,1,,,,,,,,,0,,,82,0
26988,note_on,48,0,1,,,,,,,,,0,,,80,0
27000,note_on,12,0,1,,,,,,,,,0,,,79,92
27060,note_on,0,0,1,,,,,,,,,0,,,77,92
27060,note_on,60,0,1,,,,,,,,,0,,,79,0
27072,note_on,192,0,5,,,,,,,,,4,,,39,0
27072,note_on,192,0,2,,,,,,,,,1,,,75,0
27072,note_on,192,0,4,,,,,,,,,3,,,55,0
27072,note_on,192,0,3,,,,,,,,,2,,,75,0
27108,note_on,48,0,1,,,,,,,,,0,,,77,0
27120,note_on,12,0,1,,,,,,,,,0,,,79,92
27180,note_on,0,0,1,,,,,,,,,0,,,77,92
27180,note_on,60,0,1,,,,,,,,,0,,,79,0
27228,note_on,48,0,1,,,,,,,,,0,,,77,0
27240,note_on,12,0,1,,,,,,,,,0,,,75,92
27300,note_on,0,0,1,,,,,,,,,0,,,74,92
27300,note_on,60,0,1,,,,,,,,,0,,,75,0
27348,note_on,48,0,1,,,,,,,,,0,,,74,0
27360,note_on,12,0,1,,,,,,,,,0,,,75,92
27420,note_on,0,0,1,,,,,,,,,0,,,74,92
27420,note_on,60,0,1,,,,,,,,,0,,,75,0
27468,note_on,48,0,1,,,,,,,,,0,,,74,0
27480,note_on,12,0,1,,,,,,,,,0,,,72,92
27540,note_on,0,0,1,,,,,,,,,0,,,70,92
27540,note_on,60,0,1,,,,,,,,,0,,,72,0
27588,note_on,48,0,1,,,,,,,,,0,,,70,0
27600,note_on,12,0,1,,,,,,,,,0,,,72,92
27660,note_on,60,0,1,,,,,,,,,0,,,72,0
27660,note_on,0,0,1,,,,,,,,,0,,,70,92
27708,note_on,48,0,1,,,,,,,,,0,,,70,0
27720,note_on,12,0,1,,,,,,,,,0,,,68,92
27780,note_on,0,0,1,,,,,,,,,0,,,67,92
27780,note_on,60,0,1,,,,,,,,,0,,,68,0
27828,note_on,48,0,1,,,,,,,,,0,,,67,0
27840,note_on,768,0,5,,,,,,,,,4,,,48,92
27840,note_on,768,0,4,,,,,,,,,3,,,60,92
27840,note_on,12,0,1,,,,,,,,,0,,,68,92
27888,note_on,48,0,1,,,,,,,,,0,,,68,0
27900,note_on,12,0,1,,,,,,,,,0,,,63,92
27936,note_on,96,0,5,,,,,,,,,4,,,48,0
27936,note_on,96,0,4,,,,,,,,,3,,,60,0
27948,note_on,48,0,1,,,,,,,,,0,,,63,0
27960,note_on,24,0,5,,,,,,,,,4,,,44,92
27960,note_on,24,0,4,,,,,,,,,3,,,56,92
27960,note_on,12,0,1,,,,,,,,,0,,,60,92
28008,note_on,48,0,1,,,,,,,,,0,,,60,0
28008,note_on,48,0,4,,,,,,,,,3,,,56,0
28008,note_on,48,0,5,,,,,,,,,4,,,44,0
28020,note_on,12,0,5,,,,,,,,,4,,,46,92
28020,note_on,12,0,1,,,,,,,,,0,,,63,92
28020,note_on,12,0,4,,,,,,,,,3,,,58,92
28068,note_on,48,0,1,,,,,,,,,0,,,63,0
28068,note_on,48,0,4,,,,,,,,,3,,,58,0
28068,note_on,48,0,5,,,,,,,,,4,,,46,0
28080,note_on,12,0,4,,,,,,,,,3,,,60,92
28080,note_on,12,0,5,,,,,,,,,4,,,48,92
28080,note_on,12,0,1,,,,,,,,,0,,,68,92
28128,note_on,48,0,1,,,,,,,,,0,,,68,0
28140,note_on,12,0,1,,,,,,,,,0,,,63,92
28176,note_on,96,0,5,,,,,,,,,4,,,48,0
28176,note_on,96,0,4,,,,,,,,,3,,,60,0
28188,note_on,48,0,1,,,,,,,,,0,,,63,0
28200,note_on,24,0,4,,,,,,,,,3,,,60,92
28200,note_on,24,0,5,,,,,,,,,4,,,48,92
28200,note_on,12,0,1,,,,,,,,,0,,,60,92
28248,note_on,48,0,1,,,,,,,,,0,,,60,0
28260,note_on,12,0,1,,,,,,,,,0,,,63,92
28296,note_on,96,0,4,,,,,,,,,3,,,60,0
28296,note_on,96,0,5,,,,,,,,,4,,,48,0
28308,note_on,48,0,1,,,,,,,,,0,,,63,0
28320,note_on,12,0,1,,,,,,,,,0,,,68,92
28320,note_on,24,0,4,,,,,,,,,3,,,60,92
28320,note_on,24,0,5,,,,,,,,,4,,,48,92
28320,note_on,1248,0,3,,,,,,,,,2,,,60,92
28320,note_on,1248,0,2,,,,,,,,,1,,,60,92
28368,note_on,48,0,1,,,,,,,,,0,,,68,0
28380,note_on,12,0,1,,,,,,,,,0,,,63,92
28416,note_on,96,0,3,,,,,,,,,2,,,60,0
28416,note_on,96,0,2,,,,,,,,,1,,,60,0
28428,note_on,48,0,1,,,,,,,,,0,,,63,0
28440,note_on,24,0,2,,,,,,,,,1,,,56,92
28440,note_on,24,0,3,,,,,,,,,2,,,56,92
28440,note_on,12,0,1,,,,,,,,,0,,,60,92
28488,note_on,48,0,2,,,,,,,,,1,,,56,0
28488,note_on,48,0,3,,,,,,,,,2,,,56,0
28488,note_on,48,0,1,,,,,,,,,0,,,60,0
28500,note_on,12,0,1,,,,,,,,,0,,,63,92
28500,note_on,12,0,2,,,,,,,,,1,,,58,92
28500,note_on,12,0,3,,,,,,,,,2,,,58,92
28512,note_on,192,0,5,,,,,,,,,4,,,48,0
28512,note_on,192,0,4,,,,,,,,,3,,,60,0
28548,note_on,48,0,3,,,,,,,,,2,,,58,0
28548,note_on,48,0,2,,,,,,,,,1,,,58,0
28548,note_on,48,0,1,,,,,,,,,0,,,63,0
28560,note_on,12,0,2,,,,,,,,,1,,,60,92
28560,note_on,12,0,1,,,,,,,,,0,,,68,92
28560,note_on,12,0,3,,,,,,,,,2,,,60,92
28608,note_on,48,0,1,,,,,,,,,0,,,68,0
28620,note_on,12,0,1,,,,,,,,,0,,,63,92
28656,note_on,96,0,2,,,,,,,,,1,,,60,0
28656,note_on,96,0,3,,,,,,,,,2,,,60,0
28668,note_on,48,0,1,,,,,,,,,0,,,63,0
28680,note_on,24,0,3,,,,,,,,,2,,,60,92
28680,note_on,24,0,2,,,,,,,,,1,,,60,92
28680,note_on,12,0,1,,,,,,,,,0,,,60,92
28728,note_on,48,0,1,,,,,,,,,0,,,60,0
28740,note_on,12,0,1,,,,,,,,,0,,,63,92
28776,note_on,96,0,3,,,,,,,,,2,,,60,0
28776,note_on,96,0,2,,,,,,,,,1,,,60,0
28788,note_on,48,0,1,,,,,,,,,0,,,63,0
28800,note_on,12,0,1,,,,,,,,,0,,,84,92
28800,note_on,24,0,3,,,,,,,,,2,,,60,92
28800,note_on,24,0,2,,,,,,,,,1,,,60,92
28860,note_on,60,0,1,,,,,,,,,0,,,84,0
28860,note_on,0,0,1,,,,,,,,,0,,,82,92
28908,note_on,48,0,1,,,,,,,,,0,,,82,0
28920,note_on,12,0,1,,,,,,,,,0,,,80,92
28980,note_on,60,0,1,,,,,,,,,0,,,80,0
28980,note_on,0,0,1,,,,,,,,,0,,,79,92
28992,note_on,192,0,3,,,,,,,,,2,,,60,0
28992,note_on,192,0,2,,,,,,,,,1,,,60,0
29028,note_on,48,0,1,,,,,,,,,0,,,79,0
29040,note_on,12,0,1,,,,,,,,,0,,,80,92
29100,note_on,60,0,1,,,,,,,,,0,,,80,0
29100,note_on,0,0,1,,,,,,,,,0,,,79,92
29148,note_on,48,0,1,,,,,,,,,0,,,79,0
29160,note_on,12,0,1,,,,,,,,,0,,,77,92
29220,note_on,60,0,1,,,,,,,,,0,,,77,0
29220,note_on,0,0,1,,,,,,,,,0,,,75,92
29268,note_on,48,0,1,,,,,,,,,0,,,75,0
29280,note_on,12,0,1,,,,,,,,,0,,,77,92
29340,note_on,60,0,1,,,,,,,,,0,,,77,0
29340,note_on,0,0,1,,,,,,,,,0,,,75,92
29388,note_on,48,0,1,,,,,,,,,0,,,75,0
29400,note_on,12,0,1,,,,,,,,,0,,,74,92
29460,note_on,60,0,1,,,,,,,,,0,,,74,0
29460,note_on,0,0,1,,,,,,,,,0,,,72,92
29508,note_on,48,0,1,,,,,,,,,0,,,72,0
29520,note_on,12,0,1,,,,,,,,,0,,,74,92
29580,note_on,60,0,1,,,,,,,,,0,,,74,0
29580,note_on,0,0,1,,,,,,,,,0,,,72,92
29628,note_on,48,0,1,,,,,,,,,0,,,72,0
29640,note_on,12,0,1,,,,,,,,,0,,,70,92
29700,note_on,0,0,1,,,,,,,,,0,,,68,92
29700,note_on,60,0,1,,,,,,,,,0,,,70,0
29748,note_on,48,0,1,,,,,,,,,0,,,68,0
29760,note_on,12,0,1,,,,,,,,,0,,,70,92
29760,note_on,1248,0,5,,,,,,,,,4,,,50,92
29760,note_on,1248,0,4,,,,,,,,,3,,,62,92
29808,note_on,48,0,1,,,,,,,,,0,,,70,0
29820,note_on,12,0,1,,,,,,,,,0,,,65,92
29856,note_on,96,0,5,,,,,,,,,4,,,50,0
29856,note_on,96,0,4,,,,,,,,,3,,,62,0
29868,note_on,48,0,1,,,,,,,,,0,,,65,0
29880,note_on,24,0,4,,,,,,,,,3,,,58,92
29880,note_on,12,0,1,,,,,,,,,0,,,62,92
29880,note_on,24,0,5,,,,,,,,,4,,,46,92
29928,note_on,48,0,5,,,,,,,,,4,,,46,0
29928,note_on,48,0,1,,,,,,,,,0,,,62,0
29928,note_on,48,0,4,,,,,,,,,3,,,58,0
29940,note_on,12,0,4,,,,,,,,,3,,,60,92
29940,note_on,12,0,5,,,,,,,,,4,,,48,92
29940,note_on,12,0,1,,,,,,,,,0,,,65,92
29988,note_on,48,0,4,,,,,,,,,3,,,60,0
29988,note_on,48,0,1,,,,,,,,,0,,,65,0
29988,note_on,48,0,5,,,,,,,,,4,,,48,0
30000,note_on,12,0,5,,,,,,,,,4,,,50,92
30000,note_on,12,0,4,,,,,,,,,3,,,62,92
30000,note_on,12,0,1,,,,,,,,,0,,,70,92
30048,note_on,48,0,1,,,,,,,,,0,,,70,0
30060,note_on,12,0,1,,,,,,,,,0,,,65,92
30096,note_on,96,0,4,,,,,,,,,3,,,62,0
30096,note_on,96,0,5,,,,,,,,,4,,,50,0
30108,note_on,48,0,1,,,,,,,,,0,,,65,0
30120,note_on,12,0,1,,,,,,,,,0,,,62,92
30120,note_on,24,0,4,,,,,,,,,3,,,62,92
30120,note_on,24,0,5,,,,,,,,,4,,,50,92
30168,note_on,48,0,1,,,,,,,,,0,,,62,0
30180,note_on,12,0,1,,,,,,,,,0,,,65,92
30216,note_on,96,0,4,,,,,,,,,3,,,62,0
30216,note_on,96,0,5,,,,,,,,,4,,,50,0
30228,note_on,48,0,1,,,,,,,,,0,,,65,0
30240,note_on,1248,0,3,,,,,,,,,2,,,62,92
30240,note_on,24,0,5,,,,,,,,,4,,,50,92
30240,note_on,12,0,1,,,,,,,,,0,,,70,92
30240,note_on,24,0,4,,,,,,,,,3,,,62,92
30240,note_on,1248,0,2,,,,,,,,,1,,,62,92
30288,note_on,48,0,1,,,,,,,,,0,,,70,0
30300,note_on,12,0,1,,,,,,,,,0,,,65,92
30336,note_on,96,0,3,,,,,,,,,2,,,62,0
30336,note_on,96,0,2,,,,,,,,,1,,,62,0
30348,note_on,48,0,1,,,,,,,,,0,,,65,0
30360,note_on,12,0,1,,,,,,,,,0,,,62,92
30360,note_on,24,0,2,,,,,,,,,1,,,58,92
30360,note_on,24,0,3,,,,,,,,,2,,,58,92
30408,note_on,48,0,1,,,,,,,,,0,,,62,0
30408,note_on,48,0,2,,,,,,,,,1,,,58,0
30408,note_on,48,0,3,,,,,,,,,2,,,58,0
30420,note_on,12,0,1,,,,,,,,,0,,,65,92
30420,note_on,12,0,2,,,,,,,,,1,,,60,92
30420,note_on,12,0,3,,,,,,,,,2,,,60,92
30432,note_on,192,0,4,,,,,,,,,3,,,62,0
30432,note_on,192,0,5,,,,,,,,,4,,,50,0
30468,note_on,48,0,1,,,,,,,,,0,,,65,0
30468,note_on,48,0,2,,,,,,,,,1,,,60,0
30468,note_on,48,0,3,,,,,,,,,2,,,60,0
30480,note_on,12,0,1,,,,,,,,,0,,,70,92
30480,note_on,12,0,3,,,,,,,,,2,,,62,92
30480,note_on,12,0,2,,,,,,,,,1,,,62,92
30528,note_on,48,0,1,,,,,,,,,0,,,70,0
30540,note_on,12,0,1,,,,,,,,,0,,,65,92
30576,note_on,96,0,2,,,,,,,,,1,,,62,0
30576,note_on,96,0,3,,,,,,,,,2,,,62,0
30588,note_on,48,0,1,,,,,,,,,0,,,65,0
30600,note_on,12,0,1,,,,,,,,,0,,,62,92
30600,note_on,24,0,2,,,,,,,,,1,,,62,92
30600,note_on,24,0,3,,,,,,,,,2,,,62,92
30648,note_on,48,0,1,,,,,,,,,0,,,62,0
30660,note_on,12,0,1,,,,,,,,,0,,,65,92
30696,note_on,96,0,2,,,,,,,,,1,,,62,0
30696,note_on,96,0,3,,,,,,,,,2,,,62,0
30708,note_on,48,0,1,,,,,,,,,0,,,65,0
30720,note_on,12,0,1,,,,,,,,,0,,,86,92
30720,note_on,24,0,3,,,,,,,,,2,,,62,92
30720,note_on,24,0,2,,,,,,,,,1,,,62,92
30780,note_on,0,0,1,,,,,,,,,0,,,84,92
30780,note_on,60,0,1,,,,,,,,,0,,,86,0
30828,note_on,48,0,1,,,,,,,,,0,,,84,0
30840,note_on,12,0,1,,,,,,,,,0,,,82,92
30900,note_on,0,0,1,,,,,,,,,0,,,80,92
30900,note_on,60,0,1,,,,,,,,,0,,,82,0
30912,note_on,192,0,3,,,,,,,,,2,,,62,0
30912,note_on,192,0,2,,,,,,,,,1,,,62,0
30948,note_on,48,0,1,,,,,,,,,0,,,80,0
30960,note_on,12,0,1,,,,,,,,,0,,,82,92
31020,note_on,60,0,1,,,,,,,,,0,,,82,0
31020,note_on,0,0,1,,,,,,,,,0,,,80,92
31068,note_on,48,0,1,,,,,,,,,0,,,80,0
31080,note_on,12,0,1,,,,,,,,,0,,,79,92
31140,note_on,0,0,1,,,,,,,,,0,,,77,92
31140,note_on,60,0,1,,,,,,,,,0,,,79,0
31188,note_on,48,0,1,,,,,,,,,0,,,77,0
31200,note_on,12,0,1,,,,,,,,,0,,,79,92
31260,note_on,0,0,1,,,,,,,,,0,,,77,92
31260,note_on,60,0,1,,,,,,,,,0,,,79,0
31308,note_on,48,0,1,,,,,,,,,0,,,77,0
31320,note_on,12,0,1,,,,,,,,,0,,,75,92
31380,note_on,60,0,1,,,,,,,,,0,,,75,0
31380,note_on,0,0,1,,,,,,,,,0,,,74,92
31428,note_on,48,0,1,,,,,,,,,0,,,74,0
31440,note_on,12,0,1,,,,,,,,,0,,,75,92
31500,note_on,0,0,1,,,,,,,,,0,,,74,92
31500,note_on,60,0,1,,,,,,,,,0,,,75,0
31548,note_on,48,0,1,,,,,,,,,0,,,74,0
31560,note_on,12,0,1,,,,,,,,,0,,,72,92
31620,note_on,0,0,1,,,,,,,,,0,,,70,92
31620,note_on,60,0,1,,,,,,,,,0,,,72,0
31668,note_on,48,0,1,,,,,,,,,0,,,70,0
31680,note_on,1248,0,5,,,,,,,,,4,,,51,92
31680,note_on,12,0,1,,,,,,,,,0,,,72,92
31680,note_on,1248,0,4,,,,,,,,,3,,,63,92
31728,note_on,48,0,1,,,,,,,,,0,,,72,0
31740,note_on,12,0,1,,,,,,,,,0,,,67,92
31776,note_on,96,0,5,,,,,,,,,4,,,51,0
31776,note_on,96,0,4,,,,,,,,,3,,,63,0
31788,note_on,48,0,1,,,,,,,,,0,,,67,0
31800,note_on,24,0,4,,,,,,,,,3,,,60,92
31800,note_on,12,0,1,,,,,,,,,0,,,63,92
31800,note_on,24,0,5,,,,,,,,,4,,,48,92
31848,note_on,48,0,4,,,,,,,,,3,,,60,0
31848,note_on,48,0,1,,,,,,,,,0,,,63,0
31848,note_on,48,0,5,,,,,,,,,4,,,48,0
31860,note_on,12,0,1,,,,,,,,,0,,,67,92
31860,note_on,12,0,4,,,,,,,,,3,,,62,92
31860,note_on,12,0,5,,,,,,,,,4,,,50,92
31908,note_on,48,0,4,,,,,,,,,3,,,62,0
31908,note_on,48,0,5,,,,,,,,,4,,,50,0
31908,note_on,48,0,1,,,,,,,,,0,,,67,0
31920,note_on,12,0,5,,,,,,,,,4,,,51,92
31920,note_on,12,0,4,,,,,,,,,3,,,63,92
31920,note_on,12,0,1,,,,,,,,,0,,,72,92
31968,note_on,48,0,1,,,,,,,,,0,,,72,0
31980,note_on,12,0,1,,,,,,,,,0,,,67,92
32016,note_on,96,0,4,,,,,,,,,3,,,63,0
32016,note_on,96,0,5,,,,,,,,,4,,,51,0
32028,note_on,48,0,1,,,,,,,,,0,,,67,0
32040,note_on,24,0,5,,,,,,,,,4,,,51,92
32040,note_on,24,0,4,,,,,,,,,3,,,63,92
32040,note_on,12,0,1,,,,,,,,,0,,,63,92
32088,note_on,48,0,1,,,,,,,,,0,,,63,0
32100,note_on,12,0,1,,,,,,,,,0,,,67,92
32136,note_on,96,0,5,,,,,,,,,4,,,51,0
32136,note_on,96,0,4,,,,,,,,,3,,,63,0
32148,note_on,48,0,1,,,,,,,,,0,,,67,0
32160,note_on,24,0,4,,,,,,,,,3,,,63,92
32160,note_on,12,0,1,,,,,,,,,0,,,72,92
32160,note_on,24,0,5,,,,,,,,,4,,,51,92
32160,note_on,1248,0,2,,,,,,,,,1,,,63,92
32160,note_on,1248,0,3,,,,,,,,,2,,,63,92
32208,note_on,48,0,1,,,,,,,,,0,,,72,0
32220,note_on,12,0,1,,,,,,,,,0,,,67,92
32256,note_on,96,0,2,,,,,,,,,1,,,63,0
32256,note_on,96,0,3,,,,,,,,,2,,,63,0
32268,note_on,48,0,1,,,,,,,,,0,,,67,0
32280,note_on,24,0,2,,,,,,,,,1,,,60,92
32280,note_on,12,0,1,,,,,,,,,0,,,63,92
32280,note_on,24,0,3,,,,,,,,,2,,,60,92
32328,note_on,48,0,3,,,,,,,,,2,,,60,0
32328,note_on,48,0,2,,,,,,,,,1,,,60,0
32328,note_on,48,0,1,,,,,,,,,0,,,63,0
32340,note_on,12,0,2,,,,,,,,,1,,,62,92
32340,note_on,12,0,1,,,,,,,,,0,,,67,92
32340,note_on,12,0,3,,,,,,,,,2,,,62,92
32352,note_on,192,0,5,,,,,,,,,4,,,51,0
32352,note_on,192,0,4,,,,,,,,,3,,,63,0
32388,note_on,48,0,2,,,,,,,,,1,,,62,0
32388,note_on,48,0,1,,,,,,,,,0,,,67,0
32388,note_on,48,0,3,,,,,,,,,2,,,62,0
32400,note_on,12,0,3,,,,,,,,,2,,,63,92
32400,note_on,12,0,2,,,,,,,,,1,,,63,92
32400,note_on,12,0,1,,,,,,,,,0,,,72,92
32448,note_on,48,0,1,,,,,,,,,0,,,72,0
32460,note_on,12,0,1,,,,,,,,,0,,,67,92
32496,note_on,96,0,2,,,,,,,,,1,,,63,0
32496,note_on,96,0,3,,,,,,,,,2,,,63,0
32508,note_on,48,0,1,,,,,,,,,0,,,67,0
32520,note_on,24,0,3,,,,,,,,,2,,,63,92
32520,note_on,24,0,2,,,,,,,,,1,,,63,92
32520,note_on,12,0,1,,,,,,,,,0,,,63,92
32568,note_on,48,0,1,,,,,,,,,0,,,63,0
32580,note_on,12,0,1,,,,,,,,,0,,,67,92
32616,note_on,96,0,3,,,,,,,,,2,,,63,0
32616,note_on,96,0,2,,,,,,,,,1,,,63,0
32628,note_on,48,0,1,,,,,,,,,0,,,67,0
32640,note_on,24,0,3,,,,,,,,,2,,,63,92
32640,note_on,12,0,1,,,,,,,,,0,,,87,92
32640,note_on,24,0,2,,,,,,,,,1,,,63,92
32700,note_on,0,0,1,,,,,,,,,0,,,86,92
32700,note_on,60,0,1,,,,,,,,,0,,,87,0
32748,note_on,48,0,1,,,,,,,,,0,,,86,0
32760,note_on,12,0,1,,,,,,,,,0,,,84,92
32820,note_on,60,0,1,,,,,,,,,0,,,84,0
32820,note_on,0,0,1,,,,,,,,,0,,,82,92
32832,note_on,192,0,2,,,,,,,,,1,,,63,0
32832,note_on,192,0,3,,,,,,,,,2,,,63,0
32868,note_on,48,0,1,,,,,,,,,0,,,82,0
32880,note_on,12,0,1,,,,,,,,,0,,,84,92
32940,note_on,60,0,1,,,,,,,,,0,,,84,0
32940,note_on,0,0,1,,,,,,,,,0,,,82,92
32988,note_on,48,0,1,,,,,,,,,0,,,82,0
33000,note_on,12,0,1,,,,,,,,,0,,,80,92
33060,note_on,60,0,1,,,,,,,,,0,,,80,0
33060,note_on,0,0,1,,,,,,,,,0,,,79,92
33108,note_on,48,0,1,,,,,,,,,0,,,79,0
33120,note_on,12,0,1,,,,,,,,,0,,,80,92
33180,note_on,60,0,1,,,,,,,,,0,,,80,0
33180,note_on,0,0,1,,,,,,,,,0,,,79,92
33228,note_on,48,0,1,,,,,,,,,0,,,79,0
33240,note_on,12,0,1,,,,,,,,,0,,,77,92
33300,note_on,60,0,1,,,,,,,,,0,,,77,0
33300,note_on,0,0,1,,,,,,,,,0,,,75,92
33348,note_on,48,0,1,,,,,,,,,0,,,75,0
33360,note_on,12,0,1,,,,,,,,,0,,,77,92
33420,note_on,0,0,1,,,,,,,,,0,,,75,92
33420,note_on,60,0,1,,,,,,,,,0,,,77,0
33468,note_on,48,0,1,,,,,,,,,0,,,75,0
33480,note_on,12,0,1,,,,,,,,,0,,,74,92
33540,note_on,60,0,1,,,,,,,,,0,,,74,0
33540,note_on,0,0,1,,,,,,,,,0,,,72,92
33588,note_on,48,0,1,,,,,,,,,0,,,72,0
33600,note_on,12,0,1,,,,,,,,,0,,,70,92
33600,note_on,1248,0,5,,,,,,,,,4,,,55,92
33648,note_on,48,0,1,,,,,,,,,0,,,70,0
33660,note_on,12,0,1,,,,,,,,,0,,,75,92
33696,note_on,96,0,5,,,,,,,,,4,,,55,0
33708,note_on,48,0,1,,,,,,,,,0,,,75,0
33720,note_on,12,0,1,,,,,,,,,0,,,75,92
33720,note_on,24,0,5,,,,,,,,,4,,,43,92
33768,note_on,48,0,1,,,,,,,,,0,,,75,0
33780,note_on,12,0,1,,,,,,,,,0,,,79,92
33816,note_on,96,0,5,,,,,,,,,4,,,43,0
33828,note_on,48,0,1,,,,,,,,,0,,,79,0
33840,note_on,24,0,5,,,,,,,,,4,,,43,92
33840,note_on,12,0,1,,,,,,,,,0,,,79,92
33888,note_on,48,0,1,,,,,,,,,0,,,79,0
33900,note_on,12,0,1,,,,,,,,,0,,,82,92
33936,note_on,96,0,5,,,,,,,,,4,,,43,0
33948,note_on,48,0,1,,,,,,,,,0,,,82,0
33960,note_on,12,0,1,,,,,,,,,0,,,82,92
33960,note_on,24,0,5,,,,,,,,,4,,,55,92
34008,note_on,48,0,1,,,,,,,,,0,,,82,0
34020,note_on,12,0,1,,,,,,,,,0,,,87,92
34056,note_on,96,0,5,,,,,,,,,4,,,55,0
34068,note_on,48,0,1,,,,,,,,,0,,,87,0
34080,note_on,12,0,1,,,,,,,,,0,,,87,92
34080,note_on,24,0,5,,,,,,,,,4,,,55,92
34128,note_on,48,0,1,,,,,,,,,0,,,87,0
34140,note_on,12,0,1,,,,,,,,,0,,,82,92
34176,note_on,96,0,5,,,,,,,,,4,,,55,0
34188,note_on,48,0,1,,,,,,,,,0,,,82,0
34200,note_on,24,0,5,,,,,,,,,4,,,43,92
34200,note_on,12,0,1,,,,,,,,,0,,,82,92
34248,note_on,48,0,1,,,,,,,,,0,,,82,0
34260,note_on,12,0,1,,,,,,,,,0,,,79,92
34296,note_on,96,0,5,,,,,,,,,4,,,43,0
34308,note_on,48,0,1,,,,,,,,,0,,,79,0
34320,note_on,24,0,5,,,,,,,,,4,,,43,92
34320,note_on,12,0,1,,,,,,,,,0,,,79,92
34368,note_on,48,0,1,,,,,,,,,0,,,79,0
34380,note_on,12,0,1,,,,,,,,,0,,,87,92
34416,note_on,96,0,5,,,,,,,,,4,,,43,0
34428,note_on,48,0,1,,,,,,,,,0,,,87,0
34440,note_on,24,0,5,,,,,,,,,4,,,55,92
34440,note_on,12,0,1,,,,,,,,,0,,,87,92
34488,note_on,48,0,1,,,,,,,,,0,,,87,0
34500,note_on,12,0,1,,,,,,,,,0,,,81,92
34536,note_on,96,0,5,,,,,,,,,4,,,55,0
34548,note_on,48,0,1,,,,,,,,,0,,,81,0
34560,note_on,24,0,5,,,,,,,,,4,,,53,92
34560,note_on,12,0,1,,,,,,,,,0,,,81,92
34608,note_on,48,0,1,,,,,,,,,0,,,81,0
34620,note_on,12,0,1,,,,,,,,,0,,,74,92
34656,note_on,96,0,5,,,,,,,,,4,,,53,0
34668,note_on,48,0,1,,,,,,,,,0,,,74,0
34680,note_on,12,0,1,,,,,,,,,0,,,74,92
34680,note_on,24,0,5,,,,,,,,,4,,,41,92
34728,note_on,48,0,1,,,,,,,,,0,,,74,0
34740,note_on,12,0,1,,,,,,,,,0,,,81,92
34776,note_on,96,0,5,,,,,,,,,4,,,41,0
34788,note_on,48,0,1,,,,,,,,,0,,,81,0
34800,note_on,12,0,1,,,,,,,,,0,,,81,92
34800,note_on,24,0,5,,,,,,,,,4,,,41,92
34848,note_on,48,0,1,,,,,,,,,0,,,81,0
34860,note_on,12,0,1,,,,,,,,,0,,,84,92
34896,note_on,96,0,5,,,,,,,,,4,,,41,0
34908,note_on,48,0,1,,,,,,,,,0,,,84,0
34920,note_on,24,0,5,,,,,,,,,4,,,53,92
34920,note_on,12,0,1,,,,,,,,,0,,,84,92
34968,note_on,48,0,1,,,,,,,,,0,,,84,0
34980,note_on,12,0,1,,,,,,,,,0,,,81,92
35016,note_on,96,0,5,,,,,,,,,4,,,53,0
35028,note_on,48,0,1,,,,,,,,,0,,,81,0
35040,note_on,24,0,5,,,,,,,,,4,,,53,92
35040,note_on,12,0,1,,,,,,,,,0,,,81,92
35088,note_on,48,0,1,,,,,,,,,0,,,81,0
35100,note_on,12,0,1,,,,,,,,,0,,,75,92
35136,note_on,96,0,5,,,,,,,,,4,,,53,0
35148,note_on,48,0,1,,,,,,,,,0,,,75,0
35160,note_on,12,0,1,,,,,,,,,0,,,75,92
35160,note_on,24,0,5,,,,,,,,,4,,,41,92
35208,note_on,48,0,1,,,,,,,,,0,,,75,0
35220,note_on,12,0,1,,,,,,,,,0,,,81,92
35256,note_on,96,0,5,,,,,,,,,4,,,41,0
35268,note_on,48,0,1,,,,,,,,,0,,,81,0
35280,note_on,24,0,5,,,,,,,,,4,,,41,92
35280,note_on,12,0,1,,,,,,,,,0,,,81,92
35328,note_on,48,0,1,,,,,,,,,0,,,81,0
35340,note_on,12,0,1,,,,,,,,,0,,,84,92
35376,note_on,96,0,5,,,,,,,,,4,,,41,0
35388,note_on,48,0,1,,,,,,,,,0,,,84,0
35400,note_on,24,0,5,,,,,,,,,4,,,53,92
35400,note_on,12,0,1,,,,,,,,,0,,,84,92
35448,note_on,48,0,1,,,,,,,,,0,,,84,0
35460,note_on,12,0,1,,,,,,,,,0,,,74,92
35496,note_on,96,0,5,,,,,,,,,4,,,53,0
35508,note_on,48,0,1,,,,,,,,,0,,,74,0
35520,note_on,24,0,5,,,,,,,,,4,,,58,92
35520,note_on,12,0,1,,,,,,,,,0,,,74,92
35568,note_on,48,0,1,,,,,,,,,0,,,74,0
35580,note_on,12,0,1,,,,,,,,,0,,,77,92
35616,note_on,96,0,5,,,,,,,,,4,,,58,0
35628,note_on,48,0,1,,,,,,,,,0,,,77,0
35640,note_on,24,0,5,,,,,,,,,4,,,46,92
35640,note_on,12,0,1,,,,,,,,,0,,,82,92
35688,note_on,48,0,1,,,,,,,,,0,,,82,0
35700,note_on,12,0,1,,,,,,,,,0,,,77,92
35736,note_on,96,0,5,,,,,,,,,4,,,46,0
35748,note_on,48,0,1,,,,,,,,,0,,,77,0
35760,note_on,12,0,1,,,,,,,,,0,,,74,92
35760,note_on,24,0,5,,,,,,,,,4,,,46,92
35808,note_on,48,0,1,,,,,,,,,0,,,74,0
35820,note_on,12,0,1,,,,,,,,,0,,,77,92
35856,note_on,96,0,5,,,,,,,,,4,,,46,0
35868,note_on,48,0,1,,,,,,,,,0,,,77,0
35880,note_on,12,0,1,,,,,,,,,0,,,82,92
35880,note_on,24,0,5,,,,,,,,,4,,,46,92
35928,note_on,48,0,1,,,,,,,,,0,,,82,0
35940,note_on,12,0,1,,,,,,,,,0,,,77,92
35976,note_on,96,0,5,,,,,,,,,4,,,46,0
35988,note_on,48,0,1,,,,,,,,,0,,,77,0
36000,note_on,24,0,5,,,,,,,,,4,,,53,92
36000,note_on,12,0,1,,,,,,,,,0,,,72,92
36048,note_on,48,0,1,,,,,,,,,0,,,72,0
36060,note_on,12,0,1,,,,,,,,,0,,,77,92
36096,note_on,96,0,5,,,,,,,,,4,,,53,0
36108,note_on,48,0,1,,,,,,,,,0,,,77,0
36120,note_on,12,0,1,,,,,,,,,0,,,82,92
36120,note_on,24,0,5,,,,,,,,,4,,,41,92
36168,note_on,48,0,1,,,,,,,,,0,,,82,0
36180,note_on,12,0,1,,,,,,,,,0,,,77,92
36216,note_on,96,0,5,,,,,,,,,4,,,41,0
36228,note_on,48,0,1,,,,,,,,,0,,,77,0
36240,note_on,24,0,5,,,,,,,,,4,,,41,92
36240,note_on,12,0,1,,,,,,,,,0,,,72,92
36288,note_on,48,0,1,,,,,,,,,0,,,72,0
36300,note_on,12,0,1,,,,,,,,,0,,,77,92
36336,note_on,96,0,5,,,,,,,,,4,,,41,0
36348,note_on,48,0,1,,,,,,,,,0,,,77,0
36360,note_on,24,0,5,,,,,,,,,4,,,53,92
36360,note_on,12,0,1,,,,,,,,,0,,,82,92
36408,note_on,48,0,1,,,,,,,,,0,,,82,0
36420,note_on,12,0,1,,,,,,,,,0,,,77,92
36456,note_on,96,0,5,,,,,,,,,4,,,53,0
36468,note_on,48,0,1,,,,,,,,,0,,,77,0
36480,note_on,24,0,5,,,,,,,,,4,,,53,92
36480,note_on,12,0,1,,,,,,,,,0,,,72,92
36528,note_on,48,0,1,,,,,,,,,0,,,72,0
36540,note_on,12,0,1,,,,,,,,,0,,,77,92
36576,note_on,96,0,5,,,,,,,,,4,,,53,0
36588,note_on,48,0,1,,,,,,,,,0,,,77,0
36600,note_on,24,0,5,,,,,,,,,4,,,41,92
36600,note_on,12,0,1,,,,,,,,,0,,,81,92
36648,note_on,48,0,1,,,,,,,,,0,,,81,0
36660,note_on,12,0,1,,,,,,,,,0,,,77,92
36696,note_on,96,0,5,,,,,,,,,4,,,41,0
36708,note_on,48,0,1,,,,,,,,,0,,,77,0
36720,note_on,24,0,5,,,,,,,,,4,,,41,92
36720,note_on,12,0,1,,,,,,,,,0,,,72,92
36768,note_on,48,0,1,,,,,,,,,0,,,72,0
36780,note_on,12,0,1,,,,,,,,,0,,,77,92
36816,note_on,96,0,5,,,,,,,,,4,,,41,0
36828,note_on,48,0,1,,,,,,,,,0,,,77,0
36840,note_on,12,0,1,,,,,,,,,0,,,81,92
36840,note_on,24,0,5,,,,,,,,,4,,,53,92
36888,note_on,48,0,1,,,,,,,,,0,,,81,0
36900,note_on,12,0,1,,,,,,,,,0,,,77,92
36936,note_on,96,0,5,,,,,,,,,4,,,53,0
36948,note_on,48,0,1,,,,,,,,,0,,,77,0
36960,note_on,12,0,1,,,,,,,,,0,,,82,92
36960,note_on,24,0,5,,,,,,,,,4,,,46,92
37008,note_on,48,0,1,,,,,,,,,0,,,82,0
37020,note_on,12,0,1,,,,,,,,,0,,,81,92
37068,note_on,48,0,1,,,,,,,,,0,,,81,0
37080,note_on,12,0,1,,,,,,,,,0,,,79,92
37128,note_on,48,0,1,,,,,,,,,0,,,79,0
37140,note_on,12,0,1,,,,,,,,,0,,,77,92
37152,note_on,192,0,5,,,,,,,,,4,,,46,0
37188,note_on,48,0,1,,,,,,,,,0,,,77,0
37200,note_on,12,0,1,,,,,,,,,0,,,75,92
37248,note_on,48,0,1,,,,,,,,,0,,,75,0
37260,note_on,12,0,1,,,,,,,,,0,,,74,92
37308,note_on,48,0,1,,,,,,,,,0,,,74,0
37320,note_on,12,0,1,,,,,,,,,0,,,72,92
37368,note_on,48,0,1,,,,,,,,,0,,,72,0
37380,note_on,12,0,1,,,,,,,,,0,,,70,92
37428,note_on,48,0,1,,,,,,,,,0,,,70,0
37440,note_on,12,0,1,,,,,,,,,0,,,69,92
37488,note_on,48,0,1,,,,,,,,,0,,,69,0
37500,note_on,12,0,1,,,,,,,,,0,,,67,92
37548,note_on,48,0,1,,,,,,,,,0,,,67,0
37560,note_on,12,0,1,,,,,,,,,0,,,65,92
37608,note_on,48,0,1,,,,,,,,,0,,,65,0
37620,note_on,12,0,1,,,,,,,,,0,,,63,92
37668,note_on,48,0,1,,,,,,,,,0,,,63,0
37680,note_on,12,0,1,,,,,,,,,0,,,62,92
37728,note_on,48,0,1,,,,,,,,,0,,,62,0
37740,note_on,12,0,1,,,,,,,,,0,,,60,92
37788,note_on,48,0,1,,,,,,,,,0,,,60,0
37800,note_on,12,0,1,,,,,,,,,0,,,58,92
37848,note_on,48,0,1,,,,,,,,,0,,,58,0
37860,note_on,12,0,1,,,,,,,,,0,,,57,92
37908,note_on,48,0,1,,,,,,,,,0,,,57,0
37920,note_on,768,0,5,,,,,,,,,4,,,46,92
37920,note_on,5088,0,2,,,,,,,,,1,,,58,92
37920,note_on,12,0,1,,,,,,,,,0,,,58,92
37968,note_on,48,0,2,,,,,,,,,1,,,58,0
37968,note_on,48,0,1,,,,,,,,,0,,,58,0
37980,note_on,12,0,2,,,,,,,,,1,,,58,92
37980,note_on,12,0,1,,,,,,,,,0,,,58,92
38016,note_on,96,0,5,,,,,,,,,4,,,46,0
38028,note_on,48,0,2,,,,,,,,,1,,,58,0
38028,note_on,48,0,1,,,,,,,,,0,,,58,0
38040,note_on,24,0,5,,,,,,,,,4,,,46,92
38040,note_on,12,0,2,,,,,,,,,1,,,58,92
38040,note_on,12,0,1,,,,,,,,,0,,,58,92
38088,note_on,48,0,1,,,,,,,,,0,,,58,0
38088,note_on,48,0,2,,,,,,,,,1,,,58,0
38100,note_on,12,0,2,,,,,,,,,1,,,58,92
38100,note_on,12,0,1,,,,,,,,,0,,,58,92
38136,note_on,96,0,5,,,,,,,,,4,,,46,0
38148,note_on,48,0,1,,,,,,,,,0,,,58,0
38148,note_on,48,0,2,,,,,,,,,1,,,58,0
38160,note_on,24,0,5,,,,,,,,,4,,,46,92
38160,note_on,12,0,2,,,,,,,,,1,,,58,92
38160,note_on,12,0,1,,,,,,,,,0,,,58,92
38208,note_on,48,0,2,,,,,,,,,1,,,58,0
38208,note_on,48,0,1,,,,,,,,,0,,,58,0
38220,note_on,12,0,1,,,,,,,,,0,,,58,92
38220,note_on,12,0,2,,,,,,,,,1,,,58,92
38256,note_on,96,0,5,,,,,,,,,4,,,46,0
38268,note_on,48,0,2,,,,,,,,,1,,,58,0
38268,note_on,48,0,1,,,,,,,,,0,,,58,0
38280,note_on,12,0,2,,,,,,,,,1,,,58,92
38280,note_on,24,0,5,,,,,,,,,4,,,46,92
38280,note_on,12,0,1,,,,,,,,,0,,,58,92
38328,note_on,48,0,2,,,,,,,,,1,,,58,0
38328,note_on,48,0,1,,,,,,,,,0,,,58,0
38340,note_on,12,0,1,,,,,,,,,0,,,58,92
38340,note_on,12,0,2,,,,,,,,,1,,,58,92
38376,note_on,96,0,5,,,,,,,,,4,,,46,0
38388,note_on,48,0,2,,,,,,,,,1,,,58,0
38388,note_on,48,0,1,,,,,,,,,0,,,58,0
38400,note_on,24,0,5,,,,,,,,,4,,,45,92
38400,note_on,12,0,1,,,,,,,,,0,,,65,92
38400,note_on,12,0,2,,,,,,,,,1,,,65,92
38448,note_on,48,0,2,,,,,,,,,1,,,65,0
38448,note_on,48,0,1,,,,,,,,,0,,,65,0
38460,note_on,12,0,1,,,,,,,,,0,,,65,92
38460,note_on,12,0,2,,,,,,,,,1,,,65,92
38496,note_on,96,0,5,,,,,,,,,4,,,45,0
38508,note_on,48,0,1,,,,,,,,,0,,,65,0
38508,note_on,48,0,2,,,,,,,,,1,,,65,0
38520,note_on,12,0,2,,,,,,,,,1,,,65,92
38520,note_on,24,0,5,,,,,,,,,4,,,45,92
38520,note_on,12,0,1,,,,,,,,,0,,,65,92
38568,note_on,48,0,1,,,,,,,,,0,,,65,0
38568,note_on,48,0,2,,,,,,,,,1,,,65,0
38580,note_on,12,0,1,,,,,,,,,0,,,65,92
38580,note_on,12,0,2,,,,,,,,,1,,,65,92
38616,note_on,96,0,5,,,,,,,,,4,,,45,0
38628,note_on,48,0,1,,,,,,,,,0,,,65,0
38628,note_on,48,0,2,,,,,,,,,1,,,65,0
38640,note_on,12,0,1,,,,,,,,,0,,,65,92
38640,note_on,24,0,5,,,,,,,,,4,,,45,92
38640,note_on,12,0,2,,,,,,,,,1,,,65,92
38688,note_on,48,0,2,,,,,,,,,1,,,65,0
38688,note_on,48,0,1,,,,,,,,,0,,,65,0
38700,note_on,12,0,2,,,,,,,,,1,,,65,92
38700,note_on,12,0,1,,,,,,,,,0,,,65,92
38736,note_on,96,0,5,,,,,,,,,4,,,45,0
38748,note_on,48,0,2,,,,,,,,,1,,,65,0
38748,note_on,48,0,1,,,,,,,,,0,,,65,0
38760,note_on,12,0,1,,,,,,,,,0,,,65,92
38760,note_on,12,0,2,,,,,,,,,1,,,65,92
38760,note_on,24,0,5,,,,,,,,,4,,,45,92
38808,note_on,48,0,2,,,,,,,,,1,,,65,0
38808,note_on,48,0,1,,,,,,,,,0,,,65,0
38820,note_on,12,0,2,,,,,,,,,1,,,65,92
38820,note_on,12,0,1,,,,,,,,,0,,,65,92
38856,note_on,96,0,5,,,,,,,,,4,,,45,0
38868,note_on,48,0,2,,,,,,,,,1,,,65,0
38868,note_on,48,0,1,,,,,,,,,0,,,65,0
38880,note_on,6048,0,3,,,,,,,,,2,,,58,92
38880,note_on,12,0,2,,,,,,,,,1,,,70,92
38880,note_on,24,0,5,,,,,,,,,4,,,43,92
38880,note_on,12,0,1,,,,,,,,,0,,,70,92
38928,note_on,48,0,3,,,,,,,,,2,,,58,0
38940,note_on,12,0,3,,,,,,,,,2,,,58,92
38976,note_on,96,0,2,,,,,,,,,1,,,70,0
38976,note_on,96,0,5,,,,,,,,,4,,,43,0
38976,note_on,96,0,1,,,,,,,,,0,,,70,0
38988,note_on,48,0,3,,,,,,,,,2,,,58,0
39000,note_on,24,0,2,,,,,,,,,1,,,58,92
39000,note_on,24,0,5,,,,,,,,,4,,,43,92
39000,note_on,24,0,1,,,,,,,,,0,,,58,92
39000,note_on,12,0,3,,,,,,,,,2,,,58,92
39048,note_on,48,0,3,,,,,,,,,2,,,58,0
39060,note_on,12,0,3,,,,,,,,,2,,,58,92
39096,note_on,96,0,5,,,,,,,,,4,,,43,0
39096,note_on,96,0,2,,,,,,,,,1,,,58,0
39096,note_on,96,0,1,,,,,,,,,0,,,58,0
39108,note_on,48,0,3,,,,,,,,,2,,,58,0
39120,note_on,24,0,2,,,,,,,,,1,,,70,92
39120,note_on,12,0,3,,,,,,,,,2,,,58,92
39120,note_on,24,0,5,,,,,,,,,4,,,43,92
39120,note_on,24,0,1,,,,,,,,,0,,,70,92
39168,note_on,48,0,2,,,,,,,,,1,,,70,0
39168,note_on,48,0,3,,,,,,,,,2,,,58,0
39168,note_on,48,0,1,,,,,,,,,0,,,70,0
39180,note_on,12,0,1,,,,,,,,,0,,,72,92
39180,note_on,12,0,3,,,,,,,,,2,,,58,92
39180,note_on,12,0,2,,,,,,,,,1,,,72,92
39216,note_on,96,0,5,,,,,,,,,4,,,43,0
39228,note_on,48,0,2,,,,,,,,,1,,,72,0
39228,note_on,48,0,3,,,,,,,,,2,,,58,0
39228,note_on,48,0,1,,,,,,,,,0,,,72,0
39240,note_on,12,0,2,,,,,,,,,1,,,74,92
39240,note_on,24,0,5,,,,,,,,,4,,,43,92
39240,note_on,12,0,1,,,,,,,,,0,,,74,92
39240,note_on,12,0,3,,,,,,,,,2,,,58,92
39288,note_on,48,0,2,,,,,,,,,1,,,74,0
39288,note_on,48,0,3,,,,,,,,,2,,,58,0
39288,note_on,48,0,1,,,,,,,,,0,,,74,0
39300,note_on,12,0,1,,,,,,,,,0,,,70,92
39300,note_on,12,0,2,,,,,,,,,1,,,70,92
39300,note_on,12,0,3,,,,,,,,,2,,,58,92
39336,note_on,96,0,5,,,,,,,,,4,,,43,0
39348,note_on,48,0,2,,,,,,,,,1,,,70,0
39348,note_on,48,0,3,,,,,,,,,2,,,58,0
39348,note_on,48,0,1,,,,,,,,,0,,,70,0
39360,note_on,12,0,2,,,,,,,,,1,,,72,92
39360,note_on,12,0,1,,,,,,,,,0,,,72,92
39360,note_on,12,0,3,,,,,,,,,2,,,65,92
39360,note_on,24,0,5,,,,,,,,,4,,,45,92
39408,note_on,48,0,1,,,,,,,,,0,,,72,0
39408,note_on,48,0,3,,,,,,,,,2,,,65,0
39408,note_on,48,0,2,,,,,,,,,1,,,72,0
39420,note_on,12,0,1,,,,,,,,,0,,,70,92
39420,note_on,12,0,3,,,,,,,,,2,,,65,92
39420,note_on,12,0,2,,,,,,,,,1,,,70,92
39456,note_on,96,0,5,,,,,,,,,4,,,45,0
39468,note_on,48,0,3,,,,,,,,,2,,,65,0
39468,note_on,48,0,2,,,,,,,,,1,,,70,0
39468,note_on,48,0,1,,,,,,,,,0,,,70,0
39480,note_on,12,0,1,,,,,,,,,0,,,69,92
39480,note_on,24,0,5,,,,,,,,,4,,,45,92
39480,note_on,12,0,3,,,,,,,,,2,,,65,92
39480,note_on,12,0,2,,,,,,,,,1,,,69,92
39528,note_on,48,0,2,,,,,,,,,1,,,69,0
39528,note_on,48,0,3,,,,,,,,,2,,,65,0
39528,note_on,48,0,1,,,,,,,,,0,,,69,0
39540,note_on,12,0,3,,,,,,,,,2,,,65,92
39540,note_on,12,0,1,,,,,,,,,0,,,67,92
39540,note_on,12,0,2,,,,,,,,,1,,,67,92
39576,note_on,96,0,5,,,,,,,,,4,,,45,0
39588,note_on,48,0,1,,,,,,,,,0,,,67,0
39588,note_on,48,0,2,,,,,,,,,1,,,67,0
39588,note_on,48,0,3,,,,,,,,,2,,,65,0
39600,note_on,12,0,1,,,,,,,,,0,,,65,92
39600,note_on,12,0,2,,,,,,,,,1,,,65,92
39600,note_on,24,0,5,,,,,,,,,4,,,45,92
39600,note_on,12,0,3,,,,,,,,,2,,,65,92
39648,note_on,48,0,3,,,,,,,,,2,,,65,0
39648,note_on,48,0,1,,,,,,,,,0,,,65,0
39648,note_on,48,0,2,,,,,,,,,1,,,65,0
39660,note_on,12,0,1,,,,,,,,,0,,,63,92
39660,note_on,12,0,3,,,,,,,,,2,,,65,92
39660,note_on,12,0,2,,,,,,,,,1,,,63,92
39696,note_on,96,0,5,,,,,,,,,4,,,45,0
39708,note_on,48,0,3,,,,,,,,,2,,,65,0
39708,note_on,48,0,1,,,,,,,,,0,,,63,0
39708,note_on,48,0,2,,,,,,,,,1,,,63,0
39720,note_on,12,0,3,,,,,,,,,2,,,65,92
39720,note_on,12,0,1,,,,,,,,,0,,,62,92
39720,note_on,24,0,5,,,,,,,,,4,,,45,92
39720,note_on,12,0,2,,,,,,,,,1,,,62,92
39768,note_on,48,0,2,,,,,,,,,1,,,62,0
39768,note_on,48,0,3,,,,,,,,,2,,,65,0
39768,note_on,48,0,1,,,,,,,,,0,,,62,0
39780,note_on,12,0,2,,,,,,,,,1,,,60,92
39780,note_on,12,0,1,,,,,,,,,0,,,60,92
39780,note_on,12,0,3,,,,,,,,,2,,,65,92
39816,note_on,96,0,5,,,,,,,,,4,,,45,0
39828,note_on,48,0,1,,,,,,,,,0,,,60,0
39828,note_on,48,0,2,,,,,,,,,1,,,60,0
39828,note_on,48,0,3,,,,,,,,,2,,,65,0
39840,note_on,12,0,2,,,,,,,,,1,,,62,92
39840,note_on,24,0,5,,,,,,,,,4,,,46,92
39840,note_on,7488,0,4,,,,,,,,,3,,,58,92
39840,note_on,12,0,1,,,,,,,,,0,,,62,92
39840,note_on,12,0,3,,,,,,,,,2,,,70,92
39888,note_on,48,0,4,,,,,,,,,3,,,58,0
39900,note_on,12,0,4,,,,,,,,,3,,,58,92
39936,note_on,96,0,1,,,,,,,,,0,,,62,0
39936,note_on,96,0,2,,,,,,,,,1,,,62,0
39936,note_on,96,0,3,,,,,,,,,2,,,70,0
39948,note_on,48,0,4,,,,,,,,,3,,,58,0
39960,note_on,24,0,2,,,,,,,,,1,,,58,92
39960,note_on,12,0,4,,,,,,,,,3,,,58,92
39960,note_on,24,0,1,,,,,,,,,0,,,58,92
39960,note_on,24,0,3,,,,,,,,,2,,,58,92
40008,note_on,48,0,4,,,,,,,,,3,,,58,0
40020,note_on,12,0,4,,,,,,,,,3,,,58,92
40032,note_on,192,0,5,,,,,,,,,4,,,46,0
40056,note_on,96,0,3,,,,,,,,,2,,,58,0
40056,note_on,96,0,1,,,,,,,,,0,,,58,0
40056,note_on,96,0,2,,,,,,,,,1,,,58,0
40068,note_on,48,0,4,,,,,,,,,3,,,58,0
40080,note_on,24,0,3,,,,,,,,,2,,,70,92
40080,note_on,12,0,4,,,,,,,,,3,,,58,92
40080,note_on,24,0,2,,,,,,,,,1,,,74,92
40080,note_on,24,0,1,,,,,,,,,0,,,74,92
40128,note_on,48,0,4,,,,,,,,,3,,,58,0
40128,note_on,48,0,2,,,,,,,,,1,,,74,0
40128,note_on,48,0,3,,,,,,,,,2,,,70,0
40128,note_on,48,0,1,,,,,,,,,0,,,74,0
40140,note_on,12,0,1,,,,,,,,,0,,,75,92
40140,note_on,12,0,2,,,,,,,,,1,,,75,92
40140,note_on,12,0,4,,,,,,,,,3,,,58,92
40140,note_on,12,0,3,,,,,,,,,2,,,72,92
40188,note_on,48,0,1,,,,,,,,,0,,,75,0
40188,note_on,48,0,3,,,,,,,,,2,,,72,0
40188,note_on,48,0,2,,,,,,,,,1,,,75,0
40188,note_on,48,0,4,,,,,,,,,3,,,58,0
40200,note_on,12,0,2,,,,,,,,,1,,,77,92
40200,note_on,12,0,1,,,,,,,,,0,,,77,92
40200,note_on,12,0,4,,,,,,,,,3,,,58,92
40200,note_on,12,0,3,,,,,,,,,2,,,74,92
40248,note_on,48,0,2,,,,,,,,,1,,,77,0
40248,note_on,48,0,4,,,,,,,,,3,,,58,0
40248,note_on,48,0,3,,,,,,,,,2,,,74,0
40248,note_on,48,0,1,,,,,,,,,0,,,77,0
40260,note_on,0,0,4,,,,,,,,,3,,,58,92
40260,note_on,12,0,4,,,,,,,,,3,,,58,92
40260,note_on,12,0,1,,,,,,,,,0,,,74,92
40260,note_on,12,0,3,,,,,,,,,2,,,70,92
40260,note_on,12,0,2,,,,,,,,,1,,,74,92
40308,note_on,0,0,4,,,,,,,,,3,,,58,0
40308,note_on,48,0,4,,,,,,,,,3,,,58,0
40308,note_on,48,0,1,,,,,,,,,0,,,74,0
40308,note_on,48,0,2,,,,,,,,,1,,,74,0
40308,note_on,48,0,3,,,,,,,,,2,,,70,0
40320,note_on,12,0,1,,,,,,,,,0,,,75,92
40320,note_on,12,0,2,,,,,,,,,1,,,75,92
40320,note_on,12,0,4,,,,,,,,,3,,,65,92
40320,note_on,12,0,3,,,,,,,,,2,,,72,92
40368,note_on,48,0,3,,,,,,,,,2,,,72,0
40368,note_on,48,0,2,,,,,,,,,1,,,75,0
40368,note_on,48,0,1,,,,,,,,,0,,,75,0
40368,note_on,48,0,4,,,,,,,,,3,,,65,0
40380,note_on,12,0,2,,,,,,,,,1,,,74,92
40380,note_on,12,0,3,,,,,,,,,2,,,70,92
40380,note_on,12,0,1,,,,,,,,,0,,,74,92
40380,note_on,12,0,4,,,,,,,,,3,,,65,92
40428,note_on,48,0,2,,,,,,,,,1,,,74,0
40428,note_on,48,0,3,,,,,,,,,2,,,70,0
40428,note_on,48,0,1,,,,,,,,,0,,,74,0
40428,note_on,48,0,4,,,,,,,,,3,,,65,0
40440,note_on,12,0,3,,,,,,,,,2,,,69,92
40440,note_on,12,0,4,,,,,,,,,3,,,65,92
40440,note_on,12,0,2,,,,,,,,,1,,,72,92
40440,note_on,12,0,1,,,,,,,,,0,,,72,92
40488,note_on,48,0,2,,,,,,,,,1,,,72,0
40488,note_on,48,0,4,,,,,,,,,3,,,65,0
40488,note_on,48,0,1,,,,,,,,,0,,,72,0
40488,note_on,48,0,3,,,,,,,,,2,,,69,0
40500,note_on,12,0,3,,,,,,,,,2,,,67,92
40500,note_on,12,0,4,,,,,,,,,3,,,65,92
40500,note_on,12,0,1,,,,,,,,,0,,,70,92
40500,note_on,12,0,2,,,,,,,,,1,,,70,92
40548,note_on,48,0,3,,,,,,,,,2,,,67,0
40548,note_on,48,0,4,,,,,,,,,3,,,65,0
40548,note_on,48,0,2,,,,,,,,,1,,,70,0
40548,note_on,48,0,1,,,,,,,,,0,,,70,0
40560,note_on,12,0,4,,,,,,,,,3,,,65,92
40560,note_on,12,0,3,,,,,,,,,2,,,65,92
40560,note_on,12,0,2,,,,,,,,,1,,,69,92
40560,note_on,12,0,1,,,,,,,,,0,,,69,92
40608,note_on,48,0,2,,,,,,,,,1,,,69,0
40608,note_on,48,0,1,,,,,,,,,0,,,69,0
40608,note_on,48,0,4,,,,,,,,,3,,,65,0
40608,note_on,48,0,3,,,,,,,,,2,,,65,0
40620,note_on,12,0,2,,,,,,,,,1,,,67,92
40620,note_on,12,0,1,,,,,,,,,0,,,67,92
40620,note_on,12,0,4,,,,,,,,,3,,,65,92
40620,note_on,12,0,3,,,,,,,,,2,,,63,92
40668,note_on,48,0,2,,,,,,,,,1,,,67,0
40668,note_on,48,0,1,,,,,,,,,0,,,67,0
40668,note_on,48,0,4,,,,,,,,,3,,,65,0
40668,note_on,48,0,3,,,,,,,,,2,,,63,0
40680,note_on,12,0,2,,,,,,,,,1,,,65,92
40680,note_on,12,0,1,,,,,,,,,0,,,65,92
40680,note_on,12,0,4,,,,,,,,,3,,,65,92
40680,note_on,12,0,3,,,,,,,,,2,,,62,92
40728,note_on,48,0,3,,,,,,,,,2,,,62,0
40728,note_on,48,0,4,,,,,,,,,3,,,65,0
40728,note_on,48,0,2,,,,,,,,,1,,,65,0
40728,note_on,48,0,1,,,,,,,,,0,,,65,0
40740,note_on,12,0,4,,,,,,,,,3,,,65,92
40740,note_on,12,0,3,,,,,,,,,2,,,60,92
40740,note_on,12,0,2,,,,,,,,,1,,,63,92
40740,note_on,12,0,1,,,,,,,,,0,,,63,92
40788,note_on,48,0,4,,,,,,,,,3,,,65,0
40788,note_on,48,0,2,,,,,,,,,1,,,63,0
40788,note_on,48,0,1,,,,,,,,,0,,,63,0
40788,note_on,48,0,3,,,,,,,,,2,,,60,0
40800,note_on,768,0,5,,,,,,,,,4,,,46,92
40800,note_on,12,0,3,,,,,,,,,2,,,62,92
40800,note_on,12,0,1,,,,,,,,,0,,,65,92
40800,note_on,12,0,4,,,,,,,,,3,,,70,92
40800,note_on,12,0,2,,,,,,,,,1,,,65,92
40848,note_on,48,0,5,,,,,,,,,4,,,46,0
40860,note_on,12,0,5,,,,,,,,,4,,,46,92
40896,note_on,96,0,1,,,,,,,,,0,,,65,0
40896,note_on,96,0,4,,,,,,,,,3,,,70,0
40896,note_on,96,0,3,,,,,,,,,2,,,62,0
40896,note_on,96,0,2,,,,,,,,,1,,,65,0
40908,note_on,48,0,5,,,,,,,,,4,,,46,0
40920,note_on,24,0,1,,,,,,,,,0,,,62,92
40920,note_on,24,0,3,,,,,,,,,2,,,58,92
40920,note_on,24,0,4,,,,,,,,,3,,,58,92
40920,note_on,12,0,5,,,,,,,,,4,,,46,92
40920,note_on,24,0,2,,,,,,,,,1,,,62,92
40968,note_on,48,0,5,,,,,,,,,4,,,46,0
40980,note_on,12,0,5,,,,,,,,,4,,,46,92
41016,note_on,96,0,3,,,,,,,,,2,,,58,0
41016,note_on,96,0,1,,,,,,,,,0,,,62,0
41016,note_on,96,0,4,,,,,,,,,3,,,58,0
41016,note_on,96,0,2,,,,,,,,,1,,,62,0
41028,note_on,48,0,5,,,,,,,,,4,,,46,0
41040,note_on,24,0,3,,,,,,,,,2,,,74,92
41040,note_on,24,0,4,,,,,,,,,3,,,70,92
41040,note_on,12,0,5,,,,,,,,,4,,,46,92
41088,note_on,48,0,4,,,,,,,,,3,,,70,0
41088,note_on,48,0,3,,,,,,,,,2,,,74,0
41088,note_on,48,0,5,,,,,,,,,4,,,46,0
41100,note_on,12,0,4,,,,,,,,,3,,,72,92
41100,note_on,12,0,3,,,,,,,,,2,,,75,92
41100,note_on,12,0,5,,,,,,,,,4,,,46,92
41148,note_on,48,0,5,,,,,,,,,4,,,46,0
41148,note_on,48,0,3,,,,,,,,,2,,,75,0
41148,note_on,48,0,4,,,,,,,,,3,,,72,0
41160,note_on,12,0,3,,,,,,,,,2,,,77,92
41160,note_on,12,0,4,,,,,,,,,3,,,74,92
41160,note_on,12,0,5,,,,,,,,,4,,,46,92
41208,note_on,48,0,3,,,,,,,,,2,,,77,0
41208,note_on,48,0,4,,,,,,,,,3,,,74,0
41208,note_on,48,0,5,,,,,,,,,4,,,46,0
41220,note_on,12,0,5,,,,,,,,,4,,,46,92
41220,note_on,12,0,3,,,,,,,,,2,,,74,92
41220,note_on,12,0,4,,,,,,,,,3,,,70,92
41268,note_on,48,0,4,,,,,,,,,3,,,70,0
41268,note_on,48,0,5,,,,,,,,,4,,,46,0
41268,note_on,48,0,3,,,,,,,,,2,,,74,0
41280,note_on,12,0,4,,,,,,,,,3,,,72,92
41280,note_on,12,0,5,,,,,,,,,4,,,53,92
41280,note_on,12,0,3,,,,,,,,,2,,,75,92
41328,note_on,48,0,5,,,,,,,,,4,,,53,0
41328,note_on,48,0,4,,,,,,,,,3,,,72,0
41328,note_on,48,0,3,,,,,,,,,2,,,75,0
41340,note_on,12,0,3,,,,,,,,,2,,,74,92
41340,note_on,12,0,5,,,,,,,,,4,,,53,92
41340,note_on,12,0,4,,,,,,,,,3,,,70,92
41388,note_on,48,0,4,,,,,,,,,3,,,70,0
41388,note_on,48,0,3,,,,,,,,,2,,,74,0
41388,note_on,48,0,5,,,,,,,,,4,,,53,0
41400,note_on,12,0,5,,,,,,,,,4,,,53,92
41400,note_on,12,0,3,,,,,,,,,2,,,72,92
41400,note_on,12,0,4,,,,,,,,,3,,,69,92
41448,note_on,48,0,5,,,,,,,,,4,,,53,0
41448,note_on,48,0,3,,,,,,,,,2,,,72,0
41448,note_on,48,0,4,,,,,,,,,3,,,69,0
41460,note_on,12,0,5,,,,,,,,,4,,,53,92
41460,note_on,12,0,4,,,,,,,,,3,,,67,92
41460,note_on,12,0,3,,,,,,,,,2,,,70,92
41508,note_on,48,0,3,,,,,,,,,2,,,70,0
41508,note_on,48,0,4,,,,,,,,,3,,,67,0
41508,note_on,48,0,5,,,,,,,,,4,,,53,0
41520,note_on,12,0,5,,,,,,,,,4,,,53,92
41520,note_on,12,0,4,,,,,,,,,3,,,65,92
41520,note_on,12,0,3,,,,,,,,,2,,,69,92
41568,note_on,48,0,3,,,,,,,,,2,,,69,0
41568,note_on,48,0,4,,,,,,,,,3,,,65,0
41568,note_on,48,0,5,,,,,,,,,4,,,53,0
41580,note_on,12,0,3,,,,,,,,,2,,,67,92
41580,note_on,12,0,5,,,,,,,,,4,,,53,92
41580,note_on,12,0,4,,,,,,,,,3,,,63,92
41628,note_on,48,0,4,,,,,,,,,3,,,63,0
41628,note_on,48,0,3,,,,,,,,,2,,,67,0
41628,note_on,48,0,5,,,,,,,,,4,,,53,0
41640,note_on,12,0,5,,,,,,,,,4,,,53,92
41640,note_on,12,0,3,,,,,,,,,2,,,65,92
41640,note_on,12,0,4,,,,,,,,,3,,,62,92
41688,note_on,48,0,4,,,,,,,,,3,,,62,0
41688,note_on,48,0,3,,,,,,,,,2,,,65,0
41688,note_on,48,0,5,,,,,,,,,4,,,53,0
41700,note_on,12,0,5,,,,,,,,,4,,,53,92
41700,note_on,12,0,4,,,,,,,,,3,,,60,92
41700,note_on,12,0,3,,,,,,,,,2,,,63,92
41748,note_on,48,0,4,,,,,,,,,3,,,60,0
41748,note_on,48,0,3,,,,,,,,,2,,,63,0
41748,note_on,48,0,5,,,,,,,,,4,,,53,0
41760,note_on,12,0,5,,,,,,,,,4,,,58,92
41760,note_on,12,0,3,,,,,,,,,2,,,65,92
41760,note_on,744,0,2,,,,,,,,,1,,,82,92
41760,note_on,12,0,4,,,,,,,,,3,,,62,92
41760,note_on,744,0,1,,,,,,,,,0,,,82,92
41808,note_on,48,0,2,,,,,,,,,1,,,82,0
41808,note_on,48,0,1,,,,,,,,,0,,,82,0
41820,note_on,12,0,2,,,,,,,,,1,,,82,92
41820,note_on,12,0,1,,,,,,,,,0,,,82,92
41856,note_on,96,0,3,,,,,,,,,2,,,65,0
41856,note_on,96,0,4,,,,,,,,,3,,,62,0
41856,note_on,96,0,5,,,,,,,,,4,,,58,0
41868,note_on,48,0,2,,,,,,,,,1,,,82,0
41868,note_on,48,0,1,,,,,,,,,0,,,82,0
41880,note_on,12,0,2,,,,,,,,,1,,,82,92
41880,note_on,24,0,4,,,,,,,,,3,,,58,92
41880,note_on,12,0,1,,,,,,,,,0,,,82,92
41880,note_on,24,0,5,,,,,,,,,4,,,46,92
41880,note_on,24,0,3,,,,,,,,,2,,,62,92
41928,note_on,48,0,1,,,,,,,,,0,,,82,0
41928,note_on,48,0,2,,,,,,,,,1,,,82,0
41940,note_on,12,0,2,,,,,,,,,1,,,82,92
41940,note_on,12,0,1,,,,,,,,,0,,,82,92
41976,note_on,96,0,4,,,,,,,,,3,,,58,0
41976,note_on,96,0,5,,,,,,,,,4,,,46,0
41976,note_on,96,0,3,,,,,,,,,2,,,62,0
41988,note_on,48,0,2,,,,,,,,,1,,,82,0
41988,note_on,48,0,1,,,,,,,,,0,,,82,0
42000,note_on,12,0,2,,,,,,,,,1,,,82,92
42000,note_on,12,0,1,,,,,,,,,0,,,82,92
42048,note_on,48,0,1,,,,,,,,,0,,,82,0
42048,note_on,48,0,2,,,,,,,,,1,,,82,0
42060,note_on,12,0,1,,,,,,,,,0,,,82,92
42060,note_on,12,0,2,,,,,,,,,1,,,82,92
42108,note_on,48,0,1,,,,,,,,,0,,,82,0
42108,note_on,48,0,2,,,,,,,,,1,,,82,0
42120,note_on,144,0,4,,,,,,,,,3,,,65,92
42120,note_on,144,0,5,,,,,,,,,4,,,58,92
42120,note_on,12,0,2,,,,,,,,,1,,,82,92
42120,note_on,12,0,1,,,,,,,,,0,,,82,92
42120,note_on,144,0,3,,,,,,,,,2,,,74,92
42168,note_on,48,0,1,,,,,,,,,0,,,82,0
42168,note_on,48,0,2,,,,,,,,,1,,,82,0
42180,note_on,12,0,1,,,,,,,,,0,,,82,92
42180,note_on,12,0,2,,,,,,,,,1,,,82,92
42216,note_on,96,0,3,,,,,,,,,2,,,74,0
42216,note_on,96,0,4,,,,,,,,,3,,,65,0
42216,note_on,96,0,5,,,,,,,,,4,,,58,0
42228,note_on,48,0,1,,,,,,,,,0,,,82,0
42228,note_on,48,0,2,,,,,,,,,1,,,82,0
42240,note_on,12,0,2,,,,,,,,,1,,,82,92
42240,note_on,24,0,3,,,,,,,,,2,,,79,92
42240,note_on,12,0,1,,,,,,,,,0,,,82,92
42240,note_on,24,0,5,,,,,,,,,4,,,60,92
42240,note_on,24,0,4,,,,,,,,,3,,,64,92
42288,note_on,48,0,3,,,,,,,,,2,,,79,0
42288,note_on,48,0,4,,,,,,,,,3,,,64,0
42300,note_on,12,0,3,,,,,,,,,2,,,77,92
42300,note_on,12,0,4,,,,,,,,,3,,,64,92
42336,note_on,96,0,2,,,,,,,,,1,,,82,0
42336,note_on,96,0,5,,,,,,,,,4,,,60,0
42336,note_on,96,0,1,,,,,,,,,0,,,82,0
42348,note_on,48,0,4,,,,,,,,,3,,,64,0
42348,note_on,48,0,3,,,,,,,,,2,,,77,0
42360,note_on,24,0,5,,,,,,,,,4,,,48,92
42360,note_on,12,0,3,,,,,,,,,2,,,76,92
42360,note_on,24,0,2,,,,,,,,,1,,,76,92
42360,note_on,24,0,1,,,,,,,,,0,,,76,92
42360,note_on,12,0,4,,,,,,,,,3,,,64,92
42408,note_on,48,0,3,,,,,,,,,2,,,76,0
42408,note_on,48,0,4,,,,,,,,,3,,,64,0
42420,note_on,12,0,4,,,,,,,,,3,,,64,92
42420,note_on,12,0,3,,,,,,,,,2,,,74,92
42456,note_on,96,0,5,,,,,,,,,4,,,48,0
42456,note_on,96,0,1,,,,,,,,,0,,,76,0
42456,note_on,96,0,2,,,,,,,,,1,,,76,0
42468,note_on,48,0,3,,,,,,,,,2,,,74,0
42468,note_on,48,0,4,,,,,,,,,3,,,64,0
42480,note_on,24,0,5,,,,,,,,,4,,,52,92
42480,note_on,24,0,1,,,,,,,,,0,,,79,92
42480,note_on,12,0,3,,,,,,,,,2,,,72,92
42480,note_on,12,0,4,,,,,,,,,3,,,64,92
42480,note_on,24,0,2,,,,,,,,,1,,,79,92
42528,note_on,48,0,3,,,,,,,,,2,,,72,0
42528,note_on,48,0,4,,,,,,,,,3,,,64,0
42540,note_on,12,0,4,,,,,,,,,3,,,64,92
42540,note_on,12,0,3,,,,,,,,,2,,,70,92
42576,note_on,96,0,5,,,,,,,,,4,,,52,0
42576,note_on,96,0,1,,,,,,,,,0,,,79,0
42576,note_on,96,0,2,,,,,,,,,1,,,79,0
42588,note_on,48,0,3,,,,,,,,,2,,,70,0
42588,note_on,48,0,4,,,,,,,,,3,,,64,0
42600,note_on,24,0,2,,,,,,,,,1,,,82,92
42600,note_on,12,0,3,,,,,,,,,2,,,68,92
42600,note_on,24,0,1,,,,,,,,,0,,,82,92
42600,note_on,12,0,4,,,,,,,,,3,,,64,92
42600,note_on,24,0,5,,,,,,,,,4,,,48,92
42648,note_on,48,0,4,,,,,,,,,3,,,64,0
42648,note_on,48,0,3,,,,,,,,,2,,,68,0
42660,note_on,12,0,3,,,,,,,,,2,,,67,92
42660,note_on,12,0,4,,,,,,,,,3,,,64,92
42696,note_on,96,0,1,,,,,,,,,0,,,82,0
42696,note_on,96,0,2,,,,,,,,,1,,,82,0
42696,note_on,96,0,5,,,,,,,,,4,,,48,0
42708,note_on,48,0,3,,,,,,,,,2,,,67,0
42708,note_on,48,0,4,,,,,,,,,3,,,64,0
42720,note_on,12,0,4,,,,,,,,,3,,,60,92
42720,note_on,12,0,3,,,,,,,,,2,,,65,92
42720,note_on,24,0,1,,,,,,,,,0,,,80,92
42720,note_on,24,0,2,,,,,,,,,1,,,80,92
42720,note_on,24,0,5,,,,,,,,,4,,,41,92
42768,note_on,48,0,1,,,,,,,,,0,,,80,0
42768,note_on,48,0,2,,,,,,,,,1,,,80,0
42768,note_on,48,0,4,,,,,,,,,3,,,60,0
42780,note_on,12,0,2,,,,,,,,,1,,,80,92
42780,note_on,12,0,4,,,,,,,,,3,,,60,92
42780,note_on,12,0,1,,,,,,,,,0,,,80,92
42816,note_on,96,0,5,,,,,,,,,4,,,41,0
42816,note_on,96,0,3,,,,,,,,,2,,,65,0
42828,note_on,48,0,2,,,,,,,,,1,,,80,0
42828,note_on,48,0,4,,,,,,,,,3,,,60,0
42828,note_on,48,0,1,,,,,,,,,0,,,80,0
42840,note_on,24,0,3,,,,,,,,,2,,,68,92
42840,note_on,24,0,5,,,,,,,,,4,,,53,92
42840,note_on,12,0,2,,,,,,,,,1,,,80,92
42840,note_on,12,0,4,,,,,,,,,3,,,60,92
42840,note_on,12,0,1,,,,,,,,,0,,,80,92
42888,note_on,48,0,1,,,,,,,,,0,,,80,0
42888,note_on,48,0,4,,,,,,,,,3,,,60,0
42888,note_on,48,0,2,,,,,,,,,1,,,80,0
42900,note_on,12,0,1,,,,,,,,,0,,,80,92
42900,note_on,12,0,4,,,,,,,,,3,,,60,92
42900,note_on,12,0,2,,,,,,,,,1,,,80,92
42936,note_on,96,0,3,,,,,,,,,2,,,68,0
42936,note_on,96,0,5,,,,,,,,,4,,,53,0
42948,note_on,48,0,4,,,,,,,,,3,,,60,0
42948,note_on,48,0,1,,,,,,,,,0,,,80,0
42948,note_on,48,0,2,,,,,,,,,1,,,80,0
42960,note_on,12,0,4,,,,,,,,,3,,,60,92
42960,note_on,24,0,3,,,,,,,,,2,,,72,92
42960,note_on,12,0,1,,,,,,,,,0,,,80,92
42960,note_on,24,0,5,,,,,,,,,4,,,56,92
42960,note_on,12,0,2,,,,,,,,,1,,,80,92
43008,note_on,48,0,4,,,,,,,,,3,,,60,0
43008,note_on,48,0,1,,,,,,,,,0,,,80,0
43008,note_on,48,0,2,,,,,,,,,1,,,80,0
43020,note_on,12,0,4,,,,,,,,,3,,,60,92
43020,note_on,12,0,1,,,,,,,,,0,,,80,92
43020,note_on,12,0,2,,,,,,,,,1,,,80,92
43056,note_on,96,0,3,,,,,,,,,2,,,72,0
43056,note_on,96,0,5,,,,,,,,,4,,,56,0
43068,note_on,48,0,2,,,,,,,,,1,,,80,0
43068,note_on,48,0,1,,,,,,,,,0,,,80,0
43068,note_on,48,0,4,,,,,,,,,3,,,60,0
43080,note_on,12,0,2,,,,,,,,,1,,,80,92
43080,note_on,12,0,1,,,,,,,,,0,,,80,92
43080,note_on,24,0,3,,,,,,,,,2,,,77,92
43080,note_on,24,0,5,,,,,,,,,4,,,53,92
43080,note_on,12,0,4,,,,,,,,,3,,,60,92
43128,note_on,48,0,1,,,,,,,,,0,,,80,0
43128,note_on,48,0,4,,,,,,,,,3,,,60,0
43128,note_on,48,0,2,,,,,,,,,1,,,80,0
43140,note_on,12,0,1,,,,,,,,,0,,,80,92
43140,note_on,12,0,2,,,,,,,,,1,,,80,92
43140,note_on,12,0,4,,,,,,,,,3,,,60,92
43176,note_on,96,0,5,,,,,,,,,4,,,53,0
43188,note_on,48,0,2,,,,,,,,,1,,,80,0
43188,note_on,48,0,1,,,,,,,,,0,,,80,0
43188,note_on,48,0,4,,,,,,,,,3,,,60,0
43200,note_on,12,0,4,,,,,,,,,3,,,62,92
43200,note_on,24,0,5,,,,,,,,,4,,,58,92
43200,note_on,12,0,1,,,,,,,,,0,,,80,92
43200,note_on,12,0,2,,,,,,,,,1,,,80,92
43248,note_on,48,0,4,,,,,,,,,3,,,62,0
43248,note_on,168,0,3,,,,,,,,,2,,,77,0
43260,note_on,12,0,3,,,,,,,,,2,,,75,92
43260,note_on,12,0,4,,,,,,,,,3,,,62,92
43296,note_on,96,0,1,,,,,,,,,0,,,80,0
43296,note_on,96,0,2,,,,,,,,,1,,,80,0
43296,note_on,96,0,5,,,,,,,,,4,,,58,0
43308,note_on,48,0,3,,,,,,,,,2,,,75,0
43308,note_on,48,0,4,,,,,,,,,3,,,62,0
43320,note_on,12,0,4,,,,,,,,,3,,,62,92
43320,note_on,24,0,5,,,,,,,,,4,,,46,92
43320,note_on,12,0,3,,,,,,,,,2,,,74,92
43320,note_on,24,0,2,,,,,,,,,1,,,74,92
43320,note_on,24,0,1,,,,,,,,,0,,,74,92
43368,note_on,48,0,4,,,,,,,,,3,,,62,0
43368,note_on,48,0,3,,,,,,,,,2,,,74,0
43380,note_on,12,0,3,,,,,,,,,2,,,72,92
43380,note_on,12,0,4,,,,,,,,,3,,,62,92
43416,note_on,96,0,5,,,,,,,,,4,,,46,0
43416,note_on,96,0,1,,,,,,,,,0,,,74,0
43416,note_on,96,0,2,,,,,,,,,1,,,74,0
43428,note_on,48,0,4,,,,,,,,,3,,,62,0
43428,note_on,48,0,3,,,,,,,,,2,,,72,0
43440,note_on,12,0,4,,,,,,,,,3,,,62,92
43440,note_on,24,0,1,,,,,,,,,0,,,77,92
43440,note_on,24,0,2,,,,,,,,,1,,,77,92
43440,note_on,12,0,3,,,,,,,,,2,,,70,92
43440,note_on,24,0,5,,,,,,,,,4,,,50,92
43488,note_on,48,0,3,,,,,,,,,2,,,70,0
43488,note_on,48,0,4,,,,,,,,,3,,,62,0
43500,note_on,12,0,3,,,,,,,,,2,,,68,92
43500,note_on,12,0,4,,,,,,,,,3,,,62,92
43536,note_on,96,0,1,,,,,,,,,0,,,77,0
43536,note_on,96,0,5,,,,,,,,,4,,,50,0
43536,note_on,96,0,2,,,,,,,,,1,,,77,0
43548,note_on,48,0,3,,,,,,,,,2,,,68,0
43548,note_on,48,0,4,,,,,,,,,3,,,62,0
43560,note_on,24,0,1,,,,,,,,,0,,,80,92
43560,note_on,12,0,4,,,,,,,,,3,,,62,92
43560,note_on,24,0,5,,,,,,,,,4,,,46,92
43560,note_on,12,0,3,,,,,,,,,2,,,67,92
43560,note_on,24,0,2,,,,,,,,,1,,,80,92
43608,note_on,48,0,3,,,,,,,,,2,,,67,0
43608,note_on,48,0,4,,,,,,,,,3,,,62,0
43620,note_on,12,0,3,,,,,,,,,2,,,65,92
43620,note_on,12,0,4,,,,,,,,,3,,,62,92
43656,note_on,96,0,1,,,,,,,,,0,,,80,0
43656,note_on,96,0,2,,,,,,,,,1,,,80,0
43656,note_on,96,0,5,,,,,,,,,4,,,46,0
43668,note_on,48,0,4,,,,,,,,,3,,,62,0
43668,note_on,48,0,3,,,,,,,,,2,,,65,0
43680,note_on,24,0,5,,,,,,,,,4,,,39,92
43680,note_on,12,0,4,,,,,,,,,3,,,58,92
43680,note_on,12,0,3,,,,,,,,,2,,,63,92
43680,note_on,24,0,1,,,,,,,,,0,,,79,92
43680,note_on,24,0,2,,,,,,,,,1,,,79,92
43728,note_on,48,0,1,,,,,,,,,0,,,79,0
43728,note_on,48,0,4,,,,,,,,,3,,,58,0
43728,note_on,48,0,2,,,,,,,,,1,,,79,0
43740,note_on,12,0,1,,,,,,,,,0,,,79,92
43740,note_on,12,0,2,,,,,,,,,1,,,79,92
43740,note_on,12,0,4,,,,,,,,,3,,,58,92
43776,note_on,96,0,3,,,,,,,,,2,,,63,0
43776,note_on,96,0,5,,,,,,,,,4,,,39,0
43788,note_on,48,0,2,,,,,,,,,1,,,79,0
43788,note_on,48,0,1,,,,,,,,,0,,,79,0
43788,note_on,48,0,4,,,,,,,,,3,,,58,0
43800,note_on,12,0,2,,,,,,,,,1,,,79,92
43800,note_on,12,0,4,,,,,,,,,3,,,58,92
43800,note_on,24,0,5,,,,,,,,,4,,,51,92
43800,note_on,24,0,3,,,,,,,,,2,,,67,92
43800,note_on,12,0,1,,,,,,,,,0,,,79,92
43848,note_on,48,0,4,,,,,,,,,3,,,58,0
43848,note_on,48,0,2,,,,,,,,,1,,,79,0
43848,note_on,48,0,1,,,,,,,,,0,,,79,0
43860,note_on,12,0,4,,,,,,,,,3,,,58,92
43860,note_on,12,0,2,,,,,,,,,1,,,79,92
43860,note_on,12,0,1,,,,,,,,,0,,,79,92
43896,note_on,96,0,3,,,,,,,,,2,,,67,0
43896,note_on,96,0,5,,,,,,,,,4,,,51,0
43908,note_on,48,0,4,,,,,,,,,3,,,58,0
43908,note_on,48,0,2,,,,,,,,,1,,,79,0
43908,note_on,48,0,1,,,,,,,,,0,,,79,0
43920,note_on,12,0,4,,,,,,,,,3,,,58,92
43920,note_on,24,0,3,,,,,,,,,2,,,70,92
43920,note_on,12,0,1,,,,,,,,,0,,,79,92
43920,note_on,12,0,2,,,,,,,,,1,,,79,92
43920,note_on,24,0,5,,,,,,,,,4,,,55,92
43968,note_on,48,0,2,,,,,,,,,1,,,79,0
43968,note_on,48,0,4,,,,,,,,,3,,,58,0
43968,note_on,48,0,1,,,,,,,,,0,,,79,0
43980,note_on,12,0,2,,,,,,,,,1,,,79,92
43980,note_on,12,0,1,,,,,,,,,0,,,79,92
43980,note_on,12,0,4,,,,,,,,,3,,,58,92
44016,note_on,96,0,5,,,,,,,,,4,,,55,0
44016,note_on,96,0,3,,,,,,,,,2,,,70,0
44028,note_on,48,0,2,,,,,,,,,1,,,79,0
44028,note_on,48,0,1,,,,,,,,,0,,,79,0
44028,note_on,48,0,4,,,,,,,,,3,,,58,0
44040,note_on,24,0,5,,,,,,,,,4,,,51,92
44040,note_on,24,0,3,,,,,,,,,2,,,75,92
44040,note_on,12,0,4,,,,,,,,,3,,,58,92
44040,note_on,12,0,1,,,,,,,,,0,,,79,92
44040,note_on,12,0,2,,,,,,,,,1,,,79,92
44088,note_on,48,0,2,,,,,,,,,1,,,79,0
44088,note_on,48,0,4,,,,,,,,,3,,,58,0
44088,note_on,48,0,1,,,,,,,,,0,,,79,0
44100,note_on,12,0,2,,,,,,,,,1,,,79,92
44100,note_on,12,0,1,,,,,,,,,0,,,79,92
44100,note_on,12,0,4,,,,,,,,,3,,,58,92
44136,note_on,96,0,5,,,,,,,,,4,,,51,0
44148,note_on,48,0,4,,,,,,,,,3,,,58,0
44148,note_on,48,0,1,,,,,,,,,0,,,79,0
44148,note_on,48,0,2,,,,,,,,,1,,,79,0
44160,note_on,12,0,2,,,,,,,,,1,,,79,92
44160,note_on,24,0,5,,,,,,,,,4,,,56,92
44160,note_on,12,0,4,,,,,,,,,3,,,60,92
44160,note_on,12,0,1,,,,,,,,,0,,,79,92
44208,note_on,48,0,4,,,,,,,,,3,,,60,0
44208,note_on,168,0,3,,,,,,,,,2,,,75,0
44220,note_on,12,0,4,,,,,,,,,3,,,60,92
44220,note_on,12,0,3,,,,,,,,,2,,,74,92
44256,note_on,96,0,2,,,,,,,,,1,,,79,0
44256,note_on,96,0,1,,,,,,,,,0,,,79,0
44256,note_on,96,0,5,,,,,,,,,4,,,56,0
44268,note_on,48,0,4,,,,,,,,,3,,,60,0
44268,note_on,48,0,3,,,,,,,,,2,,,74,0
44280,note_on,12,0,4,,,,,,,,,3,,,60,92
44280,note_on,24,0,2,,,,,,,,,1,,,72,92
44280,note_on,24,0,5,,,,,,,,,4,,,44,92
44280,note_on,12,0,3,,,,,,,,,2,,,72,92
44280,note_on,24,0,1,,,,,,,,,0,,,72,92
44328,note_on,48,0,4,,,,,,,,,3,,,60,0
44328,note_on,48,0,3,,,,,,,,,2,,,72,0
44340,note_on,12,0,3,,,,,,,,,2,,,70,92
44340,note_on,12,0,4,,,,,,,,,3,,,60,92
44376,note_on,96,0,5,,,,,,,,,4,,,44,0
44376,note_on,96,0,2,,,,,,,,,1,,,72,0
44376,note_on,96,0,1,,,,,,,,,0,,,72,0
44388,note_on,48,0,4,,,,,,,,,3,,,60,0
44388,note_on,48,0,3,,,,,,,,,2,,,70,0
44400,note_on,12,0,4,,,,,,,,,3,,,60,92
44400,note_on,24,0,1,,,,,,,,,0,,,75,92
44400,note_on,24,0,2,,,,,,,,,1,,,75,92
44400,note_on,24,0,5,,,,,,,,,4,,,48,92
44400,note_on,12,0,3,,,,,,,,,2,,,68,92
44448,note_on,48,0,4,,,,,,,,,3,,,60,0
44448,note_on,48,0,3,,,,,,,,,2,,,68,0
44460,note_on,12,0,3,,,,,,,,,2,,,67,92
44460,note_on,12,0,4,,,,,,,,,3,,,60,92
44496,note_on,96,0,1,,,,,,,,,0,,,75,0
44496,note_on,96,0,2,,,,,,,,,1,,,75,0
44496,note_on,96,0,5,,,,,,,,,4,,,48,0
44508,note_on,48,0,4,,,,,,,,,3,,,60,0
44508,note_on,48,0,3,,,,,,,,,2,,,67,0
44520,note_on,24,0,1,,,,,,,,,0,,,79,92
44520,note_on,24,0,2,,,,,,,,,1,,,79,92
44520,note_on,24,0,5,,,,,,,,,4,,,44,92
44520,note_on,12,0,4,,,,,,,,,3,,,60,92
44520,note_on,12,0,3,,,,,,,,,2,,,65,92
44568,note_on,48,0,4,,,,,,,,,3,,,60,0
44568,note_on,48,0,3,,,,,,,,,2,,,65,0
44580,note_on,12,0,3,,,,,,,,,2,,,63,92
44580,note_on,12,0,4,,,,,,,,,3,,,60,92
44616,note_on,96,0,2,,,,,,,,,1,,,79,0
44616,note_on,96,0,5,,,,,,,,,4,,,44,0
44616,note_on,96,0,1,,,,,,,,,0,,,79,0
44628,note_on,48,0,3,,,,,,,,,2,,,63,0
44628,note_on,48,0,4,,,,,,,,,3,,,60,0
44640,note_on,12,0,3,,,,,,,,,2,,,62,92
44640,note_on,12,0,4,,,,,,,,,3,,,59,92
44640,note_on,24,0,5,,,,,,,,,4,,,38,92
44640,note_on,24,0,1,,,,,,,,,0,,,77,92
44640,note_on,24,0,2,,,,,,,,,1,,,77,92
44688,note_on,48,0,4,,,,,,,,,3,,,59,0
44688,note_on,48,0,2,,,,,,,,,1,,,77,0
44688,note_on,48,0,1,,,,,,,,,0,,,77,0
44700,note_on,12,0,1,,,,,,,,,0,,,77,92
44700,note_on,12,0,4,,,,,,,,,3,,,59,92
44700,note_on,12,0,2,,,,,,,,,1,,,77,92
44736,note_on,96,0,3,,,,,,,,,2,,,62,0
44736,note_on,96,0,5,,,,,,,,,4,,,38,0
44748,note_on,48,0,4,,,,,,,,,3,,,59,0
44748,note_on,48,0,2,,,,,,,,,1,,,77,0
44748,note_on,48,0,1,,,,,,,,,0,,,77,0
44760,note_on,24,0,5,,,,,,,,,4,,,50,92
44760,note_on,12,0,2,,,,,,,,,1,,,77,92
44760,note_on,24,0,3,,,,,,,,,2,,,65,92
44760,note_on,12,0,4,,,,,,,,,3,,,59,92
44760,note_on,12,0,1,,,,,,,,,0,,,77,92
44808,note_on,48,0,1,,,,,,,,,0,,,77,0
44808,note_on,48,0,4,,,,,,,,,3,,,59,0
44808,note_on,48,0,2,,,,,,,,,1,,,77,0
44820,note_on,12,0,4,,,,,,,,,3,,,59,92
44820,note_on,12,0,2,,,,,,,,,1,,,77,92
44820,note_on,12,0,1,,,,,,,,,0,,,77,92
44856,note_on,96,0,5,,,,,,,,,4,,,50,0
44856,note_on,96,0,3,,,,,,,,,2,,,65,0
44868,note_on,48,0,4,,,,,,,,,3,,,59,0
44868,note_on,48,0,1,,,,,,,,,0,,,77,0
44868,note_on,48,0,2,,,,,,,,,1,,,77,0
44880,note_on,12,0,2,,,,,,,,,1,,,77,92
44880,note_on,24,0,3,,,,,,,,,2,,,71,92
44880,note_on,12,0,1,,,,,,,,,0,,,77,92
44880,note_on,12,0,4,,,,,,,,,3,,,59,92
44880,note_on,24,0,5,,,,,,,,,4,,,47,92
44928,note_on,48,0,1,,,,,,,,,0,,,77,0
44928,note_on,48,0,2,,,,,,,,,1,,,77,0
44928,note_on,48,0,4,,,,,,,,,3,,,59,0
44940,note_on,12,0,2,,,,,,,,,1,,,77,92
44940,note_on,12,0,1,,,,,,,,,0,,,77,92
44940,note_on,12,0,4,,,,,,,,,3,,,59,92
44976,note_on,96,0,3,,,,,,,,,2,,,71,0
44976,note_on,96,0,5,,,,,,,,,4,,,47,0
44988,note_on,48,0,4,,,,,,,,,3,,,59,0
44988,note_on,48,0,1,,,,,,,,,0,,,77,0
44988,note_on,48,0,2,,,,,,,,,1,,,77,0
45000,note_on,12,0,4,,,,,,,,,3,,,59,92
45000,note_on,12,0,1,,,,,,,,,0,,,77,92
45000,note_on,12,0,2,,,,,,,,,1,,,77,92
45000,note_on,24,0,5,,,,,,,,,4,,,50,92
45000,note_on,24,0,3,,,,,,,,,2,,,74,92
45048,note_on,48,0,4,,,,,,,,,3,,,59,0
45048,note_on,48,0,1,,,,,,,,,0,,,77,0
45048,note_on,48,0,2,,,,,,,,,1,,,77,0
45060,note_on,12,0,4,,,,,,,,,3,,,59,92
45060,note_on,12,0,2,,,,,,,,,1,,,77,92
45060,note_on,12,0,1,,,,,,,,,0,,,77,92
45096,note_on,96,0,5,,,,,,,,,4,,,50,0
45108,note_on,48,0,4,,,,,,,,,3,,,59,0
45108,note_on,48,0,1,,,,,,,,,0,,,77,0
45108,note_on,48,0,2,,,,,,,,,1,,,77,0
45120,note_on,12,0,4,,,,,,,,,3,,,59,92
45120,note_on,12,0,1,,,,,,,,,0,,,77,92
45120,note_on,12,0,2,,,,,,,,,1,,,77,92
45120,note_on,24,0,5,,,,,,,,,4,,,56,92
45168,note_on,48,0,4,,,,,,,,,3,,,59,0
45168,note_on,168,0,3,,,,,,,,,2,,,74,0
45180,note_on,12,0,4,,,,,,,,,3,,,59,92
45180,note_on,12,0,3,,,,,,,,,2,,,72,92
45216,note_on,96,0,5,,,,,,,,,4,,,56,0
45216,note_on,96,0,1,,,,,,,,,0,,,77,0
45216,note_on,96,0,2,,,,,,,,,1,,,77,0
45228,note_on,48,0,3,,,,,,,,,2,,,72,0
45228,note_on,48,0,4,,,,,,,,,3,,,59,0
45240,note_on,24,0,2,,,,,,,,,1,,,71,92
45240,note_on,24,0,5,,,,,,,,,4,,,43,92
45240,note_on,24,0,1,,,,,,,,,0,,,71,92
45240,note_on,12,0,3,,,,,,,,,2,,,71,92
45240,note_on,12,0,4,,,,,,,,,3,,,59,92
45288,note_on,48,0,3,,,,,,,,,2,,,71,0
45288,note_on,48,0,4,,,,,,,,,3,,,59,0
45300,note_on,12,0,3,,,,,,,,,2,,,69,92
45300,note_on,12,0,4,,,,,,,,,3,,,59,92
45336,note_on,96,0,1,,,,,,,,,0,,,71,0
45336,note_on,96,0,5,,,,,,,,,4,,,43,0
45336,note_on,96,0,2,,,,,,,,,1,,,71,0
45348,note_on,48,0,4,,,,,,,,,3,,,59,0
45348,note_on,48,0,3,,,,,,,,,2,,,69,0
45360,note_on,12,0,4,,,,,,,,,3,,,59,92
45360,note_on,12,0,3,,,,,,,,,2,,,67,92
45360,note_on,24,0,1,,,,,,,,,0,,,74,92
45360,note_on,24,0,2,,,,,,,,,1,,,74,92
45360,note_on,24,0,5,,,,,,,,,4,,,47,92
45408,note_on,48,0,4,,,,,,,,,3,,,59,0
45408,note_on,48,0,3,,,,,,,,,2,,,67,0
45420,note_on,12,0,4,,,,,,,,,3,,,59,92
45420,note_on,12,0,3,,,,,,,,,2,,,65,92
45456,note_on,96,0,2,,,,,,,,,1,,,74,0
45456,note_on,96,0,1,,,,,,,,,0,,,74,0
45456,note_on,96,0,5,,,,,,,,,4,,,47,0
45468,note_on,48,0,4,,,,,,,,,3,,,59,0
45468,note_on,48,0,3,,,,,,,,,2,,,65,0
45480,note_on,12,0,4,,,,,,,,,3,,,59,92
45480,note_on,24,0,1,,,,,,,,,0,,,77,92
45480,note_on,24,0,2,,,,,,,,,1,,,77,92
45480,note_on,12,0,3,,,,,,,,,2,,,63,92
45480,note_on,24,0,5,,,,,,,,,4,,,43,92
45528,note_on,48,0,3,,,,,,,,,2,,,63,0
45528,note_on,48,0,4,,,,,,,,,3,,,59,0
45540,note_on,12,0,4,,,,,,,,,3,,,59,92
45540,note_on,12,0,3,,,,,,,,,2,,,62,92
45576,note_on,96,0,2,,,,,,,,,1,,,77,0
45576,note_on,96,0,1,,,,,,,,,0,,,77,0
45576,note_on,96,0,5,,,,,,,,,4,,,43,0
45588,note_on,48,0,4,,,,,,,,,3,,,59,0
45588,note_on,48,0,3,,,,,,,,,2,,,62,0
45600,note_on,24,0,2,,,,,,,,,1,,,75,92
45600,note_on,12,0,4,,,,,,,,,3,,,55,92
45600,note_on,24,0,5,,,,,,,,,4,,,36,92
45600,note_on,12,0,3,,,,,,,,,2,,,60,92
45600,note_on,24,0,1,,,,,,,,,0,,,75,92
45648,note_on,48,0,4,,,,,,,,,3,,,55,0
45648,note_on,48,0,2,,,,,,,,,1,,,75,0
45648,note_on,48,0,1,,,,,,,,,0,,,75,0
45660,note_on,12,0,1,,,,,,,,,0,,,75,92
45660,note_on,12,0,4,,,,,,,,,3,,,55,92
45660,note_on,12,0,2,,,,,,,,,1,,,75,92
45696,note_on,96,0,3,,,,,,,,,2,,,60,0
45696,note_on,96,0,5,,,,,,,,,4,,,36,0
45708,note_on,48,0,1,,,,,,,,,0,,,75,0
45708,note_on,48,0,4,,,,,,,,,3,,,55,0
45708,note_on,48,0,2,,,,,,,,,1,,,75,0
45720,note_on,24,0,5,,,,,,,,,4,,,48,92
45720,note_on,12,0,4,,,,,,,,,3,,,55,92
45720,note_on,12,0,2,,,,,,,,,1,,,75,92
45720,note_on,12,0,1,,,,,,,,,0,,,75,92
45720,note_on,24,0,3,,,,,,,,,2,,,63,92
45768,note_on,48,0,2,,,,,,,,,1,,,75,0
45768,note_on,48,0,1,,,,,,,,,0,,,75,0
45768,note_on,48,0,4,,,,,,,,,3,,,55,0
45780,note_on,12,0,1,,,,,,,,,0,,,75,92
45780,note_on,12,0,4,,,,,,,,,3,,,55,92
45780,note_on,12,0,2,,,,,,,,,1,,,75,92
45816,note_on,96,0,3,,,,,,,,,2,,,63,0
45816,note_on,96,0,5,,,,,,,,,4,,,48,0
45828,note_on,48,0,2,,,,,,,,,1,,,75,0
45828,note_on,48,0,4,,,,,,,,,3,,,55,0
45828,note_on,48,0,1,,,,,,,,,0,,,75,0
45840,note_on,12,0,1,,,,,,,,,0,,,75,92
45840,note_on,24,0,5,,,,,,,,,4,,,51,92
45840,note_on,12,0,2,,,,,,,,,1,,,75,92
45840,note_on,24,0,3,,,,,,,,,2,,,67,92
45840,note_on,12,0,4,,,,,,,,,3,,,55,92
45888,note_on,48,0,2,,,,,,,,,1,,,75,0
45888,note_on,48,0,4,,,,,,,,,3,,,55,0
45888,note_on,48,0,1,,,,,,,,,0,,,75,0
45900,note_on,12,0,2,,,,,,,,,1,,,75,92
45900,note_on,12,0,4,,,,,,,,,3,,,55,92
45900,note_on,12,0,1,,,,,,,,,0,,,75,92
45936,note_on,96,0,5,,,,,,,,,4,,,51,0
45936,note_on,96,0,3,,,,,,,,,2,,,67,0
45948,note_on,48,0,1,,,,,,,,,0,,,75,0
45948,note_on,48,0,4,,,,,,,,,3,,,55,0
45948,note_on,48,0,2,,,,,,,,,1,,,75,0
45960,note_on,24,0,3,,,,,,,,,2,,,72,92
45960,note_on,12,0,1,,,,,,,,,0,,,75,92
45960,note_on,12,0,4,,,,,,,,,3,,,55,92
45960,note_on,12,0,2,,,,,,,,,1,,,75,92
45960,note_on,24,0,5,,,,,,,,,4,,,48,92
46008,note_on,48,0,2,,,,,,,,,1,,,75,0
46008,note_on,48,0,4,,,,,,,,,3,,,55,0
46008,note_on,48,0,1,,,,,,,,,0,,,75,0
46020,note_on,12,0,4,,,,,,,,,3,,,55,92
46020,note_on,12,0,1,,,,,,,,,0,,,75,92
46020,note_on,12,0,2,,,,,,,,,1,,,75,92
46056,note_on,96,0,5,,,,,,,,,4,,,48,0
46068,note_on,48,0,4,,,,,,,,,3,,,55,0
46068,note_on,48,0,1,,,,,,,,,0,,,75,0
46068,note_on,48,0,2,,,,,,,,,1,,,75,0
46080,note_on,24,0,5,,,,,,,,,4,,,54,92
46080,note_on,12,0,1,,,,,,,,,0,,,75,92
46080,note_on,12,0,2,,,,,,,,,1,,,75,92
46080,note_on,12,0,4,,,,,,,,,3,,,57,92
46128,note_on,168,0,3,,,,,,,,,2,,,72,0
46128,note_on,48,0,4,,,,,,,,,3,,,57,0
46140,note_on,12,0,3,,,,,,,,,2,,,70,92
46140,note_on,12,0,4,,,,,,,,,3,,,57,92
46176,note_on,96,0,5,,,,,,,,,4,,,54,0
46176,note_on,96,0,1,,,,,,,,,0,,,75,0
46176,note_on,96,0,2,,,,,,,,,1,,,75,0
46188,note_on,48,0,4,,,,,,,,,3,,,57,0
46188,note_on,48,0,3,,,,,,,,,2,,,70,0
46200,note_on,24,0,1,,,,,,,,,0,,,69,92
46200,note_on,24,0,5,,,,,,,,,4,,,42,92
46200,note_on,12,0,3,,,,,,,,,2,,,69,92
46200,note_on,24,0,2,,,,,,,,,1,,,69,92
46200,note_on,12,0,4,,,,,,,,,3,,,57,92
46248,note_on,48,0,3,,,,,,,,,2,,,69,0
46248,note_on,48,0,4,,,,,,,,,3,,,57,0
46260,note_on,12,0,3,,,,,,,,,2,,,67,92
46260,note_on,12,0,4,,,,,,,,,3,,,57,92
46296,note_on,96,0,5,,,,,,,,,4,,,42,0
46296,note_on,96,0,1,,,,,,,,,0,,,69,0
46296,note_on,96,0,2,,,,,,,,,1,,,69,0
46308,note_on,48,0,4,,,,,,,,,3,,,57,0
46308,note_on,48,0,3,,,,,,,,,2,,,67,0
46320,note_on,24,0,2,,,,,,,,,1,,,72,92
46320,note_on,24,0,5,,,,,,,,,4,,,45,92
46320,note_on,12,0,4,,,,,,,,,3,,,57,92
46320,note_on,24,0,1,,,,,,,,,0,,,72,92
46320,note_on,12,0,3,,,,,,,,,2,,,66,92
46368,note_on,48,0,3,,,,,,,,,2,,,66,0
46368,note_on,48,0,4,,,,,,,,,3,,,57,0
46380,note_on,12,0,3,,,,,,,,,2,,,64,92
46380,note_on,12,0,4,,,,,,,,,3,,,57,92
46416,note_on,96,0,1,,,,,,,,,0,,,72,0
46416,note_on,96,0,5,,,,,,,,,4,,,45,0
46416,note_on,96,0,2,,,,,,,,,1,,,72,0
46428,note_on,48,0,4,,,,,,,,,3,,,57,0
46428,note_on,48,0,3,,,,,,,,,2,,,64,0
46440,note_on,24,0,5,,,,,,,,,4,,,41,92
46440,note_on,24,0,1,,,,,,,,,0,,,75,92
46440,note_on,24,0,2,,,,,,,,,1,,,75,92
46440,note_on,12,0,4,,,,,,,,,3,,,57,92
46440,note_on,12,0,3,,,,,,,,,2,,,62,92
46488,note_on,48,0,3,,,,,,,,,2,,,62,0
46488,note_on,48,0,4,,,,,,,,,3,,,57,0
46500,note_on,12,0,4,,,,,,,,,3,,,57,92
46500,note_on,12,0,3,,,,,,,,,2,,,60,92
46536,note_on,96,0,2,,,,,,,,,1,,,75,0
46536,note_on,96,0,5,,,,,,,,,4,,,41,0
46536,note_on,96,0,1,,,,,,,,,0,,,75,0
46548,note_on,48,0,3,,,,,,,,,2,,,60,0
46548,note_on,48,0,4,,,,,,,,,3,,,57,0
46560,note_on,12,0,4,,,,,,,,,3,,,53,92
46560,note_on,24,0,1,,,,,,,,,0,,,73,92
46560,note_on,24,0,2,,,,,,,,,1,,,73,92
46560,note_on,12,0,3,,,,,,,,,2,,,68,92
46560,note_on,24,0,5,,,,,,,,,4,,,53,92
46608,note_on,48,0,4,,,,,,,,,3,,,53,0
46608,note_on,48,0,3,,,,,,,,,2,,,68,0
46620,note_on,12,0,4,,,,,,,,,3,,,53,92
46620,note_on,12,0,3,,,,,,,,,2,,,68,92
46656,note_on,96,0,2,,,,,,,,,1,,,73,0
46656,note_on,96,0,1,,,,,,,,,0,,,73,0
46656,note_on,96,0,5,,,,,,,,,4,,,53,0
46668,note_on,48,0,3,,,,,,,,,2,,,68,0
46668,note_on,48,0,4,,,,,,,,,3,,,53,0
46680,note_on,12,0,4,,,,,,,,,3,,,53,92
46680,note_on,24,0,1,,,,,,,,,0,,,77,92
46680,note_on,24,0,2,,,,,,,,,1,,,77,92
46680,note_on,24,0,5,,,,,,,,,4,,,53,92
46680,note_on,12,0,3,,,,,,,,,2,,,68,92
46728,note_on,48,0,4,,,,,,,,,3,,,53,0
46728,note_on,48,0,3,,,,,,,,,2,,,68,0
46740,note_on,12,0,3,,,,,,,,,2,,,68,92
46740,note_on,12,0,4,,,,,,,,,3,,,53,92
46776,note_on,96,0,2,,,,,,,,,1,,,77,0
46776,note_on,96,0,1,,,,,,,,,0,,,77,0
46776,note_on,96,0,5,,,,,,,,,4,,,53,0
46788,note_on,48,0,4,,,,,,,,,3,,,53,0
46788,note_on,48,0,3,,,,,,,,,2,,,68,0
46800,note_on,24,0,1,,,,,,,,,0,,,80,92
46800,note_on,24,0,2,,,,,,,,,1,,,80,92
46800,note_on,24,0,5,,,,,,,,,4,,,41,92
46800,note_on,12,0,3,,,,,,,,,2,,,68,92
46800,note_on,12,0,4,,,,,,,,,3,,,53,92
46848,note_on,48,0,3,,,,,,,,,2,,,68,0
46848,note_on,48,0,4,,,,,,,,,3,,,53,0
46860,note_on,12,0,4,,,,,,,,,3,,,53,92
46860,note_on,12,0,3,,,,,,,,,2,,,68,92
46896,note_on,96,0,5,,,,,,,,,4,,,41,0
46908,note_on,48,0,4,,,,,,,,,3,,,53,0
46908,note_on,48,0,3,,,,,,,,,2,,,68,0
46920,note_on,12,0,3,,,,,,,,,2,,,68,92
46920,note_on,12,0,4,,,,,,,,,3,,,53,92
46968,note_on,48,0,3,,,,,,,,,2,,,68,0
46968,note_on,48,0,4,,,,,,,,,3,,,53,0
46980,note_on,12,0,3,,,,,,,,,2,,,68,92
46980,note_on,12,0,4,,,,,,,,,3,,,53,92
46992,note_on,192,0,2,,,,,,,,,1,,,80,0
46992,note_on,192,0,1,,,,,,,,,0,,,80,0
47028,note_on,48,0,4,,,,,,,,,3,,,53,0
47028,note_on,48,0,3,,,,,,,,,2,,,68,0
47040,note_on,12,0,3,,,,,,,,,2,,,68,92
47040,note_on,12,0,4,,,,,,,,,3,,,65,92
47040,note_on,144,0,5,,,,,,,,,4,,,41,92
47088,note_on,48,0,3,,,,,,,,,2,,,68,0
47088,note_on,48,0,4,,,,,,,,,3,,,65,0
47100,note_on,12,0,4,,,,,,,,,3,,,65,92
47100,note_on,12,0,3,,,,,,,,,2,,,68,92
47136,note_on,96,0,5,,,,,,,,,4,,,41,0
47148,note_on,48,0,4,,,,,,,,,3,,,65,0
47148,note_on,48,0,3,,,,,,,,,2,,,68,0
47160,note_on,12,0,3,,,,,,,,,2,,,68,92
47160,note_on,24,0,5,,,,,,,,,4,,,53,92
47160,note_on,168,0,2,,,,,,,,,1,,,72,92
47160,note_on,168,0,1,,,,,,,,,0,,,72,92
47160,note_on,12,0,4,,,,,,,,,3,,,65,92
47208,note_on,48,0,4,,,,,,,,,3,,,65,0
47208,note_on,48,0,3,,,,,,,,,2,,,68,0
47220,note_on,12,0,4,,,,,,,,,3,,,65,92
47220,note_on,12,0,3,,,,,,,,,2,,,68,92
47256,note_on,96,0,5,,,,,,,,,4,,,53,0
47256,note_on,96,0,1,,,,,,,,,0,,,72,0
47256,note_on,96,0,2,,,,,,,,,1,,,72,0
47268,note_on,48,0,3,,,,,,,,,2,,,68,0
47268,note_on,48,0,4,,,,,,,,,3,,,65,0
47280,note_on,24,0,2,,,,,,,,,1,,,77,92
47280,note_on,24,0,1,,,,,,,,,0,,,77,92
47280,note_on,12,0,3,,,,,,,,,2,,,68,92
47280,note_on,24,0,5,,,,,,,,,4,,,53,92
47280,note_on,12,0,4,,,,,,,,,3,,,65,92
47328,note_on,48,0,4,,,,,,,,,3,,,65,0
47328,note_on,48,0,3,,,,,,,,,2,,,68,0
47340,note_on,12,0,3,,,,,,,,,2,,,68,92
47340,note_on,12,0,4,,,,,,,,,3,,,65,92
47376,note_on,96,0,5,,,,,,,,,4,,,53,0
47376,note_on,96,0,2,,,,,,,,,1,,,77,0
47376,note_on,96,0,1,,,,,,,,,0,,,77,0
47388,note_on,48,0,4,,,,,,,,,3,,,65,0
47388,note_on,48,0,3,,,,,,,,,2,,,68,0
47400,note_on,24,0,2,,,,,,,,,1,,,80,92
47400,note_on,24,0,5,,,,,,,,,4,,,41,92
47400,note_on,24,0,1,,,,,,,,,0,,,80,92
47400,note_on,12,0,4,,,,,,,,,3,,,65,92
47400,note_on,12,0,3,,,,,,,,,2,,,68,92
47448,note_on,48,0,4,,,,,,,,,3,,,65,0
47448,note_on,48,0,3,,,,,,,,,2,,,68,0
47460,note_on,12,0,4,,,,,,,,,3,,,65,92
47460,note_on,12,0,3,,,,,,,,,2,,,68,92
47496,note_on,96,0,5,,,,,,,,,4,,,41,0
47496,note_on,96,0,1,,,,,,,,,0,,,80,0
47496,note_on,96,0,2,,,,,,,,,1,,,80,0
47508,note_on,48,0,4,,,,,,,,,3,,,65,0
47508,note_on,48,0,3,,,,,,,,,2,,,68,0
47520,note_on,12,0,4,,,,,,,,,3,,,62,92
47520,note_on,12,0,3,,,,,,,,,2,,,67,92
47520,note_on,24,0,5,,,,,,,,,4,,,41,92
47520,note_on,24,0,2,,,,,,,,,1,,,71,92
47520,note_on,24,0,1,,,,,,,,,0,,,71,92
47568,note_on,48,0,3,,,,,,,,,2,,,67,0
47568,note_on,48,0,4,,,,,,,,,3,,,62,0
47580,note_on,12,0,3,,,,,,,,,2,,,67,92
47580,note_on,12,0,4,,,,,,,,,3,,,62,92
47616,note_on,96,0,5,,,,,,,,,4,,,41,0
47616,note_on,96,0,1,,,,,,,,,0,,,71,0
47616,note_on,96,0,2,,,,,,,,,1,,,71,0
47628,note_on,48,0,3,,,,,,,,,2,,,67,0
47628,note_on,48,0,4,,,,,,,,,3,,,62,0
47640,note_on,24,0,1,,,,,,,,,0,,,67,92
47640,note_on,12,0,4,,,,,,,,,3,,,62,92
47640,note_on,12,0,3,,,,,,,,,2,,,67,92
47640,note_on,24,0,5,,,,,,,,,4,,,53,92
47640,note_on,24,0,2,,,,,,,,,1,,,67,92
47688,note_on,48,0,4,,,,,,,,,3,,,62,0
47688,note_on,48,0,3,,,,,,,,,2,,,67,0
47700,note_on,12,0,3,,,,,,,,,2,,,67,92
47700,note_on,12,0,4,,,,,,,,,3,,,62,92
47736,note_on,96,0,5,,,,,,,,,4,,,53,0
47736,note_on,96,0,2,,,,,,,,,1,,,67,0
47736,note_on,96,0,1,,,,,,,,,0,,,67,0
47748,note_on,48,0,4,,,,,,,,,3,,,62,0
47748,note_on,48,0,3,,,,,,,,,2,,,67,0
47760,note_on,24,0,5,,,,,,,,,4,,,53,92
47760,note_on,24,0,1,,,,,,,,,0,,,71,92
47760,note_on,12,0,3,,,,,,,,,2,,,67,92
47760,note_on,24,0,2,,,,,,,,,1,,,71,92
47760,note_on,12,0,4,,,,,,,,,3,,,62,92
47808,note_on,48,0,4,,,,,,,,,3,,,62,0
47808,note_on,48,0,3,,,,,,,,,2,,,67,0
47820,note_on,12,0,3,,,,,,,,,2,,,67,92
47820,note_on,12,0,4,,,,,,,,,3,,,62,92
47856,note_on,96,0,5,,,,,,,,,4,,,53,0
47856,note_on,96,0,1,,,,,,,,,0,,,71,0
47856,note_on,96,0,2,,,,,,,,,1,,,71,0
47868,note_on,48,0,3,,,,,,,,,2,,,67,0
47868,note_on,48,0,4,,,,,,,,,3,,,62,0
47880,note_on,24,0,1,,,,,,,,,0,,,74,92
47880,note_on,24,0,5,,,,,,,,,4,,,41,92
47880,note_on,12,0,4,,,,,,,,,3,,,62,92
47880,note_on,24,0,2,,,,,,,,,1,,,74,92
47880,note_on,12,0,3,,,,,,,,,2,,,67,92
47928,note_on,48,0,3,,,,,,,,,2,,,67,0
47928,note_on,48,0,4,,,,,,,,,3,,,62,0
47940,note_on,12,0,3,,,,,,,,,2,,,67,92
47940,note_on,12,0,4,,,,,,,,,3,,,62,92
47976,note_on,96,0,5,,,,,,,,,4,,,41,0
47976,note_on,96,0,1,,,,,,,,,0,,,74,0
47976,note_on,96,0,2,,,,,,,,,1,,,74,0
47988,note_on,48,0,3,,,,,,,,,2,,,67,0
47988,note_on,48,0,4,,,,,,,,,3,,,62,0
48000,note_on,12,0,3,,,,,,,,,2,,,67,92
48000,note_on,24,0,2,,,,,,,,,1,,,72,92
48000,note_on,12,0,4,,,,,,,,,3,,,63,92
48000,note_on,24,0,5,,,,,,,,,4,,,39,92
48000,note_on,24,0,1,,,,,,,,,0,,,72,92
48048,note_on,48,0,1,,,,,,,,,0,,,72,0
48048,note_on,48,0,3,,,,,,,,,2,,,67,0
48048,note_on,48,0,2,,,,,,,,,1,,,72,0
48048,note_on,48,0,4,,,,,,,,,3,,,63,0
48060,note_on,12,0,4,,,,,,,,,3,,,63,92
48060,note_on,12,0,3,,,,,,,,,2,,,67,92
48060,note_on,12,0,1,,,,,,,,,0,,,72,92
48060,note_on,12,0,2,,,,,,,,,1,,,72,92
48096,note_on,96,0,5,,,,,,,,,4,,,39,0
48108,note_on,48,0,3,,,,,,,,,2,,,67,0
48108,note_on,48,0,1,,,,,,,,,0,,,72,0
48108,note_on,48,0,2,,,,,,,,,1,,,72,0
48108,note_on,48,0,4,,,,,,,,,3,,,63,0
48120,note_on,12,0,1,,,,,,,,,0,,,72,92
48120,note_on,12,0,3,,,,,,,,,2,,,67,92
48120,note_on,12,0,4,,,,,,,,,3,,,63,92
48120,note_on,12,0,2,,,,,,,,,1,,,72,92
48120,note_on,24,0,5,,,,,,,,,4,,,51,92
48168,note_on,48,0,3,,,,,,,,,2,,,67,0
48168,note_on,48,0,2,,,,,,,,,1,,,72,0
48168,note_on,48,0,1,,,,,,,,,0,,,72,0
48168,note_on,48,0,4,,,,,,,,,3,,,63,0
48180,note_on,12,0,1,,,,,,,,,0,,,72,92
48180,note_on,12,0,2,,,,,,,,,1,,,72,92
48180,note_on,12,0,3,,,,,,,,,2,,,67,92
48180,note_on,12,0,4,,,,,,,,,3,,,63,92
48216,note_on,96,0,5,,,,,,,,,4,,,51,0
48228,note_on,48,0,2,,,,,,,,,1,,,72,0
48228,note_on,48,0,3,,,,,,,,,2,,,67,0
48228,note_on,48,0,1,,,,,,,,,0,,,72,0
48228,note_on,48,0,4,,,,,,,,,3,,,63,0
48240,note_on,12,0,3,,,,,,,,,2,,,67,92
48240,note_on,12,0,1,,,,,,,,,0,,,72,92
48240,note_on,24,0,5,,,,,,,,,4,,,51,92
48240,note_on,12,0,4,,,,,,,,,3,,,63,92
48240,note_on,12,0,2,,,,,,,,,1,,,72,92
48288,note_on,48,0,1,,,,,,,,,0,,,72,0
48288,note_on,48,0,3,,,,,,,,,2,,,67,0
48288,note_on,48,0,2,,,,,,,,,1,,,72,0
48288,note_on,48,0,4,,,,,,,,,3,,,63,0
48300,note_on,12,0,1,,,,,,,,,0,,,72,92
48300,note_on,12,0,4,,,,,,,,,3,,,63,92
48300,note_on,12,0,2,,,,,,,,,1,,,72,92
48300,note_on,12,0,3,,,,,,,,,2,,,67,92
48336,note_on,96,0,5,,,,,,,,,4,,,51,0
48348,note_on,48,0,2,,,,,,,,,1,,,72,0
48348,note_on,48,0,3,,,,,,,,,2,,,67,0
48348,note_on,48,0,4,,,,,,,,,3,,,63,0
48348,note_on,48,0,1,,,,,,,,,0,,,72,0
48360,note_on,12,0,1,,,,,,,,,0,,,72,92
48360,note_on,24,0,5,,,,,,,,,4,,,39,92
48360,note_on,12,0,3,,,,,,,,,2,,,67,92
48360,note_on,12,0,4,,,,,,,,,3,,,63,92
48360,note_on,12,0,2,,,,,,,,,1,,,72,92
48408,note_on,48,0,3,,,,,,,,,2,,,67,0
48408,note_on,48,0,4,,,,,,,,,3,,,63,0
48408,note_on,48,0,2,,,,,,,,,1,,,72,0
48408,note_on,48,0,1,,,,,,,,,0,,,72,0
48420,note_on,12,0,1,,,,,,,,,0,,,72,92
48420,note_on,12,0,3,,,,,,,,,2,,,67,92
48420,note_on,12,0,4,,,,,,,,,3,,,63,92
48420,note_on,12,0,2,,,,,,,,,1,,,72,92
48456,note_on,96,0,5,,,,,,,,,4,,,39,0
48468,note_on,48,0,1,,,,,,,,,0,,,72,0
48468,note_on,48,0,4,,,,,,,,,3,,,63,0
48468,note_on,48,0,2,,,,,,,,,1,,,72,0
48468,note_on,48,0,3,,,,,,,,,2,,,67,0
48480,note_on,12,0,2,,,,,,,,,1,,,72,92
48480,note_on,24,0,5,,,,,,,,,4,,,41,92
48480,note_on,12,0,4,,,,,,,,,3,,,62,92
48480,note_on,12,0,3,,,,,,,,,2,,,68,92
48480,note_on,12,0,1,,,,,,,,,0,,,72,92
48528,note_on,48,0,3,,,,,,,,,2,,,68,0
48528,note_on,48,0,1,,,,,,,,,0,,,72,0
48528,note_on,48,0,4,,,,,,,,,3,,,62,0
48528,note_on,48,0,2,,,,,,,,,1,,,72,0
48540,note_on,12,0,4,,,,,,,,,3,,,62,92
48540,note_on,12,0,2,,,,,,,,,1,,,72,92
48540,note_on,12,0,3,,,,,,,,,2,,,68,92
48540,note_on,12,0,1,,,,,,,,,0,,,72,92
48576,note_on,96,0,5,,,,,,,,,4,,,41,0
48588,note_on,48,0,2,,,,,,,,,1,,,72,0
48588,note_on,48,0,3,,,,,,,,,2,,,68,0
48588,note_on,48,0,4,,,,,,,,,3,,,62,0
48588,note_on,48,0,1,,,,,,,,,0,,,72,0
48600,note_on,12,0,3,,,,,,,,,2,,,68,92
48600,note_on,12,0,1,,,,,,,,,0,,,72,92
48600,note_on,12,0,2,,,,,,,,,1,,,72,92
48600,note_on,12,0,4,,,,,,,,,3,,,62,92
48600,note_on,24,0,5,,,,,,,,,4,,,53,92
48648,note_on,48,0,1,,,,,,,,,0,,,72,0
48648,note_on,48,0,2,,,,,,,,,1,,,72,0
48648,note_on,48,0,4,,,,,,,,,3,,,62,0
48648,note_on,48,0,3,,,,,,,,,2,,,68,0
48660,note_on,12,0,1,,,,,,,,,0,,,72,92
48660,note_on,12,0,4,,,,,,,,,3,,,62,92
48660,note_on,12,0,2,,,,,,,,,1,,,72,92
48660,note_on,12,0,3,,,,,,,,,2,,,68,92
48696,note_on,96,0,5,,,,,,,,,4,,,53,0
48708,note_on,48,0,3,,,,,,,,,2,,,68,0
48708,note_on,48,0,4,,,,,,,,,3,,,62,0
48708,note_on,48,0,1,,,,,,,,,0,,,72,0
48708,note_on,48,0,2,,,,,,,,,1,,,72,0
48720,note_on,12,0,4,,,,,,,,,3,,,62,92
48720,note_on,12,0,2,,,,,,,,,1,,,72,92
48720,note_on,12,0,1,,,,,,,,,0,,,72,92
48720,note_on,12,0,3,,,,,,,,,2,,,68,92
48720,note_on,24,0,5,,,,,,,,,4,,,53,92
48768,note_on,48,0,4,,,,,,,,,3,,,62,0
48768,note_on,48,0,2,,,,,,,,,1,,,72,0
48768,note_on,48,0,3,,,,,,,,,2,,,68,0
48768,note_on,48,0,1,,,,,,,,,0,,,72,0
48780,note_on,12,0,1,,,,,,,,,0,,,72,92
48780,note_on,12,0,3,,,,,,,,,2,,,68,92
48780,note_on,12,0,2,,,,,,,,,1,,,72,92
48780,note_on,12,0,4,,,,,,,,,3,,,62,92
48816,note_on,96,0,5,,,,,,,,,4,,,53,0
48828,note_on,48,0,2,,,,,,,,,1,,,72,0
48828,note_on,48,0,1,,,,,,,,,0,,,72,0
48828,note_on,48,0,4,,,,,,,,,3,,,62,0
48828,note_on,48,0,3,,,,,,,,,2,,,68,0
48840,note_on,12,0,3,,,,,,,,,2,,,68,92
48840,note_on,12,0,4,,,,,,,,,3,,,62,92
48840,note_on,12,0,2,,,,,,,,,1,,,72,92
48840,note_on,24,0,5,,,,,,,,,4,,,41,92
48840,note_on,12,0,1,,,,,,,,,0,,,72,92
48888,note_on,48,0,2,,,,,,,,,1,,,72,0
48888,note_on,48,0,1,,,,,,,,,0,,,72,0
48888,note_on,48,0,4,,,,,,,,,3,,,62,0
48888,note_on,48,0,3,,,,,,,,,2,,,68,0
48900,note_on,12,0,1,,,,,,,,,0,,,72,92
48900,note_on,12,0,2,,,,,,,,,1,,,72,92
48900,note_on,12,0,4,,,,,,,,,3,,,62,92
48900,note_on,12,0,3,,,,,,,,,2,,,68,92
48936,note_on,96,0,5,,,,,,,,,4,,,41,0
48948,note_on,48,0,1,,,,,,,,,0,,,72,0
48948,note_on,48,0,4,,,,,,,,,3,,,62,0
48948,note_on,48,0,2,,,,,,,,,1,,,72,0
48948,note_on,48,0,3,,,,,,,,,2,,,68,0
48960,note_on,12,0,3,,,,,,,,,2,,,67,92
48960,note_on,12,0,2,,,,,,,,,1,,,71,92
48960,note_on,24,0,5,,,,,,,,,4,,,43,92
48960,note_on,12,0,1,,,,,,,,,0,,,71,92
48960,note_on,12,0,4,,,,,,,,,3,,,62,92
49008,note_on,48,0,3,,,,,,,,,2,,,67,0
49008,note_on,48,0,1,,,,,,,,,0,,,71,0
49008,note_on,48,0,2,,,,,,,,,1,,,71,0
49008,note_on,48,0,4,,,,,,,,,3,,,62,0
49020,note_on,12,0,3,,,,,,,,,2,,,67,92
49020,note_on,12,0,1,,,,,,,,,0,,,71,92
49020,note_on,12,0,2,,,,,,,,,1,,,71,92
49020,note_on,12,0,4,,,,,,,,,3,,,62,92
49056,note_on,96,0,5,,,,,,,,,4,,,43,0
49068,note_on,48,0,1,,,,,,,,,0,,,71,0
49068,note_on,48,0,2,,,,,,,,,1,,,71,0
49068,note_on,48,0,4,,,,,,,,,3,,,62,0
49068,note_on,48,0,3,,,,,,,,,2,,,67,0
49080,note_on,12,0,3,,,,,,,,,2,,,67,92
49080,note_on,12,0,2,,,,,,,,,1,,,71,92
49080,note_on,12,0,4,,,,,,,,,3,,,62,92
49080,note_on,24,0,5,,,,,,,,,4,,,55,92
49080,note_on,12,0,1,,,,,,,,,0,,,71,92
49128,note_on,48,0,3,,,,,,,,,2,,,67,0
49128,note_on,48,0,1,,,,,,,,,0,,,71,0
49128,note_on,48,0,2,,,,,,,,,1,,,71,0
49128,note_on,48,0,4,,,,,,,,,3,,,62,0
49140,note_on,12,0,1,,,,,,,,,0,,,71,92
49140,note_on,12,0,2,,,,,,,,,1,,,71,92
49140,note_on,12,0,4,,,,,,,,,3,,,62,92
49140,note_on,12,0,3,,,,,,,,,2,,,67,92
49176,note_on,96,0,5,,,,,,,,,4,,,55,0
49188,note_on,48,0,4,,,,,,,,,3,,,62,0
49188,note_on,48,0,3,,,,,,,,,2,,,67,0
49188,note_on,48,0,1,,,,,,,,,0,,,71,0
49188,note_on,48,0,2,,,,,,,,,1,,,71,0
49200,note_on,12,0,4,,,,,,,,,3,,,62,92
49200,note_on,12,0,1,,,,,,,,,0,,,71,92
49200,note_on,12,0,2,,,,,,,,,1,,,71,92
49200,note_on,12,0,3,,,,,,,,,2,,,67,92
49200,note_on,24,0,5,,,,,,,,,4,,,55,92
49248,note_on,48,0,4,,,,,,,,,3,,,62,0
49248,note_on,48,0,2,,,,,,,,,1,,,71,0
49248,note_on,48,0,1,,,,,,,,,0,,,71,0
49248,note_on,48,0,3,,,,,,,,,2,,,67,0
49260,note_on,12,0,3,,,,,,,,,2,,,67,92
49260,note_on,12,0,1,,,,,,,,,0,,,71,92
49260,note_on,12,0,4,,,,,,,,,3,,,62,92
49260,note_on,12,0,2,,,,,,,,,1,,,71,92
49296,note_on,96,0,5,,,,,,,,,4,,,55,0
49308,note_on,48,0,2,,,,,,,,,1,,,71,0
49308,note_on,48,0,3,,,,,,,,,2,,,67,0
49308,note_on,48,0,1,,,,,,,,,0,,,71,0
49308,note_on,48,0,4,,,,,,,,,3,,,62,0
49320,note_on,12,0,1,,,,,,,,,0,,,71,92
49320,note_on,12,0,2,,,,,,,,,1,,,71,92
49320,note_on,24,0,5,,,,,,,,,4,,,43,92
49320,note_on,12,0,3,,,,,,,,,2,,,67,92
49320,note_on,12,0,4,,,,,,,,,3,,,62,92
49368,note_on,48,0,4,,,,,,,,,3,,,62,0
49368,note_on,48,0,1,,,,,,,,,0,,,71,0
49368,note_on,48,0,3,,,,,,,,,2,,,67,0
49368,note_on,48,0,2,,,,,,,,,1,,,71,0
49380,note_on,12,0,1,,,,,,,,,0,,,71,92
49380,note_on,12,0,3,,,,,,,,,2,,,67,92
49380,note_on,12,0,2,,,,,,,,,1,,,71,92
49380,note_on,12,0,4,,,,,,,,,3,,,62,92
49416,note_on,96,0,5,,,,,,,,,4,,,43,0
49428,note_on,48,0,2,,,,,,,,,1,,,71,0
49428,note_on,48,0,4,,,,,,,,,3,,,62,0
49428,note_on,48,0,1,,,,,,,,,0,,,71,0
49428,note_on,48,0,3,,,,,,,,,2,,,67,0
49440,note_on,12,0,4,,,,,,,,,3,,,63,92
49440,note_on,12,0,1,,,,,,,,,0,,,72,92
49440,note_on,12,0,2,,,,,,,,,1,,,72,92
49440,note_on,12,0,3,,,,,,,,,2,,,67,92
49440,note_on,24,0,5,,,,,,,,,4,,,48,92
49488,note_on,48,0,1,,,,,,,,,0,,,72,0
49500,note_on,12,0,1,,,,,,,,,0,,,74,92
49524,note_on,24,0,1,,,,,,,,,0,,,74,0
49530,note_on,6,0,1,,,,,,,,,0,,,75,92
49554,note_on,24,0,1,,,,,,,,,0,,,75,0
49560,note_on,6,0,1,,,,,,,,,0,,,77,92
49584,note_on,24,0,1,,,,,,,,,0,,,77,0
49590,note_on,6,0,1,,,,,,,,,0,,,79,92
49614,note_on,24,0,1,,,,,,,,,0,,,79,0
49620,note_on,6,0,1,,,,,,,,,0,,,81,92
49632,note_on,192,0,3,,,,,,,,,2,,,67,0
49632,note_on,192,0,2,,,,,,,,,1,,,72,0
49632,note_on,192,0,5,,,,,,,,,4,,,48,0
49632,note_on,192,0,4,,,,,,,,,3,,,63,0
49644,note_on,24,0,1,,,,,,,,,0,,,81,0
49650,note_on,6,0,1,,,,,,,,,0,,,83,92
49674,note_on,24,0,1,,,,,,,,,0,,,83,0
49680,note_on,6,0,1,,,,,,,,,0,,,84,92
49728,note_on,48,0,1,,,,,,,,,0,,,84,0
49740,note_on,12,0,1,,,,,,,,,0,,,79,92
49788,note_on,48,0,1,,,,,,,,,0,,,79,0
49800,note_on,12,0,1,,,,,,,,,0,,,75,92
49848,note_on,48,0,1,,,,,,,,,0,,,75,0
49860,note_on,12,0,1,,,,,,,,,0,,,79,92
49908,note_on,48,0,1,,,,,,,,,0,,,79,0
49920,note_on,12,0,1,,,,,,,,,0,,,84,92
49920,note_on,288,0,4,,,,,,,,,3,,,60,92
49920,note_on,288,0,3,,,,,,,,,2,,,75,92
49920,note_on,288,0,2,,,,,,,,,1,,,79,92
49920,note_on,288,0,5,,,,,,,,,4,,,48,92
49968,note_on,48,0,1,,,,,,,,,0,,,84,0
49980,note_on,12,0,1,,,,,,,,,0,,,79,92
50028,note_on,48,0,1,,,,,,,,,0,,,79,0
50040,note_on,12,0,1,,,,,,,,,0,,,75,92
50088,note_on,48,0,1,,,,,,,,,0,,,75,0
50100,note_on,12,0,1,,,,,,,,,0,,,79,92
50112,note_on,192,0,2,,,,,,,,,1,,,79,0
50112,note_on,192,0,3,,,,,,,,,2,,,75,0
50112,note_on,192,0,4,,,,,,,,,3,,,60,0
50112,note_on,192,0,5,,,,,,,,,4,,,48,0
50148,note_on,48,0,1,,,,,,,,,0,,,79,0
50160,note_on,12,0,1,,,,,,,,,0,,,84,92
50208,note_on,48,0,1,,,,,,,,,0,,,84,0
50220,note_on,12,0,1,,,,,,,,,0,,,79,92
50268,note_on,48,0,1,,,,,,,,,0,,,79,0
50280,note_on,12,0,1,,,,,,,,,0,,,75,92
50328,note_on,48,0,1,,,,,,,,,0,,,75,0
50340,note_on,12,0,1,,,,,,,,,0,,,79,92
50388,note_on,48,0,1,,,,,,,,,0,,,79,0
50400,note_on,288,0,2,,,,,,,,,1,,,79,92
50400,note_on,288,0,3,,,,,,,,,2,,,75,92
50400,note_on,12,0,1,,,,,,,,,0,,,72,92
50400,note_on,288,0,4,,,,,,,,,3,,,60,92
50400,note_on,288,0,5,,,,,,,,,4,,,48,92
50448,note_on,48,0,1,,,,,,,,,0,,,72,0
50460,note_on,12,0,1,,,,,,,,,0,,,67,92
50508,note_on,48,0,1,,,,,,,,,0,,,67,0
50520,note_on,12,0,1,,,,,,,,,0,,,63,92
50568,note_on,48,0,1,,,,,,,,,0,,,63,0
50580,note_on,12,0,1,,,,,,,,,0,,,67,92
50592,note_on,192,0,5,,,,,,,,,4,,,48,0
50592,note_on,192,0,2,,,,,,,,,1,,,79,0
50592,note_on,192,0,3,,,,,,,,,2,,,75,0
50592,note_on,192,0,4,,,,,,,,,3,,,60,0
50628,note_on,48,0,1,,,,,,,,,0,,,67,0
50640,note_on,12,0,1,,,,,,,,,0,,,72,92
50688,note_on,48,0,1,,,,,,,,,0,,,72,0
50700,note_on,12,0,1,,,,,,,,,0,,,67,92
50748,note_on,48,0,1,,,,,,,,,0,,,67,0
50760,note_on,12,0,1,,,,,,,,,0,,,63,92
50808,note_on,48,0,1,,,,,,,,,0,,,63,0
50820,note_on,12,0,1,,,,,,,,,0,,,67,92
50868,note_on,48,0,1,,,,,,,,,0,,,67,0
50880,note_on,12,0,1,,,,,,,,,0,,,72,92
50928,note_on,48,0,1,,,,,,,,,0,,,72,0
50940,note_on,12,0,1,,,,,,,,,0,,,67,92
50988,note_on,48,0,1,,,,,,,,,0,,,67,0
51000,note_on,12,0,1,,,,,,,,,0,,,63,92
51048,note_on,48,0,1,,,,,,,,,0,,,63,0
51060,note_on,12,0,1,,,,,,,,,0,,,67,92
51108,note_on,48,0,1,,,,,,,,,0,,,67,0
51120,note_on,12,0,1,,,,,,,,,0,,,72,92
51168,note_on,48,0,1,,,,,,,,,0,,,72,0
51180,note_on,12,0,1,,,,,,,,,0,,,67,92
51228,note_on,48,0,1,,,,,,,,,0,,,67,0
51240,note_on,12,0,1,,,,,,,,,0,,,63,92
51288,note_on,48,0,1,,,,,,,,,0,,,63,0
51300,note_on,12,0,1,,,,,,,,,0,,,67,92
51348,note_on,48,0,1,,,,,,,,,0,,,67,0
51360,note_on,768,0,5,,,,,,,,,4,,,48,92
51360,note_on,12,0,1,,,,,,,,,0,,,60,92
51360,note_on,768,0,4,,,,,,,,,3,,,63,92
51420,note_on,828,0,3,,,,,,,,,2,,,75,92
51420,note_on,828,0,2,,,,,,,,,1,,,79,92
51456,note_on,96,0,4,,,,,,,,,3,,,63,0
51456,note_on,96,0,5,,,,,,,,,4,,,48,0
51468,note_on,48,0,2,,,,,,,,,1,,,79,0
51468,note_on,48,0,3,,,,,,,,,2,,,75,0
51480,note_on,24,0,5,,,,,,,,,4,,,48,92
51480,note_on,12,0,2,,,,,,,,,1,,,77,92
51480,note_on,24,0,4,,,,,,,,,3,,,63,92
51480,note_on,12,0,3,,,,,,,,,2,,,74,92
51528,note_on,48,0,2,,,,,,,,,1,,,77,0
51528,note_on,48,0,3,,,,,,,,,2,,,74,0
51540,note_on,12,0,3,,,,,,,,,2,,,72,92
51540,note_on,12,0,2,,,,,,,,,1,,,75,92
51552,note_on,192,0,1,,,,,,,,,0,,,60,0
51576,note_on,96,0,5,,,,,,,,,4,,,48,0
51576,note_on,96,0,4,,,,,,,,,3,,,63,0
51588,note_on,48,0,3,,,,,,,,,2,,,72,0
51588,note_on,48,0,2,,,,,,,,,1,,,75,0
51600,note_on,12,0,3,,,,,,,,,2,,,71,92
51600,note_on,12,0,2,,,,,,,,,1,,,74,92
51600,note_on,24,0,5,,,,,,,,,4,,,48,92
51600,note_on,24,0,4,,,,,,,,,3,,,63,92
51648,note_on,48,0,3,,,,,,,,,2,,,71,0
51648,note_on,48,0,2,,,,,,,,,1,,,74,0
51660,note_on,12,0,3,,,,,,,,,2,,,69,92
51660,note_on,12,0,2,,,,,,,,,1,,,72,92
51696,note_on,96,0,4,,,,,,,,,3,,,63,0
51696,note_on,96,0,5,,,,,,,,,4,,,48,0
51708,note_on,48,0,3,,,,,,,,,2,,,69,0
51708,note_on,48,0,2,,,,,,,,,1,,,72,0
51720,note_on,12,0,2,,,,,,,,,1,,,71,92
51720,note_on,12,0,3,,,,,,,,,2,,,67,92
51720,note_on,24,0,4,,,,,,,,,3,,,63,92
51720,note_on,24,0,5,,,,,,,,,4,,,48,92
51768,note_on,48,0,2,,,,,,,,,1,,,71,0
51768,note_on,48,0,3,,,,,,,,,2,,,67,0
51780,note_on,12,0,2,,,,,,,,,1,,,69,92
51780,note_on,12,0,3,,,,,,,,,2,,,65,92
51816,note_on,96,0,5,,,,,,,,,4,,,48,0
51816,note_on,96,0,4,,,,,,,,,3,,,63,0
51828,note_on,48,0,2,,,,,,,,,1,,,69,0
51828,note_on,48,0,3,,,,,,,,,2,,,65,0
51840,note_on,24,0,4,,,,,,,,,3,,,63,92
51840,note_on,12,0,2,,,,,,,,,1,,,67,92
51840,note_on,24,0,5,,,,,,,,,4,,,48,92
51840,note_on,288,0,1,,,,,,,,,0,,,79,92
51840,note_on,12,0,3,,,,,,,,,2,,,63,92
51888,note_on,48,0,1,,,,,,,,,0,,,79,0
51900,note_on,12,0,1,,,,,,,,,0,,,72,92
51948,note_on,48,0,1,,,,,,,,,0,,,72,0
51960,note_on,12,0,1,,,,,,,,,0,,,63,92
52008,note_on,48,0,1,,,,,,,,,0,,,63,0
52020,note_on,12,0,1,,,,,,,,,0,,,72,92
52032,note_on,192,0,5,,,,,,,,,4,,,48,0
52032,note_on,192,0,4,,,,,,,,,3,,,63,0
52032,note_on,192,0,2,,,,,,,,,1,,,67,0
52032,note_on,192,0,3,,,,,,,,,2,,,63,0
52068,note_on,48,0,1,,,,,,,,,0,,,72,0
52080,note_on,12,0,1,,,,,,,,,0,,,79,92
52128,note_on,48,0,1,,,,,,,,,0,,,79,0
52140,note_on,12,0,1,,,,,,,,,0,,,72,92
52188,note_on,48,0,1,,,,,,,,,0,,,72,0
52200,note_on,12,0,1,,,,,,,,,0,,,63,92
52248,note_on,48,0,1,,,,,,,,,0,,,63,0
52260,note_on,12,0,1,,,,,,,,,0,,,72,92
52308,note_on,48,0,1,,,,,,,,,0,,,72,0
52320,note_on,12,0,1,,,,,,,,,0,,,79,92
52368,note_on,48,0,1,,,,,,,,,0,,,79,0
52380,note_on,12,0,1,,,,,,,,,0,,,72,92
52428,note_on,48,0,1,,,,,,,,,0,,,72,0
52440,note_on,12,0,1,,,,,,,,,0,,,63,92
52488,note_on,48,0,1,,,,,,,,,0,,,63,0
52500,note_on,12,0,1,,,,,,,,,0,,,72,92
52548,note_on,48,0,1,,,,,,,,,0,,,72,0
52560,note_on,12,0,1,,,,,,,,,0,,,79,92
52608,note_on,48,0,1,,,,,,,,,0,,,79,0
52620,note_on,12,0,1,,,,,,,,,0,,,72,92
52668,note_on,48,0,1,,,,,,,,,0,,,72,0
52680,note_on,12,0,1,,,,,,,,,0,,,63,92
52728,note_on,48,0,1,,,,,,,,,0,,,63,0
52740,note_on,12,0,1,,,,,,,,,0,,,72,92
52788,note_on,48,0,1,,,,,,,,,0,,,72,0
52800,note_on,768,0,5,,,,,,,,,4,,,53,92
52800,note_on,768,0,4,,,,,,,,,3,,,60,92
52800,note_on,12,0,1,,,,,,,,,0,,,65,92
52830,note_on,30,0,1,,,,,,,,,0,,,72,92
52860,note_on,828,0,3,,,,,,,,,2,,,77,92
52860,note_on,30,0,1,,,,,,,,,0,,,80,92
52860,note_on,828,0,2,,,,,,,,,1,,,80,92
52896,note_on,96,0,4,,,,,,,,,3,,,60,0
52896,note_on,96,0,5,,,,,,,,,4,,,53,0
52908,note_on,48,0,3,,,,,,,,,2,,,77,0
52908,note_on,48,0,2,,,,,,,,,1,,,80,0
52920,note_on,12,0,2,,,,,,,,,1,,,79,92
52920,note_on,24,0,4,,,,,,,,,3,,,60,92
52920,note_on,24,0,5,,,,,,,,,4,,,53,92
52920,note_on,12,0,3,,,,,,,,,2,,,75,92
52968,note_on,48,0,3,,,,,,,,,2,,,75,0
52968,note_on,48,0,2,,,,,,,,,1,,,79,0
52980,note_on,12,0,2,,,,,,,,,1,,,77,92
52980,note_on,12,0,3,,,,,,,,,2,,,74,92
53004,note_on,144,0,1,,,,,,,,,0,,,80,0
53004,note_on,0,0,1,,,,,,,,,0,,,72,0
53004,note_on,0,0,1,,,,,,,,,0,,,65,0
53016,note_on,96,0,5,,,,,,,,,4,,,53,0
53016,note_on,96,0,4,,,,,,,,,3,,,60,0
53028,note_on,48,0,2,,,,,,,,,1,,,77,0
53028,note_on,48,0,3,,,,,,,,,2,,,74,0
53040,note_on,24,0,4,,,,,,,,,3,,,60,92
53040,note_on,12,0,3,,,,,,,,,2,,,72,92
53040,note_on,12,0,2,,,,,,,,,1,,,75,92
53040,note_on,24,0,5,,,,,,,,,4,,,53,92
53088,note_on,48,0,2,,,,,,,,,1,,,75,0
53088,note_on,48,0,3,,,,,,,,,2,,,72,0
53100,note_on,12,0,3,,,,,,,,,2,,,70,92
53100,note_on,12,0,2,,,,,,,,,1,,,74,92
53136,note_on,96,0,5,,,,,,,,,4,,,53,0
53136,note_on,96,0,4,,,,,,,,,3,,,60,0
53148,note_on,48,0,3,,,,,,,,,2,,,70,0
53148,note_on,48,0,2,,,,,,,,,1,,,74,0
53160,note_on,24,0,5,,,,,,,,,4,,,53,92
53160,note_on,24,0,4,,,,,,,,,3,,,60,92
53160,note_on,12,0,3,,,,,,,,,2,,,68,92
53160,note_on,12,0,2,,,,,,,,,1,,,72,92
53208,note_on,48,0,3,,,,,,,,,2,,,68,0
53208,note_on,48,0,2,,,,,,,,,1,,,72,0
53220,note_on,12,0,2,,,,,,,,,1,,,70,92
53220,note_on,12,0,3,,,,,,,,,2,,,67,92
53256,note_on,96,0,4,,,,,,,,,3,,,60,0
53256,note_on,96,0,5,,,,,,,,,4,,,53,0
53268,note_on,48,0,2,,,,,,,,,1,,,70,0
53268,note_on,48,0,3,,,,,,,,,2,,,67,0
53280,note_on,276,0,1,,,,,,,,,0,,,80,92
53280,note_on,12,0,3,,,,,,,,,2,,,65,92
53280,note_on,24,0,4,,,,,,,,,3,,,62,92
53280,note_on,12,0,2,,,,,,,,,1,,,68,92
53280,note_on,24,0,5,,,,,,,,,4,,,58,92
53328,note_on,48,0,1,,,,,,,,,0,,,80,0
53340,note_on,12,0,1,,,,,,,,,0,,,70,92
53388,note_on,48,0,1,,,,,,,,,0,,,70,0
53400,note_on,12,0,1,,,,,,,,,0,,,62,92
53448,note_on,48,0,1,,,,,,,,,0,,,62,0
53460,note_on,12,0,1,,,,,,,,,0,,,70,92
53472,note_on,192,0,4,,,,,,,,,3,,,62,0
53472,note_on,192,0,3,,,,,,,,,2,,,65,0
53472,note_on,192,0,2,,,,,,,,,1,,,68,0
53472,note_on,192,0,5,,,,,,,,,4,,,58,0
53508,note_on,48,0,1,,,,,,,,,0,,,70,0
53520,note_on,12,0,1,,,,,,,,,0,,,80,92
53568,note_on,48,0,1,,,,,,,,,0,,,80,0
53580,note_on,12,0,1,,,,,,,,,0,,,70,92
53628,note_on,48,0,1,,,,,,,,,0,,,70,0
53640,note_on,12,0,1,,,,,,,,,0,,,62,92
53688,note_on,48,0,1,,,,,,,,,0,,,62,0
53700,note_on,12,0,1,,,,,,,,,0,,,70,92
53748,note_on,48,0,1,,,,,,,,,0,,,70,0
53760,note_on,12,0,1,,,,,,,,,0,,,80,92
53808,note_on,48,0,1,,,,,,,,,0,,,80,0
53820,note_on,12,0,1,,,,,,,,,0,,,70,92
53868,note_on,48,0,1,,,,,,,,,0,,,70,0
53880,note_on,12,0,1,,,,,,,,,0,,,62,92
53928,note_on,48,0,1,,,,,,,,,0,,,62,0
53940,note_on,12,0,1,,,,,,,,,0,,,70,92
53988,note_on,48,0,1,,,,,,,,,0,,,70,0
54000,note_on,12,0,1,,,,,,,,,0,,,80,92
54048,note_on,48,0,1,,,,,,,,,0,,,80,0
54060,note_on,12,0,1,,,,,,,,,0,,,70,92
54108,note_on,48,0,1,,,,,,,,,0,,,70,0
54120,note_on,12,0,1,,,,,,,,,0,,,62,92
54168,note_on,48,0,1,,,,,,,,,0,,,62,0
54180,note_on,12,0,1,,,,,,,,,0,,,70,92
54228,note_on,48,0,1,,,,,,,,,0,,,70,0
54240,note_on,12,0,1,,,,,,,,,0,,,63,92
54240,note_on,768,0,4,,,,,,,,,3,,,58,92
54240,note_on,768,0,5,,,,,,,,,4,,,51,92
54270,note_on,30,0,1,,,,,,,,,0,,,70,92
54300,note_on,30,0,1,,,,,,,,,0,,,79,92
54300,note_on,828,0,3,,,,,,,,,2,,,75,92
54300,note_on,828,0,2,,,,,,,,,1,,,79,92
54336,note_on,96,0,5,,,,,,,,,4,,,51,0
54336,note_on,96,0,4,,,,,,,,,3,,,58,0
54348,note_on,48,0,2,,,,,,,,,1,,,79,0
54348,note_on,48,0,3,,,,,,,,,2,,,75,0
54360,note_on,24,0,4,,,,,,,,,3,,,58,92
54360,note_on,12,0,2,,,,,,,,,1,,,77,92
54360,note_on,24,0,5,,,,,,,,,4,,,51,92
54360,note_on,12,0,3,,,,,,,,,2,,,74,92
54408,note_on,48,0,3,,,,,,,,,2,,,74,0
54408,note_on,48,0,2,,,,,,,,,1,,,77,0
54420,note_on,12,0,2,,,,,,,,,1,,,75,92
54420,note_on,12,0,3,,,,,,,,,2,,,72,92
54444,note_on,0,0,1,,,,,,,,,0,,,63,0
54444,note_on,0,0,1,,,,,,,,,0,,,70,0
54444,note_on,144,0,1,,,,,,,,,0,,,79,0
54456,note_on,96,0,4,,,,,,,,,3,,,58,0
54456,note_on,96,0,5,,,,,,,,,4,,,51,0
54468,note_on,48,0,3,,,,,,,,,2,,,72,0
54468,note_on,48,0,2,,,,,,,,,1,,,75,0
54480,note_on,12,0,3,,,,,,,,,2,,,70,92
54480,note_on,24,0,5,,,,,,,,,4,,,51,92
54480,note_on,12,0,2,,,,,,,,,1,,,74,92
54480,note_on,24,0,4,,,,,,,,,3,,,58,92
54528,note_on,48,0,3,,,,,,,,,2,,,70,0
54528,note_on,48,0,2,,,,,,,,,1,,,74,0
54540,note_on,12,0,3,,,,,,,,,2,,,68,92
54540,note_on,12,0,2,,,,,,,,,1,,,72,92
54576,note_on,96,0,4,,,,,,,,,3,,,58,0
54576,note_on,96,0,5,,,,,,,,,4,,,51,0
54588,note_on,48,0,2,,,,,,,,,1,,,72,0
54588,note_on,48,0,3,,,,,,,,,2,,,68,0
54600,note_on,12,0,3,,,,,,,,,2,,,67,92
54600,note_on,24,0,4,,,,,,,,,3,,,58,92
54600,note_on,12,0,2,,,,,,,,,1,,,70,92
54600,note_on,24,0,5,,,,,,,,,4,,,51,92
54648,note_on,48,0,3,,,,,,,,,2,,,67,0
54648,note_on,48,0,2,,,,,,,,,1,,,70,0
54660,note_on,12,0,3,,,,,,,,,2,,,65,92
54660,note_on,12,0,2,,,,,,,,,1,,,68,92
54696,note_on,96,0,4,,,,,,,,,3,,,58,0
54696,note_on,96,0,5,,,,,,,,,4,,,51,0
54708,note_on,48,0,3,,,,,,,,,2,,,65,0
54708,note_on,48,0,2,,,,,,,,,1,,,68,0
54720,note_on,24,0,4,,,,,,,,,3,,,60,92
54720,note_on,12,0,2,,,,,,,,,1,,,67,92
54720,note_on,12,0,3,,,,,,,,,2,,,63,92
54720,note_on,276,0,1,,,,,,,,,0,,,79,92
54720,note_on,24,0,5,,,,,,,,,4,,,51,92
54768,note_on,48,0,1,,,,,,,,,0,,,79,0
54780,note_on,12,0,1,,,,,,,,,0,,,72,92
54828,note_on,48,0,1,,,,,,,,,0,,,72,0
54840,note_on,12,0,1,,,,,,,,,0,,,63,92
54888,note_on,48,0,1,,,,,,,,,0,,,63,0
54900,note_on,12,0,1,,,,,,,,,0,,,72,92
54912,note_on,192,0,4,,,,,,,,,3,,,60,0
54912,note_on,192,0,5,,,,,,,,,4,,,51,0
54912,note_on,192,0,2,,,,,,,,,1,,,67,0
54912,note_on,192,0,3,,,,,,,,,2,,,63,0
54948,note_on,48,0,1,,,,,,,,,0,,,72,0
54960,note_on,12,0,1,,,,,,,,,0,,,79,92
55008,note_on,48,0,1,,,,,,,,,0,,,79,0
55020,note_on,12,0,1,,,,,,,,,0,,,72,92
55068,note_on,48,0,1,,,,,,,,,0,,,72,0
55080,note_on,12,0,1,,,,,,,,,0,,,63,92
55128,note_on,48,0,1,,,,,,,,,0,,,63,0
55140,note_on,12,0,1,,,,,,,,,0,,,72,92
55188,note_on,48,0,1,,,,,,,,,0,,,72,0
55200,note_on,12,0,1,,,,,,,,,0,,,79,92
55248,note_on,48,0,1,,,,,,,,,0,,,79,0
55260,note_on,12,0,1,,,,,,,,,0,,,72,92
55308,note_on,48,0,1,,,,,,,,,0,,,72,0
55320,note_on,12,0,1,,,,,,,,,0,,,63,92
55368,note_on,48,0,1,,,,,,,,,0,,,63,0
55380,note_on,12,0,1,,,,,,,,,0,,,72,92
55428,note_on,48,0,1,,,,,,,,,0,,,72,0
55440,note_on,12,0,1,,,,,,,,,0,,,79,92
55488,note_on,48,0,1,,,,,,,,,0,,,79,0
55500,note_on,12,0,1,,,,,,,,,0,,,72,92
55548,note_on,48,0,1,,,,,,,,,0,,,72,0
55560,note_on,12,0,1,,,,,,,,,0,,,63,92
55608,note_on,48,0,1,,,,,,,,,0,,,63,0
55620,note_on,12,0,1,,,,,,,,,0,,,72,92
55668,note_on,48,0,1,,,,,,,,,0,,,72,0
55680,note_on,768,0,5,,,,,,,,,4,,,43,92
55680,note_on,12,0,1,,,,,,,,,0,,,77,92
55680,note_on,768,0,4,,,,,,,,,3,,,59,92
55728,note_on,48,0,1,,,,,,,,,0,,,77,0
55740,note_on,828,0,2,,,,,,,,,1,,,74,92
55740,note_on,12,0,1,,,,,,,,,0,,,71,92
55740,note_on,828,0,3,,,,,,,,,2,,,71,92
55776,note_on,96,0,4,,,,,,,,,3,,,59,0
55776,note_on,96,0,5,,,,,,,,,4,,,43,0
55788,note_on,48,0,2,,,,,,,,,1,,,74,0
55788,note_on,48,0,3,,,,,,,,,2,,,71,0
55788,note_on,48,0,1,,,,,,,,,0,,,71,0
55800,note_on,12,0,1,,,,,,,,,0,,,62,92
55800,note_on,12,0,2,,,,,,,,,1,,,72,92
55800,note_on,12,0,3,,,,,,,,,2,,,69,92
55800,note_on,24,0,4,,,,,,,,,3,,,59,92
55800,note_on,24,0,5,,,,,,,,,4,,,43,92
55848,note_on,48,0,1,,,,,,,,,0,,,62,0
55848,note_on,48,0,2,,,,,,,,,1,,,72,0
55848,note_on,48,0,3,,,,,,,,,2,,,69,0
55860,note_on,12,0,3,,,,,,,,,2,,,67,92
55860,note_on,12,0,2,,,,,,,,,1,,,71,92
55860,note_on,12,0,1,,,,,,,,,0,,,71,92
55896,note_on,96,0,4,,,,,,,,,3,,,59,0
55896,note_on,96,0,5,,,,,,,,,4,,,43,0
55908,note_on,48,0,2,,,,,,,,,1,,,71,0
55908,note_on,48,0,1,,,,,,,,,0,,,71,0
55908,note_on,48,0,3,,,,,,,,,2,,,67,0
55920,note_on,24,0,5,,,,,,,,,4,,,43,92
55920,note_on,12,0,1,,,,,,,,,0,,,77,92
55920,note_on,12,0,2,,,,,,,,,1,,,69,92
55920,note_on,12,0,3,,,,,,,,,2,,,65,92
55920,note_on,24,0,4,,,,,,,,,3,,,59,92
55968,note_on,48,0,2,,,,,,,,,1,,,69,0
55968,note_on,48,0,3,,,,,,,,,2,,,65,0
55968,note_on,48,0,1,,,,,,,,,0,,,77,0
55980,note_on,12,0,3,,,,,,,,,2,,,63,92
55980,note_on,12,0,2,,,,,,,,,1,,,67,92
55980,note_on,12,0,1,,,,,,,,,0,,,71,92
56016,note_on,96,0,4,,,,,,,,,3,,,59,0
56016,note_on,96,0,5,,,,,,,,,4,,,43,0
56028,note_on,48,0,3,,,,,,,,,2,,,63,0
56028,note_on,48,0,2,,,,,,,,,1,,,67,0
56028,note_on,48,0,1,,,,,,,,,0,,,71,0
56040,note_on,12,0,3,,,,,,,,,2,,,62,92
56040,note_on,12,0,1,,,,,,,,,0,,,62,92
56040,note_on,12,0,2,,,,,,,,,1,,,65,92
56040,note_on,24,0,5,,,,,,,,,4,,,43,92
56040,note_on,24,0,4,,,,,,,,,3,,,59,92
56088,note_on,48,0,3,,,,,,,,,2,,,62,0
56088,note_on,48,0,2,,,,,,,,,1,,,65,0
56088,note_on,48,0,1,,,,,,,,,0,,,62,0
56100,note_on,12,0,3,,,,,,,,,2,,,60,92
56100,note_on,12,0,1,,,,,,,,,0,,,71,92
56100,note_on,12,0,2,,,,,,,,,1,,,63,92
56136,note_on,96,0,4,,,,,,,,,3,,,59,0
56136,note_on,96,0,5,,,,,,,,,4,,,43,0
56148,note_on,48,0,1,,,,,,,,,0,,,71,0
56148,note_on,48,0,3,,,,,,,,,2,,,60,0
56148,note_on,48,0,2,,,,,,,,,1,,,63,0
56160,note_on,12,0,3,,,,,,,,,2,,,59,92
56160,note_on,12,0,2,,,,,,,,,1,,,62,92
56160,note_on,24,0,5,,,,,,,,,4,,,43,92
56160,note_on,24,0,4,,,,,,,,,3,,,59,92
56160,note_on,12,0,1,,,,,,,,,0,,,77,92
56208,note_on,48,0,1,,,,,,,,,0,,,77,0
56220,note_on,12,0,1,,,,,,,,,0,,,71,92
56268,note_on,48,0,1,,,,,,,,,0,,,71,0
56280,note_on,12,0,1,,,,,,,,,0,,,62,92
56328,note_on,48,0,1,,,,,,,,,0,,,62,0
56340,note_on,12,0,1,,,,,,,,,0,,,71,92
56352,note_on,192,0,4,,,,,,,,,3,,,59,0
56352,note_on,192,0,3,,,,,,,,,2,,,59,0
56352,note_on,192,0,2,,,,,,,,,1,,,62,0
56352,note_on,192,0,5,,,,,,,,,4,,,43,0
56388,note_on,48,0,1,,,,,,,,,0,,,71,0
56400,note_on,12,0,1,,,,,,,,,0,,,77,92
56448,note_on,48,0,1,,,,,,,,,0,,,77,0
56460,note_on,12,0,1,,,,,,,,,0,,,71,92
56508,note_on,48,0,1,,,,,,,,,0,,,71,0
56520,note_on,12,0,1,,,,,,,,,0,,,62,92
56568,note_on,48,0,1,,,,,,,,,0,,,62,0
56580,note_on,12,0,1,,,,,,,,,0,,,71,92
56628,note_on,48,0,1,,,,,,,,,0,,,71,0
56640,note_on,12,0,1,,,,,,,,,0,,,76,92
56640,note_on,288,0,4,,,,,,,,,3,,,55,92
56640,note_on,288,0,5,,,,,,,,,4,,,48,92
56688,note_on,48,0,1,,,,,,,,,0,,,76,0
56700,note_on,348,0,3,,,,,,,,,2,,,76,92
56700,note_on,12,0,1,,,,,,,,,0,,,70,92
56700,note_on,348,0,2,,,,,,,,,1,,,79,92
56736,note_on,96,0,4,,,,,,,,,3,,,55,0
56736,note_on,96,0,5,,,,,,,,,4,,,48,0
56748,note_on,48,0,2,,,,,,,,,1,,,79,0
56748,note_on,48,0,1,,,,,,,,,0,,,70,0
56748,note_on,48,0,3,,,,,,,,,2,,,76,0
56760,note_on,12,0,1,,,,,,,,,0,,,67,92
56760,note_on,12,0,3,,,,,,,,,2,,,74,92
56760,note_on,24,0,5,,,,,,,,,4,,,48,92
56760,note_on,24,0,4,,,,,,,,,3,,,55,92
56760,note_on,12,0,2,,,,,,,,,1,,,77,92
56808,note_on,48,0,1,,,,,,,,,0,,,67,0
56808,note_on,48,0,2,,,,,,,,,1,,,77,0
56808,note_on,48,0,3,,,,,,,,,2,,,74,0
56820,note_on,12,0,3,,,,,,,,,2,,,72,92
56820,note_on,12,0,1,,,,,,,,,0,,,70,92
56820,note_on,12,0,2,,,,,,,,,1,,,76,92
56856,note_on,96,0,4,,,,,,,,,3,,,55,0
56856,note_on,96,0,5,,,,,,,,,4,,,48,0
56868,note_on,48,0,3,,,,,,,,,2,,,72,0
56868,note_on,48,0,2,,,,,,,,,1,,,76,0
56868,note_on,48,0,1,,,,,,,,,0,,,70,0
56880,note_on,24,0,4,,,,,,,,,3,,,55,92
56880,note_on,12,0,3,,,,,,,,,2,,,70,92
56880,note_on,24,0,5,,,,,,,,,4,,,48,92
56880,note_on,12,0,1,,,,,,,,,0,,,76,92
56880,note_on,12,0,2,,,,,,,,,1,,,74,92
56928,note_on,48,0,3,,,,,,,,,2,,,70,0
56928,note_on,48,0,2,,,,,,,,,1,,,74,0
56928,note_on,48,0,1,,,,,,,,,0,,,76,0
56940,note_on,12,0,3,,,,,,,,,2,,,68,92
56940,note_on,12,0,2,,,,,,,,,1,,,72,92
56940,note_on,12,0,1,,,,,,,,,0,,,70,92
56976,note_on,96,0,4,,,,,,,,,3,,,55,0
56976,note_on,96,0,5,,,,,,,,,4,,,48,0
56988,note_on,48,0,3,,,,,,,,,2,,,68,0
56988,note_on,48,0,2,,,,,,,,,1,,,72,0
56988,note_on,48,0,1,,,,,,,,,0,,,70,0
57000,note_on,12,0,3,,,,,,,,,2,,,67,92
57000,note_on,12,0,2,,,,,,,,,1,,,70,92
57000,note_on,24,0,4,,,,,,,,,3,,,55,92
57000,note_on,12,0,1,,,,,,,,,0,,,67,92
57000,note_on,24,0,5,,,,,,,,,4,,,48,92
57048,note_on,48,0,1,,,,,,,,,0,,,67,0
57048,note_on,48,0,3,,,,,,,,,2,,,67,0
57048,note_on,48,0,2,,,,,,,,,1,,,70,0
57060,note_on,12,0,2,,,,,,,,,1,,,68,92
57060,note_on,12,0,3,,,,,,,,,2,,,65,92
57060,note_on,12,0,1,,,,,,,,,0,,,70,92
57096,note_on,96,0,4,,,,,,,,,3,,,55,0
57096,note_on,96,0,5,,,,,,,,,4,,,48,0
57108,note_on,48,0,1,,,,,,,,,0,,,70,0
57108,note_on,48,0,2,,,,,,,,,1,,,68,0
57108,note_on,48,0,3,,,,,,,,,2,,,65,0
57120,note_on,24,0,5,,,,,,,,,4,,,48,92
57120,note_on,12,0,2,,,,,,,,,1,,,67,92
57120,note_on,24,0,4,,,,,,,,,3,,,60,92
57120,note_on,12,0,3,,,,,,,,,2,,,64,92
57120,note_on,12,0,1,,,,,,,,,0,,,76,92
57168,note_on,48,0,1,,,,,,,,,0,,,76,0
57180,note_on,12,0,1,,,,,,,,,0,,,70,92
57228,note_on,48,0,1,,,,,,,,,0,,,70,0
57240,note_on,12,0,1,,,,,,,,,0,,,67,92
57288,note_on,48,0,1,,,,,,,,,0,,,67,0
57300,note_on,12,0,1,,,,,,,,,0,,,70,92
57312,note_on,192,0,3,,,,,,,,,2,,,64,0
57312,note_on,192,0,2,,,,,,,,,1,,,67,0
57312,note_on,192,0,5,,,,,,,,,4,,,48,0
57312,note_on,192,0,4,,,,,,,,,3,,,60,0
57348,note_on,48,0,1,,,,,,,,,0,,,70,0
57360,note_on,12,0,1,,,,,,,,,0,,,76,92
57408,note_on,48,0,1,,,,,,,,,0,,,76,0
57420,note_on,12,0,1,,,,,,,,,0,,,70,92
57468,note_on,48,0,1,,,,,,,,,0,,,70,0
57480,note_on,12,0,1,,,,,,,,,0,,,67,92
57528,note_on,48,0,1,,,,,,,,,0,,,67,0
57540,note_on,12,0,1,,,,,,,,,0,,,70,92
57588,note_on,48,0,1,,,,,,,,,0,,,70,0
57600,note_on,288,0,5,,,,,,,,,4,,,41,92
57600,note_on,288,0,4,,,,,,,,,3,,,60,92
57600,note_on,12,0,1,,,,,,,,,0,,,77,92
57648,note_on,48,0,1,,,,,,,,,0,,,77,0
57660,note_on,348,0,2,,,,,,,,,1,,,80,92
57660,note_on,12,0,1,,,,,,,,,0,,,72,92
57660,note_on,348,0,3,,,,,,,,,2,,,77,92
57696,note_on,96,0,5,,,,,,,,,4,,,41,0
57696,note_on,96,0,4,,,,,,,,,3,,,60,0
57708,note_on,48,0,2,,,,,,,,,1,,,80,0
57708,note_on,48,0,1,,,,,,,,,0,,,72,0
57708,note_on,48,0,3,,,,,,,,,2,,,77,0
57720,note_on,24,0,4,,,,,,,,,3,,,60,92
57720,note_on,12,0,2,,,,,,,,,1,,,79,92
57720,note_on,12,0,1,,,,,,,,,0,,,68,92
57720,note_on,12,0,3,,,,,,,,,2,,,75,92
57720,note_on,24,0,5,,,,,,,,,4,,,41,92
57768,note_on,48,0,3,,,,,,,,,2,,,75,0
57768,note_on,48,0,1,,,,,,,,,0,,,68,0
57768,note_on,48,0,2,,,,,,,,,1,,,79,0
57780,note_on,12,0,3,,,,,,,,,2,,,74,92
57780,note_on,12,0,1,,,,,,,,,0,,,72,92
57780,note_on,12,0,2,,,,,,,,,1,,,77,92
57816,note_on,96,0,5,,,,,,,,,4,,,41,0
57816,note_on,96,0,4,,,,,,,,,3,,,60,0
57828,note_on,48,0,2,,,,,,,,,1,,,77,0
57828,note_on,48,0,3,,,,,,,,,2,,,74,0
57828,note_on,48,0,1,,,,,,,,,0,,,72,0
57840,note_on,24,0,5,,,,,,,,,4,,,41,92
57840,note_on,12,0,2,,,,,,,,,1,,,75,92
57840,note_on,12,0,1,,,,,,,,,0,,,77,92
57840,note_on,24,0,4,,,,,,,,,3,,,60,92
57840,note_on,12,0,3,,,,,,,,,2,,,72,92
57888,note_on,48,0,3,,,,,,,,,2,,,72,0
57888,note_on,48,0,2,,,,,,,,,1,,,75,0
57888,note_on,48,0,1,,,,,,,,,0,,,77,0
57900,note_on,12,0,1,,,,,,,,,0,,,72,92
57900,note_on,12,0,3,,,,,,,,,2,,,70,92
57900,note_on,12,0,2,,,,,,,,,1,,,74,92
57936,note_on,96,0,4,,,,,,,,,3,,,60,0
57936,note_on,96,0,5,,,,,,,,,4,,,41,0
57948,note_on,48,0,1,,,,,,,,,0,,,72,0
57948,note_on,48,0,3,,,,,,,,,2,,,70,0
57948,note_on,48,0,2,,,,,,,,,1,,,74,0
57960,note_on,12,0,3,,,,,,,,,2,,,68,92
57960,note_on,24,0,4,,,,,,,,,3,,,60,92
57960,note_on,24,0,5,,,,,,,,,4,,,41,92
57960,note_on,12,0,2,,,,,,,,,1,,,72,92
57960,note_on,12,0,1,,,,,,,,,0,,,68,92
58008,note_on,48,0,2,,,,,,,,,1,,,72,0
58008,note_on,48,0,3,,,,,,,,,2,,,68,0
58008,note_on,48,0,1,,,,,,,,,0,,,68,0
58020,note_on,12,0,3,,,,,,,,,2,,,67,92
58020,note_on,12,0,1,,,,,,,,,0,,,72,92
58020,note_on,12,0,2,,,,,,,,,1,,,70,92
58056,note_on,96,0,4,,,,,,,,,3,,,60,0
58056,note_on,96,0,5,,,,,,,,,4,,,41,0
58068,note_on,48,0,3,,,,,,,,,2,,,67,0
58068,note_on,48,0,1,,,,,,,,,0,,,72,0
58068,note_on,48,0,2,,,,,,,,,1,,,70,0
58080,note_on,12,0,3,,,,,,,,,2,,,65,92
58080,note_on,12,0,1,,,,,,,,,0,,,77,92
58080,note_on,24,0,5,,,,,,,,,4,,,41,92
58080,note_on,12,0,2,,,,,,,,,1,,,68,92
58080,note_on,24,0,4,,,,,,,,,3,,,60,92
58128,note_on,48,0,1,,,,,,,,,0,,,77,0
58140,note_on,12,0,1,,,,,,,,,0,,,72,92
58188,note_on,48,0,1,,,,,,,,,0,,,72,0
58200,note_on,12,0,1,,,,,,,,,0,,,68,92
58248,note_on,48,0,1,,,,,,,,,0,,,68,0
58260,note_on,12,0,1,,,,,,,,,0,,,72,92
58272,note_on,192,0,2,,,,,,,,,1,,,68,0
58272,note_on,192,0,3,,,,,,,,,2,,,65,0
58272,note_on,192,0,4,,,,,,,,,3,,,60,0
58272,note_on,192,0,5,,,,,,,,,4,,,41,0
58308,note_on,48,0,1,,,,,,,,,0,,,72,0
58320,note_on,12,0,1,,,,,,,,,0,,,77,92
58368,note_on,48,0,1,,,,,,,,,0,,,77,0
58380,note_on,12,0,1,,,,,,,,,0,,,72,92
58428,note_on,48,0,1,,,,,,,,,0,,,72,0
58440,note_on,12,0,1,,,,,,,,,0,,,68,92
58488,note_on,48,0,1,,,,,,,,,0,,,68,0
58500,note_on,12,0,1,,,,,,,,,0,,,72,92
58548,note_on,48,0,1,,,,,,,,,0,,,72,0
58560,note_on,288,0,4,,,,,,,,,3,,,62,92
58560,note_on,288,0,5,,,,,,,,,4,,,50,92
58560,note_on,12,0,1,,,,,,,,,0,,,78,92
58608,note_on,48,0,1,,,,,,,,,0,,,78,0
58620,note_on,348,0,2,,,,,,,,,1,,,74,92
58620,note_on,12,0,1,,,,,,,,,0,,,72,92
58620,note_on,348,0,3,,,,,,,,,2,,,74,92
58668,note_on,48,0,2,,,,,,,,,1,,,74,0
58668,note_on,48,0,3,,,,,,,,,2,,,74,0
58668,note_on,48,0,1,,,,,,,,,0,,,72,0
58680,note_on,12,0,2,,,,,,,,,1,,,72,92
58680,note_on,12,0,3,,,,,,,,,2,,,72,92
58680,note_on,12,0,1,,,,,,,,,0,,,62,92
58728,note_on,48,0,1,,,,,,,,,0,,,62,0
58728,note_on,48,0,2,,,,,,,,,1,,,72,0
58728,note_on,48,0,3,,,,,,,,,2,,,72,0
58740,note_on,12,0,3,,,,,,,,,2,,,70,92
58740,note_on,12,0,2,,,,,,,,,1,,,70,92
58740,note_on,12,0,1,,,,,,,,,0,,,72,92
58752,note_on,192,0,5,,,,,,,,,4,,,50,0
58752,note_on,192,0,4,,,,,,,,,3,,,62,0
58788,note_on,48,0,3,,,,,,,,,2,,,70,0
58788,note_on,48,0,2,,,,,,,,,1,,,70,0
58788,note_on,48,0,1,,,,,,,,,0,,,72,0
58800,note_on,12,0,3,,,,,,,,,2,,,69,92
58800,note_on,12,0,2,,,,,,,,,1,,,69,92
58800,note_on,12,0,1,,,,,,,,,0,,,78,92
58848,note_on,48,0,3,,,,,,,,,2,,,69,0
58848,note_on,48,0,2,,,,,,,,,1,,,69,0
58848,note_on,48,0,1,,,,,,,,,0,,,78,0
58860,note_on,12,0,2,,,,,,,,,1,,,67,92
58860,note_on,12,0,1,,,,,,,,,0,,,72,92
58860,note_on,12,0,3,,,,,,,,,2,,,67,92
58908,note_on,48,0,3,,,,,,,,,2,,,67,0
58908,note_on,48,0,2,,,,,,,,,1,,,67,0
58908,note_on,48,0,1,,,,,,,,,0,,,72,0
58920,note_on,12,0,1,,,,,,,,,0,,,62,92
58920,note_on,12,0,2,,,,,,,,,1,,,66,92
58920,note_on,12,0,3,,,,,,,,,2,,,66,92
58968,note_on,48,0,1,,,,,,,,,0,,,62,0
58968,note_on,48,0,3,,,,,,,,,2,,,66,0
58968,note_on,48,0,2,,,,,,,,,1,,,66,0
58980,note_on,12,0,3,,,,,,,,,2,,,64,92
58980,note_on,12,0,1,,,,,,,,,0,,,72,92
58980,note_on,12,0,2,,,,,,,,,1,,,64,92
59028,note_on,48,0,2,,,,,,,,,1,,,64,0
59028,note_on,48,0,3,,,,,,,,,2,,,64,0
59028,note_on,48,0,1,,,,,,,,,0,,,72,0
59040,note_on,12,0,1,,,,,,,,,0,,,81,92
59040,note_on,12,0,3,,,,,,,,,2,,,62,92
59040,note_on,12,0,2,,,,,,,,,1,,,62,92
59088,note_on,48,0,1,,,,,,,,,0,,,81,0
59100,note_on,348,0,4,,,,,,,,,3,,,74,92
59100,note_on,348,0,5,,,,,,,,,4,,,62,92
59100,note_on,12,0,1,,,,,,,,,0,,,72,92
59148,note_on,48,0,4,,,,,,,,,3,,,74,0
59148,note_on,48,0,5,,,,,,,,,4,,,62,0
59148,note_on,48,0,1,,,,,,,,,0,,,72,0
59160,note_on,12,0,4,,,,,,,,,3,,,72,92
59160,note_on,12,0,1,,,,,,,,,0,,,62,92
59160,note_on,12,0,5,,,,,,,,,4,,,60,92
59208,note_on,48,0,5,,,,,,,,,4,,,60,0
59208,note_on,48,0,4,,,,,,,,,3,,,72,0
59208,note_on,48,0,1,,,,,,,,,0,,,62,0
59220,note_on,12,0,5,,,,,,,,,4,,,58,92
59220,note_on,12,0,1,,,,,,,,,0,,,72,92
59220,note_on,12,0,4,,,,,,,,,3,,,70,92
59232,note_on,192,0,3,,,,,,,,,2,,,62,0
59232,note_on,192,0,2,,,,,,,,,1,,,62,0
59268,note_on,48,0,4,,,,,,,,,3,,,70,0
59268,note_on,48,0,5,,,,,,,,,4,,,58,0
59268,note_on,48,0,1,,,,,,,,,0,,,72,0
59280,note_on,12,0,1,,,,,,,,,0,,,81,92
59280,note_on,12,0,5,,,,,,,,,4,,,57,92
59280,note_on,12,0,4,,,,,,,,,3,,,69,92
59328,note_on,48,0,1,,,,,,,,,0,,,81,0
59328,note_on,48,0,4,,,,,,,,,3,,,69,0
59328,note_on,48,0,5,,,,,,,,,4,,,57,0
59340,note_on,12,0,1,,,,,,,,,0,,,72,92
59340,note_on,12,0,4,,,,,,,,,3,,,67,92
59340,note_on,12,0,5,,,,,,,,,4,,,55,92
59388,note_on,48,0,1,,,,,,,,,0,,,72,0
59388,note_on,48,0,5,,,,,,,,,4,,,55,0
59388,note_on,48,0,4,,,,,,,,,3,,,67,0
59400,note_on,12,0,5,,,,,,,,,4,,,54,92
59400,note_on,12,0,1,,,,,,,,,0,,,62,92
59400,note_on,12,0,4,,,,,,,,,3,,,66,92
59448,note_on,48,0,1,,,,,,,,,0,,,62,0
59448,note_on,48,0,5,,,,,,,,,4,,,54,0
59448,note_on,48,0,4,,,,,,,,,3,,,66,0
59460,note_on,12,0,5,,,,,,,,,4,,,52,92
59460,note_on,12,0,4,,,,,,,,,3,,,64,92
59460,note_on,12,0,1,,,,,,,,,0,,,72,92
59508,note_on,48,0,5,,,,,,,,,4,,,52,0
59508,note_on,48,0,4,,,,,,,,,3,,,64,0
59508,note_on,48,0,1,,,,,,,,,0,,,72,0
59520,note_on,12,0,1,,,,,,,,,0,,,81,92
59520,note_on,12,0,4,,,,,,,,,3,,,62,92
59520,note_on,12,0,5,,,,,,,,,4,,,50,92
59568,note_on,48,0,1,,,,,,,,,0,,,81,0
59580,note_on,348,0,3,,,,,,,,,2,,,74,92
59580,note_on,348,0,2,,,,,,,,,1,,,74,92
59580,note_on,12,0,1,,,,,,,,,0,,,70,92
59628,note_on,48,0,2,,,,,,,,,1,,,74,0
59628,note_on,48,0,3,,,,,,,,,2,,,74,0
59628,note_on,48,0,1,,,,,,,,,0,,,70,0
59640,note_on,12,0,2,,,,,,,,,1,,,72,92
59640,note_on,12,0,1,,,,,,,,,0,,,62,92
59640,note_on,12,0,3,,,,,,,,,2,,,72,92
59688,note_on,48,0,1,,,,,,,,,0,,,62,0
59688,note_on,48,0,2,,,,,,,,,1,,,72,0
59688,note_on,48,0,3,,,,,,,,,2,,,72,0
59700,note_on,12,0,1,,,,,,,,,0,,,70,92
59700,note_on,12,0,2,,,,,,,,,1,,,70,92
59700,note_on,12,0,3,,,,,,,,,2,,,70,92
59712,note_on,192,0,4,,,,,,,,,3,,,62,0
59712,note_on,192,0,5,,,,,,,,,4,,,50,0
59748,note_on,48,0,3,,,,,,,,,2,,,70,0
59748,note_on,48,0,2,,,,,,,,,1,,,70,0
59748,note_on,48,0,1,,,,,,,,,0,,,70,0
59760,note_on,12,0,3,,,,,,,,,2,,,69,92
59760,note_on,12,0,1,,,,,,,,,0,,,81,92
59760,note_on,12,0,2,,,,,,,,,1,,,69,92
59808,note_on,48,0,1,,,,,,,,,0,,,81,0
59808,note_on,48,0,3,,,,,,,,,2,,,69,0
59808,note_on,48,0,2,,,,,,,,,1,,,69,0
59820,note_on,12,0,1,,,,,,,,,0,,,70,92
59820,note_on,12,0,3,,,,,,,,,2,,,67,92
59820,note_on,12,0,2,,,,,,,,,1,,,67,92
59868,note_on,48,0,2,,,,,,,,,1,,,67,0
59868,note_on,48,0,3,,,,,,,,,2,,,67,0
59868,note_on,48,0,1,,,,,,,,,0,,,70,0
59880,note_on,12,0,3,,,,,,,,,2,,,66,92
59880,note_on,12,0,2,,,,,,,,,1,,,66,92
59880,note_on,12,0,1,,,,,,,,,0,,,62,92
59928,note_on,48,0,1,,,,,,,,,0,,,62,0
59928,note_on,48,0,3,,,,,,,,,2,,,66,0
59928,note_on,48,0,2,,,,,,,,,1,,,66,0
59940,note_on,12,0,1,,,,,,,,,0,,,70,92
59940,note_on,12,0,2,,,,,,,,,1,,,64,92
59940,note_on,12,0,3,,,,,,,,,2,,,64,92
59988,note_on,48,0,2,,,,,,,,,1,,,64,0
59988,note_on,48,0,3,,,,,,,,,2,,,64,0
59988,note_on,48,0,1,,,,,,,,,0,,,70,0
60000,note_on,12,0,3,,,,,,,,,2,,,62,92
60000,note_on,12,0,1,,,,,,,,,0,,,79,92
60000,note_on,12,0,2,,,,,,,,,1,,,62,92
60048,note_on,48,0,1,,,,,,,,,0,,,79,0
60060,note_on,12,0,1,,,,,,,,,0,,,70,92
60060,note_on,348,0,5,,,,,,,,,4,,,62,92
60060,note_on,348,0,4,,,,,,,,,3,,,74,92
60108,note_on,48,0,4,,,,,,,,,3,,,74,0
60108,note_on,48,0,5,,,,,,,,,4,,,62,0
60108,note_on,48,0,1,,,,,,,,,0,,,70,0
60120,note_on,12,0,5,,,,,,,,,4,,,60,92
60120,note_on,12,0,4,,,,,,,,,3,,,72,92
60120,note_on,12,0,1,,,,,,,,,0,,,62,92
60168,note_on,48,0,4,,,,,,,,,3,,,72,0
60168,note_on,48,0,5,,,,,,,,,4,,,60,0
60168,note_on,48,0,1,,,,,,,,,0,,,62,0
60180,note_on,12,0,1,,,,,,,,,0,,,70,92
60180,note_on,12,0,5,,,,,,,,,4,,,58,92
60180,note_on,12,0,4,,,,,,,,,3,,,70,92
60192,note_on,192,0,2,,,,,,,,,1,,,62,0
60192,note_on,192,0,3,,,,,,,,,2,,,62,0
60228,note_on,48,0,4,,,,,,,,,3,,,70,0
60228,note_on,48,0,1,,,,,,,,,0,,,70,0
60228,note_on,48,0,5,,,,,,,,,4,,,58,0
60240,note_on,12,0,1,,,,,,,,,0,,,79,92
60240,note_on,12,0,5,,,,,,,,,4,,,57,92
60240,note_on,12,0,4,,,,,,,,,3,,,69,92
60288,note_on,48,0,4,,,,,,,,,3,,,69,0
60288,note_on,48,0,5,,,,,,,,,4,,,57,0
60288,note_on,48,0,1,,,,,,,,,0,,,79,0
60300,note_on,12,0,1,,,,,,,,,0,,,70,92
60300,note_on,12,0,5,,,,,,,,,4,,,55,92
60300,note_on,12,0,4,,,,,,,,,3,,,67,92
60348,note_on,48,0,4,,,,,,,,,3,,,67,0
60348,note_on,48,0,1,,,,,,,,,0,,,70,0
60348,note_on,48,0,5,,,,,,,,,4,,,55,0
60360,note_on,12,0,5,,,,,,,,,4,,,54,92
60360,note_on,12,0,1,,,,,,,,,0,,,62,92
60360,note_on,12,0,4,,,,,,,,,3,,,66,92
60408,note_on,48,0,1,,,,,,,,,0,,,62,0
60408,note_on,48,0,4,,,,,,,,,3,,,66,0
60408,note_on,48,0,5,,,,,,,,,4,,,54,0
60420,note_on,12,0,5,,,,,,,,,4,,,52,92
60420,note_on,12,0,1,,,,,,,,,0,,,70,92
60420,note_on,12,0,4,,,,,,,,,3,,,64,92
60468,note_on,48,0,5,,,,,,,,,4,,,52,0
60468,note_on,48,0,4,,,,,,,,,3,,,64,0
60468,note_on,48,0,1,,,,,,,,,0,,,70,0
60480,note_on,12,0,5,,,,,,,,,4,,,50,92
60480,note_on,12,0,4,,,,,,,,,3,,,62,92
60480,note_on,12,0,1,,,,,,,,,0,,,84,92
60528,note_on,48,0,1,,,,,,,,,0,,,84,0
60540,note_on,348,0,3,,,,,,,,,2,,,74,92
60540,note_on,12,0,1,,,,,,,,,0,,,69,92
60540,note_on,348,0,2,,,,,,,,,1,,,74,92
60588,note_on,48,0,2,,,,,,,,,1,,,74,0
60588,note_on,48,0,1,,,,,,,,,0,,,69,0
60588,note_on,48,0,3,,,,,,,,,2,,,74,0
60600,note_on,12,0,1,,,,,,,,,0,,,62,92
60600,note_on,12,0,2,,,,,,,,,1,,,72,92
60600,note_on,12,0,3,,,,,,,,,2,,,72,92
60648,note_on,48,0,2,,,,,,,,,1,,,72,0
60648,note_on,48,0,3,,,,,,,,,2,,,72,0
60648,note_on,48,0,1,,,,,,,,,0,,,62,0
60660,note_on,12,0,3,,,,,,,,,2,,,70,92
60660,note_on,12,0,1,,,,,,,,,0,,,69,92
60660,note_on,12,0,2,,,,,,,,,1,,,70,92
60672,note_on,192,0,4,,,,,,,,,3,,,62,0
60672,note_on,192,0,5,,,,,,,,,4,,,50,0
60708,note_on,48,0,2,,,,,,,,,1,,,70,0
60708,note_on,48,0,1,,,,,,,,,0,,,69,0
60708,note_on,48,0,3,,,,,,,,,2,,,70,0
60720,note_on,12,0,3,,,,,,,,,2,,,69,92
60720,note_on,12,0,2,,,,,,,,,1,,,69,92
60720,note_on,12,0,1,,,,,,,,,0,,,84,92
60768,note_on,48,0,1,,,,,,,,,0,,,84,0
60768,note_on,48,0,2,,,,,,,,,1,,,69,0
60768,note_on,48,0,3,,,,,,,,,2,,,69,0
60780,note_on,12,0,3,,,,,,,,,2,,,67,92
60780,note_on,12,0,1,,,,,,,,,0,,,69,92
60780,note_on,12,0,2,,,,,,,,,1,,,67,92
60828,note_on,48,0,2,,,,,,,,,1,,,67,0
60828,note_on,48,0,3,,,,,,,,,2,,,67,0
60828,note_on,48,0,1,,,,,,,,,0,,,69,0
60840,note_on,12,0,2,,,,,,,,,1,,,66,92
60840,note_on,12,0,3,,,,,,,,,2,,,66,92
60840,note_on,12,0,1,,,,,,,,,0,,,62,92
60888,note_on,48,0,1,,,,,,,,,0,,,62,0
60888,note_on,48,0,2,,,,,,,,,1,,,66,0
60888,note_on,48,0,3,,,,,,,,,2,,,66,0
60900,note_on,12,0,1,,,,,,,,,0,,,69,92
60900,note_on,12,0,2,,,,,,,,,1,,,64,92
60900,note_on,12,0,3,,,,,,,,,2,,,64,92
60948,note_on,48,0,2,,,,,,,,,1,,,64,0
60948,note_on,48,0,3,,,,,,,,,2,,,64,0
60948,note_on,48,0,1,,,,,,,,,0,,,69,0
60960,note_on,12,0,2,,,,,,,,,1,,,62,92
60960,note_on,12,0,3,,,,,,,,,2,,,62,92
60960,note_on,12,0,1,,,,,,,,,0,,,84,92
61008,note_on,48,0,1,,,,,,,,,0,,,84,0
61020,note_on,348,0,4,,,,,,,,,3,,,74,92
61020,note_on,12,0,1,,,,,,,,,0,,,78,92
61020,note_on,348,0,5,,,,,,,,,4,,,62,92
61068,note_on,48,0,1,,,,,,,,,0,,,78,0
61068,note_on,48,0,4,,,,,,,,,3,,,74,0
61068,note_on,48,0,5,,,,,,,,,4,,,62,0
61080,note_on,12,0,4,,,,,,,,,3,,,72,92
61080,note_on,12,0,1,,,,,,,,,0,,,62,92
61080,note_on,12,0,5,,,,,,,,,4,,,60,92
61128,note_on,48,0,1,,,,,,,,,0,,,62,0
61128,note_on,48,0,4,,,,,,,,,3,,,72,0
61128,note_on,48,0,5,,,,,,,,,4,,,60,0
61140,note_on,12,0,1,,,,,,,,,0,,,78,92
61140,note_on,12,0,5,,,,,,,,,4,,,58,92
61140,note_on,12,0,4,,,,,,,,,3,,,70,92
61152,note_on,192,0,3,,,,,,,,,2,,,62,0
61152,note_on,192,0,2,,,,,,,,,1,,,62,0
61188,note_on,48,0,5,,,,,,,,,4,,,58,0
61188,note_on,48,0,1,,,,,,,,,0,,,78,0
61188,note_on,48,0,4,,,,,,,,,3,,,70,0
61200,note_on,12,0,4,,,,,,,,,3,,,69,92
61200,note_on,12,0,1,,,,,,,,,0,,,84,92
61200,note_on,12,0,5,,,,,,,,,4,,,57,92
61248,note_on,48,0,1,,,,,,,,,0,,,84,0
61248,note_on,48,0,5,,,,,,,,,4,,,57,0
61248,note_on,48,0,4,,,,,,,,,3,,,69,0
61260,note_on,12,0,4,,,,,,,,,3,,,67,92
61260,note_on,12,0,5,,,,,,,,,4,,,55,92
61260,note_on,12,0,1,,,,,,,,,0,,,78,92
61308,note_on,48,0,4,,,,,,,,,3,,,67,0
61308,note_on,48,0,1,,,,,,,,,0,,,78,0
61308,note_on,48,0,5,,,,,,,,,4,,,55,0
61320,note_on,12,0,5,,,,,,,,,4,,,54,92
61320,note_on,12,0,4,,,,,,,,,3,,,66,92
61320,note_on,12,0,1,,,,,,,,,0,,,62,92
61368,note_on,48,0,4,,,,,,,,,3,,,66,0
61368,note_on,48,0,5,,,,,,,,,4,,,54,0
61368,note_on,48,0,1,,,,,,,,,0,,,62,0
61380,note_on,12,0,1,,,,,,,,,0,,,78,92
61380,note_on,12,0,4,,,,,,,,,3,,,64,92
61380,note_on,12,0,5,,,,,,,,,4,,,52,92
61428,note_on,48,0,1,,,,,,,,,0,,,78,0
61428,note_on,48,0,4,,,,,,,,,3,,,64,0
61428,note_on,48,0,5,,,,,,,,,4,,,52,0
61440,note_on,12,0,5,,,,,,,,,4,,,50,92
61440,note_on,12,0,1,,,,,,,,,0,,,84,92
61440,note_on,12,0,4,,,,,,,,,3,,,62,92
61488,note_on,48,0,1,,,,,,,,,0,,,84,0
61500,note_on,348,0,3,,,,,,,,,2,,,74,92
61500,note_on,348,0,2,,,,,,,,,1,,,74,92
61500,note_on,12,0,1,,,,,,,,,0,,,79,92
61548,note_on,48,0,3,,,,,,,,,2,,,74,0
61548,note_on,48,0,2,,,,,,,,,1,,,74,0
61548,note_on,48,0,1,,,,,,,,,0,,,79,0
61560,note_on,12,0,3,,,,,,,,,2,,,72,92
61560,note_on,12,0,2,,,,,,,,,1,,,72,92
61560,note_on,12,0,1,,,,,,,,,0,,,62,92
61608,note_on,48,0,3,,,,,,,,,2,,,72,0
61608,note_on,48,0,2,,,,,,,,,1,,,72,0
61608,note_on,48,0,1,,,,,,,,,0,,,62,0
61620,note_on,12,0,1,,,,,,,,,0,,,79,92
61620,note_on,12,0,2,,,,,,,,,1,,,70,92
61620,note_on,12,0,3,,,,,,,,,2,,,70,92
61632,note_on,192,0,5,,,,,,,,,4,,,50,0
61632,note_on,192,0,4,,,,,,,,,3,,,62,0
61668,note_on,48,0,3,,,,,,,,,2,,,70,0
61668,note_on,48,0,2,,,,,,,,,1,,,70,0
61668,note_on,48,0,1,,,,,,,,,0,,,79,0
61680,note_on,12,0,2,,,,,,,,,1,,,69,92
61680,note_on,12,0,3,,,,,,,,,2,,,69,92
61680,note_on,12,0,1,,,,,,,,,0,,,84,92
61728,note_on,48,0,2,,,,,,,,,1,,,69,0
61728,note_on,48,0,3,,,,,,,,,2,,,69,0
61728,note_on,48,0,1,,,,,,,,,0,,,84,0
61740,note_on,12,0,3,,,,,,,,,2,,,67,92
61740,note_on,12,0,2,,,,,,,,,1,,,67,92
61740,note_on,12,0,1,,,,,,,,,0,,,79,92
61788,note_on,48,0,1,,,,,,,,,0,,,79,0
61788,note_on,48,0,3,,,,,,,,,2,,,67,0
61788,note_on,48,0,2,,,,,,,,,1,,,67,0
61800,note_on,12,0,2,,,,,,,,,1,,,66,92
61800,note_on,12,0,1,,,,,,,,,0,,,62,92
61800,note_on,12,0,3,,,,,,,,,2,,,66,92
61848,note_on,48,0,1,,,,,,,,,0,,,62,0
61848,note_on,48,0,2,,,,,,,,,1,,,66,0
61848,note_on,48,0,3,,,,,,,,,2,,,66,0
61860,note_on,12,0,3,,,,,,,,,2,,,64,92
61860,note_on,12,0,1,,,,,,,,,0,,,79,92
61860,note_on,12,0,2,,,,,,,,,1,,,64,92
61908,note_on,48,0,1,,,,,,,,,0,,,79,0
61908,note_on,48,0,2,,,,,,,,,1,,,64,0
61908,note_on,48,0,3,,,,,,,,,2,,,64,0
61920,note_on,12,0,1,,,,,,,,,0,,,82,92
61920,note_on,12,0,2,,,,,,,,,1,,,62,92
61920,note_on,12,0,3,,,,,,,,,2,,,62,92
61968,note_on,48,0,1,,,,,,,,,0,,,82,0
61980,note_on,348,0,5,,,,,,,,,4,,,62,92
61980,note_on,12,0,1,,,,,,,,,0,,,79,92
61980,note_on,348,0,4,,,,,,,,,3,,,74,92
62028,note_on,48,0,5,,,,,,,,,4,,,62,0
62028,note_on,48,0,1,,,,,,,,,0,,,79,0
62028,note_on,48,0,4,,,,,,,,,3,,,74,0
62040,note_on,12,0,1,,,,,,,,,0,,,62,92
62040,note_on,12,0,5,,,,,,,,,4,,,60,92
62040,note_on,12,0,4,,,,,,,,,3,,,72,92
62088,note_on,48,0,5,,,,,,,,,4,,,60,0
62088,note_on,48,0,4,,,,,,,,,3,,,72,0
62088,note_on,48,0,1,,,,,,,,,0,,,62,0
62100,note_on,12,0,5,,,,,,,,,4,,,58,92
62100,note_on,12,0,4,,,,,,,,,3,,,70,92
62100,note_on,12,0,1,,,,,,,,,0,,,79,92
62112,note_on,192,0,3,,,,,,,,,2,,,62,0
62112,note_on,192,0,2,,,,,,,,,1,,,62,0
62148,note_on,48,0,4,,,,,,,,,3,,,70,0
62148,note_on,48,0,1,,,,,,,,,0,,,79,0
62148,note_on,48,0,5,,,,,,,,,4,,,58,0
62160,note_on,12,0,4,,,,,,,,,3,,,69,92
62160,note_on,12,0,5,,,,,,,,,4,,,57,92
62160,note_on,12,0,1,,,,,,,,,0,,,82,92
62208,note_on,48,0,5,,,,,,,,,4,,,57,0
62208,note_on,48,0,4,,,,,,,,,3,,,69,0
62208,note_on,48,0,1,,,,,,,,,0,,,82,0
62220,note_on,12,0,1,,,,,,,,,0,,,79,92
62220,note_on,12,0,4,,,,,,,,,3,,,67,92
62220,note_on,12,0,5,,,,,,,,,4,,,55,92
62268,note_on,48,0,1,,,,,,,,,0,,,79,0
62268,note_on,48,0,5,,,,,,,,,4,,,55,0
62268,note_on,48,0,4,,,,,,,,,3,,,67,0
62280,note_on,12,0,5,,,,,,,,,4,,,54,92
62280,note_on,12,0,4,,,,,,,,,3,,,66,92
62280,note_on,12,0,1,,,,,,,,,0,,,62,92
62328,note_on,48,0,4,,,,,,,,,3,,,66,0
62328,note_on,48,0,5,,,,,,,,,4,,,54,0
62328,note_on,48,0,1,,,,,,,,,0,,,62,0
62340,note_on,12,0,1,,,,,,,,,0,,,79,92
62340,note_on,12,0,5,,,,,,,,,4,,,52,92
62340,note_on,12,0,4,,,,,,,,,3,,,64,92
62388,note_on,48,0,1,,,,,,,,,0,,,79,0
62388,note_on,48,0,5,,,,,,,,,4,,,52,0
62388,note_on,48,0,4,,,,,,,,,3,,,64,0
62400,note_on,12,0,4,,,,,,,,,3,,,62,92
62400,note_on,12,0,5,,,,,,,,,4,,,50,92
62400,note_on,12,0,1,,,,,,,,,0,,,81,92
62448,note_on,48,0,1,,,,,,,,,0,,,81,0
62460,note_on,348,0,3,,,,,,,,,2,,,74,92
62460,note_on,348,0,2,,,,,,,,,1,,,74,92
62460,note_on,12,0,1,,,,,,,,,0,,,79,92
62508,note_on,48,0,3,,,,,,,,,2,,,74,0
62508,note_on,48,0,1,,,,,,,,,0,,,79,0
62508,note_on,48,0,2,,,,,,,,,1,,,74,0
62520,note_on,12,0,3,,,,,,,,,2,,,72,92
62520,note_on,12,0,1,,,,,,,,,0,,,62,92
62520,note_on,12,0,2,,,,,,,,,1,,,72,92
62568,note_on,48,0,1,,,,,,,,,0,,,62,0
62568,note_on,48,0,2,,,,,,,,,1,,,72,0
62568,note_on,48,0,3,,,,,,,,,2,,,72,0
62580,note_on,12,0,2,,,,,,,,,1,,,70,92
62580,note_on,12,0,1,,,,,,,,,0,,,79,92
62580,note_on,12,0,3,,,,,,,,,2,,,70,92
62592,note_on,192,0,4,,,,,,,,,3,,,62,0
62592,note_on,192,0,5,,,,,,,,,4,,,50,0
62628,note_on,48,0,3,,,,,,,,,2,,,70,0
62628,note_on,48,0,1,,,,,,,,,0,,,79,0
62628,note_on,48,0,2,,,,,,,,,1,,,70,0
62640,note_on,12,0,2,,,,,,,,,1,,,69,92
62640,note_on,12,0,1,,,,,,,,,0,,,81,92
62640,note_on,12,0,3,,,,,,,,,2,,,69,92
62688,note_on,48,0,2,,,,,,,,,1,,,69,0
62688,note_on,48,0,3,,,,,,,,,2,,,69,0
62688,note_on,48,0,1,,,,,,,,,0,,,81,0
62700,note_on,12,0,2,,,,,,,,,1,,,67,92
62700,note_on,12,0,3,,,,,,,,,2,,,67,92
62700,note_on,12,0,1,,,,,,,,,0,,,79,92
62748,note_on,48,0,2,,,,,,,,,1,,,67,0
62748,note_on,48,0,3,,,,,,,,,2,,,67,0
62748,note_on,48,0,1,,,,,,,,,0,,,79,0
62760,note_on,12,0,1,,,,,,,,,0,,,62,92
62760,note_on,12,0,2,,,,,,,,,1,,,66,92
62760,note_on,12,0,3,,,,,,,,,2,,,66,92
62808,note_on,48,0,1,,,,,,,,,0,,,62,0
62808,note_on,48,0,2,,,,,,,,,1,,,66,0
62808,note_on,48,0,3,,,,,,,,,2,,,66,0
62820,note_on,12,0,1,,,,,,,,,0,,,79,92
62820,note_on,12,0,3,,,,,,,,,2,,,64,92
62820,note_on,12,0,2,,,,,,,,,1,,,64,92
62868,note_on,48,0,2,,,,,,,,,1,,,64,0
62868,note_on,48,0,3,,,,,,,,,2,,,64,0
62868,note_on,48,0,1,,,,,,,,,0,,,79,0
62880,note_on,12,0,3,,,,,,,,,2,,,62,92
62880,note_on,12,0,1,,,,,,,,,0,,,81,92
62880,note_on,12,0,2,,,,,,,,,1,,,62,92
62928,note_on,48,0,1,,,,,,,,,0,,,81,0
62940,note_on,348,0,4,,,,,,,,,3,,,74,92
62940,note_on,348,0,5,,,,,,,,,4,,,62,92
62940,note_on,12,0,1,,,,,,,,,0,,,78,92
62988,note_on,48,0,1,,,,,,,,,0,,,78,0
62988,note_on,48,0,5,,,,,,,,,4,,,62,0
62988,note_on,48,0,4,,,,,,,,,3,,,74,0
63000,note_on,12,0,4,,,,,,,,,3,,,72,92
63000,note_on,12,0,5,,,,,,,,,4,,,60,92
63000,note_on,12,0,1,,,,,,,,,0,,,62,92
63048,note_on,48,0,1,,,,,,,,,0,,,62,0
63048,note_on,48,0,4,,,,,,,,,3,,,72,0
63048,note_on,48,0,5,,,,,,,,,4,,,60,0
63060,note_on,12,0,4,,,,,,,,,3,,,70,92
63060,note_on,12,0,1,,,,,,,,,0,,,78,92
63060,note_on,12,0,5,,,,,,,,,4,,,58,92
63072,note_on,192,0,3,,,,,,,,,2,,,62,0
63072,note_on,192,0,2,,,,,,,,,1,,,62,0
63108,note_on,48,0,4,,,,,,,,,3,,,70,0
63108,note_on,48,0,5,,,,,,,,,4,,,58,0
63108,note_on,48,0,1,,,,,,,,,0,,,78,0
63120,note_on,12,0,4,,,,,,,,,3,,,69,92
63120,note_on,12,0,5,,,,,,,,,4,,,57,92
63120,note_on,12,0,1,,,,,,,,,0,,,81,92
63168,note_on,48,0,4,,,,,,,,,3,,,69,0
63168,note_on,48,0,5,,,,,,,,,4,,,57,0
63168,note_on,48,0,1,,,,,,,,,0,,,81,0
63180,note_on,12,0,1,,,,,,,,,0,,,78,92
63180,note_on,12,0,4,,,,,,,,,3,,,67,92
63180,note_on,12,0,5,,,,,,,,,4,,,55,92
63228,note_on,48,0,5,,,,,,,,,4,,,55,0
63228,note_on,48,0,1,,,,,,,,,0,,,78,0
63228,note_on,48,0,4,,,,,,,,,3,,,67,0
63240,note_on,12,0,5,,,,,,,,,4,,,54,92
63240,note_on,12,0,1,,,,,,,,,0,,,62,92
63240,note_on,12,0,4,,,,,,,,,3,,,66,92
63288,note_on,48,0,5,,,,,,,,,4,,,54,0
63288,note_on,48,0,1,,,,,,,,,0,,,62,0
63288,note_on,48,0,4,,,,,,,,,3,,,66,0
63300,note_on,12,0,1,,,,,,,,,0,,,78,92
63300,note_on,12,0,4,,,,,,,,,3,,,64,92
63300,note_on,12,0,5,,,,,,,,,4,,,52,92
63348,note_on,48,0,4,,,,,,,,,3,,,64,0
63348,note_on,48,0,1,,,,,,,,,0,,,78,0
63348,note_on,48,0,5,,,,,,,,,4,,,52,0
63360,note_on,12,0,4,,,,,,,,,3,,,55,92
63360,note_on,12,0,1,,,,,,,,,0,,,55,92
63360,note_on,12,0,5,,,,,,,,,4,,,43,92
63360,note_on,288,0,2,,,,,,,,,1,,,67,92
63390,note_on,30,0,1,,,,,,,,,0,,,62,92
63408,note_on,48,0,2,,,,,,,,,1,,,67,0
63420,note_on,12,0,2,,,,,,,,,1,,,67,92
63420,note_on,30,0,1,,,,,,,,,0,,,79,92
63450,note_on,30,0,1,,,,,,,,,0,,,82,92
63468,note_on,48,0,2,,,,,,,,,1,,,67,0
63480,note_on,12,0,2,,,,,,,,,1,,,67,92
63528,note_on,48,0,2,,,,,,,,,1,,,67,0
63540,note_on,12,0,2,,,,,,,,,1,,,67,92
63552,note_on,192,0,4,,,,,,,,,3,,,55,0
63552,note_on,192,0,5,,,,,,,,,4,,,43,0
63576,note_on,0,0,1,,,,,,,,,0,,,79,0
63576,note_on,0,0,1,,,,,,,,,0,,,62,0
63576,note_on,0,0,1,,,,,,,,,0,,,55,0
63576,note_on,126,0,1,,,,,,,,,0,,,82,0
63588,note_on,48,0,2,,,,,,,,,1,,,67,0
63600,note_on,12,0,2,,,,,,,,,1,,,67,92
63600,note_on,24,0,1,,,,,,,,,0,,,67,92
63648,note_on,48,0,1,,,,,,,,,0,,,67,0
63648,note_on,48,0,2,,,,,,,,,1,,,67,0
63660,note_on,12,0,1,,,,,,,,,0,,,67,92
63660,note_on,12,0,2,,,,,,,,,1,,,67,92
63708,note_on,48,0,2,,,,,,,,,1,,,67,0
63708,note_on,48,0,1,,,,,,,,,0,,,67,0
63720,note_on,12,0,1,,,,,,,,,0,,,67,92
63720,note_on,12,0,2,,,,,,,,,1,,,67,92
63768,note_on,48,0,1,,,,,,,,,0,,,67,0
63768,note_on,48,0,2,,,,,,,,,1,,,67,0
63780,note_on,12,0,1,,,,,,,,,0,,,67,92
63780,note_on,12,0,2,,,,,,,,,1,,,67,92
63828,note_on,48,0,2,,,,,,,,,1,,,67,0
63828,note_on,48,0,1,,,,,,,,,0,,,67,0
63840,note_on,12,0,2,,,,,,,,,1,,,74,92
63840,note_on,12,0,1,,,,,,,,,0,,,74,92
63888,note_on,48,0,1,,,,,,,,,0,,,74,0
63888,note_on,48,0,2,,,,,,,,,1,,,74,0
63900,note_on,12,0,1,,,,,,,,,0,,,74,92
63900,note_on,12,0,2,,,,,,,,,1,,,74,92
63948,note_on,48,0,1,,,,,,,,,0,,,74,0
63948,note_on,48,0,2,,,,,,,,,1,,,74,0
63960,note_on,12,0,2,,,,,,,,,1,,,74,92
63960,note_on,12,0,1,,,,,,,,,0,,,74,92
64008,note_on,48,0,2,,,,,,,,,1,,,74,0
64008,note_on,48,0,1,,,,,,,,,0,,,74,0
64020,note_on,12,0,1,,,,,,,,,0,,,74,92
64020,note_on,12,0,2,,,,,,,,,1,,,74,92
64068,note_on,48,0,2,,,,,,,,,1,,,74,0
64068,note_on,48,0,1,,,,,,,,,0,,,74,0
64080,note_on,12,0,2,,,,,,,,,1,,,74,92
64080,note_on,12,0,1,,,,,,,,,0,,,74,92
64128,note_on,48,0,2,,,,,,,,,1,,,74,0
64128,note_on,48,0,1,,,,,,,,,0,,,74,0
64140,note_on,12,0,2,,,,,,,,,1,,,74,92
64140,note_on,12,0,1,,,,,,,,,0,,,74,92
64188,note_on,48,0,2,,,,,,,,,1,,,74,0
64188,note_on,48,0,1,,,,,,,,,0,,,74,0
64200,note_on,12,0,1,,,,,,,,,0,,,74,92
64200,note_on,12,0,2,,,,,,,,,1,,,74,92
64248,note_on,48,0,2,,,,,,,,,1,,,74,0
64248,note_on,48,0,1,,,,,,,,,0,,,74,0
64260,note_on,12,0,2,,,,,,,,,1,,,74,92
64260,note_on,12,0,1,,,,,,,,,0,,,74,92
64308,note_on,48,0,1,,,,,,,,,0,,,74,0
64308,note_on,48,0,2,,,,,,,,,1,,,74,0
64320,note_on,12,0,1,,,,,,,,,0,,,79,92
64320,note_on,1248,0,3,,,,,,,,,2,,,67,92
64320,note_on,12,0,2,,,,,,,,,1,,,79,92
64368,note_on,48,0,3,,,,,,,,,2,,,67,0
64380,note_on,12,0,3,,,,,,,,,2,,,67,92
64416,note_on,96,0,1,,,,,,,,,0,,,79,0
64416,note_on,96,0,2,,,,,,,,,1,,,79,0
64428,note_on,48,0,3,,,,,,,,,2,,,67,0
64440,note_on,24,0,1,,,,,,,,,0,,,67,92
64440,note_on,12,0,3,,,,,,,,,2,,,67,92
64440,note_on,24,0,2,,,,,,,,,1,,,67,92
64488,note_on,48,0,3,,,,,,,,,2,,,67,0
64500,note_on,12,0,3,,,,,,,,,2,,,67,92
64536,note_on,96,0,1,,,,,,,,,0,,,67,0
64536,note_on,96,0,2,,,,,,,,,1,,,67,0
64548,note_on,48,0,3,,,,,,,,,2,,,67,0
64560,note_on,12,0,3,,,,,,,,,2,,,67,92
64560,note_on,24,0,2,,,,,,,,,1,,,79,92
64560,note_on,24,0,1,,,,,,,,,0,,,79,92
64608,note_on,48,0,3,,,,,,,,,2,,,67,0
64608,note_on,48,0,2,,,,,,,,,1,,,79,0
64608,note_on,48,0,1,,,,,,,,,0,,,79,0
64620,note_on,12,0,1,,,,,,,,,0,,,81,92
64620,note_on,12,0,2,,,,,,,,,1,,,81,92
64620,note_on,12,0,3,,,,,,,,,2,,,67,92
64668,note_on,48,0,3,,,,,,,,,2,,,67,0
64668,note_on,48,0,1,,,,,,,,,0,,,81,0
64668,note_on,48,0,2,,,,,,,,,1,,,81,0
64680,note_on,12,0,3,,,,,,,,,2,,,67,92
64680,note_on,12,0,1,,,,,,,,,0,,,82,92
64680,note_on,12,0,2,,,,,,,,,1,,,82,92
64728,note_on,48,0,1,,,,,,,,,0,,,82,0
64728,note_on,48,0,3,,,,,,,,,2,,,67,0
64728,note_on,48,0,2,,,,,,,,,1,,,82,0
64740,note_on,12,0,1,,,,,,,,,0,,,79,92
64740,note_on,12,0,2,,,,,,,,,1,,,79,92
64740,note_on,12,0,3,,,,,,,,,2,,,67,92
64788,note_on,48,0,3,,,,,,,,,2,,,67,0
64788,note_on,48,0,1,,,,,,,,,0,,,79,0
64788,note_on,48,0,2,,,,,,,,,1,,,79,0
64800,note_on,12,0,3,,,,,,,,,2,,,74,92
64800,note_on,12,0,1,,,,,,,,,0,,,81,92
64800,note_on,12,0,2,,,,,,,,,1,,,81,92
64848,note_on,48,0,3,,,,,,,,,2,,,74,0
64848,note_on,48,0,1,,,,,,,,,0,,,81,0
64848,note_on,48,0,2,,,,,,,,,1,,,81,0
64860,note_on,12,0,1,,,,,,,,,0,,,79,92
64860,note_on,12,0,3,,,,,,,,,2,,,74,92
64860,note_on,12,0,2,,,,,,,,,1,,,79,92
64908,note_on,48,0,3,,,,,,,,,2,,,74,0
64908,note_on,48,0,1,,,,,,,,,0,,,79,0
64908,note_on,48,0,2,,,,,,,,,1,,,79,0
64920,note_on,12,0,3,,,,,,,,,2,,,74,92
64920,note_on,12,0,2,,,,,,,,,1,,,78,92
64920,note_on,12,0,1,,,,,,,,,0,,,78,92
64968,note_on,48,0,3,,,,,,,,,2,,,74,0
64968,note_on,48,0,2,,,,,,,,,1,,,78,0
64968,note_on,48,0,1,,,,,,,,,0,,,78,0
64980,note_on,12,0,2,,,,,,,,,1,,,76,92
64980,note_on,12,0,3,,,,,,,,,2,,,74,92
64980,note_on,12,0,1,,,,,,,,,0,,,76,92
65028,note_on,48,0,1,,,,,,,,,0,,,76,0
65028,note_on,48,0,2,,,,,,,,,1,,,76,0
65028,note_on,48,0,3,,,,,,,,,2,,,74,0
65040,note_on,12,0,3,,,,,,,,,2,,,74,92
65040,note_on,12,0,1,,,,,,,,,0,,,74,92
65040,note_on,12,0,2,,,,,,,,,1,,,74,92
65088,note_on,48,0,2,,,,,,,,,1,,,74,0
65088,note_on,48,0,3,,,,,,,,,2,,,74,0
65088,note_on,48,0,1,,,,,,,,,0,,,74,0
65100,note_on,12,0,1,,,,,,,,,0,,,72,92
65100,note_on,12,0,3,,,,,,,,,2,,,74,92
65100,note_on,12,0,2,,,,,,,,,1,,,72,92
65148,note_on,48,0,1,,,,,,,,,0,,,72,0
65148,note_on,48,0,3,,,,,,,,,2,,,74,0
65148,note_on,48,0,2,,,,,,,,,1,,,72,0
65160,note_on,12,0,2,,,,,,,,,1,,,70,92
65160,note_on,12,0,3,,,,,,,,,2,,,74,92
65160,note_on,12,0,1,,,,,,,,,0,,,70,92
65208,note_on,48,0,3,,,,,,,,,2,,,74,0
65208,note_on,48,0,1,,,,,,,,,0,,,70,0
65208,note_on,48,0,2,,,,,,,,,1,,,70,0
65220,note_on,12,0,3,,,,,,,,,2,,,74,92
65220,note_on,12,0,2,,,,,,,,,1,,,69,92
65220,note_on,12,0,1,,,,,,,,,0,,,69,92
65268,note_on,48,0,3,,,,,,,,,2,,,74,0
65268,note_on,48,0,2,,,,,,,,,1,,,69,0
65268,note_on,48,0,1,,,,,,,,,0,,,69,0
65280,note_on,12,0,1,,,,,,,,,0,,,70,92
65280,note_on,1728,0,4,,,,,,,,,3,,,55,92
65280,note_on,12,0,3,,,,,,,,,2,,,79,92
65280,note_on,12,0,2,,,,,,,,,1,,,70,92
65328,note_on,48,0,4,,,,,,,,,3,,,55,0
65340,note_on,12,0,4,,,,,,,,,3,,,55,92
65376,note_on,96,0,2,,,,,,,,,1,,,70,0
65376,note_on,96,0,3,,,,,,,,,2,,,79,0
65376,note_on,96,0,1,,,,,,,,,0,,,70,0
65388,note_on,48,0,4,,,,,,,,,3,,,55,0
65400,note_on,24,0,3,,,,,,,,,2,,,67,92
65400,note_on,12,0,4,,,,,,,,,3,,,55,92
65400,note_on,24,0,2,,,,,,,,,1,,,67,92
65400,note_on,24,0,1,,,,,,,,,0,,,67,92
65448,note_on,48,0,4,,,,,,,,,3,,,55,0
65460,note_on,12,0,4,,,,,,,,,3,,,55,92
65496,note_on,96,0,2,,,,,,,,,1,,,67,0
65496,note_on,96,0,3,,,,,,,,,2,,,67,0
65496,note_on,96,0,1,,,,,,,,,0,,,67,0
65508,note_on,48,0,4,,,,,,,,,3,,,55,0
65520,note_on,12,0,4,,,,,,,,,3,,,55,92
65520,note_on,24,0,2,,,,,,,,,1,,,82,92
65520,note_on,24,0,1,,,,,,,,,0,,,82,92
65520,note_on,24,0,3,,,,,,,,,2,,,79,92
65568,note_on,48,0,3,,,,,,,,,2,,,79,0
65568,note_on,48,0,4,,,,,,,,,3,,,55,0
65568,note_on,48,0,1,,,,,,,,,0,,,82,0
65568,note_on,48,0,2,,,,,,,,,1,,,82,0
65580,note_on,12,0,3,,,,,,,,,2,,,81,92
65580,note_on,12,0,4,,,,,,,,,3,,,55,92
65580,note_on,12,0,2,,,,,,,,,1,,,84,92
65580,note_on,12,0,1,,,,,,,,,0,,,84,92
65628,note_on,48,0,1,,,,,,,,,0,,,84,0
65628,note_on,48,0,2,,,,,,,,,1,,,84,0
65628,note_on,48,0,4,,,,,,,,,3,,,55,0
65628,note_on,48,0,3,,,,,,,,,2,,,81,0
65640,note_on,12,0,4,,,,,,,,,3,,,55,92
65640,note_on,12,0,2,,,,,,,,,1,,,86,92
65640,note_on,12,0,1,,,,,,,,,0,,,86,92
65640,note_on,12,0,3,,,,,,,,,2,,,82,92
65688,note_on,48,0,2,,,,,,,,,1,,,86,0
65688,note_on,48,0,3,,,,,,,,,2,,,82,0
65688,note_on,48,0,4,,,,,,,,,3,,,55,0
65688,note_on,48,0,1,,,,,,,,,0,,,86,0
65700,note_on,12,0,3,,,,,,,,,2,,,79,92
65700,note_on,12,0,4,,,,,,,,,3,,,55,92
65700,note_on,12,0,2,,,,,,,,,1,,,82,92
65700,note_on,12,0,1,,,,,,,,,0,,,82,92
65748,note_on,48,0,2,,,,,,,,,1,,,82,0
65748,note_on,48,0,1,,,,,,,,,0,,,82,0
65748,note_on,48,0,4,,,,,,,,,3,,,55,0
65748,note_on,48,0,3,,,,,,,,,2,,,79,0
65760,note_on,12,0,3,,,,,,,,,2,,,81,92
65760,note_on,12,0,4,,,,,,,,,3,,,62,92
65760,note_on,12,0,2,,,,,,,,,1,,,84,92
65760,note_on,12,0,1,,,,,,,,,0,,,84,92
65808,note_on,48,0,3,,,,,,,,,2,,,81,0
65808,note_on,48,0,4,,,,,,,,,3,,,62,0
65808,note_on,48,0,2,,,,,,,,,1,,,84,0
65808,note_on,48,0,1,,,,,,,,,0,,,84,0
65820,note_on,12,0,3,,,,,,,,,2,,,79,92
65820,note_on,12,0,4,,,,,,,,,3,,,62,92
65820,note_on,12,0,1,,,,,,,,,0,,,82,92
65820,note_on,12,0,2,,,,,,,,,1,,,82,92
65868,note_on,48,0,4,,,,,,,,,3,,,62,0
65868,note_on,48,0,1,,,,,,,,,0,,,82,0
65868,note_on,48,0,3,,,,,,,,,2,,,79,0
65868,note_on,48,0,2,,,,,,,,,1,,,82,0
65880,note_on,12,0,3,,,,,,,,,2,,,78,92
65880,note_on,12,0,4,,,,,,,,,3,,,62,92
65880,note_on,12,0,1,,,,,,,,,0,,,81,92
65880,note_on,12,0,2,,,,,,,,,1,,,81,92
65928,note_on,48,0,3,,,,,,,,,2,,,78,0
65928,note_on,48,0,4,,,,,,,,,3,,,62,0
65928,note_on,48,0,1,,,,,,,,,0,,,81,0
65928,note_on,48,0,2,,,,,,,,,1,,,81,0
65940,note_on,12,0,3,,,,,,,,,2,,,76,92
65940,note_on,12,0,4,,,,,,,,,3,,,62,92
65940,note_on,12,0,2,,,,,,,,,1,,,79,92
65940,note_on,12,0,1,,,,,,,,,0,,,79,92
65988,note_on,48,0,3,,,,,,,,,2,,,76,0
65988,note_on,48,0,4,,,,,,,,,3,,,62,0
65988,note_on,48,0,1,,,,,,,,,0,,,79,0
65988,note_on,48,0,2,,,,,,,,,1,,,79,0
66000,note_on,12,0,3,,,,,,,,,2,,,74,92
66000,note_on,12,0,4,,,,,,,,,3,,,62,92
66000,note_on,12,0,1,,,,,,,,,0,,,78,92
66000,note_on,12,0,2,,,,,,,,,1,,,78,92
66048,note_on,48,0,4,,,,,,,,,3,,,62,0
66048,note_on,48,0,3,,,,,,,,,2,,,74,0
66048,note_on,48,0,1,,,,,,,,,0,,,78,0
66048,note_on,48,0,2,,,,,,,,,1,,,78,0
66060,note_on,12,0,2,,,,,,,,,1,,,76,92
66060,note_on,12,0,3,,,,,,,,,2,,,72,92
66060,note_on,12,0,4,,,,,,,,,3,,,62,92
66060,note_on,12,0,1,,,,,,,,,0,,,76,92
66108,note_on,48,0,2,,,,,,,,,1,,,76,0
66108,note_on,48,0,4,,,,,,,,,3,,,62,0
66108,note_on,48,0,1,,,,,,,,,0,,,76,0
66108,note_on,48,0,3,,,,,,,,,2,,,72,0
66120,note_on,12,0,4,,,,,,,,,3,,,62,92
66120,note_on,12,0,2,,,,,,,,,1,,,74,92
66120,note_on,12,0,1,,,,,,,,,0,,,74,92
66120,note_on,12,0,3,,,,,,,,,2,,,70,92
66168,note_on,48,0,2,,,,,,,,,1,,,74,0
66168,note_on,48,0,3,,,,,,,,,2,,,70,0
66168,note_on,48,0,1,,,,,,,,,0,,,74,0
66168,note_on,48,0,4,,,,,,,,,3,,,62,0
66180,note_on,12,0,1,,,,,,,,,0,,,72,92
66180,note_on,12,0,4,,,,,,,,,3,,,62,92
66180,note_on,12,0,2,,,,,,,,,1,,,72,92
66180,note_on,12,0,3,,,,,,,,,2,,,69,92
66228,note_on,48,0,4,,,,,,,,,3,,,62,0
66228,note_on,48,0,2,,,,,,,,,1,,,72,0
66228,note_on,48,0,1,,,,,,,,,0,,,72,0
66228,note_on,48,0,3,,,,,,,,,2,,,69,0
66240,note_on,12,0,2,,,,,,,,,1,,,74,92
66240,note_on,12,0,4,,,,,,,,,3,,,67,92
66240,note_on,12,0,3,,,,,,,,,2,,,70,92
66240,note_on,2688,0,5,,,,,,,,,4,,,43,92
66240,note_on,12,0,1,,,,,,,,,0,,,74,92
66288,note_on,48,0,5,,,,,,,,,4,,,43,0
66300,note_on,12,0,5,,,,,,,,,4,,,43,92
66336,note_on,96,0,2,,,,,,,,,1,,,74,0
66336,note_on,96,0,4,,,,,,,,,3,,,67,0
66336,note_on,96,0,1,,,,,,,,,0,,,74,0
66336,note_on,96,0,3,,,,,,,,,2,,,70,0
66348,note_on,48,0,5,,,,,,,,,4,,,43,0
66360,note_on,24,0,4,,,,,,,,,3,,,55,92
66360,note_on,24,0,1,,,,,,,,,0,,,70,92
66360,note_on,24,0,2,,,,,,,,,1,,,70,92
66360,note_on,24,0,3,,,,,,,,,2,,,67,92
66360,note_on,12,0,5,,,,,,,,,4,,,43,92
66408,note_on,48,0,5,,,,,,,,,4,,,43,0
66420,note_on,12,0,5,,,,,,,,,4,,,43,92
66456,note_on,96,0,2,,,,,,,,,1,,,70,0
66456,note_on,96,0,4,,,,,,,,,3,,,55,0
66456,note_on,96,0,1,,,,,,,,,0,,,70,0
66456,note_on,96,0,3,,,,,,,,,2,,,67,0
66468,note_on,48,0,5,,,,,,,,,4,,,43,0
66480,note_on,12,0,5,,,,,,,,,4,,,43,92
66480,note_on,24,0,2,,,,,,,,,1,,,74,92
66480,note_on,24,0,1,,,,,,,,,0,,,74,92
66480,note_on,24,0,3,,,,,,,,,2,,,82,92
66480,note_on,24,0,4,,,,,,,,,3,,,67,92
66528,note_on,48,0,4,,,,,,,,,3,,,67,0
66528,note_on,48,0,3,,,,,,,,,2,,,82,0
66528,note_on,48,0,5,,,,,,,,,4,,,43,0
66540,note_on,12,0,5,,,,,,,,,4,,,43,92
66540,note_on,12,0,3,,,,,,,,,2,,,84,92
66540,note_on,12,0,4,,,,,,,,,3,,,69,92
66576,note_on,96,0,1,,,,,,,,,0,,,74,0
66576,note_on,96,0,2,,,,,,,,,1,,,74,0
66588,note_on,48,0,4,,,,,,,,,3,,,69,0
66588,note_on,48,0,5,,,,,,,,,4,,,43,0
66588,note_on,48,0,3,,,,,,,,,2,,,84,0
66600,note_on,12,0,4,,,,,,,,,3,,,70,92
66600,note_on,12,0,3,,,,,,,,,2,,,86,92
66600,note_on,12,0,5,,,,,,,,,4,,,43,92
66600,note_on,24,0,2,,,,,,,,,1,,,79,92
66600,note_on,24,0,1,,,,,,,,,0,,,79,92
66648,note_on,48,0,4,,,,,,,,,3,,,70,0
66648,note_on,48,0,3,,,,,,,,,2,,,86,0
66648,note_on,48,0,5,,,,,,,,,4,,,43,0
66660,note_on,12,0,3,,,,,,,,,2,,,82,92
66660,note_on,12,0,5,,,,,,,,,4,,,43,92
66660,note_on,12,0,4,,,,,,,,,3,,,67,92
66696,note_on,96,0,1,,,,,,,,,0,,,79,0
66696,note_on,96,0,2,,,,,,,,,1,,,79,0
66708,note_on,48,0,3,,,,,,,,,2,,,82,0
66708,note_on,48,0,5,,,,,,,,,4,,,43,0
66708,note_on,48,0,4,,,,,,,,,3,,,67,0
66720,note_on,24,0,1,,,,,,,,,0,,,78,92
66720,note_on,24,0,2,,,,,,,,,1,,,78,92
66720,note_on,12,0,5,,,,,,,,,4,,,50,92
66720,note_on,12,0,3,,,,,,,,,2,,,84,92
66720,note_on,12,0,4,,,,,,,,,3,,,69,92
66768,note_on,48,0,3,,,,,,,,,2,,,84,0
66768,note_on,48,0,2,,,,,,,,,1,,,78,0
66768,note_on,48,0,4,,,,,,,,,3,,,69,0
66768,note_on,48,0,1,,,,,,,,,0,,,78,0
66768,note_on,48,0,5,,,,,,,,,4,,,50,0
66780,note_on,12,0,2,,,,,,,,,1,,,78,92
66780,note_on,12,0,1,,,,,,,,,0,,,78,92
66780,note_on,12,0,3,,,,,,,,,2,,,82,92
66780,note_on,12,0,4,,,,,,,,,3,,,67,92
66780,note_on,12,0,5,,,,,,,,,4,,,50,92
66828,note_on,48,0,4,,,,,,,,,3,,,67,0
66828,note_on,48,0,5,,,,,,,,,4,,,50,0
66828,note_on,48,0,2,,,,,,,,,1,,,78,0
66828,note_on,48,0,3,,,,,,,,,2,,,82,0
66828,note_on,48,0,1,,,,,,,,,0,,,78,0
66840,note_on,12,0,1,,,,,,,,,0,,,78,92
66840,note_on,12,0,5,,,,,,,,,4,,,50,92
66840,note_on,12,0,2,,,,,,,,,1,,,78,92
66840,note_on,12,0,4,,,,,,,,,3,,,66,92
66840,note_on,12,0,3,,,,,,,,,2,,,81,92
66888,note_on,48,0,2,,,,,,,,,1,,,78,0
66888,note_on,48,0,4,,,,,,,,,3,,,66,0
66888,note_on,48,0,1,,,,,,,,,0,,,78,0
66888,note_on,48,0,3,,,,,,,,,2,,,81,0
66888,note_on,48,0,5,,,,,,,,,4,,,50,0
66900,note_on,12,0,3,,,,,,,,,2,,,79,92
66900,note_on,12,0,4,,,,,,,,,3,,,64,92
66900,note_on,12,0,2,,,,,,,,,1,,,78,92
66900,note_on,12,0,1,,,,,,,,,0,,,78,92
66900,note_on,12,0,5,,,,,,,,,4,,,50,92
66948,note_on,48,0,2,,,,,,,,,1,,,78,0
66948,note_on,48,0,1,,,,,,,,,0,,,78,0
66948,note_on,48,0,4,,,,,,,,,3,,,64,0
66948,note_on,48,0,3,,,,,,,,,2,,,79,0
66948,note_on,48,0,5,,,,,,,,,4,,,50,0
66960,note_on,12,0,1,,,,,,,,,0,,,78,92
66960,note_on,12,0,4,,,,,,,,,3,,,62,92
66960,note_on,12,0,5,,,,,,,,,4,,,50,92
66960,note_on,12,0,2,,,,,,,,,1,,,78,92
66960,note_on,12,0,3,,,,,,,,,2,,,78,92
67008,note_on,48,0,2,,,,,,,,,1,,,78,0
67008,note_on,48,0,4,,,,,,,,,3,,,62,0
67008,note_on,48,0,1,,,,,,,,,0,,,78,0
67008,note_on,48,0,3,,,,,,,,,2,,,78,0
67008,note_on,48,0,5,,,,,,,,,4,,,50,0
67020,note_on,12,0,1,,,,,,,,,0,,,78,92
67020,note_on,12,0,2,,,,,,,,,1,,,78,92
67020,note_on,12,0,3,,,,,,,,,2,,,76,92
67020,note_on,12,0,5,,,,,,,,,4,,,50,92
67020,note_on,12,0,4,,,,,,,,,3,,,60,92
67068,note_on,48,0,2,,,,,,,,,1,,,78,0
67068,note_on,48,0,3,,,,,,,,,2,,,76,0
67068,note_on,48,0,5,,,,,,,,,4,,,50,0
67068,note_on,48,0,1,,,,,,,,,0,,,78,0
67068,note_on,48,0,4,,,,,,,,,3,,,60,0
67080,note_on,12,0,5,,,,,,,,,4,,,50,92
67080,note_on,12,0,2,,,,,,,,,1,,,78,92
67080,note_on,12,0,1,,,,,,,,,0,,,78,92
67080,note_on,12,0,3,,,,,,,,,2,,,74,92
67080,note_on,12,0,4,,,,,,,,,3,,,58,92
67128,note_on,48,0,1,,,,,,,,,0,,,78,0
67128,note_on,48,0,3,,,,,,,,,2,,,74,0
67128,note_on,48,0,4,,,,,,,,,3,,,58,0
67128,note_on,48,0,5,,,,,,,,,4,,,50,0
67128,note_on,48,0,2,,,,,,,,,1,,,78,0
67140,note_on,12,0,5,,,,,,,,,4,,,50,92
67140,note_on,12,0,2,,,,,,,,,1,,,78,92
67140,note_on,12,0,1,,,,,,,,,0,,,78,92
67140,note_on,12,0,4,,,,,,,,,3,,,57,92
67140,note_on,12,0,3,,,,,,,,,2,,,72,92
67188,note_on,48,0,4,,,,,,,,,3,,,57,0
67188,note_on,48,0,5,,,,,,,,,4,,,50,0
67188,note_on,48,0,2,,,,,,,,,1,,,78,0
67188,note_on,48,0,3,,,,,,,,,2,,,72,0
67188,note_on,48,0,1,,,,,,,,,0,,,78,0
67200,note_on,12,0,3,,,,,,,,,2,,,74,92
67200,note_on,12,0,4,,,,,,,,,3,,,58,92
67200,note_on,12,0,1,,,,,,,,,0,,,79,92
67200,note_on,12,0,5,,,,,,,,,4,,,55,92
67200,note_on,12,0,2,,,,,,,,,1,,,79,92
67248,note_on,48,0,1,,,,,,,,,0,,,79,0
67260,note_on,12,0,1,,,,,,,,,0,,,74,92
67308,note_on,48,0,1,,,,,,,,,0,,,74,0
67320,note_on,12,0,1,,,,,,,,,0,,,79,92
67368,note_on,48,0,1,,,,,,,,,0,,,79,0
67380,note_on,12,0,1,,,,,,,,,0,,,82,92
67392,note_on,192,0,4,,,,,,,,,3,,,58,0
67392,note_on,192,0,3,,,,,,,,,2,,,74,0
67392,note_on,192,0,2,,,,,,,,,1,,,79,0
67392,note_on,192,0,5,,,,,,,,,4,,,55,0
67428,note_on,48,0,1,,,,,,,,,0,,,82,0
67440,note_on,12,0,1,,,,,,,,,0,,,79,92
67488,note_on,48,0,1,,,,,,,,,0,,,79,0
67500,note_on,12,0,1,,,,,,,,,0,,,74,92
67548,note_on,48,0,1,,,,,,,,,0,,,74,0
67560,note_on,12,0,1,,,,,,,,,0,,,79,92
67608,note_on,48,0,1,,,,,,,,,0,,,79,0
67620,note_on,12,0,1,,,,,,,,,0,,,82,92
67668,note_on,48,0,1,,,,,,,,,0,,,82,0
67680,note_on,288,0,2,,,,,,,,,1,,,74,92
67680,note_on,288,0,5,,,,,,,,,4,,,54,92
67680,note_on,12,0,1,,,,,,,,,0,,,74,92
67680,note_on,288,0,4,,,,,,,,,3,,,62,92
67680,note_on,288,0,3,,,,,,,,,2,,,81,92
67728,note_on,48,0,4,,,,,,,,,3,,,62,0
67728,note_on,48,0,1,,,,,,,,,0,,,74,0
67728,note_on,48,0,5,,,,,,,,,4,,,54,0
67728,note_on,48,0,3,,,,,,,,,2,,,81,0
67728,note_on,48,0,2,,,,,,,,,1,,,74,0
67740,note_on,12,0,1,,,,,,,,,0,,,74,92
67740,note_on,12,0,4,,,,,,,,,3,,,62,92
67740,note_on,12,0,3,,,,,,,,,2,,,81,92
67740,note_on,12,0,5,,,,,,,,,4,,,54,92
67740,note_on,12,0,2,,,,,,,,,1,,,74,92
67788,note_on,48,0,2,,,,,,,,,1,,,74,0
67788,note_on,48,0,3,,,,,,,,,2,,,81,0
67788,note_on,48,0,5,,,,,,,,,4,,,54,0
67788,note_on,48,0,4,,,,,,,,,3,,,62,0
67788,note_on,48,0,1,,,,,,,,,0,,,74,0
67800,note_on,12,0,5,,,,,,,,,4,,,54,92
67800,note_on,12,0,1,,,,,,,,,0,,,74,92
67800,note_on,12,0,4,,,,,,,,,3,,,62,92
67800,note_on,12,0,2,,,,,,,,,1,,,74,92
67800,note_on,12,0,3,,,,,,,,,2,,,81,92
67848,note_on,48,0,2,,,,,,,,,1,,,74,0
67848,note_on,48,0,1,,,,,,,,,0,,,74,0
67848,note_on,48,0,5,,,,,,,,,4,,,54,0
67848,note_on,48,0,3,,,,,,,,,2,,,81,0
67848,note_on,48,0,4,,,,,,,,,3,,,62,0
67860,note_on,12,0,1,,,,,,,,,0,,,74,92
67860,note_on,12,0,4,,,,,,,,,3,,,62,92
67860,note_on,12,0,3,,,,,,,,,2,,,81,92
67860,note_on,12,0,5,,,,,,,,,4,,,54,92
67860,note_on,12,0,2,,,,,,,,,1,,,74,92
67908,note_on,48,0,2,,,,,,,,,1,,,74,0
67908,note_on,48,0,4,,,,,,,,,3,,,62,0
67908,note_on,48,0,5,,,,,,,,,4,,,54,0
67908,note_on,48,0,1,,,,,,,,,0,,,74,0
67908,note_on,48,0,3,,,,,,,,,2,,,81,0
67920,note_on,12,0,3,,,,,,,,,2,,,81,92
67920,note_on,12,0,4,,,,,,,,,3,,,62,92
67920,note_on,12,0,5,,,,,,,,,4,,,54,92
67920,note_on,12,0,1,,,,,,,,,0,,,72,92
67920,note_on,12,0,2,,,,,,,,,1,,,72,92
67968,note_on,48,0,3,,,,,,,,,2,,,81,0
67968,note_on,48,0,4,,,,,,,,,3,,,62,0
67968,note_on,48,0,5,,,,,,,,,4,,,54,0
67968,note_on,48,0,1,,,,,,,,,0,,,72,0
67968,note_on,48,0,2,,,,,,,,,1,,,72,0
67980,note_on,12,0,4,,,,,,,,,3,,,62,92
67980,note_on,12,0,1,,,,,,,,,0,,,72,92
67980,note_on,12,0,2,,,,,,,,,1,,,72,92
67980,note_on,12,0,5,,,,,,,,,4,,,54,92
67980,note_on,12,0,3,,,,,,,,,2,,,81,92
68028,note_on,48,0,4,,,,,,,,,3,,,62,0
68028,note_on,48,0,3,,,,,,,,,2,,,81,0
68028,note_on,48,0,2,,,,,,,,,1,,,72,0
68028,note_on,48,0,5,,,,,,,,,4,,,54,0
68028,note_on,48,0,1,,,,,,,,,0,,,72,0
68040,note_on,12,0,3,,,,,,,,,2,,,81,92
68040,note_on,12,0,4,,,,,,,,,3,,,62,92
68040,note_on,12,0,5,,,,,,,,,4,,,54,92
68040,note_on,12,0,2,,,,,,,,,1,,,72,92
68040,note_on,12,0,1,,,,,,,,,0,,,72,92
68088,note_on,48,0,1,,,,,,,,,0,,,72,0
68088,note_on,48,0,2,,,,,,,,,1,,,72,0
68088,note_on,48,0,3,,,,,,,,,2,,,81,0
68088,note_on,48,0,4,,,,,,,,,3,,,62,0
68088,note_on,48,0,5,,,,,,,,,4,,,54,0
68100,note_on,12,0,3,,,,,,,,,2,,,81,92
68100,note_on,12,0,1,,,,,,,,,0,,,72,92
68100,note_on,12,0,2,,,,,,,,,1,,,72,92
68100,note_on,12,0,4,,,,,,,,,3,,,62,92
68100,note_on,12,0,5,,,,,,,,,4,,,54,92
68148,note_on,48,0,4,,,,,,,,,3,,,62,0
68148,note_on,48,0,5,,,,,,,,,4,,,54,0
68148,note_on,48,0,3,,,,,,,,,2,,,81,0
68148,note_on,48,0,1,,,,,,,,,0,,,72,0
68148,note_on,48,0,2,,,,,,,,,1,,,72,0
68160,note_on,12,0,2,,,,,,,,,1,,,71,92
68160,note_on,12,0,3,,,,,,,,,2,,,79,92
68160,note_on,12,0,5,,,,,,,,,4,,,53,92
68160,note_on,12,0,4,,,,,,,,,3,,,62,92
68160,note_on,12,0,1,,,,,,,,,0,,,71,92
68184,note_on,24,0,1,,,,,,,,,0,,,71,0
68190,note_on,6,0,1,,,,,,,,,0,,,74,92
68214,note_on,24,0,1,,,,,,,,,0,,,74,0
68220,note_on,6,0,1,,,,,,,,,0,,,72,92
68244,note_on,24,0,1,,,,,,,,,0,,,72,0
68250,note_on,6,0,1,,,,,,,,,0,,,71,92
68274,note_on,24,0,1,,,,,,,,,0,,,71,0
68280,note_on,6,0,1,,,,,,,,,0,,,72,92
68304,note_on,24,0,1,,,,,,,,,0,,,72,0
68310,note_on,6,0,1,,,,,,,,,0,,,74,92
68334,note_on,24,0,1,,,,,,,,,0,,,74,0
68340,note_on,6,0,1,,,,,,,,,0,,,75,92
68352,note_on,192,0,2,,,,,,,,,1,,,71,0
68352,note_on,192,0,3,,,,,,,,,2,,,79,0
68352,note_on,192,0,5,,,,,,,,,4,,,53,0
68352,note_on,192,0,4,,,,,,,,,3,,,62,0
68364,note_on,24,0,1,,,,,,,,,0,,,75,0
68370,note_on,6,0,1,,,,,,,,,0,,,77,92
68394,note_on,24,0,1,,,,,,,,,0,,,77,0
68400,note_on,6,0,1,,,,,,,,,0,,,79,92
68448,note_on,48,0,1,,,,,,,,,0,,,79,0
68460,note_on,12,0,1,,,,,,,,,0,,,77,92
68508,note_on,48,0,1,,,,,,,,,0,,,77,0
68520,note_on,12,0,1,,,,,,,,,0,,,75,92
68568,note_on,48,0,1,,,,,,,,,0,,,75,0
68580,note_on,12,0,1,,,,,,,,,0,,,74,92
68628,note_on,48,0,1,,,,,,,,,0,,,74,0
68640,note_on,288,0,5,,,,,,,,,4,,,52,92
68640,note_on,288,0,4,,,,,,,,,3,,,60,92
68640,note_on,12,0,1,,,,,,,,,0,,,72,92
68640,note_on,288,0,3,,,,,,,,,2,,,79,92
68640,note_on,288,0,2,,,,,,,,,1,,,72,92
68688,note_on,48,0,1,,,,,,,,,0,,,72,0
68688,note_on,48,0,5,,,,,,,,,4,,,52,0
68688,note_on,48,0,4,,,,,,,,,3,,,60,0
68688,note_on,48,0,3,,,,,,,,,2,,,79,0
68688,note_on,48,0,2,,,,,,,,,1,,,72,0
68700,note_on,12,0,4,,,,,,,,,3,,,60,92
68700,note_on,12,0,3,,,,,,,,,2,,,79,92
68700,note_on,12,0,1,,,,,,,,,0,,,72,92
68700,note_on,12,0,2,,,,,,,,,1,,,72,92
68700,note_on,12,0,5,,,,,,,,,4,,,52,92
68748,note_on,48,0,5,,,,,,,,,4,,,52,0
68748,note_on,48,0,4,,,,,,,,,3,,,60,0
68748,note_on,48,0,3,,,,,,,,,2,,,79,0
68748,note_on,48,0,2,,,,,,,,,1,,,72,0
68748,note_on,48,0,1,,,,,,,,,0,,,72,0
68760,note_on,12,0,2,,,,,,,,,1,,,72,92
68760,note_on,12,0,4,,,,,,,,,3,,,60,92
68760,note_on,12,0,3,,,,,,,,,2,,,79,92
68760,note_on,12,0,5,,,,,,,,,4,,,52,92
68760,note_on,12,0,1,,,,,,,,,0,,,72,92
68808,note_on,48,0,2,,,,,,,,,1,,,72,0
68808,note_on,48,0,4,,,,,,,,,3,,,60,0
68808,note_on,48,0,3,,,,,,,,,2,,,79,0
68808,note_on,48,0,5,,,,,,,,,4,,,52,0
68808,note_on,48,0,1,,,,,,,,,0,,,72,0
68820,note_on,12,0,4,,,,,,,,,3,,,60,92
68820,note_on,12,0,3,,,,,,,,,2,,,79,92
68820,note_on,12,0,5,,,,,,,,,4,,,52,92
68820,note_on,12,0,1,,,,,,,,,0,,,72,92
68820,note_on,12,0,2,,,,,,,,,1,,,72,92
68868,note_on,48,0,4,,,,,,,,,3,,,60,0
68868,note_on,48,0,3,,,,,,,,,2,,,79,0
68868,note_on,48,0,5,,,,,,,,,4,,,52,0
68868,note_on,48,0,1,,,,,,,,,0,,,72,0
68868,note_on,48,0,2,,,,,,,,,1,,,72,0
68880,note_on,12,0,5,,,,,,,,,4,,,52,92
68880,note_on,12,0,2,,,,,,,,,1,,,70,92
68880,note_on,12,0,1,,,,,,,,,0,,,70,92
68880,note_on,12,0,4,,,,,,,,,3,,,60,92
68880,note_on,12,0,3,,,,,,,,,2,,,79,92
68928,note_on,48,0,5,,,,,,,,,4,,,52,0
68928,note_on,48,0,2,,,,,,,,,1,,,70,0
68928,note_on,48,0,1,,,,,,,,,0,,,70,0
68928,note_on,48,0,4,,,,,,,,,3,,,60,0
68928,note_on,48,0,3,,,,,,,,,2,,,79,0
68940,note_on,12,0,2,,,,,,,,,1,,,70,92
68940,note_on,12,0,4,,,,,,,,,3,,,60,92
68940,note_on,12,0,1,,,,,,,,,0,,,70,92
68940,note_on,12,0,3,,,,,,,,,2,,,79,92
68940,note_on,12,0,5,,,,,,,,,4,,,52,92
68988,note_on,48,0,5,,,,,,,,,4,,,52,0
68988,note_on,48,0,3,,,,,,,,,2,,,79,0
68988,note_on,48,0,2,,,,,,,,,1,,,70,0
68988,note_on,48,0,1,,,,,,,,,0,,,70,0
68988,note_on,48,0,4,,,,,,,,,3,,,60,0
69000,note_on,12,0,1,,,,,,,,,0,,,70,92
69000,note_on,12,0,3,,,,,,,,,2,,,79,92
69000,note_on,12,0,2,,,,,,,,,1,,,70,92
69000,note_on,12,0,5,,,,,,,,,4,,,52,92
69000,note_on,12,0,4,,,,,,,,,3,,,60,92
69048,note_on,48,0,3,,,,,,,,,2,,,79,0
69048,note_on,48,0,1,,,,,,,,,0,,,70,0
69048,note_on,48,0,5,,,,,,,,,4,,,52,0
69048,note_on,48,0,2,,,,,,,,,1,,,70,0
69048,note_on,48,0,4,,,,,,,,,3,,,60,0
69060,note_on,12,0,5,,,,,,,,,4,,,52,92
69060,note_on,12,0,2,,,,,,,,,1,,,70,92
69060,note_on,12,0,4,,,,,,,,,3,,,60,92
69060,note_on,12,0,1,,,,,,,,,0,,,70,92
69060,note_on,12,0,3,,,,,,,,,2,,,79,92
69108,note_on,48,0,3,,,,,,,,,2,,,79,0
69108,note_on,48,0,5,,,,,,,,,4,,,52,0
69108,note_on,48,0,4,,,,,,,,,3,,,60,0
69108,note_on,48,0,1,,,,,,,,,0,,,70,0
69108,note_on,48,0,2,,,,,,,,,1,,,70,0
69120,note_on,12,0,2,,,,,,,,,1,,,69,92
69120,note_on,12,0,1,,,,,,,,,0,,,69,92
69120,note_on,12,0,3,,,,,,,,,2,,,77,92
69120,note_on,12,0,5,,,,,,,,,4,,,51,92
69120,note_on,12,0,4,,,,,,,,,3,,,60,92
69144,note_on,24,0,1,,,,,,,,,0,,,69,0
69150,note_on,6,0,1,,,,,,,,,0,,,72,92
69174,note_on,24,0,1,,,,,,,,,0,,,72,0
69180,note_on,6,0,1,,,,,,,,,0,,,70,92
69204,note_on,24,0,1,,,,,,,,,0,,,70,0
69210,note_on,6,0,1,,,,,,,,,0,,,69,92
69234,note_on,24,0,1,,,,,,,,,0,,,69,0
69240,note_on,6,0,1,,,,,,,,,0,,,70,92
69264,note_on,24,0,1,,,,,,,,,0,,,70,0
69270,note_on,6,0,1,,,,,,,,,0,,,72,92
69294,note_on,24,0,1,,,,,,,,,0,,,72,0
69300,note_on,6,0,1,,,,,,,,,0,,,74,92
69312,note_on,192,0,3,,,,,,,,,2,,,77,0
69312,note_on,192,0,5,,,,,,,,,4,,,51,0
69312,note_on,192,0,2,,,,,,,,,1,,,69,0
69312,note_on,192,0,4,,,,,,,,,3,,,60,0
69324,note_on,24,0,1,,,,,,,,,0,,,74,0
69330,note_on,6,0,1,,,,,,,,,0,,,75,92
69354,note_on,24,0,1,,,,,,,,,0,,,75,0
69360,note_on,6,0,1,,,,,,,,,0,,,77,92
69408,note_on,48,0,1,,,,,,,,,0,,,77,0
69420,note_on,12,0,1,,,,,,,,,0,,,75,92
69468,note_on,48,0,1,,,,,,,,,0,,,75,0
69480,note_on,12,0,1,,,,,,,,,0,,,74,92
69528,note_on,48,0,1,,,,,,,,,0,,,74,0
69540,note_on,12,0,1,,,,,,,,,0,,,72,92
69588,note_on,48,0,1,,,,,,,,,0,,,72,0
69600,note_on,288,0,4,,,,,,,,,3,,,58,92
69600,note_on,12,0,1,,,,,,,,,0,,,70,92
69600,note_on,288,0,3,,,,,,,,,2,,,77,92
69600,note_on,288,0,5,,,,,,,,,4,,,50,92
69600,note_on,288,0,2,,,,,,,,,1,,,70,92
69648,note_on,48,0,5,,,,,,,,,4,,,50,0
69648,note_on,48,0,3,,,,,,,,,2,,,77,0
69648,note_on,48,0,2,,,,,,,,,1,,,70,0
69648,note_on,48,0,1,,,,,,,,,0,,,70,0
69648,note_on,48,0,4,,,,,,,,,3,,,58,0
69660,note_on,12,0,4,,,,,,,,,3,,,58,92
69660,note_on,12,0,1,,,,,,,,,0,,,70,92
69660,note_on,12,0,2,,,,,,,,,1,,,70,92
69660,note_on,12,0,3,,,,,,,,,2,,,77,92
69660,note_on,12,0,5,,,,,,,,,4,,,50,92
69708,note_on,48,0,1,,,,,,,,,0,,,70,0
69708,note_on,48,0,4,,,,,,,,,3,,,58,0
69708,note_on,48,0,2,,,,,,,,,1,,,70,0
69708,note_on,48,0,3,,,,,,,,,2,,,77,0
69708,note_on,48,0,5,,,,,,,,,4,,,50,0
69720,note_on,12,0,2,,,,,,,,,1,,,70,92
69720,note_on,12,0,4,,,,,,,,,3,,,58,92
69720,note_on,12,0,5,,,,,,,,,4,,,50,92
69720,note_on,12,0,3,,,,,,,,,2,,,77,92
69720,note_on,12,0,1,,,,,,,,,0,,,70,92
69768,note_on,48,0,4,,,,,,,,,3,,,58,0
69768,note_on,48,0,3,,,,,,,,,2,,,77,0
69768,note_on,48,0,2,,,,,,,,,1,,,70,0
69768,note_on,48,0,5,,,,,,,,,4,,,50,0
69768,note_on,48,0,1,,,,,,,,,0,,,70,0
69780,note_on,12,0,5,,,,,,,,,4,,,50,92
69780,note_on,12,0,1,,,,,,,,,0,,,70,92
69780,note_on,12,0,4,,,,,,,,,3,,,58,92
69780,note_on,12,0,3,,,,,,,,,2,,,77,92
69780,note_on,12,0,2,,,,,,,,,1,,,70,92
69828,note_on,48,0,4,,,,,,,,,3,,,58,0
69828,note_on,48,0,2,,,,,,,,,1,,,70,0
69828,note_on,48,0,1,,,,,,,,,0,,,70,0
69828,note_on,48,0,5,,,,,,,,,4,,,50,0
69828,note_on,48,0,3,,,,,,,,,2,,,77,0
69840,note_on,12,0,2,,,,,,,,,1,,,68,92
69840,note_on,12,0,4,,,,,,,,,3,,,58,92
69840,note_on,12,0,1,,,,,,,,,0,,,68,92
69840,note_on,12,0,5,,,,,,,,,4,,,50,92
69840,note_on,12,0,3,,,,,,,,,2,,,77,92
69888,note_on,48,0,1,,,,,,,,,0,,,68,0
69888,note_on,48,0,4,,,,,,,,,3,,,58,0
69888,note_on,48,0,5,,,,,,,,,4,,,50,0
69888,note_on,48,0,2,,,,,,,,,1,,,68,0
69888,note_on,48,0,3,,,,,,,,,2,,,77,0
69900,note_on,12,0,1,,,,,,,,,0,,,68,92
69900,note_on,12,0,2,,,,,,,,,1,,,68,92
69900,note_on,12,0,5,,,,,,,,,4,,,50,92
69900,note_on,12,0,4,,,,,,,,,3,,,58,92
69900,note_on,12,0,3,,,,,,,,,2,,,77,92
69948,note_on,48,0,5,,,,,,,,,4,,,50,0
69948,note_on,48,0,2,,,,,,,,,1,,,68,0
69948,note_on,48,0,4,,,,,,,,,3,,,58,0
69948,note_on,48,0,1,,,,,,,,,0,,,68,0
69948,note_on,48,0,3,,,,,,,,,2,,,77,0
69960,note_on,12,0,4,,,,,,,,,3,,,58,92
69960,note_on,12,0,1,,,,,,,,,0,,,68,92
69960,note_on,12,0,3,,,,,,,,,2,,,77,92
69960,note_on,12,0,5,,,,,,,,,4,,,50,92
69960,note_on,12,0,2,,,,,,,,,1,,,68,92
70008,note_on,48,0,1,,,,,,,,,0,,,68,0
70008,note_on,48,0,5,,,,,,,,,4,,,50,0
70008,note_on,48,0,2,,,,,,,,,1,,,68,0
70008,note_on,48,0,3,,,,,,,,,2,,,77,0
70008,note_on,48,0,4,,,,,,,,,3,,,58,0
70020,note_on,12,0,2,,,,,,,,,1,,,68,92
70020,note_on,12,0,1,,,,,,,,,0,,,68,92
70020,note_on,12,0,4,,,,,,,,,3,,,58,92
70020,note_on,12,0,3,,,,,,,,,2,,,77,92
70020,note_on,12,0,5,,,,,,,,,4,,,50,92
70068,note_on,48,0,3,,,,,,,,,2,,,77,0
70068,note_on,48,0,1,,,,,,,,,0,,,68,0
70068,note_on,48,0,5,,,,,,,,,4,,,50,0
70068,note_on,48,0,2,,,,,,,,,1,,,68,0
70068,note_on,48,0,4,,,,,,,,,3,,,58,0
70080,note_on,12,0,5,,,,,,,,,4,,,51,92
70080,note_on,12,0,2,,,,,,,,,1,,,67,92
70080,note_on,12,0,3,,,,,,,,,2,,,75,92
70080,note_on,12,0,4,,,,,,,,,3,,,58,92
70080,note_on,12,0,1,,,,,,,,,0,,,67,92
70128,note_on,48,0,1,,,,,,,,,0,,,67,0
70128,note_on,48,0,2,,,,,,,,,1,,,67,0
70140,note_on,12,0,1,,,,,,,,,0,,,63,92
70140,note_on,12,0,2,,,,,,,,,1,,,63,92
70176,note_on,96,0,5,,,,,,,,,4,,,51,0
70176,note_on,96,0,4,,,,,,,,,3,,,58,0
70188,note_on,48,0,1,,,,,,,,,0,,,63,0
70188,note_on,48,0,2,,,,,,,,,1,,,63,0
70200,note_on,24,0,5,,,,,,,,,4,,,51,92
70200,note_on,24,0,4,,,,,,,,,3,,,55,92
70200,note_on,12,0,1,,,,,,,,,0,,,63,92
70200,note_on,12,0,2,,,,,,,,,1,,,63,92
70248,note_on,48,0,2,,,,,,,,,1,,,63,0
70248,note_on,48,0,1,,,,,,,,,0,,,63,0
70260,note_on,12,0,1,,,,,,,,,0,,,63,92
70260,note_on,12,0,2,,,,,,,,,1,,,63,92
70272,note_on,192,0,3,,,,,,,,,2,,,75,0
70296,note_on,96,0,4,,,,,,,,,3,,,55,0
70296,note_on,96,0,5,,,,,,,,,4,,,51,0
70308,note_on,48,0,1,,,,,,,,,0,,,63,0
70308,note_on,48,0,2,,,,,,,,,1,,,63,0
70320,note_on,12,0,2,,,,,,,,,1,,,63,92
70320,note_on,24,0,4,,,,,,,,,3,,,55,92
70320,note_on,12,0,1,,,,,,,,,0,,,63,92
70320,note_on,24,0,5,,,,,,,,,4,,,51,92
70368,note_on,48,0,2,,,,,,,,,1,,,63,0
70368,note_on,48,0,1,,,,,,,,,0,,,63,0
70380,note_on,12,0,2,,,,,,,,,1,,,63,92
70380,note_on,12,0,1,,,,,,,,,0,,,63,92
70416,note_on,96,0,4,,,,,,,,,3,,,55,0
70416,note_on,96,0,5,,,,,,,,,4,,,51,0
70428,note_on,48,0,1,,,,,,,,,0,,,63,0
70428,note_on,48,0,2,,,,,,,,,1,,,63,0
70440,note_on,12,0,1,,,,,,,,,0,,,63,92
70440,note_on,24,0,5,,,,,,,,,4,,,51,92
70440,note_on,24,0,4,,,,,,,,,3,,,55,92
70440,note_on,12,0,2,,,,,,,,,1,,,63,92
70488,note_on,48,0,2,,,,,,,,,1,,,63,0
70488,note_on,48,0,1,,,,,,,,,0,,,63,0
70500,note_on,12,0,2,,,,,,,,,1,,,63,92
70500,note_on,12,0,1,,,,,,,,,0,,,63,92
70536,note_on,96,0,4,,,,,,,,,3,,,55,0
70536,note_on,96,0,5,,,,,,,,,4,,,51,0
70548,note_on,48,0,2,,,,,,,,,1,,,63,0
70548,note_on,48,0,1,,,,,,,,,0,,,63,0
70560,note_on,24,0,5,,,,,,,,,4,,,50,92
70560,note_on,12,0,2,,,,,,,,,1,,,70,92
70560,note_on,24,0,4,,,,,,,,,3,,,65,92
70560,note_on,12,0,1,,,,,,,,,0,,,70,92
70608,note_on,48,0,2,,,,,,,,,1,,,70,0
70608,note_on,48,0,1,,,,,,,,,0,,,70,0
70620,note_on,12,0,1,,,,,,,,,0,,,70,92
70620,note_on,12,0,2,,,,,,,,,1,,,70,92
70656,note_on,96,0,4,,,,,,,,,3,,,65,0
70656,note_on,96,0,5,,,,,,,,,4,,,50,0
70668,note_on,48,0,1,,,,,,,,,0,,,70,0
70668,note_on,48,0,2,,,,,,,,,1,,,70,0
70680,note_on,24,0,5,,,,,,,,,4,,,50,92
70680,note_on,24,0,4,,,,,,,,,3,,,65,92
70680,note_on,12,0,1,,,,,,,,,0,,,70,92
70680,note_on,12,0,2,,,,,,,,,1,,,70,92
70728,note_on,48,0,1,,,,,,,,,0,,,70,0
70728,note_on,48,0,2,,,,,,,,,1,,,70,0
70740,note_on,12,0,1,,,,,,,,,0,,,70,92
70740,note_on,12,0,2,,,,,,,,,1,,,70,92
70776,note_on,96,0,5,,,,,,,,,4,,,50,0
70776,note_on,96,0,4,,,,,,,,,3,,,65,0
70788,note_on,48,0,2,,,,,,,,,1,,,70,0
70788,note_on,48,0,1,,,,,,,,,0,,,70,0
70800,note_on,24,0,5,,,,,,,,,4,,,50,92
70800,note_on,12,0,2,,,,,,,,,1,,,70,92
70800,note_on,12,0,1,,,,,,,,,0,,,70,92
70800,note_on,24,0,4,,,,,,,,,3,,,65,92
70848,note_on,48,0,2,,,,,,,,,1,,,70,0
70848,note_on,48,0,1,,,,,,,,,0,,,70,0
70860,note_on,12,0,2,,,,,,,,,1,,,70,92
70860,note_on,12,0,1,,,,,,,,,0,,,70,92
70896,note_on,96,0,5,,,,,,,,,4,,,50,0
70896,note_on,96,0,4,,,,,,,,,3,,,65,0
70908,note_on,48,0,1,,,,,,,,,0,,,70,0
70908,note_on,48,0,2,,,,,,,,,1,,,70,0
70920,note_on,24,0,4,,,,,,,,,3,,,65,92
70920,note_on,24,0,5,,,,,,,,,4,,,50,92
70920,note_on,12,0,1,,,,,,,,,0,,,70,92
70920,note_on,12,0,2,,,,,,,,,1,,,70,92
70968,note_on,48,0,1,,,,,,,,,0,,,70,0
70968,note_on,48,0,2,,,,,,,,,1,,,70,0
70980,note_on,12,0,1,,,,,,,,,0,,,70,92
70980,note_on,12,0,2,,,,,,,,,1,,,70,92
71016,note_on,96,0,4,,,,,,,,,3,,,65,0
71016,note_on,96,0,5,,,,,,,,,4,,,50,0
71028,note_on,48,0,2,,,,,,,,,1,,,70,0
71028,note_on,48,0,1,,,,,,,,,0,,,70,0
71040,note_on,24,0,5,,,,,,,,,4,,,48,92
71040,note_on,12,0,2,,,,,,,,,1,,,75,92
71040,note_on,24,0,4,,,,,,,,,3,,,63,92
71040,note_on,12,0,1,,,,,,,,,0,,,75,92
71040,note_on,768,0,3,,,,,,,,,2,,,63,92
71088,note_on,48,0,3,,,,,,,,,2,,,63,0
71100,note_on,12,0,3,,,,,,,,,2,,,63,92
71136,note_on,96,0,1,,,,,,,,,0,,,75,0
71136,note_on,96,0,4,,,,,,,,,3,,,63,0
71136,note_on,96,0,2,,,,,,,,,1,,,75,0
71136,note_on,96,0,5,,,,,,,,,4,,,48,0
71148,note_on,48,0,3,,,,,,,,,2,,,63,0
71160,note_on,12,0,3,,,,,,,,,2,,,63,92
71160,note_on,24,0,2,,,,,,,,,1,,,63,92
71160,note_on,24,0,1,,,,,,,,,0,,,63,92
71160,note_on,24,0,5,,,,,,,,,4,,,48,92
71160,note_on,24,0,4,,,,,,,,,3,,,63,92
71208,note_on,48,0,3,,,,,,,,,2,,,63,0
71220,note_on,12,0,3,,,,,,,,,2,,,63,92
71256,note_on,96,0,1,,,,,,,,,0,,,63,0
71256,note_on,96,0,5,,,,,,,,,4,,,48,0
71256,note_on,96,0,2,,,,,,,,,1,,,63,0
71256,note_on,96,0,4,,,,,,,,,3,,,63,0
71268,note_on,48,0,3,,,,,,,,,2,,,63,0
71280,note_on,24,0,1,,,,,,,,,0,,,75,92
71280,note_on,24,0,2,,,,,,,,,1,,,75,92
71280,note_on,24,0,4,,,,,,,,,3,,,63,92
71280,note_on,12,0,3,,,,,,,,,2,,,63,92
71280,note_on,24,0,5,,,,,,,,,4,,,48,92
71328,note_on,48,0,1,,,,,,,,,0,,,75,0
71328,note_on,48,0,3,,,,,,,,,2,,,63,0
71328,note_on,48,0,2,,,,,,,,,1,,,75,0
71340,note_on,12,0,2,,,,,,,,,1,,,77,92
71340,note_on,12,0,3,,,,,,,,,2,,,63,92
71340,note_on,12,0,1,,,,,,,,,0,,,77,92
71376,note_on,96,0,4,,,,,,,,,3,,,63,0
71376,note_on,96,0,5,,,,,,,,,4,,,48,0
71388,note_on,48,0,2,,,,,,,,,1,,,77,0
71388,note_on,48,0,1,,,,,,,,,0,,,77,0
71388,note_on,48,0,3,,,,,,,,,2,,,63,0
71400,note_on,12,0,3,,,,,,,,,2,,,63,92
71400,note_on,24,0,4,,,,,,,,,3,,,63,92
71400,note_on,12,0,1,,,,,,,,,0,,,79,92
71400,note_on,24,0,5,,,,,,,,,4,,,46,92
71400,note_on,12,0,2,,,,,,,,,1,,,79,92
71448,note_on,48,0,3,,,,,,,,,2,,,63,0
71448,note_on,48,0,2,,,,,,,,,1,,,79,0
71448,note_on,48,0,1,,,,,,,,,0,,,79,0
71460,note_on,12,0,2,,,,,,,,,1,,,75,92
71460,note_on,12,0,3,,,,,,,,,2,,,63,92
71460,note_on,12,0,1,,,,,,,,,0,,,75,92
71496,note_on,96,0,4,,,,,,,,,3,,,63,0
71496,note_on,96,0,5,,,,,,,,,4,,,46,0
71508,note_on,48,0,2,,,,,,,,,1,,,75,0
71508,note_on,48,0,3,,,,,,,,,2,,,63,0
71508,note_on,48,0,1,,,,,,,,,0,,,75,0
71520,note_on,12,0,2,,,,,,,,,1,,,77,92
71520,note_on,12,0,3,,,,,,,,,2,,,70,92
71520,note_on,24,0,5,,,,,,,,,4,,,50,92
71520,note_on,12,0,1,,,,,,,,,0,,,77,92
71520,note_on,24,0,4,,,,,,,,,3,,,62,92
71568,note_on,48,0,1,,,,,,,,,0,,,77,0
71568,note_on,48,0,3,,,,,,,,,2,,,70,0
71568,note_on,48,0,2,,,,,,,,,1,,,77,0
71580,note_on,12,0,2,,,,,,,,,1,,,75,92
71580,note_on,12,0,3,,,,,,,,,2,,,70,92
71580,note_on,12,0,1,,,,,,,,,0,,,75,92
71616,note_on,96,0,4,,,,,,,,,3,,,62,0
71616,note_on,96,0,5,,,,,,,,,4,,,50,0
71628,note_on,48,0,3,,,,,,,,,2,,,70,0
71628,note_on,48,0,2,,,,,,,,,1,,,75,0
71628,note_on,48,0,1,,,,,,,,,0,,,75,0
71640,note_on,24,0,4,,,,,,,,,3,,,58,92
71640,note_on,12,0,1,,,,,,,,,0,,,74,92
71640,note_on,12,0,2,,,,,,,,,1,,,74,92
71640,note_on,24,0,5,,,,,,,,,4,,,50,92
71640,note_on,12,0,3,,,,,,,,,2,,,70,92
71688,note_on,48,0,2,,,,,,,,,1,,,74,0
71688,note_on,48,0,3,,,,,,,,,2,,,70,0
71688,note_on,48,0,1,,,,,,,,,0,,,74,0
71700,note_on,12,0,2,,,,,,,,,1,,,72,92
71700,note_on,12,0,1,,,,,,,,,0,,,72,92
71700,note_on,12,0,3,,,,,,,,,2,,,70,92
71736,note_on,96,0,5,,,,,,,,,4,,,50,0
71736,note_on,96,0,4,,,,,,,,,3,,,58,0
71748,note_on,48,0,3,,,,,,,,,2,,,70,0
71748,note_on,48,0,1,,,,,,,,,0,,,72,0
71748,note_on,48,0,2,,,,,,,,,1,,,72,0
71760,note_on,24,0,5,,,,,,,,,4,,,50,92
71760,note_on,12,0,3,,,,,,,,,2,,,70,92
71760,note_on,12,0,2,,,,,,,,,1,,,70,92
71760,note_on,12,0,1,,,,,,,,,0,,,70,92
71808,note_on,48,0,1,,,,,,,,,0,,,70,0
71808,note_on,48,0,2,,,,,,,,,1,,,70,0
71808,note_on,48,0,3,,,,,,,,,2,,,70,0
71820,note_on,12,0,2,,,,,,,,,1,,,68,92
71820,note_on,12,0,1,,,,,,,,,0,,,68,92
71820,note_on,12,0,3,,,,,,,,,2,,,70,92
71856,note_on,96,0,5,,,,,,,,,4,,,50,0
71868,note_on,48,0,1,,,,,,,,,0,,,68,0
71868,note_on,48,0,3,,,,,,,,,2,,,70,0
71868,note_on,48,0,2,,,,,,,,,1,,,68,0
71880,note_on,12,0,3,,,,,,,,,2,,,70,92
71880,note_on,12,0,1,,,,,,,,,0,,,67,92
71880,note_on,24,0,5,,,,,,,,,4,,,50,92
71880,note_on,12,0,2,,,,,,,,,1,,,67,92
71928,note_on,48,0,2,,,,,,,,,1,,,67,0
71928,note_on,48,0,1,,,,,,,,,0,,,67,0
71928,note_on,48,0,3,,,,,,,,,2,,,70,0
71940,note_on,12,0,2,,,,,,,,,1,,,65,92
71940,note_on,12,0,1,,,,,,,,,0,,,65,92
71940,note_on,12,0,3,,,,,,,,,2,,,70,92
71976,note_on,96,0,5,,,,,,,,,4,,,50,0
71988,note_on,48,0,3,,,,,,,,,2,,,70,0
71988,note_on,48,0,1,,,,,,,,,0,,,65,0
71988,note_on,48,0,2,,,,,,,,,1,,,65,0
72000,note_on,12,0,3,,,,,,,,,2,,,75,92
72000,note_on,12,0,2,,,,,,,,,1,,,67,92
72000,note_on,24,0,5,,,,,,,,,4,,,39,92
72000,note_on,264,0,4,,,,,,,,,3,,,51,92
72000,note_on,12,0,1,,,,,,,,,0,,,67,92
72048,note_on,48,0,4,,,,,,,,,3,,,51,0
72060,note_on,12,0,4,,,,,,,,,3,,,51,92
72096,note_on,96,0,3,,,,,,,,,2,,,75,0
72096,note_on,96,0,2,,,,,,,,,1,,,67,0
72096,note_on,96,0,1,,,,,,,,,0,,,67,0
72108,note_on,48,0,4,,,,,,,,,3,,,51,0
72120,note_on,24,0,1,,,,,,,,,0,,,63,92
72120,note_on,12,0,4,,,,,,,,,3,,,51,92
72120,note_on,24,0,2,,,,,,,,,1,,,63,92
72120,note_on,24,0,3,,,,,,,,,2,,,63,92
72168,note_on,48,0,4,,,,,,,,,3,,,51,0
72180,note_on,12,0,4,,,,,,,,,3,,,51,92
72192,note_on,192,0,5,,,,,,,,,4,,,39,0
72216,note_on,96,0,1,,,,,,,,,0,,,63,0
72216,note_on,96,0,2,,,,,,,,,1,,,63,0
72216,note_on,96,0,3,,,,,,,,,2,,,63,0
72228,note_on,48,0,4,,,,,,,,,3,,,51,0
72240,note_on,12,0,4,,,,,,,,,3,,,51,92
72240,note_on,24,0,1,,,,,,,,,0,,,79,92
72240,note_on,24,0,3,,,,,,,,,2,,,75,92
72240,note_on,24,0,2,,,,,,,,,1,,,79,92
72288,note_on,48,0,4,,,,,,,,,3,,,51,0
72288,note_on,48,0,3,,,,,,,,,2,,,75,0
72288,note_on,48,0,2,,,,,,,,,1,,,79,0
72288,note_on,48,0,1,,,,,,,,,0,,,79,0
72300,note_on,12,0,2,,,,,,,,,1,,,80,92
72300,note_on,12,0,1,,,,,,,,,0,,,80,92
72300,note_on,12,0,4,,,,,,,,,3,,,51,92
72300,note_on,12,0,3,,,,,,,,,2,,,77,92
72348,note_on,48,0,4,,,,,,,,,3,,,51,0
72348,note_on,48,0,2,,,,,,,,,1,,,80,0
72348,note_on,48,0,1,,,,,,,,,0,,,80,0
72348,note_on,48,0,3,,,,,,,,,2,,,77,0
72360,note_on,12,0,3,,,,,,,,,2,,,79,92
72360,note_on,12,0,4,,,,,,,,,3,,,51,92
72360,note_on,12,0,2,,,,,,,,,1,,,82,92
72360,note_on,12,0,1,,,,,,,,,0,,,82,92
72408,note_on,48,0,3,,,,,,,,,2,,,79,0
72408,note_on,48,0,1,,,,,,,,,0,,,82,0
72408,note_on,48,0,4,,,,,,,,,3,,,51,0
72408,note_on,48,0,2,,,,,,,,,1,,,82,0
72420,note_on,12,0,2,,,,,,,,,1,,,79,92
72420,note_on,12,0,3,,,,,,,,,2,,,75,92
72420,note_on,12,0,4,,,,,,,,,3,,,51,92
72420,note_on,12,0,1,,,,,,,,,0,,,79,92
72468,note_on,48,0,2,,,,,,,,,1,,,79,0
72468,note_on,48,0,4,,,,,,,,,3,,,51,0
72468,note_on,48,0,3,,,,,,,,,2,,,75,0
72468,note_on,48,0,1,,,,,,,,,0,,,79,0
72480,note_on,12,0,2,,,,,,,,,1,,,80,92
72480,note_on,12,0,4,,,,,,,,,3,,,58,92
72480,note_on,12,0,1,,,,,,,,,0,,,80,92
72480,note_on,12,0,3,,,,,,,,,2,,,77,92
72528,note_on,48,0,1,,,,,,,,,0,,,80,0
72528,note_on,48,0,3,,,,,,,,,2,,,77,0
72528,note_on,48,0,2,,,,,,,,,1,,,80,0
72528,note_on,48,0,4,,,,,,,,,3,,,58,0
72540,note_on,12,0,3,,,,,,,,,2,,,75,92
72540,note_on,12,0,4,,,,,,,,,3,,,58,92
72540,note_on,12,0,1,,,,,,,,,0,,,79,92
72540,note_on,12,0,2,,,,,,,,,1,,,79,92
72588,note_on,48,0,2,,,,,,,,,1,,,79,0
72588,note_on,48,0,3,,,,,,,,,2,,,75,0
72588,note_on,48,0,4,,,,,,,,,3,,,58,0
72588,note_on,48,0,1,,,,,,,,,0,,,79,0
72600,note_on,12,0,3,,,,,,,,,2,,,74,92
72600,note_on,12,0,2,,,,,,,,,1,,,77,92
72600,note_on,12,0,4,,,,,,,,,3,,,58,92
72600,note_on,12,0,1,,,,,,,,,0,,,77,92
72648,note_on,48,0,1,,,,,,,,,0,,,77,0
72648,note_on,48,0,4,,,,,,,,,3,,,58,0
72648,note_on,48,0,2,,,,,,,,,1,,,77,0
72648,note_on,48,0,3,,,,,,,,,2,,,74,0
72660,note_on,12,0,1,,,,,,,,,0,,,75,92
72660,note_on,12,0,3,,,,,,,,,2,,,72,92
72660,note_on,12,0,4,,,,,,,,,3,,,58,92
72660,note_on,12,0,2,,,,,,,,,1,,,75,92
72708,note_on,48,0,1,,,,,,,,,0,,,75,0
72708,note_on,48,0,3,,,,,,,,,2,,,72,0
72708,note_on,48,0,4,,,,,,,,,3,,,58,0
72708,note_on,48,0,2,,,,,,,,,1,,,75,0
72720,note_on,12,0,1,,,,,,,,,0,,,74,92
72720,note_on,12,0,4,,,,,,,,,3,,,58,92
72720,note_on,12,0,2,,,,,,,,,1,,,74,92
72720,note_on,12,0,3,,,,,,,,,2,,,70,92
72768,note_on,48,0,2,,,,,,,,,1,,,74,0
72768,note_on,48,0,4,,,,,,,,,3,,,58,0
72768,note_on,48,0,1,,,,,,,,,0,,,74,0
72768,note_on,48,0,3,,,,,,,,,2,,,70,0
72780,note_on,12,0,3,,,,,,,,,2,,,68,92
72780,note_on,12,0,2,,,,,,,,,1,,,72,92
72780,note_on,12,0,1,,,,,,,,,0,,,72,92
72780,note_on,12,0,4,,,,,,,,,3,,,58,92
72828,note_on,48,0,3,,,,,,,,,2,,,68,0
72828,note_on,48,0,1,,,,,,,,,0,,,72,0
72828,note_on,48,0,4,,,,,,,,,3,,,58,0
72828,note_on,48,0,2,,,,,,,,,1,,,72,0
72840,note_on,12,0,2,,,,,,,,,1,,,70,92
72840,note_on,12,0,3,,,,,,,,,2,,,67,92
72840,note_on,12,0,1,,,,,,,,,0,,,70,92
72840,note_on,12,0,4,,,,,,,,,3,,,58,92
72888,note_on,48,0,3,,,,,,,,,2,,,67,0
72888,note_on,48,0,1,,,,,,,,,0,,,70,0
72888,note_on,48,0,2,,,,,,,,,1,,,70,0
72888,note_on,48,0,4,,,,,,,,,3,,,58,0
72900,note_on,12,0,2,,,,,,,,,1,,,68,92
72900,note_on,12,0,1,,,,,,,,,0,,,68,92
72900,note_on,12,0,3,,,,,,,,,2,,,65,92
72900,note_on,12,0,4,,,,,,,,,3,,,58,92
72948,note_on,48,0,3,,,,,,,,,2,,,65,0
72948,note_on,48,0,1,,,,,,,,,0,,,68,0
72948,note_on,48,0,4,,,,,,,,,3,,,58,0
72948,note_on,48,0,2,,,,,,,,,1,,,68,0
72960,note_on,12,0,4,,,,,,,,,3,,,63,92
72960,note_on,12,0,1,,,,,,,,,0,,,70,92
72960,note_on,12,0,2,,,,,,,,,1,,,70,92
72960,note_on,768,0,5,,,,,,,,,4,,,39,92
72960,note_on,12,0,3,,,,,,,,,2,,,67,92
73008,note_on,48,0,5,,,,,,,,,4,,,39,0
73020,note_on,12,0,5,,,,,,,,,4,,,39,92
73056,note_on,96,0,1,,,,,,,,,0,,,70,0
73056,note_on,96,0,4,,,,,,,,,3,,,63,0
73056,note_on,96,0,2,,,,,,,,,1,,,70,0
73056,note_on,96,0,3,,,,,,,,,2,,,67,0
73068,note_on,48,0,5,,,,,,,,,4,,,39,0
73080,note_on,24,0,3,,,,,,,,,2,,,63,92
73080,note_on,24,0,2,,,,,,,,,1,,,67,92
73080,note_on,24,0,1,,,,,,,,,0,,,67,92
73080,note_on,12,0,5,,,,,,,,,4,,,39,92
73080,note_on,24,0,4,,,,,,,,,3,,,51,92
73128,note_on,48,0,5,,,,,,,,,4,,,39,0
73140,note_on,12,0,5,,,,,,,,,4,,,39,92
73176,note_on,96,0,3,,,,,,,,,2,,,63,0
73176,note_on,96,0,1,,,,,,,,,0,,,67,0
73176,note_on,96,0,2,,,,,,,,,1,,,67,0
73176,note_on,96,0,4,,,,,,,,,3,,,51,0
73188,note_on,48,0,5,,,,,,,,,4,,,39,0
73200,note_on,24,0,3,,,,,,,,,2,,,79,92
73200,note_on,24,0,1,,,,,,,,,0,,,70,92
73200,note_on,24,0,2,,,,,,,,,1,,,70,92
73200,note_on,24,0,4,,,,,,,,,3,,,63,92
73200,note_on,12,0,5,,,,,,,,,4,,,39,92
73248,note_on,48,0,3,,,,,,,,,2,,,79,0
73248,note_on,48,0,4,,,,,,,,,3,,,63,0
73248,note_on,48,0,5,,,,,,,,,4,,,39,0
73260,note_on,12,0,5,,,,,,,,,4,,,39,92
73260,note_on,12,0,3,,,,,,,,,2,,,80,92
73260,note_on,12,0,4,,,,,,,,,3,,,65,92
73296,note_on,96,0,1,,,,,,,,,0,,,70,0
73296,note_on,96,0,2,,,,,,,,,1,,,70,0
73308,note_on,48,0,3,,,,,,,,,2,,,80,0
73308,note_on,48,0,4,,,,,,,,,3,,,65,0
73308,note_on,48,0,5,,,,,,,,,4,,,39,0
73320,note_on,24,0,2,,,,,,,,,1,,,75,92
73320,note_on,12,0,4,,,,,,,,,3,,,67,92
73320,note_on,12,0,3,,,,,,,,,2,,,82,92
73320,note_on,12,0,5,,,,,,,,,4,,,39,92
73320,note_on,24,0,1,,,,,,,,,0,,,75,92
73368,note_on,48,0,4,,,,,,,,,3,,,67,0
73368,note_on,48,0,3,,,,,,,,,2,,,82,0
73368,note_on,48,0,5,,,,,,,,,4,,,39,0
73380,note_on,12,0,3,,,,,,,,,2,,,79,92
73380,note_on,12,0,5,,,,,,,,,4,,,39,92
73380,note_on,12,0,4,,,,,,,,,3,,,63,92
73416,note_on,96,0,1,,,,,,,,,0,,,75,0
73416,note_on,96,0,2,,,,,,,,,1,,,75,0
73428,note_on,48,0,5,,,,,,,,,4,,,39,0
73428,note_on,48,0,4,,,,,,,,,3,,,63,0
73428,note_on,48,0,3,,,,,,,,,2,,,79,0
73440,note_on,12,0,4,,,,,,,,,3,,,65,92
73440,note_on,24,0,2,,,,,,,,,1,,,74,92
73440,note_on,24,0,1,,,,,,,,,0,,,74,92
73440,note_on,12,0,5,,,,,,,,,4,,,46,92
73440,note_on,12,0,3,,,,,,,,,2,,,80,92
73488,note_on,48,0,5,,,,,,,,,4,,,46,0
73488,note_on,48,0,1,,,,,,,,,0,,,74,0
73488,note_on,48,0,4,,,,,,,,,3,,,65,0
73488,note_on,48,0,2,,,,,,,,,1,,,74,0
73488,note_on,48,0,3,,,,,,,,,2,,,80,0
73500,note_on,12,0,3,,,,,,,,,2,,,79,92
73500,note_on,12,0,5,,,,,,,,,4,,,46,92
73500,note_on,12,0,4,,,,,,,,,3,,,63,92
73500,note_on,12,0,1,,,,,,,,,0,,,74,92
73500,note_on,12,0,2,,,,,,,,,1,,,74,92
73548,note_on,48,0,2,,,,,,,,,1,,,74,0
73548,note_on,48,0,5,,,,,,,,,4,,,46,0
73548,note_on,48,0,3,,,,,,,,,2,,,79,0
73548,note_on,48,0,4,,,,,,,,,3,,,63,0
73548,note_on,48,0,1,,,,,,,,,0,,,74,0
73560,note_on,12,0,5,,,,,,,,,4,,,46,92
73560,note_on,12,0,4,,,,,,,,,3,,,62,92
73560,note_on,12,0,3,,,,,,,,,2,,,77,92
73560,note_on,12,0,2,,,,,,,,,1,,,74,92
73560,note_on,12,0,1,,,,,,,,,0,,,74,92
73608,note_on,48,0,4,,,,,,,,,3,,,62,0
73608,note_on,48,0,5,,,,,,,,,4,,,46,0
73608,note_on,48,0,2,,,,,,,,,1,,,74,0
73608,note_on,48,0,3,,,,,,,,,2,,,77,0
73608,note_on,48,0,1,,,,,,,,,0,,,74,0
73620,note_on,12,0,2,,,,,,,,,1,,,74,92
73620,note_on,12,0,4,,,,,,,,,3,,,60,92
73620,note_on,12,0,1,,,,,,,,,0,,,74,92
73620,note_on,12,0,3,,,,,,,,,2,,,75,92
73620,note_on,12,0,5,,,,,,,,,4,,,46,92
73668,note_on,48,0,5,,,,,,,,,4,,,46,0
73668,note_on,48,0,2,,,,,,,,,1,,,74,0
73668,note_on,48,0,1,,,,,,,,,0,,,74,0
73668,note_on,48,0,3,,,,,,,,,2,,,75,0
73668,note_on,48,0,4,,,,,,,,,3,,,60,0
73680,note_on,12,0,4,,,,,,,,,3,,,58,92
73680,note_on,12,0,5,,,,,,,,,4,,,46,92
73680,note_on,12,0,1,,,,,,,,,0,,,74,92
73680,note_on,12,0,3,,,,,,,,,2,,,74,92
73680,note_on,12,0,2,,,,,,,,,1,,,74,92
73728,note_on,48,0,5,,,,,,,,,4,,,46,0
73728,note_on,48,0,1,,,,,,,,,0,,,74,0
73728,note_on,48,0,3,,,,,,,,,2,,,74,0
73728,note_on,48,0,2,,,,,,,,,1,,,74,0
73728,note_on,48,0,4,,,,,,,,,3,,,58,0
73740,note_on,12,0,4,,,,,,,,,3,,,56,92
73740,note_on,12,0,5,,,,,,,,,4,,,46,92
73740,note_on,12,0,3,,,,,,,,,2,,,72,92
73740,note_on,12,0,2,,,,,,,,,1,,,74,92
73740,note_on,12,0,1,,,,,,,,,0,,,74,92
73788,note_on,48,0,5,,,,,,,,,4,,,46,0
73788,note_on,48,0,3,,,,,,,,,2,,,72,0
73788,note_on,48,0,2,,,,,,,,,1,,,74,0
73788,note_on,48,0,1,,,,,,,,,0,,,74,0
73788,note_on,48,0,4,,,,,,,,,3,,,56,0
73800,note_on,12,0,1,,,,,,,,,0,,,74,92
73800,note_on,12,0,5,,,,,,,,,4,,,46,92
73800,note_on,12,0,2,,,,,,,,,1,,,74,92
73800,note_on,12,0,4,,,,,,,,,3,,,55,92
73800,note_on,12,0,3,,,,,,,,,2,,,70,92
73848,note_on,48,0,2,,,,,,,,,1,,,74,0
73848,note_on,48,0,3,,,,,,,,,2,,,70,0
73848,note_on,48,0,1,,,,,,,,,0,,,74,0
73848,note_on,48,0,4,,,,,,,,,3,,,55,0
73848,note_on,48,0,5,,,,,,,,,4,,,46,0
73860,note_on,12,0,3,,,,,,,,,2,,,68,92
73860,note_on,12,0,2,,,,,,,,,1,,,74,92
73860,note_on,12,0,4,,,,,,,,,3,,,53,92
73860,note_on,12,0,5,,,,,,,,,4,,,46,92
73860,note_on,12,0,1,,,,,,,,,0,,,74,92
73908,note_on,48,0,1,,,,,,,,,0,,,74,0
73908,note_on,48,0,4,,,,,,,,,3,,,53,0
73908,note_on,48,0,5,,,,,,,,,4,,,46,0
73908,note_on,48,0,3,,,,,,,,,2,,,68,0
73908,note_on,48,0,2,,,,,,,,,1,,,74,0
73920,note_on,12,0,2,,,,,,,,,1,,,75,92
73920,note_on,12,0,5,,,,,,,,,4,,,39,92
73920,note_on,12,0,3,,,,,,,,,2,,,70,92
73920,note_on,12,0,4,,,,,,,,,3,,,55,92
73920,note_on,12,0,1,,,,,,,,,0,,,75,92
73944,note_on,24,0,1,,,,,,,,,0,,,75,0
73950,note_on,6,0,1,,,,,,,,,0,,,70,92
73974,note_on,24,0,1,,,,,,,,,0,,,70,0
73980,note_on,6,0,1,,,,,,,,,0,,,72,92
74004,note_on,24,0,1,,,,,,,,,0,,,72,0
74010,note_on,6,0,1,,,,,,,,,0,,,74,92
74034,note_on,24,0,1,,,,,,,,,0,,,74,0
74040,note_on,6,0,1,,,,,,,,,0,,,75,92
74064,note_on,24,0,1,,,,,,,,,0,,,75,0
74070,note_on,6,0,1,,,,,,,,,0,,,77,92
74094,note_on,24,0,1,,,,,,,,,0,,,77,0
74100,note_on,6,0,1,,,,,,,,,0,,,79,92
74112,note_on,192,0,3,,,,,,,,,2,,,70,0
74112,note_on,192,0,5,,,,,,,,,4,,,39,0
74112,note_on,192,0,4,,,,,,,,,3,,,55,0
74112,note_on,192,0,2,,,,,,,,,1,,,75,0
74124,note_on,24,0,1,,,,,,,,,0,,,79,0
74130,note_on,6,0,1,,,,,,,,,0,,,80,92
74154,note_on,24,0,1,,,,,,,,,0,,,80,0
74160,note_on,6,0,1,,,,,,,,,0,,,82,92
74208,note_on,48,0,1,,,,,,,,,0,,,82,0
74220,note_on,12,0,1,,,,,,,,,0,,,80,92
74268,note_on,48,0,1,,,,,,,,,0,,,80,0
74280,note_on,12,0,1,,,,,,,,,0,,,79,92
74328,note_on,48,0,1,,,,,,,,,0,,,79,0
74340,note_on,12,0,1,,,,,,,,,0,,,77,92
74388,note_on,48,0,1,,,,,,,,,0,,,77,0
74400,note_on,12,0,1,,,,,,,,,0,,,75,92
74424,note_on,24,0,1,,,,,,,,,0,,,75,0
74430,note_on,6,0,1,,,,,,,,,0,,,70,92
74454,note_on,24,0,1,,,,,,,,,0,,,70,0
74460,note_on,6,0,1,,,,,,,,,0,,,72,92
74484,note_on,24,0,1,,,,,,,,,0,,,72,0
74490,note_on,6,0,1,,,,,,,,,0,,,74,92
74514,note_on,24,0,1,,,,,,,,,0,,,74,0
74520,note_on,6,0,1,,,,,,,,,0,,,75,92
74544,note_on,24,0,1,,,,,,,,,0,,,75,0
74550,note_on,6,0,1,,,,,,,,,0,,,77,92
74574,note_on,24,0,1,,,,,,,,,0,,,77,0
74580,note_on,6,0,1,,,,,,,,,0,,,79,92
74604,note_on,24,0,1,,,,,,,,,0,,,79,0
74610,note_on,6,0,1,,,,,,,,,0,,,80,92
74634,note_on,24,0,1,,,,,,,,,0,,,80,0
74640,note_on,6,0,1,,,,,,,,,0,,,82,92
74688,note_on,48,0,1,,,,,,,,,0,,,82,0
74700,note_on,12,0,1,,,,,,,,,0,,,73,92
74748,note_on,48,0,1,,,,,,,,,0,,,73,0
74760,note_on,12,0,1,,,,,,,,,0,,,72,92
74808,note_on,48,0,1,,,,,,,,,0,,,72,0
74820,note_on,12,0,1,,,,,,,,,0,,,70,92
74868,note_on,48,0,1,,,,,,,,,0,,,70,0
74880,note_on,12,0,1,,,,,,,,,0,,,72,92
74928,note_on,48,0,1,,,,,,,,,0,,,72,0
74940,note_on,12,0,1,,,,,,,,,0,,,68,92
74988,note_on,48,0,1,,,,,,,,,0,,,68,0
75000,note_on,12,0,1,,,,,,,,,0,,,68,92
75048,note_on,48,0,1,,,,,,,,,0,,,68,0
75060,note_on,12,0,1,,,,,,,,,0,,,63,92
75108,note_on,48,0,1,,,,,,,,,0,,,63,0
75120,note_on,12,0,1,,,,,,,,,0,,,63,92
75168,note_on,48,0,1,,,,,,,,,0,,,63,0
75180,note_on,12,0,1,,,,,,,,,0,,,60,92
75228,note_on,48,0,1,,,,,,,,,0,,,60,0
75240,note_on,12,0,1,,,,,,,,,0,,,60,92
75288,note_on,48,0,1,,,,,,,,,0,,,60,0
75300,note_on,12,0,1,,,,,,,,,0,,,56,92
75348,note_on,48,0,1,,,,,,,,,0,,,56,0
75360,note_on,1248,0,4,,,,,,,,,3,,,56,92
75360,note_on,1248,0,3,,,,,,,,,2,,,56,92
75360,note_on,1248,0,2,,,,,,,,,1,,,56,92
75360,note_on,12,0,1,,,,,,,,,0,,,56,92
75360,note_on,1248,0,5,,,,,,,,,4,,,44,92
75456,note_on,96,0,3,,,,,,,,,2,,,56,0
75456,note_on,96,0,2,,,,,,,,,1,,,56,0
75456,note_on,96,0,5,,,,,,,,,4,,,44,0
75456,note_on,96,0,4,,,,,,,,,3,,,56,0
75480,note_on,24,0,4,,,,,,,,,3,,,56,92
75480,note_on,24,0,5,,,,,,,,,4,,,44,92
75480,note_on,24,0,3,,,,,,,,,2,,,56,92
75480,note_on,24,0,2,,,,,,,,,1,,,56,92
75552,note_on,192,0,1,,,,,,,,,0,,,56,0
75576,note_on,96,0,3,,,,,,,,,2,,,56,0
75576,note_on,96,0,4,,,,,,,,,3,,,56,0
75576,note_on,96,0,2,,,,,,,,,1,,,56,0
75576,note_on,96,0,5,,,,,,,,,4,,,44,0
75600,note_on,24,0,4,,,,,,,,,3,,,56,92
75600,note_on,24,0,2,,,,,,,,,1,,,56,92
75600,note_on,24,0,3,,,,,,,,,2,,,56,92
75600,note_on,24,0,5,,,,,,,,,4,,,44,92
75696,note_on,96,0,5,,,,,,,,,4,,,44,0
75696,note_on,96,0,4,,,,,,,,,3,,,56,0
75696,note_on,96,0,2,,,,,,,,,1,,,56,0
75696,note_on,96,0,3,,,,,,,,,2,,,56,0
75720,note_on,24,0,5,,,,,,,,,4,,,44,92
75720,note_on,24,0,4,,,,,,,,,3,,,56,92
75720,note_on,24,0,2,,,,,,,,,1,,,56,92
75720,note_on,24,0,3,,,,,,,,,2,,,56,92
75816,note_on,96,0,5,,,,,,,,,4,,,44,0
75816,note_on,96,0,2,,,,,,,,,1,,,56,0
75816,note_on,96,0,4,,,,,,,,,3,,,56,0
75816,note_on,96,0,3,,,,,,,,,2,,,56,0
75840,note_on,24,0,4,,,,,,,,,3,,,56,92
75840,note_on,288,0,1,,,,,,,,,0,,,77,92
75840,note_on,24,0,3,,,,,,,,,2,,,56,92
75840,note_on,24,0,2,,,,,,,,,1,,,56,92
75840,note_on,24,0,5,,,,,,,,,4,,,44,92
75864,note_on,24,0,1,,,,,,,,,0,,,77,0
75870,note_on,6,0,1,,,,,,,,,0,,,72,92
75894,note_on,24,0,1,,,,,,,,,0,,,72,0
75900,note_on,6,0,1,,,,,,,,,0,,,74,92
75924,note_on,24,0,1,,,,,,,,,0,,,74,0
75930,note_on,6,0,1,,,,,,,,,0,,,75,92
75954,note_on,24,0,1,,,,,,,,,0,,,75,0
75960,note_on,6,0,1,,,,,,,,,0,,,77,92
75984,note_on,24,0,1,,,,,,,,,0,,,77,0
75990,note_on,6,0,1,,,,,,,,,0,,,79,92
76014,note_on,24,0,1,,,,,,,,,0,,,79,0
76020,note_on,6,0,1,,,,,,,,,0,,,80,92
76032,note_on,192,0,5,,,,,,,,,4,,,44,0
76032,note_on,192,0,4,,,,,,,,,3,,,56,0
76032,note_on,192,0,2,,,,,,,,,1,,,56,0
76032,note_on,192,0,3,,,,,,,,,2,,,56,0
76044,note_on,24,0,1,,,,,,,,,0,,,80,0
76050,note_on,6,0,1,,,,,,,,,0,,,82,92
76074,note_on,24,0,1,,,,,,,,,0,,,82,0
76080,note_on,6,0,1,,,,,,,,,0,,,84,92
76128,note_on,48,0,1,,,,,,,,,0,,,84,0
76140,note_on,12,0,1,,,,,,,,,0,,,82,92
76188,note_on,48,0,1,,,,,,,,,0,,,82,0
76200,note_on,12,0,1,,,,,,,,,0,,,80,92
76248,note_on,48,0,1,,,,,,,,,0,,,80,0
76260,note_on,12,0,1,,,,,,,,,0,,,79,92
76308,note_on,48,0,1,,,,,,,,,0,,,79,0
76320,note_on,12,0,1,,,,,,,,,0,,,77,92
76344,note_on,24,0,1,,,,,,,,,0,,,77,0
76350,note_on,6,0,1,,,,,,,,,0,,,72,92
76374,note_on,24,0,1,,,,,,,,,0,,,72,0
76380,note_on,6,0,1,,,,,,,,,0,,,74,92
76404,note_on,24,0,1,,,,,,,,,0,,,74,0
76410,note_on,6,0,1,,,,,,,,,0,,,75,92
76434,note_on,24,0,1,,,,,,,,,0,,,75,0
76440,note_on,6,0,1,,,,,,,,,0,,,77,92
76464,note_on,24,0,1,,,,,,,,,0,,,77,0
76470,note_on,6,0,1,,,,,,,,,0,,,79,92
76494,note_on,24,0,1,,,,,,,,,0,,,79,0
76500,note_on,6,0,1,,,,,,,,,0,,,80,92
76524,note_on,24,0,1,,,,,,,,,0,,,80,0
76530,note_on,6,0,1,,,,,,,,,0,,,82,92
76554,note_on,24,0,1,,,,,,,,,0,,,82,0
76560,note_on,6,0,1,,,,,,,,,0,,,84,92
76608,note_on,48,0,1,,,,,,,,,0,,,84,0
76620,note_on,12,0,1,,,,,,,,,0,,,75,92
76668,note_on,48,0,1,,,,,,,,,0,,,75,0
76680,note_on,12,0,1,,,,,,,,,0,,,74,92
76728,note_on,48,0,1,,,,,,,,,0,,,74,0
76740,note_on,12,0,1,,,,,,,,,0,,,72,92
76788,note_on,48,0,1,,,,,,,,,0,,,72,0
76800,note_on,12,0,1,,,,,,,,,0,,,74,92
76848,note_on,48,0,1,,,,,,,,,0,,,74,0
76860,note_on,12,0,1,,,,,,,,,0,,,70,92
76908,note_on,48,0,1,,,,,,,,,0,,,70,0
76920,note_on,12,0,1,,,,,,,,,0,,,70,92
76968,note_on,48,0,1,,,,,,,,,0,,,70,0
76980,note_on,12,0,1,,,,,,,,,0,,,65,92
77028,note_on,48,0,1,,,,,,,,,0,,,65,0
77040,note_on,12,0,1,,,,,,,,,0,,,65,92
77088,note_on,48,0,1,,,,,,,,,0,,,65,0
77100,note_on,12,0,1,,,,,,,,,0,,,62,92
77148,note_on,48,0,1,,,,,,,,,0,,,62,0
77160,note_on,12,0,1,,,,,,,,,0,,,62,92
77208,note_on,48,0,1,,,,,,,,,0,,,62,0
77220,note_on,12,0,1,,,,,,,,,0,,,58,92
77268,note_on,48,0,1,,,,,,,,,0,,,58,0
77280,note_on,1248,0,4,,,,,,,,,3,,,58,92
77280,note_on,1248,0,5,,,,,,,,,4,,,46,92
77280,note_on,1248,0,2,,,,,,,,,1,,,58,92
77280,note_on,1248,0,3,,,,,,,,,2,,,58,92
77280,note_on,12,0,1,,,,,,,,,0,,,58,92
77376,note_on,96,0,2,,,,,,,,,1,,,58,0
77376,note_on,96,0,5,,,,,,,,,4,,,46,0
77376,note_on,96,0,4,,,,,,,,,3,,,58,0
77376,note_on,96,0,3,,,,,,,,,2,,,58,0
77400,note_on,24,0,5,,,,,,,,,4,,,46,92
77400,note_on,24,0,3,,,,,,,,,2,,,58,92
77400,note_on,24,0,4,,,,,,,,,3,,,58,92
77400,note_on,24,0,2,,,,,,,,,1,,,58,92
77472,note_on,192,0,1,,,,,,,,,0,,,58,0
77496,note_on,96,0,5,,,,,,,,,4,,,46,0
77496,note_on,96,0,4,,,,,,,,,3,,,58,0
77496,note_on,96,0,2,,,,,,,,,1,,,58,0
77496,note_on,96,0,3,,,,,,,,,2,,,58,0
77520,note_on,24,0,3,,,,,,,,,2,,,58,92
77520,note_on,24,0,2,,,,,,,,,1,,,58,92
77520,note_on,24,0,4,,,,,,,,,3,,,58,92
77520,note_on,24,0,5,,,,,,,,,4,,,46,92
77616,note_on,96,0,4,,,,,,,,,3,,,58,0
77616,note_on,96,0,3,,,,,,,,,2,,,58,0
77616,note_on,96,0,2,,,,,,,,,1,,,58,0
77616,note_on,96,0,5,,,,,,,,,4,,,46,0
77640,note_on,24,0,3,,,,,,,,,2,,,58,92
77640,note_on,24,0,5,,,,,,,,,4,,,46,92
77640,note_on,24,0,2,,,,,,,,,1,,,58,92
77640,note_on,24,0,4,,,,,,,,,3,,,58,92
77736,note_on,96,0,2,,,,,,,,,1,,,58,0
77736,note_on,96,0,5,,,,,,,,,4,,,46,0
77736,note_on,96,0,3,,,,,,,,,2,,,58,0
77736,note_on,96,0,4,,,,,,,,,3,,,58,0
77760,note_on,24,0,2,,,,,,,,,1,,,58,92
77760,note_on,288,0,1,,,,,,,,,0,,,79,92
77760,note_on,24,0,4,,,,,,,,,3,,,58,92
77760,note_on,24,0,5,,,,,,,,,4,,,46,92
77760,note_on,24,0,3,,,,,,,,,2,,,58,92
77784,note_on,24,0,1,,,,,,,,,0,,,79,0
77790,note_on,6,0,1,,,,,,,,,0,,,74,92
77814,note_on,24,0,1,,,,,,,,,0,,,74,0
77820,note_on,6,0,1,,,,,,,,,0,,,75,92
77844,note_on,24,0,1,,,,,,,,,0,,,75,0
77850,note_on,6,0,1,,,,,,,,,0,,,77,92
77874,note_on,24,0,1,,,,,,,,,0,,,77,0
77880,note_on,6,0,1,,,,,,,,,0,,,79,92
77904,note_on,24,0,1,,,,,,,,,0,,,79,0
77910,note_on,6,0,1,,,,,,,,,0,,,80,92
77934,note_on,24,0,1,,,,,,,,,0,,,80,0
77940,note_on,6,0,1,,,,,,,,,0,,,82,92
77952,note_on,192,0,3,,,,,,,,,2,,,58,0
77952,note_on,192,0,5,,,,,,,,,4,,,46,0
77952,note_on,192,0,4,,,,,,,,,3,,,58,0
77952,note_on,192,0,2,,,,,,,,,1,,,58,0
77964,note_on,24,0,1,,,,,,,,,0,,,82,0
77970,note_on,6,0,1,,,,,,,,,0,,,84,92
77994,note_on,24,0,1,,,,,,,,,0,,,84,0
78000,note_on,6,0,1,,,,,,,,,0,,,86,92
78048,note_on,48,0,1,,,,,,,,,0,,,86,0
78060,note_on,12,0,1,,,,,,,,,0,,,84,92
78108,note_on,48,0,1,,,,,,,,,0,,,84,0
78120,note_on,12,0,1,,,,,,,,,0,,,82,92
78168,note_on,48,0,1,,,,,,,,,0,,,82,0
78180,note_on,12,0,1,,,,,,,,,0,,,80,92
78228,note_on,48,0,1,,,,,,,,,0,,,80,0
78240,note_on,12,0,1,,,,,,,,,0,,,79,92
78264,note_on,24,0,1,,,,,,,,,0,,,79,0
78270,note_on,6,0,1,,,,,,,,,0,,,74,92
78294,note_on,24,0,1,,,,,,,,,0,,,74,0
78300,note_on,6,0,1,,,,,,,,,0,,,75,92
78324,note_on,24,0,1,,,,,,,,,0,,,75,0
78330,note_on,6,0,1,,,,,,,,,0,,,77,92
78354,note_on,24,0,1,,,,,,,,,0,,,77,0
78360,note_on,6,0,1,,,,,,,,,0,,,79,92
78384,note_on,24,0,1,,,,,,,,,0,,,79,0
78390,note_on,6,0,1,,,,,,,,,0,,,80,92
78414,note_on,24,0,1,,,,,,,,,0,,,80,0
78420,note_on,6,0,1,,,,,,,,,0,,,82,92
78444,note_on,24,0,1,,,,,,,,,0,,,82,0
78450,note_on,6,0,1,,,,,,,,,0,,,84,92
78474,note_on,24,0,1,,,,,,,,,0,,,84,0
78480,note_on,6,0,1,,,,,,,,,0,,,86,92
78528,note_on,48,0,1,,,,,,,,,0,,,86,0
78540,note_on,12,0,1,,,,,,,,,0,,,77,92
78588,note_on,48,0,1,,,,,,,,,0,,,77,0
78600,note_on,12,0,1,,,,,,,,,0,,,75,92
78648,note_on,48,0,1,,,,,,,,,0,,,75,0
78660,note_on,12,0,1,,,,,,,,,0,,,74,92
78708,note_on,48,0,1,,,,,,,,,0,,,74,0
78720,note_on,12,0,1,,,,,,,,,0,,,75,92
78768,note_on,48,0,1,,,,,,,,,0,,,75,0
78780,note_on,12,0,1,,,,,,,,,0,,,72,92
78828,note_on,48,0,1,,,,,,,,,0,,,72,0
78840,note_on,12,0,1,,,,,,,,,0,,,72,92
78888,note_on,48,0,1,,,,,,,,,0,,,72,0
78900,note_on,12,0,1,,,,,,,,,0,,,67,92
78948,note_on,48,0,1,,,,,,,,,0,,,67,0
78960,note_on,12,0,1,,,,,,,,,0,,,67,92
79008,note_on,48,0,1,,,,,,,,,0,,,67,0
79020,note_on,12,0,1,,,,,,,,,0,,,63,92
79068,note_on,48,0,1,,,,,,,,,0,,,63,0
79080,note_on,12,0,1,,,,,,,,,0,,,63,92
79128,note_on,48,0,1,,,,,,,,,0,,,63,0
79140,note_on,12,0,1,,,,,,,,,0,,,60,92
79188,note_on,48,0,1,,,,,,,,,0,,,60,0
79200,note_on,1248,0,3,,,,,,,,,2,,,60,92
79200,note_on,1248,0,4,,,,,,,,,3,,,60,92
79200,note_on,12,0,1,,,,,,,,,0,,,60,92
79200,note_on,1248,0,5,,,,,,,,,4,,,48,92
79200,note_on,1248,0,2,,,,,,,,,1,,,60,92
79296,note_on,96,0,4,,,,,,,,,3,,,60,0
79296,note_on,96,0,2,,,,,,,,,1,,,60,0
79296,note_on,96,0,5,,,,,,,,,4,,,48,0
79296,note_on,96,0,3,,,,,,,,,2,,,60,0
79320,note_on,24,0,5,,,,,,,,,4,,,48,92
79320,note_on,24,0,4,,,,,,,,,3,,,60,92
79320,note_on,24,0,2,,,,,,,,,1,,,60,92
79320,note_on,24,0,3,,,,,,,,,2,,,60,92
79392,note_on,192,0,1,,,,,,,,,0,,,60,0
79416,note_on,96,0,4,,,,,,,,,3,,,60,0
79416,note_on,96,0,5,,,,,,,,,4,,,48,0
79416,note_on,96,0,3,,,,,,,,,2,,,60,0
79416,note_on,96,0,2,,,,,,,,,1,,,60,0
79440,note_on,24,0,4,,,,,,,,,3,,,60,92
79440,note_on,24,0,5,,,,,,,,,4,,,48,92
79440,note_on,24,0,3,,,,,,,,,2,,,60,92
79440,note_on,24,0,2,,,,,,,,,1,,,60,92
79536,note_on,96,0,2,,,,,,,,,1,,,60,0
79536,note_on,96,0,4,,,,,,,,,3,,,60,0
79536,note_on,96,0,5,,,,,,,,,4,,,48,0
79536,note_on,96,0,3,,,,,,,,,2,,,60,0
79560,note_on,24,0,4,,,,,,,,,3,,,60,92
79560,note_on,24,0,2,,,,,,,,,1,,,60,92
79560,note_on,24,0,5,,,,,,,,,4,,,48,92
79560,note_on,24,0,3,,,,,,,,,2,,,60,92
79656,note_on,96,0,5,,,,,,,,,4,,,48,0
79656,note_on,96,0,2,,,,,,,,,1,,,60,0
79656,note_on,96,0,3,,,,,,,,,2,,,60,0
79656,note_on,96,0,4,,,,,,,,,3,,,60,0
79680,note_on,24,0,2,,,,,,,,,1,,,60,92
79680,note_on,24,0,5,,,,,,,,,4,,,48,92
79680,note_on,24,0,4,,,,,,,,,3,,,60,92
79680,note_on,24,0,3,,,,,,,,,2,,,60,92
79680,note_on,288,0,1,,,,,,,,,0,,,80,92
79704,note_on,24,0,1,,,,,,,,,0,,,80,0
79710,note_on,6,0,1,,,,,,,,,0,,,75,92
79734,note_on,24,0,1,,,,,,,,,0,,,75,0
79740,note_on,6,0,1,,,,,,,,,0,,,77,92
79764,note_on,24,0,1,,,,,,,,,0,,,77,0
79770,note_on,6,0,1,,,,,,,,,0,,,79,92
79794,note_on,24,0,1,,,,,,,,,0,,,79,0
79800,note_on,6,0,1,,,,,,,,,0,,,80,92
79824,note_on,24,0,1,,,,,,,,,0,,,80,0
79830,note_on,6,0,1,,,,,,,,,0,,,82,92
79854,note_on,24,0,1,,,,,,,,,0,,,82,0
79860,note_on,6,0,1,,,,,,,,,0,,,84,92
79872,note_on,192,0,2,,,,,,,,,1,,,60,0
79872,note_on,192,0,5,,,,,,,,,4,,,48,0
79872,note_on,192,0,3,,,,,,,,,2,,,60,0
79872,note_on,192,0,4,,,,,,,,,3,,,60,0
79884,note_on,24,0,1,,,,,,,,,0,,,84,0
79890,note_on,6,0,1,,,,,,,,,0,,,86,92
79914,note_on,24,0,1,,,,,,,,,0,,,86,0
79920,note_on,6,0,1,,,,,,,,,0,,,87,92
79968,note_on,48,0,1,,,,,,,,,0,,,87,0
79980,note_on,12,0,1,,,,,,,,,0,,,86,92
80028,note_on,48,0,1,,,,,,,,,0,,,86,0
80040,note_on,12,0,1,,,,,,,,,0,,,84,92
80088,note_on,48,0,1,,,,,,,,,0,,,84,0
80100,note_on,12,0,1,,,,,,,,,0,,,82,92
80148,note_on,48,0,1,,,,,,,,,0,,,82,0
80160,note_on,12,0,1,,,,,,,,,0,,,80,92
80208,note_on,48,0,1,,,,,,,,,0,,,80,0
80220,note_on,12,0,1,,,,,,,,,0,,,84,92
80268,note_on,48,0,1,,,,,,,,,0,,,84,0
80280,note_on,12,0,1,,,,,,,,,0,,,84,92
80328,note_on,48,0,1,,,,,,,,,0,,,84,0
80340,note_on,12,0,1,,,,,,,,,0,,,77,92
80388,note_on,48,0,1,,,,,,,,,0,,,77,0
80400,note_on,12,0,1,,,,,,,,,0,,,77,92
80448,note_on,48,0,1,,,,,,,,,0,,,77,0
80460,note_on,12,0,1,,,,,,,,,0,,,80,92
80508,note_on,48,0,1,,,,,,,,,0,,,80,0
80520,note_on,12,0,1,,,,,,,,,0,,,80,92
80568,note_on,48,0,1,,,,,,,,,0,,,80,0
80580,note_on,12,0,1,,,,,,,,,0,,,74,92
80628,note_on,48,0,1,,,,,,,,,0,,,74,0
80640,note_on,768,0,5,,,,,,,,,4,,,46,92
80640,note_on,12,0,1,,,,,,,,,0,,,74,92
80688,note_on,48,0,1,,,,,,,,,0,,,74,0
80700,note_on,12,0,1,,,,,,,,,0,,,77,92
80748,note_on,48,0,1,,,,,,,,,0,,,77,0
80760,note_on,12,0,1,,,,,,,,,0,,,77,92
80808,note_on,48,0,1,,,,,,,,,0,,,77,0
80820,note_on,12,0,1,,,,,,,,,0,,,70,92
80832,note_on,192,0,5,,,,,,,,,4,,,46,0
80868,note_on,48,0,1,,,,,,,,,0,,,70,0
80880,note_on,12,0,1,,,,,,,,,0,,,70,92
80928,note_on,48,0,1,,,,,,,,,0,,,70,0
80940,note_on,12,0,1,,,,,,,,,0,,,74,92
80988,note_on,48,0,1,,,,,,,,,0,,,74,0
81000,note_on,12,0,1,,,,,,,,,0,,,74,92
81048,note_on,48,0,1,,,,,,,,,0,,,74,0
81060,note_on,12,0,1,,,,,,,,,0,,,65,92
81108,note_on,48,0,1,,,,,,,,,0,,,65,0
81120,note_on,12,0,1,,,,,,,,,0,,,65,92
81120,note_on,288,0,5,,,,,,,,,4,,,46,92
81168,note_on,48,0,1,,,,,,,,,0,,,65,0
81180,note_on,12,0,1,,,,,,,,,0,,,68,92
81228,note_on,48,0,1,,,,,,,,,0,,,68,0
81240,note_on,12,0,1,,,,,,,,,0,,,68,92
81288,note_on,48,0,1,,,,,,,,,0,,,68,0
81300,note_on,12,0,1,,,,,,,,,0,,,62,92
81312,note_on,192,0,5,,,,,,,,,4,,,46,0
81348,note_on,48,0,1,,,,,,,,,0,,,62,0
81360,note_on,12,0,1,,,,,,,,,0,,,62,92
81408,note_on,48,0,1,,,,,,,,,0,,,62,0
81420,note_on,12,0,1,,,,,,,,,0,,,65,92
81468,note_on,48,0,1,,,,,,,,,0,,,65,0
81480,note_on,12,0,1,,,,,,,,,0,,,65,92
81528,note_on,48,0,1,,,,,,,,,0,,,65,0
81540,note_on,12,0,1,,,,,,,,,0,,,56,92
81588,note_on,48,0,1,,,,,,,,,0,,,56,0
81600,note_on,12,0,1,,,,,,,,,0,,,56,105
81600,note_on,1728,0,4,,,,,,,,,3,,,53,105
81600,note_on,1728,0,3,,,,,,,,,2,,,56,105
81600,note_on,1728,0,2,,,,,,,,,1,,,56,105
81600,note_on,288,0,5,,,,,,,,,4,,,46,105
81648,note_on,48,0,5,,,,,,,,,4,,,46,0
81660,note_on,12,0,5,,,,,,,,,4,,,56,105
81708,note_on,48,0,5,,,,,,,,,4,,,56,0
81720,note_on,12,0,5,,,,,,,,,4,,,56,105
81768,note_on,48,0,5,,,,,,,,,4,,,56,0
81780,note_on,12,0,5,,,,,,,,,4,,,50,105
81792,note_on,192,0,4,,,,,,,,,3,,,53,0
81792,note_on,192,0,2,,,,,,,,,1,,,56,0
81792,note_on,192,0,3,,,,,,,,,2,,,56,0
81792,note_on,192,0,1,,,,,,,,,0,,,56,0
81828,note_on,48,0,5,,,,,,,,,4,,,50,0
81840,note_on,12,0,5,,,,,,,,,4,,,50,105
81888,note_on,48,0,5,,,,,,,,,4,,,50,0
81900,note_on,12,0,5,,,,,,,,,4,,,53,105
81948,note_on,48,0,5,,,,,,,,,4,,,53,0
81960,note_on,12,0,5,,,,,,,,,4,,,53,105
82008,note_on,48,0,5,,,,,,,,,4,,,53,0
82020,note_on,12,0,5,,,,,,,,,4,,,46,105
82068,note_on,48,0,5,,,,,,,,,4,,,46,0
82080,note_on,288,0,3,,,,,,,,,2,,,56,105
82080,note_on,288,0,2,,,,,,,,,1,,,56,105
82080,note_on,288,0,1,,,,,,,,,0,,,56,105
82080,note_on,288,0,4,,,,,,,,,3,,,53,105
82080,note_on,12,0,5,,,,,,,,,4,,,46,105
82128,note_on,48,0,5,,,,,,,,,4,,,46,0
82140,note_on,12,0,5,,,,,,,,,4,,,56,105
82188,note_on,48,0,5,,,,,,,,,4,,,56,0
82200,note_on,12,0,5,,,,,,,,,4,,,56,105
82248,note_on,48,0,5,,,,,,,,,4,,,56,0
82260,note_on,12,0,5,,,,,,,,,4,,,50,105
82272,note_on,192,0,2,,,,,,,,,1,,,56,0
82272,note_on,192,0,1,,,,,,,,,0,,,56,0
82272,note_on,192,0,3,,,,,,,,,2,,,56,0
82272,note_on,192,0,4,,,,,,,,,3,,,53,0
82308,note_on,48,0,5,,,,,,,,,4,,,50,0
82320,note_on,12,0,5,,,,,,,,,4,,,50,105
82368,note_on,48,0,5,,,,,,,,,4,,,50,0
82380,note_on,12,0,5,,,,,,,,,4,,,53,105
82428,note_on,48,0,5,,,,,,,,,4,,,53,0
82440,note_on,12,0,5,,,,,,,,,4,,,53,105
82488,note_on,48,0,5,,,,,,,,,4,,,53,0
82500,note_on,12,0,5,,,,,,,,,4,,,46,105
82548,note_on,48,0,5,,,,,,,,,4,,,46,0
82560,time_signature,82560,1,0,6,4,24,8,,,,,,,,,
82560,note_on,12,0,5,,,,,,,,,4,,,46,105
82560,note_on,288,0,1,,,,,,,,,0,,,56,105
82560,note_on,288,0,4,,,,,,,,,3,,,53,105
82560,note_on,288,0,3,,,,,,,,,2,,,56,105
82560,note_on,288,0,2,,,,,,,,,1,,,56,105
82608,note_on,48,0,5,,,,,,,,,4,,,46,0
82620,note_on,12,0,5,,,,,,,,,4,,,56,105
82668,note_on,48,0,5,,,,,,,,,4,,,56,0
82680,note_on,12,0,5,,,,,,,,,4,,,56,105
82728,note_on,48,0,5,,,,,,,,,4,,,56,0
82740,note_on,12,0,5,,,,,,,,,4,,,50,105
82752,note_on,192,0,4,,,,,,,,,3,,,53,0
82752,note_on,192,0,3,,,,,,,,,2,,,56,0
82752,note_on,192,0,2,,,,,,,,,1,,,56,0
82752,note_on,192,0,1,,,,,,,,,0,,,56,0
82788,note_on,48,0,5,,,,,,,,,4,,,50,0
82800,note_on,12,0,5,,,,,,,,,4,,,50,105
82848,note_on,48,0,5,,,,,,,,,4,,,50,0
82860,note_on,12,0,5,,,,,,,,,4,,,53,105
82908,note_on,48,0,5,,,,,,,,,4,,,53,0
82920,note_on,12,0,5,,,,,,,,,4,,,53,105
82968,note_on,48,0,5,,,,,,,,,4,,,53,0
82980,note_on,12,0,5,,,,,,,,,4,,,46,105
83028,note_on,48,0,5,,,,,,,,,4,,,46,0
83040,note_on,288,0,3,,,,,,,,,2,,,56,105
83040,note_on,12,0,5,,,,,,,,,4,,,46,105
83040,note_on,288,0,1,,,,,,,,,0,,,56,105
83040,note_on,288,0,2,,,,,,,,,1,,,56,105
83040,note_on,288,0,4,,,,,,,,,3,,,53,105
83808,note_on,768,0,2,,,,,,,,,1,,,56,0
83808,note_on,768,0,4,,,,,,,,,3,,,53,0
83808,note_on,768,0,3,,,,,,,,,2,,,56,0
83808,note_on,768,0,1,,,,,,,,,0,,,56,0
83808,note_on,768,0,5,,,,,,,,,4,,,46,0
84000,note_on,192,0,4,,,,,,,,,3,,,70,105
84000,note_on,192,0,3,,,,,,,,,2,,,75,105
84000,note_on,192,0,2,,,,,,,,,1,,,79,105
84000,note_on,192,0,1,,,,,,,,,0,,,79,105
84000,time_signature,1440,1,0,4,4,24,8,,,,,,,,,
84000,set_tempo,0,1,0,,,,,,535714,,,,,,,
84000,note_on,192,0,5,,,,,,,,,4,,,51,105
84048,note_on,48,0,4,,,,,,,,,3,,,70,0
84048,note_on,48,0,3,,,,,,,,,2,,,75,0
84048,note_on,48,0,1,,,,,,,,,0,,,79,0
84048,note_on,48,0,5,,,,,,,,,4,,,51,0
84048,note_on,48,0,2,,,,,,,,,1,,,79,0
84060,note_on,12,0,2,,,,,,,,,1,,,79,105
84060,note_on,12,0,3,,,,,,,,,2,,,75,105
84060,note_on,12,0,5,,,,,,,,,4,,,51,105
84060,note_on,12,0,4,,,,,,,,,3,,,70,105
84060,note_on,12,0,1,,,,,,,,,0,,,79,105
84108,note_on,48,0,3,,,,,,,,,2,,,75,0
84108,note_on,48,0,4,,,,,,,,,3,,,70,0
84108,note_on,48,0,2,,,,,,,,,1,,,79,0
84108,note_on,48,0,5,,,,,,,,,4,,,51,0
84108,note_on,48,0,1,,,,,,,,,0,,,79,0
84120,note_on,12,0,5,,,,,,,,,4,,,51,105
84120,note_on,12,0,2,,,,,,,,,1,,,79,105
84120,note_on,12,0,3,,,,,,,,,2,,,75,105
84120,note_on,12,0,4,,,,,,,,,3,,,70,105
84120,note_on,12,0,1,,,,,,,,,0,,,79,105
84168,note_on,48,0,3,,,,,,,,,2,,,75,0
84168,note_on,48,0,2,,,,,,,,,1,,,79,0
84168,note_on,48,0,5,,,,,,,,,4,,,51,0
84168,note_on,48,0,1,,,,,,,,,0,,,79,0
84168,note_on,48,0,4,,,,,,,,,3,,,70,0
84180,note_on,12,0,1,,,,,,,,,0,,,79,105
84180,note_on,12,0,3,,,,,,,,,2,,,75,105
84180,note_on,12,0,2,,,,,,,,,1,,,79,105
84180,note_on,12,0,4,,,,,,,,,3,,,70,105
84180,note_on,12,0,5,,,,,,,,,4,,,51,105
84228,note_on,48,0,4,,,,,,,,,3,,,70,0
84228,note_on,48,0,3,,,,,,,,,2,,,75,0
84228,note_on,48,0,1,,,,,,,,,0,,,79,0
84228,note_on,48,0,5,,,,,,,,,4,,,51,0
84228,note_on,48,0,2,,,,,,,,,1,,,79,0
84240,note_on,12,0,1,,,,,,,,,0,,,79,105
84240,note_on,12,0,4,,,,,,,,,3,,,70,105
84240,note_on,12,0,5,,,,,,,,,4,,,51,105
84240,note_on,12,0,2,,,,,,,,,1,,,79,105
84240,note_on,12,0,3,,,,,,,,,2,,,75,105
84288,note_on,48,0,5,,,,,,,,,4,,,51,0
84288,note_on,48,0,1,,,,,,,,,0,,,79,0
84288,note_on,48,0,2,,,,,,,,,1,,,79,0
84288,note_on,48,0,3,,,,,,,,,2,,,75,0
84288,note_on,48,0,4,,,,,,,,,3,,,70,0
84300,note_on,12,0,2,,,,,,,,,1,,,79,105
84300,note_on,12,0,3,,,,,,,,,2,,,75,105
84300,note_on,12,0,4,,,,,,,,,3,,,70,105
84300,note_on,12,0,5,,,,,,,,,4,,,51,105
84300,note_on,12,0,1,,,,,,,,,0,,,79,105
84348,note_on,48,0,5,,,,,,,,,4,,,51,0
84348,note_on,48,0,3,,,,,,,,,2,,,75,0
84348,note_on,48,0,2,,,,,,,,,1,,,79,0
84348,note_on,48,0,1,,,,,,,,,0,,,79,0
84348,note_on,48,0,4,,,,,,,,,3,,,70,0
84360,note_on,12,0,1,,,,,,,,,0,,,79,105
84360,note_on,12,0,2,,,,,,,,,1,,,79,105
84360,note_on,12,0,3,,,,,,,,,2,,,75,105
84360,note_on,12,0,4,,,,,,,,,3,,,70,105
84360,note_on,12,0,5,,,,,,,,,4,,,51,105
84408,note_on,48,0,2,,,,,,,,,1,,,79,0
84408,note_on,48,0,4,,,,,,,,,3,,,70,0
84408,note_on,48,0,3,,,,,,,,,2,,,75,0
84408,note_on,48,0,5,,,,,,,,,4,,,51,0
84408,note_on,48,0,1,,,,,,,,,0,,,79,0
84420,note_on,12,0,2,,,,,,,,,1,,,79,105
84420,note_on,12,0,4,,,,,,,,,3,,,70,105
84420,note_on,12,0,3,,,,,,,,,2,,,75,105
84420,note_on,12,0,1,,,,,,,,,0,,,79,105
84420,note_on,12,0,5,,,,,,,,,4,,,51,105
84468,note_on,48,0,2,,,,,,,,,1,,,79,0
84468,note_on,48,0,4,,,,,,,,,3,,,70,0
84468,note_on,48,0,5,,,,,,,,,4,,,51,0
84468,note_on,48,0,1,,,,,,,,,0,,,79,0
84468,note_on,48,0,3,,,,,,,,,2,,,75,0
84480,note_on,12,0,5,,,,,,,,,4,,,46,105
84480,note_on,12,0,4,,,,,,,,,3,,,62,105
84480,note_on,12,0,1,,,,,,,,,0,,,80,105
84480,note_on,12,0,2,,,,,,,,,1,,,80,105
84480,note_on,12,0,3,,,,,,,,,2,,,77,105
84528,note_on,48,0,3,,,,,,,,,2,,,77,0
84528,note_on,48,0,2,,,,,,,,,1,,,80,0
84528,note_on,48,0,1,,,,,,,,,0,,,80,0
84540,note_on,12,0,1,,,,,,,,,0,,,80,105
84540,note_on,12,0,3,,,,,,,,,2,,,77,105
84540,note_on,12,0,2,,,,,,,,,1,,,80,105
84576,note_on,96,0,4,,,,,,,,,3,,,62,0
84576,note_on,96,0,5,,,,,,,,,4,,,46,0
84588,note_on,48,0,3,,,,,,,,,2,,,77,0
84588,note_on,48,0,2,,,,,,,,,1,,,80,0
84588,note_on,48,0,1,,,,,,,,,0,,,80,0
84600,note_on,12,0,2,,,,,,,,,1,,,80,105
84600,note_on,24,0,4,,,,,,,,,3,,,63,105
84600,note_on,12,0,3,,,,,,,,,2,,,77,105
84600,note_on,24,0,5,,,,,,,,,4,,,48,105
84600,note_on,12,0,1,,,,,,,,,0,,,80,105
84648,note_on,48,0,1,,,,,,,,,0,,,80,0
84648,note_on,48,0,3,,,,,,,,,2,,,77,0
84648,note_on,48,0,4,,,,,,,,,3,,,63,0
84648,note_on,48,0,2,,,,,,,,,1,,,80,0
84648,note_on,48,0,5,,,,,,,,,4,,,48,0
84660,note_on,12,0,4,,,,,,,,,3,,,65,105
84660,note_on,12,0,5,,,,,,,,,4,,,50,105
84660,note_on,12,0,3,,,,,,,,,2,,,77,105
84660,note_on,12,0,1,,,,,,,,,0,,,80,105
84660,note_on,12,0,2,,,,,,,,,1,,,80,105
84708,note_on,48,0,1,,,,,,,,,0,,,80,0
84708,note_on,48,0,2,,,,,,,,,1,,,80,0
84708,note_on,48,0,5,,,,,,,,,4,,,50,0
84708,note_on,48,0,4,,,,,,,,,3,,,65,0
84708,note_on,48,0,3,,,,,,,,,2,,,77,0
84720,note_on,12,0,5,,,,,,,,,4,,,51,105
84720,note_on,12,0,4,,,,,,,,,3,,,67,105
84720,note_on,12,0,1,,,,,,,,,0,,,79,105
84720,note_on,12,0,3,,,,,,,,,2,,,75,105
84720,note_on,12,0,2,,,,,,,,,1,,,79,105
84768,note_on,48,0,4,,,,,,,,,3,,,67,0
84768,note_on,48,0,5,,,,,,,,,4,,,51,0
84768,note_on,48,0,1,,,,,,,,,0,,,79,0
84768,note_on,48,0,3,,,,,,,,,2,,,75,0
84768,note_on,48,0,2,,,,,,,,,1,,,79,0
84780,note_on,12,0,3,,,,,,,,,2,,,75,105
84780,note_on,12,0,5,,,,,,,,,4,,,53,105
84780,note_on,12,0,4,,,,,,,,,3,,,68,105
84780,note_on,12,0,1,,,,,,,,,0,,,79,105
84780,note_on,12,0,2,,,,,,,,,1,,,79,105
84828,note_on,48,0,5,,,,,,,,,4,,,53,0
84828,note_on,48,0,4,,,,,,,,,3,,,68,0
84828,note_on,48,0,1,,,,,,,,,0,,,79,0
84828,note_on,48,0,3,,,,,,,,,2,,,75,0
84828,note_on,48,0,2,,,,,,,,,1,,,79,0
84840,note_on,12,0,1,,,,,,,,,0,,,79,105
84840,note_on,12,0,3,,,,,,,,,2,,,75,105
84840,note_on,12,0,2,,,,,,,,,1,,,79,105
84840,note_on,12,0,4,,,,,,,,,3,,,70,105
84840,note_on,12,0,5,,,,,,,,,4,,,55,105
84888,note_on,48,0,4,,,,,,,,,3,,,70,0
84888,note_on,48,0,1,,,,,,,,,0,,,79,0
84888,note_on,48,0,5,,,,,,,,,4,,,55,0
84888,note_on,48,0,3,,,,,,,,,2,,,75,0
84888,note_on,48,0,2,,,,,,,,,1,,,79,0
84900,note_on,12,0,4,,,,,,,,,3,,,72,105
84900,note_on,12,0,3,,,,,,,,,2,,,75,105
84900,note_on,12,0,1,,,,,,,,,0,,,79,105
84900,note_on,12,0,5,,,,,,,,,4,,,56,105
84900,note_on,12,0,2,,,,,,,,,1,,,79,105
84948,note_on,48,0,1,,,,,,,,,0,,,79,0
84948,note_on,48,0,4,,,,,,,,,3,,,72,0
84948,note_on,48,0,5,,,,,,,,,4,,,56,0
84948,note_on,48,0,2,,,,,,,,,1,,,79,0
84948,note_on,48,0,3,,,,,,,,,2,,,75,0
84960,note_on,12,0,3,,,,,,,,,2,,,74,105
84960,note_on,12,0,1,,,,,,,,,0,,,77,105
84960,note_on,12,0,2,,,,,,,,,1,,,77,105
84960,note_on,12,0,5,,,,,,,,,4,,,58,105
84960,note_on,12,0,4,,,,,,,,,3,,,65,105
85008,note_on,48,0,3,,,,,,,,,2,,,74,0
85008,note_on,48,0,1,,,,,,,,,0,,,77,0
85008,note_on,48,0,2,,,,,,,,,1,,,77,0
85020,note_on,12,0,3,,,,,,,,,2,,,74,105
85020,note_on,12,0,1,,,,,,,,,0,,,77,105
85020,note_on,12,0,2,,,,,,,,,1,,,77,105
85056,note_on,96,0,5,,,,,,,,,4,,,58,0
85056,note_on,96,0,4,,,,,,,,,3,,,65,0
85068,note_on,48,0,2,,,,,,,,,1,,,77,0
85068,note_on,48,0,3,,,,,,,,,2,,,74,0
85068,note_on,48,0,1,,,,,,,,,0,,,77,0
85080,note_on,24,0,5,,,,,,,,,4,,,46,105
85080,note_on,12,0,2,,,,,,,,,1,,,77,105
85080,note_on,12,0,3,,,,,,,,,2,,,74,105
85080,note_on,24,0,4,,,,,,,,,3,,,65,105
85080,note_on,12,0,1,,,,,,,,,0,,,77,105
85128,note_on,48,0,2,,,,,,,,,1,,,77,0
85128,note_on,48,0,3,,,,,,,,,2,,,74,0
85128,note_on,48,0,1,,,,,,,,,0,,,77,0
85140,note_on,12,0,2,,,,,,,,,1,,,77,105
85140,note_on,12,0,1,,,,,,,,,0,,,77,105
85140,note_on,12,0,3,,,,,,,,,2,,,74,105
85176,note_on,96,0,4,,,,,,,,,3,,,65,0
85176,note_on,96,0,5,,,,,,,,,4,,,46,0
85188,note_on,48,0,3,,,,,,,,,2,,,74,0
85188,note_on,48,0,2,,,,,,,,,1,,,77,0
85188,note_on,48,0,1,,,,,,,,,0,,,77,0
85200,note_on,12,0,2,,,,,,,,,1,,,79,105
85200,note_on,24,0,4,,,,,,,,,3,,,63,105
85200,note_on,24,0,5,,,,,,,,,4,,,46,105
85200,note_on,12,0,3,,,,,,,,,2,,,75,105
85200,note_on,12,0,1,,,,,,,,,0,,,79,105
85248,note_on,48,0,1,,,,,,,,,0,,,79,0
85248,note_on,48,0,2,,,,,,,,,1,,,79,0
85248,note_on,48,0,3,,,,,,,,,2,,,75,0
85260,note_on,12,0,2,,,,,,,,,1,,,79,105
85260,note_on,12,0,3,,,,,,,,,2,,,75,105
85260,note_on,12,0,1,,,,,,,,,0,,,79,105
85296,note_on,96,0,5,,,,,,,,,4,,,46,0
85296,note_on,96,0,4,,,,,,,,,3,,,63,0
85308,note_on,48,0,1,,,,,,,,,0,,,79,0
85308,note_on,48,0,3,,,,,,,,,2,,,75,0
85308,note_on,48,0,2,,,,,,,,,1,,,79,0
85320,note_on,12,0,1,,,,,,,,,0,,,79,105
85320,note_on,24,0,4,,,,,,,,,3,,,63,105
85320,note_on,12,0,2,,,,,,,,,1,,,79,105
85320,note_on,24,0,5,,,,,,,,,4,,,46,105
85320,note_on,12,0,3,,,,,,,,,2,,,75,105
85368,note_on,48,0,1,,,,,,,,,0,,,79,0
85368,note_on,48,0,2,,,,,,,,,1,,,79,0
85368,note_on,48,0,3,,,,,,,,,2,,,75,0
85380,note_on,12,0,2,,,,,,,,,1,,,79,105
85380,note_on,12,0,3,,,,,,,,,2,,,75,105
85380,note_on,12,0,1,,,,,,,,,0,,,79,105
85416,note_on,96,0,5,,,,,,,,,4,,,46,0
85416,note_on,96,0,4,,,,,,,,,3,,,63,0
85428,note_on,48,0,2,,,,,,,,,1,,,79,0
85428,note_on,48,0,1,,,,,,,,,0,,,79,0
85428,note_on,48,0,3,,,,,,,,,2,,,75,0
85440,note_on,12,0,2,,,,,,,,,1,,,80,105
85440,note_on,24,0,5,,,,,,,,,4,,,46,105
85440,note_on,12,0,1,,,,,,,,,0,,,80,105
85440,note_on,24,0,4,,,,,,,,,3,,,62,105
85440,note_on,12,0,3,,,,,,,,,2,,,77,105
85488,note_on,48,0,1,,,,,,,,,0,,,80,0
85488,note_on,48,0,3,,,,,,,,,2,,,77,0
85488,note_on,48,0,2,,,,,,,,,1,,,80,0
85500,note_on,12,0,1,,,,,,,,,0,,,80,105
85500,note_on,12,0,2,,,,,,,,,1,,,80,105
85500,note_on,12,0,3,,,,,,,,,2,,,77,105
85536,note_on,96,0,5,,,,,,,,,4,,,46,0
85536,note_on,96,0,4,,,,,,,,,3,,,62,0
85548,note_on,48,0,2,,,,,,,,,1,,,80,0
85548,note_on,48,0,3,,,,,,,,,2,,,77,0
85548,note_on,48,0,1,,,,,,,,,0,,,80,0
85560,note_on,12,0,1,,,,,,,,,0,,,80,105
85560,note_on,24,0,5,,,,,,,,,4,,,48,105
85560,note_on,12,0,3,,,,,,,,,2,,,77,105
85560,note_on,24,0,4,,,,,,,,,3,,,63,105
85560,note_on,12,0,2,,,,,,,,,1,,,80,105
85608,note_on,48,0,4,,,,,,,,,3,,,63,0
85608,note_on,48,0,3,,,,,,,,,2,,,77,0
85608,note_on,48,0,5,,,,,,,,,4,,,48,0
85608,note_on,48,0,2,,,,,,,,,1,,,80,0
85608,note_on,48,0,1,,,,,,,,,0,,,80,0
85620,note_on,12,0,3,,,,,,,,,2,,,77,105
85620,note_on,12,0,5,,,,,,,,,4,,,50,105
85620,note_on,12,0,1,,,,,,,,,0,,,80,105
85620,note_on,12,0,2,,,,,,,,,1,,,80,105
85620,note_on,12,0,4,,,,,,,,,3,,,65,105
85668,note_on,48,0,1,,,,,,,,,0,,,80,0
85668,note_on,48,0,5,,,,,,,,,4,,,50,0
85668,note_on,48,0,4,,,,,,,,,3,,,65,0
85668,note_on,48,0,2,,,,,,,,,1,,,80,0
85668,note_on,48,0,3,,,,,,,,,2,,,77,0
85680,note_on,12,0,3,,,,,,,,,2,,,75,105
85680,note_on,12,0,1,,,,,,,,,0,,,79,105
85680,note_on,12,0,4,,,,,,,,,3,,,67,105
85680,note_on,12,0,5,,,,,,,,,4,,,51,105
85680,note_on,12,0,2,,,,,,,,,1,,,79,105
85728,note_on,48,0,4,,,,,,,,,3,,,67,0
85728,note_on,48,0,5,,,,,,,,,4,,,51,0
85728,note_on,48,0,2,,,,,,,,,1,,,79,0
85728,note_on,48,0,3,,,,,,,,,2,,,75,0
85728,note_on,48,0,1,,,,,,,,,0,,,79,0
85740,note_on,12,0,5,,,,,,,,,4,,,53,105
85740,note_on,12,0,3,,,,,,,,,2,,,75,105
85740,note_on,12,0,1,,,,,,,,,0,,,79,105
85740,note_on,12,0,2,,,,,,,,,1,,,79,105
85740,note_on,12,0,4,,,,,,,,,3,,,68,105
85788,note_on,48,0,2,,,,,,,,,1,,,79,0
85788,note_on,48,0,3,,,,,,,,,2,,,75,0
85788,note_on,48,0,5,,,,,,,,,4,,,53,0
85788,note_on,48,0,4,,,,,,,,,3,,,68,0
85788,note_on,48,0,1,,,,,,,,,0,,,79,0
85800,note_on,12,0,3,,,,,,,,,2,,,75,105
85800,note_on,12,0,4,,,,,,,,,3,,,70,105
85800,note_on,12,0,1,,,,,,,,,0,,,79,105
85800,note_on,12,0,5,,,,,,,,,4,,,55,105
85800,note_on,12,0,2,,,,,,,,,1,,,79,105
85848,note_on,48,0,3,,,,,,,,,2,,,75,0
85848,note_on,48,0,1,,,,,,,,,0,,,79,0
85848,note_on,48,0,2,,,,,,,,,1,,,79,0
85848,note_on,48,0,4,,,,,,,,,3,,,70,0
85848,note_on,48,0,5,,,,,,,,,4,,,55,0
85860,note_on,12,0,5,,,,,,,,,4,,,56,105
85860,note_on,12,0,2,,,,,,,,,1,,,79,105
85860,note_on,12,0,3,,,,,,,,,2,,,75,105
85860,note_on,12,0,4,,,,,,,,,3,,,72,105
85860,note_on,12,0,1,,,,,,,,,0,,,79,105
85908,note_on,48,0,5,,,,,,,,,4,,,56,0
85908,note_on,48,0,2,,,,,,,,,1,,,79,0
85908,note_on,48,0,3,,,,,,,,,2,,,75,0
85908,note_on,48,0,4,,,,,,,,,3,,,72,0
85908,note_on,48,0,1,,,,,,,,,0,,,79,0
85920,note_on,12,0,1,,,,,,,,,0,,,77,105
85920,note_on,12,0,3,,,,,,,,,2,,,74,105
85920,note_on,12,0,4,,,,,,,,,3,,,65,105
85920,note_on,12,0,2,,,,,,,,,1,,,77,105
85920,note_on,12,0,5,,,,,,,,,4,,,58,105
85968,note_on,48,0,1,,,,,,,,,0,,,77,0
85968,note_on,48,0,3,,,,,,,,,2,,,74,0
85968,note_on,48,0,2,,,,,,,,,1,,,77,0
85980,note_on,12,0,1,,,,,,,,,0,,,77,105
85980,note_on,12,0,3,,,,,,,,,2,,,74,105
85980,note_on,12,0,2,,,,,,,,,1,,,77,105
86016,note_on,96,0,4,,,,,,,,,3,,,65,0
86016,note_on,96,0,5,,,,,,,,,4,,,58,0
86028,note_on,48,0,1,,,,,,,,,0,,,77,0
86028,note_on,48,0,3,,,,,,,,,2,,,74,0
86028,note_on,48,0,2,,,,,,,,,1,,,77,0
86040,note_on,12,0,3,,,,,,,,,2,,,74,105
86040,note_on,24,0,5,,,,,,,,,4,,,46,105
86040,note_on,24,0,4,,,,,,,,,3,,,65,105
86040,note_on,12,0,1,,,,,,,,,0,,,77,105
86040,note_on,12,0,2,,,,,,,,,1,,,77,105
86088,note_on,48,0,3,,,,,,,,,2,,,74,0
86088,note_on,48,0,1,,,,,,,,,0,,,77,0
86088,note_on,48,0,2,,,,,,,,,1,,,77,0
86100,note_on,12,0,3,,,,,,,,,2,,,74,105
86100,note_on,12,0,1,,,,,,,,,0,,,77,105
86100,note_on,12,0,2,,,,,,,,,1,,,77,105
86136,note_on,96,0,5,,,,,,,,,4,,,46,0
86136,note_on,96,0,4,,,,,,,,,3,,,65,0
86148,note_on,48,0,3,,,,,,,,,2,,,74,0
86148,note_on,48,0,1,,,,,,,,,0,,,77,0
86148,note_on,48,0,2,,,,,,,,,1,,,77,0
86160,note_on,12,0,2,,,,,,,,,1,,,79,105
86160,note_on,12,0,3,,,,,,,,,2,,,75,105
86160,note_on,24,0,5,,,,,,,,,4,,,46,105
86160,note_on,24,0,4,,,,,,,,,3,,,63,105
86160,note_on,12,0,1,,,,,,,,,0,,,79,105
86208,note_on,48,0,2,,,,,,,,,1,,,79,0
86208,note_on,48,0,3,,,,,,,,,2,,,75,0
86208,note_on,48,0,1,,,,,,,,,0,,,79,0
86220,note_on,12,0,2,,,,,,,,,1,,,79,105
86220,note_on,12,0,1,,,,,,,,,0,,,79,105
86220,note_on,12,0,3,,,,,,,,,2,,,75,105
86256,note_on,96,0,4,,,,,,,,,3,,,63,0
86256,note_on,96,0,5,,,,,,,,,4,,,46,0
86268,note_on,48,0,2,,,,,,,,,1,,,79,0
86268,note_on,48,0,3,,,,,,,,,2,,,75,0
86268,note_on,48,0,1,,,,,,,,,0,,,79,0
86280,note_on,12,0,3,,,,,,,,,2,,,75,105
86280,note_on,12,0,1,,,,,,,,,0,,,79,105
86280,note_on,24,0,4,,,,,,,,,3,,,63,105
86280,note_on,12,0,2,,,,,,,,,1,,,79,105
86280,note_on,24,0,5,,,,,,,,,4,,,46,105
86328,note_on,48,0,3,,,,,,,,,2,,,75,0
86328,note_on,48,0,1,,,,,,,,,0,,,79,0
86328,note_on,48,0,2,,,,,,,,,1,,,79,0
86340,note_on,12,0,1,,,,,,,,,0,,,79,105
86340,note_on,12,0,2,,,,,,,,,1,,,79,105
86340,note_on,12,0,3,,,,,,,,,2,,,75,105
86376,note_on,96,0,5,,,,,,,,,4,,,46,0
86376,note_on,96,0,4,,,,,,,,,3,,,63,0
86388,note_on,48,0,2,,,,,,,,,1,,,79,0
86388,note_on,48,0,3,,,,,,,,,2,,,75,0
86388,note_on,48,0,1,,,,,,,,,0,,,79,0
86400,note_on,12,0,1,,,,,,,,,0,,,80,105
86400,note_on,24,0,5,,,,,,,,,4,,,46,105
86400,note_on,12,0,3,,,,,,,,,2,,,77,105
86400,note_on,12,0,2,,,,,,,,,1,,,80,105
86400,note_on,24,0,4,,,,,,,,,3,,,62,105
86448,note_on,48,0,2,,,,,,,,,1,,,80,0
86448,note_on,48,0,3,,,,,,,,,2,,,77,0
86448,note_on,48,0,1,,,,,,,,,0,,,80,0
86460,note_on,12,0,3,,,,,,,,,2,,,77,105
86460,note_on,12,0,1,,,,,,,,,0,,,80,105
86460,note_on,12,0,2,,,,,,,,,1,,,80,105
86496,note_on,96,0,4,,,,,,,,,3,,,62,0
86496,note_on,96,0,5,,,,,,,,,4,,,46,0
86508,note_on,48,0,2,,,,,,,,,1,,,80,0
86508,note_on,48,0,3,,,,,,,,,2,,,77,0
86508,note_on,48,0,1,,,,,,,,,0,,,80,0
86520,note_on,12,0,2,,,,,,,,,1,,,80,105
86520,note_on,24,0,5,,,,,,,,,4,,,48,105
86520,note_on,12,0,3,,,,,,,,,2,,,77,105
86520,note_on,12,0,1,,,,,,,,,0,,,80,105
86520,note_on,24,0,4,,,,,,,,,3,,,63,105
86568,note_on,48,0,1,,,,,,,,,0,,,80,0
86568,note_on,48,0,3,,,,,,,,,2,,,77,0
86568,note_on,48,0,5,,,,,,,,,4,,,48,0
86568,note_on,48,0,4,,,,,,,,,3,,,63,0
86568,note_on,48,0,2,,,,,,,,,1,,,80,0
86580,note_on,12,0,1,,,,,,,,,0,,,80,105
86580,note_on,12,0,3,,,,,,,,,2,,,77,105
86580,note_on,12,0,4,,,,,,,,,3,,,65,105
86580,note_on,12,0,5,,,,,,,,,4,,,50,105
86580,note_on,12,0,2,,,,,,,,,1,,,80,105
86628,note_on,48,0,4,,,,,,,,,3,,,65,0
86628,note_on,48,0,1,,,,,,,,,0,,,80,0
86628,note_on,48,0,3,,,,,,,,,2,,,77,0
86628,note_on,48,0,5,,,,,,,,,4,,,50,0
86628,note_on,48,0,2,,,,,,,,,1,,,80,0
86640,note_on,12,0,5,,,,,,,,,4,,,51,105
86640,note_on,12,0,4,,,,,,,,,3,,,67,105
86640,note_on,12,0,3,,,,,,,,,2,,,75,105
86640,note_on,12,0,1,,,,,,,,,0,,,79,105
86640,note_on,12,0,2,,,,,,,,,1,,,79,105
86688,note_on,48,0,1,,,,,,,,,0,,,79,0
86688,note_on,48,0,2,,,,,,,,,1,,,79,0
86688,note_on,48,0,5,,,,,,,,,4,,,51,0
86688,note_on,48,0,3,,,,,,,,,2,,,75,0
86688,note_on,48,0,4,,,,,,,,,3,,,67,0
86700,note_on,12,0,2,,,,,,,,,1,,,79,105
86700,note_on,12,0,5,,,,,,,,,4,,,53,105
86700,note_on,12,0,3,,,,,,,,,2,,,75,105
86700,note_on,12,0,1,,,,,,,,,0,,,79,105
86700,note_on,12,0,4,,,,,,,,,3,,,68,105
86748,note_on,48,0,2,,,,,,,,,1,,,79,0
86748,note_on,48,0,1,,,,,,,,,0,,,79,0
86748,note_on,48,0,5,,,,,,,,,4,,,53,0
86748,note_on,48,0,3,,,,,,,,,2,,,75,0
86748,note_on,48,0,4,,,,,,,,,3,,,68,0
86760,note_on,12,0,2,,,,,,,,,1,,,79,105
86760,note_on,12,0,5,,,,,,,,,4,,,55,105
86760,note_on,12,0,3,,,,,,,,,2,,,75,105
86760,note_on,12,0,1,,,,,,,,,0,,,79,105
86760,note_on,12,0,4,,,,,,,,,3,,,70,105
86808,note_on,48,0,5,,,,,,,,,4,,,55,0
86808,note_on,48,0,3,,,,,,,,,2,,,75,0
86808,note_on,48,0,4,,,,,,,,,3,,,70,0
86808,note_on,48,0,1,,,,,,,,,0,,,79,0
86808,note_on,48,0,2,,,,,,,,,1,,,79,0
86820,note_on,12,0,3,,,,,,,,,2,,,75,105
86820,note_on,12,0,4,,,,,,,,,3,,,72,105
86820,note_on,12,0,2,,,,,,,,,1,,,79,105
86820,note_on,12,0,5,,,,,,,,,4,,,56,105
86820,note_on,12,0,1,,,,,,,,,0,,,79,105
86868,note_on,48,0,3,,,,,,,,,2,,,75,0
86868,note_on,48,0,5,,,,,,,,,4,,,56,0
86868,note_on,48,0,4,,,,,,,,,3,,,72,0
86868,note_on,48,0,1,,,,,,,,,0,,,79,0
86868,note_on,48,0,2,,,,,,,,,1,,,79,0
86880,note_on,12,0,1,,,,,,,,,0,,,77,105
86880,note_on,12,0,5,,,,,,,,,4,,,58,105
86880,note_on,12,0,4,,,,,,,,,3,,,65,105
86880,note_on,12,0,3,,,,,,,,,2,,,74,105
86880,note_on,12,0,2,,,,,,,,,1,,,77,105
86976,note_on,96,0,5,,,,,,,,,4,,,58,0
87000,note_on,24,0,5,,,,,,,,,4,,,56,105
87048,note_on,48,0,5,,,,,,,,,4,,,56,0
87060,note_on,12,0,5,,,,,,,,,4,,,55,105
87072,note_on,192,0,1,,,,,,,,,0,,,77,0
87072,note_on,192,0,4,,,,,,,,,3,,,65,0
87072,note_on,192,0,3,,,,,,,,,2,,,74,0
87072,note_on,192,0,2,,,,,,,,,1,,,77,0
87108,note_on,48,0,5,,,,,,,,,4,,,55,0
87120,note_on,12,0,5,,,,,,,,,4,,,53,105
87120,set_tempo,3120,1,0,,,,,,560748,,,,,,,
87168,note_on,48,0,5,,,,,,,,,4,,,53,0
87180,note_on,12,0,5,,,,,,,,,4,,,51,105
87228,note_on,48,0,5,,,,,,,,,4,,,51,0
87240,note_on,12,0,5,,,,,,,,,4,,,50,105
87288,note_on,48,0,5,,,,,,,,,4,,,50,0
87300,note_on,12,0,5,,,,,,,,,4,,,48,105
87348,note_on,48,0,5,,,,,,,,,4,,,48,0
87360,set_tempo,240,1,0,,,,,,588235,,,,,,,
87360,note_on,12,0,5,,,,,,,,,4,,,46,105
87360,note_on,288,0,1,,,,,,,,,0,,,82,105
87360,note_on,288,0,3,,,,,,,,,2,,,58,105
87360,note_on,288,0,4,,,,,,,,,3,,,62,105
87360,note_on,288,0,2,,,,,,,,,1,,,82,105
87456,note_on,96,0,3,,,,,,,,,2,,,58,0
87456,note_on,96,0,4,,,,,,,,,3,,,62,0
87456,note_on,96,0,2,,,,,,,,,1,,,82,0
87456,note_on,96,0,1,,,,,,,,,0,,,82,0
87456,note_on,96,0,5,,,,,,,,,4,,,46,0
87480,note_on,24,0,4,,,,,,,,,3,,,62,105
87480,note_on,24,0,5,,,,,,,,,4,,,46,105
87480,note_on,24,0,2,,,,,,,,,1,,,80,105
87480,note_on,24,0,1,,,,,,,,,0,,,80,105
87480,note_on,24,0,3,,,,,,,,,2,,,60,105
87528,note_on,48,0,2,,,,,,,,,1,,,80,0
87528,note_on,48,0,3,,,,,,,,,2,,,60,0
87528,note_on,48,0,1,,,,,,,,,0,,,80,0
87540,note_on,12,0,1,,,,,,,,,0,,,79,105
87540,note_on,12,0,2,,,,,,,,,1,,,79,105
87540,note_on,12,0,3,,,,,,,,,2,,,62,105
87576,note_on,96,0,5,,,,,,,,,4,,,46,0
87576,note_on,96,0,4,,,,,,,,,3,,,62,0
87588,note_on,48,0,2,,,,,,,,,1,,,79,0
87588,note_on,48,0,1,,,,,,,,,0,,,79,0
87588,note_on,48,0,3,,,,,,,,,2,,,62,0
87600,set_tempo,240,1,0,,,,,,618557,,,,,,,
87600,note_on,12,0,1,,,,,,,,,0,,,77,105
87600,note_on,12,0,2,,,,,,,,,1,,,77,105
87600,note_on,12,0,3,,,,,,,,,2,,,63,105
87600,note_on,24,0,4,,,,,,,,,3,,,62,105
87600,note_on,24,0,5,,,,,,,,,4,,,46,105
87648,note_on,48,0,2,,,,,,,,,1,,,77,0
87648,note_on,48,0,3,,,,,,,,,2,,,63,0
87648,note_on,48,0,1,,,,,,,,,0,,,77,0
87660,note_on,12,0,3,,,,,,,,,2,,,65,105
87660,note_on,12,0,2,,,,,,,,,1,,,75,105
87660,note_on,12,0,1,,,,,,,,,0,,,75,105
87696,note_on,96,0,4,,,,,,,,,3,,,62,0
87696,note_on,96,0,5,,,,,,,,,4,,,46,0
87708,note_on,48,0,1,,,,,,,,,0,,,75,0
87708,note_on,48,0,3,,,,,,,,,2,,,65,0
87708,note_on,48,0,2,,,,,,,,,1,,,75,0
87720,note_on,24,0,5,,,,,,,,,4,,,46,105
87720,note_on,12,0,1,,,,,,,,,0,,,74,105
87720,note_on,12,0,3,,,,,,,,,2,,,67,105
87720,note_on,12,0,2,,,,,,,,,1,,,74,105
87720,note_on,24,0,4,,,,,,,,,3,,,62,105
87768,note_on,48,0,3,,,,,,,,,2,,,67,0
87768,note_on,48,0,1,,,,,,,,,0,,,74,0
87768,note_on,48,0,2,,,,,,,,,1,,,74,0
87780,note_on,12,0,1,,,,,,,,,0,,,72,105
87780,note_on,12,0,3,,,,,,,,,2,,,68,105
87780,note_on,12,0,2,,,,,,,,,1,,,72,105
87816,note_on,96,0,4,,,,,,,,,3,,,62,0
87816,note_on,96,0,5,,,,,,,,,4,,,46,0
87828,note_on,48,0,3,,,,,,,,,2,,,68,0
87828,note_on,48,0,2,,,,,,,,,1,,,72,0
87828,note_on,48,0,1,,,,,,,,,0,,,72,0
87840,note_on,12,0,1,,,,,,,,,0,,,70,105
87840,note_on,12,0,3,,,,,,,,,2,,,70,105
87840,note_on,24,0,4,,,,,,,,,3,,,62,105
87840,note_on,12,0,2,,,,,,,,,1,,,70,105
87840,note_on,24,0,5,,,,,,,,,4,,,46,105
87840,set_tempo,240,1,0,,,,,,652174,,,,,,,
87936,note_on,96,0,4,,,,,,,,,3,,,62,0
87936,note_on,96,0,5,,,,,,,,,4,,,46,0
87936,note_on,96,0,1,,,,,,,,,0,,,70,0
87936,note_on,96,0,3,,,,,,,,,2,,,70,0
87936,note_on,96,0,2,,,,,,,,,1,,,70,0
87960,note_on,24,0,4,,,,,,,,,3,,,62,105
87960,note_on,24,0,2,,,,,,,,,1,,,68,105
87960,note_on,24,0,5,,,,,,,,,4,,,46,105
87960,note_on,24,0,1,,,,,,,,,0,,,68,105
87960,note_on,24,0,3,,,,,,,,,2,,,72,105
88008,note_on,48,0,2,,,,,,,,,1,,,68,0
88008,note_on,48,0,3,,,,,,,,,2,,,72,0
88008,note_on,48,0,1,,,,,,,,,0,,,68,0
88020,note_on,12,0,3,,,,,,,,,2,,,74,105
88020,note_on,12,0,2,,,,,,,,,1,,,67,105
88020,note_on,12,0,1,,,,,,,,,0,,,67,105
88056,note_on,96,0,5,,,,,,,,,4,,,46,0
88056,note_on,96,0,4,,,,,,,,,3,,,62,0
88068,note_on,48,0,3,,,,,,,,,2,,,74,0
88068,note_on,48,0,2,,,,,,,,,1,,,67,0
88068,note_on,48,0,1,,,,,,,,,0,,,67,0
88080,set_tempo,240,1,0,,,,,,689655,,,,,,,
88080,note_on,12,0,2,,,,,,,,,1,,,65,105
88080,note_on,24,0,4,,,,,,,,,3,,,62,105
88080,note_on,24,0,5,,,,,,,,,4,,,46,105
88080,note_on,0,0,4,,,,,,,,,3,,,62,105
88080,note_on,12,0,1,,,,,,,,,0,,,65,105
88080,note_on,12,0,3,,,,,,,,,2,,,75,105
88128,note_on,48,0,1,,,,,,,,,0,,,65,0
88128,note_on,48,0,3,,,,,,,,,2,,,75,0
88128,note_on,48,0,2,,,,,,,,,1,,,65,0
88140,note_on,12,0,3,,,,,,,,,2,,,77,105
88140,note_on,12,0,1,,,,,,,,,0,,,63,105
88140,note_on,12,0,2,,,,,,,,,1,,,63,105
88176,note_on,96,0,4,,,,,,,,,3,,,62,0
88176,note_on,96,0,5,,,,,,,,,4,,,46,0
88176,note_on,0,0,4,,,,,,,,,3,,,62,0
88188,note_on,48,0,1,,,,,,,,,0,,,63,0
88188,note_on,48,0,3,,,,,,,,,2,,,77,0
88188,note_on,48,0,2,,,,,,,,,1,,,63,0
88200,note_on,24,0,4,,,,,,,,,3,,,62,105
88200,note_on,12,0,1,,,,,,,,,0,,,62,105
88200,note_on,12,0,3,,,,,,,,,2,,,79,105
88200,note_on,24,0,5,,,,,,,,,4,,,46,105
88200,note_on,12,0,2,,,,,,,,,1,,,62,105
88248,note_on,48,0,1,,,,,,,,,0,,,62,0
88248,note_on,48,0,3,,,,,,,,,2,,,79,0
88248,note_on,48,0,2,,,,,,,,,1,,,62,0
88260,note_on,12,0,1,,,,,,,,,0,,,60,105
88260,note_on,12,0,3,,,,,,,,,2,,,80,105
88260,note_on,12,0,2,,,,,,,,,1,,,60,105
88296,note_on,96,0,5,,,,,,,,,4,,,46,0
88296,note_on,96,0,4,,,,,,,,,3,,,62,0
88308,note_on,48,0,1,,,,,,,,,0,,,60,0
88308,note_on,48,0,2,,,,,,,,,1,,,60,0
88308,note_on,48,0,3,,,,,,,,,2,,,80,0
88320,set_tempo,240,1,0,,,,,,731707,,,,,,,
88320,note_on,24,0,5,,,,,,,,,4,,,46,105
88320,note_on,12,0,3,,,,,,,,,2,,,82,105
88320,note_on,24,0,4,,,,,,,,,3,,,62,105
88320,note_on,12,0,2,,,,,,,,,1,,,58,105
88320,note_on,12,0,1,,,,,,,,,0,,,58,105
88512,note_on,192,0,1,,,,,,,,,0,,,58,0
88512,note_on,192,0,5,,,,,,,,,4,,,46,0
88512,note_on,192,0,3,,,,,,,,,2,,,82,0
88512,note_on,192,0,4,,,,,,,,,3,,,62,0
88512,note_on,192,0,2,,,,,,,,,1,,,58,0
88560,set_tempo,240,1,0,,,,,,779221,,,,,,,
88800,set_tempo,240,1,0,,,,,,535714,,,,,,,
89760,note_on,1248,0,5,,,,,,,,,4,,,48,72
89760,note_on,1248,0,4,,,,,,,,,3,,,64,72
89760,note_on,1248,0,1,,,,,,,,,0,,,82,72
89760,note_on,1248,0,3,,,,,,,,,2,,,79,72
89760,set_tempo,960,1,0,,,,,,1500000,,,,,,,
89760,note_on,1248,0,2,,,,,,,,,1,,,82,72
89777,set_tempo,17,1,0,,,,,,1621622,,,,,,,
89794,set_tempo,17,1,0,,,,,,1764706,,,,,,,
89811,set_tempo,17,1,0,,,,,,1935484,,,,,,,
89828,set_tempo,17,1,0,,,,,,2142857,,,,,,,
89856,note_on,96,0,5,,,,,,,,,4,,,48,0
89856,note_on,96,0,3,,,,,,,,,2,,,79,0
89856,note_on,96,0,2,,,,,,,,,1,,,82,0
89856,note_on,96,0,1,,,,,,,,,0,,,82,0
89880,note_on,24,0,3,,,,,,,,,2,,,67,72
89880,note_on,24,0,1,,,,,,,,,0,,,70,72
89880,note_on,24,0,2,,,,,,,,,1,,,70,72
89880,note_on,24,0,5,,,,,,,,,4,,,60,72
89952,note_on,72,0,2,,,,,,,,,1,,,70,0
89952,note_on,72,0,1,,,,,,,,,0,,,70,0
89952,note_on,72,0,3,,,,,,,,,2,,,67,0
89970,note_on,18,0,1,,,,,,,,,0,,,68,72
89970,note_on,18,0,2,,,,,,,,,1,,,68,72
89970,note_on,18,0,3,,,,,,,,,2,,,65,72
89976,note_on,96,0,5,,,,,,,,,4,,,60,0
89994,note_on,24,0,1,,,,,,,,,0,,,68,0
89994,note_on,24,0,2,,,,,,,,,1,,,68,0
89994,note_on,24,0,3,,,,,,,,,2,,,65,0
90000,note_on,6,0,1,,,,,,,,,0,,,67,72
90000,note_on,6,0,2,,,,,,,,,1,,,67,72
90000,note_on,6,0,3,,,,,,,,,2,,,64,72
90000,note_on,24,0,5,,,,,,,,,4,,,60,72
90048,note_on,288,0,4,,,,,,,,,3,,,64,0
90096,note_on,96,0,5,,,,,,,,,4,,,60,0
90096,note_on,96,0,2,,,,,,,,,1,,,67,0
90096,note_on,96,0,1,,,,,,,,,0,,,67,0
90096,note_on,96,0,3,,,,,,,,,2,,,64,0
90120,note_on,24,0,5,,,,,,,,,4,,,48,72
90120,note_on,24,0,2,,,,,,,,,1,,,82,72
90120,note_on,24,0,1,,,,,,,,,0,,,82,72
90120,note_on,72,0,4,,,,,,,,,3,,,64,72
90120,note_on,24,0,3,,,,,,,,,2,,,79,72
90216,note_on,96,0,1,,,,,,,,,0,,,82,0
90216,note_on,96,0,4,,,,,,,,,3,,,64,0
90216,note_on,96,0,5,,,,,,,,,4,,,48,0
90216,note_on,96,0,2,,,,,,,,,1,,,82,0
90216,note_on,96,0,3,,,,,,,,,2,,,79,0
90240,note_on,24,0,3,,,,,,,,,2,,,77,72
90240,note_on,24,0,5,,,,,,,,,4,,,41,72
90240,note_on,24,0,2,,,,,,,,,1,,,80,72
90240,note_on,24,0,4,,,,,,,,,3,,,60,72
90240,note_on,24,0,1,,,,,,,,,0,,,80,72
90336,note_on,96,0,1,,,,,,,,,0,,,80,0
90360,note_on,24,0,1,,,,,,,,,0,,,72,72
90432,note_on,192,0,3,,,,,,,,,2,,,77,0
90432,note_on,192,0,5,,,,,,,,,4,,,41,0
90432,note_on,192,0,2,,,,,,,,,1,,,80,0
90432,note_on,192,0,4,,,,,,,,,3,,,60,0
90480,note_on,120,0,1,,,,,,,,,0,,,72,0
90480,note_on,0,0,1,,,,,,,,,0,,,77,72
90600,note_on,120,0,1,,,,,,,,,0,,,77,0
90600,note_on,0,0,1,,,,,,,,,0,,,80,72
90720,note_on,120,0,1,,,,,,,,,0,,,80,0
90720,note_on,0,0,1,,,,,,,,,0,,,84,72
90744,note_on,24,0,1,,,,,,,,,0,,,84,0
90750,note_on,6,0,1,,,,,,,,,0,,,89,72
90780,note_on,30,0,1,,,,,,,,,0,,,89,0
90780,note_on,0,0,1,,,,,,,,,0,,,87,72
90804,note_on,24,0,1,,,,,,,,,0,,,87,0
90810,note_on,6,0,1,,,,,,,,,0,,,86,72
90840,note_on,0,0,1,,,,,,,,,0,,,84,72
90840,note_on,30,0,1,,,,,,,,,0,,,86,0
90864,note_on,24,0,1,,,,,,,,,0,,,84,0
90870,note_on,6,0,1,,,,,,,,,0,,,82,72
90900,note_on,30,0,1,,,,,,,,,0,,,82,0
90900,note_on,0,0,1,,,,,,,,,0,,,80,72
90924,note_on,24,0,1,,,,,,,,,0,,,80,0
90930,note_on,6,0,1,,,,,,,,,0,,,79,72
90960,note_on,30,0,1,,,,,,,,,0,,,79,0
90960,note_on,0,0,1,,,,,,,,,0,,,77,72
91008,note_on,48,0,1,,,,,,,,,0,,,77,0
91020,note_on,12,0,1,,,,,,,,,0,,,72,72
91080,note_on,60,0,1,,,,,,,,,0,,,72,0
91080,note_on,0,0,1,,,,,,,,,0,,,77,72
91140,note_on,60,0,1,,,,,,,,,0,,,77,0
91140,note_on,0,0,1,,,,,,,,,0,,,79,72
91200,note_on,768,0,3,,,,,,,,,2,,,77,72
91200,note_on,768,0,2,,,,,,,,,1,,,80,72
91200,note_on,0,0,1,,,,,,,,,0,,,80,72
91200,note_on,60,0,1,,,,,,,,,0,,,79,0
91200,note_on,768,0,4,,,,,,,,,3,,,62,72
91200,note_on,768,0,5,,,,,,,,,4,,,46,72
91296,note_on,96,0,5,,,,,,,,,4,,,46,0
91296,note_on,96,0,1,,,,,,,,,0,,,80,0
91296,note_on,96,0,3,,,,,,,,,2,,,77,0
91296,note_on,96,0,2,,,,,,,,,1,,,80,0
91320,note_on,24,0,3,,,,,,,,,2,,,62,72
91320,note_on,24,0,5,,,,,,,,,4,,,58,72
91320,note_on,24,0,2,,,,,,,,,1,,,65,72
91320,note_on,24,0,1,,,,,,,,,0,,,65,72
91392,note_on,72,0,2,,,,,,,,,1,,,65,0
91392,note_on,72,0,3,,,,,,,,,2,,,62,0
91410,note_on,18,0,3,,,,,,,,,2,,,60,72
91410,note_on,18,0,2,,,,,,,,,1,,,63,72
91410,note_on,0,0,1,,,,,,,,,0,,,63,72
91410,note_on,90,0,1,,,,,,,,,0,,,65,0
91416,note_on,96,0,5,,,,,,,,,4,,,58,0
91434,note_on,24,0,3,,,,,,,,,2,,,60,0
91434,note_on,24,0,2,,,,,,,,,1,,,63,0
91440,note_on,6,0,3,,,,,,,,,2,,,58,72
91440,note_on,0,0,1,,,,,,,,,0,,,62,72
91440,note_on,6,0,2,,,,,,,,,1,,,62,72
91440,note_on,30,0,1,,,,,,,,,0,,,63,0
91440,note_on,24,0,5,,,,,,,,,4,,,58,72
91488,note_on,288,0,4,,,,,,,,,3,,,62,0
91536,note_on,96,0,3,,,,,,,,,2,,,58,0
91536,note_on,96,0,2,,,,,,,,,1,,,62,0
91536,note_on,96,0,5,,,,,,,,,4,,,58,0
91560,note_on,24,0,2,,,,,,,,,1,,,80,72
91560,note_on,72,0,4,,,,,,,,,3,,,62,72
91560,note_on,120,0,1,,,,,,,,,0,,,62,0
91560,note_on,24,0,5,,,,,,,,,4,,,46,72
91560,note_on,0,0,1,,,,,,,,,0,,,80,72
91560,note_on,24,0,3,,,,,,,,,2,,,77,72
91656,note_on,96,0,5,,,,,,,,,4,,,46,0
91656,note_on,96,0,4,,,,,,,,,3,,,62,0
91656,note_on,96,0,2,,,,,,,,,1,,,80,0
91656,note_on,96,0,3,,,,,,,,,2,,,77,0
91680,note_on,24,0,4,,,,,,,,,3,,,58,72
91680,note_on,120,0,1,,,,,,,,,0,,,80,0
91680,note_on,24,0,2,,,,,,,,,1,,,79,72
91680,note_on,24,0,3,,,,,,,,,2,,,75,72
91680,note_on,0,0,1,,,,,,,,,0,,,79,72
91680,note_on,24,0,5,,,,,,,,,4,,,39,72
91740,note_on,60,0,1,,,,,,,,,0,,,79,0
91740,note_on,0,0,1,,,,,,,,,0,,,75,72
91800,note_on,0,0,1,,,,,,,,,0,,,70,72
91800,note_on,60,0,1,,,,,,,,,0,,,75,0
91860,note_on,0,0,1,,,,,,,,,0,,,75,72
91860,note_on,60,0,1,,,,,,,,,0,,,70,0
91872,note_on,192,0,5,,,,,,,,,4,,,39,0
91872,note_on,192,0,2,,,,,,,,,1,,,79,0
91872,note_on,192,0,4,,,,,,,,,3,,,58,0
91872,note_on,192,0,3,,,,,,,,,2,,,75,0
91920,note_on,60,0,1,,,,,,,,,0,,,75,0
91920,note_on,0,0,1,,,,,,,,,0,,,79,72
91950,note_on,30,0,1,,,,,,,,,0,,,79,0
91950,note_on,0,0,1,,,,,,,,,0,,,80,72
91980,note_on,30,0,1,,,,,,,,,0,,,80,0
91980,note_on,0,0,1,,,,,,,,,0,,,82,72
92010,note_on,0,0,1,,,,,,,,,0,,,80,72
92010,note_on,30,0,1,,,,,,,,,0,,,82,0
92040,note_on,30,0,1,,,,,,,,,0,,,80,0
92040,note_on,0,0,1,,,,,,,,,0,,,79,72
92100,note_on,60,0,1,,,,,,,,,0,,,79,0
92100,note_on,0,0,1,,,,,,,,,0,,,77,72
92160,note_on,60,0,1,,,,,,,,,0,,,77,0
92160,note_on,0,0,1,,,,,,,,,0,,,75,72
92220,note_on,0,0,1,,,,,,,,,0,,,70,72
92220,note_on,60,0,1,,,,,,,,,0,,,75,0
92280,note_on,60,0,1,,,,,,,,,0,,,70,0
92280,note_on,0,0,1,,,,,,,,,0,,,67,72
92340,note_on,60,0,1,,,,,,,,,0,,,67,0
92340,note_on,0,0,1,,,,,,,,,0,,,70,72
92400,note_on,60,0,1,,,,,,,,,0,,,70,0
92400,note_on,0,0,1,,,,,,,,,0,,,75,72
92430,note_on,30,0,1,,,,,,,,,0,,,75,0
92430,note_on,0,0,1,,,,,,,,,0,,,77,72
92460,note_on,30,0,1,,,,,,,,,0,,,77,0
92460,note_on,0,0,1,,,,,,,,,0,,,79,72
92490,note_on,30,0,1,,,,,,,,,0,,,79,0
92490,note_on,0,0,1,,,,,,,,,0,,,80,72
92520,note_on,0,0,1,,,,,,,,,0,,,82,72
92520,note_on,30,0,1,,,,,,,,,0,,,80,0
92580,note_on,0,0,1,,,,,,,,,0,,,79,72
92580,note_on,60,0,1,,,,,,,,,0,,,82,0
92640,note_on,60,0,1,,,,,,,,,0,,,79,0
92640,note_on,0,0,1,,,,,,,,,0,,,73,72
92640,note_on,768,0,3,,,,,,,,,2,,,70,72
92640,note_on,768,0,4,,,,,,,,,3,,,55,72
92640,note_on,768,0,5,,,,,,,,,4,,,39,72
92640,note_on,768,0,2,,,,,,,,,1,,,73,72
92736,note_on,96,0,5,,,,,,,,,4,,,39,0
92736,note_on,96,0,3,,,,,,,,,2,,,70,0
92736,note_on,96,0,2,,,,,,,,,1,,,73,0
92760,note_on,24,0,3,,,,,,,,,2,,,58,72
92760,note_on,0,0,1,,,,,,,,,0,,,67,72
92760,note_on,120,0,1,,,,,,,,,0,,,73,0
92760,note_on,24,0,5,,,,,,,,,4,,,51,72
92760,note_on,24,0,2,,,,,,,,,1,,,67,72
92832,note_on,72,0,3,,,,,,,,,2,,,58,0
92832,note_on,72,0,2,,,,,,,,,1,,,67,0
92850,note_on,18,0,3,,,,,,,,,2,,,56,72
92850,note_on,0,0,1,,,,,,,,,0,,,65,72
92850,note_on,18,0,2,,,,,,,,,1,,,65,72
92850,note_on,90,0,1,,,,,,,,,0,,,67,0
92856,note_on,96,0,5,,,,,,,,,4,,,51,0
92874,note_on,24,0,3,,,,,,,,,2,,,56,0
92874,note_on,24,0,2,,,,,,,,,1,,,65,0
92880,note_on,30,0,1,,,,,,,,,0,,,65,0
92880,note_on,24,0,5,,,,,,,,,4,,,51,72
92880,note_on,6,0,3,,,,,,,,,2,,,55,72
92880,note_on,0,0,1,,,,,,,,,0,,,63,72
92880,note_on,6,0,2,,,,,,,,,1,,,63,72
92928,note_on,288,0,4,,,,,,,,,3,,,55,0
92976,note_on,96,0,3,,,,,,,,,2,,,55,0
92976,note_on,96,0,5,,,,,,,,,4,,,51,0
92976,note_on,96,0,2,,,,,,,,,1,,,63,0
93000,note_on,24,0,2,,,,,,,,,1,,,73,72
93000,note_on,120,0,1,,,,,,,,,0,,,63,0
93000,note_on,0,0,1,,,,,,,,,0,,,73,72
93000,note_on,72,0,4,,,,,,,,,3,,,55,72
93000,note_on,24,0,3,,,,,,,,,2,,,70,72
93000,note_on,24,0,5,,,,,,,,,4,,,39,72
93096,note_on,96,0,5,,,,,,,,,4,,,39,0
93096,note_on,96,0,2,,,,,,,,,1,,,73,0
93096,note_on,96,0,3,,,,,,,,,2,,,70,0
93096,note_on,96,0,4,,,,,,,,,3,,,55,0
93120,note_on,120,0,1,,,,,,,,,0,,,73,0
93120,note_on,0,0,1,,,,,,,,,0,,,72,72
93120,note_on,24,0,4,,,,,,,,,3,,,51,72
93120,note_on,24,0,3,,,,,,,,,2,,,68,72
93120,note_on,24,0,2,,,,,,,,,1,,,72,72
93120,note_on,24,0,5,,,,,,,,,4,,,44,72
93240,note_on,0,0,1,,,,,,,,,0,,,77,72
93240,note_on,120,0,1,,,,,,,,,0,,,72,0
93312,note_on,192,0,3,,,,,,,,,2,,,68,0
93312,note_on,192,0,2,,,,,,,,,1,,,72,0
93312,note_on,192,0,5,,,,,,,,,4,,,44,0
93312,note_on,192,0,4,,,,,,,,,3,,,51,0
93360,note_on,120,0,1,,,,,,,,,0,,,77,0
93360,note_on,0,0,1,,,,,,,,,0,,,80,72
93480,note_on,120,0,1,,,,,,,,,0,,,80,0
93480,note_on,0,0,1,,,,,,,,,0,,,84,72
93600,note_on,120,0,1,,,,,,,,,0,,,84,0
93600,note_on,0,0,1,,,,,,,,,0,,,83,112
93720,note_on,408,0,5,,,,,,,,,4,,,55,72
93768,note_on,48,0,5,,,,,,,,,4,,,55,0
93780,note_on,12,0,5,,,,,,,,,4,,,53,72
93828,note_on,48,0,5,,,,,,,,,4,,,53,0
93840,note_on,12,0,5,,,,,,,,,4,,,55,72
93900,note_on,0,0,1,,,,,,,,,0,,,86,72
93900,note_on,300,0,1,,,,,,,,,0,,,83,0
93930,note_on,0,0,1,,,,,,,,,0,,,84,72
93930,note_on,30,0,1,,,,,,,,,0,,,86,0
93936,note_on,96,0,5,,,,,,,,,4,,,55,0
93960,note_on,30,0,1,,,,,,,,,0,,,84,0
93960,note_on,0,0,1,,,,,,,,,0,,,83,72
93960,note_on,24,0,5,,,,,,,,,4,,,43,72
93990,note_on,30,0,1,,,,,,,,,0,,,83,0
93990,note_on,0,0,1,,,,,,,,,0,,,80,72
94020,note_on,30,0,1,,,,,,,,,0,,,80,0
94020,note_on,0,0,1,,,,,,,,,0,,,79,72
94050,note_on,30,0,1,,,,,,,,,0,,,79,0
94050,note_on,0,0,1,,,,,,,,,0,,,77,72
94056,note_on,96,0,5,,,,,,,,,4,,,43,0
94080,note_on,30,0,1,,,,,,,,,0,,,77,0
94080,note_on,0,0,1,,,,,,,,,0,,,75,72
94110,note_on,30,0,1,,,,,,,,,0,,,75,0
94110,note_on,0,0,1,,,,,,,,,0,,,74,72
94200,note_on,144,0,5,,,,,,,,,4,,,53,72
94248,note_on,48,0,5,,,,,,,,,4,,,53,0
94260,note_on,12,0,5,,,,,,,,,4,,,51,72
94308,note_on,48,0,5,,,,,,,,,4,,,51,0
94320,note_on,12,0,5,,,,,,,,,4,,,53,72
94380,note_on,270,0,1,,,,,,,,,0,,,74,0
94380,note_on,0,0,1,,,,,,,,,0,,,80,72
94410,note_on,30,0,1,,,,,,,,,0,,,80,0
94410,note_on,0,0,1,,,,,,,,,0,,,79,72
94416,note_on,96,0,5,,,,,,,,,4,,,53,0
94440,note_on,24,0,5,,,,,,,,,4,,,41,72
94440,note_on,30,0,1,,,,,,,,,0,,,79,0
94440,note_on,0,0,1,,,,,,,,,0,,,77,72
94470,note_on,30,0,1,,,,,,,,,0,,,77,0
94470,note_on,0,0,1,,,,,,,,,0,,,75,72
94500,note_on,30,0,1,,,,,,,,,0,,,75,0
94500,note_on,0,0,1,,,,,,,,,0,,,74,72
94530,note_on,30,0,1,,,,,,,,,0,,,74,0
94530,note_on,0,0,1,,,,,,,,,0,,,72,72
94536,note_on,96,0,5,,,,,,,,,4,,,41,0
94560,note_on,30,0,1,,,,,,,,,0,,,72,0
94560,note_on,0,0,1,,,,,,,,,0,,,78,112
94680,note_on,144,0,5,,,,,,,,,4,,,50,72
94728,note_on,48,0,5,,,,,,,,,4,,,50,0
94740,note_on,12,0,5,,,,,,,,,4,,,48,72
94788,note_on,48,0,5,,,,,,,,,4,,,48,0
94800,note_on,12,0,5,,,,,,,,,4,,,50,72
94860,note_on,300,0,1,,,,,,,,,0,,,78,0
94860,note_on,0,0,1,,,,,,,,,0,,,78,72
94890,note_on,0,0,1,,,,,,,,,0,,,79,72
94890,note_on,30,0,1,,,,,,,,,0,,,78,0
94896,note_on,96,0,5,,,,,,,,,4,,,50,0
94920,note_on,24,0,5,,,,,,,,,4,,,38,72
94920,note_on,30,0,1,,,,,,,,,0,,,79,0
94920,note_on,0,0,1,,,,,,,,,0,,,81,72
94950,note_on,0,0,1,,,,,,,,,0,,,83,72
94950,note_on,30,0,1,,,,,,,,,0,,,81,0
94980,note_on,30,0,1,,,,,,,,,0,,,83,0
94980,note_on,0,0,1,,,,,,,,,0,,,84,72
95010,note_on,0,0,1,,,,,,,,,0,,,86,72
95010,note_on,30,0,1,,,,,,,,,0,,,84,0
95016,note_on,96,0,5,,,,,,,,,4,,,38,0
95040,note_on,24,0,5,,,,,,,,,4,,,43,72
95040,note_on,30,0,1,,,,,,,,,0,,,86,0
95040,note_on,0,0,1,,,,,,,,,0,,,83,72
95136,note_on,96,0,5,,,,,,,,,4,,,43,0
95160,note_on,120,0,1,,,,,,,,,0,,,83,0
95160,note_on,24,0,5,,,,,,,,,4,,,48,72
95160,note_on,0,0,1,,,,,,,,,0,,,84,72
95220,note_on,60,0,1,,,,,,,,,0,,,84,0
95220,note_on,0,0,1,,,,,,,,,0,,,72,72
95256,note_on,96,0,5,,,,,,,,,4,,,48,0
95280,note_on,60,0,1,,,,,,,,,0,,,72,0
95280,note_on,0,0,1,,,,,,,,,0,,,74,72
95280,note_on,24,0,5,,,,,,,,,4,,,55,72
95295,note_on,15,0,1,,,,,,,,,0,,,74,0
95295,note_on,0,0,1,,,,,,,,,0,,,75,72
95310,note_on,0,0,1,,,,,,,,,0,,,74,72
95310,note_on,15,0,1,,,,,,,,,0,,,75,0
95325,note_on,0,0,1,,,,,,,,,0,,,75,72
95325,note_on,15,0,1,,,,,,,,,0,,,74,0
95340,note_on,15,0,1,,,,,,,,,0,,,75,0
95340,note_on,0,0,1,,,,,,,,,0,,,74,72
95355,note_on,15,0,1,,,,,,,,,0,,,74,0
95355,note_on,0,0,1,,,,,,,,,0,,,75,72
95370,note_on,15,0,1,,,,,,,,,0,,,75,0
95370,note_on,0,0,1,,,,,,,,,0,,,74,72
95376,note_on,96,0,5,,,,,,,,,4,,,55,0
95385,note_on,15,0,1,,,,,,,,,0,,,74,0
95385,note_on,0,0,1,,,,,,,,,0,,,75,72
95400,note_on,15,0,1,,,,,,,,,0,,,75,0
95400,note_on,24,0,5,,,,,,,,,4,,,43,72
95400,note_on,0,0,1,,,,,,,,,0,,,74,72
95415,note_on,0,0,1,,,,,,,,,0,,,75,72
95415,note_on,15,0,1,,,,,,,,,0,,,74,0
95430,note_on,0,0,1,,,,,,,,,0,,,74,72
95430,note_on,15,0,1,,,,,,,,,0,,,75,0
95445,note_on,0,0,1,,,,,,,,,0,,,75,72
95445,note_on,15,0,1,,,,,,,,,0,,,74,0
95460,note_on,0,0,1,,,,,,,,,0,,,72,72
95460,note_on,15,0,1,,,,,,,,,0,,,75,0
95496,note_on,96,0,5,,,,,,,,,4,,,43,0
95520,note_on,0,0,1,,,,,,,,,0,,,72,72
95520,note_on,24,0,5,,,,,,,,,4,,,48,72
95520,note_on,60,0,1,,,,,,,,,0,,,72,0
95568,note_on,48,0,5,,,,,,,,,4,,,48,0
95580,note_on,2268,0,4,,,,,,,,,3,,,60,72
95580,note_on,2268,0,2,,,,,,,,,1,,,60,72
95580,note_on,2268,0,3,,,,,,,,,2,,,60,72
95580,note_on,12,0,5,,,,,,,,,4,,,48,72
95628,note_on,48,0,4,,,,,,,,,3,,,60,0
95628,note_on,48,0,3,,,,,,,,,2,,,60,0
95628,note_on,48,0,2,,,,,,,,,1,,,60,0
95628,note_on,48,0,5,,,,,,,,,4,,,48,0
95640,note_on,12,0,3,,,,,,,,,2,,,63,72
95640,note_on,12,0,2,,,,,,,,,1,,,63,72
95640,note_on,12,0,5,,,,,,,,,4,,,51,72
95640,note_on,12,0,4,,,,,,,,,3,,,63,72
95688,note_on,48,0,5,,,,,,,,,4,,,51,0
95688,note_on,48,0,2,,,,,,,,,1,,,63,0
95688,note_on,48,0,4,,,,,,,,,3,,,63,0
95688,note_on,48,0,3,,,,,,,,,2,,,63,0
95700,note_on,12,0,3,,,,,,,,,2,,,67,72
95700,note_on,12,0,5,,,,,,,,,4,,,55,72
95700,note_on,12,0,4,,,,,,,,,3,,,67,72
95700,note_on,12,0,2,,,,,,,,,1,,,67,72
95712,note_on,192,0,1,,,,,,,,,0,,,72,0
95748,note_on,48,0,2,,,,,,,,,1,,,67,0
95748,note_on,48,0,3,,,,,,,,,2,,,67,0
95748,note_on,48,0,5,,,,,,,,,4,,,55,0
95748,note_on,48,0,4,,,,,,,,,3,,,67,0
95760,note_on,12,0,5,,,,,,,,,4,,,60,72
95760,note_on,12,0,2,,,,,,,,,1,,,72,72
95760,note_on,12,0,4,,,,,,,,,3,,,72,72
95760,note_on,12,0,3,,,,,,,,,2,,,72,72
95808,note_on,48,0,3,,,,,,,,,2,,,72,0
95808,note_on,48,0,5,,,,,,,,,4,,,60,0
95808,note_on,48,0,2,,,,,,,,,1,,,72,0
95808,note_on,48,0,4,,,,,,,,,3,,,72,0
95820,note_on,12,0,4,,,,,,,,,3,,,67,72
95820,note_on,12,0,5,,,,,,,,,4,,,55,72
95820,note_on,12,0,3,,,,,,,,,2,,,67,72
95820,note_on,12,0,2,,,,,,,,,1,,,67,72
95868,note_on,48,0,5,,,,,,,,,4,,,55,0
95868,note_on,48,0,3,,,,,,,,,2,,,67,0
95868,note_on,48,0,4,,,,,,,,,3,,,67,0
95868,note_on,48,0,2,,,,,,,,,1,,,67,0
95880,note_on,12,0,5,,,,,,,,,4,,,51,72
95880,note_on,12,0,2,,,,,,,,,1,,,63,72
95880,note_on,12,0,3,,,,,,,,,2,,,63,72
95880,note_on,12,0,4,,,,,,,,,3,,,63,72
95928,note_on,48,0,2,,,,,,,,,1,,,63,0
95928,note_on,48,0,4,,,,,,,,,3,,,63,0
95928,note_on,48,0,5,,,,,,,,,4,,,51,0
95928,note_on,48,0,3,,,,,,,,,2,,,63,0
95940,note_on,12,0,5,,,,,,,,,4,,,48,72
95940,note_on,12,0,3,,,,,,,,,2,,,60,72
95940,note_on,12,0,4,,,,,,,,,3,,,60,72
95940,note_on,12,0,2,,,,,,,,,1,,,60,72
95988,note_on,48,0,5,,,,,,,,,4,,,48,0
95988,note_on,48,0,3,,,,,,,,,2,,,60,0
95988,note_on,48,0,4,,,,,,,,,3,,,60,0
95988,note_on,48,0,2,,,,,,,,,1,,,60,0
96000,note_on,12,0,4,,,,,,,,,3,,,55,72
96000,note_on,12,0,3,,,,,,,,,2,,,55,72
96000,note_on,12,0,2,,,,,,,,,1,,,55,72
96000,note_on,288,0,1,,,,,,,,,0,,,71,72
96000,note_on,12,0,5,,,,,,,,,4,,,43,72
96030,note_on,30,0,1,,,,,,,,,0,,,71,0
96030,note_on,0,0,1,,,,,,,,,0,,,72,72
96054,note_on,24,0,1,,,,,,,,,0,,,72,0
96060,note_on,6,0,1,,,,,,,,,0,,,72,72
96090,note_on,30,0,1,,,,,,,,,0,,,72,0
96090,note_on,0,0,1,,,,,,,,,0,,,74,72
96114,note_on,24,0,1,,,,,,,,,0,,,74,0
96120,note_on,6,0,1,,,,,,,,,0,,,74,72
96150,note_on,0,0,1,,,,,,,,,0,,,75,72
96150,note_on,30,0,1,,,,,,,,,0,,,74,0
96174,note_on,24,0,1,,,,,,,,,0,,,75,0
96180,note_on,6,0,1,,,,,,,,,0,,,75,72
96192,note_on,192,0,4,,,,,,,,,3,,,55,0
96192,note_on,192,0,3,,,,,,,,,2,,,55,0
96192,note_on,192,0,2,,,,,,,,,1,,,55,0
96192,note_on,192,0,5,,,,,,,,,4,,,43,0
96210,note_on,30,0,1,,,,,,,,,0,,,75,0
96210,note_on,0,0,1,,,,,,,,,0,,,77,72
96234,note_on,24,0,1,,,,,,,,,0,,,77,0
96240,note_on,6,0,1,,,,,,,,,0,,,77,72
96270,note_on,30,0,1,,,,,,,,,0,,,77,0
96270,note_on,0,0,1,,,,,,,,,0,,,79,72
96294,note_on,24,0,1,,,,,,,,,0,,,79,0
96300,note_on,6,0,1,,,,,,,,,0,,,79,72
96330,note_on,0,0,1,,,,,,,,,0,,,80,72
96330,note_on,30,0,1,,,,,,,,,0,,,79,0
96354,note_on,24,0,1,,,,,,,,,0,,,80,0
96360,note_on,6,0,1,,,,,,,,,0,,,80,72
96390,note_on,30,0,1,,,,,,,,,0,,,80,0
96390,note_on,0,0,1,,,,,,,,,0,,,72,72
96414,note_on,24,0,1,,,,,,,,,0,,,72,0
96420,note_on,6,0,1,,,,,,,,,0,,,72,72
96450,note_on,0,0,1,,,,,,,,,0,,,71,72
96450,note_on,30,0,1,,,,,,,,,0,,,72,0
96474,note_on,24,0,1,,,,,,,,,0,,,71,0
96480,note_on,6,0,1,,,,,,,,,0,,,71,72
96540,note_on,348,0,5,,,,,,,,,4,,,43,72
96540,note_on,348,0,2,,,,,,,,,1,,,55,72
96540,note_on,348,0,4,,,,,,,,,3,,,55,72
96540,note_on,348,0,3,,,,,,,,,2,,,55,72
96588,note_on,48,0,2,,,,,,,,,1,,,55,0
96588,note_on,48,0,5,,,,,,,,,4,,,43,0
96588,note_on,48,0,3,,,,,,,,,2,,,55,0
96588,note_on,48,0,4,,,,,,,,,3,,,55,0
96600,note_on,12,0,3,,,,,,,,,2,,,59,72
96600,note_on,12,0,2,,,,,,,,,1,,,59,72
96600,note_on,12,0,5,,,,,,,,,4,,,47,72
96600,note_on,12,0,4,,,,,,,,,3,,,59,72
96648,note_on,48,0,5,,,,,,,,,4,,,47,0
96648,note_on,48,0,3,,,,,,,,,2,,,59,0
96648,note_on,48,0,4,,,,,,,,,3,,,59,0
96648,note_on,48,0,2,,,,,,,,,1,,,59,0
96660,note_on,12,0,5,,,,,,,,,4,,,50,72
96660,note_on,12,0,3,,,,,,,,,2,,,62,72
96660,note_on,12,0,2,,,,,,,,,1,,,62,72
96660,note_on,12,0,4,,,,,,,,,3,,,62,72
96672,note_on,192,0,1,,,,,,,,,0,,,71,0
96708,note_on,48,0,4,,,,,,,,,3,,,62,0
96708,note_on,48,0,3,,,,,,,,,2,,,62,0
96708,note_on,48,0,5,,,,,,,,,4,,,50,0
96708,note_on,48,0,2,,,,,,,,,1,,,62,0
96720,note_on,12,0,4,,,,,,,,,3,,,67,72
96720,note_on,12,0,2,,,,,,,,,1,,,67,72
96720,note_on,12,0,3,,,,,,,,,2,,,67,72
96720,note_on,12,0,5,,,,,,,,,4,,,55,72
96768,note_on,48,0,3,,,,,,,,,2,,,67,0
96768,note_on,48,0,2,,,,,,,,,1,,,67,0
96768,note_on,48,0,4,,,,,,,,,3,,,67,0
96768,note_on,48,0,5,,,,,,,,,4,,,55,0
96780,note_on,12,0,5,,,,,,,,,4,,,50,72
96780,note_on,12,0,2,,,,,,,,,1,,,62,72
96780,note_on,12,0,3,,,,,,,,,2,,,62,72
96780,note_on,12,0,4,,,,,,,,,3,,,62,72
96828,note_on,48,0,4,,,,,,,,,3,,,62,0
96828,note_on,48,0,3,,,,,,,,,2,,,62,0
96828,note_on,48,0,5,,,,,,,,,4,,,50,0
96828,note_on,48,0,2,,,,,,,,,1,,,62,0
96840,note_on,12,0,4,,,,,,,,,3,,,59,72
96840,note_on,12,0,5,,,,,,,,,4,,,47,72
96840,note_on,12,0,3,,,,,,,,,2,,,59,72
96840,note_on,12,0,2,,,,,,,,,1,,,59,72
96888,note_on,48,0,4,,,,,,,,,3,,,59,0
96888,note_on,48,0,3,,,,,,,,,2,,,59,0
96888,note_on,48,0,5,,,,,,,,,4,,,47,0
96888,note_on,48,0,2,,,,,,,,,1,,,59,0
96900,note_on,12,0,4,,,,,,,,,3,,,55,72
96900,note_on,12,0,2,,,,,,,,,1,,,55,72
96900,note_on,12,0,3,,,,,,,,,2,,,55,72
96900,note_on,12,0,5,,,,,,,,,4,,,43,72
96948,note_on,48,0,3,,,,,,,,,2,,,55,0
96948,note_on,48,0,4,,,,,,,,,3,,,55,0
96948,note_on,48,0,5,,,,,,,,,4,,,43,0
96948,note_on,48,0,2,,,,,,,,,1,,,55,0
96960,note_on,288,0,1,,,,,,,,,0,,,72,72
96960,note_on,12,0,5,,,,,,,,,4,,,48,72
96960,note_on,12,0,2,,,,,,,,,1,,,60,72
96960,note_on,12,0,3,,,,,,,,,2,,,60,72
96960,note_on,12,0,4,,,,,,,,,3,,,60,72
96990,note_on,30,0,1,,,,,,,,,0,,,72,0
96990,note_on,0,0,1,,,,,,,,,0,,,73,72
97014,note_on,24,0,1,,,,,,,,,0,,,73,0
97020,note_on,6,0,1,,,,,,,,,0,,,73,72
97050,note_on,30,0,1,,,,,,,,,0,,,73,0
97050,note_on,0,0,1,,,,,,,,,0,,,74,72
97074,note_on,24,0,1,,,,,,,,,0,,,74,0
97080,note_on,6,0,1,,,,,,,,,0,,,74,72
97110,note_on,0,0,1,,,,,,,,,0,,,75,72
97110,note_on,30,0,1,,,,,,,,,0,,,74,0
97134,note_on,24,0,1,,,,,,,,,0,,,75,0
97140,note_on,6,0,1,,,,,,,,,0,,,75,72
97152,note_on,192,0,4,,,,,,,,,3,,,60,0
97152,note_on,192,0,2,,,,,,,,,1,,,60,0
97152,note_on,192,0,5,,,,,,,,,4,,,48,0
97152,note_on,192,0,3,,,,,,,,,2,,,60,0
97170,note_on,30,0,1,,,,,,,,,0,,,75,0
97170,note_on,0,0,1,,,,,,,,,0,,,76,72
97194,note_on,24,0,1,,,,,,,,,0,,,76,0
97200,note_on,6,0,1,,,,,,,,,0,,,76,72
97230,note_on,0,0,1,,,,,,,,,0,,,77,72
97230,note_on,30,0,1,,,,,,,,,0,,,76,0
97254,note_on,24,0,1,,,,,,,,,0,,,77,0
97260,note_on,6,0,1,,,,,,,,,0,,,77,72
97284,note_on,24,0,1,,,,,,,,,0,,,77,0
97290,note_on,6,0,1,,,,,,,,,0,,,79,72
97314,note_on,24,0,1,,,,,,,,,0,,,79,0
97320,note_on,6,0,1,,,,,,,,,0,,,79,72
97350,note_on,0,0,1,,,,,,,,,0,,,80,72
97350,note_on,30,0,1,,,,,,,,,0,,,79,0
97374,note_on,24,0,1,,,,,,,,,0,,,80,0
97380,note_on,6,0,1,,,,,,,,,0,,,80,72
97410,note_on,30,0,1,,,,,,,,,0,,,80,0
97410,note_on,0,0,1,,,,,,,,,0,,,82,72
97434,note_on,24,0,1,,,,,,,,,0,,,82,0
97440,note_on,6,0,1,,,,,,,,,0,,,76,72
97500,note_on,348,0,5,,,,,,,,,4,,,48,72
97500,note_on,348,0,2,,,,,,,,,1,,,60,72
97500,note_on,348,0,4,,,,,,,,,3,,,60,72
97500,note_on,348,0,3,,,,,,,,,2,,,60,72
97548,note_on,48,0,4,,,,,,,,,3,,,60,0
97548,note_on,48,0,5,,,,,,,,,4,,,48,0
97548,note_on,48,0,2,,,,,,,,,1,,,60,0
97548,note_on,48,0,3,,,,,,,,,2,,,60,0
97560,note_on,12,0,5,,,,,,,,,4,,,52,72
97560,note_on,12,0,4,,,,,,,,,3,,,64,72
97560,note_on,12,0,2,,,,,,,,,1,,,64,72
97560,note_on,12,0,3,,,,,,,,,2,,,64,72
97608,note_on,48,0,3,,,,,,,,,2,,,64,0
97608,note_on,48,0,5,,,,,,,,,4,,,52,0
97608,note_on,48,0,2,,,,,,,,,1,,,64,0
97608,note_on,48,0,4,,,,,,,,,3,,,64,0
97620,note_on,12,0,5,,,,,,,,,4,,,55,72
97620,note_on,12,0,2,,,,,,,,,1,,,67,72
97620,note_on,12,0,3,,,,,,,,,2,,,67,72
97620,note_on,12,0,4,,,,,,,,,3,,,67,72
97632,note_on,192,0,1,,,,,,,,,0,,,76,0
97668,note_on,48,0,4,,,,,,,,,3,,,67,0
97668,note_on,48,0,2,,,,,,,,,1,,,67,0
97668,note_on,48,0,3,,,,,,,,,2,,,67,0
97668,note_on,48,0,5,,,,,,,,,4,,,55,0
97680,note_on,12,0,4,,,,,,,,,3,,,72,72
97680,note_on,12,0,3,,,,,,,,,2,,,72,72
97680,note_on,12,0,5,,,,,,,,,4,,,60,72
97680,note_on,12,0,2,,,,,,,,,1,,,72,72
97728,note_on,48,0,3,,,,,,,,,2,,,72,0
97728,note_on,48,0,5,,,,,,,,,4,,,60,0
97728,note_on,48,0,2,,,,,,,,,1,,,72,0
97728,note_on,48,0,4,,,,,,,,,3,,,72,0
97740,note_on,12,0,5,,,,,,,,,4,,,55,72
97740,note_on,12,0,2,,,,,,,,,1,,,67,72
97740,note_on,12,0,4,,,,,,,,,3,,,67,72
97740,note_on,12,0,3,,,,,,,,,2,,,67,72
97788,note_on,48,0,5,,,,,,,,,4,,,55,0
97788,note_on,48,0,2,,,,,,,,,1,,,67,0
97788,note_on,48,0,4,,,,,,,,,3,,,67,0
97788,note_on,48,0,3,,,,,,,,,2,,,67,0
97800,note_on,12,0,5,,,,,,,,,4,,,52,72
97800,note_on,12,0,4,,,,,,,,,3,,,64,72
97800,note_on,12,0,2,,,,,,,,,1,,,64,72
97800,note_on,12,0,3,,,,,,,,,2,,,64,72
97848,note_on,48,0,5,,,,,,,,,4,,,52,0
97848,note_on,48,0,3,,,,,,,,,2,,,64,0
97848,note_on,48,0,2,,,,,,,,,1,,,64,0
97848,note_on,48,0,4,,,,,,,,,3,,,64,0
97860,note_on,12,0,3,,,,,,,,,2,,,60,72
97860,note_on,12,0,5,,,,,,,,,4,,,48,72
97860,note_on,12,0,2,,,,,,,,,1,,,60,72
97860,note_on,12,0,4,,,,,,,,,3,,,60,72
97908,note_on,48,0,3,,,,,,,,,2,,,60,0
97908,note_on,48,0,2,,,,,,,,,1,,,60,0
97908,note_on,48,0,5,,,,,,,,,4,,,48,0
97908,note_on,48,0,4,,,,,,,,,3,,,60,0
97920,note_on,12,0,4,,,,,,,,,3,,,65,72
97920,note_on,12,0,2,,,,,,,,,1,,,65,72
97920,note_on,12,0,5,,,,,,,,,4,,,41,72
97920,note_on,288,0,1,,,,,,,,,0,,,80,72
97920,note_on,12,0,3,,,,,,,,,2,,,65,72
97950,note_on,30,0,1,,,,,,,,,0,,,80,0
97950,note_on,0,0,1,,,,,,,,,0,,,82,72
97974,note_on,24,0,1,,,,,,,,,0,,,82,0
97980,note_on,6,0,1,,,,,,,,,0,,,82,72
98010,note_on,0,0,1,,,,,,,,,0,,,84,72
98010,note_on,30,0,1,,,,,,,,,0,,,82,0
98034,note_on,24,0,1,,,,,,,,,0,,,84,0
98040,note_on,6,0,1,,,,,,,,,0,,,84,72
98070,note_on,30,0,1,,,,,,,,,0,,,84,0
98070,note_on,0,0,1,,,,,,,,,0,,,80,72
98094,note_on,24,0,1,,,,,,,,,0,,,80,0
98100,note_on,6,0,1,,,,,,,,,0,,,80,72
98112,note_on,192,0,4,,,,,,,,,3,,,65,0
98112,note_on,192,0,2,,,,,,,,,1,,,65,0
98112,note_on,192,0,3,,,,,,,,,2,,,65,0
98112,note_on,192,0,5,,,,,,,,,4,,,41,0
98130,note_on,30,0,1,,,,,,,,,0,,,80,0
98130,note_on,0,0,1,,,,,,,,,0,,,77,72
98154,note_on,24,0,1,,,,,,,,,0,,,77,0
98160,note_on,6,0,1,,,,,,,,,0,,,77,72
98190,note_on,30,0,1,,,,,,,,,0,,,77,0
98190,note_on,0,0,1,,,,,,,,,0,,,80,72
98220,note_on,30,0,1,,,,,,,,,0,,,80,0
98220,note_on,0,0,1,,,,,,,,,0,,,80,72
98250,note_on,30,0,1,,,,,,,,,0,,,80,0
98250,note_on,0,0,1,,,,,,,,,0,,,84,72
98274,note_on,24,0,1,,,,,,,,,0,,,84,0
98280,note_on,6,0,1,,,,,,,,,0,,,84,72
98310,note_on,0,0,1,,,,,,,,,0,,,75,72
98310,note_on,30,0,1,,,,,,,,,0,,,84,0
98334,note_on,24,0,1,,,,,,,,,0,,,75,0
98340,note_on,6,0,1,,,,,,,,,0,,,75,72
98370,note_on,0,0,1,,,,,,,,,0,,,73,72
98370,note_on,30,0,1,,,,,,,,,0,,,75,0
98394,note_on,24,0,1,,,,,,,,,0,,,73,0
98400,note_on,6,0,1,,,,,,,,,0,,,73,112
98460,note_on,348,0,5,,,,,,,,,4,,,46,72
98460,note_on,348,0,3,,,,,,,,,2,,,58,72
98460,note_on,348,0,4,,,,,,,,,3,,,58,72
98460,note_on,348,0,2,,,,,,,,,1,,,58,72
98508,note_on,48,0,5,,,,,,,,,4,,,46,0
98508,note_on,48,0,3,,,,,,,,,2,,,58,0
98508,note_on,48,0,4,,,,,,,,,3,,,58,0
98508,note_on,48,0,2,,,,,,,,,1,,,58,0
98520,note_on,12,0,2,,,,,,,,,1,,,61,72
98520,note_on,12,0,5,,,,,,,,,4,,,49,72
98520,note_on,12,0,4,,,,,,,,,3,,,61,72
98520,note_on,12,0,3,,,,,,,,,2,,,61,72
98568,note_on,48,0,2,,,,,,,,,1,,,61,0
98568,note_on,48,0,5,,,,,,,,,4,,,49,0
98568,note_on,48,0,3,,,,,,,,,2,,,61,0
98568,note_on,48,0,4,,,,,,,,,3,,,61,0
98580,note_on,12,0,4,,,,,,,,,3,,,65,72
98580,note_on,12,0,3,,,,,,,,,2,,,65,72
98580,note_on,12,0,2,,,,,,,,,1,,,65,72
98580,note_on,12,0,5,,,,,,,,,4,,,53,72
98628,note_on,48,0,5,,,,,,,,,4,,,53,0
98628,note_on,48,0,2,,,,,,,,,1,,,65,0
98628,note_on,48,0,3,,,,,,,,,2,,,65,0
98628,note_on,48,0,4,,,,,,,,,3,,,65,0
98640,note_on,12,0,5,,,,,,,,,4,,,58,72
98640,note_on,12,0,3,,,,,,,,,2,,,70,72
98640,note_on,12,0,2,,,,,,,,,1,,,70,72
98640,note_on,12,0,4,,,,,,,,,3,,,70,72
98688,note_on,48,0,2,,,,,,,,,1,,,70,0
98688,note_on,48,0,5,,,,,,,,,4,,,58,0
98688,note_on,48,0,3,,,,,,,,,2,,,70,0
98688,note_on,48,0,4,,,,,,,,,3,,,70,0
98700,note_on,300,0,1,,,,,,,,,0,,,73,0
98700,note_on,0,0,1,,,,,,,,,0,,,68,72
98700,note_on,12,0,5,,,,,,,,,4,,,53,72
98700,note_on,12,0,4,,,,,,,,,3,,,65,72
98700,note_on,12,0,3,,,,,,,,,2,,,65,72
98700,note_on,12,0,2,,,,,,,,,1,,,65,72
98748,note_on,48,0,2,,,,,,,,,1,,,65,0
98748,note_on,48,0,5,,,,,,,,,4,,,53,0
98748,note_on,48,0,3,,,,,,,,,2,,,65,0
98748,note_on,48,0,4,,,,,,,,,3,,,65,0
98760,note_on,12,0,3,,,,,,,,,2,,,61,72
98760,note_on,12,0,5,,,,,,,,,4,,,49,72
98760,note_on,60,0,1,,,,,,,,,0,,,68,0
98760,note_on,12,0,4,,,,,,,,,3,,,61,72
98760,note_on,0,0,1,,,,,,,,,0,,,73,72
98760,note_on,12,0,2,,,,,,,,,1,,,61,72
98808,note_on,48,0,5,,,,,,,,,4,,,49,0
98808,note_on,48,0,3,,,,,,,,,2,,,61,0
98808,note_on,48,0,4,,,,,,,,,3,,,61,0
98808,note_on,48,0,2,,,,,,,,,1,,,61,0
98820,note_on,12,0,2,,,,,,,,,1,,,58,72
98820,note_on,12,0,3,,,,,,,,,2,,,58,72
98820,note_on,12,0,4,,,,,,,,,3,,,58,72
98820,note_on,12,0,5,,,,,,,,,4,,,46,72
98820,note_on,0,0,1,,,,,,,,,0,,,77,72
98820,note_on,60,0,1,,,,,,,,,0,,,73,0
98868,note_on,48,0,2,,,,,,,,,1,,,58,0
98868,note_on,48,0,5,,,,,,,,,4,,,46,0
98868,note_on,48,0,3,,,,,,,,,2,,,58,0
98868,note_on,48,0,4,,,,,,,,,3,,,58,0
98880,note_on,60,0,1,,,,,,,,,0,,,77,0
98880,note_on,0,0,1,,,,,,,,,0,,,74,112
98940,note_on,72,0,2,,,,,,,,,1,,,58,72
98940,note_on,72,0,3,,,,,,,,,2,,,58,72
98940,note_on,72,0,4,,,,,,,,,3,,,58,72
98940,note_on,72,0,5,,,,,,,,,4,,,46,72
98988,note_on,48,0,3,,,,,,,,,2,,,58,0
98988,note_on,48,0,5,,,,,,,,,4,,,46,0
98988,note_on,48,0,4,,,,,,,,,3,,,58,0
98988,note_on,48,0,2,,,,,,,,,1,,,58,0
99000,note_on,12,0,3,,,,,,,,,2,,,62,72
99000,note_on,12,0,2,,,,,,,,,1,,,62,72
99000,note_on,12,0,5,,,,,,,,,4,,,50,72
99000,note_on,12,0,4,,,,,,,,,3,,,62,72
99048,note_on,48,0,3,,,,,,,,,2,,,62,0
99048,note_on,48,0,5,,,,,,,,,4,,,50,0
99048,note_on,48,0,2,,,,,,,,,1,,,62,0
99048,note_on,48,0,4,,,,,,,,,3,,,62,0
99060,note_on,12,0,3,,,,,,,,,2,,,65,72
99060,note_on,12,0,4,,,,,,,,,3,,,65,72
99060,note_on,12,0,5,,,,,,,,,4,,,53,72
99060,note_on,12,0,2,,,,,,,,,1,,,65,72
99108,note_on,48,0,5,,,,,,,,,4,,,53,0
99108,note_on,48,0,2,,,,,,,,,1,,,65,0
99108,note_on,48,0,4,,,,,,,,,3,,,65,0
99108,note_on,48,0,3,,,,,,,,,2,,,65,0
99120,note_on,12,0,3,,,,,,,,,2,,,70,72
99120,note_on,12,0,2,,,,,,,,,1,,,70,72
99120,note_on,12,0,4,,,,,,,,,3,,,70,72
99120,note_on,12,0,5,,,,,,,,,4,,,58,72
99168,note_on,48,0,3,,,,,,,,,2,,,70,0
99168,note_on,48,0,2,,,,,,,,,1,,,70,0
99168,note_on,48,0,4,,,,,,,,,3,,,70,0
99168,note_on,48,0,5,,,,,,,,,4,,,58,0
99180,note_on,12,0,3,,,,,,,,,2,,,65,72
99180,note_on,12,0,5,,,,,,,,,4,,,53,72
99180,note_on,12,0,2,,,,,,,,,1,,,65,72
99180,note_on,0,0,1,,,,,,,,,0,,,68,72
99180,note_on,12,0,4,,,,,,,,,3,,,65,72
99180,note_on,300,0,1,,,,,,,,,0,,,74,0
99228,note_on,48,0,3,,,,,,,,,2,,,65,0
99228,note_on,48,0,5,,,,,,,,,4,,,53,0
99228,note_on,48,0,4,,,,,,,,,3,,,65,0
99228,note_on,48,0,2,,,,,,,,,1,,,65,0
99240,note_on,0,0,1,,,,,,,,,0,,,74,72
99240,note_on,60,0,1,,,,,,,,,0,,,68,0
99240,note_on,12,0,4,,,,,,,,,3,,,62,72
99240,note_on,12,0,2,,,,,,,,,1,,,62,72
99240,note_on,12,0,5,,,,,,,,,4,,,50,72
99240,note_on,12,0,3,,,,,,,,,2,,,62,72
99288,note_on,48,0,5,,,,,,,,,4,,,50,0
99288,note_on,48,0,2,,,,,,,,,1,,,62,0
99288,note_on,48,0,4,,,,,,,,,3,,,62,0
99288,note_on,48,0,3,,,,,,,,,2,,,62,0
99300,note_on,12,0,3,,,,,,,,,2,,,58,72
99300,note_on,12,0,4,,,,,,,,,3,,,58,72
99300,note_on,12,0,2,,,,,,,,,1,,,58,72
99300,note_on,60,0,1,,,,,,,,,0,,,74,0
99300,note_on,12,0,5,,,,,,,,,4,,,46,72
99300,note_on,0,0,1,,,,,,,,,0,,,77,72
99348,note_on,48,0,5,,,,,,,,,4,,,46,0
99348,note_on,48,0,3,,,,,,,,,2,,,58,0
99348,note_on,48,0,2,,,,,,,,,1,,,58,0
99348,note_on,48,0,4,,,,,,,,,3,,,58,0
99360,note_on,0,0,1,,,,,,,,,0,,,75,72
99360,note_on,60,0,1,,,,,,,,,0,,,77,0
99420,note_on,72,0,3,,,,,,,,,2,,,63,72
99420,note_on,72,0,5,,,,,,,,,4,,,51,72
99420,note_on,72,0,2,,,,,,,,,1,,,63,72
99420,note_on,0,0,1,,,,,,,,,0,,,79,72
99420,note_on,60,0,1,,,,,,,,,0,,,75,0
99420,note_on,72,0,4,,,,,,,,,3,,,63,72
99468,note_on,48,0,2,,,,,,,,,1,,,63,0
99468,note_on,48,0,5,,,,,,,,,4,,,51,0
99468,note_on,48,0,4,,,,,,,,,3,,,63,0
99468,note_on,48,0,3,,,,,,,,,2,,,63,0
99480,note_on,12,0,4,,,,,,,,,3,,,67,72
99480,note_on,60,0,1,,,,,,,,,0,,,79,0
99480,note_on,0,0,1,,,,,,,,,0,,,82,72
99480,note_on,12,0,3,,,,,,,,,2,,,67,72
99480,note_on,12,0,5,,,,,,,,,4,,,55,72
99480,note_on,12,0,2,,,,,,,,,1,,,67,72
99528,note_on,48,0,5,,,,,,,,,4,,,55,0
99528,note_on,48,0,4,,,,,,,,,3,,,67,0
99528,note_on,48,0,2,,,,,,,,,1,,,67,0
99528,note_on,48,0,3,,,,,,,,,2,,,67,0
99540,note_on,0,0,1,,,,,,,,,0,,,79,72
99540,note_on,60,0,1,,,,,,,,,0,,,82,0
99540,note_on,12,0,3,,,,,,,,,2,,,70,72
99540,note_on,12,0,2,,,,,,,,,1,,,70,72
99540,note_on,12,0,4,,,,,,,,,3,,,70,72
99540,note_on,12,0,5,,,,,,,,,4,,,58,72
99588,note_on,48,0,5,,,,,,,,,4,,,58,0
99588,note_on,48,0,2,,,,,,,,,1,,,70,0
99588,note_on,48,0,4,,,,,,,,,3,,,70,0
99588,note_on,48,0,3,,,,,,,,,2,,,70,0
99600,note_on,60,0,1,,,,,,,,,0,,,79,0
99600,note_on,0,0,1,,,,,,,,,0,,,75,72
99600,note_on,12,0,3,,,,,,,,,2,,,75,72
99600,note_on,12,0,2,,,,,,,,,1,,,75,72
99600,note_on,12,0,4,,,,,,,,,3,,,75,72
99600,note_on,12,0,5,,,,,,,,,4,,,63,72
99648,note_on,48,0,5,,,,,,,,,4,,,63,0
99648,note_on,48,0,4,,,,,,,,,3,,,75,0
99648,note_on,48,0,3,,,,,,,,,2,,,75,0
99648,note_on,48,0,2,,,,,,,,,1,,,75,0
99660,note_on,12,0,5,,,,,,,,,4,,,58,72
99660,note_on,0,0,1,,,,,,,,,0,,,79,72
99660,note_on,60,0,1,,,,,,,,,0,,,75,0
99660,note_on,12,0,3,,,,,,,,,2,,,70,72
99660,note_on,12,0,2,,,,,,,,,1,,,70,72
99660,note_on,12,0,4,,,,,,,,,3,,,70,72
99708,note_on,48,0,4,,,,,,,,,3,,,70,0
99708,note_on,48,0,3,,,,,,,,,2,,,70,0
99708,note_on,48,0,2,,,,,,,,,1,,,70,0
99708,note_on,48,0,5,,,,,,,,,4,,,58,0
99720,note_on,12,0,4,,,,,,,,,3,,,67,72
99720,note_on,12,0,3,,,,,,,,,2,,,67,72
99720,note_on,12,0,2,,,,,,,,,1,,,67,72
99720,note_on,12,0,5,,,,,,,,,4,,,55,72
99720,note_on,60,0,1,,,,,,,,,0,,,79,0
99720,note_on,0,0,1,,,,,,,,,0,,,82,72
99768,note_on,48,0,3,,,,,,,,,2,,,67,0
99768,note_on,48,0,4,,,,,,,,,3,,,67,0
99768,note_on,48,0,2,,,,,,,,,1,,,67,0
99768,note_on,48,0,5,,,,,,,,,4,,,55,0
99780,note_on,0,0,1,,,,,,,,,0,,,79,72
99780,note_on,12,0,4,,,,,,,,,3,,,63,72
99780,note_on,60,0,1,,,,,,,,,0,,,82,0
99780,note_on,12,0,2,,,,,,,,,1,,,63,72
99780,note_on,12,0,5,,,,,,,,,4,,,51,72
99780,note_on,12,0,3,,,,,,,,,2,,,63,72
99828,note_on,48,0,5,,,,,,,,,4,,,51,0
99828,note_on,48,0,3,,,,,,,,,2,,,63,0
99828,note_on,48,0,4,,,,,,,,,3,,,63,0
99828,note_on,48,0,2,,,,,,,,,1,,,63,0
99840,note_on,0,0,1,,,,,,,,,0,,,77,72
99840,note_on,60,0,1,,,,,,,,,0,,,79,0
99870,note_on,0,0,1,,,,,,,,,0,,,76,112
99870,note_on,30,0,1,,,,,,,,,0,,,77,0
99900,note_on,72,0,5,,,,,,,,,4,,,48,72
99900,note_on,72,0,3,,,,,,,,,2,,,60,72
99900,note_on,72,0,2,,,,,,,,,1,,,60,72
99900,note_on,72,0,4,,,,,,,,,3,,,60,72
99948,note_on,48,0,5,,,,,,,,,4,,,48,0
99948,note_on,48,0,4,,,,,,,,,3,,,60,0
99948,note_on,48,0,2,,,,,,,,,1,,,60,0
99948,note_on,48,0,3,,,,,,,,,2,,,60,0
99960,note_on,12,0,4,,,,,,,,,3,,,64,72
99960,note_on,12,0,2,,,,,,,,,1,,,64,72
99960,note_on,12,0,3,,,,,,,,,2,,,64,72
99960,note_on,12,0,5,,,,,,,,,4,,,52,72
100008,note_on,48,0,5,,,,,,,,,4,,,52,0
100008,note_on,48,0,4,,,,,,,,,3,,,64,0
100008,note_on,48,0,3,,,,,,,,,2,,,64,0
100008,note_on,48,0,2,,,,,,,,,1,,,64,0
100020,note_on,12,0,5,,,,,,,,,4,,,55,72
100020,note_on,12,0,3,,,,,,,,,2,,,67,72
100020,note_on,12,0,2,,,,,,,,,1,,,67,72
100020,note_on,12,0,4,,,,,,,,,3,,,67,72
100068,note_on,48,0,5,,,,,,,,,4,,,55,0
100068,note_on,48,0,3,,,,,,,,,2,,,67,0
100068,note_on,48,0,2,,,,,,,,,1,,,67,0
100068,note_on,48,0,4,,,,,,,,,3,,,67,0
100080,note_on,12,0,2,,,,,,,,,1,,,72,72
100080,note_on,12,0,5,,,,,,,,,4,,,60,72
100080,note_on,12,0,3,,,,,,,,,2,,,72,72
100080,note_on,12,0,4,,,,,,,,,3,,,72,72
100128,note_on,48,0,4,,,,,,,,,3,,,72,0
100128,note_on,48,0,3,,,,,,,,,2,,,72,0
100128,note_on,48,0,5,,,,,,,,,4,,,60,0
100128,note_on,48,0,2,,,,,,,,,1,,,72,0
100140,note_on,12,0,4,,,,,,,,,3,,,67,72
100140,note_on,12,0,5,,,,,,,,,4,,,55,72
100140,note_on,12,0,2,,,,,,,,,1,,,67,72
100140,note_on,12,0,3,,,,,,,,,2,,,67,72
100140,note_on,270,0,1,,,,,,,,,0,,,76,0
100140,note_on,0,0,1,,,,,,,,,0,,,70,72
100188,note_on,48,0,2,,,,,,,,,1,,,67,0
100188,note_on,48,0,3,,,,,,,,,2,,,67,0
100188,note_on,48,0,4,,,,,,,,,3,,,67,0
100188,note_on,48,0,5,,,,,,,,,4,,,55,0
100200,note_on,12,0,2,,,,,,,,,1,,,64,72
100200,note_on,60,0,1,,,,,,,,,0,,,70,0
100200,note_on,0,0,1,,,,,,,,,0,,,76,72
100200,note_on,12,0,4,,,,,,,,,3,,,64,72
100200,note_on,12,0,3,,,,,,,,,2,,,64,72
100200,note_on,12,0,5,,,,,,,,,4,,,52,72
100248,note_on,48,0,3,,,,,,,,,2,,,64,0
100248,note_on,48,0,5,,,,,,,,,4,,,52,0
100248,note_on,48,0,4,,,,,,,,,3,,,64,0
100248,note_on,48,0,2,,,,,,,,,1,,,64,0
100260,note_on,12,0,3,,,,,,,,,2,,,60,72
100260,note_on,12,0,2,,,,,,,,,1,,,60,72
100260,note_on,12,0,4,,,,,,,,,3,,,60,72
100260,note_on,12,0,5,,,,,,,,,4,,,48,72
100260,note_on,60,0,1,,,,,,,,,0,,,76,0
100260,note_on,0,0,1,,,,,,,,,0,,,79,72
100308,note_on,48,0,2,,,,,,,,,1,,,60,0
100308,note_on,48,0,5,,,,,,,,,4,,,48,0
100308,note_on,48,0,3,,,,,,,,,2,,,60,0
100308,note_on,48,0,4,,,,,,,,,3,,,60,0
100320,note_on,60,0,1,,,,,,,,,0,,,79,0
100320,note_on,0,0,1,,,,,,,,,0,,,77,72
100380,note_on,72,0,3,,,,,,,,,2,,,65,72
100380,note_on,72,0,4,,,,,,,,,3,,,65,72
100380,note_on,72,0,5,,,,,,,,,4,,,53,72
100380,note_on,60,0,1,,,,,,,,,0,,,77,0
100380,note_on,72,0,2,,,,,,,,,1,,,65,72
100380,note_on,0,0,1,,,,,,,,,0,,,80,72
100428,note_on,48,0,5,,,,,,,,,4,,,53,0
100428,note_on,48,0,1,,,,,,,,,0,,,80,0
100428,note_on,48,0,4,,,,,,,,,3,,,65,0
100428,note_on,48,0,3,,,,,,,,,2,,,65,0
100428,note_on,48,0,2,,,,,,,,,1,,,65,0
100440,note_on,12,0,4,,,,,,,,,3,,,68,72
100440,note_on,12,0,1,,,,,,,,,0,,,84,72
100440,note_on,12,0,3,,,,,,,,,2,,,68,72
100440,note_on,12,0,2,,,,,,,,,1,,,68,72
100440,note_on,12,0,5,,,,,,,,,4,,,56,72
100488,note_on,48,0,2,,,,,,,,,1,,,68,0
100488,note_on,48,0,5,,,,,,,,,4,,,56,0
100488,note_on,48,0,3,,,,,,,,,2,,,68,0
100488,note_on,48,0,4,,,,,,,,,3,,,68,0
100500,note_on,60,0,1,,,,,,,,,0,,,84,0
100500,note_on,12,0,5,,,,,,,,,4,,,60,72
100500,note_on,12,0,3,,,,,,,,,2,,,72,72
100500,note_on,12,0,4,,,,,,,,,3,,,72,72
100500,note_on,12,0,2,,,,,,,,,1,,,72,72
100500,note_on,0,0,1,,,,,,,,,0,,,80,72
100548,note_on,48,0,3,,,,,,,,,2,,,72,0
100548,note_on,48,0,2,,,,,,,,,1,,,72,0
100548,note_on,48,0,1,,,,,,,,,0,,,80,0
100548,note_on,48,0,5,,,,,,,,,4,,,60,0
100548,note_on,48,0,4,,,,,,,,,3,,,72,0
100560,note_on,12,0,2,,,,,,,,,1,,,77,72
100560,note_on,12,0,1,,,,,,,,,0,,,77,72
100560,note_on,12,0,5,,,,,,,,,4,,,65,72
100560,note_on,12,0,3,,,,,,,,,2,,,77,72
100560,note_on,12,0,4,,,,,,,,,3,,,77,72
100608,note_on,48,0,5,,,,,,,,,4,,,65,0
100608,note_on,48,0,2,,,,,,,,,1,,,77,0
100608,note_on,48,0,4,,,,,,,,,3,,,77,0
100608,note_on,48,0,3,,,,,,,,,2,,,77,0
100620,note_on,60,0,1,,,,,,,,,0,,,77,0
100620,note_on,0,0,1,,,,,,,,,0,,,80,72
100620,note_on,12,0,5,,,,,,,,,4,,,60,72
100620,note_on,12,0,2,,,,,,,,,1,,,72,72
100620,note_on,12,0,3,,,,,,,,,2,,,72,72
100620,note_on,12,0,4,,,,,,,,,3,,,72,72
100668,note_on,48,0,5,,,,,,,,,4,,,60,0
100668,note_on,48,0,1,,,,,,,,,0,,,80,0
100668,note_on,48,0,4,,,,,,,,,3,,,72,0
100668,note_on,48,0,3,,,,,,,,,2,,,72,0
100668,note_on,48,0,2,,,,,,,,,1,,,72,0
100680,note_on,12,0,1,,,,,,,,,0,,,84,72
100680,note_on,12,0,4,,,,,,,,,3,,,68,72
100680,note_on,12,0,3,,,,,,,,,2,,,68,72
100680,note_on,12,0,2,,,,,,,,,1,,,68,72
100680,note_on,12,0,5,,,,,,,,,4,,,56,72
100728,note_on,48,0,3,,,,,,,,,2,,,68,0
100728,note_on,48,0,5,,,,,,,,,4,,,56,0
100728,note_on,48,0,2,,,,,,,,,1,,,68,0
100728,note_on,48,0,4,,,,,,,,,3,,,68,0
100740,note_on,60,0,1,,,,,,,,,0,,,84,0
100740,note_on,12,0,3,,,,,,,,,2,,,65,72
100740,note_on,12,0,2,,,,,,,,,1,,,65,72
100740,note_on,12,0,4,,,,,,,,,3,,,65,72
100740,note_on,12,0,5,,,,,,,,,4,,,53,72
100740,note_on,0,0,1,,,,,,,,,0,,,80,72
100788,note_on,48,0,2,,,,,,,,,1,,,65,0
100788,note_on,48,0,4,,,,,,,,,3,,,65,0
100788,note_on,48,0,3,,,,,,,,,2,,,65,0
100788,note_on,48,0,5,,,,,,,,,4,,,53,0
100788,note_on,48,0,1,,,,,,,,,0,,,80,0
100800,note_on,12,0,1,,,,,,,,,0,,,79,72
100830,note_on,0,0,1,,,,,,,,,0,,,77,72
100830,note_on,30,0,1,,,,,,,,,0,,,79,0
100860,note_on,72,0,5,,,,,,,,,4,,,50,72
100860,note_on,72,0,2,,,,,,,,,1,,,62,72
100860,note_on,72,0,3,,,,,,,,,2,,,62,72
100860,note_on,72,0,4,,,,,,,,,3,,,62,72
100908,note_on,48,0,2,,,,,,,,,1,,,62,0
100908,note_on,48,0,3,,,,,,,,,2,,,62,0
100908,note_on,48,0,4,,,,,,,,,3,,,62,0
100908,note_on,48,0,5,,,,,,,,,4,,,50,0
100920,note_on,12,0,5,,,,,,,,,4,,,54,72
100920,note_on,12,0,2,,,,,,,,,1,,,66,72
100920,note_on,12,0,4,,,,,,,,,3,,,66,72
100920,note_on,12,0,3,,,,,,,,,2,,,66,72
100968,note_on,48,0,2,,,,,,,,,1,,,66,0
100968,note_on,48,0,3,,,,,,,,,2,,,66,0
100968,note_on,48,0,4,,,,,,,,,3,,,66,0
100968,note_on,48,0,5,,,,,,,,,4,,,54,0
100980,note_on,12,0,2,,,,,,,,,1,,,69,72
100980,note_on,12,0,3,,,,,,,,,2,,,69,72
100980,note_on,12,0,5,,,,,,,,,4,,,57,72
100980,note_on,12,0,4,,,,,,,,,3,,,69,72
101028,note_on,48,0,2,,,,,,,,,1,,,69,0
101028,note_on,48,0,3,,,,,,,,,2,,,69,0
101028,note_on,48,0,4,,,,,,,,,3,,,69,0
101028,note_on,48,0,5,,,,,,,,,4,,,57,0
101040,note_on,12,0,3,,,,,,,,,2,,,74,72
101040,note_on,12,0,4,,,,,,,,,3,,,74,72
101040,note_on,12,0,2,,,,,,,,,1,,,74,72
101040,note_on,0,0,1,,,,,,,,,0,,,77,72
101040,note_on,210,0,1,,,,,,,,,0,,,77,0
101040,note_on,12,0,5,,,,,,,,,4,,,62,72
101088,note_on,48,0,5,,,,,,,,,4,,,62,0
101088,note_on,48,0,2,,,,,,,,,1,,,74,0
101088,note_on,48,0,3,,,,,,,,,2,,,74,0
101088,note_on,48,0,4,,,,,,,,,3,,,74,0
101100,note_on,12,0,4,,,,,,,,,3,,,69,72
101100,note_on,0,0,1,,,,,,,,,0,,,72,72
101100,note_on,12,0,2,,,,,,,,,1,,,69,72
101100,note_on,60,0,1,,,,,,,,,0,,,77,0
101100,note_on,12,0,3,,,,,,,,,2,,,69,72
101100,note_on,12,0,5,,,,,,,,,4,,,57,72
101148,note_on,48,0,2,,,,,,,,,1,,,69,0
101148,note_on,48,0,3,,,,,,,,,2,,,69,0
101148,note_on,48,0,5,,,,,,,,,4,,,57,0
101148,note_on,48,0,1,,,,,,,,,0,,,72,0
101148,note_on,48,0,4,,,,,,,,,3,,,69,0
101160,note_on,12,0,4,,,,,,,,,3,,,66,72
101160,note_on,12,0,2,,,,,,,,,1,,,66,72
101160,note_on,12,0,1,,,,,,,,,0,,,77,72
101160,note_on,12,0,5,,,,,,,,,4,,,54,72
101160,note_on,12,0,3,,,,,,,,,2,,,66,72
101208,note_on,48,0,5,,,,,,,,,4,,,54,0
101208,note_on,48,0,4,,,,,,,,,3,,,66,0
101208,note_on,48,0,3,,,,,,,,,2,,,66,0
101208,note_on,48,0,2,,,,,,,,,1,,,66,0
101220,note_on,0,0,1,,,,,,,,,0,,,81,72
101220,note_on,60,0,1,,,,,,,,,0,,,77,0
101220,note_on,12,0,2,,,,,,,,,1,,,62,72
101220,note_on,12,0,4,,,,,,,,,3,,,62,72
101220,note_on,12,0,3,,,,,,,,,2,,,62,72
101220,note_on,12,0,5,,,,,,,,,4,,,50,72
101268,note_on,48,0,4,,,,,,,,,3,,,62,0
101268,note_on,48,0,3,,,,,,,,,2,,,62,0
101268,note_on,48,0,5,,,,,,,,,4,,,50,0
101268,note_on,48,0,2,,,,,,,,,1,,,62,0
101268,note_on,48,0,1,,,,,,,,,0,,,81,0
101280,note_on,12,0,1,,,,,,,,,0,,,79,72
101340,note_on,72,0,4,,,,,,,,,3,,,55,72
101340,note_on,0,0,1,,,,,,,,,0,,,82,72
101340,note_on,72,0,5,,,,,,,,,4,,,43,72
101340,note_on,60,0,1,,,,,,,,,0,,,79,0
101340,note_on,72,0,3,,,,,,,,,2,,,55,72
101340,note_on,72,0,2,,,,,,,,,1,,,55,72
101388,note_on,48,0,3,,,,,,,,,2,,,55,0
101388,note_on,48,0,1,,,,,,,,,0,,,82,0
101388,note_on,48,0,2,,,,,,,,,1,,,55,0
101388,note_on,48,0,4,,,,,,,,,3,,,55,0
101388,note_on,48,0,5,,,,,,,,,4,,,43,0
101400,note_on,12,0,4,,,,,,,,,3,,,58,72
101400,note_on,12,0,5,,,,,,,,,4,,,46,72
101400,note_on,12,0,3,,,,,,,,,2,,,58,72
101400,note_on,12,0,1,,,,,,,,,0,,,86,72
101400,note_on,12,0,2,,,,,,,,,1,,,58,72
101448,note_on,48,0,5,,,,,,,,,4,,,46,0
101448,note_on,48,0,3,,,,,,,,,2,,,58,0
101448,note_on,48,0,4,,,,,,,,,3,,,58,0
101448,note_on,48,0,2,,,,,,,,,1,,,58,0
101460,note_on,12,0,4,,,,,,,,,3,,,62,72
101460,note_on,0,0,1,,,,,,,,,0,,,82,72
101460,note_on,12,0,2,,,,,,,,,1,,,62,72
101460,note_on,60,0,1,,,,,,,,,0,,,86,0
101460,note_on,12,0,5,,,,,,,,,4,,,50,72
101460,note_on,12,0,3,,,,,,,,,2,,,62,72
101508,note_on,48,0,1,,,,,,,,,0,,,82,0
101508,note_on,48,0,3,,,,,,,,,2,,,62,0
101508,note_on,48,0,4,,,,,,,,,3,,,62,0
101508,note_on,48,0,2,,,,,,,,,1,,,62,0
101508,note_on,48,0,5,,,,,,,,,4,,,50,0
101520,note_on,12,0,1,,,,,,,,,0,,,79,72
101520,note_on,12,0,2,,,,,,,,,1,,,67,72
101520,note_on,12,0,5,,,,,,,,,4,,,55,72
101520,note_on,12,0,3,,,,,,,,,2,,,67,72
101520,note_on,12,0,4,,,,,,,,,3,,,67,72
101568,note_on,48,0,4,,,,,,,,,3,,,67,0
101568,note_on,48,0,2,,,,,,,,,1,,,67,0
101568,note_on,48,0,5,,,,,,,,,4,,,55,0
101568,note_on,48,0,3,,,,,,,,,2,,,67,0
101580,note_on,60,0,1,,,,,,,,,0,,,79,0
101580,note_on,0,0,1,,,,,,,,,0,,,82,72
101580,note_on,12,0,3,,,,,,,,,2,,,62,72
101580,note_on,12,0,2,,,,,,,,,1,,,62,72
101580,note_on,12,0,5,,,,,,,,,4,,,50,72
101580,note_on,12,0,4,,,,,,,,,3,,,62,72
101628,note_on,48,0,5,,,,,,,,,4,,,50,0
101628,note_on,48,0,4,,,,,,,,,3,,,62,0
101628,note_on,48,0,3,,,,,,,,,2,,,62,0
101628,note_on,48,0,1,,,,,,,,,0,,,82,0
101628,note_on,48,0,2,,,,,,,,,1,,,62,0
101640,note_on,12,0,3,,,,,,,,,2,,,58,72
101640,note_on,12,0,5,,,,,,,,,4,,,46,72
101640,note_on,12,0,4,,,,,,,,,3,,,58,72
101640,note_on,12,0,1,,,,,,,,,0,,,86,72
101640,note_on,12,0,2,,,,,,,,,1,,,58,72
101688,note_on,48,0,4,,,,,,,,,3,,,58,0
101688,note_on,48,0,2,,,,,,,,,1,,,58,0
101688,note_on,48,0,3,,,,,,,,,2,,,58,0
101688,note_on,48,0,5,,,,,,,,,4,,,46,0
101700,note_on,0,0,1,,,,,,,,,0,,,82,72
101700,note_on,12,0,4,,,,,,,,,3,,,55,72
101700,note_on,60,0,1,,,,,,,,,0,,,86,0
101700,note_on,12,0,2,,,,,,,,,1,,,55,72
101700,note_on,12,0,3,,,,,,,,,2,,,55,72
101700,note_on,12,0,5,,,,,,,,,4,,,43,72
101748,note_on,48,0,1,,,,,,,,,0,,,82,0
101748,note_on,48,0,4,,,,,,,,,3,,,55,0
101748,note_on,48,0,5,,,,,,,,,4,,,43,0
101748,note_on,48,0,2,,,,,,,,,1,,,55,0
101748,note_on,48,0,3,,,,,,,,,2,,,55,0
101760,note_on,12,0,4,,,,,,,,,3,,,60,72
101760,note_on,12,0,2,,,,,,,,,1,,,60,72
101760,note_on,12,0,1,,,,,,,,,0,,,80,72
101760,note_on,12,0,5,,,,,,,,,4,,,48,72
101760,note_on,12,0,3,,,,,,,,,2,,,60,72
101820,note_on,0,0,1,,,,,,,,,0,,,84,72
101820,note_on,60,0,1,,,,,,,,,0,,,80,0
101868,note_on,48,0,1,,,,,,,,,0,,,84,0
101880,note_on,12,0,1,,,,,,,,,0,,,87,72
101940,note_on,0,0,1,,,,,,,,,0,,,84,72
101940,note_on,60,0,1,,,,,,,,,0,,,87,0
101988,note_on,48,0,1,,,,,,,,,0,,,84,0
102000,note_on,12,0,1,,,,,,,,,0,,,80,72
102060,note_on,0,0,1,,,,,,,,,0,,,84,72
102060,note_on,60,0,1,,,,,,,,,0,,,80,0
102108,note_on,48,0,1,,,,,,,,,0,,,84,0
102120,note_on,12,0,1,,,,,,,,,0,,,87,72
102144,note_on,384,0,5,,,,,,,,,4,,,48,0
102144,note_on,384,0,4,,,,,,,,,3,,,60,0
102144,note_on,384,0,3,,,,,,,,,2,,,60,0
102144,note_on,384,0,2,,,,,,,,,1,,,60,0
102180,note_on,0,0,1,,,,,,,,,0,,,84,72
102180,note_on,60,0,1,,,,,,,,,0,,,87,0
102228,note_on,48,0,1,,,,,,,,,0,,,84,0
102240,note_on,96,0,2,,,,,,,,,1,,,78,105
102240,note_on,96,0,4,,,,,,,,,3,,,68,105
102240,time_signature,12412,1,0,6,4,24,8,,,,,,,,,
102240,note_on,12,0,1,,,,,,,,,0,,,78,105
102240,note_on,96,0,5,,,,,,,,,4,,,44,105
102240,note_on,96,0,3,,,,,,,,,2,,,72,105
102624,note_on,384,0,2,,,,,,,,,1,,,78,0
102624,note_on,384,0,3,,,,,,,,,2,,,72,0
102624,note_on,384,0,4,,,,,,,,,3,,,68,0
102624,note_on,384,0,5,,,,,,,,,4,,,44,0
102624,note_on,384,0,1,,,,,,,,,0,,,78,0
102720,note_on,96,0,1,,,,,,,,,0,,,79,105
102720,note_on,96,0,2,,,,,,,,,1,,,79,105
102720,note_on,96,0,4,,,,,,,,,3,,,62,105
102720,note_on,96,0,3,,,,,,,,,2,,,71,105
102720,note_on,96,0,5,,,,,,,,,4,,,43,105
103488,note_on,768,0,3,,,,,,,,,2,,,71,0
103488,note_on,768,0,2,,,,,,,,,1,,,79,0
103488,note_on,768,0,4,,,,,,,,,3,,,62,0
103488,note_on,768,0,5,,,,,,,,,4,,,43,0
103488,note_on,768,0,1,,,,,,,,,0,,,79,0
103680,time_signature,1440,1,0,4,4,24,8,,,,,,,,,
103740,note_on,252,0,3,,,,,,,,,2,,,55,58
103740,note_on,252,0,5,,,,,,,,,4,,,43,58
103740,note_on,252,0,1,,,,,,,,,0,,,55,58
103740,note_on,252,0,4,,,,,,,,,3,,,55,58
103740,note_on,252,0,2,,,,,,,,,1,,,55,58
103788,note_on,48,0,1,,,,,,,,,0,,,55,0
103788,note_on,48,0,5,,,,,,,,,4,,,43,0
103788,note_on,48,0,4,,,,,,,,,3,,,55,0
103788,note_on,48,0,2,,,,,,,,,1,,,55,0
103788,note_on,48,0,3,,,,,,,,,2,,,55,0
103800,note_on,12,0,5,,,,,,,,,4,,,47,58
103800,note_on,12,0,2,,,,,,,,,1,,,59,58
103800,note_on,12,0,1,,,,,,,,,0,,,59,58
103800,note_on,12,0,4,,,,,,,,,3,,,59,58
103800,note_on,12,0,3,,,,,,,,,2,,,59,58
103848,note_on,48,0,4,,,,,,,,,3,,,59,0
103848,note_on,48,0,5,,,,,,,,,4,,,47,0
103848,note_on,48,0,2,,,,,,,,,1,,,59,0
103848,note_on,48,0,1,,,,,,,,,0,,,59,0
103848,note_on,48,0,3,,,,,,,,,2,,,59,0
103860,note_on,12,0,3,,,,,,,,,2,,,62,58
103860,note_on,12,0,1,,,,,,,,,0,,,62,58
103860,note_on,12,0,4,,,,,,,,,3,,,62,58
103860,note_on,12,0,2,,,,,,,,,1,,,62,58
103860,note_on,12,0,5,,,,,,,,,4,,,50,58
103908,note_on,48,0,1,,,,,,,,,0,,,62,0
103908,note_on,48,0,4,,,,,,,,,3,,,62,0
103908,note_on,48,0,2,,,,,,,,,1,,,62,0
103908,note_on,48,0,5,,,,,,,,,4,,,50,0
103908,note_on,48,0,3,,,,,,,,,2,,,62,0
103920,note_on,12,0,4,,,,,,,,,3,,,67,58
103920,note_on,12,0,2,,,,,,,,,1,,,67,58
103920,note_on,12,0,1,,,,,,,,,0,,,67,58
103920,note_on,12,0,3,,,,,,,,,2,,,67,58
103920,note_on,12,0,5,,,,,,,,,4,,,55,58
103968,note_on,48,0,1,,,,,,,,,0,,,67,0
103968,note_on,48,0,5,,,,,,,,,4,,,55,0
103968,note_on,48,0,4,,,,,,,,,3,,,67,0
103968,note_on,48,0,2,,,,,,,,,1,,,67,0
103968,note_on,48,0,3,,,,,,,,,2,,,67,0
103980,note_on,12,0,2,,,,,,,,,1,,,62,58
103980,note_on,12,0,1,,,,,,,,,0,,,62,58
103980,note_on,12,0,3,,,,,,,,,2,,,62,58
103980,note_on,12,0,5,,,,,,,,,4,,,50,58
103980,note_on,12,0,4,,,,,,,,,3,,,62,58
104028,note_on,48,0,3,,,,,,,,,2,,,62,0
104028,note_on,48,0,1,,,,,,,,,0,,,62,0
104028,note_on,48,0,4,,,,,,,,,3,,,62,0
104028,note_on,48,0,2,,,,,,,,,1,,,62,0
104028,note_on,48,0,5,,,,,,,,,4,,,50,0
104040,note_on,12,0,4,,,,,,,,,3,,,59,58
104040,note_on,12,0,1,,,,,,,,,0,,,59,58
104040,note_on,12,0,2,,,,,,,,,1,,,59,58
104040,note_on,12,0,5,,,,,,,,,4,,,47,58
104040,note_on,12,0,3,,,,,,,,,2,,,59,58
104088,note_on,48,0,5,,,,,,,,,4,,,47,0
104088,note_on,48,0,4,,,,,,,,,3,,,59,0
104088,note_on,48,0,1,,,,,,,,,0,,,59,0
104088,note_on,48,0,3,,,,,,,,,2,,,59,0
104088,note_on,48,0,2,,,,,,,,,1,,,59,0
104100,note_on,12,0,5,,,,,,,,,4,,,43,58
104100,note_on,12,0,2,,,,,,,,,1,,,55,58
104100,note_on,12,0,4,,,,,,,,,3,,,55,58
104100,note_on,12,0,3,,,,,,,,,2,,,55,58
104100,note_on,12,0,1,,,,,,,,,0,,,55,58
104148,note_on,48,0,1,,,,,,,,,0,,,55,0
104148,note_on,48,0,5,,,,,,,,,4,,,43,0
104148,note_on,48,0,3,,,,,,,,,2,,,55,0
104148,note_on,48,0,4,,,,,,,,,3,,,55,0
104148,note_on,48,0,2,,,,,,,,,1,,,55,0
104220,note_on,72,0,4,,,,,,,,,3,,,55,58
104220,note_on,72,0,2,,,,,,,,,1,,,55,58
104220,note_on,72,0,5,,,,,,,,,4,,,43,58
104220,note_on,72,0,1,,,,,,,,,0,,,55,58
104220,note_on,72,0,3,,,,,,,,,2,,,55,58
104268,note_on,48,0,3,,,,,,,,,2,,,55,0
104268,note_on,48,0,2,,,,,,,,,1,,,55,0
104268,note_on,48,0,1,,,,,,,,,0,,,55,0
104268,note_on,48,0,4,,,,,,,,,3,,,55,0
104268,note_on,48,0,5,,,,,,,,,4,,,43,0
104280,note_on,12,0,4,,,,,,,,,3,,,59,58
104280,note_on,12,0,2,,,,,,,,,1,,,59,58
104280,note_on,12,0,1,,,,,,,,,0,,,59,58
104280,note_on,12,0,5,,,,,,,,,4,,,47,58
104280,note_on,12,0,3,,,,,,,,,2,,,59,58
104328,note_on,48,0,4,,,,,,,,,3,,,59,0
104328,note_on,48,0,2,,,,,,,,,1,,,59,0
104328,note_on,48,0,1,,,,,,,,,0,,,59,0
104328,note_on,48,0,5,,,,,,,,,4,,,47,0
104328,note_on,48,0,3,,,,,,,,,2,,,59,0
104340,note_on,12,0,2,,,,,,,,,1,,,62,58
104340,note_on,12,0,1,,,,,,,,,0,,,62,58
104340,note_on,12,0,5,,,,,,,,,4,,,50,58
104340,note_on,12,0,4,,,,,,,,,3,,,62,58
104340,note_on,12,0,3,,,,,,,,,2,,,62,58
104388,note_on,48,0,1,,,,,,,,,0,,,62,0
104388,note_on,48,0,4,,,,,,,,,3,,,62,0
104388,note_on,48,0,5,,,,,,,,,4,,,50,0
104388,note_on,48,0,3,,,,,,,,,2,,,62,0
104388,note_on,48,0,2,,,,,,,,,1,,,62,0
104400,note_on,12,0,1,,,,,,,,,0,,,67,58
104400,note_on,12,0,2,,,,,,,,,1,,,67,58
104400,note_on,12,0,3,,,,,,,,,2,,,67,58
104400,note_on,12,0,5,,,,,,,,,4,,,55,58
104400,note_on,12,0,4,,,,,,,,,3,,,67,58
104448,note_on,48,0,1,,,,,,,,,0,,,67,0
104448,note_on,48,0,2,,,,,,,,,1,,,67,0
104448,note_on,48,0,3,,,,,,,,,2,,,67,0
104448,note_on,48,0,5,,,,,,,,,4,,,55,0
104448,note_on,48,0,4,,,,,,,,,3,,,67,0
104460,note_on,12,0,5,,,,,,,,,4,,,50,58
104460,note_on,12,0,3,,,,,,,,,2,,,62,58
104460,note_on,12,0,1,,,,,,,,,0,,,62,58
104460,note_on,12,0,2,,,,,,,,,1,,,62,58
104460,note_on,12,0,4,,,,,,,,,3,,,62,58
104508,note_on,48,0,5,,,,,,,,,4,,,50,0
104508,note_on,48,0,1,,,,,,,,,0,,,62,0
104508,note_on,48,0,2,,,,,,,,,1,,,62,0
104508,note_on,48,0,3,,,,,,,,,2,,,62,0
104508,note_on,48,0,4,,,,,,,,,3,,,62,0
104520,note_on,12,0,5,,,,,,,,,4,,,47,58
104520,note_on,12,0,4,,,,,,,,,3,,,59,58
104520,note_on,12,0,1,,,,,,,,,0,,,59,58
104520,note_on,12,0,2,,,,,,,,,1,,,59,58
104520,note_on,12,0,3,,,,,,,,,2,,,59,58
104568,note_on,48,0,4,,,,,,,,,3,,,59,0
104568,note_on,48,0,2,,,,,,,,,1,,,59,0
104568,note_on,48,0,1,,,,,,,,,0,,,59,0
104568,note_on,48,0,5,,,,,,,,,4,,,47,0
104568,note_on,48,0,3,,,,,,,,,2,,,59,0
104580,note_on,12,0,2,,,,,,,,,1,,,55,58
104580,note_on,12,0,3,,,,,,,,,2,,,55,58
104580,note_on,12,0,5,,,,,,,,,4,,,43,58
104580,note_on,12,0,1,,,,,,,,,0,,,55,58
104580,note_on,12,0,4,,,,,,,,,3,,,55,58
104628,note_on,48,0,5,,,,,,,,,4,,,43,0
104628,note_on,48,0,4,,,,,,,,,3,,,55,0
104628,note_on,48,0,2,,,,,,,,,1,,,55,0
104628,note_on,48,0,1,,,,,,,,,0,,,55,0
104628,note_on,48,0,3,,,,,,,,,2,,,55,0
104640,time_signature,960,1,0,6,4,24,8,,,,,,,,,
104640,note_on,12,0,1,,,,,,,,,0,,,66,58
104640,note_on,12,0,4,,,,,,,,,3,,,56,58
104640,note_on,12,0,5,,,,,,,,,4,,,44,58
104640,note_on,12,0,2,,,,,,,,,1,,,66,58
104640,note_on,12,0,3,,,,,,,,,2,,,60,58
105024,note_on,384,0,3,,,,,,,,,2,,,60,0
105024,note_on,384,0,4,,,,,,,,,3,,,56,0
105024,note_on,384,0,5,,,,,,,,,4,,,44,0
105024,note_on,384,0,2,,,,,,,,,1,,,66,0
105024,note_on,384,0,1,,,,,,,,,0,,,66,0
105120,note_on,96,0,3,,,,,,,,,2,,,59,58
105120,note_on,96,0,2,,,,,,,,,1,,,67,58
105120,note_on,96,0,5,,,,,,,,,4,,,43,58
105120,note_on,96,0,1,,,,,,,,,0,,,67,58
105120,note_on,96,0,4,,,,,,,,,3,,,50,58
105888,note_on,768,0,2,,,,,,,,,1,,,67,0
105888,note_on,768,0,1,,,,,,,,,0,,,67,0
105888,note_on,768,0,3,,,,,,,,,2,,,59,0
105888,note_on,768,0,4,,,,,,,,,3,,,50,0
105888,note_on,768,0,5,,,,,,,,,4,,,43,0
106080,note_on,192,0,5,,,,,,,,,4,,,51,101
106080,note_on,192,0,4,,,,,,,,,3,,,63,101
106080,note_on,192,0,2,,,,,,,,,1,,,63,81
106080,set_tempo,0,1,0,,,,,,468750,,,,,,,
106080,time_signature,1440,1,0,3,8,12,8,,,,,,,,,
106080,note_on,192,0,3,,,,,,,,,2,,,63,81
106080,note_on,192,0,1,,,,,,,,,0,,,63,81
106176,note_on,96,0,1,,,,,,,,,0,,,63,0
106176,note_on,96,0,5,,,,,,,,,4,,,51,0
106176,note_on,96,0,2,,,,,,,,,1,,,63,0
106176,note_on,96,0,4,,,,,,,,,3,,,63,0
106176,note_on,96,0,3,,,,,,,,,2,,,63,0
106200,note_on,24,0,1,,,,,,,,,0,,,75,81
106200,note_on,24,0,5,,,,,,,,,4,,,63,81
106200,note_on,24,0,4,,,,,,,,,3,,,75,81
106200,note_on,24,0,2,,,,,,,,,1,,,75,81
106200,note_on,24,0,3,,,,,,,,,2,,,75,81
106296,note_on,96,0,3,,,,,,,,,2,,,75,0
106296,note_on,96,0,5,,,,,,,,,4,,,63,0
106296,note_on,96,0,1,,,,,,,,,0,,,75,0
106296,note_on,96,0,2,,,,,,,,,1,,,75,0
106296,note_on,96,0,4,,,,,,,,,3,,,75,0
106320,note_on,24,0,4,,,,,,,,,3,,,63,81
106320,note_on,24,0,1,,,,,,,,,0,,,63,81
106320,note_on,24,0,2,,,,,,,,,1,,,63,81
106320,note_on,24,0,5,,,,,,,,,4,,,51,81
106320,note_on,24,0,3,,,,,,,,,2,,,63,81
106416,note_on,96,0,1,,,,,,,,,0,,,63,0
106416,note_on,96,0,5,,,,,,,,,4,,,51,0
106416,note_on,96,0,3,,,,,,,,,2,,,63,0
106416,note_on,96,0,2,,,,,,,,,1,,,63,0
106416,note_on,96,0,4,,,,,,,,,3,,,63,0
106440,note_on,24,0,2,,,,,,,,,1,,,63,81
106440,note_on,24,0,1,,,,,,,,,0,,,63,101
106440,note_on,24,0,5,,,,,,,,,4,,,51,101
106440,note_on,24,0,3,,,,,,,,,2,,,63,101
106440,note_on,24,0,4,,,,,,,,,3,,,63,101
106536,note_on,96,0,4,,,,,,,,,3,,,63,0
106536,note_on,96,0,3,,,,,,,,,2,,,63,0
106536,note_on,96,0,5,,,,,,,,,4,,,51,0
106536,note_on,96,0,2,,,,,,,,,1,,,63,0
106536,note_on,96,0,1,,,,,,,,,0,,,63,0
106560,note_on,24,0,5,,,,,,,,,4,,,63,81
106560,note_on,24,0,1,,,,,,,,,0,,,75,81
106560,note_on,24,0,4,,,,,,,,,3,,,75,81
106560,note_on,24,0,2,,,,,,,,,1,,,75,81
106560,note_on,24,0,3,,,,,,,,,2,,,75,81
106656,note_on,96,0,3,,,,,,,,,2,,,75,0
106656,note_on,96,0,5,,,,,,,,,4,,,63,0
106656,note_on,96,0,4,,,,,,,,,3,,,75,0
106656,note_on,96,0,2,,,,,,,,,1,,,75,0
106656,note_on,96,0,1,,,,,,,,,0,,,75,0
106680,note_on,24,0,3,,,,,,,,,2,,,63,81
106680,note_on,24,0,1,,,,,,,,,0,,,63,81
106680,note_on,24,0,4,,,,,,,,,3,,,63,81
106680,note_on,24,0,5,,,,,,,,,4,,,51,81
106680,note_on,24,0,2,,,,,,,,,1,,,63,81
106776,note_on,96,0,1,,,,,,,,,0,,,63,0
106776,note_on,96,0,4,,,,,,,,,3,,,63,0
106776,note_on,96,0,2,,,,,,,,,1,,,63,0
106776,note_on,96,0,3,,,,,,,,,2,,,63,0
106776,note_on,96,0,5,,,,,,,,,4,,,51,0
106800,note_on,24,0,4,,,,,,,,,3,,,63,81
106800,note_on,24,0,1,,,,,,,,,0,,,63,81
106800,note_on,24,0,2,,,,,,,,,1,,,63,81
106800,note_on,24,0,3,,,,,,,,,2,,,63,81
106800,note_on,24,0,5,,,,,,,,,4,,,51,81
106992,note_on,192,0,3,,,,,,,,,2,,,63,0
106992,note_on,192,0,5,,,,,,,,,4,,,51,0
106992,note_on,192,0,1,,,,,,,,,0,,,63,0
106992,note_on,192,0,4,,,,,,,,,3,,,63,0
106992,note_on,192,0,2,,,,,,,,,1,,,63,0
107160,note_on,168,0,2,,,,,,,,,1,,,82,101
107160,note_on,168,0,1,,,,,,,,,0,,,82,101
107160,note_on,168,0,3,,,,,,,,,2,,,82,101
107208,note_on,48,0,1,,,,,,,,,0,,,82,0
107208,note_on,48,0,2,,,,,,,,,1,,,82,0
107208,note_on,48,0,3,,,,,,,,,2,,,82,0
107220,note_on,12,0,1,,,,,,,,,0,,,80,81
107220,note_on,12,0,3,,,,,,,,,2,,,80,81
107220,note_on,12,0,2,,,,,,,,,1,,,80,81
107268,note_on,48,0,2,,,,,,,,,1,,,80,0
107268,note_on,48,0,3,,,,,,,,,2,,,80,0
107268,note_on,48,0,1,,,,,,,,,0,,,80,0
107280,note_on,12,0,1,,,,,,,,,0,,,79,81
107280,note_on,12,0,3,,,,,,,,,2,,,79,81
107280,note_on,12,0,2,,,,,,,,,1,,,79,81
107328,note_on,48,0,2,,,,,,,,,1,,,79,0
107328,note_on,48,0,1,,,,,,,,,0,,,79,0
107328,note_on,48,0,3,,,,,,,,,2,,,79,0
107340,note_on,12,0,3,,,,,,,,,2,,,77,81
107340,note_on,12,0,2,,,,,,,,,1,,,77,81
107340,note_on,12,0,1,,,,,,,,,0,,,77,81
107388,note_on,48,0,1,,,,,,,,,0,,,77,0
107388,note_on,48,0,2,,,,,,,,,1,,,77,0
107388,note_on,48,0,3,,,,,,,,,2,,,77,0
107400,note_on,12,0,3,,,,,,,,,2,,,75,81
107400,note_on,12,0,1,,,,,,,,,0,,,75,81
107400,note_on,12,0,2,,,,,,,,,1,,,75,81
107448,note_on,48,0,3,,,,,,,,,2,,,75,0
107448,note_on,48,0,1,,,,,,,,,0,,,75,0
107448,note_on,48,0,2,,,,,,,,,1,,,75,0
107460,note_on,12,0,3,,,,,,,,,2,,,74,81
107460,note_on,12,0,1,,,,,,,,,0,,,74,81
107460,note_on,12,0,2,,,,,,,,,1,,,74,81
107508,note_on,48,0,2,,,,,,,,,1,,,74,0
107508,note_on,48,0,3,,,,,,,,,2,,,74,0
107508,note_on,48,0,1,,,,,,,,,0,,,74,0
107520,note_on,12,0,3,,,,,,,,,2,,,72,101
107520,note_on,12,0,1,,,,,,,,,0,,,72,101
107520,note_on,12,0,2,,,,,,,,,1,,,72,101
107568,note_on,48,0,3,,,,,,,,,2,,,72,0
107568,note_on,48,0,1,,,,,,,,,0,,,72,0
107568,note_on,48,0,2,,,,,,,,,1,,,72,0
107580,note_on,12,0,1,,,,,,,,,0,,,70,81
107580,note_on,12,0,3,,,,,,,,,2,,,70,81
107580,note_on,12,0,2,,,,,,,,,1,,,70,81
107628,note_on,48,0,2,,,,,,,,,1,,,70,0
107628,note_on,48,0,3,,,,,,,,,2,,,70,0
107628,note_on,48,0,1,,,,,,,,,0,,,70,0
107640,note_on,12,0,3,,,,,,,,,2,,,68,81
107640,note_on,12,0,2,,,,,,,,,1,,,68,81
107640,note_on,12,0,1,,,,,,,,,0,,,68,81
107688,note_on,48,0,1,,,,,,,,,0,,,68,0
107688,note_on,48,0,3,,,,,,,,,2,,,68,0
107688,note_on,48,0,2,,,,,,,,,1,,,68,0
107700,note_on,12,0,3,,,,,,,,,2,,,67,81
107700,note_on,12,0,1,,,,,,,,,0,,,67,81
107700,note_on,12,0,2,,,,,,,,,1,,,67,81
107748,note_on,48,0,1,,,,,,,,,0,,,67,0
107748,note_on,48,0,2,,,,,,,,,1,,,67,0
107748,note_on,48,0,3,,,,,,,,,2,,,67,0
107760,note_on,12,0,2,,,,,,,,,1,,,65,81
107760,note_on,12,0,3,,,,,,,,,2,,,65,81
107760,note_on,12,0,1,,,,,,,,,0,,,65,81
107808,note_on,48,0,2,,,,,,,,,1,,,65,0
107808,note_on,48,0,3,,,,,,,,,2,,,65,0
107808,note_on,48,0,1,,,,,,,,,0,,,65,0
107820,note_on,12,0,2,,,,,,,,,1,,,63,81
107820,note_on,12,0,1,,,,,,,,,0,,,63,81
107820,note_on,12,0,3,,,,,,,,,2,,,63,81
107868,note_on,48,0,1,,,,,,,,,0,,,63,0
107868,note_on,48,0,3,,,,,,,,,2,,,63,0
107868,note_on,48,0,2,,,,,,,,,1,,,63,0
107880,note_on,12,0,2,,,,,,,,,1,,,62,101
107880,note_on,888,0,4,,,,,,,,,3,,,62,101
107880,note_on,12,0,1,,,,,,,,,0,,,62,101
107880,note_on,12,0,3,,,,,,,,,2,,,62,101
107880,note_on,888,0,5,,,,,,,,,4,,,50,101
107976,note_on,96,0,2,,,,,,,,,1,,,62,0
107976,note_on,96,0,4,,,,,,,,,3,,,62,0
107976,note_on,96,0,1,,,,,,,,,0,,,62,0
107976,note_on,96,0,5,,,,,,,,,4,,,50,0
107976,note_on,96,0,3,,,,,,,,,2,,,62,0
108000,note_on,24,0,4,,,,,,,,,3,,,74,81
108000,note_on,24,0,3,,,,,,,,,2,,,74,81
108000,note_on,24,0,2,,,,,,,,,1,,,74,81
108000,note_on,24,0,1,,,,,,,,,0,,,74,81
108000,note_on,24,0,5,,,,,,,,,4,,,62,81
108096,note_on,96,0,2,,,,,,,,,1,,,74,0
108096,note_on,96,0,1,,,,,,,,,0,,,74,0
108096,note_on,96,0,3,,,,,,,,,2,,,74,0
108096,note_on,96,0,4,,,,,,,,,3,,,74,0
108096,note_on,96,0,5,,,,,,,,,4,,,62,0
108120,note_on,24,0,2,,,,,,,,,1,,,62,81
108120,note_on,24,0,4,,,,,,,,,3,,,62,81
108120,note_on,24,0,1,,,,,,,,,0,,,62,81
108120,note_on,24,0,5,,,,,,,,,4,,,50,81
108120,note_on,24,0,3,,,,,,,,,2,,,62,81
108216,note_on,96,0,3,,,,,,,,,2,,,62,0
108216,note_on,96,0,4,,,,,,,,,3,,,62,0
108216,note_on,96,0,1,,,,,,,,,0,,,62,0
108216,note_on,96,0,5,,,,,,,,,4,,,50,0
108216,note_on,96,0,2,,,,,,,,,1,,,62,0
108240,note_on,24,0,3,,,,,,,,,2,,,62,101
108240,note_on,24,0,5,,,,,,,,,4,,,50,101
108240,note_on,24,0,2,,,,,,,,,1,,,62,81
108240,note_on,24,0,1,,,,,,,,,0,,,62,101
108240,note_on,24,0,4,,,,,,,,,3,,,62,101
108336,note_on,96,0,1,,,,,,,,,0,,,62,0
108336,note_on,96,0,5,,,,,,,,,4,,,50,0
108336,note_on,96,0,3,,,,,,,,,2,,,62,0
108336,note_on,96,0,4,,,,,,,,,3,,,62,0
108336,note_on,96,0,2,,,,,,,,,1,,,62,0
108360,note_on,24,0,2,,,,,,,,,1,,,74,81
108360,note_on,24,0,1,,,,,,,,,0,,,74,81
108360,note_on,24,0,5,,,,,,,,,4,,,62,81
108360,note_on,24,0,3,,,,,,,,,2,,,74,81
108360,note_on,24,0,4,,,,,,,,,3,,,74,81
108456,note_on,96,0,2,,,,,,,,,1,,,74,0
108456,note_on,96,0,3,,,,,,,,,2,,,74,0
108456,note_on,96,0,4,,,,,,,,,3,,,74,0
108456,note_on,96,0,5,,,,,,,,,4,,,62,0
108456,note_on,96,0,1,,,,,,,,,0,,,74,0
108480,note_on,24,0,5,,,,,,,,,4,,,50,81
108480,note_on,24,0,3,,,,,,,,,2,,,62,81
108480,note_on,24,0,4,,,,,,,,,3,,,62,81
108480,note_on,24,0,1,,,,,,,,,0,,,62,81
108480,note_on,24,0,2,,,,,,,,,1,,,62,81
108576,note_on,96,0,5,,,,,,,,,4,,,50,0
108576,note_on,96,0,3,,,,,,,,,2,,,62,0
108576,note_on,96,0,1,,,,,,,,,0,,,62,0
108576,note_on,96,0,2,,,,,,,,,1,,,62,0
108576,note_on,96,0,4,,,,,,,,,3,,,62,0
108600,note_on,24,0,5,,,,,,,,,4,,,50,81
108600,note_on,24,0,3,,,,,,,,,2,,,62,81
108600,note_on,24,0,1,,,,,,,,,0,,,62,81
108600,note_on,24,0,2,,,,,,,,,1,,,62,81
108600,note_on,24,0,4,,,,,,,,,3,,,62,81
108792,note_on,192,0,2,,,,,,,,,1,,,62,0
108792,note_on,192,0,4,,,,,,,,,3,,,62,0
108792,note_on,192,0,5,,,,,,,,,4,,,50,0
108792,note_on,192,0,1,,,,,,,,,0,,,62,0
108792,note_on,192,0,3,,,,,,,,,2,,,62,0
108960,note_on,168,0,1,,,,,,,,,0,,,80,101
108960,note_on,168,0,3,,,,,,,,,2,,,80,101
108960,note_on,168,0,2,,,,,,,,,1,,,80,101
109008,note_on,48,0,1,,,,,,,,,0,,,80,0
109008,note_on,48,0,3,,,,,,,,,2,,,80,0
109008,note_on,48,0,2,,,,,,,,,1,,,80,0
109020,note_on,12,0,1,,,,,,,,,0,,,79,81
109020,note_on,12,0,3,,,,,,,,,2,,,79,81
109020,note_on,12,0,2,,,,,,,,,1,,,79,81
109068,note_on,48,0,3,,,,,,,,,2,,,79,0
109068,note_on,48,0,1,,,,,,,,,0,,,79,0
109068,note_on,48,0,2,,,,,,,,,1,,,79,0
109080,note_on,12,0,2,,,,,,,,,1,,,77,81
109080,note_on,12,0,3,,,,,,,,,2,,,77,81
109080,note_on,12,0,1,,,,,,,,,0,,,77,81
109128,note_on,48,0,1,,,,,,,,,0,,,77,0
109128,note_on,48,0,2,,,,,,,,,1,,,77,0
109128,note_on,48,0,3,,,,,,,,,2,,,77,0
109140,note_on,12,0,2,,,,,,,,,1,,,75,81
109140,note_on,12,0,3,,,,,,,,,2,,,75,81
109140,note_on,12,0,1,,,,,,,,,0,,,75,81
109188,note_on,48,0,2,,,,,,,,,1,,,75,0
109188,note_on,48,0,1,,,,,,,,,0,,,75,0
109188,note_on,48,0,3,,,,,,,,,2,,,75,0
109200,note_on,12,0,1,,,,,,,,,0,,,74,81
109200,note_on,12,0,3,,,,,,,,,2,,,74,81
109200,note_on,12,0,2,,,,,,,,,1,,,74,81
109248,note_on,48,0,2,,,,,,,,,1,,,74,0
109248,note_on,48,0,1,,,,,,,,,0,,,74,0
109248,note_on,48,0,3,,,,,,,,,2,,,74,0
109260,note_on,12,0,2,,,,,,,,,1,,,72,81
109260,note_on,12,0,3,,,,,,,,,2,,,72,81
109260,note_on,12,0,1,,,,,,,,,0,,,72,81
109308,note_on,48,0,2,,,,,,,,,1,,,72,0
109308,note_on,48,0,1,,,,,,,,,0,,,72,0
109308,note_on,48,0,3,,,,,,,,,2,,,72,0
109320,note_on,12,0,1,,,,,,,,,0,,,70,101
109320,note_on,12,0,3,,,,,,,,,2,,,70,101
109320,note_on,12,0,2,,,,,,,,,1,,,70,101
109368,note_on,48,0,1,,,,,,,,,0,,,70,0
109368,note_on,48,0,2,,,,,,,,,1,,,70,0
109368,note_on,48,0,3,,,,,,,,,2,,,70,0
109380,note_on,12,0,1,,,,,,,,,0,,,68,81
109380,note_on,12,0,3,,,,,,,,,2,,,68,81
109380,note_on,12,0,2,,,,,,,,,1,,,68,81
109428,note_on,48,0,1,,,,,,,,,0,,,68,0
109428,note_on,48,0,3,,,,,,,,,2,,,68,0
109428,note_on,48,0,2,,,,,,,,,1,,,68,0
109440,note_on,12,0,1,,,,,,,,,0,,,67,81
109440,note_on,12,0,2,,,,,,,,,1,,,67,81
109440,note_on,12,0,3,,,,,,,,,2,,,67,81
109488,note_on,48,0,1,,,,,,,,,0,,,67,0
109488,note_on,48,0,2,,,,,,,,,1,,,67,0
109488,note_on,48,0,3,,,,,,,,,2,,,67,0
109500,note_on,12,0,1,,,,,,,,,0,,,65,81
109500,note_on,12,0,2,,,,,,,,,1,,,65,81
109500,note_on,12,0,3,,,,,,,,,2,,,65,81
109548,note_on,48,0,3,,,,,,,,,2,,,65,0
109548,note_on,48,0,2,,,,,,,,,1,,,65,0
109548,note_on,48,0,1,,,,,,,,,0,,,65,0
109560,note_on,12,0,3,,,,,,,,,2,,,63,81
109560,note_on,12,0,2,,,,,,,,,1,,,63,81
109560,note_on,12,0,1,,,,,,,,,0,,,63,81
109608,note_on,48,0,2,,,,,,,,,1,,,63,0
109608,note_on,48,0,1,,,,,,,,,0,,,63,0
109608,note_on,48,0,3,,,,,,,,,2,,,63,0
109620,note_on,12,0,1,,,,,,,,,0,,,62,81
109620,note_on,12,0,3,,,,,,,,,2,,,62,81
109620,note_on,12,0,2,,,,,,,,,1,,,62,81
109668,note_on,48,0,1,,,,,,,,,0,,,62,0
109668,note_on,48,0,3,,,,,,,,,2,,,62,0
109668,note_on,48,0,2,,,,,,,,,1,,,62,0
109680,note_on,12,0,3,,,,,,,,,2,,,60,101
109680,note_on,12,0,1,,,,,,,,,0,,,60,101
109680,note_on,12,0,2,,,,,,,,,1,,,60,101
109680,note_on,888,0,5,,,,,,,,,4,,,48,101
109680,note_on,888,0,4,,,,,,,,,3,,,60,101
109776,note_on,96,0,1,,,,,,,,,0,,,60,0
109776,note_on,96,0,2,,,,,,,,,1,,,60,0
109776,note_on,96,0,5,,,,,,,,,4,,,48,0
109776,note_on,96,0,4,,,,,,,,,3,,,60,0
109776,note_on,96,0,3,,,,,,,,,2,,,60,0
109800,note_on,24,0,1,,,,,,,,,0,,,72,81
109800,note_on,24,0,3,,,,,,,,,2,,,72,81
109800,note_on,24,0,2,,,,,,,,,1,,,72,81
109800,note_on,24,0,5,,,,,,,,,4,,,60,81
109800,note_on,24,0,4,,,,,,,,,3,,,72,81
109896,note_on,96,0,4,,,,,,,,,3,,,72,0
109896,note_on,96,0,1,,,,,,,,,0,,,72,0
109896,note_on,96,0,3,,,,,,,,,2,,,72,0
109896,note_on,96,0,2,,,,,,,,,1,,,72,0
109896,note_on,96,0,5,,,,,,,,,4,,,60,0
109920,note_on,24,0,1,,,,,,,,,0,,,60,81
109920,note_on,24,0,3,,,,,,,,,2,,,60,81
109920,note_on,24,0,5,,,,,,,,,4,,,48,81
109920,note_on,24,0,4,,,,,,,,,3,,,60,81
109920,note_on,24,0,2,,,,,,,,,1,,,60,81
110016,note_on,96,0,5,,,,,,,,,4,,,48,0
110016,note_on,96,0,1,,,,,,,,,0,,,60,0
110016,note_on,96,0,2,,,,,,,,,1,,,60,0
110016,note_on,96,0,3,,,,,,,,,2,,,60,0
110016,note_on,96,0,4,,,,,,,,,3,,,60,0
110040,note_on,24,0,4,,,,,,,,,3,,,60,101
110040,note_on,24,0,2,,,,,,,,,1,,,60,101
110040,note_on,24,0,3,,,,,,,,,2,,,60,101
110040,note_on,24,0,5,,,,,,,,,4,,,48,101
110040,note_on,24,0,1,,,,,,,,,0,,,60,101
110136,note_on,96,0,3,,,,,,,,,2,,,60,0
110136,note_on,96,0,5,,,,,,,,,4,,,48,0
110136,note_on,96,0,1,,,,,,,,,0,,,60,0
110136,note_on,96,0,2,,,,,,,,,1,,,60,0
110136,note_on,96,0,4,,,,,,,,,3,,,60,0
110160,note_on,24,0,4,,,,,,,,,3,,,72,81
110160,note_on,24,0,3,,,,,,,,,2,,,72,81
110160,note_on,24,0,1,,,,,,,,,0,,,72,81
110160,note_on,24,0,2,,,,,,,,,1,,,72,81
110160,note_on,24,0,5,,,,,,,,,4,,,60,81
110256,note_on,96,0,4,,,,,,,,,3,,,72,0
110256,note_on,96,0,2,,,,,,,,,1,,,72,0
110256,note_on,96,0,5,,,,,,,,,4,,,60,0
110256,note_on,96,0,3,,,,,,,,,2,,,72,0
110256,note_on,96,0,1,,,,,,,,,0,,,72,0
110280,note_on,24,0,5,,,,,,,,,4,,,48,81
110280,note_on,24,0,2,,,,,,,,,1,,,60,81
110280,note_on,24,0,4,,,,,,,,,3,,,60,81
110280,note_on,24,0,3,,,,,,,,,2,,,60,81
110280,note_on,24,0,1,,,,,,,,,0,,,60,81
110376,note_on,96,0,5,,,,,,,,,4,,,48,0
110376,note_on,96,0,3,,,,,,,,,2,,,60,0
110376,note_on,96,0,4,,,,,,,,,3,,,60,0
110376,note_on,96,0,2,,,,,,,,,1,,,60,0
110376,note_on,96,0,1,,,,,,,,,0,,,60,0
110400,note_on,24,0,2,,,,,,,,,1,,,60,81
110400,note_on,24,0,5,,,,,,,,,4,,,48,81
110400,note_on,24,0,1,,,,,,,,,0,,,60,81
110400,note_on,24,0,3,,,,,,,,,2,,,60,81
110400,note_on,24,0,4,,,,,,,,,3,,,60,81
110496,note_on,96,0,5,,,,,,,,,4,,,48,0
110496,note_on,96,0,4,,,,,,,,,3,,,60,0
110592,note_on,192,0,3,,,,,,,,,2,,,60,0
110592,note_on,192,0,1,,,,,,,,,0,,,60,0
110592,note_on,192,0,2,,,,,,,,,1,,,60,0
110760,note_on,168,0,1,,,,,,,,,0,,,79,101
110760,note_on,168,0,3,,,,,,,,,2,,,79,101
110760,note_on,168,0,2,,,,,,,,,1,,,79,81
110808,note_on,48,0,3,,,,,,,,,2,,,79,0
110808,note_on,48,0,2,,,,,,,,,1,,,79,0
110808,note_on,48,0,1,,,,,,,,,0,,,79,0
110820,note_on,12,0,1,,,,,,,,,0,,,77,81
110820,note_on,12,0,3,,,,,,,,,2,,,77,81
110820,note_on,12,0,2,,,,,,,,,1,,,77,81
110868,note_on,48,0,3,,,,,,,,,2,,,77,0
110868,note_on,48,0,2,,,,,,,,,1,,,77,0
110868,note_on,48,0,1,,,,,,,,,0,,,77,0
110880,note_on,12,0,2,,,,,,,,,1,,,75,81
110880,note_on,12,0,3,,,,,,,,,2,,,75,81
110880,note_on,12,0,1,,,,,,,,,0,,,75,81
110928,note_on,48,0,1,,,,,,,,,0,,,75,0
110928,note_on,48,0,2,,,,,,,,,1,,,75,0
110928,note_on,48,0,3,,,,,,,,,2,,,75,0
110940,note_on,12,0,1,,,,,,,,,0,,,74,81
110940,note_on,12,0,2,,,,,,,,,1,,,74,81
110940,note_on,12,0,3,,,,,,,,,2,,,74,81
110988,note_on,48,0,1,,,,,,,,,0,,,74,0
110988,note_on,48,0,3,,,,,,,,,2,,,74,0
110988,note_on,48,0,2,,,,,,,,,1,,,74,0
111000,note_on,12,0,3,,,,,,,,,2,,,72,81
111000,note_on,12,0,2,,,,,,,,,1,,,72,81
111000,note_on,12,0,1,,,,,,,,,0,,,72,81
111048,note_on,48,0,1,,,,,,,,,0,,,72,0
111048,note_on,48,0,3,,,,,,,,,2,,,72,0
111048,note_on,48,0,2,,,,,,,,,1,,,72,0
111060,note_on,12,0,2,,,,,,,,,1,,,70,81
111060,note_on,12,0,3,,,,,,,,,2,,,70,81
111060,note_on,12,0,1,,,,,,,,,0,,,70,81
111108,note_on,48,0,1,,,,,,,,,0,,,70,0
111108,note_on,48,0,3,,,,,,,,,2,,,70,0
111108,note_on,48,0,2,,,,,,,,,1,,,70,0
111120,note_on,12,0,1,,,,,,,,,0,,,68,101
111120,note_on,12,0,3,,,,,,,,,2,,,68,101
111120,note_on,12,0,2,,,,,,,,,1,,,68,101
111168,note_on,48,0,2,,,,,,,,,1,,,68,0
111168,note_on,48,0,3,,,,,,,,,2,,,68,0
111168,note_on,48,0,1,,,,,,,,,0,,,68,0
111180,note_on,12,0,3,,,,,,,,,2,,,67,81
111180,note_on,12,0,1,,,,,,,,,0,,,67,81
111180,note_on,12,0,2,,,,,,,,,1,,,67,81
111228,note_on,48,0,1,,,,,,,,,0,,,67,0
111228,note_on,48,0,2,,,,,,,,,1,,,67,0
111228,note_on,48,0,3,,,,,,,,,2,,,67,0
111240,note_on,12,0,3,,,,,,,,,2,,,65,81
111240,note_on,12,0,2,,,,,,,,,1,,,65,81
111240,note_on,12,0,1,,,,,,,,,0,,,65,81
111288,note_on,48,0,2,,,,,,,,,1,,,65,0
111288,note_on,48,0,3,,,,,,,,,2,,,65,0
111288,note_on,48,0,1,,,,,,,,,0,,,65,0
111300,note_on,12,0,3,,,,,,,,,2,,,63,81
111300,note_on,12,0,2,,,,,,,,,1,,,63,81
111300,note_on,12,0,1,,,,,,,,,0,,,63,81
111348,note_on,48,0,2,,,,,,,,,1,,,63,0
111348,note_on,48,0,3,,,,,,,,,2,,,63,0
111348,note_on,48,0,1,,,,,,,,,0,,,63,0
111360,note_on,12,0,1,,,,,,,,,0,,,62,81
111360,note_on,12,0,2,,,,,,,,,1,,,62,81
111360,note_on,12,0,3,,,,,,,,,2,,,62,81
111408,note_on,48,0,1,,,,,,,,,0,,,62,0
111408,note_on,48,0,3,,,,,,,,,2,,,62,0
111408,note_on,48,0,2,,,,,,,,,1,,,62,0
111420,note_on,12,0,2,,,,,,,,,1,,,60,81
111420,note_on,12,0,1,,,,,,,,,0,,,60,81
111420,note_on,12,0,3,,,,,,,,,2,,,60,81
111468,note_on,48,0,3,,,,,,,,,2,,,60,0
111468,note_on,48,0,1,,,,,,,,,0,,,60,0
111468,note_on,48,0,2,,,,,,,,,1,,,60,0
111480,note_on,12,0,3,,,,,,,,,2,,,58,101
111480,note_on,984,0,4,,,,,,,,,3,,,58,101
111480,note_on,12,0,1,,,,,,,,,0,,,58,101
111480,note_on,12,0,2,,,,,,,,,1,,,58,101
111480,note_on,984,0,5,,,,,,,,,4,,,46,101
111576,note_on,96,0,3,,,,,,,,,2,,,58,0
111576,note_on,96,0,2,,,,,,,,,1,,,58,0
111576,note_on,96,0,1,,,,,,,,,0,,,58,0
111576,note_on,96,0,4,,,,,,,,,3,,,58,0
111576,note_on,96,0,5,,,,,,,,,4,,,46,0
111600,note_on,24,0,3,,,,,,,,,2,,,70,81
111600,note_on,24,0,5,,,,,,,,,4,,,58,81
111600,note_on,24,0,4,,,,,,,,,3,,,70,81
111600,note_on,24,0,2,,,,,,,,,1,,,70,81
111600,note_on,24,0,1,,,,,,,,,0,,,70,81
111696,note_on,96,0,4,,,,,,,,,3,,,70,0
111696,note_on,96,0,5,,,,,,,,,4,,,58,0
111696,note_on,96,0,2,,,,,,,,,1,,,70,0
111696,note_on,96,0,3,,,,,,,,,2,,,70,0
111696,note_on,96,0,1,,,,,,,,,0,,,70,0
111720,note_on,24,0,3,,,,,,,,,2,,,58,81
111720,note_on,24,0,4,,,,,,,,,3,,,58,81
111720,note_on,24,0,5,,,,,,,,,4,,,46,81
111720,note_on,24,0,2,,,,,,,,,1,,,58,81
111720,note_on,24,0,1,,,,,,,,,0,,,58,81
111816,note_on,96,0,3,,,,,,,,,2,,,58,0
111816,note_on,96,0,4,,,,,,,,,3,,,58,0
111816,note_on,96,0,5,,,,,,,,,4,,,46,0
111816,note_on,96,0,1,,,,,,,,,0,,,58,0
111816,note_on,96,0,2,,,,,,,,,1,,,58,0
111840,note_on,24,0,4,,,,,,,,,3,,,58,101
111840,note_on,24,0,5,,,,,,,,,4,,,46,101
111840,note_on,24,0,3,,,,,,,,,2,,,58,101
111840,note_on,24,0,1,,,,,,,,,0,,,58,101
111840,note_on,24,0,2,,,,,,,,,1,,,58,101
111936,note_on,96,0,1,,,,,,,,,0,,,58,0
111936,note_on,96,0,2,,,,,,,,,1,,,58,0
111936,note_on,96,0,3,,,,,,,,,2,,,58,0
111936,note_on,96,0,4,,,,,,,,,3,,,58,0
111936,note_on,96,0,5,,,,,,,,,4,,,46,0
111960,note_on,24,0,4,,,,,,,,,3,,,70,81
111960,note_on,24,0,1,,,,,,,,,0,,,70,81
111960,note_on,24,0,5,,,,,,,,,4,,,58,81
111960,note_on,24,0,2,,,,,,,,,1,,,70,81
111960,note_on,24,0,3,,,,,,,,,2,,,70,81
112056,note_on,96,0,4,,,,,,,,,3,,,70,0
112056,note_on,96,0,1,,,,,,,,,0,,,70,0
112056,note_on,96,0,5,,,,,,,,,4,,,58,0
112056,note_on,96,0,3,,,,,,,,,2,,,70,0
112056,note_on,96,0,2,,,,,,,,,1,,,70,0
112080,note_on,24,0,4,,,,,,,,,3,,,58,81
112080,note_on,24,0,5,,,,,,,,,4,,,46,81
112080,note_on,24,0,2,,,,,,,,,1,,,58,81
112080,note_on,24,0,1,,,,,,,,,0,,,58,81
112080,note_on,24,0,3,,,,,,,,,2,,,58,81
112176,note_on,96,0,2,,,,,,,,,1,,,58,0
112176,note_on,96,0,5,,,,,,,,,4,,,46,0
112176,note_on,96,0,4,,,,,,,,,3,,,58,0
112176,note_on,96,0,3,,,,,,,,,2,,,58,0
112176,note_on,96,0,1,,,,,,,,,0,,,58,0
112200,note_on,24,0,2,,,,,,,,,1,,,58,81
112200,note_on,24,0,4,,,,,,,,,3,,,58,81
112200,note_on,24,0,5,,,,,,,,,4,,,46,81
112200,note_on,24,0,3,,,,,,,,,2,,,58,81
112200,note_on,24,0,1,,,,,,,,,0,,,58,81
112392,note_on,192,0,5,,,,,,,,,4,,,46,0
112392,note_on,192,0,4,,,,,,,,,3,,,58,0
112392,note_on,192,0,2,,,,,,,,,1,,,58,0
112392,note_on,192,0,1,,,,,,,,,0,,,58,0
112392,note_on,192,0,3,,,,,,,,,2,,,58,0
112560,note_on,168,0,1,,,,,,,,,0,,,79,101
112560,note_on,168,0,3,,,,,,,,,2,,,58,72
112560,note_on,168,0,2,,,,,,,,,1,,,58,92
112608,note_on,48,0,1,,,,,,,,,0,,,79,0
112620,note_on,12,0,1,,,,,,,,,0,,,75,81
112656,note_on,96,0,2,,,,,,,,,1,,,58,0
112656,note_on,96,0,3,,,,,,,,,2,,,58,0
112668,note_on,48,0,1,,,,,,,,,0,,,75,0
112680,note_on,12,0,1,,,,,,,,,0,,,70,81
112680,note_on,24,0,3,,,,,,,,,2,,,70,72
112680,note_on,24,0,2,,,,,,,,,1,,,70,72
112728,note_on,48,0,1,,,,,,,,,0,,,70,0
112740,note_on,12,0,1,,,,,,,,,0,,,75,81
112776,note_on,96,0,3,,,,,,,,,2,,,70,0
112776,note_on,96,0,2,,,,,,,,,1,,,70,0
112788,note_on,48,0,1,,,,,,,,,0,,,75,0
112800,note_on,24,0,3,,,,,,,,,2,,,58,72
112800,note_on,12,0,1,,,,,,,,,0,,,79,81
112800,note_on,24,0,2,,,,,,,,,1,,,58,72
112848,note_on,48,0,1,,,,,,,,,0,,,79,0
112860,note_on,12,0,1,,,,,,,,,0,,,82,81
112896,note_on,96,0,2,,,,,,,,,1,,,58,0
112896,note_on,96,0,3,,,,,,,,,2,,,58,0
112908,note_on,48,0,1,,,,,,,,,0,,,82,0
112920,note_on,24,0,2,,,,,,,,,1,,,58,92
112920,note_on,12,0,1,,,,,,,,,0,,,79,101
112920,note_on,24,0,3,,,,,,,,,2,,,58,92
112968,note_on,48,0,1,,,,,,,,,0,,,79,0
112980,note_on,12,0,1,,,,,,,,,0,,,75,81
113016,note_on,96,0,3,,,,,,,,,2,,,58,0
113016,note_on,96,0,2,,,,,,,,,1,,,58,0
113028,note_on,48,0,1,,,,,,,,,0,,,75,0
113040,note_on,24,0,2,,,,,,,,,1,,,70,72
113040,note_on,12,0,1,,,,,,,,,0,,,70,81
113040,note_on,24,0,3,,,,,,,,,2,,,70,72
113088,note_on,48,0,1,,,,,,,,,0,,,70,0
113100,note_on,12,0,1,,,,,,,,,0,,,75,81
113136,note_on,96,0,2,,,,,,,,,1,,,70,0
113136,note_on,96,0,3,,,,,,,,,2,,,70,0
113148,note_on,48,0,1,,,,,,,,,0,,,75,0
113160,note_on,12,0,1,,,,,,,,,0,,,79,81
113160,note_on,24,0,3,,,,,,,,,2,,,58,72
113160,note_on,24,0,2,,,,,,,,,1,,,58,72
113208,note_on,48,0,1,,,,,,,,,0,,,79,0
113220,note_on,12,0,1,,,,,,,,,0,,,82,81
113256,note_on,96,0,2,,,,,,,,,1,,,58,0
113256,note_on,96,0,3,,,,,,,,,2,,,58,0
113268,note_on,48,0,1,,,,,,,,,0,,,82,0
113280,note_on,12,0,1,,,,,,,,,0,,,79,101
113280,note_on,24,0,3,,,,,,,,,2,,,58,92
113280,note_on,24,0,2,,,,,,,,,1,,,58,72
113328,note_on,48,0,1,,,,,,,,,0,,,79,0
113340,note_on,12,0,1,,,,,,,,,0,,,75,81
113376,note_on,96,0,3,,,,,,,,,2,,,58,0
113376,note_on,96,0,2,,,,,,,,,1,,,58,0
113388,note_on,48,0,1,,,,,,,,,0,,,75,0
113400,note_on,24,0,2,,,,,,,,,1,,,70,72
113400,note_on,24,0,3,,,,,,,,,2,,,70,72
113400,note_on,12,0,1,,,,,,,,,0,,,70,81
113448,note_on,48,0,1,,,,,,,,,0,,,70,0
113460,note_on,12,0,1,,,,,,,,,0,,,75,81
113496,note_on,96,0,3,,,,,,,,,2,,,70,0
113496,note_on,96,0,2,,,,,,,,,1,,,70,0
113508,note_on,48,0,1,,,,,,,,,0,,,75,0
113520,note_on,24,0,3,,,,,,,,,2,,,58,72
113520,note_on,24,0,2,,,,,,,,,1,,,58,72
113520,note_on,12,0,1,,,,,,,,,0,,,79,81
113568,note_on,48,0,1,,,,,,,,,0,,,79,0
113580,note_on,12,0,1,,,,,,,,,0,,,82,81
113616,note_on,96,0,2,,,,,,,,,1,,,58,0
113616,note_on,96,0,3,,,,,,,,,2,,,58,0
113628,note_on,48,0,1,,,,,,,,,0,,,82,0
113640,note_on,24,0,3,,,,,,,,,2,,,58,92
113640,note_on,24,0,2,,,,,,,,,1,,,58,72
113640,note_on,12,0,1,,,,,,,,,0,,,79,101
113688,note_on,48,0,1,,,,,,,,,0,,,79,0
113700,note_on,12,0,1,,,,,,,,,0,,,75,81
113736,note_on,96,0,2,,,,,,,,,1,,,58,0
113736,note_on,96,0,3,,,,,,,,,2,,,58,0
113748,note_on,48,0,1,,,,,,,,,0,,,75,0
113760,note_on,24,0,3,,,,,,,,,2,,,70,72
113760,note_on,12,0,1,,,,,,,,,0,,,70,81
113760,note_on,24,0,2,,,,,,,,,1,,,70,72
113808,note_on,48,0,1,,,,,,,,,0,,,70,0
113820,note_on,12,0,1,,,,,,,,,0,,,75,81
113856,note_on,96,0,2,,,,,,,,,1,,,70,0
113856,note_on,96,0,3,,,,,,,,,2,,,70,0
113868,note_on,48,0,1,,,,,,,,,0,,,75,0
113880,note_on,12,0,1,,,,,,,,,0,,,79,81
113880,note_on,24,0,2,,,,,,,,,1,,,58,72
113880,note_on,24,0,3,,,,,,,,,2,,,58,72
113928,note_on,48,0,1,,,,,,,,,0,,,79,0
113940,note_on,12,0,1,,,,,,,,,0,,,82,81
113976,note_on,96,0,3,,,,,,,,,2,,,58,0
113976,note_on,96,0,2,,,,,,,,,1,,,58,0
113988,note_on,48,0,1,,,,,,,,,0,,,82,0
114000,note_on,24,0,2,,,,,,,,,1,,,58,72
114000,note_on,12,0,1,,,,,,,,,0,,,70,81
114000,note_on,24,0,3,,,,,,,,,2,,,58,72
114000,note_on,1608,0,4,,,,,,,,,3,,,58,92
114048,note_on,48,0,1,,,,,,,,,0,,,70,0
114060,note_on,12,0,1,,,,,,,,,0,,,67,81
114096,note_on,96,0,4,,,,,,,,,3,,,58,0
114108,note_on,48,0,1,,,,,,,,,0,,,67,0
114120,note_on,24,0,4,,,,,,,,,3,,,70,72
114120,note_on,12,0,1,,,,,,,,,0,,,63,81
114168,note_on,48,0,1,,,,,,,,,0,,,63,0
114180,note_on,12,0,1,,,,,,,,,0,,,67,81
114192,note_on,192,0,3,,,,,,,,,2,,,58,0
114192,note_on,192,0,2,,,,,,,,,1,,,58,0
114216,note_on,96,0,4,,,,,,,,,3,,,70,0
114228,note_on,48,0,1,,,,,,,,,0,,,67,0
114240,note_on,24,0,4,,,,,,,,,3,,,58,72
114240,note_on,12,0,1,,,,,,,,,0,,,70,81
114288,note_on,48,0,1,,,,,,,,,0,,,70,0
114300,note_on,12,0,1,,,,,,,,,0,,,75,81
114336,note_on,96,0,4,,,,,,,,,3,,,58,0
114348,note_on,48,0,1,,,,,,,,,0,,,75,0
114360,note_on,24,0,4,,,,,,,,,3,,,58,92
114360,note_on,12,0,1,,,,,,,,,0,,,70,101
114408,note_on,48,0,1,,,,,,,,,0,,,70,0
114420,note_on,12,0,1,,,,,,,,,0,,,67,81
114456,note_on,96,0,4,,,,,,,,,3,,,58,0
114468,note_on,48,0,1,,,,,,,,,0,,,67,0
114480,note_on,12,0,1,,,,,,,,,0,,,63,81
114480,note_on,24,0,4,,,,,,,,,3,,,70,72
114528,note_on,48,0,1,,,,,,,,,0,,,63,0
114540,note_on,12,0,1,,,,,,,,,0,,,67,81
114576,note_on,96,0,4,,,,,,,,,3,,,70,0
114588,note_on,48,0,1,,,,,,,,,0,,,67,0
114600,note_on,24,0,4,,,,,,,,,3,,,58,72
114600,note_on,12,0,1,,,,,,,,,0,,,70,81
114648,note_on,48,0,1,,,,,,,,,0,,,70,0
114660,note_on,12,0,1,,,,,,,,,0,,,75,81
114696,note_on,96,0,4,,,,,,,,,3,,,58,0
114708,note_on,48,0,1,,,,,,,,,0,,,75,0
114720,note_on,24,0,4,,,,,,,,,3,,,58,92
114720,note_on,12,0,1,,,,,,,,,0,,,70,101
114768,note_on,48,0,1,,,,,,,,,0,,,70,0
114780,note_on,12,0,1,,,,,,,,,0,,,67,81
114816,note_on,96,0,4,,,,,,,,,3,,,58,0
114828,note_on,48,0,1,,,,,,,,,0,,,67,0
114840,note_on,24,0,4,,,,,,,,,3,,,70,72
114840,note_on,12,0,1,,,,,,,,,0,,,63,81
114888,note_on,48,0,1,,,,,,,,,0,,,63,0
114900,note_on,12,0,1,,,,,,,,,0,,,67,81
114936,note_on,96,0,4,,,,,,,,,3,,,70,0
114948,note_on,48,0,1,,,,,,,,,0,,,67,0
114960,note_on,12,0,1,,,,,,,,,0,,,70,81
114960,note_on,24,0,4,,,,,,,,,3,,,58,72
115008,note_on,48,0,1,,,,,,,,,0,,,70,0
115020,note_on,12,0,1,,,,,,,,,0,,,75,81
115056,note_on,96,0,4,,,,,,,,,3,,,58,0
115068,note_on,48,0,1,,,,,,,,,0,,,75,0
115080,note_on,24,0,4,,,,,,,,,3,,,58,92
115080,note_on,12,0,1,,,,,,,,,0,,,70,101
115128,note_on,48,0,1,,,,,,,,,0,,,70,0
115140,note_on,12,0,1,,,,,,,,,0,,,65,81
115176,note_on,96,0,4,,,,,,,,,3,,,58,0
115188,note_on,48,0,1,,,,,,,,,0,,,65,0
115200,note_on,24,0,4,,,,,,,,,3,,,70,72
115200,note_on,12,0,1,,,,,,,,,0,,,62,81
115248,note_on,48,0,1,,,,,,,,,0,,,62,0
115260,note_on,12,0,1,,,,,,,,,0,,,65,81
115296,note_on,96,0,4,,,,,,,,,3,,,70,0
115308,note_on,48,0,1,,,,,,,,,0,,,65,0
115320,note_on,24,0,4,,,,,,,,,3,,,58,72
115320,note_on,12,0,1,,,,,,,,,0,,,70,81
115368,note_on,48,0,1,,,,,,,,,0,,,70,0
115380,note_on,12,0,1,,,,,,,,,0,,,74,81
115416,note_on,96,0,4,,,,,,,,,3,,,58,0
115428,note_on,48,0,1,,,,,,,,,0,,,74,0
115440,note_on,24,0,4,,,,,,,,,3,,,58,72
115440,note_on,12,0,1,,,,,,,,,0,,,63,101
115440,note_on,3048,0,5,,,,,,,,,4,,,46,101
115488,note_on,48,0,1,,,,,,,,,0,,,63,0
115500,note_on,12,0,1,,,,,,,,,0,,,58,81
115536,note_on,96,0,5,,,,,,,,,4,,,46,0
115548,note_on,48,0,1,,,,,,,,,0,,,58,0
115560,note_on,12,0,1,,,,,,,,,0,,,55,81
115560,note_on,24,0,5,,,,,,,,,4,,,58,81
115608,note_on,48,0,1,,,,,,,,,0,,,55,0
115620,note_on,12,0,1,,,,,,,,,0,,,58,81
115632,note_on,192,0,4,,,,,,,,,3,,,58,0
115656,note_on,96,0,5,,,,,,,,,4,,,58,0
115668,note_on,48,0,1,,,,,,,,,0,,,58,0
115680,note_on,24,0,5,,,,,,,,,4,,,46,81
115680,note_on,12,0,1,,,,,,,,,0,,,63,81
115728,note_on,48,0,1,,,,,,,,,0,,,63,0
115740,note_on,12,0,1,,,,,,,,,0,,,67,81
115776,note_on,96,0,5,,,,,,,,,4,,,46,0
115788,note_on,48,0,1,,,,,,,,,0,,,67,0
115800,note_on,12,0,1,,,,,,,,,0,,,63,101
115800,note_on,24,0,5,,,,,,,,,4,,,46,101
115848,note_on,48,0,1,,,,,,,,,0,,,63,0
115860,note_on,12,0,1,,,,,,,,,0,,,58,81
115896,note_on,96,0,5,,,,,,,,,4,,,46,0
115908,note_on,48,0,1,,,,,,,,,0,,,58,0
115920,note_on,12,0,1,,,,,,,,,0,,,55,81
115920,note_on,24,0,5,,,,,,,,,4,,,58,81
115968,note_on,48,0,1,,,,,,,,,0,,,55,0
115980,note_on,12,0,1,,,,,,,,,0,,,58,81
116016,note_on,96,0,5,,,,,,,,,4,,,58,0
116028,note_on,48,0,1,,,,,,,,,0,,,58,0
116040,note_on,24,0,5,,,,,,,,,4,,,46,81
116040,note_on,12,0,1,,,,,,,,,0,,,63,81
116088,note_on,48,0,1,,,,,,,,,0,,,63,0
116100,note_on,12,0,1,,,,,,,,,0,,,67,81
116136,note_on,96,0,5,,,,,,,,,4,,,46,0
116148,note_on,48,0,1,,,,,,,,,0,,,67,0
116160,note_on,12,0,1,,,,,,,,,0,,,65,101
116160,note_on,24,0,5,,,,,,,,,4,,,46,101
116208,note_on,48,0,1,,,,,,,,,0,,,65,0
116220,note_on,12,0,1,,,,,,,,,0,,,62,81
116256,note_on,96,0,5,,,,,,,,,4,,,46,0
116268,note_on,48,0,1,,,,,,,,,0,,,62,0
116280,note_on,24,0,5,,,,,,,,,4,,,58,81
116280,note_on,12,0,1,,,,,,,,,0,,,58,81
116328,note_on,48,0,1,,,,,,,,,0,,,58,0
116340,note_on,12,0,1,,,,,,,,,0,,,62,81
116376,note_on,96,0,5,,,,,,,,,4,,,58,0
116388,note_on,48,0,1,,,,,,,,,0,,,62,0
116400,note_on,24,0,5,,,,,,,,,4,,,46,81
116400,note_on,12,0,1,,,,,,,,,0,,,65,81
116448,note_on,48,0,1,,,,,,,,,0,,,65,0
116460,note_on,12,0,1,,,,,,,,,0,,,68,81
116496,note_on,96,0,5,,,,,,,,,4,,,46,0
116508,note_on,48,0,1,,,,,,,,,0,,,68,0
116520,note_on,12,0,1,,,,,,,,,0,,,65,101
116520,note_on,24,0,5,,,,,,,,,4,,,46,101
116568,note_on,48,0,1,,,,,,,,,0,,,65,0
116580,note_on,12,0,1,,,,,,,,,0,,,62,81
116616,note_on,96,0,5,,,,,,,,,4,,,46,0
116628,note_on,48,0,1,,,,,,,,,0,,,62,0
116640,note_on,24,0,5,,,,,,,,,4,,,58,81
116640,note_on,12,0,1,,,,,,,,,0,,,58,81
116688,note_on,48,0,1,,,,,,,,,0,,,58,0
116700,note_on,12,0,1,,,,,,,,,0,,,62,81
116736,note_on,96,0,5,,,,,,,,,4,,,58,0
116748,note_on,48,0,1,,,,,,,,,0,,,62,0
116760,note_on,12,0,1,,,,,,,,,0,,,65,81
116760,note_on,24,0,5,,,,,,,,,4,,,46,81
116808,note_on,48,0,1,,,,,,,,,0,,,65,0
116820,note_on,12,0,1,,,,,,,,,0,,,68,81
116856,note_on,96,0,5,,,,,,,,,4,,,46,0
116868,note_on,48,0,1,,,,,,,,,0,,,68,0
116880,note_on,2688,0,2,,,,,,,,,1,,,75,125
116880,note_on,24,0,5,,,,,,,,,4,,,51,101
116880,note_on,12,0,1,,,,,,,,,0,,,67,81
116880,note_on,1248,0,4,,,,,,,,,3,,,67,125
116880,note_on,2688,0,3,,,,,,,,,2,,,75,125
116928,note_on,48,0,3,,,,,,,,,2,,,75,0
116928,note_on,48,0,2,,,,,,,,,1,,,75,0
116940,note_on,12,0,2,,,,,,,,,1,,,74,105
116940,note_on,12,0,3,,,,,,,,,2,,,74,105
116976,note_on,96,0,4,,,,,,,,,3,,,67,0
116976,note_on,96,0,5,,,,,,,,,4,,,51,0
116988,note_on,48,0,2,,,,,,,,,1,,,74,0
116988,note_on,48,0,3,,,,,,,,,2,,,74,0
117000,note_on,12,0,3,,,,,,,,,2,,,72,105
117000,note_on,24,0,5,,,,,,,,,4,,,63,81
117000,note_on,12,0,2,,,,,,,,,1,,,72,105
117000,note_on,24,0,4,,,,,,,,,3,,,67,105
117048,note_on,48,0,3,,,,,,,,,2,,,72,0
117048,note_on,48,0,2,,,,,,,,,1,,,72,0
117060,note_on,12,0,2,,,,,,,,,1,,,70,105
117060,note_on,12,0,3,,,,,,,,,2,,,70,105
117072,note_on,192,0,1,,,,,,,,,0,,,67,0
117096,note_on,96,0,4,,,,,,,,,3,,,67,0
117096,note_on,96,0,5,,,,,,,,,4,,,63,0
117108,note_on,48,0,2,,,,,,,,,1,,,70,0
117108,note_on,48,0,3,,,,,,,,,2,,,70,0
117120,note_on,12,0,2,,,,,,,,,1,,,68,105
117120,note_on,24,0,4,,,,,,,,,3,,,67,105
117120,note_on,12,0,3,,,,,,,,,2,,,68,105
117120,note_on,24,0,5,,,,,,,,,4,,,51,81
117168,note_on,48,0,3,,,,,,,,,2,,,68,0
117168,note_on,48,0,2,,,,,,,,,1,,,68,0
117180,note_on,12,0,3,,,,,,,,,2,,,67,105
117180,note_on,12,0,2,,,,,,,,,1,,,67,105
117216,note_on,96,0,4,,,,,,,,,3,,,67,0
117216,note_on,96,0,5,,,,,,,,,4,,,51,0
117228,note_on,48,0,2,,,,,,,,,1,,,67,0
117228,note_on,48,0,3,,,,,,,,,2,,,67,0
117240,note_on,24,0,5,,,,,,,,,4,,,46,101
117240,note_on,12,0,2,,,,,,,,,1,,,65,125
117240,note_on,12,0,3,,,,,,,,,2,,,65,125
117240,note_on,24,0,4,,,,,,,,,3,,,62,105
117288,note_on,48,0,3,,,,,,,,,2,,,65,0
117288,note_on,48,0,2,,,,,,,,,1,,,65,0
117300,note_on,12,0,2,,,,,,,,,1,,,63,105
117300,note_on,12,0,3,,,,,,,,,2,,,63,105
117336,note_on,96,0,5,,,,,,,,,4,,,46,0
117348,note_on,48,0,2,,,,,,,,,1,,,63,0
117348,note_on,48,0,3,,,,,,,,,2,,,63,0
117360,note_on,24,0,5,,,,,,,,,4,,,58,81
117360,note_on,12,0,3,,,,,,,,,2,,,62,105
117360,note_on,12,0,2,,,,,,,,,1,,,62,105
117408,note_on,48,0,3,,,,,,,,,2,,,62,0
117408,note_on,48,0,2,,,,,,,,,1,,,62,0
117420,note_on,12,0,3,,,,,,,,,2,,,60,105
117420,note_on,12,0,2,,,,,,,,,1,,,60,105
117456,note_on,96,0,5,,,,,,,,,4,,,58,0
117468,note_on,48,0,2,,,,,,,,,1,,,60,0
117468,note_on,48,0,3,,,,,,,,,2,,,60,0
117480,note_on,12,0,3,,,,,,,,,2,,,58,105
117480,note_on,24,0,5,,,,,,,,,4,,,46,81
117480,note_on,12,0,2,,,,,,,,,1,,,58,105
117528,note_on,288,0,4,,,,,,,,,3,,,62,0
117576,note_on,96,0,5,,,,,,,,,4,,,46,0
117576,note_on,96,0,3,,,,,,,,,2,,,58,0
117576,note_on,96,0,2,,,,,,,,,1,,,58,0
117600,note_on,528,0,1,,,,,,,,,0,,,87,101
117648,note_on,48,0,1,,,,,,,,,0,,,87,0
117660,note_on,12,0,1,,,,,,,,,0,,,82,81
117708,note_on,48,0,1,,,,,,,,,0,,,82,0
117720,note_on,12,0,1,,,,,,,,,0,,,79,81
117768,note_on,48,0,1,,,,,,,,,0,,,79,0
117780,note_on,12,0,1,,,,,,,,,0,,,82,81
117828,note_on,48,0,1,,,,,,,,,0,,,82,0
117840,note_on,12,0,1,,,,,,,,,0,,,87,81
117888,note_on,48,0,1,,,,,,,,,0,,,87,0
117900,note_on,12,0,1,,,,,,,,,0,,,86,81
117948,note_on,48,0,1,,,,,,,,,0,,,86,0
117960,note_on,12,0,1,,,,,,,,,0,,,87,101
118008,note_on,48,0,1,,,,,,,,,0,,,87,0
118020,note_on,12,0,1,,,,,,,,,0,,,82,81
118068,note_on,48,0,1,,,,,,,,,0,,,82,0
118080,note_on,12,0,1,,,,,,,,,0,,,79,81
118128,note_on,48,0,1,,,,,,,,,0,,,79,0
118140,note_on,12,0,1,,,,,,,,,0,,,82,81
118188,note_on,48,0,1,,,,,,,,,0,,,82,0
118200,note_on,12,0,1,,,,,,,,,0,,,85,81
118248,note_on,48,0,1,,,,,,,,,0,,,85,0
118260,note_on,12,0,1,,,,,,,,,0,,,84,81
118308,note_on,48,0,1,,,,,,,,,0,,,84,0
118320,note_on,12,0,1,,,,,,,,,0,,,85,101
118368,note_on,48,0,1,,,,,,,,,0,,,85,0
118380,note_on,12,0,1,,,,,,,,,0,,,82,81
118428,note_on,48,0,1,,,,,,,,,0,,,82,0
118440,note_on,12,0,1,,,,,,,,,0,,,79,81
118488,note_on,48,0,1,,,,,,,,,0,,,79,0
118500,note_on,12,0,1,,,,,,,,,0,,,82,81
118548,note_on,48,0,1,,,,,,,,,0,,,82,0
118560,note_on,12,0,1,,,,,,,,,0,,,85,81
118608,note_on,48,0,1,,,,,,,,,0,,,85,0
118620,note_on,12,0,1,,,,,,,,,0,,,82,81
118668,note_on,48,0,1,,,,,,,,,0,,,82,0
118680,note_on,1152,0,4,,,,,,,,,3,,,68,125
118680,note_on,1104,0,5,,,,,,,,,4,,,56,101
118680,note_on,1104,0,2,,,,,,,,,1,,,68,125
118680,note_on,12,0,1,,,,,,,,,0,,,84,81
118680,note_on,1104,0,3,,,,,,,,,2,,,68,125
118776,note_on,96,0,3,,,,,,,,,2,,,68,0
118776,note_on,96,0,2,,,,,,,,,1,,,68,0
118776,note_on,96,0,4,,,,,,,,,3,,,68,0
118776,note_on,96,0,5,,,,,,,,,4,,,56,0
118800,note_on,24,0,3,,,,,,,,,2,,,63,105
118800,note_on,24,0,5,,,,,,,,,4,,,51,81
118800,note_on,24,0,4,,,,,,,,,3,,,63,105
118800,note_on,24,0,2,,,,,,,,,1,,,63,105
118872,note_on,192,0,1,,,,,,,,,0,,,84,0
118896,note_on,96,0,2,,,,,,,,,1,,,63,0
118896,note_on,96,0,4,,,,,,,,,3,,,63,0
118896,note_on,96,0,3,,,,,,,,,2,,,63,0
118896,note_on,96,0,5,,,,,,,,,4,,,51,0
118920,note_on,24,0,5,,,,,,,,,4,,,48,81
118920,note_on,24,0,3,,,,,,,,,2,,,60,105
118920,note_on,24,0,2,,,,,,,,,1,,,60,105
118920,note_on,24,0,4,,,,,,,,,3,,,60,105
119016,note_on,96,0,5,,,,,,,,,4,,,48,0
119016,note_on,96,0,2,,,,,,,,,1,,,60,0
119016,note_on,96,0,4,,,,,,,,,3,,,60,0
119016,note_on,96,0,3,,,,,,,,,2,,,60,0
119040,note_on,24,0,2,,,,,,,,,1,,,57,105
119040,note_on,24,0,4,,,,,,,,,3,,,57,105
119040,note_on,168,0,1,,,,,,,,,0,,,89,101
119040,note_on,24,0,5,,,,,,,,,4,,,45,81
119040,note_on,24,0,3,,,,,,,,,2,,,57,105
119088,note_on,48,0,1,,,,,,,,,0,,,89,0
119100,note_on,12,0,1,,,,,,,,,0,,,84,81
119148,note_on,48,0,1,,,,,,,,,0,,,84,0
119160,note_on,12,0,1,,,,,,,,,0,,,81,81
119208,note_on,48,0,1,,,,,,,,,0,,,81,0
119220,note_on,12,0,1,,,,,,,,,0,,,84,81
119232,note_on,192,0,2,,,,,,,,,1,,,57,0
119232,note_on,192,0,4,,,,,,,,,3,,,57,0
119232,note_on,192,0,5,,,,,,,,,4,,,45,0
119232,note_on,192,0,3,,,,,,,,,2,,,57,0
119268,note_on,48,0,1,,,,,,,,,0,,,84,0
119280,note_on,12,0,1,,,,,,,,,0,,,89,81
119328,note_on,48,0,1,,,,,,,,,0,,,89,0
119340,note_on,12,0,1,,,,,,,,,0,,,87,81
119388,note_on,48,0,1,,,,,,,,,0,,,87,0
119400,note_on,12,0,1,,,,,,,,,0,,,89,81
119448,note_on,48,0,1,,,,,,,,,0,,,89,0
119460,note_on,12,0,1,,,,,,,,,0,,,84,81
119508,note_on,48,0,1,,,,,,,,,0,,,84,0
119520,note_on,12,0,1,,,,,,,,,0,,,81,81
119568,note_on,48,0,1,,,,,,,,,0,,,81,0
119580,note_on,12,0,1,,,,,,,,,0,,,84,81
119628,note_on,48,0,1,,,,,,,,,0,,,84,0
119640,note_on,12,0,1,,,,,,,,,0,,,87,81
119688,note_on,48,0,1,,,,,,,,,0,,,87,0
119700,note_on,12,0,1,,,,,,,,,0,,,86,81
119748,note_on,48,0,1,,,,,,,,,0,,,86,0
119760,note_on,12,0,1,,,,,,,,,0,,,87,101
119808,note_on,48,0,1,,,,,,,,,0,,,87,0
119820,note_on,12,0,1,,,,,,,,,0,,,84,81
119868,note_on,48,0,1,,,,,,,,,0,,,84,0
119880,note_on,12,0,1,,,,,,,,,0,,,81,81
119928,note_on,48,0,1,,,,,,,,,0,,,81,0
119940,note_on,12,0,1,,,,,,,,,0,,,84,81
119988,note_on,48,0,1,,,,,,,,,0,,,84,0
120000,note_on,12,0,1,,,,,,,,,0,,,87,81
120048,note_on,48,0,1,,,,,,,,,0,,,87,0
120060,note_on,12,0,1,,,,,,,,,0,,,84,81
120108,note_on,48,0,1,,,,,,,,,0,,,84,0
120120,note_on,888,0,3,,,,,,,,,2,,,70,125
120120,note_on,12,0,1,,,,,,,,,0,,,86,81
120120,note_on,888,0,4,,,,,,,,,3,,,70,125
120120,note_on,888,0,5,,,,,,,,,4,,,58,101
120120,note_on,888,0,2,,,,,,,,,1,,,70,125
120216,note_on,96,0,2,,,,,,,,,1,,,70,0
120216,note_on,96,0,4,,,,,,,,,3,,,70,0
120216,note_on,96,0,5,,,,,,,,,4,,,58,0
120216,note_on,96,0,3,,,,,,,,,2,,,70,0
120240,note_on,24,0,4,,,,,,,,,3,,,65,105
120240,note_on,24,0,2,,,,,,,,,1,,,65,105
120240,note_on,24,0,3,,,,,,,,,2,,,65,105
120240,note_on,24,0,5,,,,,,,,,4,,,53,81
120312,note_on,192,0,1,,,,,,,,,0,,,86,0
120336,note_on,96,0,4,,,,,,,,,3,,,65,0
120336,note_on,96,0,5,,,,,,,,,4,,,53,0
120336,note_on,96,0,2,,,,,,,,,1,,,65,0
120336,note_on,96,0,3,,,,,,,,,2,,,65,0
120360,note_on,24,0,3,,,,,,,,,2,,,62,105
120360,note_on,24,0,5,,,,,,,,,4,,,50,81
120360,note_on,24,0,4,,,,,,,,,3,,,62,105
120360,note_on,24,0,2,,,,,,,,,1,,,62,105
120456,note_on,96,0,2,,,,,,,,,1,,,62,0
120456,note_on,96,0,4,,,,,,,,,3,,,62,0
120456,note_on,96,0,5,,,,,,,,,4,,,50,0
120456,note_on,96,0,3,,,,,,,,,2,,,62,0
120480,note_on,24,0,3,,,,,,,,,2,,,59,105
120480,note_on,24,0,5,,,,,,,,,4,,,47,81
120480,note_on,168,0,1,,,,,,,,,0,,,91,101
120480,note_on,24,0,2,,,,,,,,,1,,,59,105
120480,note_on,24,0,4,,,,,,,,,3,,,59,105
120528,note_on,48,0,1,,,,,,,,,0,,,91,0
120540,note_on,12,0,1,,,,,,,,,0,,,86,81
120588,note_on,48,0,1,,,,,,,,,0,,,86,0
120600,note_on,12,0,1,,,,,,,,,0,,,83,81
120648,note_on,48,0,1,,,,,,,,,0,,,83,0
120660,note_on,12,0,1,,,,,,,,,0,,,86,81
120672,note_on,192,0,2,,,,,,,,,1,,,59,0
120672,note_on,192,0,4,,,,,,,,,3,,,59,0
120672,note_on,192,0,3,,,,,,,,,2,,,59,0
120672,note_on,192,0,5,,,,,,,,,4,,,47,0
120708,note_on,48,0,1,,,,,,,,,0,,,86,0
120720,note_on,12,0,1,,,,,,,,,0,,,91,81
120768,note_on,48,0,1,,,,,,,,,0,,,91,0
120780,note_on,12,0,1,,,,,,,,,0,,,89,81
120828,note_on,48,0,1,,,,,,,,,0,,,89,0
120840,note_on,12,0,1,,,,,,,,,0,,,91,101
120888,note_on,48,0,1,,,,,,,,,0,,,91,0
120900,note_on,12,0,1,,,,,,,,,0,,,86,81
120948,note_on,48,0,1,,,,,,,,,0,,,86,0
120960,note_on,12,0,1,,,,,,,,,0,,,83,81
121008,note_on,48,0,1,,,,,,,,,0,,,83,0
121020,note_on,12,0,1,,,,,,,,,0,,,86,81
121068,note_on,48,0,1,,,,,,,,,0,,,86,0
121080,note_on,12,0,1,,,,,,,,,0,,,89,81
121128,note_on,48,0,1,,,,,,,,,0,,,89,0
121140,note_on,12,0,1,,,,,,,,,0,,,87,81
121188,note_on,48,0,1,,,,,,,,,0,,,87,0
121200,note_on,12,0,1,,,,,,,,,0,,,89,101
121248,note_on,48,0,1,,,,,,,,,0,,,89,0
121260,note_on,12,0,1,,,,,,,,,0,,,86,81
121308,note_on,48,0,1,,,,,,,,,0,,,86,0
121320,note_on,12,0,1,,,,,,,,,0,,,83,81
121368,note_on,48,0,1,,,,,,,,,0,,,83,0
121380,note_on,12,0,1,,,,,,,,,0,,,86,81
121428,note_on,48,0,1,,,,,,,,,0,,,86,0
121440,note_on,12,0,1,,,,,,,,,0,,,89,81
121488,note_on,48,0,1,,,,,,,,,0,,,89,0
121500,note_on,12,0,1,,,,,,,,,0,,,86,81
121548,note_on,48,0,1,,,,,,,,,0,,,86,0
121560,note_on,12,0,1,,,,,,,,,0,,,87,81
121560,note_on,888,0,5,,,,,,,,,4,,,48,81
121560,note_on,888,0,3,,,,,,,,,2,,,60,105
121560,note_on,888,0,4,,,,,,,,,3,,,60,105
121560,note_on,888,0,2,,,,,,,,,1,,,60,105
121608,note_on,48,0,1,,,,,,,,,0,,,87,0
121620,note_on,12,0,1,,,,,,,,,0,,,91,81
121668,note_on,48,0,1,,,,,,,,,0,,,91,0
121680,note_on,12,0,1,,,,,,,,,0,,,91,81
121728,note_on,48,0,1,,,,,,,,,0,,,91,0
121740,note_on,12,0,1,,,,,,,,,0,,,89,81
121752,note_on,192,0,3,,,,,,,,,2,,,60,0
121752,note_on,192,0,5,,,,,,,,,4,,,48,0
121752,note_on,192,0,2,,,,,,,,,1,,,60,0
121752,note_on,192,0,4,,,,,,,,,3,,,60,0
121788,note_on,48,0,1,,,,,,,,,0,,,89,0
121800,note_on,12,0,1,,,,,,,,,0,,,89,81
121848,note_on,48,0,1,,,,,,,,,0,,,89,0
121860,note_on,12,0,1,,,,,,,,,0,,,87,81
121908,note_on,48,0,1,,,,,,,,,0,,,87,0
121920,note_on,12,0,1,,,,,,,,,0,,,87,81
121968,note_on,48,0,1,,,,,,,,,0,,,87,0
121980,note_on,12,0,1,,,,,,,,,0,,,86,81
122028,note_on,48,0,1,,,,,,,,,0,,,86,0
122040,note_on,12,0,1,,,,,,,,,0,,,86,81
122088,note_on,48,0,1,,,,,,,,,0,,,86,0
122100,note_on,12,0,1,,,,,,,,,0,,,84,81
122148,note_on,48,0,1,,,,,,,,,0,,,84,0
122160,note_on,12,0,1,,,,,,,,,0,,,84,81
122208,note_on,48,0,1,,,,,,,,,0,,,84,0
122220,note_on,12,0,1,,,,,,,,,0,,,82,81
122268,note_on,48,0,1,,,,,,,,,0,,,82,0
122280,note_on,12,0,1,,,,,,,,,0,,,82,81
122328,note_on,48,0,1,,,,,,,,,0,,,82,0
122340,note_on,12,0,1,,,,,,,,,0,,,81,81
122388,note_on,48,0,1,,,,,,,,,0,,,81,0
122400,note_on,12,0,1,,,,,,,,,0,,,81,81
122448,note_on,48,0,1,,,,,,,,,0,,,81,0
122460,note_on,12,0,1,,,,,,,,,0,,,79,81
122508,note_on,48,0,1,,,,,,,,,0,,,79,0
122520,note_on,12,0,1,,,,,,,,,0,,,79,81
122568,note_on,48,0,1,,,,,,,,,0,,,79,0
122580,note_on,12,0,1,,,,,,,,,0,,,77,81
122628,note_on,48,0,1,,,,,,,,,0,,,77,0
122640,note_on,12,0,1,,,,,,,,,0,,,77,81
122688,note_on,48,0,1,,,,,,,,,0,,,77,0
122700,note_on,12,0,1,,,,,,,,,0,,,75,81
122748,note_on,48,0,1,,,,,,,,,0,,,75,0
122760,note_on,12,0,1,,,,,,,,,0,,,75,81
122808,note_on,48,0,1,,,,,,,,,0,,,75,0
122820,note_on,12,0,1,,,,,,,,,0,,,74,81
122868,note_on,48,0,1,,,,,,,,,0,,,74,0
122880,note_on,12,0,1,,,,,,,,,0,,,74,81
122928,note_on,48,0,1,,,,,,,,,0,,,74,0
122940,note_on,12,0,1,,,,,,,,,0,,,72,81
122988,note_on,48,0,1,,,,,,,,,0,,,72,0
123000,note_on,12,0,1,,,,,,,,,0,,,72,81
123048,note_on,48,0,1,,,,,,,,,0,,,72,0
123060,note_on,12,0,1,,,,,,,,,0,,,70,81
123108,note_on,48,0,1,,,,,,,,,0,,,70,0
123120,note_on,12,0,1,,,,,,,,,0,,,70,81
123168,note_on,48,0,1,,,,,,,,,0,,,70,0
123180,note_on,12,0,1,,,,,,,,,0,,,69,81
123228,note_on,48,0,1,,,,,,,,,0,,,69,0
123240,note_on,12,0,1,,,,,,,,,0,,,69,81
123288,note_on,48,0,1,,,,,,,,,0,,,69,0
123300,note_on,12,0,1,,,,,,,,,0,,,67,81
123348,note_on,48,0,1,,,,,,,,,0,,,67,0
123360,note_on,1608,0,5,,,,,,,,,4,,,51,101
123360,note_on,12,0,1,,,,,,,,,0,,,75,81
123408,note_on,48,0,1,,,,,,,,,0,,,75,0
123420,note_on,12,0,1,,,,,,,,,0,,,67,81
123456,note_on,96,0,5,,,,,,,,,4,,,51,0
123468,note_on,48,0,1,,,,,,,,,0,,,67,0
123480,note_on,12,0,1,,,,,,,,,0,,,67,81
123480,note_on,24,0,5,,,,,,,,,4,,,51,81
123528,note_on,48,0,1,,,,,,,,,0,,,67,0
123540,note_on,12,0,1,,,,,,,,,0,,,75,81
123576,note_on,96,0,5,,,,,,,,,4,,,51,0
123588,note_on,48,0,1,,,,,,,,,0,,,75,0
123600,note_on,12,0,1,,,,,,,,,0,,,75,81
123600,note_on,24,0,5,,,,,,,,,4,,,51,81
123648,note_on,48,0,1,,,,,,,,,0,,,75,0
123660,note_on,12,0,1,,,,,,,,,0,,,67,81
123696,note_on,96,0,5,,,,,,,,,4,,,51,0
123708,note_on,48,0,1,,,,,,,,,0,,,67,0
123720,note_on,24,0,5,,,,,,,,,4,,,53,81
123720,note_on,12,0,1,,,,,,,,,0,,,68,81
123768,note_on,48,0,1,,,,,,,,,0,,,68,0
123780,note_on,12,0,1,,,,,,,,,0,,,72,81
123828,note_on,48,0,1,,,,,,,,,0,,,72,0
123840,note_on,12,0,1,,,,,,,,,0,,,72,81
123888,note_on,48,0,1,,,,,,,,,0,,,72,0
123900,note_on,12,0,1,,,,,,,,,0,,,68,81
123912,note_on,192,0,5,,,,,,,,,4,,,53,0
123948,note_on,48,0,1,,,,,,,,,0,,,68,0
123960,note_on,12,0,1,,,,,,,,,0,,,68,81
124008,note_on,48,0,1,,,,,,,,,0,,,68,0
124020,note_on,12,0,1,,,,,,,,,0,,,72,81
124068,note_on,48,0,1,,,,,,,,,0,,,72,0
124080,note_on,12,0,1,,,,,,,,,0,,,74,81
124080,note_on,168,0,5,,,,,,,,,4,,,50,101
124128,note_on,48,0,1,,,,,,,,,0,,,74,0
124140,note_on,12,0,1,,,,,,,,,0,,,65,81
124176,note_on,96,0,5,,,,,,,,,4,,,50,0
124188,note_on,48,0,1,,,,,,,,,0,,,65,0
124200,note_on,12,0,1,,,,,,,,,0,,,65,81
124200,note_on,24,0,5,,,,,,,,,4,,,50,81
124248,note_on,48,0,1,,,,,,,,,0,,,65,0
124260,note_on,12,0,1,,,,,,,,,0,,,74,81
124296,note_on,96,0,5,,,,,,,,,4,,,50,0
124308,note_on,48,0,1,,,,,,,,,0,,,74,0
124320,note_on,24,0,5,,,,,,,,,4,,,50,81
124320,note_on,12,0,1,,,,,,,,,0,,,74,81
124368,note_on,48,0,1,,,,,,,,,0,,,74,0
124380,note_on,12,0,1,,,,,,,,,0,,,65,81
124416,note_on,96,0,5,,,,,,,,,4,,,50,0
124428,note_on,48,0,1,,,,,,,,,0,,,65,0
124440,note_on,12,0,1,,,,,,,,,0,,,67,81
124440,note_on,24,0,5,,,,,,,,,4,,,51,81
124488,note_on,48,0,1,,,,,,,,,0,,,67,0
124500,note_on,12,0,1,,,,,,,,,0,,,70,81
124548,note_on,48,0,1,,,,,,,,,0,,,70,0
124560,note_on,12,0,1,,,,,,,,,0,,,70,81
124608,note_on,48,0,1,,,,,,,,,0,,,70,0
124620,note_on,12,0,1,,,,,,,,,0,,,67,81
124632,note_on,192,0,5,,,,,,,,,4,,,51,0
124668,note_on,48,0,1,,,,,,,,,0,,,67,0
124680,note_on,12,0,1,,,,,,,,,0,,,67,81
124728,note_on,48,0,1,,,,,,,,,0,,,67,0
124740,note_on,12,0,1,,,,,,,,,0,,,70,81
124788,note_on,48,0,1,,,,,,,,,0,,,70,0
124800,note_on,168,0,5,,,,,,,,,4,,,48,101
124800,note_on,12,0,1,,,,,,,,,0,,,72,81
124848,note_on,48,0,1,,,,,,,,,0,,,72,0
124860,note_on,12,0,1,,,,,,,,,0,,,63,81
124896,note_on,96,0,5,,,,,,,,,4,,,48,0
124908,note_on,48,0,1,,,,,,,,,0,,,63,0
124920,note_on,24,0,5,,,,,,,,,4,,,48,81
124920,note_on,12,0,1,,,,,,,,,0,,,63,81
124968,note_on,48,0,1,,,,,,,,,0,,,63,0
124980,note_on,12,0,1,,,,,,,,,0,,,72,81
125016,note_on,96,0,5,,,,,,,,,4,,,48,0
125028,note_on,48,0,1,,,,,,,,,0,,,72,0
125040,note_on,24,0,5,,,,,,,,,4,,,48,81
125040,note_on,12,0,1,,,,,,,,,0,,,72,81
125088,note_on,48,0,1,,,,,,,,,0,,,72,0
125100,note_on,12,0,1,,,,,,,,,0,,,63,81
125136,note_on,96,0,5,,,,,,,,,4,,,48,0
125148,note_on,48,0,1,,,,,,,,,0,,,63,0
125160,note_on,24,0,5,,,,,,,,,4,,,50,81
125160,note_on,12,0,1,,,,,,,,,0,,,65,81
125208,note_on,48,0,1,,,,,,,,,0,,,65,0
125220,note_on,12,0,1,,,,,,,,,0,,,68,81
125268,note_on,48,0,1,,,,,,,,,0,,,68,0
125280,note_on,12,0,1,,,,,,,,,0,,,68,81
125328,note_on,48,0,1,,,,,,,,,0,,,68,0
125340,note_on,12,0,1,,,,,,,,,0,,,65,81
125352,note_on,192,0,5,,,,,,,,,4,,,50,0
125388,note_on,48,0,1,,,,,,,,,0,,,65,0
125400,note_on,12,0,1,,,,,,,,,0,,,65,81
125448,note_on,48,0,1,,,,,,,,,0,,,65,0
125460,note_on,12,0,1,,,,,,,,,0,,,68,81
125508,note_on,48,0,1,,,,,,,,,0,,,68,0
125520,note_on,168,0,5,,,,,,,,,4,,,46,101
125520,note_on,12,0,1,,,,,,,,,0,,,70,81
125568,note_on,48,0,1,,,,,,,,,0,,,70,0
125580,note_on,12,0,1,,,,,,,,,0,,,62,81
125616,note_on,96,0,5,,,,,,,,,4,,,46,0
125628,note_on,48,0,1,,,,,,,,,0,,,62,0
125640,note_on,12,0,1,,,,,,,,,0,,,62,81
125640,note_on,24,0,5,,,,,,,,,4,,,46,81
125688,note_on,48,0,1,,,,,,,,,0,,,62,0
125700,note_on,12,0,1,,,,,,,,,0,,,70,81
125736,note_on,96,0,5,,,,,,,,,4,,,46,0
125748,note_on,48,0,1,,,,,,,,,0,,,70,0
125760,note_on,12,0,1,,,,,,,,,0,,,70,81
125760,note_on,24,0,5,,,,,,,,,4,,,46,81
125808,note_on,48,0,1,,,,,,,,,0,,,70,0
125820,note_on,12,0,1,,,,,,,,,0,,,62,81
125856,note_on,96,0,5,,,,,,,,,4,,,46,0
125868,note_on,48,0,1,,,,,,,,,0,,,62,0
125880,note_on,12,0,1,,,,,,,,,0,,,63,81
125880,note_on,24,0,5,,,,,,,,,4,,,48,81
125928,note_on,48,0,1,,,,,,,,,0,,,63,0
125940,note_on,12,0,1,,,,,,,,,0,,,67,81
125988,note_on,48,0,1,,,,,,,,,0,,,67,0
126000,note_on,12,0,1,,,,,,,,,0,,,67,81
126048,note_on,48,0,1,,,,,,,,,0,,,67,0
126060,note_on,12,0,1,,,,,,,,,0,,,63,81
126072,note_on,192,0,5,,,,,,,,,4,,,48,0
126108,note_on,48,0,1,,,,,,,,,0,,,63,0
126120,note_on,12,0,1,,,,,,,,,0,,,63,81
126168,note_on,48,0,1,,,,,,,,,0,,,63,0
126180,note_on,12,0,1,,,,,,,,,0,,,67,81
126228,note_on,48,0,1,,,,,,,,,0,,,67,0
126240,note_on,12,0,1,,,,,,,,,0,,,68,81
126240,note_on,168,0,5,,,,,,,,,4,,,44,101
126288,note_on,48,0,1,,,,,,,,,0,,,68,0
126300,note_on,12,0,1,,,,,,,,,0,,,60,81
126336,note_on,96,0,5,,,,,,,,,4,,,44,0
126348,note_on,48,0,1,,,,,,,,,0,,,60,0
126360,note_on,12,0,1,,,,,,,,,0,,,60,81
126360,note_on,24,0,5,,,,,,,,,4,,,44,81
126408,note_on,48,0,1,,,,,,,,,0,,,60,0
126420,note_on,12,0,1,,,,,,,,,0,,,68,81
126456,note_on,96,0,5,,,,,,,,,4,,,44,0
126468,note_on,48,0,1,,,,,,,,,0,,,68,0
126480,note_on,24,0,5,,,,,,,,,4,,,44,81
126480,note_on,12,0,1,,,,,,,,,0,,,68,81
126528,note_on,48,0,1,,,,,,,,,0,,,68,0
126540,note_on,12,0,1,,,,,,,,,0,,,60,81
126576,note_on,96,0,5,,,,,,,,,4,,,44,0
126588,note_on,48,0,1,,,,,,,,,0,,,60,0
126600,note_on,12,0,1,,,,,,,,,0,,,62,81
126600,note_on,24,0,5,,,,,,,,,4,,,46,81
126648,note_on,48,0,1,,,,,,,,,0,,,62,0
126660,note_on,12,0,1,,,,,,,,,0,,,65,81
126708,note_on,48,0,1,,,,,,,,,0,,,65,0
126720,note_on,12,0,1,,,,,,,,,0,,,65,81
126768,note_on,48,0,1,,,,,,,,,0,,,65,0
126780,note_on,12,0,1,,,,,,,,,0,,,62,81
126792,note_on,192,0,5,,,,,,,,,4,,,46,0
126828,note_on,48,0,1,,,,,,,,,0,,,62,0
126840,note_on,12,0,1,,,,,,,,,0,,,62,81
126888,note_on,48,0,1,,,,,,,,,0,,,62,0
126900,note_on,12,0,1,,,,,,,,,0,,,65,81
126948,note_on,48,0,1,,,,,,,,,0,,,65,0
126960,note_on,168,0,5,,,,,,,,,4,,,43,101
126960,note_on,12,0,1,,,,,,,,,0,,,67,81
127008,note_on,48,0,1,,,,,,,,,0,,,67,0
127020,note_on,12,0,1,,,,,,,,,0,,,59,81
127056,note_on,96,0,5,,,,,,,,,4,,,43,0
127068,note_on,48,0,1,,,,,,,,,0,,,59,0
127080,note_on,24,0,5,,,,,,,,,4,,,43,81
127080,note_on,12,0,1,,,,,,,,,0,,,59,81
127128,note_on,48,0,1,,,,,,,,,0,,,59,0
127140,note_on,12,0,1,,,,,,,,,0,,,67,81
127176,note_on,96,0,5,,,,,,,,,4,,,43,0
127188,note_on,48,0,1,,,,,,,,,0,,,67,0
127200,note_on,12,0,1,,,,,,,,,0,,,67,81
127200,note_on,24,0,5,,,,,,,,,4,,,43,81
127248,note_on,48,0,1,,,,,,,,,0,,,67,0
127260,note_on,12,0,1,,,,,,,,,0,,,59,81
127296,note_on,96,0,5,,,,,,,,,4,,,43,0
127308,note_on,48,0,1,,,,,,,,,0,,,59,0
127320,note_on,24,0,5,,,,,,,,,4,,,44,81
127320,note_on,12,0,1,,,,,,,,,0,,,60,81
127368,note_on,48,0,1,,,,,,,,,0,,,60,0
127380,note_on,12,0,1,,,,,,,,,0,,,63,81
127428,note_on,48,0,1,,,,,,,,,0,,,63,0
127440,note_on,12,0,1,,,,,,,,,0,,,63,81
127488,note_on,48,0,1,,,,,,,,,0,,,63,0
127500,note_on,12,0,1,,,,,,,,,0,,,60,81
127512,note_on,192,0,5,,,,,,,,,4,,,44,0
127548,note_on,48,0,1,,,,,,,,,0,,,60,0
127560,note_on,12,0,1,,,,,,,,,0,,,60,81
127608,note_on,48,0,1,,,,,,,,,0,,,60,0
127620,note_on,12,0,1,,,,,,,,,0,,,63,81
127668,note_on,48,0,1,,,,,,,,,0,,,63,0
127680,note_on,168,0,5,,,,,,,,,4,,,53,101
127680,note_on,12,0,1,,,,,,,,,0,,,65,81
127728,note_on,48,0,1,,,,,,,,,0,,,65,0
127740,note_on,12,0,1,,,,,,,,,0,,,57,81
127776,note_on,96,0,5,,,,,,,,,4,,,53,0
127788,note_on,48,0,1,,,,,,,,,0,,,57,0
127800,note_on,24,0,5,,,,,,,,,4,,,53,81
127800,note_on,12,0,1,,,,,,,,,0,,,57,81
127848,note_on,48,0,1,,,,,,,,,0,,,57,0
127860,note_on,12,0,1,,,,,,,,,0,,,65,81
127896,note_on,96,0,5,,,,,,,,,4,,,53,0
127908,note_on,48,0,1,,,,,,,,,0,,,65,0
127920,note_on,12,0,1,,,,,,,,,0,,,65,81
127920,note_on,24,0,5,,,,,,,,,4,,,53,81
127968,note_on,48,0,1,,,,,,,,,0,,,65,0
127980,note_on,12,0,1,,,,,,,,,0,,,57,81
128016,note_on,96,0,5,,,,,,,,,4,,,53,0
128028,note_on,48,0,1,,,,,,,,,0,,,57,0
128040,note_on,24,0,5,,,,,,,,,4,,,58,101
128040,note_on,0,0,1,,,,,,,,,0,,,62,81
128040,note_on,12,0,1,,,,,,,,,0,,,58,81
128136,note_on,96,0,5,,,,,,,,,4,,,58,0
128160,note_on,24,0,5,,,,,,,,,4,,,50,81
128232,note_on,0,0,1,,,,,,,,,0,,,58,0
128232,note_on,192,0,1,,,,,,,,,0,,,62,0
128256,note_on,96,0,5,,,,,,,,,4,,,50,0
128280,note_on,24,0,5,,,,,,,,,4,,,46,81
128376,note_on,96,0,5,,,,,,,,,4,,,46,0
128400,note_on,24,0,5,,,,,,,,,4,,,51,81
128400,note_on,168,0,1,,,,,,,,,0,,,87,101
128496,note_on,96,0,1,,,,,,,,,0,,,87,0
128520,note_on,24,0,1,,,,,,,,,0,,,70,81
128592,note_on,192,0,5,,,,,,,,,4,,,51,0
128616,note_on,96,0,1,,,,,,,,,0,,,70,0
128640,note_on,24,0,1,,,,,,,,,0,,,87,81
128736,note_on,96,0,1,,,,,,,,,0,,,87,0
128760,note_on,24,0,1,,,,,,,,,0,,,68,101
128856,note_on,96,0,1,,,,,,,,,0,,,68,0
128880,note_on,24,0,1,,,,,,,,,0,,,84,81
128976,note_on,96,0,1,,,,,,,,,0,,,84,0
129000,note_on,24,0,1,,,,,,,,,0,,,67,81
129096,note_on,96,0,1,,,,,,,,,0,,,67,0
129120,note_on,24,0,1,,,,,,,,,0,,,82,101
129216,note_on,96,0,1,,,,,,,,,0,,,82,0
129240,note_on,24,0,1,,,,,,,,,0,,,65,81
129336,note_on,96,0,1,,,,,,,,,0,,,65,0
129360,note_on,24,0,1,,,,,,,,,0,,,80,81
129456,note_on,96,0,1,,,,,,,,,0,,,80,0
129480,note_on,24,0,1,,,,,,,,,0,,,63,101
129576,note_on,96,0,1,,,,,,,,,0,,,63,0
129600,note_on,24,0,1,,,,,,,,,0,,,79,81
129696,note_on,96,0,1,,,,,,,,,0,,,79,0
129720,note_on,24,0,1,,,,,,,,,0,,,62,81
129816,note_on,96,0,1,,,,,,,,,0,,,62,0
129840,note_on,24,0,1,,,,,,,,,0,,,77,101
129936,note_on,96,0,1,,,,,,,,,0,,,77,0
129960,note_on,24,0,1,,,,,,,,,0,,,60,81
130056,note_on,96,0,1,,,,,,,,,0,,,60,0
130080,note_on,24,0,1,,,,,,,,,0,,,75,81
130176,note_on,96,0,1,,,,,,,,,0,,,75,0
130200,note_on,24,0,1,,,,,,,,,0,,,58,101
130296,note_on,96,0,1,,,,,,,,,0,,,58,0
130320,note_on,24,0,1,,,,,,,,,0,,,74,81
130416,note_on,96,0,1,,,,,,,,,0,,,74,0
130440,note_on,24,0,1,,,,,,,,,0,,,56,81
130536,note_on,96,0,1,,,,,,,,,0,,,56,0
130560,note_on,24,0,1,,,,,,,,,0,,,72,101
130656,note_on,96,0,1,,,,,,,,,0,,,72,0
130680,note_on,24,0,1,,,,,,,,,0,,,55,81
130776,note_on,96,0,1,,,,,,,,,0,,,55,0
130800,note_on,24,0,1,,,,,,,,,0,,,70,81
130896,note_on,96,0,1,,,,,,,,,0,,,70,0
130920,note_on,24,0,1,,,,,,,,,0,,,56,101
131016,note_on,96,0,1,,,,,,,,,0,,,56,0
131040,note_on,24,0,1,,,,,,,,,0,,,72,81
131136,note_on,96,0,1,,,,,,,,,0,,,72,0
131160,note_on,24,0,1,,,,,,,,,0,,,56,81
131256,note_on,96,0,1,,,,,,,,,0,,,56,0
131280,note_on,24,0,1,,,,,,,,,0,,,72,101
131376,note_on,96,0,1,,,,,,,,,0,,,72,0
131400,note_on,24,0,1,,,,,,,,,0,,,57,81
131496,note_on,96,0,1,,,,,,,,,0,,,57,0
131520,note_on,24,0,1,,,,,,,,,0,,,72,81
131616,note_on,96,0,1,,,,,,,,,0,,,72,0
131640,note_on,24,0,1,,,,,,,,,0,,,58,101
131736,note_on,96,0,1,,,,,,,,,0,,,58,0
131760,note_on,24,0,1,,,,,,,,,0,,,74,81
131856,note_on,96,0,1,,,,,,,,,0,,,74,0
131880,note_on,24,0,1,,,,,,,,,0,,,58,81
131976,note_on,96,0,1,,,,,,,,,0,,,58,0
132000,note_on,24,0,1,,,,,,,,,0,,,74,101
132096,note_on,96,0,1,,,,,,,,,0,,,74,0
132120,note_on,24,0,1,,,,,,,,,0,,,59,81
132216,note_on,96,0,1,,,,,,,,,0,,,59,0
132240,note_on,24,0,1,,,,,,,,,0,,,74,81
132336,note_on,96,0,1,,,,,,,,,0,,,74,0
132360,note_on,24,0,1,,,,,,,,,0,,,60,101
132456,note_on,96,0,1,,,,,,,,,0,,,60,0
132480,note_on,24,0,1,,,,,,,,,0,,,75,81
132576,note_on,96,0,1,,,,,,,,,0,,,75,0
132600,note_on,24,0,1,,,,,,,,,0,,,60,81
132696,note_on,96,0,1,,,,,,,,,0,,,60,0
132720,note_on,24,0,1,,,,,,,,,0,,,77,101
132816,note_on,96,0,1,,,,,,,,,0,,,77,0
132840,note_on,24,0,1,,,,,,,,,0,,,62,81
132936,note_on,96,0,1,,,,,,,,,0,,,62,0
132960,note_on,24,0,1,,,,,,,,,0,,,77,81
133056,note_on,96,0,1,,,,,,,,,0,,,77,0
133080,note_on,24,0,1,,,,,,,,,0,,,63,81
133272,note_on,192,0,1,,,,,,,,,0,,,63,0
133440,note_on,168,0,1,,,,,,,,,0,,,77,101
133440,note_on,11688,0,4,,,,,,,,,3,,,62,125
133440,note_on,11688,0,3,,,,,,,,,2,,,65,125
133440,note_on,4848,0,5,,,,,,,,,4,,,46,101
133440,note_on,0,0,1,,,,,,,,,0,,,70,101
133440,note_on,11688,0,2,,,,,,,,,1,,,70,125
133536,note_on,96,0,1,,,,,,,,,0,,,70,0
133536,note_on,0,0,1,,,,,,,,,0,,,77,0
133536,note_on,96,0,3,,,,,,,,,2,,,65,0
133536,note_on,96,0,5,,,,,,,,,4,,,46,0
133536,note_on,96,0,4,,,,,,,,,3,,,62,0
133536,note_on,96,0,2,,,,,,,,,1,,,70,0
133560,note_on,24,0,3,,,,,,,,,2,,,65,105
133560,note_on,24,0,1,,,,,,,,,0,,,77,81
133560,note_on,24,0,4,,,,,,,,,3,,,62,105
133560,note_on,0,0,1,,,,,,,,,0,,,70,81
133560,note_on,24,0,2,,,,,,,,,1,,,70,105
133560,note_on,24,0,5,,,,,,,,,4,,,46,81
133656,note_on,96,0,3,,,,,,,,,2,,,65,0
133656,note_on,0,0,1,,,,,,,,,0,,,77,0
133656,note_on,96,0,4,,,,,,,,,3,,,62,0
133656,note_on,96,0,1,,,,,,,,,0,,,70,0
133656,note_on,96,0,2,,,,,,,,,1,,,70,0
133656,note_on,96,0,5,,,,,,,,,4,,,46,0
133680,note_on,0,0,1,,,,,,,,,0,,,70,81
133680,note_on,24,0,1,,,,,,,,,0,,,77,81
133680,note_on,24,0,2,,,,,,,,,1,,,70,105
133680,note_on,24,0,5,,,,,,,,,4,,,46,81
133680,note_on,24,0,3,,,,,,,,,2,,,65,105
133680,note_on,24,0,4,,,,,,,,,3,,,62,105
133776,note_on,96,0,5,,,,,,,,,4,,,46,0
133776,note_on,0,0,1,,,,,,,,,0,,,77,0
133776,note_on,96,0,4,,,,,,,,,3,,,62,0
133776,note_on,96,0,3,,,,,,,,,2,,,65,0
133776,note_on,96,0,1,,,,,,,,,0,,,70,0
133776,note_on,96,0,2,,,,,,,,,1,,,70,0
133800,note_on,24,0,3,,,,,,,,,2,,,65,105
133800,note_on,24,0,2,,,,,,,,,1,,,70,125
133800,note_on,24,0,1,,,,,,,,,0,,,70,101
133800,note_on,24,0,5,,,,,,,,,4,,,46,81
133800,note_on,24,0,4,,,,,,,,,3,,,62,105
133848,note_on,48,0,1,,,,,,,,,0,,,70,0
133848,note_on,48,0,2,,,,,,,,,1,,,70,0
133860,note_on,12,0,2,,,,,,,,,1,,,72,105
133860,note_on,12,0,1,,,,,,,,,0,,,72,81
133920,note_on,60,0,1,,,,,,,,,0,,,72,0
133920,note_on,0,0,1,,,,,,,,,0,,,74,81
133920,note_on,60,0,2,,,,,,,,,1,,,72,0
133920,note_on,0,0,2,,,,,,,,,1,,,74,105
133980,note_on,0,0,2,,,,,,,,,1,,,75,105
133980,note_on,60,0,1,,,,,,,,,0,,,74,0
133980,note_on,0,0,1,,,,,,,,,0,,,75,81
133980,note_on,60,0,2,,,,,,,,,1,,,74,0
133992,note_on,192,0,3,,,,,,,,,2,,,65,0
133992,note_on,192,0,4,,,,,,,,,3,,,62,0
133992,note_on,192,0,5,,,,,,,,,4,,,46,0
134040,note_on,60,0,2,,,,,,,,,1,,,75,0
134040,note_on,0,0,2,,,,,,,,,1,,,77,105
134040,note_on,0,0,1,,,,,,,,,0,,,77,81
134040,note_on,60,0,1,,,,,,,,,0,,,75,0
134160,note_on,120,0,2,,,,,,,,,1,,,77,0
134160,note_on,0,0,1,,,,,,,,,0,,,70,101
134160,note_on,168,0,5,,,,,,,,,4,,,46,101
134160,note_on,0,0,1,,,,,,,,,0,,,77,101
134160,note_on,0,0,2,,,,,,,,,1,,,70,125
134160,note_on,168,0,3,,,,,,,,,2,,,65,125
134160,note_on,120,0,1,,,,,,,,,0,,,77,0
134160,note_on,168,0,4,,,,,,,,,3,,,62,125
134256,note_on,96,0,3,,,,,,,,,2,,,65,0
134256,note_on,96,0,2,,,,,,,,,1,,,70,0
134256,note_on,96,0,1,,,,,,,,,0,,,70,0
134256,note_on,0,0,1,,,,,,,,,0,,,77,0
134256,note_on,96,0,4,,,,,,,,,3,,,62,0
134256,note_on,96,0,5,,,,,,,,,4,,,46,0
134280,note_on,24,0,2,,,,,,,,,1,,,70,105
134280,note_on,24,0,4,,,,,,,,,3,,,62,105
134280,note_on,0,0,1,,,,,,,,,0,,,70,81
134280,note_on,24,0,3,,,,,,,,,2,,,65,105
134280,note_on,24,0,1,,,,,,,,,0,,,77,81
134280,note_on,24,0,5,,,,,,,,,4,,,46,81
134376,note_on,96,0,4,,,,,,,,,3,,,62,0
134376,note_on,96,0,1,,,,,,,,,0,,,70,0
134376,note_on,0,0,1,,,,,,,,,0,,,77,0
134376,note_on,96,0,2,,,,,,,,,1,,,70,0
134376,note_on,96,0,3,,,,,,,,,2,,,65,0
134376,note_on,96,0,5,,,,,,,,,4,,,46,0
134400,note_on,0,0,1,,,,,,,,,0,,,70,81
134400,note_on,24,0,1,,,,,,,,,0,,,77,81
134400,note_on,24,0,3,,,,,,,,,2,,,65,105
134400,note_on,24,0,4,,,,,,,,,3,,,62,105
134400,note_on,24,0,5,,,,,,,,,4,,,46,81
134400,note_on,24,0,2,,,,,,,,,1,,,70,105
134496,note_on,96,0,5,,,,,,,,,4,,,46,0
134496,note_on,96,0,2,,,,,,,,,1,,,70,0
134496,note_on,0,0,1,,,,,,,,,0,,,77,0
134496,note_on,96,0,3,,,,,,,,,2,,,65,0
134496,note_on,96,0,4,,,,,,,,,3,,,62,0
134496,note_on,96,0,1,,,,,,,,,0,,,70,0
134520,note_on,24,0,5,,,,,,,,,4,,,46,81
134520,note_on,24,0,1,,,,,,,,,0,,,70,101
134520,note_on,24,0,4,,,,,,,,,3,,,62,105
134520,note_on,24,0,2,,,,,,,,,1,,,70,125
134520,note_on,24,0,3,,,,,,,,,2,,,65,105
134568,note_on,48,0,1,,,,,,,,,0,,,70,0
134568,note_on,48,0,2,,,,,,,,,1,,,70,0
134580,note_on,12,0,2,,,,,,,,,1,,,72,105
134580,note_on,12,0,1,,,,,,,,,0,,,72,81
134640,note_on,60,0,1,,,,,,,,,0,,,72,0
134640,note_on,60,0,2,,,,,,,,,1,,,72,0
134640,note_on,0,0,1,,,,,,,,,0,,,74,81
134640,note_on,0,0,2,,,,,,,,,1,,,74,105
134700,note_on,0,0,1,,,,,,,,,0,,,75,81
134700,note_on,0,0,2,,,,,,,,,1,,,75,105
134700,note_on,60,0,2,,,,,,,,,1,,,74,0
134700,note_on,60,0,1,,,,,,,,,0,,,74,0
134712,note_on,192,0,3,,,,,,,,,2,,,65,0
134712,note_on,192,0,5,,,,,,,,,4,,,46,0
134712,note_on,192,0,4,,,,,,,,,3,,,62,0
134760,note_on,60,0,1,,,,,,,,,0,,,75,0
134760,note_on,60,0,2,,,,,,,,,1,,,75,0
134760,note_on,0,0,1,,,,,,,,,0,,,77,81
134760,note_on,0,0,2,,,,,,,,,1,,,77,105
134820,note_on,0,0,1,,,,,,,,,0,,,79,81
134820,note_on,60,0,1,,,,,,,,,0,,,77,0
134820,note_on,0,0,2,,,,,,,,,1,,,79,105
134820,note_on,60,0,2,,,,,,,,,1,,,77,0
134880,note_on,60,0,2,,,,,,,,,1,,,79,0
134880,note_on,0,0,2,,,,,,,,,1,,,70,125
134880,note_on,60,0,1,,,,,,,,,0,,,79,0
134880,note_on,0,0,1,,,,,,,,,0,,,70,81
134880,note_on,168,0,5,,,,,,,,,4,,,46,101
134880,note_on,168,0,3,,,,,,,,,2,,,65,105
134880,note_on,168,0,4,,,,,,,,,3,,,62,125
134880,note_on,0,0,1,,,,,,,,,0,,,77,101
134976,note_on,96,0,1,,,,,,,,,0,,,70,0
134976,note_on,0,0,1,,,,,,,,,0,,,77,0
134976,note_on,96,0,3,,,,,,,,,2,,,65,0
134976,note_on,96,0,2,,,,,,,,,1,,,70,0
134976,note_on,96,0,5,,,,,,,,,4,,,46,0
134976,note_on,96,0,4,,,,,,,,,3,,,62,0
135000,note_on,24,0,2,,,,,,,,,1,,,70,105
135000,note_on,24,0,3,,,,,,,,,2,,,65,105
135000,note_on,24,0,1,,,,,,,,,0,,,77,81
135000,note_on,0,0,1,,,,,,,,,0,,,70,81
135000,note_on,24,0,4,,,,,,,,,3,,,62,105
135000,note_on,24,0,5,,,,,,,,,4,,,46,81
135096,note_on,96,0,3,,,,,,,,,2,,,65,0
135096,note_on,96,0,4,,,,,,,,,3,,,62,0
135096,note_on,96,0,5,,,,,,,,,4,,,46,0
135096,note_on,96,0,2,,,,,,,,,1,,,70,0
135096,note_on,96,0,1,,,,,,,,,0,,,70,0
135096,note_on,0,0,1,,,,,,,,,0,,,77,0
135120,note_on,24,0,1,,,,,,,,,0,,,77,81
135120,note_on,0,0,1,,,,,,,,,0,,,70,81
135120,note_on,24,0,3,,,,,,,,,2,,,65,105
135120,note_on,24,0,5,,,,,,,,,4,,,46,81
135120,note_on,24,0,2,,,,,,,,,1,,,70,105
135120,note_on,24,0,4,,,,,,,,,3,,,62,105
135216,note_on,96,0,2,,,,,,,,,1,,,70,0
135216,note_on,0,0,1,,,,,,,,,0,,,77,0
135216,note_on,96,0,4,,,,,,,,,3,,,62,0
135216,note_on,96,0,5,,,,,,,,,4,,,46,0
135216,note_on,96,0,3,,,,,,,,,2,,,65,0
135216,note_on,96,0,1,,,,,,,,,0,,,70,0
135240,note_on,24,0,5,,,,,,,,,4,,,46,81
135240,note_on,24,0,3,,,,,,,,,2,,,65,105
135240,note_on,24,0,2,,,,,,,,,1,,,70,125
135240,note_on,24,0,4,,,,,,,,,3,,,62,105
135240,note_on,24,0,1,,,,,,,,,0,,,70,101
135288,note_on,48,0,2,,,,,,,,,1,,,70,0
135288,note_on,48,0,1,,,,,,,,,0,,,70,0
135300,note_on,12,0,2,,,,,,,,,1,,,72,105
135300,note_on,12,0,1,,,,,,,,,0,,,72,81
135360,note_on,60,0,2,,,,,,,,,1,,,72,0
135360,note_on,60,0,1,,,,,,,,,0,,,72,0
135360,note_on,0,0,1,,,,,,,,,0,,,74,81
135360,note_on,0,0,2,,,,,,,,,1,,,74,105
135420,note_on,0,0,2,,,,,,,,,1,,,75,105
135420,note_on,0,0,1,,,,,,,,,0,,,75,81
135420,note_on,60,0,2,,,,,,,,,1,,,74,0
135420,note_on,60,0,1,,,,,,,,,0,,,74,0
135432,note_on,192,0,3,,,,,,,,,2,,,65,0
135432,note_on,192,0,5,,,,,,,,,4,,,46,0
135432,note_on,192,0,4,,,,,,,,,3,,,62,0
135480,note_on,60,0,1,,,,,,,,,0,,,75,0
135480,note_on,60,0,2,,,,,,,,,1,,,75,0
135480,note_on,0,0,1,,,,,,,,,0,,,77,81
135480,note_on,0,0,2,,,,,,,,,1,,,77,105
135540,note_on,60,0,2,,,,,,,,,1,,,77,0
135540,note_on,0,0,2,,,,,,,,,1,,,79,105
135540,note_on,0,0,1,,,,,,,,,0,,,79,81
135540,note_on,60,0,1,,,,,,,,,0,,,77,0
135570,note_on,30,0,2,,,,,,,,,1,,,79,0
135570,note_on,0,0,1,,,,,,,,,0,,,80,81
135570,note_on,30,0,1,,,,,,,,,0,,,79,0
135570,note_on,0,0,2,,,,,,,,,1,,,80,105
135600,note_on,168,0,5,,,,,,,,,4,,,46,101
135600,note_on,0,0,2,,,,,,,,,1,,,70,125
135600,note_on,168,0,4,,,,,,,,,3,,,62,125
135600,note_on,30,0,2,,,,,,,,,1,,,80,0
135600,note_on,0,0,1,,,,,,,,,0,,,70,81
135600,note_on,168,0,3,,,,,,,,,2,,,65,125
135600,note_on,0,0,1,,,,,,,,,0,,,77,101
135600,note_on,30,0,1,,,,,,,,,0,,,80,0
135696,note_on,0,0,1,,,,,,,,,0,,,77,0
135696,note_on,96,0,4,,,,,,,,,3,,,62,0
135696,note_on,96,0,2,,,,,,,,,1,,,70,0
135696,note_on,96,0,1,,,,,,,,,0,,,70,0
135696,note_on,96,0,3,,,,,,,,,2,,,65,0
135696,note_on,96,0,5,,,,,,,,,4,,,46,0
135720,note_on,0,0,1,,,,,,,,,0,,,70,81
135720,note_on,24,0,1,,,,,,,,,0,,,77,81
135720,note_on,24,0,4,,,,,,,,,3,,,62,105
135720,note_on,24,0,2,,,,,,,,,1,,,70,105
135720,note_on,24,0,3,,,,,,,,,2,,,65,105
135720,note_on,24,0,5,,,,,,,,,4,,,46,81
135816,note_on,96,0,1,,,,,,,,,0,,,70,0
135816,note_on,96,0,3,,,,,,,,,2,,,65,0
135816,note_on,96,0,2,,,,,,,,,1,,,70,0
135816,note_on,0,0,1,,,,,,,,,0,,,77,0
135816,note_on,96,0,4,,,,,,,,,3,,,62,0
135816,note_on,96,0,5,,,,,,,,,4,,,46,0
135840,note_on,24,0,5,,,,,,,,,4,,,46,81
135840,note_on,24,0,1,,,,,,,,,0,,,77,81
135840,note_on,0,0,1,,,,,,,,,0,,,70,81
135840,note_on,24,0,3,,,,,,,,,2,,,65,105
135840,note_on,24,0,4,,,,,,,,,3,,,62,105
135840,note_on,24,0,2,,,,,,,,,1,,,70,105
135936,note_on,96,0,4,,,,,,,,,3,,,62,0
135936,note_on,96,0,2,,,,,,,,,1,,,70,0
135936,note_on,96,0,3,,,,,,,,,2,,,65,0
135936,note_on,96,0,5,,,,,,,,,4,,,46,0
135936,note_on,96,0,1,,,,,,,,,0,,,70,0
135960,note_on,24,0,2,,,,,,,,,1,,,70,125
135960,note_on,24,0,3,,,,,,,,,2,,,65,105
135960,note_on,0,0,1,,,,,,,,,0,,,70,101
135960,note_on,24,0,1,,,,,,,,,0,,,77,0
135960,note_on,24,0,5,,,,,,,,,4,,,46,81
135960,note_on,24,0,4,,,,,,,,,3,,,62,105
136008,note_on,48,0,1,,,,,,,,,0,,,70,0
136008,note_on,48,0,2,,,,,,,,,1,,,70,0
136020,note_on,12,0,1,,,,,,,,,0,,,72,81
136020,note_on,12,0,2,,,,,,,,,1,,,72,105
136080,note_on,0,0,1,,,,,,,,,0,,,74,81
136080,note_on,60,0,1,,,,,,,,,0,,,72,0
136080,note_on,60,0,2,,,,,,,,,1,,,72,0
136080,note_on,0,0,2,,,,,,,,,1,,,74,105
136140,note_on,60,0,1,,,,,,,,,0,,,74,0
136140,note_on,60,0,2,,,,,,,,,1,,,74,0
136140,note_on,0,0,2,,,,,,,,,1,,,75,105
136140,note_on,0,0,1,,,,,,,,,0,,,75,81
136152,note_on,192,0,3,,,,,,,,,2,,,65,0
136152,note_on,192,0,5,,,,,,,,,4,,,46,0
136152,note_on,192,0,4,,,,,,,,,3,,,62,0
136200,note_on,60,0,2,,,,,,,,,1,,,75,0
136200,note_on,60,0,1,,,,,,,,,0,,,75,0
136200,note_on,0,0,1,,,,,,,,,0,,,77,81
136200,note_on,0,0,2,,,,,,,,,1,,,77,105
136260,note_on,60,0,2,,,,,,,,,1,,,77,0
136260,note_on,0,0,2,,,,,,,,,1,,,79,105
136260,note_on,60,0,1,,,,,,,,,0,,,77,0
136260,note_on,0,0,1,,,,,,,,,0,,,79,81
136290,note_on,0,0,2,,,,,,,,,1,,,80,105
136290,note_on,30,0,2,,,,,,,,,1,,,79,0
136290,note_on,0,0,1,,,,,,,,,0,,,80,81
136290,note_on,30,0,1,,,,,,,,,0,,,79,0
136320,note_on,168,0,5,,,,,,,,,4,,,46,101
136320,note_on,168,0,3,,,,,,,,,2,,,65,105
136320,note_on,168,0,4,,,,,,,,,3,,,62,105
136320,note_on,30,0,1,,,,,,,,,0,,,80,0
136320,note_on,30,0,2,,,,,,,,,1,,,80,0
136320,note_on,0,0,1,,,,,,,,,0,,,70,81
136320,note_on,0,0,2,,,,,,,,,1,,,70,105
136368,note_on,48,0,5,,,,,,,,,4,,,46,0
136380,note_on,12,0,5,,,,,,,,,4,,,58,81
136428,note_on,48,0,5,,,,,,,,,4,,,58,0
136440,note_on,12,0,5,,,,,,,,,4,,,53,81
136488,note_on,48,0,5,,,,,,,,,4,,,53,0
136500,note_on,12,0,5,,,,,,,,,4,,,58,81
136512,note_on,192,0,3,,,,,,,,,2,,,65,0
136512,note_on,192,0,2,,,,,,,,,1,,,70,0
136512,note_on,192,0,4,,,,,,,,,3,,,62,0
136512,note_on,192,0,1,,,,,,,,,0,,,70,0
136548,note_on,48,0,5,,,,,,,,,4,,,58,0
136560,note_on,12,0,5,,,,,,,,,4,,,50,81
136608,note_on,48,0,5,,,,,,,,,4,,,50,0
136620,note_on,12,0,5,,,,,,,,,4,,,53,81
136668,note_on,48,0,5,,,,,,,,,4,,,53,0
136680,note_on,168,0,2,,,,,,,,,1,,,82,125
136680,note_on,12,0,5,,,,,,,,,4,,,46,101
136680,note_on,168,0,3,,,,,,,,,2,,,82,125
136680,note_on,168,0,1,,,,,,,,,0,,,82,101
136680,note_on,168,0,4,,,,,,,,,3,,,62,125
136728,note_on,48,0,3,,,,,,,,,2,,,82,0
136728,note_on,48,0,1,,,,,,,,,0,,,82,0
136728,note_on,48,0,2,,,,,,,,,1,,,82,0
136740,note_on,12,0,1,,,,,,,,,0,,,80,81
136740,note_on,12,0,3,,,,,,,,,2,,,80,105
136740,note_on,12,0,2,,,,,,,,,1,,,80,105
136776,note_on,96,0,4,,,,,,,,,3,,,62,0
136776,note_on,96,0,5,,,,,,,,,4,,,46,0
136788,note_on,48,0,2,,,,,,,,,1,,,80,0
136788,note_on,48,0,1,,,,,,,,,0,,,80,0
136788,note_on,48,0,3,,,,,,,,,2,,,80,0
136800,note_on,24,0,4,,,,,,,,,3,,,62,105
136800,note_on,12,0,3,,,,,,,,,2,,,79,105
136800,note_on,24,0,5,,,,,,,,,4,,,46,81
136800,note_on,12,0,2,,,,,,,,,1,,,79,105
136800,note_on,12,0,1,,,,,,,,,0,,,79,81
136848,note_on,48,0,3,,,,,,,,,2,,,79,0
136848,note_on,48,0,2,,,,,,,,,1,,,79,0
136848,note_on,48,0,1,,,,,,,,,0,,,79,0
136860,note_on,12,0,1,,,,,,,,,0,,,77,81
136860,note_on,12,0,2,,,,,,,,,1,,,77,105
136860,note_on,12,0,3,,,,,,,,,2,,,77,105
136896,note_on,96,0,4,,,,,,,,,3,,,62,0
136896,note_on,96,0,5,,,,,,,,,4,,,46,0
136908,note_on,48,0,1,,,,,,,,,0,,,77,0
136908,note_on,48,0,3,,,,,,,,,2,,,77,0
136908,note_on,48,0,2,,,,,,,,,1,,,77,0
136920,note_on,12,0,1,,,,,,,,,0,,,75,81
136920,note_on,12,0,3,,,,,,,,,2,,,75,105
136920,note_on,12,0,2,,,,,,,,,1,,,75,105
136920,note_on,24,0,4,,,,,,,,,3,,,62,105
136920,note_on,24,0,5,,,,,,,,,4,,,46,81
136968,note_on,48,0,1,,,,,,,,,0,,,75,0
136968,note_on,48,0,2,,,,,,,,,1,,,75,0
136968,note_on,48,0,3,,,,,,,,,2,,,75,0
136980,note_on,12,0,2,,,,,,,,,1,,,74,105
136980,note_on,12,0,1,,,,,,,,,0,,,74,81
136980,note_on,12,0,3,,,,,,,,,2,,,74,105
137016,note_on,96,0,4,,,,,,,,,3,,,62,0
137016,note_on,96,0,5,,,,,,,,,4,,,46,0
137028,note_on,48,0,2,,,,,,,,,1,,,74,0
137028,note_on,48,0,1,,,,,,,,,0,,,74,0
137028,note_on,48,0,3,,,,,,,,,2,,,74,0
137040,note_on,24,0,5,,,,,,,,,4,,,44,81
137040,note_on,12,0,1,,,,,,,,,0,,,72,101
137040,note_on,12,0,2,,,,,,,,,1,,,72,125
137040,note_on,24,0,4,,,,,,,,,3,,,65,125
137040,note_on,12,0,3,,,,,,,,,2,,,72,125
137088,note_on,48,0,1,,,,,,,,,0,,,72,0
137088,note_on,48,0,3,,,,,,,,,2,,,72,0
137088,note_on,48,0,2,,,,,,,,,1,,,72,0
137100,note_on,12,0,1,,,,,,,,,0,,,70,81
137100,note_on,12,0,3,,,,,,,,,2,,,70,105
137100,note_on,12,0,2,,,,,,,,,1,,,70,105
137136,note_on,96,0,4,,,,,,,,,3,,,65,0
137136,note_on,96,0,5,,,,,,,,,4,,,44,0
137148,note_on,48,0,3,,,,,,,,,2,,,70,0
137148,note_on,48,0,1,,,,,,,,,0,,,70,0
137148,note_on,48,0,2,,,,,,,,,1,,,70,0
137160,note_on,12,0,2,,,,,,,,,1,,,68,105
137160,note_on,12,0,3,,,,,,,,,2,,,68,105
137160,note_on,24,0,4,,,,,,,,,3,,,65,105
137160,note_on,12,0,1,,,,,,,,,0,,,68,81
137160,note_on,24,0,5,,,,,,,,,4,,,44,81
137208,note_on,48,0,3,,,,,,,,,2,,,68,0
137208,note_on,48,0,1,,,,,,,,,0,,,68,0
137208,note_on,48,0,2,,,,,,,,,1,,,68,0
137220,note_on,12,0,1,,,,,,,,,0,,,67,81
137220,note_on,12,0,2,,,,,,,,,1,,,67,105
137220,note_on,12,0,3,,,,,,,,,2,,,67,105
137256,note_on,96,0,4,,,,,,,,,3,,,65,0
137256,note_on,96,0,5,,,,,,,,,4,,,44,0
137268,note_on,48,0,2,,,,,,,,,1,,,67,0
137268,note_on,48,0,3,,,,,,,,,2,,,67,0
137268,note_on,48,0,1,,,,,,,,,0,,,67,0
137280,note_on,12,0,2,,,,,,,,,1,,,65,105
137280,note_on,24,0,5,,,,,,,,,4,,,45,81
137280,note_on,12,0,3,,,,,,,,,2,,,65,105
137280,note_on,12,0,1,,,,,,,,,0,,,65,81
137280,note_on,24,0,4,,,,,,,,,3,,,60,105
137328,note_on,48,0,3,,,,,,,,,2,,,65,0
137328,note_on,48,0,2,,,,,,,,,1,,,65,0
137328,note_on,48,0,1,,,,,,,,,0,,,65,0
137340,note_on,12,0,2,,,,,,,,,1,,,63,105
137340,note_on,12,0,1,,,,,,,,,0,,,63,81
137340,note_on,12,0,3,,,,,,,,,2,,,63,105
137376,note_on,96,0,5,,,,,,,,,4,,,45,0
137376,note_on,96,0,4,,,,,,,,,3,,,60,0
137388,note_on,48,0,1,,,,,,,,,0,,,63,0
137388,note_on,48,0,3,,,,,,,,,2,,,63,0
137388,note_on,48,0,2,,,,,,,,,1,,,63,0
137400,note_on,24,0,4,,,,,,,,,3,,,53,105
137400,note_on,12,0,3,,,,,,,,,2,,,62,105
137400,note_on,12,0,2,,,,,,,,,1,,,62,125
137400,note_on,24,0,5,,,,,,,,,4,,,46,81
137400,note_on,12,0,1,,,,,,,,,0,,,62,101
137448,note_on,48,0,1,,,,,,,,,0,,,62,0
137448,note_on,48,0,2,,,,,,,,,1,,,62,0
137448,note_on,48,0,3,,,,,,,,,2,,,62,0
137460,note_on,12,0,3,,,,,,,,,2,,,60,105
137460,note_on,12,0,2,,,,,,,,,1,,,60,105
137460,note_on,12,0,1,,,,,,,,,0,,,60,81
137508,note_on,48,0,3,,,,,,,,,2,,,60,0
137508,note_on,48,0,2,,,,,,,,,1,,,60,0
137508,note_on,48,0,1,,,,,,,,,0,,,60,0
137520,note_on,12,0,1,,,,,,,,,0,,,58,81
137520,note_on,12,0,2,,,,,,,,,1,,,58,105
137520,note_on,12,0,3,,,,,,,,,2,,,58,105
137568,note_on,48,0,1,,,,,,,,,0,,,58,0
137568,note_on,48,0,2,,,,,,,,,1,,,58,0
137568,note_on,48,0,3,,,,,,,,,2,,,58,0
137580,note_on,12,0,1,,,,,,,,,0,,,56,81
137580,note_on,12,0,2,,,,,,,,,1,,,56,105
137580,note_on,12,0,3,,,,,,,,,2,,,56,105
137592,note_on,192,0,4,,,,,,,,,3,,,53,0
137592,note_on,192,0,5,,,,,,,,,4,,,46,0
137628,note_on,48,0,3,,,,,,,,,2,,,56,0
137628,note_on,48,0,1,,,,,,,,,0,,,56,0
137628,note_on,48,0,2,,,,,,,,,1,,,56,0
137640,note_on,48,0,4,,,,,,,,,3,,,55,105
137640,note_on,12,0,2,,,,,,,,,1,,,55,105
137640,note_on,12,0,3,,,,,,,,,2,,,55,105
137640,note_on,48,0,5,,,,,,,,,4,,,39,81
137640,note_on,12,0,1,,,,,,,,,0,,,55,81
137736,note_on,96,0,5,,,,,,,,,4,,,39,0
137736,note_on,96,0,3,,,,,,,,,2,,,55,0
137736,note_on,96,0,4,,,,,,,,,3,,,55,0
137736,note_on,96,0,1,,,,,,,,,0,,,55,0
137736,note_on,96,0,2,,,,,,,,,1,,,55,0
137760,note_on,24,0,3,,,,,,,,,2,,,75,125
137760,note_on,24,0,2,,,,,,,,,1,,,75,125
137760,note_on,24,0,5,,,,,,,,,4,,,51,101
137760,note_on,24,0,4,,,,,,,,,3,,,55,105
137760,note_on,24,0,1,,,,,,,,,0,,,75,101
137856,note_on,96,0,1,,,,,,,,,0,,,75,0
137856,note_on,96,0,3,,,,,,,,,2,,,75,0
137856,note_on,96,0,4,,,,,,,,,3,,,55,0
137856,note_on,96,0,5,,,,,,,,,4,,,51,0
137856,note_on,96,0,2,,,,,,,,,1,,,75,0
137880,note_on,24,0,1,,,,,,,,,0,,,65,81
137880,note_on,24,0,5,,,,,,,,,4,,,58,81
137880,note_on,24,0,4,,,,,,,,,3,,,62,105
137880,note_on,24,0,2,,,,,,,,,1,,,65,105
137880,note_on,24,0,3,,,,,,,,,2,,,65,105
137940,note_on,60,0,3,,,,,,,,,2,,,65,0
137940,note_on,0,0,2,,,,,,,,,1,,,67,105
137940,note_on,0,0,3,,,,,,,,,2,,,67,105
137940,note_on,60,0,2,,,,,,,,,1,,,65,0
137940,note_on,0,0,1,,,,,,,,,0,,,67,81
137940,note_on,60,0,1,,,,,,,,,0,,,65,0
137976,note_on,96,0,5,,,,,,,,,4,,,58,0
138000,note_on,0,0,2,,,,,,,,,1,,,68,105
138000,note_on,60,0,2,,,,,,,,,1,,,67,0
138000,note_on,60,0,1,,,,,,,,,0,,,67,0
138000,note_on,60,0,3,,,,,,,,,2,,,67,0
138000,note_on,0,0,3,,,,,,,,,2,,,68,105
138000,note_on,24,0,5,,,,,,,,,4,,,46,81
138000,note_on,0,0,1,,,,,,,,,0,,,68,81
138072,note_on,192,0,4,,,,,,,,,3,,,62,0
138096,note_on,96,0,3,,,,,,,,,2,,,68,0
138096,note_on,96,0,1,,,,,,,,,0,,,68,0
138096,note_on,96,0,5,,,,,,,,,4,,,46,0
138096,note_on,96,0,2,,,,,,,,,1,,,68,0
138120,note_on,24,0,3,,,,,,,,,2,,,68,125
138120,note_on,48,0,4,,,,,,,,,3,,,62,105
138120,note_on,24,0,5,,,,,,,,,4,,,46,81
138120,note_on,24,0,2,,,,,,,,,1,,,68,125
138120,note_on,24,0,1,,,,,,,,,0,,,68,101
138216,note_on,96,0,2,,,,,,,,,1,,,68,0
138216,note_on,96,0,3,,,,,,,,,2,,,68,0
138216,note_on,96,0,1,,,,,,,,,0,,,68,0
138240,note_on,24,0,1,,,,,,,,,0,,,67,81
138240,note_on,24,0,2,,,,,,,,,1,,,67,105
138240,note_on,24,0,3,,,,,,,,,2,,,67,105
138360,note_on,0,0,1,,,,,,,,,0,,,65,81
138360,note_on,120,0,3,,,,,,,,,2,,,67,0
138360,note_on,120,0,1,,,,,,,,,0,,,67,0
138360,note_on,0,0,2,,,,,,,,,1,,,65,105
138360,note_on,120,0,2,,,,,,,,,1,,,67,0
138360,note_on,0,0,3,,,,,,,,,2,,,65,105
138408,note_on,288,0,5,,,,,,,,,4,,,46,0
138408,note_on,288,0,4,,,,,,,,,3,,,62,0
138480,note_on,0,0,3,,,,,,,,,2,,,75,125
138480,note_on,120,0,3,,,,,,,,,2,,,65,0
138480,note_on,72,0,4,,,,,,,,,3,,,55,105
138480,note_on,120,0,1,,,,,,,,,0,,,65,0
138480,note_on,0,0,1,,,,,,,,,0,,,75,101
138480,note_on,0,0,2,,,,,,,,,1,,,75,125
138480,note_on,120,0,2,,,,,,,,,1,,,65,0
138480,note_on,72,0,5,,,,,,,,,4,,,51,101
138576,note_on,96,0,4,,,,,,,,,3,,,55,0
138576,note_on,96,0,5,,,,,,,,,4,,,51,0
138576,note_on,96,0,1,,,,,,,,,0,,,75,0
138576,note_on,96,0,2,,,,,,,,,1,,,75,0
138576,note_on,96,0,3,,,,,,,,,2,,,75,0
138600,note_on,24,0,1,,,,,,,,,0,,,65,81
138600,note_on,24,0,2,,,,,,,,,1,,,65,105
138600,note_on,24,0,3,,,,,,,,,2,,,65,105
138600,note_on,24,0,5,,,,,,,,,4,,,58,81
138600,note_on,24,0,4,,,,,,,,,3,,,62,105
138660,note_on,60,0,1,,,,,,,,,0,,,65,0
138660,note_on,60,0,2,,,,,,,,,1,,,65,0
138660,note_on,0,0,1,,,,,,,,,0,,,67,81
138660,note_on,0,0,2,,,,,,,,,1,,,67,105
138660,note_on,60,0,3,,,,,,,,,2,,,65,0
138660,note_on,0,0,3,,,,,,,,,2,,,67,105
138696,note_on,96,0,5,,,,,,,,,4,,,58,0
138720,note_on,0,0,2,,,,,,,,,1,,,68,105
138720,note_on,24,0,5,,,,,,,,,4,,,46,81
138720,note_on,60,0,2,,,,,,,,,1,,,67,0
138720,note_on,0,0,1,,,,,,,,,0,,,68,81
138720,note_on,60,0,3,,,,,,,,,2,,,67,0
138720,note_on,0,0,3,,,,,,,,,2,,,68,105
138720,note_on,60,0,1,,,,,,,,,0,,,67,0
138792,note_on,192,0,4,,,,,,,,,3,,,62,0
138816,note_on,96,0,1,,,,,,,,,0,,,68,0
138816,note_on,96,0,2,,,,,,,,,1,,,68,0
138816,note_on,96,0,3,,,,,,,,,2,,,68,0
138816,note_on,96,0,5,,,,,,,,,4,,,46,0
138840,note_on,24,0,3,,,,,,,,,2,,,68,125
138840,note_on,24,0,1,,,,,,,,,0,,,68,101
138840,note_on,48,0,4,,,,,,,,,3,,,62,105
138840,note_on,24,0,2,,,,,,,,,1,,,68,125
138840,note_on,24,0,5,,,,,,,,,4,,,46,81
138936,note_on,96,0,3,,,,,,,,,2,,,68,0
138936,note_on,96,0,1,,,,,,,,,0,,,68,0
138936,note_on,96,0,2,,,,,,,,,1,,,68,0
138960,note_on,24,0,1,,,,,,,,,0,,,67,81
138960,note_on,24,0,3,,,,,,,,,2,,,67,105
138960,note_on,24,0,2,,,,,,,,,1,,,67,105
139080,note_on,120,0,3,,,,,,,,,2,,,67,0
139080,note_on,120,0,2,,,,,,,,,1,,,67,0
139080,note_on,0,0,2,,,,,,,,,1,,,65,105
139080,note_on,0,0,1,,,,,,,,,0,,,65,81
139080,note_on,120,0,1,,,,,,,,,0,,,67,0
139080,note_on,0,0,3,,,,,,,,,2,,,65,105
139128,note_on,288,0,5,,,,,,,,,4,,,46,0
139128,note_on,288,0,4,,,,,,,,,3,,,62,0
139200,note_on,0,0,2,,,,,,,,,1,,,75,125
139200,note_on,120,0,2,,,,,,,,,1,,,65,0
139200,note_on,120,0,3,,,,,,,,,2,,,65,0
139200,note_on,72,0,5,,,,,,,,,4,,,51,101
139200,note_on,120,0,1,,,,,,,,,0,,,65,0
139200,note_on,72,0,4,,,,,,,,,3,,,67,125
139200,note_on,0,0,1,,,,,,,,,0,,,75,101
139200,note_on,0,0,3,,,,,,,,,2,,,75,125
139296,note_on,96,0,5,,,,,,,,,4,,,51,0
139296,note_on,96,0,4,,,,,,,,,3,,,67,0
139296,note_on,96,0,3,,,,,,,,,2,,,75,0
139296,note_on,96,0,1,,,,,,,,,0,,,75,0
139296,note_on,96,0,2,,,,,,,,,1,,,75,0
139320,note_on,24,0,5,,,,,,,,,4,,,58,81
139320,note_on,24,0,3,,,,,,,,,2,,,58,105
139320,note_on,24,0,1,,,,,,,,,0,,,58,81
139320,note_on,24,0,2,,,,,,,,,1,,,58,105
139320,note_on,24,0,4,,,,,,,,,3,,,62,105
139416,note_on,96,0,4,,,,,,,,,3,,,62,0
139416,note_on,96,0,5,,,,,,,,,4,,,58,0
139416,note_on,96,0,3,,,,,,,,,2,,,58,0
139416,note_on,96,0,1,,,,,,,,,0,,,58,0
139416,note_on,96,0,2,,,,,,,,,1,,,58,0
139440,note_on,24,0,3,,,,,,,,,2,,,74,105
139440,note_on,24,0,4,,,,,,,,,3,,,67,105
139440,note_on,24,0,2,,,,,,,,,1,,,74,105
139440,note_on,24,0,1,,,,,,,,,0,,,74,81
139440,note_on,24,0,5,,,,,,,,,4,,,46,81
139536,note_on,96,0,3,,,,,,,,,2,,,74,0
139536,note_on,96,0,2,,,,,,,,,1,,,74,0
139536,note_on,96,0,1,,,,,,,,,0,,,74,0
139536,note_on,96,0,4,,,,,,,,,3,,,67,0
139536,note_on,96,0,5,,,,,,,,,4,,,46,0
139560,note_on,24,0,5,,,,,,,,,4,,,39,58
139560,note_on,24,0,2,,,,,,,,,1,,,75,58
139560,note_on,24,0,1,,,,,,,,,0,,,70,121
139560,note_on,24,0,4,,,,,,,,,3,,,67,58
139560,note_on,24,0,3,,,,,,,,,2,,,75,58
139590,note_on,30,0,1,,,,,,,,,0,,,75,121
139620,note_on,0,0,1,,,,,,,,,0,,,70,0
139620,note_on,0,0,1,,,,,,,,,0,,,79,81
139620,note_on,30,0,1,,,,,,,,,0,,,75,0
139668,note_on,48,0,1,,,,,,,,,0,,,79,0
139680,note_on,12,0,1,,,,,,,,,0,,,75,81
139728,note_on,48,0,1,,,,,,,,,0,,,75,0
139740,note_on,12,0,1,,,,,,,,,0,,,79,81
139752,note_on,192,0,3,,,,,,,,,2,,,75,0
139752,note_on,192,0,2,,,,,,,,,1,,,75,0
139752,note_on,192,0,4,,,,,,,,,3,,,67,0
139752,note_on,192,0,5,,,,,,,,,4,,,39,0
139788,note_on,48,0,1,,,,,,,,,0,,,79,0
139800,note_on,12,0,1,,,,,,,,,0,,,70,81
139848,note_on,48,0,1,,,,,,,,,0,,,70,0
139860,note_on,12,0,1,,,,,,,,,0,,,79,81
139908,note_on,48,0,1,,,,,,,,,0,,,79,0
139920,note_on,168,0,5,,,,,,,,,4,,,39,58
139920,note_on,12,0,1,,,,,,,,,0,,,55,121
139950,note_on,30,0,1,,,,,,,,,0,,,70,121
139950,note_on,0,0,1,,,,,,,,,0,,,75,121
139980,note_on,30,0,1,,,,,,,,,0,,,75,0
139980,note_on,0,0,1,,,,,,,,,0,,,70,0
139980,note_on,0,0,1,,,,,,,,,0,,,55,0
139980,note_on,0,0,1,,,,,,,,,0,,,79,81
140028,note_on,48,0,1,,,,,,,,,0,,,79,0
140040,note_on,12,0,1,,,,,,,,,0,,,75,81
140088,note_on,48,0,1,,,,,,,,,0,,,75,0
140100,note_on,12,0,1,,,,,,,,,0,,,79,81
140112,note_on,192,0,5,,,,,,,,,4,,,39,0
140148,note_on,48,0,1,,,,,,,,,0,,,79,0
140160,note_on,12,0,1,,,,,,,,,0,,,70,81
140208,note_on,48,0,1,,,,,,,,,0,,,70,0
140220,note_on,12,0,1,,,,,,,,,0,,,79,81
140268,note_on,48,0,1,,,,,,,,,0,,,79,0
140280,note_on,168,0,5,,,,,,,,,4,,,39,58
140280,note_on,12,0,1,,,,,,,,,0,,,55,121
140310,note_on,0,0,1,,,,,,,,,0,,,75,121
140310,note_on,30,0,1,,,,,,,,,0,,,70,121
140340,note_on,30,0,1,,,,,,,,,0,,,75,0
140340,note_on,0,0,1,,,,,,,,,0,,,55,0
140340,note_on,0,0,1,,,,,,,,,0,,,79,81
140340,note_on,0,0,1,,,,,,,,,0,,,70,0
140388,note_on,48,0,1,,,,,,,,,0,,,79,0
140400,note_on,12,0,1,,,,,,,,,0,,,75,81
140448,note_on,48,0,1,,,,,,,,,0,,,75,0
140460,note_on,12,0,1,,,,,,,,,0,,,79,81
140472,note_on,192,0,5,,,,,,,,,4,,,39,0
140508,note_on,48,0,1,,,,,,,,,0,,,79,0
140520,note_on,12,0,1,,,,,,,,,0,,,70,81
140568,note_on,48,0,1,,,,,,,,,0,,,70,0
140580,note_on,12,0,1,,,,,,,,,0,,,79,81
140628,note_on,48,0,1,,,,,,,,,0,,,79,0
140640,note_on,12,0,1,,,,,,,,,0,,,62,121
140640,note_on,888,0,3,,,,,,,,,2,,,58,58
140640,note_on,168,0,5,,,,,,,,,4,,,46,58
140640,note_on,888,0,4,,,,,,,,,3,,,58,58
140640,note_on,888,0,2,,,,,,,,,1,,,58,58
140670,note_on,0,0,1,,,,,,,,,0,,,70,121
140670,note_on,0,0,1,,,,,,,,,0,,,74,81
140670,note_on,30,0,1,,,,,,,,,0,,,65,121
140694,note_on,24,0,1,,,,,,,,,0,,,74,0
140700,note_on,0,0,1,,,,,,,,,0,,,65,0
140700,note_on,6,0,1,,,,,,,,,0,,,62,0
140700,note_on,0,0,1,,,,,,,,,0,,,77,81
140700,note_on,0,0,1,,,,,,,,,0,,,70,0
140748,note_on,48,0,1,,,,,,,,,0,,,77,0
140760,note_on,12,0,1,,,,,,,,,0,,,74,81
140808,note_on,48,0,1,,,,,,,,,0,,,74,0
140820,note_on,12,0,1,,,,,,,,,0,,,77,81
140832,note_on,192,0,3,,,,,,,,,2,,,58,0
140832,note_on,192,0,4,,,,,,,,,3,,,58,0
140832,note_on,192,0,2,,,,,,,,,1,,,58,0
140832,note_on,192,0,5,,,,,,,,,4,,,46,0
140868,note_on,48,0,1,,,,,,,,,0,,,77,0
140880,note_on,12,0,1,,,,,,,,,0,,,68,81
140928,note_on,48,0,1,,,,,,,,,0,,,68,0
140940,note_on,12,0,1,,,,,,,,,0,,,77,81
140988,note_on,48,0,1,,,,,,,,,0,,,77,0
141000,note_on,12,0,1,,,,,,,,,0,,,62,121
141000,note_on,168,0,5,,,,,,,,,4,,,46,58
141030,note_on,0,0,1,,,,,,,,,0,,,65,121
141030,note_on,0,0,1,,,,,,,,,0,,,74,121
141030,note_on,30,0,1,,,,,,,,,0,,,70,121
141060,note_on,30,0,1,,,,,,,,,0,,,65,0
141060,note_on,0,0,1,,,,,,,,,0,,,62,0
141060,note_on,0,0,1,,,,,,,,,0,,,70,0
141060,note_on,0,0,1,,,,,,,,,0,,,74,0
141060,note_on,0,0,1,,,,,,,,,0,,,77,81
141108,note_on,48,0,1,,,,,,,,,0,,,77,0
141120,note_on,12,0,1,,,,,,,,,0,,,74,81
141168,note_on,48,0,1,,,,,,,,,0,,,74,0
141180,note_on,12,0,1,,,,,,,,,0,,,77,81
141192,note_on,192,0,5,,,,,,,,,4,,,46,0
141228,note_on,48,0,1,,,,,,,,,0,,,77,0
141240,note_on,12,0,1,,,,,,,,,0,,,68,81
141288,note_on,48,0,1,,,,,,,,,0,,,68,0
141300,note_on,12,0,1,,,,,,,,,0,,,77,81
141348,note_on,48,0,1,,,,,,,,,0,,,77,0
141360,note_on,168,0,5,,,,,,,,,4,,,46,58
141360,note_on,12,0,1,,,,,,,,,0,,,62,121
141390,note_on,30,0,1,,,,,,,,,0,,,70,121
141390,note_on,0,0,1,,,,,,,,,0,,,74,121
141390,note_on,0,0,1,,,,,,,,,0,,,65,121
141420,note_on,0,0,1,,,,,,,,,0,,,62,0
141420,note_on,0,0,1,,,,,,,,,0,,,70,0
141420,note_on,0,0,1,,,,,,,,,0,,,74,0
141420,note_on,0,0,1,,,,,,,,,0,,,77,81
141420,note_on,30,0,1,,,,,,,,,0,,,65,0
141468,note_on,48,0,1,,,,,,,,,0,,,77,0
141480,note_on,12,0,1,,,,,,,,,0,,,74,81
141528,note_on,48,0,1,,,,,,,,,0,,,74,0
141540,note_on,12,0,1,,,,,,,,,0,,,77,81
141552,note_on,192,0,5,,,,,,,,,4,,,46,0
141588,note_on,48,0,1,,,,,,,,,0,,,77,0
141600,note_on,12,0,1,,,,,,,,,0,,,68,81
141648,note_on,48,0,1,,,,,,,,,0,,,68,0
141660,note_on,12,0,1,,,,,,,,,0,,,77,81
141708,note_on,48,0,1,,,,,,,,,0,,,77,0
141720,note_on,888,0,3,,,,,,,,,2,,,63,58
141720,note_on,888,0,4,,,,,,,,,3,,,63,58
141720,note_on,168,0,5,,,,,,,,,4,,,39,58
141720,note_on,888,0,2,,,,,,,,,1,,,63,58
141720,note_on,12,0,1,,,,,,,,,0,,,55,121
141750,note_on,30,0,1,,,,,,,,,0,,,70,121
141750,note_on,0,0,1,,,,,,,,,0,,,75,121
141780,note_on,0,0,1,,,,,,,,,0,,,70,0
141780,note_on,0,0,1,,,,,,,,,0,,,55,0
141780,note_on,0,0,1,,,,,,,,,0,,,79,81
141780,note_on,30,0,1,,,,,,,,,0,,,75,0
141828,note_on,48,0,1,,,,,,,,,0,,,79,0
141840,note_on,12,0,1,,,,,,,,,0,,,75,81
141888,note_on,48,0,1,,,,,,,,,0,,,75,0
141900,note_on,12,0,1,,,,,,,,,0,,,79,81
141912,note_on,192,0,4,,,,,,,,,3,,,63,0
141912,note_on,192,0,5,,,,,,,,,4,,,39,0
141912,note_on,192,0,2,,,,,,,,,1,,,63,0
141912,note_on,192,0,3,,,,,,,,,2,,,63,0
141948,note_on,48,0,1,,,,,,,,,0,,,79,0
141960,note_on,12,0,1,,,,,,,,,0,,,70,81
142008,note_on,48,0,1,,,,,,,,,0,,,70,0
142020,note_on,12,0,1,,,,,,,,,0,,,79,81
142068,note_on,48,0,1,,,,,,,,,0,,,79,0
142080,note_on,12,0,1,,,,,,,,,0,,,55,121
142080,note_on,168,0,5,,,,,,,,,4,,,39,58
142110,note_on,0,0,1,,,,,,,,,0,,,75,121
142110,note_on,30,0,1,,,,,,,,,0,,,70,121
142140,note_on,0,0,1,,,,,,,,,0,,,55,0
142140,note_on,0,0,1,,,,,,,,,0,,,79,81
142140,note_on,0,0,1,,,,,,,,,0,,,70,0
142140,note_on,30,0,1,,,,,,,,,0,,,75,0
142188,note_on,48,0,1,,,,,,,,,0,,,79,0
142200,note_on,12,0,1,,,,,,,,,0,,,75,81
142248,note_on,48,0,1,,,,,,,,,0,,,75,0
142260,note_on,12,0,1,,,,,,,,,0,,,79,81
142272,note_on,192,0,5,,,,,,,,,4,,,39,0
142308,note_on,48,0,1,,,,,,,,,0,,,79,0
142320,note_on,12,0,1,,,,,,,,,0,,,70,81
142368,note_on,48,0,1,,,,,,,,,0,,,70,0
142380,note_on,12,0,1,,,,,,,,,0,,,79,81
142428,note_on,48,0,1,,,,,,,,,0,,,79,0
142440,note_on,12,0,1,,,,,,,,,0,,,55,121
142440,note_on,168,0,5,,,,,,,,,4,,,39,58
142470,note_on,30,0,1,,,,,,,,,0,,,70,121
142470,note_on,0,0,1,,,,,,,,,0,,,75,121
142500,note_on,30,0,1,,,,,,,,,0,,,75,0
142500,note_on,0,0,1,,,,,,,,,0,,,70,0
142500,note_on,0,0,1,,,,,,,,,0,,,55,0
142500,note_on,0,0,1,,,,,,,,,0,,,79,81
142548,note_on,48,0,1,,,,,,,,,0,,,79,0
142560,note_on,12,0,1,,,,,,,,,0,,,75,81
142608,note_on,48,0,1,,,,,,,,,0,,,75,0
142620,note_on,12,0,1,,,,,,,,,0,,,79,81
142632,note_on,192,0,5,,,,,,,,,4,,,39,0
142668,note_on,48,0,1,,,,,,,,,0,,,79,0
142680,note_on,12,0,1,,,,,,,,,0,,,70,81
142728,note_on,48,0,1,,,,,,,,,0,,,70,0
142740,note_on,12,0,1,,,,,,,,,0,,,79,81
142788,note_on,48,0,1,,,,,,,,,0,,,79,0
142800,note_on,168,0,5,,,,,,,,,4,,,41,58
142800,note_on,888,0,4,,,,,,,,,3,,,65,58
142800,note_on,888,0,3,,,,,,,,,2,,,65,58
142800,note_on,888,0,2,,,,,,,,,1,,,65,58
142800,note_on,12,0,1,,,,,,,,,0,,,69,121
142830,note_on,30,0,1,,,,,,,,,0,,,72,121
142830,note_on,0,0,1,,,,,,,,,0,,,77,121
142830,note_on,0,0,1,,,,,,,,,0,,,81,121
142860,note_on,30,0,1,,,,,,,,,0,,,81,0
142860,note_on,0,0,1,,,,,,,,,0,,,69,0
142860,note_on,0,0,1,,,,,,,,,0,,,72,0
142860,note_on,0,0,1,,,,,,,,,0,,,77,0
142860,note_on,0,0,1,,,,,,,,,0,,,84,81
142908,note_on,48,0,1,,,,,,,,,0,,,84,0
142920,note_on,12,0,1,,,,,,,,,0,,,81,81
142968,note_on,48,0,1,,,,,,,,,0,,,81,0
142980,note_on,12,0,1,,,,,,,,,0,,,84,81
142992,note_on,192,0,5,,,,,,,,,4,,,41,0
142992,note_on,192,0,4,,,,,,,,,3,,,65,0
142992,note_on,192,0,2,,,,,,,,,1,,,65,0
142992,note_on,192,0,3,,,,,,,,,2,,,65,0
143028,note_on,48,0,1,,,,,,,,,0,,,84,0
143040,note_on,12,0,1,,,,,,,,,0,,,75,81
143088,note_on,48,0,1,,,,,,,,,0,,,75,0
143100,note_on,12,0,1,,,,,,,,,0,,,84,81
143148,note_on,48,0,1,,,,,,,,,0,,,84,0
143160,note_on,168,0,5,,,,,,,,,4,,,41,58
143160,note_on,12,0,1,,,,,,,,,0,,,69,121
143190,note_on,0,0,1,,,,,,,,,0,,,81,121
143190,note_on,0,0,1,,,,,,,,,0,,,77,121
143190,note_on,30,0,1,,,,,,,,,0,,,72,121
143220,note_on,0,0,1,,,,,,,,,0,,,84,81
143220,note_on,0,0,1,,,,,,,,,0,,,72,0
143220,note_on,0,0,1,,,,,,,,,0,,,69,0
143220,note_on,30,0,1,,,,,,,,,0,,,81,0
143220,note_on,0,0,1,,,,,,,,,0,,,77,0
143268,note_on,48,0,1,,,,,,,,,0,,,84,0
143280,note_on,12,0,1,,,,,,,,,0,,,81,81
143328,note_on,48,0,1,,,,,,,,,0,,,81,0
143340,note_on,12,0,1,,,,,,,,,0,,,84,81
143352,note_on,192,0,5,,,,,,,,,4,,,41,0
143388,note_on,48,0,1,,,,,,,,,0,,,84,0
143400,note_on,12,0,1,,,,,,,,,0,,,75,81
143448,note_on,48,0,1,,,,,,,,,0,,,75,0
143460,note_on,12,0,1,,,,,,,,,0,,,84,81
143508,note_on,48,0,1,,,,,,,,,0,,,84,0
143520,note_on,168,0,5,,,,,,,,,4,,,41,58
143520,note_on,12,0,1,,,,,,,,,0,,,69,121
143550,note_on,0,0,1,,,,,,,,,0,,,77,121
143550,note_on,0,0,1,,,,,,,,,0,,,81,121
143550,note_on,30,0,1,,,,,,,,,0,,,72,121
143580,note_on,30,0,1,,,,,,,,,0,,,81,0
143580,note_on,0,0,1,,,,,,,,,0,,,69,0
143580,note_on,0,0,1,,,,,,,,,0,,,77,0
143580,note_on,0,0,1,,,,,,,,,0,,,84,81
143580,note_on,0,0,1,,,,,,,,,0,,,72,0
143628,note_on,48,0,1,,,,,,,,,0,,,84,0
143640,note_on,12,0,1,,,,,,,,,0,,,81,81
143688,note_on,48,0,1,,,,,,,,,0,,,81,0
143700,note_on,12,0,1,,,,,,,,,0,,,84,81
143712,note_on,192,0,5,,,,,,,,,4,,,41,0
143748,note_on,48,0,1,,,,,,,,,0,,,84,0
143760,note_on,12,0,1,,,,,,,,,0,,,75,81
143808,note_on,48,0,1,,,,,,,,,0,,,75,0
143820,note_on,12,0,1,,,,,,,,,0,,,84,81
143868,note_on,48,0,1,,,,,,,,,0,,,84,0
143880,note_on,168,0,5,,,,,,,,,4,,,46,58
143880,note_on,12,0,1,,,,,,,,,0,,,74,101
143928,note_on,48,0,1,,,,,,,,,0,,,74,0
143940,note_on,12,0,1,,,,,,,,,0,,,77,81
143988,note_on,48,0,1,,,,,,,,,0,,,77,0
144000,note_on,12,0,1,,,,,,,,,0,,,75,81
144048,note_on,48,0,1,,,,,,,,,0,,,75,0
144060,note_on,12,0,1,,,,,,,,,0,,,74,81
144072,note_on,192,0,5,,,,,,,,,4,,,46,0
144108,note_on,48,0,1,,,,,,,,,0,,,74,0
144120,note_on,48,0,5,,,,,,,,,4,,,50,58
144120,note_on,12,0,1,,,,,,,,,0,,,75,81
144168,note_on,48,0,1,,,,,,,,,0,,,75,0
144180,note_on,12,0,1,,,,,,,,,0,,,77,81
144216,note_on,96,0,5,,,,,,,,,4,,,50,0
144228,note_on,48,0,1,,,,,,,,,0,,,77,0
144240,note_on,24,0,5,,,,,,,,,4,,,51,58
144240,note_on,12,0,1,,,,,,,,,0,,,79,101
144288,note_on,48,0,1,,,,,,,,,0,,,79,0
144300,note_on,12,0,1,,,,,,,,,0,,,81,81
144348,note_on,48,0,1,,,,,,,,,0,,,81,0
144360,note_on,12,0,1,,,,,,,,,0,,,82,81
144408,note_on,48,0,1,,,,,,,,,0,,,82,0
144420,note_on,12,0,1,,,,,,,,,0,,,84,81
144432,note_on,192,0,5,,,,,,,,,4,,,51,0
144468,note_on,48,0,1,,,,,,,,,0,,,84,0
144480,note_on,12,0,1,,,,,,,,,0,,,86,81
144480,note_on,48,0,5,,,,,,,,,4,,,46,58
144576,note_on,96,0,5,,,,,,,,,4,,,46,0
144576,note_on,96,0,1,,,,,,,,,0,,,86,0
144600,note_on,24,0,5,,,,,,,,,4,,,50,78
144600,note_on,24,0,1,,,,,,,,,0,,,82,101
144696,note_on,96,0,5,,,,,,,,,4,,,50,0
144696,note_on,96,0,1,,,,,,,,,0,,,82,0
144720,note_on,24,0,5,,,,,,,,,4,,,51,58
144720,note_on,24,0,1,,,,,,,,,0,,,84,81
144816,note_on,96,0,1,,,,,,,,,0,,,84,0
144816,note_on,96,0,5,,,,,,,,,4,,,51,0
144840,note_on,24,0,1,,,,,,,,,0,,,81,81
144840,note_on,24,0,5,,,,,,,,,4,,,53,58
144936,note_on,96,0,1,,,,,,,,,0,,,81,0
144936,note_on,96,0,5,,,,,,,,,4,,,53,0
144960,note_on,24,0,5,,,,,,,,,4,,,46,58
144960,note_on,24,0,1,,,,,,,,,0,,,82,101
145008,note_on,48,0,1,,,,,,,,,0,,,82,0
145020,note_on,12,0,1,,,,,,,,,0,,,79,81
145068,note_on,48,0,1,,,,,,,,,0,,,79,0
145080,note_on,12,0,1,,,,,,,,,0,,,77,81
145128,note_on,48,0,1,,,,,,,,,0,,,77,0
145140,note_on,12,0,1,,,,,,,,,0,,,75,81
145152,note_on,192,0,5,,,,,,,,,4,,,46,0
145188,note_on,48,0,1,,,,,,,,,0,,,75,0
145200,note_on,12,0,1,,,,,,,,,0,,,74,81
145248,note_on,48,0,1,,,,,,,,,0,,,74,0
145260,note_on,12,0,1,,,,,,,,,0,,,72,81
145308,note_on,48,0,1,,,,,,,,,0,,,72,0
145320,note_on,12,0,1,,,,,,,,,0,,,70,101
145368,note_on,48,0,1,,,,,,,,,0,,,70,0
145380,note_on,12,0,1,,,,,,,,,0,,,67,81
145428,note_on,48,0,1,,,,,,,,,0,,,67,0
145440,note_on,12,0,1,,,,,,,,,0,,,65,81
145488,note_on,48,0,1,,,,,,,,,0,,,65,0
145500,note_on,12,0,1,,,,,,,,,0,,,63,81
145548,note_on,48,0,1,,,,,,,,,0,,,63,0
145560,note_on,12,0,1,,,,,,,,,0,,,62,81
145608,note_on,48,0,1,,,,,,,,,0,,,62,0
145620,note_on,12,0,1,,,,,,,,,0,,,60,81
145668,note_on,48,0,1,,,,,,,,,0,,,60,0
145680,note_on,2688,0,4,,,,,,,,,3,,,58,78
145680,note_on,2688,0,2,,,,,,,,,1,,,58,78
145680,note_on,12,0,1,,,,,,,,,0,,,58,101
145680,note_on,2688,0,3,,,,,,,,,2,,,58,78
145680,note_on,528,0,5,,,,,,,,,4,,,46,78
145776,note_on,96,0,5,,,,,,,,,4,,,46,0
145776,note_on,96,0,4,,,,,,,,,3,,,58,0
145776,note_on,96,0,2,,,,,,,,,1,,,58,0
145776,note_on,96,0,1,,,,,,,,,0,,,58,0
145776,note_on,96,0,3,,,,,,,,,2,,,58,0
145800,note_on,24,0,2,,,,,,,,,1,,,70,58
145800,note_on,24,0,1,,,,,,,,,0,,,70,81
145800,note_on,24,0,5,,,,,,,,,4,,,56,58
145800,note_on,24,0,3,,,,,,,,,2,,,70,58
145800,note_on,24,0,4,,,,,,,,,3,,,70,58
145896,note_on,96,0,5,,,,,,,,,4,,,56,0
145896,note_on,96,0,3,,,,,,,,,2,,,70,0
145896,note_on,96,0,2,,,,,,,,,1,,,70,0
145896,note_on,96,0,4,,,,,,,,,3,,,70,0
145896,note_on,96,0,1,,,,,,,,,0,,,70,0
145920,note_on,24,0,4,,,,,,,,,3,,,58,58
145920,note_on,24,0,5,,,,,,,,,4,,,46,58
145920,note_on,24,0,2,,,,,,,,,1,,,58,58
145920,note_on,24,0,1,,,,,,,,,0,,,58,81
145920,note_on,24,0,3,,,,,,,,,2,,,58,58
146016,note_on,96,0,4,,,,,,,,,3,,,58,0
146016,note_on,96,0,2,,,,,,,,,1,,,58,0
146016,note_on,96,0,1,,,,,,,,,0,,,58,0
146016,note_on,96,0,5,,,,,,,,,4,,,46,0
146016,note_on,96,0,3,,,,,,,,,2,,,58,0
146040,note_on,24,0,4,,,,,,,,,3,,,58,78
146040,note_on,24,0,5,,,,,,,,,4,,,46,78
146040,note_on,24,0,3,,,,,,,,,2,,,58,78
146040,note_on,24,0,2,,,,,,,,,1,,,58,78
146040,note_on,24,0,1,,,,,,,,,0,,,58,101
146136,note_on,96,0,4,,,,,,,,,3,,,58,0
146136,note_on,96,0,2,,,,,,,,,1,,,58,0
146136,note_on,96,0,1,,,,,,,,,0,,,58,0
146136,note_on,96,0,5,,,,,,,,,4,,,46,0
146136,note_on,96,0,3,,,,,,,,,2,,,58,0
146160,note_on,24,0,2,,,,,,,,,1,,,70,58
146160,note_on,24,0,5,,,,,,,,,4,,,58,58
146160,note_on,24,0,1,,,,,,,,,0,,,70,81
146160,note_on,24,0,3,,,,,,,,,2,,,70,58
146160,note_on,24,0,4,,,,,,,,,3,,,70,58
146256,note_on,96,0,2,,,,,,,,,1,,,70,0
146256,note_on,96,0,4,,,,,,,,,3,,,70,0
146256,note_on,96,0,5,,,,,,,,,4,,,58,0
146256,note_on,96,0,3,,,,,,,,,2,,,70,0
146256,note_on,96,0,1,,,,,,,,,0,,,70,0
146280,note_on,24,0,4,,,,,,,,,3,,,58,58
146280,note_on,24,0,1,,,,,,,,,0,,,58,81
146280,note_on,24,0,2,,,,,,,,,1,,,58,58
146280,note_on,24,0,5,,,,,,,,,4,,,46,58
146280,note_on,24,0,3,,,,,,,,,2,,,58,58
146376,note_on,96,0,2,,,,,,,,,1,,,58,0
146376,note_on,96,0,1,,,,,,,,,0,,,58,0
146376,note_on,96,0,4,,,,,,,,,3,,,58,0
146376,note_on,96,0,5,,,,,,,,,4,,,46,0
146376,note_on,96,0,3,,,,,,,,,2,,,58,0
146400,note_on,24,0,2,,,,,,,,,1,,,58,58
146400,note_on,24,0,5,,,,,,,,,4,,,46,58
146400,note_on,24,0,3,,,,,,,,,2,,,58,58
146400,note_on,24,0,4,,,,,,,,,3,,,58,58
146400,note_on,24,0,1,,,,,,,,,0,,,58,81
146592,note_on,192,0,5,,,,,,,,,4,,,46,0
146592,note_on,192,0,3,,,,,,,,,2,,,58,0
146592,note_on,192,0,2,,,,,,,,,1,,,58,0
146592,note_on,192,0,1,,,,,,,,,0,,,58,0
146592,note_on,192,0,4,,,,,,,,,3,,,58,0
146760,note_on,168,0,2,,,,,,,,,1,,,77,58
146760,note_on,168,0,3,,,,,,,,,2,,,77,78
146760,note_on,168,0,1,,,,,,,,,0,,,77,101
146808,note_on,48,0,2,,,,,,,,,1,,,77,0
146808,note_on,48,0,3,,,,,,,,,2,,,77,0
146808,note_on,48,0,1,,,,,,,,,0,,,77,0
146820,note_on,12,0,2,,,,,,,,,1,,,75,58
146820,note_on,12,0,3,,,,,,,,,2,,,75,58
146820,note_on,12,0,1,,,,,,,,,0,,,75,81
146868,note_on,48,0,2,,,,,,,,,1,,,75,0
146868,note_on,48,0,3,,,,,,,,,2,,,75,0
146868,note_on,48,0,1,,,,,,,,,0,,,75,0
146880,note_on,12,0,3,,,,,,,,,2,,,74,58
146880,note_on,12,0,1,,,,,,,,,0,,,74,81
146880,note_on,12,0,2,,,,,,,,,1,,,74,58
146928,note_on,48,0,1,,,,,,,,,0,,,74,0
146928,note_on,48,0,3,,,,,,,,,2,,,74,0
146928,note_on,48,0,2,,,,,,,,,1,,,74,0
146940,note_on,12,0,1,,,,,,,,,0,,,72,81
146940,note_on,12,0,3,,,,,,,,,2,,,72,58
146940,note_on,12,0,2,,,,,,,,,1,,,72,58
146988,note_on,48,0,2,,,,,,,,,1,,,72,0
146988,note_on,48,0,1,,,,,,,,,0,,,72,0
146988,note_on,48,0,3,,,,,,,,,2,,,72,0
147000,note_on,12,0,3,,,,,,,,,2,,,70,58
147000,note_on,12,0,1,,,,,,,,,0,,,70,81
147000,note_on,12,0,2,,,,,,,,,1,,,70,58
147048,note_on,48,0,1,,,,,,,,,0,,,70,0
147048,note_on,48,0,2,,,,,,,,,1,,,70,0
147048,note_on,48,0,3,,,,,,,,,2,,,70,0
147060,note_on,12,0,3,,,,,,,,,2,,,69,58
147060,note_on,12,0,1,,,,,,,,,0,,,69,81
147060,note_on,12,0,2,,,,,,,,,1,,,69,58
147108,note_on,48,0,3,,,,,,,,,2,,,69,0
147108,note_on,48,0,2,,,,,,,,,1,,,69,0
147108,note_on,48,0,1,,,,,,,,,0,,,69,0
147120,note_on,12,0,2,,,,,,,,,1,,,67,78
147120,note_on,12,0,3,,,,,,,,,2,,,67,78
147120,note_on,12,0,1,,,,,,,,,0,,,67,101
147168,note_on,48,0,2,,,,,,,,,1,,,67,0
147168,note_on,48,0,1,,,,,,,,,0,,,67,0
147168,note_on,48,0,3,,,,,,,,,2,,,67,0
147180,note_on,12,0,2,,,,,,,,,1,,,65,58
147180,note_on,12,0,3,,,,,,,,,2,,,65,58
147180,note_on,12,0,1,,,,,,,,,0,,,65,81
147228,note_on,48,0,1,,,,,,,,,0,,,65,0
147228,note_on,48,0,3,,,,,,,,,2,,,65,0
147228,note_on,48,0,2,,,,,,,,,1,,,65,0
147240,note_on,12,0,3,,,,,,,,,2,,,63,58
147240,note_on,12,0,1,,,,,,,,,0,,,63,81
147240,note_on,12,0,2,,,,,,,,,1,,,63,58
147288,note_on,48,0,3,,,,,,,,,2,,,63,0
147288,note_on,48,0,1,,,,,,,,,0,,,63,0
147288,note_on,48,0,2,,,,,,,,,1,,,63,0
147300,note_on,12,0,1,,,,,,,,,0,,,62,81
147300,note_on,12,0,3,,,,,,,,,2,,,62,58
147300,note_on,12,0,2,,,,,,,,,1,,,62,58
147348,note_on,48,0,2,,,,,,,,,1,,,62,0
147348,note_on,48,0,3,,,,,,,,,2,,,62,0
147348,note_on,48,0,1,,,,,,,,,0,,,62,0
147360,note_on,12,0,3,,,,,,,,,2,,,60,58
147360,note_on,12,0,2,,,,,,,,,1,,,60,58
147360,note_on,12,0,1,,,,,,,,,0,,,60,81
147408,note_on,48,0,3,,,,,,,,,2,,,60,0
147408,note_on,48,0,2,,,,,,,,,1,,,60,0
147408,note_on,48,0,1,,,,,,,,,0,,,60,0
147420,note_on,12,0,1,,,,,,,,,0,,,58,81
147420,note_on,12,0,3,,,,,,,,,2,,,58,58
147420,note_on,12,0,2,,,,,,,,,1,,,58,58
147468,note_on,48,0,2,,,,,,,,,1,,,58,0
147468,note_on,48,0,3,,,,,,,,,2,,,58,0
147468,note_on,48,0,1,,,,,,,,,0,,,58,0
147480,note_on,888,0,4,,,,,,,,,3,,,57,78
147480,note_on,888,0,5,,,,,,,,,4,,,45,78
147480,note_on,12,0,2,,,,,,,,,1,,,57,78
147480,note_on,12,0,3,,,,,,,,,2,,,57,58
147480,note_on,12,0,1,,,,,,,,,0,,,57,81
147576,note_on,96,0,5,,,,,,,,,4,,,45,0
147576,note_on,96,0,3,,,,,,,,,2,,,57,0
147576,note_on,96,0,4,,,,,,,,,3,,,57,0
147576,note_on,96,0,2,,,,,,,,,1,,,57,0
147576,note_on,96,0,1,,,,,,,,,0,,,57,0
147600,note_on,24,0,5,,,,,,,,,4,,,57,58
147600,note_on,24,0,4,,,,,,,,,3,,,69,58
147600,note_on,24,0,2,,,,,,,,,1,,,69,58
147600,note_on,24,0,3,,,,,,,,,2,,,69,58
147600,note_on,24,0,1,,,,,,,,,0,,,69,81
147696,note_on,96,0,4,,,,,,,,,3,,,69,0
147696,note_on,96,0,2,,,,,,,,,1,,,69,0
147696,note_on,96,0,1,,,,,,,,,0,,,69,0
147696,note_on,96,0,5,,,,,,,,,4,,,57,0
147696,note_on,96,0,3,,,,,,,,,2,,,69,0
147720,note_on,24,0,4,,,,,,,,,3,,,57,58
147720,note_on,24,0,2,,,,,,,,,1,,,57,58
147720,note_on,24,0,1,,,,,,,,,0,,,57,81
147720,note_on,24,0,5,,,,,,,,,4,,,45,58
147720,note_on,24,0,3,,,,,,,,,2,,,57,58
147816,note_on,96,0,1,,,,,,,,,0,,,57,0
147816,note_on,96,0,3,,,,,,,,,2,,,57,0
147816,note_on,96,0,5,,,,,,,,,4,,,45,0
147816,note_on,96,0,2,,,,,,,,,1,,,57,0
147816,note_on,96,0,4,,,,,,,,,3,,,57,0
147840,note_on,24,0,3,,,,,,,,,2,,,57,78
147840,note_on,24,0,1,,,,,,,,,0,,,57,101
147840,note_on,24,0,4,,,,,,,,,3,,,57,78
147840,note_on,24,0,5,,,,,,,,,4,,,45,78
147840,note_on,24,0,2,,,,,,,,,1,,,57,78
147936,note_on,96,0,1,,,,,,,,,0,,,57,0
147936,note_on,96,0,3,,,,,,,,,2,,,57,0
147936,note_on,96,0,4,,,,,,,,,3,,,57,0
147936,note_on,96,0,5,,,,,,,,,4,,,45,0
147936,note_on,96,0,2,,,,,,,,,1,,,57,0
147960,note_on,24,0,2,,,,,,,,,1,,,69,58
147960,note_on,24,0,3,,,,,,,,,2,,,69,58
147960,note_on,24,0,4,,,,,,,,,3,,,69,58
147960,note_on,24,0,5,,,,,,,,,4,,,57,58
147960,note_on,24,0,1,,,,,,,,,0,,,69,81
148056,note_on,96,0,2,,,,,,,,,1,,,69,0
148056,note_on,96,0,3,,,,,,,,,2,,,69,0
148056,note_on,96,0,4,,,,,,,,,3,,,69,0
148056,note_on,96,0,5,,,,,,,,,4,,,57,0
148056,note_on,96,0,1,,,,,,,,,0,,,69,0
148080,note_on,24,0,2,,,,,,,,,1,,,57,58
148080,note_on,24,0,4,,,,,,,,,3,,,57,58
148080,note_on,24,0,1,,,,,,,,,0,,,57,81
148080,note_on,24,0,3,,,,,,,,,2,,,57,58
148080,note_on,24,0,5,,,,,,,,,4,,,45,58
148176,note_on,96,0,1,,,,,,,,,0,,,57,0
148176,note_on,96,0,3,,,,,,,,,2,,,57,0
148176,note_on,96,0,5,,,,,,,,,4,,,45,0
148176,note_on,96,0,4,,,,,,,,,3,,,57,0
148176,note_on,96,0,2,,,,,,,,,1,,,57,0
148200,note_on,24,0,3,,,,,,,,,2,,,57,58
148200,note_on,24,0,5,,,,,,,,,4,,,45,58
148200,note_on,24,0,4,,,,,,,,,3,,,57,58
148200,note_on,24,0,1,,,,,,,,,0,,,57,81
148200,note_on,24,0,2,,,,,,,,,1,,,57,58
148392,note_on,192,0,3,,,,,,,,,2,,,57,0
148392,note_on,192,0,4,,,,,,,,,3,,,57,0
148392,note_on,192,0,2,,,,,,,,,1,,,57,0
148392,note_on,192,0,5,,,,,,,,,4,,,45,0
148392,note_on,192,0,1,,,,,,,,,0,,,57,0
148560,note_on,168,0,1,,,,,,,,,0,,,79,101
148560,note_on,168,0,2,,,,,,,,,1,,,79,78
148560,note_on,168,0,3,,,,,,,,,2,,,79,78
148608,note_on,48,0,3,,,,,,,,,2,,,79,0
148608,note_on,48,0,1,,,,,,,,,0,,,79,0
148608,note_on,48,0,2,,,,,,,,,1,,,79,0
148620,note_on,12,0,1,,,,,,,,,0,,,77,81
148620,note_on,12,0,2,,,,,,,,,1,,,77,58
148620,note_on,12,0,3,,,,,,,,,2,,,77,58
148668,note_on,48,0,3,,,,,,,,,2,,,77,0
148668,note_on,48,0,1,,,,,,,,,0,,,77,0
148668,note_on,48,0,2,,,,,,,,,1,,,77,0
148680,note_on,12,0,3,,,,,,,,,2,,,75,58
148680,note_on,12,0,1,,,,,,,,,0,,,75,81
148680,note_on,12,0,2,,,,,,,,,1,,,75,58
148728,note_on,48,0,3,,,,,,,,,2,,,75,0
148728,note_on,48,0,1,,,,,,,,,0,,,75,0
148728,note_on,48,0,2,,,,,,,,,1,,,75,0
148740,note_on,12,0,3,,,,,,,,,2,,,74,58
148740,note_on,12,0,1,,,,,,,,,0,,,74,81
148740,note_on,12,0,2,,,,,,,,,1,,,74,58
148788,note_on,48,0,1,,,,,,,,,0,,,74,0
148788,note_on,48,0,2,,,,,,,,,1,,,74,0
148788,note_on,48,0,3,,,,,,,,,2,,,74,0
148800,note_on,12,0,1,,,,,,,,,0,,,72,81
148800,note_on,12,0,2,,,,,,,,,1,,,72,58
148800,note_on,12,0,3,,,,,,,,,2,,,72,58
148848,note_on,48,0,1,,,,,,,,,0,,,72,0
148848,note_on,48,0,2,,,,,,,,,1,,,72,0
148848,note_on,48,0,3,,,,,,,,,2,,,72,0
148860,note_on,12,0,1,,,,,,,,,0,,,70,81
148860,note_on,12,0,2,,,,,,,,,1,,,70,58
148860,note_on,12,0,3,,,,,,,,,2,,,70,58
148908,note_on,48,0,2,,,,,,,,,1,,,70,0
148908,note_on,48,0,1,,,,,,,,,0,,,70,0
148908,note_on,48,0,3,,,,,,,,,2,,,70,0
148920,note_on,12,0,3,,,,,,,,,2,,,69,78
148920,note_on,12,0,2,,,,,,,,,1,,,69,78
148920,note_on,12,0,1,,,,,,,,,0,,,69,101
148968,note_on,48,0,3,,,,,,,,,2,,,69,0
148968,note_on,48,0,2,,,,,,,,,1,,,69,0
148968,note_on,48,0,1,,,,,,,,,0,,,69,0
148980,note_on,12,0,3,,,,,,,,,2,,,67,58
148980,note_on,12,0,2,,,,,,,,,1,,,67,58
148980,note_on,12,0,1,,,,,,,,,0,,,67,81
149028,note_on,48,0,3,,,,,,,,,2,,,67,0
149028,note_on,48,0,1,,,,,,,,,0,,,67,0
149028,note_on,48,0,2,,,,,,,,,1,,,67,0
149040,note_on,12,0,2,,,,,,,,,1,,,65,58
149040,note_on,12,0,1,,,,,,,,,0,,,65,81
149040,note_on,12,0,3,,,,,,,,,2,,,65,58
149088,note_on,48,0,1,,,,,,,,,0,,,65,0
149088,note_on,48,0,2,,,,,,,,,1,,,65,0
149088,note_on,48,0,3,,,,,,,,,2,,,65,0
149100,note_on,12,0,2,,,,,,,,,1,,,63,58
149100,note_on,12,0,1,,,,,,,,,0,,,63,81
149100,note_on,12,0,3,,,,,,,,,2,,,63,58
149148,note_on,48,0,1,,,,,,,,,0,,,63,0
149148,note_on,48,0,3,,,,,,,,,2,,,63,0
149148,note_on,48,0,2,,,,,,,,,1,,,63,0
149160,note_on,12,0,1,,,,,,,,,0,,,62,81
149160,note_on,12,0,3,,,,,,,,,2,,,62,58
149160,note_on,12,0,2,,,,,,,,,1,,,62,58
149208,note_on,48,0,3,,,,,,,,,2,,,62,0
149208,note_on,48,0,2,,,,,,,,,1,,,62,0
149208,note_on,48,0,1,,,,,,,,,0,,,62,0
149220,note_on,12,0,2,,,,,,,,,1,,,60,58
149220,note_on,12,0,1,,,,,,,,,0,,,60,81
149220,note_on,12,0,3,,,,,,,,,2,,,60,58
149268,note_on,48,0,3,,,,,,,,,2,,,60,0
149268,note_on,48,0,1,,,,,,,,,0,,,60,0
149268,note_on,48,0,2,,,,,,,,,1,,,60,0
149280,note_on,12,0,2,,,,,,,,,1,,,58,78
149280,note_on,12,0,1,,,,,,,,,0,,,58,101
149280,note_on,12,0,3,,,,,,,,,2,,,58,78
149376,note_on,96,0,2,,,,,,,,,1,,,58,0
149376,note_on,96,0,3,,,,,,,,,2,,,58,0
149376,note_on,96,0,1,,,,,,,,,0,,,58,0
149400,note_on,24,0,3,,,,,,,,,2,,,70,58
149400,note_on,24,0,1,,,,,,,,,0,,,70,81
149400,note_on,24,0,2,,,,,,,,,1,,,70,58
149496,note_on,96,0,3,,,,,,,,,2,,,70,0
149496,note_on,96,0,1,,,,,,,,,0,,,70,0
149496,note_on,96,0,2,,,,,,,,,1,,,70,0
149520,note_on,24,0,1,,,,,,,,,0,,,58,81
149520,note_on,24,0,2,,,,,,,,,1,,,58,58
149520,note_on,24,0,3,,,,,,,,,2,,,58,58
149616,note_on,96,0,2,,,,,,,,,1,,,58,0
149616,note_on,96,0,1,,,,,,,,,0,,,58,0
149616,note_on,96,0,3,,,,,,,,,2,,,58,0
149640,note_on,24,0,2,,,,,,,,,1,,,58,78
149640,note_on,24,0,1,,,,,,,,,0,,,58,101
149640,note_on,24,0,3,,,,,,,,,2,,,58,78
149736,note_on,96,0,1,,,,,,,,,0,,,58,0
149736,note_on,96,0,3,,,,,,,,,2,,,58,0
149736,note_on,96,0,2,,,,,,,,,1,,,58,0
149760,note_on,24,0,2,,,,,,,,,1,,,70,58
149760,note_on,24,0,3,,,,,,,,,2,,,70,58
149760,note_on,24,0,1,,,,,,,,,0,,,70,81
149856,note_on,96,0,1,,,,,,,,,0,,,70,0
149856,note_on,96,0,3,,,,,,,,,2,,,70,0
149856,note_on,96,0,2,,,,,,,,,1,,,70,0
149880,note_on,24,0,2,,,,,,,,,1,,,58,58
149880,note_on,24,0,3,,,,,,,,,2,,,58,58
149880,note_on,24,0,1,,,,,,,,,0,,,58,81
149976,note_on,96,0,2,,,,,,,,,1,,,58,0
149976,note_on,96,0,3,,,,,,,,,2,,,58,0
149976,note_on,96,0,1,,,,,,,,,0,,,58,0
150000,note_on,24,0,3,,,,,,,,,2,,,58,58
150000,note_on,24,0,1,,,,,,,,,0,,,58,81
150000,note_on,24,0,2,,,,,,,,,1,,,58,58
150192,note_on,192,0,3,,,,,,,,,2,,,58,0
150192,note_on,192,0,1,,,,,,,,,0,,,58,0
150192,note_on,192,0,2,,,,,,,,,1,,,58,0
150360,note_on,1968,0,4,,,,,,,,,3,,,57,78
150360,note_on,168,0,1,,,,,,,,,0,,,65,101
150360,note_on,168,0,3,,,,,,,,,2,,,60,78
150360,note_on,1968,0,5,,,,,,,,,4,,,41,78
150360,note_on,168,0,2,,,,,,,,,1,,,65,78
150456,note_on,96,0,5,,,,,,,,,4,,,41,0
150456,note_on,96,0,2,,,,,,,,,1,,,65,0
150456,note_on,96,0,3,,,,,,,,,2,,,60,0
150456,note_on,96,0,1,,,,,,,,,0,,,65,0
150456,note_on,96,0,4,,,,,,,,,3,,,57,0
150480,note_on,24,0,2,,,,,,,,,1,,,65,58
150480,note_on,24,0,5,,,,,,,,,4,,,41,58
150480,note_on,24,0,3,,,,,,,,,2,,,60,58
150480,note_on,24,0,1,,,,,,,,,0,,,65,81
150480,note_on,24,0,4,,,,,,,,,3,,,57,58
150576,note_on,96,0,2,,,,,,,,,1,,,65,0
150576,note_on,96,0,1,,,,,,,,,0,,,65,0
150576,note_on,96,0,5,,,,,,,,,4,,,41,0
150576,note_on,96,0,3,,,,,,,,,2,,,60,0
150576,note_on,96,0,4,,,,,,,,,3,,,57,0
150600,note_on,24,0,5,,,,,,,,,4,,,41,58
150600,note_on,24,0,1,,,,,,,,,0,,,65,81
150600,note_on,24,0,4,,,,,,,,,3,,,57,58
150600,note_on,24,0,2,,,,,,,,,1,,,65,58
150600,note_on,24,0,3,,,,,,,,,2,,,60,58
150696,note_on,96,0,4,,,,,,,,,3,,,57,0
150696,note_on,96,0,2,,,,,,,,,1,,,65,0
150696,note_on,96,0,3,,,,,,,,,2,,,60,0
150696,note_on,96,0,5,,,,,,,,,4,,,41,0
150696,note_on,96,0,1,,,,,,,,,0,,,65,0
150720,note_on,24,0,5,,,,,,,,,4,,,41,58
150720,note_on,24,0,4,,,,,,,,,3,,,57,58
150720,note_on,24,0,1,,,,,,,,,0,,,65,101
150720,note_on,24,0,2,,,,,,,,,1,,,65,78
150720,note_on,24,0,3,,,,,,,,,2,,,60,58
150768,note_on,48,0,1,,,,,,,,,0,,,65,0
150768,note_on,48,0,2,,,,,,,,,1,,,65,0
150780,note_on,12,0,1,,,,,,,,,0,,,67,81
150780,note_on,12,0,2,,,,,,,,,1,,,67,58
150840,note_on,60,0,1,,,,,,,,,0,,,67,0
150840,note_on,0,0,1,,,,,,,,,0,,,69,81
150840,note_on,0,0,2,,,,,,,,,1,,,69,58
150840,note_on,60,0,2,,,,,,,,,1,,,67,0
150900,note_on,0,0,2,,,,,,,,,1,,,70,58
150900,note_on,60,0,1,,,,,,,,,0,,,69,0
150900,note_on,0,0,1,,,,,,,,,0,,,70,81
150900,note_on,60,0,2,,,,,,,,,1,,,69,0
150912,note_on,192,0,5,,,,,,,,,4,,,41,0
150912,note_on,192,0,4,,,,,,,,,3,,,57,0
150912,note_on,192,0,3,,,,,,,,,2,,,60,0
150960,note_on,60,0,2,,,,,,,,,1,,,70,0
150960,note_on,0,0,1,,,,,,,,,0,,,72,81
150960,note_on,60,0,1,,,,,,,,,0,,,70,0
150960,note_on,0,0,2,,,,,,,,,1,,,72,58
151080,note_on,168,0,4,,,,,,,,,3,,,57,78
151080,note_on,168,0,3,,,,,,,,,2,,,60,78
151080,note_on,120,0,2,,,,,,,,,1,,,72,0
151080,note_on,0,0,2,,,,,,,,,1,,,65,78
151080,note_on,168,0,5,,,,,,,,,4,,,41,78
151080,note_on,120,0,1,,,,,,,,,0,,,72,0
151080,note_on,0,0,1,,,,,,,,,0,,,65,101
151176,note_on,96,0,5,,,,,,,,,4,,,41,0
151176,note_on,96,0,2,,,,,,,,,1,,,65,0
151176,note_on,96,0,3,,,,,,,,,2,,,60,0
151176,note_on,96,0,4,,,,,,,,,3,,,57,0
151176,note_on,96,0,1,,,,,,,,,0,,,65,0
151200,note_on,24,0,2,,,,,,,,,1,,,65,58
151200,note_on,24,0,3,,,,,,,,,2,,,60,58
151200,note_on,24,0,4,,,,,,,,,3,,,57,58
151200,note_on,24,0,1,,,,,,,,,0,,,65,81
151200,note_on,24,0,5,,,,,,,,,4,,,41,58
151296,note_on,96,0,4,,,,,,,,,3,,,57,0
151296,note_on,96,0,3,,,,,,,,,2,,,60,0
151296,note_on,96,0,5,,,,,,,,,4,,,41,0
151296,note_on,96,0,1,,,,,,,,,0,,,65,0
151296,note_on,96,0,2,,,,,,,,,1,,,65,0
151320,note_on,24,0,2,,,,,,,,,1,,,65,58
151320,note_on,24,0,1,,,,,,,,,0,,,65,81
151320,note_on,24,0,4,,,,,,,,,3,,,57,58
151320,note_on,24,0,3,,,,,,,,,2,,,60,58
151320,note_on,24,0,5,,,,,,,,,4,,,41,58
151416,note_on,96,0,2,,,,,,,,,1,,,65,0
151416,note_on,96,0,1,,,,,,,,,0,,,65,0
151416,note_on,96,0,5,,,,,,,,,4,,,41,0
151416,note_on,96,0,3,,,,,,,,,2,,,60,0
151416,note_on,96,0,4,,,,,,,,,3,,,57,0
151440,note_on,24,0,3,,,,,,,,,2,,,60,58
151440,note_on,24,0,1,,,,,,,,,0,,,65,101
151440,note_on,24,0,2,,,,,,,,,1,,,65,58
151440,note_on,24,0,4,,,,,,,,,3,,,57,58
151440,note_on,24,0,5,,,,,,,,,4,,,41,58
151488,note_on,48,0,1,,,,,,,,,0,,,65,0
151500,note_on,0,0,2,,,,,,,,,1,,,67,58
151500,note_on,60,0,2,,,,,,,,,1,,,65,0
151500,note_on,12,0,1,,,,,,,,,0,,,67,81
151560,note_on,0,0,2,,,,,,,,,1,,,69,58
151560,note_on,60,0,2,,,,,,,,,1,,,67,0
151560,note_on,0,0,1,,,,,,,,,0,,,69,81
151560,note_on,60,0,1,,,,,,,,,0,,,67,0
151620,note_on,0,0,2,,,,,,,,,1,,,70,58
151620,note_on,60,0,2,,,,,,,,,1,,,69,0
151620,note_on,0,0,1,,,,,,,,,0,,,70,81
151620,note_on,60,0,1,,,,,,,,,0,,,69,0
151632,note_on,192,0,4,,,,,,,,,3,,,57,0
151632,note_on,192,0,5,,,,,,,,,4,,,41,0
151632,note_on,192,0,3,,,,,,,,,2,,,60,0
151680,note_on,60,0,1,,,,,,,,,0,,,70,0
151680,note_on,0,0,1,,,,,,,,,0,,,72,81
151680,note_on,60,0,2,,,,,,,,,1,,,70,0
151680,note_on,0,0,2,,,,,,,,,1,,,72,58
151740,note_on,60,0,1,,,,,,,,,0,,,72,0
151740,note_on,0,0,1,,,,,,,,,0,,,74,81
151740,note_on,0,0,2,,,,,,,,,1,,,74,58
151740,note_on,60,0,2,,,,,,,,,1,,,72,0
151800,note_on,0,0,2,,,,,,,,,1,,,65,78
151800,note_on,60,0,2,,,,,,,,,1,,,74,0
151800,note_on,168,0,4,,,,,,,,,3,,,57,78
151800,note_on,0,0,1,,,,,,,,,0,,,65,101
151800,note_on,60,0,1,,,,,,,,,0,,,74,0
151800,note_on,168,0,5,,,,,,,,,4,,,41,78
151800,note_on,168,0,3,,,,,,,,,2,,,60,78
151896,note_on,96,0,2,,,,,,,,,1,,,65,0
151896,note_on,96,0,4,,,,,,,,,3,,,57,0
151896,note_on,96,0,3,,,,,,,,,2,,,60,0
151896,note_on,96,0,1,,,,,,,,,0,,,65,0
151896,note_on,96,0,5,,,,,,,,,4,,,41,0
151920,note_on,24,0,2,,,,,,,,,1,,,65,58
151920,note_on,24,0,5,,,,,,,,,4,,,41,58
151920,note_on,24,0,1,,,,,,,,,0,,,65,81
151920,note_on,24,0,3,,,,,,,,,2,,,60,58
151920,note_on,24,0,4,,,,,,,,,3,,,57,58
152016,note_on,96,0,3,,,,,,,,,2,,,60,0
152016,note_on,96,0,1,,,,,,,,,0,,,65,0
152016,note_on,96,0,2,,,,,,,,,1,,,65,0
152016,note_on,96,0,4,,,,,,,,,3,,,57,0
152016,note_on,96,0,5,,,,,,,,,4,,,41,0
152040,note_on,24,0,3,,,,,,,,,2,,,60,58
152040,note_on,24,0,2,,,,,,,,,1,,,65,58
152040,note_on,24,0,5,,,,,,,,,4,,,41,58
152040,note_on,24,0,4,,,,,,,,,3,,,57,58
152040,note_on,24,0,1,,,,,,,,,0,,,65,81
152136,note_on,96,0,3,,,,,,,,,2,,,60,0
152136,note_on,96,0,5,,,,,,,,,4,,,41,0
152136,note_on,96,0,2,,,,,,,,,1,,,65,0
152136,note_on,96,0,1,,,,,,,,,0,,,65,0
152136,note_on,96,0,4,,,,,,,,,3,,,57,0
152160,note_on,24,0,1,,,,,,,,,0,,,65,101
152160,note_on,24,0,5,,,,,,,,,4,,,41,58
152160,note_on,24,0,4,,,,,,,,,3,,,57,58
152160,note_on,24,0,3,,,,,,,,,2,,,60,58
152160,note_on,24,0,2,,,,,,,,,1,,,65,78
152208,note_on,48,0,2,,,,,,,,,1,,,65,0
152208,note_on,48,0,1,,,,,,,,,0,,,65,0
152220,note_on,12,0,2,,,,,,,,,1,,,67,58
152220,note_on,12,0,1,,,,,,,,,0,,,67,81
152280,note_on,0,0,1,,,,,,,,,0,,,69,81
152280,note_on,60,0,2,,,,,,,,,1,,,67,0
152280,note_on,0,0,2,,,,,,,,,1,,,69,58
152280,note_on,60,0,1,,,,,,,,,0,,,67,0
152340,note_on,60,0,2,,,,,,,,,1,,,69,0
152340,note_on,0,0,2,,,,,,,,,1,,,70,58
152340,note_on,60,0,1,,,,,,,,,0,,,69,0
152340,note_on,0,0,1,,,,,,,,,0,,,70,81
152352,note_on,192,0,5,,,,,,,,,4,,,41,0
152352,note_on,192,0,3,,,,,,,,,2,,,60,0
152352,note_on,192,0,4,,,,,,,,,3,,,57,0
152400,note_on,60,0,1,,,,,,,,,0,,,70,0
152400,note_on,0,0,1,,,,,,,,,0,,,72,81
152400,note_on,60,0,2,,,,,,,,,1,,,70,0
152400,note_on,0,0,2,,,,,,,,,1,,,72,58
152460,note_on,0,0,2,,,,,,,,,1,,,74,58
152460,note_on,60,0,2,,,,,,,,,1,,,72,0
152460,note_on,0,0,1,,,,,,,,,0,,,74,81
152460,note_on,60,0,1,,,,,,,,,0,,,72,0
152490,note_on,0,0,1,,,,,,,,,0,,,75,81
152490,note_on,30,0,1,,,,,,,,,0,,,74,0
152490,note_on,0,0,2,,,,,,,,,1,,,75,58
152490,note_on,30,0,2,,,,,,,,,1,,,74,0
152520,note_on,0,0,1,,,,,,,,,0,,,65,101
152520,note_on,0,0,2,,,,,,,,,1,,,65,78
152520,note_on,30,0,2,,,,,,,,,1,,,75,0
152520,note_on,168,0,3,,,,,,,,,2,,,60,78
152520,note_on,168,0,4,,,,,,,,,3,,,57,78
152520,note_on,168,0,5,,,,,,,,,4,,,41,78
152520,note_on,30,0,1,,,,,,,,,0,,,75,0
152616,note_on,96,0,1,,,,,,,,,0,,,65,0
152616,note_on,96,0,3,,,,,,,,,2,,,60,0
152616,note_on,96,0,5,,,,,,,,,4,,,41,0
152616,note_on,96,0,2,,,,,,,,,1,,,65,0
152616,note_on,96,0,4,,,,,,,,,3,,,57,0
152640,note_on,24,0,4,,,,,,,,,3,,,57,58
152640,note_on,24,0,3,,,,,,,,,2,,,60,58
152640,note_on,24,0,5,,,,,,,,,4,,,41,58
152640,note_on,24,0,2,,,,,,,,,1,,,65,58
152640,note_on,24,0,1,,,,,,,,,0,,,65,81
152736,note_on,96,0,5,,,,,,,,,4,,,41,0
152736,note_on,96,0,2,,,,,,,,,1,,,65,0
152736,note_on,96,0,3,,,,,,,,,2,,,60,0
152736,note_on,96,0,4,,,,,,,,,3,,,57,0
152736,note_on,96,0,1,,,,,,,,,0,,,65,0
152760,note_on,24,0,2,,,,,,,,,1,,,65,58
152760,note_on,24,0,3,,,,,,,,,2,,,60,58
152760,note_on,24,0,1,,,,,,,,,0,,,65,81
152760,note_on,24,0,5,,,,,,,,,4,,,41,58
152760,note_on,24,0,4,,,,,,,,,3,,,57,58
152856,note_on,96,0,3,,,,,,,,,2,,,60,0
152856,note_on,96,0,2,,,,,,,,,1,,,65,0
152856,note_on,96,0,5,,,,,,,,,4,,,41,0
152856,note_on,96,0,1,,,,,,,,,0,,,65,0
152856,note_on,96,0,4,,,,,,,,,3,,,57,0
152880,note_on,24,0,5,,,,,,,,,4,,,41,58
152880,note_on,24,0,2,,,,,,,,,1,,,65,78
152880,note_on,24,0,1,,,,,,,,,0,,,65,101
152880,note_on,24,0,3,,,,,,,,,2,,,60,58
152880,note_on,24,0,4,,,,,,,,,3,,,57,58
152928,note_on,48,0,1,,,,,,,,,0,,,65,0
152928,note_on,48,0,2,,,,,,,,,1,,,65,0
152940,note_on,12,0,1,,,,,,,,,0,,,67,81
152940,note_on,12,0,2,,,,,,,,,1,,,67,58
153000,note_on,60,0,2,,,,,,,,,1,,,67,0
153000,note_on,0,0,2,,,,,,,,,1,,,69,58
153000,note_on,0,0,1,,,,,,,,,0,,,69,81
153000,note_on,60,0,1,,,,,,,,,0,,,67,0
153060,note_on,0,0,1,,,,,,,,,0,,,70,81
153060,note_on,60,0,2,,,,,,,,,1,,,69,0
153060,note_on,0,0,2,,,,,,,,,1,,,70,58
153060,note_on,60,0,1,,,,,,,,,0,,,69,0
153072,note_on,192,0,5,,,,,,,,,4,,,41,0
153072,note_on,192,0,4,,,,,,,,,3,,,57,0
153072,note_on,192,0,3,,,,,,,,,2,,,60,0
153120,note_on,0,0,1,,,,,,,,,0,,,72,81
153120,note_on,60,0,1,,,,,,,,,0,,,70,0
153120,note_on,60,0,2,,,,,,,,,1,,,70,0
153120,note_on,0,0,2,,,,,,,,,1,,,72,58
153150,note_on,0,0,2,,,,,,,,,1,,,74,58
153150,note_on,30,0,2,,,,,,,,,1,,,72,0
153150,note_on,30,0,1,,,,,,,,,0,,,72,0
153150,note_on,0,0,1,,,,,,,,,0,,,74,81
153180,note_on,0,0,2,,,,,,,,,1,,,75,58
153180,note_on,0,0,1,,,,,,,,,0,,,75,81
153180,note_on,30,0,1,,,,,,,,,0,,,74,0
153180,note_on,30,0,2,,,,,,,,,1,,,74,0
153210,note_on,30,0,2,,,,,,,,,1,,,75,0
153210,note_on,0,0,2,,,,,,,,,1,,,77,58
153210,note_on,30,0,1,,,,,,,,,0,,,75,0
153210,note_on,0,0,1,,,,,,,,,0,,,77,81
153240,note_on,30,0,1,,,,,,,,,0,,,77,0
153240,note_on,0,0,1,,,,,,,,,0,,,70,101
153240,note_on,168,0,5,,,,,,,,,4,,,46,78
153240,note_on,168,0,3,,,,,,,,,2,,,70,78
153240,note_on,30,0,2,,,,,,,,,1,,,77,0
153240,note_on,168,0,4,,,,,,,,,3,,,62,78
153240,note_on,0,0,2,,,,,,,,,1,,,70,78
153336,note_on,96,0,4,,,,,,,,,3,,,62,0
153336,note_on,96,0,1,,,,,,,,,0,,,70,0
153336,note_on,96,0,2,,,,,,,,,1,,,70,0
153336,note_on,96,0,3,,,,,,,,,2,,,70,0
153336,note_on,96,0,5,,,,,,,,,4,,,46,0
153360,note_on,24,0,5,,,,,,,,,4,,,53,58
153360,note_on,24,0,2,,,,,,,,,1,,,60,58
153360,note_on,24,0,4,,,,,,,,,3,,,60,58
153360,note_on,24,0,1,,,,,,,,,0,,,60,81
153360,note_on,24,0,3,,,,,,,,,2,,,60,58
153456,note_on,96,0,3,,,,,,,,,2,,,60,0
153456,note_on,96,0,5,,,,,,,,,4,,,53,0
153456,note_on,96,0,2,,,,,,,,,1,,,60,0
153456,note_on,96,0,4,,,,,,,,,3,,,60,0
153456,note_on,96,0,1,,,,,,,,,0,,,60,0
153480,note_on,24,0,5,,,,,,,,,4,,,41,58
153480,note_on,24,0,1,,,,,,,,,0,,,69,81
153480,note_on,24,0,3,,,,,,,,,2,,,69,58
153480,note_on,24,0,4,,,,,,,,,3,,,60,58
153480,note_on,24,0,2,,,,,,,,,1,,,69,58
153576,note_on,96,0,5,,,,,,,,,4,,,41,0
153576,note_on,96,0,1,,,,,,,,,0,,,69,0
153576,note_on,96,0,4,,,,,,,,,3,,,60,0
153576,note_on,96,0,2,,,,,,,,,1,,,69,0
153576,note_on,96,0,3,,,,,,,,,2,,,69,0
153600,note_on,24,0,2,,,,,,,,,1,,,70,58
153600,note_on,24,0,4,,,,,,,,,3,,,62,58
153600,note_on,24,0,3,,,,,,,,,2,,,70,58
153600,note_on,24,0,5,,,,,,,,,4,,,46,58
153600,note_on,24,0,1,,,,,,,,,0,,,70,101
153648,note_on,48,0,1,,,,,,,,,0,,,70,0
153660,note_on,12,0,1,,,,,,,,,0,,,82,81
153720,note_on,60,0,1,,,,,,,,,0,,,82,0
153720,note_on,0,0,1,,,,,,,,,0,,,84,81
153780,note_on,60,0,1,,,,,,,,,0,,,84,0
153780,note_on,0,0,1,,,,,,,,,0,,,86,81
153792,note_on,192,0,3,,,,,,,,,2,,,70,0
153792,note_on,192,0,5,,,,,,,,,4,,,46,0
153792,note_on,192,0,2,,,,,,,,,1,,,70,0
153792,note_on,192,0,4,,,,,,,,,3,,,62,0
153840,note_on,60,0,1,,,,,,,,,0,,,86,0
153840,note_on,0,0,1,,,,,,,,,0,,,84,81
153900,note_on,60,0,1,,,,,,,,,0,,,84,0
153900,note_on,0,0,1,,,,,,,,,0,,,82,81
153960,note_on,60,0,1,,,,,,,,,0,,,82,0
153960,note_on,0,0,1,,,,,,,,,0,,,77,101
153960,note_on,168,0,5,,,,,,,,,4,,,58,58
154008,note_on,48,0,1,,,,,,,,,0,,,77,0
154020,note_on,12,0,1,,,,,,,,,0,,,82,81
154080,note_on,60,0,1,,,,,,,,,0,,,82,0
154080,note_on,0,0,1,,,,,,,,,0,,,84,81
154140,note_on,0,0,1,,,,,,,,,0,,,86,81
154140,note_on,60,0,1,,,,,,,,,0,,,84,0
154152,note_on,192,0,5,,,,,,,,,4,,,58,0
154200,note_on,60,0,1,,,,,,,,,0,,,86,0
154200,note_on,0,0,1,,,,,,,,,0,,,84,81
154260,note_on,60,0,1,,,,,,,,,0,,,84,0
154260,note_on,0,0,1,,,,,,,,,0,,,82,81
154320,note_on,168,0,5,,,,,,,,,4,,,57,58
154320,note_on,0,0,1,,,,,,,,,0,,,77,101
154320,note_on,60,0,1,,,,,,,,,0,,,82,0
154368,note_on,48,0,1,,,,,,,,,0,,,77,0
154380,note_on,12,0,1,,,,,,,,,0,,,81,81
154440,note_on,0,0,1,,,,,,,,,0,,,82,81
154440,note_on,60,0,1,,,,,,,,,0,,,81,0
154500,note_on,0,0,1,,,,,,,,,0,,,84,81
154500,note_on,60,0,1,,,,,,,,,0,,,82,0
154512,note_on,192,0,5,,,,,,,,,4,,,57,0
154548,note_on,48,0,1,,,,,,,,,0,,,84,0
154560,note_on,12,0,1,,,,,,,,,0,,,82,81
154608,note_on,48,0,1,,,,,,,,,0,,,82,0
154620,note_on,12,0,1,,,,,,,,,0,,,81,81
154668,note_on,48,0,1,,,,,,,,,0,,,81,0
154680,note_on,168,0,5,,,,,,,,,4,,,53,58
154680,note_on,12,0,1,,,,,,,,,0,,,75,101
154728,note_on,48,0,1,,,,,,,,,0,,,75,0
154740,note_on,12,0,1,,,,,,,,,0,,,81,81
154800,note_on,60,0,1,,,,,,,,,0,,,81,0
154800,note_on,0,0,1,,,,,,,,,0,,,82,81
154860,note_on,60,0,1,,,,,,,,,0,,,82,0
154860,note_on,0,0,1,,,,,,,,,0,,,84,81
154872,note_on,192,0,5,,,,,,,,,4,,,53,0
154908,note_on,48,0,1,,,,,,,,,0,,,84,0
154920,note_on,12,0,1,,,,,,,,,0,,,82,81
154968,note_on,48,0,1,,,,,,,,,0,,,82,0
154980,note_on,12,0,1,,,,,,,,,0,,,81,81
155028,note_on,48,0,1,,,,,,,,,0,,,81,0
155040,note_on,1248,0,3,,,,,,,,,2,,,70,78
155040,note_on,1248,0,2,,,,,,,,,1,,,70,78
155040,note_on,1248,0,4,,,,,,,,,3,,,70,78
155040,note_on,12,0,1,,,,,,,,,0,,,82,81
155040,note_on,168,0,5,,,,,,,,,4,,,58,78
155088,note_on,48,0,5,,,,,,,,,4,,,58,0
155088,note_on,48,0,2,,,,,,,,,1,,,70,0
155088,note_on,48,0,3,,,,,,,,,2,,,70,0
155088,note_on,48,0,4,,,,,,,,,3,,,70,0
155100,note_on,12,0,2,,,,,,,,,1,,,72,58
155100,note_on,12,0,5,,,,,,,,,4,,,60,58
155100,note_on,12,0,3,,,,,,,,,2,,,72,58
155100,note_on,12,0,4,,,,,,,,,3,,,72,58
155148,note_on,48,0,5,,,,,,,,,4,,,60,0
155148,note_on,48,0,3,,,,,,,,,2,,,72,0
155148,note_on,48,0,4,,,,,,,,,3,,,72,0
155148,note_on,48,0,2,,,,,,,,,1,,,72,0
155160,note_on,12,0,3,,,,,,,,,2,,,70,58
155160,note_on,12,0,4,,,,,,,,,3,,,70,58
155160,note_on,12,0,2,,,,,,,,,1,,,70,58
155160,note_on,12,0,5,,,,,,,,,4,,,58,58
155208,note_on,48,0,4,,,,,,,,,3,,,70,0
155208,note_on,48,0,5,,,,,,,,,4,,,58,0
155208,note_on,48,0,3,,,,,,,,,2,,,70,0
155208,note_on,48,0,2,,,,,,,,,1,,,70,0
155220,note_on,12,0,3,,,,,,,,,2,,,68,58
155220,note_on,12,0,2,,,,,,,,,1,,,68,58
155220,note_on,12,0,4,,,,,,,,,3,,,68,58
155220,note_on,12,0,5,,,,,,,,,4,,,56,58
155232,note_on,192,0,1,,,,,,,,,0,,,82,0
155268,note_on,48,0,2,,,,,,,,,1,,,68,0
155268,note_on,48,0,5,,,,,,,,,4,,,56,0
155268,note_on,48,0,4,,,,,,,,,3,,,68,0
155268,note_on,48,0,3,,,,,,,,,2,,,68,0
155280,note_on,12,0,3,,,,,,,,,2,,,67,58
155280,note_on,12,0,4,,,,,,,,,3,,,67,58
155280,note_on,12,0,5,,,,,,,,,4,,,55,58
155280,note_on,12,0,2,,,,,,,,,1,,,67,58
155328,note_on,48,0,4,,,,,,,,,3,,,67,0
155328,note_on,48,0,2,,,,,,,,,1,,,67,0
155328,note_on,48,0,3,,,,,,,,,2,,,67,0
155328,note_on,48,0,5,,,,,,,,,4,,,55,0
155340,note_on,12,0,2,,,,,,,,,1,,,65,58
155340,note_on,12,0,3,,,,,,,,,2,,,65,58
155340,note_on,12,0,5,,,,,,,,,4,,,53,58
155340,note_on,12,0,4,,,,,,,,,3,,,65,58
155388,note_on,48,0,5,,,,,,,,,4,,,53,0
155388,note_on,48,0,4,,,,,,,,,3,,,65,0
155388,note_on,48,0,3,,,,,,,,,2,,,65,0
155388,note_on,48,0,2,,,,,,,,,1,,,65,0
155400,note_on,12,0,5,,,,,,,,,4,,,51,58
155400,note_on,12,0,4,,,,,,,,,3,,,63,58
155400,note_on,12,0,3,,,,,,,,,2,,,63,58
155400,note_on,12,0,2,,,,,,,,,1,,,63,78
155460,note_on,228,0,1,,,,,,,,,0,,,84,81
155520,note_on,60,0,1,,,,,,,,,0,,,84,0
155520,note_on,0,0,1,,,,,,,,,0,,,86,81
155580,note_on,60,0,1,,,,,,,,,0,,,86,0
155580,note_on,0,0,1,,,,,,,,,0,,,87,81
155592,note_on,192,0,5,,,,,,,,,4,,,51,0
155592,note_on,192,0,2,,,,,,,,,1,,,63,0
155592,note_on,192,0,4,,,,,,,,,3,,,63,0
155592,note_on,192,0,3,,,,,,,,,2,,,63,0
155628,note_on,48,0,1,,,,,,,,,0,,,87,0
155640,note_on,12,0,1,,,,,,,,,0,,,86,81
155688,note_on,48,0,1,,,,,,,,,0,,,86,0
155700,note_on,12,0,1,,,,,,,,,0,,,84,81
155748,note_on,48,0,1,,,,,,,,,0,,,84,0
155760,note_on,168,0,5,,,,,,,,,4,,,60,58
155760,note_on,12,0,1,,,,,,,,,0,,,79,101
155808,note_on,48,0,1,,,,,,,,,0,,,79,0
155820,note_on,12,0,1,,,,,,,,,0,,,84,81
155880,note_on,0,0,1,,,,,,,,,0,,,86,81
155880,note_on,60,0,1,,,,,,,,,0,,,84,0
155940,note_on,0,0,1,,,,,,,,,0,,,87,81
155940,note_on,60,0,1,,,,,,,,,0,,,86,0
155952,note_on,192,0,5,,,,,,,,,4,,,60,0
155988,note_on,48,0,1,,,,,,,,,0,,,87,0
156000,note_on,12,0,1,,,,,,,,,0,,,86,81
156048,note_on,48,0,1,,,,,,,,,0,,,86,0
156060,note_on,12,0,1,,,,,,,,,0,,,84,81
156108,note_on,48,0,1,,,,,,,,,0,,,84,0
156120,note_on,12,0,1,,,,,,,,,0,,,79,101
156120,note_on,168,0,5,,,,,,,,,4,,,59,58
156168,note_on,48,0,1,,,,,,,,,0,,,79,0
156180,note_on,12,0,1,,,,,,,,,0,,,83,81
156240,note_on,0,0,1,,,,,,,,,0,,,84,81
156240,note_on,60,0,1,,,,,,,,,0,,,83,0
156300,note_on,60,0,1,,,,,,,,,0,,,84,0
156300,note_on,0,0,1,,,,,,,,,0,,,86,81
156312,note_on,192,0,5,,,,,,,,,4,,,59,0
156348,note_on,48,0,1,,,,,,,,,0,,,86,0
156360,note_on,12,0,1,,,,,,,,,0,,,84,81
156408,note_on,48,0,1,,,,,,,,,0,,,84,0
156420,note_on,12,0,1,,,,,,,,,0,,,83,81
156468,note_on,48,0,1,,,,,,,,,0,,,83,0
156480,note_on,168,0,5,,,,,,,,,4,,,53,58
156480,note_on,12,0,1,,,,,,,,,0,,,77,101
156528,note_on,48,0,1,,,,,,,,,0,,,77,0
156540,note_on,12,0,1,,,,,,,,,0,,,83,81
156600,note_on,60,0,1,,,,,,,,,0,,,83,0
156600,note_on,0,0,1,,,,,,,,,0,,,84,81
156660,note_on,0,0,1,,,,,,,,,0,,,86,81
156660,note_on,60,0,1,,,,,,,,,0,,,84,0
156672,note_on,192,0,5,,,,,,,,,4,,,53,0
156708,note_on,48,0,1,,,,,,,,,0,,,86,0
156720,note_on,12,0,1,,,,,,,,,0,,,84,81
156768,note_on,48,0,1,,,,,,,,,0,,,84,0
156780,note_on,12,0,1,,,,,,,,,0,,,83,81
156828,note_on,48,0,1,,,,,,,,,0,,,83,0
156840,note_on,12,0,1,,,,,,,,,0,,,84,81
156840,note_on,1248,0,3,,,,,,,,,2,,,72,78
156840,note_on,1248,0,2,,,,,,,,,1,,,72,78
156840,note_on,1248,0,4,,,,,,,,,3,,,72,78
156840,note_on,168,0,5,,,,,,,,,4,,,60,78
156888,note_on,48,0,4,,,,,,,,,3,,,72,0
156888,note_on,48,0,5,,,,,,,,,4,,,60,0
156888,note_on,48,0,2,,,,,,,,,1,,,72,0
156888,note_on,48,0,3,,,,,,,,,2,,,72,0
156900,note_on,12,0,5,,,,,,,,,4,,,62,58
156900,note_on,12,0,3,,,,,,,,,2,,,74,58
156900,note_on,12,0,2,,,,,,,,,1,,,74,58
156900,note_on,12,0,4,,,,,,,,,3,,,74,58
156948,note_on,48,0,3,,,,,,,,,2,,,74,0
156948,note_on,48,0,4,,,,,,,,,3,,,74,0
156948,note_on,48,0,5,,,,,,,,,4,,,62,0
156948,note_on,48,0,2,,,,,,,,,1,,,74,0
156960,note_on,12,0,4,,,,,,,,,3,,,72,58
156960,note_on,12,0,2,,,,,,,,,1,,,72,58
156960,note_on,12,0,3,,,,,,,,,2,,,72,58
156960,note_on,12,0,5,,,,,,,,,4,,,60,58
157008,note_on,48,0,4,,,,,,,,,3,,,72,0
157008,note_on,48,0,2,,,,,,,,,1,,,72,0
157008,note_on,48,0,5,,,,,,,,,4,,,60,0
157008,note_on,48,0,3,,,,,,,,,2,,,72,0
157020,note_on,12,0,4,,,,,,,,,3,,,70,58
157020,note_on,12,0,2,,,,,,,,,1,,,70,58
157020,note_on,12,0,5,,,,,,,,,4,,,58,58
157020,note_on,12,0,3,,,,,,,,,2,,,70,58
157032,note_on,192,0,1,,,,,,,,,0,,,84,0
157068,note_on,48,0,5,,,,,,,,,4,,,58,0
157068,note_on,48,0,4,,,,,,,,,3,,,70,0
157068,note_on,48,0,2,,,,,,,,,1,,,70,0
157068,note_on,48,0,3,,,,,,,,,2,,,70,0
157080,note_on,12,0,4,,,,,,,,,3,,,68,58
157080,note_on,12,0,2,,,,,,,,,1,,,68,58
157080,note_on,12,0,3,,,,,,,,,2,,,68,58
157080,note_on,12,0,5,,,,,,,,,4,,,56,58
157128,note_on,48,0,4,,,,,,,,,3,,,68,0
157128,note_on,48,0,5,,,,,,,,,4,,,56,0
157128,note_on,48,0,2,,,,,,,,,1,,,68,0
157128,note_on,48,0,3,,,,,,,,,2,,,68,0
157140,note_on,12,0,4,,,,,,,,,3,,,67,58
157140,note_on,12,0,2,,,,,,,,,1,,,67,58
157140,note_on,12,0,3,,,,,,,,,2,,,67,58
157140,note_on,12,0,5,,,,,,,,,4,,,55,58
157188,note_on,48,0,3,,,,,,,,,2,,,67,0
157188,note_on,48,0,4,,,,,,,,,3,,,67,0
157188,note_on,48,0,2,,,,,,,,,1,,,67,0
157188,note_on,48,0,5,,,,,,,,,4,,,55,0
157200,note_on,12,0,5,,,,,,,,,4,,,53,58
157200,note_on,12,0,4,,,,,,,,,3,,,65,58
157200,note_on,12,0,2,,,,,,,,,1,,,65,78
157200,note_on,12,0,3,,,,,,,,,2,,,65,58
157260,note_on,228,0,1,,,,,,,,,0,,,86,81
157308,note_on,48,0,1,,,,,,,,,0,,,86,0
157320,note_on,12,0,1,,,,,,,,,0,,,88,81
157380,note_on,60,0,1,,,,,,,,,0,,,88,0
157380,note_on,0,0,1,,,,,,,,,0,,,89,81
157392,note_on,192,0,3,,,,,,,,,2,,,65,0
157392,note_on,192,0,2,,,,,,,,,1,,,65,0
157392,note_on,192,0,4,,,,,,,,,3,,,65,0
157392,note_on,192,0,5,,,,,,,,,4,,,53,0
157428,note_on,48,0,1,,,,,,,,,0,,,89,0
157440,note_on,12,0,1,,,,,,,,,0,,,88,81
157488,note_on,48,0,1,,,,,,,,,0,,,88,0
157500,note_on,12,0,1,,,,,,,,,0,,,86,81
157548,note_on,48,0,1,,,,,,,,,0,,,86,0
157560,note_on,12,0,1,,,,,,,,,0,,,81,101
157560,note_on,168,0,5,,,,,,,,,4,,,62,58
157608,note_on,48,0,1,,,,,,,,,0,,,81,0
157620,note_on,12,0,1,,,,,,,,,0,,,86,81
157680,note_on,60,0,1,,,,,,,,,0,,,86,0
157680,note_on,0,0,1,,,,,,,,,0,,,88,81
157728,note_on,48,0,1,,,,,,,,,0,,,88,0
157740,note_on,12,0,1,,,,,,,,,0,,,89,81
157752,note_on,192,0,5,,,,,,,,,4,,,62,0
157788,note_on,48,0,1,,,,,,,,,0,,,89,0
157800,note_on,12,0,1,,,,,,,,,0,,,88,81
157848,note_on,48,0,1,,,,,,,,,0,,,88,0
157860,note_on,12,0,1,,,,,,,,,0,,,86,81
157908,note_on,48,0,1,,,,,,,,,0,,,86,0
157920,note_on,12,0,1,,,,,,,,,0,,,81,101
157920,note_on,168,0,5,,,,,,,,,4,,,61,58
157968,note_on,48,0,1,,,,,,,,,0,,,81,0
157980,note_on,12,0,1,,,,,,,,,0,,,85,81
158040,note_on,0,0,1,,,,,,,,,0,,,86,81
158040,note_on,60,0,1,,,,,,,,,0,,,85,0
158100,note_on,60,0,1,,,,,,,,,0,,,86,0
158100,note_on,0,0,1,,,,,,,,,0,,,88,81
158112,note_on,192,0,5,,,,,,,,,4,,,61,0
158148,note_on,48,0,1,,,,,,,,,0,,,88,0
158160,note_on,12,0,1,,,,,,,,,0,,,86,81
158208,note_on,48,0,1,,,,,,,,,0,,,86,0
158220,note_on,12,0,1,,,,,,,,,0,,,85,81
158268,note_on,48,0,1,,,,,,,,,0,,,85,0
158280,note_on,12,0,1,,,,,,,,,0,,,79,101
158280,note_on,168,0,5,,,,,,,,,4,,,57,58
158328,note_on,48,0,1,,,,,,,,,0,,,79,0
158340,note_on,12,0,1,,,,,,,,,0,,,85,81
158400,note_on,60,0,1,,,,,,,,,0,,,85,0
158400,note_on,0,0,1,,,,,,,,,0,,,86,81
158460,note_on,60,0,1,,,,,,,,,0,,,86,0
158460,note_on,0,0,1,,,,,,,,,0,,,88,81
158472,note_on,192,0,5,,,,,,,,,4,,,57,0
158508,note_on,48,0,1,,,,,,,,,0,,,88,0
158520,note_on,12,0,1,,,,,,,,,0,,,86,81
158568,note_on,48,0,1,,,,,,,,,0,,,86,0
158580,note_on,12,0,1,,,,,,,,,0,,,85,81
158628,note_on,48,0,1,,,,,,,,,0,,,85,0
158640,note_on,12,0,1,,,,,,,,,0,,,86,81
158640,note_on,1248,0,4,,,,,,,,,3,,,74,78
158640,note_on,1248,0,2,,,,,,,,,1,,,74,78
158640,note_on,168,0,5,,,,,,,,,4,,,62,78
158640,note_on,1248,0,3,,,,,,,,,2,,,74,78
158736,note_on,96,0,4,,,,,,,,,3,,,74,0
158736,note_on,96,0,2,,,,,,,,,1,,,74,0
158736,note_on,96,0,5,,,,,,,,,4,,,62,0
158736,note_on,96,0,3,,,,,,,,,2,,,74,0
158760,note_on,24,0,3,,,,,,,,,2,,,72,58
158760,note_on,24,0,4,,,,,,,,,3,,,72,58
158760,note_on,24,0,5,,,,,,,,,4,,,60,58
158760,note_on,24,0,2,,,,,,,,,1,,,72,58
158808,note_on,48,0,5,,,,,,,,,4,,,60,0
158808,note_on,48,0,3,,,,,,,,,2,,,72,0
158808,note_on,48,0,4,,,,,,,,,3,,,72,0
158808,note_on,48,0,2,,,,,,,,,1,,,72,0
158820,note_on,12,0,2,,,,,,,,,1,,,70,58
158820,note_on,12,0,5,,,,,,,,,4,,,58,58
158820,note_on,12,0,3,,,,,,,,,2,,,70,58
158820,note_on,12,0,4,,,,,,,,,3,,,70,58
158832,note_on,192,0,1,,,,,,,,,0,,,86,0
158868,note_on,48,0,4,,,,,,,,,3,,,70,0
158868,note_on,48,0,5,,,,,,,,,4,,,58,0
158868,note_on,48,0,2,,,,,,,,,1,,,70,0
158868,note_on,48,0,3,,,,,,,,,2,,,70,0
158880,note_on,12,0,5,,,,,,,,,4,,,57,58
158880,note_on,12,0,3,,,,,,,,,2,,,69,58
158880,note_on,12,0,4,,,,,,,,,3,,,69,58
158880,note_on,12,0,2,,,,,,,,,1,,,69,58
158928,note_on,48,0,3,,,,,,,,,2,,,69,0
158928,note_on,48,0,2,,,,,,,,,1,,,69,0
158928,note_on,48,0,5,,,,,,,,,4,,,57,0
158928,note_on,48,0,4,,,,,,,,,3,,,69,0
158940,note_on,12,0,5,,,,,,,,,4,,,55,58
158940,note_on,12,0,3,,,,,,,,,2,,,67,58
158940,note_on,12,0,2,,,,,,,,,1,,,67,58
158940,note_on,12,0,4,,,,,,,,,3,,,67,58
158988,note_on,48,0,2,,,,,,,,,1,,,67,0
158988,note_on,48,0,3,,,,,,,,,2,,,67,0
158988,note_on,48,0,5,,,,,,,,,4,,,55,0
158988,note_on,48,0,4,,,,,,,,,3,,,67,0
159000,note_on,12,0,3,,,,,,,,,2,,,65,58
159000,note_on,12,0,5,,,,,,,,,4,,,53,78
159000,note_on,12,0,4,,,,,,,,,3,,,65,58
159000,note_on,12,0,2,,,,,,,,,1,,,65,58
159060,note_on,228,0,1,,,,,,,,,0,,,89,101
159096,note_on,96,0,5,,,,,,,,,4,,,53,0
159108,note_on,48,0,1,,,,,,,,,0,,,89,0
159120,note_on,12,0,1,,,,,,,,,0,,,91,81
159120,note_on,24,0,5,,,,,,,,,4,,,53,58
159180,note_on,0,0,1,,,,,,,,,0,,,93,81
159180,note_on,60,0,1,,,,,,,,,0,,,91,0
159192,note_on,192,0,4,,,,,,,,,3,,,65,0
159192,note_on,192,0,2,,,,,,,,,1,,,65,0
159192,note_on,192,0,3,,,,,,,,,2,,,65,0
159216,note_on,96,0,5,,,,,,,,,4,,,53,0
159228,note_on,48,0,1,,,,,,,,,0,,,93,0
159240,note_on,24,0,5,,,,,,,,,4,,,53,58
159240,note_on,12,0,1,,,,,,,,,0,,,91,81
159288,note_on,48,0,1,,,,,,,,,0,,,91,0
159300,note_on,12,0,1,,,,,,,,,0,,,89,81
159336,note_on,96,0,5,,,,,,,,,4,,,53,0
159348,note_on,48,0,1,,,,,,,,,0,,,89,0
159360,note_on,12,0,1,,,,,,,,,0,,,84,101
159360,note_on,24,0,5,,,,,,,,,4,,,53,58
159408,note_on,48,0,1,,,,,,,,,0,,,84,0
159420,note_on,12,0,1,,,,,,,,,0,,,89,81
159480,note_on,60,0,1,,,,,,,,,0,,,89,0
159480,note_on,0,0,1,,,,,,,,,0,,,91,81
159540,note_on,60,0,1,,,,,,,,,0,,,91,0
159540,note_on,0,0,1,,,,,,,,,0,,,93,81
159552,note_on,192,0,5,,,,,,,,,4,,,53,0
159588,note_on,48,0,1,,,,,,,,,0,,,93,0
159600,note_on,12,0,1,,,,,,,,,0,,,91,81
159648,note_on,48,0,1,,,,,,,,,0,,,91,0
159660,note_on,12,0,1,,,,,,,,,0,,,89,81
159708,note_on,48,0,1,,,,,,,,,0,,,89,0
159720,note_on,168,0,5,,,,,,,,,4,,,55,78
159720,note_on,12,0,1,,,,,,,,,0,,,82,101
159768,note_on,48,0,1,,,,,,,,,0,,,82,0
159780,note_on,12,0,1,,,,,,,,,0,,,87,81
159816,note_on,96,0,5,,,,,,,,,4,,,55,0
159840,note_on,60,0,1,,,,,,,,,0,,,87,0
159840,note_on,0,0,1,,,,,,,,,0,,,89,81
159840,note_on,24,0,5,,,,,,,,,4,,,55,58
159900,note_on,60,0,1,,,,,,,,,0,,,89,0
159900,note_on,0,0,1,,,,,,,,,0,,,91,81
159936,note_on,96,0,5,,,,,,,,,4,,,55,0
159948,note_on,48,0,1,,,,,,,,,0,,,91,0
159960,note_on,24,0,5,,,,,,,,,4,,,55,58
159960,note_on,12,0,1,,,,,,,,,0,,,89,81
160008,note_on,48,0,1,,,,,,,,,0,,,89,0
160020,note_on,12,0,1,,,,,,,,,0,,,87,81
160056,note_on,96,0,5,,,,,,,,,4,,,55,0
160068,note_on,48,0,1,,,,,,,,,0,,,87,0
160080,note_on,24,0,5,,,,,,,,,4,,,55,58
160080,note_on,12,0,1,,,,,,,,,0,,,82,101
160128,note_on,48,0,1,,,,,,,,,0,,,82,0
160140,note_on,12,0,1,,,,,,,,,0,,,87,81
160200,note_on,0,0,1,,,,,,,,,0,,,89,81
160200,note_on,60,0,1,,,,,,,,,0,,,87,0
160260,note_on,0,0,1,,,,,,,,,0,,,91,81
160260,note_on,60,0,1,,,,,,,,,0,,,89,0
160272,note_on,192,0,5,,,,,,,,,4,,,55,0
160308,note_on,48,0,1,,,,,,,,,0,,,91,0
160320,note_on,12,0,1,,,,,,,,,0,,,89,81
160368,note_on,48,0,1,,,,,,,,,0,,,89,0
160380,note_on,12,0,1,,,,,,,,,0,,,87,81
160428,note_on,48,0,1,,,,,,,,,0,,,87,0
160440,note_on,168,0,5,,,,,,,,,4,,,53,78
160440,note_on,12,0,1,,,,,,,,,0,,,81,101
160488,note_on,48,0,1,,,,,,,,,0,,,81,0
160500,note_on,12,0,1,,,,,,,,,0,,,86,81
160536,note_on,96,0,5,,,,,,,,,4,,,53,0
160560,note_on,24,0,5,,,,,,,,,4,,,53,58
160560,note_on,60,0,1,,,,,,,,,0,,,86,0
160560,note_on,0,0,1,,,,,,,,,0,,,87,81
160620,note_on,60,0,1,,,,,,,,,0,,,87,0
160620,note_on,0,0,1,,,,,,,,,0,,,89,81
160656,note_on,96,0,5,,,,,,,,,4,,,53,0
160668,note_on,48,0,1,,,,,,,,,0,,,89,0
160680,note_on,24,0,5,,,,,,,,,4,,,53,58
160680,note_on,12,0,1,,,,,,,,,0,,,87,81
160728,note_on,48,0,1,,,,,,,,,0,,,87,0
160740,note_on,12,0,1,,,,,,,,,0,,,86,81
160776,note_on,96,0,5,,,,,,,,,4,,,53,0
160788,note_on,48,0,1,,,,,,,,,0,,,86,0
160800,note_on,24,0,5,,,,,,,,,4,,,53,58
160800,note_on,12,0,1,,,,,,,,,0,,,81,81
160860,note_on,60,0,1,,,,,,,,,0,,,81,0
160860,note_on,0,0,1,,,,,,,,,0,,,86,81
160920,note_on,60,0,1,,,,,,,,,0,,,86,0
160920,note_on,0,0,1,,,,,,,,,0,,,87,81
160980,note_on,60,0,1,,,,,,,,,0,,,87,0
160980,note_on,0,0,1,,,,,,,,,0,,,89,81
160992,note_on,192,0,5,,,,,,,,,4,,,53,0
161028,note_on,48,0,1,,,,,,,,,0,,,89,0
161040,note_on,12,0,1,,,,,,,,,0,,,87,81
161088,note_on,48,0,1,,,,,,,,,0,,,87,0
161100,note_on,12,0,1,,,,,,,,,0,,,86,81
161148,note_on,48,0,1,,,,,,,,,0,,,86,0
161160,note_on,12,0,1,,,,,,,,,0,,,79,101
161160,note_on,168,0,5,,,,,,,,,4,,,51,78
161208,note_on,48,0,1,,,,,,,,,0,,,79,0
161220,note_on,12,0,1,,,,,,,,,0,,,84,81
161256,note_on,96,0,5,,,,,,,,,4,,,51,0
161280,note_on,60,0,1,,,,,,,,,0,,,84,0
161280,note_on,24,0,5,,,,,,,,,4,,,51,58
161280,note_on,0,0,1,,,,,,,,,0,,,86,81
161340,note_on,0,0,1,,,,,,,,,0,,,87,81
161340,note_on,60,0,1,,,,,,,,,0,,,86,0
161376,note_on,96,0,5,,,,,,,,,4,,,51,0
161388,note_on,48,0,1,,,,,,,,,0,,,87,0
161400,note_on,24,0,5,,,,,,,,,4,,,51,58
161400,note_on,12,0,1,,,,,,,,,0,,,86,81
161448,note_on,48,0,1,,,,,,,,,0,,,86,0
161460,note_on,12,0,1,,,,,,,,,0,,,84,81
161496,note_on,96,0,5,,,,,,,,,4,,,51,0
161508,note_on,48,0,1,,,,,,,,,0,,,84,0
161520,note_on,12,0,1,,,,,,,,,0,,,79,101
161520,note_on,24,0,5,,,,,,,,,4,,,51,58
161568,note_on,48,0,1,,,,,,,,,0,,,79,0
161580,note_on,12,0,1,,,,,,,,,0,,,84,81
161640,note_on,0,0,1,,,,,,,,,0,,,86,81
161640,note_on,60,0,1,,,,,,,,,0,,,84,0
161700,note_on,0,0,1,,,,,,,,,0,,,87,81
161700,note_on,60,0,1,,,,,,,,,0,,,86,0
161712,note_on,192,0,5,,,,,,,,,4,,,51,0
161748,note_on,48,0,1,,,,,,,,,0,,,87,0
161760,note_on,12,0,1,,,,,,,,,0,,,86,81
161808,note_on,48,0,1,,,,,,,,,0,,,86,0
161820,note_on,12,0,1,,,,,,,,,0,,,84,81
161868,note_on,48,0,1,,,,,,,,,0,,,84,0
161880,note_on,12,0,1,,,,,,,,,0,,,77,101
161880,note_on,168,0,5,,,,,,,,,4,,,50,78
161928,note_on,48,0,1,,,,,,,,,0,,,77,0
161940,note_on,12,0,1,,,,,,,,,0,,,82,81
161976,note_on,96,0,5,,,,,,,,,4,,,50,0
162000,note_on,24,0,5,,,,,,,,,4,,,50,58
162000,note_on,60,0,1,,,,,,,,,0,,,82,0
162000,note_on,0,0,1,,,,,,,,,0,,,84,81
162060,note_on,0,0,1,,,,,,,,,0,,,86,81
162060,note_on,60,0,1,,,,,,,,,0,,,84,0
162096,note_on,96,0,5,,,,,,,,,4,,,50,0
162108,note_on,48,0,1,,,,,,,,,0,,,86,0
162120,note_on,12,0,1,,,,,,,,,0,,,84,81
162120,note_on,24,0,5,,,,,,,,,4,,,50,58
162168,note_on,48,0,1,,,,,,,,,0,,,84,0
162180,note_on,12,0,1,,,,,,,,,0,,,82,81
162216,note_on,96,0,5,,,,,,,,,4,,,50,0
162228,note_on,48,0,1,,,,,,,,,0,,,82,0
162240,note_on,24,0,5,,,,,,,,,4,,,50,58
162240,note_on,12,0,1,,,,,,,,,0,,,77,101
162288,note_on,48,0,1,,,,,,,,,0,,,77,0
162300,note_on,12,0,1,,,,,,,,,0,,,82,81
162360,note_on,0,0,1,,,,,,,,,0,,,84,81
162360,note_on,60,0,1,,,,,,,,,0,,,82,0
162420,note_on,0,0,1,,,,,,,,,0,,,86,81
162420,note_on,60,0,1,,,,,,,,,0,,,84,0
162432,note_on,192,0,5,,,,,,,,,4,,,50,0
162468,note_on,48,0,1,,,,,,,,,0,,,86,0
162480,note_on,12,0,1,,,,,,,,,0,,,84,81
162528,note_on,48,0,1,,,,,,,,,0,,,84,0
162540,note_on,12,0,1,,,,,,,,,0,,,82,81
162588,note_on,48,0,1,,,,,,,,,0,,,82,0
162600,note_on,168,0,5,,,,,,,,,4,,,48,78
162600,note_on,12,0,1,,,,,,,,,0,,,75,101
162648,note_on,48,0,1,,,,,,,,,0,,,75,0
162660,note_on,12,0,1,,,,,,,,,0,,,81,81
162696,note_on,96,0,5,,,,,,,,,4,,,48,0
162720,note_on,60,0,1,,,,,,,,,0,,,81,0
162720,note_on,24,0,5,,,,,,,,,4,,,48,58
162720,note_on,0,0,1,,,,,,,,,0,,,82,81
162780,note_on,60,0,1,,,,,,,,,0,,,82,0
162780,note_on,0,0,1,,,,,,,,,0,,,84,81
162816,note_on,96,0,5,,,,,,,,,4,,,48,0
162828,note_on,48,0,1,,,,,,,,,0,,,84,0
162840,note_on,12,0,1,,,,,,,,,0,,,82,81
162840,note_on,24,0,5,,,,,,,,,4,,,48,58
162888,note_on,48,0,1,,,,,,,,,0,,,82,0
162900,note_on,12,0,1,,,,,,,,,0,,,81,81
162936,note_on,96,0,5,,,,,,,,,4,,,48,0
162948,note_on,48,0,1,,,,,,,,,0,,,81,0
162960,note_on,24,0,5,,,,,,,,,4,,,48,58
162960,note_on,12,0,1,,,,,,,,,0,,,75,101
163008,note_on,48,0,1,,,,,,,,,0,,,75,0
163020,note_on,12,0,1,,,,,,,,,0,,,81,81
163080,note_on,0,0,1,,,,,,,,,0,,,82,81
163080,note_on,60,0,1,,,,,,,,,0,,,81,0
163140,note_on,0,0,1,,,,,,,,,0,,,84,81
163140,note_on,60,0,1,,,,,,,,,0,,,82,0
163152,note_on,192,0,5,,,,,,,,,4,,,48,0
163188,note_on,48,0,1,,,,,,,,,0,,,84,0
163200,note_on,12,0,1,,,,,,,,,0,,,82,81
163248,note_on,48,0,1,,,,,,,,,0,,,82,0
163260,note_on,12,0,1,,,,,,,,,0,,,81,81
163308,note_on,48,0,1,,,,,,,,,0,,,81,0
163320,note_on,12,0,1,,,,,,,,,0,,,74,101
163320,note_on,168,0,5,,,,,,,,,4,,,46,78
163368,note_on,48,0,1,,,,,,,,,0,,,74,0
163380,note_on,12,0,1,,,,,,,,,0,,,79,81
163416,note_on,96,0,5,,,,,,,,,4,,,46,0
163440,note_on,24,0,5,,,,,,,,,4,,,46,58
163440,note_on,60,0,1,,,,,,,,,0,,,79,0
163440,note_on,0,0,1,,,,,,,,,0,,,81,81
163500,note_on,0,0,1,,,,,,,,,0,,,82,81
163500,note_on,60,0,1,,,,,,,,,0,,,81,0
163536,note_on,96,0,5,,,,,,,,,4,,,46,0
163548,note_on,48,0,1,,,,,,,,,0,,,82,0
163560,note_on,12,0,1,,,,,,,,,0,,,81,81
163560,note_on,24,0,5,,,,,,,,,4,,,46,58
163608,note_on,48,0,1,,,,,,,,,0,,,81,0
163620,note_on,12,0,1,,,,,,,,,0,,,79,81
163656,note_on,96,0,5,,,,,,,,,4,,,46,0
163668,note_on,48,0,1,,,,,,,,,0,,,79,0
163680,note_on,12,0,1,,,,,,,,,0,,,74,101
163680,note_on,24,0,5,,,,,,,,,4,,,46,58
163728,note_on,48,0,1,,,,,,,,,0,,,74,0
163740,note_on,12,0,1,,,,,,,,,0,,,79,81
163800,note_on,60,0,1,,,,,,,,,0,,,79,0
163800,note_on,0,0,1,,,,,,,,,0,,,81,81
163860,note_on,60,0,1,,,,,,,,,0,,,81,0
163860,note_on,0,0,1,,,,,,,,,0,,,82,81
163872,note_on,192,0,5,,,,,,,,,4,,,46,0
163908,note_on,48,0,1,,,,,,,,,0,,,82,0
163920,note_on,12,0,1,,,,,,,,,0,,,81,81
163920,note_on,48,0,5,,,,,,,,,4,,,48,58
163968,note_on,48,0,1,,,,,,,,,0,,,81,0
163980,note_on,12,0,1,,,,,,,,,0,,,79,81
164016,note_on,96,0,5,,,,,,,,,4,,,48,0
164028,note_on,48,0,1,,,,,,,,,0,,,79,0
164040,note_on,24,0,5,,,,,,,,,4,,,50,78
164040,note_on,12,0,1,,,,,,,,,0,,,72,101
164088,note_on,48,0,1,,,,,,,,,0,,,72,0
164100,note_on,12,0,1,,,,,,,,,0,,,78,81
164136,note_on,96,0,5,,,,,,,,,4,,,50,0
164160,note_on,60,0,1,,,,,,,,,0,,,78,0
164160,note_on,0,0,1,,,,,,,,,0,,,79,81
164160,note_on,24,0,5,,,,,,,,,4,,,50,58
164220,note_on,60,0,1,,,,,,,,,0,,,79,0
164220,note_on,0,0,1,,,,,,,,,0,,,81,81
164256,note_on,96,0,5,,,,,,,,,4,,,50,0
164268,note_on,48,0,1,,,,,,,,,0,,,81,0
164280,note_on,12,0,1,,,,,,,,,0,,,79,81
164280,note_on,24,0,5,,,,,,,,,4,,,50,58
164328,note_on,48,0,1,,,,,,,,,0,,,79,0
164340,note_on,12,0,1,,,,,,,,,0,,,78,81
164376,note_on,96,0,5,,,,,,,,,4,,,50,0
164388,note_on,48,0,1,,,,,,,,,0,,,78,0
164400,note_on,24,0,5,,,,,,,,,4,,,50,58
164400,note_on,12,0,1,,,,,,,,,0,,,72,101
164448,note_on,48,0,1,,,,,,,,,0,,,72,0
164460,note_on,12,0,1,,,,,,,,,0,,,78,81
164520,note_on,0,0,1,,,,,,,,,0,,,79,81
164520,note_on,60,0,1,,,,,,,,,0,,,78,0
164580,note_on,0,0,1,,,,,,,,,0,,,81,81
164580,note_on,60,0,1,,,,,,,,,0,,,79,0
164592,note_on,192,0,5,,,,,,,,,4,,,50,0
164628,note_on,48,0,1,,,,,,,,,0,,,81,0
164640,note_on,12,0,1,,,,,,,,,0,,,79,81
164640,note_on,48,0,5,,,,,,,,,4,,,38,58
164688,note_on,48,0,1,,,,,,,,,0,,,79,0
164700,note_on,12,0,1,,,,,,,,,0,,,78,81
164736,note_on,96,0,5,,,,,,,,,4,,,38,0
164748,note_on,48,0,1,,,,,,,,,0,,,78,0
164760,note_on,5568,0,4,,,,,,,,,3,,,55,78
164760,note_on,12,0,1,,,,,,,,,0,,,79,81
164760,note_on,24,0,5,,,,,,,,,4,,,43,78
164760,note_on,5568,0,2,,,,,,,,,1,,,55,78
164760,note_on,5568,0,3,,,,,,,,,2,,,55,78
164856,note_on,96,0,4,,,,,,,,,3,,,55,0
164856,note_on,96,0,5,,,,,,,,,4,,,43,0
164856,note_on,96,0,3,,,,,,,,,2,,,55,0
164856,note_on,96,0,2,,,,,,,,,1,,,55,0
164880,note_on,24,0,3,,,,,,,,,2,,,67,58
164880,note_on,24,0,4,,,,,,,,,3,,,67,58
164880,note_on,24,0,5,,,,,,,,,4,,,55,58
164880,note_on,24,0,2,,,,,,,,,1,,,67,58
164952,note_on,192,0,1,,,,,,,,,0,,,79,0
164976,note_on,96,0,4,,,,,,,,,3,,,67,0
164976,note_on,96,0,3,,,,,,,,,2,,,67,0
164976,note_on,96,0,5,,,,,,,,,4,,,55,0
164976,note_on,96,0,2,,,,,,,,,1,,,67,0
165000,note_on,24,0,2,,,,,,,,,1,,,55,58
165000,note_on,24,0,3,,,,,,,,,2,,,55,58
165000,note_on,24,0,4,,,,,,,,,3,,,55,58
165000,note_on,24,0,5,,,,,,,,,4,,,43,58
165096,note_on,96,0,5,,,,,,,,,4,,,43,0
165096,note_on,96,0,2,,,,,,,,,1,,,55,0
165096,note_on,96,0,3,,,,,,,,,2,,,55,0
165096,note_on,96,0,4,,,,,,,,,3,,,55,0
165120,note_on,24,0,3,,,,,,,,,2,,,55,78
165120,note_on,24,0,2,,,,,,,,,1,,,55,78
165120,note_on,24,0,4,,,,,,,,,3,,,55,78
165120,note_on,24,0,5,,,,,,,,,4,,,43,78
165216,note_on,96,0,2,,,,,,,,,1,,,55,0
165216,note_on,96,0,4,,,,,,,,,3,,,55,0
165216,note_on,96,0,5,,,,,,,,,4,,,43,0
165216,note_on,96,0,3,,,,,,,,,2,,,55,0
165240,note_on,24,0,2,,,,,,,,,1,,,67,58
165240,note_on,24,0,4,,,,,,,,,3,,,67,58
165240,note_on,24,0,3,,,,,,,,,2,,,67,58
165240,note_on,24,0,5,,,,,,,,,4,,,55,58
165336,note_on,96,0,2,,,,,,,,,1,,,67,0
165336,note_on,96,0,3,,,,,,,,,2,,,67,0
165336,note_on,96,0,5,,,,,,,,,4,,,55,0
165336,note_on,96,0,4,,,,,,,,,3,,,67,0
165360,note_on,24,0,3,,,,,,,,,2,,,55,58
165360,note_on,24,0,2,,,,,,,,,1,,,55,58
165360,note_on,24,0,4,,,,,,,,,3,,,55,58
165360,note_on,24,0,5,,,,,,,,,4,,,43,58
165456,note_on,96,0,5,,,,,,,,,4,,,43,0
165456,note_on,96,0,2,,,,,,,,,1,,,55,0
165456,note_on,96,0,4,,,,,,,,,3,,,55,0
165456,note_on,96,0,3,,,,,,,,,2,,,55,0
165480,note_on,24,0,5,,,,,,,,,4,,,43,58
165480,note_on,24,0,2,,,,,,,,,1,,,55,58
165480,note_on,24,0,3,,,,,,,,,2,,,55,58
165480,note_on,528,0,1,,,,,,,,,0,,,62,101
165480,note_on,24,0,4,,,,,,,,,3,,,55,58
165528,note_on,48,0,1,,,,,,,,,0,,,62,0
165540,note_on,12,0,1,,,,,,,,,0,,,70,81
165600,note_on,0,0,1,,,,,,,,,0,,,72,81
165600,note_on,60,0,1,,,,,,,,,0,,,70,0
165660,note_on,0,0,1,,,,,,,,,0,,,74,81
165660,note_on,60,0,1,,,,,,,,,0,,,72,0
165672,note_on,192,0,3,,,,,,,,,2,,,55,0
165672,note_on,192,0,2,,,,,,,,,1,,,55,0
165672,note_on,192,0,5,,,,,,,,,4,,,43,0
165672,note_on,192,0,4,,,,,,,,,3,,,55,0
165708,note_on,48,0,1,,,,,,,,,0,,,74,0
165720,note_on,12,0,1,,,,,,,,,0,,,72,81
165768,note_on,48,0,1,,,,,,,,,0,,,72,0
165780,note_on,12,0,1,,,,,,,,,0,,,70,81
165828,note_on,48,0,1,,,,,,,,,0,,,70,0
165840,note_on,12,0,1,,,,,,,,,0,,,63,101
165888,note_on,48,0,1,,,,,,,,,0,,,63,0
165900,note_on,12,0,1,,,,,,,,,0,,,69,81
165960,note_on,60,0,1,,,,,,,,,0,,,69,0
165960,note_on,0,0,1,,,,,,,,,0,,,70,81
166020,note_on,0,0,1,,,,,,,,,0,,,72,81
166020,note_on,60,0,1,,,,,,,,,0,,,70,0
166068,note_on,48,0,1,,,,,,,,,0,,,72,0
166080,note_on,12,0,1,,,,,,,,,0,,,70,81
166128,note_on,48,0,1,,,,,,,,,0,,,70,0
166140,note_on,12,0,1,,,,,,,,,0,,,69,81
166188,note_on,48,0,1,,,,,,,,,0,,,69,0
166200,note_on,12,0,1,,,,,,,,,0,,,62,101
166248,note_on,48,0,1,,,,,,,,,0,,,62,0
166260,note_on,12,0,1,,,,,,,,,0,,,67,81
166320,note_on,0,0,1,,,,,,,,,0,,,69,81
166320,note_on,60,0,1,,,,,,,,,0,,,67,0
166380,note_on,0,0,1,,,,,,,,,0,,,70,81
166380,note_on,60,0,1,,,,,,,,,0,,,69,0
166428,note_on,48,0,1,,,,,,,,,0,,,70,0
166440,note_on,12,0,1,,,,,,,,,0,,,69,81
166488,note_on,48,0,1,,,,,,,,,0,,,69,0
166500,note_on,12,0,1,,,,,,,,,0,,,67,81
166548,note_on,48,0,1,,,,,,,,,0,,,67,0
166560,note_on,888,0,2,,,,,,,,,1,,,62,78
166560,note_on,12,0,1,,,,,,,,,0,,,62,81
166560,note_on,888,0,4,,,,,,,,,3,,,62,78
166560,note_on,888,0,5,,,,,,,,,4,,,50,78
166560,note_on,888,0,3,,,,,,,,,2,,,62,78
166656,note_on,96,0,5,,,,,,,,,4,,,50,0
166656,note_on,96,0,3,,,,,,,,,2,,,62,0
166656,note_on,96,0,2,,,,,,,,,1,,,62,0
166656,note_on,96,0,4,,,,,,,,,3,,,62,0
166680,note_on,24,0,3,,,,,,,,,2,,,74,58
166680,note_on,24,0,4,,,,,,,,,3,,,74,58
166680,note_on,24,0,2,,,,,,,,,1,,,74,58
166680,note_on,24,0,5,,,,,,,,,4,,,62,58
166752,note_on,192,0,1,,,,,,,,,0,,,62,0
166776,note_on,96,0,5,,,,,,,,,4,,,62,0
166776,note_on,96,0,3,,,,,,,,,2,,,74,0
166776,note_on,96,0,2,,,,,,,,,1,,,74,0
166776,note_on,96,0,4,,,,,,,,,3,,,74,0
166800,note_on,24,0,5,,,,,,,,,4,,,50,58
166800,note_on,24,0,3,,,,,,,,,2,,,62,58
166800,note_on,24,0,2,,,,,,,,,1,,,62,58
166800,note_on,24,0,4,,,,,,,,,3,,,62,58
166896,note_on,96,0,5,,,,,,,,,4,,,50,0
166896,note_on,96,0,3,,,,,,,,,2,,,62,0
166896,note_on,96,0,2,,,,,,,,,1,,,62,0
166896,note_on,96,0,4,,,,,,,,,3,,,62,0
166920,note_on,24,0,3,,,,,,,,,2,,,62,78
166920,note_on,24,0,4,,,,,,,,,3,,,62,78
166920,note_on,24,0,2,,,,,,,,,1,,,62,78
166920,note_on,24,0,5,,,,,,,,,4,,,50,78
167016,note_on,96,0,2,,,,,,,,,1,,,62,0
167016,note_on,96,0,4,,,,,,,,,3,,,62,0
167016,note_on,96,0,3,,,,,,,,,2,,,62,0
167016,note_on,96,0,5,,,,,,,,,4,,,50,0
167040,note_on,24,0,2,,,,,,,,,1,,,74,58
167040,note_on,24,0,5,,,,,,,,,4,,,62,58
167040,note_on,24,0,3,,,,,,,,,2,,,74,58
167040,note_on,24,0,4,,,,,,,,,3,,,74,58
167136,note_on,96,0,5,,,,,,,,,4,,,62,0
167136,note_on,96,0,3,,,,,,,,,2,,,74,0
167136,note_on,96,0,4,,,,,,,,,3,,,74,0
167136,note_on,96,0,2,,,,,,,,,1,,,74,0
167160,note_on,24,0,5,,,,,,,,,4,,,50,58
167160,note_on,24,0,3,,,,,,,,,2,,,62,58
167160,note_on,24,0,2,,,,,,,,,1,,,62,58
167160,note_on,24,0,4,,,,,,,,,3,,,62,58
167256,note_on,96,0,4,,,,,,,,,3,,,62,0
167256,note_on,96,0,2,,,,,,,,,1,,,62,0
167256,note_on,96,0,3,,,,,,,,,2,,,62,0
167256,note_on,96,0,5,,,,,,,,,4,,,50,0
167280,note_on,24,0,5,,,,,,,,,4,,,50,58
167280,note_on,528,0,1,,,,,,,,,0,,,74,101
167280,note_on,24,0,2,,,,,,,,,1,,,62,58
167280,note_on,24,0,4,,,,,,,,,3,,,62,58
167280,note_on,24,0,3,,,,,,,,,2,,,62,58
167376,note_on,96,0,1,,,,,,,,,0,,,74,0
167400,note_on,24,0,1,,,,,,,,,0,,,72,81
167448,note_on,48,0,1,,,,,,,,,0,,,72,0
167460,note_on,12,0,1,,,,,,,,,0,,,70,81
167472,note_on,192,0,2,,,,,,,,,1,,,62,0
167472,note_on,192,0,3,,,,,,,,,2,,,62,0
167472,note_on,192,0,5,,,,,,,,,4,,,50,0
167472,note_on,192,0,4,,,,,,,,,3,,,62,0
167508,note_on,48,0,1,,,,,,,,,0,,,70,0
167520,note_on,12,0,1,,,,,,,,,0,,,69,81
167568,note_on,48,0,1,,,,,,,,,0,,,69,0
167580,note_on,12,0,1,,,,,,,,,0,,,67,81
167628,note_on,48,0,1,,,,,,,,,0,,,67,0
167640,note_on,12,0,1,,,,,,,,,0,,,66,81
167688,note_on,48,0,1,,,,,,,,,0,,,66,0
167700,note_on,12,0,1,,,,,,,,,0,,,64,81
167748,note_on,48,0,1,,,,,,,,,0,,,64,0
167760,note_on,12,0,1,,,,,,,,,0,,,62,81
167808,note_on,48,0,1,,,,,,,,,0,,,62,0
167820,note_on,12,0,1,,,,,,,,,0,,,60,81
167868,note_on,48,0,1,,,,,,,,,0,,,60,0
167880,note_on,12,0,1,,,,,,,,,0,,,58,81
167928,note_on,48,0,1,,,,,,,,,0,,,58,0
167940,note_on,12,0,1,,,,,,,,,0,,,57,81
167988,note_on,48,0,1,,,,,,,,,0,,,57,0
168000,note_on,528,0,5,,,,,,,,,4,,,55,78
168000,note_on,12,0,1,,,,,,,,,0,,,55,101
168096,note_on,96,0,1,,,,,,,,,0,,,55,0
168096,note_on,96,0,5,,,,,,,,,4,,,55,0
168120,note_on,24,0,1,,,,,,,,,0,,,79,81
168120,note_on,24,0,5,,,,,,,,,4,,,50,58
168216,note_on,96,0,1,,,,,,,,,0,,,79,0
168216,note_on,96,0,5,,,,,,,,,4,,,50,0
168240,note_on,24,0,5,,,,,,,,,4,,,38,58
168240,note_on,24,0,1,,,,,,,,,0,,,78,81
168336,note_on,96,0,5,,,,,,,,,4,,,38,0
168336,note_on,96,0,1,,,,,,,,,0,,,78,0
168360,note_on,888,0,4,,,,,,,,,3,,,58,58
168360,note_on,24,0,5,,,,,,,,,4,,,43,101
168360,note_on,888,0,2,,,,,,,,,1,,,79,78
168360,note_on,24,0,1,,,,,,,,,0,,,79,101
168360,note_on,888,0,3,,,,,,,,,2,,,74,78
168456,note_on,96,0,5,,,,,,,,,4,,,43,0
168456,note_on,96,0,3,,,,,,,,,2,,,74,0
168456,note_on,96,0,2,,,,,,,,,1,,,79,0
168456,note_on,96,0,1,,,,,,,,,0,,,79,0
168480,note_on,24,0,1,,,,,,,,,0,,,74,81
168480,note_on,24,0,2,,,,,,,,,1,,,74,58
168480,note_on,24,0,3,,,,,,,,,2,,,70,58
168480,note_on,24,0,5,,,,,,,,,4,,,43,81
168528,note_on,48,0,5,,,,,,,,,4,,,43,0
168540,note_on,12,0,5,,,,,,,,,4,,,45,81
168552,note_on,192,0,4,,,,,,,,,3,,,58,0
168576,note_on,96,0,3,,,,,,,,,2,,,70,0
168576,note_on,96,0,2,,,,,,,,,1,,,74,0
168576,note_on,96,0,1,,,,,,,,,0,,,74,0
168588,note_on,48,0,5,,,,,,,,,4,,,45,0
168600,note_on,48,0,4,,,,,,,,,3,,,58,58
168600,note_on,12,0,5,,,,,,,,,4,,,46,81
168600,note_on,24,0,3,,,,,,,,,2,,,74,58
168600,note_on,24,0,1,,,,,,,,,0,,,79,81
168600,note_on,24,0,2,,,,,,,,,1,,,79,58
168648,note_on,48,0,5,,,,,,,,,4,,,46,0
168660,note_on,12,0,5,,,,,,,,,4,,,45,81
168696,note_on,96,0,1,,,,,,,,,0,,,79,0
168696,note_on,96,0,2,,,,,,,,,1,,,79,0
168696,note_on,96,0,4,,,,,,,,,3,,,58,0
168696,note_on,96,0,3,,,,,,,,,2,,,74,0
168708,note_on,48,0,5,,,,,,,,,4,,,45,0
168720,note_on,12,0,5,,,,,,,,,4,,,43,101
168720,note_on,24,0,4,,,,,,,,,3,,,58,58
168720,note_on,24,0,3,,,,,,,,,2,,,79,78
168720,note_on,24,0,1,,,,,,,,,0,,,74,101
168720,note_on,24,0,2,,,,,,,,,1,,,74,78
168816,note_on,96,0,1,,,,,,,,,0,,,74,0
168816,note_on,96,0,3,,,,,,,,,2,,,79,0
168816,note_on,96,0,2,,,,,,,,,1,,,74,0
168816,note_on,96,0,5,,,,,,,,,4,,,43,0
168840,note_on,24,0,5,,,,,,,,,4,,,43,81
168840,note_on,24,0,3,,,,,,,,,2,,,74,58
168840,note_on,24,0,2,,,,,,,,,1,,,70,58
168840,note_on,24,0,1,,,,,,,,,0,,,70,81
168888,note_on,48,0,5,,,,,,,,,4,,,43,0
168900,note_on,12,0,5,,,,,,,,,4,,,45,81
168912,note_on,192,0,4,,,,,,,,,3,,,58,0
168936,note_on,96,0,2,,,,,,,,,1,,,70,0
168936,note_on,96,0,3,,,,,,,,,2,,,74,0
168936,note_on,96,0,1,,,,,,,,,0,,,70,0
168948,note_on,48,0,5,,,,,,,,,4,,,45,0
168960,note_on,24,0,2,,,,,,,,,1,,,74,58
168960,note_on,12,0,5,,,,,,,,,4,,,46,81
168960,note_on,24,0,3,,,,,,,,,2,,,79,58
168960,note_on,24,0,1,,,,,,,,,0,,,74,81
168960,note_on,48,0,4,,,,,,,,,3,,,58,58
169008,note_on,48,0,5,,,,,,,,,4,,,46,0
169020,note_on,12,0,5,,,,,,,,,4,,,45,81
169056,note_on,96,0,2,,,,,,,,,1,,,74,0
169056,note_on,96,0,3,,,,,,,,,2,,,79,0
169056,note_on,96,0,1,,,,,,,,,0,,,74,0
169056,note_on,96,0,4,,,,,,,,,3,,,58,0
169068,note_on,48,0,5,,,,,,,,,4,,,45,0
169080,note_on,24,0,3,,,,,,,,,2,,,74,78
169080,note_on,12,0,5,,,,,,,,,4,,,43,101
169080,note_on,24,0,2,,,,,,,,,1,,,79,78
169080,note_on,24,0,1,,,,,,,,,0,,,79,101
169080,note_on,24,0,4,,,,,,,,,3,,,58,58
169176,note_on,96,0,1,,,,,,,,,0,,,79,0
169176,note_on,96,0,3,,,,,,,,,2,,,74,0
169176,note_on,96,0,2,,,,,,,,,1,,,79,0
169176,note_on,96,0,5,,,,,,,,,4,,,43,0
169200,note_on,24,0,1,,,,,,,,,0,,,74,81
169200,note_on,24,0,3,,,,,,,,,2,,,70,58
169200,note_on,24,0,2,,,,,,,,,1,,,74,58
169200,note_on,24,0,5,,,,,,,,,4,,,43,81
169248,note_on,48,0,5,,,,,,,,,4,,,43,0
169260,note_on,12,0,5,,,,,,,,,4,,,45,81
169272,note_on,192,0,4,,,,,,,,,3,,,58,0
169296,note_on,96,0,2,,,,,,,,,1,,,74,0
169296,note_on,96,0,1,,,,,,,,,0,,,74,0
169296,note_on,96,0,3,,,,,,,,,2,,,70,0
169308,note_on,48,0,5,,,,,,,,,4,,,45,0
169320,note_on,24,0,3,,,,,,,,,2,,,74,58
169320,note_on,24,0,2,,,,,,,,,1,,,79,58
169320,note_on,24,0,1,,,,,,,,,0,,,79,81
169320,note_on,12,0,5,,,,,,,,,4,,,46,81
169320,note_on,48,0,4,,,,,,,,,3,,,58,58
169368,note_on,48,0,5,,,,,,,,,4,,,46,0
169380,note_on,12,0,5,,,,,,,,,4,,,43,81
169416,note_on,96,0,1,,,,,,,,,0,,,79,0
169416,note_on,96,0,2,,,,,,,,,1,,,79,0
169416,note_on,96,0,3,,,,,,,,,2,,,74,0
169416,note_on,96,0,4,,,,,,,,,3,,,58,0
169428,note_on,48,0,5,,,,,,,,,4,,,43,0
169440,note_on,24,0,2,,,,,,,,,1,,,79,78
169440,note_on,24,0,1,,,,,,,,,0,,,79,101
169440,note_on,24,0,3,,,,,,,,,2,,,75,78
169440,note_on,24,0,4,,,,,,,,,3,,,55,58
169440,note_on,12,0,5,,,,,,,,,4,,,48,101
169536,note_on,96,0,5,,,,,,,,,4,,,48,0
169536,note_on,96,0,3,,,,,,,,,2,,,75,0
169536,note_on,96,0,2,,,,,,,,,1,,,79,0
169536,note_on,96,0,1,,,,,,,,,0,,,79,0
169560,note_on,24,0,5,,,,,,,,,4,,,48,81
169560,note_on,24,0,3,,,,,,,,,2,,,67,58
169560,note_on,24,0,1,,,,,,,,,0,,,75,81
169560,note_on,24,0,2,,,,,,,,,1,,,75,58
169608,note_on,48,0,5,,,,,,,,,4,,,48,0
169620,note_on,12,0,5,,,,,,,,,4,,,50,81
169632,note_on,192,0,4,,,,,,,,,3,,,55,0
169656,note_on,96,0,1,,,,,,,,,0,,,75,0
169656,note_on,96,0,3,,,,,,,,,2,,,67,0
169656,note_on,96,0,2,,,,,,,,,1,,,75,0
169668,note_on,48,0,5,,,,,,,,,4,,,50,0
169680,note_on,24,0,1,,,,,,,,,0,,,79,81
169680,note_on,24,0,3,,,,,,,,,2,,,75,58
169680,note_on,48,0,4,,,,,,,,,3,,,60,58
169680,note_on,24,0,2,,,,,,,,,1,,,79,58
169680,note_on,12,0,5,,,,,,,,,4,,,51,81
169728,note_on,48,0,5,,,,,,,,,4,,,51,0
169740,note_on,12,0,5,,,,,,,,,4,,,50,81
169776,note_on,96,0,2,,,,,,,,,1,,,79,0
169776,note_on,96,0,4,,,,,,,,,3,,,60,0
169776,note_on,96,0,1,,,,,,,,,0,,,79,0
169776,note_on,96,0,3,,,,,,,,,2,,,75,0
169788,note_on,48,0,5,,,,,,,,,4,,,50,0
169800,note_on,12,0,5,,,,,,,,,4,,,48,81
169800,note_on,24,0,3,,,,,,,,,2,,,79,78
169800,note_on,24,0,4,,,,,,,,,3,,,60,58
169800,note_on,24,0,1,,,,,,,,,0,,,75,101
169800,note_on,24,0,2,,,,,,,,,1,,,75,78
169896,note_on,96,0,5,,,,,,,,,4,,,48,0
169896,note_on,96,0,1,,,,,,,,,0,,,75,0
169896,note_on,96,0,3,,,,,,,,,2,,,79,0
169896,note_on,96,0,2,,,,,,,,,1,,,75,0
169920,note_on,24,0,1,,,,,,,,,0,,,67,81
169920,note_on,24,0,5,,,,,,,,,4,,,48,81
169920,note_on,24,0,2,,,,,,,,,1,,,67,58
169920,note_on,24,0,3,,,,,,,,,2,,,75,58
169968,note_on,48,0,5,,,,,,,,,4,,,48,0
169980,note_on,12,0,5,,,,,,,,,4,,,50,81
169992,note_on,192,0,4,,,,,,,,,3,,,60,0
170016,note_on,96,0,3,,,,,,,,,2,,,75,0
170016,note_on,96,0,1,,,,,,,,,0,,,67,0
170016,note_on,96,0,2,,,,,,,,,1,,,67,0
170028,note_on,48,0,5,,,,,,,,,4,,,50,0
170040,note_on,48,0,4,,,,,,,,,3,,,60,58
170040,note_on,12,0,5,,,,,,,,,4,,,51,81
170040,note_on,24,0,1,,,,,,,,,0,,,75,81
170040,note_on,24,0,2,,,,,,,,,1,,,75,58
170040,note_on,24,0,3,,,,,,,,,2,,,79,58
170088,note_on,48,0,5,,,,,,,,,4,,,51,0
170100,note_on,12,0,5,,,,,,,,,4,,,50,81
170136,note_on,96,0,2,,,,,,,,,1,,,75,0
170136,note_on,96,0,4,,,,,,,,,3,,,60,0
170136,note_on,96,0,1,,,,,,,,,0,,,75,0
170136,note_on,96,0,3,,,,,,,,,2,,,79,0
170148,note_on,48,0,5,,,,,,,,,4,,,50,0
170160,note_on,12,0,5,,,,,,,,,4,,,48,101
170160,note_on,24,0,2,,,,,,,,,1,,,79,78
170160,note_on,24,0,4,,,,,,,,,3,,,60,58
170160,note_on,24,0,3,,,,,,,,,2,,,75,78
170160,note_on,24,0,1,,,,,,,,,0,,,79,101
170256,note_on,96,0,3,,,,,,,,,2,,,75,0
170256,note_on,96,0,1,,,,,,,,,0,,,79,0
170256,note_on,96,0,5,,,,,,,,,4,,,48,0
170256,note_on,96,0,2,,,,,,,,,1,,,79,0
170280,note_on,24,0,3,,,,,,,,,2,,,67,58
170280,note_on,24,0,2,,,,,,,,,1,,,75,58
170280,note_on,24,0,5,,,,,,,,,4,,,48,81
170280,note_on,24,0,1,,,,,,,,,0,,,75,81
170328,note_on,48,0,5,,,,,,,,,4,,,48,0
170340,note_on,12,0,5,,,,,,,,,4,,,50,81
170352,note_on,192,0,4,,,,,,,,,3,,,60,0
170376,note_on,96,0,2,,,,,,,,,1,,,75,0
170376,note_on,96,0,1,,,,,,,,,0,,,75,0
170376,note_on,96,0,3,,,,,,,,,2,,,67,0
170388,note_on,48,0,5,,,,,,,,,4,,,50,0
170400,note_on,24,0,1,,,,,,,,,0,,,79,81
170400,note_on,24,0,3,,,,,,,,,2,,,75,58
170400,note_on,12,0,5,,,,,,,,,4,,,51,81
170400,note_on,24,0,2,,,,,,,,,1,,,79,58
170400,note_on,48,0,4,,,,,,,,,3,,,60,58
170448,note_on,48,0,5,,,,,,,,,4,,,51,0
170460,note_on,12,0,5,,,,,,,,,4,,,48,81
170496,note_on,96,0,1,,,,,,,,,0,,,79,0
170496,note_on,96,0,2,,,,,,,,,1,,,79,0
170496,note_on,96,0,4,,,,,,,,,3,,,60,0
170496,note_on,96,0,3,,,,,,,,,2,,,75,0
170508,note_on,48,0,5,,,,,,,,,4,,,48,0
170520,note_on,24,0,3,,,,,,,,,2,,,72,78
170520,note_on,24,0,4,,,,,,,,,3,,,57,58
170520,note_on,24,0,2,,,,,,,,,1,,,77,78
170520,note_on,12,0,5,,,,,,,,,4,,,53,101
170520,note_on,24,0,1,,,,,,,,,0,,,77,101
170616,note_on,96,0,3,,,,,,,,,2,,,72,0
170616,note_on,96,0,2,,,,,,,,,1,,,77,0
170616,note_on,96,0,5,,,,,,,,,4,,,53,0
170616,note_on,96,0,1,,,,,,,,,0,,,77,0
170640,note_on,24,0,3,,,,,,,,,2,,,69,58
170640,note_on,24,0,2,,,,,,,,,1,,,72,58
170640,note_on,24,0,1,,,,,,,,,0,,,72,81
170640,note_on,24,0,5,,,,,,,,,4,,,53,81
170688,note_on,48,0,5,,,,,,,,,4,,,53,0
170700,note_on,12,0,5,,,,,,,,,4,,,55,81
170712,note_on,192,0,4,,,,,,,,,3,,,57,0
170736,note_on,96,0,2,,,,,,,,,1,,,72,0
170736,note_on,96,0,3,,,,,,,,,2,,,69,0
170736,note_on,96,0,1,,,,,,,,,0,,,72,0
170748,note_on,48,0,5,,,,,,,,,4,,,55,0
170760,note_on,24,0,2,,,,,,,,,1,,,77,58
170760,note_on,48,0,4,,,,,,,,,3,,,56,58
170760,note_on,24,0,3,,,,,,,,,2,,,72,58
170760,note_on,12,0,5,,,,,,,,,4,,,57,81
170760,note_on,24,0,1,,,,,,,,,0,,,77,81
170808,note_on,48,0,5,,,,,,,,,4,,,57,0
170820,note_on,12,0,5,,,,,,,,,4,,,55,81
170856,note_on,96,0,2,,,,,,,,,1,,,77,0
170856,note_on,96,0,4,,,,,,,,,3,,,56,0
170856,note_on,96,0,3,,,,,,,,,2,,,72,0
170856,note_on,96,0,1,,,,,,,,,0,,,77,0
170868,note_on,48,0,5,,,,,,,,,4,,,55,0
170880,note_on,24,0,3,,,,,,,,,2,,,77,78
170880,note_on,12,0,5,,,,,,,,,4,,,53,101
170880,note_on,24,0,2,,,,,,,,,1,,,72,78
170880,note_on,24,0,1,,,,,,,,,0,,,72,101
170880,note_on,24,0,4,,,,,,,,,3,,,57,58
170976,note_on,96,0,2,,,,,,,,,1,,,72,0
170976,note_on,96,0,1,,,,,,,,,0,,,72,0
170976,note_on,96,0,5,,,,,,,,,4,,,53,0
170976,note_on,96,0,3,,,,,,,,,2,,,77,0
171000,note_on,24,0,1,,,,,,,,,0,,,69,81
171000,note_on,24,0,2,,,,,,,,,1,,,69,58
171000,note_on,24,0,3,,,,,,,,,2,,,72,58
171000,note_on,24,0,5,,,,,,,,,4,,,53,81
171048,note_on,48,0,5,,,,,,,,,4,,,53,0
171060,note_on,12,0,5,,,,,,,,,4,,,55,81
171072,note_on,192,0,4,,,,,,,,,3,,,57,0
171096,note_on,96,0,2,,,,,,,,,1,,,69,0
171096,note_on,96,0,1,,,,,,,,,0,,,69,0
171096,note_on,96,0,3,,,,,,,,,2,,,72,0
171108,note_on,48,0,5,,,,,,,,,4,,,55,0
171120,note_on,12,0,5,,,,,,,,,4,,,57,81
171120,note_on,48,0,4,,,,,,,,,3,,,56,58
171120,note_on,24,0,1,,,,,,,,,0,,,72,81
171120,note_on,24,0,2,,,,,,,,,1,,,72,58
171120,note_on,24,0,3,,,,,,,,,2,,,77,58
171168,note_on,48,0,5,,,,,,,,,4,,,57,0
171180,note_on,12,0,5,,,,,,,,,4,,,55,81
171216,note_on,96,0,4,,,,,,,,,3,,,56,0
171216,note_on,96,0,2,,,,,,,,,1,,,72,0
171216,note_on,96,0,1,,,,,,,,,0,,,72,0
171216,note_on,96,0,3,,,,,,,,,2,,,77,0
171228,note_on,48,0,5,,,,,,,,,4,,,55,0
171240,note_on,12,0,5,,,,,,,,,4,,,53,101
171240,note_on,24,0,4,,,,,,,,,3,,,57,58
171240,note_on,24,0,3,,,,,,,,,2,,,72,78
171240,note_on,24,0,1,,,,,,,,,0,,,77,101
171240,note_on,24,0,2,,,,,,,,,1,,,77,78
171336,note_on,96,0,1,,,,,,,,,0,,,77,0
171336,note_on,96,0,3,,,,,,,,,2,,,72,0
171336,note_on,96,0,5,,,,,,,,,4,,,53,0
171336,note_on,96,0,2,,,,,,,,,1,,,77,0
171360,note_on,24,0,3,,,,,,,,,2,,,69,58
171360,note_on,24,0,5,,,,,,,,,4,,,53,81
171360,note_on,24,0,1,,,,,,,,,0,,,72,81
171360,note_on,24,0,2,,,,,,,,,1,,,72,58
171408,note_on,48,0,5,,,,,,,,,4,,,53,0
171420,note_on,12,0,5,,,,,,,,,4,,,55,81
171432,note_on,192,0,4,,,,,,,,,3,,,57,0
171456,note_on,96,0,2,,,,,,,,,1,,,72,0
171456,note_on,96,0,1,,,,,,,,,0,,,72,0
171456,note_on,96,0,3,,,,,,,,,2,,,69,0
171468,note_on,48,0,5,,,,,,,,,4,,,55,0
171480,note_on,24,0,2,,,,,,,,,1,,,77,58
171480,note_on,24,0,1,,,,,,,,,0,,,77,81
171480,note_on,24,0,3,,,,,,,,,2,,,72,58
171480,note_on,48,0,4,,,,,,,,,3,,,56,58
171480,note_on,12,0,5,,,,,,,,,4,,,57,81
171528,note_on,48,0,5,,,,,,,,,4,,,57,0
171540,note_on,12,0,5,,,,,,,,,4,,,53,81
171576,note_on,96,0,1,,,,,,,,,0,,,77,0
171576,note_on,96,0,4,,,,,,,,,3,,,56,0
171576,note_on,96,0,2,,,,,,,,,1,,,77,0
171576,note_on,96,0,3,,,,,,,,,2,,,72,0
171588,note_on,48,0,5,,,,,,,,,4,,,53,0
171600,note_on,24,0,4,,,,,,,,,3,,,53,58
171600,note_on,12,0,5,,,,,,,,,4,,,46,101
171600,note_on,24,0,1,,,,,,,,,0,,,77,101
171600,note_on,24,0,2,,,,,,,,,1,,,77,78
171600,note_on,24,0,3,,,,,,,,,2,,,74,78
171696,note_on,96,0,1,,,,,,,,,0,,,77,0
171696,note_on,96,0,3,,,,,,,,,2,,,74,0
171696,note_on,96,0,2,,,,,,,,,1,,,77,0
171696,note_on,96,0,5,,,,,,,,,4,,,46,0
171720,note_on,24,0,3,,,,,,,,,2,,,65,58
171720,note_on,24,0,1,,,,,,,,,0,,,74,81
171720,note_on,24,0,5,,,,,,,,,4,,,46,81
171720,note_on,24,0,2,,,,,,,,,1,,,74,58
171768,note_on,48,0,5,,,,,,,,,4,,,46,0
171780,note_on,12,0,5,,,,,,,,,4,,,48,81
171792,note_on,192,0,4,,,,,,,,,3,,,53,0
171816,note_on,96,0,1,,,,,,,,,0,,,74,0
171816,note_on,96,0,3,,,,,,,,,2,,,65,0
171816,note_on,96,0,2,,,,,,,,,1,,,74,0
171828,note_on,48,0,5,,,,,,,,,4,,,48,0
171840,note_on,48,0,4,,,,,,,,,3,,,58,58
171840,note_on,24,0,3,,,,,,,,,2,,,74,58
171840,note_on,24,0,2,,,,,,,,,1,,,77,58
171840,note_on,12,0,5,,,,,,,,,4,,,50,81
171840,note_on,24,0,1,,,,,,,,,0,,,77,81
171888,note_on,48,0,5,,,,,,,,,4,,,50,0
171900,note_on,12,0,5,,,,,,,,,4,,,48,81
171936,note_on,96,0,4,,,,,,,,,3,,,58,0
171936,note_on,96,0,1,,,,,,,,,0,,,77,0
171936,note_on,96,0,3,,,,,,,,,2,,,74,0
171936,note_on,96,0,2,,,,,,,,,1,,,77,0
171948,note_on,48,0,5,,,,,,,,,4,,,48,0
171960,note_on,24,0,3,,,,,,,,,2,,,77,78
171960,note_on,24,0,4,,,,,,,,,3,,,58,58
171960,note_on,12,0,5,,,,,,,,,4,,,46,101
171960,note_on,24,0,1,,,,,,,,,0,,,74,101
171960,note_on,24,0,2,,,,,,,,,1,,,74,58
172056,note_on,96,0,2,,,,,,,,,1,,,74,0
172056,note_on,96,0,3,,,,,,,,,2,,,77,0
172056,note_on,96,0,5,,,,,,,,,4,,,46,0
172056,note_on,96,0,1,,,,,,,,,0,,,74,0
172080,note_on,24,0,1,,,,,,,,,0,,,65,81
172080,note_on,24,0,2,,,,,,,,,1,,,65,58
172080,note_on,24,0,3,,,,,,,,,2,,,74,58
172080,note_on,24,0,5,,,,,,,,,4,,,46,81
172128,note_on,48,0,5,,,,,,,,,4,,,46,0
172140,note_on,12,0,5,,,,,,,,,4,,,48,81
172152,note_on,192,0,4,,,,,,,,,3,,,58,0
172176,note_on,96,0,3,,,,,,,,,2,,,74,0
172176,note_on,96,0,1,,,,,,,,,0,,,65,0
172176,note_on,96,0,2,,,,,,,,,1,,,65,0
172188,note_on,48,0,5,,,,,,,,,4,,,48,0
172200,note_on,24,0,2,,,,,,,,,1,,,74,58
172200,note_on,12,0,5,,,,,,,,,4,,,50,81
172200,note_on,24,0,3,,,,,,,,,2,,,77,58
172200,note_on,24,0,1,,,,,,,,,0,,,74,81
172200,note_on,48,0,4,,,,,,,,,3,,,58,58
172248,note_on,48,0,5,,,,,,,,,4,,,50,0
172260,note_on,12,0,5,,,,,,,,,4,,,48,81
172296,note_on,96,0,3,,,,,,,,,2,,,77,0
172296,note_on,96,0,4,,,,,,,,,3,,,58,0
172296,note_on,96,0,1,,,,,,,,,0,,,74,0
172296,note_on,96,0,2,,,,,,,,,1,,,74,0
172308,note_on,48,0,5,,,,,,,,,4,,,48,0
172320,note_on,24,0,4,,,,,,,,,3,,,58,58
172320,note_on,24,0,2,,,,,,,,,1,,,77,78
172320,note_on,12,0,5,,,,,,,,,4,,,46,101
172320,note_on,24,0,3,,,,,,,,,2,,,74,78
172320,note_on,24,0,1,,,,,,,,,0,,,77,101
172416,note_on,96,0,2,,,,,,,,,1,,,77,0
172416,note_on,96,0,3,,,,,,,,,2,,,74,0
172416,note_on,96,0,1,,,,,,,,,0,,,77,0
172416,note_on,96,0,5,,,,,,,,,4,,,46,0
172440,note_on,24,0,5,,,,,,,,,4,,,46,81
172440,note_on,24,0,1,,,,,,,,,0,,,74,81
172440,note_on,24,0,3,,,,,,,,,2,,,65,58
172440,note_on,24,0,2,,,,,,,,,1,,,74,58
172488,note_on,48,0,5,,,,,,,,,4,,,46,0
172500,note_on,12,0,5,,,,,,,,,4,,,48,81
172512,note_on,192,0,4,,,,,,,,,3,,,58,0
172536,note_on,96,0,3,,,,,,,,,2,,,65,0
172536,note_on,96,0,1,,,,,,,,,0,,,74,0
172536,note_on,96,0,2,,,,,,,,,1,,,74,0
172548,note_on,48,0,5,,,,,,,,,4,,,48,0
172560,note_on,24,0,1,,,,,,,,,0,,,77,81
172560,note_on,24,0,3,,,,,,,,,2,,,74,58
172560,note_on,12,0,5,,,,,,,,,4,,,50,81
172560,note_on,24,0,2,,,,,,,,,1,,,77,58
172560,note_on,48,0,4,,,,,,,,,3,,,58,58
172608,note_on,48,0,5,,,,,,,,,4,,,50,0
172620,note_on,12,0,5,,,,,,,,,4,,,46,81
172656,note_on,96,0,2,,,,,,,,,1,,,77,0
172656,note_on,96,0,4,,,,,,,,,3,,,58,0
172656,note_on,96,0,1,,,,,,,,,0,,,77,0
172656,note_on,96,0,3,,,,,,,,,2,,,74,0
172668,note_on,48,0,5,,,,,,,,,4,,,46,0
172680,note_on,12,0,5,,,,,,,,,4,,,51,101
172680,note_on,24,0,4,,,,,,,,,3,,,55,58
172680,note_on,24,0,3,,,,,,,,,2,,,70,78
172680,note_on,24,0,2,,,,,,,,,1,,,75,78
172680,note_on,24,0,1,,,,,,,,,0,,,75,101
172776,note_on,96,0,3,,,,,,,,,2,,,70,0
172776,note_on,96,0,5,,,,,,,,,4,,,51,0
172776,note_on,96,0,1,,,,,,,,,0,,,75,0
172776,note_on,96,0,2,,,,,,,,,1,,,75,0
172800,note_on,24,0,2,,,,,,,,,1,,,70,58
172800,note_on,24,0,1,,,,,,,,,0,,,70,81
172800,note_on,24,0,5,,,,,,,,,4,,,51,81
172800,note_on,24,0,3,,,,,,,,,2,,,67,58
172848,note_on,48,0,5,,,,,,,,,4,,,51,0
172860,note_on,12,0,5,,,,,,,,,4,,,53,81
172872,note_on,192,0,4,,,,,,,,,3,,,55,0
172896,note_on,96,0,2,,,,,,,,,1,,,70,0
172896,note_on,96,0,1,,,,,,,,,0,,,70,0
172896,note_on,96,0,3,,,,,,,,,2,,,67,0
172908,note_on,48,0,5,,,,,,,,,4,,,53,0
172920,note_on,24,0,2,,,,,,,,,1,,,75,58
172920,note_on,24,0,1,,,,,,,,,0,,,75,81
172920,note_on,48,0,4,,,,,,,,,3,,,55,58
172920,note_on,12,0,5,,,,,,,,,4,,,55,81
172920,note_on,24,0,3,,,,,,,,,2,,,70,58
172968,note_on,48,0,5,,,,,,,,,4,,,55,0
172980,note_on,12,0,5,,,,,,,,,4,,,53,81
173016,note_on,96,0,1,,,,,,,,,0,,,75,0
173016,note_on,96,0,2,,,,,,,,,1,,,75,0
173016,note_on,96,0,4,,,,,,,,,3,,,55,0
173016,note_on,96,0,3,,,,,,,,,2,,,70,0
173028,note_on,48,0,5,,,,,,,,,4,,,53,0
173040,note_on,24,0,3,,,,,,,,,2,,,75,78
173040,note_on,24,0,1,,,,,,,,,0,,,70,101
173040,note_on,24,0,2,,,,,,,,,1,,,70,78
173040,note_on,24,0,4,,,,,,,,,3,,,55,58
173040,note_on,12,0,5,,,,,,,,,4,,,51,101
173136,note_on,96,0,3,,,,,,,,,2,,,75,0
173136,note_on,96,0,2,,,,,,,,,1,,,70,0
173136,note_on,96,0,1,,,,,,,,,0,,,70,0
173136,note_on,96,0,5,,,,,,,,,4,,,51,0
173160,note_on,24,0,1,,,,,,,,,0,,,67,81
173160,note_on,24,0,2,,,,,,,,,1,,,67,58
173160,note_on,24,0,5,,,,,,,,,4,,,51,81
173160,note_on,24,0,3,,,,,,,,,2,,,70,58
173208,note_on,48,0,5,,,,,,,,,4,,,51,0
173220,note_on,12,0,5,,,,,,,,,4,,,53,81
173232,note_on,192,0,4,,,,,,,,,3,,,55,0
173256,note_on,96,0,1,,,,,,,,,0,,,67,0
173256,note_on,96,0,2,,,,,,,,,1,,,67,0
173256,note_on,96,0,3,,,,,,,,,2,,,70,0
173268,note_on,48,0,5,,,,,,,,,4,,,53,0
173280,note_on,24,0,2,,,,,,,,,1,,,70,58
173280,note_on,24,0,1,,,,,,,,,0,,,70,81
173280,note_on,48,0,4,,,,,,,,,3,,,55,58
173280,note_on,12,0,5,,,,,,,,,4,,,55,81
173280,note_on,24,0,3,,,,,,,,,2,,,75,58
173328,note_on,48,0,5,,,,,,,,,4,,,55,0
173340,note_on,12,0,5,,,,,,,,,4,,,53,81
173376,note_on,96,0,1,,,,,,,,,0,,,70,0
173376,note_on,96,0,4,,,,,,,,,3,,,55,0
173376,note_on,96,0,2,,,,,,,,,1,,,70,0
173376,note_on,96,0,3,,,,,,,,,2,,,75,0
173388,note_on,48,0,5,,,,,,,,,4,,,53,0
173400,note_on,24,0,3,,,,,,,,,2,,,70,78
173400,note_on,24,0,1,,,,,,,,,0,,,75,101
173400,note_on,24,0,4,,,,,,,,,3,,,55,58
173400,note_on,24,0,2,,,,,,,,,1,,,75,78
173400,note_on,12,0,5,,,,,,,,,4,,,51,101
173496,note_on,96,0,1,,,,,,,,,0,,,75,0
173496,note_on,96,0,2,,,,,,,,,1,,,75,0
173496,note_on,96,0,5,,,,,,,,,4,,,51,0
173496,note_on,96,0,3,,,,,,,,,2,,,70,0
173520,note_on,24,0,3,,,,,,,,,2,,,67,58
173520,note_on,24,0,5,,,,,,,,,4,,,51,81
173520,note_on,24,0,2,,,,,,,,,1,,,70,58
173520,note_on,24,0,1,,,,,,,,,0,,,70,81
173568,note_on,48,0,5,,,,,,,,,4,,,51,0
173580,note_on,12,0,5,,,,,,,,,4,,,53,81
173592,note_on,192,0,4,,,,,,,,,3,,,55,0
173616,note_on,96,0,3,,,,,,,,,2,,,67,0
173616,note_on,96,0,2,,,,,,,,,1,,,70,0
173616,note_on,96,0,1,,,,,,,,,0,,,70,0
173628,note_on,48,0,5,,,,,,,,,4,,,53,0
173640,note_on,24,0,1,,,,,,,,,0,,,75,81
173640,note_on,48,0,4,,,,,,,,,3,,,67,58
173640,note_on,24,0,3,,,,,,,,,2,,,70,58
173640,note_on,12,0,5,,,,,,,,,4,,,55,81
173640,note_on,24,0,2,,,,,,,,,1,,,75,58
173688,note_on,48,0,5,,,,,,,,,4,,,55,0
173700,note_on,12,0,5,,,,,,,,,4,,,51,81
173736,note_on,96,0,4,,,,,,,,,3,,,67,0
173736,note_on,96,0,2,,,,,,,,,1,,,75,0
173736,note_on,96,0,3,,,,,,,,,2,,,70,0
173736,note_on,96,0,1,,,,,,,,,0,,,75,0
173748,note_on,48,0,5,,,,,,,,,4,,,51,0
173760,note_on,24,0,3,,,,,,,,,2,,,72,78
173760,note_on,24,0,2,,,,,,,,,1,,,78,78
173760,note_on,24,0,4,,,,,,,,,3,,,69,58
173760,note_on,12,0,5,,,,,,,,,4,,,50,101
173760,note_on,24,0,1,,,,,,,,,0,,,78,101
173856,note_on,96,0,1,,,,,,,,,0,,,78,0
173856,note_on,96,0,5,,,,,,,,,4,,,50,0
173856,note_on,96,0,3,,,,,,,,,2,,,72,0
173856,note_on,96,0,2,,,,,,,,,1,,,78,0
173880,note_on,24,0,1,,,,,,,,,0,,,72,81
173880,note_on,24,0,2,,,,,,,,,1,,,72,58
173880,note_on,24,0,3,,,,,,,,,2,,,69,58
173880,note_on,24,0,5,,,,,,,,,4,,,50,81
173928,note_on,48,0,5,,,,,,,,,4,,,50,0
173940,note_on,12,0,5,,,,,,,,,4,,,52,81
173952,note_on,192,0,4,,,,,,,,,3,,,69,0
173976,note_on,96,0,1,,,,,,,,,0,,,72,0
173976,note_on,96,0,2,,,,,,,,,1,,,72,0
173976,note_on,96,0,3,,,,,,,,,2,,,69,0
173988,note_on,48,0,5,,,,,,,,,4,,,52,0
174000,note_on,12,0,5,,,,,,,,,4,,,54,81
174000,note_on,24,0,2,,,,,,,,,1,,,78,58
174000,note_on,24,0,1,,,,,,,,,0,,,78,81
174000,note_on,48,0,4,,,,,,,,,3,,,60,58
174000,note_on,24,0,3,,,,,,,,,2,,,81,58
174048,note_on,48,0,5,,,,,,,,,4,,,54,0
174060,note_on,12,0,5,,,,,,,,,4,,,52,81
174096,note_on,96,0,1,,,,,,,,,0,,,78,0
174096,note_on,96,0,3,,,,,,,,,2,,,81,0
174096,note_on,96,0,4,,,,,,,,,3,,,60,0
174096,note_on,96,0,2,,,,,,,,,1,,,78,0
174108,note_on,48,0,5,,,,,,,,,4,,,52,0
174120,note_on,12,0,5,,,,,,,,,4,,,50,101
174120,note_on,24,0,4,,,,,,,,,3,,,60,58
174120,note_on,24,0,3,,,,,,,,,2,,,78,78
174120,note_on,24,0,2,,,,,,,,,1,,,81,78
174120,note_on,24,0,1,,,,,,,,,0,,,81,101
174216,note_on,96,0,2,,,,,,,,,1,,,81,0
174216,note_on,96,0,1,,,,,,,,,0,,,81,0
174216,note_on,96,0,5,,,,,,,,,4,,,50,0
174216,note_on,96,0,3,,,,,,,,,2,,,78,0
174240,note_on,24,0,5,,,,,,,,,4,,,50,81
174240,note_on,24,0,2,,,,,,,,,1,,,78,58
174240,note_on,24,0,3,,,,,,,,,2,,,72,58
174240,note_on,24,0,1,,,,,,,,,0,,,78,81
174288,note_on,48,0,5,,,,,,,,,4,,,50,0
174300,note_on,12,0,5,,,,,,,,,4,,,52,81
174312,note_on,192,0,4,,,,,,,,,3,,,60,0
174336,note_on,96,0,2,,,,,,,,,1,,,78,0
174336,note_on,96,0,3,,,,,,,,,2,,,72,0
174336,note_on,96,0,1,,,,,,,,,0,,,78,0
174348,note_on,48,0,5,,,,,,,,,4,,,52,0
174360,note_on,24,0,2,,,,,,,,,1,,,81,58
174360,note_on,48,0,4,,,,,,,,,3,,,60,58
174360,note_on,24,0,1,,,,,,,,,0,,,81,81
174360,note_on,24,0,3,,,,,,,,,2,,,78,58
174360,note_on,12,0,5,,,,,,,,,4,,,54,81
174408,note_on,48,0,5,,,,,,,,,4,,,54,0
174420,note_on,12,0,5,,,,,,,,,4,,,52,81
174456,note_on,96,0,2,,,,,,,,,1,,,81,0
174456,note_on,96,0,4,,,,,,,,,3,,,60,0
174456,note_on,96,0,3,,,,,,,,,2,,,78,0
174456,note_on,96,0,1,,,,,,,,,0,,,81,0
174468,note_on,48,0,5,,,,,,,,,4,,,52,0
174480,note_on,24,0,4,,,,,,,,,3,,,60,58
174480,note_on,24,0,1,,,,,,,,,0,,,78,101
174480,note_on,24,0,3,,,,,,,,,2,,,81,78
174480,note_on,24,0,2,,,,,,,,,1,,,78,78
174480,note_on,12,0,5,,,,,,,,,4,,,50,101
174576,note_on,96,0,5,,,,,,,,,4,,,50,0
174576,note_on,96,0,1,,,,,,,,,0,,,78,0
174576,note_on,96,0,3,,,,,,,,,2,,,81,0
174576,note_on,96,0,2,,,,,,,,,1,,,78,0
174576,note_on,96,0,4,,,,,,,,,3,,,60,0
174600,note_on,24,0,5,,,,,,,,,4,,,50,81
174600,note_on,24,0,2,,,,,,,,,1,,,72,58
174600,note_on,24,0,4,,,,,,,,,3,,,69,58
174600,note_on,24,0,3,,,,,,,,,2,,,78,58
174600,note_on,24,0,1,,,,,,,,,0,,,72,81
174648,note_on,48,0,5,,,,,,,,,4,,,50,0
174660,note_on,12,0,5,,,,,,,,,4,,,52,81
174696,note_on,96,0,3,,,,,,,,,2,,,78,0
174696,note_on,96,0,4,,,,,,,,,3,,,69,0
174696,note_on,96,0,2,,,,,,,,,1,,,72,0
174696,note_on,96,0,1,,,,,,,,,0,,,72,0
174708,note_on,48,0,5,,,,,,,,,4,,,52,0
174720,note_on,12,0,5,,,,,,,,,4,,,54,81
174720,note_on,24,0,2,,,,,,,,,1,,,81,58
174720,note_on,24,0,4,,,,,,,,,3,,,66,58
174720,note_on,24,0,3,,,,,,,,,2,,,72,58
174720,note_on,24,0,1,,,,,,,,,0,,,81,81
174768,note_on,48,0,5,,,,,,,,,4,,,54,0
174780,note_on,12,0,5,,,,,,,,,4,,,50,81
174816,note_on,96,0,2,,,,,,,,,1,,,81,0
174816,note_on,96,0,3,,,,,,,,,2,,,72,0
174816,note_on,96,0,1,,,,,,,,,0,,,81,0
174816,note_on,96,0,4,,,,,,,,,3,,,66,0
174828,note_on,48,0,5,,,,,,,,,4,,,50,0
174840,note_on,24,0,3,,,,,,,,,2,,,70,78
174840,note_on,24,0,2,,,,,,,,,1,,,70,78
174840,note_on,24,0,1,,,,,,,,,0,,,70,101
174840,note_on,24,0,4,,,,,,,,,3,,,62,78
174840,note_on,12,0,5,,,,,,,,,4,,,43,101
174936,note_on,96,0,1,,,,,,,,,0,,,70,0
174936,note_on,96,0,2,,,,,,,,,1,,,70,0
174936,note_on,96,0,3,,,,,,,,,2,,,70,0
174936,note_on,96,0,5,,,,,,,,,4,,,43,0
174936,note_on,96,0,4,,,,,,,,,3,,,62,0
174960,note_on,24,0,2,,,,,,,,,1,,,79,58
174960,note_on,24,0,5,,,,,,,,,4,,,55,81
174960,note_on,24,0,3,,,,,,,,,2,,,79,58
174960,note_on,24,0,1,,,,,,,,,0,,,79,81
174960,note_on,24,0,4,,,,,,,,,3,,,70,58
175056,note_on,96,0,5,,,,,,,,,4,,,55,0
175056,note_on,96,0,3,,,,,,,,,2,,,79,0
175056,note_on,96,0,2,,,,,,,,,1,,,79,0
175056,note_on,96,0,4,,,,,,,,,3,,,70,0
175056,note_on,96,0,1,,,,,,,,,0,,,79,0
175080,note_on,24,0,3,,,,,,,,,2,,,82,58
175080,note_on,24,0,2,,,,,,,,,1,,,82,58
175080,note_on,24,0,5,,,,,,,,,4,,,43,81
175080,note_on,24,0,1,,,,,,,,,0,,,82,81
175080,note_on,24,0,4,,,,,,,,,3,,,67,58
175176,note_on,96,0,5,,,,,,,,,4,,,43,0
175176,note_on,96,0,3,,,,,,,,,2,,,82,0
175176,note_on,96,0,1,,,,,,,,,0,,,82,0
175176,note_on,96,0,2,,,,,,,,,1,,,82,0
175176,note_on,96,0,4,,,,,,,,,3,,,67,0
175200,note_on,24,0,2,,,,,,,,,1,,,79,78
175200,note_on,24,0,5,,,,,,,,,4,,,43,101
175200,note_on,24,0,1,,,,,,,,,0,,,79,101
175200,note_on,24,0,4,,,,,,,,,3,,,62,78
175200,note_on,24,0,3,,,,,,,,,2,,,79,78
175296,note_on,96,0,4,,,,,,,,,3,,,62,0
175296,note_on,96,0,5,,,,,,,,,4,,,43,0
175296,note_on,96,0,1,,,,,,,,,0,,,79,0
175296,note_on,96,0,2,,,,,,,,,1,,,79,0
175296,note_on,96,0,3,,,,,,,,,2,,,79,0
175320,note_on,24,0,3,,,,,,,,,2,,,74,58
175320,note_on,24,0,5,,,,,,,,,4,,,55,81
175320,note_on,24,0,2,,,,,,,,,1,,,74,58
175320,note_on,24,0,4,,,,,,,,,3,,,70,58
175320,note_on,24,0,1,,,,,,,,,0,,,74,81
175416,note_on,96,0,3,,,,,,,,,2,,,74,0
175416,note_on,96,0,5,,,,,,,,,4,,,55,0
175416,note_on,96,0,2,,,,,,,,,1,,,74,0
175416,note_on,96,0,4,,,,,,,,,3,,,70,0
175416,note_on,96,0,1,,,,,,,,,0,,,74,0
175440,note_on,24,0,2,,,,,,,,,1,,,70,58
175440,note_on,24,0,1,,,,,,,,,0,,,70,81
175440,note_on,24,0,4,,,,,,,,,3,,,67,58
175440,note_on,24,0,3,,,,,,,,,2,,,70,58
175440,note_on,24,0,5,,,,,,,,,4,,,43,81
175536,note_on,96,0,1,,,,,,,,,0,,,70,0
175536,note_on,96,0,2,,,,,,,,,1,,,70,0
175536,note_on,96,0,4,,,,,,,,,3,,,67,0
175536,note_on,96,0,3,,,,,,,,,2,,,70,0
175536,note_on,96,0,5,,,,,,,,,4,,,43,0
175560,note_on,24,0,2,,,,,,,,,1,,,67,78
175560,note_on,24,0,1,,,,,,,,,0,,,67,101
175560,note_on,24,0,4,,,,,,,,,3,,,62,78
175560,note_on,24,0,5,,,,,,,,,4,,,43,101
175560,note_on,24,0,3,,,,,,,,,2,,,67,78
175656,note_on,96,0,5,,,,,,,,,4,,,43,0
175656,note_on,96,0,1,,,,,,,,,0,,,67,0
175656,note_on,96,0,3,,,,,,,,,2,,,67,0
175656,note_on,96,0,4,,,,,,,,,3,,,62,0
175656,note_on,96,0,2,,,,,,,,,1,,,67,0
175680,note_on,24,0,5,,,,,,,,,4,,,55,81
175680,note_on,24,0,1,,,,,,,,,0,,,62,81
175680,note_on,24,0,4,,,,,,,,,3,,,58,58
175680,note_on,24,0,2,,,,,,,,,1,,,62,58
175680,note_on,24,0,3,,,,,,,,,2,,,62,58
175776,note_on,96,0,1,,,,,,,,,0,,,62,0
175776,note_on,96,0,3,,,,,,,,,2,,,62,0
175776,note_on,96,0,4,,,,,,,,,3,,,58,0
175776,note_on,96,0,5,,,,,,,,,4,,,55,0
175776,note_on,96,0,2,,,,,,,,,1,,,62,0
175800,note_on,24,0,3,,,,,,,,,2,,,58,58
175800,note_on,24,0,1,,,,,,,,,0,,,58,81
175800,note_on,24,0,5,,,,,,,,,4,,,43,81
175800,note_on,24,0,2,,,,,,,,,1,,,58,58
175800,note_on,24,0,4,,,,,,,,,3,,,55,58
175896,note_on,96,0,1,,,,,,,,,0,,,58,0
175896,note_on,96,0,3,,,,,,,,,2,,,58,0
175896,note_on,96,0,5,,,,,,,,,4,,,43,0
175896,note_on,96,0,2,,,,,,,,,1,,,58,0
175896,note_on,96,0,4,,,,,,,,,3,,,55,0
175920,note_on,24,0,3,,,,,,,,,2,,,55,58
175920,note_on,24,0,2,,,,,,,,,1,,,55,58
175920,note_on,24,0,1,,,,,,,,,0,,,62,101
175920,note_on,24,0,5,,,,,,,,,4,,,43,81
175920,note_on,24,0,4,,,,,,,,,3,,,55,58
175968,note_on,48,0,1,,,,,,,,,0,,,62,0
175980,note_on,12,0,1,,,,,,,,,0,,,70,81
176040,note_on,0,0,1,,,,,,,,,0,,,79,81
176040,note_on,60,0,1,,,,,,,,,0,,,70,0
176100,note_on,60,0,1,,,,,,,,,0,,,79,0
176100,note_on,0,0,1,,,,,,,,,0,,,82,81
176112,note_on,192,0,5,,,,,,,,,4,,,43,0
176112,note_on,192,0,3,,,,,,,,,2,,,55,0
176112,note_on,192,0,4,,,,,,,,,3,,,55,0
176112,note_on,192,0,2,,,,,,,,,1,,,55,0
176148,note_on,48,0,1,,,,,,,,,0,,,82,0
176160,note_on,12,0,1,,,,,,,,,0,,,81,81
176208,note_on,48,0,1,,,,,,,,,0,,,81,0
176220,note_on,12,0,1,,,,,,,,,0,,,79,81
176268,note_on,48,0,1,,,,,,,,,0,,,79,0
176280,note_on,168,0,5,,,,,,,,,4,,,50,81
176280,note_on,12,0,1,,,,,,,,,0,,,62,101
176328,note_on,48,0,1,,,,,,,,,0,,,62,0
176340,note_on,12,0,1,,,,,,,,,0,,,69,81
176400,note_on,0,0,1,,,,,,,,,0,,,78,81
176400,note_on,60,0,1,,,,,,,,,0,,,69,0
176460,note_on,0,0,1,,,,,,,,,0,,,81,81
176460,note_on,60,0,1,,,,,,,,,0,,,78,0
176472,note_on,192,0,5,,,,,,,,,4,,,50,0
176508,note_on,48,0,1,,,,,,,,,0,,,81,0
176520,note_on,12,0,1,,,,,,,,,0,,,79,81
176568,note_on,48,0,1,,,,,,,,,0,,,79,0
176580,note_on,12,0,1,,,,,,,,,0,,,78,81
176628,note_on,48,0,1,,,,,,,,,0,,,78,0
176640,note_on,168,0,5,,,,,,,,,4,,,43,81
176640,note_on,12,0,1,,,,,,,,,0,,,62,101
176688,note_on,48,0,1,,,,,,,,,0,,,62,0
176700,note_on,12,0,1,,,,,,,,,0,,,70,81
176760,note_on,60,0,1,,,,,,,,,0,,,70,0
176760,note_on,0,0,1,,,,,,,,,0,,,79,81
176820,note_on,60,0,1,,,,,,,,,0,,,79,0
176820,note_on,0,0,1,,,,,,,,,0,,,82,81
176832,note_on,192,0,5,,,,,,,,,4,,,43,0
176868,note_on,48,0,1,,,,,,,,,0,,,82,0
176880,note_on,12,0,1,,,,,,,,,0,,,81,81
176928,note_on,48,0,1,,,,,,,,,0,,,81,0
176940,note_on,12,0,1,,,,,,,,,0,,,79,81
176988,note_on,48,0,1,,,,,,,,,0,,,79,0
177000,note_on,168,0,5,,,,,,,,,4,,,50,81
177000,note_on,0,0,1,,,,,,,,,0,,,78,81
177000,note_on,12,0,1,,,,,,,,,0,,,62,81
177000,note_on,0,0,1,,,,,,,,,0,,,69,81
177096,note_on,96,0,5,,,,,,,,,4,,,50,0
177120,note_on,24,0,5,,,,,,,,,4,,,62,81
177192,note_on,192,0,1,,,,,,,,,0,,,78,0
177192,note_on,0,0,1,,,,,,,,,0,,,69,0
177192,note_on,0,0,1,,,,,,,,,0,,,62,0
177216,note_on,96,0,5,,,,,,,,,4,,,62,0
177240,note_on,24,0,5,,,,,,,,,4,,,50,81
177336,note_on,96,0,5,,,,,,,,,4,,,50,0
177360,note_on,168,0,1,,,,,,,,,0,,,83,101
177360,note_on,1248,0,2,,,,,,,,,1,,,67,92
177360,note_on,1248,0,3,,,,,,,,,2,,,67,92
177360,note_on,24,0,5,,,,,,,,,4,,,43,81
177408,note_on,48,0,1,,,,,,,,,0,,,83,0
177420,note_on,12,0,1,,,,,,,,,0,,,84,81
177456,note_on,96,0,3,,,,,,,,,2,,,67,0
177456,note_on,96,0,2,,,,,,,,,1,,,67,0
177468,note_on,48,0,1,,,,,,,,,0,,,84,0
177480,note_on,24,0,2,,,,,,,,,1,,,71,72
177480,note_on,24,0,3,,,,,,,,,2,,,71,72
177480,note_on,12,0,1,,,,,,,,,0,,,86,81
177528,note_on,48,0,1,,,,,,,,,0,,,86,0
177540,note_on,12,0,1,,,,,,,,,0,,,83,81
177552,note_on,192,0,5,,,,,,,,,4,,,43,0
177576,note_on,96,0,2,,,,,,,,,1,,,71,0
177576,note_on,96,0,3,,,,,,,,,2,,,71,0
177588,note_on,48,0,1,,,,,,,,,0,,,83,0
177600,note_on,24,0,3,,,,,,,,,2,,,74,72
177600,note_on,24,0,2,,,,,,,,,1,,,74,72
177600,note_on,12,0,1,,,,,,,,,0,,,77,81
177648,note_on,48,0,1,,,,,,,,,0,,,77,0
177660,note_on,12,0,1,,,,,,,,,0,,,83,81
177696,note_on,96,0,2,,,,,,,,,1,,,74,0
177696,note_on,96,0,3,,,,,,,,,2,,,74,0
177708,note_on,48,0,1,,,,,,,,,0,,,83,0
177720,note_on,12,0,1,,,,,,,,,0,,,84,101
177720,note_on,24,0,3,,,,,,,,,2,,,75,92
177720,note_on,24,0,2,,,,,,,,,1,,,75,92
177768,note_on,48,0,1,,,,,,,,,0,,,84,0
177780,note_on,12,0,1,,,,,,,,,0,,,86,81
177816,note_on,96,0,2,,,,,,,,,1,,,75,0
177816,note_on,96,0,3,,,,,,,,,2,,,75,0
177828,note_on,48,0,1,,,,,,,,,0,,,86,0
177840,note_on,12,0,1,,,,,,,,,0,,,87,81
177840,note_on,24,0,3,,,,,,,,,2,,,72,72
177840,note_on,24,0,2,,,,,,,,,1,,,72,72
177888,note_on,48,0,1,,,,,,,,,0,,,87,0
177900,note_on,12,0,1,,,,,,,,,0,,,84,81
177936,note_on,96,0,3,,,,,,,,,2,,,72,0
177936,note_on,96,0,2,,,,,,,,,1,,,72,0
177948,note_on,48,0,1,,,,,,,,,0,,,84,0
177960,note_on,24,0,2,,,,,,,,,1,,,75,72
177960,note_on,12,0,1,,,,,,,,,0,,,79,81
177960,note_on,24,0,3,,,,,,,,,2,,,75,72
178008,note_on,48,0,1,,,,,,,,,0,,,79,0
178020,note_on,12,0,1,,,,,,,,,0,,,84,81
178056,note_on,96,0,2,,,,,,,,,1,,,75,0
178056,note_on,96,0,3,,,,,,,,,2,,,75,0
178068,note_on,48,0,1,,,,,,,,,0,,,84,0
178080,note_on,24,0,2,,,,,,,,,1,,,65,92
178080,note_on,12,0,1,,,,,,,,,0,,,81,101
178080,note_on,24,0,3,,,,,,,,,2,,,65,92
178140,note_on,60,0,1,,,,,,,,,0,,,81,0
178140,note_on,0,0,1,,,,,,,,,0,,,82,81
178188,note_on,48,0,1,,,,,,,,,0,,,82,0
178200,note_on,0,0,2,,,,,,,,,1,,,69,72
178200,note_on,0,0,3,,,,,,,,,2,,,69,72
178200,note_on,120,0,3,,,,,,,,,2,,,65,0
178200,note_on,12,0,1,,,,,,,,,0,,,84,81
178200,note_on,120,0,2,,,,,,,,,1,,,65,0
178248,note_on,48,0,1,,,,,,,,,0,,,84,0
178260,note_on,12,0,1,,,,,,,,,0,,,81,81
178296,note_on,96,0,2,,,,,,,,,1,,,69,0
178296,note_on,96,0,3,,,,,,,,,2,,,69,0
178308,note_on,48,0,1,,,,,,,,,0,,,81,0
178320,note_on,24,0,2,,,,,,,,,1,,,72,72
178320,note_on,24,0,3,,,,,,,,,2,,,72,72
178320,note_on,12,0,1,,,,,,,,,0,,,75,81
178368,note_on,48,0,1,,,,,,,,,0,,,75,0
178380,note_on,12,0,1,,,,,,,,,0,,,80,81
178416,note_on,96,0,3,,,,,,,,,2,,,72,0
178416,note_on,96,0,2,,,,,,,,,1,,,72,0
178428,note_on,48,0,1,,,,,,,,,0,,,80,0
178440,note_on,24,0,3,,,,,,,,,2,,,74,92
178440,note_on,12,0,1,,,,,,,,,0,,,82,101
178440,note_on,24,0,2,,,,,,,,,1,,,74,92
178500,note_on,0,0,1,,,,,,,,,0,,,84,81
178500,note_on,60,0,1,,,,,,,,,0,,,82,0
178548,note_on,48,0,1,,,,,,,,,0,,,84,0
178560,note_on,12,0,1,,,,,,,,,0,,,86,81
178560,note_on,0,0,3,,,,,,,,,2,,,70,72
178560,note_on,0,0,2,,,,,,,,,1,,,70,72
178560,note_on,120,0,3,,,,,,,,,2,,,74,0
178560,note_on,120,0,2,,,,,,,,,1,,,74,0
178608,note_on,48,0,1,,,,,,,,,0,,,86,0
178620,note_on,12,0,1,,,,,,,,,0,,,82,81
178656,note_on,96,0,2,,,,,,,,,1,,,70,0
178656,note_on,96,0,3,,,,,,,,,2,,,70,0
178668,note_on,48,0,1,,,,,,,,,0,,,82,0
178680,note_on,24,0,3,,,,,,,,,2,,,74,72
178680,note_on,12,0,1,,,,,,,,,0,,,77,81
178680,note_on,24,0,2,,,,,,,,,1,,,74,72
178728,note_on,48,0,1,,,,,,,,,0,,,77,0
178740,note_on,12,0,1,,,,,,,,,0,,,82,81
178776,note_on,96,0,3,,,,,,,,,2,,,74,0
178776,note_on,96,0,2,,,,,,,,,1,,,74,0
178788,note_on,48,0,1,,,,,,,,,0,,,82,0
178800,note_on,24,0,2,,,,,,,,,1,,,63,92
178800,note_on,24,0,3,,,,,,,,,2,,,63,92
178800,note_on,12,0,1,,,,,,,,,0,,,79,101
178860,note_on,0,0,1,,,,,,,,,0,,,81,81
178860,note_on,60,0,1,,,,,,,,,0,,,79,0
178908,note_on,48,0,1,,,,,,,,,0,,,81,0
178920,note_on,12,0,1,,,,,,,,,0,,,82,81
178920,note_on,0,0,2,,,,,,,,,1,,,67,72
178920,note_on,120,0,3,,,,,,,,,2,,,63,0
178920,note_on,0,0,3,,,,,,,,,2,,,67,72
178920,note_on,120,0,2,,,,,,,,,1,,,63,0
178968,note_on,48,0,1,,,,,,,,,0,,,82,0
178980,note_on,12,0,1,,,,,,,,,0,,,79,81
179016,note_on,96,0,3,,,,,,,,,2,,,67,0
179016,note_on,96,0,2,,,,,,,,,1,,,67,0
179028,note_on,48,0,1,,,,,,,,,0,,,79,0
179040,note_on,24,0,2,,,,,,,,,1,,,70,72
179040,note_on,12,0,1,,,,,,,,,0,,,74,81
179040,note_on,24,0,3,,,,,,,,,2,,,70,72
179088,note_on,48,0,1,,,,,,,,,0,,,74,0
179100,note_on,12,0,1,,,,,,,,,0,,,79,81
179136,note_on,96,0,2,,,,,,,,,1,,,70,0
179136,note_on,96,0,3,,,,,,,,,2,,,70,0
179148,note_on,48,0,1,,,,,,,,,0,,,79,0
179160,note_on,24,0,2,,,,,,,,,1,,,72,92
179160,note_on,12,0,1,,,,,,,,,0,,,81,101
179160,note_on,24,0,3,,,,,,,,,2,,,72,92
179220,note_on,60,0,1,,,,,,,,,0,,,81,0
179220,note_on,0,0,1,,,,,,,,,0,,,82,81
179268,note_on,48,0,1,,,,,,,,,0,,,82,0
179280,note_on,120,0,2,,,,,,,,,1,,,72,0
179280,note_on,0,0,2,,,,,,,,,1,,,69,72
179280,note_on,12,0,1,,,,,,,,,0,,,84,81
179280,note_on,120,0,3,,,,,,,,,2,,,72,0
179280,note_on,0,0,3,,,,,,,,,2,,,69,72
179328,note_on,48,0,1,,,,,,,,,0,,,84,0
179340,note_on,12,0,1,,,,,,,,,0,,,81,81
179376,note_on,96,0,3,,,,,,,,,2,,,69,0
179376,note_on,96,0,2,,,,,,,,,1,,,69,0
179388,note_on,48,0,1,,,,,,,,,0,,,81,0
179400,note_on,24,0,2,,,,,,,,,1,,,72,72
179400,note_on,24,0,3,,,,,,,,,2,,,72,72
179400,note_on,12,0,1,,,,,,,,,0,,,75,81
179448,note_on,48,0,1,,,,,,,,,0,,,75,0
179460,note_on,12,0,1,,,,,,,,,0,,,81,81
179496,note_on,96,0,3,,,,,,,,,2,,,72,0
179496,note_on,96,0,2,,,,,,,,,1,,,72,0
179508,note_on,48,0,1,,,,,,,,,0,,,81,0
179520,note_on,24,0,3,,,,,,,,,2,,,62,92
179520,note_on,24,0,2,,,,,,,,,1,,,62,92
179520,note_on,12,0,1,,,,,,,,,0,,,78,101
179580,note_on,0,0,1,,,,,,,,,0,,,79,81
179580,note_on,60,0,1,,,,,,,,,0,,,78,0
179628,note_on,48,0,1,,,,,,,,,0,,,79,0
179640,note_on,0,0,2,,,,,,,,,1,,,74,72
179640,note_on,120,0,2,,,,,,,,,1,,,62,0
179640,note_on,12,0,1,,,,,,,,,0,,,81,81
179640,note_on,0,0,3,,,,,,,,,2,,,74,72
179640,note_on,120,0,3,,,,,,,,,2,,,62,0
179688,note_on,48,0,1,,,,,,,,,0,,,81,0
179700,note_on,12,0,1,,,,,,,,,0,,,78,81
179736,note_on,96,0,3,,,,,,,,,2,,,74,0
179736,note_on,96,0,2,,,,,,,,,1,,,74,0
179748,note_on,48,0,1,,,,,,,,,0,,,78,0
179760,note_on,24,0,2,,,,,,,,,1,,,72,72
179760,note_on,24,0,3,,,,,,,,,2,,,72,72
179760,note_on,12,0,1,,,,,,,,,0,,,74,81
179808,note_on,48,0,1,,,,,,,,,0,,,74,0
179820,note_on,12,0,1,,,,,,,,,0,,,78,81
179856,note_on,96,0,2,,,,,,,,,1,,,72,0
179856,note_on,96,0,3,,,,,,,,,2,,,72,0
179868,note_on,48,0,1,,,,,,,,,0,,,78,0
179880,note_on,12,0,1,,,,,,,,,0,,,79,101
179880,note_on,24,0,3,,,,,,,,,2,,,70,92
179880,note_on,24,0,2,,,,,,,,,1,,,70,92
179940,note_on,60,0,1,,,,,,,,,0,,,79,0
179940,note_on,0,0,1,,,,,,,,,0,,,81,81
179988,note_on,48,0,1,,,,,,,,,0,,,81,0
180000,note_on,120,0,2,,,,,,,,,1,,,70,0
180000,note_on,0,0,2,,,,,,,,,1,,,67,72
180000,note_on,120,0,3,,,,,,,,,2,,,70,0
180000,note_on,0,0,3,,,,,,,,,2,,,67,72
180000,note_on,12,0,1,,,,,,,,,0,,,82,81
180048,note_on,48,0,1,,,,,,,,,0,,,82,0
180060,note_on,12,0,1,,,,,,,,,0,,,79,81
180096,note_on,96,0,2,,,,,,,,,1,,,67,0
180096,note_on,96,0,3,,,,,,,,,2,,,67,0
180108,note_on,48,0,1,,,,,,,,,0,,,79,0
180120,note_on,12,0,1,,,,,,,,,0,,,74,81
180120,note_on,24,0,2,,,,,,,,,1,,,70,72
180120,note_on,24,0,3,,,,,,,,,2,,,70,72
180168,note_on,48,0,1,,,,,,,,,0,,,74,0
180180,note_on,12,0,1,,,,,,,,,0,,,79,81
180216,note_on,96,0,2,,,,,,,,,1,,,70,0
180216,note_on,96,0,3,,,,,,,,,2,,,70,0
180228,note_on,48,0,1,,,,,,,,,0,,,79,0
180240,note_on,24,0,2,,,,,,,,,1,,,72,92
180240,note_on,12,0,1,,,,,,,,,0,,,75,101
180240,note_on,24,0,3,,,,,,,,,2,,,72,92
180300,note_on,0,0,1,,,,,,,,,0,,,77,81
180300,note_on,60,0,1,,,,,,,,,0,,,75,0
180348,note_on,48,0,1,,,,,,,,,0,,,77,0
180360,note_on,0,0,2,,,,,,,,,1,,,60,72
180360,note_on,120,0,2,,,,,,,,,1,,,72,0
180360,note_on,120,0,3,,,,,,,,,2,,,72,0
180360,note_on,0,0,3,,,,,,,,,2,,,60,72
180360,note_on,12,0,1,,,,,,,,,0,,,79,81
180408,note_on,48,0,1,,,,,,,,,0,,,79,0
180420,note_on,12,0,1,,,,,,,,,0,,,75,81
180456,note_on,96,0,3,,,,,,,,,2,,,60,0
180456,note_on,96,0,2,,,,,,,,,1,,,60,0
180468,note_on,48,0,1,,,,,,,,,0,,,75,0
180480,note_on,12,0,1,,,,,,,,,0,,,72,81
180480,note_on,24,0,2,,,,,,,,,1,,,62,72
180480,note_on,24,0,3,,,,,,,,,2,,,62,72
180528,note_on,48,0,1,,,,,,,,,0,,,72,0
180540,note_on,12,0,1,,,,,,,,,0,,,75,81
180576,note_on,96,0,2,,,,,,,,,1,,,62,0
180576,note_on,96,0,3,,,,,,,,,2,,,62,0
180588,note_on,48,0,1,,,,,,,,,0,,,75,0
180600,note_on,24,0,3,,,,,,,,,2,,,65,92
180600,note_on,24,0,2,,,,,,,,,1,,,65,92
180600,note_on,12,0,1,,,,,,,,,0,,,69,101
180660,note_on,0,0,1,,,,,,,,,0,,,70,81
180660,note_on,60,0,1,,,,,,,,,0,,,69,0
180708,note_on,48,0,1,,,,,,,,,0,,,70,0
180720,note_on,120,0,2,,,,,,,,,1,,,65,0
180720,note_on,0,0,2,,,,,,,,,1,,,57,72
180720,note_on,0,0,3,,,,,,,,,2,,,57,72
180720,note_on,120,0,3,,,,,,,,,2,,,65,0
180720,note_on,12,0,1,,,,,,,,,0,,,72,81
180768,note_on,48,0,1,,,,,,,,,0,,,72,0
180780,note_on,12,0,1,,,,,,,,,0,,,69,81
180828,note_on,48,0,1,,,,,,,,,0,,,69,0
180840,note_on,12,0,1,,,,,,,,,0,,,65,81
180888,note_on,48,0,1,,,,,,,,,0,,,65,0
180900,note_on,12,0,1,,,,,,,,,0,,,75,81
180912,note_on,192,0,2,,,,,,,,,1,,,57,0
180912,note_on,192,0,3,,,,,,,,,2,,,57,0
180948,note_on,48,0,1,,,,,,,,,0,,,75,0
180960,note_on,12,0,1,,,,,,,,,0,,,74,101
180960,note_on,48,0,3,,,,,,,,,2,,,58,72
180960,note_on,48,0,2,,,,,,,,,1,,,58,72
181080,note_on,120,0,1,,,,,,,,,0,,,74,0
181080,note_on,0,0,1,,,,,,,,,0,,,77,81
181152,note_on,192,0,3,,,,,,,,,2,,,58,0
181152,note_on,192,0,2,,,,,,,,,1,,,58,0
181176,note_on,96,0,1,,,,,,,,,0,,,77,0
181200,note_on,24,0,1,,,,,,,,,0,,,82,81
181200,note_on,3648,0,5,,,,,,,,,4,,,58,81
181296,note_on,96,0,1,,,,,,,,,0,,,82,0
181296,note_on,96,0,5,,,,,,,,,4,,,58,0
181320,note_on,24,0,1,,,,,,,,,0,,,65,101
181320,note_on,24,0,5,,,,,,,,,4,,,65,81
181440,note_on,0,0,1,,,,,,,,,0,,,81,81
181440,note_on,120,0,1,,,,,,,,,0,,,65,0
181488,note_on,48,0,1,,,,,,,,,0,,,81,0
181500,note_on,12,0,1,,,,,,,,,0,,,79,81
181512,note_on,192,0,5,,,,,,,,,4,,,65,0
181548,note_on,48,0,1,,,,,,,,,0,,,79,0
181560,note_on,12,0,1,,,,,,,,,0,,,81,81
181656,note_on,96,0,1,,,,,,,,,0,,,81,0
181680,note_on,168,0,5,,,,,,,,,4,,,63,81
181680,note_on,24,0,1,,,,,,,,,0,,,63,101
181776,note_on,96,0,5,,,,,,,,,4,,,63,0
181800,note_on,120,0,1,,,,,,,,,0,,,63,0
181800,note_on,0,0,1,,,,,,,,,0,,,79,81
181896,note_on,96,0,1,,,,,,,,,0,,,79,0
181920,note_on,24,0,1,,,,,,,,,0,,,63,81
181920,note_on,144,0,5,,,,,,,,,4,,,63,81
182016,note_on,96,0,5,,,,,,,,,4,,,63,0
182016,note_on,96,0,1,,,,,,,,,0,,,63,0
182040,note_on,24,0,1,,,,,,,,,0,,,62,101
182040,note_on,24,0,5,,,,,,,,,4,,,62,81
182160,note_on,0,0,1,,,,,,,,,0,,,77,81
182160,note_on,120,0,1,,,,,,,,,0,,,62,0
182208,note_on,48,0,1,,,,,,,,,0,,,77,0
182220,note_on,12,0,1,,,,,,,,,0,,,75,81
182232,note_on,192,0,5,,,,,,,,,4,,,62,0
182268,note_on,48,0,1,,,,,,,,,0,,,75,0
182280,note_on,12,0,1,,,,,,,,,0,,,77,81
182376,note_on,96,0,1,,,,,,,,,0,,,77,0
182400,note_on,168,0,5,,,,,,,,,4,,,60,81
182400,note_on,24,0,1,,,,,,,,,0,,,60,101
182496,note_on,96,0,5,,,,,,,,,4,,,60,0
182520,note_on,120,0,1,,,,,,,,,0,,,60,0
182520,note_on,0,0,1,,,,,,,,,0,,,75,81
182616,note_on,96,0,1,,,,,,,,,0,,,75,0
182640,note_on,24,0,1,,,,,,,,,0,,,60,81
182640,note_on,144,0,5,,,,,,,,,4,,,60,81
182736,note_on,96,0,1,,,,,,,,,0,,,60,0
182736,note_on,96,0,5,,,,,,,,,4,,,60,0
182760,note_on,24,0,1,,,,,,,,,0,,,58,101
182760,note_on,24,0,5,,,,,,,,,4,,,58,81
182880,note_on,0,0,1,,,,,,,,,0,,,74,81
182880,note_on,120,0,1,,,,,,,,,0,,,58,0
182928,note_on,48,0,1,,,,,,,,,0,,,74,0
182940,note_on,12,0,1,,,,,,,,,0,,,72,81
182952,note_on,192,0,5,,,,,,,,,4,,,58,0
182988,note_on,48,0,1,,,,,,,,,0,,,72,0
183000,note_on,12,0,1,,,,,,,,,0,,,74,81
183096,note_on,96,0,1,,,,,,,,,0,,,74,0
183120,note_on,24,0,1,,,,,,,,,0,,,57,81
183120,note_on,168,0,5,,,,,,,,,4,,,57,81
183216,note_on,96,0,5,,,,,,,,,4,,,57,0
183216,note_on,96,0,1,,,,,,,,,0,,,57,0
183240,note_on,24,0,1,,,,,,,,,0,,,72,81
183336,note_on,96,0,1,,,,,,,,,0,,,72,0
183360,note_on,24,0,1,,,,,,,,,0,,,57,81
183360,note_on,144,0,5,,,,,,,,,4,,,57,81
183456,note_on,96,0,5,,,,,,,,,4,,,57,0
183456,note_on,96,0,1,,,,,,,,,0,,,57,0
183480,note_on,24,0,5,,,,,,,,,4,,,55,81
183480,note_on,24,0,1,,,,,,,,,0,,,55,101
183600,note_on,120,0,1,,,,,,,,,0,,,55,0
183600,note_on,0,0,1,,,,,,,,,0,,,70,81
183648,note_on,48,0,1,,,,,,,,,0,,,70,0
183660,note_on,12,0,1,,,,,,,,,0,,,69,81
183672,note_on,192,0,5,,,,,,,,,4,,,55,0
183708,note_on,48,0,1,,,,,,,,,0,,,69,0
183720,note_on,12,0,1,,,,,,,,,0,,,70,81
183816,note_on,96,0,1,,,,,,,,,0,,,70,0
183840,note_on,168,0,5,,,,,,,,,4,,,45,81
183840,note_on,24,0,1,,,,,,,,,0,,,65,81
183888,note_on,48,0,1,,,,,,,,,0,,,65,0
183900,note_on,12,0,1,,,,,,,,,0,,,67,81
183948,note_on,48,0,1,,,,,,,,,0,,,67,0
183960,note_on,12,0,1,,,,,,,,,0,,,69,81
184008,note_on,48,0,1,,,,,,,,,0,,,69,0
184020,note_on,12,0,1,,,,,,,,,0,,,70,81
184068,note_on,48,0,1,,,,,,,,,0,,,70,0
184080,note_on,12,0,1,,,,,,,,,0,,,72,81
184128,note_on,48,0,1,,,,,,,,,0,,,72,0
184140,note_on,12,0,1,,,,,,,,,0,,,74,81
184188,note_on,48,0,1,,,,,,,,,0,,,74,0
184200,note_on,12,0,1,,,,,,,,,0,,,65,81
184248,note_on,48,0,1,,,,,,,,,0,,,65,0
184260,note_on,12,0,1,,,,,,,,,0,,,75,121
184320,note_on,60,0,1,,,,,,,,,0,,,75,0
184320,note_on,0,0,1,,,,,,,,,0,,,65,81
184368,note_on,48,0,1,,,,,,,,,0,,,65,0
184380,note_on,12,0,1,,,,,,,,,0,,,74,121
184440,note_on,60,0,1,,,,,,,,,0,,,74,0
184440,note_on,0,0,1,,,,,,,,,0,,,65,81
184488,note_on,648,0,5,,,,,,,,,4,,,45,0
184488,note_on,48,0,1,,,,,,,,,0,,,65,0
184500,note_on,12,0,1,,,,,,,,,0,,,72,121
184560,note_on,0,0,1,,,,,,,,,0,,,70,121
184560,note_on,60,0,1,,,,,,,,,0,,,72,0
184560,note_on,72,0,5,,,,,,,,,4,,,46,81
184620,note_on,60,0,1,,,,,,,,,0,,,70,0
184620,note_on,0,0,1,,,,,,,,,0,,,72,81
184668,note_on,48,0,1,,,,,,,,,0,,,72,0
184680,note_on,12,0,1,,,,,,,,,0,,,74,81
184728,note_on,48,0,1,,,,,,,,,0,,,74,0
184740,note_on,12,0,1,,,,,,,,,0,,,75,81
184788,note_on,48,0,1,,,,,,,,,0,,,75,0
184800,note_on,12,0,1,,,,,,,,,0,,,77,81
184848,note_on,48,0,1,,,,,,,,,0,,,77,0
184860,note_on,12,0,1,,,,,,,,,0,,,79,81
184908,note_on,48,0,1,,,,,,,,,0,,,79,0
184920,note_on,12,0,1,,,,,,,,,0,,,70,81
184968,note_on,48,0,1,,,,,,,,,0,,,70,0
184980,note_on,12,0,1,,,,,,,,,0,,,80,121
185040,note_on,60,0,1,,,,,,,,,0,,,80,0
185040,note_on,0,0,1,,,,,,,,,0,,,70,81
185088,note_on,48,0,1,,,,,,,,,0,,,70,0
185100,note_on,12,0,1,,,,,,,,,0,,,79,121
185160,note_on,0,0,1,,,,,,,,,0,,,70,81
185160,note_on,60,0,1,,,,,,,,,0,,,79,0
185208,note_on,648,0,5,,,,,,,,,4,,,46,0
185208,note_on,48,0,1,,,,,,,,,0,,,70,0
185220,note_on,12,0,1,,,,,,,,,0,,,77,121
185280,note_on,0,0,1,,,,,,,,,0,,,63,121
185280,note_on,60,0,1,,,,,,,,,0,,,77,0
185280,note_on,72,0,5,,,,,,,,,4,,,51,81
185340,note_on,0,0,1,,,,,,,,,0,,,65,81
185340,note_on,60,0,1,,,,,,,,,0,,,63,0
185388,note_on,48,0,1,,,,,,,,,0,,,65,0
185400,note_on,12,0,1,,,,,,,,,0,,,67,81
185448,note_on,48,0,1,,,,,,,,,0,,,67,0
185460,note_on,12,0,1,,,,,,,,,0,,,68,81
185508,note_on,48,0,1,,,,,,,,,0,,,68,0
185520,note_on,12,0,1,,,,,,,,,0,,,70,81
185568,note_on,48,0,1,,,,,,,,,0,,,70,0
185580,note_on,12,0,1,,,,,,,,,0,,,72,81
185628,note_on,48,0,1,,,,,,,,,0,,,72,0
185640,note_on,12,0,1,,,,,,,,,0,,,63,81
185688,note_on,48,0,1,,,,,,,,,0,,,63,0
185700,note_on,12,0,1,,,,,,,,,0,,,73,121
185760,note_on,60,0,1,,,,,,,,,0,,,73,0
185760,note_on,0,0,1,,,,,,,,,0,,,63,81
185808,note_on,48,0,1,,,,,,,,,0,,,63,0
185820,note_on,12,0,1,,,,,,,,,0,,,72,121
185880,note_on,60,0,1,,,,,,,,,0,,,72,0
185880,note_on,0,0,1,,,,,,,,,0,,,63,81
185928,note_on,648,0,5,,,,,,,,,4,,,51,0
185928,note_on,48,0,1,,,,,,,,,0,,,63,0
185940,note_on,12,0,1,,,,,,,,,0,,,70,121
186000,note_on,60,0,1,,,,,,,,,0,,,70,0
186000,note_on,0,0,1,,,,,,,,,0,,,72,121
186000,note_on,72,0,5,,,,,,,,,4,,,56,81
186060,note_on,60,0,1,,,,,,,,,0,,,72,0
186060,note_on,0,0,1,,,,,,,,,0,,,74,81
186108,note_on,48,0,1,,,,,,,,,0,,,74,0
186120,note_on,12,0,1,,,,,,,,,0,,,75,81
186168,note_on,48,0,1,,,,,,,,,0,,,75,0
186180,note_on,12,0,1,,,,,,,,,0,,,74,81
186192,note_on,192,0,5,,,,,,,,,4,,,56,0
186228,note_on,48,0,1,,,,,,,,,0,,,74,0
186240,note_on,12,0,1,,,,,,,,,0,,,75,81
186240,note_on,48,0,5,,,,,,,,,4,,,67,81
186288,note_on,48,0,1,,,,,,,,,0,,,75,0
186300,note_on,12,0,1,,,,,,,,,0,,,67,81
186336,note_on,96,0,5,,,,,,,,,4,,,67,0
186348,note_on,48,0,1,,,,,,,,,0,,,67,0
186360,note_on,24,0,5,,,,,,,,,4,,,65,81
186360,note_on,12,0,1,,,,,,,,,0,,,65,121
186420,note_on,0,0,1,,,,,,,,,0,,,75,81
186420,note_on,60,0,1,,,,,,,,,0,,,65,0
186456,note_on,96,0,5,,,,,,,,,4,,,65,0
186468,note_on,48,0,1,,,,,,,,,0,,,75,0
186480,note_on,12,0,1,,,,,,,,,0,,,74,81
186528,note_on,48,0,1,,,,,,,,,0,,,74,0
186540,note_on,12,0,1,,,,,,,,,0,,,72,81
186588,note_on,48,0,1,,,,,,,,,0,,,72,0
186600,note_on,12,0,1,,,,,,,,,0,,,74,81
186600,note_on,144,0,5,,,,,,,,,4,,,65,81
186648,note_on,48,0,1,,,,,,,,,0,,,74,0
186660,note_on,12,0,1,,,,,,,,,0,,,65,81
186696,note_on,96,0,5,,,,,,,,,4,,,65,0
186708,note_on,48,0,1,,,,,,,,,0,,,65,0
186720,note_on,24,0,5,,,,,,,,,4,,,63,81
186720,note_on,12,0,1,,,,,,,,,0,,,63,121
186780,note_on,60,0,1,,,,,,,,,0,,,63,0
186780,note_on,0,0,1,,,,,,,,,0,,,74,81
186816,note_on,96,0,5,,,,,,,,,4,,,63,0
186828,note_on,48,0,1,,,,,,,,,0,,,74,0
186840,note_on,12,0,1,,,,,,,,,0,,,72,81
186888,note_on,48,0,1,,,,,,,,,0,,,72,0
186900,note_on,12,0,1,,,,,,,,,0,,,70,81
186948,note_on,48,0,1,,,,,,,,,0,,,70,0
186960,note_on,144,0,5,,,,,,,,,4,,,63,81
186960,note_on,12,0,1,,,,,,,,,0,,,72,81
187008,note_on,48,0,1,,,,,,,,,0,,,72,0
187020,note_on,12,0,1,,,,,,,,,0,,,63,81
187056,note_on,96,0,5,,,,,,,,,4,,,63,0
187068,note_on,48,0,1,,,,,,,,,0,,,63,0
187080,note_on,12,0,1,,,,,,,,,0,,,62,121
187080,note_on,24,0,5,,,,,,,,,4,,,62,81
187140,note_on,0,0,1,,,,,,,,,0,,,72,81
187140,note_on,60,0,1,,,,,,,,,0,,,62,0
187176,note_on,96,0,5,,,,,,,,,4,,,62,0
187188,note_on,48,0,1,,,,,,,,,0,,,72,0
187200,note_on,12,0,1,,,,,,,,,0,,,70,81
187248,note_on,48,0,1,,,,,,,,,0,,,70,0
187260,note_on,12,0,1,,,,,,,,,0,,,68,81
187308,note_on,48,0,1,,,,,,,,,0,,,68,0
187320,note_on,144,0,5,,,,,,,,,4,,,62,81
187320,note_on,12,0,1,,,,,,,,,0,,,70,81
187368,note_on,48,0,1,,,,,,,,,0,,,70,0
187380,note_on,12,0,1,,,,,,,,,0,,,62,81
187416,note_on,96,0,5,,,,,,,,,4,,,62,0
187428,note_on,48,0,1,,,,,,,,,0,,,62,0
187440,note_on,24,0,5,,,,,,,,,4,,,60,81
187440,note_on,12,0,1,,,,,,,,,0,,,60,121
187500,note_on,0,0,1,,,,,,,,,0,,,70,81
187500,note_on,60,0,1,,,,,,,,,0,,,60,0
187536,note_on,96,0,5,,,,,,,,,4,,,60,0
187548,note_on,48,0,1,,,,,,,,,0,,,70,0
187560,note_on,12,0,1,,,,,,,,,0,,,68,81
187608,note_on,48,0,1,,,,,,,,,0,,,68,0
187620,note_on,12,0,1,,,,,,,,,0,,,67,81
187668,note_on,48,0,1,,,,,,,,,0,,,67,0
187680,note_on,12,0,1,,,,,,,,,0,,,68,81
187680,note_on,144,0,5,,,,,,,,,4,,,60,81
187728,note_on,48,0,1,,,,,,,,,0,,,68,0
187740,note_on,12,0,1,,,,,,,,,0,,,60,81
187776,note_on,96,0,5,,,,,,,,,4,,,60,0
187788,note_on,48,0,1,,,,,,,,,0,,,60,0
187800,note_on,24,0,5,,,,,,,,,4,,,58,81
187800,note_on,12,0,1,,,,,,,,,0,,,58,81
187848,note_on,48,0,1,,,,,,,,,0,,,58,0
187860,note_on,12,0,1,,,,,,,,,0,,,68,81
187896,note_on,96,0,5,,,,,,,,,4,,,58,0
187908,note_on,48,0,1,,,,,,,,,0,,,68,0
187920,note_on,12,0,1,,,,,,,,,0,,,67,81
187968,note_on,48,0,1,,,,,,,,,0,,,67,0
187980,note_on,12,0,1,,,,,,,,,0,,,65,81
188028,note_on,48,0,1,,,,,,,,,0,,,65,0
188040,note_on,12,0,1,,,,,,,,,0,,,67,81
188040,note_on,144,0,5,,,,,,,,,4,,,58,81
188088,note_on,48,0,1,,,,,,,,,0,,,67,0
188100,note_on,12,0,1,,,,,,,,,0,,,58,81
188136,note_on,96,0,5,,,,,,,,,4,,,58,0
188148,note_on,48,0,1,,,,,,,,,0,,,58,0
188160,note_on,24,0,5,,,,,,,,,4,,,56,81
188160,note_on,12,0,1,,,,,,,,,0,,,56,121
188220,note_on,60,0,1,,,,,,,,,0,,,56,0
188220,note_on,0,0,1,,,,,,,,,0,,,67,81
188256,note_on,96,0,5,,,,,,,,,4,,,56,0
188268,note_on,48,0,1,,,,,,,,,0,,,67,0
188280,note_on,12,0,1,,,,,,,,,0,,,65,81
188328,note_on,48,0,1,,,,,,,,,0,,,65,0
188340,note_on,12,0,1,,,,,,,,,0,,,63,81
188388,note_on,48,0,1,,,,,,,,,0,,,63,0
188400,note_on,144,0,5,,,,,,,,,4,,,56,81
188400,note_on,12,0,1,,,,,,,,,0,,,65,81
188448,note_on,48,0,1,,,,,,,,,0,,,65,0
188460,note_on,12,0,1,,,,,,,,,0,,,56,81
188496,note_on,96,0,5,,,,,,,,,4,,,56,0
188508,note_on,48,0,1,,,,,,,,,0,,,56,0
188520,note_on,12,0,1,,,,,,,,,0,,,55,121
188520,note_on,24,0,5,,,,,,,,,4,,,51,121
188520,note_on,12408,0,4,,,,,,,,,3,,,63,98
188520,note_on,7368,0,2,,,,,,,,,1,,,63,112
188520,note_on,7368,0,3,,,,,,,,,2,,,63,112
188640,note_on,120,0,4,,,,,,,,,3,,,63,0
188640,note_on,120,0,3,,,,,,,,,2,,,63,0
188640,note_on,0,0,2,,,,,,,,,1,,,75,72
188640,note_on,120,0,1,,,,,,,,,0,,,55,0
188640,note_on,0,0,1,,,,,,,,,0,,,75,81
188640,note_on,0,0,3,,,,,,,,,2,,,75,72
188640,note_on,120,0,2,,,,,,,,,1,,,63,0
188640,note_on,0,0,4,,,,,,,,,3,,,75,58
188640,note_on,120,0,5,,,,,,,,,4,,,51,0
188640,note_on,0,0,5,,,,,,,,,4,,,63,81
188736,note_on,96,0,2,,,,,,,,,1,,,75,0
188736,note_on,96,0,3,,,,,,,,,2,,,75,0
188736,note_on,96,0,4,,,,,,,,,3,,,75,0
188736,note_on,96,0,1,,,,,,,,,0,,,75,0
188736,note_on,96,0,5,,,,,,,,,4,,,63,0
188760,note_on,24,0,4,,,,,,,,,3,,,63,58
188760,note_on,24,0,5,,,,,,,,,4,,,51,81
188760,note_on,24,0,2,,,,,,,,,1,,,63,72
188760,note_on,24,0,1,,,,,,,,,0,,,56,81
188760,note_on,24,0,3,,,,,,,,,2,,,63,72
188856,note_on,96,0,1,,,,,,,,,0,,,56,0
188856,note_on,96,0,2,,,,,,,,,1,,,63,0
188856,note_on,96,0,5,,,,,,,,,4,,,51,0
188856,note_on,96,0,3,,,,,,,,,2,,,63,0
188856,note_on,96,0,4,,,,,,,,,3,,,63,0
188880,note_on,24,0,3,,,,,,,,,2,,,62,112
188880,note_on,24,0,2,,,,,,,,,1,,,62,112
188880,note_on,24,0,5,,,,,,,,,4,,,50,121
188880,note_on,24,0,1,,,,,,,,,0,,,62,121
188880,note_on,24,0,4,,,,,,,,,3,,,62,98
189000,note_on,120,0,4,,,,,,,,,3,,,62,0
189000,note_on,0,0,3,,,,,,,,,2,,,74,72
189000,note_on,120,0,1,,,,,,,,,0,,,62,0
189000,note_on,0,0,1,,,,,,,,,0,,,74,81
189000,note_on,0,0,4,,,,,,,,,3,,,74,58
189000,note_on,120,0,2,,,,,,,,,1,,,62,0
189000,note_on,0,0,2,,,,,,,,,1,,,74,72
189000,note_on,120,0,3,,,,,,,,,2,,,62,0
189000,note_on,0,0,5,,,,,,,,,4,,,62,81
189000,note_on,120,0,5,,,,,,,,,4,,,50,0
189096,note_on,96,0,5,,,,,,,,,4,,,62,0
189096,note_on,96,0,1,,,,,,,,,0,,,74,0
189096,note_on,96,0,2,,,,,,,,,1,,,74,0
189096,note_on,96,0,4,,,,,,,,,3,,,74,0
189096,note_on,96,0,3,,,,,,,,,2,,,74,0
189120,note_on,24,0,4,,,,,,,,,3,,,62,58
189120,note_on,24,0,5,,,,,,,,,4,,,50,81
189120,note_on,24,0,2,,,,,,,,,1,,,62,72
189120,note_on,24,0,1,,,,,,,,,0,,,62,81
189120,note_on,24,0,3,,,,,,,,,2,,,62,72
189216,note_on,96,0,2,,,,,,,,,1,,,62,0
189216,note_on,96,0,3,,,,,,,,,2,,,62,0
189216,note_on,96,0,5,,,,,,,,,4,,,50,0
189216,note_on,96,0,1,,,,,,,,,0,,,62,0
189216,note_on,96,0,4,,,,,,,,,3,,,62,0
189240,note_on,24,0,1,,,,,,,,,0,,,60,121
189240,note_on,24,0,5,,,,,,,,,4,,,48,121
189240,note_on,24,0,3,,,,,,,,,2,,,60,112
189240,note_on,24,0,4,,,,,,,,,3,,,60,98
189240,note_on,24,0,2,,,,,,,,,1,,,60,112
189360,note_on,120,0,4,,,,,,,,,3,,,60,0
189360,note_on,0,0,1,,,,,,,,,0,,,72,81
189360,note_on,120,0,1,,,,,,,,,0,,,60,0
189360,note_on,120,0,5,,,,,,,,,4,,,48,0
189360,note_on,0,0,5,,,,,,,,,4,,,60,81
189360,note_on,120,0,3,,,,,,,,,2,,,60,0
189360,note_on,120,0,2,,,,,,,,,1,,,60,0
189360,note_on,0,0,3,,,,,,,,,2,,,72,72
189360,note_on,0,0,4,,,,,,,,,3,,,72,58
189360,note_on,0,0,2,,,,,,,,,1,,,72,72
189456,note_on,96,0,2,,,,,,,,,1,,,72,0
189456,note_on,96,0,3,,,,,,,,,2,,,72,0
189456,note_on,96,0,1,,,,,,,,,0,,,72,0
189456,note_on,96,0,4,,,,,,,,,3,,,72,0
189456,note_on,96,0,5,,,,,,,,,4,,,60,0
189480,note_on,24,0,2,,,,,,,,,1,,,60,72
189480,note_on,24,0,1,,,,,,,,,0,,,60,81
189480,note_on,24,0,3,,,,,,,,,2,,,60,72
189480,note_on,24,0,4,,,,,,,,,3,,,60,58
189480,note_on,24,0,5,,,,,,,,,4,,,48,81
189576,note_on,96,0,1,,,,,,,,,0,,,60,0
189576,note_on,96,0,4,,,,,,,,,3,,,60,0
189576,note_on,96,0,5,,,,,,,,,4,,,48,0
189576,note_on,96,0,2,,,,,,,,,1,,,60,0
189576,note_on,96,0,3,,,,,,,,,2,,,60,0
189600,note_on,24,0,4,,,,,,,,,3,,,58,98
189600,note_on,24,0,2,,,,,,,,,1,,,58,112
189600,note_on,24,0,3,,,,,,,,,2,,,58,112
189600,note_on,24,0,1,,,,,,,,,0,,,58,121
189600,note_on,24,0,5,,,,,,,,,4,,,46,121
189720,note_on,120,0,1,,,,,,,,,0,,,58,0
189720,note_on,0,0,1,,,,,,,,,0,,,70,81
189720,note_on,0,0,2,,,,,,,,,1,,,70,72
189720,note_on,0,0,3,,,,,,,,,2,,,70,72
189720,note_on,0,0,4,,,,,,,,,3,,,70,58
189720,note_on,120,0,2,,,,,,,,,1,,,58,0
189720,note_on,120,0,4,,,,,,,,,3,,,58,0
189720,note_on,120,0,5,,,,,,,,,4,,,46,0
189720,note_on,0,0,5,,,,,,,,,4,,,58,81
189720,note_on,120,0,3,,,,,,,,,2,,,58,0
189816,note_on,96,0,4,,,,,,,,,3,,,70,0
189816,note_on,96,0,2,,,,,,,,,1,,,70,0
189816,note_on,96,0,1,,,,,,,,,0,,,70,0
189816,note_on,96,0,5,,,,,,,,,4,,,58,0
189816,note_on,96,0,3,,,,,,,,,2,,,70,0
189840,note_on,24,0,4,,,,,,,,,3,,,58,58
189840,note_on,24,0,1,,,,,,,,,0,,,58,81
189840,note_on,24,0,5,,,,,,,,,4,,,46,81
189840,note_on,24,0,2,,,,,,,,,1,,,58,72
189840,note_on,24,0,3,,,,,,,,,2,,,58,72
189936,note_on,96,0,5,,,,,,,,,4,,,46,0
189936,note_on,96,0,3,,,,,,,,,2,,,58,0
189936,note_on,96,0,1,,,,,,,,,0,,,58,0
189936,note_on,96,0,4,,,,,,,,,3,,,58,0
189936,note_on,96,0,2,,,,,,,,,1,,,58,0
189960,note_on,24,0,5,,,,,,,,,4,,,44,121
189960,note_on,24,0,3,,,,,,,,,2,,,56,72
189960,note_on,24,0,1,,,,,,,,,0,,,56,121
189960,note_on,24,0,2,,,,,,,,,1,,,56,112
189960,note_on,24,0,4,,,,,,,,,3,,,56,98
190056,note_on,96,0,3,,,,,,,,,2,,,56,0
190080,note_on,24,0,3,,,,,,,,,2,,,68,72
190080,note_on,0,0,2,,,,,,,,,1,,,68,72
190080,note_on,120,0,2,,,,,,,,,1,,,56,0
190080,note_on,120,0,4,,,,,,,,,3,,,56,0
190080,note_on,0,0,4,,,,,,,,,3,,,68,58
190080,note_on,120,0,5,,,,,,,,,4,,,44,0
190080,note_on,0,0,5,,,,,,,,,4,,,56,81
190080,note_on,0,0,1,,,,,,,,,0,,,68,81
190080,note_on,120,0,1,,,,,,,,,0,,,56,0
190176,note_on,96,0,4,,,,,,,,,3,,,68,0
190176,note_on,96,0,1,,,,,,,,,0,,,68,0
190176,note_on,96,0,3,,,,,,,,,2,,,68,0
190176,note_on,96,0,2,,,,,,,,,1,,,68,0
190176,note_on,96,0,5,,,,,,,,,4,,,56,0
190200,note_on,24,0,1,,,,,,,,,0,,,56,81
190200,note_on,24,0,2,,,,,,,,,1,,,56,72
190200,note_on,24,0,4,,,,,,,,,3,,,56,58
190200,note_on,24,0,3,,,,,,,,,2,,,56,72
190200,note_on,24,0,5,,,,,,,,,4,,,44,81
190296,note_on,96,0,3,,,,,,,,,2,,,56,0
190296,note_on,96,0,5,,,,,,,,,4,,,44,0
190296,note_on,96,0,1,,,,,,,,,0,,,56,0
190296,note_on,96,0,2,,,,,,,,,1,,,56,0
190296,note_on,96,0,4,,,,,,,,,3,,,56,0
190320,note_on,24,0,3,,,,,,,,,2,,,55,72
190320,note_on,24,0,4,,,,,,,,,3,,,55,58
190320,note_on,24,0,2,,,,,,,,,1,,,55,72
190320,note_on,24,0,1,,,,,,,,,0,,,79,121
190320,note_on,24,0,5,,,,,,,,,4,,,43,81
190440,note_on,120,0,1,,,,,,,,,0,,,79,0
190440,note_on,0,0,1,,,,,,,,,0,,,80,81
190512,note_on,192,0,3,,,,,,,,,2,,,55,0
190512,note_on,192,0,4,,,,,,,,,3,,,55,0
190512,note_on,192,0,5,,,,,,,,,4,,,43,0
190512,note_on,192,0,2,,,,,,,,,1,,,55,0
190560,note_on,48,0,5,,,,,,,,,4,,,51,81
190560,note_on,0,0,1,,,,,,,,,0,,,82,81
190560,note_on,120,0,1,,,,,,,,,0,,,80,0
190656,note_on,96,0,5,,,,,,,,,4,,,51,0
190680,note_on,24,0,5,,,,,,,,,4,,,56,81
190680,note_on,0,0,1,,,,,,,,,0,,,60,121
190680,note_on,120,0,1,,,,,,,,,0,,,82,0
190800,note_on,0,0,1,,,,,,,,,0,,,65,81
190800,note_on,120,0,1,,,,,,,,,0,,,60,0
190920,note_on,120,0,1,,,,,,,,,0,,,65,0
190920,note_on,0,0,1,,,,,,,,,0,,,68,81
190968,note_on,288,0,5,,,,,,,,,4,,,56,0
191040,note_on,120,0,1,,,,,,,,,0,,,68,0
191040,note_on,72,0,5,,,,,,,,,4,,,50,81
191040,note_on,0,0,1,,,,,,,,,0,,,77,121
191160,note_on,0,0,1,,,,,,,,,0,,,79,81
191160,note_on,120,0,1,,,,,,,,,0,,,77,0
191280,note_on,120,0,1,,,,,,,,,0,,,79,0
191280,note_on,0,0,1,,,,,,,,,0,,,80,81
191328,note_on,288,0,5,,,,,,,,,4,,,50,0
191400,note_on,72,0,5,,,,,,,,,4,,,55,81
191400,note_on,120,0,1,,,,,,,,,0,,,80,0
191400,note_on,0,0,1,,,,,,,,,0,,,58,121
191520,note_on,120,0,1,,,,,,,,,0,,,58,0
191520,note_on,0,0,1,,,,,,,,,0,,,63,81
191640,note_on,120,0,1,,,,,,,,,0,,,63,0
191640,note_on,0,0,1,,,,,,,,,0,,,67,81
191688,note_on,288,0,5,,,,,,,,,4,,,55,0
191760,note_on,120,0,1,,,,,,,,,0,,,67,0
191760,note_on,0,0,1,,,,,,,,,0,,,75,121
191760,note_on,72,0,5,,,,,,,,,4,,,48,81
191880,note_on,120,0,1,,,,,,,,,0,,,75,0
191880,note_on,0,0,1,,,,,,,,,0,,,77,81
192000,note_on,120,0,1,,,,,,,,,0,,,77,0
192000,note_on,0,0,1,,,,,,,,,0,,,79,81
192048,note_on,288,0,5,,,,,,,,,4,,,48,0
192120,note_on,0,0,1,,,,,,,,,0,,,56,121
192120,note_on,72,0,5,,,,,,,,,4,,,53,81
192120,note_on,120,0,1,,,,,,,,,0,,,79,0
192240,note_on,120,0,1,,,,,,,,,0,,,56,0
192240,note_on,0,0,1,,,,,,,,,0,,,62,81
192360,note_on,120,0,1,,,,,,,,,0,,,62,0
192360,note_on,0,0,1,,,,,,,,,0,,,65,81
192408,note_on,288,0,5,,,,,,,,,4,,,53,0
192480,note_on,120,0,1,,,,,,,,,0,,,65,0
192480,note_on,0,0,1,,,,,,,,,0,,,74,121
192480,note_on,72,0,5,,,,,,,,,4,,,46,81
192600,note_on,0,0,1,,,,,,,,,0,,,75,81
192600,note_on,120,0,1,,,,,,,,,0,,,74,0
192720,note_on,120,0,1,,,,,,,,,0,,,75,0
192720,note_on,0,0,1,,,,,,,,,0,,,77,81
192768,note_on,288,0,5,,,,,,,,,4,,,46,0
192840,note_on,72,0,5,,,,,,,,,4,,,51,121
192840,note_on,2328,0,3,,,,,,,,,2,,,63,112
192840,note_on,2328,0,2,,,,,,,,,1,,,63,72
192840,note_on,2328,0,4,,,,,,,,,3,,,63,98
192840,note_on,0,0,1,,,,,,,,,0,,,55,81
192840,note_on,120,0,1,,,,,,,,,0,,,77,0
192936,note_on,96,0,2,,,,,,,,,1,,,63,0
192960,note_on,0,0,3,,,,,,,,,2,,,75,72
192960,note_on,0,0,5,,,,,,,,,4,,,63,81
192960,note_on,120,0,5,,,,,,,,,4,,,51,0
192960,note_on,0,0,4,,,,,,,,,3,,,75,58
192960,note_on,24,0,2,,,,,,,,,1,,,75,72
192960,note_on,120,0,4,,,,,,,,,3,,,63,0
192960,note_on,120,0,3,,,,,,,,,2,,,63,0
193032,note_on,192,0,1,,,,,,,,,0,,,55,0
193056,note_on,96,0,2,,,,,,,,,1,,,75,0
193056,note_on,96,0,4,,,,,,,,,3,,,75,0
193056,note_on,96,0,3,,,,,,,,,2,,,75,0
193056,note_on,96,0,5,,,,,,,,,4,,,63,0
193080,note_on,24,0,3,,,,,,,,,2,,,63,72
193080,note_on,24,0,4,,,,,,,,,3,,,63,58
193080,note_on,24,0,5,,,,,,,,,4,,,51,81
193080,note_on,24,0,2,,,,,,,,,1,,,63,72
193176,note_on,96,0,3,,,,,,,,,2,,,63,0
193176,note_on,96,0,4,,,,,,,,,3,,,63,0
193176,note_on,96,0,5,,,,,,,,,4,,,51,0
193176,note_on,96,0,2,,,,,,,,,1,,,63,0
193200,note_on,24,0,4,,,,,,,,,3,,,63,58
193200,note_on,24,0,3,,,,,,,,,2,,,63,72
193200,note_on,24,0,5,,,,,,,,,4,,,51,121
193200,note_on,24,0,2,,,,,,,,,1,,,63,72
193200,note_on,168,0,1,,,,,,,,,0,,,63,121
193260,note_on,60,0,1,,,,,,,,,0,,,63,0
193260,note_on,0,0,1,,,,,,,,,0,,,75,81
193308,note_on,48,0,1,,,,,,,,,0,,,75,0
193320,note_on,12,0,1,,,,,,,,,0,,,63,81
193320,note_on,120,0,5,,,,,,,,,4,,,51,0
193320,note_on,0,0,5,,,,,,,,,4,,,51,81
193368,note_on,48,0,1,,,,,,,,,0,,,63,0
193380,note_on,12,0,1,,,,,,,,,0,,,75,81
193392,note_on,192,0,4,,,,,,,,,3,,,63,0
193392,note_on,192,0,2,,,,,,,,,1,,,63,0
193392,note_on,192,0,3,,,,,,,,,2,,,63,0
193416,note_on,96,0,5,,,,,,,,,4,,,51,0
193428,note_on,48,0,1,,,,,,,,,0,,,75,0
193440,note_on,24,0,5,,,,,,,,,4,,,51,81
193440,note_on,12,0,1,,,,,,,,,0,,,63,81
193488,note_on,48,0,1,,,,,,,,,0,,,63,0
193500,note_on,12,0,1,,,,,,,,,0,,,75,81
193536,note_on,96,0,5,,,,,,,,,4,,,51,0
193548,note_on,48,0,1,,,,,,,,,0,,,75,0
193560,note_on,12,0,1,,,,,,,,,0,,,63,121
193560,note_on,24,0,5,,,,,,,,,4,,,51,121
193620,note_on,0,0,1,,,,,,,,,0,,,73,81
193620,note_on,60,0,1,,,,,,,,,0,,,63,0
193668,note_on,48,0,1,,,,,,,,,0,,,73,0
193680,note_on,12,0,1,,,,,,,,,0,,,63,81
193680,note_on,0,0,5,,,,,,,,,4,,,51,81
193680,note_on,120,0,5,,,,,,,,,4,,,51,0
193728,note_on,48,0,1,,,,,,,,,0,,,63,0
193740,note_on,12,0,1,,,,,,,,,0,,,73,81
193776,note_on,96,0,5,,,,,,,,,4,,,51,0
193788,note_on,48,0,1,,,,,,,,,0,,,73,0
193800,note_on,24,0,5,,,,,,,,,4,,,51,81
193800,note_on,12,0,1,,,,,,,,,0,,,63,81
193848,note_on,48,0,1,,,,,,,,,0,,,63,0
193860,note_on,12,0,1,,,,,,,,,0,,,73,81
193896,note_on,96,0,5,,,,,,,,,4,,,51,0
193908,note_on,48,0,1,,,,,,,,,0,,,73,0
193920,note_on,12,0,1,,,,,,,,,0,,,63,101
193980,note_on,0,0,1,,,,,,,,,0,,,72,81
193980,note_on,60,0,1,,,,,,,,,0,,,63,0
194028,note_on,48,0,1,,,,,,,,,0,,,72,0
194040,note_on,12,0,1,,,,,,,,,0,,,63,81
194088,note_on,48,0,1,,,,,,,,,0,,,63,0
194100,note_on,12,0,1,,,,,,,,,0,,,72,81
194148,note_on,48,0,1,,,,,,,,,0,,,72,0
194160,note_on,12,0,1,,,,,,,,,0,,,63,81
194208,note_on,48,0,1,,,,,,,,,0,,,63,0
194220,note_on,12,0,1,,,,,,,,,0,,,72,81
194268,note_on,48,0,1,,,,,,,,,0,,,72,0
194280,note_on,12,0,1,,,,,,,,,0,,,63,101
194340,note_on,0,0,1,,,,,,,,,0,,,70,81
194340,note_on,60,0,1,,,,,,,,,0,,,63,0
194388,note_on,48,0,1,,,,,,,,,0,,,70,0
194400,note_on,12,0,1,,,,,,,,,0,,,63,81
194448,note_on,48,0,1,,,,,,,,,0,,,63,0
194460,note_on,12,0,1,,,,,,,,,0,,,70,81
194508,note_on,48,0,1,,,,,,,,,0,,,70,0
194520,note_on,12,0,1,,,,,,,,,0,,,63,81
194568,note_on,48,0,1,,,,,,,,,0,,,63,0
194580,note_on,12,0,1,,,,,,,,,0,,,70,81
194628,note_on,48,0,1,,,,,,,,,0,,,70,0
194640,note_on,1248,0,2,,,,,,,,,1,,,58,92
194640,note_on,1248,0,4,,,,,,,,,3,,,58,92
194640,note_on,1248,0,3,,,,,,,,,2,,,58,92
194640,note_on,12,0,1,,,,,,,,,0,,,70,92
194700,note_on,60,0,1,,,,,,,,,0,,,70,0
194700,note_on,0,0,1,,,,,,,,,0,,,82,72
194748,note_on,48,0,1,,,,,,,,,0,,,82,0
194760,note_on,120,0,2,,,,,,,,,1,,,58,0
194760,note_on,0,0,2,,,,,,,,,1,,,58,72
194760,note_on,0,0,3,,,,,,,,,2,,,58,72
194760,note_on,120,0,4,,,,,,,,,3,,,58,0
194760,note_on,0,0,4,,,,,,,,,3,,,58,72
194760,note_on,12,0,1,,,,,,,,,0,,,70,72
194760,note_on,120,0,3,,,,,,,,,2,,,58,0
194808,note_on,48,0,1,,,,,,,,,0,,,70,0
194820,note_on,12,0,1,,,,,,,,,0,,,82,72
194856,note_on,96,0,4,,,,,,,,,3,,,58,0
194856,note_on,96,0,3,,,,,,,,,2,,,58,0
194856,note_on,96,0,2,,,,,,,,,1,,,58,0
194868,note_on,48,0,1,,,,,,,,,0,,,82,0
194880,note_on,12,0,1,,,,,,,,,0,,,70,72
194880,note_on,24,0,3,,,,,,,,,2,,,58,72
194880,note_on,24,0,2,,,,,,,,,1,,,58,72
194880,note_on,24,0,4,,,,,,,,,3,,,58,72
194928,note_on,48,0,1,,,,,,,,,0,,,70,0
194940,note_on,12,0,1,,,,,,,,,0,,,82,72
194976,note_on,96,0,3,,,,,,,,,2,,,58,0
194976,note_on,96,0,4,,,,,,,,,3,,,58,0
194976,note_on,96,0,2,,,,,,,,,1,,,58,0
194988,note_on,48,0,1,,,,,,,,,0,,,82,0
195000,note_on,24,0,3,,,,,,,,,2,,,58,92
195000,note_on,12,0,1,,,,,,,,,0,,,70,92
195000,note_on,24,0,4,,,,,,,,,3,,,58,92
195000,note_on,24,0,2,,,,,,,,,1,,,58,92
195060,note_on,0,0,1,,,,,,,,,0,,,80,72
195060,note_on,60,0,1,,,,,,,,,0,,,70,0
195108,note_on,48,0,1,,,,,,,,,0,,,80,0
195120,note_on,0,0,3,,,,,,,,,2,,,58,72
195120,note_on,120,0,3,,,,,,,,,2,,,58,0
195120,note_on,120,0,4,,,,,,,,,3,,,58,0
195120,note_on,12,0,1,,,,,,,,,0,,,70,72
195120,note_on,0,0,4,,,,,,,,,3,,,58,72
195120,note_on,120,0,2,,,,,,,,,1,,,58,0
195120,note_on,0,0,2,,,,,,,,,1,,,58,72
195168,note_on,48,0,1,,,,,,,,,0,,,70,0
195180,note_on,12,0,1,,,,,,,,,0,,,80,72
195216,note_on,96,0,4,,,,,,,,,3,,,58,0
195216,note_on,96,0,3,,,,,,,,,2,,,58,0
195216,note_on,96,0,2,,,,,,,,,1,,,58,0
195228,note_on,48,0,1,,,,,,,,,0,,,80,0
195240,note_on,24,0,2,,,,,,,,,1,,,58,72
195240,note_on,12,0,1,,,,,,,,,0,,,70,72
195240,note_on,24,0,3,,,,,,,,,2,,,58,72
195240,note_on,24,0,4,,,,,,,,,3,,,58,72
195288,note_on,48,0,1,,,,,,,,,0,,,70,0
195300,note_on,12,0,1,,,,,,,,,0,,,80,72
195336,note_on,96,0,3,,,,,,,,,2,,,58,0
195336,note_on,96,0,4,,,,,,,,,3,,,58,0
195336,note_on,96,0,2,,,,,,,,,1,,,58,0
195348,note_on,48,0,1,,,,,,,,,0,,,80,0
195360,note_on,24,0,2,,,,,,,,,1,,,58,92
195360,note_on,24,0,4,,,,,,,,,3,,,58,92
195360,note_on,12,0,1,,,,,,,,,0,,,70,92
195360,note_on,24,0,3,,,,,,,,,2,,,58,92
195420,note_on,0,0,1,,,,,,,,,0,,,79,72
195420,note_on,60,0,1,,,,,,,,,0,,,70,0
195468,note_on,48,0,1,,,,,,,,,0,,,79,0
195480,note_on,0,0,2,,,,,,,,,1,,,58,72
195480,note_on,0,0,4,,,,,,,,,3,,,58,72
195480,note_on,120,0,3,,,,,,,,,2,,,58,0
195480,note_on,120,0,2,,,,,,,,,1,,,58,0
195480,note_on,0,0,3,,,,,,,,,2,,,58,72
195480,note_on,12,0,1,,,,,,,,,0,,,70,72
195480,note_on,120,0,4,,,,,,,,,3,,,58,0
195528,note_on,48,0,1,,,,,,,,,0,,,70,0
195540,note_on,12,0,1,,,,,,,,,0,,,79,72
195576,note_on,96,0,2,,,,,,,,,1,,,58,0
195576,note_on,96,0,3,,,,,,,,,2,,,58,0
195576,note_on,96,0,4,,,,,,,,,3,,,58,0
195588,note_on,48,0,1,,,,,,,,,0,,,79,0
195600,note_on,24,0,3,,,,,,,,,2,,,58,72
195600,note_on,24,0,2,,,,,,,,,1,,,58,72
195600,note_on,24,0,4,,,,,,,,,3,,,58,72
195600,note_on,12,0,1,,,,,,,,,0,,,70,72
195648,note_on,48,0,1,,,,,,,,,0,,,70,0
195660,note_on,12,0,1,,,,,,,,,0,,,79,72
195696,note_on,96,0,4,,,,,,,,,3,,,58,0
195696,note_on,96,0,2,,,,,,,,,1,,,58,0
195696,note_on,96,0,3,,,,,,,,,2,,,58,0
195708,note_on,48,0,1,,,,,,,,,0,,,79,0
195720,note_on,24,0,4,,,,,,,,,3,,,62,112
195720,note_on,1824,0,5,,,,,,,,,4,,,46,92
195720,note_on,24,0,2,,,,,,,,,1,,,70,112
195720,note_on,24,0,3,,,,,,,,,2,,,65,112
195720,note_on,12,0,1,,,,,,,,,0,,,70,105
195780,note_on,60,0,1,,,,,,,,,0,,,77,105
195816,note_on,96,0,5,,,,,,,,,4,,,46,0
195828,note_on,0,0,1,,,,,,,,,0,,,70,0
195828,note_on,48,0,1,,,,,,,,,0,,,77,0
195840,note_on,0,0,4,,,,,,,,,3,,,62,92
195840,note_on,120,0,4,,,,,,,,,3,,,62,0
195840,note_on,0,0,2,,,,,,,,,1,,,70,92
195840,note_on,12,0,1,,,,,,,,,0,,,70,105
195840,note_on,120,0,3,,,,,,,,,2,,,65,0
195840,note_on,0,0,3,,,,,,,,,2,,,65,92
195840,note_on,24,0,5,,,,,,,,,4,,,46,92
195840,note_on,120,0,2,,,,,,,,,1,,,70,0
195900,note_on,60,0,1,,,,,,,,,0,,,77,105
195936,note_on,96,0,2,,,,,,,,,1,,,70,0
195936,note_on,96,0,4,,,,,,,,,3,,,62,0
195936,note_on,96,0,3,,,,,,,,,2,,,65,0
195936,note_on,96,0,5,,,,,,,,,4,,,46,0
195948,note_on,0,0,1,,,,,,,,,0,,,70,0
195948,note_on,48,0,1,,,,,,,,,0,,,77,0
195960,note_on,24,0,4,,,,,,,,,3,,,62,92
195960,note_on,24,0,5,,,,,,,,,4,,,46,92
195960,note_on,12,0,1,,,,,,,,,0,,,70,105
195960,note_on,24,0,3,,,,,,,,,2,,,65,92
195960,note_on,24,0,2,,,,,,,,,1,,,70,92
196020,note_on,60,0,1,,,,,,,,,0,,,77,105
196056,note_on,96,0,5,,,,,,,,,4,,,46,0
196056,note_on,96,0,3,,,,,,,,,2,,,65,0
196056,note_on,96,0,2,,,,,,,,,1,,,70,0
196056,note_on,96,0,4,,,,,,,,,3,,,62,0
196068,note_on,48,0,1,,,,,,,,,0,,,77,0
196068,note_on,0,0,1,,,,,,,,,0,,,70,0
196080,note_on,24,0,4,,,,,,,,,3,,,62,92
196080,note_on,24,0,3,,,,,,,,,2,,,65,92
196080,note_on,24,0,2,,,,,,,,,1,,,70,112
196080,note_on,24,0,5,,,,,,,,,4,,,46,92
196080,note_on,12,0,1,,,,,,,,,0,,,70,125
196140,note_on,60,0,2,,,,,,,,,1,,,70,0
196140,note_on,0,0,1,,,,,,,,,0,,,72,105
196140,note_on,60,0,1,,,,,,,,,0,,,70,0
196140,note_on,0,0,2,,,,,,,,,1,,,72,92
196200,note_on,0,0,2,,,,,,,,,1,,,74,92
196200,note_on,60,0,2,,,,,,,,,1,,,72,0
196200,note_on,60,0,1,,,,,,,,,0,,,72,0
196200,note_on,0,0,1,,,,,,,,,0,,,74,105
196260,note_on,60,0,1,,,,,,,,,0,,,74,0
196260,note_on,0,0,1,,,,,,,,,0,,,75,105
196260,note_on,60,0,2,,,,,,,,,1,,,74,0
196260,note_on,0,0,2,,,,,,,,,1,,,75,92
196272,note_on,192,0,4,,,,,,,,,3,,,62,0
196272,note_on,192,0,5,,,,,,,,,4,,,46,0
196272,note_on,192,0,3,,,,,,,,,2,,,65,0
196320,note_on,60,0,1,,,,,,,,,0,,,75,0
196320,note_on,0,0,1,,,,,,,,,0,,,77,105
196320,note_on,60,0,2,,,,,,,,,1,,,75,0
196320,note_on,0,0,2,,,,,,,,,1,,,77,92
196440,note_on,168,0,3,,,,,,,,,2,,,65,112
196440,note_on,120,0,2,,,,,,,,,1,,,77,0
196440,note_on,0,0,2,,,,,,,,,1,,,70,112
196440,note_on,168,0,5,,,,,,,,,4,,,46,112
196440,note_on,168,0,4,,,,,,,,,3,,,62,112
196440,note_on,120,0,1,,,,,,,,,0,,,77,0
196440,note_on,0,0,1,,,,,,,,,0,,,70,105
196500,note_on,60,0,1,,,,,,,,,0,,,77,105
196548,note_on,48,0,1,,,,,,,,,0,,,77,0
196548,note_on,0,0,1,,,,,,,,,0,,,70,0
196560,note_on,0,0,3,,,,,,,,,2,,,65,92
196560,note_on,120,0,3,,,,,,,,,2,,,65,0
196560,note_on,12,0,1,,,,,,,,,0,,,70,105
196560,note_on,0,0,2,,,,,,,,,1,,,70,92
196560,note_on,120,0,4,,,,,,,,,3,,,62,0
196560,note_on,0,0,4,,,,,,,,,3,,,62,92
196560,note_on,120,0,2,,,,,,,,,1,,,70,0
196560,note_on,0,0,5,,,,,,,,,4,,,46,92
196560,note_on,120,0,5,,,,,,,,,4,,,46,0
196620,note_on,60,0,1,,,,,,,,,0,,,77,105
196656,note_on,96,0,3,,,,,,,,,2,,,65,0
196656,note_on,96,0,2,,,,,,,,,1,,,70,0
196656,note_on,96,0,4,,,,,,,,,3,,,62,0
196656,note_on,96,0,5,,,,,,,,,4,,,46,0
196668,note_on,48,0,1,,,,,,,,,0,,,77,0
196668,note_on,0,0,1,,,,,,,,,0,,,70,0
196680,note_on,24,0,5,,,,,,,,,4,,,46,92
196680,note_on,24,0,2,,,,,,,,,1,,,70,92
196680,note_on,12,0,1,,,,,,,,,0,,,70,105
196680,note_on,24,0,3,,,,,,,,,2,,,65,92
196680,note_on,24,0,4,,,,,,,,,3,,,62,92
196740,note_on,60,0,1,,,,,,,,,0,,,77,105
196776,note_on,96,0,2,,,,,,,,,1,,,70,0
196776,note_on,96,0,3,,,,,,,,,2,,,65,0
196776,note_on,96,0,4,,,,,,,,,3,,,62,0
196776,note_on,96,0,5,,,,,,,,,4,,,46,0
196788,note_on,48,0,1,,,,,,,,,0,,,77,0
196788,note_on,0,0,1,,,,,,,,,0,,,70,0
196800,note_on,24,0,3,,,,,,,,,2,,,65,92
196800,note_on,12,0,1,,,,,,,,,0,,,70,125
196800,note_on,24,0,4,,,,,,,,,3,,,62,92
196800,note_on,24,0,2,,,,,,,,,1,,,70,112
196800,note_on,24,0,5,,,,,,,,,4,,,46,92
196860,note_on,60,0,1,,,,,,,,,0,,,70,0
196860,note_on,0,0,1,,,,,,,,,0,,,72,105
196860,note_on,60,0,2,,,,,,,,,1,,,70,0
196860,note_on,0,0,2,,,,,,,,,1,,,72,92
196920,note_on,60,0,2,,,,,,,,,1,,,72,0
196920,note_on,0,0,1,,,,,,,,,0,,,74,105
196920,note_on,60,0,1,,,,,,,,,0,,,72,0
196920,note_on,0,0,2,,,,,,,,,1,,,74,92
196980,note_on,60,0,2,,,,,,,,,1,,,74,0
196980,note_on,60,0,1,,,,,,,,,0,,,74,0
196980,note_on,0,0,2,,,,,,,,,1,,,75,92
196980,note_on,0,0,1,,,,,,,,,0,,,75,105
196992,note_on,192,0,5,,,,,,,,,4,,,46,0
196992,note_on,192,0,4,,,,,,,,,3,,,62,0
196992,note_on,192,0,3,,,,,,,,,2,,,65,0
197040,note_on,60,0,1,,,,,,,,,0,,,75,0
197040,note_on,0,0,2,,,,,,,,,1,,,77,92
197040,note_on,60,0,2,,,,,,,,,1,,,75,0
197040,note_on,0,0,1,,,,,,,,,0,,,77,105
197100,note_on,0,0,2,,,,,,,,,1,,,79,92
197100,note_on,60,0,2,,,,,,,,,1,,,77,0
197100,note_on,60,0,1,,,,,,,,,0,,,77,0
197100,note_on,0,0,1,,,,,,,,,0,,,79,105
197160,note_on,60,0,2,,,,,,,,,1,,,79,0
197160,note_on,168,0,4,,,,,,,,,3,,,62,112
197160,note_on,60,0,1,,,,,,,,,0,,,79,0
197160,note_on,0,0,1,,,,,,,,,0,,,70,105
197160,note_on,168,0,5,,,,,,,,,4,,,46,112
197160,note_on,168,0,3,,,,,,,,,2,,,65,112
197160,note_on,0,0,2,,,,,,,,,1,,,70,92
197220,note_on,60,0,2,,,,,,,,,1,,,77,92
197220,note_on,60,0,1,,,,,,,,,0,,,77,105
197268,note_on,0,0,2,,,,,,,,,1,,,70,0
197268,note_on,48,0,1,,,,,,,,,0,,,77,0
197268,note_on,0,0,1,,,,,,,,,0,,,70,0
197268,note_on,48,0,2,,,,,,,,,1,,,77,0
197280,note_on,120,0,3,,,,,,,,,2,,,65,0
197280,note_on,0,0,3,,,,,,,,,2,,,65,92
197280,note_on,12,0,2,,,,,,,,,1,,,70,92
197280,note_on,0,0,4,,,,,,,,,3,,,62,92
197280,note_on,0,0,5,,,,,,,,,4,,,46,92
197280,note_on,12,0,1,,,,,,,,,0,,,70,105
197280,note_on,120,0,5,,,,,,,,,4,,,46,0
197280,note_on,120,0,4,,,,,,,,,3,,,62,0
197340,note_on,60,0,1,,,,,,,,,0,,,77,105
197340,note_on,60,0,2,,,,,,,,,1,,,77,92
197376,note_on,96,0,4,,,,,,,,,3,,,62,0
197376,note_on,96,0,3,,,,,,,,,2,,,65,0
197376,note_on,96,0,5,,,,,,,,,4,,,46,0
197388,note_on,0,0,1,,,,,,,,,0,,,70,0
197388,note_on,48,0,1,,,,,,,,,0,,,77,0
197388,note_on,0,0,2,,,,,,,,,1,,,70,0
197388,note_on,48,0,2,,,,,,,,,1,,,77,0
197400,note_on,24,0,5,,,,,,,,,4,,,46,92
197400,note_on,12,0,2,,,,,,,,,1,,,70,92
197400,note_on,24,0,3,,,,,,,,,2,,,65,92
197400,note_on,12,0,1,,,,,,,,,0,,,70,105
197400,note_on,24,0,4,,,,,,,,,3,,,62,92
197460,note_on,60,0,1,,,,,,,,,0,,,77,105
197460,note_on,60,0,2,,,,,,,,,1,,,77,92
197496,note_on,96,0,3,,,,,,,,,2,,,65,0
197496,note_on,96,0,4,,,,,,,,,3,,,62,0
197496,note_on,96,0,5,,,,,,,,,4,,,46,0
197508,note_on,0,0,2,,,,,,,,,1,,,70,0
197508,note_on,48,0,2,,,,,,,,,1,,,77,0
197508,note_on,48,0,1,,,,,,,,,0,,,77,0
197508,note_on,0,0,1,,,,,,,,,0,,,70,0
197520,note_on,12,0,2,,,,,,,,,1,,,70,112
197520,note_on,24,0,3,,,,,,,,,2,,,65,92
197520,note_on,24,0,5,,,,,,,,,4,,,46,92
197520,note_on,24,0,4,,,,,,,,,3,,,62,92
197520,note_on,12,0,1,,,,,,,,,0,,,70,125
197580,note_on,0,0,2,,,,,,,,,1,,,72,92
197580,note_on,0,0,1,,,,,,,,,0,,,72,105
197580,note_on,60,0,2,,,,,,,,,1,,,70,0
197580,note_on,60,0,1,,,,,,,,,0,,,70,0
197640,note_on,60,0,1,,,,,,,,,0,,,72,0
197640,note_on,0,0,1,,,,,,,,,0,,,74,105
197640,note_on,60,0,2,,,,,,,,,1,,,72,0
197640,note_on,0,0,2,,,,,,,,,1,,,74,92
197700,note_on,60,0,1,,,,,,,,,0,,,74,0
197700,note_on,0,0,2,,,,,,,,,1,,,75,92
197700,note_on,60,0,2,,,,,,,,,1,,,74,0
197700,note_on,0,0,1,,,,,,,,,0,,,75,105
197712,note_on,192,0,3,,,,,,,,,2,,,65,0
197712,note_on,192,0,5,,,,,,,,,4,,,46,0
197712,note_on,192,0,4,,,,,,,,,3,,,62,0
197760,note_on,60,0,1,,,,,,,,,0,,,75,0
197760,note_on,60,0,2,,,,,,,,,1,,,75,0
197760,note_on,0,0,2,,,,,,,,,1,,,77,92
197760,note_on,0,0,1,,,,,,,,,0,,,77,105
197820,note_on,60,0,1,,,,,,,,,0,,,77,0
197820,note_on,0,0,1,,,,,,,,,0,,,79,105
197820,note_on,60,0,2,,,,,,,,,1,,,77,0
197820,note_on,0,0,2,,,,,,,,,1,,,79,92
197850,note_on,0,0,1,,,,,,,,,0,,,80,105
197850,note_on,30,0,1,,,,,,,,,0,,,79,0
197850,note_on,0,0,2,,,,,,,,,1,,,80,92
197850,note_on,30,0,2,,,,,,,,,1,,,79,0
197880,note_on,168,0,4,,,,,,,,,3,,,62,112
197880,note_on,30,0,2,,,,,,,,,1,,,80,0
197880,note_on,168,0,3,,,,,,,,,2,,,65,112
197880,note_on,0,0,2,,,,,,,,,1,,,70,92
197880,note_on,168,0,5,,,,,,,,,4,,,46,112
197880,note_on,30,0,1,,,,,,,,,0,,,80,0
197880,note_on,0,0,1,,,,,,,,,0,,,70,105
197940,note_on,60,0,1,,,,,,,,,0,,,77,105
197940,note_on,60,0,2,,,,,,,,,1,,,77,92
197988,note_on,48,0,1,,,,,,,,,0,,,77,0
197988,note_on,0,0,1,,,,,,,,,0,,,70,0
197988,note_on,48,0,2,,,,,,,,,1,,,77,0
197988,note_on,0,0,2,,,,,,,,,1,,,70,0
198000,note_on,120,0,3,,,,,,,,,2,,,65,0
198000,note_on,12,0,1,,,,,,,,,0,,,70,105
198000,note_on,120,0,5,,,,,,,,,4,,,46,0
198000,note_on,0,0,5,,,,,,,,,4,,,46,92
198000,note_on,120,0,4,,,,,,,,,3,,,62,0
198000,note_on,0,0,4,,,,,,,,,3,,,62,92
198000,note_on,0,0,3,,,,,,,,,2,,,65,92
198000,note_on,12,0,2,,,,,,,,,1,,,70,92
198060,note_on,60,0,2,,,,,,,,,1,,,77,92
198060,note_on,60,0,1,,,,,,,,,0,,,77,105
198096,note_on,96,0,4,,,,,,,,,3,,,62,0
198096,note_on,96,0,3,,,,,,,,,2,,,65,0
198096,note_on,96,0,5,,,,,,,,,4,,,46,0
198108,note_on,0,0,2,,,,,,,,,1,,,70,0
198108,note_on,0,0,1,,,,,,,,,0,,,70,0
198108,note_on,48,0,1,,,,,,,,,0,,,77,0
198108,note_on,48,0,2,,,,,,,,,1,,,77,0
198120,note_on,12,0,2,,,,,,,,,1,,,70,92
198120,note_on,24,0,4,,,,,,,,,3,,,62,92
198120,note_on,12,0,1,,,,,,,,,0,,,70,105
198120,note_on,24,0,3,,,,,,,,,2,,,65,92
198120,note_on,24,0,5,,,,,,,,,4,,,46,92
198180,note_on,60,0,2,,,,,,,,,1,,,77,92
198180,note_on,60,0,1,,,,,,,,,0,,,77,105
198216,note_on,96,0,4,,,,,,,,,3,,,62,0
198216,note_on,96,0,3,,,,,,,,,2,,,65,0
198216,note_on,96,0,5,,,,,,,,,4,,,46,0
198228,note_on,0,0,2,,,,,,,,,1,,,70,0
198228,note_on,48,0,1,,,,,,,,,0,,,77,0
198228,note_on,48,0,2,,,,,,,,,1,,,77,0
198228,note_on,0,0,1,,,,,,,,,0,,,70,0
198240,note_on,12,0,1,,,,,,,,,0,,,70,125
198240,note_on,12,0,2,,,,,,,,,1,,,70,112
198240,note_on,24,0,4,,,,,,,,,3,,,62,92
198240,note_on,24,0,3,,,,,,,,,2,,,65,92
198240,note_on,24,0,5,,,,,,,,,4,,,46,92
198300,note_on,0,0,1,,,,,,,,,0,,,72,105
198300,note_on,60,0,2,,,,,,,,,1,,,70,0
198300,note_on,0,0,2,,,,,,,,,1,,,72,92
198300,note_on,60,0,1,,,,,,,,,0,,,70,0
198360,note_on,0,0,1,,,,,,,,,0,,,74,105
198360,note_on,60,0,1,,,,,,,,,0,,,72,0
198360,note_on,0,0,2,,,,,,,,,1,,,74,92
198360,note_on,60,0,2,,,,,,,,,1,,,72,0
198420,note_on,0,0,2,,,,,,,,,1,,,75,92
198420,note_on,60,0,1,,,,,,,,,0,,,74,0
198420,note_on,60,0,2,,,,,,,,,1,,,74,0
198420,note_on,0,0,1,,,,,,,,,0,,,75,105
198432,note_on,192,0,4,,,,,,,,,3,,,62,0
198432,note_on,192,0,3,,,,,,,,,2,,,65,0
198432,note_on,192,0,5,,,,,,,,,4,,,46,0
198480,note_on,0,0,1,,,,,,,,,0,,,77,105
198480,note_on,60,0,1,,,,,,,,,0,,,75,0
198480,note_on,0,0,2,,,,,,,,,1,,,77,92
198480,note_on,60,0,2,,,,,,,,,1,,,75,0
198510,note_on,30,0,1,,,,,,,,,0,,,77,0
198510,note_on,30,0,2,,,,,,,,,1,,,77,0
198510,note_on,0,0,1,,,,,,,,,0,,,79,105
198510,note_on,0,0,2,,,,,,,,,1,,,79,92
198540,note_on,30,0,2,,,,,,,,,1,,,79,0
198540,note_on,30,0,1,,,,,,,,,0,,,79,0
198540,note_on,0,0,1,,,,,,,,,0,,,80,105
198540,note_on,0,0,2,,,,,,,,,1,,,80,92
198570,note_on,30,0,1,,,,,,,,,0,,,80,0
198570,note_on,0,0,1,,,,,,,,,0,,,82,105
198570,note_on,0,0,2,,,,,,,,,1,,,82,92
198570,note_on,30,0,2,,,,,,,,,1,,,80,0
198600,note_on,30,0,2,,,,,,,,,1,,,82,0
198600,note_on,168,0,3,,,,,,,,,2,,,67,112
198600,note_on,0,0,1,,,,,,,,,0,,,70,125
198600,note_on,0,0,2,,,,,,,,,1,,,70,112
198600,note_on,30,0,1,,,,,,,,,0,,,82,0
198600,note_on,168,0,4,,,,,,,,,3,,,63,92
198600,note_on,168,0,5,,,,,,,,,4,,,55,112
198660,note_on,0,0,5,,,,,,,,,4,,,56,92
198660,note_on,60,0,5,,,,,,,,,4,,,55,0
198696,note_on,96,0,4,,,,,,,,,3,,,63,0
198708,note_on,48,0,5,,,,,,,,,4,,,56,0
198720,note_on,120,0,1,,,,,,,,,0,,,70,0
198720,note_on,0,0,1,,,,,,,,,0,,,65,105
198720,note_on,12,0,5,,,,,,,,,4,,,58,92
198720,note_on,24,0,4,,,,,,,,,3,,,62,92
198720,note_on,0,0,3,,,,,,,,,2,,,62,92
198720,note_on,0,0,2,,,,,,,,,1,,,65,92
198720,note_on,120,0,2,,,,,,,,,1,,,70,0
198720,note_on,120,0,3,,,,,,,,,2,,,67,0
198780,note_on,60,0,1,,,,,,,,,0,,,65,0
198780,note_on,0,0,1,,,,,,,,,0,,,67,105
198780,note_on,0,0,3,,,,,,,,,2,,,63,92
198780,note_on,60,0,3,,,,,,,,,2,,,62,0
198780,note_on,60,0,2,,,,,,,,,1,,,65,0
198780,note_on,0,0,2,,,,,,,,,1,,,67,92
198816,note_on,96,0,5,,,,,,,,,4,,,58,0
198840,note_on,60,0,1,,,,,,,,,0,,,67,0
198840,note_on,60,0,2,,,,,,,,,1,,,67,0
198840,note_on,60,0,3,,,,,,,,,2,,,63,0
198840,note_on,0,0,3,,,,,,,,,2,,,65,92
198840,note_on,24,0,5,,,,,,,,,4,,,46,92
198840,note_on,0,0,2,,,,,,,,,1,,,68,92
198840,note_on,0,0,1,,,,,,,,,0,,,68,105
198912,note_on,192,0,4,,,,,,,,,3,,,62,0
198936,note_on,96,0,5,,,,,,,,,4,,,46,0
198960,note_on,120,0,3,,,,,,,,,2,,,65,0
198960,note_on,24,0,5,,,,,,,,,4,,,46,92
198960,note_on,120,0,2,,,,,,,,,1,,,68,0
198960,note_on,0,0,2,,,,,,,,,1,,,68,112
198960,note_on,48,0,4,,,,,,,,,3,,,62,92
198960,note_on,120,0,1,,,,,,,,,0,,,68,0
198960,note_on,0,0,3,,,,,,,,,2,,,65,112
198960,note_on,0,0,1,,,,,,,,,0,,,68,125
199080,note_on,120,0,1,,,,,,,,,0,,,68,0
199080,note_on,0,0,1,,,,,,,,,0,,,67,105
199080,note_on,0,0,2,,,,,,,,,1,,,67,92
199080,note_on,0,0,3,,,,,,,,,2,,,63,92
199080,note_on,120,0,3,,,,,,,,,2,,,65,0
199080,note_on,120,0,2,,,,,,,,,1,,,68,0
199200,note_on,120,0,3,,,,,,,,,2,,,63,0
199200,note_on,0,0,1,,,,,,,,,0,,,65,105
199200,note_on,120,0,1,,,,,,,,,0,,,67,0
199200,note_on,0,0,2,,,,,,,,,1,,,65,92
199200,note_on,0,0,3,,,,,,,,,2,,,62,92
199200,note_on,120,0,2,,,,,,,,,1,,,67,0
199248,note_on,288,0,5,,,,,,,,,4,,,46,0
199248,note_on,288,0,4,,,,,,,,,3,,,62,0
199320,note_on,0,0,1,,,,,,,,,0,,,75,125
199320,note_on,0,0,3,,,,,,,,,2,,,70,112
199320,note_on,120,0,3,,,,,,,,,2,,,62,0
199320,note_on,72,0,5,,,,,,,,,4,,,51,112
199320,note_on,72,0,4,,,,,,,,,3,,,55,92
199320,note_on,120,0,1,,,,,,,,,0,,,65,0
199320,note_on,0,0,2,,,,,,,,,1,,,75,112
199320,note_on,120,0,2,,,,,,,,,1,,,65,0
199416,note_on,96,0,4,,,,,,,,,3,,,55,0
199440,note_on,0,0,1,,,,,,,,,0,,,65,105
199440,note_on,120,0,3,,,,,,,,,2,,,70,0
199440,note_on,0,0,3,,,,,,,,,2,,,62,92
199440,note_on,0,0,5,,,,,,,,,4,,,58,92
199440,note_on,24,0,4,,,,,,,,,3,,,62,92
199440,note_on,120,0,5,,,,,,,,,4,,,51,0
199440,note_on,0,0,2,,,,,,,,,1,,,65,92
199440,note_on,120,0,2,,,,,,,,,1,,,75,0
199440,note_on,120,0,1,,,,,,,,,0,,,75,0
199500,note_on,60,0,2,,,,,,,,,1,,,65,0
199500,note_on,0,0,2,,,,,,,,,1,,,67,92
199500,note_on,60,0,1,,,,,,,,,0,,,65,0
199500,note_on,0,0,1,,,,,,,,,0,,,67,105
199500,note_on,0,0,3,,,,,,,,,2,,,63,92
199500,note_on,60,0,3,,,,,,,,,2,,,62,0
199536,note_on,96,0,5,,,,,,,,,4,,,58,0
199560,note_on,24,0,5,,,,,,,,,4,,,46,92
199560,note_on,60,0,2,,,,,,,,,1,,,67,0
199560,note_on,60,0,1,,,,,,,,,0,,,67,0
199560,note_on,0,0,3,,,,,,,,,2,,,65,92
199560,note_on,60,0,3,,,,,,,,,2,,,63,0
199560,note_on,0,0,1,,,,,,,,,0,,,68,105
199560,note_on,0,0,2,,,,,,,,,1,,,68,92
199632,note_on,192,0,4,,,,,,,,,3,,,62,0
199656,note_on,96,0,5,,,,,,,,,4,,,46,0
199680,note_on,0,0,1,,,,,,,,,0,,,68,125
199680,note_on,0,0,3,,,,,,,,,2,,,65,112
199680,note_on,120,0,3,,,,,,,,,2,,,65,0
199680,note_on,120,0,1,,,,,,,,,0,,,68,0
199680,note_on,48,0,4,,,,,,,,,3,,,62,92
199680,note_on,24,0,5,,,,,,,,,4,,,46,92
199680,note_on,120,0,2,,,,,,,,,1,,,68,0
199680,note_on,0,0,2,,,,,,,,,1,,,68,112
199800,note_on,120,0,1,,,,,,,,,0,,,68,0
199800,note_on,120,0,2,,,,,,,,,1,,,68,0
199800,note_on,0,0,2,,,,,,,,,1,,,67,92
199800,note_on,120,0,3,,,,,,,,,2,,,65,0
199800,note_on,0,0,3,,,,,,,,,2,,,63,92
199800,note_on,0,0,1,,,,,,,,,0,,,67,105
199920,note_on,0,0,3,,,,,,,,,2,,,62,92
199920,note_on,120,0,3,,,,,,,,,2,,,63,0
199920,note_on,120,0,2,,,,,,,,,1,,,67,0
199920,note_on,120,0,1,,,,,,,,,0,,,67,0
199920,note_on,0,0,2,,,,,,,,,1,,,65,92
199920,note_on,0,0,1,,,,,,,,,0,,,65,105
199968,note_on,288,0,4,,,,,,,,,3,,,62,0
199968,note_on,288,0,5,,,,,,,,,4,,,46,0
200040,note_on,72,0,4,,,,,,,,,3,,,67,112
200040,note_on,120,0,2,,,,,,,,,1,,,65,0
200040,note_on,0,0,3,,,,,,,,,2,,,75,112
200040,note_on,120,0,3,,,,,,,,,2,,,62,0
200040,note_on,72,0,5,,,,,,,,,4,,,51,112
200040,note_on,120,0,1,,,,,,,,,0,,,65,0
200040,note_on,0,0,2,,,,,,,,,1,,,75,112
200040,note_on,0,0,1,,,,,,,,,0,,,75,125
200160,note_on,120,0,4,,,,,,,,,3,,,67,0
200160,note_on,0,0,5,,,,,,,,,4,,,58,92
200160,note_on,120,0,5,,,,,,,,,4,,,51,0
200160,note_on,120,0,1,,,,,,,,,0,,,75,0
200160,note_on,120,0,2,,,,,,,,,1,,,75,0
200160,note_on,0,0,1,,,,,,,,,0,,,58,105
200160,note_on,0,0,4,,,,,,,,,3,,,62,92
200160,note_on,120,0,3,,,,,,,,,2,,,75,0
200160,note_on,0,0,3,,,,,,,,,2,,,58,92
200160,note_on,0,0,2,,,,,,,,,1,,,58,92
200256,note_on,96,0,4,,,,,,,,,3,,,62,0
200256,note_on,96,0,2,,,,,,,,,1,,,58,0
200256,note_on,96,0,1,,,,,,,,,0,,,58,0
200256,note_on,96,0,5,,,,,,,,,4,,,58,0
200256,note_on,96,0,3,,,,,,,,,2,,,58,0
200280,note_on,24,0,2,,,,,,,,,1,,,74,92
200280,note_on,24,0,5,,,,,,,,,4,,,46,92
200280,note_on,24,0,1,,,,,,,,,0,,,74,105
200280,note_on,24,0,4,,,,,,,,,3,,,65,92
200280,note_on,24,0,3,,,,,,,,,2,,,74,92
200376,note_on,96,0,1,,,,,,,,,0,,,74,0
200376,note_on,96,0,2,,,,,,,,,1,,,74,0
200376,note_on,96,0,3,,,,,,,,,2,,,74,0
200376,note_on,96,0,4,,,,,,,,,3,,,65,0
200376,note_on,96,0,5,,,,,,,,,4,,,46,0
200400,note_on,24,0,2,,,,,,,,,1,,,63,101
200400,note_on,24,0,4,,,,,,,,,3,,,51,101
200400,note_on,24,0,5,,,,,,,,,4,,,39,101
200400,note_on,24,0,1,,,,,,,,,0,,,63,105
200400,note_on,24,0,3,,,,,,,,,2,,,63,101
200448,note_on,48,0,1,,,,,,,,,0,,,63,0
200460,note_on,12,0,1,,,,,,,,,0,,,58,105
200508,note_on,48,0,1,,,,,,,,,0,,,58,0
200520,note_on,120,0,4,,,,,,,,,3,,,51,0
200520,note_on,120,0,2,,,,,,,,,1,,,63,0
200520,note_on,120,0,5,,,,,,,,,4,,,39,0
200520,note_on,0,0,5,,,,,,,,,4,,,39,81
200520,note_on,0,0,3,,,,,,,,,2,,,63,81
200520,note_on,120,0,3,,,,,,,,,2,,,63,0
200520,note_on,12,0,1,,,,,,,,,0,,,58,105
200520,note_on,0,0,2,,,,,,,,,1,,,63,81
200520,note_on,0,0,4,,,,,,,,,3,,,51,81
200568,note_on,48,0,1,,,,,,,,,0,,,58,0
200580,note_on,12,0,1,,,,,,,,,0,,,63,105
200616,note_on,96,0,3,,,,,,,,,2,,,63,0
200616,note_on,96,0,2,,,,,,,,,1,,,63,0
200616,note_on,96,0,5,,,,,,,,,4,,,39,0
200616,note_on,96,0,4,,,,,,,,,3,,,51,0
200628,note_on,48,0,1,,,,,,,,,0,,,63,0
200640,note_on,24,0,4,,,,,,,,,3,,,51,81
200640,note_on,12,0,1,,,,,,,,,0,,,63,105
200640,note_on,24,0,5,,,,,,,,,4,,,39,81
200640,note_on,24,0,3,,,,,,,,,2,,,63,81
200640,note_on,24,0,2,,,,,,,,,1,,,63,81
200688,note_on,48,0,1,,,,,,,,,0,,,63,0
200700,note_on,12,0,1,,,,,,,,,0,,,67,105
200736,note_on,96,0,5,,,,,,,,,4,,,39,0
200736,note_on,96,0,3,,,,,,,,,2,,,63,0
200736,note_on,96,0,4,,,,,,,,,3,,,51,0
200736,note_on,96,0,2,,,,,,,,,1,,,63,0
200748,note_on,48,0,1,,,,,,,,,0,,,67,0
200760,note_on,24,0,3,,,,,,,,,2,,,63,101
200760,note_on,24,0,5,,,,,,,,,4,,,39,101
200760,note_on,24,0,4,,,,,,,,,3,,,51,81
200760,note_on,12,0,1,,,,,,,,,0,,,67,105
200760,note_on,24,0,2,,,,,,,,,1,,,63,101
200808,note_on,48,0,1,,,,,,,,,0,,,67,0
200820,note_on,12,0,1,,,,,,,,,0,,,63,105
200856,note_on,96,0,4,,,,,,,,,3,,,51,0
200868,note_on,48,0,1,,,,,,,,,0,,,63,0
200880,note_on,24,0,4,,,,,,,,,3,,,51,81
200880,note_on,12,0,1,,,,,,,,,0,,,63,105
200880,note_on,0,0,3,,,,,,,,,2,,,63,81
200880,note_on,0,0,5,,,,,,,,,4,,,39,81
200880,note_on,120,0,5,,,,,,,,,4,,,39,0
200880,note_on,120,0,3,,,,,,,,,2,,,63,0
200880,note_on,120,0,2,,,,,,,,,1,,,63,0
200880,note_on,0,0,2,,,,,,,,,1,,,63,81
200928,note_on,48,0,1,,,,,,,,,0,,,63,0
200928,note_on,48,0,5,,,,,,,,,4,,,39,0
200928,note_on,48,0,3,,,,,,,,,2,,,63,0
200928,note_on,48,0,4,,,,,,,,,3,,,51,0
200928,note_on,48,0,2,,,,,,,,,1,,,63,0
200940,note_on,12,0,1,,,,,,,,,0,,,67,105
200940,note_on,12,0,5,,,,,,,,,4,,,39,81
200940,note_on,12,0,4,,,,,,,,,3,,,51,81
200940,note_on,12,0,3,,,,,,,,,2,,,63,81
200940,note_on,12,0,2,,,,,,,,,1,,,63,81
200988,note_on,48,0,2,,,,,,,,,1,,,63,0
200988,note_on,48,0,1,,,,,,,,,0,,,67,0
200988,note_on,48,0,5,,,,,,,,,4,,,39,0
200988,note_on,48,0,3,,,,,,,,,2,,,63,0
200988,note_on,48,0,4,,,,,,,,,3,,,51,0
201000,note_on,12,0,1,,,,,,,,,0,,,67,105
201000,note_on,12,0,3,,,,,,,,,2,,,63,81
201000,note_on,12,0,2,,,,,,,,,1,,,63,81
201000,note_on,12,0,4,,,,,,,,,3,,,51,81
201000,note_on,12,0,5,,,,,,,,,4,,,39,81
201048,note_on,48,0,5,,,,,,,,,4,,,39,0
201048,note_on,48,0,4,,,,,,,,,3,,,51,0
201048,note_on,48,0,2,,,,,,,,,1,,,63,0
201048,note_on,48,0,1,,,,,,,,,0,,,67,0
201048,note_on,48,0,3,,,,,,,,,2,,,63,0
201060,note_on,12,0,2,,,,,,,,,1,,,63,81
201060,note_on,12,0,3,,,,,,,,,2,,,63,81
201060,note_on,12,0,5,,,,,,,,,4,,,39,81
201060,note_on,12,0,4,,,,,,,,,3,,,51,81
201060,note_on,12,0,1,,,,,,,,,0,,,70,105
201108,note_on,48,0,1,,,,,,,,,0,,,70,0
201108,note_on,48,0,4,,,,,,,,,3,,,51,0
201108,note_on,48,0,2,,,,,,,,,1,,,63,0
201108,note_on,48,0,5,,,,,,,,,4,,,39,0
201108,note_on,48,0,3,,,,,,,,,2,,,63,0
201120,note_on,12,0,3,,,,,,,,,2,,,63,101
201120,note_on,12,0,1,,,,,,,,,0,,,70,105
201120,note_on,12,0,4,,,,,,,,,3,,,51,101
201120,note_on,12,0,2,,,,,,,,,1,,,63,101
201120,note_on,12,0,5,,,,,,,,,4,,,39,81
201168,note_on,48,0,1,,,,,,,,,0,,,70,0
201180,note_on,12,0,1,,,,,,,,,0,,,67,105
201216,note_on,96,0,5,,,,,,,,,4,,,39,0
201228,note_on,48,0,1,,,,,,,,,0,,,67,0
201240,note_on,12,0,1,,,,,,,,,0,,,67,105
201240,note_on,24,0,5,,,,,,,,,4,,,39,81
201240,note_on,0,0,2,,,,,,,,,1,,,63,81
201240,note_on,120,0,2,,,,,,,,,1,,,63,0
201240,note_on,0,0,4,,,,,,,,,3,,,51,81
201240,note_on,0,0,3,,,,,,,,,2,,,63,81
201240,note_on,120,0,3,,,,,,,,,2,,,63,0
201240,note_on,120,0,4,,,,,,,,,3,,,51,0
201288,note_on,48,0,1,,,,,,,,,0,,,67,0
201300,note_on,12,0,1,,,,,,,,,0,,,70,105
201336,note_on,96,0,4,,,,,,,,,3,,,51,0
201336,note_on,96,0,2,,,,,,,,,1,,,63,0
201336,note_on,96,0,5,,,,,,,,,4,,,39,0
201336,note_on,96,0,3,,,,,,,,,2,,,63,0
201348,note_on,48,0,1,,,,,,,,,0,,,70,0
201360,note_on,24,0,3,,,,,,,,,2,,,63,81
201360,note_on,24,0,5,,,,,,,,,4,,,39,81
201360,note_on,24,0,2,,,,,,,,,1,,,63,81
201360,note_on,12,0,1,,,,,,,,,0,,,70,105
201360,note_on,24,0,4,,,,,,,,,3,,,51,81
201408,note_on,48,0,1,,,,,,,,,0,,,70,0
201420,note_on,12,0,1,,,,,,,,,0,,,75,105
201456,note_on,96,0,5,,,,,,,,,4,,,39,0
201456,note_on,96,0,2,,,,,,,,,1,,,63,0
201456,note_on,96,0,4,,,,,,,,,3,,,51,0
201456,note_on,96,0,3,,,,,,,,,2,,,63,0
201468,note_on,48,0,1,,,,,,,,,0,,,75,0
201480,note_on,24,0,5,,,,,,,,,4,,,39,101
201480,note_on,24,0,3,,,,,,,,,2,,,63,101
201480,note_on,24,0,4,,,,,,,,,3,,,51,101
201480,note_on,12,0,1,,,,,,,,,0,,,75,105
201480,note_on,24,0,2,,,,,,,,,1,,,63,101
201528,note_on,48,0,1,,,,,,,,,0,,,75,0
201540,note_on,12,0,1,,,,,,,,,0,,,70,105
201588,note_on,48,0,1,,,,,,,,,0,,,70,0
201600,note_on,120,0,5,,,,,,,,,4,,,39,0
201600,note_on,120,0,3,,,,,,,,,2,,,63,0
201600,note_on,0,0,3,,,,,,,,,2,,,63,81
201600,note_on,0,0,5,,,,,,,,,4,,,39,81
201600,note_on,120,0,2,,,,,,,,,1,,,63,0
201600,note_on,0,0,2,,,,,,,,,1,,,63,81
201600,note_on,120,0,4,,,,,,,,,3,,,51,0
201600,note_on,0,0,4,,,,,,,,,3,,,51,81
201600,note_on,12,0,1,,,,,,,,,0,,,70,105
201648,note_on,48,0,5,,,,,,,,,4,,,39,0
201648,note_on,48,0,2,,,,,,,,,1,,,63,0
201648,note_on,48,0,4,,,,,,,,,3,,,51,0
201648,note_on,48,0,3,,,,,,,,,2,,,63,0
201648,note_on,48,0,1,,,,,,,,,0,,,70,0
201660,note_on,12,0,1,,,,,,,,,0,,,75,105
201660,note_on,12,0,4,,,,,,,,,3,,,51,81
201660,note_on,12,0,2,,,,,,,,,1,,,63,81
201660,note_on,12,0,5,,,,,,,,,4,,,39,81
201660,note_on,12,0,3,,,,,,,,,2,,,63,81
201708,note_on,48,0,5,,,,,,,,,4,,,39,0
201708,note_on,48,0,1,,,,,,,,,0,,,75,0
201708,note_on,48,0,2,,,,,,,,,1,,,63,0
201708,note_on,48,0,4,,,,,,,,,3,,,51,0
201708,note_on,48,0,3,,,,,,,,,2,,,63,0
201720,note_on,12,0,5,,,,,,,,,4,,,39,81
201720,note_on,12,0,3,,,,,,,,,2,,,63,81
201720,note_on,12,0,2,,,,,,,,,1,,,63,81
201720,note_on,12,0,4,,,,,,,,,3,,,51,81
201720,note_on,12,0,1,,,,,,,,,0,,,75,105
201768,note_on,48,0,4,,,,,,,,,3,,,51,0
201768,note_on,48,0,1,,,,,,,,,0,,,75,0
201768,note_on,48,0,3,,,,,,,,,2,,,63,0
201768,note_on,48,0,2,,,,,,,,,1,,,63,0
201768,note_on,48,0,5,,,,,,,,,4,,,39,0
201780,note_on,12,0,1,,,,,,,,,0,,,79,105
201780,note_on,12,0,2,,,,,,,,,1,,,63,81
201780,note_on,12,0,5,,,,,,,,,4,,,39,81
201780,note_on,12,0,4,,,,,,,,,3,,,51,81
201780,note_on,12,0,3,,,,,,,,,2,,,63,81
201828,note_on,48,0,2,,,,,,,,,1,,,63,0
201828,note_on,48,0,4,,,,,,,,,3,,,51,0
201828,note_on,48,0,5,,,,,,,,,4,,,39,0
201828,note_on,48,0,1,,,,,,,,,0,,,79,0
201828,note_on,48,0,3,,,,,,,,,2,,,63,0
201840,note_on,12,0,5,,,,,,,,,4,,,39,101
201840,note_on,12,0,4,,,,,,,,,3,,,51,101
201840,note_on,12,0,2,,,,,,,,,1,,,63,101
201840,note_on,12,0,3,,,,,,,,,2,,,63,101
201840,note_on,12,0,1,,,,,,,,,0,,,79,105
201888,note_on,48,0,1,,,,,,,,,0,,,79,0
201900,note_on,12,0,1,,,,,,,,,0,,,75,105
201948,note_on,48,0,1,,,,,,,,,0,,,75,0
201960,note_on,120,0,3,,,,,,,,,2,,,63,0
201960,note_on,0,0,2,,,,,,,,,1,,,63,81
201960,note_on,120,0,2,,,,,,,,,1,,,63,0
201960,note_on,0,0,3,,,,,,,,,2,,,63,81
201960,note_on,12,0,1,,,,,,,,,0,,,75,105
201960,note_on,120,0,5,,,,,,,,,4,,,39,0
201960,note_on,0,0,5,,,,,,,,,4,,,39,81
201960,note_on,120,0,4,,,,,,,,,3,,,51,0
201960,note_on,0,0,4,,,,,,,,,3,,,51,81
202008,note_on,48,0,1,,,,,,,,,0,,,75,0
202020,note_on,12,0,1,,,,,,,,,0,,,82,105
202056,note_on,96,0,2,,,,,,,,,1,,,63,0
202056,note_on,96,0,4,,,,,,,,,3,,,51,0
202056,note_on,96,0,5,,,,,,,,,4,,,39,0
202056,note_on,96,0,3,,,,,,,,,2,,,63,0
202068,note_on,48,0,1,,,,,,,,,0,,,82,0
202080,note_on,24,0,4,,,,,,,,,3,,,51,81
202080,note_on,24,0,2,,,,,,,,,1,,,63,81
202080,note_on,12,0,1,,,,,,,,,0,,,82,105
202080,note_on,24,0,3,,,,,,,,,2,,,63,81
202080,note_on,24,0,5,,,,,,,,,4,,,39,81
202128,note_on,48,0,1,,,,,,,,,0,,,82,0
202140,note_on,12,0,1,,,,,,,,,0,,,87,105
202176,note_on,96,0,4,,,,,,,,,3,,,51,0
202176,note_on,96,0,2,,,,,,,,,1,,,63,0
202176,note_on,96,0,3,,,,,,,,,2,,,63,0
202176,note_on,96,0,5,,,,,,,,,4,,,39,0
202188,note_on,48,0,1,,,,,,,,,0,,,87,0
202200,note_on,24,0,4,,,,,,,,,3,,,51,101
202200,note_on,12,0,1,,,,,,,,,0,,,87,105
202200,note_on,24,0,2,,,,,,,,,1,,,63,101
202200,note_on,24,0,5,,,,,,,,,4,,,39,101
202200,note_on,24,0,3,,,,,,,,,2,,,63,101
202248,note_on,48,0,1,,,,,,,,,0,,,87,0
202260,note_on,12,0,1,,,,,,,,,0,,,82,105
202308,note_on,48,0,1,,,,,,,,,0,,,82,0
202320,note_on,0,0,2,,,,,,,,,1,,,63,81
202320,note_on,120,0,2,,,,,,,,,1,,,63,0
202320,note_on,0,0,4,,,,,,,,,3,,,51,81
202320,note_on,120,0,3,,,,,,,,,2,,,63,0
202320,note_on,0,0,3,,,,,,,,,2,,,63,81
202320,note_on,120,0,4,,,,,,,,,3,,,51,0
202320,note_on,120,0,5,,,,,,,,,4,,,39,0
202320,note_on,0,0,5,,,,,,,,,4,,,39,81
202320,note_on,12,0,1,,,,,,,,,0,,,82,105
202368,note_on,48,0,3,,,,,,,,,2,,,63,0
202368,note_on,48,0,4,,,,,,,,,3,,,51,0
202368,note_on,48,0,2,,,,,,,,,1,,,63,0
202368,note_on,48,0,5,,,,,,,,,4,,,39,0
202368,note_on,48,0,1,,,,,,,,,0,,,82,0
202380,note_on,12,0,3,,,,,,,,,2,,,63,81
202380,note_on,12,0,2,,,,,,,,,1,,,63,81
202380,note_on,12,0,1,,,,,,,,,0,,,79,105
202380,note_on,12,0,4,,,,,,,,,3,,,51,81
202380,note_on,12,0,5,,,,,,,,,4,,,39,81
202428,note_on,48,0,5,,,,,,,,,4,,,39,0
202428,note_on,48,0,3,,,,,,,,,2,,,63,0
202428,note_on,48,0,2,,,,,,,,,1,,,63,0
202428,note_on,48,0,4,,,,,,,,,3,,,51,0
202428,note_on,48,0,1,,,,,,,,,0,,,79,0
202440,note_on,12,0,4,,,,,,,,,3,,,51,81
202440,note_on,12,0,5,,,,,,,,,4,,,39,81
202440,note_on,12,0,2,,,,,,,,,1,,,63,81
202440,note_on,12,0,3,,,,,,,,,2,,,63,81
202440,note_on,12,0,1,,,,,,,,,0,,,79,105
202488,note_on,48,0,3,,,,,,,,,2,,,63,0
202488,note_on,48,0,4,,,,,,,,,3,,,51,0
202488,note_on,48,0,5,,,,,,,,,4,,,39,0
202488,note_on,48,0,1,,,,,,,,,0,,,79,0
202488,note_on,48,0,2,,,,,,,,,1,,,63,0
202500,note_on,12,0,4,,,,,,,,,3,,,51,81
202500,note_on,12,0,5,,,,,,,,,4,,,39,81
202500,note_on,12,0,3,,,,,,,,,2,,,63,81
202500,note_on,12,0,2,,,,,,,,,1,,,63,81
202500,note_on,12,0,1,,,,,,,,,0,,,75,105
202548,note_on,48,0,3,,,,,,,,,2,,,63,0
202548,note_on,48,0,2,,,,,,,,,1,,,63,0
202548,note_on,48,0,4,,,,,,,,,3,,,51,0
202548,note_on,48,0,1,,,,,,,,,0,,,75,0
202548,note_on,48,0,5,,,,,,,,,4,,,39,0
202560,note_on,12,0,2,,,,,,,,,1,,,63,101
202560,note_on,12,0,4,,,,,,,,,3,,,51,101
202560,note_on,12,0,1,,,,,,,,,0,,,75,105
202560,note_on,12,0,3,,,,,,,,,2,,,63,101
202560,note_on,12,0,5,,,,,,,,,4,,,39,101
202608,note_on,48,0,1,,,,,,,,,0,,,75,0
202620,note_on,12,0,1,,,,,,,,,0,,,70,105
202668,note_on,48,0,1,,,,,,,,,0,,,70,0
202680,note_on,0,0,4,,,,,,,,,3,,,51,81
202680,note_on,120,0,4,,,,,,,,,3,,,51,0
202680,note_on,0,0,2,,,,,,,,,1,,,63,81
202680,note_on,0,0,3,,,,,,,,,2,,,63,81
202680,note_on,120,0,3,,,,,,,,,2,,,63,0
202680,note_on,120,0,5,,,,,,,,,4,,,39,0
202680,note_on,120,0,2,,,,,,,,,1,,,63,0
202680,note_on,0,0,5,,,,,,,,,4,,,39,81
202680,note_on,12,0,1,,,,,,,,,0,,,70,105
202728,note_on,48,0,1,,,,,,,,,0,,,70,0
202740,note_on,12,0,1,,,,,,,,,0,,,67,105
202776,note_on,96,0,4,,,,,,,,,3,,,51,0
202776,note_on,96,0,3,,,,,,,,,2,,,63,0
202776,note_on,96,0,5,,,,,,,,,4,,,39,0
202776,note_on,96,0,2,,,,,,,,,1,,,63,0
202788,note_on,48,0,1,,,,,,,,,0,,,67,0
202800,note_on,24,0,2,,,,,,,,,1,,,63,81
202800,note_on,12,0,1,,,,,,,,,0,,,67,105
202800,note_on,24,0,5,,,,,,,,,4,,,39,81
202800,note_on,24,0,4,,,,,,,,,3,,,51,81
202800,note_on,24,0,3,,,,,,,,,2,,,63,81
202848,note_on,48,0,1,,,,,,,,,0,,,67,0
202860,note_on,12,0,1,,,,,,,,,0,,,63,105
202896,note_on,96,0,3,,,,,,,,,2,,,63,0
202896,note_on,96,0,2,,,,,,,,,1,,,63,0
202896,note_on,96,0,5,,,,,,,,,4,,,39,0
202896,note_on,96,0,4,,,,,,,,,3,,,51,0
202908,note_on,48,0,1,,,,,,,,,0,,,63,0
202920,note_on,12,0,1,,,,,,,,,0,,,63,105
202920,note_on,24,0,2,,,,,,,,,1,,,63,101
202920,note_on,24,0,5,,,,,,,,,4,,,39,101
202920,note_on,24,0,3,,,,,,,,,2,,,63,101
202920,note_on,24,0,4,,,,,,,,,3,,,51,101
202980,note_on,0,0,2,,,,,,,,,1,,,63,81
202980,note_on,60,0,2,,,,,,,,,1,,,63,0
202980,note_on,60,0,4,,,,,,,,,3,,,51,0
202980,note_on,60,0,1,,,,,,,,,0,,,58,105
202980,note_on,0,0,4,,,,,,,,,3,,,51,81
202980,note_on,0,0,3,,,,,,,,,2,,,63,81
202980,note_on,60,0,3,,,,,,,,,2,,,63,0
203028,note_on,48,0,2,,,,,,,,,1,,,63,0
203028,note_on,48,0,1,,,,,,,,,0,,,58,0
203028,note_on,48,0,3,,,,,,,,,2,,,63,0
203028,note_on,48,0,4,,,,,,,,,3,,,51,0
203040,note_on,12,0,3,,,,,,,,,2,,,63,81
203040,note_on,12,0,2,,,,,,,,,1,,,63,81
203040,note_on,12,0,1,,,,,,,,,0,,,58,105
203040,note_on,120,0,5,,,,,,,,,4,,,39,0
203040,note_on,0,0,5,,,,,,,,,4,,,51,81
203040,note_on,12,0,4,,,,,,,,,3,,,51,81
203088,note_on,48,0,3,,,,,,,,,2,,,63,0
203088,note_on,48,0,4,,,,,,,,,3,,,51,0
203088,note_on,48,0,2,,,,,,,,,1,,,63,0
203088,note_on,48,0,1,,,,,,,,,0,,,58,0
203100,note_on,12,0,2,,,,,,,,,1,,,63,81
203100,note_on,12,0,1,,,,,,,,,0,,,55,105
203100,note_on,12,0,3,,,,,,,,,2,,,63,81
203100,note_on,12,0,4,,,,,,,,,3,,,51,81
203136,note_on,96,0,5,,,,,,,,,4,,,51,0
203148,note_on,48,0,1,,,,,,,,,0,,,55,0
203148,note_on,48,0,3,,,,,,,,,2,,,63,0
203148,note_on,48,0,4,,,,,,,,,3,,,51,0
203148,note_on,48,0,2,,,,,,,,,1,,,63,0
203160,note_on,12,0,1,,,,,,,,,0,,,55,105
203160,note_on,12,0,3,,,,,,,,,2,,,63,81
203160,note_on,12,0,4,,,,,,,,,3,,,51,81
203160,note_on,12,0,2,,,,,,,,,1,,,63,81
203160,note_on,24,0,5,,,,,,,,,4,,,39,81
203208,note_on,48,0,4,,,,,,,,,3,,,51,0
203208,note_on,48,0,1,,,,,,,,,0,,,55,0
203208,note_on,48,0,2,,,,,,,,,1,,,63,0
203208,note_on,48,0,3,,,,,,,,,2,,,63,0
203220,note_on,12,0,2,,,,,,,,,1,,,63,81
203220,note_on,12,0,3,,,,,,,,,2,,,63,81
203220,note_on,12,0,1,,,,,,,,,0,,,58,105
203220,note_on,12,0,4,,,,,,,,,3,,,51,81
203256,note_on,96,0,5,,,,,,,,,4,,,39,0
203268,note_on,48,0,1,,,,,,,,,0,,,58,0
203268,note_on,48,0,2,,,,,,,,,1,,,63,0
203268,note_on,48,0,3,,,,,,,,,2,,,63,0
203268,note_on,48,0,4,,,,,,,,,3,,,51,0
203280,note_on,12,0,2,,,,,,,,,1,,,63,101
203280,note_on,12,0,4,,,,,,,,,3,,,51,101
203280,note_on,12,0,1,,,,,,,,,0,,,58,105
203280,note_on,24,0,5,,,,,,,,,4,,,39,101
203280,note_on,12,0,3,,,,,,,,,2,,,63,101
203328,note_on,48,0,1,,,,,,,,,0,,,58,0
203340,note_on,60,0,3,,,,,,,,,2,,,63,0
203340,note_on,60,0,2,,,,,,,,,1,,,63,0
203340,note_on,0,0,3,,,,,,,,,2,,,63,81
203340,note_on,12,0,1,,,,,,,,,0,,,55,105
203340,note_on,60,0,4,,,,,,,,,3,,,51,0
203340,note_on,0,0,4,,,,,,,,,3,,,51,81
203340,note_on,0,0,2,,,,,,,,,1,,,63,81
203388,note_on,48,0,4,,,,,,,,,3,,,51,0
203388,note_on,48,0,2,,,,,,,,,1,,,63,0
203388,note_on,48,0,3,,,,,,,,,2,,,63,0
203388,note_on,48,0,1,,,,,,,,,0,,,55,0
203400,note_on,12,0,3,,,,,,,,,2,,,63,81
203400,note_on,12,0,1,,,,,,,,,0,,,55,105
203400,note_on,12,0,4,,,,,,,,,3,,,51,81
203400,note_on,0,0,5,,,,,,,,,4,,,51,81
203400,note_on,120,0,5,,,,,,,,,4,,,39,0
203400,note_on,12,0,2,,,,,,,,,1,,,63,81
203448,note_on,48,0,4,,,,,,,,,3,,,51,0
203448,note_on,48,0,1,,,,,,,,,0,,,55,0
203448,note_on,48,0,2,,,,,,,,,1,,,63,0
203448,note_on,48,0,3,,,,,,,,,2,,,63,0
203460,note_on,12,0,2,,,,,,,,,1,,,63,81
203460,note_on,12,0,1,,,,,,,,,0,,,58,105
203460,note_on,12,0,4,,,,,,,,,3,,,51,81
203460,note_on,12,0,3,,,,,,,,,2,,,63,81
203496,note_on,96,0,5,,,,,,,,,4,,,51,0
203508,note_on,48,0,4,,,,,,,,,3,,,51,0
203508,note_on,48,0,2,,,,,,,,,1,,,63,0
203508,note_on,48,0,1,,,,,,,,,0,,,58,0
203508,note_on,48,0,3,,,,,,,,,2,,,63,0
203520,note_on,12,0,3,,,,,,,,,2,,,63,81
203520,note_on,12,0,1,,,,,,,,,0,,,58,105
203520,note_on,24,0,5,,,,,,,,,4,,,39,81
203520,note_on,12,0,2,,,,,,,,,1,,,63,81
203520,note_on,12,0,4,,,,,,,,,3,,,51,81
203568,note_on,48,0,4,,,,,,,,,3,,,51,0
203568,note_on,48,0,2,,,,,,,,,1,,,63,0
203568,note_on,48,0,1,,,,,,,,,0,,,58,0
203568,note_on,0,0,1,,,,,,,,,0,,,63,0
203568,note_on,48,0,3,,,,,,,,,2,,,63,0
203580,note_on,12,0,2,,,,,,,,,1,,,63,81
203580,note_on,12,0,1,,,,,,,,,0,,,55,105
203580,note_on,12,0,4,,,,,,,,,3,,,51,81
203580,note_on,12,0,3,,,,,,,,,2,,,63,81
203616,note_on,96,0,5,,,,,,,,,4,,,39,0
203628,note_on,48,0,4,,,,,,,,,3,,,51,0
203628,note_on,48,0,2,,,,,,,,,1,,,63,0
203628,note_on,48,0,3,,,,,,,,,2,,,63,0
203628,note_on,48,0,1,,,,,,,,,0,,,55,0
203640,note_on,12,0,4,,,,,,,,,3,,,51,101
203640,note_on,12,0,1,,,,,,,,,0,,,70,105
203640,note_on,12,0,2,,,,,,,,,1,,,63,101
203640,note_on,12,0,3,,,,,,,,,2,,,63,101
203640,note_on,24,0,5,,,,,,,,,4,,,39,101
203700,note_on,60,0,1,,,,,,,,,0,,,67,105
203700,note_on,60,0,2,,,,,,,,,1,,,63,0
203700,note_on,60,0,4,,,,,,,,,3,,,51,0
203700,note_on,0,0,2,,,,,,,,,1,,,63,81
203700,note_on,0,0,3,,,,,,,,,2,,,63,81
203700,note_on,60,0,3,,,,,,,,,2,,,63,0
203700,note_on,0,0,4,,,,,,,,,3,,,51,81
203748,note_on,48,0,1,,,,,,,,,0,,,67,0
203748,note_on,48,0,2,,,,,,,,,1,,,63,0
203748,note_on,48,0,3,,,,,,,,,2,,,63,0
203748,note_on,48,0,4,,,,,,,,,3,,,51,0
203760,note_on,12,0,1,,,,,,,,,0,,,67,105
203760,note_on,12,0,2,,,,,,,,,1,,,63,81
203760,note_on,12,0,3,,,,,,,,,2,,,63,81
203760,note_on,120,0,5,,,,,,,,,4,,,39,0
203760,note_on,0,0,5,,,,,,,,,4,,,51,81
203760,note_on,12,0,4,,,,,,,,,3,,,51,81
203808,note_on,48,0,4,,,,,,,,,3,,,51,0
203808,note_on,48,0,3,,,,,,,,,2,,,63,0
203808,note_on,48,0,1,,,,,,,,,0,,,67,0
203808,note_on,48,0,2,,,,,,,,,1,,,63,0
203820,note_on,12,0,2,,,,,,,,,1,,,63,81
203820,note_on,12,0,4,,,,,,,,,3,,,51,81
203820,note_on,12,0,3,,,,,,,,,2,,,63,81
203820,note_on,12,0,1,,,,,,,,,0,,,63,105
203856,note_on,96,0,5,,,,,,,,,4,,,51,0
203868,note_on,48,0,3,,,,,,,,,2,,,63,0
203868,note_on,48,0,2,,,,,,,,,1,,,63,0
203868,note_on,48,0,4,,,,,,,,,3,,,51,0
203868,note_on,48,0,1,,,,,,,,,0,,,63,0
203880,note_on,12,0,1,,,,,,,,,0,,,63,105
203880,note_on,12,0,4,,,,,,,,,3,,,51,81
203880,note_on,24,0,5,,,,,,,,,4,,,39,81
203880,note_on,12,0,3,,,,,,,,,2,,,63,81
203880,note_on,12,0,2,,,,,,,,,1,,,63,81
203928,note_on,48,0,3,,,,,,,,,2,,,63,0
203928,note_on,48,0,4,,,,,,,,,3,,,51,0
203928,note_on,48,0,2,,,,,,,,,1,,,63,0
203928,note_on,48,0,1,,,,,,,,,0,,,63,0
203940,note_on,12,0,3,,,,,,,,,2,,,63,81
203940,note_on,12,0,2,,,,,,,,,1,,,63,81
203940,note_on,12,0,4,,,,,,,,,3,,,51,81
203940,note_on,12,0,1,,,,,,,,,0,,,67,105
203976,note_on,96,0,5,,,,,,,,,4,,,39,0
203988,note_on,48,0,4,,,,,,,,,3,,,51,0
203988,note_on,48,0,3,,,,,,,,,2,,,63,0
203988,note_on,48,0,2,,,,,,,,,1,,,63,0
203988,note_on,48,0,1,,,,,,,,,0,,,67,0
204000,note_on,24,0,5,,,,,,,,,4,,,39,101
204000,note_on,12,0,3,,,,,,,,,2,,,63,101
204000,note_on,12,0,2,,,,,,,,,1,,,63,101
204000,note_on,12,0,4,,,,,,,,,3,,,51,101
204000,note_on,12,0,1,,,,,,,,,0,,,67,105
204048,note_on,48,0,1,,,,,,,,,0,,,67,0
204060,note_on,12,0,1,,,,,,,,,0,,,63,105
204060,note_on,0,0,3,,,,,,,,,2,,,63,81
204060,note_on,60,0,3,,,,,,,,,2,,,63,0
204060,note_on,60,0,4,,,,,,,,,3,,,51,0
204060,note_on,60,0,2,,,,,,,,,1,,,63,0
204060,note_on,0,0,4,,,,,,,,,3,,,51,81
204060,note_on,0,0,2,,,,,,,,,1,,,63,81
204108,note_on,48,0,2,,,,,,,,,1,,,63,0
204108,note_on,48,0,4,,,,,,,,,3,,,51,0
204108,note_on,48,0,1,,,,,,,,,0,,,63,0
204108,note_on,48,0,3,,,,,,,,,2,,,63,0
204120,note_on,12,0,4,,,,,,,,,3,,,51,81
204120,note_on,12,0,2,,,,,,,,,1,,,63,81
204120,note_on,12,0,1,,,,,,,,,0,,,63,105
204120,note_on,120,0,5,,,,,,,,,4,,,39,0
204120,note_on,0,0,5,,,,,,,,,4,,,51,81
204120,note_on,12,0,3,,,,,,,,,2,,,63,81
204168,note_on,48,0,1,,,,,,,,,0,,,63,0
204168,note_on,48,0,3,,,,,,,,,2,,,63,0
204168,note_on,48,0,4,,,,,,,,,3,,,51,0
204168,note_on,48,0,2,,,,,,,,,1,,,63,0
204180,note_on,12,0,4,,,,,,,,,3,,,51,81
204180,note_on,12,0,2,,,,,,,,,1,,,63,81
204180,note_on,12,0,3,,,,,,,,,2,,,63,81
204180,note_on,12,0,1,,,,,,,,,0,,,67,105
204216,note_on,96,0,5,,,,,,,,,4,,,51,0
204228,note_on,48,0,3,,,,,,,,,2,,,63,0
204228,note_on,48,0,4,,,,,,,,,3,,,51,0
204228,note_on,48,0,2,,,,,,,,,1,,,63,0
204228,note_on,48,0,1,,,,,,,,,0,,,67,0
204240,note_on,12,0,2,,,,,,,,,1,,,63,81
204240,note_on,24,0,5,,,,,,,,,4,,,39,81
204240,note_on,12,0,1,,,,,,,,,0,,,67,105
204240,note_on,12,0,3,,,,,,,,,2,,,63,81
204240,note_on,12,0,4,,,,,,,,,3,,,51,81
204288,note_on,48,0,3,,,,,,,,,2,,,63,0
204288,note_on,48,0,2,,,,,,,,,1,,,63,0
204288,note_on,48,0,4,,,,,,,,,3,,,51,0
204288,note_on,0,0,1,,,,,,,,,0,,,70,0
204288,note_on,48,0,1,,,,,,,,,0,,,67,0
204300,note_on,12,0,2,,,,,,,,,1,,,63,81
204300,note_on,12,0,4,,,,,,,,,3,,,51,81
204300,note_on,12,0,1,,,,,,,,,0,,,63,105
204300,note_on,12,0,3,,,,,,,,,2,,,63,81
204336,note_on,96,0,5,,,,,,,,,4,,,39,0
204348,note_on,48,0,1,,,,,,,,,0,,,63,0
204348,note_on,48,0,3,,,,,,,,,2,,,63,0
204348,note_on,48,0,2,,,,,,,,,1,,,63,0
204348,note_on,48,0,4,,,,,,,,,3,,,51,0
204360,note_on,12,0,3,,,,,,,,,2,,,63,101
204360,note_on,12,0,1,,,,,,,,,0,,,79,105
204360,note_on,12,0,4,,,,,,,,,3,,,51,101
204360,note_on,24,0,5,,,,,,,,,4,,,39,101
204360,note_on,12,0,2,,,,,,,,,1,,,63,101
204420,note_on,60,0,1,,,,,,,,,0,,,75,105
204420,note_on,60,0,3,,,,,,,,,2,,,63,0
204420,note_on,0,0,3,,,,,,,,,2,,,63,81
204420,note_on,60,0,2,,,,,,,,,1,,,63,0
204420,note_on,0,0,2,,,,,,,,,1,,,63,81
204420,note_on,0,0,4,,,,,,,,,3,,,51,81
204420,note_on,60,0,4,,,,,,,,,3,,,51,0
204468,note_on,48,0,3,,,,,,,,,2,,,63,0
204468,note_on,48,0,2,,,,,,,,,1,,,63,0
204468,note_on,48,0,4,,,,,,,,,3,,,51,0
204468,note_on,48,0,1,,,,,,,,,0,,,75,0
204480,note_on,0,0,5,,,,,,,,,4,,,51,81
204480,note_on,12,0,1,,,,,,,,,0,,,75,105
204480,note_on,12,0,2,,,,,,,,,1,,,63,81
204480,note_on,120,0,5,,,,,,,,,4,,,39,0
204480,note_on,12,0,4,,,,,,,,,3,,,51,81
204480,note_on,12,0,3,,,,,,,,,2,,,63,81
204528,note_on,48,0,3,,,,,,,,,2,,,63,0
204528,note_on,48,0,1,,,,,,,,,0,,,75,0
204528,note_on,48,0,2,,,,,,,,,1,,,63,0
204528,note_on,48,0,4,,,,,,,,,3,,,51,0
204540,note_on,12,0,3,,,,,,,,,2,,,63,81
204540,note_on,12,0,1,,,,,,,,,0,,,70,105
204540,note_on,12,0,2,,,,,,,,,1,,,63,81
204540,note_on,12,0,4,,,,,,,,,3,,,51,81
204576,note_on,96,0,5,,,,,,,,,4,,,51,0
204588,note_on,48,0,3,,,,,,,,,2,,,63,0
204588,note_on,48,0,1,,,,,,,,,0,,,70,0
204588,note_on,48,0,2,,,,,,,,,1,,,63,0
204588,note_on,48,0,4,,,,,,,,,3,,,51,0
204600,note_on,24,0,5,,,,,,,,,4,,,39,81
204600,note_on,12,0,1,,,,,,,,,0,,,70,105
204600,note_on,12,0,2,,,,,,,,,1,,,63,81
204600,note_on,12,0,3,,,,,,,,,2,,,63,81
204600,note_on,12,0,4,,,,,,,,,3,,,51,81
204648,note_on,48,0,4,,,,,,,,,3,,,51,0
204648,note_on,48,0,2,,,,,,,,,1,,,63,0
204648,note_on,48,0,3,,,,,,,,,2,,,63,0
204648,note_on,48,0,1,,,,,,,,,0,,,70,0
204660,note_on,12,0,4,,,,,,,,,3,,,51,81
204660,note_on,12,0,2,,,,,,,,,1,,,63,81
204660,note_on,12,0,1,,,,,,,,,0,,,75,105
204660,note_on,12,0,3,,,,,,,,,2,,,63,81
204696,note_on,96,0,5,,,,,,,,,4,,,39,0
204708,note_on,48,0,1,,,,,,,,,0,,,75,0
204708,note_on,48,0,4,,,,,,,,,3,,,51,0
204708,note_on,48,0,3,,,,,,,,,2,,,63,0
204708,note_on,48,0,2,,,,,,,,,1,,,63,0
204720,note_on,12,0,3,,,,,,,,,2,,,63,101
204720,note_on,24,0,5,,,,,,,,,4,,,39,101
204720,note_on,12,0,1,,,,,,,,,0,,,75,105
204720,note_on,12,0,4,,,,,,,,,3,,,51,81
204720,note_on,12,0,2,,,,,,,,,1,,,63,101
204768,note_on,48,0,4,,,,,,,,,3,,,51,0
204768,note_on,48,0,1,,,,,,,,,0,,,75,0
204780,note_on,60,0,2,,,,,,,,,1,,,63,0
204780,note_on,0,0,2,,,,,,,,,1,,,63,81
204780,note_on,60,0,3,,,,,,,,,2,,,63,0
204780,note_on,0,0,3,,,,,,,,,2,,,63,81
204780,note_on,12,0,4,,,,,,,,,3,,,51,81
204780,note_on,12,0,1,,,,,,,,,0,,,70,105
204828,note_on,48,0,4,,,,,,,,,3,,,51,0
204828,note_on,48,0,1,,,,,,,,,0,,,70,0
204828,note_on,48,0,3,,,,,,,,,2,,,63,0
204828,note_on,48,0,2,,,,,,,,,1,,,63,0
204840,note_on,12,0,3,,,,,,,,,2,,,63,81
204840,note_on,0,0,5,,,,,,,,,4,,,51,81
204840,note_on,12,0,2,,,,,,,,,1,,,63,81
204840,note_on,12,0,1,,,,,,,,,0,,,70,105
204840,note_on,12,0,4,,,,,,,,,3,,,51,81
204840,note_on,120,0,5,,,,,,,,,4,,,39,0
204888,note_on,48,0,3,,,,,,,,,2,,,63,0
204888,note_on,48,0,2,,,,,,,,,1,,,63,0
204888,note_on,48,0,1,,,,,,,,,0,,,70,0
204888,note_on,48,0,4,,,,,,,,,3,,,51,0
204900,note_on,12,0,4,,,,,,,,,3,,,51,81
204900,note_on,12,0,3,,,,,,,,,2,,,63,81
204900,note_on,12,0,2,,,,,,,,,1,,,63,81
204900,note_on,12,0,1,,,,,,,,,0,,,75,105
204936,note_on,96,0,5,,,,,,,,,4,,,51,0
204948,note_on,48,0,1,,,,,,,,,0,,,75,0
204948,note_on,48,0,3,,,,,,,,,2,,,63,0
204948,note_on,48,0,2,,,,,,,,,1,,,63,0
204948,note_on,48,0,4,,,,,,,,,3,,,51,0
204960,note_on,12,0,3,,,,,,,,,2,,,63,81
204960,note_on,12,0,4,,,,,,,,,3,,,51,81
204960,note_on,12,0,1,,,,,,,,,0,,,75,105
204960,note_on,24,0,5,,,,,,,,,4,,,39,81
204960,note_on,12,0,2,,,,,,,,,1,,,63,81
205008,note_on,48,0,2,,,,,,,,,1,,,63,0
205008,note_on,48,0,3,,,,,,,,,2,,,63,0
205008,note_on,0,0,1,,,,,,,,,0,,,79,0
205008,note_on,48,0,4,,,,,,,,,3,,,51,0
205008,note_on,48,0,1,,,,,,,,,0,,,75,0
205020,note_on,12,0,1,,,,,,,,,0,,,70,105
205020,note_on,12,0,2,,,,,,,,,1,,,63,81
205020,note_on,12,0,4,,,,,,,,,3,,,51,81
205020,note_on,12,0,3,,,,,,,,,2,,,63,81
205056,note_on,96,0,5,,,,,,,,,4,,,39,0
205068,note_on,48,0,2,,,,,,,,,1,,,63,0
205068,note_on,48,0,4,,,,,,,,,3,,,51,0
205068,note_on,48,0,1,,,,,,,,,0,,,70,0
205068,note_on,48,0,3,,,,,,,,,2,,,63,0
205080,note_on,12,0,1,,,,,,,,,0,,,82,105
205080,note_on,12,0,4,,,,,,,,,3,,,51,72
205080,note_on,24,0,5,,,,,,,,,4,,,39,72
205080,note_on,12,0,3,,,,,,,,,2,,,63,72
205080,note_on,12,0,2,,,,,,,,,1,,,63,72
205104,note_on,24,0,1,,,,,,,,,0,,,82,0
205110,note_on,6,0,1,,,,,,,,,0,,,80,105
205134,note_on,24,0,1,,,,,,,,,0,,,80,0
205140,note_on,6,0,1,,,,,,,,,0,,,79,105
205164,note_on,24,0,1,,,,,,,,,0,,,79,0
205170,note_on,6,0,1,,,,,,,,,0,,,77,105
205194,note_on,24,0,1,,,,,,,,,0,,,77,0
205200,note_on,6,0,1,,,,,,,,,0,,,75,105
205224,note_on,24,0,1,,,,,,,,,0,,,75,0
205230,note_on,6,0,1,,,,,,,,,0,,,74,105
205254,note_on,24,0,1,,,,,,,,,0,,,74,0
205260,note_on,6,0,1,,,,,,,,,0,,,72,105
205272,note_on,192,0,5,,,,,,,,,4,,,39,0
205272,note_on,192,0,3,,,,,,,,,2,,,63,0
205272,note_on,192,0,4,,,,,,,,,3,,,51,0
205272,note_on,192,0,2,,,,,,,,,1,,,63,0
205284,note_on,24,0,1,,,,,,,,,0,,,72,0
205290,note_on,6,0,1,,,,,,,,,0,,,70,105
205314,note_on,24,0,1,,,,,,,,,0,,,70,0
205320,note_on,6,0,1,,,,,,,,,0,,,68,105
205344,note_on,24,0,1,,,,,,,,,0,,,68,0
205350,note_on,6,0,1,,,,,,,,,0,,,67,105
205374,note_on,24,0,1,,,,,,,,,0,,,67,0
205380,note_on,6,0,1,,,,,,,,,0,,,65,105
205392,note_on,12,0,1,,,,,,,,,0,,,65,0
205395,note_on,3,0,1,,,,,,,,,0,,,63,105
205407,note_on,12,0,1,,,,,,,,,0,,,63,0
205410,note_on,3,0,1,,,,,,,,,0,,,62,105
205422,note_on,12,0,1,,,,,,,,,0,,,62,0
205425,note_on,3,0,1,,,,,,,,,0,,,60,105
205437,note_on,12,0,1,,,,,,,,,0,,,60,0
205440,note_on,168,0,5,,,,,,,,,4,,,46,92
205440,note_on,168,0,2,,,,,,,,,1,,,58,92
205440,note_on,168,0,3,,,,,,,,,2,,,58,92
205440,note_on,3,0,1,,,,,,,,,0,,,58,105
205440,note_on,168,0,4,,,,,,,,,3,,,58,92
205536,note_on,96,0,1,,,,,,,,,0,,,58,0
205560,note_on,24,0,1,,,,,,,,,0,,,70,105
205560,note_on,0,0,5,,,,,,,,,4,,,58,72
205560,note_on,0,0,2,,,,,,,,,1,,,70,72
205560,note_on,120,0,2,,,,,,,,,1,,,58,0
205560,note_on,0,0,4,,,,,,,,,3,,,70,72
205560,note_on,120,0,4,,,,,,,,,3,,,58,0
205560,note_on,120,0,3,,,,,,,,,2,,,58,0
205560,note_on,120,0,5,,,,,,,,,4,,,46,0
205560,note_on,0,0,3,,,,,,,,,2,,,70,72
205656,note_on,96,0,3,,,,,,,,,2,,,70,0
205656,note_on,96,0,5,,,,,,,,,4,,,58,0
205656,note_on,96,0,1,,,,,,,,,0,,,70,0
205656,note_on,96,0,2,,,,,,,,,1,,,70,0
205656,note_on,96,0,4,,,,,,,,,3,,,70,0
205680,note_on,24,0,2,,,,,,,,,1,,,58,72
205680,note_on,24,0,4,,,,,,,,,3,,,58,72
205680,note_on,24,0,5,,,,,,,,,4,,,46,72
205680,note_on,24,0,1,,,,,,,,,0,,,58,105
205680,note_on,24,0,3,,,,,,,,,2,,,58,72
205776,note_on,96,0,5,,,,,,,,,4,,,46,0
205776,note_on,96,0,1,,,,,,,,,0,,,58,0
205776,note_on,96,0,2,,,,,,,,,1,,,58,0
205776,note_on,96,0,3,,,,,,,,,2,,,58,0
205776,note_on,96,0,4,,,,,,,,,3,,,58,0
205800,note_on,24,0,5,,,,,,,,,4,,,46,92
205800,note_on,24,0,2,,,,,,,,,1,,,58,92
205800,note_on,24,0,1,,,,,,,,,0,,,58,125
205800,note_on,24,0,3,,,,,,,,,2,,,58,92
205800,note_on,24,0,4,,,,,,,,,3,,,58,92
205920,note_on,120,0,4,,,,,,,,,3,,,58,0
205920,note_on,120,0,5,,,,,,,,,4,,,46,0
205920,note_on,120,0,2,,,,,,,,,1,,,58,0
205920,note_on,0,0,5,,,,,,,,,4,,,46,72
205920,note_on,0,0,1,,,,,,,,,0,,,58,105
205920,note_on,120,0,1,,,,,,,,,0,,,58,0
205920,note_on,120,0,3,,,,,,,,,2,,,58,0
205920,note_on,0,0,3,,,,,,,,,2,,,58,72
205920,note_on,0,0,2,,,,,,,,,1,,,58,72
205920,note_on,0,0,4,,,,,,,,,3,,,58,72
206016,note_on,96,0,4,,,,,,,,,3,,,58,0
206016,note_on,96,0,3,,,,,,,,,2,,,58,0
206016,note_on,96,0,1,,,,,,,,,0,,,58,0
206016,note_on,96,0,5,,,,,,,,,4,,,46,0
206016,note_on,96,0,2,,,,,,,,,1,,,58,0
206040,note_on,24,0,2,,,,,,,,,1,,,58,72
206040,note_on,24,0,5,,,,,,,,,4,,,46,72
206040,note_on,24,0,3,,,,,,,,,2,,,58,72
206040,note_on,24,0,4,,,,,,,,,3,,,58,72
206040,note_on,24,0,1,,,,,,,,,0,,,58,105
206136,note_on,96,0,4,,,,,,,,,3,,,58,0
206136,note_on,96,0,5,,,,,,,,,4,,,46,0
206136,note_on,96,0,3,,,,,,,,,2,,,58,0
206136,note_on,96,0,2,,,,,,,,,1,,,58,0
206136,note_on,96,0,1,,,,,,,,,0,,,58,0
206160,note_on,24,0,1,,,,,,,,,0,,,80,105
206184,note_on,24,0,1,,,,,,,,,0,,,80,0
206190,note_on,6,0,1,,,,,,,,,0,,,79,105
206214,note_on,24,0,1,,,,,,,,,0,,,79,0
206220,note_on,6,0,1,,,,,,,,,0,,,77,105
206244,note_on,24,0,1,,,,,,,,,0,,,77,0
206250,note_on,6,0,1,,,,,,,,,0,,,75,105
206274,note_on,24,0,1,,,,,,,,,0,,,75,0
206280,note_on,6,0,1,,,,,,,,,0,,,74,105
206304,note_on,24,0,1,,,,,,,,,0,,,74,0
206310,note_on,6,0,1,,,,,,,,,0,,,72,105
206334,note_on,24,0,1,,,,,,,,,0,,,72,0
206340,note_on,6,0,1,,,,,,,,,0,,,70,105
206364,note_on,24,0,1,,,,,,,,,0,,,70,0
206370,note_on,6,0,1,,,,,,,,,0,,,68,105
206394,note_on,24,0,1,,,,,,,,,0,,,68,0
206400,note_on,6,0,1,,,,,,,,,0,,,67,105
206424,note_on,24,0,1,,,,,,,,,0,,,67,0
206430,note_on,6,0,1,,,,,,,,,0,,,65,105
206454,note_on,24,0,1,,,,,,,,,0,,,65,0
206460,note_on,6,0,1,,,,,,,,,0,,,63,105
206472,note_on,12,0,1,,,,,,,,,0,,,63,0
206475,note_on,3,0,1,,,,,,,,,0,,,62,105
206487,note_on,12,0,1,,,,,,,,,0,,,62,0
206490,note_on,3,0,1,,,,,,,,,0,,,60,105
206502,note_on,12,0,1,,,,,,,,,0,,,60,0
206505,note_on,3,0,1,,,,,,,,,0,,,58,105
206517,note_on,12,0,1,,,,,,,,,0,,,58,0
206520,note_on,384,0,2,,,,,,,,,1,,,56,92
206520,note_on,384,0,3,,,,,,,,,2,,,56,92
206520,note_on,384,0,4,,,,,,,,,3,,,56,92
206520,note_on,384,0,5,,,,,,,,,4,,,44,92
206520,note_on,3,0,1,,,,,,,,,0,,,56,125
206640,note_on,0,0,2,,,,,,,,,1,,,68,72
206640,note_on,120,0,4,,,,,,,,,3,,,56,0
206640,note_on,0,0,4,,,,,,,,,3,,,68,72
206640,note_on,120,0,5,,,,,,,,,4,,,44,0
206640,note_on,120,0,1,,,,,,,,,0,,,56,0
206640,note_on,0,0,1,,,,,,,,,0,,,68,105
206640,note_on,0,0,5,,,,,,,,,4,,,56,72
206640,note_on,0,0,3,,,,,,,,,2,,,68,72
206640,note_on,120,0,2,,,,,,,,,1,,,56,0
206640,note_on,120,0,3,,,,,,,,,2,,,56,0
206736,note_on,96,0,2,,,,,,,,,1,,,68,0
206736,note_on,96,0,3,,,,,,,,,2,,,68,0
206736,note_on,96,0,1,,,,,,,,,0,,,68,0
206736,note_on,96,0,4,,,,,,,,,3,,,68,0
206736,note_on,96,0,5,,,,,,,,,4,,,56,0
206760,note_on,24,0,2,,,,,,,,,1,,,56,72
206760,note_on,24,0,1,,,,,,,,,0,,,56,105
206760,note_on,24,0,3,,,,,,,,,2,,,56,72
206760,note_on,24,0,4,,,,,,,,,3,,,56,72
206760,note_on,24,0,5,,,,,,,,,4,,,44,72
206856,note_on,96,0,2,,,,,,,,,1,,,56,0
206856,note_on,96,0,4,,,,,,,,,3,,,56,0
206856,note_on,96,0,5,,,,,,,,,4,,,44,0
206856,note_on,96,0,3,,,,,,,,,2,,,56,0
206856,note_on,96,0,1,,,,,,,,,0,,,56,0
206880,note_on,24,0,5,,,,,,,,,4,,,44,92
206880,note_on,24,0,3,,,,,,,,,2,,,56,92
206880,note_on,24,0,1,,,,,,,,,0,,,56,125
206880,note_on,24,0,4,,,,,,,,,3,,,56,92
206880,note_on,24,0,2,,,,,,,,,1,,,56,92
207000,note_on,0,0,1,,,,,,,,,0,,,56,105
207000,note_on,120,0,1,,,,,,,,,0,,,56,0
207000,note_on,0,0,2,,,,,,,,,1,,,56,72
207000,note_on,120,0,3,,,,,,,,,2,,,56,0
207000,note_on,0,0,3,,,,,,,,,2,,,56,72
207000,note_on,120,0,4,,,,,,,,,3,,,56,0
207000,note_on,0,0,4,,,,,,,,,3,,,56,72
207000,note_on,0,0,5,,,,,,,,,4,,,44,72
207000,note_on,120,0,5,,,,,,,,,4,,,44,0
207000,note_on,120,0,2,,,,,,,,,1,,,56,0
207096,note_on,96,0,1,,,,,,,,,0,,,56,0
207096,note_on,96,0,4,,,,,,,,,3,,,56,0
207096,note_on,96,0,5,,,,,,,,,4,,,44,0
207096,note_on,96,0,2,,,,,,,,,1,,,56,0
207096,note_on,96,0,3,,,,,,,,,2,,,56,0
207120,note_on,24,0,3,,,,,,,,,2,,,56,72
207120,note_on,24,0,5,,,,,,,,,4,,,44,72
207120,note_on,24,0,2,,,,,,,,,1,,,56,72
207120,note_on,24,0,1,,,,,,,,,0,,,56,105
207120,note_on,24,0,4,,,,,,,,,3,,,56,72
207216,note_on,96,0,5,,,,,,,,,4,,,44,0
207216,note_on,96,0,4,,,,,,,,,3,,,56,0
207216,note_on,96,0,2,,,,,,,,,1,,,56,0
207216,note_on,96,0,1,,,,,,,,,0,,,56,0
207216,note_on,96,0,3,,,,,,,,,2,,,56,0
207240,note_on,24,0,1,,,,,,,,,0,,,79,105
207264,note_on,24,0,1,,,,,,,,,0,,,79,0
207270,note_on,6,0,1,,,,,,,,,0,,,77,105
207294,note_on,24,0,1,,,,,,,,,0,,,77,0
207300,note_on,6,0,1,,,,,,,,,0,,,75,105
207324,note_on,24,0,1,,,,,,,,,0,,,75,0
207330,note_on,6,0,1,,,,,,,,,0,,,74,105
207354,note_on,24,0,1,,,,,,,,,0,,,74,0
207360,note_on,6,0,1,,,,,,,,,0,,,72,105
207384,note_on,24,0,1,,,,,,,,,0,,,72,0
207390,note_on,6,0,1,,,,,,,,,0,,,70,105
207414,note_on,24,0,1,,,,,,,,,0,,,70,0
207420,note_on,6,0,1,,,,,,,,,0,,,68,105
207444,note_on,24,0,1,,,,,,,,,0,,,68,0
207450,note_on,6,0,1,,,,,,,,,0,,,67,105
207474,note_on,24,0,1,,,,,,,,,0,,,67,0
207480,note_on,6,0,1,,,,,,,,,0,,,65,105
207504,note_on,24,0,1,,,,,,,,,0,,,65,0
207510,note_on,6,0,1,,,,,,,,,0,,,63,105
207534,note_on,24,0,1,,,,,,,,,0,,,63,0
207540,note_on,6,0,1,,,,,,,,,0,,,62,105
207552,note_on,12,0,1,,,,,,,,,0,,,62,0
207555,note_on,3,0,1,,,,,,,,,0,,,60,105
207567,note_on,12,0,1,,,,,,,,,0,,,60,0
207570,note_on,3,0,1,,,,,,,,,0,,,58,105
207582,note_on,12,0,1,,,,,,,,,0,,,58,0
207585,note_on,3,0,1,,,,,,,,,0,,,56,105
207597,note_on,12,0,1,,,,,,,,,0,,,56,0
207600,note_on,384,0,3,,,,,,,,,2,,,55,92
207600,note_on,384,0,2,,,,,,,,,1,,,55,72
207600,note_on,384,0,4,,,,,,,,,3,,,55,92
207600,note_on,3,0,1,,,,,,,,,0,,,55,125
207600,note_on,384,0,5,,,,,,,,,4,,,43,92
207696,note_on,96,0,2,,,,,,,,,1,,,55,0
207720,note_on,120,0,3,,,,,,,,,2,,,55,0
207720,note_on,0,0,3,,,,,,,,,2,,,67,72
207720,note_on,0,0,1,,,,,,,,,0,,,67,105
207720,note_on,24,0,2,,,,,,,,,1,,,67,72
207720,note_on,120,0,5,,,,,,,,,4,,,43,0
207720,note_on,120,0,1,,,,,,,,,0,,,55,0
207720,note_on,0,0,5,,,,,,,,,4,,,55,72
207720,note_on,0,0,4,,,,,,,,,3,,,67,72
207720,note_on,120,0,4,,,,,,,,,3,,,55,0
207816,note_on,96,0,4,,,,,,,,,3,,,67,0
207816,note_on,96,0,1,,,,,,,,,0,,,67,0
207816,note_on,96,0,3,,,,,,,,,2,,,67,0
207816,note_on,96,0,5,,,,,,,,,4,,,55,0
207816,note_on,96,0,2,,,,,,,,,1,,,67,0
207840,note_on,24,0,2,,,,,,,,,1,,,55,72
207840,note_on,24,0,5,,,,,,,,,4,,,43,72
207840,note_on,24,0,3,,,,,,,,,2,,,55,72
207840,note_on,24,0,4,,,,,,,,,3,,,55,72
207840,note_on,24,0,1,,,,,,,,,0,,,55,105
207936,note_on,96,0,2,,,,,,,,,1,,,55,0
207936,note_on,96,0,5,,,,,,,,,4,,,43,0
207936,note_on,96,0,4,,,,,,,,,3,,,55,0
207936,note_on,96,0,3,,,,,,,,,2,,,55,0
207936,note_on,96,0,1,,,,,,,,,0,,,55,0
207960,note_on,24,0,5,,,,,,,,,4,,,43,92
207960,note_on,24,0,1,,,,,,,,,0,,,55,125
207960,note_on,24,0,2,,,,,,,,,1,,,55,92
207960,note_on,24,0,4,,,,,,,,,3,,,55,92
207960,note_on,24,0,3,,,,,,,,,2,,,55,92
208080,note_on,120,0,2,,,,,,,,,1,,,55,0
208080,note_on,120,0,1,,,,,,,,,0,,,55,0
208080,note_on,0,0,2,,,,,,,,,1,,,55,72
208080,note_on,0,0,1,,,,,,,,,0,,,55,105
208080,note_on,0,0,5,,,,,,,,,4,,,43,72
208080,note_on,120,0,5,,,,,,,,,4,,,43,0
208080,note_on,0,0,4,,,,,,,,,3,,,55,72
208080,note_on,120,0,4,,,,,,,,,3,,,55,0
208080,note_on,0,0,3,,,,,,,,,2,,,55,72
208080,note_on,120,0,3,,,,,,,,,2,,,55,0
208176,note_on,96,0,2,,,,,,,,,1,,,55,0
208176,note_on,96,0,5,,,,,,,,,4,,,43,0
208176,note_on,96,0,1,,,,,,,,,0,,,55,0
208176,note_on,96,0,3,,,,,,,,,2,,,55,0
208176,note_on,96,0,4,,,,,,,,,3,,,55,0
208200,note_on,24,0,3,,,,,,,,,2,,,55,72
208200,note_on,24,0,2,,,,,,,,,1,,,55,72
208200,note_on,24,0,4,,,,,,,,,3,,,55,72
208200,note_on,24,0,5,,,,,,,,,4,,,43,72
208200,note_on,24,0,1,,,,,,,,,0,,,55,105
208296,note_on,96,0,2,,,,,,,,,1,,,55,0
208296,note_on,96,0,5,,,,,,,,,4,,,43,0
208296,note_on,96,0,3,,,,,,,,,2,,,55,0
208296,note_on,96,0,4,,,,,,,,,3,,,55,0
208296,note_on,96,0,1,,,,,,,,,0,,,55,0
208320,note_on,24,0,3,,,,,,,,,2,,,63,72
208320,note_on,24,0,4,,,,,,,,,3,,,51,72
208320,note_on,24,0,1,,,,,,,,,0,,,63,105
208320,note_on,24,0,5,,,,,,,,,4,,,39,92
208320,note_on,24,0,2,,,,,,,,,1,,,63,72
208368,note_on,48,0,1,,,,,,,,,0,,,63,0
208368,note_on,48,0,2,,,,,,,,,1,,,63,0
208368,note_on,48,0,3,,,,,,,,,2,,,63,0
208368,note_on,48,0,4,,,,,,,,,3,,,51,0
208380,note_on,12,0,2,,,,,,,,,1,,,63,72
208380,note_on,12,0,1,,,,,,,,,0,,,63,105
208380,note_on,12,0,3,,,,,,,,,2,,,63,72
208380,note_on,12,0,4,,,,,,,,,3,,,51,72
208428,note_on,48,0,3,,,,,,,,,2,,,63,0
208428,note_on,48,0,2,,,,,,,,,1,,,63,0
208428,note_on,48,0,1,,,,,,,,,0,,,63,0
208428,note_on,48,0,4,,,,,,,,,3,,,51,0
208440,note_on,12,0,3,,,,,,,,,2,,,67,72
208440,note_on,120,0,5,,,,,,,,,4,,,39,0
208440,note_on,12,0,2,,,,,,,,,1,,,67,72
208440,note_on,12,0,1,,,,,,,,,0,,,67,105
208440,note_on,0,0,5,,,,,,,,,4,,,51,72
208440,note_on,12,0,4,,,,,,,,,3,,,55,72
208488,note_on,48,0,3,,,,,,,,,2,,,67,0
208488,note_on,48,0,4,,,,,,,,,3,,,55,0
208488,note_on,48,0,1,,,,,,,,,0,,,67,0
208488,note_on,48,0,2,,,,,,,,,1,,,67,0
208500,note_on,12,0,2,,,,,,,,,1,,,67,72
208500,note_on,12,0,4,,,,,,,,,3,,,55,72
208500,note_on,12,0,3,,,,,,,,,2,,,67,72
208500,note_on,12,0,1,,,,,,,,,0,,,67,105
208536,note_on,96,0,5,,,,,,,,,4,,,51,0
208548,note_on,48,0,2,,,,,,,,,1,,,67,0
208548,note_on,48,0,1,,,,,,,,,0,,,67,0
208548,note_on,48,0,4,,,,,,,,,3,,,55,0
208548,note_on,48,0,3,,,,,,,,,2,,,67,0
208560,note_on,12,0,1,,,,,,,,,0,,,70,105
208560,note_on,12,0,4,,,,,,,,,3,,,58,72
208560,note_on,12,0,2,,,,,,,,,1,,,70,72
208560,note_on,24,0,5,,,,,,,,,4,,,39,72
208560,note_on,12,0,3,,,,,,,,,2,,,70,72
208608,note_on,48,0,1,,,,,,,,,0,,,70,0
208608,note_on,48,0,2,,,,,,,,,1,,,70,0
208608,note_on,48,0,3,,,,,,,,,2,,,70,0
208608,note_on,48,0,4,,,,,,,,,3,,,58,0
208620,note_on,12,0,3,,,,,,,,,2,,,70,72
208620,note_on,12,0,1,,,,,,,,,0,,,70,105
208620,note_on,12,0,2,,,,,,,,,1,,,70,72
208620,note_on,12,0,4,,,,,,,,,3,,,58,72
208656,note_on,96,0,5,,,,,,,,,4,,,39,0
208668,note_on,48,0,3,,,,,,,,,2,,,70,0
208668,note_on,48,0,1,,,,,,,,,0,,,70,0
208668,note_on,48,0,2,,,,,,,,,1,,,70,0
208668,note_on,48,0,4,,,,,,,,,3,,,58,0
208680,note_on,24,0,5,,,,,,,,,4,,,39,92
208680,note_on,12,0,1,,,,,,,,,0,,,63,105
208680,note_on,12,0,4,,,,,,,,,3,,,51,72
208680,note_on,12,0,3,,,,,,,,,2,,,63,72
208680,note_on,12,0,2,,,,,,,,,1,,,63,72
208728,note_on,48,0,2,,,,,,,,,1,,,63,0
208728,note_on,48,0,4,,,,,,,,,3,,,51,0
208728,note_on,48,0,3,,,,,,,,,2,,,63,0
208728,note_on,48,0,1,,,,,,,,,0,,,63,0
208740,note_on,12,0,2,,,,,,,,,1,,,63,72
208740,note_on,12,0,1,,,,,,,,,0,,,63,105
208740,note_on,12,0,3,,,,,,,,,2,,,63,72
208740,note_on,12,0,4,,,,,,,,,3,,,51,72
208788,note_on,48,0,2,,,,,,,,,1,,,63,0
208788,note_on,48,0,1,,,,,,,,,0,,,63,0
208788,note_on,48,0,4,,,,,,,,,3,,,51,0
208788,note_on,48,0,3,,,,,,,,,2,,,63,0
208800,note_on,12,0,2,,,,,,,,,1,,,67,72
208800,note_on,0,0,5,,,,,,,,,4,,,51,72
208800,note_on,120,0,5,,,,,,,,,4,,,39,0
208800,note_on,12,0,1,,,,,,,,,0,,,67,105
208800,note_on,12,0,4,,,,,,,,,3,,,55,72
208800,note_on,12,0,3,,,,,,,,,2,,,67,72
208848,note_on,48,0,3,,,,,,,,,2,,,67,0
208848,note_on,48,0,2,,,,,,,,,1,,,67,0
208848,note_on,48,0,4,,,,,,,,,3,,,55,0
208848,note_on,48,0,1,,,,,,,,,0,,,67,0
208860,note_on,12,0,3,,,,,,,,,2,,,67,72
208860,note_on,12,0,4,,,,,,,,,3,,,55,72
208860,note_on,12,0,1,,,,,,,,,0,,,67,105
208860,note_on,12,0,2,,,,,,,,,1,,,67,72
208896,note_on,96,0,5,,,,,,,,,4,,,51,0
208908,note_on,48,0,2,,,,,,,,,1,,,67,0
208908,note_on,48,0,3,,,,,,,,,2,,,67,0
208908,note_on,48,0,1,,,,,,,,,0,,,67,0
208908,note_on,48,0,4,,,,,,,,,3,,,55,0
208920,note_on,12,0,3,,,,,,,,,2,,,70,72
208920,note_on,12,0,1,,,,,,,,,0,,,70,105
208920,note_on,12,0,2,,,,,,,,,1,,,70,72
208920,note_on,24,0,5,,,,,,,,,4,,,39,72
208920,note_on,12,0,4,,,,,,,,,3,,,58,72
208968,note_on,48,0,2,,,,,,,,,1,,,70,0
208968,note_on,48,0,3,,,,,,,,,2,,,70,0
208968,note_on,48,0,4,,,,,,,,,3,,,58,0
208968,note_on,48,0,1,,,,,,,,,0,,,70,0
208980,note_on,12,0,4,,,,,,,,,3,,,58,72
208980,note_on,12,0,3,,,,,,,,,2,,,70,72
208980,note_on,12,0,1,,,,,,,,,0,,,70,105
208980,note_on,12,0,2,,,,,,,,,1,,,70,72
209016,note_on,96,0,5,,,,,,,,,4,,,39,0
209028,note_on,48,0,4,,,,,,,,,3,,,58,0
209028,note_on,48,0,1,,,,,,,,,0,,,70,0
209028,note_on,48,0,2,,,,,,,,,1,,,70,0
209028,note_on,48,0,3,,,,,,,,,2,,,70,0
209040,note_on,24,0,5,,,,,,,,,4,,,39,92
209040,note_on,12,0,4,,,,,,,,,3,,,51,72
209040,note_on,12,0,1,,,,,,,,,0,,,63,105
209040,note_on,12,0,2,,,,,,,,,1,,,63,72
209040,note_on,12,0,3,,,,,,,,,2,,,63,72
209088,note_on,48,0,3,,,,,,,,,2,,,63,0
209088,note_on,48,0,1,,,,,,,,,0,,,63,0
209088,note_on,48,0,2,,,,,,,,,1,,,63,0
209088,note_on,48,0,4,,,,,,,,,3,,,51,0
209100,note_on,12,0,4,,,,,,,,,3,,,51,72
209100,note_on,12,0,3,,,,,,,,,2,,,63,72
209100,note_on,12,0,2,,,,,,,,,1,,,63,72
209100,note_on,12,0,1,,,,,,,,,0,,,63,105
209148,note_on,48,0,3,,,,,,,,,2,,,63,0
209148,note_on,48,0,2,,,,,,,,,1,,,63,0
209148,note_on,48,0,4,,,,,,,,,3,,,51,0
209148,note_on,48,0,1,,,,,,,,,0,,,63,0
209160,note_on,12,0,4,,,,,,,,,3,,,55,72
209160,note_on,12,0,2,,,,,,,,,1,,,67,72
209160,note_on,12,0,3,,,,,,,,,2,,,67,72
209160,note_on,12,0,1,,,,,,,,,0,,,67,105
209160,note_on,0,0,5,,,,,,,,,4,,,51,72
209160,note_on,120,0,5,,,,,,,,,4,,,39,0
209208,note_on,48,0,2,,,,,,,,,1,,,67,0
209208,note_on,48,0,1,,,,,,,,,0,,,67,0
209208,note_on,48,0,4,,,,,,,,,3,,,55,0
209208,note_on,48,0,3,,,,,,,,,2,,,67,0
209220,note_on,12,0,3,,,,,,,,,2,,,67,72
209220,note_on,12,0,4,,,,,,,,,3,,,55,72
209220,note_on,12,0,2,,,,,,,,,1,,,67,72
209220,note_on,12,0,1,,,,,,,,,0,,,67,105
209256,note_on,96,0,5,,,,,,,,,4,,,51,0
209268,note_on,48,0,3,,,,,,,,,2,,,67,0
209268,note_on,48,0,2,,,,,,,,,1,,,67,0
209268,note_on,48,0,1,,,,,,,,,0,,,67,0
209268,note_on,48,0,4,,,,,,,,,3,,,55,0
209280,note_on,12,0,3,,,,,,,,,2,,,70,72
209280,note_on,12,0,1,,,,,,,,,0,,,70,105
209280,note_on,12,0,2,,,,,,,,,1,,,70,72
209280,note_on,12,0,4,,,,,,,,,3,,,58,72
209280,note_on,24,0,5,,,,,,,,,4,,,39,72
209328,note_on,48,0,3,,,,,,,,,2,,,70,0
209328,note_on,48,0,2,,,,,,,,,1,,,70,0
209328,note_on,48,0,1,,,,,,,,,0,,,70,0
209328,note_on,48,0,4,,,,,,,,,3,,,58,0
209340,note_on,12,0,1,,,,,,,,,0,,,70,105
209340,note_on,12,0,2,,,,,,,,,1,,,70,72
209340,note_on,12,0,3,,,,,,,,,2,,,70,72
209340,note_on,12,0,4,,,,,,,,,3,,,58,72
209376,note_on,96,0,5,,,,,,,,,4,,,39,0
209388,note_on,48,0,1,,,,,,,,,0,,,70,0
209388,note_on,48,0,4,,,,,,,,,3,,,58,0
209388,note_on,48,0,2,,,,,,,,,1,,,70,0
209388,note_on,48,0,3,,,,,,,,,2,,,70,0
209400,note_on,24,0,5,,,,,,,,,4,,,39,72
209400,note_on,12,0,4,,,,,,,,,3,,,51,72
209400,note_on,12,0,2,,,,,,,,,1,,,63,72
209400,note_on,12,0,3,,,,,,,,,2,,,63,72
209400,note_on,12,0,1,,,,,,,,,0,,,63,105
209592,note_on,192,0,5,,,,,,,,,4,,,39,0
209592,note_on,192,0,3,,,,,,,,,2,,,63,0
209592,note_on,192,0,1,,,,,,,,,0,,,63,0
209592,note_on,192,0,2,,,,,,,,,1,,,63,0
209592,note_on,192,0,4,,,,,,,,,3,,,51,0
209760,note_on,168,0,2,,,,,,,,,1,,,75,92
209760,note_on,168,0,3,,,,,,,,,2,,,75,92
209760,note_on,168,0,5,,,,,,,,,4,,,51,92
209760,note_on,168,0,1,,,,,,,,,0,,,75,125
209760,note_on,168,0,4,,,,,,,,,3,,,67,92
209880,note_on,120,0,3,,,,,,,,,2,,,75,0
209880,note_on,120,0,5,,,,,,,,,4,,,51,0
209880,note_on,0,0,5,,,,,,,,,4,,,58,72
209880,note_on,120,0,4,,,,,,,,,3,,,67,0
209880,note_on,0,0,4,,,,,,,,,3,,,58,72
209880,note_on,0,0,1,,,,,,,,,0,,,58,105
209880,note_on,120,0,1,,,,,,,,,0,,,75,0
209880,note_on,0,0,2,,,,,,,,,1,,,58,72
209880,note_on,120,0,2,,,,,,,,,1,,,75,0
209880,note_on,0,0,3,,,,,,,,,2,,,58,72
209976,note_on,96,0,1,,,,,,,,,0,,,58,0
209976,note_on,96,0,5,,,,,,,,,4,,,58,0
209976,note_on,96,0,3,,,,,,,,,2,,,58,0
209976,note_on,96,0,2,,,,,,,,,1,,,58,0
209976,note_on,96,0,4,,,,,,,,,3,,,58,0
210000,note_on,24,0,4,,,,,,,,,3,,,65,72
210000,note_on,24,0,5,,,,,,,,,4,,,46,72
210000,note_on,24,0,3,,,,,,,,,2,,,74,72
210000,note_on,24,0,1,,,,,,,,,0,,,74,105
210000,note_on,24,0,2,,,,,,,,,1,,,74,72
210096,note_on,96,0,2,,,,,,,,,1,,,74,0
210096,note_on,96,0,5,,,,,,,,,4,,,46,0
210096,note_on,96,0,4,,,,,,,,,3,,,65,0
210096,note_on,96,0,3,,,,,,,,,2,,,74,0
210096,note_on,96,0,1,,,,,,,,,0,,,74,0
210120,note_on,24,0,1,,,,,,,,,0,,,63,105
210120,note_on,24,0,2,,,,,,,,,1,,,63,58
210120,note_on,24,0,5,,,,,,,,,4,,,39,58
210120,note_on,24,0,3,,,,,,,,,2,,,63,58
210120,note_on,24,0,4,,,,,,,,,3,,,55,58
210192,note_on,72,0,1,,,,,,,,,0,,,63,0
210210,note_on,18,0,1,,,,,,,,,0,,,67,105
210234,note_on,24,0,1,,,,,,,,,0,,,67,0
210240,note_on,6,0,1,,,,,,,,,0,,,65,105
210252,note_on,12,0,1,,,,,,,,,0,,,65,0
210255,note_on,3,0,1,,,,,,,,,0,,,63,105
210267,note_on,12,0,1,,,,,,,,,0,,,63,0
210270,note_on,3,0,1,,,,,,,,,0,,,65,105
210282,note_on,12,0,1,,,,,,,,,0,,,65,0
210285,note_on,3,0,1,,,,,,,,,0,,,67,105
210297,note_on,12,0,1,,,,,,,,,0,,,67,0
210300,note_on,3,0,1,,,,,,,,,0,,,68,105
210312,note_on,192,0,3,,,,,,,,,2,,,63,0
210312,note_on,192,0,5,,,,,,,,,4,,,39,0
210312,note_on,192,0,2,,,,,,,,,1,,,63,0
210312,note_on,192,0,4,,,,,,,,,3,,,55,0
210312,note_on,12,0,1,,,,,,,,,0,,,68,0
210315,note_on,3,0,1,,,,,,,,,0,,,70,105
210327,note_on,12,0,1,,,,,,,,,0,,,70,0
210330,note_on,3,0,1,,,,,,,,,0,,,72,105
210342,note_on,12,0,1,,,,,,,,,0,,,72,0
210345,note_on,3,0,1,,,,,,,,,0,,,74,105
210357,note_on,12,0,1,,,,,,,,,0,,,74,0
210360,note_on,3,0,1,,,,,,,,,0,,,75,105
210456,note_on,96,0,1,,,,,,,,,0,,,75,0
210480,note_on,168,0,5,,,,,,,,,4,,,51,92
210480,note_on,168,0,4,,,,,,,,,3,,,67,92
210480,note_on,168,0,2,,,,,,,,,1,,,75,92
210480,note_on,24,0,1,,,,,,,,,0,,,75,92
210480,note_on,168,0,3,,,,,,,,,2,,,75,92
210600,note_on,0,0,1,,,,,,,,,0,,,58,72
210600,note_on,0,0,5,,,,,,,,,4,,,58,72
210600,note_on,120,0,5,,,,,,,,,4,,,51,0
210600,note_on,120,0,2,,,,,,,,,1,,,75,0
210600,note_on,120,0,1,,,,,,,,,0,,,75,0
210600,note_on,0,0,2,,,,,,,,,1,,,58,72
210600,note_on,120,0,3,,,,,,,,,2,,,75,0
210600,note_on,0,0,3,,,,,,,,,2,,,58,72
210600,note_on,0,0,4,,,,,,,,,3,,,58,72
210600,note_on,120,0,4,,,,,,,,,3,,,67,0
210696,note_on,96,0,2,,,,,,,,,1,,,58,0
210696,note_on,96,0,1,,,,,,,,,0,,,58,0
210696,note_on,96,0,3,,,,,,,,,2,,,58,0
210696,note_on,96,0,5,,,,,,,,,4,,,58,0
210696,note_on,96,0,4,,,,,,,,,3,,,58,0
210720,note_on,24,0,2,,,,,,,,,1,,,74,72
210720,note_on,24,0,5,,,,,,,,,4,,,46,72
210720,note_on,24,0,1,,,,,,,,,0,,,74,72
210720,note_on,24,0,3,,,,,,,,,2,,,74,72
210720,note_on,24,0,4,,,,,,,,,3,,,65,72
210816,note_on,96,0,3,,,,,,,,,2,,,74,0
210816,note_on,96,0,5,,,,,,,,,4,,,46,0
210816,note_on,96,0,4,,,,,,,,,3,,,65,0
210816,note_on,96,0,2,,,,,,,,,1,,,74,0
210816,note_on,96,0,1,,,,,,,,,0,,,74,0
210840,note_on,24,0,3,,,,,,,,,2,,,63,72
210840,time_signature,104760,1,0,4,4,24,8,,,,,,,,,
210840,note_on,24,0,5,,,,,,,,,4,,,39,72
210840,set_tempo,0,1,0,,,,,,705882,,,,,,,
210840,end_of_track,0,1,0,,,,,,,,,,,,,
210840,note_on,24,0,2,,,,,,,,,1,,,63,72
210840,note_on,24,0,1,,,,,,,,,0,,,63,72
210840,note_on,24,0,4,,,,,,,,,3,,,55,72
211608,note_on,768,0,5,,,,,,,,,4,,,39,0
211608,end_of_track,0,1,2,,,,,,,,,,,,,
211608,note_on,768,0,2,,,,,,,,,1,,,63,0
211608,end_of_track,0,1,3,,,,,,,,,,,,,
211608,note_on,768,0,1,,,,,,,,,0,,,63,0
211608,end_of_track,0,1,1,,,,,,,,,,,,,
211608,end_of_track,0,1,4,,,,,,,,,,,,,
211608,note_on,768,0,4,,,,,,,,,3,,,55,0
211608,end_of_track,0,1,5,,,,,,,,,,,,,
211608,note_on,768,0,3,,,,,,,,,2,,,63,0
